<svg xmlns="http://www.w3.org/2000/svg" version="1.1" style="font-family:&#x27;Helvetica Neue&#x27;, Helvetica, Arial, sans-serif;font-size:18px;background-color:white;text-rendering:optimizeLegibility;-webkit-font-smoothing:antialiased" width="850" height="600"><g class="ChartTab"><g class="HeaderView"><g opacity="0.8" transform="translate(778, 15) scale(0.27)"><a xmlns:xlink="http://www.w3.org/1999/xlink" xlink:href="https://ourworldindata.org" target="_blank"><g><rect x="0" y="0" fill="#1B2543" width="211.2" height="130.1"/><rect x="0" y="112.2" fill="#E63912" width="211.2" height="17.9"/><g><rect x="1.2" y="12.3" fill="none" width="210.2" height="99.2"/><path fill="#FFFFFF" d="M37.8,32.2c0,12.7-7.7,19.4-17.1,19.4c-9.7,0-16.6-7.5-16.6-18.7c0-11.7,7.3-19.3,17.1-19.3 C31.3,13.7,37.8,21.3,37.8,32.2z M9.2,32.8c0,7.9,4.3,14.9,11.8,14.9c7.5,0,11.8-6.9,11.8-15.3c0-7.3-3.8-14.9-11.8-14.9 C13.1,17.5,9.2,24.8,9.2,32.8z"/><path fill="#FFFFFF" d="M62.7,43.8c0,2.7,0.1,5.1,0.2,7.2h-4.3l-0.3-4.3h-0.1c-1.3,2.1-4,4.9-8.8,4.9c-4.2,0-9.1-2.3-9.1-11.6 V24.6h4.8v14.6c0,5,1.5,8.4,5.9,8.4c3.2,0,5.5-2.2,6.3-4.4c0.3-0.7,0.4-1.6,0.4-2.5V24.6h4.8V43.8z"/><path fill="#FFFFFF" d="M67.3,32.8c0-3.1-0.1-5.8-0.2-8.2h4.2l0.2,5.2h0.2c1.2-3.5,4.1-5.8,7.3-5.8c0.5,0,0.9,0.1,1.4,0.2v4.5 c-0.5-0.1-1-0.2-1.6-0.2c-3.4,0-5.8,2.6-6.5,6.2c-0.1,0.7-0.2,1.4-0.2,2.2V51h-4.8V32.8z"/><path fill="#FFFFFF" d="M95.4,51l-9.4-36.8h5l4.4,18.6c1.1,4.6,2.1,9.2,2.7,12.7h0.1c0.6-3.7,1.8-8,3-12.8l4.9-18.5h5l4.5,18.7 c1,4.4,2,8.7,2.6,12.6h0.1c0.8-4,1.8-8.1,3-12.7l4.9-18.5h4.9L120.6,51h-5L111,31.9c-1.1-4.7-1.9-8.3-2.4-12h-0.1 c-0.7,3.7-1.5,7.3-2.8,12L100.4,51H95.4z"/><path fill="#FFFFFF" d="M154.9,37.6c0,9.8-6.8,14-13.2,14c-7.2,0-12.7-5.2-12.7-13.6c0-8.8,5.8-14,13.1-14 C149.8,24,154.9,29.5,154.9,37.6z M133.9,37.9c0,5.8,3.3,10.1,8,10.1c4.6,0,8-4.3,8-10.3c0-4.5-2.2-10.1-7.9-10.1 C136.3,27.6,133.9,32.8,133.9,37.9z"/><path fill="#FFFFFF" d="M158.2,32.8c0-3.1-0.1-5.8-0.2-8.2h4.2l0.2,5.2h0.2c1.2-3.5,4.1-5.8,7.3-5.8c0.5,0,0.9,0.1,1.4,0.2v4.5 c-0.5-0.1-1-0.2-1.6-0.2c-3.4,0-5.8,2.6-6.5,6.2c-0.1,0.7-0.2,1.4-0.2,2.2V51h-4.8V32.8z"/><path fill="#FFFFFF" d="M173.5,12.3h4.8V51h-4.8V12.3z"/><path fill="#FFFFFF" d="M206.5,12.3v31.9c0,2.3,0.1,5,0.2,6.8h-4.3l-0.2-4.6H202c-1.5,2.9-4.7,5.2-9,5.2 c-6.4,0-11.3-5.4-11.3-13.4c-0.1-8.8,5.4-14.2,11.9-14.2c4,0,6.8,1.9,8,4h0.1V12.3H206.5z M201.7,35.4c0-0.6-0.1-1.4-0.2-2 c-0.7-3.1-3.3-5.6-6.9-5.6c-5,0-7.9,4.4-7.9,10.2c0,5.3,2.6,9.8,7.8,9.8c3.2,0,6.2-2.1,7.1-5.7c0.2-0.7,0.2-1.3,0.2-2.1V35.4z"/><path fill="#FFFFFF" d="M42.8,64c0.1,1.6-1.1,2.9-3.1,2.9c-1.7,0-2.9-1.3-2.9-2.9c0-1.7,1.3-3,3-3C41.7,61,42.8,62.3,42.8,64z M37.4,97.8V71.4h4.8v26.4H37.4z"/><path fill="#FFFFFF" d="M47.5,78.6c0-2.7-0.1-5-0.2-7.1h4.3l0.3,4.4h0.1c1.3-2.5,4.4-5,8.8-5c3.7,0,9.4,2.2,9.4,11.2v15.8h-4.8 V82.6c0-4.3-1.6-7.8-6.1-7.8c-3.2,0-5.6,2.2-6.5,4.9c-0.2,0.6-0.3,1.4-0.3,2.2v15.9h-4.8V78.6z"/><path fill="#FFFFFF" d="M84,61.6c2.9-0.4,6.3-0.8,10.1-0.8c6.8,0,11.7,1.6,14.9,4.6c3.3,3,5.2,7.3,5.2,13.2c0,6-1.9,10.9-5.3,14.3 c-3.4,3.4-9.1,5.3-16.3,5.3c-3.4,0-6.2-0.2-8.6-0.4V61.6z M88.8,94.1c1.2,0.2,3,0.3,4.8,0.3c10.2,0,15.7-5.7,15.7-15.6 c0.1-8.7-4.9-14.2-14.9-14.2c-2.5,0-4.3,0.2-5.6,0.5V94.1z"/><path fill="#FFFFFF" d="M132.1,97.8l-0.4-3.3h-0.2c-1.5,2.1-4.3,3.9-8.1,3.9c-5.4,0-8.1-3.8-8.1-7.6c0-6.4,5.7-9.9,15.9-9.8v-0.5 c0-2.2-0.6-6.1-6-6.1c-2.5,0-5,0.8-6.9,2l-1.1-3.2c2.2-1.4,5.4-2.3,8.7-2.3c8.1,0,10.1,5.5,10.1,10.8v9.9c0,2.3,0.1,4.5,0.4,6.3 H132.1z M131.4,84.4c-5.3-0.1-11.2,0.8-11.2,5.9c0,3.1,2.1,4.6,4.5,4.6c3.4,0,5.6-2.2,6.4-4.4c0.2-0.5,0.3-1,0.3-1.5V84.4z"/><path fill="#FFFFFF" d="M146.6,63.9v7.6h6.9v3.7h-6.9v14.2c0,3.3,0.9,5.1,3.6,5.1c1.3,0,2.2-0.2,2.8-0.3l0.2,3.6 c-0.9,0.4-2.4,0.7-4.3,0.7c-2.2,0-4-0.7-5.2-2c-1.4-1.4-1.9-3.8-1.9-6.9V75.1h-4.1v-3.7h4.1v-6.3L146.6,63.9z"/><path fill="#FFFFFF" d="M171.4,97.8l-0.4-3.3h-0.2c-1.5,2.1-4.3,3.9-8.1,3.9c-5.4,0-8.1-3.8-8.1-7.6c0-6.4,5.7-9.9,15.9-9.8v-0.5 c0-2.2-0.6-6.1-6-6.1c-2.5,0-5,0.8-6.9,2l-1.1-3.2c2.2-1.4,5.4-2.3,8.7-2.3c8.1,0,10.1,5.5,10.1,10.8v9.9c0,2.3,0.1,4.5,0.4,6.3 H171.4z M170.7,84.4c-5.3-0.1-11.2,0.8-11.2,5.9c0,3.1,2.1,4.6,4.5,4.6c3.4,0,5.6-2.2,6.4-4.4c0.2-0.5,0.3-1,0.3-1.5V84.4z"/></g></g></a></g><a href="https://ourworldindata.org/grapher/adjusted-net-savings-per-person" target="_blank"><text font-size="25.20" x="15.0" y="35.2" fill="#555"><tspan x="15" y="35.160000000000004">Adjusted net savings per capita</tspan></text></a><text font-size="14.40" x="15.0" y="53.7" fill="#666"><tspan x="15" y="53.72">Adjusted net savings are equal to net national savings plus education expenditure and minus energy depletion,</tspan><tspan x="15" y="69.56">mineral depletion, net forest depletion, and carbon dioxide.</tspan></text></g><g class="LineChart"><defs><clipPath id="boundsClip-692"><rect x="65.242" y="0" width="830" height="928.8"></rect></clipPath></defs><g class="AxisBoxView"><g class="HorizontalAxis"><text x="75.2" y="556.5" fill="#666" text-anchor="middle" font-size="16.2">1970</text><text x="214.9" y="556.5" fill="#666" text-anchor="middle" font-size="16.2">1980</text><text x="354.5" y="556.5" fill="#666" text-anchor="middle" font-size="16.2">1990</text><text x="494.2" y="556.5" fill="#666" text-anchor="middle" font-size="16.2">2000</text><text x="633.8" y="556.5" fill="#666" text-anchor="middle" font-size="16.2">2010</text><text x="703.6" y="556.5" fill="#666" text-anchor="middle" font-size="16.2">2015</text></g><g class="VerticalAxis"><text x="70.24" y="528.7" fill="#666" dominant-baseline="middle" text-anchor="end" font-size="16.2">$-1,000</text><text x="70.24" y="470.1" fill="#666" dominant-baseline="middle" text-anchor="end" font-size="16.2">$0</text><text x="70.24" y="411.5" fill="#666" dominant-baseline="middle" text-anchor="end" font-size="16.2">$1,000</text><text x="70.24" y="353" fill="#666" dominant-baseline="middle" text-anchor="end" font-size="16.2">$2,000</text><text x="70.24" y="294.4" fill="#666" dominant-baseline="middle" text-anchor="end" font-size="16.2">$3,000</text><text x="70.24" y="235.8" fill="#666" dominant-baseline="middle" text-anchor="end" font-size="16.2">$4,000</text><text x="70.24" y="177.3" fill="#666" dominant-baseline="middle" text-anchor="end" font-size="16.2">$5,000</text><text x="70.24" y="118.7" fill="#666" dominant-baseline="middle" text-anchor="end" font-size="16.2">$6,000</text></g><g class="AxisGridLines"><line x1="75.24" y1="528.7" x2="703.61" y2="528.7" stroke="#ddd" stroke-dasharray="3,2"></line><line x1="75.24" y1="470.1" x2="703.61" y2="470.1" stroke="#ccc"></line><line x1="75.24" y1="411.5" x2="703.61" y2="411.5" stroke="#ddd" stroke-dasharray="3,2"></line><line x1="75.24" y1="353" x2="703.61" y2="353" stroke="#ddd" stroke-dasharray="3,2"></line><line x1="75.24" y1="294.4" x2="703.61" y2="294.4" stroke="#ddd" stroke-dasharray="3,2"></line><line x1="75.24" y1="235.8" x2="703.61" y2="235.8" stroke="#ddd" stroke-dasharray="3,2"></line><line x1="75.24" y1="177.3" x2="703.61" y2="177.3" stroke="#ddd" stroke-dasharray="3,2"></line><line x1="75.24" y1="118.7" x2="703.61" y2="118.7" stroke="#ddd" stroke-dasharray="3,2"></line></g></g><g clip-path="url(#boundsClip-692)"><g class="HeightedLegend clickable"><g class="legendMark"><rect x="703.61" y="123.65" width="90.62" height="13.5" fill="#fff" opacity="0"></rect><text font-size="13.50" x="708.6" y="134.5" fill="#e6332e"><tspan x="708.61" y="134.45000000000002">Germany</tspan></text></g><g class="legendMark"><rect x="703.61" y="303.25" width="77.12" height="13.5" fill="#fff" opacity="0"></rect><text font-size="13.50" x="708.6" y="314.1" fill="#2a939b"><tspan x="708.61" y="314.05">France</tspan></text></g><g class="legendMark"><rect x="703.61" y="352.15" width="131.39" height="13.5" fill="#fff" opacity="0"></rect><text font-size="13.50" x="708.6" y="362.9" fill="#a652ba"><tspan x="708.61" y="362.95">United Kingdom</tspan></text></g><g class="legendMark"><rect x="703.61" y="395.95" width="77.795" height="13.5" fill="#fff" opacity="0"></rect><text font-size="13.50" x="708.6" y="406.8" fill="#f6a324"><tspan x="708.61" y="406.75">Mexico</tspan></text></g><g class="legendMark"><rect x="703.61" y="415.45" width="68.75" height="13.5" fill="#fff" opacity="0"></rect><text font-size="13.50" x="708.6" y="426.3" fill="#34983f"><tspan x="708.61" y="426.25">Brazil</tspan></text></g><g class="legendMark"><rect x="703.61" y="443.55" width="85.49000000000001" height="13.5" fill="#fff" opacity="0"></rect><text font-size="13.50" x="708.6" y="454.4" fill="#ca2628"><tspan x="708.61" y="454.35">Portugal</tspan></text></g><g class="legendMark"><rect x="703.61" y="509.85" width="74.96000000000001" height="13.5" fill="#fff" opacity="0"></rect><text font-size="13.50" x="708.6" y="520.6" fill="#3360a9"><tspan x="708.61" y="520.65">Congo</tspan></text></g></g><g class="Lines"><rect x="75" y="92" width="628" height="443" fill="rgba(255,255,255,0)" opacity="0"></rect><g class="key-Germany_0"><path stroke="#e6332e" stroke-linecap="round" d="M369 306L382 291L396 324L410 314L424 283L438 302L452 319L466 315L480 327L494 348L508 353L522 349L536 337L550 268L564 270L578 210L592 118L606 123L620 233L634 187L648 95L662 145L676 129L690 92L704 130" fill="none" stroke-width="1.5"></path><g fill="#e6332e"><circle cx="369" cy="306" r="2"></circle><circle cx="382" cy="291" r="2"></circle><circle cx="396" cy="324" r="2"></circle><circle cx="410" cy="314" r="2"></circle><circle cx="424" cy="283" r="2"></circle><circle cx="438" cy="302" r="2"></circle><circle cx="452" cy="319" r="2"></circle><circle cx="466" cy="315" r="2"></circle><circle cx="480" cy="327" r="2"></circle><circle cx="494" cy="348" r="2"></circle><circle cx="508" cy="353" r="2"></circle><circle cx="522" cy="349" r="2"></circle><circle cx="536" cy="337" r="2"></circle><circle cx="550" cy="268" r="2"></circle><circle cx="564" cy="270" r="2"></circle><circle cx="578" cy="210" r="2"></circle><circle cx="592" cy="118" r="2"></circle><circle cx="606" cy="123" r="2"></circle><circle cx="620" cy="233" r="2"></circle><circle cx="634" cy="187" r="2"></circle><circle cx="648" cy="95" r="2"></circle><circle cx="662" cy="145" r="2"></circle><circle cx="676" cy="129" r="2"></circle><circle cx="690" cy="92" r="2"></circle><circle cx="704" cy="130" r="2"></circle></g></g><g class="key-France_0"><path stroke="#2a939b" stroke-linecap="round" d="M145 412L159 413L173 409L187 391L201 376L215 373L229 400L243 411L257 416L271 420L285 417L299 385L313 371L327 349L341 344L355 314L369 323L382 316L396 335L410 322L424 286L438 289L452 291L466 273L480 267L494 297L508 303L522 310L536 282L550 251L564 256L578 238L592 194L606 196L620 303L634 295L648 263L662 314L676 310L690 312L704 310" fill="none" stroke-width="1.5"></path><g fill="#2a939b"><circle cx="145" cy="412" r="2"></circle><circle cx="159" cy="413" r="2"></circle><circle cx="173" cy="409" r="2"></circle><circle cx="187" cy="391" r="2"></circle><circle cx="201" cy="376" r="2"></circle><circle cx="215" cy="373" r="2"></circle><circle cx="229" cy="400" r="2"></circle><circle cx="243" cy="411" r="2"></circle><circle cx="257" cy="416" r="2"></circle><circle cx="271" cy="420" r="2"></circle><circle cx="285" cy="417" r="2"></circle><circle cx="299" cy="385" r="2"></circle><circle cx="313" cy="371" r="2"></circle><circle cx="327" cy="349" r="2"></circle><circle cx="341" cy="344" r="2"></circle><circle cx="355" cy="314" r="2"></circle><circle cx="369" cy="323" r="2"></circle><circle cx="382" cy="316" r="2"></circle><circle cx="396" cy="335" r="2"></circle><circle cx="410" cy="322" r="2"></circle><circle cx="424" cy="286" r="2"></circle><circle cx="438" cy="289" r="2"></circle><circle cx="452" cy="291" r="2"></circle><circle cx="466" cy="273" r="2"></circle><circle cx="480" cy="267" r="2"></circle><circle cx="494" cy="297" r="2"></circle><circle cx="508" cy="303" r="2"></circle><circle cx="522" cy="310" r="2"></circle><circle cx="536" cy="282" r="2"></circle><circle cx="550" cy="251" r="2"></circle><circle cx="564" cy="256" r="2"></circle><circle cx="578" cy="238" r="2"></circle><circle cx="592" cy="194" r="2"></circle><circle cx="606" cy="196" r="2"></circle><circle cx="620" cy="303" r="2"></circle><circle cx="634" cy="295" r="2"></circle><circle cx="648" cy="263" r="2"></circle><circle cx="662" cy="314" r="2"></circle><circle cx="676" cy="310" r="2"></circle><circle cx="690" cy="312" r="2"></circle><circle cx="704" cy="310" r="2"></circle></g></g><g class="key-Brazil_0"><path stroke="#34983f" stroke-linecap="round" d="M145 458L159 458L173 456L187 455L201 456L215 456L229 453L243 457L257 465L271 463L285 459L299 458L313 451L327 446L341 418L355 446L369 438L382 447L396 445L410 440L424 443L438 445L452 447L466 448L480 460L494 457L508 460L522 458L536 455L550 447L564 442L578 435L592 425L606 419L620 424L634 390L648 376L662 382L676 379L690 398L704 422" fill="none" stroke-width="1.5"></path><g fill="#34983f"><circle cx="145" cy="458" r="2"></circle><circle cx="159" cy="458" r="2"></circle><circle cx="173" cy="456" r="2"></circle><circle cx="187" cy="455" r="2"></circle><circle cx="201" cy="456" r="2"></circle><circle cx="215" cy="456" r="2"></circle><circle cx="229" cy="453" r="2"></circle><circle cx="243" cy="457" r="2"></circle><circle cx="257" cy="465" r="2"></circle><circle cx="271" cy="463" r="2"></circle><circle cx="285" cy="459" r="2"></circle><circle cx="299" cy="458" r="2"></circle><circle cx="313" cy="451" r="2"></circle><circle cx="327" cy="446" r="2"></circle><circle cx="341" cy="418" r="2"></circle><circle cx="355" cy="446" r="2"></circle><circle cx="369" cy="438" r="2"></circle><circle cx="382" cy="447" r="2"></circle><circle cx="396" cy="445" r="2"></circle><circle cx="410" cy="440" r="2"></circle><circle cx="424" cy="443" r="2"></circle><circle cx="438" cy="445" r="2"></circle><circle cx="452" cy="447" r="2"></circle><circle cx="466" cy="448" r="2"></circle><circle cx="480" cy="460" r="2"></circle><circle cx="494" cy="457" r="2"></circle><circle cx="508" cy="460" r="2"></circle><circle cx="522" cy="458" r="2"></circle><circle cx="536" cy="455" r="2"></circle><circle cx="550" cy="447" r="2"></circle><circle cx="564" cy="442" r="2"></circle><circle cx="578" cy="435" r="2"></circle><circle cx="592" cy="425" r="2"></circle><circle cx="606" cy="419" r="2"></circle><circle cx="620" cy="424" r="2"></circle><circle cx="634" cy="390" r="2"></circle><circle cx="648" cy="376" r="2"></circle><circle cx="662" cy="382" r="2"></circle><circle cx="676" cy="379" r="2"></circle><circle cx="690" cy="398" r="2"></circle><circle cx="704" cy="422" r="2"></circle></g></g><g class="key-Mexico_0"><path stroke="#f6a324" stroke-linecap="round" d="M201 456L215 451L229 445L243 455L257 460L271 459L285 458L299 467L313 464L327 460L341 458L355 455L369 451L382 452L396 447L410 446L424 455L438 446L452 439L466 439L480 433L494 425L508 428L522 431L536 424L550 421L564 421L578 412L592 395L606 396L620 408L634 403L648 408L662 407L676 416L690 408L704 403" fill="none" stroke-width="1.5"></path><g fill="#f6a324"><circle cx="201" cy="456" r="2"></circle><circle cx="215" cy="451" r="2"></circle><circle cx="229" cy="445" r="2"></circle><circle cx="243" cy="455" r="2"></circle><circle cx="257" cy="460" r="2"></circle><circle cx="271" cy="459" r="2"></circle><circle cx="285" cy="458" r="2"></circle><circle cx="299" cy="467" r="2"></circle><circle cx="313" cy="464" r="2"></circle><circle cx="327" cy="460" r="2"></circle><circle cx="341" cy="458" r="2"></circle><circle cx="355" cy="455" r="2"></circle><circle cx="369" cy="451" r="2"></circle><circle cx="382" cy="452" r="2"></circle><circle cx="396" cy="447" r="2"></circle><circle cx="410" cy="446" r="2"></circle><circle cx="424" cy="455" r="2"></circle><circle cx="438" cy="446" r="2"></circle><circle cx="452" cy="439" r="2"></circle><circle cx="466" cy="439" r="2"></circle><circle cx="480" cy="433" r="2"></circle><circle cx="494" cy="425" r="2"></circle><circle cx="508" cy="428" r="2"></circle><circle cx="522" cy="431" r="2"></circle><circle cx="536" cy="424" r="2"></circle><circle cx="550" cy="421" r="2"></circle><circle cx="564" cy="421" r="2"></circle><circle cx="578" cy="412" r="2"></circle><circle cx="592" cy="395" r="2"></circle><circle cx="606" cy="396" r="2"></circle><circle cx="620" cy="408" r="2"></circle><circle cx="634" cy="403" r="2"></circle><circle cx="648" cy="408" r="2"></circle><circle cx="662" cy="407" r="2"></circle><circle cx="676" cy="416" r="2"></circle><circle cx="690" cy="408" r="2"></circle><circle cx="704" cy="403" r="2"></circle></g></g><g class="key-United-Kingdom_0"><path stroke="#a652ba" stroke-linecap="round" d="M75 440L89 437L103 437L117 430L131 432L145 423L159 420L173 416L187 405L201 401L215 397L229 412L243 416L257 417L271 421L285 420L299 406L313 394L327 372L341 382L355 389L369 394L382 392L396 390L410 345L424 391L438 383L452 348L466 325L480 367L494 364L508 376L522 363L536 345L550 338L564 308L578 325L592 290L606 357L620 424L634 370L648 353L662 390L676 386L690 362L704 359" fill="none" stroke-width="1.5"></path><g fill="#a652ba"><circle cx="75" cy="440" r="2"></circle><circle cx="89" cy="437" r="2"></circle><circle cx="103" cy="437" r="2"></circle><circle cx="117" cy="430" r="2"></circle><circle cx="131" cy="432" r="2"></circle><circle cx="145" cy="423" r="2"></circle><circle cx="159" cy="420" r="2"></circle><circle cx="173" cy="416" r="2"></circle><circle cx="187" cy="405" r="2"></circle><circle cx="201" cy="401" r="2"></circle><circle cx="215" cy="397" r="2"></circle><circle cx="229" cy="412" r="2"></circle><circle cx="243" cy="416" r="2"></circle><circle cx="257" cy="417" r="2"></circle><circle cx="271" cy="421" r="2"></circle><circle cx="285" cy="420" r="2"></circle><circle cx="299" cy="406" r="2"></circle><circle cx="313" cy="394" r="2"></circle><circle cx="327" cy="372" r="2"></circle><circle cx="341" cy="382" r="2"></circle><circle cx="355" cy="389" r="2"></circle><circle cx="369" cy="394" r="2"></circle><circle cx="382" cy="392" r="2"></circle><circle cx="396" cy="390" r="2"></circle><circle cx="410" cy="345" r="2"></circle><circle cx="424" cy="391" r="2"></circle><circle cx="438" cy="383" r="2"></circle><circle cx="452" cy="348" r="2"></circle><circle cx="466" cy="325" r="2"></circle><circle cx="480" cy="367" r="2"></circle><circle cx="494" cy="364" r="2"></circle><circle cx="508" cy="376" r="2"></circle><circle cx="522" cy="363" r="2"></circle><circle cx="536" cy="345" r="2"></circle><circle cx="550" cy="338" r="2"></circle><circle cx="564" cy="308" r="2"></circle><circle cx="578" cy="325" r="2"></circle><circle cx="592" cy="290" r="2"></circle><circle cx="606" cy="357" r="2"></circle><circle cx="620" cy="424" r="2"></circle><circle cx="634" cy="370" r="2"></circle><circle cx="648" cy="353" r="2"></circle><circle cx="662" cy="390" r="2"></circle><circle cx="676" cy="386" r="2"></circle><circle cx="690" cy="362" r="2"></circle><circle cx="704" cy="359" r="2"></circle></g></g><g class="key-Portugal_0"><path stroke="#ca2628" stroke-linecap="round" d="M145 468L159 462L173 455L187 450L201 444L215 437L229 443L243 449L257 455L271 460L285 456L299 442L313 427L327 416L341 410L355 396L369 394L382 372L396 397L410 403L424 381L438 398L452 394L466 386L480 403L494 427L508 426L522 429L536 429L550 435L564 455L578 469L592 457L606 502L620 499L634 499L648 479L662 475L676 444L690 452L704 450" fill="none" stroke-width="1.5"></path><g fill="#ca2628"><circle cx="145" cy="468" r="2"></circle><circle cx="159" cy="462" r="2"></circle><circle cx="173" cy="455" r="2"></circle><circle cx="187" cy="450" r="2"></circle><circle cx="201" cy="444" r="2"></circle><circle cx="215" cy="437" r="2"></circle><circle cx="229" cy="443" r="2"></circle><circle cx="243" cy="449" r="2"></circle><circle cx="257" cy="455" r="2"></circle><circle cx="271" cy="460" r="2"></circle><circle cx="285" cy="456" r="2"></circle><circle cx="299" cy="442" r="2"></circle><circle cx="313" cy="427" r="2"></circle><circle cx="327" cy="416" r="2"></circle><circle cx="341" cy="410" r="2"></circle><circle cx="355" cy="396" r="2"></circle><circle cx="369" cy="394" r="2"></circle><circle cx="382" cy="372" r="2"></circle><circle cx="396" cy="397" r="2"></circle><circle cx="410" cy="403" r="2"></circle><circle cx="424" cy="381" r="2"></circle><circle cx="438" cy="398" r="2"></circle><circle cx="452" cy="394" r="2"></circle><circle cx="466" cy="386" r="2"></circle><circle cx="480" cy="403" r="2"></circle><circle cx="494" cy="427" r="2"></circle><circle cx="508" cy="426" r="2"></circle><circle cx="522" cy="429" r="2"></circle><circle cx="536" cy="429" r="2"></circle><circle cx="550" cy="435" r="2"></circle><circle cx="564" cy="455" r="2"></circle><circle cx="578" cy="469" r="2"></circle><circle cx="592" cy="457" r="2"></circle><circle cx="606" cy="502" r="2"></circle><circle cx="620" cy="499" r="2"></circle><circle cx="634" cy="499" r="2"></circle><circle cx="648" cy="479" r="2"></circle><circle cx="662" cy="475" r="2"></circle><circle cx="676" cy="444" r="2"></circle><circle cx="690" cy="452" r="2"></circle><circle cx="704" cy="450" r="2"></circle></g></g><g class="key-Congo_0"><path stroke="#3360a9" stroke-linecap="round" d="M187 475L201 478L215 475L229 471L243 456L257 463L271 470L285 477L299 476L313 476L327 486L341 488L355 481L369 482L382 473L396 482L410 477L424 491L438 494L452 489L466 481L480 487L494 488L508 485L522 483L536 493L550 492L564 510L578 535L592 517" fill="none" stroke-width="1.5"></path><g fill="#3360a9"><circle cx="187" cy="475" r="2"></circle><circle cx="201" cy="478" r="2"></circle><circle cx="215" cy="475" r="2"></circle><circle cx="229" cy="471" r="2"></circle><circle cx="243" cy="456" r="2"></circle><circle cx="257" cy="463" r="2"></circle><circle cx="271" cy="470" r="2"></circle><circle cx="285" cy="477" r="2"></circle><circle cx="299" cy="476" r="2"></circle><circle cx="313" cy="476" r="2"></circle><circle cx="327" cy="486" r="2"></circle><circle cx="341" cy="488" r="2"></circle><circle cx="355" cy="481" r="2"></circle><circle cx="369" cy="482" r="2"></circle><circle cx="382" cy="473" r="2"></circle><circle cx="396" cy="482" r="2"></circle><circle cx="410" cy="477" r="2"></circle><circle cx="424" cy="491" r="2"></circle><circle cx="438" cy="494" r="2"></circle><circle cx="452" cy="489" r="2"></circle><circle cx="466" cy="481" r="2"></circle><circle cx="480" cy="487" r="2"></circle><circle cx="494" cy="488" r="2"></circle><circle cx="508" cy="485" r="2"></circle><circle cx="522" cy="483" r="2"></circle><circle cx="536" cy="493" r="2"></circle><circle cx="550" cy="492" r="2"></circle><circle cx="564" cy="510" r="2"></circle><circle cx="578" cy="535" r="2"></circle><circle cx="592" cy="517" r="2"></circle></g></g></g></g></g><g class="SourcesFooter" style="fill:#777"><g class="clickable" style="fill:#777"><text font-size="12.60" x="15.0" y="581.6"><tspan x="15" y="581.58">Source: World Bank</tspan></text></g><text font-size="12.60" x="775.4" y="581.6"><tspan x="775.402" y="581.58"><a style="fill: #777;" class="cclogo" href="http://creativecommons.org/licenses/by-sa/4.0/deed.en_US" target="_blank">CC BY-SA</a></tspan></text></g></g></svg>