<svg xmlns="http://www.w3.org/2000/svg" version="1.1" style="font-family:&#x27;Helvetica Neue&#x27;, Helvetica, Arial, sans-serif;font-size:18px;background-color:white;text-rendering:optimizeLegibility;-webkit-font-smoothing:antialiased" width="850" height="600"><g class="ChartTab"><g class="HeaderView"><g opacity="0.8" transform="translate(778, 15) scale(0.27)"><a xmlns:xlink="http://www.w3.org/1999/xlink" xlink:href="https://ourworldindata.org" target="_blank"><g><rect x="0" y="0" fill="#1B2543" width="211.2" height="130.1"/><rect x="0" y="112.2" fill="#E63912" width="211.2" height="17.9"/><g><rect x="1.2" y="12.3" fill="none" width="210.2" height="99.2"/><path fill="#FFFFFF" d="M37.8,32.2c0,12.7-7.7,19.4-17.1,19.4c-9.7,0-16.6-7.5-16.6-18.7c0-11.7,7.3-19.3,17.1-19.3 C31.3,13.7,37.8,21.3,37.8,32.2z M9.2,32.8c0,7.9,4.3,14.9,11.8,14.9c7.5,0,11.8-6.9,11.8-15.3c0-7.3-3.8-14.9-11.8-14.9 C13.1,17.5,9.2,24.8,9.2,32.8z"/><path fill="#FFFFFF" d="M62.7,43.8c0,2.7,0.1,5.1,0.2,7.2h-4.3l-0.3-4.3h-0.1c-1.3,2.1-4,4.9-8.8,4.9c-4.2,0-9.1-2.3-9.1-11.6 V24.6h4.8v14.6c0,5,1.5,8.4,5.9,8.4c3.2,0,5.5-2.2,6.3-4.4c0.3-0.7,0.4-1.6,0.4-2.5V24.6h4.8V43.8z"/><path fill="#FFFFFF" d="M67.3,32.8c0-3.1-0.1-5.8-0.2-8.2h4.2l0.2,5.2h0.2c1.2-3.5,4.1-5.8,7.3-5.8c0.5,0,0.9,0.1,1.4,0.2v4.5 c-0.5-0.1-1-0.2-1.6-0.2c-3.4,0-5.8,2.6-6.5,6.2c-0.1,0.7-0.2,1.4-0.2,2.2V51h-4.8V32.8z"/><path fill="#FFFFFF" d="M95.4,51l-9.4-36.8h5l4.4,18.6c1.1,4.6,2.1,9.2,2.7,12.7h0.1c0.6-3.7,1.8-8,3-12.8l4.9-18.5h5l4.5,18.7 c1,4.4,2,8.7,2.6,12.6h0.1c0.8-4,1.8-8.1,3-12.7l4.9-18.5h4.9L120.6,51h-5L111,31.9c-1.1-4.7-1.9-8.3-2.4-12h-0.1 c-0.7,3.7-1.5,7.3-2.8,12L100.4,51H95.4z"/><path fill="#FFFFFF" d="M154.9,37.6c0,9.8-6.8,14-13.2,14c-7.2,0-12.7-5.2-12.7-13.6c0-8.8,5.8-14,13.1-14 C149.8,24,154.9,29.5,154.9,37.6z M133.9,37.9c0,5.8,3.3,10.1,8,10.1c4.6,0,8-4.3,8-10.3c0-4.5-2.2-10.1-7.9-10.1 C136.3,27.6,133.9,32.8,133.9,37.9z"/><path fill="#FFFFFF" d="M158.2,32.8c0-3.1-0.1-5.8-0.2-8.2h4.2l0.2,5.2h0.2c1.2-3.5,4.1-5.8,7.3-5.8c0.5,0,0.9,0.1,1.4,0.2v4.5 c-0.5-0.1-1-0.2-1.6-0.2c-3.4,0-5.8,2.6-6.5,6.2c-0.1,0.7-0.2,1.4-0.2,2.2V51h-4.8V32.8z"/><path fill="#FFFFFF" d="M173.5,12.3h4.8V51h-4.8V12.3z"/><path fill="#FFFFFF" d="M206.5,12.3v31.9c0,2.3,0.1,5,0.2,6.8h-4.3l-0.2-4.6H202c-1.5,2.9-4.7,5.2-9,5.2 c-6.4,0-11.3-5.4-11.3-13.4c-0.1-8.8,5.4-14.2,11.9-14.2c4,0,6.8,1.9,8,4h0.1V12.3H206.5z M201.7,35.4c0-0.6-0.1-1.4-0.2-2 c-0.7-3.1-3.3-5.6-6.9-5.6c-5,0-7.9,4.4-7.9,10.2c0,5.3,2.6,9.8,7.8,9.8c3.2,0,6.2-2.1,7.1-5.7c0.2-0.7,0.2-1.3,0.2-2.1V35.4z"/><path fill="#FFFFFF" d="M42.8,64c0.1,1.6-1.1,2.9-3.1,2.9c-1.7,0-2.9-1.3-2.9-2.9c0-1.7,1.3-3,3-3C41.7,61,42.8,62.3,42.8,64z M37.4,97.8V71.4h4.8v26.4H37.4z"/><path fill="#FFFFFF" d="M47.5,78.6c0-2.7-0.1-5-0.2-7.1h4.3l0.3,4.4h0.1c1.3-2.5,4.4-5,8.8-5c3.7,0,9.4,2.2,9.4,11.2v15.8h-4.8 V82.6c0-4.3-1.6-7.8-6.1-7.8c-3.2,0-5.6,2.2-6.5,4.9c-0.2,0.6-0.3,1.4-0.3,2.2v15.9h-4.8V78.6z"/><path fill="#FFFFFF" d="M84,61.6c2.9-0.4,6.3-0.8,10.1-0.8c6.8,0,11.7,1.6,14.9,4.6c3.3,3,5.2,7.3,5.2,13.2c0,6-1.9,10.9-5.3,14.3 c-3.4,3.4-9.1,5.3-16.3,5.3c-3.4,0-6.2-0.2-8.6-0.4V61.6z M88.8,94.1c1.2,0.2,3,0.3,4.8,0.3c10.2,0,15.7-5.7,15.7-15.6 c0.1-8.7-4.9-14.2-14.9-14.2c-2.5,0-4.3,0.2-5.6,0.5V94.1z"/><path fill="#FFFFFF" d="M132.1,97.8l-0.4-3.3h-0.2c-1.5,2.1-4.3,3.9-8.1,3.9c-5.4,0-8.1-3.8-8.1-7.6c0-6.4,5.7-9.9,15.9-9.8v-0.5 c0-2.2-0.6-6.1-6-6.1c-2.5,0-5,0.8-6.9,2l-1.1-3.2c2.2-1.4,5.4-2.3,8.7-2.3c8.1,0,10.1,5.5,10.1,10.8v9.9c0,2.3,0.1,4.5,0.4,6.3 H132.1z M131.4,84.4c-5.3-0.1-11.2,0.8-11.2,5.9c0,3.1,2.1,4.6,4.5,4.6c3.4,0,5.6-2.2,6.4-4.4c0.2-0.5,0.3-1,0.3-1.5V84.4z"/><path fill="#FFFFFF" d="M146.6,63.9v7.6h6.9v3.7h-6.9v14.2c0,3.3,0.9,5.1,3.6,5.1c1.3,0,2.2-0.2,2.8-0.3l0.2,3.6 c-0.9,0.4-2.4,0.7-4.3,0.7c-2.2,0-4-0.7-5.2-2c-1.4-1.4-1.9-3.8-1.9-6.9V75.1h-4.1v-3.7h4.1v-6.3L146.6,63.9z"/><path fill="#FFFFFF" d="M171.4,97.8l-0.4-3.3h-0.2c-1.5,2.1-4.3,3.9-8.1,3.9c-5.4,0-8.1-3.8-8.1-7.6c0-6.4,5.7-9.9,15.9-9.8v-0.5 c0-2.2-0.6-6.1-6-6.1c-2.5,0-5,0.8-6.9,2l-1.1-3.2c2.2-1.4,5.4-2.3,8.7-2.3c8.1,0,10.1,5.5,10.1,10.8v9.9c0,2.3,0.1,4.5,0.4,6.3 H171.4z M170.7,84.4c-5.3-0.1-11.2,0.8-11.2,5.9c0,3.1,2.1,4.6,4.5,4.6c3.4,0,5.6-2.2,6.4-4.4c0.2-0.5,0.3-1,0.3-1.5V84.4z"/></g></g></a></g><a href="https://ourworldindata.org/grapher/age-standardized-death-rate-by-cause" target="_blank"><text font-size="25.20" x="15.0" y="35.2" fill="#555"><tspan x="15" y="35.160000000000004">Age-standardized death rate by cause, World</tspan></text></a><text font-size="14.40" x="15.0" y="53.7" fill="#666"><tspan x="15" y="53.72">Total death rates, measured as the number of deaths per 100,000 individuals. Death rates have been</tspan><tspan x="15" y="69.56">age-standardized to assume a constant age structure of the population to compare between countries and over time.</tspan><tspan x="15" y="85.4">Deaths have been broken down by non-communicable diseases (NCDs) which include cardiovascular diseases,</tspan><tspan x="15" y="101.24000000000001">cancers, diabetes and respiratory diseases. Injuries include deaths from accidents, as well as those from homicide,</tspan><tspan x="15" y="117.08000000000001">conflict, terrorism and suicide.</tspan></text></g><g class="StackedArea"><defs><clipPath id="boundsClip-400"><rect x="60.824" y="0" width="820" height="835.8"></rect></clipPath></defs><g class="AxisBoxView"><g class="HorizontalAxis"><text x="60.8" y="556.5" fill="#666" text-anchor="middle" font-size="16.2">1990</text><text x="180.6" y="556.5" fill="#666" text-anchor="middle" font-size="16.2">1995</text><text x="300.3" y="556.5" fill="#666" text-anchor="middle" font-size="16.2">2000</text><text x="420.1" y="556.5" fill="#666" text-anchor="middle" font-size="16.2">2005</text><text x="539.8" y="556.5" fill="#666" text-anchor="middle" font-size="16.2">2010</text><text x="683.5" y="556.5" fill="#666" text-anchor="middle" font-size="16.2">2016</text></g><g class="VerticalAxis"><text x="55.82" y="535.3" fill="#666" dominant-baseline="middle" text-anchor="end" font-size="16.2">0</text><text x="55.82" y="469.2" fill="#666" dominant-baseline="middle" text-anchor="end" font-size="16.2">200</text><text x="55.82" y="403.1" fill="#666" dominant-baseline="middle" text-anchor="end" font-size="16.2">400</text><text x="55.82" y="336.9" fill="#666" dominant-baseline="middle" text-anchor="end" font-size="16.2">600</text><text x="55.82" y="270.8" fill="#666" dominant-baseline="middle" text-anchor="end" font-size="16.2">800</text><text x="55.82" y="204.7" fill="#666" dominant-baseline="middle" text-anchor="end" font-size="16.2">1,000</text></g><g class="AxisGridLines"><line x1="60.82" y1="535.3" x2="683.50" y2="535.3" stroke="#ccc"></line><line x1="60.82" y1="469.2" x2="683.50" y2="469.2" stroke="#ddd" stroke-dasharray="3,2"></line><line x1="60.82" y1="403.1" x2="683.50" y2="403.1" stroke="#ddd" stroke-dasharray="3,2"></line><line x1="60.82" y1="336.9" x2="683.50" y2="336.9" stroke="#ddd" stroke-dasharray="3,2"></line><line x1="60.82" y1="270.8" x2="683.50" y2="270.8" stroke="#ddd" stroke-dasharray="3,2"></line><line x1="60.82" y1="204.7" x2="683.50" y2="204.7" stroke="#ddd" stroke-dasharray="3,2"></line></g></g><g clip-path="url(#boundsClip-400)"><g class="HeightedLegend clickable"><g class="legendMark"><g class="indicator"><line x1="688.495" y1="270.7" x2="710.995" y2="270.7" stroke="#666" stroke-width="0.5"></line><line x1="710.995" y1="270.7" x2="710.995" y2="270.7" stroke="#666" stroke-width="0.5"></line><line x1="710.995" y1="270.7" x2="713.495" y2="270.7" stroke="#666" stroke-width="0.5"></line></g><rect x="683.495" y="263.95" width="78.605" height="13.5" fill="#fff" opacity="0"></rect><text font-size="13.50" x="718.5" y="274.8" fill="#ffd53e"><tspan x="718.495" y="274.75">Injuries</tspan></text></g><g class="legendMark"><g class="indicator"><line x1="688.495" y1="306.8" x2="700.995" y2="306.8" stroke="#666" stroke-width="0.5"></line><line x1="700.995" y1="306.8" x2="700.995" y2="315.4" stroke="#666" stroke-width="0.5"></line><line x1="700.995" y1="315.4" x2="713.495" y2="315.4" stroke="#666" stroke-width="0.5"></line></g><rect x="683.495" y="279.45" width="128.96" height="71.9" fill="#fff" opacity="0"></rect><text font-size="13.50" x="718.5" y="290.3" fill="#ca2628"><tspan x="718.495" y="290.25">Communicable,</tspan><tspan x="718.495" y="305.1">maternal,</tspan><tspan x="718.495" y="319.95">neonatal, and</tspan><tspan x="718.495" y="334.8">nutritional</tspan><tspan x="718.495" y="349.65">diseases</tspan></text></g><g class="legendMark"><g class="indicator"><line x1="688.495" y1="433.8" x2="700.995" y2="433.8" stroke="#666" stroke-width="0.5"></line><line x1="700.995" y1="433.8" x2="700.995" y2="433.8" stroke="#666" stroke-width="0.5"></line><line x1="700.995" y1="433.8" x2="713.495" y2="433.8" stroke="#666" stroke-width="0.5"></line></g><rect x="683.495" y="419.75" width="151.505" height="28.1" fill="#fff" opacity="0"></rect><text font-size="13.50" x="718.5" y="430.6" fill="#3360a9"><tspan x="718.495" y="430.55">Non-communicable</tspan><tspan x="718.495" y="445.40000000000003">diseases (NCDs)</tspan></text></g></g><g class="Areas"><rect x="60.824" y="138.60000000000002" width="622.671" height="396.69999999999993" opacity="0" fill="rgba(255,255,255,0)"></rect><path class="World_0-area" stroke-linecap="round" d="M60.8 264.4L84.8 266.4L108.7 266.4L132.7 264.8L156.6 265L180.6 267.7L204.5 271.8L228.5 275.3L252.4 278.1L276.4 279.3L300.3 281.7L324.3 284.1L348.2 285.8L372.2 290.6L396.1 295.7L420.1 298.9L444 304.4L468 308.4L491.9 311.5L515.9 315L539.8 317.7L563.8 321.5L587.7 324.2L611.6 326.5L635.6 328.3L659.5 330.4L683.5 332.3L683.495 535.3L60.824 535.3" fill="#3360a9" fill-opacity="0.7"></path><path class="World_1-area" stroke-linecap="round" d="M60.8 167.9L84.8 171.2L108.7 172.3L132.7 171.6L156.6 172.7L180.6 175.6L204.5 180.8L228.5 185.6L252.4 189.5L276.4 191.7L300.3 195.1L324.3 198.8L348.2 201.8L372.2 208.7L396.1 215.8L420.1 221.1L444 229.1L468 235.7L491.9 241.4L515.9 247.4L539.8 252.6L563.8 259L587.7 264.2L611.6 269L635.6 273.1L659.5 277.5L683.5 281.3L683.5 332.3L659.5 330.4L635.6 328.3L611.6 326.5L587.7 324.2L563.8 321.5L539.8 317.7L515.9 315L491.9 311.5L468 308.4L444 304.4L420.1 298.9L396.1 295.7L372.2 290.6L348.2 285.8L324.3 284.1L300.3 281.7L276.4 279.3L252.4 278.1L228.5 275.3L204.5 271.8L180.6 267.7L156.6 265L132.7 264.8L108.7 266.4L84.8 266.4L60.8 264.4" fill="#ca2628" fill-opacity="0.7"></path><path class="World_2-area" stroke-linecap="round" d="M60.8 138.6L84.8 141.4L108.7 143.6L132.7 142.5L156.6 140.9L180.6 146.7L204.5 152.3L228.5 157.6L252.4 161.7L276.4 163.8L300.3 167.9L324.3 172.1L348.2 175.4L372.2 182.4L396.1 188.9L420.1 195.4L444 204.2L468 211.3L491.9 216.3L515.9 224.1L539.8 228.5L563.8 236.3L587.7 241.9L611.6 247L635.6 251.2L659.5 255.9L683.5 260L683.5 281.3L659.5 277.5L635.6 273.1L611.6 269L587.7 264.2L563.8 259L539.8 252.6L515.9 247.4L491.9 241.4L468 235.7L444 229.1L420.1 221.1L396.1 215.8L372.2 208.7L348.2 201.8L324.3 198.8L300.3 195.1L276.4 191.7L252.4 189.5L228.5 185.6L204.5 180.8L180.6 175.6L156.6 172.7L132.7 171.6L108.7 172.3L84.8 171.2L60.8 167.9" fill="#ffd53e" fill-opacity="0.7"></path><path class="World_0-border" stroke-linecap="round" d="M60.8 264.4L84.8 266.4L108.7 266.4L132.7 264.8L156.6 265L180.6 267.7L204.5 271.8L228.5 275.3L252.4 278.1L276.4 279.3L300.3 281.7L324.3 284.1L348.2 285.8L372.2 290.6L396.1 295.7L420.1 298.9L444 304.4L468 308.4L491.9 311.5L515.9 315L539.8 317.7L563.8 321.5L587.7 324.2L611.6 326.5L635.6 328.3L659.5 330.4L683.5 332.3" stroke="rgb(43, 80, 141)" stroke-opacity="0.7" stroke-width="0.5" fill="none"></path><path class="World_1-border" stroke-linecap="round" d="M60.8 167.9L84.8 171.2L108.7 172.3L132.7 171.6L156.6 172.7L180.6 175.6L204.5 180.8L228.5 185.6L252.4 189.5L276.4 191.7L300.3 195.1L324.3 198.8L348.2 201.8L372.2 208.7L396.1 215.8L420.1 221.1L444 229.1L468 235.7L491.9 241.4L515.9 247.4L539.8 252.6L563.8 259L587.7 264.2L611.6 269L635.6 273.1L659.5 277.5L683.5 281.3" stroke="rgb(169, 32, 33)" stroke-opacity="0.7" stroke-width="0.5" fill="none"></path><path class="World_2-border" stroke-linecap="round" d="M60.8 138.6L84.8 141.4L108.7 143.6L132.7 142.5L156.6 140.9L180.6 146.7L204.5 152.3L228.5 157.6L252.4 161.7L276.4 163.8L300.3 167.9L324.3 172.1L348.2 175.4L372.2 182.4L396.1 188.9L420.1 195.4L444 204.2L468 211.3L491.9 216.3L515.9 224.1L539.8 228.5L563.8 236.3L587.7 241.9L611.6 247L635.6 251.2L659.5 255.9L683.5 260" stroke="rgb(213, 178, 52)" stroke-opacity="0.7" stroke-width="0.5" fill="none"></path></g></g></g><g class="SourcesFooter" style="fill:#777"><g class="clickable" style="fill:#777"><text font-size="12.60" x="15.0" y="581.6"><tspan x="15" y="581.58">Source: IHME, Global Burden of Disease</tspan></text></g><text font-size="12.60" x="775.4" y="581.6"><tspan x="775.402" y="581.58"><a style="fill: #777;" class="cclogo" href="http://creativecommons.org/licenses/by-sa/4.0/deed.en_US" target="_blank">CC BY-SA</a></tspan></text></g></g></svg>