<svg xmlns="http://www.w3.org/2000/svg" version="1.1" style="font-family:&#x27;Helvetica Neue&#x27;, Helvetica, Arial, sans-serif;font-size:18px;background-color:white;text-rendering:optimizeLegibility;-webkit-font-smoothing:antialiased" width="850" height="600"><g class="ChartTab"><g class="HeaderView"><g opacity="0.8" transform="translate(778, 15) scale(0.27)"><a xmlns:xlink="http://www.w3.org/1999/xlink" xlink:href="https://ourworldindata.org" target="_blank"><g><rect x="0" y="0" fill="#1B2543" width="211.2" height="130.1"/><rect x="0" y="112.2" fill="#E63912" width="211.2" height="17.9"/><g><rect x="1.2" y="12.3" fill="none" width="210.2" height="99.2"/><path fill="#FFFFFF" d="M37.8,32.2c0,12.7-7.7,19.4-17.1,19.4c-9.7,0-16.6-7.5-16.6-18.7c0-11.7,7.3-19.3,17.1-19.3 C31.3,13.7,37.8,21.3,37.8,32.2z M9.2,32.8c0,7.9,4.3,14.9,11.8,14.9c7.5,0,11.8-6.9,11.8-15.3c0-7.3-3.8-14.9-11.8-14.9 C13.1,17.5,9.2,24.8,9.2,32.8z"/><path fill="#FFFFFF" d="M62.7,43.8c0,2.7,0.1,5.1,0.2,7.2h-4.3l-0.3-4.3h-0.1c-1.3,2.1-4,4.9-8.8,4.9c-4.2,0-9.1-2.3-9.1-11.6 V24.6h4.8v14.6c0,5,1.5,8.4,5.9,8.4c3.2,0,5.5-2.2,6.3-4.4c0.3-0.7,0.4-1.6,0.4-2.5V24.6h4.8V43.8z"/><path fill="#FFFFFF" d="M67.3,32.8c0-3.1-0.1-5.8-0.2-8.2h4.2l0.2,5.2h0.2c1.2-3.5,4.1-5.8,7.3-5.8c0.5,0,0.9,0.1,1.4,0.2v4.5 c-0.5-0.1-1-0.2-1.6-0.2c-3.4,0-5.8,2.6-6.5,6.2c-0.1,0.7-0.2,1.4-0.2,2.2V51h-4.8V32.8z"/><path fill="#FFFFFF" d="M95.4,51l-9.4-36.8h5l4.4,18.6c1.1,4.6,2.1,9.2,2.7,12.7h0.1c0.6-3.7,1.8-8,3-12.8l4.9-18.5h5l4.5,18.7 c1,4.4,2,8.7,2.6,12.6h0.1c0.8-4,1.8-8.1,3-12.7l4.9-18.5h4.9L120.6,51h-5L111,31.9c-1.1-4.7-1.9-8.3-2.4-12h-0.1 c-0.7,3.7-1.5,7.3-2.8,12L100.4,51H95.4z"/><path fill="#FFFFFF" d="M154.9,37.6c0,9.8-6.8,14-13.2,14c-7.2,0-12.7-5.2-12.7-13.6c0-8.8,5.8-14,13.1-14 C149.8,24,154.9,29.5,154.9,37.6z M133.9,37.9c0,5.8,3.3,10.1,8,10.1c4.6,0,8-4.3,8-10.3c0-4.5-2.2-10.1-7.9-10.1 C136.3,27.6,133.9,32.8,133.9,37.9z"/><path fill="#FFFFFF" d="M158.2,32.8c0-3.1-0.1-5.8-0.2-8.2h4.2l0.2,5.2h0.2c1.2-3.5,4.1-5.8,7.3-5.8c0.5,0,0.9,0.1,1.4,0.2v4.5 c-0.5-0.1-1-0.2-1.6-0.2c-3.4,0-5.8,2.6-6.5,6.2c-0.1,0.7-0.2,1.4-0.2,2.2V51h-4.8V32.8z"/><path fill="#FFFFFF" d="M173.5,12.3h4.8V51h-4.8V12.3z"/><path fill="#FFFFFF" d="M206.5,12.3v31.9c0,2.3,0.1,5,0.2,6.8h-4.3l-0.2-4.6H202c-1.5,2.9-4.7,5.2-9,5.2 c-6.4,0-11.3-5.4-11.3-13.4c-0.1-8.8,5.4-14.2,11.9-14.2c4,0,6.8,1.9,8,4h0.1V12.3H206.5z M201.7,35.4c0-0.6-0.1-1.4-0.2-2 c-0.7-3.1-3.3-5.6-6.9-5.6c-5,0-7.9,4.4-7.9,10.2c0,5.3,2.6,9.8,7.8,9.8c3.2,0,6.2-2.1,7.1-5.7c0.2-0.7,0.2-1.3,0.2-2.1V35.4z"/><path fill="#FFFFFF" d="M42.8,64c0.1,1.6-1.1,2.9-3.1,2.9c-1.7,0-2.9-1.3-2.9-2.9c0-1.7,1.3-3,3-3C41.7,61,42.8,62.3,42.8,64z M37.4,97.8V71.4h4.8v26.4H37.4z"/><path fill="#FFFFFF" d="M47.5,78.6c0-2.7-0.1-5-0.2-7.1h4.3l0.3,4.4h0.1c1.3-2.5,4.4-5,8.8-5c3.7,0,9.4,2.2,9.4,11.2v15.8h-4.8 V82.6c0-4.3-1.6-7.8-6.1-7.8c-3.2,0-5.6,2.2-6.5,4.9c-0.2,0.6-0.3,1.4-0.3,2.2v15.9h-4.8V78.6z"/><path fill="#FFFFFF" d="M84,61.6c2.9-0.4,6.3-0.8,10.1-0.8c6.8,0,11.7,1.6,14.9,4.6c3.3,3,5.2,7.3,5.2,13.2c0,6-1.9,10.9-5.3,14.3 c-3.4,3.4-9.1,5.3-16.3,5.3c-3.4,0-6.2-0.2-8.6-0.4V61.6z M88.8,94.1c1.2,0.2,3,0.3,4.8,0.3c10.2,0,15.7-5.7,15.7-15.6 c0.1-8.7-4.9-14.2-14.9-14.2c-2.5,0-4.3,0.2-5.6,0.5V94.1z"/><path fill="#FFFFFF" d="M132.1,97.8l-0.4-3.3h-0.2c-1.5,2.1-4.3,3.9-8.1,3.9c-5.4,0-8.1-3.8-8.1-7.6c0-6.4,5.7-9.9,15.9-9.8v-0.5 c0-2.2-0.6-6.1-6-6.1c-2.5,0-5,0.8-6.9,2l-1.1-3.2c2.2-1.4,5.4-2.3,8.7-2.3c8.1,0,10.1,5.5,10.1,10.8v9.9c0,2.3,0.1,4.5,0.4,6.3 H132.1z M131.4,84.4c-5.3-0.1-11.2,0.8-11.2,5.9c0,3.1,2.1,4.6,4.5,4.6c3.4,0,5.6-2.2,6.4-4.4c0.2-0.5,0.3-1,0.3-1.5V84.4z"/><path fill="#FFFFFF" d="M146.6,63.9v7.6h6.9v3.7h-6.9v14.2c0,3.3,0.9,5.1,3.6,5.1c1.3,0,2.2-0.2,2.8-0.3l0.2,3.6 c-0.9,0.4-2.4,0.7-4.3,0.7c-2.2,0-4-0.7-5.2-2c-1.4-1.4-1.9-3.8-1.9-6.9V75.1h-4.1v-3.7h4.1v-6.3L146.6,63.9z"/><path fill="#FFFFFF" d="M171.4,97.8l-0.4-3.3h-0.2c-1.5,2.1-4.3,3.9-8.1,3.9c-5.4,0-8.1-3.8-8.1-7.6c0-6.4,5.7-9.9,15.9-9.8v-0.5 c0-2.2-0.6-6.1-6-6.1c-2.5,0-5,0.8-6.9,2l-1.1-3.2c2.2-1.4,5.4-2.3,8.7-2.3c8.1,0,10.1,5.5,10.1,10.8v9.9c0,2.3,0.1,4.5,0.4,6.3 H171.4z M170.7,84.4c-5.3-0.1-11.2,0.8-11.2,5.9c0,3.1,2.1,4.6,4.5,4.6c3.4,0,5.6-2.2,6.4-4.4c0.2-0.5,0.3-1,0.3-1.5V84.4z"/></g></g></a></g><a href="https://ourworldindata.org/grapher/agricultural-water-withdrawals-vs-gdp-per-capita" target="_blank"><text font-size="25.20" x="15.0" y="35.2" fill="#555"><tspan x="15" y="35.160000000000004">Agricultural water withdrawals vs. GDP per capita, 2012</tspan></text></a><text font-size="14.40" x="15.0" y="53.7" fill="#666"><tspan x="15" y="53.72">Share of total water withdrawals (which is the sum of water withdrawals for agriculture, industrial and domestic uses)</tspan><tspan x="15" y="69.56">used in agriculture versus gross domestic product (GDP) per capita, measured in 2011 international-$. Agricultural</tspan><tspan x="15" y="85.4">water withdrawal is defined as  self-supplied water withdrawn for irrigation, livestock and aquaculture purposes. </tspan></text></g><g><g class="AxisBoxView"><g class="HorizontalAxis"><text font-size="12.60" x="218.3" y="539.4"><tspan x="218.336" y="539.38">GDP per capita, PPP (constant 2011 international $)</tspan></text><text x="96.1" y="519.3" fill="#666" text-anchor="middle" font-size="16.2">$10,000</text><text x="173.9" y="519.3" fill="#666" text-anchor="middle" font-size="16.2">$20,000</text><text x="251.8" y="519.3" fill="#666" text-anchor="middle" font-size="16.2">$30,000</text><text x="329.6" y="519.3" fill="#666" text-anchor="middle" font-size="16.2">$40,000</text><text x="407.5" y="519.3" fill="#666" text-anchor="middle" font-size="16.2">$50,000</text><text x="485.3" y="519.3" fill="#666" text-anchor="middle" font-size="16.2">$60,000</text><text x="563.2" y="519.3" fill="#666" text-anchor="middle" font-size="16.2">$70,000</text><text x="641" y="519.3" fill="#666" text-anchor="middle" font-size="16.2">$80,000</text><text x="715" y="536.9" style="font-size:12px;text-transform:uppercase;cursor:pointer" class="clickable"><tspan style="font-family:FontAwesome"></tspan> linear</text></g><g class="VerticalAxis"><text font-size="12.60" x="-504.9" y="25.1" transform="rotate(-90)"><tspan x="-504.93" y="25.080000000000002">Annual freshwater withdrawals, agriculture (% of total freshwater</tspan><tspan x="-504.93" y="38.940000000000005">withdrawal)</tspan></text><text x="83.86" y="498.1" fill="#666" dominant-baseline="middle" text-anchor="end" font-size="16.2">0%</text><text x="83.86" y="409.7" fill="#666" dominant-baseline="middle" text-anchor="end" font-size="16.2">20%</text><text x="83.86" y="321.2" fill="#666" dominant-baseline="middle" text-anchor="end" font-size="16.2">40%</text><text x="83.86" y="232.8" fill="#666" dominant-baseline="middle" text-anchor="end" font-size="16.2">60%</text><text x="83.86" y="144.3" fill="#666" dominant-baseline="middle" text-anchor="end" font-size="16.2">80%</text></g><g class="AxisGridLines"><line x1="75.16" y1="498.1" x2="715.00" y2="498.1" stroke="#ccc"></line><line x1="75.16" y1="409.7" x2="715.00" y2="409.7" stroke="#ddd" stroke-dasharray="3,2"></line><line x1="75.16" y1="321.2" x2="715.00" y2="321.2" stroke="#ddd" stroke-dasharray="3,2"></line><line x1="75.16" y1="232.8" x2="715.00" y2="232.8" stroke="#ddd" stroke-dasharray="3,2"></line><line x1="75.16" y1="144.3" x2="715.00" y2="144.3" stroke="#ddd" stroke-dasharray="3,2"></line></g><g class="AxisGridLines"><line x1="96.1" y1="498.10" x2="96.1" y2="107.60" stroke="#ddd" stroke-dasharray="3,2"></line><line x1="173.9" y1="498.10" x2="173.9" y2="107.60" stroke="#ddd" stroke-dasharray="3,2"></line><line x1="251.8" y1="498.10" x2="251.8" y2="107.60" stroke="#ddd" stroke-dasharray="3,2"></line><line x1="329.6" y1="498.10" x2="329.6" y2="107.60" stroke="#ddd" stroke-dasharray="3,2"></line><line x1="407.5" y1="498.10" x2="407.5" y2="107.60" stroke="#ddd" stroke-dasharray="3,2"></line><line x1="485.3" y1="498.10" x2="485.3" y2="107.60" stroke="#ddd" stroke-dasharray="3,2"></line><line x1="563.2" y1="498.10" x2="563.2" y2="107.60" stroke="#ddd" stroke-dasharray="3,2"></line><line x1="641" y1="498.10" x2="641" y2="107.60" stroke="#ddd" stroke-dasharray="3,2"></line></g></g><g class="PointsWithLabels clickable" clip-path="url(#scatterBounds-386)" font-family="Arial Narrow, Arial, sans-serif"><rect x="75.162" y="107.60000000000001" width="639.838" height="390.49999999999994" fill="rgba(255,255,255,0)"></rect><defs><clipPath id="scatterBounds-386"><rect x="65.162" y="97.60000000000001" width="659.838" height="410.49999999999994"></rect></clipPath></defs><g class="key-China_0"><circle cx="105.00" cy="213.00" r="17.80" fill="#d14e5b" opacity="0.8" stroke="#333" stroke-width="0.7"></circle></g><g class="key-Mexico_0"><circle cx="145.00" cy="159.00" r="5.49" fill="#4d824b" opacity="0.8" stroke="#333" stroke-width="0.7"></circle></g><g class="key-France_0"><circle cx="308.00" cy="452.00" r="4.23" fill="#ffd336" opacity="0.8" stroke="#333" stroke-width="0.7"></circle></g><g class="key-United-Kingdom_0"><circle cx="305.00" cy="441.00" r="4.21" fill="#ffd336" opacity="0.8" stroke="#fff" stroke-width="0.7"></circle></g><g class="key-Spain_0"><circle cx="260.00" cy="196.00" r="3.74" fill="#ffd336" opacity="0.8" stroke="#333" stroke-width="0.7"></circle></g><g class="key-Poland_0"><circle cx="199.00" cy="455.00" r="3.47" fill="#ffd336" opacity="0.8" stroke="#333" stroke-width="0.7"></circle></g><g class="key-Algeria_0"><circle cx="120.00" cy="236.00" r="3.41" fill="#5675c1" opacity="0.8" stroke="#333" stroke-width="0.7"></circle></g><g class="key-Australia_0"><circle cx="351.00" cy="233.00" r="2.91" fill="#a652ba" opacity="0.8" stroke="#333" stroke-width="0.7"></circle></g><g class="key-Romania_0"><circle cx="160.00" cy="423.00" r="2.85" fill="#ffd336" opacity="0.8" stroke="#333" stroke-width="0.7"></circle></g><g class="key-Netherlands_0"><circle cx="371.00" cy="495.00" r="2.65" fill="#ffd336" opacity="0.8" stroke="#333" stroke-width="0.7"></circle></g><g class="key-Czech-Republic_0"><circle cx="240.00" cy="487.00" r="2.37" fill="#ffd336" opacity="0.8" stroke="#333" stroke-width="0.7"></circle></g><g class="key-Hungary_0"><circle cx="194.00" cy="469.00" r="2.34" fill="#ffd336" opacity="0.8" stroke="#333" stroke-width="0.7"></circle></g><g class="key-Serbia_0"><circle cx="118.00" cy="487.00" r="2.34" fill="#ffd336" opacity="0.8" stroke="#333" stroke-width="0.7"></circle></g><g class="key-Azerbaijan_0"><circle cx="141.00" cy="124.00" r="2.31" fill="#d14e5b" opacity="0.8" stroke="#333" stroke-width="0.7"></circle></g><g class="key-Switzerland_0"><circle cx="455.00" cy="462.00" r="2.23" fill="#ffd336" opacity="0.8" stroke="#333" stroke-width="0.7"></circle></g><g class="key-Bulgaria_0"><circle cx="141.00" cy="424.00" r="2.21" fill="#ffd336" opacity="0.8" stroke="#fff" stroke-width="0.7"></circle></g><g class="key-Paraguay_0"><circle cx="75.00" cy="150.00" r="2.17" fill="#69c487" opacity="0.8" stroke="#333" stroke-width="0.7"></circle></g><g class="key-Libya_0"><circle cx="212.00" cy="130.00" r="2.16" fill="#5675c1" opacity="0.8" stroke="#333" stroke-width="0.7"></circle></g><g class="key-Jordan_0"><circle cx="88.00" cy="257.00" r="2.16" fill="#d14e5b" opacity="0.8" stroke="#333" stroke-width="0.7"></circle></g><g class="key-Denmark_0"><circle cx="363.00" cy="386.00" r="2.11" fill="#ffd336" opacity="0.8" stroke="#333" stroke-width="0.7"></circle></g><g class="key-Slovakia_0"><circle cx="222.00" cy="477.00" r="2.11" fill="#ffd336" opacity="0.8" stroke="#fff" stroke-width="0.7"></circle></g><g class="key-Croatia_0"><circle cx="176.00" cy="492.00" r="2.05" fill="#ffd336" opacity="0.8" stroke="#333" stroke-width="0.7"></circle></g><g class="key-Armenia_0"><circle cx="76.00" cy="107.00" r="1.97" fill="#d14e5b" opacity="0.8" stroke="#333" stroke-width="0.7"></circle></g><g class="key-Latvia_0"><circle cx="180.00" cy="428.00" r="1.92" fill="#ffd336" opacity="0.8" stroke="#fff" stroke-width="0.7"></circle></g><g class="key-Slovenia_0"><circle cx="236.00" cy="497.00" r="1.91" fill="#ffd336" opacity="0.8" stroke="#fff" stroke-width="0.7"></circle></g><g class="key-Estonia_0"><circle cx="218.00" cy="496.00" r="1.87" fill="#ffd336" opacity="0.8" stroke="#fff" stroke-width="0.7"></circle></g><g class="key-Cyprus_0"><circle cx="264.00" cy="202.00" r="1.85" fill="#ffd336" opacity="0.8" stroke="#fff" stroke-width="0.7"></circle></g><g class="key-Luxembourg_0"><circle cx="715.00" cy="496.00" r="1.81" fill="#ffd336" opacity="0.8" stroke="#333" stroke-width="0.7"></circle></g><g class="key-Malta_0"><circle cx="245.00" cy="231.00" r="1.81" fill="#ffd336" opacity="0.8" stroke="#333" stroke-width="0.7"></circle></g><g class="key-Iceland_0"><circle cx="329.00" cy="498.00" r="1.80" fill="#ffd336" opacity="0.8" stroke="#333" stroke-width="0.7"></circle></g><g class="key-Antigua-and-Barbuda_0"><circle cx="166.00" cy="428.00" r="1.79" fill="#4d824b" opacity="0.8" stroke="#fff" stroke-width="0.7"></circle></g><g class="key-Saint-Kitts-and-Nevis_0"><circle cx="184.00" cy="492.00" r="1.78" fill="#4d824b" opacity="0.8" stroke="#fff" stroke-width="0.7"></circle></g><g class="backgroundLabels" fill="#333"><text x="105.00" y="194.20" font-size="14.29">China</text><text x="145.00" y="152.51" font-size="11.28">Mexico</text><text x="308.00" y="446.77" font-size="11.15">France</text><text x="260.00" y="191.26" font-size="11.11">Spain</text><text x="199.00" y="450.53" font-size="11.09">Poland</text><text x="120.00" y="231.59" font-size="11.09">Algeria</text><text x="351.00" y="229.09" font-size="11.06">Australia</text><text x="160.00" y="419.15" font-size="11.05">Romania</text><text x="371.00" y="491.35" font-size="11.04">Netherlands</text><text x="240.00" y="483.63" font-size="11.03">Czech Republic</text><text x="194.00" y="465.66" font-size="11.02">Hungary</text><text x="118.00" y="483.66" font-size="11.02">Serbia</text><text x="141.00" y="120.69" font-size="11.02">Azerbaijan</text><text x="455.00" y="458.77" font-size="11.02">Switzerland</text><text x="75.00" y="146.83" font-size="11.02">Paraguay</text><text x="212.00" y="126.84" font-size="11.02">Libya</text><text x="88.00" y="253.84" font-size="11.02">Jordan</text><text x="363.00" y="382.89" font-size="11.01">Denmark</text><text x="176.00" y="488.95" font-size="11.01">Croatia</text><text x="76.00" y="118.61" font-size="11.01">Armenia</text><text x="653.61" y="493.19" font-size="11.00">Luxembourg</text><text x="245.00" y="228.19" font-size="11.00">Malta</text><text x="329.00" y="495.20" font-size="11.00">Iceland</text></g></g><g class="ScatterColorLegend clickable" style="cursor:pointer"><g class="legendMark"><rect x="735" y="105.10000000000001" width="43.256" height="17.6" fill="#fff" opacity="0"></rect>,<rect x="735" y="110.60000000000001" width="6" height="6" fill="#5675c1"></rect>,<text font-size="12.60" x="746.0" y="117.7"><tspan x="746" y="117.68">Africa</tspan></text></g><g class="legendMark"><rect x="735" y="122.70000000000002" width="35.57" height="17.6" fill="#fff" opacity="0"></rect>,<rect x="735" y="128.20000000000002" width="6" height="6" fill="#d14e5b"></rect>,<text font-size="12.60" x="746.0" y="135.3"><tspan x="746" y="135.28">Asia</tspan></text></g><g class="legendMark"><rect x="735" y="140.3" width="51.824" height="17.6" fill="#fff" opacity="0"></rect>,<rect x="735" y="145.8" width="6" height="6" fill="#ffd336"></rect>,<text font-size="12.60" x="746.0" y="152.9"><tspan x="746" y="152.88">Europe</tspan></text></g><g class="legendMark"><rect x="735" y="157.9" width="91.64" height="17.6" fill="#fff" opacity="0"></rect>,<rect x="735" y="163.4" width="6" height="6" fill="#4d824b"></rect>,<text font-size="12.60" x="746.0" y="170.5"><tspan x="746" y="170.48">North America</tspan></text></g><g class="legendMark"><rect x="735" y="175.5" width="58.124" height="17.6" fill="#fff" opacity="0"></rect>,<rect x="735" y="181" width="6" height="6" fill="#a652ba"></rect>,<text font-size="12.60" x="746.0" y="188.1"><tspan x="746" y="188.07999999999998">Oceania</tspan></text></g><g class="legendMark"><rect x="735" y="193.10000000000002" width="93.908" height="17.6" fill="#fff" opacity="0"></rect>,<rect x="735" y="198.60000000000002" width="6" height="6" fill="#69c487"></rect>,<text font-size="12.60" x="746.0" y="205.7"><tspan x="746" y="205.68">South America</tspan></text></g></g></g><g class="SourcesFooter" style="fill:#777"><g class="clickable" style="fill:#777"><text font-size="12.60" x="15.0" y="567.0"><tspan x="15" y="566.98">Source: UN Food and Agricultural Organization (FAO) AQUASTAT; World Bank - World Development Indicators</tspan></text></g><text font-size="12.60" x="15.0" y="582.5"><tspan x="15" y="582.48"><a target='_blank' style='fill: #777;' href='https://ourworldindata.org/water-access-resources-sanitation/'>OurWorldInData.org/water-access-resources-sanitation/</a> • <a style="fill: #777;" class="cclogo" href="http://creativecommons.org/licenses/by-sa/4.0/deed.en_US" target="_blank">CC BY-SA</a></tspan></text></g></g></svg>