<svg xmlns="http://www.w3.org/2000/svg" version="1.1" style="font-family:&#x27;Helvetica Neue&#x27;, Helvetica, Arial, sans-serif;font-size:18px;background-color:white;text-rendering:optimizeLegibility;-webkit-font-smoothing:antialiased" width="850" height="600"><g class="ChartTab"><g class="HeaderView"><g opacity="0.8" transform="translate(778, 15) scale(0.27)"><a xmlns:xlink="http://www.w3.org/1999/xlink" xlink:href="https://ourworldindata.org" target="_blank"><g><rect x="0" y="0" fill="#1B2543" width="211.2" height="130.1"/><rect x="0" y="112.2" fill="#E63912" width="211.2" height="17.9"/><g><rect x="1.2" y="12.3" fill="none" width="210.2" height="99.2"/><path fill="#FFFFFF" d="M37.8,32.2c0,12.7-7.7,19.4-17.1,19.4c-9.7,0-16.6-7.5-16.6-18.7c0-11.7,7.3-19.3,17.1-19.3 C31.3,13.7,37.8,21.3,37.8,32.2z M9.2,32.8c0,7.9,4.3,14.9,11.8,14.9c7.5,0,11.8-6.9,11.8-15.3c0-7.3-3.8-14.9-11.8-14.9 C13.1,17.5,9.2,24.8,9.2,32.8z"/><path fill="#FFFFFF" d="M62.7,43.8c0,2.7,0.1,5.1,0.2,7.2h-4.3l-0.3-4.3h-0.1c-1.3,2.1-4,4.9-8.8,4.9c-4.2,0-9.1-2.3-9.1-11.6 V24.6h4.8v14.6c0,5,1.5,8.4,5.9,8.4c3.2,0,5.5-2.2,6.3-4.4c0.3-0.7,0.4-1.6,0.4-2.5V24.6h4.8V43.8z"/><path fill="#FFFFFF" d="M67.3,32.8c0-3.1-0.1-5.8-0.2-8.2h4.2l0.2,5.2h0.2c1.2-3.5,4.1-5.8,7.3-5.8c0.5,0,0.9,0.1,1.4,0.2v4.5 c-0.5-0.1-1-0.2-1.6-0.2c-3.4,0-5.8,2.6-6.5,6.2c-0.1,0.7-0.2,1.4-0.2,2.2V51h-4.8V32.8z"/><path fill="#FFFFFF" d="M95.4,51l-9.4-36.8h5l4.4,18.6c1.1,4.6,2.1,9.2,2.7,12.7h0.1c0.6-3.7,1.8-8,3-12.8l4.9-18.5h5l4.5,18.7 c1,4.4,2,8.7,2.6,12.6h0.1c0.8-4,1.8-8.1,3-12.7l4.9-18.5h4.9L120.6,51h-5L111,31.9c-1.1-4.7-1.9-8.3-2.4-12h-0.1 c-0.7,3.7-1.5,7.3-2.8,12L100.4,51H95.4z"/><path fill="#FFFFFF" d="M154.9,37.6c0,9.8-6.8,14-13.2,14c-7.2,0-12.7-5.2-12.7-13.6c0-8.8,5.8-14,13.1-14 C149.8,24,154.9,29.5,154.9,37.6z M133.9,37.9c0,5.8,3.3,10.1,8,10.1c4.6,0,8-4.3,8-10.3c0-4.5-2.2-10.1-7.9-10.1 C136.3,27.6,133.9,32.8,133.9,37.9z"/><path fill="#FFFFFF" d="M158.2,32.8c0-3.1-0.1-5.8-0.2-8.2h4.2l0.2,5.2h0.2c1.2-3.5,4.1-5.8,7.3-5.8c0.5,0,0.9,0.1,1.4,0.2v4.5 c-0.5-0.1-1-0.2-1.6-0.2c-3.4,0-5.8,2.6-6.5,6.2c-0.1,0.7-0.2,1.4-0.2,2.2V51h-4.8V32.8z"/><path fill="#FFFFFF" d="M173.5,12.3h4.8V51h-4.8V12.3z"/><path fill="#FFFFFF" d="M206.5,12.3v31.9c0,2.3,0.1,5,0.2,6.8h-4.3l-0.2-4.6H202c-1.5,2.9-4.7,5.2-9,5.2 c-6.4,0-11.3-5.4-11.3-13.4c-0.1-8.8,5.4-14.2,11.9-14.2c4,0,6.8,1.9,8,4h0.1V12.3H206.5z M201.7,35.4c0-0.6-0.1-1.4-0.2-2 c-0.7-3.1-3.3-5.6-6.9-5.6c-5,0-7.9,4.4-7.9,10.2c0,5.3,2.6,9.8,7.8,9.8c3.2,0,6.2-2.1,7.1-5.7c0.2-0.7,0.2-1.3,0.2-2.1V35.4z"/><path fill="#FFFFFF" d="M42.8,64c0.1,1.6-1.1,2.9-3.1,2.9c-1.7,0-2.9-1.3-2.9-2.9c0-1.7,1.3-3,3-3C41.7,61,42.8,62.3,42.8,64z M37.4,97.8V71.4h4.8v26.4H37.4z"/><path fill="#FFFFFF" d="M47.5,78.6c0-2.7-0.1-5-0.2-7.1h4.3l0.3,4.4h0.1c1.3-2.5,4.4-5,8.8-5c3.7,0,9.4,2.2,9.4,11.2v15.8h-4.8 V82.6c0-4.3-1.6-7.8-6.1-7.8c-3.2,0-5.6,2.2-6.5,4.9c-0.2,0.6-0.3,1.4-0.3,2.2v15.9h-4.8V78.6z"/><path fill="#FFFFFF" d="M84,61.6c2.9-0.4,6.3-0.8,10.1-0.8c6.8,0,11.7,1.6,14.9,4.6c3.3,3,5.2,7.3,5.2,13.2c0,6-1.9,10.9-5.3,14.3 c-3.4,3.4-9.1,5.3-16.3,5.3c-3.4,0-6.2-0.2-8.6-0.4V61.6z M88.8,94.1c1.2,0.2,3,0.3,4.8,0.3c10.2,0,15.7-5.7,15.7-15.6 c0.1-8.7-4.9-14.2-14.9-14.2c-2.5,0-4.3,0.2-5.6,0.5V94.1z"/><path fill="#FFFFFF" d="M132.1,97.8l-0.4-3.3h-0.2c-1.5,2.1-4.3,3.9-8.1,3.9c-5.4,0-8.1-3.8-8.1-7.6c0-6.4,5.7-9.9,15.9-9.8v-0.5 c0-2.2-0.6-6.1-6-6.1c-2.5,0-5,0.8-6.9,2l-1.1-3.2c2.2-1.4,5.4-2.3,8.7-2.3c8.1,0,10.1,5.5,10.1,10.8v9.9c0,2.3,0.1,4.5,0.4,6.3 H132.1z M131.4,84.4c-5.3-0.1-11.2,0.8-11.2,5.9c0,3.1,2.1,4.6,4.5,4.6c3.4,0,5.6-2.2,6.4-4.4c0.2-0.5,0.3-1,0.3-1.5V84.4z"/><path fill="#FFFFFF" d="M146.6,63.9v7.6h6.9v3.7h-6.9v14.2c0,3.3,0.9,5.1,3.6,5.1c1.3,0,2.2-0.2,2.8-0.3l0.2,3.6 c-0.9,0.4-2.4,0.7-4.3,0.7c-2.2,0-4-0.7-5.2-2c-1.4-1.4-1.9-3.8-1.9-6.9V75.1h-4.1v-3.7h4.1v-6.3L146.6,63.9z"/><path fill="#FFFFFF" d="M171.4,97.8l-0.4-3.3h-0.2c-1.5,2.1-4.3,3.9-8.1,3.9c-5.4,0-8.1-3.8-8.1-7.6c0-6.4,5.7-9.9,15.9-9.8v-0.5 c0-2.2-0.6-6.1-6-6.1c-2.5,0-5,0.8-6.9,2l-1.1-3.2c2.2-1.4,5.4-2.3,8.7-2.3c8.1,0,10.1,5.5,10.1,10.8v9.9c0,2.3,0.1,4.5,0.4,6.3 H171.4z M170.7,84.4c-5.3-0.1-11.2,0.8-11.2,5.9c0,3.1,2.1,4.6,4.5,4.6c3.4,0,5.6-2.2,6.4-4.4c0.2-0.5,0.3-1,0.3-1.5V84.4z"/></g></g></a></g><a href="https://ourworldindata.org/grapher/animals-slaughtered-for-meat" target="_blank"><text font-size="25.20" x="15.0" y="35.2" fill="#555"><tspan x="15" y="35.160000000000004">Number of livestock animals slaughtered for meat, World</tspan></text></a><text font-size="14.40" x="15.0" y="53.7" fill="#666"><tspan x="15" y="53.72">The annual number of animals slaughtered for meat production across various livestock groups. This is based on</tspan><tspan x="15" y="69.56">livestock production for meat (and therefore does not include dairy or egg production).</tspan></text></g><g class="LineChart"><defs><clipPath id="boundsClip-336"><rect x="87.598" y="0" width="830" height="928.8"></rect></clipPath></defs><g class="AxisBoxView"><g class="HorizontalAxis"><text x="97.6" y="556.5" fill="#666" text-anchor="middle" font-size="16.2">1961</text><text x="195.8" y="556.5" fill="#666" text-anchor="middle" font-size="16.2">1970</text><text x="304.9" y="556.5" fill="#666" text-anchor="middle" font-size="16.2">1980</text><text x="414" y="556.5" fill="#666" text-anchor="middle" font-size="16.2">1990</text><text x="523.1" y="556.5" fill="#666" text-anchor="middle" font-size="16.2">2000</text><text x="632.2" y="556.5" fill="#666" text-anchor="middle" font-size="16.2">2010</text><text x="675.8" y="556.5" fill="#666" text-anchor="middle" font-size="16.2">2014</text></g><g class="VerticalAxis"><text x="92.60" y="535.3" fill="#666" dominant-baseline="middle" text-anchor="end" font-size="16.2">0</text><text x="92.60" y="475.1" fill="#666" dominant-baseline="middle" text-anchor="end" font-size="16.2">200 million</text><text x="92.60" y="415" fill="#666" dominant-baseline="middle" text-anchor="end" font-size="16.2">400 million</text><text x="92.60" y="354.8" fill="#666" dominant-baseline="middle" text-anchor="end" font-size="16.2">600 million</text><text x="92.60" y="294.7" fill="#666" dominant-baseline="middle" text-anchor="end" font-size="16.2">800 million</text><text x="92.60" y="234.5" fill="#666" dominant-baseline="middle" text-anchor="end" font-size="16.2">1 billion</text><text x="92.60" y="174.4" fill="#666" dominant-baseline="middle" text-anchor="end" font-size="16.2">1.2 billion</text><text x="92.60" y="114.2" fill="#666" dominant-baseline="middle" text-anchor="end" font-size="16.2">1.4 billion</text></g><g class="AxisGridLines"><line x1="97.60" y1="535.3" x2="675.80" y2="535.3" stroke="#ccc"></line><line x1="97.60" y1="475.1" x2="675.80" y2="475.1" stroke="#ddd" stroke-dasharray="3,2"></line><line x1="97.60" y1="415" x2="675.80" y2="415" stroke="#ddd" stroke-dasharray="3,2"></line><line x1="97.60" y1="354.8" x2="675.80" y2="354.8" stroke="#ddd" stroke-dasharray="3,2"></line><line x1="97.60" y1="294.7" x2="675.80" y2="294.7" stroke="#ddd" stroke-dasharray="3,2"></line><line x1="97.60" y1="234.5" x2="675.80" y2="234.5" stroke="#ddd" stroke-dasharray="3,2"></line><line x1="97.60" y1="174.4" x2="675.80" y2="174.4" stroke="#ddd" stroke-dasharray="3,2"></line><line x1="97.60" y1="114.2" x2="675.80" y2="114.2" stroke="#ddd" stroke-dasharray="3,2"></line></g></g><g clip-path="url(#boundsClip-336)"><g class="HeightedLegend clickable"><g class="legendMark"><g class="indicator"><line x1="680.8" y1="535.1" x2="699.9666666666666" y2="535.1" stroke="#666" stroke-width="0.5"></line><line x1="699.9666666666666" y1="535.1" x2="699.9666666666666" y2="528.55" stroke="#666" stroke-width="0.5"></line><line x1="699.9666666666666" y1="528.55" x2="705.8" y2="528.55" stroke="#666" stroke-width="0.5"></line></g><rect x="675.8" y="521.8" width="151.64000000000001" height="13.5" fill="#fff" opacity="0"></rect><text font-size="13.50" x="710.8" y="532.6" fill="#3360a9"><tspan x="710.8" y="532.5999999999999">Turkey (thousands)</tspan></text></g><g class="legendMark"><g class="indicator"><line x1="680.8" y1="516.7" x2="693.3" y2="516.7" stroke="#666" stroke-width="0.5"></line><line x1="693.3" y1="516.7" x2="693.3" y2="513.05" stroke="#666" stroke-width="0.5"></line><line x1="693.3" y1="513.05" x2="705.8" y2="513.05" stroke="#666" stroke-width="0.5"></line></g><rect x="675.8" y="506.29999999999995" width="159.2" height="13.5" fill="#fff" opacity="0"></rect><text font-size="13.50" x="710.8" y="517.1" fill="#ca2628"><tspan x="710.8" y="517.0999999999999">Chicken (thousands)</tspan></text></g><g class="legendMark"><g class="indicator"><line x1="680.8" y1="515.4" x2="686.6333333333333" y2="515.4" stroke="#666" stroke-width="0.5"></line><line x1="686.6333333333333" y1="515.4" x2="686.6333333333333" y2="497.54999999999995" stroke="#666" stroke-width="0.5"></line><line x1="686.6333333333333" y1="497.54999999999995" x2="705.8" y2="497.54999999999995" stroke="#666" stroke-width="0.5"></line></g><rect x="675.8" y="490.79999999999995" width="152.45" height="13.5" fill="#fff" opacity="0"></rect><text font-size="13.50" x="710.8" y="501.6" fill="#34983f"><tspan x="710.8" y="501.59999999999997">Poultry (thousands)</tspan></text></g><g class="legendMark"><g class="indicator"><line x1="680.8" y1="445.1" x2="693.3" y2="445.1" stroke="#666" stroke-width="0.5"></line><line x1="693.3" y1="445.1" x2="693.3" y2="445.1" stroke="#666" stroke-width="0.5"></line><line x1="693.3" y1="445.1" x2="705.8" y2="445.1" stroke="#666" stroke-width="0.5"></line></g><rect x="675.8" y="438.35" width="70.37" height="13.5" fill="#fff" opacity="0"></rect><text font-size="13.50" x="710.8" y="449.2" fill="#f6a324"><tspan x="710.8" y="449.15000000000003">Cattle</tspan></text></g><g class="legendMark"><g class="indicator"><line x1="680.8" y1="401.7" x2="693.3" y2="401.7" stroke="#666" stroke-width="0.5"></line><line x1="693.3" y1="401.7" x2="693.3" y2="401.7" stroke="#666" stroke-width="0.5"></line><line x1="693.3" y1="401.7" x2="705.8" y2="401.7" stroke="#666" stroke-width="0.5"></line></g><rect x="675.8" y="394.95" width="64.43" height="13.5" fill="#fff" opacity="0"></rect><text font-size="13.50" x="710.8" y="405.8" fill="#a652ba"><tspan x="710.8" y="405.75">Goat</tspan></text></g><g class="legendMark"><g class="indicator"><line x1="680.8" y1="371.4" x2="693.3" y2="371.4" stroke="#666" stroke-width="0.5"></line><line x1="693.3" y1="371.4" x2="693.3" y2="371.4" stroke="#666" stroke-width="0.5"></line><line x1="693.3" y1="371.4" x2="705.8" y2="371.4" stroke="#666" stroke-width="0.5"></line></g><rect x="675.8" y="364.65" width="74.285" height="13.5" fill="#fff" opacity="0"></rect><text font-size="13.50" x="710.8" y="375.4" fill="#2a939b"><tspan x="710.8" y="375.45">Sheep</tspan></text></g><g class="legendMark"><g class="indicator"><line x1="680.8" y1="92.1" x2="693.3" y2="92.1" stroke="#666" stroke-width="0.5"></line><line x1="693.3" y1="92.1" x2="693.3" y2="92.1" stroke="#666" stroke-width="0.5"></line><line x1="693.3" y1="92.1" x2="705.8" y2="92.1" stroke="#666" stroke-width="0.5"></line></g><rect x="675.8" y="85.35" width="54.575" height="13.5" fill="#fff" opacity="0"></rect><text font-size="13.50" x="710.8" y="96.1" fill="#e6332e"><tspan x="710.8" y="96.14999999999999">Pig</tspan></text></g></g><g class="Lines"><rect x="98" y="92" width="578" height="443" fill="rgba(255,255,255,0)" opacity="0"></rect><g class="key-World_0"><path stroke="#e6332e" stroke-linecap="round" d="M98 422L109 415L119 404L130 399L141 387L152 383L163 377L174 376L185 379L196 374L207 356L218 350L229 350L239 346L250 347L261 348L272 342L283 335L294 318L305 308L316 310L327 311L338 304L349 298L359 290L370 284L381 278L392 269L403 264L414 259L425 256L436 250L447 244L458 236L469 233L479 234L490 234L501 217L512 207L523 203L534 203L545 194L556 182L567 178L578 173L589 164L599 154L610 144L621 138L632 119L643 117L654 105L665 98L676 92" fill="none" stroke-width="1.5"></path><g fill="#e6332e"><circle cx="98" cy="422" r="2"></circle><circle cx="109" cy="415" r="2"></circle><circle cx="119" cy="404" r="2"></circle><circle cx="130" cy="399" r="2"></circle><circle cx="141" cy="387" r="2"></circle><circle cx="152" cy="383" r="2"></circle><circle cx="163" cy="377" r="2"></circle><circle cx="174" cy="376" r="2"></circle><circle cx="185" cy="379" r="2"></circle><circle cx="196" cy="374" r="2"></circle><circle cx="207" cy="356" r="2"></circle><circle cx="218" cy="350" r="2"></circle><circle cx="229" cy="350" r="2"></circle><circle cx="239" cy="346" r="2"></circle><circle cx="250" cy="347" r="2"></circle><circle cx="261" cy="348" r="2"></circle><circle cx="272" cy="342" r="2"></circle><circle cx="283" cy="335" r="2"></circle><circle cx="294" cy="318" r="2"></circle><circle cx="305" cy="308" r="2"></circle><circle cx="316" cy="310" r="2"></circle><circle cx="327" cy="311" r="2"></circle><circle cx="338" cy="304" r="2"></circle><circle cx="349" cy="298" r="2"></circle><circle cx="359" cy="290" r="2"></circle><circle cx="370" cy="284" r="2"></circle><circle cx="381" cy="278" r="2"></circle><circle cx="392" cy="269" r="2"></circle><circle cx="403" cy="264" r="2"></circle><circle cx="414" cy="259" r="2"></circle><circle cx="425" cy="256" r="2"></circle><circle cx="436" cy="250" r="2"></circle><circle cx="447" cy="244" r="2"></circle><circle cx="458" cy="236" r="2"></circle><circle cx="469" cy="233" r="2"></circle><circle cx="479" cy="234" r="2"></circle><circle cx="490" cy="234" r="2"></circle><circle cx="501" cy="217" r="2"></circle><circle cx="512" cy="207" r="2"></circle><circle cx="523" cy="203" r="2"></circle><circle cx="534" cy="203" r="2"></circle><circle cx="545" cy="194" r="2"></circle><circle cx="556" cy="182" r="2"></circle><circle cx="567" cy="178" r="2"></circle><circle cx="578" cy="173" r="2"></circle><circle cx="589" cy="164" r="2"></circle><circle cx="599" cy="154" r="2"></circle><circle cx="610" cy="144" r="2"></circle><circle cx="621" cy="138" r="2"></circle><circle cx="632" cy="119" r="2"></circle><circle cx="643" cy="117" r="2"></circle><circle cx="654" cy="105" r="2"></circle><circle cx="665" cy="98" r="2"></circle><circle cx="676" cy="92" r="2"></circle></g></g><g class="key-World_1"><path stroke="#f6a324" stroke-linecap="round" d="M98 483L109 480L119 477L130 478L141 478L152 476L163 474L174 472L185 472L196 472L207 474L218 474L229 474L239 470L250 465L261 462L272 462L283 462L294 464L305 465L316 464L327 464L338 463L349 461L359 461L370 459L381 460L392 460L403 460L414 459L425 459L436 459L447 459L458 458L469 458L479 457L490 455L501 455L512 454L523 454L534 455L545 454L556 452L567 451L578 450L589 449L599 448L610 447L621 447L632 447L643 447L654 447L665 445L676 445" fill="none" stroke-width="1.5"></path><g fill="#f6a324"><circle cx="98" cy="483" r="2"></circle><circle cx="109" cy="480" r="2"></circle><circle cx="119" cy="477" r="2"></circle><circle cx="130" cy="478" r="2"></circle><circle cx="141" cy="478" r="2"></circle><circle cx="152" cy="476" r="2"></circle><circle cx="163" cy="474" r="2"></circle><circle cx="174" cy="472" r="2"></circle><circle cx="185" cy="472" r="2"></circle><circle cx="196" cy="472" r="2"></circle><circle cx="207" cy="474" r="2"></circle><circle cx="218" cy="474" r="2"></circle><circle cx="229" cy="474" r="2"></circle><circle cx="239" cy="470" r="2"></circle><circle cx="250" cy="465" r="2"></circle><circle cx="261" cy="462" r="2"></circle><circle cx="272" cy="462" r="2"></circle><circle cx="283" cy="462" r="2"></circle><circle cx="294" cy="464" r="2"></circle><circle cx="305" cy="465" r="2"></circle><circle cx="316" cy="464" r="2"></circle><circle cx="327" cy="464" r="2"></circle><circle cx="338" cy="463" r="2"></circle><circle cx="349" cy="461" r="2"></circle><circle cx="359" cy="461" r="2"></circle><circle cx="370" cy="459" r="2"></circle><circle cx="381" cy="460" r="2"></circle><circle cx="392" cy="460" r="2"></circle><circle cx="403" cy="460" r="2"></circle><circle cx="414" cy="459" r="2"></circle><circle cx="425" cy="459" r="2"></circle><circle cx="436" cy="459" r="2"></circle><circle cx="447" cy="459" r="2"></circle><circle cx="458" cy="458" r="2"></circle><circle cx="469" cy="458" r="2"></circle><circle cx="479" cy="457" r="2"></circle><circle cx="490" cy="455" r="2"></circle><circle cx="501" cy="455" r="2"></circle><circle cx="512" cy="454" r="2"></circle><circle cx="523" cy="454" r="2"></circle><circle cx="534" cy="455" r="2"></circle><circle cx="545" cy="454" r="2"></circle><circle cx="556" cy="452" r="2"></circle><circle cx="567" cy="451" r="2"></circle><circle cx="578" cy="450" r="2"></circle><circle cx="589" cy="449" r="2"></circle><circle cx="599" cy="448" r="2"></circle><circle cx="610" cy="447" r="2"></circle><circle cx="621" cy="447" r="2"></circle><circle cx="632" cy="447" r="2"></circle><circle cx="643" cy="447" r="2"></circle><circle cx="654" cy="447" r="2"></circle><circle cx="665" cy="445" r="2"></circle><circle cx="676" cy="445" r="2"></circle></g></g><g class="key-World_2"><path stroke="#34983f" stroke-linecap="round" d="M98 533L109 533L119 533L130 533L141 533L152 533L163 532L174 532L185 532L196 532L207 532L218 531L229 531L239 531L250 531L261 531L272 531L283 530L294 530L305 530L316 529L327 529L338 529L349 529L359 528L370 528L381 528L392 527L403 527L414 527L425 526L436 526L447 525L458 525L469 524L479 524L490 524L501 523L512 523L523 522L534 522L545 521L556 521L567 521L578 520L589 520L599 519L610 518L621 518L632 517L643 517L654 516L665 516L676 515" fill="none" stroke-width="1.5"></path><g fill="#34983f"><circle cx="98" cy="533" r="2"></circle><circle cx="109" cy="533" r="2"></circle><circle cx="119" cy="533" r="2"></circle><circle cx="130" cy="533" r="2"></circle><circle cx="141" cy="533" r="2"></circle><circle cx="152" cy="533" r="2"></circle><circle cx="163" cy="532" r="2"></circle><circle cx="174" cy="532" r="2"></circle><circle cx="185" cy="532" r="2"></circle><circle cx="196" cy="532" r="2"></circle><circle cx="207" cy="532" r="2"></circle><circle cx="218" cy="531" r="2"></circle><circle cx="229" cy="531" r="2"></circle><circle cx="239" cy="531" r="2"></circle><circle cx="250" cy="531" r="2"></circle><circle cx="261" cy="531" r="2"></circle><circle cx="272" cy="531" r="2"></circle><circle cx="283" cy="530" r="2"></circle><circle cx="294" cy="530" r="2"></circle><circle cx="305" cy="530" r="2"></circle><circle cx="316" cy="529" r="2"></circle><circle cx="327" cy="529" r="2"></circle><circle cx="338" cy="529" r="2"></circle><circle cx="349" cy="529" r="2"></circle><circle cx="359" cy="528" r="2"></circle><circle cx="370" cy="528" r="2"></circle><circle cx="381" cy="528" r="2"></circle><circle cx="392" cy="527" r="2"></circle><circle cx="403" cy="527" r="2"></circle><circle cx="414" cy="527" r="2"></circle><circle cx="425" cy="526" r="2"></circle><circle cx="436" cy="526" r="2"></circle><circle cx="447" cy="525" r="2"></circle><circle cx="458" cy="525" r="2"></circle><circle cx="469" cy="524" r="2"></circle><circle cx="479" cy="524" r="2"></circle><circle cx="490" cy="524" r="2"></circle><circle cx="501" cy="523" r="2"></circle><circle cx="512" cy="523" r="2"></circle><circle cx="523" cy="522" r="2"></circle><circle cx="534" cy="522" r="2"></circle><circle cx="545" cy="521" r="2"></circle><circle cx="556" cy="521" r="2"></circle><circle cx="567" cy="521" r="2"></circle><circle cx="578" cy="520" r="2"></circle><circle cx="589" cy="520" r="2"></circle><circle cx="599" cy="519" r="2"></circle><circle cx="610" cy="518" r="2"></circle><circle cx="621" cy="518" r="2"></circle><circle cx="632" cy="517" r="2"></circle><circle cx="643" cy="517" r="2"></circle><circle cx="654" cy="516" r="2"></circle><circle cx="665" cy="516" r="2"></circle><circle cx="676" cy="515" r="2"></circle></g></g><g class="key-World_3"><path stroke="#2a939b" stroke-linecap="round" d="M98 436L109 433L119 432L130 431L141 432L152 429L163 429L174 426L185 427L196 425L207 423L218 423L229 427L239 431L250 426L261 428L272 427L283 425L294 426L305 420L316 414L327 414L338 411L349 411L359 408L370 409L381 406L392 403L403 398L414 396L425 394L436 396L447 396L458 393L469 391L479 397L490 395L501 393L512 392L523 388L534 388L545 387L556 385L567 386L578 382L589 377L599 374L610 375L621 377L632 379L643 381L654 379L665 375L676 371" fill="none" stroke-width="1.5"></path><g fill="#2a939b"><circle cx="98" cy="436" r="2"></circle><circle cx="109" cy="433" r="2"></circle><circle cx="119" cy="432" r="2"></circle><circle cx="130" cy="431" r="2"></circle><circle cx="141" cy="432" r="2"></circle><circle cx="152" cy="429" r="2"></circle><circle cx="163" cy="429" r="2"></circle><circle cx="174" cy="426" r="2"></circle><circle cx="185" cy="427" r="2"></circle><circle cx="196" cy="425" r="2"></circle><circle cx="207" cy="423" r="2"></circle><circle cx="218" cy="423" r="2"></circle><circle cx="229" cy="427" r="2"></circle><circle cx="239" cy="431" r="2"></circle><circle cx="250" cy="426" r="2"></circle><circle cx="261" cy="428" r="2"></circle><circle cx="272" cy="427" r="2"></circle><circle cx="283" cy="425" r="2"></circle><circle cx="294" cy="426" r="2"></circle><circle cx="305" cy="420" r="2"></circle><circle cx="316" cy="414" r="2"></circle><circle cx="327" cy="414" r="2"></circle><circle cx="338" cy="411" r="2"></circle><circle cx="349" cy="411" r="2"></circle><circle cx="359" cy="408" r="2"></circle><circle cx="370" cy="409" r="2"></circle><circle cx="381" cy="406" r="2"></circle><circle cx="392" cy="403" r="2"></circle><circle cx="403" cy="398" r="2"></circle><circle cx="414" cy="396" r="2"></circle><circle cx="425" cy="394" r="2"></circle><circle cx="436" cy="396" r="2"></circle><circle cx="447" cy="396" r="2"></circle><circle cx="458" cy="393" r="2"></circle><circle cx="469" cy="391" r="2"></circle><circle cx="479" cy="397" r="2"></circle><circle cx="490" cy="395" r="2"></circle><circle cx="501" cy="393" r="2"></circle><circle cx="512" cy="392" r="2"></circle><circle cx="523" cy="388" r="2"></circle><circle cx="534" cy="388" r="2"></circle><circle cx="545" cy="387" r="2"></circle><circle cx="556" cy="385" r="2"></circle><circle cx="567" cy="386" r="2"></circle><circle cx="578" cy="382" r="2"></circle><circle cx="589" cy="377" r="2"></circle><circle cx="599" cy="374" r="2"></circle><circle cx="610" cy="375" r="2"></circle><circle cx="621" cy="377" r="2"></circle><circle cx="632" cy="379" r="2"></circle><circle cx="643" cy="381" r="2"></circle><circle cx="654" cy="379" r="2"></circle><circle cx="665" cy="375" r="2"></circle><circle cx="676" cy="371" r="2"></circle></g></g><g class="key-World_4"><path stroke="#3360a9" stroke-linecap="round" d="M98 535L109 535L119 535L130 535L141 535L152 535L163 535L174 535L185 535L196 535L207 535L218 535L229 535L239 535L250 535L261 535L272 535L283 535L294 535L305 535L316 535L327 535L338 535L349 535L359 535L370 535L381 535L392 535L403 535L414 535L425 535L436 535L447 535L458 535L469 535L479 535L490 535L501 535L512 535L523 535L534 535L545 535L556 535L567 535L578 535L589 535L599 535L610 535L621 535L632 535L643 535L654 535L665 535L676 535" fill="none" stroke-width="1.5"></path><g fill="#3360a9"><circle cx="98" cy="535" r="2"></circle><circle cx="109" cy="535" r="2"></circle><circle cx="119" cy="535" r="2"></circle><circle cx="130" cy="535" r="2"></circle><circle cx="141" cy="535" r="2"></circle><circle cx="152" cy="535" r="2"></circle><circle cx="163" cy="535" r="2"></circle><circle cx="174" cy="535" r="2"></circle><circle cx="185" cy="535" r="2"></circle><circle cx="196" cy="535" r="2"></circle><circle cx="207" cy="535" r="2"></circle><circle cx="218" cy="535" r="2"></circle><circle cx="229" cy="535" r="2"></circle><circle cx="239" cy="535" r="2"></circle><circle cx="250" cy="535" r="2"></circle><circle cx="261" cy="535" r="2"></circle><circle cx="272" cy="535" r="2"></circle><circle cx="283" cy="535" r="2"></circle><circle cx="294" cy="535" r="2"></circle><circle cx="305" cy="535" r="2"></circle><circle cx="316" cy="535" r="2"></circle><circle cx="327" cy="535" r="2"></circle><circle cx="338" cy="535" r="2"></circle><circle cx="349" cy="535" r="2"></circle><circle cx="359" cy="535" r="2"></circle><circle cx="370" cy="535" r="2"></circle><circle cx="381" cy="535" r="2"></circle><circle cx="392" cy="535" r="2"></circle><circle cx="403" cy="535" r="2"></circle><circle cx="414" cy="535" r="2"></circle><circle cx="425" cy="535" r="2"></circle><circle cx="436" cy="535" r="2"></circle><circle cx="447" cy="535" r="2"></circle><circle cx="458" cy="535" r="2"></circle><circle cx="469" cy="535" r="2"></circle><circle cx="479" cy="535" r="2"></circle><circle cx="490" cy="535" r="2"></circle><circle cx="501" cy="535" r="2"></circle><circle cx="512" cy="535" r="2"></circle><circle cx="523" cy="535" r="2"></circle><circle cx="534" cy="535" r="2"></circle><circle cx="545" cy="535" r="2"></circle><circle cx="556" cy="535" r="2"></circle><circle cx="567" cy="535" r="2"></circle><circle cx="578" cy="535" r="2"></circle><circle cx="589" cy="535" r="2"></circle><circle cx="599" cy="535" r="2"></circle><circle cx="610" cy="535" r="2"></circle><circle cx="621" cy="535" r="2"></circle><circle cx="632" cy="535" r="2"></circle><circle cx="643" cy="535" r="2"></circle><circle cx="654" cy="535" r="2"></circle><circle cx="665" cy="535" r="2"></circle><circle cx="676" cy="535" r="2"></circle></g></g><g class="key-World_5"><path stroke="#ca2628" stroke-linecap="round" d="M98 533L109 533L119 533L130 533L141 533L152 533L163 533L174 533L185 532L196 532L207 532L218 532L229 532L239 531L250 531L261 531L272 531L283 530L294 530L305 530L316 530L327 529L338 529L349 529L359 529L370 528L381 528L392 528L403 528L414 527L425 527L436 527L447 526L458 526L469 525L479 525L490 524L501 524L512 524L523 523L534 523L545 522L556 522L567 522L578 521L589 521L599 520L610 519L621 519L632 518L643 518L654 517L665 517L676 517" fill="none" stroke-width="1.5"></path><g fill="#ca2628"><circle cx="98" cy="533" r="2"></circle><circle cx="109" cy="533" r="2"></circle><circle cx="119" cy="533" r="2"></circle><circle cx="130" cy="533" r="2"></circle><circle cx="141" cy="533" r="2"></circle><circle cx="152" cy="533" r="2"></circle><circle cx="163" cy="533" r="2"></circle><circle cx="174" cy="533" r="2"></circle><circle cx="185" cy="532" r="2"></circle><circle cx="196" cy="532" r="2"></circle><circle cx="207" cy="532" r="2"></circle><circle cx="218" cy="532" r="2"></circle><circle cx="229" cy="532" r="2"></circle><circle cx="239" cy="531" r="2"></circle><circle cx="250" cy="531" r="2"></circle><circle cx="261" cy="531" r="2"></circle><circle cx="272" cy="531" r="2"></circle><circle cx="283" cy="530" r="2"></circle><circle cx="294" cy="530" r="2"></circle><circle cx="305" cy="530" r="2"></circle><circle cx="316" cy="530" r="2"></circle><circle cx="327" cy="529" r="2"></circle><circle cx="338" cy="529" r="2"></circle><circle cx="349" cy="529" r="2"></circle><circle cx="359" cy="529" r="2"></circle><circle cx="370" cy="528" r="2"></circle><circle cx="381" cy="528" r="2"></circle><circle cx="392" cy="528" r="2"></circle><circle cx="403" cy="528" r="2"></circle><circle cx="414" cy="527" r="2"></circle><circle cx="425" cy="527" r="2"></circle><circle cx="436" cy="527" r="2"></circle><circle cx="447" cy="526" r="2"></circle><circle cx="458" cy="526" r="2"></circle><circle cx="469" cy="525" r="2"></circle><circle cx="479" cy="525" r="2"></circle><circle cx="490" cy="524" r="2"></circle><circle cx="501" cy="524" r="2"></circle><circle cx="512" cy="524" r="2"></circle><circle cx="523" cy="523" r="2"></circle><circle cx="534" cy="523" r="2"></circle><circle cx="545" cy="522" r="2"></circle><circle cx="556" cy="522" r="2"></circle><circle cx="567" cy="522" r="2"></circle><circle cx="578" cy="521" r="2"></circle><circle cx="589" cy="521" r="2"></circle><circle cx="599" cy="520" r="2"></circle><circle cx="610" cy="519" r="2"></circle><circle cx="621" cy="519" r="2"></circle><circle cx="632" cy="518" r="2"></circle><circle cx="643" cy="518" r="2"></circle><circle cx="654" cy="517" r="2"></circle><circle cx="665" cy="517" r="2"></circle><circle cx="676" cy="517" r="2"></circle></g></g><g class="key-World_6"><path stroke="#a652ba" stroke-linecap="round" d="M98 504L109 504L119 504L130 503L141 503L152 502L163 501L174 501L185 500L196 500L207 499L218 498L229 497L239 496L250 494L261 494L272 493L283 491L294 490L305 488L316 487L327 486L338 484L349 483L359 481L370 480L381 475L392 473L403 470L414 467L425 466L436 463L447 462L458 460L469 454L479 457L490 451L501 446L512 441L523 440L534 440L545 439L556 433L567 425L578 421L589 420L599 418L610 416L621 412L632 408L643 408L654 407L665 405L676 402" fill="none" stroke-width="1.5"></path><g fill="#a652ba"><circle cx="98" cy="504" r="2"></circle><circle cx="109" cy="504" r="2"></circle><circle cx="119" cy="504" r="2"></circle><circle cx="130" cy="503" r="2"></circle><circle cx="141" cy="503" r="2"></circle><circle cx="152" cy="502" r="2"></circle><circle cx="163" cy="501" r="2"></circle><circle cx="174" cy="501" r="2"></circle><circle cx="185" cy="500" r="2"></circle><circle cx="196" cy="500" r="2"></circle><circle cx="207" cy="499" r="2"></circle><circle cx="218" cy="498" r="2"></circle><circle cx="229" cy="497" r="2"></circle><circle cx="239" cy="496" r="2"></circle><circle cx="250" cy="494" r="2"></circle><circle cx="261" cy="494" r="2"></circle><circle cx="272" cy="493" r="2"></circle><circle cx="283" cy="491" r="2"></circle><circle cx="294" cy="490" r="2"></circle><circle cx="305" cy="488" r="2"></circle><circle cx="316" cy="487" r="2"></circle><circle cx="327" cy="486" r="2"></circle><circle cx="338" cy="484" r="2"></circle><circle cx="349" cy="483" r="2"></circle><circle cx="359" cy="481" r="2"></circle><circle cx="370" cy="480" r="2"></circle><circle cx="381" cy="475" r="2"></circle><circle cx="392" cy="473" r="2"></circle><circle cx="403" cy="470" r="2"></circle><circle cx="414" cy="467" r="2"></circle><circle cx="425" cy="466" r="2"></circle><circle cx="436" cy="463" r="2"></circle><circle cx="447" cy="462" r="2"></circle><circle cx="458" cy="460" r="2"></circle><circle cx="469" cy="454" r="2"></circle><circle cx="479" cy="457" r="2"></circle><circle cx="490" cy="451" r="2"></circle><circle cx="501" cy="446" r="2"></circle><circle cx="512" cy="441" r="2"></circle><circle cx="523" cy="440" r="2"></circle><circle cx="534" cy="440" r="2"></circle><circle cx="545" cy="439" r="2"></circle><circle cx="556" cy="433" r="2"></circle><circle cx="567" cy="425" r="2"></circle><circle cx="578" cy="421" r="2"></circle><circle cx="589" cy="420" r="2"></circle><circle cx="599" cy="418" r="2"></circle><circle cx="610" cy="416" r="2"></circle><circle cx="621" cy="412" r="2"></circle><circle cx="632" cy="408" r="2"></circle><circle cx="643" cy="408" r="2"></circle><circle cx="654" cy="407" r="2"></circle><circle cx="665" cy="405" r="2"></circle><circle cx="676" cy="402" r="2"></circle></g></g></g></g></g><g class="SourcesFooter" style="fill:#777"><g class="clickable" style="fill:#777"><text font-size="12.60" x="15.0" y="581.6"><tspan x="15" y="581.58">Source: UN Food and Agriculture Organization (2017)</tspan></text></g><text font-size="12.60" x="775.4" y="581.6"><tspan x="775.402" y="581.58"><a style="fill: #777;" class="cclogo" href="http://creativecommons.org/licenses/by-sa/4.0/deed.en_US" target="_blank">CC BY-SA</a></tspan></text></g></g></svg>