<svg xmlns="http://www.w3.org/2000/svg" version="1.1" style="font-family:&#x27;Helvetica Neue&#x27;, Helvetica, Arial, sans-serif;font-size:18px;background-color:white;text-rendering:optimizeLegibility;-webkit-font-smoothing:antialiased" width="850" height="600"><g class="ChartTab"><g class="HeaderView"><g opacity="0.8" transform="translate(778, 15) scale(0.27)"><a xmlns:xlink="http://www.w3.org/1999/xlink" xlink:href="https://ourworldindata.org" target="_blank"><g><rect x="0" y="0" fill="#1B2543" width="211.2" height="130.1"/><rect x="0" y="112.2" fill="#E63912" width="211.2" height="17.9"/><g><rect x="1.2" y="12.3" fill="none" width="210.2" height="99.2"/><path fill="#FFFFFF" d="M37.8,32.2c0,12.7-7.7,19.4-17.1,19.4c-9.7,0-16.6-7.5-16.6-18.7c0-11.7,7.3-19.3,17.1-19.3 C31.3,13.7,37.8,21.3,37.8,32.2z M9.2,32.8c0,7.9,4.3,14.9,11.8,14.9c7.5,0,11.8-6.9,11.8-15.3c0-7.3-3.8-14.9-11.8-14.9 C13.1,17.5,9.2,24.8,9.2,32.8z"/><path fill="#FFFFFF" d="M62.7,43.8c0,2.7,0.1,5.1,0.2,7.2h-4.3l-0.3-4.3h-0.1c-1.3,2.1-4,4.9-8.8,4.9c-4.2,0-9.1-2.3-9.1-11.6 V24.6h4.8v14.6c0,5,1.5,8.4,5.9,8.4c3.2,0,5.5-2.2,6.3-4.4c0.3-0.7,0.4-1.6,0.4-2.5V24.6h4.8V43.8z"/><path fill="#FFFFFF" d="M67.3,32.8c0-3.1-0.1-5.8-0.2-8.2h4.2l0.2,5.2h0.2c1.2-3.5,4.1-5.8,7.3-5.8c0.5,0,0.9,0.1,1.4,0.2v4.5 c-0.5-0.1-1-0.2-1.6-0.2c-3.4,0-5.8,2.6-6.5,6.2c-0.1,0.7-0.2,1.4-0.2,2.2V51h-4.8V32.8z"/><path fill="#FFFFFF" d="M95.4,51l-9.4-36.8h5l4.4,18.6c1.1,4.6,2.1,9.2,2.7,12.7h0.1c0.6-3.7,1.8-8,3-12.8l4.9-18.5h5l4.5,18.7 c1,4.4,2,8.7,2.6,12.6h0.1c0.8-4,1.8-8.1,3-12.7l4.9-18.5h4.9L120.6,51h-5L111,31.9c-1.1-4.7-1.9-8.3-2.4-12h-0.1 c-0.7,3.7-1.5,7.3-2.8,12L100.4,51H95.4z"/><path fill="#FFFFFF" d="M154.9,37.6c0,9.8-6.8,14-13.2,14c-7.2,0-12.7-5.2-12.7-13.6c0-8.8,5.8-14,13.1-14 C149.8,24,154.9,29.5,154.9,37.6z M133.9,37.9c0,5.8,3.3,10.1,8,10.1c4.6,0,8-4.3,8-10.3c0-4.5-2.2-10.1-7.9-10.1 C136.3,27.6,133.9,32.8,133.9,37.9z"/><path fill="#FFFFFF" d="M158.2,32.8c0-3.1-0.1-5.8-0.2-8.2h4.2l0.2,5.2h0.2c1.2-3.5,4.1-5.8,7.3-5.8c0.5,0,0.9,0.1,1.4,0.2v4.5 c-0.5-0.1-1-0.2-1.6-0.2c-3.4,0-5.8,2.6-6.5,6.2c-0.1,0.7-0.2,1.4-0.2,2.2V51h-4.8V32.8z"/><path fill="#FFFFFF" d="M173.5,12.3h4.8V51h-4.8V12.3z"/><path fill="#FFFFFF" d="M206.5,12.3v31.9c0,2.3,0.1,5,0.2,6.8h-4.3l-0.2-4.6H202c-1.5,2.9-4.7,5.2-9,5.2 c-6.4,0-11.3-5.4-11.3-13.4c-0.1-8.8,5.4-14.2,11.9-14.2c4,0,6.8,1.9,8,4h0.1V12.3H206.5z M201.7,35.4c0-0.6-0.1-1.4-0.2-2 c-0.7-3.1-3.3-5.6-6.9-5.6c-5,0-7.9,4.4-7.9,10.2c0,5.3,2.6,9.8,7.8,9.8c3.2,0,6.2-2.1,7.1-5.7c0.2-0.7,0.2-1.3,0.2-2.1V35.4z"/><path fill="#FFFFFF" d="M42.8,64c0.1,1.6-1.1,2.9-3.1,2.9c-1.7,0-2.9-1.3-2.9-2.9c0-1.7,1.3-3,3-3C41.7,61,42.8,62.3,42.8,64z M37.4,97.8V71.4h4.8v26.4H37.4z"/><path fill="#FFFFFF" d="M47.5,78.6c0-2.7-0.1-5-0.2-7.1h4.3l0.3,4.4h0.1c1.3-2.5,4.4-5,8.8-5c3.7,0,9.4,2.2,9.4,11.2v15.8h-4.8 V82.6c0-4.3-1.6-7.8-6.1-7.8c-3.2,0-5.6,2.2-6.5,4.9c-0.2,0.6-0.3,1.4-0.3,2.2v15.9h-4.8V78.6z"/><path fill="#FFFFFF" d="M84,61.6c2.9-0.4,6.3-0.8,10.1-0.8c6.8,0,11.7,1.6,14.9,4.6c3.3,3,5.2,7.3,5.2,13.2c0,6-1.9,10.9-5.3,14.3 c-3.4,3.4-9.1,5.3-16.3,5.3c-3.4,0-6.2-0.2-8.6-0.4V61.6z M88.8,94.1c1.2,0.2,3,0.3,4.8,0.3c10.2,0,15.7-5.7,15.7-15.6 c0.1-8.7-4.9-14.2-14.9-14.2c-2.5,0-4.3,0.2-5.6,0.5V94.1z"/><path fill="#FFFFFF" d="M132.1,97.8l-0.4-3.3h-0.2c-1.5,2.1-4.3,3.9-8.1,3.9c-5.4,0-8.1-3.8-8.1-7.6c0-6.4,5.7-9.9,15.9-9.8v-0.5 c0-2.2-0.6-6.1-6-6.1c-2.5,0-5,0.8-6.9,2l-1.1-3.2c2.2-1.4,5.4-2.3,8.7-2.3c8.1,0,10.1,5.5,10.1,10.8v9.9c0,2.3,0.1,4.5,0.4,6.3 H132.1z M131.4,84.4c-5.3-0.1-11.2,0.8-11.2,5.9c0,3.1,2.1,4.6,4.5,4.6c3.4,0,5.6-2.2,6.4-4.4c0.2-0.5,0.3-1,0.3-1.5V84.4z"/><path fill="#FFFFFF" d="M146.6,63.9v7.6h6.9v3.7h-6.9v14.2c0,3.3,0.9,5.1,3.6,5.1c1.3,0,2.2-0.2,2.8-0.3l0.2,3.6 c-0.9,0.4-2.4,0.7-4.3,0.7c-2.2,0-4-0.7-5.2-2c-1.4-1.4-1.9-3.8-1.9-6.9V75.1h-4.1v-3.7h4.1v-6.3L146.6,63.9z"/><path fill="#FFFFFF" d="M171.4,97.8l-0.4-3.3h-0.2c-1.5,2.1-4.3,3.9-8.1,3.9c-5.4,0-8.1-3.8-8.1-7.6c0-6.4,5.7-9.9,15.9-9.8v-0.5 c0-2.2-0.6-6.1-6-6.1c-2.5,0-5,0.8-6.9,2l-1.1-3.2c2.2-1.4,5.4-2.3,8.7-2.3c8.1,0,10.1,5.5,10.1,10.8v9.9c0,2.3,0.1,4.5,0.4,6.3 H171.4z M170.7,84.4c-5.3-0.1-11.2,0.8-11.2,5.9c0,3.1,2.1,4.6,4.5,4.6c3.4,0,5.6-2.2,6.4-4.4c0.2-0.5,0.3-1,0.3-1.5V84.4z"/></g></g></a></g><a href="https://ourworldindata.org/grapher/annual-deaths-by-cause-2011?country=JPN" target="_blank"><text font-size="25.20" x="15.0" y="35.2" fill="#555"><tspan x="15" y="35.160000000000004">Annual number of deaths by cause, Japan, 2011</tspan></text></a><text font-size="14.40" x="15.0" y="53.7" fill="#666"><tspan x="15" y="53.72">Data refers to the specific cause of death, which is distinguished from risk factors for death, such as air pollution, diet</tspan><tspan x="15" y="69.56">and other lifestyle factors. See sources for further details on definitions of specific cause categories.</tspan></text></g><g class="DiscreteBarChart"><rect x="15" y="92.1" width="810" height="464.4" opacity="0" fill="rgba(255,255,255,0)"></rect><g class="HorizontalAxis"><text x="527.9" y="556.5" fill="#666" text-anchor="middle" font-size="16.2">0</text><text x="590.9" y="556.5" fill="#666" text-anchor="middle" font-size="16.2">100,000</text><text x="748.5" y="556.5" fill="#666" text-anchor="middle" font-size="16.2">350,000</text></g><g class="AxisGridLines"><line x1="527.9" y1="535.30" x2="527.9" y2="92.10" stroke="#ccc"></line><line x1="559.4" y1="535.30" x2="559.4" y2="92.10" stroke="#ddd" stroke-dasharray="3,2"></line><line x1="590.9" y1="535.30" x2="590.9" y2="92.10" stroke="#ddd" stroke-dasharray="3,2"></line><line x1="622.4" y1="535.30" x2="622.4" y2="92.10" stroke="#ddd" stroke-dasharray="3,2"></line><line x1="653.9" y1="535.30" x2="653.9" y2="92.10" stroke="#ddd" stroke-dasharray="3,2"></line><line x1="685.5" y1="535.30" x2="685.5" y2="92.10" stroke="#ddd" stroke-dasharray="3,2"></line><line x1="717" y1="535.30" x2="717" y2="92.10" stroke="#ddd" stroke-dasharray="3,2"></line><line x1="748.5" y1="535.30" x2="748.5" y2="92.10" stroke="#ddd" stroke-dasharray="3,2"></line></g><g class="bar"><text x="522.856" y="97.64" fill="#666" dominant-baseline="middle" text-anchor="end" font-size="13.5">Cancers</text><rect x="527.9" y="92.1" width="229.10000000000002" height="11.08" fill="#2E5778" opacity="0.85"></rect><text x="762" y="97.64" fill="#666" dominant-baseline="middle" text-anchor="start" font-size="13.5">363,407.61</text></g><g class="bar"><text x="522.856" y="111.49" fill="#666" dominant-baseline="middle" text-anchor="end" font-size="13.5">Cardiovascular diseases</text><rect x="527.9" y="105.94999999999999" width="215.80000000000007" height="11.08" fill="#2E5778" opacity="0.85"></rect><text x="748.7" y="111.49" fill="#666" dominant-baseline="middle" text-anchor="start" font-size="13.5">342,398.68</text></g><g class="bar"><text x="522.856" y="125.33999999999999" fill="#666" dominant-baseline="middle" text-anchor="end" font-size="13.5">Dementia</text><rect x="527.9" y="119.79999999999998" width="119.80000000000007" height="11.08" fill="#2E5778" opacity="0.85"></rect><text x="652.7" y="125.33999999999999" fill="#666" dominant-baseline="middle" text-anchor="start" font-size="13.5">190,150.3</text></g><g class="bar"><text x="522.856" y="139.19" fill="#666" dominant-baseline="middle" text-anchor="end" font-size="13.5">Deaths - Lower respiratory infections - Sex: Both - Age: All Ages (Number)</text><rect x="527.9" y="133.65" width="54.39999999999998" height="11.08" fill="#2E5778" opacity="0.85"></rect><text x="587.3" y="139.19" fill="#666" dominant-baseline="middle" text-anchor="start" font-size="13.5">86,300.03</text></g><g class="bar"><text x="522.856" y="153.04" fill="#666" dominant-baseline="middle" text-anchor="end" font-size="13.5">Diabetes, blood, and endocrine diseases</text><rect x="527.9" y="147.5" width="35.30000000000007" height="11.08" fill="#2E5778" opacity="0.85"></rect><text x="568.2" y="153.04" fill="#666" dominant-baseline="middle" text-anchor="start" font-size="13.5">56,066.16</text></g><g class="bar"><text x="522.856" y="166.89" fill="#666" dominant-baseline="middle" text-anchor="end" font-size="13.5">Respiratory diseases</text><rect x="527.9" y="161.35" width="29.100000000000023" height="11.08" fill="#2E5778" opacity="0.85"></rect><text x="562" y="166.89" fill="#666" dominant-baseline="middle" text-anchor="start" font-size="13.5">46,294.89</text></g><g class="bar"><text x="522.856" y="180.73999999999998" fill="#666" dominant-baseline="middle" text-anchor="end" font-size="13.5">Kidney disease</text><rect x="527.9" y="175.2" width="21.399999999999977" height="11.08" fill="#2E5778" opacity="0.85"></rect><text x="554.3" y="180.73999999999998" fill="#666" dominant-baseline="middle" text-anchor="start" font-size="13.5">34,083.13</text></g><g class="bar"><text x="522.856" y="194.58999999999997" fill="#666" dominant-baseline="middle" text-anchor="end" font-size="13.5">Suicide</text><rect x="527.9" y="189.04999999999998" width="19.700000000000045" height="11.08" fill="#2E5778" opacity="0.85"></rect><text x="552.6" y="194.58999999999997" fill="#666" dominant-baseline="middle" text-anchor="start" font-size="13.5">31,343.61</text></g><g class="bar"><text x="522.856" y="208.43999999999997" fill="#666" dominant-baseline="middle" text-anchor="end" font-size="13.5">Liver disease</text><rect x="527.9" y="202.89999999999998" width="14.700000000000045" height="11.08" fill="#2E5778" opacity="0.85"></rect><text x="547.6" y="208.43999999999997" fill="#666" dominant-baseline="middle" text-anchor="start" font-size="13.5">23,342.05</text></g><g class="bar"><text x="522.856" y="222.28999999999996" fill="#666" dominant-baseline="middle" text-anchor="end" font-size="13.5">Digestive diseases</text><rect x="527.9" y="216.74999999999997" width="14.5" height="11.08" fill="#2E5778" opacity="0.85"></rect><text x="547.4" y="222.28999999999996" fill="#666" dominant-baseline="middle" text-anchor="start" font-size="13.5">23,052.83</text></g><g class="bar"><text x="522.856" y="236.13999999999996" fill="#666" dominant-baseline="middle" text-anchor="end" font-size="13.5">Natural disasters</text><rect x="527.9" y="230.59999999999997" width="12" height="11.08" fill="#2E5778" opacity="0.85"></rect><text x="544.9" y="236.13999999999996" fill="#666" dominant-baseline="middle" text-anchor="start" font-size="13.5">19,067.42</text></g><g class="bar"><text x="522.856" y="249.98999999999995" fill="#666" dominant-baseline="middle" text-anchor="end" font-size="13.5">Parkinson disease</text><rect x="527.9" y="244.44999999999996" width="5.399999999999977" height="11.08" fill="#2E5778" opacity="0.85"></rect><text x="538.3" y="249.98999999999995" fill="#666" dominant-baseline="middle" text-anchor="start" font-size="13.5">8,684.16</text></g><g class="bar"><text x="522.856" y="263.84" fill="#666" dominant-baseline="middle" text-anchor="end" font-size="13.5">Road accidents</text><rect x="527.9" y="258.29999999999995" width="5.100000000000023" height="11.08" fill="#2E5778" opacity="0.85"></rect><text x="538" y="263.84" fill="#666" dominant-baseline="middle" text-anchor="start" font-size="13.5">8,102.28</text></g><g class="bar"><text x="522.856" y="277.69" fill="#666" dominant-baseline="middle" text-anchor="end" font-size="13.5">Drowning</text><rect x="527.9" y="272.15" width="4.100000000000023" height="11.08" fill="#2E5778" opacity="0.85"></rect><text x="537" y="277.69" fill="#666" dominant-baseline="middle" text-anchor="start" font-size="13.5">6,584.88</text></g><g class="bar"><text x="522.856" y="291.54" fill="#666" dominant-baseline="middle" text-anchor="end" font-size="13.5">Tuberculosis</text><rect x="527.9" y="286" width="2.3999999999999773" height="11.08" fill="#2E5778" opacity="0.85"></rect><text x="535.3" y="291.54" fill="#666" dominant-baseline="middle" text-anchor="start" font-size="13.5">3,832.73</text></g><g class="bar"><text x="522.856" y="305.39000000000004" fill="#666" dominant-baseline="middle" text-anchor="end" font-size="13.5">Diarrheal diseases</text><rect x="527.9" y="299.85" width="1.7000000000000455" height="11.08" fill="#2E5778" opacity="0.85"></rect><text x="534.6" y="305.39000000000004" fill="#666" dominant-baseline="middle" text-anchor="start" font-size="13.5">2,692.24</text></g><g class="bar"><text x="522.856" y="319.24000000000007" fill="#666" dominant-baseline="middle" text-anchor="end" font-size="13.5">Nutritional deficiencies</text><rect x="527.9" y="313.70000000000005" width="1.6000000000000227" height="11.08" fill="#2E5778" opacity="0.85"></rect><text x="534.5" y="319.24000000000007" fill="#666" dominant-baseline="middle" text-anchor="start" font-size="13.5">2,569.25</text></g><g class="bar"><text x="522.856" y="333.0900000000001" fill="#666" dominant-baseline="middle" text-anchor="end" font-size="13.5">Fire</text><rect x="527.9" y="327.55000000000007" width="1.2000000000000455" height="11.08" fill="#2E5778" opacity="0.85"></rect><text x="534.1" y="333.0900000000001" fill="#666" dominant-baseline="middle" text-anchor="start" font-size="13.5">2,028.21</text></g><g class="bar"><text x="522.856" y="346.9400000000001" fill="#666" dominant-baseline="middle" text-anchor="end" font-size="13.5">Protein-energy malnutrition</text><rect x="527.9" y="341.4000000000001" width="1.2000000000000455" height="11.08" fill="#2E5778" opacity="0.85"></rect><text x="534.1" y="346.9400000000001" fill="#666" dominant-baseline="middle" text-anchor="start" font-size="13.5">1,919.36</text></g><g class="bar"><text x="522.856" y="360.79000000000013" fill="#666" dominant-baseline="middle" text-anchor="end" font-size="13.5">Hot or cold-related deaths</text><rect x="527.9" y="355.2500000000001" width="0.8999999999999773" height="11.08" fill="#2E5778" opacity="0.85"></rect><text x="533.8" y="360.79000000000013" fill="#666" dominant-baseline="middle" text-anchor="start" font-size="13.5">1,558.49</text></g><g class="bar"><text x="522.856" y="374.64000000000016" fill="#666" dominant-baseline="middle" text-anchor="end" font-size="13.5">Homicide</text><rect x="527.9" y="369.10000000000014" width="0.5" height="11.08" fill="#2E5778" opacity="0.85"></rect><text x="533.4" y="374.64000000000016" fill="#666" dominant-baseline="middle" text-anchor="start" font-size="13.5">871.9</text></g><g class="bar"><text x="522.856" y="388.4900000000002" fill="#666" dominant-baseline="middle" text-anchor="end" font-size="13.5">Neonatal disorders</text><rect x="527.9" y="382.95000000000016" width="0.39999999999997726" height="11.08" fill="#2E5778" opacity="0.85"></rect><text x="533.3" y="388.4900000000002" fill="#666" dominant-baseline="middle" text-anchor="start" font-size="13.5">717.72</text></g><g class="bar"><text x="522.856" y="402.3400000000002" fill="#666" dominant-baseline="middle" text-anchor="end" font-size="13.5">Drug use disorders</text><rect x="527.9" y="396.8000000000002" width="0.39999999999997726" height="11.08" fill="#2E5778" opacity="0.85"></rect><text x="533.3" y="402.3400000000002" fill="#666" dominant-baseline="middle" text-anchor="start" font-size="13.5">642.63</text></g><g class="bar"><text x="522.856" y="416.1900000000002" fill="#666" dominant-baseline="middle" text-anchor="end" font-size="13.5">Alcohol disorders</text><rect x="527.9" y="410.6500000000002" width="0.3000000000000682" height="11.08" fill="#2E5778" opacity="0.85"></rect><text x="533.2" y="416.1900000000002" fill="#666" dominant-baseline="middle" text-anchor="start" font-size="13.5">579.63</text></g><g class="bar"><text x="522.856" y="430.04000000000025" fill="#666" dominant-baseline="middle" text-anchor="end" font-size="13.5">Hepatitis</text><rect x="527.9" y="424.5000000000002" width="0.3000000000000682" height="11.08" fill="#2E5778" opacity="0.85"></rect><text x="533.2" y="430.04000000000025" fill="#666" dominant-baseline="middle" text-anchor="start" font-size="13.5">529.25</text></g><g class="bar"><text x="522.856" y="443.89000000000027" fill="#666" dominant-baseline="middle" text-anchor="end" font-size="13.5">Deaths - Meningitis - Sex: Both - Age: All Ages (Number)</text><rect x="527.9" y="438.35000000000025" width="0.3000000000000682" height="11.08" fill="#2E5778" opacity="0.85"></rect><text x="533.2" y="443.89000000000027" fill="#666" dominant-baseline="middle" text-anchor="start" font-size="13.5">482.29</text></g><g class="bar"><text x="522.856" y="457.7400000000003" fill="#666" dominant-baseline="middle" text-anchor="end" font-size="13.5">HIV/AIDS</text><rect x="527.9" y="452.2000000000003" width="0.10000000000002274" height="11.08" fill="#2E5778" opacity="0.85"></rect><text x="533" y="457.7400000000003" fill="#666" dominant-baseline="middle" text-anchor="start" font-size="13.5">175</text></g><g class="bar"><text x="522.856" y="471.5900000000003" fill="#666" dominant-baseline="middle" text-anchor="end" font-size="13.5">Maternal disorders</text><rect x="527.9" y="466.0500000000003" width="0" height="11.08" fill="#2E5778" opacity="0.85"></rect><text x="532.9" y="471.5900000000003" fill="#666" dominant-baseline="middle" text-anchor="start" font-size="13.5">67.69</text></g><g class="bar"><text x="522.856" y="485.44000000000034" fill="#666" dominant-baseline="middle" text-anchor="end" font-size="13.5">Deaths - Intestinal infectious diseases - Sex: Both - Age: All Ages (Number)</text><rect x="527.9" y="479.9000000000003" width="0" height="11.08" fill="#2E5778" opacity="0.85"></rect><text x="532.9" y="485.44000000000034" fill="#666" dominant-baseline="middle" text-anchor="start" font-size="13.5">4.92</text></g><g class="bar"><text x="522.856" y="499.29000000000036" fill="#666" dominant-baseline="middle" text-anchor="end" font-size="13.5">Malaria</text><rect x="527.9" y="493.75000000000034" width="0" height="11.08" fill="#2E5778" opacity="0.85"></rect><text x="532.9" y="499.29000000000036" fill="#666" dominant-baseline="middle" text-anchor="start" font-size="13.5">0</text></g><g class="bar"><text x="522.856" y="513.1400000000003" fill="#666" dominant-baseline="middle" text-anchor="end" font-size="13.5">Conflict (deaths)</text><rect x="527.9" y="507.6000000000003" width="0" height="11.08" fill="#2E5778" opacity="0.85"></rect><text x="532.9" y="513.1400000000003" fill="#666" dominant-baseline="middle" text-anchor="start" font-size="13.5">0</text></g><g class="bar"><text x="522.856" y="526.9900000000004" fill="#666" dominant-baseline="middle" text-anchor="end" font-size="13.5">Terrorism (deaths)</text><rect x="527.9" y="521.4500000000004" width="0" height="11.08" fill="#2E5778" opacity="0.85"></rect><text x="532.9" y="526.9900000000004" fill="#666" dominant-baseline="middle" text-anchor="start" font-size="13.5">0</text></g></g><g class="SourcesFooter" style="fill:#777"><g class="clickable" style="fill:#777"><text font-size="12.60" x="15.0" y="581.6"><tspan x="15" y="581.58">Source: IHME, Global Burden of Disease (GBD); Global Terrorism Database; Amnesty International</tspan></text></g><text font-size="12.60" x="775.4" y="581.6"><tspan x="775.402" y="581.58"><a style="fill: #777;" class="cclogo" href="http://creativecommons.org/licenses/by-sa/4.0/deed.en_US" target="_blank">CC BY-SA</a></tspan></text></g></g></svg>