<svg xmlns="http://www.w3.org/2000/svg" version="1.1" style="font-family:&#x27;Helvetica Neue&#x27;, Helvetica, Arial, sans-serif;font-size:18px;background-color:white;text-rendering:optimizeLegibility;-webkit-font-smoothing:antialiased" width="850" height="600"><g class="ChartTab"><g class="HeaderView"><g opacity="0.8" transform="translate(778, 15) scale(0.27)"><a xmlns:xlink="http://www.w3.org/1999/xlink" xlink:href="https://ourworldindata.org" target="_blank"><g><rect x="0" y="0" fill="#1B2543" width="211.2" height="130.1"/><rect x="0" y="112.2" fill="#E63912" width="211.2" height="17.9"/><g><rect x="1.2" y="12.3" fill="none" width="210.2" height="99.2"/><path fill="#FFFFFF" d="M37.8,32.2c0,12.7-7.7,19.4-17.1,19.4c-9.7,0-16.6-7.5-16.6-18.7c0-11.7,7.3-19.3,17.1-19.3 C31.3,13.7,37.8,21.3,37.8,32.2z M9.2,32.8c0,7.9,4.3,14.9,11.8,14.9c7.5,0,11.8-6.9,11.8-15.3c0-7.3-3.8-14.9-11.8-14.9 C13.1,17.5,9.2,24.8,9.2,32.8z"/><path fill="#FFFFFF" d="M62.7,43.8c0,2.7,0.1,5.1,0.2,7.2h-4.3l-0.3-4.3h-0.1c-1.3,2.1-4,4.9-8.8,4.9c-4.2,0-9.1-2.3-9.1-11.6 V24.6h4.8v14.6c0,5,1.5,8.4,5.9,8.4c3.2,0,5.5-2.2,6.3-4.4c0.3-0.7,0.4-1.6,0.4-2.5V24.6h4.8V43.8z"/><path fill="#FFFFFF" d="M67.3,32.8c0-3.1-0.1-5.8-0.2-8.2h4.2l0.2,5.2h0.2c1.2-3.5,4.1-5.8,7.3-5.8c0.5,0,0.9,0.1,1.4,0.2v4.5 c-0.5-0.1-1-0.2-1.6-0.2c-3.4,0-5.8,2.6-6.5,6.2c-0.1,0.7-0.2,1.4-0.2,2.2V51h-4.8V32.8z"/><path fill="#FFFFFF" d="M95.4,51l-9.4-36.8h5l4.4,18.6c1.1,4.6,2.1,9.2,2.7,12.7h0.1c0.6-3.7,1.8-8,3-12.8l4.9-18.5h5l4.5,18.7 c1,4.4,2,8.7,2.6,12.6h0.1c0.8-4,1.8-8.1,3-12.7l4.9-18.5h4.9L120.6,51h-5L111,31.9c-1.1-4.7-1.9-8.3-2.4-12h-0.1 c-0.7,3.7-1.5,7.3-2.8,12L100.4,51H95.4z"/><path fill="#FFFFFF" d="M154.9,37.6c0,9.8-6.8,14-13.2,14c-7.2,0-12.7-5.2-12.7-13.6c0-8.8,5.8-14,13.1-14 C149.8,24,154.9,29.5,154.9,37.6z M133.9,37.9c0,5.8,3.3,10.1,8,10.1c4.6,0,8-4.3,8-10.3c0-4.5-2.2-10.1-7.9-10.1 C136.3,27.6,133.9,32.8,133.9,37.9z"/><path fill="#FFFFFF" d="M158.2,32.8c0-3.1-0.1-5.8-0.2-8.2h4.2l0.2,5.2h0.2c1.2-3.5,4.1-5.8,7.3-5.8c0.5,0,0.9,0.1,1.4,0.2v4.5 c-0.5-0.1-1-0.2-1.6-0.2c-3.4,0-5.8,2.6-6.5,6.2c-0.1,0.7-0.2,1.4-0.2,2.2V51h-4.8V32.8z"/><path fill="#FFFFFF" d="M173.5,12.3h4.8V51h-4.8V12.3z"/><path fill="#FFFFFF" d="M206.5,12.3v31.9c0,2.3,0.1,5,0.2,6.8h-4.3l-0.2-4.6H202c-1.5,2.9-4.7,5.2-9,5.2 c-6.4,0-11.3-5.4-11.3-13.4c-0.1-8.8,5.4-14.2,11.9-14.2c4,0,6.8,1.9,8,4h0.1V12.3H206.5z M201.7,35.4c0-0.6-0.1-1.4-0.2-2 c-0.7-3.1-3.3-5.6-6.9-5.6c-5,0-7.9,4.4-7.9,10.2c0,5.3,2.6,9.8,7.8,9.8c3.2,0,6.2-2.1,7.1-5.7c0.2-0.7,0.2-1.3,0.2-2.1V35.4z"/><path fill="#FFFFFF" d="M42.8,64c0.1,1.6-1.1,2.9-3.1,2.9c-1.7,0-2.9-1.3-2.9-2.9c0-1.7,1.3-3,3-3C41.7,61,42.8,62.3,42.8,64z M37.4,97.8V71.4h4.8v26.4H37.4z"/><path fill="#FFFFFF" d="M47.5,78.6c0-2.7-0.1-5-0.2-7.1h4.3l0.3,4.4h0.1c1.3-2.5,4.4-5,8.8-5c3.7,0,9.4,2.2,9.4,11.2v15.8h-4.8 V82.6c0-4.3-1.6-7.8-6.1-7.8c-3.2,0-5.6,2.2-6.5,4.9c-0.2,0.6-0.3,1.4-0.3,2.2v15.9h-4.8V78.6z"/><path fill="#FFFFFF" d="M84,61.6c2.9-0.4,6.3-0.8,10.1-0.8c6.8,0,11.7,1.6,14.9,4.6c3.3,3,5.2,7.3,5.2,13.2c0,6-1.9,10.9-5.3,14.3 c-3.4,3.4-9.1,5.3-16.3,5.3c-3.4,0-6.2-0.2-8.6-0.4V61.6z M88.8,94.1c1.2,0.2,3,0.3,4.8,0.3c10.2,0,15.7-5.7,15.7-15.6 c0.1-8.7-4.9-14.2-14.9-14.2c-2.5,0-4.3,0.2-5.6,0.5V94.1z"/><path fill="#FFFFFF" d="M132.1,97.8l-0.4-3.3h-0.2c-1.5,2.1-4.3,3.9-8.1,3.9c-5.4,0-8.1-3.8-8.1-7.6c0-6.4,5.7-9.9,15.9-9.8v-0.5 c0-2.2-0.6-6.1-6-6.1c-2.5,0-5,0.8-6.9,2l-1.1-3.2c2.2-1.4,5.4-2.3,8.7-2.3c8.1,0,10.1,5.5,10.1,10.8v9.9c0,2.3,0.1,4.5,0.4,6.3 H132.1z M131.4,84.4c-5.3-0.1-11.2,0.8-11.2,5.9c0,3.1,2.1,4.6,4.5,4.6c3.4,0,5.6-2.2,6.4-4.4c0.2-0.5,0.3-1,0.3-1.5V84.4z"/><path fill="#FFFFFF" d="M146.6,63.9v7.6h6.9v3.7h-6.9v14.2c0,3.3,0.9,5.1,3.6,5.1c1.3,0,2.2-0.2,2.8-0.3l0.2,3.6 c-0.9,0.4-2.4,0.7-4.3,0.7c-2.2,0-4-0.7-5.2-2c-1.4-1.4-1.9-3.8-1.9-6.9V75.1h-4.1v-3.7h4.1v-6.3L146.6,63.9z"/><path fill="#FFFFFF" d="M171.4,97.8l-0.4-3.3h-0.2c-1.5,2.1-4.3,3.9-8.1,3.9c-5.4,0-8.1-3.8-8.1-7.6c0-6.4,5.7-9.9,15.9-9.8v-0.5 c0-2.2-0.6-6.1-6-6.1c-2.5,0-5,0.8-6.9,2l-1.1-3.2c2.2-1.4,5.4-2.3,8.7-2.3c8.1,0,10.1,5.5,10.1,10.8v9.9c0,2.3,0.1,4.5,0.4,6.3 H171.4z M170.7,84.4c-5.3-0.1-11.2,0.8-11.2,5.9c0,3.1,2.1,4.6,4.5,4.6c3.4,0,5.6-2.2,6.4-4.4c0.2-0.5,0.3-1,0.3-1.5V84.4z"/></g></g></a></g><a href="https://ourworldindata.org/grapher/average-working-hours-of-children" target="_blank"><text font-size="25.20" x="15.0" y="35.2" fill="#555"><tspan x="15" y="35.160000000000004">Average weekly working hours of children</tspan></text></a><text font-size="14.40" x="15.0" y="53.7" fill="#666"><tspan x="15" y="53.72">Average weekly working hours for children ages 7-14 who are involved in an economic activity for at least one hour in</tspan><tspan x="15" y="69.56">the reference week of the corresponding survey (irrespective of school attendance).</tspan></text></g><g class="DiscreteBarChart"><rect x="15" y="92.1" width="810" height="464.4" opacity="0" fill="rgba(255,255,255,0)"></rect><g class="HorizontalAxis"><text x="105.4" y="556.5" fill="#666" text-anchor="middle" font-size="16.2">0</text><text x="203.5" y="556.5" fill="#666" text-anchor="middle" font-size="16.2">5</text><text x="301.5" y="556.5" fill="#666" text-anchor="middle" font-size="16.2">10</text><text x="399.6" y="556.5" fill="#666" text-anchor="middle" font-size="16.2">15</text><text x="497.7" y="556.5" fill="#666" text-anchor="middle" font-size="16.2">20</text><text x="595.7" y="556.5" fill="#666" text-anchor="middle" font-size="16.2">25</text><text x="693.8" y="556.5" fill="#666" text-anchor="middle" font-size="16.2">30</text></g><g class="AxisGridLines"><line x1="105.4" y1="535.30" x2="105.4" y2="92.10" stroke="#ccc"></line><line x1="203.5" y1="535.30" x2="203.5" y2="92.10" stroke="#ddd" stroke-dasharray="3,2"></line><line x1="301.5" y1="535.30" x2="301.5" y2="92.10" stroke="#ddd" stroke-dasharray="3,2"></line><line x1="399.6" y1="535.30" x2="399.6" y2="92.10" stroke="#ddd" stroke-dasharray="3,2"></line><line x1="497.7" y1="535.30" x2="497.7" y2="92.10" stroke="#ddd" stroke-dasharray="3,2"></line><line x1="595.7" y1="535.30" x2="595.7" y2="92.10" stroke="#ddd" stroke-dasharray="3,2"></line><line x1="693.8" y1="535.30" x2="693.8" y2="92.10" stroke="#ddd" stroke-dasharray="3,2"></line></g><g class="bar"><text x="100.423" y="98.66592592592592" fill="#666" dominant-baseline="middle" text-anchor="end" font-size="13.5">Bangladesh</text><rect x="105.4" y="92.1" width="628.3000000000001" height="13.131851851851852" fill="#2E5778" opacity="0.85"></rect><text x="738.7" y="98.66592592592592" fill="#666" dominant-baseline="middle" text-anchor="start" font-size="13.5">32.04 (in 2013)</text></g><g class="bar"><text x="100.423" y="115.08074074074074" fill="#666" dominant-baseline="middle" text-anchor="end" font-size="13.5">El Salvador</text><rect x="105.4" y="108.51481481481481" width="392.5" height="13.131851851851852" fill="#2E5778" opacity="0.85"></rect><text x="502.9" y="115.08074074074074" fill="#666" dominant-baseline="middle" text-anchor="start" font-size="13.5">20.01 (in 2013)</text></g><g class="bar"><text x="100.423" y="131.49555555555554" fill="#666" dominant-baseline="middle" text-anchor="end" font-size="13.5">Egypt</text><rect x="105.4" y="124.92962962962962" width="368.70000000000005" height="13.131851851851852" fill="#2E5778" opacity="0.85"></rect><text x="479.1" y="131.49555555555554" fill="#666" dominant-baseline="middle" text-anchor="start" font-size="13.5">18.8 (in 2009)</text></g><g class="bar"><text x="100.423" y="147.91037037037034" fill="#666" dominant-baseline="middle" text-anchor="end" font-size="13.5">Ethiopia</text><rect x="105.4" y="141.3444444444444" width="368.70000000000005" height="13.131851851851852" fill="#2E5778" opacity="0.85"></rect><text x="479.1" y="147.91037037037034" fill="#666" dominant-baseline="middle" text-anchor="start" font-size="13.5">18.8 (in 2011)</text></g><g class="bar"><text x="100.423" y="164.32518518518515" fill="#666" dominant-baseline="middle" text-anchor="end" font-size="13.5">Guatemala</text><rect x="105.4" y="157.7592592592592" width="363.79999999999995" height="13.131851851851852" fill="#2E5778" opacity="0.85"></rect><text x="474.2" y="164.32518518518515" fill="#666" dominant-baseline="middle" text-anchor="start" font-size="13.5">18.55 (in 2015)</text></g><g class="bar"><text x="100.423" y="180.73999999999995" fill="#666" dominant-baseline="middle" text-anchor="end" font-size="13.5">Burkina Faso</text><rect x="105.4" y="174.174074074074" width="345.20000000000005" height="13.131851851851852" fill="#2E5778" opacity="0.85"></rect><text x="455.6" y="180.73999999999995" fill="#666" dominant-baseline="middle" text-anchor="start" font-size="13.5">17.6 (in 2010)</text></g><g class="bar"><text x="100.423" y="197.15481481481476" fill="#666" dominant-baseline="middle" text-anchor="end" font-size="13.5">Guinea</text><rect x="105.4" y="190.58888888888882" width="306" height="13.131851851851852" fill="#2E5778" opacity="0.85"></rect><text x="416.4" y="197.15481481481476" fill="#666" dominant-baseline="middle" text-anchor="start" font-size="13.5">15.6 (in 2012)</text></g><g class="bar"><text x="100.423" y="213.56962962962956" fill="#666" dominant-baseline="middle" text-anchor="end" font-size="13.5">Jordan</text><rect x="105.4" y="207.00370370370362" width="304.79999999999995" height="13.131851851851852" fill="#2E5778" opacity="0.85"></rect><text x="415.2" y="213.56962962962956" fill="#666" dominant-baseline="middle" text-anchor="start" font-size="13.5">15.54</text></g><g class="bar"><text x="100.423" y="229.98444444444436" fill="#666" dominant-baseline="middle" text-anchor="end" font-size="13.5">Indonesia</text><rect x="105.4" y="223.41851851851843" width="282.4" height="13.131851851851852" fill="#2E5778" opacity="0.85"></rect><text x="392.8" y="229.98444444444436" fill="#666" dominant-baseline="middle" text-anchor="start" font-size="13.5">14.4 (in 2010)</text></g><g class="bar"><text x="100.423" y="246.39925925925917" fill="#666" dominant-baseline="middle" text-anchor="end" font-size="13.5">Honduras</text><rect x="105.4" y="239.83333333333323" width="280.4" height="13.131851851851852" fill="#2E5778" opacity="0.85"></rect><text x="390.8" y="246.39925925925917" fill="#666" dominant-baseline="middle" text-anchor="start" font-size="13.5">14.3 (in 2014)</text></g><g class="bar"><text x="100.423" y="262.814074074074" fill="#666" dominant-baseline="middle" text-anchor="end" font-size="13.5">Tanzania</text><rect x="105.4" y="256.24814814814806" width="278" height="13.131851851851852" fill="#2E5778" opacity="0.85"></rect><text x="388.4" y="262.814074074074" fill="#666" dominant-baseline="middle" text-anchor="start" font-size="13.5">14.17 (in 2014)</text></g><g class="bar"><text x="100.423" y="279.2288888888888" fill="#666" dominant-baseline="middle" text-anchor="end" font-size="13.5">Ghana</text><rect x="105.4" y="272.66296296296287" width="268.70000000000005" height="13.131851851851852" fill="#2E5778" opacity="0.85"></rect><text x="379.1" y="279.2288888888888" fill="#666" dominant-baseline="middle" text-anchor="start" font-size="13.5">13.7 (in 2006)</text></g><g class="bar"><text x="100.423" y="295.6437037037036" fill="#666" dominant-baseline="middle" text-anchor="end" font-size="13.5">Mongolia</text><rect x="105.4" y="289.07777777777767" width="268.29999999999995" height="13.131851851851852" fill="#2E5778" opacity="0.85"></rect><text x="378.7" y="295.6437037037036" fill="#666" dominant-baseline="middle" text-anchor="start" font-size="13.5">13.68 (in 2013)</text></g><g class="bar"><text x="100.423" y="312.0585185185184" fill="#666" dominant-baseline="middle" text-anchor="end" font-size="13.5">Afghanistan</text><rect x="105.4" y="305.4925925925925" width="256.9" height="13.131851851851852" fill="#2E5778" opacity="0.85"></rect><text x="367.3" y="312.0585185185184" fill="#666" dominant-baseline="middle" text-anchor="start" font-size="13.5">13.1 (in 2011)</text></g><g class="bar"><text x="100.423" y="328.4733333333332" fill="#666" dominant-baseline="middle" text-anchor="end" font-size="13.5">Mozambique</text><rect x="105.4" y="321.9074074074073" width="252.99999999999997" height="13.131851851851852" fill="#2E5778" opacity="0.85"></rect><text x="363.4" y="328.4733333333332" fill="#666" dominant-baseline="middle" text-anchor="start" font-size="13.5">12.9 (in 2008)</text></g><g class="bar"><text x="100.423" y="344.888148148148" fill="#666" dominant-baseline="middle" text-anchor="end" font-size="13.5">Ecuador</text><rect x="105.4" y="338.3222222222221" width="212.70000000000002" height="13.131851851851852" fill="#2E5778" opacity="0.85"></rect><text x="323.1" y="344.888148148148" fill="#666" dominant-baseline="middle" text-anchor="start" font-size="13.5">10.84 (in 2015)</text></g><g class="bar"><text x="100.423" y="361.3029629629628" fill="#666" dominant-baseline="middle" text-anchor="end" font-size="13.5">Gambia</text><rect x="105.4" y="354.7370370370369" width="201.99999999999997" height="13.131851851851852" fill="#2E5778" opacity="0.85"></rect><text x="312.4" y="361.3029629629628" fill="#666" dominant-baseline="middle" text-anchor="start" font-size="13.5">10.3 (in 2015)</text></g><g class="bar"><text x="100.423" y="377.7177777777776" fill="#666" dominant-baseline="middle" text-anchor="end" font-size="13.5">Iraq</text><rect x="105.4" y="371.1518518518517" width="201.99999999999997" height="13.131851851851852" fill="#2E5778" opacity="0.85"></rect><text x="312.4" y="377.7177777777776" fill="#666" dominant-baseline="middle" text-anchor="start" font-size="13.5">10.3 (in 2011)</text></g><g class="bar"><text x="100.423" y="394.1325925925924" fill="#666" dominant-baseline="middle" text-anchor="end" font-size="13.5">Nepal</text><rect x="105.4" y="387.5666666666665" width="172.9" height="13.131851851851852" fill="#2E5778" opacity="0.85"></rect><text x="283.3" y="394.1325925925924" fill="#666" dominant-baseline="middle" text-anchor="start" font-size="13.5">8.82 (in 2014)</text></g><g class="bar"><text x="100.423" y="410.5474074074072" fill="#666" dominant-baseline="middle" text-anchor="end" font-size="13.5">Togo</text><rect x="105.4" y="403.9814814814813" width="159.20000000000002" height="13.131851851851852" fill="#2E5778" opacity="0.85"></rect><text x="269.6" y="410.5474074074072" fill="#666" dominant-baseline="middle" text-anchor="start" font-size="13.5">8.12 (in 2014)</text></g><g class="bar"><text x="100.423" y="426.962222222222" fill="#666" dominant-baseline="middle" text-anchor="end" font-size="13.5">Chile</text><rect x="105.4" y="420.3962962962961" width="154.99999999999997" height="13.131851851851852" fill="#2E5778" opacity="0.85"></rect><text x="265.4" y="426.962222222222" fill="#666" dominant-baseline="middle" text-anchor="start" font-size="13.5">7.9 (in 2012)</text></g><g class="bar"><text x="100.423" y="443.3770370370368" fill="#666" dominant-baseline="middle" text-anchor="end" font-size="13.5">Kazakhstan</text><rect x="105.4" y="436.8111111111109" width="131.4" height="13.131851851851852" fill="#2E5778" opacity="0.85"></rect><text x="241.8" y="443.3770370370368" fill="#666" dominant-baseline="middle" text-anchor="start" font-size="13.5">6.7 (in 2006)</text></g><g class="bar"><text x="100.423" y="459.7918518518516" fill="#666" dominant-baseline="middle" text-anchor="end" font-size="13.5">Haiti</text><rect x="105.4" y="453.2259259259257" width="115.69999999999999" height="13.131851851851852" fill="#2E5778" opacity="0.85"></rect><text x="226.1" y="459.7918518518516" fill="#666" dominant-baseline="middle" text-anchor="start" font-size="13.5">5.9 (in 2012)</text></g><g class="bar"><text x="100.423" y="476.2066666666664" fill="#666" dominant-baseline="middle" text-anchor="end" font-size="13.5">Swaziland</text><rect x="105.4" y="469.6407407407405" width="80.4" height="13.131851851851852" fill="#2E5778" opacity="0.85"></rect><text x="190.8" y="476.2066666666664" fill="#666" dominant-baseline="middle" text-anchor="start" font-size="13.5">4.1 (in 2010)</text></g><g class="bar"><text x="100.423" y="492.6214814814812" fill="#666" dominant-baseline="middle" text-anchor="end" font-size="13.5">Tunisia</text><rect x="105.4" y="486.0555555555553" width="68.69999999999999" height="13.131851851851852" fill="#2E5778" opacity="0.85"></rect><text x="179.1" y="492.6214814814812" fill="#666" dominant-baseline="middle" text-anchor="start" font-size="13.5">3.5 (in 2012)</text></g><g class="bar"><text x="100.423" y="509.03629629629603" fill="#666" dominant-baseline="middle" text-anchor="end" font-size="13.5">Ukraine</text><rect x="105.4" y="502.4703703703701" width="58.900000000000006" height="13.131851851851852" fill="#2E5778" opacity="0.85"></rect><text x="169.3" y="509.03629629629603" fill="#666" dominant-baseline="middle" text-anchor="start" font-size="13.5">3 (in 2012)</text></g><g class="bar"><text x="100.423" y="525.4511111111109" fill="#666" dominant-baseline="middle" text-anchor="end" font-size="13.5">Jamaica</text><rect x="105.4" y="518.8851851851849" width="37.29999999999998" height="13.131851851851852" fill="#2E5778" opacity="0.85"></rect><text x="147.7" y="525.4511111111109" fill="#666" dominant-baseline="middle" text-anchor="start" font-size="13.5">1.9 (in 2011)</text></g></g><g class="SourcesFooter" style="fill:#777"><g class="clickable" style="fill:#777"><text font-size="12.60" x="15.0" y="581.6"><tspan x="15" y="581.58">Source: World Bank</tspan></text></g><text font-size="12.60" x="583.8" y="581.6"><tspan x="583.756" y="581.58"><a target='_blank' style='fill: #777;' href='https://ourworldindata.org/child-labor/'>OurWorldInData.org/child-labor/</a> • <a style="fill: #777;" class="cclogo" href="http://creativecommons.org/licenses/by-sa/4.0/deed.en_US" target="_blank">CC BY-SA</a></tspan></text></g></g></svg>