<svg xmlns="http://www.w3.org/2000/svg" version="1.1" style="font-family: 'Helvetica Neue', Helvetica, Arial, sans-serif; font-size: 18px; background-color: white; text-rendering: optimizeLegibility; -webkit-font-smoothing: antialiased;" width="850" height="600"><g class="ChartTab"><g class="HeaderView"><g opacity="0.8" transform="translate(778, 15) scale(0.27)"><a xmlns:xlink="http://www.w3.org/1999/xlink" xlink:href="https://ourworldindata.org" target="_blank"><g><rect x="0" y="0" fill="#1B2543" width="211.2" height="130.1"/><rect x="0" y="112.2" fill="#E63912" width="211.2" height="17.9"/><g><rect x="1.2" y="12.3" fill="none" width="210.2" height="99.2"/><path fill="#FFFFFF" d="M37.8,32.2c0,12.7-7.7,19.4-17.1,19.4c-9.7,0-16.6-7.5-16.6-18.7c0-11.7,7.3-19.3,17.1-19.3 C31.3,13.7,37.8,21.3,37.8,32.2z M9.2,32.8c0,7.9,4.3,14.9,11.8,14.9c7.5,0,11.8-6.9,11.8-15.3c0-7.3-3.8-14.9-11.8-14.9 C13.1,17.5,9.2,24.8,9.2,32.8z"/><path fill="#FFFFFF" d="M62.7,43.8c0,2.7,0.1,5.1,0.2,7.2h-4.3l-0.3-4.3h-0.1c-1.3,2.1-4,4.9-8.8,4.9c-4.2,0-9.1-2.3-9.1-11.6 V24.6h4.8v14.6c0,5,1.5,8.4,5.9,8.4c3.2,0,5.5-2.2,6.3-4.4c0.3-0.7,0.4-1.6,0.4-2.5V24.6h4.8V43.8z"/><path fill="#FFFFFF" d="M67.3,32.8c0-3.1-0.1-5.8-0.2-8.2h4.2l0.2,5.2h0.2c1.2-3.5,4.1-5.8,7.3-5.8c0.5,0,0.9,0.1,1.4,0.2v4.5 c-0.5-0.1-1-0.2-1.6-0.2c-3.4,0-5.8,2.6-6.5,6.2c-0.1,0.7-0.2,1.4-0.2,2.2V51h-4.8V32.8z"/><path fill="#FFFFFF" d="M95.4,51l-9.4-36.8h5l4.4,18.6c1.1,4.6,2.1,9.2,2.7,12.7h0.1c0.6-3.7,1.8-8,3-12.8l4.9-18.5h5l4.5,18.7 c1,4.4,2,8.7,2.6,12.6h0.1c0.8-4,1.8-8.1,3-12.7l4.9-18.5h4.9L120.6,51h-5L111,31.9c-1.1-4.7-1.9-8.3-2.4-12h-0.1 c-0.7,3.7-1.5,7.3-2.8,12L100.4,51H95.4z"/><path fill="#FFFFFF" d="M154.9,37.6c0,9.8-6.8,14-13.2,14c-7.2,0-12.7-5.2-12.7-13.6c0-8.8,5.8-14,13.1-14 C149.8,24,154.9,29.5,154.9,37.6z M133.9,37.9c0,5.8,3.3,10.1,8,10.1c4.6,0,8-4.3,8-10.3c0-4.5-2.2-10.1-7.9-10.1 C136.3,27.6,133.9,32.8,133.9,37.9z"/><path fill="#FFFFFF" d="M158.2,32.8c0-3.1-0.1-5.8-0.2-8.2h4.2l0.2,5.2h0.2c1.2-3.5,4.1-5.8,7.3-5.8c0.5,0,0.9,0.1,1.4,0.2v4.5 c-0.5-0.1-1-0.2-1.6-0.2c-3.4,0-5.8,2.6-6.5,6.2c-0.1,0.7-0.2,1.4-0.2,2.2V51h-4.8V32.8z"/><path fill="#FFFFFF" d="M173.5,12.3h4.8V51h-4.8V12.3z"/><path fill="#FFFFFF" d="M206.5,12.3v31.9c0,2.3,0.1,5,0.2,6.8h-4.3l-0.2-4.6H202c-1.5,2.9-4.7,5.2-9,5.2 c-6.4,0-11.3-5.4-11.3-13.4c-0.1-8.8,5.4-14.2,11.9-14.2c4,0,6.8,1.9,8,4h0.1V12.3H206.5z M201.7,35.4c0-0.6-0.1-1.4-0.2-2 c-0.7-3.1-3.3-5.6-6.9-5.6c-5,0-7.9,4.4-7.9,10.2c0,5.3,2.6,9.8,7.8,9.8c3.2,0,6.2-2.1,7.1-5.7c0.2-0.7,0.2-1.3,0.2-2.1V35.4z"/><path fill="#FFFFFF" d="M42.8,64c0.1,1.6-1.1,2.9-3.1,2.9c-1.7,0-2.9-1.3-2.9-2.9c0-1.7,1.3-3,3-3C41.7,61,42.8,62.3,42.8,64z M37.4,97.8V71.4h4.8v26.4H37.4z"/><path fill="#FFFFFF" d="M47.5,78.6c0-2.7-0.1-5-0.2-7.1h4.3l0.3,4.4h0.1c1.3-2.5,4.4-5,8.8-5c3.7,0,9.4,2.2,9.4,11.2v15.8h-4.8 V82.6c0-4.3-1.6-7.8-6.1-7.8c-3.2,0-5.6,2.2-6.5,4.9c-0.2,0.6-0.3,1.4-0.3,2.2v15.9h-4.8V78.6z"/><path fill="#FFFFFF" d="M84,61.6c2.9-0.4,6.3-0.8,10.1-0.8c6.8,0,11.7,1.6,14.9,4.6c3.3,3,5.2,7.3,5.2,13.2c0,6-1.9,10.9-5.3,14.3 c-3.4,3.4-9.1,5.3-16.3,5.3c-3.4,0-6.2-0.2-8.6-0.4V61.6z M88.8,94.1c1.2,0.2,3,0.3,4.8,0.3c10.2,0,15.7-5.7,15.7-15.6 c0.1-8.7-4.9-14.2-14.9-14.2c-2.5,0-4.3,0.2-5.6,0.5V94.1z"/><path fill="#FFFFFF" d="M132.1,97.8l-0.4-3.3h-0.2c-1.5,2.1-4.3,3.9-8.1,3.9c-5.4,0-8.1-3.8-8.1-7.6c0-6.4,5.7-9.9,15.9-9.8v-0.5 c0-2.2-0.6-6.1-6-6.1c-2.5,0-5,0.8-6.9,2l-1.1-3.2c2.2-1.4,5.4-2.3,8.7-2.3c8.1,0,10.1,5.5,10.1,10.8v9.9c0,2.3,0.1,4.5,0.4,6.3 H132.1z M131.4,84.4c-5.3-0.1-11.2,0.8-11.2,5.9c0,3.1,2.1,4.6,4.5,4.6c3.4,0,5.6-2.2,6.4-4.4c0.2-0.5,0.3-1,0.3-1.5V84.4z"/><path fill="#FFFFFF" d="M146.6,63.9v7.6h6.9v3.7h-6.9v14.2c0,3.3,0.9,5.1,3.6,5.1c1.3,0,2.2-0.2,2.8-0.3l0.2,3.6 c-0.9,0.4-2.4,0.7-4.3,0.7c-2.2,0-4-0.7-5.2-2c-1.4-1.4-1.9-3.8-1.9-6.9V75.1h-4.1v-3.7h4.1v-6.3L146.6,63.9z"/><path fill="#FFFFFF" d="M171.4,97.8l-0.4-3.3h-0.2c-1.5,2.1-4.3,3.9-8.1,3.9c-5.4,0-8.1-3.8-8.1-7.6c0-6.4,5.7-9.9,15.9-9.8v-0.5 c0-2.2-0.6-6.1-6-6.1c-2.5,0-5,0.8-6.9,2l-1.1-3.2c2.2-1.4,5.4-2.3,8.7-2.3c8.1,0,10.1,5.5,10.1,10.8v9.9c0,2.3,0.1,4.5,0.4,6.3 H171.4z M170.7,84.4c-5.3-0.1-11.2,0.8-11.2,5.9c0,3.1,2.1,4.6,4.5,4.6c3.4,0,5.6-2.2,6.4-4.4c0.2-0.5,0.3-1,0.3-1.5V84.4z"/></g></g></a></g><a href="https://ourworldindata.org/grapher/cancer-deaths-by-type-grouped" target="_blank"><text font-size="25.20" x="15.0" y="35.2" fill="#555"><tspan x="15" y="35.160000000000004">Cancer deaths by type, World</tspan></text></a><text font-size="14.40" x="15.0" y="53.7" fill="#666"><tspan x="15" y="53.72">Annual cancer deaths by cancer type, measured as the total number of deaths across all age categories and both</tspan><tspan x="15" y="69.56">sexes. Smaller categories of cancer types with global deaths &lt;100,000 in 2016 have been grouped into a collective</tspan><tspan x="15" y="85.4">category 'Other cancers'. See sources for list of grouped cancers.</tspan></text></g><g class="StackedArea"><defs><clipPath id="boundsClip-6"><rect x="79.45400000000001" y="0" width="820" height="897.8"></rect></clipPath></defs><g class="AxisBoxView"><g class="HorizontalAxis"><text x="79.5" y="556.5" fill="#666" text-anchor="middle" font-size="16.2">1990</text><text x="196.2" y="556.5" fill="#666" text-anchor="middle" font-size="16.2">1995</text><text x="312.9" y="556.5" fill="#666" text-anchor="middle" font-size="16.2">2000</text><text x="429.6" y="556.5" fill="#666" text-anchor="middle" font-size="16.2">2005</text><text x="546.3" y="556.5" fill="#666" text-anchor="middle" font-size="16.2">2010</text><text x="686.3" y="556.5" fill="#666" text-anchor="middle" font-size="16.2">2016</text></g><g class="VerticalAxis"><text x="74.45" y="535.3" fill="#666" dominant-baseline="middle" text-anchor="end" font-size="16.2">0</text><text x="74.45" y="438.8" fill="#666" dominant-baseline="middle" text-anchor="end" font-size="16.2">2 million</text><text x="74.45" y="342.4" fill="#666" dominant-baseline="middle" text-anchor="end" font-size="16.2">4 million</text><text x="74.45" y="245.9" fill="#666" dominant-baseline="middle" text-anchor="end" font-size="16.2">6 million</text><text x="74.45" y="149.4" fill="#666" dominant-baseline="middle" text-anchor="end" font-size="16.2">8 million</text></g><g class="AxisGridLines"><line x1="79.45" y1="535.3" x2="686.33" y2="535.3" stroke="#ccc"></line><line x1="79.45" y1="438.8" x2="686.33" y2="438.8" stroke="#ddd" stroke-dasharray="3,2"></line><line x1="79.45" y1="342.4" x2="686.33" y2="342.4" stroke="#ddd" stroke-dasharray="3,2"></line><line x1="79.45" y1="245.9" x2="686.33" y2="245.9" stroke="#ddd" stroke-dasharray="3,2"></line><line x1="79.45" y1="149.4" x2="686.33" y2="149.4" stroke="#ddd" stroke-dasharray="3,2"></line></g></g><g clip-path="url(#boundsClip-6)"><g class="HeightedLegend clickable"><g class="legendMark"><rect x="686.3299999999999" y="152.15" width="120.05000000000001" height="13.5" fill="#fff" opacity="0"></rect><text font-size="13.50" x="691.3" y="163.0" fill="#ccc"><tspan x="691.3299999999999" y="162.95000000000002">Larynx cancer</tspan></text></g><g class="legendMark"><rect x="686.3299999999999" y="150.35" width="120.86" height="28.1" fill="#fff" opacity="0"></rect><text font-size="13.50" x="691.3" y="161.2" fill="#ccc"><tspan x="691.3299999999999" y="161.15">Other pharynx</tspan><tspan x="691.3299999999999" y="176">cancer</tspan></text></g><g class="legendMark"><rect x="686.3299999999999" y="170.85" width="126.80000000000001" height="13.5" fill="#fff" opacity="0"></rect><text font-size="13.50" x="691.3" y="181.7" fill="#ccc"><tspan x="691.3299999999999" y="181.65">Ovarian cancer</tspan></text></g><g class="legendMark"><rect x="686.3299999999999" y="171.85" width="144.215" height="28.1" fill="#fff" opacity="0"></rect><text font-size="13.50" x="691.3" y="182.7" fill="#ccc"><tspan x="691.3299999999999" y="182.65">Lip and oral cavity</tspan><tspan x="691.3299999999999" y="197.5">cancer</tspan></text></g><g class="legendMark"><rect x="686.3299999999999" y="190.54999999999998" width="145.025" height="28.1" fill="#fff" opacity="0"></rect><text font-size="13.50" x="691.3" y="201.3" fill="#ccc"><tspan x="691.3299999999999" y="201.35">Brain and nervous</tspan><tspan x="691.3299999999999" y="216.2">system cancer</tspan></text></g><g class="legendMark"><rect x="686.3299999999999" y="220.85" width="128.15" height="13.5" fill="#fff" opacity="0"></rect><text font-size="13.50" x="691.3" y="231.7" fill="#ccc"><tspan x="691.3299999999999" y="231.65">Cervical cancer</tspan></text></g><g class="legendMark"><rect x="686.3299999999999" y="282.34999999999997" width="106.685" height="28.1" fill="#fff" opacity="0"></rect><text font-size="13.50" x="691.3" y="293.1" fill="#ccc"><tspan x="691.3299999999999" y="293.15">Esophageal</tspan><tspan x="691.3299999999999" y="308">cancer</tspan></text></g><g class="legendMark"><rect x="686.3299999999999" y="122.75" width="120.05000000000001" height="13.5" fill="#fff" opacity="0"></rect><text font-size="13.50" x="691.3" y="133.6" fill="#34983f"><tspan x="691.3299999999999" y="133.55">Other cancers</tspan></text></g><g class="legendMark"><rect x="686.3299999999999" y="147.05" width="148.67000000000002" height="13.5" fill="#fff" opacity="0"></rect><text font-size="13.50" x="691.3" y="157.9" fill="rgb(79, 165, 82)"><tspan x="691.3299999999999" y="157.85000000000002">Gallbladder cancer</tspan></text></g><g class="legendMark"><rect x="686.3299999999999" y="163.75" width="120.86" height="13.5" fill="#fff" opacity="0"></rect><text font-size="13.50" x="691.3" y="174.6" fill="#9ecc8a"><tspan x="691.3299999999999" y="174.55">Kidney cancer</tspan></text></g><g class="legendMark"><rect x="686.3299999999999" y="187.85" width="126.125" height="13.5" fill="#fff" opacity="0"></rect><text font-size="13.50" x="691.3" y="198.7" fill="rgb(231, 211, 81)"><tspan x="691.3299999999999" y="198.65">Bladder cancer</tspan></text></g><g class="legendMark"><rect x="686.3299999999999" y="201.75" width="113.97500000000001" height="28.1" fill="#fff" opacity="0"></rect><text font-size="13.50" x="691.3" y="212.6" fill="rgb(242, 170, 57)"><tspan x="691.3299999999999" y="212.55">Non-Hodgkin</tspan><tspan x="691.3299999999999" y="227.4">lymphoma</tspan></text></g><g class="legendMark"><rect x="686.3299999999999" y="234.25" width="93.725" height="13.5" fill="#fff" opacity="0"></rect><text font-size="13.50" x="691.3" y="245.1" fill="rgb(216, 82, 46)"><tspan x="691.3299999999999" y="245.05">Leukemia</tspan></text></g><g class="legendMark"><rect x="686.3299999999999" y="250.95" width="129.905" height="13.5" fill="#fff" opacity="0"></rect><text font-size="13.50" x="691.3" y="261.8" fill="#ca2628"><tspan x="691.3299999999999" y="261.75">Prostate cancer</tspan></text></g><g class="legendMark"><rect x="686.3299999999999" y="269.85" width="143.405" height="13.5" fill="#fff" opacity="0"></rect><text font-size="13.50" x="691.3" y="280.7" fill="rgb(209, 42, 42)"><tspan x="691.3299999999999" y="280.65000000000003">Pancreatic cancer</tspan></text></g><g class="legendMark"><rect x="686.3299999999999" y="312.85" width="118.56500000000001" height="13.5" fill="#fff" opacity="0"></rect><text font-size="13.50" x="691.3" y="323.7" fill="#e6332e"><tspan x="691.3299999999999" y="323.65000000000003">Breast cancer</tspan></text></g><g class="legendMark"><rect x="686.3299999999999" y="345.95" width="108.71000000000001" height="13.5" fill="#fff" opacity="0"></rect><text font-size="13.50" x="691.3" y="356.8" fill="rgb(136, 99, 101)"><tspan x="691.3299999999999" y="356.75">Liver cancer</tspan></text></g><g class="legendMark"><rect x="686.3299999999999" y="378.65" width="141.92000000000002" height="28.1" fill="#fff" opacity="0"></rect><text font-size="13.50" x="691.3" y="389.4" fill="#2a939b"><tspan x="691.3299999999999" y="389.45">Colon and rectum</tspan><tspan x="691.3299999999999" y="404.3">cancer</tspan></text></g><g class="legendMark"><rect x="686.3299999999999" y="426.15" width="132.875" height="13.5" fill="#fff" opacity="0"></rect><text font-size="13.50" x="691.3" y="436.9" fill="rgb(47, 122, 162)"><tspan x="691.3299999999999" y="436.95">Stomach cancer</tspan></text></g><g class="legendMark"><rect x="686.3299999999999" y="472.75" width="120.995" height="42.7" fill="#fff" opacity="0"></rect><text font-size="13.50" x="691.3" y="483.6" fill="#3360a9"><tspan x="691.3299999999999" y="483.55">Tracheal,</tspan><tspan x="691.3299999999999" y="498.40000000000003">bronchus, and</tspan><tspan x="691.3299999999999" y="513.25">lung cancer</tspan></text></g></g><g class="Areas"><rect x="79.45400000000001" y="107.60000000000001" width="606.876" height="427.69999999999993" opacity="0" fill="rgba(255,255,255,0)"></rect><path stroke-linecap="round" d="M79.5 485.5L102.8 484.6L126.1 483.2L149.5 481.5L172.8 479.9L196.2 478.9L219.5 478.4L242.8 477.7L266.2 476.7L289.5 475.2L312.9 473.6L336.2 472.3L359.6 470.6L382.9 469.5L406.2 468.1L429.6 466.2L452.9 465.7L476.3 464.7L499.6 463.4L522.9 462L546.3 460.5L569.6 459.6L593 458.5L616.3 457.2L639.6 455.7L663 454.3L686.3 453L686.3299999999999 535.3L79.45400000000001 535.3" fill="#3360a9" fill-opacity="0.7" class="World_19-area"></path><path stroke-linecap="round" d="M79.5 447.8L102.8 446.8L126.1 445L149.5 442.4L172.8 440.5L196.2 439.6L219.5 439.4L242.8 438.8L266.2 437.6L289.5 435.4L312.9 433.3L336.2 431.5L359.6 429.3L382.9 428.5L406.2 427.3L429.6 425.5L452.9 425.9L476.3 425.2L499.6 424.1L522.9 422.7L546.3 421.1L569.6 420.6L593 419.4L616.3 418L639.6 416L663 414.4L686.3 412.7L686.3 453L663 454.3L639.6 455.7L616.3 457.2L593 458.5L569.6 459.6L546.3 460.5L522.9 462L499.6 463.4L476.3 464.7L452.9 465.7L429.6 466.2L406.2 468.1L382.9 469.5L359.6 470.6L336.2 472.3L312.9 473.6L289.5 475.2L266.2 476.7L242.8 477.7L219.5 478.4L196.2 478.9L172.8 479.9L149.5 481.5L126.1 483.2L102.8 484.6L79.5 485.5" fill="rgb(47, 122, 162)" fill-opacity="0.7" class="World_18-area"></path><path stroke-linecap="round" d="M79.5 423.9L102.8 422.3L126.1 419.8L149.5 416.4L172.8 413.8L196.2 412.4L219.5 411.9L242.8 410.9L266.2 409.3L289.5 406.4L312.9 403.7L336.2 401.2L359.6 398.3L382.9 396.9L406.2 395.3L429.6 392.9L452.9 392.9L476.3 391.6L499.6 389.8L522.9 387.9L546.3 385.6L569.6 384.5L593 382.6L616.3 380.4L639.6 377.7L663 375.3L686.3 372.7L686.3 412.7L663 414.4L639.6 416L616.3 418L593 419.4L569.6 420.6L546.3 421.1L522.9 422.7L499.6 424.1L476.3 425.2L452.9 425.9L429.6 425.5L406.2 427.3L382.9 428.5L359.6 429.3L336.2 431.5L312.9 433.3L289.5 435.4L266.2 437.6L242.8 438.8L219.5 439.4L196.2 439.6L172.8 440.5L149.5 442.4L126.1 445L102.8 446.8L79.5 447.8" fill="#2a939b" fill-opacity="0.7" class="World_4-area"></path><path stroke-linecap="round" d="M79.5 401.5L102.8 399.2L126.1 395.8L149.5 391.4L172.8 387.8L196.2 385.6L219.5 384.1L242.8 382.3L266.2 379.8L289.5 376.3L312.9 372.9L336.2 369.9L359.6 366.5L382.9 365L406.2 363L429.6 360.1L452.9 359.8L476.3 358.2L499.6 355.9L522.9 353.5L546.3 350.7L569.6 349.2L593 346.7L616.3 343.7L639.6 339.9L663 336.4L686.3 332.7L686.3 372.7L663 375.3L639.6 377.7L616.3 380.4L593 382.6L569.6 384.5L546.3 385.6L522.9 387.9L499.6 389.8L476.3 391.6L452.9 392.9L429.6 392.9L406.2 395.3L382.9 396.9L359.6 398.3L336.2 401.2L312.9 403.7L289.5 406.4L266.2 409.3L242.8 410.9L219.5 411.9L196.2 412.4L172.8 413.8L149.5 416.4L126.1 419.8L102.8 422.3L79.5 423.9" fill="rgb(136, 99, 101)" fill-opacity="0.7" class="World_11-area"></path><path stroke-linecap="round" d="M79.5 385L102.8 382.3L126.1 378.4L149.5 373.5L172.8 369.3L196.2 366.7L219.5 365L242.8 362.9L266.2 360.1L289.5 356.1L312.9 352.3L336.2 348.9L359.6 345.2L382.9 343.2L406.2 341.1L429.6 337.8L452.9 337.3L476.3 335.4L499.6 332.7L522.9 330.1L546.3 326.9L569.6 325.1L593 322.2L616.3 318.8L639.6 314.5L663 310.5L686.3 306.4L686.3 332.7L663 336.4L639.6 339.9L616.3 343.7L593 346.7L569.6 349.2L546.3 350.7L522.9 353.5L499.6 355.9L476.3 358.2L452.9 359.8L429.6 360.1L406.2 363L382.9 365L359.6 366.5L336.2 369.9L312.9 372.9L289.5 376.3L266.2 379.8L242.8 382.3L219.5 384.1L196.2 385.6L172.8 387.8L149.5 391.4L126.1 395.8L102.8 399.2L79.5 401.5" fill="#e6332e" fill-opacity="0.7" class="World_2-area"></path><path stroke-linecap="round" d="M79.5 369.4L102.8 366.4L126.1 362L149.5 356.6L172.8 352L196.2 349.1L219.5 347.2L242.8 344.9L266.2 341.7L289.5 337.4L312.9 333.2L336.2 329.4L359.6 325.4L382.9 323.6L406.2 321.4L429.6 318.2L452.9 318L476.3 316.3L499.6 313.8L522.9 311.1L546.3 308L569.6 306.3L593 303.4L616.3 299.8L639.6 295.1L663 290.9L686.3 286.4L686.3 306.4L663 310.5L639.6 314.5L616.3 318.8L593 322.2L569.6 325.1L546.3 326.9L522.9 330.1L499.6 332.7L476.3 335.4L452.9 337.3L429.6 337.8L406.2 341.1L382.9 343.2L359.6 345.2L336.2 348.9L312.9 352.3L289.5 356.1L266.2 360.1L242.8 362.9L219.5 365L196.2 366.7L172.8 369.3L149.5 373.5L126.1 378.4L102.8 382.3L79.5 385" fill="rgb(216, 45, 43)" fill-opacity="0.7" class="World_5-area"></path><path stroke-linecap="round" d="M79.5 359.4L102.8 356.1L126.1 351.5L149.5 345.8L172.8 340.9L196.2 337.8L219.5 335.7L242.8 333.1L266.2 329.7L289.5 325L312.9 320.4L336.2 316.3L359.6 312L382.9 309.8L406.2 307.2L429.6 303.6L452.9 303L476.3 300.9L499.6 297.9L522.9 294.8L546.3 291.2L569.6 289.1L593 285.7L616.3 281.6L639.6 276.5L663 271.8L686.3 266.9L686.3 286.4L663 290.9L639.6 295.1L616.3 299.8L593 303.4L569.6 306.3L546.3 308L522.9 311.1L499.6 313.8L476.3 316.3L452.9 318L429.6 318.2L406.2 321.4L382.9 323.6L359.6 325.4L336.2 329.4L312.9 333.2L289.5 337.4L266.2 341.7L242.8 344.9L219.5 347.2L196.2 349.1L172.8 352L149.5 356.6L126.1 362L102.8 366.4L79.5 369.4" fill="rgb(209, 42, 42)" fill-opacity="0.7" class="World_16-area"></path><path stroke-linecap="round" d="M79.5 350.2L102.8 346.6L126.1 341.6L149.5 335.5L172.8 330.3L196.2 326.9L219.5 324.5L242.8 321.7L266.2 318L289.5 313L312.9 308.2L336.2 303.8L359.6 299.1L382.9 296.6L406.2 293.8L429.6 289.8L452.9 289L476.3 286.5L499.6 283.2L522.9 279.8L546.3 275.8L569.6 273.3L593 269.5L616.3 265L639.6 259.4L663 254.1L686.3 248.5L686.3 266.9L663 271.8L639.6 276.5L616.3 281.6L593 285.7L569.6 289.1L546.3 291.2L522.9 294.8L499.6 297.9L476.3 300.9L452.9 303L429.6 303.6L406.2 307.2L382.9 309.8L359.6 312L336.2 316.3L312.9 320.4L289.5 325L266.2 329.7L242.8 333.1L219.5 335.7L196.2 337.8L172.8 340.9L149.5 345.8L126.1 351.5L102.8 356.1L79.5 359.4" fill="#ca2628" fill-opacity="0.7" class="World_17-area"></path><path stroke-linecap="round" d="M79.5 338.5L102.8 334.8L126.1 329.6L149.5 323.3L172.8 317.9L196.2 314.3L219.5 311.7L242.8 308.8L266.2 305L289.5 299.8L312.9 294.8L336.2 290.3L359.6 285.6L382.9 283L406.2 280.1L429.6 276.1L452.9 275.2L476.3 272.7L499.6 269.3L522.9 265.8L546.3 261.7L569.6 259.1L593 255.2L616.3 250.6L639.6 244.8L663 239.3L686.3 233.5L686.3 248.5L663 254.1L639.6 259.4L616.3 265L593 269.5L569.6 273.3L546.3 275.8L522.9 279.8L499.6 283.2L476.3 286.5L452.9 289L429.6 289.8L406.2 293.8L382.9 296.6L359.6 299.1L336.2 303.8L312.9 308.2L289.5 313L266.2 318L242.8 321.7L219.5 324.5L196.2 326.9L172.8 330.3L149.5 335.5L126.1 341.6L102.8 346.6L79.5 350.2" fill="rgb(216, 82, 46)" fill-opacity="0.7" class="World_9-area"></path><path stroke-linecap="round" d="M79.5 329.1L102.8 325.3L126.1 320L149.5 313.5L172.8 307.9L196.2 304.2L219.5 301.5L242.8 298.5L266.2 294.6L289.5 289.3L312.9 284.2L336.2 279.6L359.6 274.7L382.9 272L406.2 269.1L429.6 265L452.9 264.1L476.3 261.6L499.6 258.1L522.9 254.5L546.3 250.4L569.6 247.7L593 243.8L616.3 239L639.6 233.1L663 227.5L686.3 221.6L686.3 233.5L663 239.3L639.6 244.8L616.3 250.6L593 255.2L569.6 259.1L546.3 261.7L522.9 265.8L499.6 269.3L476.3 272.7L452.9 275.2L429.6 276.1L406.2 280.1L382.9 283L359.6 285.6L336.2 290.3L312.9 294.8L289.5 299.8L266.2 305L242.8 308.8L219.5 311.7L196.2 314.3L172.8 317.9L149.5 323.3L126.1 329.6L102.8 334.8L79.5 338.5" fill="rgb(229, 126, 51)" fill-opacity="0.7" class="World_3-area"></path><path stroke-linecap="round" d="M79.5 322.9L102.8 318.9L126.1 313.4L149.5 306.7L172.8 300.8L196.2 296.9L219.5 294.1L242.8 290.9L266.2 286.8L289.5 281.3L312.9 276L336.2 271.3L359.6 266.2L382.9 263.4L406.2 260.4L429.6 256.1L452.9 255L476.3 252.3L499.6 248.6L522.9 244.8L546.3 240.5L569.6 237.5L593 233.3L616.3 228.3L639.6 222.1L663 216.2L686.3 210.1L686.3 221.6L663 227.5L639.6 233.1L616.3 239L593 243.8L569.6 247.7L546.3 250.4L522.9 254.5L499.6 258.1L476.3 261.6L452.9 264.1L429.6 265L406.2 269.1L382.9 272L359.6 274.7L336.2 279.6L312.9 284.2L289.5 289.3L266.2 294.6L242.8 298.5L219.5 301.5L196.2 304.2L172.8 307.9L149.5 313.5L126.1 320L102.8 325.3L79.5 329.1" fill="rgb(242, 170, 57)" fill-opacity="0.7" class="World_12-area"></path><path stroke-linecap="round" d="M79.5 316.2L102.8 312L126.1 306.4L149.5 299.4L172.8 293.4L196.2 289.2L219.5 286.2L242.8 282.8L266.2 278.6L289.5 273L312.9 267.6L336.2 262.7L359.6 257.6L382.9 254.7L406.2 251.6L429.6 247.2L452.9 246L476.3 243.2L499.6 239.3L522.9 235.3L546.3 230.8L569.6 227.7L593 223.3L616.3 218L639.6 211.6L663 205.5L686.3 199.1L686.3 210.1L663 216.2L639.6 222.1L616.3 228.3L593 233.3L569.6 237.5L546.3 240.5L522.9 244.8L499.6 248.6L476.3 252.3L452.9 255L429.6 256.1L406.2 260.4L382.9 263.4L359.6 266.2L336.2 271.3L312.9 276L289.5 281.3L266.2 286.8L242.8 290.9L219.5 294.1L196.2 296.9L172.8 300.8L149.5 306.7L126.1 313.4L102.8 318.9L79.5 322.9" fill="#ffd53e" fill-opacity="0.7" class="World_1-area"></path><path stroke-linecap="round" d="M79.5 310.7L102.8 306.5L126.1 300.6L149.5 293.5L172.8 287.3L196.2 283L219.5 279.9L242.8 276.5L266.2 272.1L289.5 266.4L312.9 260.9L336.2 256L359.6 250.7L382.9 247.8L406.2 244.6L429.6 240L452.9 238.7L476.3 235.8L499.6 231.8L522.9 227.7L546.3 223L569.6 219.7L593 215.1L616.3 209.7L639.6 203L663 196.7L686.3 190.1L686.3 199.1L663 205.5L639.6 211.6L616.3 218L593 223.3L569.6 227.7L546.3 230.8L522.9 235.3L499.6 239.3L476.3 243.2L452.9 246L429.6 247.2L406.2 251.6L382.9 254.7L359.6 257.6L336.2 262.7L312.9 267.6L289.5 273L266.2 278.6L242.8 282.8L219.5 286.2L196.2 289.2L172.8 293.4L149.5 299.4L126.1 306.4L102.8 312L79.5 316.2" fill="rgb(231, 211, 81)" fill-opacity="0.7" class="World_0-area"></path><path stroke-linecap="round" d="M79.5 306.2L102.8 301.9L126.1 295.9L149.5 288.6L172.8 282.3L196.2 277.9L219.5 274.7L242.8 271.2L266.2 266.7L289.5 260.9L312.9 255.3L336.2 250.2L359.6 244.8L382.9 241.7L406.2 238.4L429.6 233.6L452.9 232.2L476.3 229.1L499.6 225L522.9 220.6L546.3 215.7L569.6 212.3L593 207.5L616.3 201.9L639.6 195L663 188.4L686.3 181.6L686.3 190.1L663 196.7L639.6 203L616.3 209.7L593 215.1L569.6 219.7L546.3 223L522.9 227.7L499.6 231.8L476.3 235.8L452.9 238.7L429.6 240L406.2 244.6L382.9 247.8L359.6 250.7L336.2 256L312.9 260.9L289.5 266.4L266.2 272.1L242.8 276.5L219.5 279.9L196.2 283L172.8 287.3L149.5 293.5L126.1 300.6L102.8 306.5L79.5 310.7" fill="rgb(207, 209, 100)" fill-opacity="0.7" class="World_10-area"></path><path stroke-linecap="round" d="M79.5 301.4L102.8 296.9L126.1 290.9L149.5 283.5L172.8 277L196.2 272.5L219.5 269.3L242.8 265.6L266.2 261.1L289.5 255.1L312.9 249.4L336.2 244.2L359.6 238.7L382.9 235.5L406.2 232.1L429.6 227.2L452.9 225.7L476.3 222.5L499.6 218.2L522.9 213.8L546.3 208.7L569.6 205.2L593 200.2L616.3 194.4L639.6 187.4L663 180.6L686.3 173.7L686.3 181.6L663 188.4L639.6 195L616.3 201.9L593 207.5L569.6 212.3L546.3 215.7L522.9 220.6L499.6 225L476.3 229.1L452.9 232.2L429.6 233.6L406.2 238.4L382.9 241.7L359.6 244.8L336.2 250.2L312.9 255.3L289.5 260.9L266.2 266.7L242.8 271.2L219.5 274.7L196.2 277.9L172.8 282.3L149.5 288.6L126.1 295.9L102.8 301.9L79.5 306.2" fill="rgb(183, 207, 119)" fill-opacity="0.7" class="World_15-area"></path><path stroke-linecap="round" d="M79.5 298.2L102.8 293.6L126.1 287.4L149.5 279.9L172.8 273.4L196.2 268.8L219.5 265.4L242.8 261.7L266.2 257.1L289.5 251L312.9 245.1L336.2 239.8L359.6 234.2L382.9 230.9L406.2 227.3L429.6 222.3L452.9 220.7L476.3 217.4L499.6 213L522.9 208.4L546.3 203.2L569.6 199.5L593 194.4L616.3 188.5L639.6 181.4L663 174.4L686.3 167.3L686.3 173.7L663 180.6L639.6 187.4L616.3 194.4L593 200.2L569.6 205.2L546.3 208.7L522.9 213.8L499.6 218.2L476.3 222.5L452.9 225.7L429.6 227.2L406.2 232.1L382.9 235.5L359.6 238.7L336.2 244.2L312.9 249.4L289.5 255.1L266.2 261.1L242.8 265.6L219.5 269.3L196.2 272.5L172.8 277L149.5 283.5L126.1 290.9L102.8 296.9L79.5 301.4" fill="#9ecc8a" fill-opacity="0.7" class="World_7-area"></path><path stroke-linecap="round" d="M79.5 295.1L102.8 290.5L126.1 284.2L149.5 276.6L172.8 270L196.2 265.4L219.5 262L242.8 258.2L266.2 253.5L289.5 247.3L312.9 241.3L336.2 235.9L359.6 230.2L382.9 226.8L406.2 223.2L429.6 218L452.9 216.4L476.3 212.9L499.6 208.3L522.9 203.7L546.3 198.4L569.6 194.6L593 189.4L616.3 183.3L639.6 176L663 168.9L686.3 161.6L686.3 167.3L663 174.4L639.6 181.4L616.3 188.5L593 194.4L569.6 199.5L546.3 203.2L522.9 208.4L499.6 213L476.3 217.4L452.9 220.7L429.6 222.3L406.2 227.3L382.9 230.9L359.6 234.2L336.2 239.8L312.9 245.1L289.5 251L266.2 257.1L242.8 261.7L219.5 265.4L196.2 268.8L172.8 273.4L149.5 279.9L126.1 287.4L102.8 293.6L79.5 298.2" fill="rgb(132, 191, 120)" fill-opacity="0.7" class="World_14-area"></path><path stroke-linecap="round" d="M79.5 291L102.8 286.2L126.1 279.8L149.5 272.1L172.8 265.4L196.2 260.7L219.5 257.4L242.8 253.6L266.2 248.8L289.5 242.6L312.9 236.6L336.2 231.2L359.6 225.5L382.9 222.1L406.2 218.5L429.6 213.3L452.9 211.6L476.3 208.1L499.6 203.5L522.9 198.9L546.3 193.5L569.6 189.6L593 184.4L616.3 178.3L639.6 170.8L663 163.6L686.3 156.2L686.3 161.6L663 168.9L639.6 176L616.3 183.3L593 189.4L569.6 194.6L546.3 198.4L522.9 203.7L499.6 208.3L476.3 212.9L452.9 216.4L429.6 218L406.2 223.2L382.9 226.8L359.6 230.2L336.2 235.9L312.9 241.3L289.5 247.3L266.2 253.5L242.8 258.2L219.5 262L196.2 265.4L172.8 270L149.5 276.6L126.1 284.2L102.8 290.5L79.5 295.1" fill="rgb(105, 178, 101)" fill-opacity="0.7" class="World_8-area"></path><path stroke-linecap="round" d="M79.5 287.6L102.8 282.9L126.1 276.5L149.5 268.7L172.8 262L196.2 257.3L219.5 253.9L242.8 250.1L266.2 245.3L289.5 239L312.9 232.9L336.2 227.5L359.6 221.7L382.9 218.3L406.2 214.6L429.6 209.3L452.9 207.6L476.3 204L499.6 199.4L522.9 194.6L546.3 189.2L569.6 185.2L593 179.9L616.3 173.7L639.6 166.1L663 158.8L686.3 151.3L686.3 156.2L663 163.6L639.6 170.8L616.3 178.3L593 184.4L569.6 189.6L546.3 193.5L522.9 198.9L499.6 203.5L476.3 208.1L452.9 211.6L429.6 213.3L406.2 218.5L382.9 222.1L359.6 225.5L336.2 231.2L312.9 236.6L289.5 242.6L266.2 248.8L242.8 253.6L219.5 257.4L196.2 260.7L172.8 265.4L149.5 272.1L126.1 279.8L102.8 286.2L79.5 291" fill="rgb(79, 165, 82)" fill-opacity="0.7" class="World_6-area"></path><path stroke-linecap="round" d="M79.5 262.2L102.8 257L126.1 250L149.5 241.6L172.8 234.2L196.2 229L219.5 225.2L242.8 220.9L266.2 215.5L289.5 208.3L312.9 201.5L336.2 195.5L359.6 189L382.9 184.9L406.2 180.6L429.6 174.5L452.9 172.3L476.3 168L499.6 162.4L522.9 156.8L546.3 150.4L569.6 145.8L593 139.6L616.3 132.4L639.6 124.1L663 116L686.3 107.6L686.3 151.3L663 158.8L639.6 166.1L616.3 173.7L593 179.9L569.6 185.2L546.3 189.2L522.9 194.6L499.6 199.4L476.3 204L452.9 207.6L429.6 209.3L406.2 214.6L382.9 218.3L359.6 221.7L336.2 227.5L312.9 232.9L289.5 239L266.2 245.3L242.8 250.1L219.5 253.9L196.2 257.3L172.8 262L149.5 268.7L126.1 276.5L102.8 282.9L79.5 287.6" fill="#34983f" fill-opacity="0.7" class="World_13-area"></path><path stroke-linecap="round" d="M79.5 485.5L102.8 484.6L126.1 483.2L149.5 481.5L172.8 479.9L196.2 478.9L219.5 478.4L242.8 477.7L266.2 476.7L289.5 475.2L312.9 473.6L336.2 472.3L359.6 470.6L382.9 469.5L406.2 468.1L429.6 466.2L452.9 465.7L476.3 464.7L499.6 463.4L522.9 462L546.3 460.5L569.6 459.6L593 458.5L616.3 457.2L639.6 455.7L663 454.3L686.3 453" stroke="rgb(43, 80, 141)" stroke-opacity="0.7" stroke-width="0.5" fill="none" class="World_19-border"></path><path stroke-linecap="round" d="M79.5 447.8L102.8 446.8L126.1 445L149.5 442.4L172.8 440.5L196.2 439.6L219.5 439.4L242.8 438.8L266.2 437.6L289.5 435.4L312.9 433.3L336.2 431.5L359.6 429.3L382.9 428.5L406.2 427.3L429.6 425.5L452.9 425.9L476.3 425.2L499.6 424.1L522.9 422.7L546.3 421.1L569.6 420.6L593 419.4L616.3 418L639.6 416L663 414.4L686.3 412.7" stroke="rgb(39, 102, 136)" stroke-opacity="0.7" stroke-width="0.5" fill="none" class="World_18-border"></path><path stroke-linecap="round" d="M79.5 423.9L102.8 422.3L126.1 419.8L149.5 416.4L172.8 413.8L196.2 412.4L219.5 411.9L242.8 410.9L266.2 409.3L289.5 406.4L312.9 403.7L336.2 401.2L359.6 398.3L382.9 396.9L406.2 395.3L429.6 392.9L452.9 392.9L476.3 391.6L499.6 389.8L522.9 387.9L546.3 385.6L569.6 384.5L593 382.6L616.3 380.4L639.6 377.7L663 375.3L686.3 372.7" stroke="rgb(35, 123, 130)" stroke-opacity="0.7" stroke-width="0.5" fill="none" class="World_4-border"></path><path stroke-linecap="round" d="M79.5 401.5L102.8 399.2L126.1 395.8L149.5 391.4L172.8 387.8L196.2 385.6L219.5 384.1L242.8 382.3L266.2 379.8L289.5 376.3L312.9 372.9L336.2 369.9L359.6 366.5L382.9 365L406.2 363L429.6 360.1L452.9 359.8L476.3 358.2L499.6 355.9L522.9 353.5L546.3 350.7L569.6 349.2L593 346.7L616.3 343.7L639.6 339.9L663 336.4L686.3 332.7" stroke="rgb(114, 83, 85)" stroke-opacity="0.7" stroke-width="0.5" fill="none" class="World_11-border"></path><path stroke-linecap="round" d="M79.5 385L102.8 382.3L126.1 378.4L149.5 373.5L172.8 369.3L196.2 366.7L219.5 365L242.8 362.9L266.2 360.1L289.5 356.1L312.9 352.3L336.2 348.9L359.6 345.2L382.9 343.2L406.2 341.1L429.6 337.8L452.9 337.3L476.3 335.4L499.6 332.7L522.9 330.1L546.3 326.9L569.6 325.1L593 322.2L616.3 318.8L639.6 314.5L663 310.5L686.3 306.4" stroke="rgb(192, 43, 38)" stroke-opacity="0.7" stroke-width="0.5" fill="none" class="World_2-border"></path><path stroke-linecap="round" d="M79.5 369.4L102.8 366.4L126.1 362L149.5 356.6L172.8 352L196.2 349.1L219.5 347.2L242.8 344.9L266.2 341.7L289.5 337.4L312.9 333.2L336.2 329.4L359.6 325.4L382.9 323.6L406.2 321.4L429.6 318.2L452.9 318L476.3 316.3L499.6 313.8L522.9 311.1L546.3 308L569.6 306.3L593 303.4L616.3 299.8L639.6 295.1L663 290.9L686.3 286.4" stroke="rgb(181, 38, 36)" stroke-opacity="0.7" stroke-width="0.5" fill="none" class="World_5-border"></path><path stroke-linecap="round" d="M79.5 359.4L102.8 356.1L126.1 351.5L149.5 345.8L172.8 340.9L196.2 337.8L219.5 335.7L242.8 333.1L266.2 329.7L289.5 325L312.9 320.4L336.2 316.3L359.6 312L382.9 309.8L406.2 307.2L429.6 303.6L452.9 303L476.3 300.9L499.6 297.9L522.9 294.8L546.3 291.2L569.6 289.1L593 285.7L616.3 281.6L639.6 276.5L663 271.8L686.3 266.9" stroke="rgb(175, 35, 35)" stroke-opacity="0.7" stroke-width="0.5" fill="none" class="World_16-border"></path><path stroke-linecap="round" d="M79.5 350.2L102.8 346.6L126.1 341.6L149.5 335.5L172.8 330.3L196.2 326.9L219.5 324.5L242.8 321.7L266.2 318L289.5 313L312.9 308.2L336.2 303.8L359.6 299.1L382.9 296.6L406.2 293.8L429.6 289.8L452.9 289L476.3 286.5L499.6 283.2L522.9 279.8L546.3 275.8L569.6 273.3L593 269.5L616.3 265L639.6 259.4L663 254.1L686.3 248.5" stroke="rgb(169, 32, 33)" stroke-opacity="0.7" stroke-width="0.5" fill="none" class="World_17-border"></path><path stroke-linecap="round" d="M79.5 338.5L102.8 334.8L126.1 329.6L149.5 323.3L172.8 317.9L196.2 314.3L219.5 311.7L242.8 308.8L266.2 305L289.5 299.8L312.9 294.8L336.2 290.3L359.6 285.6L382.9 283L406.2 280.1L429.6 276.1L452.9 275.2L476.3 272.7L499.6 269.3L522.9 265.8L546.3 261.7L569.6 259.1L593 255.2L616.3 250.6L639.6 244.8L663 239.3L686.3 233.5" stroke="rgb(181, 69, 38)" stroke-opacity="0.7" stroke-width="0.5" fill="none" class="World_9-border"></path><path stroke-linecap="round" d="M79.5 329.1L102.8 325.3L126.1 320L149.5 313.5L172.8 307.9L196.2 304.2L219.5 301.5L242.8 298.5L266.2 294.6L289.5 289.3L312.9 284.2L336.2 279.6L359.6 274.7L382.9 272L406.2 269.1L429.6 265L452.9 264.1L476.3 261.6L499.6 258.1L522.9 254.5L546.3 250.4L569.6 247.7L593 243.8L616.3 239L639.6 233.1L663 227.5L686.3 221.6" stroke="rgb(192, 105, 43)" stroke-opacity="0.7" stroke-width="0.5" fill="none" class="World_3-border"></path><path stroke-linecap="round" d="M79.5 322.9L102.8 318.9L126.1 313.4L149.5 306.7L172.8 300.8L196.2 296.9L219.5 294.1L242.8 290.9L266.2 286.8L289.5 281.3L312.9 276L336.2 271.3L359.6 266.2L382.9 263.4L406.2 260.4L429.6 256.1L452.9 255L476.3 252.3L499.6 248.6L522.9 244.8L546.3 240.5L569.6 237.5L593 233.3L616.3 228.3L639.6 222.1L663 216.2L686.3 210.1" stroke="rgb(202, 142, 48)" stroke-opacity="0.7" stroke-width="0.5" fill="none" class="World_12-border"></path><path stroke-linecap="round" d="M79.5 316.2L102.8 312L126.1 306.4L149.5 299.4L172.8 293.4L196.2 289.2L219.5 286.2L242.8 282.8L266.2 278.6L289.5 273L312.9 267.6L336.2 262.7L359.6 257.6L382.9 254.7L406.2 251.6L429.6 247.2L452.9 246L476.3 243.2L499.6 239.3L522.9 235.3L546.3 230.8L569.6 227.7L593 223.3L616.3 218L639.6 211.6L663 205.5L686.3 199.1" stroke="rgb(213, 178, 52)" stroke-opacity="0.7" stroke-width="0.5" fill="none" class="World_1-border"></path><path stroke-linecap="round" d="M79.5 310.7L102.8 306.5L126.1 300.6L149.5 293.5L172.8 287.3L196.2 283L219.5 279.9L242.8 276.5L266.2 272.1L289.5 266.4L312.9 260.9L336.2 256L359.6 250.7L382.9 247.8L406.2 244.6L429.6 240L452.9 238.7L476.3 235.8L499.6 231.8L522.9 227.7L546.3 223L569.6 219.7L593 215.1L616.3 209.7L639.6 203L663 196.7L686.3 190.1" stroke="rgb(193, 177, 68)" stroke-opacity="0.7" stroke-width="0.5" fill="none" class="World_0-border"></path><path stroke-linecap="round" d="M79.5 306.2L102.8 301.9L126.1 295.9L149.5 288.6L172.8 282.3L196.2 277.9L219.5 274.7L242.8 271.2L266.2 266.7L289.5 260.9L312.9 255.3L336.2 250.2L359.6 244.8L382.9 241.7L406.2 238.4L429.6 233.6L452.9 232.2L476.3 229.1L499.6 225L522.9 220.6L546.3 215.7L569.6 212.3L593 207.5L616.3 201.9L639.6 195L663 188.4L686.3 181.6" stroke="rgb(173, 175, 84)" stroke-opacity="0.7" stroke-width="0.5" fill="none" class="World_10-border"></path><path stroke-linecap="round" d="M79.5 301.4L102.8 296.9L126.1 290.9L149.5 283.5L172.8 277L196.2 272.5L219.5 269.3L242.8 265.6L266.2 261.1L289.5 255.1L312.9 249.4L336.2 244.2L359.6 238.7L382.9 235.5L406.2 232.1L429.6 227.2L452.9 225.7L476.3 222.5L499.6 218.2L522.9 213.8L546.3 208.7L569.6 205.2L593 200.2L616.3 194.4L639.6 187.4L663 180.6L686.3 173.7" stroke="rgb(153, 173, 100)" stroke-opacity="0.7" stroke-width="0.5" fill="none" class="World_15-border"></path><path stroke-linecap="round" d="M79.5 298.2L102.8 293.6L126.1 287.4L149.5 279.9L172.8 273.4L196.2 268.8L219.5 265.4L242.8 261.7L266.2 257.1L289.5 251L312.9 245.1L336.2 239.8L359.6 234.2L382.9 230.9L406.2 227.3L429.6 222.3L452.9 220.7L476.3 217.4L499.6 213L522.9 208.4L546.3 203.2L569.6 199.5L593 194.4L616.3 188.5L639.6 181.4L663 174.4L686.3 167.3" stroke="rgb(132, 171, 115)" stroke-opacity="0.7" stroke-width="0.5" fill="none" class="World_7-border"></path><path stroke-linecap="round" d="M79.5 295.1L102.8 290.5L126.1 284.2L149.5 276.6L172.8 270L196.2 265.4L219.5 262L242.8 258.2L266.2 253.5L289.5 247.3L312.9 241.3L336.2 235.9L359.6 230.2L382.9 226.8L406.2 223.2L429.6 218L452.9 216.4L476.3 212.9L499.6 208.3L522.9 203.7L546.3 198.4L569.6 194.6L593 189.4L616.3 183.3L639.6 176L663 168.9L686.3 161.6" stroke="rgb(110, 160, 100)" stroke-opacity="0.7" stroke-width="0.5" fill="none" class="World_14-border"></path><path stroke-linecap="round" d="M79.5 291L102.8 286.2L126.1 279.8L149.5 272.1L172.8 265.4L196.2 260.7L219.5 257.4L242.8 253.6L266.2 248.8L289.5 242.6L312.9 236.6L336.2 231.2L359.6 225.5L382.9 222.1L406.2 218.5L429.6 213.3L452.9 211.6L476.3 208.1L499.6 203.5L522.9 198.9L546.3 193.5L569.6 189.6L593 184.4L616.3 178.3L639.6 170.8L663 163.6L686.3 156.2" stroke="rgb(88, 149, 85)" stroke-opacity="0.7" stroke-width="0.5" fill="none" class="World_8-border"></path><path stroke-linecap="round" d="M79.5 287.6L102.8 282.9L126.1 276.5L149.5 268.7L172.8 262L196.2 257.3L219.5 253.9L242.8 250.1L266.2 245.3L289.5 239L312.9 232.9L336.2 227.5L359.6 221.7L382.9 218.3L406.2 214.6L429.6 209.3L452.9 207.6L476.3 204L499.6 199.4L522.9 194.6L546.3 189.2L569.6 185.2L593 179.9L616.3 173.7L639.6 166.1L663 158.8L686.3 151.3" stroke="rgb(66, 138, 69)" stroke-opacity="0.7" stroke-width="0.5" fill="none" class="World_6-border"></path><path stroke-linecap="round" d="M79.5 262.2L102.8 257L126.1 250L149.5 241.6L172.8 234.2L196.2 229L219.5 225.2L242.8 220.9L266.2 215.5L289.5 208.3L312.9 201.5L336.2 195.5L359.6 189L382.9 184.9L406.2 180.6L429.6 174.5L452.9 172.3L476.3 168L499.6 162.4L522.9 156.8L546.3 150.4L569.6 145.8L593 139.6L616.3 132.4L639.6 124.1L663 116L686.3 107.6" stroke="rgb(44, 127, 53)" stroke-opacity="0.7" stroke-width="0.5" fill="none" class="World_13-border"></path></g></g></g><g style="fill: #777;" class="SourcesFooter"><g style="fill: #777;" class="clickable"><text font-size="12.60" x="15.0" y="581.6"><tspan x="15" y="581.58">Source: IHME, Global Burden of Disease (GBD)</tspan></text></g><text font-size="12.60" x="775.4" y="581.6"><tspan x="775.402" y="581.58"><a style="fill: #777;" class="cclogo" href="http://creativecommons.org/licenses/by-sa/4.0/deed.en_US" target="_blank">CC BY-SA</a></tspan></text></g></g></svg>