<svg xmlns="http://www.w3.org/2000/svg" version="1.1" style="font-family: 'Helvetica Neue', Helvetica, Arial, sans-serif; font-size: 18px; background-color: white; text-rendering: optimizeLegibility; -webkit-font-smoothing: antialiased;" width="850" height="600"><g class="ChartTab"><g class="HeaderView"><g opacity="0.8" transform="translate(778, 15) scale(0.27)"><a xmlns:xlink="http://www.w3.org/1999/xlink" xlink:href="https://ourworldindata.org" target="_blank"><g><rect x="0" y="0" fill="#1B2543" width="211.2" height="130.1"/><rect x="0" y="112.2" fill="#E63912" width="211.2" height="17.9"/><g><rect x="1.2" y="12.3" fill="none" width="210.2" height="99.2"/><path fill="#FFFFFF" d="M37.8,32.2c0,12.7-7.7,19.4-17.1,19.4c-9.7,0-16.6-7.5-16.6-18.7c0-11.7,7.3-19.3,17.1-19.3 C31.3,13.7,37.8,21.3,37.8,32.2z M9.2,32.8c0,7.9,4.3,14.9,11.8,14.9c7.5,0,11.8-6.9,11.8-15.3c0-7.3-3.8-14.9-11.8-14.9 C13.1,17.5,9.2,24.8,9.2,32.8z"/><path fill="#FFFFFF" d="M62.7,43.8c0,2.7,0.1,5.1,0.2,7.2h-4.3l-0.3-4.3h-0.1c-1.3,2.1-4,4.9-8.8,4.9c-4.2,0-9.1-2.3-9.1-11.6 V24.6h4.8v14.6c0,5,1.5,8.4,5.9,8.4c3.2,0,5.5-2.2,6.3-4.4c0.3-0.7,0.4-1.6,0.4-2.5V24.6h4.8V43.8z"/><path fill="#FFFFFF" d="M67.3,32.8c0-3.1-0.1-5.8-0.2-8.2h4.2l0.2,5.2h0.2c1.2-3.5,4.1-5.8,7.3-5.8c0.5,0,0.9,0.1,1.4,0.2v4.5 c-0.5-0.1-1-0.2-1.6-0.2c-3.4,0-5.8,2.6-6.5,6.2c-0.1,0.7-0.2,1.4-0.2,2.2V51h-4.8V32.8z"/><path fill="#FFFFFF" d="M95.4,51l-9.4-36.8h5l4.4,18.6c1.1,4.6,2.1,9.2,2.7,12.7h0.1c0.6-3.7,1.8-8,3-12.8l4.9-18.5h5l4.5,18.7 c1,4.4,2,8.7,2.6,12.6h0.1c0.8-4,1.8-8.1,3-12.7l4.9-18.5h4.9L120.6,51h-5L111,31.9c-1.1-4.7-1.9-8.3-2.4-12h-0.1 c-0.7,3.7-1.5,7.3-2.8,12L100.4,51H95.4z"/><path fill="#FFFFFF" d="M154.9,37.6c0,9.8-6.8,14-13.2,14c-7.2,0-12.7-5.2-12.7-13.6c0-8.8,5.8-14,13.1-14 C149.8,24,154.9,29.5,154.9,37.6z M133.9,37.9c0,5.8,3.3,10.1,8,10.1c4.6,0,8-4.3,8-10.3c0-4.5-2.2-10.1-7.9-10.1 C136.3,27.6,133.9,32.8,133.9,37.9z"/><path fill="#FFFFFF" d="M158.2,32.8c0-3.1-0.1-5.8-0.2-8.2h4.2l0.2,5.2h0.2c1.2-3.5,4.1-5.8,7.3-5.8c0.5,0,0.9,0.1,1.4,0.2v4.5 c-0.5-0.1-1-0.2-1.6-0.2c-3.4,0-5.8,2.6-6.5,6.2c-0.1,0.7-0.2,1.4-0.2,2.2V51h-4.8V32.8z"/><path fill="#FFFFFF" d="M173.5,12.3h4.8V51h-4.8V12.3z"/><path fill="#FFFFFF" d="M206.5,12.3v31.9c0,2.3,0.1,5,0.2,6.8h-4.3l-0.2-4.6H202c-1.5,2.9-4.7,5.2-9,5.2 c-6.4,0-11.3-5.4-11.3-13.4c-0.1-8.8,5.4-14.2,11.9-14.2c4,0,6.8,1.9,8,4h0.1V12.3H206.5z M201.7,35.4c0-0.6-0.1-1.4-0.2-2 c-0.7-3.1-3.3-5.6-6.9-5.6c-5,0-7.9,4.4-7.9,10.2c0,5.3,2.6,9.8,7.8,9.8c3.2,0,6.2-2.1,7.1-5.7c0.2-0.7,0.2-1.3,0.2-2.1V35.4z"/><path fill="#FFFFFF" d="M42.8,64c0.1,1.6-1.1,2.9-3.1,2.9c-1.7,0-2.9-1.3-2.9-2.9c0-1.7,1.3-3,3-3C41.7,61,42.8,62.3,42.8,64z M37.4,97.8V71.4h4.8v26.4H37.4z"/><path fill="#FFFFFF" d="M47.5,78.6c0-2.7-0.1-5-0.2-7.1h4.3l0.3,4.4h0.1c1.3-2.5,4.4-5,8.8-5c3.7,0,9.4,2.2,9.4,11.2v15.8h-4.8 V82.6c0-4.3-1.6-7.8-6.1-7.8c-3.2,0-5.6,2.2-6.5,4.9c-0.2,0.6-0.3,1.4-0.3,2.2v15.9h-4.8V78.6z"/><path fill="#FFFFFF" d="M84,61.6c2.9-0.4,6.3-0.8,10.1-0.8c6.8,0,11.7,1.6,14.9,4.6c3.3,3,5.2,7.3,5.2,13.2c0,6-1.9,10.9-5.3,14.3 c-3.4,3.4-9.1,5.3-16.3,5.3c-3.4,0-6.2-0.2-8.6-0.4V61.6z M88.8,94.1c1.2,0.2,3,0.3,4.8,0.3c10.2,0,15.7-5.7,15.7-15.6 c0.1-8.7-4.9-14.2-14.9-14.2c-2.5,0-4.3,0.2-5.6,0.5V94.1z"/><path fill="#FFFFFF" d="M132.1,97.8l-0.4-3.3h-0.2c-1.5,2.1-4.3,3.9-8.1,3.9c-5.4,0-8.1-3.8-8.1-7.6c0-6.4,5.7-9.9,15.9-9.8v-0.5 c0-2.2-0.6-6.1-6-6.1c-2.5,0-5,0.8-6.9,2l-1.1-3.2c2.2-1.4,5.4-2.3,8.7-2.3c8.1,0,10.1,5.5,10.1,10.8v9.9c0,2.3,0.1,4.5,0.4,6.3 H132.1z M131.4,84.4c-5.3-0.1-11.2,0.8-11.2,5.9c0,3.1,2.1,4.6,4.5,4.6c3.4,0,5.6-2.2,6.4-4.4c0.2-0.5,0.3-1,0.3-1.5V84.4z"/><path fill="#FFFFFF" d="M146.6,63.9v7.6h6.9v3.7h-6.9v14.2c0,3.3,0.9,5.1,3.6,5.1c1.3,0,2.2-0.2,2.8-0.3l0.2,3.6 c-0.9,0.4-2.4,0.7-4.3,0.7c-2.2,0-4-0.7-5.2-2c-1.4-1.4-1.9-3.8-1.9-6.9V75.1h-4.1v-3.7h4.1v-6.3L146.6,63.9z"/><path fill="#FFFFFF" d="M171.4,97.8l-0.4-3.3h-0.2c-1.5,2.1-4.3,3.9-8.1,3.9c-5.4,0-8.1-3.8-8.1-7.6c0-6.4,5.7-9.9,15.9-9.8v-0.5 c0-2.2-0.6-6.1-6-6.1c-2.5,0-5,0.8-6.9,2l-1.1-3.2c2.2-1.4,5.4-2.3,8.7-2.3c8.1,0,10.1,5.5,10.1,10.8v9.9c0,2.3,0.1,4.5,0.4,6.3 H171.4z M170.7,84.4c-5.3-0.1-11.2,0.8-11.2,5.9c0,3.1,2.1,4.6,4.5,4.6c3.4,0,5.6-2.2,6.4-4.4c0.2-0.5,0.3-1,0.3-1.5V84.4z"/></g></g></a></g><a href="https://ourworldindata.org/grapher/cancer-death-rates-in-the-us" target="_blank"><text font-size="25.20" x="15.0" y="35.2" fill="#555"><tspan x="15" y="35.160000000000004">Cancer death rates in the United States over the long-run</tspan></text></a><text font-size="14.40" x="15.0" y="53.7" fill="#666"><tspan x="15" y="53.72">Age-standardized death rates from various forms of cancer in males and females, measured as the number of deaths</tspan><tspan x="15" y="69.56">per 100,000 individuals. Age-standardization is based on normalisation to the standard US population structure in the</tspan><tspan x="15" y="85.4">year 2000.</tspan></text></g><g class="LineChart"><defs><clipPath id="boundsClip-11"><rect x="28.144000000000005" y="0" width="830" height="897.8"></rect></clipPath></defs><g class="AxisBoxView"><g class="HorizontalAxis"><text x="38.1" y="556.5" fill="#666" text-anchor="middle" font-size="16.2">1930</text><text x="111.1" y="556.5" fill="#666" text-anchor="middle" font-size="16.2">1940</text><text x="184" y="556.5" fill="#666" text-anchor="middle" font-size="16.2">1950</text><text x="257" y="556.5" fill="#666" text-anchor="middle" font-size="16.2">1960</text><text x="329.9" y="556.5" fill="#666" text-anchor="middle" font-size="16.2">1970</text><text x="402.8" y="556.5" fill="#666" text-anchor="middle" font-size="16.2">1980</text><text x="475.8" y="556.5" fill="#666" text-anchor="middle" font-size="16.2">1990</text><text x="548.7" y="556.5" fill="#666" text-anchor="middle" font-size="16.2">2000</text><text x="629" y="556.5" fill="#666" text-anchor="middle" font-size="16.2">2011</text></g><g class="VerticalAxis"><text x="33.14" y="535.3" fill="#666" dominant-baseline="middle" text-anchor="end" font-size="16.2">0</text><text x="33.14" y="441.4" fill="#666" dominant-baseline="middle" text-anchor="end" font-size="16.2">20</text><text x="33.14" y="347.5" fill="#666" dominant-baseline="middle" text-anchor="end" font-size="16.2">40</text><text x="33.14" y="253.6" fill="#666" dominant-baseline="middle" text-anchor="end" font-size="16.2">60</text><text x="33.14" y="159.7" fill="#666" dominant-baseline="middle" text-anchor="end" font-size="16.2">80</text></g><g class="AxisGridLines"><line x1="38.14" y1="535.3" x2="628.95" y2="535.3" stroke="#ccc"></line><line x1="38.14" y1="441.4" x2="628.95" y2="441.4" stroke="#ddd" stroke-dasharray="3,2"></line><line x1="38.14" y1="347.5" x2="628.95" y2="347.5" stroke="#ddd" stroke-dasharray="3,2"></line><line x1="38.14" y1="253.6" x2="628.95" y2="253.6" stroke="#ddd" stroke-dasharray="3,2"></line><line x1="38.14" y1="159.7" x2="628.95" y2="159.7" stroke="#ddd" stroke-dasharray="3,2"></line></g></g><g clip-path="url(#boundsClip-11)"><g class="HeightedLegend clickable"><g class="legendMark"><g class="indicator"><line x1="633.9549999999999" y1="524.5" x2="655.6857692307692" y2="524.5" stroke="#666" stroke-width="0.5"></line><line x1="655.6857692307692" y1="524.5" x2="655.6857692307692" y2="524.5" stroke="#666" stroke-width="0.5"></line><line x1="655.6857692307692" y1="524.5" x2="658.9549999999999" y2="524.5" stroke="#666" stroke-width="0.5"></line></g><rect x="628.9549999999999" y="517.75" width="141.78500000000003" height="13.5" fill="#fff" opacity="0"></rect><text font-size="13.50" x="664.0" y="528.5" fill="#7ec7ce"><tspan x="663.9549999999999" y="528.55">Stomach (female)</tspan></text></g><g class="legendMark"><g class="indicator"><line x1="633.9549999999999" y1="514.6" x2="654.1473076923077" y2="514.6" stroke="#666" stroke-width="0.5"></line><line x1="654.1473076923077" y1="514.6" x2="654.1473076923077" y2="509" stroke="#666" stroke-width="0.5"></line><line x1="654.1473076923077" y1="509" x2="658.9549999999999" y2="509" stroke="#666" stroke-width="0.5"></line></g><rect x="628.9549999999999" y="502.25" width="130.445" height="13.5" fill="#fff" opacity="0"></rect><text font-size="13.50" x="664.0" y="513.0" fill="#7ec7ce"><tspan x="663.9549999999999" y="513.05">Stomach (male)</tspan></text></g><g class="legendMark"><g class="indicator"><line x1="633.9549999999999" y1="513.2" x2="652.6088461538461" y2="513.2" stroke="#666" stroke-width="0.5"></line><line x1="652.6088461538461" y1="513.2" x2="652.6088461538461" y2="493.5" stroke="#666" stroke-width="0.5"></line><line x1="652.6088461538461" y1="493.5" x2="658.9549999999999" y2="493.5" stroke="#666" stroke-width="0.5"></line></g><rect x="628.9549999999999" y="486.75" width="117.62" height="13.5" fill="#fff" opacity="0"></rect><text font-size="13.50" x="664.0" y="497.6" fill="#6bb537"><tspan x="663.9549999999999" y="497.55">Liver (female)</tspan></text></g><g class="legendMark"><g class="indicator"><line x1="633.9549999999999" y1="503.4" x2="651.0703846153846" y2="503.4" stroke="#666" stroke-width="0.5"></line><line x1="651.0703846153846" y1="503.4" x2="651.0703846153846" y2="478" stroke="#666" stroke-width="0.5"></line><line x1="651.0703846153846" y1="478" x2="658.9549999999999" y2="478" stroke="#666" stroke-width="0.5"></line></g><rect x="628.9549999999999" y="471.25" width="128.15" height="13.5" fill="#fff" opacity="0"></rect><text font-size="13.50" x="664.0" y="482.1" fill="#3360a9"><tspan x="663.9549999999999" y="482.05">Uterus (female)</tspan></text></g><g class="legendMark"><g class="indicator"><line x1="633.9549999999999" y1="491.6" x2="649.531923076923" y2="491.6" stroke="#666" stroke-width="0.5"></line><line x1="649.531923076923" y1="491.6" x2="649.531923076923" y2="462.5" stroke="#666" stroke-width="0.5"></line><line x1="649.531923076923" y1="462.5" x2="658.9549999999999" y2="462.5" stroke="#666" stroke-width="0.5"></line></g><rect x="628.9549999999999" y="455.75" width="135.71" height="13.5" fill="#fff" opacity="0"></rect><text font-size="13.50" x="664.0" y="466.6" fill="#818282"><tspan x="663.9549999999999" y="466.55">Leukemia (male)</tspan></text></g><g class="legendMark"><g class="indicator"><line x1="633.9549999999999" y1="490.7" x2="647.9934615384615" y2="490.7" stroke="#666" stroke-width="0.5"></line><line x1="647.9934615384615" y1="490.7" x2="647.9934615384615" y2="447" stroke="#666" stroke-width="0.5"></line><line x1="647.9934615384615" y1="447" x2="658.9549999999999" y2="447" stroke="#666" stroke-width="0.5"></line></g><rect x="628.9549999999999" y="440.25" width="145.565" height="13.5" fill="#fff" opacity="0"></rect><text font-size="13.50" x="664.0" y="451.1" fill="#3360a9"><tspan x="663.9549999999999" y="451.05">Pancreas (female)</tspan></text></g><g class="legendMark"><g class="indicator"><line x1="633.9549999999999" y1="488.4" x2="646.4549999999999" y2="488.4" stroke="#666" stroke-width="0.5"></line><line x1="646.4549999999999" y1="488.4" x2="646.4549999999999" y2="431.5" stroke="#666" stroke-width="0.5"></line><line x1="646.4549999999999" y1="431.5" x2="658.9549999999999" y2="431.5" stroke="#666" stroke-width="0.5"></line></g><rect x="628.9549999999999" y="424.75" width="106.28" height="13.5" fill="#fff" opacity="0"></rect><text font-size="13.50" x="664.0" y="435.6" fill="#6bb537"><tspan x="663.9549999999999" y="435.55">Liver (male)</tspan></text></g><g class="legendMark"><g class="indicator"><line x1="633.9549999999999" y1="476.6" x2="644.9165384615384" y2="476.6" stroke="#666" stroke-width="0.5"></line><line x1="644.9165384615384" y1="476.6" x2="644.9165384615384" y2="416" stroke="#666" stroke-width="0.5"></line><line x1="644.9165384615384" y1="416" x2="658.9549999999999" y2="416" stroke="#666" stroke-width="0.5"></line></g><rect x="628.9549999999999" y="409.25" width="134.22500000000002" height="13.5" fill="#fff" opacity="0"></rect><text font-size="13.50" x="664.0" y="420.1" fill="#3360a9"><tspan x="663.9549999999999" y="420.05">Pancreas (male)</tspan></text></g><g class="legendMark"><g class="indicator"><line x1="633.9549999999999" y1="473.8" x2="643.3780769230768" y2="473.8" stroke="#666" stroke-width="0.5"></line><line x1="643.3780769230768" y1="473.8" x2="643.3780769230768" y2="400.5" stroke="#666" stroke-width="0.5"></line><line x1="643.3780769230768" y1="400.5" x2="658.9549999999999" y2="400.5" stroke="#666" stroke-width="0.5"></line></g><rect x="628.9549999999999" y="393.75" width="200.51000000000002" height="13.5" fill="#fff" opacity="0"></rect><text font-size="13.50" x="664.0" y="404.6" fill="#a652ba"><tspan x="663.9549999999999" y="404.55">Colon and Rectum (female)</tspan></text></g><g class="legendMark"><g class="indicator"><line x1="633.9549999999999" y1="448.4" x2="641.8396153846153" y2="448.4" stroke="#666" stroke-width="0.5"></line><line x1="641.8396153846153" y1="448.4" x2="641.8396153846153" y2="385" stroke="#666" stroke-width="0.5"></line><line x1="641.8396153846153" y1="385" x2="658.9549999999999" y2="385" stroke="#666" stroke-width="0.5"></line></g><rect x="628.9549999999999" y="378.25" width="189.17000000000002" height="13.5" fill="#fff" opacity="0"></rect><text font-size="13.50" x="664.0" y="389.1" fill="#a652ba"><tspan x="663.9549999999999" y="389.05">Colon and Rectum (male)</tspan></text></g><g class="legendMark"><g class="indicator"><line x1="633.9549999999999" y1="437.6" x2="640.3011538461537" y2="437.6" stroke="#666" stroke-width="0.5"></line><line x1="640.3011538461537" y1="437.6" x2="640.3011538461537" y2="369.5" stroke="#666" stroke-width="0.5"></line><line x1="640.3011538461537" y1="369.5" x2="658.9549999999999" y2="369.5" stroke="#666" stroke-width="0.5"></line></g><rect x="628.9549999999999" y="362.75" width="127.47500000000001" height="13.5" fill="#fff" opacity="0"></rect><text font-size="13.50" x="664.0" y="373.6" fill="#ca2628"><tspan x="663.9549999999999" y="373.55">Prostate (male)</tspan></text></g><g class="legendMark"><g class="indicator"><line x1="633.9549999999999" y1="434.4" x2="638.7626923076922" y2="434.4" stroke="#666" stroke-width="0.5"></line><line x1="638.7626923076922" y1="434.4" x2="638.7626923076922" y2="354" stroke="#666" stroke-width="0.5"></line><line x1="638.7626923076922" y1="354" x2="658.9549999999999" y2="354" stroke="#666" stroke-width="0.5"></line></g><rect x="628.9549999999999" y="347.25" width="127.47500000000001" height="13.5" fill="#fff" opacity="0"></rect><text font-size="13.50" x="664.0" y="358.1" fill="#df3c64"><tspan x="663.9549999999999" y="358.05">Breast (female)</tspan></text></g><g class="legendMark"><g class="indicator"><line x1="633.9549999999999" y1="361.1" x2="637.2242307692306" y2="361.1" stroke="#666" stroke-width="0.5"></line><line x1="637.2242307692306" y1="361.1" x2="637.2242307692306" y2="338.5" stroke="#666" stroke-width="0.5"></line><line x1="637.2242307692306" y1="338.5" x2="658.9549999999999" y2="338.5" stroke="#666" stroke-width="0.5"></line></g><rect x="628.9549999999999" y="331.75" width="206.04500000000002" height="13.5" fill="#fff" opacity="0"></rect><text font-size="13.50" x="664.0" y="342.6" fill="#f6a324"><tspan x="663.9549999999999" y="342.55">Lung and Bronchus (female)</tspan></text></g><g class="legendMark"><g class="indicator"><line x1="633.9549999999999" y1="262.5" x2="646.4549999999999" y2="262.5" stroke="#666" stroke-width="0.5"></line><line x1="646.4549999999999" y1="262.5" x2="646.4549999999999" y2="262.5" stroke="#666" stroke-width="0.5"></line><line x1="646.4549999999999" y1="262.5" x2="658.9549999999999" y2="262.5" stroke="#666" stroke-width="0.5"></line></g><rect x="628.9549999999999" y="255.75" width="194.705" height="13.5" fill="#fff" opacity="0"></rect><text font-size="13.50" x="664.0" y="266.6" fill="#f6a324"><tspan x="663.9549999999999" y="266.55">Lung and Bronchus (male)</tspan></text></g></g><g class="Lines"><rect x="38" y="108" width="591" height="428" fill="rgba(255,255,255,0)" opacity="0"></rect><g class="key-United-States_0"><path stroke="#df3c64" stroke-linecap="round" d="M38 394L45 392L53 390L60 391L67 387L75 388L82 385L89 387L97 383L104 383L111 377L118 382L126 381L133 382L140 385L148 381L155 380L162 378L169 373L177 386L184 386L191 387L199 387L206 384L213 386L221 383L228 384L235 385L242 388L250 389L257 386L264 387L272 388L279 389L286 387L293 385L301 386L308 385L315 383L323 387L330 384L337 387L345 384L352 383L359 385L366 388L374 386L381 383L388 387L396 389L403 387L410 386L417 384L425 385L432 381L439 380L447 381L454 382L461 379L469 379L476 380L483 382L490 387L498 388L505 390L512 392L520 397L527 403L534 406L541 410L549 410L556 413L563 415L571 417L578 420L585 422L593 425L600 427L607 429L614 431L622 433L629 434" fill="none" stroke-width="1.5"></path></g><g class="key-United-States_1"><path stroke="#a652ba" stroke-linecap="round" d="M38 408L45 405L53 402L60 401L67 396L75 394L82 387L89 386L97 383L104 380L111 378L118 380L126 380L133 375L140 374L148 373L155 373L162 370L169 372L177 379L184 384L191 386L199 387L206 388L213 389L221 389L228 393L235 393L242 395L250 397L257 395L264 397L272 399L279 400L286 402L293 405L301 403L308 407L315 407L323 408L330 409L337 411L345 411L352 414L359 414L366 417L374 414L381 417L388 416L396 418L403 419L410 421L417 423L425 425L432 423L439 425L447 429L454 431L461 433L469 434L476 437L483 439L490 441L498 441L505 443L512 444L520 447L527 448L534 449L541 451L549 452L556 454L563 456L571 458L578 462L585 464L593 465L600 467L607 468L614 472L622 473L629 474" fill="none" stroke-width="1.5"></path></g><g class="key-United-States_10"><path stroke="#ca2628" stroke-linecap="round" d="M38 452L45 449L53 442L60 438L67 429L75 429L82 424L89 422L97 415L104 410L111 407L118 401L126 408L133 407L140 404L148 398L155 393L162 391L169 386L177 398L184 400L191 401L199 396L206 395L213 392L221 394L228 390L235 392L242 396L250 400L257 398L264 395L272 396L279 395L286 397L293 395L301 397L308 395L315 394L323 396L330 395L337 394L345 393L352 390L359 390L366 391L374 387L381 387L388 382L396 382L403 379L410 379L417 379L425 376L432 375L439 376L447 372L454 371L461 367L469 361L476 354L483 351L490 351L498 351L505 355L512 360L520 366L527 375L534 382L541 387L549 393L556 397L563 401L571 408L578 412L585 416L593 422L600 422L607 427L614 432L622 433L629 438" fill="none" stroke-width="1.5"></path></g><g class="key-United-States_11"><path stroke="#7ec7ce" stroke-linecap="round" d="M38 370L45 377L53 377L60 383L67 387L75 388L82 390L89 398L97 400L104 409L111 415L118 420L126 418L133 425L140 430L148 431L155 436L162 438L169 439L177 448L184 453L191 458L199 460L206 462L213 466L221 471L228 472L235 476L242 478L250 480L257 481L264 485L272 487L279 487L286 492L293 493L301 495L308 497L315 498L323 500L330 502L337 503L345 504L352 506L359 507L366 508L374 509L381 510L388 510L396 511L403 511L410 512L417 512L425 513L432 513L439 515L447 516L454 516L461 516L469 516L476 516L483 517L490 517L498 518L505 518L512 518L520 519L527 519L534 519L541 520L549 520L556 521L563 521L571 521L578 522L585 523L593 523L600 523L607 524L614 524L622 524L629 525" fill="none" stroke-width="1.5"></path></g><g class="key-United-States_12"><path stroke="#7ec7ce" stroke-linecap="round" d="M38 318L45 321L53 324L60 328L67 329L75 330L82 332L89 336L97 339L104 346L111 347L118 355L126 356L133 362L140 365L148 369L155 371L162 371L169 373L177 384L184 389L191 396L199 401L206 403L213 407L221 414L228 417L235 423L242 429L250 429L257 433L264 437L272 444L279 444L286 449L293 453L301 457L308 460L315 462L323 465L330 467L337 471L345 472L352 474L359 476L366 478L374 479L381 481L388 484L396 484L403 486L410 486L417 487L425 489L432 489L439 491L447 491L454 493L461 494L469 492L476 494L483 494L490 497L498 497L505 498L512 499L520 501L527 502L534 503L541 504L549 505L556 507L563 507L571 509L578 509L585 510L593 511L600 512L607 512L614 513L622 514L629 515" fill="none" stroke-width="1.5"></path></g><g class="key-United-States_13"><path stroke="#3360a9" stroke-linecap="round" d="M38 365L45 364L53 363L60 368L67 368L75 368L82 366L89 368L97 374L104 374L111 376L118 382L126 385L133 383L140 386L148 387L155 390L162 392L169 397L177 409L184 412L191 420L199 424L206 425L213 430L221 432L228 437L235 439L242 440L250 445L257 447L264 449L272 452L279 454L286 456L293 458L301 462L308 465L315 468L323 471L330 474L337 475L345 476L352 479L359 481L366 484L374 485L381 487L388 488L396 490L403 490L410 492L417 493L425 494L432 495L439 495L447 496L454 497L461 498L469 498L476 498L483 499L490 499L498 500L505 500L512 501L520 501L527 502L534 502L541 503L549 503L556 503L563 504L571 504L578 504L585 505L593 504L600 504L607 504L614 505L622 504L629 503" fill="none" stroke-width="1.5"></path></g><g class="key-United-States_2"><path stroke="#a652ba" stroke-linecap="round" d="M38 427L45 424L53 417L60 415L67 408L75 406L82 403L89 395L97 389L104 385L111 381L118 383L126 382L133 378L140 377L148 372L155 372L162 369L169 367L177 375L184 380L191 384L199 381L206 380L213 382L221 380L228 379L235 380L242 382L250 382L257 381L264 381L272 381L279 383L286 382L293 378L301 379L308 382L315 380L323 377L330 379L337 379L345 378L352 381L359 377L366 379L374 377L381 377L388 375L396 376L403 375L410 379L417 378L425 378L432 378L439 379L447 382L454 383L461 387L469 388L476 388L483 394L490 395L498 399L505 400L512 403L520 408L527 410L534 413L541 413L549 416L556 419L563 421L571 425L578 431L585 433L593 436L600 438L607 441L614 444L622 445L629 448" fill="none" stroke-width="1.5"></path></g><g class="key-United-States_3"><path stroke="#818282" stroke-linecap="round" d="M38 521L45 520L53 520L60 519L67 518L75 518L82 517L89 516L97 514L104 513L111 510L118 510L126 509L133 509L140 508L148 507L155 505L162 502L169 500L177 500L184 497L191 495L199 494L206 493L213 491L221 490L228 489L235 489L242 487L250 487L257 486L264 484L272 486L279 484L286 485L293 484L301 483L308 482L315 483L323 482L330 484L337 484L345 484L352 484L359 485L366 484L374 485L381 485L388 485L396 484L403 483L410 484L417 484L425 484L432 485L439 485L447 485L454 487L461 486L469 486L476 485L483 486L490 485L498 485L505 486L512 485L520 486L527 487L534 488L541 487L549 487L556 487L563 487L571 488L578 489L585 489L593 490L600 491L607 491L614 491L622 492L629 492" fill="none" stroke-width="1.5"></path></g><g class="key-United-States_4"><path stroke="#6bb537" stroke-linecap="round" d="M38 445L45 448L53 448L60 454L67 456L75 458L82 460L89 463L97 465L104 469L111 472L118 473L126 472L133 469L140 471L148 475L155 478L162 478L169 482L177 486L184 489L191 491L199 491L206 492L213 495L221 496L228 497L235 498L242 499L250 500L257 501L264 503L272 504L279 505L286 505L293 505L301 507L308 506L315 508L323 509L330 510L337 510L345 511L352 512L359 512L366 513L374 514L381 514L388 514L396 514L403 514L410 515L417 515L425 516L432 516L439 515L447 516L454 516L461 516L469 516L476 516L483 515L490 515L498 515L505 515L512 514L520 515L527 515L534 515L541 515L549 515L556 515L563 515L571 515L578 514L585 514L593 514L600 515L607 515L614 514L622 513L629 513" fill="none" stroke-width="1.5"></path></g><g class="key-United-States_5"><path stroke="#6bb537" stroke-linecap="round" d="M38 469L45 472L53 474L60 474L67 475L75 478L82 479L89 481L97 482L104 483L111 486L118 486L126 486L133 484L140 483L148 483L155 487L162 490L169 489L177 494L184 495L191 496L199 497L206 498L213 499L221 500L228 501L235 501L242 502L250 503L257 502L264 503L272 504L279 503L286 503L293 503L301 503L308 503L315 503L323 504L330 505L337 505L345 505L352 507L359 507L366 508L374 508L381 507L388 507L396 508L403 508L410 507L417 507L425 506L432 506L439 506L447 506L454 506L461 505L469 504L476 503L483 503L490 502L498 502L505 501L512 499L520 499L527 499L534 498L541 499L549 498L556 497L563 496L571 495L578 495L585 494L593 495L600 494L607 492L614 490L622 490L629 488" fill="none" stroke-width="1.5"></path></g><g class="key-United-States_6"><path stroke="#f6a324" stroke-linecap="round" d="M38 523L45 523L53 522L60 521L67 521L75 519L82 517L89 518L97 516L104 516L111 516L118 514L126 513L133 512L140 511L148 510L155 510L162 507L169 505L177 509L184 508L191 508L199 507L206 507L213 507L221 506L228 506L235 505L242 504L250 504L257 503L264 501L272 500L279 497L286 496L293 494L301 490L308 488L315 480L323 477L330 473L337 468L345 464L352 461L359 456L366 452L374 445L381 440L388 433L396 430L403 421L410 418L417 410L425 402L432 399L439 392L447 387L454 381L461 374L469 367L476 362L483 358L490 353L498 350L505 348L512 346L520 345L527 343L534 342L541 346L549 342L556 342L563 340L571 341L578 343L585 344L593 346L600 347L607 351L614 354L622 357L629 361" fill="none" stroke-width="1.5"></path></g><g class="key-United-States_7"><path stroke="#f6a324" stroke-linecap="round" d="M38 515L45 513L53 510L60 509L67 505L75 500L82 498L89 493L97 489L104 486L111 481L118 478L126 474L133 470L140 466L148 460L155 450L162 439L169 429L177 431L184 421L191 414L199 404L206 393L213 387L221 376L228 364L235 357L242 351L250 341L257 331L264 322L272 310L279 301L286 293L293 281L301 269L308 257L315 237L323 227L330 216L337 205L345 194L352 189L359 179L366 173L374 163L381 154L388 147L396 143L403 135L410 133L417 125L425 124L432 118L439 117L447 115L454 110L461 111L469 111L476 108L483 111L490 119L498 122L505 131L512 137L520 144L527 151L534 158L541 172L549 175L556 180L563 188L571 196L578 203L585 208L593 218L600 228L607 235L614 246L622 252L629 263" fill="none" stroke-width="1.5"></path></g><g class="key-United-States_8"><path stroke="#3360a9" stroke-linecap="round" d="M38 518L45 516L53 514L60 515L67 515L75 513L82 511L89 512L97 510L104 509L111 510L118 509L126 509L133 511L140 510L148 508L155 507L162 506L169 504L177 503L184 503L191 504L199 502L206 502L213 501L221 501L228 498L235 500L242 499L250 499L257 498L264 497L272 496L279 496L286 497L293 496L301 496L308 496L315 495L323 495L330 495L337 496L345 496L352 496L359 495L366 496L374 495L381 494L388 494L396 494L403 494L410 494L417 494L425 493L432 492L439 493L447 492L454 492L461 493L469 492L476 492L483 492L490 492L498 491L505 492L512 492L520 492L527 493L534 492L541 492L549 492L556 492L563 492L571 492L578 492L585 491L593 490L600 491L607 490L614 491L622 490L629 491" fill="none" stroke-width="1.5"></path></g><g class="key-United-States_9"><path stroke="#3360a9" stroke-linecap="round" d="M38 514L45 513L53 512L60 511L67 510L75 509L82 507L89 506L97 504L104 502L111 503L118 502L126 501L133 502L140 501L148 499L155 498L162 493L169 491L177 489L184 489L191 487L199 487L206 485L213 483L221 481L228 478L235 479L242 479L250 476L257 476L264 474L272 473L279 472L286 473L293 471L301 471L308 470L315 469L323 469L330 470L337 471L345 472L352 470L359 472L366 471L374 472L381 471L388 472L396 472L403 473L410 473L417 474L425 475L432 474L439 475L447 477L454 477L461 477L469 476L476 476L483 476L490 476L498 477L505 477L512 479L520 479L527 478L534 478L541 478L549 479L556 478L563 478L571 479L578 477L585 477L593 477L600 476L607 477L614 477L622 476L629 477" fill="none" stroke-width="1.5"></path></g></g></g></g><g style="fill: #777;" class="SourcesFooter"><g style="fill: #777;" class="clickable"><text font-size="12.60" x="15.0" y="581.6"><tspan x="15" y="581.58">Source: American Cancer Society</tspan></text></g><text font-size="12.60" x="775.4" y="581.6"><tspan x="775.402" y="581.58"><a style="fill: #777;" class="cclogo" href="http://creativecommons.org/licenses/by-sa/4.0/deed.en_US" target="_blank">CC BY-SA</a></tspan></text></g></g></svg>