<svg xmlns="http://www.w3.org/2000/svg" version="1.1" style="font-family: 'Helvetica Neue', Helvetica, Arial, sans-serif; font-size: 16px; background-color: white; text-rendering: optimizeLegibility; -webkit-font-smoothing: antialiased;" width="850" height="600"><g class="ChartTab"><g class="HeaderView"><g opacity="0.8" transform="translate(770, 15) scale(0.31)"><a xmlns:xlink="http://www.w3.org/1999/xlink" xlink:href="https://ourworldindata.org" target="_blank"><g><rect x="0" y="0" fill="#1B2543" width="211.2" height="130.1"/><rect x="0" y="112.2" fill="#E63912" width="211.2" height="17.9"/><g><rect x="1.2" y="12.3" fill="none" width="210.2" height="99.2"/><path fill="#FFFFFF" d="M37.8,32.2c0,12.7-7.7,19.4-17.1,19.4c-9.7,0-16.6-7.5-16.6-18.7c0-11.7,7.3-19.3,17.1-19.3 C31.3,13.7,37.8,21.3,37.8,32.2z M9.2,32.8c0,7.9,4.3,14.9,11.8,14.9c7.5,0,11.8-6.9,11.8-15.3c0-7.3-3.8-14.9-11.8-14.9 C13.1,17.5,9.2,24.8,9.2,32.8z"/><path fill="#FFFFFF" d="M62.7,43.8c0,2.7,0.1,5.1,0.2,7.2h-4.3l-0.3-4.3h-0.1c-1.3,2.1-4,4.9-8.8,4.9c-4.2,0-9.1-2.3-9.1-11.6 V24.6h4.8v14.6c0,5,1.5,8.4,5.9,8.4c3.2,0,5.5-2.2,6.3-4.4c0.3-0.7,0.4-1.6,0.4-2.5V24.6h4.8V43.8z"/><path fill="#FFFFFF" d="M67.3,32.8c0-3.1-0.1-5.8-0.2-8.2h4.2l0.2,5.2h0.2c1.2-3.5,4.1-5.8,7.3-5.8c0.5,0,0.9,0.1,1.4,0.2v4.5 c-0.5-0.1-1-0.2-1.6-0.2c-3.4,0-5.8,2.6-6.5,6.2c-0.1,0.7-0.2,1.4-0.2,2.2V51h-4.8V32.8z"/><path fill="#FFFFFF" d="M95.4,51l-9.4-36.8h5l4.4,18.6c1.1,4.6,2.1,9.2,2.7,12.7h0.1c0.6-3.7,1.8-8,3-12.8l4.9-18.5h5l4.5,18.7 c1,4.4,2,8.7,2.6,12.6h0.1c0.8-4,1.8-8.1,3-12.7l4.9-18.5h4.9L120.6,51h-5L111,31.9c-1.1-4.7-1.9-8.3-2.4-12h-0.1 c-0.7,3.7-1.5,7.3-2.8,12L100.4,51H95.4z"/><path fill="#FFFFFF" d="M154.9,37.6c0,9.8-6.8,14-13.2,14c-7.2,0-12.7-5.2-12.7-13.6c0-8.8,5.8-14,13.1-14 C149.8,24,154.9,29.5,154.9,37.6z M133.9,37.9c0,5.8,3.3,10.1,8,10.1c4.6,0,8-4.3,8-10.3c0-4.5-2.2-10.1-7.9-10.1 C136.3,27.6,133.9,32.8,133.9,37.9z"/><path fill="#FFFFFF" d="M158.2,32.8c0-3.1-0.1-5.8-0.2-8.2h4.2l0.2,5.2h0.2c1.2-3.5,4.1-5.8,7.3-5.8c0.5,0,0.9,0.1,1.4,0.2v4.5 c-0.5-0.1-1-0.2-1.6-0.2c-3.4,0-5.8,2.6-6.5,6.2c-0.1,0.7-0.2,1.4-0.2,2.2V51h-4.8V32.8z"/><path fill="#FFFFFF" d="M173.5,12.3h4.8V51h-4.8V12.3z"/><path fill="#FFFFFF" d="M206.5,12.3v31.9c0,2.3,0.1,5,0.2,6.8h-4.3l-0.2-4.6H202c-1.5,2.9-4.7,5.2-9,5.2 c-6.4,0-11.3-5.4-11.3-13.4c-0.1-8.8,5.4-14.2,11.9-14.2c4,0,6.8,1.9,8,4h0.1V12.3H206.5z M201.7,35.4c0-0.6-0.1-1.4-0.2-2 c-0.7-3.1-3.3-5.6-6.9-5.6c-5,0-7.9,4.4-7.9,10.2c0,5.3,2.6,9.8,7.8,9.8c3.2,0,6.2-2.1,7.1-5.7c0.2-0.7,0.2-1.3,0.2-2.1V35.4z"/><path fill="#FFFFFF" d="M42.8,64c0.1,1.6-1.1,2.9-3.1,2.9c-1.7,0-2.9-1.3-2.9-2.9c0-1.7,1.3-3,3-3C41.7,61,42.8,62.3,42.8,64z M37.4,97.8V71.4h4.8v26.4H37.4z"/><path fill="#FFFFFF" d="M47.5,78.6c0-2.7-0.1-5-0.2-7.1h4.3l0.3,4.4h0.1c1.3-2.5,4.4-5,8.8-5c3.7,0,9.4,2.2,9.4,11.2v15.8h-4.8 V82.6c0-4.3-1.6-7.8-6.1-7.8c-3.2,0-5.6,2.2-6.5,4.9c-0.2,0.6-0.3,1.4-0.3,2.2v15.9h-4.8V78.6z"/><path fill="#FFFFFF" d="M84,61.6c2.9-0.4,6.3-0.8,10.1-0.8c6.8,0,11.7,1.6,14.9,4.6c3.3,3,5.2,7.3,5.2,13.2c0,6-1.9,10.9-5.3,14.3 c-3.4,3.4-9.1,5.3-16.3,5.3c-3.4,0-6.2-0.2-8.6-0.4V61.6z M88.8,94.1c1.2,0.2,3,0.3,4.8,0.3c10.2,0,15.7-5.7,15.7-15.6 c0.1-8.7-4.9-14.2-14.9-14.2c-2.5,0-4.3,0.2-5.6,0.5V94.1z"/><path fill="#FFFFFF" d="M132.1,97.8l-0.4-3.3h-0.2c-1.5,2.1-4.3,3.9-8.1,3.9c-5.4,0-8.1-3.8-8.1-7.6c0-6.4,5.7-9.9,15.9-9.8v-0.5 c0-2.2-0.6-6.1-6-6.1c-2.5,0-5,0.8-6.9,2l-1.1-3.2c2.2-1.4,5.4-2.3,8.7-2.3c8.1,0,10.1,5.5,10.1,10.8v9.9c0,2.3,0.1,4.5,0.4,6.3 H132.1z M131.4,84.4c-5.3-0.1-11.2,0.8-11.2,5.9c0,3.1,2.1,4.6,4.5,4.6c3.4,0,5.6-2.2,6.4-4.4c0.2-0.5,0.3-1,0.3-1.5V84.4z"/><path fill="#FFFFFF" d="M146.6,63.9v7.6h6.9v3.7h-6.9v14.2c0,3.3,0.9,5.1,3.6,5.1c1.3,0,2.2-0.2,2.8-0.3l0.2,3.6 c-0.9,0.4-2.4,0.7-4.3,0.7c-2.2,0-4-0.7-5.2-2c-1.4-1.4-1.9-3.8-1.9-6.9V75.1h-4.1v-3.7h4.1v-6.3L146.6,63.9z"/><path fill="#FFFFFF" d="M171.4,97.8l-0.4-3.3h-0.2c-1.5,2.1-4.3,3.9-8.1,3.9c-5.4,0-8.1-3.8-8.1-7.6c0-6.4,5.7-9.9,15.9-9.8v-0.5 c0-2.2-0.6-6.1-6-6.1c-2.5,0-5,0.8-6.9,2l-1.1-3.2c2.2-1.4,5.4-2.3,8.7-2.3c8.1,0,10.1,5.5,10.1,10.8v9.9c0,2.3,0.1,4.5,0.4,6.3 H171.4z M170.7,84.4c-5.3-0.1-11.2,0.8-11.2,5.9c0,3.1,2.1,4.6,4.5,4.6c3.4,0,5.6-2.2,6.4-4.4c0.2-0.5,0.3-1,0.3-1.5V84.4z"/></g></g></a></g><a href="https://ourworldindata.org/grapher/capture-fishery-production" target="_blank"><text font-size="24.00" x="15.0" y="34.2" fill="#555"><tspan x="15" y="34.2">Capture fishery production</tspan></text></a><text font-size="12.80" x="15.0" y="51.2" fill="#666"><tspan x="15" y="51.239999999999995">Capture (wild) fishery production, measured in metric tons per year.</tspan></text></g><g class="StackedArea"><defs><clipPath id="boundsClip-23"><rect x="80.912" y="0" width="820" height="965.8"></rect></clipPath></defs><g class="AxisBoxView"><g class="HorizontalAxis"><text x="80.9" y="557.9" fill="#666" text-anchor="middle" font-size="14.4">1960</text><text x="191.3" y="557.9" fill="#666" text-anchor="middle" font-size="14.4">1970</text><text x="301.6" y="557.9" fill="#666" text-anchor="middle" font-size="14.4">1980</text><text x="412" y="557.9" fill="#666" text-anchor="middle" font-size="14.4">1990</text><text x="522.4" y="557.9" fill="#666" text-anchor="middle" font-size="14.4">2000</text><text x="632.7" y="557.9" fill="#666" text-anchor="middle" font-size="14.4">2010</text><text x="687.9" y="557.9" fill="#666" text-anchor="middle" font-size="14.4">2015</text></g><g class="VerticalAxis"><text x="75.91" y="538.5" fill="#666" dominant-baseline="middle" text-anchor="end" font-size="14.4">0</text><text x="75.91" y="440.8" fill="#666" dominant-baseline="middle" text-anchor="end" font-size="14.4">20 million</text><text x="75.91" y="343.2" fill="#666" dominant-baseline="middle" text-anchor="end" font-size="14.4">40 million</text><text x="75.91" y="245.5" fill="#666" dominant-baseline="middle" text-anchor="end" font-size="14.4">60 million</text><text x="75.91" y="147.9" fill="#666" dominant-baseline="middle" text-anchor="end" font-size="14.4">80 million</text></g><g class="AxisGridLines"><line x1="80.91" y1="538.5" x2="687.90" y2="538.5" stroke="#ccc"></line><line x1="80.91" y1="440.8" x2="687.90" y2="440.8" stroke="#ddd" stroke-dasharray="3,2"></line><line x1="80.91" y1="343.2" x2="687.90" y2="343.2" stroke="#ddd" stroke-dasharray="3,2"></line><line x1="80.91" y1="245.5" x2="687.90" y2="245.5" stroke="#ddd" stroke-dasharray="3,2"></line><line x1="80.91" y1="147.9" x2="687.90" y2="147.9" stroke="#ddd" stroke-dasharray="3,2"></line></g><g class="AxisGridLines"><line x1="80.9" y1="538.50" x2="80.9" y2="75.00" stroke="#ddd" stroke-dasharray="3,2"></line><line x1="191.3" y1="538.50" x2="191.3" y2="75.00" stroke="#ddd" stroke-dasharray="3,2"></line><line x1="301.6" y1="538.50" x2="301.6" y2="75.00" stroke="#ddd" stroke-dasharray="3,2"></line><line x1="412" y1="538.50" x2="412" y2="75.00" stroke="#ddd" stroke-dasharray="3,2"></line><line x1="522.4" y1="538.50" x2="522.4" y2="75.00" stroke="#ddd" stroke-dasharray="3,2"></line><line x1="632.7" y1="538.50" x2="632.7" y2="75.00" stroke="#ddd" stroke-dasharray="3,2"></line></g></g><g clip-path="url(#boundsClip-23)"><g class="HeightedLegend clickable"><g class="legendMark"><rect x="692.896" y="76.15" width="129.176" height="26.700000000000003" fill="#fff" opacity="0"></rect><rect x="692.896" y="88.25" width="10" height="2.5" fill="#2a939b"></rect><text font-size="12.80" x="707.9" y="86.4" fill="#333"><tspan x="707.896" y="86.39">Middle East &amp; North</tspan><tspan x="707.896" y="100.47">Africa</tspan></text></g><g class="legendMark"><rect x="692.896" y="107.6" width="127.128" height="12.8" fill="#fff" opacity="0"></rect><rect x="692.896" y="112.75" width="10" height="2.5" fill="#3360a9"></rect><text font-size="12.80" x="707.9" y="117.8" fill="#333"><tspan x="707.896" y="117.83999999999999">Sub-Saharan Africa</tspan></text></g><g class="legendMark"><rect x="692.896" y="138.6" width="96.92" height="12.8" fill="#fff" opacity="0"></rect><rect x="692.896" y="143.75" width="10" height="2.5" fill="#34983f"></rect><text font-size="12.80" x="707.9" y="148.8" fill="#333"><tspan x="707.896" y="148.84">North America</tspan></text></g><g class="legendMark"><rect x="692.896" y="174.75" width="105.624" height="26.700000000000003" fill="#fff" opacity="0"></rect><rect x="692.896" y="186.85" width="10" height="2.5" fill="#9ecc8a"></rect><text font-size="12.80" x="707.9" y="185.0" fill="#333"><tspan x="707.896" y="184.99">Latin America &amp;</tspan><tspan x="707.896" y="199.07000000000002">Caribbean</tspan></text></g><g class="legendMark"><rect x="692.896" y="247.4" width="142.10399999999998" height="12.8" fill="#fff" opacity="0"></rect><rect x="692.896" y="252.55" width="10" height="2.5" fill="#ffd53e"></rect><text font-size="12.80" x="707.9" y="257.6" fill="#333"><tspan x="707.896" y="257.64">Europe &amp; Central Asia</tspan></text></g><g class="legendMark"><rect x="692.896" y="303.1" width="77.208" height="12.8" fill="#fff" opacity="0"></rect><rect x="692.896" y="308.25" width="10" height="2.5" fill="#ca2628"></rect><text font-size="12.80" x="707.9" y="313.3" fill="#333"><tspan x="707.896" y="313.34000000000003">South Asia</tspan></text></g><g class="legendMark"><rect x="692.896" y="426.90000000000003" width="122.776" height="12.8" fill="#fff" opacity="0"></rect><rect x="692.896" y="432.05" width="10" height="2.5" fill="#e6332e"></rect><text font-size="12.80" x="707.9" y="437.1" fill="#333"><tspan x="707.896" y="437.14000000000004">East Asia &amp; Pacific</tspan></text></g></g><g class="Areas"><rect x="80.912" y="75" width="606.9839999999999" height="463.5" opacity="0" fill="rgba(255,255,255,0)"></rect><path stroke-linecap="round" d="M80.9 482.3L91.9 477.1L103 474.6L114 474.4L125.1 474.2L136.1 469.8L147.1 466.7L158.2 461.2L169.2 454.3L180.2 453.2L191.3 449.8L202.3 443.4L213.3 436.9L224.4 432.5L235.4 430.9L246.5 430.3L257.5 426.9L268.5 422.8L279.6 421.3L290.6 424.3L301.6 422.5L312.7 417L323.7 413.6L334.7 408.5L345.8 403.1L356.8 403.5L367.8 392.6L378.9 387.7L389.9 386.6L401 385.2L412 386.3L423 388.2L434.1 383L445.1 378.9L456.1 372.8L467.2 365.4L478.2 358.6L489.2 354.6L500.3 353.5L511.3 352.4L522.4 353.7L533.4 355.3L544.4 356.1L555.5 350.8L566.5 349.7L577.5 348.2L588.6 346.2L599.6 343.7L610.6 346.2L621.7 347.4L632.7 343.7L643.8 342.3L654.8 340.2L665.8 337.5L676.9 329.2L687.9 328.2L687.896 538.5L80.912 538.5" fill="#e6332e" fill-opacity="0.7" class="East-Asia-__0026-Pacific_0-area"></path><path stroke-linecap="round" d="M80.9 474.5L91.9 470L103 467.1L114 466.5L125.1 464.7L136.1 459.9L147.1 456.5L158.2 450.9L169.2 443.1L180.2 441.5L191.3 437.3L202.3 430.4L213.3 424.3L224.4 418.4L235.4 415.6L246.5 415.8L257.5 412.9L268.5 407.9L279.6 406.4L290.6 409.3L301.6 407.2L312.7 401.6L323.7 398.5L334.7 392.9L345.8 385.9L356.8 386.4L367.8 374.8L378.9 370.5L389.9 368.6L401 365.1L412 365.5L423 366.8L434.1 361.1L445.1 355.2L456.1 348.3L467.2 340.9L478.2 332.8L489.2 328.1L500.3 327.5L511.3 324.9L522.4 325.5L533.4 326.8L544.4 327.5L555.5 322L566.5 322.4L577.5 319.3L588.6 315.5L599.6 312.9L610.6 313.9L621.7 314L632.7 307.4L643.8 308.3L654.8 303.5L665.8 301.6L676.9 291.3L687.9 290.9L687.9 328.2L676.9 329.2L665.8 337.5L654.8 340.2L643.8 342.3L632.7 343.7L621.7 347.4L610.6 346.2L599.6 343.7L588.6 346.2L577.5 348.2L566.5 349.7L555.5 350.8L544.4 356.1L533.4 355.3L522.4 353.7L511.3 352.4L500.3 353.5L489.2 354.6L478.2 358.6L467.2 365.4L456.1 372.8L445.1 378.9L434.1 383L423 388.2L412 386.3L401 385.2L389.9 386.6L378.9 387.7L367.8 392.6L356.8 403.5L345.8 403.1L334.7 408.5L323.7 413.6L312.7 417L301.6 422.5L290.6 424.3L279.6 421.3L268.5 422.8L257.5 426.9L246.5 430.3L235.4 430.9L224.4 432.5L213.3 436.9L202.3 443.4L191.3 449.8L180.2 453.2L169.2 454.3L158.2 461.2L147.1 466.7L136.1 469.8L125.1 474.2L114 474.4L103 474.6L91.9 477.1L80.9 482.3" fill="#ca2628" fill-opacity="0.7" class="South-Asia_0-area"></path><path stroke-linecap="round" d="M80.9 436.3L91.9 429.8L103 426.3L114 423.7L125.1 418.2L136.1 407.5L147.1 400.7L158.2 392.3L169.2 385.5L180.2 386.6L191.3 379.1L202.3 371.4L213.3 364.7L224.4 357.4L235.4 353.9L246.5 355.2L257.5 347.5L268.5 342.9L279.6 344.9L290.6 348.2L301.6 345.2L312.7 339.2L323.7 338.3L334.7 330.2L345.8 321.5L356.8 323.2L367.8 312.7L378.9 308.1L389.9 252.1L401 252.8L412 264.1L423 269.7L434.1 268.3L445.1 269.4L456.1 265.5L467.2 251.2L478.2 242.3L489.2 235.6L500.3 239.1L511.3 240.6L522.4 240.7L533.4 243.5L544.4 246.7L555.5 245.5L566.5 248.6L577.5 246.6L588.6 244.4L599.6 241.4L610.6 244.6L621.7 243.7L632.7 234.5L643.8 237.8L654.8 235.1L665.8 230.8L676.9 219.5L687.9 216.8L687.9 290.9L676.9 291.3L665.8 301.6L654.8 303.5L643.8 308.3L632.7 307.4L621.7 314L610.6 313.9L599.6 312.9L588.6 315.5L577.5 319.3L566.5 322.4L555.5 322L544.4 327.5L533.4 326.8L522.4 325.5L511.3 324.9L500.3 327.5L489.2 328.1L478.2 332.8L467.2 340.9L456.1 348.3L445.1 355.2L434.1 361.1L423 366.8L412 365.5L401 365.1L389.9 368.6L378.9 370.5L367.8 374.8L356.8 386.4L345.8 385.9L334.7 392.9L323.7 398.5L312.7 401.6L301.6 407.2L290.6 409.3L279.6 406.4L268.5 407.9L257.5 412.9L246.5 415.8L235.4 415.6L224.4 418.4L213.3 424.3L202.3 430.4L191.3 437.3L180.2 441.5L169.2 443.1L158.2 450.9L147.1 456.5L136.1 459.9L125.1 464.7L114 466.5L103 467.1L91.9 470L80.9 474.5" fill="#ffd53e" fill-opacity="0.7" class="Europe-__0026-Central-Asia_0-area"></path><path stroke-linecap="round" d="M80.9 413.5L91.9 397.9L103 384.6L114 381.6L125.1 362.7L136.1 361.7L147.1 344.6L158.2 330.6L169.2 319.8L180.2 329L191.3 303.7L202.3 303.6L213.3 327.9L224.4 331.2L235.4 317.1L246.5 322.4L257.5 306.9L268.5 309.5L279.6 300.9L290.6 298.6L301.6 298.1L312.7 288.2L323.7 282L334.7 284.5L345.8 262L356.8 255.1L367.8 234.3L378.9 239.5L389.9 171.6L401 165.3L412 185.1L423 186L434.1 180.6L445.1 175.2L456.1 147.1L467.2 145.7L478.2 135.9L489.2 141.6L500.3 178.2L511.3 151.1L522.4 143L533.4 159.7L544.4 157.5L555.5 173L566.5 152L577.5 153.7L588.6 162.8L599.6 160.7L610.6 162.8L621.7 165.4L632.7 174.5L643.8 156.4L654.8 173.3L665.8 167.4L676.9 165.1L687.9 159.5L687.9 216.8L676.9 219.5L665.8 230.8L654.8 235.1L643.8 237.8L632.7 234.5L621.7 243.7L610.6 244.6L599.6 241.4L588.6 244.4L577.5 246.6L566.5 248.6L555.5 245.5L544.4 246.7L533.4 243.5L522.4 240.7L511.3 240.6L500.3 239.1L489.2 235.6L478.2 242.3L467.2 251.2L456.1 265.5L445.1 269.4L434.1 268.3L423 269.7L412 264.1L401 252.8L389.9 252.1L378.9 308.1L367.8 312.7L356.8 323.2L345.8 321.5L334.7 330.2L323.7 338.3L312.7 339.2L301.6 345.2L290.6 348.2L279.6 344.9L268.5 342.9L257.5 347.5L246.5 355.2L235.4 353.9L224.4 357.4L213.3 364.7L202.3 371.4L191.3 379.1L180.2 386.6L169.2 385.5L158.2 392.3L147.1 400.7L136.1 407.5L125.1 418.2L114 423.7L103 426.3L91.9 429.8L80.9 436.3" fill="#9ecc8a" fill-opacity="0.7" class="Latin-America-__0026-Caribbean_0-area"></path><path stroke-linecap="round" d="M80.9 395.7L91.9 378.9L103 365L114 362.7L125.1 344.5L136.1 342.7L147.1 326.1L158.2 313L169.2 300.8L180.2 310.3L191.3 283.2L202.3 283.1L213.3 308.7L224.4 311.8L235.4 297.9L246.5 303.4L257.5 286.3L268.5 288.5L279.6 277L290.6 274L301.6 273.3L312.7 263.1L323.7 255.7L334.7 257.5L345.8 232.5L356.8 224.9L367.8 202.9L378.9 203.8L389.9 135.6L401 130.4L412 149.4L423 153L434.1 148.4L445.1 142.1L456.1 114.3L467.2 115.5L478.2 106.6L489.2 112L500.3 150L511.3 122.4L522.4 114.7L533.4 130.1L544.4 127.7L555.5 143L566.5 121.7L577.5 123.9L588.6 133.6L599.6 132.3L610.6 136.8L621.7 139.9L632.7 148.3L643.8 127.1L654.8 144.3L665.8 138L676.9 136.5L687.9 130.6L687.9 159.5L676.9 165.1L665.8 167.4L654.8 173.3L643.8 156.4L632.7 174.5L621.7 165.4L610.6 162.8L599.6 160.7L588.6 162.8L577.5 153.7L566.5 152L555.5 173L544.4 157.5L533.4 159.7L522.4 143L511.3 151.1L500.3 178.2L489.2 141.6L478.2 135.9L467.2 145.7L456.1 147.1L445.1 175.2L434.1 180.6L423 186L412 185.1L401 165.3L389.9 171.6L378.9 239.5L367.8 234.3L356.8 255.1L345.8 262L334.7 284.5L323.7 282L312.7 288.2L301.6 298.1L290.6 298.6L279.6 300.9L268.5 309.5L257.5 306.9L246.5 322.4L235.4 317.1L224.4 331.2L213.3 327.9L202.3 303.6L191.3 303.7L180.2 329L169.2 319.8L158.2 330.6L147.1 344.6L136.1 361.7L125.1 362.7L114 381.6L103 384.6L91.9 397.9L80.9 413.5" fill="#34983f" fill-opacity="0.7" class="North-America_0-area"></path><path stroke-linecap="round" d="M80.9 386.1L91.9 368.4L103 353.8L114 350.8L125.1 331.3L136.1 329.1L147.1 311.6L158.2 296.6L169.2 281.9L180.2 291.5L191.3 266.8L202.3 266.4L213.3 290.3L224.4 292.7L235.4 278.9L246.5 285.4L257.5 269.7L268.5 272L279.6 260.6L290.6 258.2L301.6 258.2L312.7 247.5L323.7 240.3L334.7 241L345.8 216.5L356.8 208.6L367.8 185.5L378.9 182.4L389.9 114.5L401 111.1L412 129.6L423 134.7L434.1 125.9L445.1 120.1L456.1 93.6L467.2 93.5L478.2 84.8L489.2 89.2L500.3 126.3L511.3 97.8L522.4 89.2L533.4 104.1L544.4 101.7L555.5 115.3L566.5 92.7L577.5 95.1L588.6 106.8L599.6 104.7L610.6 109.2L621.7 112.4L632.7 119.1L643.8 97L654.8 112.1L665.8 106.4L676.9 104L687.9 97.4L687.9 130.6L676.9 136.5L665.8 138L654.8 144.3L643.8 127.1L632.7 148.3L621.7 139.9L610.6 136.8L599.6 132.3L588.6 133.6L577.5 123.9L566.5 121.7L555.5 143L544.4 127.7L533.4 130.1L522.4 114.7L511.3 122.4L500.3 150L489.2 112L478.2 106.6L467.2 115.5L456.1 114.3L445.1 142.1L434.1 148.4L423 153L412 149.4L401 130.4L389.9 135.6L378.9 203.8L367.8 202.9L356.8 224.9L345.8 232.5L334.7 257.5L323.7 255.7L312.7 263.1L301.6 273.3L290.6 274L279.6 277L268.5 288.5L257.5 286.3L246.5 303.4L235.4 297.9L224.4 311.8L213.3 308.7L202.3 283.1L191.3 283.2L180.2 310.3L169.2 300.8L158.2 313L147.1 326.1L136.1 342.7L125.1 344.5L114 362.7L103 365L91.9 378.9L80.9 395.7" fill="#3360a9" fill-opacity="0.7" class="Sub__002dSaharan-Africa_0-area"></path><path stroke-linecap="round" d="M80.9 383.8L91.9 366.1L103 351.3L114 348.3L125.1 328.5L136.1 326.3L147.1 308.3L158.2 293.5L169.2 279L180.2 288.5L191.3 263.7L202.3 263.2L213.3 286.8L224.4 288.4L235.4 274.4L246.5 281.2L257.5 265L268.5 267.5L279.6 256.1L290.6 253.5L301.6 253.4L312.7 242.7L323.7 235.2L334.7 235.3L345.8 210.7L356.8 202.4L367.8 178.5L378.9 175.2L389.9 106.4L401 103.3L412 121.5L423 126.4L434.1 117.4L445.1 111L456.1 83.5L467.2 82.7L478.2 75L489.2 78.4L500.3 115.7L511.3 86.8L522.4 77.5L533.4 91L544.4 89.2L555.5 102.8L566.5 80L577.5 81.9L588.6 93.8L599.6 92.2L610.6 96.6L621.7 98.6L632.7 105.7L643.8 84.4L654.8 97.5L665.8 91.3L676.9 88.2L687.9 81.6L687.9 97.4L676.9 104L665.8 106.4L654.8 112.1L643.8 97L632.7 119.1L621.7 112.4L610.6 109.2L599.6 104.7L588.6 106.8L577.5 95.1L566.5 92.7L555.5 115.3L544.4 101.7L533.4 104.1L522.4 89.2L511.3 97.8L500.3 126.3L489.2 89.2L478.2 84.8L467.2 93.5L456.1 93.6L445.1 120.1L434.1 125.9L423 134.7L412 129.6L401 111.1L389.9 114.5L378.9 182.4L367.8 185.5L356.8 208.6L345.8 216.5L334.7 241L323.7 240.3L312.7 247.5L301.6 258.2L290.6 258.2L279.6 260.6L268.5 272L257.5 269.7L246.5 285.4L235.4 278.9L224.4 292.7L213.3 290.3L202.3 266.4L191.3 266.8L180.2 291.5L169.2 281.9L158.2 296.6L147.1 311.6L136.1 329.1L125.1 331.3L114 350.8L103 353.8L91.9 368.4L80.9 386.1" fill="#2a939b" fill-opacity="0.7" class="Middle-East-__0026-North-Africa_0-area"></path><path stroke-linecap="round" d="M80.9 482.3L91.9 477.1L103 474.6L114 474.4L125.1 474.2L136.1 469.8L147.1 466.7L158.2 461.2L169.2 454.3L180.2 453.2L191.3 449.8L202.3 443.4L213.3 436.9L224.4 432.5L235.4 430.9L246.5 430.3L257.5 426.9L268.5 422.8L279.6 421.3L290.6 424.3L301.6 422.5L312.7 417L323.7 413.6L334.7 408.5L345.8 403.1L356.8 403.5L367.8 392.6L378.9 387.7L389.9 386.6L401 385.2L412 386.3L423 388.2L434.1 383L445.1 378.9L456.1 372.8L467.2 365.4L478.2 358.6L489.2 354.6L500.3 353.5L511.3 352.4L522.4 353.7L533.4 355.3L544.4 356.1L555.5 350.8L566.5 349.7L577.5 348.2L588.6 346.2L599.6 343.7L610.6 346.2L621.7 347.4L632.7 343.7L643.8 342.3L654.8 340.2L665.8 337.5L676.9 329.2L687.9 328.2" stroke="rgb(192, 43, 38)" stroke-opacity="0.7" stroke-width="0.5" fill="none" class="East-Asia-__0026-Pacific_0-border"></path><path stroke-linecap="round" d="M80.9 474.5L91.9 470L103 467.1L114 466.5L125.1 464.7L136.1 459.9L147.1 456.5L158.2 450.9L169.2 443.1L180.2 441.5L191.3 437.3L202.3 430.4L213.3 424.3L224.4 418.4L235.4 415.6L246.5 415.8L257.5 412.9L268.5 407.9L279.6 406.4L290.6 409.3L301.6 407.2L312.7 401.6L323.7 398.5L334.7 392.9L345.8 385.9L356.8 386.4L367.8 374.8L378.9 370.5L389.9 368.6L401 365.1L412 365.5L423 366.8L434.1 361.1L445.1 355.2L456.1 348.3L467.2 340.9L478.2 332.8L489.2 328.1L500.3 327.5L511.3 324.9L522.4 325.5L533.4 326.8L544.4 327.5L555.5 322L566.5 322.4L577.5 319.3L588.6 315.5L599.6 312.9L610.6 313.9L621.7 314L632.7 307.4L643.8 308.3L654.8 303.5L665.8 301.6L676.9 291.3L687.9 290.9" stroke="rgb(169, 32, 33)" stroke-opacity="0.7" stroke-width="0.5" fill="none" class="South-Asia_0-border"></path><path stroke-linecap="round" d="M80.9 436.3L91.9 429.8L103 426.3L114 423.7L125.1 418.2L136.1 407.5L147.1 400.7L158.2 392.3L169.2 385.5L180.2 386.6L191.3 379.1L202.3 371.4L213.3 364.7L224.4 357.4L235.4 353.9L246.5 355.2L257.5 347.5L268.5 342.9L279.6 344.9L290.6 348.2L301.6 345.2L312.7 339.2L323.7 338.3L334.7 330.2L345.8 321.5L356.8 323.2L367.8 312.7L378.9 308.1L389.9 252.1L401 252.8L412 264.1L423 269.7L434.1 268.3L445.1 269.4L456.1 265.5L467.2 251.2L478.2 242.3L489.2 235.6L500.3 239.1L511.3 240.6L522.4 240.7L533.4 243.5L544.4 246.7L555.5 245.5L566.5 248.6L577.5 246.6L588.6 244.4L599.6 241.4L610.6 244.6L621.7 243.7L632.7 234.5L643.8 237.8L654.8 235.1L665.8 230.8L676.9 219.5L687.9 216.8" stroke="rgb(213, 178, 52)" stroke-opacity="0.7" stroke-width="0.5" fill="none" class="Europe-__0026-Central-Asia_0-border"></path><path stroke-linecap="round" d="M80.9 413.5L91.9 397.9L103 384.6L114 381.6L125.1 362.7L136.1 361.7L147.1 344.6L158.2 330.6L169.2 319.8L180.2 329L191.3 303.7L202.3 303.6L213.3 327.9L224.4 331.2L235.4 317.1L246.5 322.4L257.5 306.9L268.5 309.5L279.6 300.9L290.6 298.6L301.6 298.1L312.7 288.2L323.7 282L334.7 284.5L345.8 262L356.8 255.1L367.8 234.3L378.9 239.5L389.9 171.6L401 165.3L412 185.1L423 186L434.1 180.6L445.1 175.2L456.1 147.1L467.2 145.7L478.2 135.9L489.2 141.6L500.3 178.2L511.3 151.1L522.4 143L533.4 159.7L544.4 157.5L555.5 173L566.5 152L577.5 153.7L588.6 162.8L599.6 160.7L610.6 162.8L621.7 165.4L632.7 174.5L643.8 156.4L654.8 173.3L665.8 167.4L676.9 165.1L687.9 159.5" stroke="rgb(132, 171, 115)" stroke-opacity="0.7" stroke-width="0.5" fill="none" class="Latin-America-__0026-Caribbean_0-border"></path><path stroke-linecap="round" d="M80.9 395.7L91.9 378.9L103 365L114 362.7L125.1 344.5L136.1 342.7L147.1 326.1L158.2 313L169.2 300.8L180.2 310.3L191.3 283.2L202.3 283.1L213.3 308.7L224.4 311.8L235.4 297.9L246.5 303.4L257.5 286.3L268.5 288.5L279.6 277L290.6 274L301.6 273.3L312.7 263.1L323.7 255.7L334.7 257.5L345.8 232.5L356.8 224.9L367.8 202.9L378.9 203.8L389.9 135.6L401 130.4L412 149.4L423 153L434.1 148.4L445.1 142.1L456.1 114.3L467.2 115.5L478.2 106.6L489.2 112L500.3 150L511.3 122.4L522.4 114.7L533.4 130.1L544.4 127.7L555.5 143L566.5 121.7L577.5 123.9L588.6 133.6L599.6 132.3L610.6 136.8L621.7 139.9L632.7 148.3L643.8 127.1L654.8 144.3L665.8 138L676.9 136.5L687.9 130.6" stroke="rgb(44, 127, 53)" stroke-opacity="0.7" stroke-width="0.5" fill="none" class="North-America_0-border"></path><path stroke-linecap="round" d="M80.9 386.1L91.9 368.4L103 353.8L114 350.8L125.1 331.3L136.1 329.1L147.1 311.6L158.2 296.6L169.2 281.9L180.2 291.5L191.3 266.8L202.3 266.4L213.3 290.3L224.4 292.7L235.4 278.9L246.5 285.4L257.5 269.7L268.5 272L279.6 260.6L290.6 258.2L301.6 258.2L312.7 247.5L323.7 240.3L334.7 241L345.8 216.5L356.8 208.6L367.8 185.5L378.9 182.4L389.9 114.5L401 111.1L412 129.6L423 134.7L434.1 125.9L445.1 120.1L456.1 93.6L467.2 93.5L478.2 84.8L489.2 89.2L500.3 126.3L511.3 97.8L522.4 89.2L533.4 104.1L544.4 101.7L555.5 115.3L566.5 92.7L577.5 95.1L588.6 106.8L599.6 104.7L610.6 109.2L621.7 112.4L632.7 119.1L643.8 97L654.8 112.1L665.8 106.4L676.9 104L687.9 97.4" stroke="rgb(43, 80, 141)" stroke-opacity="0.7" stroke-width="0.5" fill="none" class="Sub__002dSaharan-Africa_0-border"></path><path stroke-linecap="round" d="M80.9 383.8L91.9 366.1L103 351.3L114 348.3L125.1 328.5L136.1 326.3L147.1 308.3L158.2 293.5L169.2 279L180.2 288.5L191.3 263.7L202.3 263.2L213.3 286.8L224.4 288.4L235.4 274.4L246.5 281.2L257.5 265L268.5 267.5L279.6 256.1L290.6 253.5L301.6 253.4L312.7 242.7L323.7 235.2L334.7 235.3L345.8 210.7L356.8 202.4L367.8 178.5L378.9 175.2L389.9 106.4L401 103.3L412 121.5L423 126.4L434.1 117.4L445.1 111L456.1 83.5L467.2 82.7L478.2 75L489.2 78.4L500.3 115.7L511.3 86.8L522.4 77.5L533.4 91L544.4 89.2L555.5 102.8L566.5 80L577.5 81.9L588.6 93.8L599.6 92.2L610.6 96.6L621.7 98.6L632.7 105.7L643.8 84.4L654.8 97.5L665.8 91.3L676.9 88.2L687.9 81.6" stroke="rgb(35, 123, 130)" stroke-opacity="0.7" stroke-width="0.5" fill="none" class="Middle-East-__0026-North-Africa_0-border"></path></g></g></g><g style="fill: #777;" class="SourcesFooter"><g style="fill: #777;" class="clickable"><text font-size="11.20" x="15.0" y="581.9"><tspan x="15" y="581.86">Source: World Bank – WDI</tspan></text></g><text font-size="11.20" x="448.5" y="581.9"><tspan x="448.48800000000006" y="581.86"><a target='_blank' style='fill: #777;' href='https://ourworldindata.org/meat-and-seafood-production-consumption/'>OurWorldInData.org/meat-and-seafood-production-consumption/</a> • <a style="fill: #777;" href="http://creativecommons.org/licenses/by-sa/4.0/deed.en_US" target="_blank">CC BY-SA</a></tspan></text></g></g></svg>