<svg xmlns="http://www.w3.org/2000/svg" version="1.1" style="font-family: 'Helvetica Neue', Helvetica, Arial, sans-serif; font-size: 16px; background-color: white; text-rendering: optimizeLegibility; -webkit-font-smoothing: antialiased;" width="850" height="600"><g class="ChartTab"><g class="HeaderView"><g opacity="0.8" transform="translate(770, 15) scale(0.31)"><a xmlns:xlink="http://www.w3.org/1999/xlink" xlink:href="https://ourworldindata.org" target="_blank"><g><rect x="0" y="0" fill="#1B2543" width="211.2" height="130.1"/><rect x="0" y="112.2" fill="#E63912" width="211.2" height="17.9"/><g><rect x="1.2" y="12.3" fill="none" width="210.2" height="99.2"/><path fill="#FFFFFF" d="M37.8,32.2c0,12.7-7.7,19.4-17.1,19.4c-9.7,0-16.6-7.5-16.6-18.7c0-11.7,7.3-19.3,17.1-19.3 C31.3,13.7,37.8,21.3,37.8,32.2z M9.2,32.8c0,7.9,4.3,14.9,11.8,14.9c7.5,0,11.8-6.9,11.8-15.3c0-7.3-3.8-14.9-11.8-14.9 C13.1,17.5,9.2,24.8,9.2,32.8z"/><path fill="#FFFFFF" d="M62.7,43.8c0,2.7,0.1,5.1,0.2,7.2h-4.3l-0.3-4.3h-0.1c-1.3,2.1-4,4.9-8.8,4.9c-4.2,0-9.1-2.3-9.1-11.6 V24.6h4.8v14.6c0,5,1.5,8.4,5.9,8.4c3.2,0,5.5-2.2,6.3-4.4c0.3-0.7,0.4-1.6,0.4-2.5V24.6h4.8V43.8z"/><path fill="#FFFFFF" d="M67.3,32.8c0-3.1-0.1-5.8-0.2-8.2h4.2l0.2,5.2h0.2c1.2-3.5,4.1-5.8,7.3-5.8c0.5,0,0.9,0.1,1.4,0.2v4.5 c-0.5-0.1-1-0.2-1.6-0.2c-3.4,0-5.8,2.6-6.5,6.2c-0.1,0.7-0.2,1.4-0.2,2.2V51h-4.8V32.8z"/><path fill="#FFFFFF" d="M95.4,51l-9.4-36.8h5l4.4,18.6c1.1,4.6,2.1,9.2,2.7,12.7h0.1c0.6-3.7,1.8-8,3-12.8l4.9-18.5h5l4.5,18.7 c1,4.4,2,8.7,2.6,12.6h0.1c0.8-4,1.8-8.1,3-12.7l4.9-18.5h4.9L120.6,51h-5L111,31.9c-1.1-4.7-1.9-8.3-2.4-12h-0.1 c-0.7,3.7-1.5,7.3-2.8,12L100.4,51H95.4z"/><path fill="#FFFFFF" d="M154.9,37.6c0,9.8-6.8,14-13.2,14c-7.2,0-12.7-5.2-12.7-13.6c0-8.8,5.8-14,13.1-14 C149.8,24,154.9,29.5,154.9,37.6z M133.9,37.9c0,5.8,3.3,10.1,8,10.1c4.6,0,8-4.3,8-10.3c0-4.5-2.2-10.1-7.9-10.1 C136.3,27.6,133.9,32.8,133.9,37.9z"/><path fill="#FFFFFF" d="M158.2,32.8c0-3.1-0.1-5.8-0.2-8.2h4.2l0.2,5.2h0.2c1.2-3.5,4.1-5.8,7.3-5.8c0.5,0,0.9,0.1,1.4,0.2v4.5 c-0.5-0.1-1-0.2-1.6-0.2c-3.4,0-5.8,2.6-6.5,6.2c-0.1,0.7-0.2,1.4-0.2,2.2V51h-4.8V32.8z"/><path fill="#FFFFFF" d="M173.5,12.3h4.8V51h-4.8V12.3z"/><path fill="#FFFFFF" d="M206.5,12.3v31.9c0,2.3,0.1,5,0.2,6.8h-4.3l-0.2-4.6H202c-1.5,2.9-4.7,5.2-9,5.2 c-6.4,0-11.3-5.4-11.3-13.4c-0.1-8.8,5.4-14.2,11.9-14.2c4,0,6.8,1.9,8,4h0.1V12.3H206.5z M201.7,35.4c0-0.6-0.1-1.4-0.2-2 c-0.7-3.1-3.3-5.6-6.9-5.6c-5,0-7.9,4.4-7.9,10.2c0,5.3,2.6,9.8,7.8,9.8c3.2,0,6.2-2.1,7.1-5.7c0.2-0.7,0.2-1.3,0.2-2.1V35.4z"/><path fill="#FFFFFF" d="M42.8,64c0.1,1.6-1.1,2.9-3.1,2.9c-1.7,0-2.9-1.3-2.9-2.9c0-1.7,1.3-3,3-3C41.7,61,42.8,62.3,42.8,64z M37.4,97.8V71.4h4.8v26.4H37.4z"/><path fill="#FFFFFF" d="M47.5,78.6c0-2.7-0.1-5-0.2-7.1h4.3l0.3,4.4h0.1c1.3-2.5,4.4-5,8.8-5c3.7,0,9.4,2.2,9.4,11.2v15.8h-4.8 V82.6c0-4.3-1.6-7.8-6.1-7.8c-3.2,0-5.6,2.2-6.5,4.9c-0.2,0.6-0.3,1.4-0.3,2.2v15.9h-4.8V78.6z"/><path fill="#FFFFFF" d="M84,61.6c2.9-0.4,6.3-0.8,10.1-0.8c6.8,0,11.7,1.6,14.9,4.6c3.3,3,5.2,7.3,5.2,13.2c0,6-1.9,10.9-5.3,14.3 c-3.4,3.4-9.1,5.3-16.3,5.3c-3.4,0-6.2-0.2-8.6-0.4V61.6z M88.8,94.1c1.2,0.2,3,0.3,4.8,0.3c10.2,0,15.7-5.7,15.7-15.6 c0.1-8.7-4.9-14.2-14.9-14.2c-2.5,0-4.3,0.2-5.6,0.5V94.1z"/><path fill="#FFFFFF" d="M132.1,97.8l-0.4-3.3h-0.2c-1.5,2.1-4.3,3.9-8.1,3.9c-5.4,0-8.1-3.8-8.1-7.6c0-6.4,5.7-9.9,15.9-9.8v-0.5 c0-2.2-0.6-6.1-6-6.1c-2.5,0-5,0.8-6.9,2l-1.1-3.2c2.2-1.4,5.4-2.3,8.7-2.3c8.1,0,10.1,5.5,10.1,10.8v9.9c0,2.3,0.1,4.5,0.4,6.3 H132.1z M131.4,84.4c-5.3-0.1-11.2,0.8-11.2,5.9c0,3.1,2.1,4.6,4.5,4.6c3.4,0,5.6-2.2,6.4-4.4c0.2-0.5,0.3-1,0.3-1.5V84.4z"/><path fill="#FFFFFF" d="M146.6,63.9v7.6h6.9v3.7h-6.9v14.2c0,3.3,0.9,5.1,3.6,5.1c1.3,0,2.2-0.2,2.8-0.3l0.2,3.6 c-0.9,0.4-2.4,0.7-4.3,0.7c-2.2,0-4-0.7-5.2-2c-1.4-1.4-1.9-3.8-1.9-6.9V75.1h-4.1v-3.7h4.1v-6.3L146.6,63.9z"/><path fill="#FFFFFF" d="M171.4,97.8l-0.4-3.3h-0.2c-1.5,2.1-4.3,3.9-8.1,3.9c-5.4,0-8.1-3.8-8.1-7.6c0-6.4,5.7-9.9,15.9-9.8v-0.5 c0-2.2-0.6-6.1-6-6.1c-2.5,0-5,0.8-6.9,2l-1.1-3.2c2.2-1.4,5.4-2.3,8.7-2.3c8.1,0,10.1,5.5,10.1,10.8v9.9c0,2.3,0.1,4.5,0.4,6.3 H171.4z M170.7,84.4c-5.3-0.1-11.2,0.8-11.2,5.9c0,3.1,2.1,4.6,4.5,4.6c3.4,0,5.6-2.2,6.4-4.4c0.2-0.5,0.3-1,0.3-1.5V84.4z"/></g></g></a></g><a href="https://ourworldindata.org/grapher/capture-fisheries-vs-aquaculture-farmed-fish-production" target="_blank"><text font-size="24.00" x="15.0" y="34.2" fill="#555"><tspan x="15" y="34.2">Capture fisheries vs. aquaculture (farmed fish) production, World</tspan></text></a><text font-size="12.80" x="15.0" y="51.2" fill="#666"><tspan x="15" y="51.239999999999995">Annual production of seafood from wild-catch fisheries and aquaculture (farmed seafood) practices, measured in metric tonnes per</tspan><tspan x="15" y="65.32">year. Data is inclusive of all aquatic species, including aquatic animals and plants.</tspan></text></g><g class="LineChart"><defs><clipPath id="boundsClip-22"><rect x="78.97600000000001" y="0" width="830" height="940.3999999999999"></rect></clipPath></defs><g class="AxisBoxView"><g class="HorizontalAxis"><text x="89" y="557.9" fill="#666" text-anchor="middle" font-size="14.4">1960</text><text x="202.4" y="557.9" fill="#666" text-anchor="middle" font-size="14.4">1970</text><text x="315.9" y="557.9" fill="#666" text-anchor="middle" font-size="14.4">1980</text><text x="429.3" y="557.9" fill="#666" text-anchor="middle" font-size="14.4">1990</text><text x="542.8" y="557.9" fill="#666" text-anchor="middle" font-size="14.4">2000</text><text x="656.2" y="557.9" fill="#666" text-anchor="middle" font-size="14.4">2010</text><text x="713" y="557.9" fill="#666" text-anchor="middle" font-size="14.4">2015</text></g><g class="VerticalAxis"><text x="83.98" y="538.5" fill="#666" dominant-baseline="middle" text-anchor="end" font-size="14.4">0</text><text x="83.98" y="453.4" fill="#666" dominant-baseline="middle" text-anchor="end" font-size="14.4">20 million</text><text x="83.98" y="368.4" fill="#666" dominant-baseline="middle" text-anchor="end" font-size="14.4">40 million</text><text x="83.98" y="283.3" fill="#666" dominant-baseline="middle" text-anchor="end" font-size="14.4">60 million</text><text x="83.98" y="198.3" fill="#666" dominant-baseline="middle" text-anchor="end" font-size="14.4">80 million</text><text x="83.98" y="113.2" fill="#666" dominant-baseline="middle" text-anchor="end" font-size="14.4">100 million</text></g><g class="AxisGridLines"><line x1="88.98" y1="538.5" x2="712.98" y2="538.5" stroke="#ccc"></line><line x1="88.98" y1="453.4" x2="712.98" y2="453.4" stroke="#ddd" stroke-dasharray="3,2"></line><line x1="88.98" y1="368.4" x2="712.98" y2="368.4" stroke="#ddd" stroke-dasharray="3,2"></line><line x1="88.98" y1="283.3" x2="712.98" y2="283.3" stroke="#ddd" stroke-dasharray="3,2"></line><line x1="88.98" y1="198.3" x2="712.98" y2="198.3" stroke="#ddd" stroke-dasharray="3,2"></line><line x1="88.98" y1="113.2" x2="712.98" y2="113.2" stroke="#ddd" stroke-dasharray="3,2"></line></g><g class="AxisGridLines"><line x1="89" y1="538.50" x2="89" y2="87.70" stroke="#ddd" stroke-dasharray="3,2"></line><line x1="202.4" y1="538.50" x2="202.4" y2="87.70" stroke="#ddd" stroke-dasharray="3,2"></line><line x1="315.9" y1="538.50" x2="315.9" y2="87.70" stroke="#ddd" stroke-dasharray="3,2"></line><line x1="429.3" y1="538.50" x2="429.3" y2="87.70" stroke="#ddd" stroke-dasharray="3,2"></line><line x1="542.8" y1="538.50" x2="542.8" y2="87.70" stroke="#ddd" stroke-dasharray="3,2"></line><line x1="656.2" y1="538.50" x2="656.2" y2="87.70" stroke="#ddd" stroke-dasharray="3,2"></line></g></g><g clip-path="url(#boundsClip-22)"><g class="HeightedLegend clickable"><g class="legendMark"><rect x="722.976" y="81.3" width="83.608" height="12.8" fill="#fff" opacity="0"></rect><rect x="722.976" y="86.45" width="10" height="2.5" fill="#3360a9"></rect><text font-size="12.80" x="738.0" y="91.5" fill="#333"><tspan x="737.976" y="91.53999999999999">Aquaculture</tspan></text></g><g class="legendMark"><rect x="722.976" y="133.5" width="112.024" height="12.8" fill="#fff" opacity="0"></rect><rect x="722.976" y="138.65" width="10" height="2.5" fill="#e6332e"></rect><text font-size="12.80" x="738.0" y="143.7" fill="#333"><tspan x="737.976" y="143.74">Capture fisheries</tspan></text></g></g><g class="Lines"><rect x="89" y="88" width="624" height="451" fill="rgba(255,255,255,0)" opacity="0"></rect><g class="key-World_0"><path stroke="#3360a9" stroke-linecap="round" d="M89 530L100 530L112 530L123 529L134 528L146 527L157 527L168 526L180 525L191 525L202 524L214 522L225 520L237 519L248 518L259 516L271 516L282 512L293 511L305 510L316 507L327 505L339 504L350 500L361 495L373 490L384 485L395 479L407 473L418 468L429 467L441 461L452 448L463 434L475 420L486 406L497 395L509 393L520 383L531 370L543 361L554 350L566 337L577 325L588 306L600 293L611 277L622 262L634 246L645 228L656 207L668 187L679 156L690 126L702 109L713 88" fill="none" stroke-width="1.5"></path><g fill="#3360a9"><circle cx="89" cy="530" r="2"></circle><circle cx="100" cy="530" r="2"></circle><circle cx="112" cy="530" r="2"></circle><circle cx="123" cy="529" r="2"></circle><circle cx="134" cy="528" r="2"></circle><circle cx="146" cy="527" r="2"></circle><circle cx="157" cy="527" r="2"></circle><circle cx="168" cy="526" r="2"></circle><circle cx="180" cy="525" r="2"></circle><circle cx="191" cy="525" r="2"></circle><circle cx="202" cy="524" r="2"></circle><circle cx="214" cy="522" r="2"></circle><circle cx="225" cy="520" r="2"></circle><circle cx="237" cy="519" r="2"></circle><circle cx="248" cy="518" r="2"></circle><circle cx="259" cy="516" r="2"></circle><circle cx="271" cy="516" r="2"></circle><circle cx="282" cy="512" r="2"></circle><circle cx="293" cy="511" r="2"></circle><circle cx="305" cy="510" r="2"></circle><circle cx="316" cy="507" r="2"></circle><circle cx="327" cy="505" r="2"></circle><circle cx="339" cy="504" r="2"></circle><circle cx="350" cy="500" r="2"></circle><circle cx="361" cy="495" r="2"></circle><circle cx="373" cy="490" r="2"></circle><circle cx="384" cy="485" r="2"></circle><circle cx="395" cy="479" r="2"></circle><circle cx="407" cy="473" r="2"></circle><circle cx="418" cy="468" r="2"></circle><circle cx="429" cy="467" r="2"></circle><circle cx="441" cy="461" r="2"></circle><circle cx="452" cy="448" r="2"></circle><circle cx="463" cy="434" r="2"></circle><circle cx="475" cy="420" r="2"></circle><circle cx="486" cy="406" r="2"></circle><circle cx="497" cy="395" r="2"></circle><circle cx="509" cy="393" r="2"></circle><circle cx="520" cy="383" r="2"></circle><circle cx="531" cy="370" r="2"></circle><circle cx="543" cy="361" r="2"></circle><circle cx="554" cy="350" r="2"></circle><circle cx="566" cy="337" r="2"></circle><circle cx="577" cy="325" r="2"></circle><circle cx="588" cy="306" r="2"></circle><circle cx="600" cy="293" r="2"></circle><circle cx="611" cy="277" r="2"></circle><circle cx="622" cy="262" r="2"></circle><circle cx="634" cy="246" r="2"></circle><circle cx="645" cy="228" r="2"></circle><circle cx="656" cy="207" r="2"></circle><circle cx="668" cy="187" r="2"></circle><circle cx="679" cy="156" r="2"></circle><circle cx="690" cy="126" r="2"></circle><circle cx="702" cy="109" r="2"></circle><circle cx="713" cy="88" r="2"></circle></g></g><g class="key-World_1"><path stroke="#e6332e" stroke-linecap="round" d="M89 391L100 374L112 360L123 356L134 336L146 332L157 315L168 300L180 286L191 292L202 267L214 267L225 285L237 282L248 269L259 271L271 256L282 262L293 253L305 251L316 248L327 240L339 232L350 233L361 208L373 201L384 177L395 175L407 160L418 157L429 173L441 177L452 171L463 165L475 142L486 140L497 134L509 137L520 169L531 144L543 136L554 147L566 146L577 158L588 138L600 140L611 151L622 149L634 153L645 155L656 161L668 142L679 154L690 148L702 146L713 140" fill="none" stroke-width="1.5"></path><g fill="#e6332e"><circle cx="89" cy="391" r="2"></circle><circle cx="100" cy="374" r="2"></circle><circle cx="112" cy="360" r="2"></circle><circle cx="123" cy="356" r="2"></circle><circle cx="134" cy="336" r="2"></circle><circle cx="146" cy="332" r="2"></circle><circle cx="157" cy="315" r="2"></circle><circle cx="168" cy="300" r="2"></circle><circle cx="180" cy="286" r="2"></circle><circle cx="191" cy="292" r="2"></circle><circle cx="202" cy="267" r="2"></circle><circle cx="214" cy="267" r="2"></circle><circle cx="225" cy="285" r="2"></circle><circle cx="237" cy="282" r="2"></circle><circle cx="248" cy="269" r="2"></circle><circle cx="259" cy="271" r="2"></circle><circle cx="271" cy="256" r="2"></circle><circle cx="282" cy="262" r="2"></circle><circle cx="293" cy="253" r="2"></circle><circle cx="305" cy="251" r="2"></circle><circle cx="316" cy="248" r="2"></circle><circle cx="327" cy="240" r="2"></circle><circle cx="339" cy="232" r="2"></circle><circle cx="350" cy="233" r="2"></circle><circle cx="361" cy="208" r="2"></circle><circle cx="373" cy="201" r="2"></circle><circle cx="384" cy="177" r="2"></circle><circle cx="395" cy="175" r="2"></circle><circle cx="407" cy="160" r="2"></circle><circle cx="418" cy="157" r="2"></circle><circle cx="429" cy="173" r="2"></circle><circle cx="441" cy="177" r="2"></circle><circle cx="452" cy="171" r="2"></circle><circle cx="463" cy="165" r="2"></circle><circle cx="475" cy="142" r="2"></circle><circle cx="486" cy="140" r="2"></circle><circle cx="497" cy="134" r="2"></circle><circle cx="509" cy="137" r="2"></circle><circle cx="520" cy="169" r="2"></circle><circle cx="531" cy="144" r="2"></circle><circle cx="543" cy="136" r="2"></circle><circle cx="554" cy="147" r="2"></circle><circle cx="566" cy="146" r="2"></circle><circle cx="577" cy="158" r="2"></circle><circle cx="588" cy="138" r="2"></circle><circle cx="600" cy="140" r="2"></circle><circle cx="611" cy="151" r="2"></circle><circle cx="622" cy="149" r="2"></circle><circle cx="634" cy="153" r="2"></circle><circle cx="645" cy="155" r="2"></circle><circle cx="656" cy="161" r="2"></circle><circle cx="668" cy="142" r="2"></circle><circle cx="679" cy="154" r="2"></circle><circle cx="690" cy="148" r="2"></circle><circle cx="702" cy="146" r="2"></circle><circle cx="713" cy="140" r="2"></circle></g></g></g></g></g><g style="fill: #777;" class="SourcesFooter"><g style="fill: #777;" class="clickable"><text font-size="11.20" x="15.0" y="581.9"><tspan x="15" y="581.86">Source: World Bank- World Development Indicators</tspan></text></g><text font-size="11.20" x="448.5" y="581.9"><tspan x="448.48800000000006" y="581.86"><a target='_blank' style='fill: #777;' href='https://ourworldindata.org/meat-and-seafood-production-consumption/'>OurWorldInData.org/meat-and-seafood-production-consumption/</a> • <a style="fill: #777;" href="http://creativecommons.org/licenses/by-sa/4.0/deed.en_US" target="_blank">CC BY-SA</a></tspan></text></g></g></svg>