<svg xmlns="http://www.w3.org/2000/svg" version="1.1" style="font-family:&#x27;Helvetica Neue&#x27;, Helvetica, Arial, sans-serif;font-size:18px;background-color:white;text-rendering:optimizeLegibility;-webkit-font-smoothing:antialiased" width="850" height="600"><g class="ChartTab"><g class="HeaderView"><g opacity="0.8" transform="translate(778, 15) scale(0.27)"><a xmlns:xlink="http://www.w3.org/1999/xlink" xlink:href="https://ourworldindata.org" target="_blank"><g><rect x="0" y="0" fill="#1B2543" width="211.2" height="130.1"/><rect x="0" y="112.2" fill="#E63912" width="211.2" height="17.9"/><g><rect x="1.2" y="12.3" fill="none" width="210.2" height="99.2"/><path fill="#FFFFFF" d="M37.8,32.2c0,12.7-7.7,19.4-17.1,19.4c-9.7,0-16.6-7.5-16.6-18.7c0-11.7,7.3-19.3,17.1-19.3 C31.3,13.7,37.8,21.3,37.8,32.2z M9.2,32.8c0,7.9,4.3,14.9,11.8,14.9c7.5,0,11.8-6.9,11.8-15.3c0-7.3-3.8-14.9-11.8-14.9 C13.1,17.5,9.2,24.8,9.2,32.8z"/><path fill="#FFFFFF" d="M62.7,43.8c0,2.7,0.1,5.1,0.2,7.2h-4.3l-0.3-4.3h-0.1c-1.3,2.1-4,4.9-8.8,4.9c-4.2,0-9.1-2.3-9.1-11.6 V24.6h4.8v14.6c0,5,1.5,8.4,5.9,8.4c3.2,0,5.5-2.2,6.3-4.4c0.3-0.7,0.4-1.6,0.4-2.5V24.6h4.8V43.8z"/><path fill="#FFFFFF" d="M67.3,32.8c0-3.1-0.1-5.8-0.2-8.2h4.2l0.2,5.2h0.2c1.2-3.5,4.1-5.8,7.3-5.8c0.5,0,0.9,0.1,1.4,0.2v4.5 c-0.5-0.1-1-0.2-1.6-0.2c-3.4,0-5.8,2.6-6.5,6.2c-0.1,0.7-0.2,1.4-0.2,2.2V51h-4.8V32.8z"/><path fill="#FFFFFF" d="M95.4,51l-9.4-36.8h5l4.4,18.6c1.1,4.6,2.1,9.2,2.7,12.7h0.1c0.6-3.7,1.8-8,3-12.8l4.9-18.5h5l4.5,18.7 c1,4.4,2,8.7,2.6,12.6h0.1c0.8-4,1.8-8.1,3-12.7l4.9-18.5h4.9L120.6,51h-5L111,31.9c-1.1-4.7-1.9-8.3-2.4-12h-0.1 c-0.7,3.7-1.5,7.3-2.8,12L100.4,51H95.4z"/><path fill="#FFFFFF" d="M154.9,37.6c0,9.8-6.8,14-13.2,14c-7.2,0-12.7-5.2-12.7-13.6c0-8.8,5.8-14,13.1-14 C149.8,24,154.9,29.5,154.9,37.6z M133.9,37.9c0,5.8,3.3,10.1,8,10.1c4.6,0,8-4.3,8-10.3c0-4.5-2.2-10.1-7.9-10.1 C136.3,27.6,133.9,32.8,133.9,37.9z"/><path fill="#FFFFFF" d="M158.2,32.8c0-3.1-0.1-5.8-0.2-8.2h4.2l0.2,5.2h0.2c1.2-3.5,4.1-5.8,7.3-5.8c0.5,0,0.9,0.1,1.4,0.2v4.5 c-0.5-0.1-1-0.2-1.6-0.2c-3.4,0-5.8,2.6-6.5,6.2c-0.1,0.7-0.2,1.4-0.2,2.2V51h-4.8V32.8z"/><path fill="#FFFFFF" d="M173.5,12.3h4.8V51h-4.8V12.3z"/><path fill="#FFFFFF" d="M206.5,12.3v31.9c0,2.3,0.1,5,0.2,6.8h-4.3l-0.2-4.6H202c-1.5,2.9-4.7,5.2-9,5.2 c-6.4,0-11.3-5.4-11.3-13.4c-0.1-8.8,5.4-14.2,11.9-14.2c4,0,6.8,1.9,8,4h0.1V12.3H206.5z M201.7,35.4c0-0.6-0.1-1.4-0.2-2 c-0.7-3.1-3.3-5.6-6.9-5.6c-5,0-7.9,4.4-7.9,10.2c0,5.3,2.6,9.8,7.8,9.8c3.2,0,6.2-2.1,7.1-5.7c0.2-0.7,0.2-1.3,0.2-2.1V35.4z"/><path fill="#FFFFFF" d="M42.8,64c0.1,1.6-1.1,2.9-3.1,2.9c-1.7,0-2.9-1.3-2.9-2.9c0-1.7,1.3-3,3-3C41.7,61,42.8,62.3,42.8,64z M37.4,97.8V71.4h4.8v26.4H37.4z"/><path fill="#FFFFFF" d="M47.5,78.6c0-2.7-0.1-5-0.2-7.1h4.3l0.3,4.4h0.1c1.3-2.5,4.4-5,8.8-5c3.7,0,9.4,2.2,9.4,11.2v15.8h-4.8 V82.6c0-4.3-1.6-7.8-6.1-7.8c-3.2,0-5.6,2.2-6.5,4.9c-0.2,0.6-0.3,1.4-0.3,2.2v15.9h-4.8V78.6z"/><path fill="#FFFFFF" d="M84,61.6c2.9-0.4,6.3-0.8,10.1-0.8c6.8,0,11.7,1.6,14.9,4.6c3.3,3,5.2,7.3,5.2,13.2c0,6-1.9,10.9-5.3,14.3 c-3.4,3.4-9.1,5.3-16.3,5.3c-3.4,0-6.2-0.2-8.6-0.4V61.6z M88.8,94.1c1.2,0.2,3,0.3,4.8,0.3c10.2,0,15.7-5.7,15.7-15.6 c0.1-8.7-4.9-14.2-14.9-14.2c-2.5,0-4.3,0.2-5.6,0.5V94.1z"/><path fill="#FFFFFF" d="M132.1,97.8l-0.4-3.3h-0.2c-1.5,2.1-4.3,3.9-8.1,3.9c-5.4,0-8.1-3.8-8.1-7.6c0-6.4,5.7-9.9,15.9-9.8v-0.5 c0-2.2-0.6-6.1-6-6.1c-2.5,0-5,0.8-6.9,2l-1.1-3.2c2.2-1.4,5.4-2.3,8.7-2.3c8.1,0,10.1,5.5,10.1,10.8v9.9c0,2.3,0.1,4.5,0.4,6.3 H132.1z M131.4,84.4c-5.3-0.1-11.2,0.8-11.2,5.9c0,3.1,2.1,4.6,4.5,4.6c3.4,0,5.6-2.2,6.4-4.4c0.2-0.5,0.3-1,0.3-1.5V84.4z"/><path fill="#FFFFFF" d="M146.6,63.9v7.6h6.9v3.7h-6.9v14.2c0,3.3,0.9,5.1,3.6,5.1c1.3,0,2.2-0.2,2.8-0.3l0.2,3.6 c-0.9,0.4-2.4,0.7-4.3,0.7c-2.2,0-4-0.7-5.2-2c-1.4-1.4-1.9-3.8-1.9-6.9V75.1h-4.1v-3.7h4.1v-6.3L146.6,63.9z"/><path fill="#FFFFFF" d="M171.4,97.8l-0.4-3.3h-0.2c-1.5,2.1-4.3,3.9-8.1,3.9c-5.4,0-8.1-3.8-8.1-7.6c0-6.4,5.7-9.9,15.9-9.8v-0.5 c0-2.2-0.6-6.1-6-6.1c-2.5,0-5,0.8-6.9,2l-1.1-3.2c2.2-1.4,5.4-2.3,8.7-2.3c8.1,0,10.1,5.5,10.1,10.8v9.9c0,2.3,0.1,4.5,0.4,6.3 H171.4z M170.7,84.4c-5.3-0.1-11.2,0.8-11.2,5.9c0,3.1,2.1,4.6,4.5,4.6c3.4,0,5.6-2.2,6.4-4.4c0.2-0.5,0.3-1,0.3-1.5V84.4z"/></g></g></a></g><a href="https://ourworldindata.org/grapher/cardiovascular-disease-deaths-by-age" target="_blank"><text font-size="25.20" x="15.0" y="35.2" fill="#555"><tspan x="15" y="35.160000000000004">Cardiovascular disease deaths by age, World</tspan></text></a><text font-size="14.40" x="15.0" y="53.7" fill="#666"><tspan x="15" y="53.72">Annual number of deaths from cardiovascular disease, differentiated by age category.</tspan></text></g><g class="StackedArea"><defs><clipPath id="boundsClip-404"><rect x="88.526" y="0" width="820" height="959.8"></rect></clipPath></defs><g class="AxisBoxView"><g class="HorizontalAxis"><text x="88.5" y="556.5" fill="#666" text-anchor="middle" font-size="16.2">1990</text><text x="207.4" y="556.5" fill="#666" text-anchor="middle" font-size="16.2">1995</text><text x="326.2" y="556.5" fill="#666" text-anchor="middle" font-size="16.2">2000</text><text x="445.1" y="556.5" fill="#666" text-anchor="middle" font-size="16.2">2005</text><text x="564" y="556.5" fill="#666" text-anchor="middle" font-size="16.2">2010</text><text x="706.6" y="556.5" fill="#666" text-anchor="middle" font-size="16.2">2016</text></g><g class="VerticalAxis"><text x="83.53" y="535.3" fill="#666" dominant-baseline="middle" text-anchor="end" font-size="16.2">0</text><text x="83.53" y="483.3" fill="#666" dominant-baseline="middle" text-anchor="end" font-size="16.2">2 million</text><text x="83.53" y="431.3" fill="#666" dominant-baseline="middle" text-anchor="end" font-size="16.2">4 million</text><text x="83.53" y="379.3" fill="#666" dominant-baseline="middle" text-anchor="end" font-size="16.2">6 million</text><text x="83.53" y="327.4" fill="#666" dominant-baseline="middle" text-anchor="end" font-size="16.2">8 million</text><text x="83.53" y="275.4" fill="#666" dominant-baseline="middle" text-anchor="end" font-size="16.2">10 million</text><text x="83.53" y="223.4" fill="#666" dominant-baseline="middle" text-anchor="end" font-size="16.2">12 million</text><text x="83.53" y="171.4" fill="#666" dominant-baseline="middle" text-anchor="end" font-size="16.2">14 million</text><text x="83.53" y="119.4" fill="#666" dominant-baseline="middle" text-anchor="end" font-size="16.2">16 million</text></g><g class="AxisGridLines"><line x1="88.53" y1="535.3" x2="706.58" y2="535.3" stroke="#ccc"></line><line x1="88.53" y1="483.3" x2="706.58" y2="483.3" stroke="#ddd" stroke-dasharray="3,2"></line><line x1="88.53" y1="431.3" x2="706.58" y2="431.3" stroke="#ddd" stroke-dasharray="3,2"></line><line x1="88.53" y1="379.3" x2="706.58" y2="379.3" stroke="#ddd" stroke-dasharray="3,2"></line><line x1="88.53" y1="327.4" x2="706.58" y2="327.4" stroke="#ddd" stroke-dasharray="3,2"></line><line x1="88.53" y1="275.4" x2="706.58" y2="275.4" stroke="#ddd" stroke-dasharray="3,2"></line><line x1="88.53" y1="223.4" x2="706.58" y2="223.4" stroke="#ddd" stroke-dasharray="3,2"></line><line x1="88.53" y1="171.4" x2="706.58" y2="171.4" stroke="#ddd" stroke-dasharray="3,2"></line><line x1="88.53" y1="119.4" x2="706.58" y2="119.4" stroke="#ddd" stroke-dasharray="3,2"></line></g></g><g clip-path="url(#boundsClip-404)"><g class="HeightedLegend clickable"><g class="legendMark"><g class="indicator"><line x1="711.5799999999999" y1="534.9" x2="730.7466666666666" y2="534.9" stroke="#666" stroke-width="0.5"></line><line x1="730.7466666666666" y1="534.9" x2="730.7466666666666" y2="528.55" stroke="#666" stroke-width="0.5"></line><line x1="730.7466666666666" y1="528.55" x2="736.5799999999999" y2="528.55" stroke="#666" stroke-width="0.5"></line></g><rect x="706.5799999999999" y="521.8" width="90.62" height="13.5" fill="#fff" opacity="0"></rect><text font-size="13.50" x="741.6" y="532.6" fill="#3360a9"><tspan x="741.5799999999999" y="532.5999999999999">Under-5s</tspan></text></g><g class="legendMark"><g class="indicator"><line x1="711.5799999999999" y1="534.3" x2="724.0799999999999" y2="534.3" stroke="#666" stroke-width="0.5"></line><line x1="724.0799999999999" y1="534.3" x2="724.0799999999999" y2="513.05" stroke="#666" stroke-width="0.5"></line><line x1="724.0799999999999" y1="513.05" x2="736.5799999999999" y2="513.05" stroke="#666" stroke-width="0.5"></line></g><rect x="706.5799999999999" y="506.29999999999995" width="120.86" height="13.5" fill="#fff" opacity="0"></rect><text font-size="13.50" x="741.6" y="517.1" fill="#ca2628"><tspan x="741.5799999999999" y="517.0999999999999">5-14 years old</tspan></text></g><g class="legendMark"><g class="indicator"><line x1="711.5799999999999" y1="516.6" x2="717.4133333333333" y2="516.6" stroke="#666" stroke-width="0.5"></line><line x1="717.4133333333333" y1="516.6" x2="717.4133333333333" y2="497.54999999999995" stroke="#666" stroke-width="0.5"></line><line x1="717.4133333333333" y1="497.54999999999995" x2="736.5799999999999" y2="497.54999999999995" stroke="#666" stroke-width="0.5"></line></g><rect x="706.5799999999999" y="490.79999999999995" width="128.42000000000002" height="13.5" fill="#fff" opacity="0"></rect><text font-size="13.50" x="741.6" y="501.6" fill="#ffd53e"><tspan x="741.5799999999999" y="501.59999999999997">15-49 years old</tspan></text></g><g class="legendMark"><g class="indicator"><line x1="711.5799999999999" y1="432.3" x2="724.0799999999999" y2="432.3" stroke="#666" stroke-width="0.5"></line><line x1="724.0799999999999" y1="432.3" x2="724.0799999999999" y2="432.3" stroke="#666" stroke-width="0.5"></line><line x1="724.0799999999999" y1="432.3" x2="736.5799999999999" y2="432.3" stroke="#666" stroke-width="0.5"></line></g><rect x="706.5799999999999" y="425.55" width="128.42000000000002" height="13.5" fill="#fff" opacity="0"></rect><text font-size="13.50" x="741.6" y="436.4" fill="#9ecc8a"><tspan x="741.5799999999999" y="436.35">50-69 years old</tspan></text></g><g class="legendMark"><g class="indicator"><line x1="711.5799999999999" y1="221" x2="724.0799999999999" y2="221" stroke="#666" stroke-width="0.5"></line><line x1="724.0799999999999" y1="221" x2="724.0799999999999" y2="221" stroke="#666" stroke-width="0.5"></line><line x1="724.0799999999999" y1="221" x2="736.5799999999999" y2="221" stroke="#666" stroke-width="0.5"></line></g><rect x="706.5799999999999" y="214.25" width="116.67500000000001" height="13.5" fill="#fff" opacity="0"></rect><text font-size="13.50" x="741.6" y="225.1" fill="#34983f"><tspan x="741.5799999999999" y="225.05">70+ years old</tspan></text></g></g><g class="Areas"><rect x="88.526" y="76.6" width="618.054" height="458.69999999999993" opacity="0" fill="rgba(255,255,255,0)"></rect><path class="World_0-area" stroke-linecap="round" d="M88.5 533.1L112.3 533.2L136.1 533.3L159.8 533.3L183.6 533.4L207.4 533.5L231.2 533.6L254.9 533.6L278.7 533.7L302.5 533.8L326.2 533.8L350 533.9L373.8 534L397.6 534L421.3 534.1L445.1 534.1L468.9 534.1L492.6 534.1L516.4 534.2L540.2 534.2L564 534.2L587.7 534.3L611.5 534.3L635.3 534.4L659 534.4L682.8 534.5L706.6 534.5L706.5799999999999 535.3L88.526 535.3" fill="#3360a9" fill-opacity="0.7"></path><path class="World_1-area" stroke-linecap="round" d="M88.5 532.2L112.3 532.3L136.1 532.4L159.8 532.5L183.6 532.6L207.4 532.6L231.2 532.7L254.9 532.7L278.7 532.8L302.5 532.9L326.2 533L350 533.1L373.8 533.2L397.6 533.3L421.3 533.4L445.1 533.4L468.9 533.5L492.6 533.5L516.4 533.6L540.2 533.6L564 533.7L587.7 533.7L611.5 533.8L635.3 533.8L659 533.9L682.8 534L706.6 534L706.6 534.5L682.8 534.5L659 534.4L635.3 534.4L611.5 534.3L587.7 534.3L564 534.2L540.2 534.2L516.4 534.2L492.6 534.1L468.9 534.1L445.1 534.1L421.3 534.1L397.6 534L373.8 534L350 533.9L326.2 533.8L302.5 533.8L278.7 533.7L254.9 533.6L231.2 533.6L207.4 533.5L183.6 533.4L159.8 533.3L136.1 533.3L112.3 533.2L88.5 533.1" fill="#ca2628" fill-opacity="0.7"></path><path class="World_4-area" stroke-linecap="round" d="M88.5 504.3L112.3 503.6L136.1 502.6L159.8 501.3L183.6 500.2L207.4 499.5L231.2 499.2L254.9 499L278.7 498.8L302.5 498.3L326.2 497.9L350 497.6L373.8 497.3L397.6 497.4L421.3 497.7L445.1 497.6L468.9 497.8L492.6 497.9L516.4 497.9L540.2 498.1L564 498.2L587.7 498.4L611.5 498.5L635.3 498.7L659 498.8L682.8 498.9L706.6 499.1L706.6 534L682.8 534L659 533.9L635.3 533.8L611.5 533.8L587.7 533.7L564 533.7L540.2 533.6L516.4 533.6L492.6 533.5L468.9 533.5L445.1 533.4L421.3 533.4L397.6 533.3L373.8 533.2L350 533.1L326.2 533L302.5 532.9L278.7 532.8L254.9 532.7L231.2 532.7L207.4 532.6L183.6 532.6L159.8 532.5L136.1 532.4L112.3 532.3L88.5 532.2" fill="#ffd53e" fill-opacity="0.7"></path><path class="World_2-area" stroke-linecap="round" d="M88.5 402.7L112.3 401.1L136.1 397.7L159.8 392.9L183.6 389.1L207.4 388.1L231.2 388.5L254.9 388.6L278.7 388.7L302.5 386.4L326.2 384.3L350 383.2L373.8 381.8L397.6 380.9L421.3 380.4L445.1 379.3L468.9 380.7L492.6 381.1L516.4 380.5L540.2 380.4L564 378.8L587.7 377.9L611.5 375.7L635.3 373.2L659 370L682.8 367.5L706.6 365.5L706.6 499.1L682.8 498.9L659 498.8L635.3 498.7L611.5 498.5L587.7 498.4L564 498.2L540.2 498.1L516.4 497.9L492.6 497.9L468.9 497.8L445.1 497.6L421.3 497.7L397.6 497.4L373.8 497.3L350 497.6L326.2 497.9L302.5 498.3L278.7 498.8L254.9 499L231.2 499.2L207.4 499.5L183.6 500.2L159.8 501.3L136.1 502.6L112.3 503.6L88.5 504.3" fill="#9ecc8a" fill-opacity="0.7"></path><path class="World_3-area" stroke-linecap="round" d="M88.5 214.7L112.3 210.3L136.1 202.7L159.8 191.5L183.6 183L207.4 178.7L231.2 177.5L254.9 175.5L278.7 171.9L302.5 163.6L326.2 156.8L350 150.8L373.8 143.4L397.6 140.9L421.3 139.5L445.1 134L468.9 134.5L492.6 131.5L516.4 126.1L540.2 122.1L564 115.6L587.7 112.6L611.5 106.5L635.3 101.1L659 93.8L682.8 86.3L706.6 76.6L706.6 365.5L682.8 367.5L659 370L635.3 373.2L611.5 375.7L587.7 377.9L564 378.8L540.2 380.4L516.4 380.5L492.6 381.1L468.9 380.7L445.1 379.3L421.3 380.4L397.6 380.9L373.8 381.8L350 383.2L326.2 384.3L302.5 386.4L278.7 388.7L254.9 388.6L231.2 388.5L207.4 388.1L183.6 389.1L159.8 392.9L136.1 397.7L112.3 401.1L88.5 402.7" fill="#34983f" fill-opacity="0.7"></path><path class="World_0-border" stroke-linecap="round" d="M88.5 533.1L112.3 533.2L136.1 533.3L159.8 533.3L183.6 533.4L207.4 533.5L231.2 533.6L254.9 533.6L278.7 533.7L302.5 533.8L326.2 533.8L350 533.9L373.8 534L397.6 534L421.3 534.1L445.1 534.1L468.9 534.1L492.6 534.1L516.4 534.2L540.2 534.2L564 534.2L587.7 534.3L611.5 534.3L635.3 534.4L659 534.4L682.8 534.5L706.6 534.5" stroke="rgb(43, 80, 141)" stroke-opacity="0.7" stroke-width="0.5" fill="none"></path><path class="World_1-border" stroke-linecap="round" d="M88.5 532.2L112.3 532.3L136.1 532.4L159.8 532.5L183.6 532.6L207.4 532.6L231.2 532.7L254.9 532.7L278.7 532.8L302.5 532.9L326.2 533L350 533.1L373.8 533.2L397.6 533.3L421.3 533.4L445.1 533.4L468.9 533.5L492.6 533.5L516.4 533.6L540.2 533.6L564 533.7L587.7 533.7L611.5 533.8L635.3 533.8L659 533.9L682.8 534L706.6 534" stroke="rgb(169, 32, 33)" stroke-opacity="0.7" stroke-width="0.5" fill="none"></path><path class="World_4-border" stroke-linecap="round" d="M88.5 504.3L112.3 503.6L136.1 502.6L159.8 501.3L183.6 500.2L207.4 499.5L231.2 499.2L254.9 499L278.7 498.8L302.5 498.3L326.2 497.9L350 497.6L373.8 497.3L397.6 497.4L421.3 497.7L445.1 497.6L468.9 497.8L492.6 497.9L516.4 497.9L540.2 498.1L564 498.2L587.7 498.4L611.5 498.5L635.3 498.7L659 498.8L682.8 498.9L706.6 499.1" stroke="rgb(213, 178, 52)" stroke-opacity="0.7" stroke-width="0.5" fill="none"></path><path class="World_2-border" stroke-linecap="round" d="M88.5 402.7L112.3 401.1L136.1 397.7L159.8 392.9L183.6 389.1L207.4 388.1L231.2 388.5L254.9 388.6L278.7 388.7L302.5 386.4L326.2 384.3L350 383.2L373.8 381.8L397.6 380.9L421.3 380.4L445.1 379.3L468.9 380.7L492.6 381.1L516.4 380.5L540.2 380.4L564 378.8L587.7 377.9L611.5 375.7L635.3 373.2L659 370L682.8 367.5L706.6 365.5" stroke="rgb(132, 171, 115)" stroke-opacity="0.7" stroke-width="0.5" fill="none"></path><path class="World_3-border" stroke-linecap="round" d="M88.5 214.7L112.3 210.3L136.1 202.7L159.8 191.5L183.6 183L207.4 178.7L231.2 177.5L254.9 175.5L278.7 171.9L302.5 163.6L326.2 156.8L350 150.8L373.8 143.4L397.6 140.9L421.3 139.5L445.1 134L468.9 134.5L492.6 131.5L516.4 126.1L540.2 122.1L564 115.6L587.7 112.6L611.5 106.5L635.3 101.1L659 93.8L682.8 86.3L706.6 76.6" stroke="rgb(44, 127, 53)" stroke-opacity="0.7" stroke-width="0.5" fill="none"></path></g></g></g><g class="SourcesFooter" style="fill:#777"><g class="clickable" style="fill:#777"><text font-size="12.60" x="15.0" y="581.6"><tspan x="15" y="581.58">Source: IHME, Global Burden of Disease (GBD)</tspan></text></g><text font-size="12.60" x="775.4" y="581.6"><tspan x="775.402" y="581.58"><a style="fill: #777;" class="cclogo" href="http://creativecommons.org/licenses/by-sa/4.0/deed.en_US" target="_blank">CC BY-SA</a></tspan></text></g></g></svg>