<svg xmlns="http://www.w3.org/2000/svg" version="1.1" style="font-family: 'Helvetica Neue', Helvetica, Arial, sans-serif; font-size: 16px; background-color: white; text-rendering: optimizeLegibility; -webkit-font-smoothing: antialiased;" width="850" height="600"><g class="ChartTab"><g class="HeaderView"><g opacity="0.8" transform="translate(770, 15) scale(0.31)"><a xmlns:xlink="http://www.w3.org/1999/xlink" xlink:href="https://ourworldindata.org" target="_blank"><g><rect x="0" y="0" fill="#1B2543" width="211.2" height="130.1"/><rect x="0" y="112.2" fill="#E63912" width="211.2" height="17.9"/><g><rect x="1.2" y="12.3" fill="none" width="210.2" height="99.2"/><path fill="#FFFFFF" d="M37.8,32.2c0,12.7-7.7,19.4-17.1,19.4c-9.7,0-16.6-7.5-16.6-18.7c0-11.7,7.3-19.3,17.1-19.3 C31.3,13.7,37.8,21.3,37.8,32.2z M9.2,32.8c0,7.9,4.3,14.9,11.8,14.9c7.5,0,11.8-6.9,11.8-15.3c0-7.3-3.8-14.9-11.8-14.9 C13.1,17.5,9.2,24.8,9.2,32.8z"/><path fill="#FFFFFF" d="M62.7,43.8c0,2.7,0.1,5.1,0.2,7.2h-4.3l-0.3-4.3h-0.1c-1.3,2.1-4,4.9-8.8,4.9c-4.2,0-9.1-2.3-9.1-11.6 V24.6h4.8v14.6c0,5,1.5,8.4,5.9,8.4c3.2,0,5.5-2.2,6.3-4.4c0.3-0.7,0.4-1.6,0.4-2.5V24.6h4.8V43.8z"/><path fill="#FFFFFF" d="M67.3,32.8c0-3.1-0.1-5.8-0.2-8.2h4.2l0.2,5.2h0.2c1.2-3.5,4.1-5.8,7.3-5.8c0.5,0,0.9,0.1,1.4,0.2v4.5 c-0.5-0.1-1-0.2-1.6-0.2c-3.4,0-5.8,2.6-6.5,6.2c-0.1,0.7-0.2,1.4-0.2,2.2V51h-4.8V32.8z"/><path fill="#FFFFFF" d="M95.4,51l-9.4-36.8h5l4.4,18.6c1.1,4.6,2.1,9.2,2.7,12.7h0.1c0.6-3.7,1.8-8,3-12.8l4.9-18.5h5l4.5,18.7 c1,4.4,2,8.7,2.6,12.6h0.1c0.8-4,1.8-8.1,3-12.7l4.9-18.5h4.9L120.6,51h-5L111,31.9c-1.1-4.7-1.9-8.3-2.4-12h-0.1 c-0.7,3.7-1.5,7.3-2.8,12L100.4,51H95.4z"/><path fill="#FFFFFF" d="M154.9,37.6c0,9.8-6.8,14-13.2,14c-7.2,0-12.7-5.2-12.7-13.6c0-8.8,5.8-14,13.1-14 C149.8,24,154.9,29.5,154.9,37.6z M133.9,37.9c0,5.8,3.3,10.1,8,10.1c4.6,0,8-4.3,8-10.3c0-4.5-2.2-10.1-7.9-10.1 C136.3,27.6,133.9,32.8,133.9,37.9z"/><path fill="#FFFFFF" d="M158.2,32.8c0-3.1-0.1-5.8-0.2-8.2h4.2l0.2,5.2h0.2c1.2-3.5,4.1-5.8,7.3-5.8c0.5,0,0.9,0.1,1.4,0.2v4.5 c-0.5-0.1-1-0.2-1.6-0.2c-3.4,0-5.8,2.6-6.5,6.2c-0.1,0.7-0.2,1.4-0.2,2.2V51h-4.8V32.8z"/><path fill="#FFFFFF" d="M173.5,12.3h4.8V51h-4.8V12.3z"/><path fill="#FFFFFF" d="M206.5,12.3v31.9c0,2.3,0.1,5,0.2,6.8h-4.3l-0.2-4.6H202c-1.5,2.9-4.7,5.2-9,5.2 c-6.4,0-11.3-5.4-11.3-13.4c-0.1-8.8,5.4-14.2,11.9-14.2c4,0,6.8,1.9,8,4h0.1V12.3H206.5z M201.7,35.4c0-0.6-0.1-1.4-0.2-2 c-0.7-3.1-3.3-5.6-6.9-5.6c-5,0-7.9,4.4-7.9,10.2c0,5.3,2.6,9.8,7.8,9.8c3.2,0,6.2-2.1,7.1-5.7c0.2-0.7,0.2-1.3,0.2-2.1V35.4z"/><path fill="#FFFFFF" d="M42.8,64c0.1,1.6-1.1,2.9-3.1,2.9c-1.7,0-2.9-1.3-2.9-2.9c0-1.7,1.3-3,3-3C41.7,61,42.8,62.3,42.8,64z M37.4,97.8V71.4h4.8v26.4H37.4z"/><path fill="#FFFFFF" d="M47.5,78.6c0-2.7-0.1-5-0.2-7.1h4.3l0.3,4.4h0.1c1.3-2.5,4.4-5,8.8-5c3.7,0,9.4,2.2,9.4,11.2v15.8h-4.8 V82.6c0-4.3-1.6-7.8-6.1-7.8c-3.2,0-5.6,2.2-6.5,4.9c-0.2,0.6-0.3,1.4-0.3,2.2v15.9h-4.8V78.6z"/><path fill="#FFFFFF" d="M84,61.6c2.9-0.4,6.3-0.8,10.1-0.8c6.8,0,11.7,1.6,14.9,4.6c3.3,3,5.2,7.3,5.2,13.2c0,6-1.9,10.9-5.3,14.3 c-3.4,3.4-9.1,5.3-16.3,5.3c-3.4,0-6.2-0.2-8.6-0.4V61.6z M88.8,94.1c1.2,0.2,3,0.3,4.8,0.3c10.2,0,15.7-5.7,15.7-15.6 c0.1-8.7-4.9-14.2-14.9-14.2c-2.5,0-4.3,0.2-5.6,0.5V94.1z"/><path fill="#FFFFFF" d="M132.1,97.8l-0.4-3.3h-0.2c-1.5,2.1-4.3,3.9-8.1,3.9c-5.4,0-8.1-3.8-8.1-7.6c0-6.4,5.7-9.9,15.9-9.8v-0.5 c0-2.2-0.6-6.1-6-6.1c-2.5,0-5,0.8-6.9,2l-1.1-3.2c2.2-1.4,5.4-2.3,8.7-2.3c8.1,0,10.1,5.5,10.1,10.8v9.9c0,2.3,0.1,4.5,0.4,6.3 H132.1z M131.4,84.4c-5.3-0.1-11.2,0.8-11.2,5.9c0,3.1,2.1,4.6,4.5,4.6c3.4,0,5.6-2.2,6.4-4.4c0.2-0.5,0.3-1,0.3-1.5V84.4z"/><path fill="#FFFFFF" d="M146.6,63.9v7.6h6.9v3.7h-6.9v14.2c0,3.3,0.9,5.1,3.6,5.1c1.3,0,2.2-0.2,2.8-0.3l0.2,3.6 c-0.9,0.4-2.4,0.7-4.3,0.7c-2.2,0-4-0.7-5.2-2c-1.4-1.4-1.9-3.8-1.9-6.9V75.1h-4.1v-3.7h4.1v-6.3L146.6,63.9z"/><path fill="#FFFFFF" d="M171.4,97.8l-0.4-3.3h-0.2c-1.5,2.1-4.3,3.9-8.1,3.9c-5.4,0-8.1-3.8-8.1-7.6c0-6.4,5.7-9.9,15.9-9.8v-0.5 c0-2.2-0.6-6.1-6-6.1c-2.5,0-5,0.8-6.9,2l-1.1-3.2c2.2-1.4,5.4-2.3,8.7-2.3c8.1,0,10.1,5.5,10.1,10.8v9.9c0,2.3,0.1,4.5,0.4,6.3 H171.4z M170.7,84.4c-5.3-0.1-11.2,0.8-11.2,5.9c0,3.1,2.1,4.6,4.5,4.6c3.4,0,5.6-2.2,6.4-4.4c0.2-0.5,0.3-1,0.3-1.5V84.4z"/></g></g></a></g><a href="https://ourworldindata.org/grapher/cattle-livestock-count-heads" target="_blank"><text font-size="24.00" x="15.0" y="34.2" fill="#555"><tspan x="15" y="34.2">Cattle livestock count (heads)</tspan></text></a><text font-size="12.80" x="15.0" y="51.2" fill="#666"><tspan x="15" y="51.239999999999995">Total livestock count of live cattle, measured as the total number of live animals in any given year.</tspan></text></g><g class="LineChart"><defs><clipPath id="boundsClip-7"><rect x="78.97600000000001" y="0" width="830" height="965.8"></rect></clipPath></defs><g class="AxisBoxView"><g class="HorizontalAxis"><text x="89" y="557.9" fill="#666" text-anchor="middle" font-size="14.4">1961</text><text x="205.7" y="557.9" fill="#666" text-anchor="middle" font-size="14.4">1970</text><text x="335.4" y="557.9" fill="#666" text-anchor="middle" font-size="14.4">1980</text><text x="465.1" y="557.9" fill="#666" text-anchor="middle" font-size="14.4">1990</text><text x="594.9" y="557.9" fill="#666" text-anchor="middle" font-size="14.4">2000</text><text x="724.6" y="557.9" fill="#666" text-anchor="middle" font-size="14.4">2010</text><text x="776.5" y="557.9" fill="#666" text-anchor="middle" font-size="14.4">2014</text></g><g class="VerticalAxis"><text x="83.98" y="538.5" fill="#666" dominant-baseline="middle" text-anchor="end" font-size="14.4">0</text><text x="83.98" y="429.6" fill="#666" dominant-baseline="middle" text-anchor="end" font-size="14.4">50 million</text><text x="83.98" y="320.7" fill="#666" dominant-baseline="middle" text-anchor="end" font-size="14.4">100 million</text><text x="83.98" y="211.8" fill="#666" dominant-baseline="middle" text-anchor="end" font-size="14.4">150 million</text><text x="83.98" y="102.9" fill="#666" dominant-baseline="middle" text-anchor="end" font-size="14.4">200 million</text></g><g class="AxisGridLines"><line x1="88.98" y1="538.5" x2="776.46" y2="538.5" stroke="#ccc"></line><line x1="88.98" y1="429.6" x2="776.46" y2="429.6" stroke="#ddd" stroke-dasharray="3,2"></line><line x1="88.98" y1="320.7" x2="776.46" y2="320.7" stroke="#ddd" stroke-dasharray="3,2"></line><line x1="88.98" y1="211.8" x2="776.46" y2="211.8" stroke="#ddd" stroke-dasharray="3,2"></line><line x1="88.98" y1="102.9" x2="776.46" y2="102.9" stroke="#ddd" stroke-dasharray="3,2"></line></g><g class="AxisGridLines"><line x1="205.7" y1="538.50" x2="205.7" y2="75.00" stroke="#ddd" stroke-dasharray="3,2"></line><line x1="335.4" y1="538.50" x2="335.4" y2="75.00" stroke="#ddd" stroke-dasharray="3,2"></line><line x1="465.1" y1="538.50" x2="465.1" y2="75.00" stroke="#ddd" stroke-dasharray="3,2"></line><line x1="594.9" y1="538.50" x2="594.9" y2="75.00" stroke="#ddd" stroke-dasharray="3,2"></line><line x1="724.6" y1="538.50" x2="724.6" y2="75.00" stroke="#ddd" stroke-dasharray="3,2"></line></g></g><g clip-path="url(#boundsClip-7)"><g class="HeightedLegend clickable"><g class="legendMark"><rect x="786.4639999999999" y="69.6" width="47" height="12.8" fill="#fff" opacity="0"></rect><rect x="786.4639999999999" y="74.75" width="10" height="2.5" fill="#34983f"></rect><text font-size="12.80" x="801.5" y="79.8" fill="#333"><tspan x="801.4639999999999" y="79.83999999999999">Brazil</tspan></text></g><g class="legendMark"><rect x="786.4639999999999" y="124.79999999999998" width="42.903999999999996" height="12.8" fill="#fff" opacity="0"></rect><rect x="786.4639999999999" y="129.95" width="10" height="2.5" fill="#ca2628"></rect><text font-size="12.80" x="801.5" y="135.0" fill="#333"><tspan x="801.4639999999999" y="135.04">India</tspan></text></g><g class="legendMark"><rect x="786.4639999999999" y="283.6" width="48.536" height="12.8" fill="#fff" opacity="0"></rect><rect x="786.4639999999999" y="288.75" width="10" height="2.5" fill="#3360a9"></rect><text font-size="12.80" x="801.5" y="293.8" fill="#333"><tspan x="801.4639999999999" y="293.84000000000003">China</tspan></text></g></g><g class="Lines"><rect x="89" y="75" width="687" height="464" fill="rgba(255,255,255,0)" opacity="0"></rect><g class="key-China_0"><path stroke="#3360a9" stroke-linecap="round" d="M89 431L102 436L115 435L128 432L141 424L154 422L167 416L180 414L193 413L206 413L219 413L232 413L245 414L258 415L271 415L284 417L297 421L310 423L323 424L335 424L348 424L361 421L374 414L387 410L400 402L413 393L426 384L439 379L452 372L465 369L478 367L491 366L504 365L517 356L530 348L543 344L556 341L569 339L582 339L595 334L608 324L621 324L634 317L647 306L660 299L673 292L686 284L699 281L712 278L725 274L738 288L751 290L764 291L777 290" fill="none" stroke-width="1.5"></path><g fill="#3360a9"><circle cx="89" cy="431" r="2"></circle><circle cx="102" cy="436" r="2"></circle><circle cx="115" cy="435" r="2"></circle><circle cx="128" cy="432" r="2"></circle><circle cx="141" cy="424" r="2"></circle><circle cx="154" cy="422" r="2"></circle><circle cx="167" cy="416" r="2"></circle><circle cx="180" cy="414" r="2"></circle><circle cx="193" cy="413" r="2"></circle><circle cx="206" cy="413" r="2"></circle><circle cx="219" cy="413" r="2"></circle><circle cx="232" cy="413" r="2"></circle><circle cx="245" cy="414" r="2"></circle><circle cx="258" cy="415" r="2"></circle><circle cx="271" cy="415" r="2"></circle><circle cx="284" cy="417" r="2"></circle><circle cx="297" cy="421" r="2"></circle><circle cx="310" cy="423" r="2"></circle><circle cx="323" cy="424" r="2"></circle><circle cx="335" cy="424" r="2"></circle><circle cx="348" cy="424" r="2"></circle><circle cx="361" cy="421" r="2"></circle><circle cx="374" cy="414" r="2"></circle><circle cx="387" cy="410" r="2"></circle><circle cx="400" cy="402" r="2"></circle><circle cx="413" cy="393" r="2"></circle><circle cx="426" cy="384" r="2"></circle><circle cx="439" cy="379" r="2"></circle><circle cx="452" cy="372" r="2"></circle><circle cx="465" cy="369" r="2"></circle><circle cx="478" cy="367" r="2"></circle><circle cx="491" cy="366" r="2"></circle><circle cx="504" cy="365" r="2"></circle><circle cx="517" cy="356" r="2"></circle><circle cx="530" cy="348" r="2"></circle><circle cx="543" cy="344" r="2"></circle><circle cx="556" cy="341" r="2"></circle><circle cx="569" cy="339" r="2"></circle><circle cx="582" cy="339" r="2"></circle><circle cx="595" cy="334" r="2"></circle><circle cx="608" cy="324" r="2"></circle><circle cx="621" cy="324" r="2"></circle><circle cx="634" cy="317" r="2"></circle><circle cx="647" cy="306" r="2"></circle><circle cx="660" cy="299" r="2"></circle><circle cx="673" cy="292" r="2"></circle><circle cx="686" cy="284" r="2"></circle><circle cx="699" cy="281" r="2"></circle><circle cx="712" cy="278" r="2"></circle><circle cx="725" cy="274" r="2"></circle><circle cx="738" cy="288" r="2"></circle><circle cx="751" cy="290" r="2"></circle><circle cx="764" cy="291" r="2"></circle><circle cx="777" cy="290" r="2"></circle></g></g><g class="key-Brazil_0"><path stroke="#34983f" stroke-linecap="round" d="M89 416L102 413L115 409L128 404L141 400L154 395L167 390L180 385L193 380L206 374L219 367L232 358L245 352L258 342L271 337L284 317L297 305L310 306L323 301L335 279L348 273L361 270L374 268L387 261L400 259L413 251L426 243L439 235L452 225L465 218L478 207L491 203L504 201L517 194L530 187L543 194L556 187L569 183L582 180L595 169L608 154L621 135L634 113L647 93L660 87L673 90L686 104L699 98L712 91L725 82L738 75L751 78L764 77L777 76" fill="none" stroke-width="1.5"></path><g fill="#34983f"><circle cx="89" cy="416" r="2"></circle><circle cx="102" cy="413" r="2"></circle><circle cx="115" cy="409" r="2"></circle><circle cx="128" cy="404" r="2"></circle><circle cx="141" cy="400" r="2"></circle><circle cx="154" cy="395" r="2"></circle><circle cx="167" cy="390" r="2"></circle><circle cx="180" cy="385" r="2"></circle><circle cx="193" cy="380" r="2"></circle><circle cx="206" cy="374" r="2"></circle><circle cx="219" cy="367" r="2"></circle><circle cx="232" cy="358" r="2"></circle><circle cx="245" cy="352" r="2"></circle><circle cx="258" cy="342" r="2"></circle><circle cx="271" cy="337" r="2"></circle><circle cx="284" cy="317" r="2"></circle><circle cx="297" cy="305" r="2"></circle><circle cx="310" cy="306" r="2"></circle><circle cx="323" cy="301" r="2"></circle><circle cx="335" cy="279" r="2"></circle><circle cx="348" cy="273" r="2"></circle><circle cx="361" cy="270" r="2"></circle><circle cx="374" cy="268" r="2"></circle><circle cx="387" cy="261" r="2"></circle><circle cx="400" cy="259" r="2"></circle><circle cx="413" cy="251" r="2"></circle><circle cx="426" cy="243" r="2"></circle><circle cx="439" cy="235" r="2"></circle><circle cx="452" cy="225" r="2"></circle><circle cx="465" cy="218" r="2"></circle><circle cx="478" cy="207" r="2"></circle><circle cx="491" cy="203" r="2"></circle><circle cx="504" cy="201" r="2"></circle><circle cx="517" cy="194" r="2"></circle><circle cx="530" cy="187" r="2"></circle><circle cx="543" cy="194" r="2"></circle><circle cx="556" cy="187" r="2"></circle><circle cx="569" cy="183" r="2"></circle><circle cx="582" cy="180" r="2"></circle><circle cx="595" cy="169" r="2"></circle><circle cx="608" cy="154" r="2"></circle><circle cx="621" cy="135" r="2"></circle><circle cx="634" cy="113" r="2"></circle><circle cx="647" cy="93" r="2"></circle><circle cx="660" cy="87" r="2"></circle><circle cx="673" cy="90" r="2"></circle><circle cx="686" cy="104" r="2"></circle><circle cx="699" cy="98" r="2"></circle><circle cx="712" cy="91" r="2"></circle><circle cx="725" cy="82" r="2"></circle><circle cx="738" cy="75" r="2"></circle><circle cx="751" cy="78" r="2"></circle><circle cx="764" cy="77" r="2"></circle><circle cx="777" cy="76" r="2"></circle></g></g><g class="key-India_0"><path stroke="#ca2628" stroke-linecap="round" d="M89 156L102 160L115 160L128 156L141 155L154 155L167 154L180 154L193 153L206 152L219 151L232 150L245 150L258 150L271 148L284 146L297 146L310 142L323 137L335 132L348 128L361 119L374 116L387 114L400 111L413 108L426 104L439 102L452 99L465 98L478 95L491 93L504 95L517 97L530 99L543 101L556 105L569 111L582 116L595 121L608 125L621 130L634 135L647 128L660 120L673 113L686 105L699 109L712 112L725 116L738 119L751 123L764 127L777 131" fill="none" stroke-width="1.5"></path><g fill="#ca2628"><circle cx="89" cy="156" r="2"></circle><circle cx="102" cy="160" r="2"></circle><circle cx="115" cy="160" r="2"></circle><circle cx="128" cy="156" r="2"></circle><circle cx="141" cy="155" r="2"></circle><circle cx="154" cy="155" r="2"></circle><circle cx="167" cy="154" r="2"></circle><circle cx="180" cy="154" r="2"></circle><circle cx="193" cy="153" r="2"></circle><circle cx="206" cy="152" r="2"></circle><circle cx="219" cy="151" r="2"></circle><circle cx="232" cy="150" r="2"></circle><circle cx="245" cy="150" r="2"></circle><circle cx="258" cy="150" r="2"></circle><circle cx="271" cy="148" r="2"></circle><circle cx="284" cy="146" r="2"></circle><circle cx="297" cy="146" r="2"></circle><circle cx="310" cy="142" r="2"></circle><circle cx="323" cy="137" r="2"></circle><circle cx="335" cy="132" r="2"></circle><circle cx="348" cy="128" r="2"></circle><circle cx="361" cy="119" r="2"></circle><circle cx="374" cy="116" r="2"></circle><circle cx="387" cy="114" r="2"></circle><circle cx="400" cy="111" r="2"></circle><circle cx="413" cy="108" r="2"></circle><circle cx="426" cy="104" r="2"></circle><circle cx="439" cy="102" r="2"></circle><circle cx="452" cy="99" r="2"></circle><circle cx="465" cy="98" r="2"></circle><circle cx="478" cy="95" r="2"></circle><circle cx="491" cy="93" r="2"></circle><circle cx="504" cy="95" r="2"></circle><circle cx="517" cy="97" r="2"></circle><circle cx="530" cy="99" r="2"></circle><circle cx="543" cy="101" r="2"></circle><circle cx="556" cy="105" r="2"></circle><circle cx="569" cy="111" r="2"></circle><circle cx="582" cy="116" r="2"></circle><circle cx="595" cy="121" r="2"></circle><circle cx="608" cy="125" r="2"></circle><circle cx="621" cy="130" r="2"></circle><circle cx="634" cy="135" r="2"></circle><circle cx="647" cy="128" r="2"></circle><circle cx="660" cy="120" r="2"></circle><circle cx="673" cy="113" r="2"></circle><circle cx="686" cy="105" r="2"></circle><circle cx="699" cy="109" r="2"></circle><circle cx="712" cy="112" r="2"></circle><circle cx="725" cy="116" r="2"></circle><circle cx="738" cy="119" r="2"></circle><circle cx="751" cy="123" r="2"></circle><circle cx="764" cy="127" r="2"></circle><circle cx="777" cy="131" r="2"></circle></g></g></g></g></g><g style="fill: #777;" class="SourcesFooter"><g style="fill: #777;" class="clickable"><text font-size="11.20" x="15.0" y="581.9"><tspan x="15" y="581.86">Source: UN Food and Agricultural Organization (FAO)</tspan></text></g><text font-size="11.20" x="448.5" y="581.9"><tspan x="448.48800000000006" y="581.86"><a target='_blank' style='fill: #777;' href='https://ourworldindata.org/meat-and-seafood-production-consumption/'>OurWorldInData.org/meat-and-seafood-production-consumption/</a> • <a style="fill: #777;" href="http://creativecommons.org/licenses/by-sa/4.0/deed.en_US" target="_blank">CC BY-SA</a></tspan></text></g></g></svg>