<svg xmlns="http://www.w3.org/2000/svg" version="1.1" style="font-family:&#x27;Helvetica Neue&#x27;, Helvetica, Arial, sans-serif;font-size:18px;background-color:white;text-rendering:optimizeLegibility;-webkit-font-smoothing:antialiased" width="850" height="600"><g class="ChartTab"><g class="HeaderView"><g opacity="0.8" transform="translate(778, 15) scale(0.27)"><a xmlns:xlink="http://www.w3.org/1999/xlink" xlink:href="https://ourworldindata.org" target="_blank"><g><rect x="0" y="0" fill="#1B2543" width="211.2" height="130.1"/><rect x="0" y="112.2" fill="#E63912" width="211.2" height="17.9"/><g><rect x="1.2" y="12.3" fill="none" width="210.2" height="99.2"/><path fill="#FFFFFF" d="M37.8,32.2c0,12.7-7.7,19.4-17.1,19.4c-9.7,0-16.6-7.5-16.6-18.7c0-11.7,7.3-19.3,17.1-19.3 C31.3,13.7,37.8,21.3,37.8,32.2z M9.2,32.8c0,7.9,4.3,14.9,11.8,14.9c7.5,0,11.8-6.9,11.8-15.3c0-7.3-3.8-14.9-11.8-14.9 C13.1,17.5,9.2,24.8,9.2,32.8z"/><path fill="#FFFFFF" d="M62.7,43.8c0,2.7,0.1,5.1,0.2,7.2h-4.3l-0.3-4.3h-0.1c-1.3,2.1-4,4.9-8.8,4.9c-4.2,0-9.1-2.3-9.1-11.6 V24.6h4.8v14.6c0,5,1.5,8.4,5.9,8.4c3.2,0,5.5-2.2,6.3-4.4c0.3-0.7,0.4-1.6,0.4-2.5V24.6h4.8V43.8z"/><path fill="#FFFFFF" d="M67.3,32.8c0-3.1-0.1-5.8-0.2-8.2h4.2l0.2,5.2h0.2c1.2-3.5,4.1-5.8,7.3-5.8c0.5,0,0.9,0.1,1.4,0.2v4.5 c-0.5-0.1-1-0.2-1.6-0.2c-3.4,0-5.8,2.6-6.5,6.2c-0.1,0.7-0.2,1.4-0.2,2.2V51h-4.8V32.8z"/><path fill="#FFFFFF" d="M95.4,51l-9.4-36.8h5l4.4,18.6c1.1,4.6,2.1,9.2,2.7,12.7h0.1c0.6-3.7,1.8-8,3-12.8l4.9-18.5h5l4.5,18.7 c1,4.4,2,8.7,2.6,12.6h0.1c0.8-4,1.8-8.1,3-12.7l4.9-18.5h4.9L120.6,51h-5L111,31.9c-1.1-4.7-1.9-8.3-2.4-12h-0.1 c-0.7,3.7-1.5,7.3-2.8,12L100.4,51H95.4z"/><path fill="#FFFFFF" d="M154.9,37.6c0,9.8-6.8,14-13.2,14c-7.2,0-12.7-5.2-12.7-13.6c0-8.8,5.8-14,13.1-14 C149.8,24,154.9,29.5,154.9,37.6z M133.9,37.9c0,5.8,3.3,10.1,8,10.1c4.6,0,8-4.3,8-10.3c0-4.5-2.2-10.1-7.9-10.1 C136.3,27.6,133.9,32.8,133.9,37.9z"/><path fill="#FFFFFF" d="M158.2,32.8c0-3.1-0.1-5.8-0.2-8.2h4.2l0.2,5.2h0.2c1.2-3.5,4.1-5.8,7.3-5.8c0.5,0,0.9,0.1,1.4,0.2v4.5 c-0.5-0.1-1-0.2-1.6-0.2c-3.4,0-5.8,2.6-6.5,6.2c-0.1,0.7-0.2,1.4-0.2,2.2V51h-4.8V32.8z"/><path fill="#FFFFFF" d="M173.5,12.3h4.8V51h-4.8V12.3z"/><path fill="#FFFFFF" d="M206.5,12.3v31.9c0,2.3,0.1,5,0.2,6.8h-4.3l-0.2-4.6H202c-1.5,2.9-4.7,5.2-9,5.2 c-6.4,0-11.3-5.4-11.3-13.4c-0.1-8.8,5.4-14.2,11.9-14.2c4,0,6.8,1.9,8,4h0.1V12.3H206.5z M201.7,35.4c0-0.6-0.1-1.4-0.2-2 c-0.7-3.1-3.3-5.6-6.9-5.6c-5,0-7.9,4.4-7.9,10.2c0,5.3,2.6,9.8,7.8,9.8c3.2,0,6.2-2.1,7.1-5.7c0.2-0.7,0.2-1.3,0.2-2.1V35.4z"/><path fill="#FFFFFF" d="M42.8,64c0.1,1.6-1.1,2.9-3.1,2.9c-1.7,0-2.9-1.3-2.9-2.9c0-1.7,1.3-3,3-3C41.7,61,42.8,62.3,42.8,64z M37.4,97.8V71.4h4.8v26.4H37.4z"/><path fill="#FFFFFF" d="M47.5,78.6c0-2.7-0.1-5-0.2-7.1h4.3l0.3,4.4h0.1c1.3-2.5,4.4-5,8.8-5c3.7,0,9.4,2.2,9.4,11.2v15.8h-4.8 V82.6c0-4.3-1.6-7.8-6.1-7.8c-3.2,0-5.6,2.2-6.5,4.9c-0.2,0.6-0.3,1.4-0.3,2.2v15.9h-4.8V78.6z"/><path fill="#FFFFFF" d="M84,61.6c2.9-0.4,6.3-0.8,10.1-0.8c6.8,0,11.7,1.6,14.9,4.6c3.3,3,5.2,7.3,5.2,13.2c0,6-1.9,10.9-5.3,14.3 c-3.4,3.4-9.1,5.3-16.3,5.3c-3.4,0-6.2-0.2-8.6-0.4V61.6z M88.8,94.1c1.2,0.2,3,0.3,4.8,0.3c10.2,0,15.7-5.7,15.7-15.6 c0.1-8.7-4.9-14.2-14.9-14.2c-2.5,0-4.3,0.2-5.6,0.5V94.1z"/><path fill="#FFFFFF" d="M132.1,97.8l-0.4-3.3h-0.2c-1.5,2.1-4.3,3.9-8.1,3.9c-5.4,0-8.1-3.8-8.1-7.6c0-6.4,5.7-9.9,15.9-9.8v-0.5 c0-2.2-0.6-6.1-6-6.1c-2.5,0-5,0.8-6.9,2l-1.1-3.2c2.2-1.4,5.4-2.3,8.7-2.3c8.1,0,10.1,5.5,10.1,10.8v9.9c0,2.3,0.1,4.5,0.4,6.3 H132.1z M131.4,84.4c-5.3-0.1-11.2,0.8-11.2,5.9c0,3.1,2.1,4.6,4.5,4.6c3.4,0,5.6-2.2,6.4-4.4c0.2-0.5,0.3-1,0.3-1.5V84.4z"/><path fill="#FFFFFF" d="M146.6,63.9v7.6h6.9v3.7h-6.9v14.2c0,3.3,0.9,5.1,3.6,5.1c1.3,0,2.2-0.2,2.8-0.3l0.2,3.6 c-0.9,0.4-2.4,0.7-4.3,0.7c-2.2,0-4-0.7-5.2-2c-1.4-1.4-1.9-3.8-1.9-6.9V75.1h-4.1v-3.7h4.1v-6.3L146.6,63.9z"/><path fill="#FFFFFF" d="M171.4,97.8l-0.4-3.3h-0.2c-1.5,2.1-4.3,3.9-8.1,3.9c-5.4,0-8.1-3.8-8.1-7.6c0-6.4,5.7-9.9,15.9-9.8v-0.5 c0-2.2-0.6-6.1-6-6.1c-2.5,0-5,0.8-6.9,2l-1.1-3.2c2.2-1.4,5.4-2.3,8.7-2.3c8.1,0,10.1,5.5,10.1,10.8v9.9c0,2.3,0.1,4.5,0.4,6.3 H171.4z M170.7,84.4c-5.3-0.1-11.2,0.8-11.2,5.9c0,3.1,2.1,4.6,4.5,4.6c3.4,0,5.6-2.2,6.4-4.4c0.2-0.5,0.3-1,0.3-1.5V84.4z"/></g></g></a></g><a href="https://ourworldindata.org/grapher/change-in-global-hunger-index-1992-2017-vs-global-hunger-index-in-1992" target="_blank"><text font-size="21.60" x="15.0" y="32.3" fill="#555"><tspan x="15" y="32.279999999999994">Change in Global Hunger Index, 1992-2017 vs. Global Hunger Index in 1992</tspan></text></a></g><g><g class="AxisBoxView"><g class="HorizontalAxis"><text font-size="12.60" x="284.4" y="554.0"><tspan x="284.423" y="553.98">Global Hunger Index in 1992</tspan></text><text x="110.2" y="533.9" fill="#666" text-anchor="middle" font-size="16.2">10</text><text x="217.8" y="533.9" fill="#666" text-anchor="middle" font-size="16.2">20</text><text x="325.4" y="533.9" fill="#666" text-anchor="middle" font-size="16.2">30</text><text x="433.1" y="533.9" fill="#666" text-anchor="middle" font-size="16.2">40</text><text x="540.7" y="533.9" fill="#666" text-anchor="middle" font-size="16.2">50</text><text x="648.3" y="533.9" fill="#666" text-anchor="middle" font-size="16.2">60</text></g><g class="VerticalAxis"><text font-size="12.60" x="-515.5" y="25.1" transform="rotate(-90)"><tspan x="-515.543" y="25.080000000000002">Change in Global Hunger Index, 1992-2017 (Global Hunger Index 2017)</tspan></text><text x="61.09" y="470.2" fill="#666" dominant-baseline="middle" text-anchor="end" font-size="16.2">-30</text><text x="61.09" y="405.9" fill="#666" dominant-baseline="middle" text-anchor="end" font-size="16.2">-25</text><text x="61.09" y="341.5" fill="#666" dominant-baseline="middle" text-anchor="end" font-size="16.2">-20</text><text x="61.09" y="277.2" fill="#666" dominant-baseline="middle" text-anchor="end" font-size="16.2">-15</text><text x="61.09" y="212.8" fill="#666" dominant-baseline="middle" text-anchor="end" font-size="16.2">-10</text><text x="61.09" y="148.5" fill="#666" dominant-baseline="middle" text-anchor="end" font-size="16.2">-5</text><text x="61.09" y="84.2" fill="#666" dominant-baseline="middle" text-anchor="end" font-size="16.2">0</text></g><g class="AxisGridLines"><line x1="66.09" y1="470.2" x2="715.00" y2="470.2" stroke="#ddd" stroke-dasharray="3,2"></line><line x1="66.09" y1="405.9" x2="715.00" y2="405.9" stroke="#ddd" stroke-dasharray="3,2"></line><line x1="66.09" y1="341.5" x2="715.00" y2="341.5" stroke="#ddd" stroke-dasharray="3,2"></line><line x1="66.09" y1="277.2" x2="715.00" y2="277.2" stroke="#ddd" stroke-dasharray="3,2"></line><line x1="66.09" y1="212.8" x2="715.00" y2="212.8" stroke="#ddd" stroke-dasharray="3,2"></line><line x1="66.09" y1="148.5" x2="715.00" y2="148.5" stroke="#ddd" stroke-dasharray="3,2"></line><line x1="66.09" y1="84.2" x2="715.00" y2="84.2" stroke="#ccc"></line></g><g class="AxisGridLines"><line x1="110.2" y1="512.70" x2="110.2" y2="70.00" stroke="#ddd" stroke-dasharray="3,2"></line><line x1="217.8" y1="512.70" x2="217.8" y2="70.00" stroke="#ddd" stroke-dasharray="3,2"></line><line x1="325.4" y1="512.70" x2="325.4" y2="70.00" stroke="#ddd" stroke-dasharray="3,2"></line><line x1="433.1" y1="512.70" x2="433.1" y2="70.00" stroke="#ddd" stroke-dasharray="3,2"></line><line x1="540.7" y1="512.70" x2="540.7" y2="70.00" stroke="#ddd" stroke-dasharray="3,2"></line><line x1="648.3" y1="512.70" x2="648.3" y2="70.00" stroke="#ddd" stroke-dasharray="3,2"></line></g></g><g class="PointsWithLabels clickable" clip-path="url(#scatterBounds-698)" font-family="Arial Narrow, Arial, sans-serif"><rect x="66.09" y="70" width="648.91" height="442.7" fill="rgba(255,255,255,0)"></rect><defs><clipPath id="scatterBounds-698"><rect x="56.09" y="60" width="668.91" height="462.7"></rect></clipPath></defs><g class="key-China_0"><circle cx="281.00" cy="320.00" r="17.84" fill="#d14e5b" opacity="0.8" stroke="#333" stroke-width="0.7"></circle></g><g class="key-India_0"><circle cx="499.00" cy="274.00" r="17.29" fill="#d14e5b" opacity="0.8" stroke="#333" stroke-width="0.7"></circle></g><g class="key-Indonesia_0"><circle cx="379.00" cy="251.00" r="7.77" fill="#d14e5b" opacity="0.8" stroke="#333" stroke-width="0.7"></circle></g><g class="key-Brazil_0"><circle cx="173.00" cy="219.00" r="7.03" fill="#69c487" opacity="0.8" stroke="#333" stroke-width="0.7"></circle></g><g class="key-Pakistan_0"><circle cx="462.00" cy="214.00" r="6.75" fill="#d14e5b" opacity="0.8" stroke="#333" stroke-width="0.7"></circle></g><g class="key-Nigeria_0"><circle cx="527.00" cy="384.00" r="6.53" fill="#5675c1" opacity="0.8" stroke="#333" stroke-width="0.7"></circle></g><g class="key-Bangladesh_0"><circle cx="579.00" cy="432.00" r="6.23" fill="#d14e5b" opacity="0.8" stroke="#333" stroke-width="0.7"></circle></g><g class="key-Mexico_0"><circle cx="153.00" cy="180.00" r="5.50" fill="#4d824b" opacity="0.8" stroke="#333" stroke-width="0.7"></circle></g><g class="key-Philippines_0"><circle cx="330.00" cy="219.00" r="5.08" fill="#d14e5b" opacity="0.8" stroke="#333" stroke-width="0.7"></circle></g><g class="key-Vietnam_0"><circle cx="435.00" cy="395.00" r="4.91" fill="#d14e5b" opacity="0.8" stroke="#333" stroke-width="0.7"></circle></g><g class="key-Egypt_0"><circle cx="218.00" cy="153.00" r="4.78" fill="#5675c1" opacity="0.8" stroke="#333" stroke-width="0.7"></circle></g><g class="key-Iran_0"><circle cx="190.00" cy="211.00" r="4.56" fill="#d14e5b" opacity="0.8" stroke="#fff" stroke-width="0.7"></circle></g><g class="key-Turkey_0"><circle cx="156.00" cy="236.00" r="4.53" fill="#d14e5b" opacity="0.8" stroke="#333" stroke-width="0.7"></circle></g><g class="key-Thailand_0"><circle cx="280.00" cy="279.00" r="4.40" fill="#d14e5b" opacity="0.8" stroke="#333" stroke-width="0.7"></circle></g><g class="key-South-Africa_0"><circle cx="201.00" cy="152.00" r="3.86" fill="#5675c1" opacity="0.8" stroke="#fff" stroke-width="0.7"></circle></g><g class="key-Tanzania_0"><circle cx="464.00" cy="265.00" r="3.80" fill="#5675c1" opacity="0.8" stroke="#fff" stroke-width="0.7"></circle></g><g class="key-Myanmar_0"><circle cx="600.00" cy="508.00" r="3.80" fill="#d14e5b" opacity="0.8" stroke="#333" stroke-width="0.7"></circle></g><g class="key-Colombia_0"><circle cx="159.00" cy="169.00" r="3.77" fill="#69c487" opacity="0.8" stroke="#fff" stroke-width="0.7"></circle></g><g class="key-Kenya_0"><circle cx="423.00" cy="317.00" r="3.64" fill="#5675c1" opacity="0.8" stroke="#333" stroke-width="0.7"></circle></g><g class="key-Argentina_0"><circle cx="77.00" cy="104.00" r="3.56" fill="#69c487" opacity="0.8" stroke="#333" stroke-width="0.7"></circle></g><g class="key-Algeria_0"><circle cx="190.00" cy="187.00" r="3.41" fill="#5675c1" opacity="0.8" stroke="#333" stroke-width="0.7"></circle></g><g class="key-Uganda_0"><circle cx="446.00" cy="202.00" r="3.40" fill="#5675c1" opacity="0.8" stroke="#fff" stroke-width="0.7"></circle></g><g class="key-Iraq_0"><circle cx="237.00" cy="70.00" r="3.34" fill="#d14e5b" opacity="0.8" stroke="#333" stroke-width="0.7"></circle></g><g class="key-Afghanistan_0"><circle cx="542.00" cy="301.00" r="3.33" fill="#d14e5b" opacity="0.8" stroke="#333" stroke-width="0.7"></circle></g><g class="key-Morocco_0"><circle cx="203.00" cy="193.00" r="3.27" fill="#5675c1" opacity="0.8" stroke="#fff" stroke-width="0.7"></circle></g><g class="key-Nepal_0"><circle cx="460.00" cy="348.00" r="3.22" fill="#d14e5b" opacity="0.8" stroke="#333" stroke-width="0.7"></circle></g><g class="key-Venezuela_0"><circle cx="166.00" cy="112.00" r="3.18" fill="#69c487" opacity="0.8" stroke="#333" stroke-width="0.7"></circle></g><g class="key-Peru_0"><circle cx="311.00" cy="341.00" r="3.17" fill="#69c487" opacity="0.8" stroke="#333" stroke-width="0.7"></circle></g><g class="key-Malaysia_0"><circle cx="215.00" cy="207.00" r="3.16" fill="#d14e5b" opacity="0.8" stroke="#333" stroke-width="0.7"></circle></g><g class="key-Saudi-Arabia_0"><circle cx="156.00" cy="176.00" r="3.14" fill="#d14e5b" opacity="0.8" stroke="#fff" stroke-width="0.7"></circle></g><g class="key-Ghana_0"><circle cx="453.00" cy="414.00" r="3.02" fill="#5675c1" opacity="0.8" stroke="#333" stroke-width="0.7"></circle></g><g class="key-Mozambique_0"><circle cx="687.00" cy="510.00" r="2.98" fill="#5675c1" opacity="0.8" stroke="#fff" stroke-width="0.7"></circle></g><g class="key-North-Korea_0"><circle cx="345.00" cy="131.00" r="2.96" fill="#d14e5b" opacity="0.8" stroke="#333" stroke-width="0.7"></circle></g><g class="key-Madagascar_0"><circle cx="475.00" cy="156.00" r="2.88" fill="#5675c1" opacity="0.8" stroke="#333" stroke-width="0.7"></circle></g><g class="key-Sri-Lanka_0"><circle cx="342.00" cy="162.00" r="2.83" fill="#d14e5b" opacity="0.8" stroke="#333" stroke-width="0.7"></circle></g><g class="key-Romania_0"><circle cx="102.00" cy="136.00" r="2.83" fill="#ffd336" opacity="0.8" stroke="#333" stroke-width="0.7"></circle></g><g class="key-Cote-d__0027Ivoire_0"><circle cx="356.00" cy="166.00" r="2.82" fill="#5675c1" opacity="0.8" stroke="#fff" stroke-width="0.7"></circle></g><g class="key-Cameroon_0"><circle cx="433.00" cy="314.00" r="2.81" fill="#5675c1" opacity="0.8" stroke="#fff" stroke-width="0.7"></circle></g><g class="key-Angola_0"><circle cx="710.00" cy="512.00" r="2.80" fill="#5675c1" opacity="0.8" stroke="#333" stroke-width="0.7"></circle></g><g class="key-Burkina-Faso_0"><circle cx="508.00" cy="333.00" r="2.69" fill="#5675c1" opacity="0.8" stroke="#333" stroke-width="0.7"></circle></g><g class="key-Chile_0"><circle cx="66.00" cy="127.00" r="2.67" fill="#69c487" opacity="0.8" stroke="#333" stroke-width="0.7"></circle></g><g class="key-Niger_0"><circle cx="715.00" cy="492.00" r="2.66" fill="#5675c1" opacity="0.8" stroke="#333" stroke-width="0.7"></circle></g><g class="key-Mali_0"><circle cx="555.00" cy="377.00" r="2.64" fill="#5675c1" opacity="0.8" stroke="#fff" stroke-width="0.7"></circle></g><g class="key-Malawi_0"><circle cx="628.00" cy="483.00" r="2.62" fill="#5675c1" opacity="0.8" stroke="#333" stroke-width="0.7"></circle></g><g class="key-Guatemala_0"><circle cx="309.00" cy="184.00" r="2.58" fill="#4d824b" opacity="0.8" stroke="#333" stroke-width="0.7"></circle></g><g class="key-Ecuador_0"><circle cx="242.00" cy="185.00" r="2.56" fill="#69c487" opacity="0.8" stroke="#333" stroke-width="0.7"></circle></g><g class="key-Cambodia_0"><circle cx="495.00" cy="387.00" r="2.54" fill="#d14e5b" opacity="0.8" stroke="#fff" stroke-width="0.7"></circle></g><g class="key-Zambia_0"><circle cx="524.00" cy="216.00" r="2.53" fill="#5675c1" opacity="0.8" stroke="#333" stroke-width="0.7"></circle></g><g class="key-Senegal_0"><circle cx="406.00" cy="330.00" r="2.49" fill="#5675c1" opacity="0.8" stroke="#333" stroke-width="0.7"></circle></g><g class="key-Zimbabwe_0"><circle cx="387.00" cy="109.00" r="2.48" fill="#5675c1" opacity="0.8" stroke="#333" stroke-width="0.7"></circle></g><g class="key-Chad_0"><circle cx="675.00" cy="328.00" r="2.42" fill="#5675c1" opacity="0.8" stroke="#333" stroke-width="0.7"></circle></g><g class="key-Rwanda_0"><circle cx="576.00" cy="366.00" r="2.40" fill="#5675c1" opacity="0.8" stroke="#333" stroke-width="0.7"></circle></g><g class="key-Cuba_0"><circle cx="115.00" cy="187.00" r="2.38" fill="#4d824b" opacity="0.8" stroke="#333" stroke-width="0.7"></circle></g><g class="key-Tunisia_0"><circle cx="168.00" cy="187.00" r="2.36" fill="#5675c1" opacity="0.8" stroke="#fff" stroke-width="0.7"></circle></g><g class="key-Guinea_0"><circle cx="503.00" cy="314.00" r="2.36" fill="#5675c1" opacity="0.8" stroke="#333" stroke-width="0.7"></circle></g><g class="key-Bolivia_0"><circle cx="397.00" cy="335.00" r="2.34" fill="#69c487" opacity="0.8" stroke="#fff" stroke-width="0.7"></circle></g><g class="key-Haiti_0"><circle cx="557.00" cy="308.00" r="2.34" fill="#4d824b" opacity="0.8" stroke="#fff" stroke-width="0.7"></circle></g><g class="key-Dominican-Republic_0"><circle cx="258.00" cy="241.00" r="2.33" fill="#4d824b" opacity="0.8" stroke="#333" stroke-width="0.7"></circle></g><g class="key-Benin_0"><circle cx="481.00" cy="342.00" r="2.30" fill="#5675c1" opacity="0.8" stroke="#fff" stroke-width="0.7"></circle></g><g class="key-Honduras_0"><circle cx="281.00" cy="233.00" r="2.22" fill="#4d824b" opacity="0.8" stroke="#fff" stroke-width="0.7"></circle></g><g class="key-Bulgaria_0"><circle cx="87.00" cy="116.00" r="2.18" fill="#ffd336" opacity="0.8" stroke="#fff" stroke-width="0.7"></circle></g><g class="key-Paraguay_0"><circle cx="182.00" cy="157.00" r="2.15" fill="#69c487" opacity="0.8" stroke="#fff" stroke-width="0.7"></circle></g><g class="key-Jordan_0"><circle cx="146.00" cy="170.00" r="2.14" fill="#d14e5b" opacity="0.8" stroke="#fff" stroke-width="0.7"></circle></g><g class="key-Laos_0"><circle cx="565.00" cy="403.00" r="2.13" fill="#d14e5b" opacity="0.8" stroke="#333" stroke-width="0.7"></circle></g><g class="key-Togo_0"><circle cx="495.00" cy="384.00" r="2.13" fill="#5675c1" opacity="0.8" stroke="#333" stroke-width="0.7"></circle></g><g class="key-El-Salvador_0"><circle cx="212.00" cy="192.00" r="2.13" fill="#4d824b" opacity="0.8" stroke="#fff" stroke-width="0.7"></circle></g><g class="key-Sierra-Leone_0"><circle cx="618.00" cy="324.00" r="2.12" fill="#5675c1" opacity="0.8" stroke="#fff" stroke-width="0.7"></circle></g><g class="key-Nicaragua_0"><circle cx="391.00" cy="373.00" r="2.11" fill="#4d824b" opacity="0.8" stroke="#333" stroke-width="0.7"></circle></g><g class="key-Costa-Rica_0"><circle cx="83.00" cy="112.00" r="2.05" fill="#4d824b" opacity="0.8" stroke="#fff" stroke-width="0.7"></circle></g><g class="key-Central-African-Republic_0"><circle cx="564.00" cy="100.00" r="2.03" fill="#5675c1" opacity="0.8" stroke="#333" stroke-width="0.7"></circle></g><g class="key-Liberia_0"><circle cx="553.00" cy="288.00" r="2.02" fill="#5675c1" opacity="0.8" stroke="#333" stroke-width="0.7"></circle></g><g class="key-Congo_0"><circle cx="423.00" cy="257.00" r="2.02" fill="#5675c1" opacity="0.8" stroke="#333" stroke-width="0.7"></circle></g><g class="key-Lebanon_0"><circle cx="125.00" cy="126.00" r="2.02" fill="#d14e5b" opacity="0.8" stroke="#fff" stroke-width="0.7"></circle></g><g class="key-Mauritania_0"><circle cx="426.00" cy="266.00" r="1.98" fill="#5675c1" opacity="0.8" stroke="#fff" stroke-width="0.7"></circle></g><g class="key-Panama_0"><circle cx="216.00" cy="221.00" r="1.98" fill="#4d824b" opacity="0.8" stroke="#333" stroke-width="0.7"></circle></g><g class="key-Uruguay_0"><circle cx="107.00" cy="176.00" r="1.96" fill="#69c487" opacity="0.8" stroke="#fff" stroke-width="0.7"></circle></g><g class="key-Albania_0"><circle cx="226.00" cy="209.00" r="1.95" fill="#ffd336" opacity="0.8" stroke="#fff" stroke-width="0.7"></circle></g><g class="key-Kuwait_0"><circle cx="217.00" cy="309.00" r="1.94" fill="#d14e5b" opacity="0.8" stroke="#333" stroke-width="0.7"></circle></g><g class="key-Oman_0"><circle cx="226.00" cy="206.00" r="1.93" fill="#d14e5b" opacity="0.8" stroke="#fff" stroke-width="0.7"></circle></g><g class="key-Mongolia_0"><circle cx="406.00" cy="394.00" r="1.93" fill="#d14e5b" opacity="0.8" stroke="#fff" stroke-width="0.7"></circle></g><g class="key-Jamaica_0"><circle cx="131.00" cy="135.00" r="1.92" fill="#4d824b" opacity="0.8" stroke="#fff" stroke-width="0.7"></circle></g><g class="key-Namibia_0"><circle cx="383.00" cy="209.00" r="1.90" fill="#5675c1" opacity="0.8" stroke="#fff" stroke-width="0.7"></circle></g><g class="key-Lesotho_0"><circle cx="287.00" cy="115.00" r="1.89" fill="#5675c1" opacity="0.8" stroke="#333" stroke-width="0.7"></circle></g><g class="key-Botswana_0"><circle cx="366.00" cy="205.00" r="1.88" fill="#5675c1" opacity="0.8" stroke="#fff" stroke-width="0.7"></circle></g><g class="key-Gambia_0"><circle cx="381.00" cy="238.00" r="1.87" fill="#5675c1" opacity="0.8" stroke="#fff" stroke-width="0.7"></circle></g><g class="key-Guinea__002dBissau_0"><circle cx="481.00" cy="263.00" r="1.85" fill="#5675c1" opacity="0.8" stroke="#fff" stroke-width="0.7"></circle></g><g class="key-Gabon_0"><circle cx="263.00" cy="218.00" r="1.85" fill="#5675c1" opacity="0.8" stroke="#333" stroke-width="0.7"></circle></g><g class="key-Trinidad-and-Tobago_0"><circle cx="158.00" cy="182.00" r="1.84" fill="#4d824b" opacity="0.8" stroke="#fff" stroke-width="0.7"></circle></g><g class="key-Mauritius_0"><circle cx="189.00" cy="136.00" r="1.83" fill="#5675c1" opacity="0.8" stroke="#333" stroke-width="0.7"></circle></g><g class="key-Swaziland_0"><circle cx="260.00" cy="120.00" r="1.83" fill="#5675c1" opacity="0.8" stroke="#fff" stroke-width="0.7"></circle></g><g class="key-Djibouti_0"><circle cx="651.00" cy="456.00" r="1.81" fill="#5675c1" opacity="0.8" stroke="#333" stroke-width="0.7"></circle></g><g class="key-Fiji_0"><circle cx="126.00" cy="127.00" r="1.81" fill="#a652ba" opacity="0.8" stroke="#fff" stroke-width="0.7"></circle></g><g class="key-Guyana_0"><circle cx="242.00" cy="194.00" r="1.80" fill="#69c487" opacity="0.8" stroke="#fff" stroke-width="0.7"></circle></g><g class="key-Suriname_0"><circle cx="185.00" cy="175.00" r="1.78" fill="#69c487" opacity="0.8" stroke="#fff" stroke-width="0.7"></circle></g><g class="key-Yemen_0"><circle cx="470.00" cy="179.00" r="1.75" fill="#d14e5b" opacity="0.8" stroke="#333" stroke-width="0.7"></circle></g><g class="backgroundLabels" fill="#333"><text x="281.00" y="301.16" font-size="14.30">China</text><text x="499.00" y="255.71" font-size="14.10">India</text><text x="379.00" y="242.23" font-size="11.60">Indonesia</text><text x="173.00" y="210.97" font-size="11.48">Brazil</text><text x="462.00" y="206.25" font-size="11.44">Pakistan</text><text x="527.00" y="376.47" font-size="11.41">Nigeria</text><text x="579.00" y="424.77" font-size="11.37">Bangladesh</text><text x="153.00" y="173.50" font-size="11.28">Mexico</text><text x="330.00" y="212.92" font-size="11.24">Philippines</text><text x="435.00" y="389.09" font-size="11.22">Vietnam</text><text x="218.00" y="147.22" font-size="11.21">Egypt</text><text x="156.00" y="230.47" font-size="11.18">Turkey</text><text x="280.00" y="273.60" font-size="11.17">Thailand</text><text x="600.00" y="503.20" font-size="11.12">Myanmar</text><text x="423.00" y="312.36" font-size="11.11">Kenya</text><text x="77.00" y="99.44" font-size="11.10">Argentina</text><text x="190.00" y="182.59" font-size="11.09">Algeria</text><text x="237.00" y="81.08" font-size="11.08">Iraq</text><text x="542.00" y="296.67" font-size="11.08">Afghanistan</text><text x="460.00" y="343.78" font-size="11.08">Nepal</text><text x="166.00" y="107.82" font-size="11.07">Venezuela</text><text x="311.00" y="336.83" font-size="11.07">Peru</text><text x="215.00" y="202.84" font-size="11.07">Malaysia</text><text x="453.00" y="409.98" font-size="11.06">Ghana</text><text x="345.00" y="127.04" font-size="11.06">North Korea</text><text x="475.00" y="152.12" font-size="11.05">Madagascar</text><text x="342.00" y="158.17" font-size="11.05">Sri Lanka</text><text x="102.00" y="132.17" font-size="11.05">Romania</text><text x="675.42" y="508.20" font-size="11.05">Angola</text><text x="508.00" y="329.31" font-size="11.04">Burkina Faso</text><text x="66.00" y="123.33" font-size="11.04">Chile</text><text x="688.61" y="488.34" font-size="11.04">Niger</text><text x="628.00" y="479.38" font-size="11.04">Malawi</text><text x="309.00" y="180.42" font-size="11.04">Guatemala</text><text x="242.00" y="181.44" font-size="11.04">Ecuador</text><text x="524.00" y="212.47" font-size="11.03">Zambia</text><text x="406.00" y="326.51" font-size="11.03">Senegal</text><text x="387.00" y="105.52" font-size="11.03">Zimbabwe</text><text x="675.00" y="324.58" font-size="11.03">Chad</text><text x="576.00" y="362.60" font-size="11.03">Rwanda</text><text x="115.00" y="183.62" font-size="11.03">Cuba</text><text x="503.00" y="310.64" font-size="11.02">Guinea</text><text x="258.00" y="237.67" font-size="11.02">Dominican Republic</text><text x="565.00" y="399.87" font-size="11.01">Laos</text><text x="495.00" y="380.87" font-size="11.01">Togo</text><text x="391.00" y="369.89" font-size="11.01">Nicaragua</text><text x="564.00" y="96.97" font-size="11.01">Central African Republic</text><text x="553.00" y="284.98" font-size="11.01">Liberia</text><text x="423.00" y="253.98" font-size="11.01">Congo</text><text x="216.00" y="218.02" font-size="11.01">Panama</text><text x="217.00" y="306.06" font-size="11.01">Kuwait</text><text x="287.00" y="112.11" font-size="11.00">Lesotho</text><text x="263.00" y="215.15" font-size="11.00">Gabon</text><text x="189.00" y="133.17" font-size="11.00">Mauritius</text><text x="651.00" y="453.19" font-size="11.00">Djibouti</text><text x="470.00" y="176.25" font-size="11.00">Yemen</text></g></g><g class="ScatterColorLegend clickable" style="cursor:pointer"><g class="legendMark"><rect x="735" y="67.5" width="43.256" height="17.6" fill="#fff" opacity="0"></rect>,<rect x="735" y="73" width="6" height="6" fill="#5675c1"></rect>,<text font-size="12.60" x="746.0" y="80.1"><tspan x="746" y="80.08">Africa</tspan></text></g><g class="legendMark"><rect x="735" y="85.1" width="35.57" height="17.6" fill="#fff" opacity="0"></rect>,<rect x="735" y="90.6" width="6" height="6" fill="#d14e5b"></rect>,<text font-size="12.60" x="746.0" y="97.7"><tspan x="746" y="97.67999999999999">Asia</tspan></text></g><g class="legendMark"><rect x="735" y="102.7" width="51.824" height="17.6" fill="#fff" opacity="0"></rect>,<rect x="735" y="108.2" width="6" height="6" fill="#ffd336"></rect>,<text font-size="12.60" x="746.0" y="115.3"><tspan x="746" y="115.28">Europe</tspan></text></g><g class="legendMark"><rect x="735" y="120.30000000000001" width="91.64" height="17.6" fill="#fff" opacity="0"></rect>,<rect x="735" y="125.80000000000001" width="6" height="6" fill="#4d824b"></rect>,<text font-size="12.60" x="746.0" y="132.9"><tspan x="746" y="132.88">North America</tspan></text></g><g class="legendMark"><rect x="735" y="137.9" width="58.124" height="17.6" fill="#fff" opacity="0"></rect>,<rect x="735" y="143.4" width="6" height="6" fill="#a652ba"></rect>,<text font-size="12.60" x="746.0" y="150.5"><tspan x="746" y="150.48">Oceania</tspan></text></g><g class="legendMark"><rect x="735" y="155.5" width="93.908" height="17.6" fill="#fff" opacity="0"></rect>,<rect x="735" y="161" width="6" height="6" fill="#69c487"></rect>,<text font-size="12.60" x="746.0" y="168.1"><tspan x="746" y="168.07999999999998">South America</tspan></text></g></g></g><g class="SourcesFooter" style="fill:#777"><g class="clickable" style="fill:#777"><text font-size="12.60" x="15.0" y="581.6"><tspan x="15" y="581.58">Source: IFPRI 2017 Global Hunger Index</tspan></text></g><text font-size="12.60" x="775.4" y="581.6"><tspan x="775.402" y="581.58"><a style="fill: #777;" class="cclogo" href="http://creativecommons.org/licenses/by-sa/4.0/deed.en_US" target="_blank">CC BY-SA</a></tspan></text></g></g></svg>