<svg xmlns="http://www.w3.org/2000/svg" version="1.1" style="font-family:&#x27;Helvetica Neue&#x27;, Helvetica, Arial, sans-serif;font-size:18px;background-color:white;text-rendering:optimizeLegibility;-webkit-font-smoothing:antialiased" width="850" height="600"><g class="ChartTab"><g class="HeaderView"><g opacity="0.8" transform="translate(778, 15) scale(0.27)"><a xmlns:xlink="http://www.w3.org/1999/xlink" xlink:href="https://ourworldindata.org" target="_blank"><g><rect x="0" y="0" fill="#1B2543" width="211.2" height="130.1"/><rect x="0" y="112.2" fill="#E63912" width="211.2" height="17.9"/><g><rect x="1.2" y="12.3" fill="none" width="210.2" height="99.2"/><path fill="#FFFFFF" d="M37.8,32.2c0,12.7-7.7,19.4-17.1,19.4c-9.7,0-16.6-7.5-16.6-18.7c0-11.7,7.3-19.3,17.1-19.3 C31.3,13.7,37.8,21.3,37.8,32.2z M9.2,32.8c0,7.9,4.3,14.9,11.8,14.9c7.5,0,11.8-6.9,11.8-15.3c0-7.3-3.8-14.9-11.8-14.9 C13.1,17.5,9.2,24.8,9.2,32.8z"/><path fill="#FFFFFF" d="M62.7,43.8c0,2.7,0.1,5.1,0.2,7.2h-4.3l-0.3-4.3h-0.1c-1.3,2.1-4,4.9-8.8,4.9c-4.2,0-9.1-2.3-9.1-11.6 V24.6h4.8v14.6c0,5,1.5,8.4,5.9,8.4c3.2,0,5.5-2.2,6.3-4.4c0.3-0.7,0.4-1.6,0.4-2.5V24.6h4.8V43.8z"/><path fill="#FFFFFF" d="M67.3,32.8c0-3.1-0.1-5.8-0.2-8.2h4.2l0.2,5.2h0.2c1.2-3.5,4.1-5.8,7.3-5.8c0.5,0,0.9,0.1,1.4,0.2v4.5 c-0.5-0.1-1-0.2-1.6-0.2c-3.4,0-5.8,2.6-6.5,6.2c-0.1,0.7-0.2,1.4-0.2,2.2V51h-4.8V32.8z"/><path fill="#FFFFFF" d="M95.4,51l-9.4-36.8h5l4.4,18.6c1.1,4.6,2.1,9.2,2.7,12.7h0.1c0.6-3.7,1.8-8,3-12.8l4.9-18.5h5l4.5,18.7 c1,4.4,2,8.7,2.6,12.6h0.1c0.8-4,1.8-8.1,3-12.7l4.9-18.5h4.9L120.6,51h-5L111,31.9c-1.1-4.7-1.9-8.3-2.4-12h-0.1 c-0.7,3.7-1.5,7.3-2.8,12L100.4,51H95.4z"/><path fill="#FFFFFF" d="M154.9,37.6c0,9.8-6.8,14-13.2,14c-7.2,0-12.7-5.2-12.7-13.6c0-8.8,5.8-14,13.1-14 C149.8,24,154.9,29.5,154.9,37.6z M133.9,37.9c0,5.8,3.3,10.1,8,10.1c4.6,0,8-4.3,8-10.3c0-4.5-2.2-10.1-7.9-10.1 C136.3,27.6,133.9,32.8,133.9,37.9z"/><path fill="#FFFFFF" d="M158.2,32.8c0-3.1-0.1-5.8-0.2-8.2h4.2l0.2,5.2h0.2c1.2-3.5,4.1-5.8,7.3-5.8c0.5,0,0.9,0.1,1.4,0.2v4.5 c-0.5-0.1-1-0.2-1.6-0.2c-3.4,0-5.8,2.6-6.5,6.2c-0.1,0.7-0.2,1.4-0.2,2.2V51h-4.8V32.8z"/><path fill="#FFFFFF" d="M173.5,12.3h4.8V51h-4.8V12.3z"/><path fill="#FFFFFF" d="M206.5,12.3v31.9c0,2.3,0.1,5,0.2,6.8h-4.3l-0.2-4.6H202c-1.5,2.9-4.7,5.2-9,5.2 c-6.4,0-11.3-5.4-11.3-13.4c-0.1-8.8,5.4-14.2,11.9-14.2c4,0,6.8,1.9,8,4h0.1V12.3H206.5z M201.7,35.4c0-0.6-0.1-1.4-0.2-2 c-0.7-3.1-3.3-5.6-6.9-5.6c-5,0-7.9,4.4-7.9,10.2c0,5.3,2.6,9.8,7.8,9.8c3.2,0,6.2-2.1,7.1-5.7c0.2-0.7,0.2-1.3,0.2-2.1V35.4z"/><path fill="#FFFFFF" d="M42.8,64c0.1,1.6-1.1,2.9-3.1,2.9c-1.7,0-2.9-1.3-2.9-2.9c0-1.7,1.3-3,3-3C41.7,61,42.8,62.3,42.8,64z M37.4,97.8V71.4h4.8v26.4H37.4z"/><path fill="#FFFFFF" d="M47.5,78.6c0-2.7-0.1-5-0.2-7.1h4.3l0.3,4.4h0.1c1.3-2.5,4.4-5,8.8-5c3.7,0,9.4,2.2,9.4,11.2v15.8h-4.8 V82.6c0-4.3-1.6-7.8-6.1-7.8c-3.2,0-5.6,2.2-6.5,4.9c-0.2,0.6-0.3,1.4-0.3,2.2v15.9h-4.8V78.6z"/><path fill="#FFFFFF" d="M84,61.6c2.9-0.4,6.3-0.8,10.1-0.8c6.8,0,11.7,1.6,14.9,4.6c3.3,3,5.2,7.3,5.2,13.2c0,6-1.9,10.9-5.3,14.3 c-3.4,3.4-9.1,5.3-16.3,5.3c-3.4,0-6.2-0.2-8.6-0.4V61.6z M88.8,94.1c1.2,0.2,3,0.3,4.8,0.3c10.2,0,15.7-5.7,15.7-15.6 c0.1-8.7-4.9-14.2-14.9-14.2c-2.5,0-4.3,0.2-5.6,0.5V94.1z"/><path fill="#FFFFFF" d="M132.1,97.8l-0.4-3.3h-0.2c-1.5,2.1-4.3,3.9-8.1,3.9c-5.4,0-8.1-3.8-8.1-7.6c0-6.4,5.7-9.9,15.9-9.8v-0.5 c0-2.2-0.6-6.1-6-6.1c-2.5,0-5,0.8-6.9,2l-1.1-3.2c2.2-1.4,5.4-2.3,8.7-2.3c8.1,0,10.1,5.5,10.1,10.8v9.9c0,2.3,0.1,4.5,0.4,6.3 H132.1z M131.4,84.4c-5.3-0.1-11.2,0.8-11.2,5.9c0,3.1,2.1,4.6,4.5,4.6c3.4,0,5.6-2.2,6.4-4.4c0.2-0.5,0.3-1,0.3-1.5V84.4z"/><path fill="#FFFFFF" d="M146.6,63.9v7.6h6.9v3.7h-6.9v14.2c0,3.3,0.9,5.1,3.6,5.1c1.3,0,2.2-0.2,2.8-0.3l0.2,3.6 c-0.9,0.4-2.4,0.7-4.3,0.7c-2.2,0-4-0.7-5.2-2c-1.4-1.4-1.9-3.8-1.9-6.9V75.1h-4.1v-3.7h4.1v-6.3L146.6,63.9z"/><path fill="#FFFFFF" d="M171.4,97.8l-0.4-3.3h-0.2c-1.5,2.1-4.3,3.9-8.1,3.9c-5.4,0-8.1-3.8-8.1-7.6c0-6.4,5.7-9.9,15.9-9.8v-0.5 c0-2.2-0.6-6.1-6-6.1c-2.5,0-5,0.8-6.9,2l-1.1-3.2c2.2-1.4,5.4-2.3,8.7-2.3c8.1,0,10.1,5.5,10.1,10.8v9.9c0,2.3,0.1,4.5,0.4,6.3 H171.4z M170.7,84.4c-5.3-0.1-11.2,0.8-11.2,5.9c0,3.1,2.1,4.6,4.5,4.6c3.4,0,5.6-2.2,6.4-4.4c0.2-0.5,0.3-1,0.3-1.5V84.4z"/></g></g></a></g><a href="https://ourworldindata.org/grapher/change-in-global-hunger-index-1992-2017-global-hunger-index-2017-vs-population-growth-1992-2015-un-population-division" target="_blank"><text font-size="21.60" x="15.0" y="32.3" fill="#555"><tspan x="15" y="32.279999999999994">Change in Global Hunger Index, 1992-2017 vs. Population growth 1992-2015</tspan><tspan x="15" y="53.87999999999999">(UN Population Division)</tspan></text></a></g><g><g class="AxisBoxView"><g class="HorizontalAxis"><text font-size="12.60" x="211.8" y="540.3"><tspan x="211.784" y="540.28">Population growth 1992-2015 (UN Population Division)</tspan></text><text x="136.8" y="520.1999999999999" fill="#666" text-anchor="middle" font-size="16.2">0%</text><text x="218.6" y="520.1999999999999" fill="#666" text-anchor="middle" font-size="16.2">20%</text><text x="300.5" y="520.1999999999999" fill="#666" text-anchor="middle" font-size="16.2">40%</text><text x="382.3" y="520.1999999999999" fill="#666" text-anchor="middle" font-size="16.2">60%</text><text x="464.2" y="520.1999999999999" fill="#666" text-anchor="middle" font-size="16.2">80%</text><text x="546" y="520.1999999999999" fill="#666" text-anchor="middle" font-size="16.2">100%</text><text x="627.8" y="520.1999999999999" fill="#666" text-anchor="middle" font-size="16.2">120%</text><text x="709.7" y="520.1999999999999" fill="#666" text-anchor="middle" font-size="16.2">140%</text></g><g class="VerticalAxis"><text font-size="12.60" x="-513.7" y="25.1" transform="rotate(-90)"><tspan x="-513.7429999999999" y="25.080000000000002">Change in Global Hunger Index, 1992-2017 (Global Hunger Index 2017)</tspan></text><text x="61.09" y="458.8" fill="#666" dominant-baseline="middle" text-anchor="end" font-size="16.2">-30</text><text x="61.09" y="397.9" fill="#666" dominant-baseline="middle" text-anchor="end" font-size="16.2">-25</text><text x="61.09" y="337" fill="#666" dominant-baseline="middle" text-anchor="end" font-size="16.2">-20</text><text x="61.09" y="276.2" fill="#666" dominant-baseline="middle" text-anchor="end" font-size="16.2">-15</text><text x="61.09" y="215.3" fill="#666" dominant-baseline="middle" text-anchor="end" font-size="16.2">-10</text><text x="61.09" y="154.4" fill="#666" dominant-baseline="middle" text-anchor="end" font-size="16.2">-5</text><text x="61.09" y="93.5" fill="#666" dominant-baseline="middle" text-anchor="end" font-size="16.2">0</text></g><g class="AxisGridLines"><line x1="66.09" y1="458.8" x2="715.00" y2="458.8" stroke="#ddd" stroke-dasharray="3,2"></line><line x1="66.09" y1="397.9" x2="715.00" y2="397.9" stroke="#ddd" stroke-dasharray="3,2"></line><line x1="66.09" y1="337" x2="715.00" y2="337" stroke="#ddd" stroke-dasharray="3,2"></line><line x1="66.09" y1="276.2" x2="715.00" y2="276.2" stroke="#ddd" stroke-dasharray="3,2"></line><line x1="66.09" y1="215.3" x2="715.00" y2="215.3" stroke="#ddd" stroke-dasharray="3,2"></line><line x1="66.09" y1="154.4" x2="715.00" y2="154.4" stroke="#ddd" stroke-dasharray="3,2"></line><line x1="66.09" y1="93.5" x2="715.00" y2="93.5" stroke="#ccc"></line></g><g class="AxisGridLines"><line x1="136.8" y1="499.00" x2="136.8" y2="80.10" stroke="#ccc"></line><line x1="218.6" y1="499.00" x2="218.6" y2="80.10" stroke="#ddd" stroke-dasharray="3,2"></line><line x1="300.5" y1="499.00" x2="300.5" y2="80.10" stroke="#ddd" stroke-dasharray="3,2"></line><line x1="382.3" y1="499.00" x2="382.3" y2="80.10" stroke="#ddd" stroke-dasharray="3,2"></line><line x1="464.2" y1="499.00" x2="464.2" y2="80.10" stroke="#ddd" stroke-dasharray="3,2"></line><line x1="546" y1="499.00" x2="546" y2="80.10" stroke="#ddd" stroke-dasharray="3,2"></line><line x1="627.8" y1="499.00" x2="627.8" y2="80.10" stroke="#ddd" stroke-dasharray="3,2"></line><line x1="709.7" y1="499.00" x2="709.7" y2="80.10" stroke="#ddd" stroke-dasharray="3,2"></line></g></g><g class="ComparisonLine"><defs><clipPath id="axisBounds-696"><rect x="66.09" y="80.1" width="648.91" height="418.9"></rect></clipPath></defs><path d="M66.1,177.7L72.6,179.2L79.1,180.7L85.6,182.2L92,183.7L98.5,185.3L105,186.8L111.5,188.3L118,189.8L124.5,191.3L131,192.8L137.5,194.4L144,195.9L150.4,197.4L156.9,198.9L163.4,200.4L169.9,201.9L176.4,203.5L182.9,205L189.4,206.5L195.9,208L202.4,209.5L208.9,211.1L215.3,212.6L221.8,214.1L228.3,215.6L234.8,217.1L241.3,218.6L247.8,220.2L254.3,221.7L260.8,223.2L267.3,224.7L273.7,226.2L280.2,227.7L286.7,229.3L293.2,230.8L299.7,232.3L306.2,233.8L312.7,235.3L319.2,236.8L325.7,238.4L332.1,239.9L338.6,241.4L345.1,242.9L351.6,244.4L358.1,246L364.6,247.5L371.1,249L377.6,250.5L384.1,252L390.5,253.5L397,255.1L403.5,256.6L410,258.1L416.5,259.6L423,261.1L429.5,262.6L436,264.2L442.5,265.7L448.9,267.2L455.4,268.7L461.9,270.2L468.4,271.7L474.9,273.3L481.4,274.8L487.9,276.3L494.4,277.8L500.9,279.3L507.3,280.9L513.8,282.4L520.3,283.9L526.8,285.4L533.3,286.9L539.8,288.4L546.3,290L552.8,291.5L559.3,293L565.8,294.5L572.2,296L578.7,297.5L585.2,299.1L591.7,300.6L598.2,302.1L604.7,303.6L611.2,305.1L617.7,306.6L624.2,308.2L630.6,309.7L637.1,311.2L643.6,312.7L650.1,314.2L656.6,315.8L663.1,317.3L669.6,318.8L676.1,320.3L682.6,321.8L689,323.3L695.5,324.9L702,326.4L708.5,327.9" clip-path="url(#axisBounds-696)" fill="none" stroke="#ccc"></path></g><g class="PointsWithLabels clickable" clip-path="url(#scatterBounds-697)" font-family="Arial Narrow, Arial, sans-serif"><rect x="66.09" y="80.1" width="648.91" height="418.9" fill="rgba(255,255,255,0)"></rect><defs><clipPath id="scatterBounds-697"><rect x="56.09" y="70.1" width="668.91" height="438.9"></rect></clipPath></defs><g class="key-China_0"><circle cx="202.00" cy="317.00" r="17.84" fill="#d14e5b" opacity="0.8" stroke="#333" stroke-width="0.7"></circle></g><g class="key-India_0"><circle cx="318.00" cy="273.00" r="17.29" fill="#d14e5b" opacity="0.8" stroke="#333" stroke-width="0.7"></circle></g><g class="key-Indonesia_0"><circle cx="290.00" cy="251.00" r="7.77" fill="#d14e5b" opacity="0.8" stroke="#fff" stroke-width="0.7"></circle></g><g class="key-Brazil_0"><circle cx="272.00" cy="221.00" r="7.03" fill="#69c487" opacity="0.8" stroke="#333" stroke-width="0.7"></circle></g><g class="key-Pakistan_0"><circle cx="408.00" cy="216.00" r="6.75" fill="#d14e5b" opacity="0.8" stroke="#333" stroke-width="0.7"></circle></g><g class="key-Nigeria_0"><circle cx="467.00" cy="377.00" r="6.53" fill="#5675c1" opacity="0.8" stroke="#333" stroke-width="0.7"></circle></g><g class="key-Bangladesh_0"><circle cx="320.00" cy="423.00" r="6.23" fill="#d14e5b" opacity="0.8" stroke="#333" stroke-width="0.7"></circle></g><g class="key-Mexico_0"><circle cx="307.00" cy="184.00" r="5.50" fill="#4d824b" opacity="0.8" stroke="#333" stroke-width="0.7"></circle></g><g class="key-Philippines_0"><circle cx="367.00" cy="221.00" r="5.08" fill="#d14e5b" opacity="0.8" stroke="#fff" stroke-width="0.7"></circle></g><g class="key-Vietnam_0"><circle cx="265.00" cy="388.00" r="4.91" fill="#d14e5b" opacity="0.8" stroke="#333" stroke-width="0.7"></circle></g><g class="key-Egypt_0"><circle cx="366.00" cy="159.00" r="4.78" fill="#5675c1" opacity="0.8" stroke="#333" stroke-width="0.7"></circle></g><g class="key-Iran_0"><circle cx="285.00" cy="214.00" r="4.56" fill="#d14e5b" opacity="0.8" stroke="#fff" stroke-width="0.7"></circle></g><g class="key-Turkey_0"><circle cx="302.00" cy="237.00" r="4.53" fill="#d14e5b" opacity="0.8" stroke="#333" stroke-width="0.7"></circle></g><g class="key-Thailand_0"><circle cx="213.00" cy="278.00" r="4.40" fill="#d14e5b" opacity="0.8" stroke="#333" stroke-width="0.7"></circle></g><g class="key-South-Africa_0"><circle cx="302.00" cy="158.00" r="3.86" fill="#5675c1" opacity="0.8" stroke="#333" stroke-width="0.7"></circle></g><g class="key-Tanzania_0"><circle cx="537.00" cy="265.00" r="3.80" fill="#5675c1" opacity="0.8" stroke="#333" stroke-width="0.7"></circle></g><g class="key-Myanmar_0"><circle cx="241.00" cy="495.00" r="3.80" fill="#d14e5b" opacity="0.8" stroke="#333" stroke-width="0.7"></circle></g><g class="key-Colombia_0"><circle cx="282.00" cy="173.00" r="3.77" fill="#69c487" opacity="0.8" stroke="#fff" stroke-width="0.7"></circle></g><g class="key-Kenya_0"><circle cx="501.00" cy="313.00" r="3.64" fill="#5675c1" opacity="0.8" stroke="#333" stroke-width="0.7"></circle></g><g class="key-Argentina_0"><circle cx="255.00" cy="113.00" r="3.56" fill="#69c487" opacity="0.8" stroke="#333" stroke-width="0.7"></circle></g><g class="key-Algeria_0"><circle cx="327.00" cy="190.00" r="3.41" fill="#5675c1" opacity="0.8" stroke="#fff" stroke-width="0.7"></circle></g><g class="key-Uganda_0"><circle cx="608.00" cy="205.00" r="3.40" fill="#5675c1" opacity="0.8" stroke="#333" stroke-width="0.7"></circle></g><g class="key-Iraq_0"><circle cx="528.00" cy="80.00" r="3.34" fill="#d14e5b" opacity="0.8" stroke="#333" stroke-width="0.7"></circle></g><g class="key-Afghanistan_0"><circle cx="715.00" cy="299.00" r="3.33" fill="#d14e5b" opacity="0.8" stroke="#333" stroke-width="0.7"></circle></g><g class="key-Morocco_0"><circle cx="279.00" cy="197.00" r="3.27" fill="#5675c1" opacity="0.8" stroke="#333" stroke-width="0.7"></circle></g><g class="key-Nepal_0"><circle cx="320.00" cy="343.00" r="3.22" fill="#d14e5b" opacity="0.8" stroke="#333" stroke-width="0.7"></circle></g><g class="key-Venezuela_0"><circle cx="340.00" cy="120.00" r="3.18" fill="#69c487" opacity="0.8" stroke="#333" stroke-width="0.7"></circle></g><g class="key-Peru_0"><circle cx="292.00" cy="337.00" r="3.17" fill="#69c487" opacity="0.8" stroke="#333" stroke-width="0.7"></circle></g><g class="key-Malaysia_0"><circle cx="388.00" cy="210.00" r="3.16" fill="#d14e5b" opacity="0.8" stroke="#fff" stroke-width="0.7"></circle></g><g class="key-Saudi-Arabia_0"><circle cx="470.00" cy="181.00" r="3.14" fill="#d14e5b" opacity="0.8" stroke="#333" stroke-width="0.7"></circle></g><g class="key-Ghana_0"><circle cx="457.00" cy="406.00" r="3.02" fill="#5675c1" opacity="0.8" stroke="#333" stroke-width="0.7"></circle></g><g class="key-Mozambique_0"><circle cx="542.00" cy="496.00" r="2.98" fill="#5675c1" opacity="0.8" stroke="#333" stroke-width="0.7"></circle></g><g class="key-North-Korea_0"><circle cx="221.00" cy="138.00" r="2.96" fill="#d14e5b" opacity="0.8" stroke="#333" stroke-width="0.7"></circle></g><g class="key-Madagascar_0"><circle cx="533.00" cy="161.00" r="2.88" fill="#5675c1" opacity="0.8" stroke="#333" stroke-width="0.7"></circle></g><g class="key-Sri-Lanka_0"><circle cx="205.00" cy="167.00" r="2.83" fill="#d14e5b" opacity="0.8" stroke="#333" stroke-width="0.7"></circle></g><g class="key-Romania_0"><circle cx="75.00" cy="143.00" r="2.83" fill="#ffd336" opacity="0.8" stroke="#333" stroke-width="0.7"></circle></g><g class="key-Cote-d__0027Ivoire_0"><circle cx="446.00" cy="171.00" r="2.82" fill="#5675c1" opacity="0.8" stroke="#fff" stroke-width="0.7"></circle></g><g class="key-Cameroon_0"><circle cx="480.00" cy="311.00" r="2.81" fill="#5675c1" opacity="0.8" stroke="#fff" stroke-width="0.7"></circle></g><g class="key-Angola_0"><circle cx="606.00" cy="499.00" r="2.80" fill="#5675c1" opacity="0.8" stroke="#333" stroke-width="0.7"></circle></g><g class="key-Burkina-Faso_0"><circle cx="524.00" cy="329.00" r="2.69" fill="#5675c1" opacity="0.8" stroke="#333" stroke-width="0.7"></circle></g><g class="key-Chile_0"><circle cx="259.00" cy="134.00" r="2.67" fill="#69c487" opacity="0.8" stroke="#fff" stroke-width="0.7"></circle></g><g class="key-Niger_0"><circle cx="679.00" cy="479.00" r="2.66" fill="#5675c1" opacity="0.8" stroke="#333" stroke-width="0.7"></circle></g><g class="key-Mali_0"><circle cx="533.00" cy="371.00" r="2.64" fill="#5675c1" opacity="0.8" stroke="#333" stroke-width="0.7"></circle></g><g class="key-Malawi_0"><circle cx="466.00" cy="471.00" r="2.62" fill="#5675c1" opacity="0.8" stroke="#333" stroke-width="0.7"></circle></g><g class="key-Guatemala_0"><circle cx="412.00" cy="188.00" r="2.58" fill="#4d824b" opacity="0.8" stroke="#333" stroke-width="0.7"></circle></g><g class="key-Ecuador_0"><circle cx="344.00" cy="189.00" r="2.56" fill="#69c487" opacity="0.8" stroke="#333" stroke-width="0.7"></circle></g><g class="key-Cambodia_0"><circle cx="387.00" cy="380.00" r="2.54" fill="#d14e5b" opacity="0.8" stroke="#333" stroke-width="0.7"></circle></g><g class="key-Zambia_0"><circle cx="507.00" cy="218.00" r="2.53" fill="#5675c1" opacity="0.8" stroke="#333" stroke-width="0.7"></circle></g><g class="key-Senegal_0"><circle cx="490.00" cy="326.00" r="2.49" fill="#5675c1" opacity="0.8" stroke="#fff" stroke-width="0.7"></circle></g><g class="key-Zimbabwe_0"><circle cx="331.00" cy="117.00" r="2.48" fill="#5675c1" opacity="0.8" stroke="#fff" stroke-width="0.7"></circle></g><g class="key-Chad_0"><circle cx="630.00" cy="324.00" r="2.42" fill="#5675c1" opacity="0.8" stroke="#333" stroke-width="0.7"></circle></g><g class="key-Rwanda_0"><circle cx="437.00" cy="360.00" r="2.40" fill="#5675c1" opacity="0.8" stroke="#333" stroke-width="0.7"></circle></g><g class="key-Cuba_0"><circle cx="164.00" cy="190.00" r="2.38" fill="#4d824b" opacity="0.8" stroke="#333" stroke-width="0.7"></circle></g><g class="key-Tunisia_0"><circle cx="263.00" cy="190.00" r="2.36" fill="#5675c1" opacity="0.8" stroke="#fff" stroke-width="0.7"></circle></g><g class="key-Guinea_0"><circle cx="459.00" cy="311.00" r="2.36" fill="#5675c1" opacity="0.8" stroke="#333" stroke-width="0.7"></circle></g><g class="key-Bolivia_0"><circle cx="342.00" cy="331.00" r="2.34" fill="#69c487" opacity="0.8" stroke="#333" stroke-width="0.7"></circle></g><g class="key-Haiti_0"><circle cx="320.00" cy="305.00" r="2.34" fill="#4d824b" opacity="0.8" stroke="#333" stroke-width="0.7"></circle></g><g class="key-Dominican-Republic_0"><circle cx="304.00" cy="242.00" r="2.33" fill="#4d824b" opacity="0.8" stroke="#fff" stroke-width="0.7"></circle></g><g class="key-Benin_0"><circle cx="539.00" cy="338.00" r="2.30" fill="#5675c1" opacity="0.8" stroke="#fff" stroke-width="0.7"></circle></g><g class="key-Honduras_0"><circle cx="426.00" cy="234.00" r="2.22" fill="#4d824b" opacity="0.8" stroke="#333" stroke-width="0.7"></circle></g><g class="key-Bulgaria_0"><circle cx="66.00" cy="123.00" r="2.18" fill="#ffd336" opacity="0.8" stroke="#333" stroke-width="0.7"></circle></g><g class="key-Paraguay_0"><circle cx="340.00" cy="162.00" r="2.15" fill="#69c487" opacity="0.8" stroke="#fff" stroke-width="0.7"></circle></g><g class="key-Jordan_0"><circle cx="672.00" cy="175.00" r="2.14" fill="#d14e5b" opacity="0.8" stroke="#333" stroke-width="0.7"></circle></g><g class="key-Laos_0"><circle cx="333.00" cy="395.00" r="2.13" fill="#d14e5b" opacity="0.8" stroke="#333" stroke-width="0.7"></circle></g><g class="key-Togo_0"><circle cx="491.00" cy="377.00" r="2.13" fill="#5675c1" opacity="0.8" stroke="#fff" stroke-width="0.7"></circle></g><g class="key-El-Salvador_0"><circle cx="205.00" cy="195.00" r="2.13" fill="#4d824b" opacity="0.8" stroke="#333" stroke-width="0.7"></circle></g><g class="key-Sierra-Leone_0"><circle cx="411.00" cy="321.00" r="2.12" fill="#5675c1" opacity="0.8" stroke="#fff" stroke-width="0.7"></circle></g><g class="key-Nicaragua_0"><circle cx="302.00" cy="367.00" r="2.11" fill="#4d824b" opacity="0.8" stroke="#333" stroke-width="0.7"></circle></g><g class="key-Costa-Rica_0"><circle cx="331.00" cy="120.00" r="2.05" fill="#4d824b" opacity="0.8" stroke="#fff" stroke-width="0.7"></circle></g><g class="key-Central-African-Republic_0"><circle cx="328.00" cy="109.00" r="2.03" fill="#5675c1" opacity="0.8" stroke="#fff" stroke-width="0.7"></circle></g><g class="key-Liberia_0"><circle cx="637.00" cy="287.00" r="2.02" fill="#5675c1" opacity="0.8" stroke="#fff" stroke-width="0.7"></circle></g><g class="key-Congo_0"><circle cx="520.00" cy="257.00" r="2.02" fill="#5675c1" opacity="0.8" stroke="#fff" stroke-width="0.7"></circle></g><g class="key-Lebanon_0"><circle cx="576.00" cy="133.00" r="2.02" fill="#d14e5b" opacity="0.8" stroke="#333" stroke-width="0.7"></circle></g><g class="key-Mauritania_0"><circle cx="526.00" cy="266.00" r="1.98" fill="#5675c1" opacity="0.8" stroke="#fff" stroke-width="0.7"></circle></g><g class="key-Panama_0"><circle cx="358.00" cy="223.00" r="1.98" fill="#4d824b" opacity="0.8" stroke="#333" stroke-width="0.7"></circle></g><g class="key-Uruguay_0"><circle cx="172.00" cy="181.00" r="1.96" fill="#69c487" opacity="0.8" stroke="#fff" stroke-width="0.7"></circle></g><g class="key-Albania_0"><circle cx="96.00" cy="211.00" r="1.95" fill="#ffd336" opacity="0.8" stroke="#333" stroke-width="0.7"></circle></g><g class="key-Kuwait_0"><circle cx="567.00" cy="306.00" r="1.94" fill="#d14e5b" opacity="0.8" stroke="#333" stroke-width="0.7"></circle></g><g class="key-Oman_0"><circle cx="594.00" cy="209.00" r="1.93" fill="#d14e5b" opacity="0.8" stroke="#fff" stroke-width="0.7"></circle></g><g class="key-Mongolia_0"><circle cx="270.00" cy="387.00" r="1.93" fill="#d14e5b" opacity="0.8" stroke="#fff" stroke-width="0.7"></circle></g><g class="key-Jamaica_0"><circle cx="204.00" cy="142.00" r="1.92" fill="#4d824b" opacity="0.8" stroke="#fff" stroke-width="0.7"></circle></g><g class="key-Namibia_0"><circle cx="383.00" cy="211.00" r="1.90" fill="#5675c1" opacity="0.8" stroke="#fff" stroke-width="0.7"></circle></g><g class="key-Lesotho_0"><circle cx="261.00" cy="122.00" r="1.89" fill="#5675c1" opacity="0.8" stroke="#fff" stroke-width="0.7"></circle></g><g class="key-Botswana_0"><circle cx="348.00" cy="208.00" r="1.88" fill="#5675c1" opacity="0.8" stroke="#333" stroke-width="0.7"></circle></g><g class="key-Gambia_0"><circle cx="553.00" cy="239.00" r="1.87" fill="#5675c1" opacity="0.8" stroke="#333" stroke-width="0.7"></circle></g><g class="key-Guinea__002dBissau_0"><circle cx="409.00" cy="262.00" r="1.85" fill="#5675c1" opacity="0.8" stroke="#333" stroke-width="0.7"></circle></g><g class="key-Gabon_0"><circle cx="513.00" cy="220.00" r="1.85" fill="#5675c1" opacity="0.8" stroke="#fff" stroke-width="0.7"></circle></g><g class="key-Trinidad-and-Tobago_0"><circle cx="177.00" cy="186.00" r="1.84" fill="#4d824b" opacity="0.8" stroke="#fff" stroke-width="0.7"></circle></g><g class="key-Mauritius_0"><circle cx="203.00" cy="143.00" r="1.83" fill="#5675c1" opacity="0.8" stroke="#fff" stroke-width="0.7"></circle></g><g class="key-Swaziland_0"><circle cx="323.00" cy="127.00" r="1.83" fill="#5675c1" opacity="0.8" stroke="#fff" stroke-width="0.7"></circle></g><g class="key-Djibouti_0"><circle cx="344.00" cy="445.00" r="1.81" fill="#5675c1" opacity="0.8" stroke="#333" stroke-width="0.7"></circle></g><g class="key-Fiji_0"><circle cx="217.00" cy="134.00" r="1.81" fill="#a652ba" opacity="0.8" stroke="#fff" stroke-width="0.7"></circle></g><g class="key-Guyana_0"><circle cx="147.00" cy="198.00" r="1.80" fill="#69c487" opacity="0.8" stroke="#fff" stroke-width="0.7"></circle></g><g class="key-Suriname_0"><circle cx="263.00" cy="180.00" r="1.78" fill="#69c487" opacity="0.8" stroke="#fff" stroke-width="0.7"></circle></g><g class="key-Yemen_0"><circle cx="554.00" cy="183.00" r="1.75" fill="#d14e5b" opacity="0.8" stroke="#333" stroke-width="0.7"></circle></g><g class="backgroundLabels" fill="#333"><text x="202.00" y="298.16" font-size="14.30">China</text><text x="318.00" y="254.71" font-size="14.10">India</text><text x="272.00" y="212.97" font-size="11.48">Brazil</text><text x="408.00" y="208.25" font-size="11.44">Pakistan</text><text x="467.00" y="369.47" font-size="11.41">Nigeria</text><text x="320.00" y="415.77" font-size="11.37">Bangladesh</text><text x="307.00" y="177.50" font-size="11.28">Mexico</text><text x="265.00" y="382.09" font-size="11.22">Vietnam</text><text x="366.00" y="153.22" font-size="11.21">Egypt</text><text x="302.00" y="231.47" font-size="11.18">Turkey</text><text x="213.00" y="272.60" font-size="11.17">Thailand</text><text x="302.00" y="153.14" font-size="11.12">South Africa</text><text x="537.00" y="260.20" font-size="11.12">Tanzania</text><text x="241.00" y="490.20" font-size="11.12">Myanmar</text><text x="501.00" y="308.36" font-size="11.11">Kenya</text><text x="255.00" y="108.44" font-size="11.10">Argentina</text><text x="608.00" y="200.60" font-size="11.09">Uganda</text><text x="528.00" y="91.18" font-size="11.08">Iraq</text><text x="656.15" y="294.67" font-size="11.08">Afghanistan</text><text x="279.00" y="192.73" font-size="11.08">Morocco</text><text x="320.00" y="338.78" font-size="11.08">Nepal</text><text x="340.00" y="115.82" font-size="11.07">Venezuela</text><text x="292.00" y="332.83" font-size="11.07">Peru</text><text x="470.00" y="176.86" font-size="11.07">Saudi Arabia</text><text x="457.00" y="401.98" font-size="11.06">Ghana</text><text x="542.00" y="492.02" font-size="11.06">Mozambique</text><text x="221.00" y="134.04" font-size="11.06">North Korea</text><text x="533.00" y="157.12" font-size="11.05">Madagascar</text><text x="205.00" y="163.17" font-size="11.05">Sri Lanka</text><text x="75.00" y="139.17" font-size="11.05">Romania</text><text x="606.00" y="495.20" font-size="11.05">Angola</text><text x="524.00" y="325.31" font-size="11.04">Burkina Faso</text><text x="679.00" y="475.34" font-size="11.04">Niger</text><text x="533.00" y="367.36" font-size="11.04">Mali</text><text x="466.00" y="467.38" font-size="11.04">Malawi</text><text x="412.00" y="184.42" font-size="11.04">Guatemala</text><text x="344.00" y="185.44" font-size="11.04">Ecuador</text><text x="387.00" y="376.46" font-size="11.03">Cambodia</text><text x="507.00" y="214.47" font-size="11.03">Zambia</text><text x="630.00" y="320.58" font-size="11.03">Chad</text><text x="437.00" y="356.60" font-size="11.03">Rwanda</text><text x="164.00" y="186.62" font-size="11.03">Cuba</text><text x="459.00" y="307.64" font-size="11.02">Guinea</text><text x="342.00" y="327.66" font-size="11.02">Bolivia</text><text x="320.00" y="301.66" font-size="11.02">Haiti</text><text x="426.00" y="230.78" font-size="11.02">Honduras</text><text x="66.00" y="119.82" font-size="11.02">Bulgaria</text><text x="672.00" y="171.86" font-size="11.01">Jordan</text><text x="333.00" y="391.87" font-size="11.01">Laos</text><text x="205.00" y="191.87" font-size="11.01">El Salvador</text><text x="302.00" y="363.89" font-size="11.01">Nicaragua</text><text x="576.00" y="129.98" font-size="11.01">Lebanon</text><text x="358.00" y="220.02" font-size="11.01">Panama</text><text x="96.00" y="208.05" font-size="11.01">Albania</text><text x="567.00" y="303.06" font-size="11.01">Kuwait</text><text x="348.00" y="205.12" font-size="11.00">Botswana</text><text x="553.00" y="236.13" font-size="11.00">Gambia</text><text x="409.00" y="259.15" font-size="11.00">Guinea-Bissau</text><text x="344.00" y="442.19" font-size="11.00">Djibouti</text><text x="554.00" y="180.25" font-size="11.00">Yemen</text></g></g><g class="ScatterColorLegend clickable" style="cursor:pointer"><g class="legendMark"><rect x="735" y="77.6" width="43.256" height="17.6" fill="#fff" opacity="0"></rect>,<rect x="735" y="83.1" width="6" height="6" fill="#5675c1"></rect>,<text font-size="12.60" x="746.0" y="90.2"><tspan x="746" y="90.17999999999999">Africa</tspan></text></g><g class="legendMark"><rect x="735" y="95.19999999999999" width="35.57" height="17.6" fill="#fff" opacity="0"></rect>,<rect x="735" y="100.69999999999999" width="6" height="6" fill="#d14e5b"></rect>,<text font-size="12.60" x="746.0" y="107.8"><tspan x="746" y="107.77999999999999">Asia</tspan></text></g><g class="legendMark"><rect x="735" y="112.8" width="51.824" height="17.6" fill="#fff" opacity="0"></rect>,<rect x="735" y="118.3" width="6" height="6" fill="#ffd336"></rect>,<text font-size="12.60" x="746.0" y="125.4"><tspan x="746" y="125.38">Europe</tspan></text></g><g class="legendMark"><rect x="735" y="130.4" width="91.64" height="17.6" fill="#fff" opacity="0"></rect>,<rect x="735" y="135.9" width="6" height="6" fill="#4d824b"></rect>,<text font-size="12.60" x="746.0" y="143.0"><tspan x="746" y="142.98">North America</tspan></text></g><g class="legendMark"><rect x="735" y="148" width="58.124" height="17.6" fill="#fff" opacity="0"></rect>,<rect x="735" y="153.5" width="6" height="6" fill="#a652ba"></rect>,<text font-size="12.60" x="746.0" y="160.6"><tspan x="746" y="160.57999999999998">Oceania</tspan></text></g><g class="legendMark"><rect x="735" y="165.6" width="93.908" height="17.6" fill="#fff" opacity="0"></rect>,<rect x="735" y="171.1" width="6" height="6" fill="#69c487"></rect>,<text font-size="12.60" x="746.0" y="178.2"><tspan x="746" y="178.17999999999998">South America</tspan></text></g></g></g><g class="SourcesFooter" style="fill:#777"><g class="clickable" style="fill:#777"><text font-size="12.60" x="15.0" y="567.9"><tspan x="15" y="567.88">Source: IFPRI 2017 Global Hunger Index, UN Population Division (2015)</tspan></text></g><text font-size="12.60" x="15.0" y="582.5"><tspan x="15" y="582.48">Note: Downwards sloping line is line of best fit (predicted values from a linear regression)</tspan></text><text font-size="12.60" x="775.4" y="567.9"><tspan x="775.402" y="567.88"><a style="fill: #777;" class="cclogo" href="http://creativecommons.org/licenses/by-sa/4.0/deed.en_US" target="_blank">CC BY-SA</a></tspan></text></g></g></svg>