<svg xmlns="http://www.w3.org/2000/svg" version="1.1" style="font-family:&#x27;Helvetica Neue&#x27;, Helvetica, Arial, sans-serif;font-size:18px;background-color:white;text-rendering:optimizeLegibility;-webkit-font-smoothing:antialiased" width="850" height="600"><g class="ChartTab"><g class="HeaderView"><g opacity="0.8" transform="translate(778, 15) scale(0.27)"><a xmlns:xlink="http://www.w3.org/1999/xlink" xlink:href="https://ourworldindata.org" target="_blank"><g><rect x="0" y="0" fill="#1B2543" width="211.2" height="130.1"/><rect x="0" y="112.2" fill="#E63912" width="211.2" height="17.9"/><g><rect x="1.2" y="12.3" fill="none" width="210.2" height="99.2"/><path fill="#FFFFFF" d="M37.8,32.2c0,12.7-7.7,19.4-17.1,19.4c-9.7,0-16.6-7.5-16.6-18.7c0-11.7,7.3-19.3,17.1-19.3 C31.3,13.7,37.8,21.3,37.8,32.2z M9.2,32.8c0,7.9,4.3,14.9,11.8,14.9c7.5,0,11.8-6.9,11.8-15.3c0-7.3-3.8-14.9-11.8-14.9 C13.1,17.5,9.2,24.8,9.2,32.8z"/><path fill="#FFFFFF" d="M62.7,43.8c0,2.7,0.1,5.1,0.2,7.2h-4.3l-0.3-4.3h-0.1c-1.3,2.1-4,4.9-8.8,4.9c-4.2,0-9.1-2.3-9.1-11.6 V24.6h4.8v14.6c0,5,1.5,8.4,5.9,8.4c3.2,0,5.5-2.2,6.3-4.4c0.3-0.7,0.4-1.6,0.4-2.5V24.6h4.8V43.8z"/><path fill="#FFFFFF" d="M67.3,32.8c0-3.1-0.1-5.8-0.2-8.2h4.2l0.2,5.2h0.2c1.2-3.5,4.1-5.8,7.3-5.8c0.5,0,0.9,0.1,1.4,0.2v4.5 c-0.5-0.1-1-0.2-1.6-0.2c-3.4,0-5.8,2.6-6.5,6.2c-0.1,0.7-0.2,1.4-0.2,2.2V51h-4.8V32.8z"/><path fill="#FFFFFF" d="M95.4,51l-9.4-36.8h5l4.4,18.6c1.1,4.6,2.1,9.2,2.7,12.7h0.1c0.6-3.7,1.8-8,3-12.8l4.9-18.5h5l4.5,18.7 c1,4.4,2,8.7,2.6,12.6h0.1c0.8-4,1.8-8.1,3-12.7l4.9-18.5h4.9L120.6,51h-5L111,31.9c-1.1-4.7-1.9-8.3-2.4-12h-0.1 c-0.7,3.7-1.5,7.3-2.8,12L100.4,51H95.4z"/><path fill="#FFFFFF" d="M154.9,37.6c0,9.8-6.8,14-13.2,14c-7.2,0-12.7-5.2-12.7-13.6c0-8.8,5.8-14,13.1-14 C149.8,24,154.9,29.5,154.9,37.6z M133.9,37.9c0,5.8,3.3,10.1,8,10.1c4.6,0,8-4.3,8-10.3c0-4.5-2.2-10.1-7.9-10.1 C136.3,27.6,133.9,32.8,133.9,37.9z"/><path fill="#FFFFFF" d="M158.2,32.8c0-3.1-0.1-5.8-0.2-8.2h4.2l0.2,5.2h0.2c1.2-3.5,4.1-5.8,7.3-5.8c0.5,0,0.9,0.1,1.4,0.2v4.5 c-0.5-0.1-1-0.2-1.6-0.2c-3.4,0-5.8,2.6-6.5,6.2c-0.1,0.7-0.2,1.4-0.2,2.2V51h-4.8V32.8z"/><path fill="#FFFFFF" d="M173.5,12.3h4.8V51h-4.8V12.3z"/><path fill="#FFFFFF" d="M206.5,12.3v31.9c0,2.3,0.1,5,0.2,6.8h-4.3l-0.2-4.6H202c-1.5,2.9-4.7,5.2-9,5.2 c-6.4,0-11.3-5.4-11.3-13.4c-0.1-8.8,5.4-14.2,11.9-14.2c4,0,6.8,1.9,8,4h0.1V12.3H206.5z M201.7,35.4c0-0.6-0.1-1.4-0.2-2 c-0.7-3.1-3.3-5.6-6.9-5.6c-5,0-7.9,4.4-7.9,10.2c0,5.3,2.6,9.8,7.8,9.8c3.2,0,6.2-2.1,7.1-5.7c0.2-0.7,0.2-1.3,0.2-2.1V35.4z"/><path fill="#FFFFFF" d="M42.8,64c0.1,1.6-1.1,2.9-3.1,2.9c-1.7,0-2.9-1.3-2.9-2.9c0-1.7,1.3-3,3-3C41.7,61,42.8,62.3,42.8,64z M37.4,97.8V71.4h4.8v26.4H37.4z"/><path fill="#FFFFFF" d="M47.5,78.6c0-2.7-0.1-5-0.2-7.1h4.3l0.3,4.4h0.1c1.3-2.5,4.4-5,8.8-5c3.7,0,9.4,2.2,9.4,11.2v15.8h-4.8 V82.6c0-4.3-1.6-7.8-6.1-7.8c-3.2,0-5.6,2.2-6.5,4.9c-0.2,0.6-0.3,1.4-0.3,2.2v15.9h-4.8V78.6z"/><path fill="#FFFFFF" d="M84,61.6c2.9-0.4,6.3-0.8,10.1-0.8c6.8,0,11.7,1.6,14.9,4.6c3.3,3,5.2,7.3,5.2,13.2c0,6-1.9,10.9-5.3,14.3 c-3.4,3.4-9.1,5.3-16.3,5.3c-3.4,0-6.2-0.2-8.6-0.4V61.6z M88.8,94.1c1.2,0.2,3,0.3,4.8,0.3c10.2,0,15.7-5.7,15.7-15.6 c0.1-8.7-4.9-14.2-14.9-14.2c-2.5,0-4.3,0.2-5.6,0.5V94.1z"/><path fill="#FFFFFF" d="M132.1,97.8l-0.4-3.3h-0.2c-1.5,2.1-4.3,3.9-8.1,3.9c-5.4,0-8.1-3.8-8.1-7.6c0-6.4,5.7-9.9,15.9-9.8v-0.5 c0-2.2-0.6-6.1-6-6.1c-2.5,0-5,0.8-6.9,2l-1.1-3.2c2.2-1.4,5.4-2.3,8.7-2.3c8.1,0,10.1,5.5,10.1,10.8v9.9c0,2.3,0.1,4.5,0.4,6.3 H132.1z M131.4,84.4c-5.3-0.1-11.2,0.8-11.2,5.9c0,3.1,2.1,4.6,4.5,4.6c3.4,0,5.6-2.2,6.4-4.4c0.2-0.5,0.3-1,0.3-1.5V84.4z"/><path fill="#FFFFFF" d="M146.6,63.9v7.6h6.9v3.7h-6.9v14.2c0,3.3,0.9,5.1,3.6,5.1c1.3,0,2.2-0.2,2.8-0.3l0.2,3.6 c-0.9,0.4-2.4,0.7-4.3,0.7c-2.2,0-4-0.7-5.2-2c-1.4-1.4-1.9-3.8-1.9-6.9V75.1h-4.1v-3.7h4.1v-6.3L146.6,63.9z"/><path fill="#FFFFFF" d="M171.4,97.8l-0.4-3.3h-0.2c-1.5,2.1-4.3,3.9-8.1,3.9c-5.4,0-8.1-3.8-8.1-7.6c0-6.4,5.7-9.9,15.9-9.8v-0.5 c0-2.2-0.6-6.1-6-6.1c-2.5,0-5,0.8-6.9,2l-1.1-3.2c2.2-1.4,5.4-2.3,8.7-2.3c8.1,0,10.1,5.5,10.1,10.8v9.9c0,2.3,0.1,4.5,0.4,6.3 H171.4z M170.7,84.4c-5.3-0.1-11.2,0.8-11.2,5.9c0,3.1,2.1,4.6,4.5,4.6c3.4,0,5.6-2.2,6.4-4.4c0.2-0.5,0.3-1,0.3-1.5V84.4z"/></g></g></a></g><a href="https://ourworldindata.org/grapher/child-mortality?tab=chart" target="_blank"><text font-size="25.20" x="15.0" y="35.2" fill="#555"><tspan x="15" y="35.160000000000004">Child mortality rate</tspan></text></a><text font-size="14.40" x="15.0" y="53.7" fill="#666"><tspan x="15" y="53.72">Shown is the share of children (born alive) who die before they are five years old.</tspan></text></g><g class="LineChart"><defs><clipPath id="boundsClip-30"><rect x="42.562" y="0" width="830" height="959.8"></rect></clipPath></defs><g class="AxisBoxView"><g class="HorizontalAxis"><text x="52.6" y="556.5" fill="#666" text-anchor="middle" font-size="16.2">1800</text><text x="204" y="556.5" fill="#666" text-anchor="middle" font-size="16.2">1850</text><text x="355.4" y="556.5" fill="#666" text-anchor="middle" font-size="16.2">1900</text><text x="506.8" y="556.5" fill="#666" text-anchor="middle" font-size="16.2">1950</text><text x="658.2" y="556.5" fill="#666" text-anchor="middle" font-size="16.2">2000</text><text x="703.6" y="556.5" fill="#666" text-anchor="middle" font-size="16.2">2015</text></g><g class="VerticalAxis"><text x="47.56" y="535.3" fill="#666" dominant-baseline="middle" text-anchor="end" font-size="16.2">0%</text><text x="47.56" y="449.9" fill="#666" dominant-baseline="middle" text-anchor="end" font-size="16.2">10%</text><text x="47.56" y="364.5" fill="#666" dominant-baseline="middle" text-anchor="end" font-size="16.2">20%</text><text x="47.56" y="279.1" fill="#666" dominant-baseline="middle" text-anchor="end" font-size="16.2">30%</text><text x="47.56" y="193.8" fill="#666" dominant-baseline="middle" text-anchor="end" font-size="16.2">40%</text><text x="47.56" y="108.4" fill="#666" dominant-baseline="middle" text-anchor="end" font-size="16.2">50%</text></g><g class="AxisGridLines"><line x1="52.56" y1="535.3" x2="703.61" y2="535.3" stroke="#ccc"></line><line x1="52.56" y1="449.9" x2="703.61" y2="449.9" stroke="#ddd" stroke-dasharray="3,2"></line><line x1="52.56" y1="364.5" x2="703.61" y2="364.5" stroke="#ddd" stroke-dasharray="3,2"></line><line x1="52.56" y1="279.1" x2="703.61" y2="279.1" stroke="#ddd" stroke-dasharray="3,2"></line><line x1="52.56" y1="193.8" x2="703.61" y2="193.8" stroke="#ddd" stroke-dasharray="3,2"></line><line x1="52.56" y1="108.4" x2="703.61" y2="108.4" stroke="#ddd" stroke-dasharray="3,2"></line></g></g><g clip-path="url(#boundsClip-30)"><g class="HeightedLegend clickable"><g class="legendMark"><g class="indicator"><line x1="708.61" y1="533.1" x2="731.11" y2="533.1" stroke="#666" stroke-width="0.5"></line><line x1="731.11" y1="533.1" x2="731.11" y2="528.55" stroke="#666" stroke-width="0.5"></line><line x1="731.11" y1="528.55" x2="733.61" y2="528.55" stroke="#666" stroke-width="0.5"></line></g><rect x="703.61" y="521.8" width="84.005" height="13.5" fill="#fff" opacity="0"></rect><text font-size="13.50" x="738.6" y="532.6" fill="#3360a9"><tspan x="738.61" y="532.5999999999999">Sweden</tspan></text></g><g class="legendMark"><g class="indicator"><line x1="708.61" y1="531.4" x2="727.7766666666666" y2="531.4" stroke="#666" stroke-width="0.5"></line><line x1="727.7766666666666" y1="531.4" x2="727.7766666666666" y2="513.05" stroke="#666" stroke-width="0.5"></line><line x1="727.7766666666666" y1="513.05" x2="733.61" y2="513.05" stroke="#666" stroke-width="0.5"></line></g><rect x="703.61" y="506.29999999999995" width="131.39" height="13.5" fill="#fff" opacity="0"></rect><text font-size="13.50" x="738.6" y="517.1" fill="#ca2628"><tspan x="738.61" y="517.0999999999999">United Kingdom</tspan></text></g><g class="legendMark"><g class="indicator"><line x1="708.61" y1="529.7" x2="724.4433333333334" y2="529.7" stroke="#666" stroke-width="0.5"></line><line x1="724.4433333333334" y1="529.7" x2="724.4433333333334" y2="497.54999999999995" stroke="#666" stroke-width="0.5"></line><line x1="724.4433333333334" y1="497.54999999999995" x2="733.61" y2="497.54999999999995" stroke="#666" stroke-width="0.5"></line></g><rect x="703.61" y="490.79999999999995" width="116.405" height="13.5" fill="#fff" opacity="0"></rect><text font-size="13.50" x="738.6" y="501.6" fill="#34983f"><tspan x="738.61" y="501.59999999999997">United States</tspan></text></g><g class="legendMark"><g class="indicator"><line x1="708.61" y1="521.2" x2="721.11" y2="521.2" stroke="#666" stroke-width="0.5"></line><line x1="721.11" y1="521.2" x2="721.11" y2="482.04999999999995" stroke="#666" stroke-width="0.5"></line><line x1="721.11" y1="482.04999999999995" x2="733.61" y2="482.04999999999995" stroke="#666" stroke-width="0.5"></line></g><rect x="703.61" y="475.29999999999995" width="68.75" height="13.5" fill="#fff" opacity="0"></rect><text font-size="13.50" x="738.6" y="486.1" fill="#f6a324"><tspan x="738.61" y="486.09999999999997">Brazil</tspan></text></g><g class="legendMark"><g class="indicator"><line x1="708.61" y1="496.9" x2="717.7766666666666" y2="496.9" stroke="#666" stroke-width="0.5"></line><line x1="717.7766666666666" y1="496.9" x2="717.7766666666666" y2="466.54999999999995" stroke="#666" stroke-width="0.5"></line><line x1="717.7766666666666" y1="466.54999999999995" x2="733.61" y2="466.54999999999995" stroke="#666" stroke-width="0.5"></line></g><rect x="703.61" y="459.79999999999995" width="70.235" height="13.5" fill="#fff" opacity="0"></rect><text font-size="13.50" x="738.6" y="470.6" fill="#a652ba"><tspan x="738.61" y="470.59999999999997">World</tspan></text></g><g class="legendMark"><g class="indicator"><line x1="708.61" y1="494.3" x2="714.4433333333334" y2="494.3" stroke="#666" stroke-width="0.5"></line><line x1="714.4433333333334" y1="494.3" x2="714.4433333333334" y2="451.04999999999995" stroke="#666" stroke-width="0.5"></line><line x1="714.4433333333334" y1="451.04999999999995" x2="733.61" y2="451.04999999999995" stroke="#666" stroke-width="0.5"></line></g><rect x="703.61" y="444.29999999999995" width="64.43" height="13.5" fill="#fff" opacity="0"></rect><text font-size="13.50" x="738.6" y="455.1" fill="#2a939b"><tspan x="738.61" y="455.09999999999997">India</tspan></text></g></g><g class="Lines"><rect x="53" y="77" width="651" height="459" fill="rgba(255,255,255,0)" opacity="0"></rect><g class="key-Sweden_0"><path stroke="#3360a9" stroke-linecap="round" d="M53 210L56 255L59 294L62 300L65 303L68 308L71 251L74 298L77 237L80 223L83 240L86 258L89 269L92 276L95 280L98 301L101 302L104 300L107 305L110 285L113 313L116 275L119 326L122 350L125 344L128 341L131 329L134 342L137 294L140 277L143 318L146 300L150 317L153 327L156 320L159 365L162 343L165 297L168 319L171 320L174 347L177 347L180 328L183 337L186 342L189 352L192 322L195 305L198 354L201 342L204 349L207 337L210 322L213 316L216 348L219 342L222 325L225 271L228 324L231 337L234 368L237 350L240 309L243 333L246 334L249 336L252 346L255 356L259 322L262 304L265 347L268 379L271 376L274 367L277 339L280 337L283 333L286 341L289 342L292 367L295 361L298 369L301 359L304 367L307 371L310 369L313 379L316 387L319 398L322 397L325 384L328 383L331 389L334 393L337 397L340 410L343 402L346 409L349 415L352 389L355 403L358 401L361 420L365 417L368 427L371 423L374 435L377 440L380 431L383 447L386 443L389 446L392 447L395 452L398 448L401 445L404 448L407 455L410 444L413 444L416 450L419 462L422 465L425 471L428 464L431 471L434 472L437 466L440 466L443 471L446 474L449 472L452 478L455 481L458 483L461 484L464 484L467 483L470 487L474 491L477 493L480 493L483 501L486 501L489 498L492 501L495 506L498 508L501 510L504 510L507 514L510 514L513 515L516 515L519 516L522 517L525 517L528 518L531 518L534 518L537 519L540 519L543 520L546 520L549 521L552 521L555 522L558 522L561 523L564 524L567 524L570 525L573 525L576 525L580 526L583 526L586 527L589 527L592 528L595 528L598 528L601 528L604 529L607 529L610 529L613 529L616 529L619 529L622 529L625 529L628 530L631 530L634 530L637 530L640 531L643 531L646 531L649 531L652 532L655 532L658 532L661 532L664 532L667 532L670 532L673 532L676 532L679 533L682 533L685 533L689 533L692 533L695 533L698 533L701 533L704 533" fill="none" stroke-width="1.5"></path></g><g class="key-United-States_0"><path stroke="#34983f" stroke-linecap="round" d="M53 140L56 140L59 140L62 141L65 141L68 141L71 141L74 141L77 141L80 142L83 142L86 142L89 143L92 143L95 144L98 144L101 145L104 145L107 145L110 146L113 146L116 147L119 148L122 149L125 150L128 150L131 151L134 152L137 153L140 154L143 155L146 156L150 158L153 160L156 161L159 163L162 165L165 166L168 168L171 170L174 171L177 174L180 177L183 180L186 183L189 186L192 189L195 192L198 194L201 197L204 200L207 205L210 211L213 216L216 221L219 226L222 232L225 237L228 242L231 247L234 252L237 254L240 256L243 257L246 259L249 260L252 262L255 264L259 265L262 267L265 268L268 265L271 261L274 257L277 253L280 250L283 246L286 242L289 239L292 235L295 231L298 239L301 248L304 256L307 264L310 272L313 281L316 289L319 297L322 301L325 307L328 310L331 313L334 316L337 319L340 323L343 325L346 328L349 332L352 335L355 338L358 341L361 350L365 351L368 344L371 350L374 348L377 349L380 363L383 370L386 363L389 375L392 381L395 377L398 385L401 390L404 384L407 383L410 333L413 393L416 394L419 413L422 413L425 409L428 418L431 427L434 434L437 441L440 448L443 454L446 460L449 465L452 470L455 475L458 469L461 473L464 473L467 475L470 478L474 484L477 485L480 486L483 490L486 491L489 494L492 496L495 497L498 500L501 502L504 502L507 504L510 504L513 505L516 506L519 506L522 507L525 508L528 508L531 509L534 509L537 510L540 510L543 510L546 511L549 511L552 512L555 512L558 513L561 514L564 514L567 515L570 516L573 517L576 518L580 519L583 519L586 520L589 521L592 521L595 522L598 523L601 523L604 523L607 524L610 524L613 524L616 525L619 525L622 525L625 525L628 526L631 526L634 526L637 527L640 527L643 527L646 527L649 528L652 528L655 528L658 528L661 528L664 528L667 528L670 528L673 528L676 528L679 529L682 529L685 529L689 529L692 529L695 529L698 529L701 530L704 530" fill="none" stroke-width="1.5"></path></g><g class="key-United-Kingdom_0"><path stroke="#ca2628" stroke-linecap="round" d="M53 254L56 256L59 258L62 260L65 261L68 262L71 264L74 265L77 266L80 267L83 268L86 269L89 270L92 272L95 271L98 270L101 269L104 268L107 268L110 268L113 267L116 266L119 265L122 265L125 267L128 268L131 269L134 271L137 273L140 272L143 271L146 270L150 276L153 281L156 287L159 292L162 297L165 302L168 307L171 312L174 316L177 321L180 312L183 315L186 314L189 323L192 295L195 295L198 298L201 296L204 324L207 311L210 307L213 310L216 295L219 312L222 324L225 311L228 296L231 301L234 327L237 315L240 319L243 297L246 303L249 307L252 306L255 323L259 311L262 311L265 306L268 315L271 327L274 334L277 319L280 320L283 332L286 343L289 321L292 341L295 321L298 356L301 337L304 346L307 336L310 348L313 338L316 341L319 354L322 341L325 337L328 337L331 341L334 334L337 358L340 333L343 343L346 342L349 338L352 337L355 343L358 351L361 365L365 372L368 357L371 377L374 373L377 385L380 385L383 396L386 402L389 374L392 411L395 401L398 403L401 394L404 421L407 419L410 389L413 420L416 421L419 438L422 433L425 448L428 438L431 439L434 447L437 447L440 452L443 438L446 459L449 454L452 456L455 461L458 462L461 467L464 464L467 467L470 473L474 479L477 470L480 466L483 477L486 480L489 485L492 488L495 490L498 490L501 501L504 503L507 505L510 505L513 507L516 508L519 509L522 510L525 511L528 511L531 512L534 512L537 513L540 513L543 514L546 514L549 515L552 515L555 516L558 516L561 517L564 517L567 517L570 518L573 518L576 519L580 519L583 520L586 521L589 521L592 522L595 523L598 523L601 524L604 524L607 525L610 525L613 526L616 526L619 526L622 527L625 527L628 527L631 528L634 528L637 529L640 529L643 529L646 529L649 529L652 530L655 530L658 530L661 530L664 530L667 530L670 530L673 530L676 530L679 531L682 531L685 531L689 531L692 531L695 531L698 531L701 531L704 531" fill="none" stroke-width="1.5"></path></g><g class="key-World_0"><path stroke="#a652ba" stroke-linecap="round" d="M507 343L510 345L513 350L516 354L519 358L522 361L525 364L528 367L531 369L534 371L537 373L540 375L543 378L546 381L549 385L552 389L555 394L558 398L561 402L564 406L567 410L570 413L573 416L576 418L580 421L583 423L586 426L589 428L592 431L595 433L598 436L601 439L604 441L607 444L610 446L613 448L616 450L619 452L622 453L625 455L628 456L631 457L634 458L637 459L640 460L643 461L646 462L649 464L652 466L655 468L658 470L661 472L664 474L667 477L670 479L673 481L676 483L679 485L682 487L685 489L689 491L692 492L695 494L698 495L701 496L704 497" fill="none" stroke-width="1.5"></path></g><g class="key-India_0"><path stroke="#2a939b" stroke-linecap="round" d="M53 100L56 100L59 100L62 100L65 100L68 100L71 100L74 100L77 100L80 100L83 100L86 100L89 100L92 100L95 100L98 100L101 100L104 100L107 100L110 100L113 100L116 100L119 100L122 100L125 100L128 100L131 100L134 100L137 100L140 100L143 100L146 100L150 100L153 100L156 100L159 100L162 100L165 100L168 100L171 100L174 100L177 100L180 100L183 100L186 100L189 100L192 100L195 100L198 100L201 100L204 100L207 100L210 100L213 100L216 100L219 100L222 100L225 100L228 100L231 100L234 100L237 100L240 100L243 100L246 100L249 100L252 100L255 100L259 100L262 100L265 100L268 100L271 100L274 100L277 100L280 100L283 100L286 100L289 100L292 100L295 100L298 100L301 99L304 98L307 97L310 95L313 94L316 91L319 90L322 89L325 87L328 86L331 85L334 83L337 82L340 82L343 81L346 80L349 78L352 77L355 78L358 77L361 98L365 118L368 138L371 156L374 174L377 191L380 207L383 222L386 237L389 251L392 247L395 265L398 241L401 255L404 255L407 251L410 165L413 224L416 264L419 260L422 292L425 291L428 273L431 294L434 273L437 303L440 295L443 288L446 284L449 287L452 300L455 298L458 275L461 307L464 310L467 310L470 303L474 319L477 313L480 316L483 308L486 306L489 300L492 326L495 322L498 319L501 315L504 311L507 289L510 291L513 295L516 300L519 304L522 308L525 312L528 315L531 319L534 323L537 326L540 329L543 332L546 335L549 338L552 341L555 344L558 346L561 349L564 352L567 355L570 358L573 361L576 365L580 369L583 373L586 377L589 381L592 386L595 390L598 394L601 398L604 402L607 406L610 410L613 413L616 417L619 420L622 423L625 426L628 429L631 432L634 435L637 438L640 441L643 444L646 447L649 450L652 453L655 456L658 459L661 462L664 465L667 468L670 470L673 473L676 476L679 478L682 481L685 483L689 486L692 488L695 490L698 491L701 493L704 494" fill="none" stroke-width="1.5"></path></g><g class="key-Brazil_0"><path stroke="#f6a324" stroke-linecap="round" d="M53 179L56 179L59 179L62 179L65 179L68 179L71 179L74 179L77 179L80 179L83 179L86 179L89 179L92 179L95 179L98 179L101 179L104 179L107 179L110 179L113 179L116 179L119 179L122 179L125 179L128 179L131 179L134 179L137 179L140 179L143 179L146 179L150 179L153 179L156 179L159 179L162 179L165 179L168 179L171 179L174 179L177 179L180 179L183 179L186 179L189 179L192 179L195 179L198 179L201 179L204 179L207 179L210 179L213 179L216 179L219 179L222 179L225 179L228 179L231 179L234 179L237 179L240 179L243 179L246 179L249 179L252 179L255 179L259 179L262 179L265 179L268 179L271 179L274 179L277 179L280 179L283 179L286 179L289 179L292 179L295 179L298 179L301 179L304 179L307 179L310 179L313 179L316 179L319 179L322 179L325 179L328 179L331 179L334 179L337 179L340 179L343 179L346 179L349 179L352 179L355 180L358 180L361 180L365 181L368 181L371 182L374 182L377 183L380 184L383 184L386 185L389 186L392 187L395 188L398 189L401 189L404 190L407 191L410 192L413 193L416 194L419 196L422 197L425 198L428 199L431 200L434 201L437 202L440 203L443 204L446 205L449 211L452 216L455 222L458 227L461 232L464 238L467 243L470 248L474 254L477 258L480 270L483 280L486 290L489 301L492 310L495 317L498 323L501 329L504 335L507 367L510 369L513 372L516 375L519 377L522 380L525 383L528 386L531 389L534 392L537 395L540 398L543 401L546 404L549 407L552 410L555 413L558 416L561 418L564 421L567 424L570 427L573 430L576 433L580 436L583 439L586 442L589 445L592 449L595 452L598 455L601 458L604 462L607 465L610 469L613 472L616 475L619 479L622 482L625 485L628 487L631 490L634 492L637 494L640 496L643 497L646 499L649 500L652 501L655 502L658 503L661 504L664 506L667 507L670 509L673 510L676 512L679 514L682 515L685 516L689 517L692 518L695 519L698 520L701 521L704 521" fill="none" stroke-width="1.5"></path></g></g></g></g><g class="SourcesFooter" style="fill:#777"><g class="clickable" style="fill:#777"><text font-size="12.60" x="15.0" y="581.6"><tspan x="15" y="581.58">Source: Gapminder estimates up until 1949 and UN Population Division from 1950 to today</tspan></text></g><text font-size="12.60" x="775.4" y="581.6"><tspan x="775.402" y="581.58"><a style="fill: #777;" class="cclogo" href="http://creativecommons.org/licenses/by-sa/4.0/deed.en_US" target="_blank">CC BY-SA</a></tspan></text></g></g></svg>