<svg xmlns="http://www.w3.org/2000/svg" version="1.1" style="font-family:&#x27;Helvetica Neue&#x27;, Helvetica, Arial, sans-serif;font-size:18px;background-color:white;text-rendering:optimizeLegibility;-webkit-font-smoothing:antialiased" width="850" height="600"><g class="ChartTab"><g class="HeaderView"><g opacity="0.8" transform="translate(778, 15) scale(0.27)"><a xmlns:xlink="http://www.w3.org/1999/xlink" xlink:href="https://ourworldindata.org" target="_blank"><g><rect x="0" y="0" fill="#1B2543" width="211.2" height="130.1"/><rect x="0" y="112.2" fill="#E63912" width="211.2" height="17.9"/><g><rect x="1.2" y="12.3" fill="none" width="210.2" height="99.2"/><path fill="#FFFFFF" d="M37.8,32.2c0,12.7-7.7,19.4-17.1,19.4c-9.7,0-16.6-7.5-16.6-18.7c0-11.7,7.3-19.3,17.1-19.3 C31.3,13.7,37.8,21.3,37.8,32.2z M9.2,32.8c0,7.9,4.3,14.9,11.8,14.9c7.5,0,11.8-6.9,11.8-15.3c0-7.3-3.8-14.9-11.8-14.9 C13.1,17.5,9.2,24.8,9.2,32.8z"/><path fill="#FFFFFF" d="M62.7,43.8c0,2.7,0.1,5.1,0.2,7.2h-4.3l-0.3-4.3h-0.1c-1.3,2.1-4,4.9-8.8,4.9c-4.2,0-9.1-2.3-9.1-11.6 V24.6h4.8v14.6c0,5,1.5,8.4,5.9,8.4c3.2,0,5.5-2.2,6.3-4.4c0.3-0.7,0.4-1.6,0.4-2.5V24.6h4.8V43.8z"/><path fill="#FFFFFF" d="M67.3,32.8c0-3.1-0.1-5.8-0.2-8.2h4.2l0.2,5.2h0.2c1.2-3.5,4.1-5.8,7.3-5.8c0.5,0,0.9,0.1,1.4,0.2v4.5 c-0.5-0.1-1-0.2-1.6-0.2c-3.4,0-5.8,2.6-6.5,6.2c-0.1,0.7-0.2,1.4-0.2,2.2V51h-4.8V32.8z"/><path fill="#FFFFFF" d="M95.4,51l-9.4-36.8h5l4.4,18.6c1.1,4.6,2.1,9.2,2.7,12.7h0.1c0.6-3.7,1.8-8,3-12.8l4.9-18.5h5l4.5,18.7 c1,4.4,2,8.7,2.6,12.6h0.1c0.8-4,1.8-8.1,3-12.7l4.9-18.5h4.9L120.6,51h-5L111,31.9c-1.1-4.7-1.9-8.3-2.4-12h-0.1 c-0.7,3.7-1.5,7.3-2.8,12L100.4,51H95.4z"/><path fill="#FFFFFF" d="M154.9,37.6c0,9.8-6.8,14-13.2,14c-7.2,0-12.7-5.2-12.7-13.6c0-8.8,5.8-14,13.1-14 C149.8,24,154.9,29.5,154.9,37.6z M133.9,37.9c0,5.8,3.3,10.1,8,10.1c4.6,0,8-4.3,8-10.3c0-4.5-2.2-10.1-7.9-10.1 C136.3,27.6,133.9,32.8,133.9,37.9z"/><path fill="#FFFFFF" d="M158.2,32.8c0-3.1-0.1-5.8-0.2-8.2h4.2l0.2,5.2h0.2c1.2-3.5,4.1-5.8,7.3-5.8c0.5,0,0.9,0.1,1.4,0.2v4.5 c-0.5-0.1-1-0.2-1.6-0.2c-3.4,0-5.8,2.6-6.5,6.2c-0.1,0.7-0.2,1.4-0.2,2.2V51h-4.8V32.8z"/><path fill="#FFFFFF" d="M173.5,12.3h4.8V51h-4.8V12.3z"/><path fill="#FFFFFF" d="M206.5,12.3v31.9c0,2.3,0.1,5,0.2,6.8h-4.3l-0.2-4.6H202c-1.5,2.9-4.7,5.2-9,5.2 c-6.4,0-11.3-5.4-11.3-13.4c-0.1-8.8,5.4-14.2,11.9-14.2c4,0,6.8,1.9,8,4h0.1V12.3H206.5z M201.7,35.4c0-0.6-0.1-1.4-0.2-2 c-0.7-3.1-3.3-5.6-6.9-5.6c-5,0-7.9,4.4-7.9,10.2c0,5.3,2.6,9.8,7.8,9.8c3.2,0,6.2-2.1,7.1-5.7c0.2-0.7,0.2-1.3,0.2-2.1V35.4z"/><path fill="#FFFFFF" d="M42.8,64c0.1,1.6-1.1,2.9-3.1,2.9c-1.7,0-2.9-1.3-2.9-2.9c0-1.7,1.3-3,3-3C41.7,61,42.8,62.3,42.8,64z M37.4,97.8V71.4h4.8v26.4H37.4z"/><path fill="#FFFFFF" d="M47.5,78.6c0-2.7-0.1-5-0.2-7.1h4.3l0.3,4.4h0.1c1.3-2.5,4.4-5,8.8-5c3.7,0,9.4,2.2,9.4,11.2v15.8h-4.8 V82.6c0-4.3-1.6-7.8-6.1-7.8c-3.2,0-5.6,2.2-6.5,4.9c-0.2,0.6-0.3,1.4-0.3,2.2v15.9h-4.8V78.6z"/><path fill="#FFFFFF" d="M84,61.6c2.9-0.4,6.3-0.8,10.1-0.8c6.8,0,11.7,1.6,14.9,4.6c3.3,3,5.2,7.3,5.2,13.2c0,6-1.9,10.9-5.3,14.3 c-3.4,3.4-9.1,5.3-16.3,5.3c-3.4,0-6.2-0.2-8.6-0.4V61.6z M88.8,94.1c1.2,0.2,3,0.3,4.8,0.3c10.2,0,15.7-5.7,15.7-15.6 c0.1-8.7-4.9-14.2-14.9-14.2c-2.5,0-4.3,0.2-5.6,0.5V94.1z"/><path fill="#FFFFFF" d="M132.1,97.8l-0.4-3.3h-0.2c-1.5,2.1-4.3,3.9-8.1,3.9c-5.4,0-8.1-3.8-8.1-7.6c0-6.4,5.7-9.9,15.9-9.8v-0.5 c0-2.2-0.6-6.1-6-6.1c-2.5,0-5,0.8-6.9,2l-1.1-3.2c2.2-1.4,5.4-2.3,8.7-2.3c8.1,0,10.1,5.5,10.1,10.8v9.9c0,2.3,0.1,4.5,0.4,6.3 H132.1z M131.4,84.4c-5.3-0.1-11.2,0.8-11.2,5.9c0,3.1,2.1,4.6,4.5,4.6c3.4,0,5.6-2.2,6.4-4.4c0.2-0.5,0.3-1,0.3-1.5V84.4z"/><path fill="#FFFFFF" d="M146.6,63.9v7.6h6.9v3.7h-6.9v14.2c0,3.3,0.9,5.1,3.6,5.1c1.3,0,2.2-0.2,2.8-0.3l0.2,3.6 c-0.9,0.4-2.4,0.7-4.3,0.7c-2.2,0-4-0.7-5.2-2c-1.4-1.4-1.9-3.8-1.9-6.9V75.1h-4.1v-3.7h4.1v-6.3L146.6,63.9z"/><path fill="#FFFFFF" d="M171.4,97.8l-0.4-3.3h-0.2c-1.5,2.1-4.3,3.9-8.1,3.9c-5.4,0-8.1-3.8-8.1-7.6c0-6.4,5.7-9.9,15.9-9.8v-0.5 c0-2.2-0.6-6.1-6-6.1c-2.5,0-5,0.8-6.9,2l-1.1-3.2c2.2-1.4,5.4-2.3,8.7-2.3c8.1,0,10.1,5.5,10.1,10.8v9.9c0,2.3,0.1,4.5,0.4,6.3 H171.4z M170.7,84.4c-5.3-0.1-11.2,0.8-11.2,5.9c0,3.1,2.1,4.6,4.5,4.6c3.4,0,5.6-2.2,6.4-4.4c0.2-0.5,0.3-1,0.3-1.5V84.4z"/></g></g></a></g><a href="https://ourworldindata.org/grapher/child-mortality-by-income-level-of-country" target="_blank"><text font-size="25.20" x="15.0" y="35.2" fill="#555"><tspan x="15" y="35.160000000000004">Child mortality by income level of country</tspan></text></a><text font-size="14.40" x="15.0" y="53.7" fill="#666"><tspan x="15" y="53.72">The child mortality rate measures the share of children that die before reaching the age of 5.</tspan></text></g><g class="LineChart"><defs><clipPath id="boundsClip-35"><rect x="42.562" y="0" width="830" height="959.8"></rect></clipPath></defs><g class="AxisBoxView"><g class="HorizontalAxis"><text x="52.6" y="556.5" fill="#666" text-anchor="middle" font-size="16.2">1990</text><text x="167.3" y="556.5" fill="#666" text-anchor="middle" font-size="16.2">1995</text><text x="282" y="556.5" fill="#666" text-anchor="middle" font-size="16.2">2000</text><text x="396.8" y="556.5" fill="#666" text-anchor="middle" font-size="16.2">2005</text><text x="511.5" y="556.5" fill="#666" text-anchor="middle" font-size="16.2">2010</text><text x="626.3" y="556.5" fill="#666" text-anchor="middle" font-size="16.2">2015</text><text x="672.2" y="556.5" fill="#666" text-anchor="middle" font-size="16.2">2017</text></g><g class="VerticalAxis"><text x="47.56" y="535.3" fill="#666" dominant-baseline="middle" text-anchor="end" font-size="16.2">0%</text><text x="47.56" y="484.2" fill="#666" dominant-baseline="middle" text-anchor="end" font-size="16.2">2%</text><text x="47.56" y="433.1" fill="#666" dominant-baseline="middle" text-anchor="end" font-size="16.2">4%</text><text x="47.56" y="382" fill="#666" dominant-baseline="middle" text-anchor="end" font-size="16.2">6%</text><text x="47.56" y="330.9" fill="#666" dominant-baseline="middle" text-anchor="end" font-size="16.2">8%</text><text x="47.56" y="279.8" fill="#666" dominant-baseline="middle" text-anchor="end" font-size="16.2">10%</text><text x="47.56" y="228.6" fill="#666" dominant-baseline="middle" text-anchor="end" font-size="16.2">12%</text><text x="47.56" y="177.5" fill="#666" dominant-baseline="middle" text-anchor="end" font-size="16.2">14%</text><text x="47.56" y="126.4" fill="#666" dominant-baseline="middle" text-anchor="end" font-size="16.2">16%</text></g><g class="AxisGridLines"><line x1="52.56" y1="535.3" x2="672.15" y2="535.3" stroke="#ccc"></line><line x1="52.56" y1="484.2" x2="672.15" y2="484.2" stroke="#ddd" stroke-dasharray="3,2"></line><line x1="52.56" y1="433.1" x2="672.15" y2="433.1" stroke="#ddd" stroke-dasharray="3,2"></line><line x1="52.56" y1="382" x2="672.15" y2="382" stroke="#ddd" stroke-dasharray="3,2"></line><line x1="52.56" y1="330.9" x2="672.15" y2="330.9" stroke="#ddd" stroke-dasharray="3,2"></line><line x1="52.56" y1="279.8" x2="672.15" y2="279.8" stroke="#ddd" stroke-dasharray="3,2"></line><line x1="52.56" y1="228.6" x2="672.15" y2="228.6" stroke="#ddd" stroke-dasharray="3,2"></line><line x1="52.56" y1="177.5" x2="672.15" y2="177.5" stroke="#ddd" stroke-dasharray="3,2"></line><line x1="52.56" y1="126.4" x2="672.15" y2="126.4" stroke="#ddd" stroke-dasharray="3,2"></line></g></g><g clip-path="url(#boundsClip-35)"><g class="HeightedLegend clickable"><g class="legendMark"><rect x="672.155" y="351.95" width="107.22500000000001" height="13.5" fill="#fff" opacity="0"></rect><text font-size="13.50" x="677.2" y="362.8" fill="#3360a9"><tspan x="677.155" y="362.75">Low income</tspan></text></g><g class="legendMark"><rect x="672.155" y="404.65" width="162.84500000000003" height="13.5" fill="#fff" opacity="0"></rect><text font-size="13.50" x="677.2" y="415.4" fill="#ca2628"><tspan x="677.155" y="415.45">Lower middle income</tspan></text></g><g class="legendMark"><rect x="672.155" y="428.65" width="70.235" height="13.5" fill="#fff" opacity="0"></rect><text font-size="13.50" x="677.2" y="439.4" fill="#34983f"><tspan x="677.155" y="439.45">World</tspan></text></g><g class="legendMark"><rect x="672.155" y="493.55" width="162.84500000000003" height="13.5" fill="#fff" opacity="0"></rect><text font-size="13.50" x="677.2" y="504.4" fill="#f6a324"><tspan x="677.155" y="504.35">Upper middle income</tspan></text></g><g class="legendMark"><rect x="672.155" y="514.75" width="110.19500000000001" height="13.5" fill="#fff" opacity="0"></rect><text font-size="13.50" x="677.2" y="525.5" fill="#a652ba"><tspan x="677.155" y="525.55">High income</tspan></text></g></g><g class="Lines"><rect x="53" y="77" width="620" height="459" fill="rgba(255,255,255,0)" opacity="0"></rect><g class="key-Low-income_0"><path stroke="#3360a9" stroke-linecap="round" d="M53 77L76 84L99 91L121 98L144 101L167 112L190 124L213 133L236 143L259 156L282 169L305 184L328 198L351 213L374 227L397 241L420 254L443 267L466 279L489 290L512 296L535 311L557 321L580 329L603 338L626 345L649 352L672 359" fill="none" stroke-width="1.5"></path><g fill="#3360a9"><circle cx="53" cy="77" r="2"></circle><circle cx="76" cy="84" r="2"></circle><circle cx="99" cy="91" r="2"></circle><circle cx="121" cy="98" r="2"></circle><circle cx="144" cy="101" r="2"></circle><circle cx="167" cy="112" r="2"></circle><circle cx="190" cy="124" r="2"></circle><circle cx="213" cy="133" r="2"></circle><circle cx="236" cy="143" r="2"></circle><circle cx="259" cy="156" r="2"></circle><circle cx="282" cy="169" r="2"></circle><circle cx="305" cy="184" r="2"></circle><circle cx="328" cy="198" r="2"></circle><circle cx="351" cy="213" r="2"></circle><circle cx="374" cy="227" r="2"></circle><circle cx="397" cy="241" r="2"></circle><circle cx="420" cy="254" r="2"></circle><circle cx="443" cy="267" r="2"></circle><circle cx="466" cy="279" r="2"></circle><circle cx="489" cy="290" r="2"></circle><circle cx="512" cy="296" r="2"></circle><circle cx="535" cy="311" r="2"></circle><circle cx="557" cy="321" r="2"></circle><circle cx="580" cy="329" r="2"></circle><circle cx="603" cy="338" r="2"></circle><circle cx="626" cy="345" r="2"></circle><circle cx="649" cy="352" r="2"></circle><circle cx="672" cy="359" r="2"></circle></g></g><g class="key-Lower-middle-income_0"><path stroke="#ca2628" stroke-linecap="round" d="M53 225L76 232L99 238L121 244L144 250L167 257L190 263L213 270L236 277L259 285L282 293L305 301L328 310L351 318L374 325L397 334L420 342L443 349L466 356L489 364L512 371L535 378L557 384L580 390L603 396L626 401L649 407L672 411" fill="none" stroke-width="1.5"></path><g fill="#ca2628"><circle cx="53" cy="225" r="2"></circle><circle cx="76" cy="232" r="2"></circle><circle cx="99" cy="238" r="2"></circle><circle cx="121" cy="244" r="2"></circle><circle cx="144" cy="250" r="2"></circle><circle cx="167" cy="257" r="2"></circle><circle cx="190" cy="263" r="2"></circle><circle cx="213" cy="270" r="2"></circle><circle cx="236" cy="277" r="2"></circle><circle cx="259" cy="285" r="2"></circle><circle cx="282" cy="293" r="2"></circle><circle cx="305" cy="301" r="2"></circle><circle cx="328" cy="310" r="2"></circle><circle cx="351" cy="318" r="2"></circle><circle cx="374" cy="325" r="2"></circle><circle cx="397" cy="334" r="2"></circle><circle cx="420" cy="342" r="2"></circle><circle cx="443" cy="349" r="2"></circle><circle cx="466" cy="356" r="2"></circle><circle cx="489" cy="364" r="2"></circle><circle cx="512" cy="371" r="2"></circle><circle cx="535" cy="378" r="2"></circle><circle cx="557" cy="384" r="2"></circle><circle cx="580" cy="390" r="2"></circle><circle cx="603" cy="396" r="2"></circle><circle cx="626" cy="401" r="2"></circle><circle cx="649" cy="407" r="2"></circle><circle cx="672" cy="411" r="2"></circle></g></g><g class="key-Upper-middle-income_0"><path stroke="#f6a324" stroke-linecap="round" d="M53 402L76 405L99 409L121 413L144 417L167 421L190 426L213 431L236 435L259 440L282 444L305 449L328 454L351 459L374 464L397 468L420 472L443 476L466 480L489 483L512 486L535 489L557 491L580 494L603 496L626 497L649 499L672 500" fill="none" stroke-width="1.5"></path><g fill="#f6a324"><circle cx="53" cy="402" r="2"></circle><circle cx="76" cy="405" r="2"></circle><circle cx="99" cy="409" r="2"></circle><circle cx="121" cy="413" r="2"></circle><circle cx="144" cy="417" r="2"></circle><circle cx="167" cy="421" r="2"></circle><circle cx="190" cy="426" r="2"></circle><circle cx="213" cy="431" r="2"></circle><circle cx="236" cy="435" r="2"></circle><circle cx="259" cy="440" r="2"></circle><circle cx="282" cy="444" r="2"></circle><circle cx="305" cy="449" r="2"></circle><circle cx="328" cy="454" r="2"></circle><circle cx="351" cy="459" r="2"></circle><circle cx="374" cy="464" r="2"></circle><circle cx="397" cy="468" r="2"></circle><circle cx="420" cy="472" r="2"></circle><circle cx="443" cy="476" r="2"></circle><circle cx="466" cy="480" r="2"></circle><circle cx="489" cy="483" r="2"></circle><circle cx="512" cy="486" r="2"></circle><circle cx="535" cy="489" r="2"></circle><circle cx="557" cy="491" r="2"></circle><circle cx="580" cy="494" r="2"></circle><circle cx="603" cy="496" r="2"></circle><circle cx="626" cy="497" r="2"></circle><circle cx="649" cy="499" r="2"></circle><circle cx="672" cy="500" r="2"></circle></g></g><g class="key-High-income_0"><path stroke="#a652ba" stroke-linecap="round" d="M53 501L76 503L99 504L121 506L144 507L167 509L190 510L213 511L236 512L259 513L282 513L305 514L328 515L351 515L374 516L397 516L420 517L443 517L466 518L489 518L512 519L535 519L557 520L580 520L603 521L626 521L649 521L672 522" fill="none" stroke-width="1.5"></path><g fill="#a652ba"><circle cx="53" cy="501" r="2"></circle><circle cx="76" cy="503" r="2"></circle><circle cx="99" cy="504" r="2"></circle><circle cx="121" cy="506" r="2"></circle><circle cx="144" cy="507" r="2"></circle><circle cx="167" cy="509" r="2"></circle><circle cx="190" cy="510" r="2"></circle><circle cx="213" cy="511" r="2"></circle><circle cx="236" cy="512" r="2"></circle><circle cx="259" cy="513" r="2"></circle><circle cx="282" cy="513" r="2"></circle><circle cx="305" cy="514" r="2"></circle><circle cx="328" cy="515" r="2"></circle><circle cx="351" cy="515" r="2"></circle><circle cx="374" cy="516" r="2"></circle><circle cx="397" cy="516" r="2"></circle><circle cx="420" cy="517" r="2"></circle><circle cx="443" cy="517" r="2"></circle><circle cx="466" cy="518" r="2"></circle><circle cx="489" cy="518" r="2"></circle><circle cx="512" cy="519" r="2"></circle><circle cx="535" cy="519" r="2"></circle><circle cx="557" cy="520" r="2"></circle><circle cx="580" cy="520" r="2"></circle><circle cx="603" cy="521" r="2"></circle><circle cx="626" cy="521" r="2"></circle><circle cx="649" cy="521" r="2"></circle><circle cx="672" cy="522" r="2"></circle></g></g><g class="key-World_0"><path stroke="#34983f" stroke-linecap="round" d="M53 297L76 300L99 303L121 306L144 309L167 313L190 317L213 321L236 326L259 332L282 338L305 345L328 352L351 359L374 365L397 373L420 380L443 386L466 392L489 399L512 404L535 410L557 415L580 420L603 424L626 428L649 432L672 435" fill="none" stroke-width="1.5"></path><g fill="#34983f"><circle cx="53" cy="297" r="2"></circle><circle cx="76" cy="300" r="2"></circle><circle cx="99" cy="303" r="2"></circle><circle cx="121" cy="306" r="2"></circle><circle cx="144" cy="309" r="2"></circle><circle cx="167" cy="313" r="2"></circle><circle cx="190" cy="317" r="2"></circle><circle cx="213" cy="321" r="2"></circle><circle cx="236" cy="326" r="2"></circle><circle cx="259" cy="332" r="2"></circle><circle cx="282" cy="338" r="2"></circle><circle cx="305" cy="345" r="2"></circle><circle cx="328" cy="352" r="2"></circle><circle cx="351" cy="359" r="2"></circle><circle cx="374" cy="365" r="2"></circle><circle cx="397" cy="373" r="2"></circle><circle cx="420" cy="380" r="2"></circle><circle cx="443" cy="386" r="2"></circle><circle cx="466" cy="392" r="2"></circle><circle cx="489" cy="399" r="2"></circle><circle cx="512" cy="404" r="2"></circle><circle cx="535" cy="410" r="2"></circle><circle cx="557" cy="415" r="2"></circle><circle cx="580" cy="420" r="2"></circle><circle cx="603" cy="424" r="2"></circle><circle cx="626" cy="428" r="2"></circle><circle cx="649" cy="432" r="2"></circle><circle cx="672" cy="435" r="2"></circle></g></g></g></g></g><g class="SourcesFooter" style="fill:#777"><g class="clickable" style="fill:#777"><text font-size="12.60" x="15.0" y="581.6"><tspan x="15" y="581.58">Source: World Bank</tspan></text></g><text font-size="12.60" x="564.2" y="581.6"><tspan x="564.226" y="581.58"><a target='_blank' style='fill: #777;' href='https://ourworldindata.org/child-mortality/'>OurWorldInData.org/child-mortality/</a> • <a style="fill: #777;" class="cclogo" href="http://creativecommons.org/licenses/by-sa/4.0/deed.en_US" target="_blank">CC BY-SA</a></tspan></text></g></g></svg>