<svg xmlns="http://www.w3.org/2000/svg" version="1.1" style="font-family:&#x27;Helvetica Neue&#x27;, Helvetica, Arial, sans-serif;font-size:18px;background-color:white;text-rendering:optimizeLegibility;-webkit-font-smoothing:antialiased" width="850" height="600"><g class="ChartTab"><g class="HeaderView"><g opacity="0.8" transform="translate(778, 15) scale(0.27)"><a xmlns:xlink="http://www.w3.org/1999/xlink" xlink:href="https://ourworldindata.org" target="_blank"><g><rect x="0" y="0" fill="#1B2543" width="211.2" height="130.1"/><rect x="0" y="112.2" fill="#E63912" width="211.2" height="17.9"/><g><rect x="1.2" y="12.3" fill="none" width="210.2" height="99.2"/><path fill="#FFFFFF" d="M37.8,32.2c0,12.7-7.7,19.4-17.1,19.4c-9.7,0-16.6-7.5-16.6-18.7c0-11.7,7.3-19.3,17.1-19.3 C31.3,13.7,37.8,21.3,37.8,32.2z M9.2,32.8c0,7.9,4.3,14.9,11.8,14.9c7.5,0,11.8-6.9,11.8-15.3c0-7.3-3.8-14.9-11.8-14.9 C13.1,17.5,9.2,24.8,9.2,32.8z"/><path fill="#FFFFFF" d="M62.7,43.8c0,2.7,0.1,5.1,0.2,7.2h-4.3l-0.3-4.3h-0.1c-1.3,2.1-4,4.9-8.8,4.9c-4.2,0-9.1-2.3-9.1-11.6 V24.6h4.8v14.6c0,5,1.5,8.4,5.9,8.4c3.2,0,5.5-2.2,6.3-4.4c0.3-0.7,0.4-1.6,0.4-2.5V24.6h4.8V43.8z"/><path fill="#FFFFFF" d="M67.3,32.8c0-3.1-0.1-5.8-0.2-8.2h4.2l0.2,5.2h0.2c1.2-3.5,4.1-5.8,7.3-5.8c0.5,0,0.9,0.1,1.4,0.2v4.5 c-0.5-0.1-1-0.2-1.6-0.2c-3.4,0-5.8,2.6-6.5,6.2c-0.1,0.7-0.2,1.4-0.2,2.2V51h-4.8V32.8z"/><path fill="#FFFFFF" d="M95.4,51l-9.4-36.8h5l4.4,18.6c1.1,4.6,2.1,9.2,2.7,12.7h0.1c0.6-3.7,1.8-8,3-12.8l4.9-18.5h5l4.5,18.7 c1,4.4,2,8.7,2.6,12.6h0.1c0.8-4,1.8-8.1,3-12.7l4.9-18.5h4.9L120.6,51h-5L111,31.9c-1.1-4.7-1.9-8.3-2.4-12h-0.1 c-0.7,3.7-1.5,7.3-2.8,12L100.4,51H95.4z"/><path fill="#FFFFFF" d="M154.9,37.6c0,9.8-6.8,14-13.2,14c-7.2,0-12.7-5.2-12.7-13.6c0-8.8,5.8-14,13.1-14 C149.8,24,154.9,29.5,154.9,37.6z M133.9,37.9c0,5.8,3.3,10.1,8,10.1c4.6,0,8-4.3,8-10.3c0-4.5-2.2-10.1-7.9-10.1 C136.3,27.6,133.9,32.8,133.9,37.9z"/><path fill="#FFFFFF" d="M158.2,32.8c0-3.1-0.1-5.8-0.2-8.2h4.2l0.2,5.2h0.2c1.2-3.5,4.1-5.8,7.3-5.8c0.5,0,0.9,0.1,1.4,0.2v4.5 c-0.5-0.1-1-0.2-1.6-0.2c-3.4,0-5.8,2.6-6.5,6.2c-0.1,0.7-0.2,1.4-0.2,2.2V51h-4.8V32.8z"/><path fill="#FFFFFF" d="M173.5,12.3h4.8V51h-4.8V12.3z"/><path fill="#FFFFFF" d="M206.5,12.3v31.9c0,2.3,0.1,5,0.2,6.8h-4.3l-0.2-4.6H202c-1.5,2.9-4.7,5.2-9,5.2 c-6.4,0-11.3-5.4-11.3-13.4c-0.1-8.8,5.4-14.2,11.9-14.2c4,0,6.8,1.9,8,4h0.1V12.3H206.5z M201.7,35.4c0-0.6-0.1-1.4-0.2-2 c-0.7-3.1-3.3-5.6-6.9-5.6c-5,0-7.9,4.4-7.9,10.2c0,5.3,2.6,9.8,7.8,9.8c3.2,0,6.2-2.1,7.1-5.7c0.2-0.7,0.2-1.3,0.2-2.1V35.4z"/><path fill="#FFFFFF" d="M42.8,64c0.1,1.6-1.1,2.9-3.1,2.9c-1.7,0-2.9-1.3-2.9-2.9c0-1.7,1.3-3,3-3C41.7,61,42.8,62.3,42.8,64z M37.4,97.8V71.4h4.8v26.4H37.4z"/><path fill="#FFFFFF" d="M47.5,78.6c0-2.7-0.1-5-0.2-7.1h4.3l0.3,4.4h0.1c1.3-2.5,4.4-5,8.8-5c3.7,0,9.4,2.2,9.4,11.2v15.8h-4.8 V82.6c0-4.3-1.6-7.8-6.1-7.8c-3.2,0-5.6,2.2-6.5,4.9c-0.2,0.6-0.3,1.4-0.3,2.2v15.9h-4.8V78.6z"/><path fill="#FFFFFF" d="M84,61.6c2.9-0.4,6.3-0.8,10.1-0.8c6.8,0,11.7,1.6,14.9,4.6c3.3,3,5.2,7.3,5.2,13.2c0,6-1.9,10.9-5.3,14.3 c-3.4,3.4-9.1,5.3-16.3,5.3c-3.4,0-6.2-0.2-8.6-0.4V61.6z M88.8,94.1c1.2,0.2,3,0.3,4.8,0.3c10.2,0,15.7-5.7,15.7-15.6 c0.1-8.7-4.9-14.2-14.9-14.2c-2.5,0-4.3,0.2-5.6,0.5V94.1z"/><path fill="#FFFFFF" d="M132.1,97.8l-0.4-3.3h-0.2c-1.5,2.1-4.3,3.9-8.1,3.9c-5.4,0-8.1-3.8-8.1-7.6c0-6.4,5.7-9.9,15.9-9.8v-0.5 c0-2.2-0.6-6.1-6-6.1c-2.5,0-5,0.8-6.9,2l-1.1-3.2c2.2-1.4,5.4-2.3,8.7-2.3c8.1,0,10.1,5.5,10.1,10.8v9.9c0,2.3,0.1,4.5,0.4,6.3 H132.1z M131.4,84.4c-5.3-0.1-11.2,0.8-11.2,5.9c0,3.1,2.1,4.6,4.5,4.6c3.4,0,5.6-2.2,6.4-4.4c0.2-0.5,0.3-1,0.3-1.5V84.4z"/><path fill="#FFFFFF" d="M146.6,63.9v7.6h6.9v3.7h-6.9v14.2c0,3.3,0.9,5.1,3.6,5.1c1.3,0,2.2-0.2,2.8-0.3l0.2,3.6 c-0.9,0.4-2.4,0.7-4.3,0.7c-2.2,0-4-0.7-5.2-2c-1.4-1.4-1.9-3.8-1.9-6.9V75.1h-4.1v-3.7h4.1v-6.3L146.6,63.9z"/><path fill="#FFFFFF" d="M171.4,97.8l-0.4-3.3h-0.2c-1.5,2.1-4.3,3.9-8.1,3.9c-5.4,0-8.1-3.8-8.1-7.6c0-6.4,5.7-9.9,15.9-9.8v-0.5 c0-2.2-0.6-6.1-6-6.1c-2.5,0-5,0.8-6.9,2l-1.1-3.2c2.2-1.4,5.4-2.3,8.7-2.3c8.1,0,10.1,5.5,10.1,10.8v9.9c0,2.3,0.1,4.5,0.4,6.3 H171.4z M170.7,84.4c-5.3-0.1-11.2,0.8-11.2,5.9c0,3.1,2.1,4.6,4.5,4.6c3.4,0,5.6-2.2,6.4-4.4c0.2-0.5,0.3-1,0.3-1.5V84.4z"/></g></g></a></g><a href="https://ourworldindata.org/grapher/co2-concentration-long-term" target="_blank"><text font-size="25.20" x="15.0" y="35.2" fill="#555"><tspan x="15" y="35.160000000000004">Atmospheric CO₂ concentration (ppm)</tspan></text></a><text font-size="14.40" x="15.0" y="53.7" fill="#666"><tspan x="15" y="53.72">Global average long-term atmospheric concentration of carbon dioxide (CO₂), measured in parts per million (ppm).</tspan></text></g><g class="LineChart"><defs><clipPath id="boundsClip-302"><rect x="73.342" y="0" width="830" height="959.8"></rect></clipPath></defs><g class="AxisBoxView"><g class="HorizontalAxis"><text x="83.3" y="556.5" fill="#666" text-anchor="middle" font-size="16.2">1</text><text x="252.1" y="556.5" fill="#666" text-anchor="middle" font-size="16.2">500</text><text x="421.2" y="556.5" fill="#666" text-anchor="middle" font-size="16.2">1000</text><text x="590.3" y="556.5" fill="#666" text-anchor="middle" font-size="16.2">1500</text><text x="764.8" y="556.5" fill="#666" text-anchor="middle" font-size="16.2">2016</text></g><g class="VerticalAxis"><text x="78.34" y="535.3" fill="#666" dominant-baseline="middle" text-anchor="end" font-size="16.2">260 ppm</text><text x="78.34" y="469.8" fill="#666" dominant-baseline="middle" text-anchor="end" font-size="16.2">280 ppm</text><text x="78.34" y="404.4" fill="#666" dominant-baseline="middle" text-anchor="end" font-size="16.2">300 ppm</text><text x="78.34" y="338.9" fill="#666" dominant-baseline="middle" text-anchor="end" font-size="16.2">320 ppm</text><text x="78.34" y="273.4" fill="#666" dominant-baseline="middle" text-anchor="end" font-size="16.2">340 ppm</text><text x="78.34" y="208" fill="#666" dominant-baseline="middle" text-anchor="end" font-size="16.2">360 ppm</text><text x="78.34" y="142.5" fill="#666" dominant-baseline="middle" text-anchor="end" font-size="16.2">380 ppm</text><text x="78.34" y="77" fill="#666" dominant-baseline="middle" text-anchor="end" font-size="16.2">400 ppm</text></g><g class="AxisGridLines"><line x1="83.34" y1="535.3" x2="764.76" y2="535.3" stroke="#ddd" stroke-dasharray="3,2"></line><line x1="83.34" y1="469.8" x2="764.76" y2="469.8" stroke="#ddd" stroke-dasharray="3,2"></line><line x1="83.34" y1="404.4" x2="764.76" y2="404.4" stroke="#ddd" stroke-dasharray="3,2"></line><line x1="83.34" y1="338.9" x2="764.76" y2="338.9" stroke="#ddd" stroke-dasharray="3,2"></line><line x1="83.34" y1="273.4" x2="764.76" y2="273.4" stroke="#ddd" stroke-dasharray="3,2"></line><line x1="83.34" y1="208" x2="764.76" y2="208" stroke="#ddd" stroke-dasharray="3,2"></line><line x1="83.34" y1="142.5" x2="764.76" y2="142.5" stroke="#ddd" stroke-dasharray="3,2"></line><line x1="83.34" y1="77" x2="764.76" y2="77" stroke="#ddd" stroke-dasharray="3,2"></line></g></g><g clip-path="url(#boundsClip-302)"><g class="HeightedLegend clickable"><g class="legendMark"><rect x="764.765" y="69.85" width="70.235" height="13.5" fill="#fff" opacity="0"></rect><text font-size="13.50" x="769.8" y="80.6" fill="#3360a9"><tspan x="769.765" y="80.64999999999999">World</tspan></text></g></g><g class="Lines"><rect x="83" y="77" width="681" height="459" fill="rgba(255,255,255,0)" opacity="0"></rect><g class="key-World_0"><path stroke="#3360a9" stroke-linecap="round" d="M83 483L84 483L84 482L84 482L85 482L85 482L85 482L86 481L86 481L86 481L87 481L87 481L87 480L88 480L88 480L88 480L89 479L89 479L89 479L90 479L90 479L90 478L91 478L91 478L92 478L92 478L92 478L93 477L93 477L93 477L94 477L94 477L94 477L95 477L95 477L95 477L96 477L96 477L96 477L97 477L97 477L97 477L98 477L98 477L98 477L99 477L99 478L99 478L100 478L100 478L100 478L101 478L101 478L101 478L102 478L102 478L102 478L103 478L103 478L103 478L104 479L104 479L104 479L105 479L105 479L105 479L106 479L106 479L106 479L107 479L107 479L107 479L108 479L108 479L108 479L109 479L109 479L109 479L110 479L110 479L110 479L111 479L111 479L111 479L112 479L112 479L112 479L113 479L113 479L113 479L114 479L114 479L115 479L115 478L115 478L116 478L116 478L116 478L117 478L117 478L117 478L118 478L118 478L118 478L119 478L119 478L119 478L120 478L120 478L120 478L121 478L121 478L121 478L122 478L122 478L122 478L123 478L123 478L123 477L124 477L124 477L124 477L125 477L125 477L125 477L126 477L126 477L126 477L127 477L127 477L127 476L128 476L128 476L128 476L129 476L129 476L129 476L130 476L130 475L130 475L131 475L131 475L131 475L132 474L132 474L132 474L133 474L133 474L133 473L134 473L134 473L134 473L135 473L135 472L135 472L136 472L136 472L136 472L137 471L137 471L138 471L138 471L138 471L139 471L139 470L139 470L140 470L140 470L140 470L141 470L141 470L141 469L142 469L142 469L142 469L143 469L143 469L143 469L144 469L144 469L144 469L145 469L145 469L145 468L146 468L146 468L146 468L147 468L147 468L147 468L148 468L148 468L148 468L149 468L149 468L149 468L150 468L150 468L150 468L151 468L151 467L151 467L152 467L152 467L152 467L153 467L153 467L153 467L154 467L154 467L154 466L155 466L155 466L155 466L156 466L156 466L156 466L157 466L157 466L157 466L158 466L158 465L158 465L159 465L159 465L159 465L160 465L160 465L160 465L161 465L161 465L162 465L162 465L162 465L163 465L163 465L163 465L164 465L164 466L164 466L165 466L165 466L165 466L166 466L166 466L166 466L167 466L167 466L167 466L168 467L168 467L168 467L169 467L169 467L169 467L170 467L170 467L170 468L171 468L171 468L171 468L172 468L172 468L172 468L173 468L173 469L173 469L174 469L174 469L174 469L175 469L175 469L175 469L176 469L176 469L176 469L177 469L177 470L177 470L178 470L178 470L178 470L179 470L179 470L179 470L180 470L180 470L180 470L181 470L181 470L181 470L182 470L182 470L182 470L183 470L183 470L183 470L184 470L184 470L185 470L185 470L185 471L186 471L186 471L186 471L187 471L187 471L187 471L188 471L188 471L188 471L189 471L189 471L189 471L190 472L190 472L190 472L191 472L191 472L191 472L192 472L192 472L192 473L193 473L193 473L193 473L194 473L194 473L194 473L195 474L195 474L195 474L196 474L196 474L196 474L197 475L197 475L197 475L198 475L198 475L198 476L199 476L199 476L199 476L200 476L200 476L200 477L201 477L201 477L201 477L202 477L202 478L202 478L203 478L203 478L203 478L204 478L204 479L204 479L205 479L205 479L205 479L206 479L206 479L206 479L207 480L207 480L208 480L208 480L208 480L209 480L209 480L209 480L210 480L210 480L210 480L211 480L211 481L211 481L212 481L212 481L212 481L213 481L213 481L213 481L214 481L214 481L214 481L215 481L215 481L215 481L216 481L216 481L216 481L217 481L217 481L217 481L218 481L218 481L218 481L219 481L219 481L219 481L220 481L220 481L220 481L221 481L221 480L221 480L222 480L222 480L222 480L223 480L223 480L223 480L224 480L224 480L224 480L225 480L225 480L225 480L226 480L226 480L226 480L227 480L227 480L227 480L228 480L228 480L228 480L229 480L229 480L229 480L230 480L230 480L230 480L231 480L231 480L232 480L232 480L232 480L233 480L233 480L233 480L234 480L234 480L234 480L235 480L235 480L235 480L236 480L236 480L236 480L237 480L237 480L237 480L238 480L238 481L238 481L239 481L239 481L239 481L240 481L240 481L240 481L241 481L241 481L241 481L242 481L242 481L242 481L243 481L243 481L243 481L244 481L244 481L244 481L245 481L245 481L245 481L246 481L246 481L246 481L247 481L247 481L247 481L248 481L248 481L248 481L249 481L249 481L249 481L250 482L250 482L250 482L251 482L251 482L251 482L252 482L252 482L252 482L253 482L253 482L253 482L254 482L254 482L255 482L255 482L255 482L256 483L256 483L256 483L257 483L257 483L257 483L258 483L258 483L258 483L259 483L259 483L259 483L260 483L260 483L260 483L261 483L261 483L261 483L262 483L262 483L262 483L263 483L263 483L263 483L264 483L264 483L264 483L265 483L265 483L265 482L266 482L266 482L266 482L267 482L267 482L267 482L268 482L268 481L268 481L269 481L269 481L269 481L270 481L270 480L270 480L271 480L271 480L271 480L272 480L272 479L272 479L273 479L273 479L273 479L274 479L274 479L274 479L275 479L275 478L275 478L276 478L276 478L276 478L277 478L277 478L278 478L278 478L278 478L279 478L279 479L279 479L280 479L280 479L280 479L281 479L281 479L281 479L282 479L282 479L282 479L283 479L283 479L283 480L284 480L284 480L284 480L285 480L285 480L285 480L286 480L286 480L286 480L287 480L287 480L287 479L288 479L288 479L288 479L289 479L289 479L289 479L290 479L290 479L290 479L291 478L291 478L291 478L292 478L292 478L292 478L293 478L293 477L293 477L294 477L294 477L294 477L295 477L295 476L295 476L296 476L296 476L296 476L297 476L297 476L297 475L298 475L298 475L298 475L299 475L299 475L299 475L300 474L300 474L301 474L301 474L301 474L302 474L302 474L302 474L303 474L303 473L303 473L304 473L304 473L304 473L305 473L305 473L305 473L306 473L306 473L306 472L307 472L307 472L307 472L308 472L308 472L308 472L309 472L309 472L309 472L310 472L310 472L310 472L311 471L311 471L311 471L312 471L312 471L312 471L313 471L313 471L313 471L314 471L314 471L314 471L315 471L315 471L315 471L316 471L316 471L316 471L317 471L317 471L317 471L318 471L318 471L318 471L319 471L319 471L319 471L320 471L320 471L320 471L321 471L321 471L321 472L322 472L322 472L322 472L323 472L323 472L323 472L324 472L324 473L325 473L325 473L325 473L326 473L326 473L326 473L327 473L327 474L327 474L328 474L328 474L328 474L329 474L329 474L329 474L330 474L330 475L330 475L331 475L331 475L331 475L332 475L332 475L332 475L333 475L333 475L333 475L334 475L334 475L334 475L335 475L335 475L335 475L336 475L336 475L336 475L337 475L337 475L337 475L338 475L338 475L338 475L339 475L339 475L339 475L340 475L340 475L340 475L341 475L341 475L341 475L342 475L342 475L342 475L343 475L343 475L343 475L344 475L344 475L344 475L345 475L345 475L345 475L346 475L346 475L346 475L347 475L347 475L348 475L348 475L348 475L349 475L349 475L349 475L350 475L350 475L350 475L351 475L351 475L351 475L352 475L352 475L352 475L353 475L353 475L353 475L354 475L354 475L354 475L355 474L355 474L355 474L356 474L356 474L356 474L357 474L357 474L357 474L358 474L358 474L358 474L359 474L359 474L359 474L360 474L360 474L360 474L361 474L361 473L361 473L362 473L362 473L362 473L363 473L363 473L363 473L364 473L364 473L364 473L365 473L365 473L365 473L366 473L366 473L366 473L367 472L367 472L367 472L368 472L368 472L368 472L369 472L369 472L369 472L370 472L370 472L371 472L371 472L371 472L372 472L372 472L372 472L373 472L373 472L373 472L374 472L374 472L374 472L375 472L375 472L375 472L376 472L376 472L376 472L377 472L377 472L377 472L378 473L378 473L378 473L379 473L379 473L379 473L380 473L380 473L380 473L381 473L381 473L381 473L382 473L382 473L382 473L383 473L383 473L383 473L384 473L384 473L384 473L385 473L385 473L385 473L386 473L386 473L386 473L387 473L387 473L387 473L388 473L388 473L388 473L389 473L389 473L389 473L390 473L390 473L390 473L391 473L391 473L391 473L392 473L392 473L392 473L393 473L393 473L393 473L394 473L394 473L395 473L395 473L395 473L396 472L396 472L396 472L397 472L397 472L397 472L398 472L398 472L398 472L399 472L399 472L399 472L400 472L400 472L400 472L401 473L401 473L401 473L402 473L402 473L402 473L403 473L403 473L403 473L404 473L404 473L404 473L405 474L405 474L405 474L406 474L406 474L406 474L407 474L407 474L407 474L408 475L408 475L408 475L409 475L409 475L409 475L410 475L410 475L410 475L411 475L411 475L411 475L412 475L412 474L412 474L413 474L413 474L413 474L414 474L414 474L414 473L415 473L415 473L415 473L416 473L416 472L416 472L417 472L417 472L418 471L418 471L418 471L419 471L419 471L419 470L420 470L420 470L420 470L421 469L421 469L421 469L422 469L422 469L422 469L423 468L423 468L423 468L424 468L424 468L424 468L425 468L425 468L425 468L426 468L426 468L426 468L427 468L427 468L427 468L428 468L428 467L428 467L429 467L429 467L429 467L430 467L430 467L430 467L431 467L431 467L431 466L432 466L432 466L432 466L433 466L433 465L433 465L434 465L434 465L434 465L435 464L435 464L435 464L436 464L436 464L436 463L437 463L437 463L437 463L438 462L438 462L438 462L439 462L439 462L439 462L440 461L440 461L441 461L441 461L441 461L442 461L442 461L442 460L443 460L443 460L443 460L444 460L444 460L444 460L445 460L445 460L445 460L446 460L446 460L446 460L447 460L447 460L447 460L448 460L448 460L448 460L449 460L449 460L449 460L450 460L450 460L450 460L451 460L451 460L451 460L452 460L452 460L452 461L453 461L453 461L453 461L454 461L454 461L454 461L455 461L455 461L455 461L456 461L456 461L456 461L457 461L457 461L457 461L458 461L458 461L458 461L459 461L459 461L459 461L460 461L460 461L460 461L461 461L461 460L461 460L462 460L462 460L462 460L463 460L463 460L464 460L464 460L464 460L465 460L465 460L465 460L466 459L466 459L466 459L467 459L467 459L467 459L468 459L468 459L468 459L469 459L469 459L469 458L470 458L470 458L470 458L471 458L471 458L471 458L472 458L472 458L472 458L473 458L473 458L473 458L474 457L474 457L474 457L475 457L475 457L475 457L476 457L476 457L476 457L477 457L477 457L477 457L478 457L478 457L478 457L479 457L479 457L479 457L480 457L480 457L480 457L481 457L481 457L481 457L482 457L482 457L482 457L483 457L483 457L483 457L484 457L484 457L484 457L485 457L485 457L485 457L486 457L486 457L486 457L487 457L487 457L488 458L488 458L488 458L489 458L489 458L489 458L490 458L490 458L490 458L491 458L491 458L491 458L492 458L492 458L492 458L493 458L493 458L493 458L494 458L494 459L494 459L495 459L495 459L495 459L496 459L496 459L496 459L497 459L497 459L497 459L498 459L498 459L498 459L499 459L499 460L499 460L500 460L500 460L500 460L501 460L501 460L501 460L502 460L502 460L502 460L503 461L503 461L503 461L504 461L504 461L504 461L505 461L505 461L505 462L506 462L506 462L506 462L507 462L507 462L507 463L508 463L508 463L508 463L509 463L509 464L509 464L510 464L510 464L511 464L511 464L511 465L512 465L512 465L512 465L513 465L513 466L513 466L514 466L514 466L514 466L515 466L515 466L515 466L516 466L516 466L516 466L517 466L517 466L517 466L518 466L518 466L518 466L519 466L519 466L519 466L520 466L520 466L520 466L521 466L521 466L521 466L522 465L522 465L522 465L523 465L523 465L523 465L524 465L524 465L524 465L525 465L525 465L525 465L526 465L526 465L526 465L527 465L527 465L527 465L528 465L528 465L528 465L529 466L529 466L529 466L530 466L530 466L530 466L531 466L531 466L531 466L532 467L532 467L532 467L533 467L533 467L534 467L534 467L534 468L535 468L535 468L535 468L536 468L536 468L536 468L537 469L537 469L537 469L538 469L538 469L538 469L539 469L539 469L539 470L540 470L540 470L540 470L541 470L541 470L541 470L542 470L542 470L542 470L543 470L543 471L543 471L544 471L544 471L544 471L545 471L545 471L545 471L546 471L546 471L546 471L547 471L547 471L547 471L548 471L548 471L548 471L549 471L549 471L549 471L550 471L550 471L550 471L551 471L551 471L551 471L552 471L552 471L552 471L553 471L553 471L553 471L554 471L554 471L554 471L555 471L555 471L555 471L556 471L556 471L556 471L557 471L557 471L558 471L558 471L558 471L559 471L559 471L559 471L560 471L560 471L560 471L561 471L561 471L561 471L562 471L562 471L562 471L563 471L563 471L563 471L564 471L564 471L564 470L565 470L565 470L565 469L566 469L566 468L566 467L567 467L567 466L567 465L568 464L568 463L568 463L569 462L569 461L569 460L570 460L570 459L570 459L571 458L571 458L571 457L572 457L572 456L572 456L573 455L573 455L573 454L574 454L574 454L574 453L575 453L575 453L575 453L576 452L576 452L576 452L577 452L577 452L577 452L578 451L578 451L578 451L579 451L579 451L579 451L580 451L580 451L581 451L581 451L581 451L582 451L582 451L582 451L583 451L583 451L583 451L584 452L584 452L584 452L585 452L585 452L585 452L586 452L586 453L586 453L587 453L587 453L587 453L588 454L588 454L588 454L589 454L589 455L589 455L590 455L590 455L590 456L591 456L591 456L591 456L592 457L592 457L592 457L593 457L593 458L593 458L594 458L594 458L594 459L595 459L595 459L595 460L596 460L596 460L596 460L597 461L597 461L597 461L598 461L598 462L598 462L599 462L599 462L599 462L600 463L600 463L600 463L601 463L601 463L601 464L602 464L602 464L602 464L603 464L603 464L604 465L604 465L604 465L605 465L605 465L605 465L606 465L606 465L606 465L607 465L607 465L607 465L608 465L608 465L608 465L609 465L609 465L609 465L610 464L610 464L610 464L611 464L611 464L611 464L612 463L612 463L612 463L613 463L613 462L613 462L614 462L614 462L614 462L615 461L615 461L615 461L616 461L616 461L616 461L617 462L617 462L617 462L618 462L618 463L618 463L619 464L619 465L619 465L620 466L620 467L620 468L621 469L621 471L621 472L622 473L622 475L622 476L623 478L623 479L623 481L624 482L624 484L624 485L625 487L625 488L625 489L626 491L626 492L627 493L627 494L627 495L628 495L628 496L628 496L629 496L629 496L629 496L630 496L630 496L630 496L631 495L631 495L631 494L632 493L632 493L632 492L633 491L633 491L633 490L634 489L634 488L634 487L635 487L635 486L635 485L636 485L636 484L636 483L637 483L637 482L637 482L638 481L638 481L638 480L639 480L639 479L639 479L640 479L640 479L640 478L641 478L641 478L641 478L642 478L642 478L642 477L643 477L643 477L643 477L644 477L644 477L644 477L645 477L645 478L645 478L646 478L646 478L646 478L647 478L647 478L647 478L648 479L648 479L648 479L649 479L649 479L649 480L650 480L650 480L651 480L651 480L651 480L652 481L652 481L652 481L653 481L653 481L653 482L654 482L654 482L654 482L655 482L655 482L655 482L656 482L656 483L656 483L657 483L657 483L657 483L658 483L658 483L658 483L659 483L659 483L659 483L660 483L660 483L660 483L661 482L661 482L661 482L662 482L662 482L662 482L663 482L663 481L663 481L664 481L664 481L664 480L665 480L665 480L665 480L666 479L666 479L666 479L667 478L667 478L667 478L668 477L668 477L668 477L669 477L669 477L669 477L670 477L670 477L670 478L671 478L671 478L671 479L672 479L672 479L672 480L673 480L673 480L674 481L674 481L674 481L675 481L675 482L675 482L676 482L676 482L676 482L677 482L677 482L677 482L678 482L678 482L678 482L679 482L679 482L679 482L680 481L680 481L680 481L681 481L681 480L681 480L682 480L682 480L682 479L683 479L683 479L683 479L684 479L684 479L684 479L685 479L685 478L685 478L686 477L686 477L686 476L687 475L687 474L687 474L688 473L688 472L688 471L689 470L689 469L689 468L690 467L690 467L690 466L691 465L691 465L691 464L692 464L692 463L692 463L693 462L693 461L693 461L694 460L694 460L694 459L695 459L695 458L695 458L696 458L696 458L697 458L697 458L697 458L698 459L698 459L698 460L699 461L699 461L699 462L700 462L700 463L700 463L701 463L701 463L701 463L702 462L702 462L702 461L703 461L703 460L703 459L704 459L704 458L704 457L705 456L705 455L705 455L706 454L706 453L706 452L707 451L707 451L707 450L708 449L708 448L708 447L709 447L709 446L709 446L710 446L710 446L710 447L711 447L711 447L711 448L712 449L712 449L712 449L713 450L713 450L713 450L714 450L714 449L714 449L715 448L715 447L715 446L716 445L716 444L716 443L717 443L717 442L717 441L718 441L718 441L718 440L719 440L719 439L719 439L720 438L720 437L721 436L721 435L721 434L722 432L722 430L722 429L723 427L723 425L723 424L724 422L724 421L724 420L725 419L725 418L725 418L726 417L726 417L726 417L727 416L727 415L727 414L728 413L728 412L728 411L729 409L729 408L729 407L730 405L730 404L730 402L731 401L731 399L731 398L732 396L732 395L732 394L733 392L733 391L733 390L734 389L734 388L734 386L735 385L735 384L735 383L736 382L736 381L736 380L737 379L737 377L737 376L738 375L738 373L738 372L739 371L739 370L739 370L740 369L740 369L740 369L741 369L741 368L741 368L742 368L742 367L742 367L743 366L743 365L744 364L744 363L744 361L745 360L745 358L745 356L746 354L746 352L746 349L747 347L747 345L747 342L748 340L748 337L748 334L749 331L749 328L749 325L750 322L750 318L750 314L751 310L751 306L751 302L752 298L752 294L752 289L753 284L753 279L753 274L754 270L754 265L754 260L755 255L755 250L755 245L756 240L756 235L756 230L757 226L757 221L757 216L758 211L758 206L758 201L759 195L759 190L759 184L760 178L760 172L760 165L761 159L761 153L761 146L762 140L762 133L762 126L763 120L763 113L763 106L764 99L764 91L764 84L765 77" fill="none" stroke-width="1.5"></path></g></g></g></g><g class="SourcesFooter" style="fill:#777"><g class="clickable" style="fill:#777"><text font-size="12.60" x="15.0" y="581.6"><tspan x="15" y="581.58">Source: Scripps CO₂ Program</tspan></text></g><text font-size="12.60" x="775.4" y="581.6"><tspan x="775.402" y="581.58"><a style="fill: #777;" class="cclogo" href="http://creativecommons.org/licenses/by-sa/4.0/deed.en_US" target="_blank">CC BY-SA</a></tspan></text></g></g></svg>