<svg xmlns="http://www.w3.org/2000/svg" version="1.1" style="font-family:&#x27;Helvetica Neue&#x27;, Helvetica, Arial, sans-serif;font-size:18px;background-color:white;text-rendering:optimizeLegibility;-webkit-font-smoothing:antialiased" width="850" height="600"><g class="ChartTab"><g class="HeaderView"><g opacity="0.8" transform="translate(778, 15) scale(0.27)"><a xmlns:xlink="http://www.w3.org/1999/xlink" xlink:href="https://ourworldindata.org" target="_blank"><g><rect x="0" y="0" fill="#1B2543" width="211.2" height="130.1"/><rect x="0" y="112.2" fill="#E63912" width="211.2" height="17.9"/><g><rect x="1.2" y="12.3" fill="none" width="210.2" height="99.2"/><path fill="#FFFFFF" d="M37.8,32.2c0,12.7-7.7,19.4-17.1,19.4c-9.7,0-16.6-7.5-16.6-18.7c0-11.7,7.3-19.3,17.1-19.3 C31.3,13.7,37.8,21.3,37.8,32.2z M9.2,32.8c0,7.9,4.3,14.9,11.8,14.9c7.5,0,11.8-6.9,11.8-15.3c0-7.3-3.8-14.9-11.8-14.9 C13.1,17.5,9.2,24.8,9.2,32.8z"/><path fill="#FFFFFF" d="M62.7,43.8c0,2.7,0.1,5.1,0.2,7.2h-4.3l-0.3-4.3h-0.1c-1.3,2.1-4,4.9-8.8,4.9c-4.2,0-9.1-2.3-9.1-11.6 V24.6h4.8v14.6c0,5,1.5,8.4,5.9,8.4c3.2,0,5.5-2.2,6.3-4.4c0.3-0.7,0.4-1.6,0.4-2.5V24.6h4.8V43.8z"/><path fill="#FFFFFF" d="M67.3,32.8c0-3.1-0.1-5.8-0.2-8.2h4.2l0.2,5.2h0.2c1.2-3.5,4.1-5.8,7.3-5.8c0.5,0,0.9,0.1,1.4,0.2v4.5 c-0.5-0.1-1-0.2-1.6-0.2c-3.4,0-5.8,2.6-6.5,6.2c-0.1,0.7-0.2,1.4-0.2,2.2V51h-4.8V32.8z"/><path fill="#FFFFFF" d="M95.4,51l-9.4-36.8h5l4.4,18.6c1.1,4.6,2.1,9.2,2.7,12.7h0.1c0.6-3.7,1.8-8,3-12.8l4.9-18.5h5l4.5,18.7 c1,4.4,2,8.7,2.6,12.6h0.1c0.8-4,1.8-8.1,3-12.7l4.9-18.5h4.9L120.6,51h-5L111,31.9c-1.1-4.7-1.9-8.3-2.4-12h-0.1 c-0.7,3.7-1.5,7.3-2.8,12L100.4,51H95.4z"/><path fill="#FFFFFF" d="M154.9,37.6c0,9.8-6.8,14-13.2,14c-7.2,0-12.7-5.2-12.7-13.6c0-8.8,5.8-14,13.1-14 C149.8,24,154.9,29.5,154.9,37.6z M133.9,37.9c0,5.8,3.3,10.1,8,10.1c4.6,0,8-4.3,8-10.3c0-4.5-2.2-10.1-7.9-10.1 C136.3,27.6,133.9,32.8,133.9,37.9z"/><path fill="#FFFFFF" d="M158.2,32.8c0-3.1-0.1-5.8-0.2-8.2h4.2l0.2,5.2h0.2c1.2-3.5,4.1-5.8,7.3-5.8c0.5,0,0.9,0.1,1.4,0.2v4.5 c-0.5-0.1-1-0.2-1.6-0.2c-3.4,0-5.8,2.6-6.5,6.2c-0.1,0.7-0.2,1.4-0.2,2.2V51h-4.8V32.8z"/><path fill="#FFFFFF" d="M173.5,12.3h4.8V51h-4.8V12.3z"/><path fill="#FFFFFF" d="M206.5,12.3v31.9c0,2.3,0.1,5,0.2,6.8h-4.3l-0.2-4.6H202c-1.5,2.9-4.7,5.2-9,5.2 c-6.4,0-11.3-5.4-11.3-13.4c-0.1-8.8,5.4-14.2,11.9-14.2c4,0,6.8,1.9,8,4h0.1V12.3H206.5z M201.7,35.4c0-0.6-0.1-1.4-0.2-2 c-0.7-3.1-3.3-5.6-6.9-5.6c-5,0-7.9,4.4-7.9,10.2c0,5.3,2.6,9.8,7.8,9.8c3.2,0,6.2-2.1,7.1-5.7c0.2-0.7,0.2-1.3,0.2-2.1V35.4z"/><path fill="#FFFFFF" d="M42.8,64c0.1,1.6-1.1,2.9-3.1,2.9c-1.7,0-2.9-1.3-2.9-2.9c0-1.7,1.3-3,3-3C41.7,61,42.8,62.3,42.8,64z M37.4,97.8V71.4h4.8v26.4H37.4z"/><path fill="#FFFFFF" d="M47.5,78.6c0-2.7-0.1-5-0.2-7.1h4.3l0.3,4.4h0.1c1.3-2.5,4.4-5,8.8-5c3.7,0,9.4,2.2,9.4,11.2v15.8h-4.8 V82.6c0-4.3-1.6-7.8-6.1-7.8c-3.2,0-5.6,2.2-6.5,4.9c-0.2,0.6-0.3,1.4-0.3,2.2v15.9h-4.8V78.6z"/><path fill="#FFFFFF" d="M84,61.6c2.9-0.4,6.3-0.8,10.1-0.8c6.8,0,11.7,1.6,14.9,4.6c3.3,3,5.2,7.3,5.2,13.2c0,6-1.9,10.9-5.3,14.3 c-3.4,3.4-9.1,5.3-16.3,5.3c-3.4,0-6.2-0.2-8.6-0.4V61.6z M88.8,94.1c1.2,0.2,3,0.3,4.8,0.3c10.2,0,15.7-5.7,15.7-15.6 c0.1-8.7-4.9-14.2-14.9-14.2c-2.5,0-4.3,0.2-5.6,0.5V94.1z"/><path fill="#FFFFFF" d="M132.1,97.8l-0.4-3.3h-0.2c-1.5,2.1-4.3,3.9-8.1,3.9c-5.4,0-8.1-3.8-8.1-7.6c0-6.4,5.7-9.9,15.9-9.8v-0.5 c0-2.2-0.6-6.1-6-6.1c-2.5,0-5,0.8-6.9,2l-1.1-3.2c2.2-1.4,5.4-2.3,8.7-2.3c8.1,0,10.1,5.5,10.1,10.8v9.9c0,2.3,0.1,4.5,0.4,6.3 H132.1z M131.4,84.4c-5.3-0.1-11.2,0.8-11.2,5.9c0,3.1,2.1,4.6,4.5,4.6c3.4,0,5.6-2.2,6.4-4.4c0.2-0.5,0.3-1,0.3-1.5V84.4z"/><path fill="#FFFFFF" d="M146.6,63.9v7.6h6.9v3.7h-6.9v14.2c0,3.3,0.9,5.1,3.6,5.1c1.3,0,2.2-0.2,2.8-0.3l0.2,3.6 c-0.9,0.4-2.4,0.7-4.3,0.7c-2.2,0-4-0.7-5.2-2c-1.4-1.4-1.9-3.8-1.9-6.9V75.1h-4.1v-3.7h4.1v-6.3L146.6,63.9z"/><path fill="#FFFFFF" d="M171.4,97.8l-0.4-3.3h-0.2c-1.5,2.1-4.3,3.9-8.1,3.9c-5.4,0-8.1-3.8-8.1-7.6c0-6.4,5.7-9.9,15.9-9.8v-0.5 c0-2.2-0.6-6.1-6-6.1c-2.5,0-5,0.8-6.9,2l-1.1-3.2c2.2-1.4,5.4-2.3,8.7-2.3c8.1,0,10.1,5.5,10.1,10.8v9.9c0,2.3,0.1,4.5,0.4,6.3 H171.4z M170.7,84.4c-5.3-0.1-11.2,0.8-11.2,5.9c0,3.1,2.1,4.6,4.5,4.6c3.4,0,5.6-2.2,6.4-4.4c0.2-0.5,0.3-1,0.3-1.5V84.4z"/></g></g></a></g><a href="https://ourworldindata.org/grapher/coal-production-by-country" target="_blank"><text font-size="25.20" x="15.0" y="35.2" fill="#555"><tspan x="15" y="35.160000000000004">Coal production by country, terawatt-hours (TWh)</tspan></text></a><text font-size="14.40" x="15.0" y="53.7" fill="#666"><tspan x="15" y="53.72">Annual coal production by country or region, measured in terawatt-hour (TWh) equivalents.</tspan></text></g><g class="LineChart"><defs><clipPath id="boundsClip-354"><rect x="98.614" y="0" width="830" height="959.8"></rect></clipPath></defs><g class="AxisBoxView"><g class="HorizontalAxis"><text x="108.6" y="556.5" fill="#666" text-anchor="middle" font-size="16.2">1700</text><text x="200.3" y="556.5" fill="#666" text-anchor="middle" font-size="16.2">1750</text><text x="291.9" y="556.5" fill="#666" text-anchor="middle" font-size="16.2">1800</text><text x="383.6" y="556.5" fill="#666" text-anchor="middle" font-size="16.2">1850</text><text x="475.2" y="556.5" fill="#666" text-anchor="middle" font-size="16.2">1900</text><text x="566.8" y="556.5" fill="#666" text-anchor="middle" font-size="16.2">1950</text><text x="687.8" y="556.5" fill="#666" text-anchor="middle" font-size="16.2">2016</text></g><g class="VerticalAxis"><text x="103.61" y="535.3" fill="#666" dominant-baseline="middle" text-anchor="end" font-size="16.2">0 TWh</text><text x="103.61" y="424.9" fill="#666" dominant-baseline="middle" text-anchor="end" font-size="16.2">5,000 TWh</text><text x="103.61" y="314.5" fill="#666" dominant-baseline="middle" text-anchor="end" font-size="16.2">10,000 TWh</text><text x="103.61" y="204" fill="#666" dominant-baseline="middle" text-anchor="end" font-size="16.2">15,000 TWh</text><text x="103.61" y="93.6" fill="#666" dominant-baseline="middle" text-anchor="end" font-size="16.2">20,000 TWh</text></g><g class="AxisGridLines"><line x1="108.61" y1="535.3" x2="687.82" y2="535.3" stroke="#ccc"></line><line x1="108.61" y1="424.9" x2="687.82" y2="424.9" stroke="#ddd" stroke-dasharray="3,2"></line><line x1="108.61" y1="314.5" x2="687.82" y2="314.5" stroke="#ddd" stroke-dasharray="3,2"></line><line x1="108.61" y1="204" x2="687.82" y2="204" stroke="#ddd" stroke-dasharray="3,2"></line><line x1="108.61" y1="93.6" x2="687.82" y2="93.6" stroke="#ddd" stroke-dasharray="3,2"></line></g></g><g clip-path="url(#boundsClip-354)"><g class="HeightedLegend clickable"><g class="legendMark"><g class="indicator"><line x1="692.815" y1="118.6" x2="705.315" y2="118.6" stroke="#666" stroke-width="0.5"></line><line x1="705.315" y1="118.6" x2="705.315" y2="118.6" stroke="#666" stroke-width="0.5"></line><line x1="705.315" y1="118.6" x2="717.815" y2="118.6" stroke="#666" stroke-width="0.5"></line></g><rect x="687.815" y="111.85" width="86.165" height="13.5" fill="#fff" opacity="0"></rect><text font-size="13.50" x="722.8" y="122.6" fill="#f6a324"><tspan x="722.815" y="122.64999999999999">China -  </tspan></text></g><g class="legendMark"><g class="indicator"><line x1="692.815" y1="468.5" x2="715.315" y2="468.5" stroke="#666" stroke-width="0.5"></line><line x1="715.315" y1="468.5" x2="715.315" y2="468.5" stroke="#666" stroke-width="0.5"></line><line x1="715.315" y1="468.5" x2="717.815" y2="468.5" stroke="#666" stroke-width="0.5"></line></g><rect x="687.815" y="461.75" width="80.225" height="13.5" fill="#fff" opacity="0"></rect><text font-size="13.50" x="722.8" y="472.6" fill="#34983f"><tspan x="722.815" y="472.55">India -  </tspan></text></g><g class="legendMark"><g class="indicator"><line x1="692.815" y1="472.3" x2="705.315" y2="472.3" stroke="#666" stroke-width="0.5"></line><line x1="705.315" y1="472.3" x2="705.315" y2="484" stroke="#666" stroke-width="0.5"></line><line x1="705.315" y1="484" x2="717.815" y2="484" stroke="#666" stroke-width="0.5"></line></g><rect x="687.815" y="477.25" width="103.44500000000001" height="13.5" fill="#fff" opacity="0"></rect><text font-size="13.50" x="722.8" y="488.1" fill="#ca2628"><tspan x="722.815" y="488.05">Australia -  </tspan></text></g><g class="legendMark"><g class="indicator"><line x1="692.815" y1="534.5" x2="705.315" y2="534.5" stroke="#666" stroke-width="0.5"></line><line x1="705.315" y1="534.5" x2="705.315" y2="534.5" stroke="#666" stroke-width="0.5"></line><line x1="705.315" y1="534.5" x2="717.815" y2="534.5" stroke="#666" stroke-width="0.5"></line></g><rect x="687.815" y="527.75" width="147.185" height="13.5" fill="#fff" opacity="0"></rect><text font-size="13.50" x="722.8" y="538.5" fill="#3360a9"><tspan x="722.815" y="538.55">United Kingdom -  </tspan></text></g></g><g class="Lines"><rect x="109" y="77" width="579" height="459" fill="rgba(255,255,255,0)" opacity="0"></rect><g class="key-United-Kingdom_1"><path stroke="#3360a9" stroke-linecap="round" d="M109 535L200 534L292 534L338 531L389 522L407 516L426 510L444 504L462 498L481 489L499 483L501 487L503 489L505 489L506 490L508 494L510 493L512 493L514 506L516 490L517 485L519 487L521 491L523 512L525 489L527 492L528 488L530 491L532 495L534 497L536 498L538 495L539 495L541 494L543 491L545 494L547 493L549 494L550 498L552 498L554 499L556 500L558 502L560 501L561 499L563 498L565 496L567 496L569 495L571 494L572 495L574 494L576 495L578 495L580 494L582 496L583 498L585 500L587 500L589 499L591 499L593 500L594 501L596 503L598 503L600 505L602 507L604 509L605 508L607 513L609 512L611 515L613 512L615 513L616 513L618 513L620 513L622 512L624 512L626 513L627 514L629 526L631 518L633 516L635 517L637 517L638 517L640 519L642 518L644 520L646 523L648 526L649 526L651 526L653 527L655 528L657 529L659 530L660 530L662 530L664 530L666 531L668 532L670 532L671 532L673 532L675 532L677 532L679 532L681 532L682 533L684 533L686 534L688 535" fill="none" stroke-width="1.5"></path><g fill="#3360a9"><circle cx="109" cy="535" r="2"></circle><circle cx="200" cy="534" r="2"></circle><circle cx="292" cy="534" r="2"></circle><circle cx="338" cy="531" r="2"></circle><circle cx="389" cy="522" r="2"></circle><circle cx="407" cy="516" r="2"></circle><circle cx="426" cy="510" r="2"></circle><circle cx="444" cy="504" r="2"></circle><circle cx="462" cy="498" r="2"></circle><circle cx="481" cy="489" r="2"></circle><circle cx="499" cy="483" r="2"></circle><circle cx="501" cy="487" r="2"></circle><circle cx="503" cy="489" r="2"></circle><circle cx="505" cy="489" r="2"></circle><circle cx="506" cy="490" r="2"></circle><circle cx="508" cy="494" r="2"></circle><circle cx="510" cy="493" r="2"></circle><circle cx="512" cy="493" r="2"></circle><circle cx="514" cy="506" r="2"></circle><circle cx="516" cy="490" r="2"></circle><circle cx="517" cy="485" r="2"></circle><circle cx="519" cy="487" r="2"></circle><circle cx="521" cy="491" r="2"></circle><circle cx="523" cy="512" r="2"></circle><circle cx="525" cy="489" r="2"></circle><circle cx="527" cy="492" r="2"></circle><circle cx="528" cy="488" r="2"></circle><circle cx="530" cy="491" r="2"></circle><circle cx="532" cy="495" r="2"></circle><circle cx="534" cy="497" r="2"></circle><circle cx="536" cy="498" r="2"></circle><circle cx="538" cy="495" r="2"></circle><circle cx="539" cy="495" r="2"></circle><circle cx="541" cy="494" r="2"></circle><circle cx="543" cy="491" r="2"></circle><circle cx="545" cy="494" r="2"></circle><circle cx="547" cy="493" r="2"></circle><circle cx="549" cy="494" r="2"></circle><circle cx="550" cy="498" r="2"></circle><circle cx="552" cy="498" r="2"></circle><circle cx="554" cy="499" r="2"></circle><circle cx="556" cy="500" r="2"></circle><circle cx="558" cy="502" r="2"></circle><circle cx="560" cy="501" r="2"></circle><circle cx="561" cy="499" r="2"></circle><circle cx="563" cy="498" r="2"></circle><circle cx="565" cy="496" r="2"></circle><circle cx="567" cy="496" r="2"></circle><circle cx="569" cy="495" r="2"></circle><circle cx="571" cy="494" r="2"></circle><circle cx="572" cy="495" r="2"></circle><circle cx="574" cy="494" r="2"></circle><circle cx="576" cy="495" r="2"></circle><circle cx="578" cy="495" r="2"></circle><circle cx="580" cy="494" r="2"></circle><circle cx="582" cy="496" r="2"></circle><circle cx="583" cy="498" r="2"></circle><circle cx="585" cy="500" r="2"></circle><circle cx="587" cy="500" r="2"></circle><circle cx="589" cy="499" r="2"></circle><circle cx="591" cy="499" r="2"></circle><circle cx="593" cy="500" r="2"></circle><circle cx="594" cy="501" r="2"></circle><circle cx="596" cy="503" r="2"></circle><circle cx="598" cy="503" r="2"></circle><circle cx="600" cy="505" r="2"></circle><circle cx="602" cy="507" r="2"></circle><circle cx="604" cy="509" r="2"></circle><circle cx="605" cy="508" r="2"></circle><circle cx="607" cy="513" r="2"></circle><circle cx="609" cy="512" r="2"></circle><circle cx="611" cy="515" r="2"></circle><circle cx="613" cy="512" r="2"></circle><circle cx="615" cy="513" r="2"></circle><circle cx="616" cy="513" r="2"></circle><circle cx="618" cy="513" r="2"></circle><circle cx="620" cy="513" r="2"></circle><circle cx="622" cy="512" r="2"></circle><circle cx="624" cy="512" r="2"></circle><circle cx="626" cy="513" r="2"></circle><circle cx="627" cy="514" r="2"></circle><circle cx="629" cy="526" r="2"></circle><circle cx="631" cy="518" r="2"></circle><circle cx="633" cy="516" r="2"></circle><circle cx="635" cy="517" r="2"></circle><circle cx="637" cy="517" r="2"></circle><circle cx="638" cy="517" r="2"></circle><circle cx="640" cy="519" r="2"></circle><circle cx="642" cy="518" r="2"></circle><circle cx="644" cy="520" r="2"></circle><circle cx="646" cy="523" r="2"></circle><circle cx="648" cy="526" r="2"></circle><circle cx="649" cy="526" r="2"></circle><circle cx="651" cy="526" r="2"></circle><circle cx="653" cy="527" r="2"></circle><circle cx="655" cy="528" r="2"></circle><circle cx="657" cy="529" r="2"></circle><circle cx="659" cy="530" r="2"></circle><circle cx="660" cy="530" r="2"></circle><circle cx="662" cy="530" r="2"></circle><circle cx="664" cy="530" r="2"></circle><circle cx="666" cy="531" r="2"></circle><circle cx="668" cy="532" r="2"></circle><circle cx="670" cy="532" r="2"></circle><circle cx="671" cy="532" r="2"></circle><circle cx="673" cy="532" r="2"></circle><circle cx="675" cy="532" r="2"></circle><circle cx="677" cy="532" r="2"></circle><circle cx="679" cy="532" r="2"></circle><circle cx="681" cy="532" r="2"></circle><circle cx="682" cy="533" r="2"></circle><circle cx="684" cy="533" r="2"></circle><circle cx="686" cy="534" r="2"></circle><circle cx="688" cy="535" r="2"></circle></g></g><g class="key-China_0"><path stroke="#f6a324" stroke-linecap="round" d="M479 535L481 535L483 535L484 535L486 534L488 534L490 534L492 534L494 534L495 533L497 535L499 535L501 534L503 534L505 534L506 534L508 534L510 534L512 534L514 534L516 534L517 533L519 533L521 533L523 533L525 533L527 533L528 533L530 533L532 533L534 533L536 533L538 532L539 531L541 531L543 531L545 532L547 531L549 530L550 528L552 528L554 529L556 529L558 532L560 533L561 533L563 534L565 531L567 530L569 529L571 527L572 526L574 525L576 523L578 521L580 519L582 501L583 491L585 481L587 503L589 503L591 503L593 498L594 497L596 493L598 506L600 497L602 494L604 489L605 485L607 484L609 480L611 478L613 475L615 474L616 468L618 459L620 457L622 463L624 462L626 457L627 451L629 443L631 439L633 436L635 432L637 426L638 418L640 415L642 413L644 409L646 405L648 396L649 392L651 386L653 368L655 366L657 375L659 369L660 357L662 332L664 304L666 284L668 229L670 209L671 186L673 169L675 145L677 114L679 77L681 113L682 108L684 119" fill="none" stroke-width="1.5"></path><g fill="#f6a324"><circle cx="479" cy="535" r="2"></circle><circle cx="481" cy="535" r="2"></circle><circle cx="483" cy="535" r="2"></circle><circle cx="484" cy="535" r="2"></circle><circle cx="486" cy="534" r="2"></circle><circle cx="488" cy="534" r="2"></circle><circle cx="490" cy="534" r="2"></circle><circle cx="492" cy="534" r="2"></circle><circle cx="494" cy="534" r="2"></circle><circle cx="495" cy="533" r="2"></circle><circle cx="497" cy="535" r="2"></circle><circle cx="499" cy="535" r="2"></circle><circle cx="501" cy="534" r="2"></circle><circle cx="503" cy="534" r="2"></circle><circle cx="505" cy="534" r="2"></circle><circle cx="506" cy="534" r="2"></circle><circle cx="508" cy="534" r="2"></circle><circle cx="510" cy="534" r="2"></circle><circle cx="512" cy="534" r="2"></circle><circle cx="514" cy="534" r="2"></circle><circle cx="516" cy="534" r="2"></circle><circle cx="517" cy="533" r="2"></circle><circle cx="519" cy="533" r="2"></circle><circle cx="521" cy="533" r="2"></circle><circle cx="523" cy="533" r="2"></circle><circle cx="525" cy="533" r="2"></circle><circle cx="527" cy="533" r="2"></circle><circle cx="528" cy="533" r="2"></circle><circle cx="530" cy="533" r="2"></circle><circle cx="532" cy="533" r="2"></circle><circle cx="534" cy="533" r="2"></circle><circle cx="536" cy="533" r="2"></circle><circle cx="538" cy="532" r="2"></circle><circle cx="539" cy="531" r="2"></circle><circle cx="541" cy="531" r="2"></circle><circle cx="543" cy="531" r="2"></circle><circle cx="545" cy="532" r="2"></circle><circle cx="547" cy="531" r="2"></circle><circle cx="549" cy="530" r="2"></circle><circle cx="550" cy="528" r="2"></circle><circle cx="552" cy="528" r="2"></circle><circle cx="554" cy="529" r="2"></circle><circle cx="556" cy="529" r="2"></circle><circle cx="558" cy="532" r="2"></circle><circle cx="560" cy="533" r="2"></circle><circle cx="561" cy="533" r="2"></circle><circle cx="563" cy="534" r="2"></circle><circle cx="565" cy="531" r="2"></circle><circle cx="567" cy="530" r="2"></circle><circle cx="569" cy="529" r="2"></circle><circle cx="571" cy="527" r="2"></circle><circle cx="572" cy="526" r="2"></circle><circle cx="574" cy="525" r="2"></circle><circle cx="576" cy="523" r="2"></circle><circle cx="578" cy="521" r="2"></circle><circle cx="580" cy="519" r="2"></circle><circle cx="582" cy="501" r="2"></circle><circle cx="583" cy="491" r="2"></circle><circle cx="585" cy="481" r="2"></circle><circle cx="587" cy="503" r="2"></circle><circle cx="589" cy="503" r="2"></circle><circle cx="591" cy="503" r="2"></circle><circle cx="593" cy="498" r="2"></circle><circle cx="594" cy="497" r="2"></circle><circle cx="596" cy="493" r="2"></circle><circle cx="598" cy="506" r="2"></circle><circle cx="600" cy="497" r="2"></circle><circle cx="602" cy="494" r="2"></circle><circle cx="604" cy="489" r="2"></circle><circle cx="605" cy="485" r="2"></circle><circle cx="607" cy="484" r="2"></circle><circle cx="609" cy="480" r="2"></circle><circle cx="611" cy="478" r="2"></circle><circle cx="613" cy="475" r="2"></circle><circle cx="615" cy="474" r="2"></circle><circle cx="616" cy="468" r="2"></circle><circle cx="618" cy="459" r="2"></circle><circle cx="620" cy="457" r="2"></circle><circle cx="622" cy="463" r="2"></circle><circle cx="624" cy="462" r="2"></circle><circle cx="626" cy="457" r="2"></circle><circle cx="627" cy="451" r="2"></circle><circle cx="629" cy="443" r="2"></circle><circle cx="631" cy="439" r="2"></circle><circle cx="633" cy="436" r="2"></circle><circle cx="635" cy="432" r="2"></circle><circle cx="637" cy="426" r="2"></circle><circle cx="638" cy="418" r="2"></circle><circle cx="640" cy="415" r="2"></circle><circle cx="642" cy="413" r="2"></circle><circle cx="644" cy="409" r="2"></circle><circle cx="646" cy="405" r="2"></circle><circle cx="648" cy="396" r="2"></circle><circle cx="649" cy="392" r="2"></circle><circle cx="651" cy="386" r="2"></circle><circle cx="653" cy="368" r="2"></circle><circle cx="655" cy="366" r="2"></circle><circle cx="657" cy="375" r="2"></circle><circle cx="659" cy="369" r="2"></circle><circle cx="660" cy="357" r="2"></circle><circle cx="662" cy="332" r="2"></circle><circle cx="664" cy="304" r="2"></circle><circle cx="666" cy="284" r="2"></circle><circle cx="668" cy="229" r="2"></circle><circle cx="670" cy="209" r="2"></circle><circle cx="671" cy="186" r="2"></circle><circle cx="673" cy="169" r="2"></circle><circle cx="675" cy="145" r="2"></circle><circle cx="677" cy="114" r="2"></circle><circle cx="679" cy="77" r="2"></circle><circle cx="681" cy="113" r="2"></circle><circle cx="682" cy="108" r="2"></circle><circle cx="684" cy="119" r="2"></circle></g></g><g class="key-India_0"><path stroke="#34983f" stroke-linecap="round" d="M475 534L477 534L479 534L481 534L483 534L484 534L486 534L488 534L490 534L492 534L494 534L495 534L497 533L499 533L501 533L503 533L505 533L506 533L508 532L510 532L512 533L514 533L516 533L517 533L519 532L521 532L523 532L525 532L527 532L528 532L530 532L532 532L534 532L536 533L538 532L539 532L541 532L543 532L545 531L547 531L549 531L550 531L552 531L554 532L556 532L558 531L560 531L561 531L563 531L565 531L567 531L569 530L571 530L572 530L574 530L576 530L578 530L580 529L582 529L583 529L585 528L587 527L589 527L591 526L593 526L594 526L596 526L598 526L600 525L602 525L604 525L605 525L607 525L609 524L611 523L613 522L615 521L616 521L618 521L620 521L622 523L624 521L626 520L627 520L629 517L631 516L633 515L635 514L637 513L638 512L640 511L642 509L644 507L646 506L648 505L649 498L651 502L653 500L655 500L657 498L659 497L660 495L662 497L664 495L666 492L668 490L670 487L671 484L673 480L675 476L677 475L679 474L681 473L682 473L684 469" fill="none" stroke-width="1.5"></path><g fill="#34983f"><circle cx="475" cy="534" r="2"></circle><circle cx="477" cy="534" r="2"></circle><circle cx="479" cy="534" r="2"></circle><circle cx="481" cy="534" r="2"></circle><circle cx="483" cy="534" r="2"></circle><circle cx="484" cy="534" r="2"></circle><circle cx="486" cy="534" r="2"></circle><circle cx="488" cy="534" r="2"></circle><circle cx="490" cy="534" r="2"></circle><circle cx="492" cy="534" r="2"></circle><circle cx="494" cy="534" r="2"></circle><circle cx="495" cy="534" r="2"></circle><circle cx="497" cy="533" r="2"></circle><circle cx="499" cy="533" r="2"></circle><circle cx="501" cy="533" r="2"></circle><circle cx="503" cy="533" r="2"></circle><circle cx="505" cy="533" r="2"></circle><circle cx="506" cy="533" r="2"></circle><circle cx="508" cy="532" r="2"></circle><circle cx="510" cy="532" r="2"></circle><circle cx="512" cy="533" r="2"></circle><circle cx="514" cy="533" r="2"></circle><circle cx="516" cy="533" r="2"></circle><circle cx="517" cy="533" r="2"></circle><circle cx="519" cy="532" r="2"></circle><circle cx="521" cy="532" r="2"></circle><circle cx="523" cy="532" r="2"></circle><circle cx="525" cy="532" r="2"></circle><circle cx="527" cy="532" r="2"></circle><circle cx="528" cy="532" r="2"></circle><circle cx="530" cy="532" r="2"></circle><circle cx="532" cy="532" r="2"></circle><circle cx="534" cy="532" r="2"></circle><circle cx="536" cy="533" r="2"></circle><circle cx="538" cy="532" r="2"></circle><circle cx="539" cy="532" r="2"></circle><circle cx="541" cy="532" r="2"></circle><circle cx="543" cy="532" r="2"></circle><circle cx="545" cy="531" r="2"></circle><circle cx="547" cy="531" r="2"></circle><circle cx="549" cy="531" r="2"></circle><circle cx="550" cy="531" r="2"></circle><circle cx="552" cy="531" r="2"></circle><circle cx="554" cy="532" r="2"></circle><circle cx="556" cy="532" r="2"></circle><circle cx="558" cy="531" r="2"></circle><circle cx="560" cy="531" r="2"></circle><circle cx="561" cy="531" r="2"></circle><circle cx="563" cy="531" r="2"></circle><circle cx="565" cy="531" r="2"></circle><circle cx="567" cy="531" r="2"></circle><circle cx="569" cy="530" r="2"></circle><circle cx="571" cy="530" r="2"></circle><circle cx="572" cy="530" r="2"></circle><circle cx="574" cy="530" r="2"></circle><circle cx="576" cy="530" r="2"></circle><circle cx="578" cy="530" r="2"></circle><circle cx="580" cy="529" r="2"></circle><circle cx="582" cy="529" r="2"></circle><circle cx="583" cy="529" r="2"></circle><circle cx="585" cy="528" r="2"></circle><circle cx="587" cy="527" r="2"></circle><circle cx="589" cy="527" r="2"></circle><circle cx="591" cy="526" r="2"></circle><circle cx="593" cy="526" r="2"></circle><circle cx="594" cy="526" r="2"></circle><circle cx="596" cy="526" r="2"></circle><circle cx="598" cy="526" r="2"></circle><circle cx="600" cy="525" r="2"></circle><circle cx="602" cy="525" r="2"></circle><circle cx="604" cy="525" r="2"></circle><circle cx="605" cy="525" r="2"></circle><circle cx="607" cy="525" r="2"></circle><circle cx="609" cy="524" r="2"></circle><circle cx="611" cy="523" r="2"></circle><circle cx="613" cy="522" r="2"></circle><circle cx="615" cy="521" r="2"></circle><circle cx="616" cy="521" r="2"></circle><circle cx="618" cy="521" r="2"></circle><circle cx="620" cy="521" r="2"></circle><circle cx="622" cy="523" r="2"></circle><circle cx="624" cy="521" r="2"></circle><circle cx="626" cy="520" r="2"></circle><circle cx="627" cy="520" r="2"></circle><circle cx="629" cy="517" r="2"></circle><circle cx="631" cy="516" r="2"></circle><circle cx="633" cy="515" r="2"></circle><circle cx="635" cy="514" r="2"></circle><circle cx="637" cy="513" r="2"></circle><circle cx="638" cy="512" r="2"></circle><circle cx="640" cy="511" r="2"></circle><circle cx="642" cy="509" r="2"></circle><circle cx="644" cy="507" r="2"></circle><circle cx="646" cy="506" r="2"></circle><circle cx="648" cy="505" r="2"></circle><circle cx="649" cy="498" r="2"></circle><circle cx="651" cy="502" r="2"></circle><circle cx="653" cy="500" r="2"></circle><circle cx="655" cy="500" r="2"></circle><circle cx="657" cy="498" r="2"></circle><circle cx="659" cy="497" r="2"></circle><circle cx="660" cy="495" r="2"></circle><circle cx="662" cy="497" r="2"></circle><circle cx="664" cy="495" r="2"></circle><circle cx="666" cy="492" r="2"></circle><circle cx="668" cy="490" r="2"></circle><circle cx="670" cy="487" r="2"></circle><circle cx="671" cy="484" r="2"></circle><circle cx="673" cy="480" r="2"></circle><circle cx="675" cy="476" r="2"></circle><circle cx="677" cy="475" r="2"></circle><circle cx="679" cy="474" r="2"></circle><circle cx="681" cy="473" r="2"></circle><circle cx="682" cy="473" r="2"></circle><circle cx="684" cy="469" r="2"></circle></g></g><g class="key-Australia_0"><path stroke="#ca2628" stroke-linecap="round" d="M475 534L477 534L479 534L481 534L483 534L484 534L486 534L488 534L490 534L492 534L494 534L495 534L497 534L499 534L501 534L503 534L505 534L506 534L508 534L510 534L512 533L514 533L516 534L517 534L519 533L521 533L523 533L525 533L527 534L528 534L530 534L532 534L534 534L536 534L538 534L539 534L541 534L543 533L545 533L547 533L549 533L550 533L552 533L554 533L556 533L558 533L560 533L561 533L563 533L565 533L567 532L569 532L571 532L572 532L574 532L576 532L578 532L580 532L582 532L583 532L585 531L587 531L589 531L591 531L593 530L594 530L596 530L598 529L600 529L602 528L604 527L605 528L607 526L609 526L611 526L613 525L615 524L616 523L618 523L620 523L622 524L624 522L626 522L627 520L629 519L631 517L633 516L635 513L637 516L638 514L640 512L642 510L644 509L646 509L648 509L649 506L651 506L653 502L655 500L657 499L659 496L660 492L662 491L664 491L666 489L668 487L670 486L671 483L673 483L675 481L677 479L679 482L681 479L682 475L684 472" fill="none" stroke-width="1.5"></path><g fill="#ca2628"><circle cx="475" cy="534" r="2"></circle><circle cx="477" cy="534" r="2"></circle><circle cx="479" cy="534" r="2"></circle><circle cx="481" cy="534" r="2"></circle><circle cx="483" cy="534" r="2"></circle><circle cx="484" cy="534" r="2"></circle><circle cx="486" cy="534" r="2"></circle><circle cx="488" cy="534" r="2"></circle><circle cx="490" cy="534" r="2"></circle><circle cx="492" cy="534" r="2"></circle><circle cx="494" cy="534" r="2"></circle><circle cx="495" cy="534" r="2"></circle><circle cx="497" cy="534" r="2"></circle><circle cx="499" cy="534" r="2"></circle><circle cx="501" cy="534" r="2"></circle><circle cx="503" cy="534" r="2"></circle><circle cx="505" cy="534" r="2"></circle><circle cx="506" cy="534" r="2"></circle><circle cx="508" cy="534" r="2"></circle><circle cx="510" cy="534" r="2"></circle><circle cx="512" cy="533" r="2"></circle><circle cx="514" cy="533" r="2"></circle><circle cx="516" cy="534" r="2"></circle><circle cx="517" cy="534" r="2"></circle><circle cx="519" cy="533" r="2"></circle><circle cx="521" cy="533" r="2"></circle><circle cx="523" cy="533" r="2"></circle><circle cx="525" cy="533" r="2"></circle><circle cx="527" cy="534" r="2"></circle><circle cx="528" cy="534" r="2"></circle><circle cx="530" cy="534" r="2"></circle><circle cx="532" cy="534" r="2"></circle><circle cx="534" cy="534" r="2"></circle><circle cx="536" cy="534" r="2"></circle><circle cx="538" cy="534" r="2"></circle><circle cx="539" cy="534" r="2"></circle><circle cx="541" cy="534" r="2"></circle><circle cx="543" cy="533" r="2"></circle><circle cx="545" cy="533" r="2"></circle><circle cx="547" cy="533" r="2"></circle><circle cx="549" cy="533" r="2"></circle><circle cx="550" cy="533" r="2"></circle><circle cx="552" cy="533" r="2"></circle><circle cx="554" cy="533" r="2"></circle><circle cx="556" cy="533" r="2"></circle><circle cx="558" cy="533" r="2"></circle><circle cx="560" cy="533" r="2"></circle><circle cx="561" cy="533" r="2"></circle><circle cx="563" cy="533" r="2"></circle><circle cx="565" cy="533" r="2"></circle><circle cx="567" cy="532" r="2"></circle><circle cx="569" cy="532" r="2"></circle><circle cx="571" cy="532" r="2"></circle><circle cx="572" cy="532" r="2"></circle><circle cx="574" cy="532" r="2"></circle><circle cx="576" cy="532" r="2"></circle><circle cx="578" cy="532" r="2"></circle><circle cx="580" cy="532" r="2"></circle><circle cx="582" cy="532" r="2"></circle><circle cx="583" cy="532" r="2"></circle><circle cx="585" cy="531" r="2"></circle><circle cx="587" cy="531" r="2"></circle><circle cx="589" cy="531" r="2"></circle><circle cx="591" cy="531" r="2"></circle><circle cx="593" cy="530" r="2"></circle><circle cx="594" cy="530" r="2"></circle><circle cx="596" cy="530" r="2"></circle><circle cx="598" cy="529" r="2"></circle><circle cx="600" cy="529" r="2"></circle><circle cx="602" cy="528" r="2"></circle><circle cx="604" cy="527" r="2"></circle><circle cx="605" cy="528" r="2"></circle><circle cx="607" cy="526" r="2"></circle><circle cx="609" cy="526" r="2"></circle><circle cx="611" cy="526" r="2"></circle><circle cx="613" cy="525" r="2"></circle><circle cx="615" cy="524" r="2"></circle><circle cx="616" cy="523" r="2"></circle><circle cx="618" cy="523" r="2"></circle><circle cx="620" cy="523" r="2"></circle><circle cx="622" cy="524" r="2"></circle><circle cx="624" cy="522" r="2"></circle><circle cx="626" cy="522" r="2"></circle><circle cx="627" cy="520" r="2"></circle><circle cx="629" cy="519" r="2"></circle><circle cx="631" cy="517" r="2"></circle><circle cx="633" cy="516" r="2"></circle><circle cx="635" cy="513" r="2"></circle><circle cx="637" cy="516" r="2"></circle><circle cx="638" cy="514" r="2"></circle><circle cx="640" cy="512" r="2"></circle><circle cx="642" cy="510" r="2"></circle><circle cx="644" cy="509" r="2"></circle><circle cx="646" cy="509" r="2"></circle><circle cx="648" cy="509" r="2"></circle><circle cx="649" cy="506" r="2"></circle><circle cx="651" cy="506" r="2"></circle><circle cx="653" cy="502" r="2"></circle><circle cx="655" cy="500" r="2"></circle><circle cx="657" cy="499" r="2"></circle><circle cx="659" cy="496" r="2"></circle><circle cx="660" cy="492" r="2"></circle><circle cx="662" cy="491" r="2"></circle><circle cx="664" cy="491" r="2"></circle><circle cx="666" cy="489" r="2"></circle><circle cx="668" cy="487" r="2"></circle><circle cx="670" cy="486" r="2"></circle><circle cx="671" cy="483" r="2"></circle><circle cx="673" cy="483" r="2"></circle><circle cx="675" cy="481" r="2"></circle><circle cx="677" cy="479" r="2"></circle><circle cx="679" cy="482" r="2"></circle><circle cx="681" cy="479" r="2"></circle><circle cx="682" cy="475" r="2"></circle><circle cx="684" cy="472" r="2"></circle></g></g></g></g></g><g class="SourcesFooter" style="fill:#777"><g class="clickable" style="fill:#777"><text font-size="12.60" x="15.0" y="581.6"><tspan x="15" y="581.58">Source: Coal production - The SHIFT Project, Coal output and employment in UK - DECC (2016)</tspan></text></g><text font-size="12.60" x="582.4" y="581.6"><tspan x="582.37" y="581.58"><a target='_blank' style='fill: #777;' href='https://ourworldindata.org/fossil-fuels/'>OurWorldInData.org/fossil-fuels/</a> • <a style="fill: #777;" class="cclogo" href="http://creativecommons.org/licenses/by-sa/4.0/deed.en_US" target="_blank">CC BY-SA</a></tspan></text></g></g></svg>