<svg xmlns="http://www.w3.org/2000/svg" version="1.1" style="font-family:&#x27;Helvetica Neue&#x27;, Helvetica, Arial, sans-serif;font-size:18px;background-color:white;text-rendering:optimizeLegibility;-webkit-font-smoothing:antialiased" width="850" height="600"><g class="ChartTab"><g class="HeaderView"><g opacity="0.8" transform="translate(778, 15) scale(0.27)"><a xmlns:xlink="http://www.w3.org/1999/xlink" xlink:href="https://ourworldindata.org" target="_blank"><g><rect x="0" y="0" fill="#1B2543" width="211.2" height="130.1"/><rect x="0" y="112.2" fill="#E63912" width="211.2" height="17.9"/><g><rect x="1.2" y="12.3" fill="none" width="210.2" height="99.2"/><path fill="#FFFFFF" d="M37.8,32.2c0,12.7-7.7,19.4-17.1,19.4c-9.7,0-16.6-7.5-16.6-18.7c0-11.7,7.3-19.3,17.1-19.3 C31.3,13.7,37.8,21.3,37.8,32.2z M9.2,32.8c0,7.9,4.3,14.9,11.8,14.9c7.5,0,11.8-6.9,11.8-15.3c0-7.3-3.8-14.9-11.8-14.9 C13.1,17.5,9.2,24.8,9.2,32.8z"/><path fill="#FFFFFF" d="M62.7,43.8c0,2.7,0.1,5.1,0.2,7.2h-4.3l-0.3-4.3h-0.1c-1.3,2.1-4,4.9-8.8,4.9c-4.2,0-9.1-2.3-9.1-11.6 V24.6h4.8v14.6c0,5,1.5,8.4,5.9,8.4c3.2,0,5.5-2.2,6.3-4.4c0.3-0.7,0.4-1.6,0.4-2.5V24.6h4.8V43.8z"/><path fill="#FFFFFF" d="M67.3,32.8c0-3.1-0.1-5.8-0.2-8.2h4.2l0.2,5.2h0.2c1.2-3.5,4.1-5.8,7.3-5.8c0.5,0,0.9,0.1,1.4,0.2v4.5 c-0.5-0.1-1-0.2-1.6-0.2c-3.4,0-5.8,2.6-6.5,6.2c-0.1,0.7-0.2,1.4-0.2,2.2V51h-4.8V32.8z"/><path fill="#FFFFFF" d="M95.4,51l-9.4-36.8h5l4.4,18.6c1.1,4.6,2.1,9.2,2.7,12.7h0.1c0.6-3.7,1.8-8,3-12.8l4.9-18.5h5l4.5,18.7 c1,4.4,2,8.7,2.6,12.6h0.1c0.8-4,1.8-8.1,3-12.7l4.9-18.5h4.9L120.6,51h-5L111,31.9c-1.1-4.7-1.9-8.3-2.4-12h-0.1 c-0.7,3.7-1.5,7.3-2.8,12L100.4,51H95.4z"/><path fill="#FFFFFF" d="M154.9,37.6c0,9.8-6.8,14-13.2,14c-7.2,0-12.7-5.2-12.7-13.6c0-8.8,5.8-14,13.1-14 C149.8,24,154.9,29.5,154.9,37.6z M133.9,37.9c0,5.8,3.3,10.1,8,10.1c4.6,0,8-4.3,8-10.3c0-4.5-2.2-10.1-7.9-10.1 C136.3,27.6,133.9,32.8,133.9,37.9z"/><path fill="#FFFFFF" d="M158.2,32.8c0-3.1-0.1-5.8-0.2-8.2h4.2l0.2,5.2h0.2c1.2-3.5,4.1-5.8,7.3-5.8c0.5,0,0.9,0.1,1.4,0.2v4.5 c-0.5-0.1-1-0.2-1.6-0.2c-3.4,0-5.8,2.6-6.5,6.2c-0.1,0.7-0.2,1.4-0.2,2.2V51h-4.8V32.8z"/><path fill="#FFFFFF" d="M173.5,12.3h4.8V51h-4.8V12.3z"/><path fill="#FFFFFF" d="M206.5,12.3v31.9c0,2.3,0.1,5,0.2,6.8h-4.3l-0.2-4.6H202c-1.5,2.9-4.7,5.2-9,5.2 c-6.4,0-11.3-5.4-11.3-13.4c-0.1-8.8,5.4-14.2,11.9-14.2c4,0,6.8,1.9,8,4h0.1V12.3H206.5z M201.7,35.4c0-0.6-0.1-1.4-0.2-2 c-0.7-3.1-3.3-5.6-6.9-5.6c-5,0-7.9,4.4-7.9,10.2c0,5.3,2.6,9.8,7.8,9.8c3.2,0,6.2-2.1,7.1-5.7c0.2-0.7,0.2-1.3,0.2-2.1V35.4z"/><path fill="#FFFFFF" d="M42.8,64c0.1,1.6-1.1,2.9-3.1,2.9c-1.7,0-2.9-1.3-2.9-2.9c0-1.7,1.3-3,3-3C41.7,61,42.8,62.3,42.8,64z M37.4,97.8V71.4h4.8v26.4H37.4z"/><path fill="#FFFFFF" d="M47.5,78.6c0-2.7-0.1-5-0.2-7.1h4.3l0.3,4.4h0.1c1.3-2.5,4.4-5,8.8-5c3.7,0,9.4,2.2,9.4,11.2v15.8h-4.8 V82.6c0-4.3-1.6-7.8-6.1-7.8c-3.2,0-5.6,2.2-6.5,4.9c-0.2,0.6-0.3,1.4-0.3,2.2v15.9h-4.8V78.6z"/><path fill="#FFFFFF" d="M84,61.6c2.9-0.4,6.3-0.8,10.1-0.8c6.8,0,11.7,1.6,14.9,4.6c3.3,3,5.2,7.3,5.2,13.2c0,6-1.9,10.9-5.3,14.3 c-3.4,3.4-9.1,5.3-16.3,5.3c-3.4,0-6.2-0.2-8.6-0.4V61.6z M88.8,94.1c1.2,0.2,3,0.3,4.8,0.3c10.2,0,15.7-5.7,15.7-15.6 c0.1-8.7-4.9-14.2-14.9-14.2c-2.5,0-4.3,0.2-5.6,0.5V94.1z"/><path fill="#FFFFFF" d="M132.1,97.8l-0.4-3.3h-0.2c-1.5,2.1-4.3,3.9-8.1,3.9c-5.4,0-8.1-3.8-8.1-7.6c0-6.4,5.7-9.9,15.9-9.8v-0.5 c0-2.2-0.6-6.1-6-6.1c-2.5,0-5,0.8-6.9,2l-1.1-3.2c2.2-1.4,5.4-2.3,8.7-2.3c8.1,0,10.1,5.5,10.1,10.8v9.9c0,2.3,0.1,4.5,0.4,6.3 H132.1z M131.4,84.4c-5.3-0.1-11.2,0.8-11.2,5.9c0,3.1,2.1,4.6,4.5,4.6c3.4,0,5.6-2.2,6.4-4.4c0.2-0.5,0.3-1,0.3-1.5V84.4z"/><path fill="#FFFFFF" d="M146.6,63.9v7.6h6.9v3.7h-6.9v14.2c0,3.3,0.9,5.1,3.6,5.1c1.3,0,2.2-0.2,2.8-0.3l0.2,3.6 c-0.9,0.4-2.4,0.7-4.3,0.7c-2.2,0-4-0.7-5.2-2c-1.4-1.4-1.9-3.8-1.9-6.9V75.1h-4.1v-3.7h4.1v-6.3L146.6,63.9z"/><path fill="#FFFFFF" d="M171.4,97.8l-0.4-3.3h-0.2c-1.5,2.1-4.3,3.9-8.1,3.9c-5.4,0-8.1-3.8-8.1-7.6c0-6.4,5.7-9.9,15.9-9.8v-0.5 c0-2.2-0.6-6.1-6-6.1c-2.5,0-5,0.8-6.9,2l-1.1-3.2c2.2-1.4,5.4-2.3,8.7-2.3c8.1,0,10.1,5.5,10.1,10.8v9.9c0,2.3,0.1,4.5,0.4,6.3 H171.4z M170.7,84.4c-5.3-0.1-11.2,0.8-11.2,5.9c0,3.1,2.1,4.6,4.5,4.6c3.4,0,5.6-2.2,6.4-4.4c0.2-0.5,0.3-1,0.3-1.5V84.4z"/></g></g></a></g><a href="https://ourworldindata.org/grapher/coal-production-per-capita-over-the-long-term" target="_blank"><text font-size="25.20" x="15.0" y="35.2" fill="#555"><tspan x="15" y="35.160000000000004">Coal production per capita over the long-term</tspan></text></a><text font-size="14.40" x="15.0" y="53.7" fill="#666"><tspan x="15" y="53.72">Average coal production per capita over the long-term, measured in megawatt-hour (MWh) equivalents per person</tspan><tspan x="15" y="69.56">per year.</tspan></text></g><g class="LineChart"><defs><clipPath id="boundsClip-355"><rect x="70.426" y="0" width="830" height="928.8"></rect></clipPath></defs><g class="AxisBoxView"><g class="HorizontalAxis"><text x="80.4" y="556.5" fill="#666" text-anchor="middle" font-size="16.2">1700</text><text x="179" y="556.5" fill="#666" text-anchor="middle" font-size="16.2">1750</text><text x="277.6" y="556.5" fill="#666" text-anchor="middle" font-size="16.2">1800</text><text x="376.2" y="556.5" fill="#666" text-anchor="middle" font-size="16.2">1850</text><text x="474.8" y="556.5" fill="#666" text-anchor="middle" font-size="16.2">1900</text><text x="573.5" y="556.5" fill="#666" text-anchor="middle" font-size="16.2">1950</text><text x="703.6" y="556.5" fill="#666" text-anchor="middle" font-size="16.2">2016</text></g><g class="VerticalAxis"><text x="75.43" y="535.3" fill="#666" dominant-baseline="middle" text-anchor="end" font-size="16.2">0 MWh</text><text x="75.43" y="456" fill="#666" dominant-baseline="middle" text-anchor="end" font-size="16.2">10 MWh</text><text x="75.43" y="376.6" fill="#666" dominant-baseline="middle" text-anchor="end" font-size="16.2">20 MWh</text><text x="75.43" y="297.3" fill="#666" dominant-baseline="middle" text-anchor="end" font-size="16.2">30 MWh</text><text x="75.43" y="218" fill="#666" dominant-baseline="middle" text-anchor="end" font-size="16.2">40 MWh</text><text x="75.43" y="138.6" fill="#666" dominant-baseline="middle" text-anchor="end" font-size="16.2">50 MWh</text></g><g class="AxisGridLines"><line x1="80.43" y1="535.3" x2="703.61" y2="535.3" stroke="#ccc"></line><line x1="80.43" y1="456" x2="703.61" y2="456" stroke="#ddd" stroke-dasharray="3,2"></line><line x1="80.43" y1="376.6" x2="703.61" y2="376.6" stroke="#ddd" stroke-dasharray="3,2"></line><line x1="80.43" y1="297.3" x2="703.61" y2="297.3" stroke="#ddd" stroke-dasharray="3,2"></line><line x1="80.43" y1="218" x2="703.61" y2="218" stroke="#ddd" stroke-dasharray="3,2"></line><line x1="80.43" y1="138.6" x2="703.61" y2="138.6" stroke="#ddd" stroke-dasharray="3,2"></line></g></g><g clip-path="url(#boundsClip-355)"><g class="HeightedLegend clickable"><g class="legendMark"><g class="indicator"><line x1="708.61" y1="422.5" x2="731.11" y2="422.5" stroke="#666" stroke-width="0.5"></line><line x1="731.11" y1="422.5" x2="731.11" y2="422.5" stroke="#666" stroke-width="0.5"></line><line x1="731.11" y1="422.5" x2="733.61" y2="422.5" stroke="#666" stroke-width="0.5"></line></g><rect x="703.61" y="415.75" width="70.37" height="13.5" fill="#fff" opacity="0"></rect><text font-size="13.50" x="738.6" y="426.6" fill="#a652ba"><tspan x="738.61" y="426.55">China</tspan></text></g><g class="legendMark"><g class="indicator"><line x1="708.61" y1="431.1" x2="721.11" y2="431.1" stroke="#666" stroke-width="0.5"></line><line x1="721.11" y1="431.1" x2="721.11" y2="438" stroke="#666" stroke-width="0.5"></line><line x1="721.11" y1="438" x2="733.61" y2="438" stroke="#666" stroke-width="0.5"></line></g><rect x="703.61" y="431.25" width="116.405" height="13.5" fill="#fff" opacity="0"></rect><text font-size="13.50" x="738.6" y="442.1" fill="#f6a324"><tspan x="738.61" y="442.05">United States</tspan></text></g><g class="legendMark"><g class="indicator"><line x1="708.61" y1="490" x2="721.11" y2="490" stroke="#666" stroke-width="0.5"></line><line x1="721.11" y1="490" x2="721.11" y2="490" stroke="#666" stroke-width="0.5"></line><line x1="721.11" y1="490" x2="733.61" y2="490" stroke="#666" stroke-width="0.5"></line></g><rect x="703.61" y="483.25" width="70.235" height="13.5" fill="#fff" opacity="0"></rect><text font-size="13.50" x="738.6" y="494.1" fill="#34983f"><tspan x="738.61" y="494.05">World</tspan></text></g><g class="legendMark"><g class="indicator"><line x1="708.61" y1="515.2" x2="721.11" y2="515.2" stroke="#666" stroke-width="0.5"></line><line x1="721.11" y1="515.2" x2="721.11" y2="515.2" stroke="#666" stroke-width="0.5"></line><line x1="721.11" y1="515.2" x2="733.61" y2="515.2" stroke="#666" stroke-width="0.5"></line></g><rect x="703.61" y="508.45000000000005" width="64.43" height="13.5" fill="#fff" opacity="0"></rect><text font-size="13.50" x="738.6" y="519.3" fill="#ca2628"><tspan x="738.61" y="519.25">India</tspan></text></g><g class="legendMark"><g class="indicator"><line x1="708.61" y1="531.6" x2="721.11" y2="531.6" stroke="#666" stroke-width="0.5"></line><line x1="721.11" y1="531.6" x2="721.11" y2="531.6" stroke="#666" stroke-width="0.5"></line><line x1="721.11" y1="531.6" x2="733.61" y2="531.6" stroke="#666" stroke-width="0.5"></line></g><rect x="703.61" y="524.85" width="131.39" height="13.5" fill="#fff" opacity="0"></rect><text font-size="13.50" x="738.6" y="535.6" fill="#3360a9"><tspan x="738.61" y="535.65">United Kingdom</tspan></text></g></g><g class="Lines"><rect x="80" y="92" width="623" height="443" fill="rgba(255,255,255,0)" opacity="0"></rect><g class="key-World_0"><path stroke="#34983f" stroke-linecap="round" d="M278 535L297 534L317 534L337 534L357 533L376 532L396 529L416 526L435 522L455 516L475 508L495 496L514 493L534 497L554 495L574 496L593 495L603 496L605 497L607 498L609 498L611 498L613 498L615 499L617 499L619 499L621 500L623 500L625 499L627 499L629 499L631 498L633 498L635 498L637 498L639 498L641 497L643 496L644 496L646 495L648 495L650 495L652 496L654 497L656 498L658 498L660 499L662 499L664 499L666 499L668 500L670 500L672 499L674 499L676 498L678 496L680 493L682 491L684 489L686 487L688 487L690 489L692 487L694 485L696 486L698 485L700 486L702 487L704 490" fill="none" stroke-width="1.5"></path><g fill="#34983f"><circle cx="278" cy="535" r="2"></circle><circle cx="297" cy="534" r="2"></circle><circle cx="317" cy="534" r="2"></circle><circle cx="337" cy="534" r="2"></circle><circle cx="357" cy="533" r="2"></circle><circle cx="376" cy="532" r="2"></circle><circle cx="396" cy="529" r="2"></circle><circle cx="416" cy="526" r="2"></circle><circle cx="435" cy="522" r="2"></circle><circle cx="455" cy="516" r="2"></circle><circle cx="475" cy="508" r="2"></circle><circle cx="495" cy="496" r="2"></circle><circle cx="514" cy="493" r="2"></circle><circle cx="534" cy="497" r="2"></circle><circle cx="554" cy="495" r="2"></circle><circle cx="574" cy="496" r="2"></circle><circle cx="593" cy="495" r="2"></circle><circle cx="603" cy="496" r="2"></circle><circle cx="605" cy="497" r="2"></circle><circle cx="607" cy="498" r="2"></circle><circle cx="609" cy="498" r="2"></circle><circle cx="611" cy="498" r="2"></circle><circle cx="613" cy="498" r="2"></circle><circle cx="615" cy="499" r="2"></circle><circle cx="617" cy="499" r="2"></circle><circle cx="619" cy="499" r="2"></circle><circle cx="621" cy="500" r="2"></circle><circle cx="623" cy="500" r="2"></circle><circle cx="625" cy="499" r="2"></circle><circle cx="627" cy="499" r="2"></circle><circle cx="629" cy="499" r="2"></circle><circle cx="631" cy="498" r="2"></circle><circle cx="633" cy="498" r="2"></circle><circle cx="635" cy="498" r="2"></circle><circle cx="637" cy="498" r="2"></circle><circle cx="639" cy="498" r="2"></circle><circle cx="641" cy="497" r="2"></circle><circle cx="643" cy="496" r="2"></circle><circle cx="644" cy="496" r="2"></circle><circle cx="646" cy="495" r="2"></circle><circle cx="648" cy="495" r="2"></circle><circle cx="650" cy="495" r="2"></circle><circle cx="652" cy="496" r="2"></circle><circle cx="654" cy="497" r="2"></circle><circle cx="656" cy="498" r="2"></circle><circle cx="658" cy="498" r="2"></circle><circle cx="660" cy="499" r="2"></circle><circle cx="662" cy="499" r="2"></circle><circle cx="664" cy="499" r="2"></circle><circle cx="666" cy="499" r="2"></circle><circle cx="668" cy="500" r="2"></circle><circle cx="670" cy="500" r="2"></circle><circle cx="672" cy="499" r="2"></circle><circle cx="674" cy="499" r="2"></circle><circle cx="676" cy="498" r="2"></circle><circle cx="678" cy="496" r="2"></circle><circle cx="680" cy="493" r="2"></circle><circle cx="682" cy="491" r="2"></circle><circle cx="684" cy="489" r="2"></circle><circle cx="686" cy="487" r="2"></circle><circle cx="688" cy="487" r="2"></circle><circle cx="690" cy="489" r="2"></circle><circle cx="692" cy="487" r="2"></circle><circle cx="694" cy="485" r="2"></circle><circle cx="696" cy="486" r="2"></circle><circle cx="698" cy="485" r="2"></circle><circle cx="700" cy="486" r="2"></circle><circle cx="702" cy="487" r="2"></circle><circle cx="704" cy="490" r="2"></circle></g></g><g class="key-United-Kingdom_0"><path stroke="#3360a9" stroke-linecap="round" d="M80 517L179 496L278 483L327 446L382 333L402 267L422 216L441 186L461 156L481 109L501 92L503 130L504 152L506 148L508 161L510 192L512 188L514 191L516 292L518 166L520 129L522 145L524 181L526 352L528 172L530 193L532 165L534 186L536 223L538 240L540 243L542 225L544 224L546 217L548 202L550 222L552 219L554 230L556 255L558 257L560 268L562 277L564 291L566 282L568 274L570 264L572 255L574 255L575 247L577 244L579 247L581 247L583 250L585 251L587 250L589 261L591 275L593 292L595 297L597 289L599 294L601 298L603 307L605 323L607 326L609 337L611 354L613 364L615 357L617 389L619 383L621 408L623 387L625 393L627 395L629 393L631 395L633 386L635 389L637 392L639 399L641 477L643 428L644 412L646 416L648 417L650 422L652 431L654 429L656 440L658 459L660 480L662 476L664 480L666 482L668 490L670 495L672 501L674 500L676 503L678 505L680 508L682 513L684 516L686 517L688 517L690 517L692 517L694 517L696 518L698 523L700 524L702 528L704 532" fill="none" stroke-width="1.5"></path><g fill="#3360a9"><circle cx="80" cy="517" r="2"></circle><circle cx="179" cy="496" r="2"></circle><circle cx="278" cy="483" r="2"></circle><circle cx="327" cy="446" r="2"></circle><circle cx="382" cy="333" r="2"></circle><circle cx="402" cy="267" r="2"></circle><circle cx="422" cy="216" r="2"></circle><circle cx="441" cy="186" r="2"></circle><circle cx="461" cy="156" r="2"></circle><circle cx="481" cy="109" r="2"></circle><circle cx="501" cy="92" r="2"></circle><circle cx="503" cy="130" r="2"></circle><circle cx="504" cy="152" r="2"></circle><circle cx="506" cy="148" r="2"></circle><circle cx="508" cy="161" r="2"></circle><circle cx="510" cy="192" r="2"></circle><circle cx="512" cy="188" r="2"></circle><circle cx="514" cy="191" r="2"></circle><circle cx="516" cy="292" r="2"></circle><circle cx="518" cy="166" r="2"></circle><circle cx="520" cy="129" r="2"></circle><circle cx="522" cy="145" r="2"></circle><circle cx="524" cy="181" r="2"></circle><circle cx="526" cy="352" r="2"></circle><circle cx="528" cy="172" r="2"></circle><circle cx="530" cy="193" r="2"></circle><circle cx="532" cy="165" r="2"></circle><circle cx="534" cy="186" r="2"></circle><circle cx="536" cy="223" r="2"></circle><circle cx="538" cy="240" r="2"></circle><circle cx="540" cy="243" r="2"></circle><circle cx="542" cy="225" r="2"></circle><circle cx="544" cy="224" r="2"></circle><circle cx="546" cy="217" r="2"></circle><circle cx="548" cy="202" r="2"></circle><circle cx="550" cy="222" r="2"></circle><circle cx="552" cy="219" r="2"></circle><circle cx="554" cy="230" r="2"></circle><circle cx="556" cy="255" r="2"></circle><circle cx="558" cy="257" r="2"></circle><circle cx="560" cy="268" r="2"></circle><circle cx="562" cy="277" r="2"></circle><circle cx="564" cy="291" r="2"></circle><circle cx="566" cy="282" r="2"></circle><circle cx="568" cy="274" r="2"></circle><circle cx="570" cy="264" r="2"></circle><circle cx="572" cy="255" r="2"></circle><circle cx="574" cy="255" r="2"></circle><circle cx="575" cy="247" r="2"></circle><circle cx="577" cy="244" r="2"></circle><circle cx="579" cy="247" r="2"></circle><circle cx="581" cy="247" r="2"></circle><circle cx="583" cy="250" r="2"></circle><circle cx="585" cy="251" r="2"></circle><circle cx="587" cy="250" r="2"></circle><circle cx="589" cy="261" r="2"></circle><circle cx="591" cy="275" r="2"></circle><circle cx="593" cy="292" r="2"></circle><circle cx="595" cy="297" r="2"></circle><circle cx="597" cy="289" r="2"></circle><circle cx="599" cy="294" r="2"></circle><circle cx="601" cy="298" r="2"></circle><circle cx="603" cy="307" r="2"></circle><circle cx="605" cy="323" r="2"></circle><circle cx="607" cy="326" r="2"></circle><circle cx="609" cy="337" r="2"></circle><circle cx="611" cy="354" r="2"></circle><circle cx="613" cy="364" r="2"></circle><circle cx="615" cy="357" r="2"></circle><circle cx="617" cy="389" r="2"></circle><circle cx="619" cy="383" r="2"></circle><circle cx="621" cy="408" r="2"></circle><circle cx="623" cy="387" r="2"></circle><circle cx="625" cy="393" r="2"></circle><circle cx="627" cy="395" r="2"></circle><circle cx="629" cy="393" r="2"></circle><circle cx="631" cy="395" r="2"></circle><circle cx="633" cy="386" r="2"></circle><circle cx="635" cy="389" r="2"></circle><circle cx="637" cy="392" r="2"></circle><circle cx="639" cy="399" r="2"></circle><circle cx="641" cy="477" r="2"></circle><circle cx="643" cy="428" r="2"></circle><circle cx="644" cy="412" r="2"></circle><circle cx="646" cy="416" r="2"></circle><circle cx="648" cy="417" r="2"></circle><circle cx="650" cy="422" r="2"></circle><circle cx="652" cy="431" r="2"></circle><circle cx="654" cy="429" r="2"></circle><circle cx="656" cy="440" r="2"></circle><circle cx="658" cy="459" r="2"></circle><circle cx="660" cy="480" r="2"></circle><circle cx="662" cy="476" r="2"></circle><circle cx="664" cy="480" r="2"></circle><circle cx="666" cy="482" r="2"></circle><circle cx="668" cy="490" r="2"></circle><circle cx="670" cy="495" r="2"></circle><circle cx="672" cy="501" r="2"></circle><circle cx="674" cy="500" r="2"></circle><circle cx="676" cy="503" r="2"></circle><circle cx="678" cy="505" r="2"></circle><circle cx="680" cy="508" r="2"></circle><circle cx="682" cy="513" r="2"></circle><circle cx="684" cy="516" r="2"></circle><circle cx="686" cy="517" r="2"></circle><circle cx="688" cy="517" r="2"></circle><circle cx="690" cy="517" r="2"></circle><circle cx="692" cy="517" r="2"></circle><circle cx="694" cy="517" r="2"></circle><circle cx="696" cy="518" r="2"></circle><circle cx="698" cy="523" r="2"></circle><circle cx="700" cy="524" r="2"></circle><circle cx="702" cy="528" r="2"></circle><circle cx="704" cy="532" r="2"></circle></g></g><g class="key-United-States_0"><path stroke="#f6a324" stroke-linecap="round" d="M475 345L477 333L479 328L481 298L483 306L485 284L487 275L489 239L491 284L493 262L495 244L497 252L499 235L501 221L503 258L504 252L506 225L508 198L510 188L512 253L514 204L516 285L518 303L520 220L522 267L524 266L526 235L528 266L530 279L532 267L534 302L536 345L538 381L540 372L542 359L544 357L546 329L548 328L550 372L552 353L554 327L556 306L558 280L560 280L562 271L564 293L566 309L568 278L570 294L572 361L574 344L575 341L577 367L579 376L581 400L583 380L585 371L587 378L589 406L591 408L593 409L595 415L597 412L599 403L601 397L603 392L605 388L607 385L609 388L611 386L613 376L615 392L617 383L619 385L621 384L623 374L625 368L627 366L629 377L631 349L633 365L635 368L637 367L639 381L641 361L643 366L644 366L646 362L648 359L650 355L652 348L654 357L656 358L658 371L660 358L662 360L664 357L666 355L668 352L670 360L672 366L674 362L676 369L678 376L680 372L682 371L684 368L686 372L688 371L690 387L692 386L694 386L696 397L698 402L700 401L702 406L704 431" fill="none" stroke-width="1.5"></path><g fill="#f6a324"><circle cx="475" cy="345" r="2"></circle><circle cx="477" cy="333" r="2"></circle><circle cx="479" cy="328" r="2"></circle><circle cx="481" cy="298" r="2"></circle><circle cx="483" cy="306" r="2"></circle><circle cx="485" cy="284" r="2"></circle><circle cx="487" cy="275" r="2"></circle><circle cx="489" cy="239" r="2"></circle><circle cx="491" cy="284" r="2"></circle><circle cx="493" cy="262" r="2"></circle><circle cx="495" cy="244" r="2"></circle><circle cx="497" cy="252" r="2"></circle><circle cx="499" cy="235" r="2"></circle><circle cx="501" cy="221" r="2"></circle><circle cx="503" cy="258" r="2"></circle><circle cx="504" cy="252" r="2"></circle><circle cx="506" cy="225" r="2"></circle><circle cx="508" cy="198" r="2"></circle><circle cx="510" cy="188" r="2"></circle><circle cx="512" cy="253" r="2"></circle><circle cx="514" cy="204" r="2"></circle><circle cx="516" cy="285" r="2"></circle><circle cx="518" cy="303" r="2"></circle><circle cx="520" cy="220" r="2"></circle><circle cx="522" cy="267" r="2"></circle><circle cx="524" cy="266" r="2"></circle><circle cx="526" cy="235" r="2"></circle><circle cx="528" cy="266" r="2"></circle><circle cx="530" cy="279" r="2"></circle><circle cx="532" cy="267" r="2"></circle><circle cx="534" cy="302" r="2"></circle><circle cx="536" cy="345" r="2"></circle><circle cx="538" cy="381" r="2"></circle><circle cx="540" cy="372" r="2"></circle><circle cx="542" cy="359" r="2"></circle><circle cx="544" cy="357" r="2"></circle><circle cx="546" cy="329" r="2"></circle><circle cx="548" cy="328" r="2"></circle><circle cx="550" cy="372" r="2"></circle><circle cx="552" cy="353" r="2"></circle><circle cx="554" cy="327" r="2"></circle><circle cx="556" cy="306" r="2"></circle><circle cx="558" cy="280" r="2"></circle><circle cx="560" cy="280" r="2"></circle><circle cx="562" cy="271" r="2"></circle><circle cx="564" cy="293" r="2"></circle><circle cx="566" cy="309" r="2"></circle><circle cx="568" cy="278" r="2"></circle><circle cx="570" cy="294" r="2"></circle><circle cx="572" cy="361" r="2"></circle><circle cx="574" cy="344" r="2"></circle><circle cx="575" cy="341" r="2"></circle><circle cx="577" cy="367" r="2"></circle><circle cx="579" cy="376" r="2"></circle><circle cx="581" cy="400" r="2"></circle><circle cx="583" cy="380" r="2"></circle><circle cx="585" cy="371" r="2"></circle><circle cx="587" cy="378" r="2"></circle><circle cx="589" cy="406" r="2"></circle><circle cx="591" cy="408" r="2"></circle><circle cx="593" cy="409" r="2"></circle><circle cx="595" cy="415" r="2"></circle><circle cx="597" cy="412" r="2"></circle><circle cx="599" cy="403" r="2"></circle><circle cx="601" cy="397" r="2"></circle><circle cx="603" cy="392" r="2"></circle><circle cx="605" cy="388" r="2"></circle><circle cx="607" cy="385" r="2"></circle><circle cx="609" cy="388" r="2"></circle><circle cx="611" cy="386" r="2"></circle><circle cx="613" cy="376" r="2"></circle><circle cx="615" cy="392" r="2"></circle><circle cx="617" cy="383" r="2"></circle><circle cx="619" cy="385" r="2"></circle><circle cx="621" cy="384" r="2"></circle><circle cx="623" cy="374" r="2"></circle><circle cx="625" cy="368" r="2"></circle><circle cx="627" cy="366" r="2"></circle><circle cx="629" cy="377" r="2"></circle><circle cx="631" cy="349" r="2"></circle><circle cx="633" cy="365" r="2"></circle><circle cx="635" cy="368" r="2"></circle><circle cx="637" cy="367" r="2"></circle><circle cx="639" cy="381" r="2"></circle><circle cx="641" cy="361" r="2"></circle><circle cx="643" cy="366" r="2"></circle><circle cx="644" cy="366" r="2"></circle><circle cx="646" cy="362" r="2"></circle><circle cx="648" cy="359" r="2"></circle><circle cx="650" cy="355" r="2"></circle><circle cx="652" cy="348" r="2"></circle><circle cx="654" cy="357" r="2"></circle><circle cx="656" cy="358" r="2"></circle><circle cx="658" cy="371" r="2"></circle><circle cx="660" cy="358" r="2"></circle><circle cx="662" cy="360" r="2"></circle><circle cx="664" cy="357" r="2"></circle><circle cx="666" cy="355" r="2"></circle><circle cx="668" cy="352" r="2"></circle><circle cx="670" cy="360" r="2"></circle><circle cx="672" cy="366" r="2"></circle><circle cx="674" cy="362" r="2"></circle><circle cx="676" cy="369" r="2"></circle><circle cx="678" cy="376" r="2"></circle><circle cx="680" cy="372" r="2"></circle><circle cx="682" cy="371" r="2"></circle><circle cx="684" cy="368" r="2"></circle><circle cx="686" cy="372" r="2"></circle><circle cx="688" cy="371" r="2"></circle><circle cx="690" cy="387" r="2"></circle><circle cx="692" cy="386" r="2"></circle><circle cx="694" cy="386" r="2"></circle><circle cx="696" cy="397" r="2"></circle><circle cx="698" cy="402" r="2"></circle><circle cx="700" cy="401" r="2"></circle><circle cx="702" cy="406" r="2"></circle><circle cx="704" cy="431" r="2"></circle></g></g><g class="key-China_0"><path stroke="#a652ba" stroke-linecap="round" d="M479 535L481 535L483 535L485 535L487 534L489 534L491 534L493 534L495 534L497 534L499 535L501 535L503 535L504 534L506 534L508 534L510 534L512 534L514 534L516 534L518 534L520 534L522 534L524 534L526 534L528 534L530 534L532 534L534 533L536 533L538 533L540 533L542 533L544 533L546 532L548 533L550 533L552 532L554 531L556 530L558 530L560 531L562 531L564 533L566 534L568 534L570 534L572 533L574 532L575 531L577 530L579 530L581 529L583 528L585 527L587 526L589 516L591 511L593 506L595 518L597 518L599 519L601 516L603 516L605 515L607 522L609 518L611 517L613 515L615 514L617 514L619 513L621 512L623 512L625 512L627 510L629 507L631 507L633 509L635 509L637 508L639 506L641 504L643 503L644 503L646 502L648 501L650 499L652 498L654 498L656 498L658 497L660 495L662 494L664 492L666 488L668 487L670 490L672 489L674 486L676 479L678 472L680 467L682 452L684 447L686 441L688 437L690 432L692 424L694 415L696 425L698 424L700 428L702 413L704 423" fill="none" stroke-width="1.5"></path><g fill="#a652ba"><circle cx="479" cy="535" r="2"></circle><circle cx="481" cy="535" r="2"></circle><circle cx="483" cy="535" r="2"></circle><circle cx="485" cy="535" r="2"></circle><circle cx="487" cy="534" r="2"></circle><circle cx="489" cy="534" r="2"></circle><circle cx="491" cy="534" r="2"></circle><circle cx="493" cy="534" r="2"></circle><circle cx="495" cy="534" r="2"></circle><circle cx="497" cy="534" r="2"></circle><circle cx="499" cy="535" r="2"></circle><circle cx="501" cy="535" r="2"></circle><circle cx="503" cy="535" r="2"></circle><circle cx="504" cy="534" r="2"></circle><circle cx="506" cy="534" r="2"></circle><circle cx="508" cy="534" r="2"></circle><circle cx="510" cy="534" r="2"></circle><circle cx="512" cy="534" r="2"></circle><circle cx="514" cy="534" r="2"></circle><circle cx="516" cy="534" r="2"></circle><circle cx="518" cy="534" r="2"></circle><circle cx="520" cy="534" r="2"></circle><circle cx="522" cy="534" r="2"></circle><circle cx="524" cy="534" r="2"></circle><circle cx="526" cy="534" r="2"></circle><circle cx="528" cy="534" r="2"></circle><circle cx="530" cy="534" r="2"></circle><circle cx="532" cy="534" r="2"></circle><circle cx="534" cy="533" r="2"></circle><circle cx="536" cy="533" r="2"></circle><circle cx="538" cy="533" r="2"></circle><circle cx="540" cy="533" r="2"></circle><circle cx="542" cy="533" r="2"></circle><circle cx="544" cy="533" r="2"></circle><circle cx="546" cy="532" r="2"></circle><circle cx="548" cy="533" r="2"></circle><circle cx="550" cy="533" r="2"></circle><circle cx="552" cy="532" r="2"></circle><circle cx="554" cy="531" r="2"></circle><circle cx="556" cy="530" r="2"></circle><circle cx="558" cy="530" r="2"></circle><circle cx="560" cy="531" r="2"></circle><circle cx="562" cy="531" r="2"></circle><circle cx="564" cy="533" r="2"></circle><circle cx="566" cy="534" r="2"></circle><circle cx="568" cy="534" r="2"></circle><circle cx="570" cy="534" r="2"></circle><circle cx="572" cy="533" r="2"></circle><circle cx="574" cy="532" r="2"></circle><circle cx="575" cy="531" r="2"></circle><circle cx="577" cy="530" r="2"></circle><circle cx="579" cy="530" r="2"></circle><circle cx="581" cy="529" r="2"></circle><circle cx="583" cy="528" r="2"></circle><circle cx="585" cy="527" r="2"></circle><circle cx="587" cy="526" r="2"></circle><circle cx="589" cy="516" r="2"></circle><circle cx="591" cy="511" r="2"></circle><circle cx="593" cy="506" r="2"></circle><circle cx="595" cy="518" r="2"></circle><circle cx="597" cy="518" r="2"></circle><circle cx="599" cy="519" r="2"></circle><circle cx="601" cy="516" r="2"></circle><circle cx="603" cy="516" r="2"></circle><circle cx="605" cy="515" r="2"></circle><circle cx="607" cy="522" r="2"></circle><circle cx="609" cy="518" r="2"></circle><circle cx="611" cy="517" r="2"></circle><circle cx="613" cy="515" r="2"></circle><circle cx="615" cy="514" r="2"></circle><circle cx="617" cy="514" r="2"></circle><circle cx="619" cy="513" r="2"></circle><circle cx="621" cy="512" r="2"></circle><circle cx="623" cy="512" r="2"></circle><circle cx="625" cy="512" r="2"></circle><circle cx="627" cy="510" r="2"></circle><circle cx="629" cy="507" r="2"></circle><circle cx="631" cy="507" r="2"></circle><circle cx="633" cy="509" r="2"></circle><circle cx="635" cy="509" r="2"></circle><circle cx="637" cy="508" r="2"></circle><circle cx="639" cy="506" r="2"></circle><circle cx="641" cy="504" r="2"></circle><circle cx="643" cy="503" r="2"></circle><circle cx="644" cy="503" r="2"></circle><circle cx="646" cy="502" r="2"></circle><circle cx="648" cy="501" r="2"></circle><circle cx="650" cy="499" r="2"></circle><circle cx="652" cy="498" r="2"></circle><circle cx="654" cy="498" r="2"></circle><circle cx="656" cy="498" r="2"></circle><circle cx="658" cy="497" r="2"></circle><circle cx="660" cy="495" r="2"></circle><circle cx="662" cy="494" r="2"></circle><circle cx="664" cy="492" r="2"></circle><circle cx="666" cy="488" r="2"></circle><circle cx="668" cy="487" r="2"></circle><circle cx="670" cy="490" r="2"></circle><circle cx="672" cy="489" r="2"></circle><circle cx="674" cy="486" r="2"></circle><circle cx="676" cy="479" r="2"></circle><circle cx="678" cy="472" r="2"></circle><circle cx="680" cy="467" r="2"></circle><circle cx="682" cy="452" r="2"></circle><circle cx="684" cy="447" r="2"></circle><circle cx="686" cy="441" r="2"></circle><circle cx="688" cy="437" r="2"></circle><circle cx="690" cy="432" r="2"></circle><circle cx="692" cy="424" r="2"></circle><circle cx="694" cy="415" r="2"></circle><circle cx="696" cy="425" r="2"></circle><circle cx="698" cy="424" r="2"></circle><circle cx="700" cy="428" r="2"></circle><circle cx="702" cy="413" r="2"></circle><circle cx="704" cy="423" r="2"></circle></g></g><g class="key-India_0"><path stroke="#ca2628" stroke-linecap="round" d="M501 532L532 531L556 531L566 531L568 531L570 531L572 531L574 531L575 531L577 531L579 531L581 531L583 531L585 530L587 530L589 530L591 530L593 529L595 529L597 529L599 528L601 529L603 528L605 528L607 529L609 528L611 528L613 528L615 529L617 529L619 529L621 528L623 527L625 527L627 527L629 528L631 528L633 529L635 528L637 528L639 528L641 527L643 527L644 526L646 526L648 526L650 526L652 525L654 525L656 524L658 524L660 524L662 521L664 523L666 523L668 523L670 522L672 522L674 522L676 523L678 522L680 522L682 521L684 520L686 520L688 519L690 518L692 518L694 518L696 518L698 518L700 517L702 516L704 515" fill="none" stroke-width="1.5"></path><g fill="#ca2628"><circle cx="501" cy="532" r="2"></circle><circle cx="532" cy="531" r="2"></circle><circle cx="556" cy="531" r="2"></circle><circle cx="566" cy="531" r="2"></circle><circle cx="568" cy="531" r="2"></circle><circle cx="570" cy="531" r="2"></circle><circle cx="572" cy="531" r="2"></circle><circle cx="574" cy="531" r="2"></circle><circle cx="575" cy="531" r="2"></circle><circle cx="577" cy="531" r="2"></circle><circle cx="579" cy="531" r="2"></circle><circle cx="581" cy="531" r="2"></circle><circle cx="583" cy="531" r="2"></circle><circle cx="585" cy="530" r="2"></circle><circle cx="587" cy="530" r="2"></circle><circle cx="589" cy="530" r="2"></circle><circle cx="591" cy="530" r="2"></circle><circle cx="593" cy="529" r="2"></circle><circle cx="595" cy="529" r="2"></circle><circle cx="597" cy="529" r="2"></circle><circle cx="599" cy="528" r="2"></circle><circle cx="601" cy="529" r="2"></circle><circle cx="603" cy="528" r="2"></circle><circle cx="605" cy="528" r="2"></circle><circle cx="607" cy="529" r="2"></circle><circle cx="609" cy="528" r="2"></circle><circle cx="611" cy="528" r="2"></circle><circle cx="613" cy="528" r="2"></circle><circle cx="615" cy="529" r="2"></circle><circle cx="617" cy="529" r="2"></circle><circle cx="619" cy="529" r="2"></circle><circle cx="621" cy="528" r="2"></circle><circle cx="623" cy="527" r="2"></circle><circle cx="625" cy="527" r="2"></circle><circle cx="627" cy="527" r="2"></circle><circle cx="629" cy="528" r="2"></circle><circle cx="631" cy="528" r="2"></circle><circle cx="633" cy="529" r="2"></circle><circle cx="635" cy="528" r="2"></circle><circle cx="637" cy="528" r="2"></circle><circle cx="639" cy="528" r="2"></circle><circle cx="641" cy="527" r="2"></circle><circle cx="643" cy="527" r="2"></circle><circle cx="644" cy="526" r="2"></circle><circle cx="646" cy="526" r="2"></circle><circle cx="648" cy="526" r="2"></circle><circle cx="650" cy="526" r="2"></circle><circle cx="652" cy="525" r="2"></circle><circle cx="654" cy="525" r="2"></circle><circle cx="656" cy="524" r="2"></circle><circle cx="658" cy="524" r="2"></circle><circle cx="660" cy="524" r="2"></circle><circle cx="662" cy="521" r="2"></circle><circle cx="664" cy="523" r="2"></circle><circle cx="666" cy="523" r="2"></circle><circle cx="668" cy="523" r="2"></circle><circle cx="670" cy="522" r="2"></circle><circle cx="672" cy="522" r="2"></circle><circle cx="674" cy="522" r="2"></circle><circle cx="676" cy="523" r="2"></circle><circle cx="678" cy="522" r="2"></circle><circle cx="680" cy="522" r="2"></circle><circle cx="682" cy="521" r="2"></circle><circle cx="684" cy="520" r="2"></circle><circle cx="686" cy="520" r="2"></circle><circle cx="688" cy="519" r="2"></circle><circle cx="690" cy="518" r="2"></circle><circle cx="692" cy="518" r="2"></circle><circle cx="694" cy="518" r="2"></circle><circle cx="696" cy="518" r="2"></circle><circle cx="698" cy="518" r="2"></circle><circle cx="700" cy="517" r="2"></circle><circle cx="702" cy="516" r="2"></circle><circle cx="704" cy="515" r="2"></circle></g></g></g></g></g><g class="SourcesFooter" style="fill:#777"><g class="clickable" style="fill:#777"><text font-size="12.60" x="15.0" y="581.6"><tspan x="15" y="581.58">Source: Long-term per capita fossil fuels - OWID based on UN, Gapminder, BP, Etemad &amp; Luciana</tspan></text></g><text font-size="12.60" x="582.4" y="581.6"><tspan x="582.37" y="581.58"><a target='_blank' style='fill: #777;' href='https://ourworldindata.org/fossil-fuels/'>OurWorldInData.org/fossil-fuels/</a> • <a style="fill: #777;" class="cclogo" href="http://creativecommons.org/licenses/by-sa/4.0/deed.en_US" target="_blank">CC BY-SA</a></tspan></text></g></g></svg>