<svg xmlns="http://www.w3.org/2000/svg" version="1.1" style="font-family:&#x27;Helvetica Neue&#x27;, Helvetica, Arial, sans-serif;font-size:18px;background-color:white;text-rendering:optimizeLegibility;-webkit-font-smoothing:antialiased" width="850" height="600"><g class="ChartTab"><g class="HeaderView"><g opacity="0.8" transform="translate(778, 15) scale(0.27)"><a xmlns:xlink="http://www.w3.org/1999/xlink" xlink:href="https://ourworldindata.org" target="_blank"><g><rect x="0" y="0" fill="#1B2543" width="211.2" height="130.1"/><rect x="0" y="112.2" fill="#E63912" width="211.2" height="17.9"/><g><rect x="1.2" y="12.3" fill="none" width="210.2" height="99.2"/><path fill="#FFFFFF" d="M37.8,32.2c0,12.7-7.7,19.4-17.1,19.4c-9.7,0-16.6-7.5-16.6-18.7c0-11.7,7.3-19.3,17.1-19.3 C31.3,13.7,37.8,21.3,37.8,32.2z M9.2,32.8c0,7.9,4.3,14.9,11.8,14.9c7.5,0,11.8-6.9,11.8-15.3c0-7.3-3.8-14.9-11.8-14.9 C13.1,17.5,9.2,24.8,9.2,32.8z"/><path fill="#FFFFFF" d="M62.7,43.8c0,2.7,0.1,5.1,0.2,7.2h-4.3l-0.3-4.3h-0.1c-1.3,2.1-4,4.9-8.8,4.9c-4.2,0-9.1-2.3-9.1-11.6 V24.6h4.8v14.6c0,5,1.5,8.4,5.9,8.4c3.2,0,5.5-2.2,6.3-4.4c0.3-0.7,0.4-1.6,0.4-2.5V24.6h4.8V43.8z"/><path fill="#FFFFFF" d="M67.3,32.8c0-3.1-0.1-5.8-0.2-8.2h4.2l0.2,5.2h0.2c1.2-3.5,4.1-5.8,7.3-5.8c0.5,0,0.9,0.1,1.4,0.2v4.5 c-0.5-0.1-1-0.2-1.6-0.2c-3.4,0-5.8,2.6-6.5,6.2c-0.1,0.7-0.2,1.4-0.2,2.2V51h-4.8V32.8z"/><path fill="#FFFFFF" d="M95.4,51l-9.4-36.8h5l4.4,18.6c1.1,4.6,2.1,9.2,2.7,12.7h0.1c0.6-3.7,1.8-8,3-12.8l4.9-18.5h5l4.5,18.7 c1,4.4,2,8.7,2.6,12.6h0.1c0.8-4,1.8-8.1,3-12.7l4.9-18.5h4.9L120.6,51h-5L111,31.9c-1.1-4.7-1.9-8.3-2.4-12h-0.1 c-0.7,3.7-1.5,7.3-2.8,12L100.4,51H95.4z"/><path fill="#FFFFFF" d="M154.9,37.6c0,9.8-6.8,14-13.2,14c-7.2,0-12.7-5.2-12.7-13.6c0-8.8,5.8-14,13.1-14 C149.8,24,154.9,29.5,154.9,37.6z M133.9,37.9c0,5.8,3.3,10.1,8,10.1c4.6,0,8-4.3,8-10.3c0-4.5-2.2-10.1-7.9-10.1 C136.3,27.6,133.9,32.8,133.9,37.9z"/><path fill="#FFFFFF" d="M158.2,32.8c0-3.1-0.1-5.8-0.2-8.2h4.2l0.2,5.2h0.2c1.2-3.5,4.1-5.8,7.3-5.8c0.5,0,0.9,0.1,1.4,0.2v4.5 c-0.5-0.1-1-0.2-1.6-0.2c-3.4,0-5.8,2.6-6.5,6.2c-0.1,0.7-0.2,1.4-0.2,2.2V51h-4.8V32.8z"/><path fill="#FFFFFF" d="M173.5,12.3h4.8V51h-4.8V12.3z"/><path fill="#FFFFFF" d="M206.5,12.3v31.9c0,2.3,0.1,5,0.2,6.8h-4.3l-0.2-4.6H202c-1.5,2.9-4.7,5.2-9,5.2 c-6.4,0-11.3-5.4-11.3-13.4c-0.1-8.8,5.4-14.2,11.9-14.2c4,0,6.8,1.9,8,4h0.1V12.3H206.5z M201.7,35.4c0-0.6-0.1-1.4-0.2-2 c-0.7-3.1-3.3-5.6-6.9-5.6c-5,0-7.9,4.4-7.9,10.2c0,5.3,2.6,9.8,7.8,9.8c3.2,0,6.2-2.1,7.1-5.7c0.2-0.7,0.2-1.3,0.2-2.1V35.4z"/><path fill="#FFFFFF" d="M42.8,64c0.1,1.6-1.1,2.9-3.1,2.9c-1.7,0-2.9-1.3-2.9-2.9c0-1.7,1.3-3,3-3C41.7,61,42.8,62.3,42.8,64z M37.4,97.8V71.4h4.8v26.4H37.4z"/><path fill="#FFFFFF" d="M47.5,78.6c0-2.7-0.1-5-0.2-7.1h4.3l0.3,4.4h0.1c1.3-2.5,4.4-5,8.8-5c3.7,0,9.4,2.2,9.4,11.2v15.8h-4.8 V82.6c0-4.3-1.6-7.8-6.1-7.8c-3.2,0-5.6,2.2-6.5,4.9c-0.2,0.6-0.3,1.4-0.3,2.2v15.9h-4.8V78.6z"/><path fill="#FFFFFF" d="M84,61.6c2.9-0.4,6.3-0.8,10.1-0.8c6.8,0,11.7,1.6,14.9,4.6c3.3,3,5.2,7.3,5.2,13.2c0,6-1.9,10.9-5.3,14.3 c-3.4,3.4-9.1,5.3-16.3,5.3c-3.4,0-6.2-0.2-8.6-0.4V61.6z M88.8,94.1c1.2,0.2,3,0.3,4.8,0.3c10.2,0,15.7-5.7,15.7-15.6 c0.1-8.7-4.9-14.2-14.9-14.2c-2.5,0-4.3,0.2-5.6,0.5V94.1z"/><path fill="#FFFFFF" d="M132.1,97.8l-0.4-3.3h-0.2c-1.5,2.1-4.3,3.9-8.1,3.9c-5.4,0-8.1-3.8-8.1-7.6c0-6.4,5.7-9.9,15.9-9.8v-0.5 c0-2.2-0.6-6.1-6-6.1c-2.5,0-5,0.8-6.9,2l-1.1-3.2c2.2-1.4,5.4-2.3,8.7-2.3c8.1,0,10.1,5.5,10.1,10.8v9.9c0,2.3,0.1,4.5,0.4,6.3 H132.1z M131.4,84.4c-5.3-0.1-11.2,0.8-11.2,5.9c0,3.1,2.1,4.6,4.5,4.6c3.4,0,5.6-2.2,6.4-4.4c0.2-0.5,0.3-1,0.3-1.5V84.4z"/><path fill="#FFFFFF" d="M146.6,63.9v7.6h6.9v3.7h-6.9v14.2c0,3.3,0.9,5.1,3.6,5.1c1.3,0,2.2-0.2,2.8-0.3l0.2,3.6 c-0.9,0.4-2.4,0.7-4.3,0.7c-2.2,0-4-0.7-5.2-2c-1.4-1.4-1.9-3.8-1.9-6.9V75.1h-4.1v-3.7h4.1v-6.3L146.6,63.9z"/><path fill="#FFFFFF" d="M171.4,97.8l-0.4-3.3h-0.2c-1.5,2.1-4.3,3.9-8.1,3.9c-5.4,0-8.1-3.8-8.1-7.6c0-6.4,5.7-9.9,15.9-9.8v-0.5 c0-2.2-0.6-6.1-6-6.1c-2.5,0-5,0.8-6.9,2l-1.1-3.2c2.2-1.4,5.4-2.3,8.7-2.3c8.1,0,10.1,5.5,10.1,10.8v9.9c0,2.3,0.1,4.5,0.4,6.3 H171.4z M170.7,84.4c-5.3-0.1-11.2,0.8-11.2,5.9c0,3.1,2.1,4.6,4.5,4.6c3.4,0,5.6-2.2,6.4-4.4c0.2-0.5,0.3-1,0.3-1.5V84.4z"/></g></g></a></g><a href="https://ourworldindata.org/grapher/coal-consumption-by-country-terawatt-hours-twh" target="_blank"><text font-size="25.20" x="15.0" y="35.2" fill="#555"><tspan x="15" y="35.160000000000004">Coal consumption by country, terawatt-hours (TWh)</tspan></text></a><text font-size="14.40" x="15.0" y="53.7" fill="#666"><tspan x="15" y="53.72">Coal consumption by country or region, measured in terawatt-hour (TWh) equivalents.</tspan></text></g><g class="LineChart"><defs><clipPath id="boundsClip-357"><rect x="98.614" y="0" width="830" height="959.8"></rect></clipPath></defs><g class="AxisBoxView"><g class="HorizontalAxis"><text x="108.6" y="556.5" fill="#666" text-anchor="middle" font-size="16.2">1965</text><text x="168.4" y="556.5" fill="#666" text-anchor="middle" font-size="16.2">1970</text><text x="288" y="556.5" fill="#666" text-anchor="middle" font-size="16.2">1980</text><text x="407.6" y="556.5" fill="#666" text-anchor="middle" font-size="16.2">1990</text><text x="527.2" y="556.5" fill="#666" text-anchor="middle" font-size="16.2">2000</text><text x="646.8" y="556.5" fill="#666" text-anchor="middle" font-size="16.2">2010</text><text x="718.6" y="556.5" fill="#666" text-anchor="middle" font-size="16.2">2016</text></g><g class="VerticalAxis"><text x="103.61" y="535.3" fill="#666" dominant-baseline="middle" text-anchor="end" font-size="16.2">0 TWh</text><text x="103.61" y="435.1" fill="#666" dominant-baseline="middle" text-anchor="end" font-size="16.2">5,000 TWh</text><text x="103.61" y="335" fill="#666" dominant-baseline="middle" text-anchor="end" font-size="16.2">10,000 TWh</text><text x="103.61" y="234.8" fill="#666" dominant-baseline="middle" text-anchor="end" font-size="16.2">15,000 TWh</text><text x="103.61" y="134.7" fill="#666" dominant-baseline="middle" text-anchor="end" font-size="16.2">20,000 TWh</text></g><g class="AxisGridLines"><line x1="108.61" y1="535.3" x2="718.60" y2="535.3" stroke="#ccc"></line><line x1="108.61" y1="435.1" x2="718.60" y2="435.1" stroke="#ddd" stroke-dasharray="3,2"></line><line x1="108.61" y1="335" x2="718.60" y2="335" stroke="#ddd" stroke-dasharray="3,2"></line><line x1="108.61" y1="234.8" x2="718.60" y2="234.8" stroke="#ddd" stroke-dasharray="3,2"></line><line x1="108.61" y1="134.7" x2="718.60" y2="134.7" stroke="#ddd" stroke-dasharray="3,2"></line></g></g><g clip-path="url(#boundsClip-357)"><g class="HeightedLegend clickable"><g class="legendMark"><g class="indicator"><line x1="723.595" y1="534" x2="746.095" y2="534" stroke="#666" stroke-width="0.5"></line><line x1="746.095" y1="534" x2="746.095" y2="528.55" stroke="#666" stroke-width="0.5"></line><line x1="746.095" y1="528.55" x2="748.595" y2="528.55" stroke="#666" stroke-width="0.5"></line></g><rect x="718.595" y="521.8" width="86.975" height="13.5" fill="#fff" opacity="0"></rect><text font-size="13.50" x="753.6" y="532.6" fill="#3360a9"><tspan x="753.595" y="532.5999999999999">Pakistan</tspan></text></g><g class="legendMark"><g class="indicator"><line x1="723.595" y1="531.5" x2="741.095" y2="531.5" stroke="#666" stroke-width="0.5"></line><line x1="741.095" y1="531.5" x2="741.095" y2="513.05" stroke="#666" stroke-width="0.5"></line><line x1="741.095" y1="513.05" x2="748.595" y2="513.05" stroke="#666" stroke-width="0.5"></line></g><rect x="718.595" y="506.29999999999995" width="68.75" height="13.5" fill="#fff" opacity="0"></rect><text font-size="13.50" x="753.6" y="517.1" fill="#ca2628"><tspan x="753.595" y="517.0999999999999">Brazil</tspan></text></g><g class="legendMark"><g class="indicator"><line x1="723.595" y1="531.2" x2="736.095" y2="531.2" stroke="#666" stroke-width="0.5"></line><line x1="736.095" y1="531.2" x2="736.095" y2="497.54999999999995" stroke="#666" stroke-width="0.5"></line><line x1="736.095" y1="497.54999999999995" x2="748.595" y2="497.54999999999995" stroke="#666" stroke-width="0.5"></line></g><rect x="718.595" y="490.79999999999995" width="86.975" height="13.5" fill="#fff" opacity="0"></rect><text font-size="13.50" x="753.6" y="501.6" fill="#34983f"><tspan x="753.595" y="501.59999999999997">Thailand</tspan></text></g><g class="legendMark"><g class="indicator"><line x1="723.595" y1="515" x2="731.095" y2="515" stroke="#666" stroke-width="0.5"></line><line x1="731.095" y1="515" x2="731.095" y2="482.04999999999995" stroke="#666" stroke-width="0.5"></line><line x1="731.095" y1="482.04999999999995" x2="748.595" y2="482.04999999999995" stroke="#666" stroke-width="0.5"></line></g><rect x="718.595" y="475.29999999999995" width="76.31" height="13.5" fill="#fff" opacity="0"></rect><text font-size="13.50" x="753.6" y="486.1" fill="#f6a324"><tspan x="753.595" y="486.09999999999997">Russia</tspan></text></g><g class="legendMark"><g class="indicator"><line x1="723.595" y1="451.8" x2="736.095" y2="451.8" stroke="#666" stroke-width="0.5"></line><line x1="736.095" y1="451.8" x2="736.095" y2="451.8" stroke="#666" stroke-width="0.5"></line><line x1="736.095" y1="451.8" x2="748.595" y2="451.8" stroke="#666" stroke-width="0.5"></line></g><rect x="718.595" y="445.05" width="116.405" height="13.5" fill="#fff" opacity="0"></rect><text font-size="13.50" x="753.6" y="455.9" fill="#a652ba"><tspan x="753.595" y="455.85">United States</tspan></text></g><g class="legendMark"><g class="indicator"><line x1="723.595" y1="95.6" x2="736.095" y2="95.6" stroke="#666" stroke-width="0.5"></line><line x1="736.095" y1="95.6" x2="736.095" y2="95.6" stroke="#666" stroke-width="0.5"></line><line x1="736.095" y1="95.6" x2="748.595" y2="95.6" stroke="#666" stroke-width="0.5"></line></g><rect x="718.595" y="88.85" width="70.37" height="13.5" fill="#fff" opacity="0"></rect><text font-size="13.50" x="753.6" y="99.6" fill="#3360a9"><tspan x="753.595" y="99.64999999999999">China</tspan></text></g></g><g class="Lines"><rect x="109" y="77" width="610" height="459" fill="rgba(255,255,255,0)" opacity="0"></rect><g class="key-Thailand_0"><path stroke="#34983f" stroke-linecap="round" d="M109 535L121 535L133 535L145 535L157 535L168 535L180 535L192 535L204 535L216 535L228 535L240 535L252 535L264 535L276 535L288 535L300 535L312 535L324 535L336 535L348 535L360 535L372 535L384 535L396 535L408 534L420 534L432 534L444 534L456 534L467 534L479 533L491 533L503 534L515 534L527 534L539 533L551 533L563 533L575 533L587 533L599 532L611 532L623 532L635 532L647 532L659 532L671 531L683 532L695 531L707 531L719 531" fill="none" stroke-width="1.5"></path><g fill="#34983f"><circle cx="109" cy="535" r="2"></circle><circle cx="121" cy="535" r="2"></circle><circle cx="133" cy="535" r="2"></circle><circle cx="145" cy="535" r="2"></circle><circle cx="157" cy="535" r="2"></circle><circle cx="168" cy="535" r="2"></circle><circle cx="180" cy="535" r="2"></circle><circle cx="192" cy="535" r="2"></circle><circle cx="204" cy="535" r="2"></circle><circle cx="216" cy="535" r="2"></circle><circle cx="228" cy="535" r="2"></circle><circle cx="240" cy="535" r="2"></circle><circle cx="252" cy="535" r="2"></circle><circle cx="264" cy="535" r="2"></circle><circle cx="276" cy="535" r="2"></circle><circle cx="288" cy="535" r="2"></circle><circle cx="300" cy="535" r="2"></circle><circle cx="312" cy="535" r="2"></circle><circle cx="324" cy="535" r="2"></circle><circle cx="336" cy="535" r="2"></circle><circle cx="348" cy="535" r="2"></circle><circle cx="360" cy="535" r="2"></circle><circle cx="372" cy="535" r="2"></circle><circle cx="384" cy="535" r="2"></circle><circle cx="396" cy="535" r="2"></circle><circle cx="408" cy="534" r="2"></circle><circle cx="420" cy="534" r="2"></circle><circle cx="432" cy="534" r="2"></circle><circle cx="444" cy="534" r="2"></circle><circle cx="456" cy="534" r="2"></circle><circle cx="467" cy="534" r="2"></circle><circle cx="479" cy="533" r="2"></circle><circle cx="491" cy="533" r="2"></circle><circle cx="503" cy="534" r="2"></circle><circle cx="515" cy="534" r="2"></circle><circle cx="527" cy="534" r="2"></circle><circle cx="539" cy="533" r="2"></circle><circle cx="551" cy="533" r="2"></circle><circle cx="563" cy="533" r="2"></circle><circle cx="575" cy="533" r="2"></circle><circle cx="587" cy="533" r="2"></circle><circle cx="599" cy="532" r="2"></circle><circle cx="611" cy="532" r="2"></circle><circle cx="623" cy="532" r="2"></circle><circle cx="635" cy="532" r="2"></circle><circle cx="647" cy="532" r="2"></circle><circle cx="659" cy="532" r="2"></circle><circle cx="671" cy="531" r="2"></circle><circle cx="683" cy="532" r="2"></circle><circle cx="695" cy="531" r="2"></circle><circle cx="707" cy="531" r="2"></circle><circle cx="719" cy="531" r="2"></circle></g></g><g class="key-China_0"><path stroke="#3360a9" stroke-linecap="round" d="M109 509L121 507L133 510L145 510L157 505L168 497L180 491L192 488L204 488L216 488L228 482L240 481L252 475L264 469L276 467L288 464L300 465L312 461L324 455L336 448L348 440L360 436L372 428L384 420L396 414L408 412L420 406L432 401L444 392L456 382L467 380L479 373L491 376L503 378L515 373L527 371L539 362L551 346L563 309L575 272L587 227L599 196L611 166L623 160L635 143L647 128L659 92L671 86L683 77L695 80L707 90L719 96" fill="none" stroke-width="1.5"></path><g fill="#3360a9"><circle cx="109" cy="509" r="2"></circle><circle cx="121" cy="507" r="2"></circle><circle cx="133" cy="510" r="2"></circle><circle cx="145" cy="510" r="2"></circle><circle cx="157" cy="505" r="2"></circle><circle cx="168" cy="497" r="2"></circle><circle cx="180" cy="491" r="2"></circle><circle cx="192" cy="488" r="2"></circle><circle cx="204" cy="488" r="2"></circle><circle cx="216" cy="488" r="2"></circle><circle cx="228" cy="482" r="2"></circle><circle cx="240" cy="481" r="2"></circle><circle cx="252" cy="475" r="2"></circle><circle cx="264" cy="469" r="2"></circle><circle cx="276" cy="467" r="2"></circle><circle cx="288" cy="464" r="2"></circle><circle cx="300" cy="465" r="2"></circle><circle cx="312" cy="461" r="2"></circle><circle cx="324" cy="455" r="2"></circle><circle cx="336" cy="448" r="2"></circle><circle cx="348" cy="440" r="2"></circle><circle cx="360" cy="436" r="2"></circle><circle cx="372" cy="428" r="2"></circle><circle cx="384" cy="420" r="2"></circle><circle cx="396" cy="414" r="2"></circle><circle cx="408" cy="412" r="2"></circle><circle cx="420" cy="406" r="2"></circle><circle cx="432" cy="401" r="2"></circle><circle cx="444" cy="392" r="2"></circle><circle cx="456" cy="382" r="2"></circle><circle cx="467" cy="380" r="2"></circle><circle cx="479" cy="373" r="2"></circle><circle cx="491" cy="376" r="2"></circle><circle cx="503" cy="378" r="2"></circle><circle cx="515" cy="373" r="2"></circle><circle cx="527" cy="371" r="2"></circle><circle cx="539" cy="362" r="2"></circle><circle cx="551" cy="346" r="2"></circle><circle cx="563" cy="309" r="2"></circle><circle cx="575" cy="272" r="2"></circle><circle cx="587" cy="227" r="2"></circle><circle cx="599" cy="196" r="2"></circle><circle cx="611" cy="166" r="2"></circle><circle cx="623" cy="160" r="2"></circle><circle cx="635" cy="143" r="2"></circle><circle cx="647" cy="128" r="2"></circle><circle cx="659" cy="92" r="2"></circle><circle cx="671" cy="86" r="2"></circle><circle cx="683" cy="77" r="2"></circle><circle cx="695" cy="80" r="2"></circle><circle cx="707" cy="90" r="2"></circle><circle cx="719" cy="96" r="2"></circle></g></g><g class="key-Brazil_0"><path stroke="#ca2628" stroke-linecap="round" d="M109 535L121 535L133 535L145 535L157 535L168 535L180 535L192 535L204 535L216 535L228 535L240 535L252 534L264 534L276 534L288 534L300 534L312 534L324 534L336 533L348 533L360 533L372 533L384 533L396 533L408 533L420 533L432 533L444 533L456 533L467 533L479 533L491 532L503 533L515 533L527 532L539 532L551 532L563 532L575 532L587 532L599 532L611 532L623 532L635 533L647 532L659 532L671 532L683 532L695 531L707 531L719 532" fill="none" stroke-width="1.5"></path><g fill="#ca2628"><circle cx="109" cy="535" r="2"></circle><circle cx="121" cy="535" r="2"></circle><circle cx="133" cy="535" r="2"></circle><circle cx="145" cy="535" r="2"></circle><circle cx="157" cy="535" r="2"></circle><circle cx="168" cy="535" r="2"></circle><circle cx="180" cy="535" r="2"></circle><circle cx="192" cy="535" r="2"></circle><circle cx="204" cy="535" r="2"></circle><circle cx="216" cy="535" r="2"></circle><circle cx="228" cy="535" r="2"></circle><circle cx="240" cy="535" r="2"></circle><circle cx="252" cy="534" r="2"></circle><circle cx="264" cy="534" r="2"></circle><circle cx="276" cy="534" r="2"></circle><circle cx="288" cy="534" r="2"></circle><circle cx="300" cy="534" r="2"></circle><circle cx="312" cy="534" r="2"></circle><circle cx="324" cy="534" r="2"></circle><circle cx="336" cy="533" r="2"></circle><circle cx="348" cy="533" r="2"></circle><circle cx="360" cy="533" r="2"></circle><circle cx="372" cy="533" r="2"></circle><circle cx="384" cy="533" r="2"></circle><circle cx="396" cy="533" r="2"></circle><circle cx="408" cy="533" r="2"></circle><circle cx="420" cy="533" r="2"></circle><circle cx="432" cy="533" r="2"></circle><circle cx="444" cy="533" r="2"></circle><circle cx="456" cy="533" r="2"></circle><circle cx="467" cy="533" r="2"></circle><circle cx="479" cy="533" r="2"></circle><circle cx="491" cy="532" r="2"></circle><circle cx="503" cy="533" r="2"></circle><circle cx="515" cy="533" r="2"></circle><circle cx="527" cy="532" r="2"></circle><circle cx="539" cy="532" r="2"></circle><circle cx="551" cy="532" r="2"></circle><circle cx="563" cy="532" r="2"></circle><circle cx="575" cy="532" r="2"></circle><circle cx="587" cy="532" r="2"></circle><circle cx="599" cy="532" r="2"></circle><circle cx="611" cy="532" r="2"></circle><circle cx="623" cy="532" r="2"></circle><circle cx="635" cy="533" r="2"></circle><circle cx="647" cy="532" r="2"></circle><circle cx="659" cy="532" r="2"></circle><circle cx="671" cy="532" r="2"></circle><circle cx="683" cy="532" r="2"></circle><circle cx="695" cy="531" r="2"></circle><circle cx="707" cy="531" r="2"></circle><circle cx="719" cy="532" r="2"></circle></g></g><g class="key-Russia_0"><path stroke="#f6a324" stroke-linecap="round" d="M348 489L360 488L372 487L384 488L396 490L408 493L420 496L432 499L444 502L456 506L467 508L479 508L491 510L503 512L515 512L527 511L539 511L551 511L563 511L575 512L587 513L599 513L611 513L623 512L635 514L647 514L659 513L671 512L683 514L695 515L707 514L719 515" fill="none" stroke-width="1.5"></path><g fill="#f6a324"><circle cx="348" cy="489" r="2"></circle><circle cx="360" cy="488" r="2"></circle><circle cx="372" cy="487" r="2"></circle><circle cx="384" cy="488" r="2"></circle><circle cx="396" cy="490" r="2"></circle><circle cx="408" cy="493" r="2"></circle><circle cx="420" cy="496" r="2"></circle><circle cx="432" cy="499" r="2"></circle><circle cx="444" cy="502" r="2"></circle><circle cx="456" cy="506" r="2"></circle><circle cx="467" cy="508" r="2"></circle><circle cx="479" cy="508" r="2"></circle><circle cx="491" cy="510" r="2"></circle><circle cx="503" cy="512" r="2"></circle><circle cx="515" cy="512" r="2"></circle><circle cx="527" cy="511" r="2"></circle><circle cx="539" cy="511" r="2"></circle><circle cx="551" cy="511" r="2"></circle><circle cx="563" cy="511" r="2"></circle><circle cx="575" cy="512" r="2"></circle><circle cx="587" cy="513" r="2"></circle><circle cx="599" cy="513" r="2"></circle><circle cx="611" cy="513" r="2"></circle><circle cx="623" cy="512" r="2"></circle><circle cx="635" cy="514" r="2"></circle><circle cx="647" cy="514" r="2"></circle><circle cx="659" cy="513" r="2"></circle><circle cx="671" cy="512" r="2"></circle><circle cx="683" cy="514" r="2"></circle><circle cx="695" cy="515" r="2"></circle><circle cx="707" cy="514" r="2"></circle><circle cx="719" cy="515" r="2"></circle></g></g><g class="key-United-States_0"><path stroke="#a652ba" stroke-linecap="round" d="M109 467L121 464L133 465L145 463L157 463L168 463L180 467L192 464L204 459L216 461L228 461L240 456L252 454L264 455L276 447L288 445L300 442L312 445L324 442L336 435L348 433L360 434L372 430L384 425L396 423L408 423L420 424L432 423L444 419L456 418L467 417L479 412L491 409L503 408L515 408L527 403L539 407L551 407L563 404L575 403L587 402L599 404L611 402L623 404L635 420L647 413L659 420L671 433L683 429L695 430L707 444L719 452" fill="none" stroke-width="1.5"></path><g fill="#a652ba"><circle cx="109" cy="467" r="2"></circle><circle cx="121" cy="464" r="2"></circle><circle cx="133" cy="465" r="2"></circle><circle cx="145" cy="463" r="2"></circle><circle cx="157" cy="463" r="2"></circle><circle cx="168" cy="463" r="2"></circle><circle cx="180" cy="467" r="2"></circle><circle cx="192" cy="464" r="2"></circle><circle cx="204" cy="459" r="2"></circle><circle cx="216" cy="461" r="2"></circle><circle cx="228" cy="461" r="2"></circle><circle cx="240" cy="456" r="2"></circle><circle cx="252" cy="454" r="2"></circle><circle cx="264" cy="455" r="2"></circle><circle cx="276" cy="447" r="2"></circle><circle cx="288" cy="445" r="2"></circle><circle cx="300" cy="442" r="2"></circle><circle cx="312" cy="445" r="2"></circle><circle cx="324" cy="442" r="2"></circle><circle cx="336" cy="435" r="2"></circle><circle cx="348" cy="433" r="2"></circle><circle cx="360" cy="434" r="2"></circle><circle cx="372" cy="430" r="2"></circle><circle cx="384" cy="425" r="2"></circle><circle cx="396" cy="423" r="2"></circle><circle cx="408" cy="423" r="2"></circle><circle cx="420" cy="424" r="2"></circle><circle cx="432" cy="423" r="2"></circle><circle cx="444" cy="419" r="2"></circle><circle cx="456" cy="418" r="2"></circle><circle cx="467" cy="417" r="2"></circle><circle cx="479" cy="412" r="2"></circle><circle cx="491" cy="409" r="2"></circle><circle cx="503" cy="408" r="2"></circle><circle cx="515" cy="408" r="2"></circle><circle cx="527" cy="403" r="2"></circle><circle cx="539" cy="407" r="2"></circle><circle cx="551" cy="407" r="2"></circle><circle cx="563" cy="404" r="2"></circle><circle cx="575" cy="403" r="2"></circle><circle cx="587" cy="402" r="2"></circle><circle cx="599" cy="404" r="2"></circle><circle cx="611" cy="402" r="2"></circle><circle cx="623" cy="404" r="2"></circle><circle cx="635" cy="420" r="2"></circle><circle cx="647" cy="413" r="2"></circle><circle cx="659" cy="420" r="2"></circle><circle cx="671" cy="433" r="2"></circle><circle cx="683" cy="429" r="2"></circle><circle cx="695" cy="430" r="2"></circle><circle cx="707" cy="444" r="2"></circle><circle cx="719" cy="452" r="2"></circle></g></g><g class="key-Pakistan_0"><path stroke="#3360a9" stroke-linecap="round" d="M109 535L121 535L133 535L145 535L157 535L168 535L180 535L192 535L204 535L216 535L228 535L240 535L252 535L264 535L276 535L288 535L300 535L312 535L324 535L336 535L348 535L360 535L372 535L384 535L396 535L408 535L420 535L432 535L444 535L456 535L467 535L479 535L491 535L503 535L515 535L527 535L539 535L551 535L563 535L575 535L587 534L599 534L611 534L623 534L635 534L647 534L659 534L671 534L683 535L695 534L707 534L719 534" fill="none" stroke-width="1.5"></path><g fill="#3360a9"><circle cx="109" cy="535" r="2"></circle><circle cx="121" cy="535" r="2"></circle><circle cx="133" cy="535" r="2"></circle><circle cx="145" cy="535" r="2"></circle><circle cx="157" cy="535" r="2"></circle><circle cx="168" cy="535" r="2"></circle><circle cx="180" cy="535" r="2"></circle><circle cx="192" cy="535" r="2"></circle><circle cx="204" cy="535" r="2"></circle><circle cx="216" cy="535" r="2"></circle><circle cx="228" cy="535" r="2"></circle><circle cx="240" cy="535" r="2"></circle><circle cx="252" cy="535" r="2"></circle><circle cx="264" cy="535" r="2"></circle><circle cx="276" cy="535" r="2"></circle><circle cx="288" cy="535" r="2"></circle><circle cx="300" cy="535" r="2"></circle><circle cx="312" cy="535" r="2"></circle><circle cx="324" cy="535" r="2"></circle><circle cx="336" cy="535" r="2"></circle><circle cx="348" cy="535" r="2"></circle><circle cx="360" cy="535" r="2"></circle><circle cx="372" cy="535" r="2"></circle><circle cx="384" cy="535" r="2"></circle><circle cx="396" cy="535" r="2"></circle><circle cx="408" cy="535" r="2"></circle><circle cx="420" cy="535" r="2"></circle><circle cx="432" cy="535" r="2"></circle><circle cx="444" cy="535" r="2"></circle><circle cx="456" cy="535" r="2"></circle><circle cx="467" cy="535" r="2"></circle><circle cx="479" cy="535" r="2"></circle><circle cx="491" cy="535" r="2"></circle><circle cx="503" cy="535" r="2"></circle><circle cx="515" cy="535" r="2"></circle><circle cx="527" cy="535" r="2"></circle><circle cx="539" cy="535" r="2"></circle><circle cx="551" cy="535" r="2"></circle><circle cx="563" cy="535" r="2"></circle><circle cx="575" cy="535" r="2"></circle><circle cx="587" cy="534" r="2"></circle><circle cx="599" cy="534" r="2"></circle><circle cx="611" cy="534" r="2"></circle><circle cx="623" cy="534" r="2"></circle><circle cx="635" cy="534" r="2"></circle><circle cx="647" cy="534" r="2"></circle><circle cx="659" cy="534" r="2"></circle><circle cx="671" cy="534" r="2"></circle><circle cx="683" cy="535" r="2"></circle><circle cx="695" cy="534" r="2"></circle><circle cx="707" cy="534" r="2"></circle><circle cx="719" cy="534" r="2"></circle></g></g></g></g></g><g class="SourcesFooter" style="fill:#777"><g class="clickable" style="fill:#777"><text font-size="12.60" x="15.0" y="581.6"><tspan x="15" y="581.58">Source: BP Statistical Review of Global Energy</tspan></text></g><text font-size="12.60" x="582.4" y="581.6"><tspan x="582.37" y="581.58"><a target='_blank' style='fill: #777;' href='https://ourworldindata.org/fossil-fuels/'>OurWorldInData.org/fossil-fuels/</a> • <a style="fill: #777;" class="cclogo" href="http://creativecommons.org/licenses/by-sa/4.0/deed.en_US" target="_blank">CC BY-SA</a></tspan></text></g></g></svg>