<svg xmlns="http://www.w3.org/2000/svg" version="1.1" style="font-family:&#x27;Helvetica Neue&#x27;, Helvetica, Arial, sans-serif;font-size:18px;background-color:white;text-rendering:optimizeLegibility;-webkit-font-smoothing:antialiased" width="850" height="600"><g class="ChartTab"><g class="HeaderView"><g opacity="0.8" transform="translate(778, 15) scale(0.27)"><a xmlns:xlink="http://www.w3.org/1999/xlink" xlink:href="https://ourworldindata.org" target="_blank"><g><rect x="0" y="0" fill="#1B2543" width="211.2" height="130.1"/><rect x="0" y="112.2" fill="#E63912" width="211.2" height="17.9"/><g><rect x="1.2" y="12.3" fill="none" width="210.2" height="99.2"/><path fill="#FFFFFF" d="M37.8,32.2c0,12.7-7.7,19.4-17.1,19.4c-9.7,0-16.6-7.5-16.6-18.7c0-11.7,7.3-19.3,17.1-19.3 C31.3,13.7,37.8,21.3,37.8,32.2z M9.2,32.8c0,7.9,4.3,14.9,11.8,14.9c7.5,0,11.8-6.9,11.8-15.3c0-7.3-3.8-14.9-11.8-14.9 C13.1,17.5,9.2,24.8,9.2,32.8z"/><path fill="#FFFFFF" d="M62.7,43.8c0,2.7,0.1,5.1,0.2,7.2h-4.3l-0.3-4.3h-0.1c-1.3,2.1-4,4.9-8.8,4.9c-4.2,0-9.1-2.3-9.1-11.6 V24.6h4.8v14.6c0,5,1.5,8.4,5.9,8.4c3.2,0,5.5-2.2,6.3-4.4c0.3-0.7,0.4-1.6,0.4-2.5V24.6h4.8V43.8z"/><path fill="#FFFFFF" d="M67.3,32.8c0-3.1-0.1-5.8-0.2-8.2h4.2l0.2,5.2h0.2c1.2-3.5,4.1-5.8,7.3-5.8c0.5,0,0.9,0.1,1.4,0.2v4.5 c-0.5-0.1-1-0.2-1.6-0.2c-3.4,0-5.8,2.6-6.5,6.2c-0.1,0.7-0.2,1.4-0.2,2.2V51h-4.8V32.8z"/><path fill="#FFFFFF" d="M95.4,51l-9.4-36.8h5l4.4,18.6c1.1,4.6,2.1,9.2,2.7,12.7h0.1c0.6-3.7,1.8-8,3-12.8l4.9-18.5h5l4.5,18.7 c1,4.4,2,8.7,2.6,12.6h0.1c0.8-4,1.8-8.1,3-12.7l4.9-18.5h4.9L120.6,51h-5L111,31.9c-1.1-4.7-1.9-8.3-2.4-12h-0.1 c-0.7,3.7-1.5,7.3-2.8,12L100.4,51H95.4z"/><path fill="#FFFFFF" d="M154.9,37.6c0,9.8-6.8,14-13.2,14c-7.2,0-12.7-5.2-12.7-13.6c0-8.8,5.8-14,13.1-14 C149.8,24,154.9,29.5,154.9,37.6z M133.9,37.9c0,5.8,3.3,10.1,8,10.1c4.6,0,8-4.3,8-10.3c0-4.5-2.2-10.1-7.9-10.1 C136.3,27.6,133.9,32.8,133.9,37.9z"/><path fill="#FFFFFF" d="M158.2,32.8c0-3.1-0.1-5.8-0.2-8.2h4.2l0.2,5.2h0.2c1.2-3.5,4.1-5.8,7.3-5.8c0.5,0,0.9,0.1,1.4,0.2v4.5 c-0.5-0.1-1-0.2-1.6-0.2c-3.4,0-5.8,2.6-6.5,6.2c-0.1,0.7-0.2,1.4-0.2,2.2V51h-4.8V32.8z"/><path fill="#FFFFFF" d="M173.5,12.3h4.8V51h-4.8V12.3z"/><path fill="#FFFFFF" d="M206.5,12.3v31.9c0,2.3,0.1,5,0.2,6.8h-4.3l-0.2-4.6H202c-1.5,2.9-4.7,5.2-9,5.2 c-6.4,0-11.3-5.4-11.3-13.4c-0.1-8.8,5.4-14.2,11.9-14.2c4,0,6.8,1.9,8,4h0.1V12.3H206.5z M201.7,35.4c0-0.6-0.1-1.4-0.2-2 c-0.7-3.1-3.3-5.6-6.9-5.6c-5,0-7.9,4.4-7.9,10.2c0,5.3,2.6,9.8,7.8,9.8c3.2,0,6.2-2.1,7.1-5.7c0.2-0.7,0.2-1.3,0.2-2.1V35.4z"/><path fill="#FFFFFF" d="M42.8,64c0.1,1.6-1.1,2.9-3.1,2.9c-1.7,0-2.9-1.3-2.9-2.9c0-1.7,1.3-3,3-3C41.7,61,42.8,62.3,42.8,64z M37.4,97.8V71.4h4.8v26.4H37.4z"/><path fill="#FFFFFF" d="M47.5,78.6c0-2.7-0.1-5-0.2-7.1h4.3l0.3,4.4h0.1c1.3-2.5,4.4-5,8.8-5c3.7,0,9.4,2.2,9.4,11.2v15.8h-4.8 V82.6c0-4.3-1.6-7.8-6.1-7.8c-3.2,0-5.6,2.2-6.5,4.9c-0.2,0.6-0.3,1.4-0.3,2.2v15.9h-4.8V78.6z"/><path fill="#FFFFFF" d="M84,61.6c2.9-0.4,6.3-0.8,10.1-0.8c6.8,0,11.7,1.6,14.9,4.6c3.3,3,5.2,7.3,5.2,13.2c0,6-1.9,10.9-5.3,14.3 c-3.4,3.4-9.1,5.3-16.3,5.3c-3.4,0-6.2-0.2-8.6-0.4V61.6z M88.8,94.1c1.2,0.2,3,0.3,4.8,0.3c10.2,0,15.7-5.7,15.7-15.6 c0.1-8.7-4.9-14.2-14.9-14.2c-2.5,0-4.3,0.2-5.6,0.5V94.1z"/><path fill="#FFFFFF" d="M132.1,97.8l-0.4-3.3h-0.2c-1.5,2.1-4.3,3.9-8.1,3.9c-5.4,0-8.1-3.8-8.1-7.6c0-6.4,5.7-9.9,15.9-9.8v-0.5 c0-2.2-0.6-6.1-6-6.1c-2.5,0-5,0.8-6.9,2l-1.1-3.2c2.2-1.4,5.4-2.3,8.7-2.3c8.1,0,10.1,5.5,10.1,10.8v9.9c0,2.3,0.1,4.5,0.4,6.3 H132.1z M131.4,84.4c-5.3-0.1-11.2,0.8-11.2,5.9c0,3.1,2.1,4.6,4.5,4.6c3.4,0,5.6-2.2,6.4-4.4c0.2-0.5,0.3-1,0.3-1.5V84.4z"/><path fill="#FFFFFF" d="M146.6,63.9v7.6h6.9v3.7h-6.9v14.2c0,3.3,0.9,5.1,3.6,5.1c1.3,0,2.2-0.2,2.8-0.3l0.2,3.6 c-0.9,0.4-2.4,0.7-4.3,0.7c-2.2,0-4-0.7-5.2-2c-1.4-1.4-1.9-3.8-1.9-6.9V75.1h-4.1v-3.7h4.1v-6.3L146.6,63.9z"/><path fill="#FFFFFF" d="M171.4,97.8l-0.4-3.3h-0.2c-1.5,2.1-4.3,3.9-8.1,3.9c-5.4,0-8.1-3.8-8.1-7.6c0-6.4,5.7-9.9,15.9-9.8v-0.5 c0-2.2-0.6-6.1-6-6.1c-2.5,0-5,0.8-6.9,2l-1.1-3.2c2.2-1.4,5.4-2.3,8.7-2.3c8.1,0,10.1,5.5,10.1,10.8v9.9c0,2.3,0.1,4.5,0.4,6.3 H171.4z M170.7,84.4c-5.3-0.1-11.2,0.8-11.2,5.9c0,3.1,2.1,4.6,4.5,4.6c3.4,0,5.6-2.2,6.4-4.4c0.2-0.5,0.3-1,0.3-1.5V84.4z"/></g></g></a></g><a href="https://ourworldindata.org/grapher/coal-consumption-by-region" target="_blank"><text font-size="25.20" x="15.0" y="35.2" fill="#555"><tspan x="15" y="35.160000000000004">Coal consumption by region, terawatt-hours (TWh)</tspan></text></a><text font-size="14.40" x="15.0" y="53.7" fill="#666"><tspan x="15" y="53.72">Annual coal consumption, measured in equivalents of terawatt-hours (TWh) per year.</tspan></text></g><g class="StackedArea"><defs><clipPath id="boundsClip-356"><rect x="108.614" y="0" width="820" height="959.8"></rect></clipPath></defs><g class="AxisBoxView"><g class="HorizontalAxis"><text x="108.6" y="556.5" fill="#666" text-anchor="middle" font-size="16.2">1965</text><text x="166" y="556.5" fill="#666" text-anchor="middle" font-size="16.2">1970</text><text x="280.7" y="556.5" fill="#666" text-anchor="middle" font-size="16.2">1980</text><text x="395.4" y="556.5" fill="#666" text-anchor="middle" font-size="16.2">1990</text><text x="510.2" y="556.5" fill="#666" text-anchor="middle" font-size="16.2">2000</text><text x="624.9" y="556.5" fill="#666" text-anchor="middle" font-size="16.2">2010</text><text x="693.8" y="556.5" fill="#666" text-anchor="middle" font-size="16.2">2016</text></g><g class="VerticalAxis"><text x="103.61" y="535.3" fill="#666" dominant-baseline="middle" text-anchor="end" font-size="16.2">0 TWh</text><text x="103.61" y="433.9" fill="#666" dominant-baseline="middle" text-anchor="end" font-size="16.2">10,000 TWh</text><text x="103.61" y="332.5" fill="#666" dominant-baseline="middle" text-anchor="end" font-size="16.2">20,000 TWh</text><text x="103.61" y="231.1" fill="#666" dominant-baseline="middle" text-anchor="end" font-size="16.2">30,000 TWh</text><text x="103.61" y="129.7" fill="#666" dominant-baseline="middle" text-anchor="end" font-size="16.2">40,000 TWh</text></g><g class="AxisGridLines"><line x1="108.61" y1="535.3" x2="693.75" y2="535.3" stroke="#ccc"></line><line x1="108.61" y1="433.9" x2="693.75" y2="433.9" stroke="#ddd" stroke-dasharray="3,2"></line><line x1="108.61" y1="332.5" x2="693.75" y2="332.5" stroke="#ddd" stroke-dasharray="3,2"></line><line x1="108.61" y1="231.1" x2="693.75" y2="231.1" stroke="#ddd" stroke-dasharray="3,2"></line><line x1="108.61" y1="129.7" x2="693.75" y2="129.7" stroke="#ddd" stroke-dasharray="3,2"></line></g></g><g clip-path="url(#boundsClip-356)"><g class="HeightedLegend clickable"><g class="legendMark"><g class="indicator"><line x1="698.755" y1="95.7" x2="721.255" y2="95.7" stroke="#666" stroke-width="0.5"></line><line x1="721.255" y1="95.7" x2="721.255" y2="95.7" stroke="#666" stroke-width="0.5"></line><line x1="721.255" y1="95.7" x2="723.755" y2="95.7" stroke="#666" stroke-width="0.5"></line></g><rect x="693.755" y="88.95" width="105.74000000000001" height="13.5" fill="#fff" opacity="0"></rect><text font-size="13.50" x="728.8" y="99.8" fill="#db2445"><tspan x="728.755" y="99.75">Middle East</tspan></text></g><g class="legendMark"><g class="indicator"><line x1="698.755" y1="98.3" x2="716.255" y2="98.3" stroke="#666" stroke-width="0.5"></line><line x1="716.255" y1="98.3" x2="716.255" y2="118.5" stroke="#666" stroke-width="0.5"></line><line x1="716.255" y1="118.5" x2="723.755" y2="118.5" stroke="#666" stroke-width="0.5"></line></g><rect x="693.755" y="104.45" width="130.715" height="28.1" fill="#fff" opacity="0"></rect><text font-size="13.50" x="728.8" y="115.3" fill="#5eb77e"><tspan x="728.755" y="115.25">South &amp; Central</tspan><tspan x="728.755" y="130.1">America</tspan></text></g><g class="legendMark"><g class="indicator"><line x1="698.755" y1="106" x2="711.255" y2="106" stroke="#666" stroke-width="0.5"></line><line x1="711.255" y1="106" x2="711.255" y2="141.3" stroke="#666" stroke-width="0.5"></line><line x1="711.255" y1="141.3" x2="723.755" y2="141.3" stroke="#666" stroke-width="0.5"></line></g><rect x="693.755" y="134.55" width="69.56" height="13.5" fill="#fff" opacity="0"></rect><text font-size="13.50" x="728.8" y="145.4" fill="#3360a9"><tspan x="728.755" y="145.35000000000002">Africa</tspan></text></g><g class="legendMark"><g class="indicator"><line x1="698.755" y1="134.5" x2="706.255" y2="134.5" stroke="#666" stroke-width="0.5"></line><line x1="706.255" y1="134.5" x2="706.255" y2="156.8" stroke="#666" stroke-width="0.5"></line><line x1="706.255" y1="156.8" x2="723.755" y2="156.8" stroke="#666" stroke-width="0.5"></line></g><rect x="693.755" y="150.05" width="121.4" height="13.5" fill="#fff" opacity="0"></rect><text font-size="13.50" x="728.8" y="160.9" fill="#34983f"><tspan x="728.755" y="160.85000000000002">North America</tspan></text></g><g class="legendMark"><g class="indicator"><line x1="698.755" y1="183.9" x2="711.255" y2="183.9" stroke="#666" stroke-width="0.5"></line><line x1="711.255" y1="183.9" x2="711.255" y2="183.9" stroke="#666" stroke-width="0.5"></line><line x1="711.255" y1="183.9" x2="723.755" y2="183.9" stroke="#666" stroke-width="0.5"></line></g><rect x="693.755" y="177.15" width="141.245" height="13.5" fill="#fff" opacity="0"></rect><text font-size="13.50" x="728.8" y="188.0" fill="#ffd53e"><tspan x="728.755" y="187.95000000000002">Europe &amp; Eurasia</tspan></text></g><g class="legendMark"><g class="indicator"><line x1="698.755" y1="372.9" x2="711.255" y2="372.9" stroke="#666" stroke-width="0.5"></line><line x1="711.255" y1="372.9" x2="711.255" y2="372.9" stroke="#666" stroke-width="0.5"></line><line x1="711.255" y1="372.9" x2="723.755" y2="372.9" stroke="#666" stroke-width="0.5"></line></g><rect x="693.755" y="366.15" width="104.93" height="13.5" fill="#fff" opacity="0"></rect><text font-size="13.50" x="728.8" y="376.9" fill="#ca2628"><tspan x="728.755" y="376.95">Asia Pacific</tspan></text></g></g><g class="Areas"><rect x="108.614" y="76.6" width="585.141" height="458.69999999999993" opacity="0" fill="rgba(255,255,255,0)"></rect><path class="Asia-Pacific_0-area" stroke-linecap="round" d="M108.6 507.1L120.1 505.6L131.6 506.4L143 505.9L154.5 502.3L166 498.5L177.5 495.9L188.9 494.4L200.4 493.4L211.9 492.4L223.3 489.1L234.8 488L246.3 484.9L257.8 482.4L269.2 479.8L280.7 476.7L292.2 474.7L303.7 472.6L315.1 468.9L326.6 463.2L338.1 457.5L349.6 454.5L361 448.7L372.5 442.5L384 438.3L395.4 436.2L406.9 432.1L418.4 428.5L429.9 422.9L441.3 417.3L452.8 414.5L464.3 409.3L475.8 408.7L487.2 408.8L498.7 404.8L510.2 400.4L521.7 394.2L533.1 383.4L544.6 361.6L556.1 339.9L567.5 313.2L579 296.4L590.5 276.1L602 269.1L613.4 259.8L624.9 247.3L636.4 226.2L647.9 219.5L659.3 211.2L670.8 209L682.3 211.2L693.8 210.5L693.755 535.3L108.614 535.3" fill="#ca2628" fill-opacity="0.7"></path><path class="Europe-__0026-Eurasia_0-area" stroke-linecap="round" d="M108.6 410.2L120.1 409.9L131.6 412.1L143 411.1L154.5 406L166 403.6L177.5 402.8L188.9 402.1L200.4 399.8L211.9 399.1L223.3 396L234.8 392.4L246.3 388.7L257.8 385.5L269.2 380.2L280.7 377.2L292.2 376.5L303.7 373.4L315.1 368.8L326.6 363.6L338.1 355.9L349.6 352.5L361 345.5L372.5 341.2L384 338.8L395.4 342.1L406.9 344.2L418.4 345.7L429.9 346.5L441.3 346L452.8 345.6L464.3 342.1L475.8 343.6L487.2 346.3L498.7 344.9L510.2 338.7L521.7 332.6L533.1 321.8L544.6 297.9L556.1 277.1L567.5 252.5L579 233.1L590.5 212.4L602 206.8L613.4 203.7L624.9 189.2L636.4 165.5L647.9 157.3L659.3 151.3L670.8 151.5L682.3 155.7L693.8 157.3L693.8 210.5L682.3 211.2L670.8 209L659.3 211.2L647.9 219.5L636.4 226.2L624.9 247.3L613.4 259.8L602 269.1L590.5 276.1L579 296.4L567.5 313.2L556.1 339.9L544.6 361.6L533.1 383.4L521.7 394.2L510.2 400.4L498.7 404.8L487.2 408.8L475.8 408.7L464.3 409.3L452.8 414.5L441.3 417.3L429.9 422.9L418.4 428.5L406.9 432.1L395.4 436.2L384 438.3L372.5 442.5L361 448.7L349.6 454.5L338.1 457.5L326.6 463.2L315.1 468.9L303.7 472.6L292.2 474.7L280.7 476.7L269.2 479.8L257.8 482.4L246.3 484.9L234.8 488L223.3 489.1L211.9 492.4L200.4 493.4L188.9 494.4L177.5 495.9L166 498.5L154.5 502.3L143 505.9L131.6 506.4L120.1 505.6L108.6 507.1" fill="#ffd53e" fill-opacity="0.7"></path><path class="North-America_0-area" stroke-linecap="round" d="M108.6 373.9L120.1 372L131.6 374.8L143 372.4L154.5 367.3L166 365L177.5 366.2L188.9 364.3L200.4 359.2L211.9 359.4L223.3 356.3L234.8 349.7L246.3 344.3L257.8 342L269.2 333.1L280.7 328.4L292.2 326.3L303.7 324.8L315.1 318.3L326.6 309.2L338.1 300.5L349.6 297.9L361 288.5L372.5 281.4L384 278.3L395.4 281.5L406.9 284.3L418.4 285.3L429.9 284.4L441.3 283.3L452.8 282.2L464.3 275.8L475.8 275.9L487.2 277.7L498.7 276.5L510.2 267.2L521.7 262.9L533.1 251.5L544.6 226.7L556.1 205.8L567.5 179.8L579 161.5L590.5 139.9L602 135.6L613.4 141.2L624.9 122.8L636.4 102.8L647.9 101.6L659.3 93.7L670.8 94.2L682.3 105.6L693.8 111.7L693.8 157.3L682.3 155.7L670.8 151.5L659.3 151.3L647.9 157.3L636.4 165.5L624.9 189.2L613.4 203.7L602 206.8L590.5 212.4L579 233.1L567.5 252.5L556.1 277.1L544.6 297.9L533.1 321.8L521.7 332.6L510.2 338.7L498.7 344.9L487.2 346.3L475.8 343.6L464.3 342.1L452.8 345.6L441.3 346L429.9 346.5L418.4 345.7L406.9 344.2L395.4 342.1L384 338.8L372.5 341.2L361 345.5L349.6 352.5L338.1 355.9L326.6 363.6L315.1 368.8L303.7 373.4L292.2 376.5L280.7 377.2L269.2 380.2L257.8 385.5L246.3 388.7L234.8 392.4L223.3 396L211.9 399.1L200.4 399.8L188.9 402.1L177.5 402.8L166 403.6L154.5 406L143 411.1L131.6 412.1L120.1 409.9L108.6 410.2" fill="#34983f" fill-opacity="0.7"></path><path class="Africa_0-area" stroke-linecap="round" d="M108.6 370.5L120.1 368.6L131.6 371.3L143 368.8L154.5 363.6L166 361.3L177.5 362.3L188.9 360.3L200.4 355L211.9 355L223.3 351.6L234.8 344.8L246.3 339.3L257.8 337.2L269.2 327.9L280.7 322.9L292.2 319.8L303.7 317.7L315.1 311.1L326.6 301.5L338.1 292.5L349.6 289.7L361 280.1L372.5 272.4L384 269.8L395.4 272.6L406.9 275.7L418.4 276.6L429.9 275.5L441.3 274.2L452.8 272.9L464.3 266.3L475.8 266.2L487.2 268.2L498.7 266.7L510.2 257.4L521.7 253L533.1 242L544.6 216.4L556.1 194.4L567.5 169.3L579 150.9L590.5 129.1L602 123.6L613.4 129.2L624.9 111L636.4 91.2L647.9 90.3L659.3 82.2L670.8 82.1L682.3 94.4L693.8 100.3L693.8 111.7L682.3 105.6L670.8 94.2L659.3 93.7L647.9 101.6L636.4 102.8L624.9 122.8L613.4 141.2L602 135.6L590.5 139.9L579 161.5L567.5 179.8L556.1 205.8L544.6 226.7L533.1 251.5L521.7 262.9L510.2 267.2L498.7 276.5L487.2 277.7L475.8 275.9L464.3 275.8L452.8 282.2L441.3 283.3L429.9 284.4L418.4 285.3L406.9 284.3L395.4 281.5L384 278.3L372.5 281.4L361 288.5L349.6 297.9L338.1 300.5L326.6 309.2L315.1 318.3L303.7 324.8L292.2 326.3L280.7 328.4L269.2 333.1L257.8 342L246.3 344.3L234.8 349.7L223.3 356.3L211.9 359.4L200.4 359.2L188.9 364.3L177.5 366.2L166 365L154.5 367.3L143 372.4L131.6 374.8L120.1 372L108.6 373.9" fill="#3360a9" fill-opacity="0.7"></path><path class="South-__0026-Central-America_0-area" stroke-linecap="round" d="M108.6 369.8L120.1 367.9L131.6 370.6L143 368.1L154.5 362.9L166 360.5L177.5 361.5L188.9 359.5L200.4 354.2L211.9 354.1L223.3 350.7L234.8 343.9L246.3 338.3L257.8 336L269.2 326.8L280.7 321.7L292.2 318.6L303.7 316.4L315.1 309.7L326.6 299.9L338.1 290.6L349.6 287.9L361 278L372.5 270.3L384 267.6L395.4 270.7L406.9 273.7L418.4 274.6L429.9 273.4L441.3 272L452.8 270.6L464.3 264L475.8 263.6L487.2 265.7L498.7 264.3L510.2 255L521.7 250.6L533.1 239.7L544.6 213.9L556.1 191.8L567.5 166.8L579 148L590.5 126L602 120.3L613.4 126.5L624.9 107.7L636.4 87.6L647.9 86.6L659.3 78.2L670.8 77.9L682.3 90.2L693.8 96.3L693.8 100.3L682.3 94.4L670.8 82.1L659.3 82.2L647.9 90.3L636.4 91.2L624.9 111L613.4 129.2L602 123.6L590.5 129.1L579 150.9L567.5 169.3L556.1 194.4L544.6 216.4L533.1 242L521.7 253L510.2 257.4L498.7 266.7L487.2 268.2L475.8 266.2L464.3 266.3L452.8 272.9L441.3 274.2L429.9 275.5L418.4 276.6L406.9 275.7L395.4 272.6L384 269.8L372.5 272.4L361 280.1L349.6 289.7L338.1 292.5L326.6 301.5L315.1 311.1L303.7 317.7L292.2 319.8L280.7 322.9L269.2 327.9L257.8 337.2L246.3 339.3L234.8 344.8L223.3 351.6L211.9 355L200.4 355L188.9 360.3L177.5 362.3L166 361.3L154.5 363.6L143 368.8L131.6 371.3L120.1 368.6L108.6 370.5" fill="#5eb77e" fill-opacity="0.7"></path><path class="Middle-East_0-area" stroke-linecap="round" d="M108.6 369.8L120.1 367.9L131.6 370.5L143 368L154.5 362.8L166 360.4L177.5 361.5L188.9 359.5L200.4 354.2L211.9 354.1L223.3 350.6L234.8 343.8L246.3 338.1L257.8 335.9L269.2 326.6L280.7 321.5L292.2 318.5L303.7 316.2L315.1 309.4L326.6 299.6L338.1 290.3L349.6 287.5L361 277.7L372.5 270L384 267.3L395.4 270.4L406.9 273.3L418.4 274.1L429.9 272.8L441.3 271.4L452.8 270L464.3 263.3L475.8 262.8L487.2 264.9L498.7 263.4L510.2 254.1L521.7 249.6L533.1 238.6L544.6 212.8L556.1 190.6L567.5 165.7L579 146.8L590.5 124.9L602 119.2L613.4 125.3L624.9 106.5L636.4 86.3L647.9 85.1L659.3 76.9L670.8 76.6L682.3 89L693.8 95.2L693.8 96.3L682.3 90.2L670.8 77.9L659.3 78.2L647.9 86.6L636.4 87.6L624.9 107.7L613.4 126.5L602 120.3L590.5 126L579 148L567.5 166.8L556.1 191.8L544.6 213.9L533.1 239.7L521.7 250.6L510.2 255L498.7 264.3L487.2 265.7L475.8 263.6L464.3 264L452.8 270.6L441.3 272L429.9 273.4L418.4 274.6L406.9 273.7L395.4 270.7L384 267.6L372.5 270.3L361 278L349.6 287.9L338.1 290.6L326.6 299.9L315.1 309.7L303.7 316.4L292.2 318.6L280.7 321.7L269.2 326.8L257.8 336L246.3 338.3L234.8 343.9L223.3 350.7L211.9 354.1L200.4 354.2L188.9 359.5L177.5 361.5L166 360.5L154.5 362.9L143 368.1L131.6 370.6L120.1 367.9L108.6 369.8" fill="#db2445" fill-opacity="0.7"></path><path class="Asia-Pacific_0-border" stroke-linecap="round" d="M108.6 507.1L120.1 505.6L131.6 506.4L143 505.9L154.5 502.3L166 498.5L177.5 495.9L188.9 494.4L200.4 493.4L211.9 492.4L223.3 489.1L234.8 488L246.3 484.9L257.8 482.4L269.2 479.8L280.7 476.7L292.2 474.7L303.7 472.6L315.1 468.9L326.6 463.2L338.1 457.5L349.6 454.5L361 448.7L372.5 442.5L384 438.3L395.4 436.2L406.9 432.1L418.4 428.5L429.9 422.9L441.3 417.3L452.8 414.5L464.3 409.3L475.8 408.7L487.2 408.8L498.7 404.8L510.2 400.4L521.7 394.2L533.1 383.4L544.6 361.6L556.1 339.9L567.5 313.2L579 296.4L590.5 276.1L602 269.1L613.4 259.8L624.9 247.3L636.4 226.2L647.9 219.5L659.3 211.2L670.8 209L682.3 211.2L693.8 210.5" stroke="rgb(169, 32, 33)" stroke-opacity="0.7" stroke-width="0.5" fill="none"></path><path class="Europe-__0026-Eurasia_0-border" stroke-linecap="round" d="M108.6 410.2L120.1 409.9L131.6 412.1L143 411.1L154.5 406L166 403.6L177.5 402.8L188.9 402.1L200.4 399.8L211.9 399.1L223.3 396L234.8 392.4L246.3 388.7L257.8 385.5L269.2 380.2L280.7 377.2L292.2 376.5L303.7 373.4L315.1 368.8L326.6 363.6L338.1 355.9L349.6 352.5L361 345.5L372.5 341.2L384 338.8L395.4 342.1L406.9 344.2L418.4 345.7L429.9 346.5L441.3 346L452.8 345.6L464.3 342.1L475.8 343.6L487.2 346.3L498.7 344.9L510.2 338.7L521.7 332.6L533.1 321.8L544.6 297.9L556.1 277.1L567.5 252.5L579 233.1L590.5 212.4L602 206.8L613.4 203.7L624.9 189.2L636.4 165.5L647.9 157.3L659.3 151.3L670.8 151.5L682.3 155.7L693.8 157.3" stroke="rgb(213, 178, 52)" stroke-opacity="0.7" stroke-width="0.5" fill="none"></path><path class="North-America_0-border" stroke-linecap="round" d="M108.6 373.9L120.1 372L131.6 374.8L143 372.4L154.5 367.3L166 365L177.5 366.2L188.9 364.3L200.4 359.2L211.9 359.4L223.3 356.3L234.8 349.7L246.3 344.3L257.8 342L269.2 333.1L280.7 328.4L292.2 326.3L303.7 324.8L315.1 318.3L326.6 309.2L338.1 300.5L349.6 297.9L361 288.5L372.5 281.4L384 278.3L395.4 281.5L406.9 284.3L418.4 285.3L429.9 284.4L441.3 283.3L452.8 282.2L464.3 275.8L475.8 275.9L487.2 277.7L498.7 276.5L510.2 267.2L521.7 262.9L533.1 251.5L544.6 226.7L556.1 205.8L567.5 179.8L579 161.5L590.5 139.9L602 135.6L613.4 141.2L624.9 122.8L636.4 102.8L647.9 101.6L659.3 93.7L670.8 94.2L682.3 105.6L693.8 111.7" stroke="rgb(44, 127, 53)" stroke-opacity="0.7" stroke-width="0.5" fill="none"></path><path class="Africa_0-border" stroke-linecap="round" d="M108.6 370.5L120.1 368.6L131.6 371.3L143 368.8L154.5 363.6L166 361.3L177.5 362.3L188.9 360.3L200.4 355L211.9 355L223.3 351.6L234.8 344.8L246.3 339.3L257.8 337.2L269.2 327.9L280.7 322.9L292.2 319.8L303.7 317.7L315.1 311.1L326.6 301.5L338.1 292.5L349.6 289.7L361 280.1L372.5 272.4L384 269.8L395.4 272.6L406.9 275.7L418.4 276.6L429.9 275.5L441.3 274.2L452.8 272.9L464.3 266.3L475.8 266.2L487.2 268.2L498.7 266.7L510.2 257.4L521.7 253L533.1 242L544.6 216.4L556.1 194.4L567.5 169.3L579 150.9L590.5 129.1L602 123.6L613.4 129.2L624.9 111L636.4 91.2L647.9 90.3L659.3 82.2L670.8 82.1L682.3 94.4L693.8 100.3" stroke="rgb(43, 80, 141)" stroke-opacity="0.7" stroke-width="0.5" fill="none"></path><path class="South-__0026-Central-America_0-border" stroke-linecap="round" d="M108.6 369.8L120.1 367.9L131.6 370.6L143 368.1L154.5 362.9L166 360.5L177.5 361.5L188.9 359.5L200.4 354.2L211.9 354.1L223.3 350.7L234.8 343.9L246.3 338.3L257.8 336L269.2 326.8L280.7 321.7L292.2 318.6L303.7 316.4L315.1 309.7L326.6 299.9L338.1 290.6L349.6 287.9L361 278L372.5 270.3L384 267.6L395.4 270.7L406.9 273.7L418.4 274.6L429.9 273.4L441.3 272L452.8 270.6L464.3 264L475.8 263.6L487.2 265.7L498.7 264.3L510.2 255L521.7 250.6L533.1 239.7L544.6 213.9L556.1 191.8L567.5 166.8L579 148L590.5 126L602 120.3L613.4 126.5L624.9 107.7L636.4 87.6L647.9 86.6L659.3 78.2L670.8 77.9L682.3 90.2L693.8 96.3" stroke="rgb(79, 153, 105)" stroke-opacity="0.7" stroke-width="0.5" fill="none"></path><path class="Middle-East_0-border" stroke-linecap="round" d="M108.6 369.8L120.1 367.9L131.6 370.5L143 368L154.5 362.8L166 360.4L177.5 361.5L188.9 359.5L200.4 354.2L211.9 354.1L223.3 350.6L234.8 343.8L246.3 338.1L257.8 335.9L269.2 326.6L280.7 321.5L292.2 318.5L303.7 316.2L315.1 309.4L326.6 299.6L338.1 290.3L349.6 287.5L361 277.7L372.5 270L384 267.3L395.4 270.4L406.9 273.3L418.4 274.1L429.9 272.8L441.3 271.4L452.8 270L464.3 263.3L475.8 262.8L487.2 264.9L498.7 263.4L510.2 254.1L521.7 249.6L533.1 238.6L544.6 212.8L556.1 190.6L567.5 165.7L579 146.8L590.5 124.9L602 119.2L613.4 125.3L624.9 106.5L636.4 86.3L647.9 85.1L659.3 76.9L670.8 76.6L682.3 89L693.8 95.2" stroke="rgb(183, 30, 58)" stroke-opacity="0.7" stroke-width="0.5" fill="none"></path></g></g></g><g class="SourcesFooter" style="fill:#777"><g class="clickable" style="fill:#777"><text font-size="12.60" x="15.0" y="581.6"><tspan x="15" y="581.58">Source: BP Statistical Review of Global Energy</tspan></text></g><text font-size="12.60" x="582.4" y="581.6"><tspan x="582.37" y="581.58"><a target='_blank' style='fill: #777;' href='https://ourworldindata.org/fossil-fuels/'>OurWorldInData.org/fossil-fuels/</a> • <a style="fill: #777;" class="cclogo" href="http://creativecommons.org/licenses/by-sa/4.0/deed.en_US" target="_blank">CC BY-SA</a></tspan></text></g></g></svg>