<svg xmlns="http://www.w3.org/2000/svg" version="1.1" style="font-family:&#x27;Helvetica Neue&#x27;, Helvetica, Arial, sans-serif;font-size:18px;background-color:white;text-rendering:optimizeLegibility;-webkit-font-smoothing:antialiased" width="850" height="600"><g class="ChartTab"><g class="HeaderView"><g opacity="0.8" transform="translate(778, 15) scale(0.27)"><a xmlns:xlink="http://www.w3.org/1999/xlink" xlink:href="https://ourworldindata.org" target="_blank"><g><rect x="0" y="0" fill="#1B2543" width="211.2" height="130.1"/><rect x="0" y="112.2" fill="#E63912" width="211.2" height="17.9"/><g><rect x="1.2" y="12.3" fill="none" width="210.2" height="99.2"/><path fill="#FFFFFF" d="M37.8,32.2c0,12.7-7.7,19.4-17.1,19.4c-9.7,0-16.6-7.5-16.6-18.7c0-11.7,7.3-19.3,17.1-19.3 C31.3,13.7,37.8,21.3,37.8,32.2z M9.2,32.8c0,7.9,4.3,14.9,11.8,14.9c7.5,0,11.8-6.9,11.8-15.3c0-7.3-3.8-14.9-11.8-14.9 C13.1,17.5,9.2,24.8,9.2,32.8z"/><path fill="#FFFFFF" d="M62.7,43.8c0,2.7,0.1,5.1,0.2,7.2h-4.3l-0.3-4.3h-0.1c-1.3,2.1-4,4.9-8.8,4.9c-4.2,0-9.1-2.3-9.1-11.6 V24.6h4.8v14.6c0,5,1.5,8.4,5.9,8.4c3.2,0,5.5-2.2,6.3-4.4c0.3-0.7,0.4-1.6,0.4-2.5V24.6h4.8V43.8z"/><path fill="#FFFFFF" d="M67.3,32.8c0-3.1-0.1-5.8-0.2-8.2h4.2l0.2,5.2h0.2c1.2-3.5,4.1-5.8,7.3-5.8c0.5,0,0.9,0.1,1.4,0.2v4.5 c-0.5-0.1-1-0.2-1.6-0.2c-3.4,0-5.8,2.6-6.5,6.2c-0.1,0.7-0.2,1.4-0.2,2.2V51h-4.8V32.8z"/><path fill="#FFFFFF" d="M95.4,51l-9.4-36.8h5l4.4,18.6c1.1,4.6,2.1,9.2,2.7,12.7h0.1c0.6-3.7,1.8-8,3-12.8l4.9-18.5h5l4.5,18.7 c1,4.4,2,8.7,2.6,12.6h0.1c0.8-4,1.8-8.1,3-12.7l4.9-18.5h4.9L120.6,51h-5L111,31.9c-1.1-4.7-1.9-8.3-2.4-12h-0.1 c-0.7,3.7-1.5,7.3-2.8,12L100.4,51H95.4z"/><path fill="#FFFFFF" d="M154.9,37.6c0,9.8-6.8,14-13.2,14c-7.2,0-12.7-5.2-12.7-13.6c0-8.8,5.8-14,13.1-14 C149.8,24,154.9,29.5,154.9,37.6z M133.9,37.9c0,5.8,3.3,10.1,8,10.1c4.6,0,8-4.3,8-10.3c0-4.5-2.2-10.1-7.9-10.1 C136.3,27.6,133.9,32.8,133.9,37.9z"/><path fill="#FFFFFF" d="M158.2,32.8c0-3.1-0.1-5.8-0.2-8.2h4.2l0.2,5.2h0.2c1.2-3.5,4.1-5.8,7.3-5.8c0.5,0,0.9,0.1,1.4,0.2v4.5 c-0.5-0.1-1-0.2-1.6-0.2c-3.4,0-5.8,2.6-6.5,6.2c-0.1,0.7-0.2,1.4-0.2,2.2V51h-4.8V32.8z"/><path fill="#FFFFFF" d="M173.5,12.3h4.8V51h-4.8V12.3z"/><path fill="#FFFFFF" d="M206.5,12.3v31.9c0,2.3,0.1,5,0.2,6.8h-4.3l-0.2-4.6H202c-1.5,2.9-4.7,5.2-9,5.2 c-6.4,0-11.3-5.4-11.3-13.4c-0.1-8.8,5.4-14.2,11.9-14.2c4,0,6.8,1.9,8,4h0.1V12.3H206.5z M201.7,35.4c0-0.6-0.1-1.4-0.2-2 c-0.7-3.1-3.3-5.6-6.9-5.6c-5,0-7.9,4.4-7.9,10.2c0,5.3,2.6,9.8,7.8,9.8c3.2,0,6.2-2.1,7.1-5.7c0.2-0.7,0.2-1.3,0.2-2.1V35.4z"/><path fill="#FFFFFF" d="M42.8,64c0.1,1.6-1.1,2.9-3.1,2.9c-1.7,0-2.9-1.3-2.9-2.9c0-1.7,1.3-3,3-3C41.7,61,42.8,62.3,42.8,64z M37.4,97.8V71.4h4.8v26.4H37.4z"/><path fill="#FFFFFF" d="M47.5,78.6c0-2.7-0.1-5-0.2-7.1h4.3l0.3,4.4h0.1c1.3-2.5,4.4-5,8.8-5c3.7,0,9.4,2.2,9.4,11.2v15.8h-4.8 V82.6c0-4.3-1.6-7.8-6.1-7.8c-3.2,0-5.6,2.2-6.5,4.9c-0.2,0.6-0.3,1.4-0.3,2.2v15.9h-4.8V78.6z"/><path fill="#FFFFFF" d="M84,61.6c2.9-0.4,6.3-0.8,10.1-0.8c6.8,0,11.7,1.6,14.9,4.6c3.3,3,5.2,7.3,5.2,13.2c0,6-1.9,10.9-5.3,14.3 c-3.4,3.4-9.1,5.3-16.3,5.3c-3.4,0-6.2-0.2-8.6-0.4V61.6z M88.8,94.1c1.2,0.2,3,0.3,4.8,0.3c10.2,0,15.7-5.7,15.7-15.6 c0.1-8.7-4.9-14.2-14.9-14.2c-2.5,0-4.3,0.2-5.6,0.5V94.1z"/><path fill="#FFFFFF" d="M132.1,97.8l-0.4-3.3h-0.2c-1.5,2.1-4.3,3.9-8.1,3.9c-5.4,0-8.1-3.8-8.1-7.6c0-6.4,5.7-9.9,15.9-9.8v-0.5 c0-2.2-0.6-6.1-6-6.1c-2.5,0-5,0.8-6.9,2l-1.1-3.2c2.2-1.4,5.4-2.3,8.7-2.3c8.1,0,10.1,5.5,10.1,10.8v9.9c0,2.3,0.1,4.5,0.4,6.3 H132.1z M131.4,84.4c-5.3-0.1-11.2,0.8-11.2,5.9c0,3.1,2.1,4.6,4.5,4.6c3.4,0,5.6-2.2,6.4-4.4c0.2-0.5,0.3-1,0.3-1.5V84.4z"/><path fill="#FFFFFF" d="M146.6,63.9v7.6h6.9v3.7h-6.9v14.2c0,3.3,0.9,5.1,3.6,5.1c1.3,0,2.2-0.2,2.8-0.3l0.2,3.6 c-0.9,0.4-2.4,0.7-4.3,0.7c-2.2,0-4-0.7-5.2-2c-1.4-1.4-1.9-3.8-1.9-6.9V75.1h-4.1v-3.7h4.1v-6.3L146.6,63.9z"/><path fill="#FFFFFF" d="M171.4,97.8l-0.4-3.3h-0.2c-1.5,2.1-4.3,3.9-8.1,3.9c-5.4,0-8.1-3.8-8.1-7.6c0-6.4,5.7-9.9,15.9-9.8v-0.5 c0-2.2-0.6-6.1-6-6.1c-2.5,0-5,0.8-6.9,2l-1.1-3.2c2.2-1.4,5.4-2.3,8.7-2.3c8.1,0,10.1,5.5,10.1,10.8v9.9c0,2.3,0.1,4.5,0.4,6.3 H171.4z M170.7,84.4c-5.3-0.1-11.2,0.8-11.2,5.9c0,3.1,2.1,4.6,4.5,4.6c3.4,0,5.6-2.2,6.4-4.4c0.2-0.5,0.3-1,0.3-1.5V84.4z"/></g></g></a></g><a href="https://ourworldindata.org/grapher/comparison-of-world-population-projections" target="_blank"><text font-size="25.20" x="15.0" y="35.2" fill="#555"><tspan x="15" y="35.160000000000004">Comparison of world population projections</tspan></text></a><text font-size="14.40" x="15.0" y="53.7" fill="#666"><tspan x="15" y="53.72">Projections from 2015 onwards depict different fertility variants</tspan></text></g><g class="LineChart"><defs><clipPath id="boundsClip-28"><rect x="74.152" y="0" width="830" height="959.8"></rect></clipPath></defs><g class="AxisBoxView"><g class="HorizontalAxis"><text x="84.2" y="556.5" fill="#666" text-anchor="middle" font-size="16.2">1750</text><text x="168.6" y="556.5" fill="#666" text-anchor="middle" font-size="16.2">1800</text><text x="253" y="556.5" fill="#666" text-anchor="middle" font-size="16.2">1850</text><text x="337.5" y="556.5" fill="#666" text-anchor="middle" font-size="16.2">1900</text><text x="421.9" y="556.5" fill="#666" text-anchor="middle" font-size="16.2">1950</text><text x="506.4" y="556.5" fill="#666" text-anchor="middle" font-size="16.2">2000</text><text x="590.8" y="556.5" fill="#666" text-anchor="middle" font-size="16.2">2050</text><text x="675.3" y="556.5" fill="#666" text-anchor="middle" font-size="16.2">2100</text></g><g class="VerticalAxis"><text x="79.15" y="535.3" fill="#666" dominant-baseline="middle" text-anchor="end" font-size="16.2">0</text><text x="79.15" y="448.2" fill="#666" dominant-baseline="middle" text-anchor="end" font-size="16.2">5 billion</text><text x="79.15" y="361.1" fill="#666" dominant-baseline="middle" text-anchor="end" font-size="16.2">10 billion</text><text x="79.15" y="274" fill="#666" dominant-baseline="middle" text-anchor="end" font-size="16.2">15 billion</text><text x="79.15" y="186.9" fill="#666" dominant-baseline="middle" text-anchor="end" font-size="16.2">20 billion</text><text x="79.15" y="99.8" fill="#666" dominant-baseline="middle" text-anchor="end" font-size="16.2">25 billion</text></g><g class="AxisGridLines"><line x1="84.15" y1="535.3" x2="675.26" y2="535.3" stroke="#ccc"></line><line x1="84.15" y1="448.2" x2="675.26" y2="448.2" stroke="#ddd" stroke-dasharray="3,2"></line><line x1="84.15" y1="361.1" x2="675.26" y2="361.1" stroke="#ddd" stroke-dasharray="3,2"></line><line x1="84.15" y1="274" x2="675.26" y2="274" stroke="#ddd" stroke-dasharray="3,2"></line><line x1="84.15" y1="186.9" x2="675.26" y2="186.9" stroke="#ddd" stroke-dasharray="3,2"></line><line x1="84.15" y1="99.8" x2="675.26" y2="99.8" stroke="#ddd" stroke-dasharray="3,2"></line></g></g><g clip-path="url(#boundsClip-28)"><g class="HeightedLegend clickable"><g class="legendMark"><rect x="675.26" y="69.85" width="159.74" height="13.5" fill="#fff" opacity="0"></rect><text font-size="13.50" x="680.3" y="80.6" fill="#2a939b"><tspan x="680.26" y="80.64999999999999">UN Constant Fertility</tspan></text></g><g class="legendMark"><rect x="675.26" y="240.75" width="132.74" height="13.5" fill="#fff" opacity="0"></rect><text font-size="13.50" x="680.3" y="251.6" fill="#a652ba"><tspan x="680.26" y="251.55">UN High Variant</tspan></text></g><g class="legendMark"><rect x="675.26" y="333.75" width="152.99" height="13.5" fill="#fff" opacity="0"></rect><text font-size="13.50" x="680.3" y="344.6" fill="#f6a324"><tspan x="680.26" y="344.55">UN Medium Variant</tspan></text></g><g class="legendMark"><rect x="675.26" y="401.85" width="129.77" height="13.5" fill="#fff" opacity="0"></rect><text font-size="13.50" x="680.3" y="412.7" fill="#ca2628"><tspan x="680.26" y="412.65000000000003">UN Low Variant</tspan></text></g></g><g class="Lines"><rect x="84" y="77" width="591" height="459" fill="rgba(255,255,255,0)" opacity="0"></rect><g class="key-World_0"><path stroke="#2a939b" stroke-linecap="round" d="M532 407L533 405L535 404L537 402L539 401L540 399L542 397L544 396L545 394L547 393L549 391L550 389L552 388L554 386L555 385L557 383L559 381L560 380L562 378L564 376L566 374L567 373L569 371L571 369L572 367L574 365L576 364L577 362L579 360L581 358L582 356L584 353L586 351L587 349L589 347L591 345L593 342L594 340L596 338L598 335L599 333L601 330L603 327L604 325L606 322L608 319L609 316L611 313L613 309L615 306L616 303L618 299L620 296L621 292L623 288L625 284L626 280L628 276L630 272L631 267L633 262L635 258L636 253L638 248L640 242L642 237L643 231L645 225L647 219L648 213L650 206L652 200L653 193L655 185L657 178L658 170L660 162L662 154L663 145L665 137L667 127L669 118L670 108L672 98L674 88L675 77" fill="none" stroke-width="1.5" stroke-dasharray="1,4"></path></g><g class="key-World_1"><path stroke="#ca2628" stroke-linecap="round" d="M532 407L533 405L535 404L537 403L539 402L540 401L542 400L544 399L545 398L547 397L549 396L550 395L552 394L554 394L555 393L557 392L559 391L560 391L562 390L564 389L566 389L567 388L569 387L571 387L572 386L574 386L576 385L577 385L579 385L581 384L582 384L584 384L586 383L587 383L589 383L591 383L593 383L594 383L596 383L598 383L599 383L601 383L603 383L604 383L606 383L608 383L609 384L611 384L613 384L615 384L616 385L618 385L620 386L621 386L623 386L625 387L626 387L628 388L630 388L631 389L633 389L635 390L636 390L638 391L640 392L642 392L643 393L645 394L647 394L648 395L650 396L652 397L653 397L655 398L657 399L658 400L660 401L662 402L663 402L665 403L667 404L669 405L670 406L672 407L674 408L675 409" fill="none" stroke-width="1.5" stroke-dasharray="1,4"></path></g><g class="key-World_2"><path stroke="#a652ba" stroke-linecap="round" d="M532 407L533 405L535 403L537 402L539 400L540 398L542 397L544 395L545 393L547 391L549 390L550 388L552 386L554 384L555 382L557 381L559 379L560 377L562 376L564 374L566 372L567 371L569 369L571 367L572 365L574 364L576 362L577 360L579 359L581 357L582 355L584 353L586 352L587 350L589 348L591 346L593 345L594 343L596 341L598 339L599 337L601 335L603 334L604 332L606 330L608 328L609 326L611 324L613 323L615 321L616 319L618 317L620 315L621 313L623 311L625 309L626 308L628 306L630 304L631 302L633 300L635 298L636 296L638 294L640 292L642 290L643 288L645 286L647 284L648 282L650 280L652 278L653 275L655 273L657 271L658 269L660 267L662 265L663 263L665 260L667 258L669 256L670 254L672 252L674 250L675 248" fill="none" stroke-width="1.5" stroke-dasharray="1,4"></path></g><g class="key-World_3"><path stroke="#f6a324" stroke-linecap="round" d="M532 407L533 405L535 404L537 402L539 401L540 400L542 398L544 397L545 395L547 394L549 393L550 391L552 390L554 389L555 388L557 386L559 385L560 384L562 383L564 382L566 380L567 379L569 378L571 377L572 376L574 375L576 374L577 373L579 372L581 371L582 370L584 369L586 368L587 367L589 366L591 365L593 364L594 363L596 363L598 362L599 361L601 360L603 359L604 359L606 358L608 357L609 357L611 356L613 355L615 355L616 354L618 353L620 353L621 352L623 352L625 351L626 351L628 350L630 350L631 349L633 349L635 348L636 348L638 347L640 347L642 346L643 346L645 346L647 345L648 345L650 344L652 344L653 344L655 343L657 343L658 343L660 343L662 342L663 342L665 342L667 342L669 341L670 341L672 341L674 341L675 341" fill="none" stroke-width="1.5" stroke-dasharray="1,4"></path></g><g class="key-World_4"><path stroke="#34983f" stroke-linecap="round" d="M422 491L424 490L425 490L427 489L429 488L430 487L432 486L434 485L435 484L437 483L439 483L441 482L442 480L444 479L446 478L447 477L449 476L451 475L452 473L454 472L456 471L457 470L459 468L461 467L463 466L464 464L466 463L468 462L469 460L471 459L473 458L474 456L476 455L478 453L479 452L481 450L483 449L484 447L486 446L488 444L490 442L491 441L493 439L495 438L496 437L498 435L500 434L501 432L503 431L505 430L506 428L508 427L510 426L511 424L513 423L515 421L517 420L518 419L520 417L522 416L523 414L525 413L527 411L528 410L530 408L532 407" fill="none" stroke-width="1.5"></path><g fill="#34983f"><circle cx="422" cy="491" r="2"></circle><circle cx="424" cy="490" r="2"></circle><circle cx="425" cy="490" r="2"></circle><circle cx="427" cy="489" r="2"></circle><circle cx="429" cy="488" r="2"></circle><circle cx="430" cy="487" r="2"></circle><circle cx="432" cy="486" r="2"></circle><circle cx="434" cy="485" r="2"></circle><circle cx="435" cy="484" r="2"></circle><circle cx="437" cy="483" r="2"></circle><circle cx="439" cy="483" r="2"></circle><circle cx="441" cy="482" r="2"></circle><circle cx="442" cy="480" r="2"></circle><circle cx="444" cy="479" r="2"></circle><circle cx="446" cy="478" r="2"></circle><circle cx="447" cy="477" r="2"></circle><circle cx="449" cy="476" r="2"></circle><circle cx="451" cy="475" r="2"></circle><circle cx="452" cy="473" r="2"></circle><circle cx="454" cy="472" r="2"></circle><circle cx="456" cy="471" r="2"></circle><circle cx="457" cy="470" r="2"></circle><circle cx="459" cy="468" r="2"></circle><circle cx="461" cy="467" r="2"></circle><circle cx="463" cy="466" r="2"></circle><circle cx="464" cy="464" r="2"></circle><circle cx="466" cy="463" r="2"></circle><circle cx="468" cy="462" r="2"></circle><circle cx="469" cy="460" r="2"></circle><circle cx="471" cy="459" r="2"></circle><circle cx="473" cy="458" r="2"></circle><circle cx="474" cy="456" r="2"></circle><circle cx="476" cy="455" r="2"></circle><circle cx="478" cy="453" r="2"></circle><circle cx="479" cy="452" r="2"></circle><circle cx="481" cy="450" r="2"></circle><circle cx="483" cy="449" r="2"></circle><circle cx="484" cy="447" r="2"></circle><circle cx="486" cy="446" r="2"></circle><circle cx="488" cy="444" r="2"></circle><circle cx="490" cy="442" r="2"></circle><circle cx="491" cy="441" r="2"></circle><circle cx="493" cy="439" r="2"></circle><circle cx="495" cy="438" r="2"></circle><circle cx="496" cy="437" r="2"></circle><circle cx="498" cy="435" r="2"></circle><circle cx="500" cy="434" r="2"></circle><circle cx="501" cy="432" r="2"></circle><circle cx="503" cy="431" r="2"></circle><circle cx="505" cy="430" r="2"></circle><circle cx="506" cy="428" r="2"></circle><circle cx="508" cy="427" r="2"></circle><circle cx="510" cy="426" r="2"></circle><circle cx="511" cy="424" r="2"></circle><circle cx="513" cy="423" r="2"></circle><circle cx="515" cy="421" r="2"></circle><circle cx="517" cy="420" r="2"></circle><circle cx="518" cy="419" r="2"></circle><circle cx="520" cy="417" r="2"></circle><circle cx="522" cy="416" r="2"></circle><circle cx="523" cy="414" r="2"></circle><circle cx="525" cy="413" r="2"></circle><circle cx="527" cy="411" r="2"></circle><circle cx="528" cy="410" r="2"></circle><circle cx="530" cy="408" r="2"></circle><circle cx="532" cy="407" r="2"></circle></g></g><g class="key-World_5"><path stroke="#3360a9" stroke-linecap="round" d="M84 523L101 522L118 521L135 520L152 519L169 519L186 517L202 517L219 515L236 514L253 513L270 512L287 512L304 511L321 509L338 507L354 504L371 502L388 499L405 495L422 491" fill="none" stroke-width="1.5"></path><g fill="#3360a9"><circle cx="84" cy="523" r="2"></circle><circle cx="101" cy="522" r="2"></circle><circle cx="118" cy="521" r="2"></circle><circle cx="135" cy="520" r="2"></circle><circle cx="152" cy="519" r="2"></circle><circle cx="169" cy="519" r="2"></circle><circle cx="186" cy="517" r="2"></circle><circle cx="202" cy="517" r="2"></circle><circle cx="219" cy="515" r="2"></circle><circle cx="236" cy="514" r="2"></circle><circle cx="253" cy="513" r="2"></circle><circle cx="270" cy="512" r="2"></circle><circle cx="287" cy="512" r="2"></circle><circle cx="304" cy="511" r="2"></circle><circle cx="321" cy="509" r="2"></circle><circle cx="338" cy="507" r="2"></circle><circle cx="354" cy="504" r="2"></circle><circle cx="371" cy="502" r="2"></circle><circle cx="388" cy="499" r="2"></circle><circle cx="405" cy="495" r="2"></circle><circle cx="422" cy="491" r="2"></circle></g></g></g></g></g><g class="SourcesFooter" style="fill:#777"><g class="clickable" style="fill:#777"><text font-size="12.60" x="15.0" y="581.6"><tspan x="15" y="581.58">Source: UN Population Division (2017 revision), HYDE</tspan></text></g><text font-size="12.60" x="507.1" y="581.6"><tspan x="507.148" y="581.58"><a target='_blank' style='fill: #777;' href='https://ourworldindata.org/world-population-growth/'>OurWorldInData.org/world-population-growth/</a> • <a style="fill: #777;" class="cclogo" href="http://creativecommons.org/licenses/by-sa/4.0/deed.en_US" target="_blank">CC BY-SA</a></tspan></text></g></g></svg>