<svg xmlns="http://www.w3.org/2000/svg" version="1.1" style="font-family:&#x27;Helvetica Neue&#x27;, Helvetica, Arial, sans-serif;font-size:18px;background-color:white;text-rendering:optimizeLegibility;-webkit-font-smoothing:antialiased" width="850" height="600"><g class="ChartTab"><g class="HeaderView"><g opacity="0.8" transform="translate(778, 15) scale(0.27)"><a xmlns:xlink="http://www.w3.org/1999/xlink" xlink:href="https://ourworldindata.org" target="_blank"><g><rect x="0" y="0" fill="#1B2543" width="211.2" height="130.1"/><rect x="0" y="112.2" fill="#E63912" width="211.2" height="17.9"/><g><rect x="1.2" y="12.3" fill="none" width="210.2" height="99.2"/><path fill="#FFFFFF" d="M37.8,32.2c0,12.7-7.7,19.4-17.1,19.4c-9.7,0-16.6-7.5-16.6-18.7c0-11.7,7.3-19.3,17.1-19.3 C31.3,13.7,37.8,21.3,37.8,32.2z M9.2,32.8c0,7.9,4.3,14.9,11.8,14.9c7.5,0,11.8-6.9,11.8-15.3c0-7.3-3.8-14.9-11.8-14.9 C13.1,17.5,9.2,24.8,9.2,32.8z"/><path fill="#FFFFFF" d="M62.7,43.8c0,2.7,0.1,5.1,0.2,7.2h-4.3l-0.3-4.3h-0.1c-1.3,2.1-4,4.9-8.8,4.9c-4.2,0-9.1-2.3-9.1-11.6 V24.6h4.8v14.6c0,5,1.5,8.4,5.9,8.4c3.2,0,5.5-2.2,6.3-4.4c0.3-0.7,0.4-1.6,0.4-2.5V24.6h4.8V43.8z"/><path fill="#FFFFFF" d="M67.3,32.8c0-3.1-0.1-5.8-0.2-8.2h4.2l0.2,5.2h0.2c1.2-3.5,4.1-5.8,7.3-5.8c0.5,0,0.9,0.1,1.4,0.2v4.5 c-0.5-0.1-1-0.2-1.6-0.2c-3.4,0-5.8,2.6-6.5,6.2c-0.1,0.7-0.2,1.4-0.2,2.2V51h-4.8V32.8z"/><path fill="#FFFFFF" d="M95.4,51l-9.4-36.8h5l4.4,18.6c1.1,4.6,2.1,9.2,2.7,12.7h0.1c0.6-3.7,1.8-8,3-12.8l4.9-18.5h5l4.5,18.7 c1,4.4,2,8.7,2.6,12.6h0.1c0.8-4,1.8-8.1,3-12.7l4.9-18.5h4.9L120.6,51h-5L111,31.9c-1.1-4.7-1.9-8.3-2.4-12h-0.1 c-0.7,3.7-1.5,7.3-2.8,12L100.4,51H95.4z"/><path fill="#FFFFFF" d="M154.9,37.6c0,9.8-6.8,14-13.2,14c-7.2,0-12.7-5.2-12.7-13.6c0-8.8,5.8-14,13.1-14 C149.8,24,154.9,29.5,154.9,37.6z M133.9,37.9c0,5.8,3.3,10.1,8,10.1c4.6,0,8-4.3,8-10.3c0-4.5-2.2-10.1-7.9-10.1 C136.3,27.6,133.9,32.8,133.9,37.9z"/><path fill="#FFFFFF" d="M158.2,32.8c0-3.1-0.1-5.8-0.2-8.2h4.2l0.2,5.2h0.2c1.2-3.5,4.1-5.8,7.3-5.8c0.5,0,0.9,0.1,1.4,0.2v4.5 c-0.5-0.1-1-0.2-1.6-0.2c-3.4,0-5.8,2.6-6.5,6.2c-0.1,0.7-0.2,1.4-0.2,2.2V51h-4.8V32.8z"/><path fill="#FFFFFF" d="M173.5,12.3h4.8V51h-4.8V12.3z"/><path fill="#FFFFFF" d="M206.5,12.3v31.9c0,2.3,0.1,5,0.2,6.8h-4.3l-0.2-4.6H202c-1.5,2.9-4.7,5.2-9,5.2 c-6.4,0-11.3-5.4-11.3-13.4c-0.1-8.8,5.4-14.2,11.9-14.2c4,0,6.8,1.9,8,4h0.1V12.3H206.5z M201.7,35.4c0-0.6-0.1-1.4-0.2-2 c-0.7-3.1-3.3-5.6-6.9-5.6c-5,0-7.9,4.4-7.9,10.2c0,5.3,2.6,9.8,7.8,9.8c3.2,0,6.2-2.1,7.1-5.7c0.2-0.7,0.2-1.3,0.2-2.1V35.4z"/><path fill="#FFFFFF" d="M42.8,64c0.1,1.6-1.1,2.9-3.1,2.9c-1.7,0-2.9-1.3-2.9-2.9c0-1.7,1.3-3,3-3C41.7,61,42.8,62.3,42.8,64z M37.4,97.8V71.4h4.8v26.4H37.4z"/><path fill="#FFFFFF" d="M47.5,78.6c0-2.7-0.1-5-0.2-7.1h4.3l0.3,4.4h0.1c1.3-2.5,4.4-5,8.8-5c3.7,0,9.4,2.2,9.4,11.2v15.8h-4.8 V82.6c0-4.3-1.6-7.8-6.1-7.8c-3.2,0-5.6,2.2-6.5,4.9c-0.2,0.6-0.3,1.4-0.3,2.2v15.9h-4.8V78.6z"/><path fill="#FFFFFF" d="M84,61.6c2.9-0.4,6.3-0.8,10.1-0.8c6.8,0,11.7,1.6,14.9,4.6c3.3,3,5.2,7.3,5.2,13.2c0,6-1.9,10.9-5.3,14.3 c-3.4,3.4-9.1,5.3-16.3,5.3c-3.4,0-6.2-0.2-8.6-0.4V61.6z M88.8,94.1c1.2,0.2,3,0.3,4.8,0.3c10.2,0,15.7-5.7,15.7-15.6 c0.1-8.7-4.9-14.2-14.9-14.2c-2.5,0-4.3,0.2-5.6,0.5V94.1z"/><path fill="#FFFFFF" d="M132.1,97.8l-0.4-3.3h-0.2c-1.5,2.1-4.3,3.9-8.1,3.9c-5.4,0-8.1-3.8-8.1-7.6c0-6.4,5.7-9.9,15.9-9.8v-0.5 c0-2.2-0.6-6.1-6-6.1c-2.5,0-5,0.8-6.9,2l-1.1-3.2c2.2-1.4,5.4-2.3,8.7-2.3c8.1,0,10.1,5.5,10.1,10.8v9.9c0,2.3,0.1,4.5,0.4,6.3 H132.1z M131.4,84.4c-5.3-0.1-11.2,0.8-11.2,5.9c0,3.1,2.1,4.6,4.5,4.6c3.4,0,5.6-2.2,6.4-4.4c0.2-0.5,0.3-1,0.3-1.5V84.4z"/><path fill="#FFFFFF" d="M146.6,63.9v7.6h6.9v3.7h-6.9v14.2c0,3.3,0.9,5.1,3.6,5.1c1.3,0,2.2-0.2,2.8-0.3l0.2,3.6 c-0.9,0.4-2.4,0.7-4.3,0.7c-2.2,0-4-0.7-5.2-2c-1.4-1.4-1.9-3.8-1.9-6.9V75.1h-4.1v-3.7h4.1v-6.3L146.6,63.9z"/><path fill="#FFFFFF" d="M171.4,97.8l-0.4-3.3h-0.2c-1.5,2.1-4.3,3.9-8.1,3.9c-5.4,0-8.1-3.8-8.1-7.6c0-6.4,5.7-9.9,15.9-9.8v-0.5 c0-2.2-0.6-6.1-6-6.1c-2.5,0-5,0.8-6.9,2l-1.1-3.2c2.2-1.4,5.4-2.3,8.7-2.3c8.1,0,10.1,5.5,10.1,10.8v9.9c0,2.3,0.1,4.5,0.4,6.3 H171.4z M170.7,84.4c-5.3-0.1-11.2,0.8-11.2,5.9c0,3.1,2.1,4.6,4.5,4.6c3.4,0,5.6-2.2,6.4-4.4c0.2-0.5,0.3-1,0.3-1.5V84.4z"/></g></g></a></g><a href="https://ourworldindata.org/grapher/consumption-co2-emissions-vs-population" target="_blank"><text font-size="21.60" x="15.0" y="32.3" fill="#555"><tspan x="15" y="32.279999999999994">Consumption-based CO₂ emissions (% global total) vs. population share,</tspan><tspan x="15" y="53.87999999999999">2015</tspan></text></a><text font-size="14.40" x="15.0" y="72.7" fill="#666"><tspan x="15" y="72.72">Each country&#x27;s carbon dioxide emissions (CO₂) emissions as a share of the global total versus its share of the world population.</tspan><tspan x="15" y="88.56">CO₂ emissions are consumption-based emissions which means they are adjusted for emissions embedded in trade (national</tspan><tspan x="15" y="104.4">emissions minus exported plus imported emissions). Countries which lie above the parity line have an emissions share higher</tspan><tspan x="15" y="120.24000000000001">than their share of the global population.</tspan></text></g><g><g class="AxisBoxView"><g class="HorizontalAxis"><text font-size="12.60" x="275.9" y="554.0"><tspan x="275.94" y="553.98">Share of global population</tspan></text><text x="227.2" y="533.9" fill="#666" text-anchor="middle" font-size="16.2">5%</text><text x="379.5" y="533.9" fill="#666" text-anchor="middle" font-size="16.2">10%</text><text x="531.8" y="533.9" fill="#666" text-anchor="middle" font-size="16.2">15%</text><text x="684" y="533.9" fill="#666" text-anchor="middle" font-size="16.2">20%</text></g><g class="VerticalAxis"><text font-size="12.60" x="-501.0" y="25.1" transform="rotate(-90)"><tspan x="-501.00399999999996" y="25.080000000000002">Consumption-based CO₂ emissions (% of global total)</tspan></text><text x="70.16" y="512.7" fill="#666" dominant-baseline="middle" text-anchor="end" font-size="16.2">0%</text><text x="70.16" y="438.6" fill="#666" dominant-baseline="middle" text-anchor="end" font-size="16.2">5%</text><text x="70.16" y="364.5" fill="#666" dominant-baseline="middle" text-anchor="end" font-size="16.2">10%</text><text x="70.16" y="290.3" fill="#666" dominant-baseline="middle" text-anchor="end" font-size="16.2">15%</text><text x="70.16" y="216.2" fill="#666" dominant-baseline="middle" text-anchor="end" font-size="16.2">20%</text><text x="70.16" y="142.1" fill="#666" dominant-baseline="middle" text-anchor="end" font-size="16.2">25%</text></g><g class="AxisGridLines"><line x1="75.16" y1="512.7" x2="684.05" y2="512.7" stroke="#ccc"></line><line x1="75.16" y1="438.6" x2="684.05" y2="438.6" stroke="#ddd" stroke-dasharray="3,2"></line><line x1="75.16" y1="364.5" x2="684.05" y2="364.5" stroke="#ddd" stroke-dasharray="3,2"></line><line x1="75.16" y1="290.3" x2="684.05" y2="290.3" stroke="#ddd" stroke-dasharray="3,2"></line><line x1="75.16" y1="216.2" x2="684.05" y2="216.2" stroke="#ddd" stroke-dasharray="3,2"></line><line x1="75.16" y1="142.1" x2="684.05" y2="142.1" stroke="#ddd" stroke-dasharray="3,2"></line></g><g class="AxisGridLines"><line x1="227.2" y1="512.70" x2="227.2" y2="142.10" stroke="#ddd" stroke-dasharray="3,2"></line><line x1="379.5" y1="512.70" x2="379.5" y2="142.10" stroke="#ddd" stroke-dasharray="3,2"></line><line x1="531.8" y1="512.70" x2="531.8" y2="142.10" stroke="#ddd" stroke-dasharray="3,2"></line><line x1="684" y1="512.70" x2="684" y2="142.10" stroke="#ddd" stroke-dasharray="3,2"></line></g></g><g class="ComparisonLine"><defs><clipPath id="axisBounds-717"><rect x="75.162" y="142.1" width="608.886" height="370.59999999999997"></rect></clipPath></defs><path d="M75.2,512.6L81.3,509.6L87.3,506.7L93.4,503.7L99.5,500.8L105.6,497.8L111.7,494.8L117.8,491.9L123.9,488.9L130,485.9L136.1,483L142.1,480L148.2,477L154.3,474.1L160.4,471.1L166.5,468.2L172.6,465.2L178.7,462.2L184.8,459.3L190.9,456.3L196.9,453.3L203,450.4L209.1,447.4L215.2,444.4L221.3,441.5L227.4,438.5L233.5,435.5L239.6,432.6L245.7,429.6L251.7,426.7L257.8,423.7L263.9,420.7L270,417.8L276.1,414.8L282.2,411.8L288.3,408.9L294.4,405.9L300.4,402.9L306.5,400L312.6,397L318.7,394.1L324.8,391.1L330.9,388.1L337,385.2L343.1,382.2L349.2,379.2L355.2,376.3L361.3,373.3L367.4,370.3L373.5,367.4L379.6,364.4L385.7,361.5L391.8,358.5L397.9,355.5L404,352.6L410,349.6L416.1,346.6L422.2,343.7L428.3,340.7L434.4,337.7L440.5,334.8L446.6,331.8L452.7,328.8L458.8,325.9L464.8,322.9L470.9,320L477,317L483.1,314L489.2,311.1L495.3,308.1L501.4,305.1L507.5,302.2L513.6,299.2L519.6,296.2L525.7,293.3L531.8,290.3L537.9,287.4L544,284.4L550.1,281.4L556.2,278.5L562.3,275.5L568.4,272.5L574.4,269.6L580.5,266.6L586.6,263.6L592.7,260.7L598.8,257.7L604.9,254.8L611,251.8L617.1,248.8L623.2,245.9L629.2,242.9L635.3,239.9L641.4,237L647.5,234L653.6,231L659.7,228.1L665.8,225.1L671.9,222.1L678,219.2" clip-path="url(#axisBounds-717)" fill="none" stroke="#ccc"></path></g><g class="PointsWithLabels clickable" clip-path="url(#scatterBounds-718)" font-family="Arial Narrow, Arial, sans-serif"><rect x="75.162" y="142.1" width="608.886" height="370.59999999999997" fill="rgba(255,255,255,0)"></rect><defs><clipPath id="scatterBounds-718"><rect x="65.162" y="132.1" width="628.886" height="390.59999999999997"></rect></clipPath></defs><g class="key-China_0"><circle cx="642.00" cy="154.00" r="17.84" fill="#4d824b" opacity="0.8" stroke="#333" stroke-width="0.7"></circle></g><g class="key-India_0"><circle cx="617.00" cy="420.00" r="17.44" fill="#ffd336" opacity="0.8" stroke="#333" stroke-width="0.7"></circle></g><g class="key-United-States_0"><circle cx="207.00" cy="261.00" r="8.77" fill="#5675c1" opacity="0.8" stroke="#333" stroke-width="0.7"></circle></g><g class="key-Indonesia_0"><circle cx="181.00" cy="492.00" r="7.90" fill="#ffd336" opacity="0.8" stroke="#333" stroke-width="0.7"></circle></g><g class="key-Brazil_0"><circle cx="160.00" cy="489.00" r="7.10" fill="#4d824b" opacity="0.8" stroke="#fff" stroke-width="0.7"></circle></g><g class="key-Pakistan_0"><circle cx="153.00" cy="504.00" r="6.83" fill="#ffd336" opacity="0.8" stroke="#333" stroke-width="0.7"></circle></g><g class="key-Nigeria_0"><circle cx="150.00" cy="508.00" r="6.69" fill="#ffd336" opacity="0.8" stroke="#fff" stroke-width="0.7"></circle></g><g class="key-Bangladesh_0"><circle cx="141.00" cy="508.00" r="6.34" fill="#ffd336" opacity="0.8" stroke="#fff" stroke-width="0.7"></circle></g><g class="key-Russia_0"><circle cx="134.00" cy="455.00" r="6.02" fill="#4d824b" opacity="0.8" stroke="#333" stroke-width="0.7"></circle></g><g class="key-Japan_0"><circle cx="127.00" cy="450.00" r="5.68" fill="#5675c1" opacity="0.8" stroke="#fff" stroke-width="0.7"></circle></g><g class="key-Mexico_0"><circle cx="127.00" cy="490.00" r="5.66" fill="#4d824b" opacity="0.8" stroke="#333" stroke-width="0.7"></circle></g><g class="key-Philippines_0"><circle cx="117.00" cy="506.00" r="5.14" fill="#ffd336" opacity="0.8" stroke="#fff" stroke-width="0.7"></circle></g><g class="key-Ethiopia_0"><circle cx="116.00" cy="511.00" r="5.10" fill="#d14e5b" opacity="0.8" stroke="#fff" stroke-width="0.7"></circle></g><g class="key-Egypt_0"><circle cx="113.00" cy="504.00" r="4.96" fill="#ffd336" opacity="0.8" stroke="#333" stroke-width="0.7"></circle></g><g class="key-Vietnam_0"><circle cx="113.00" cy="503.00" r="4.92" fill="#ffd336" opacity="0.8" stroke="#fff" stroke-width="0.7"></circle></g><g class="key-Germany_0"><circle cx="108.00" cy="474.00" r="4.68" fill="#5675c1" opacity="0.8" stroke="#333" stroke-width="0.7"></circle></g><g class="key-Iran_0"><circle cx="107.00" cy="490.00" r="4.62" fill="#4d824b" opacity="0.8" stroke="#333" stroke-width="0.7"></circle></g><g class="key-Turkey_0"><circle cx="107.00" cy="494.00" r="4.59" fill="#4d824b" opacity="0.8" stroke="#fff" stroke-width="0.7"></circle></g><g class="key-Thailand_0"><circle cx="103.00" cy="499.00" r="4.34" fill="#4d824b" opacity="0.8" stroke="#fff" stroke-width="0.7"></circle></g><g class="key-France_0"><circle cx="102.00" cy="493.00" r="4.29" fill="#5675c1" opacity="0.8" stroke="#fff" stroke-width="0.7"></circle></g><g class="key-United-Kingdom_0"><circle cx="101.00" cy="487.00" r="4.25" fill="#5675c1" opacity="0.8" stroke="#fff" stroke-width="0.7"></circle></g><g class="key-Italy_0"><circle cx="100.00" cy="492.00" r="4.13" fill="#5675c1" opacity="0.8" stroke="#fff" stroke-width="0.7"></circle></g><g class="key-South-Africa_0"><circle cx="97.00" cy="496.00" r="3.97" fill="#4d824b" opacity="0.8" stroke="#fff" stroke-width="0.7"></circle></g><g class="key-Tanzania_0"><circle cx="97.00" cy="511.00" r="3.93" fill="#d14e5b" opacity="0.8" stroke="#fff" stroke-width="0.7"></circle></g><g class="key-South-Korea_0"><circle cx="96.00" cy="484.00" r="3.85" fill="#5675c1" opacity="0.8" stroke="#fff" stroke-width="0.7"></circle></g><g class="key-Colombia_0"><circle cx="95.00" cy="508.00" r="3.76" fill="#4d824b" opacity="0.8" stroke="#fff" stroke-width="0.7"></circle></g><g class="key-Kenya_0"><circle cx="94.00" cy="511.00" r="3.73" fill="#ffd336" opacity="0.8" stroke="#fff" stroke-width="0.7"></circle></g><g class="key-Spain_0"><circle cx="94.00" cy="499.00" r="3.71" fill="#5675c1" opacity="0.8" stroke="#fff" stroke-width="0.7"></circle></g><g class="key-Ukraine_0"><circle cx="93.00" cy="502.00" r="3.67" fill="#ffd336" opacity="0.8" stroke="#fff" stroke-width="0.7"></circle></g><g class="key-Argentina_0"><circle cx="92.00" cy="503.00" r="3.61" fill="#4d824b" opacity="0.8" stroke="#fff" stroke-width="0.7"></circle></g><g class="key-Uganda_0"><circle cx="91.00" cy="512.00" r="3.51" fill="#d14e5b" opacity="0.8" stroke="#fff" stroke-width="0.7"></circle></g><g class="key-Poland_0"><circle cx="90.00" cy="499.00" r="3.44" fill="#5675c1" opacity="0.8" stroke="#fff" stroke-width="0.7"></circle></g><g class="key-Canada_0"><circle cx="89.00" cy="487.00" r="3.36" fill="#5675c1" opacity="0.8" stroke="#fff" stroke-width="0.7"></circle></g><g class="key-Morocco_0"><circle cx="89.00" cy="509.00" r="3.33" fill="#ffd336" opacity="0.8" stroke="#fff" stroke-width="0.7"></circle></g><g class="key-Saudi-Arabia_0"><circle cx="88.00" cy="485.00" r="3.21" fill="#5675c1" opacity="0.8" stroke="#fff" stroke-width="0.7"></circle></g><g class="key-Peru_0"><circle cx="88.00" cy="509.00" r="3.21" fill="#4d824b" opacity="0.8" stroke="#333" stroke-width="0.7"></circle></g><g class="key-Venezuela_0"><circle cx="87.00" cy="505.00" r="3.20" fill="#4d824b" opacity="0.8" stroke="#fff" stroke-width="0.7"></circle></g><g class="key-Malaysia_0"><circle cx="87.00" cy="502.00" r="3.19" fill="#4d824b" opacity="0.8" stroke="#fff" stroke-width="0.7"></circle></g><g class="key-Nepal_0"><circle cx="86.00" cy="512.00" r="3.11" fill="#d14e5b" opacity="0.8" stroke="#fff" stroke-width="0.7"></circle></g><g class="key-Mozambique_0"><circle cx="86.00" cy="512.00" r="3.09" fill="#d14e5b" opacity="0.8" stroke="#fff" stroke-width="0.7"></circle></g><g class="key-Ghana_0"><circle cx="86.00" cy="511.00" r="3.07" fill="#ffd336" opacity="0.8" stroke="#fff" stroke-width="0.7"></circle></g><g class="key-Madagascar_0"><circle cx="85.00" cy="512.00" r="2.94" fill="#d14e5b" opacity="0.8" stroke="#fff" stroke-width="0.7"></circle></g><g class="key-Australia_0"><circle cx="84.00" cy="495.00" r="2.92" fill="#5675c1" opacity="0.8" stroke="#fff" stroke-width="0.7"></circle></g><g class="key-Taiwan_0"><circle cx="84.00" cy="501.00" r="2.91" fill="#5675c1" opacity="0.8" stroke="#fff" stroke-width="0.7"></circle></g><g class="key-Cote-d__0027Ivoire_0"><circle cx="84.00" cy="511.00" r="2.90" fill="#ffd336" opacity="0.8" stroke="#fff" stroke-width="0.7"></circle></g><g class="key-Cameroon_0"><circle cx="84.00" cy="512.00" r="2.89" fill="#ffd336" opacity="0.8" stroke="#fff" stroke-width="0.7"></circle></g><g class="key-Sri-Lanka_0"><circle cx="83.00" cy="511.00" r="2.81" fill="#ffd336" opacity="0.8" stroke="#fff" stroke-width="0.7"></circle></g><g class="key-Romania_0"><circle cx="83.00" cy="509.00" r="2.76" fill="#4d824b" opacity="0.8" stroke="#fff" stroke-width="0.7"></circle></g><g class="key-Burkina-Faso_0"><circle cx="82.00" cy="512.00" r="2.69" fill="#d14e5b" opacity="0.8" stroke="#fff" stroke-width="0.7"></circle></g><g class="key-Chile_0"><circle cx="82.00" cy="508.00" r="2.68" fill="#5675c1" opacity="0.8" stroke="#fff" stroke-width="0.7"></circle></g><g class="key-Kazakhstan_0"><circle cx="82.00" cy="503.00" r="2.67" fill="#4d824b" opacity="0.8" stroke="#fff" stroke-width="0.7"></circle></g><g class="key-Malawi_0"><circle cx="82.00" cy="512.00" r="2.67" fill="#d14e5b" opacity="0.8" stroke="#fff" stroke-width="0.7"></circle></g><g class="key-Netherlands_0"><circle cx="82.00" cy="505.00" r="2.64" fill="#5675c1" opacity="0.8" stroke="#fff" stroke-width="0.7"></circle></g><g class="key-Guatemala_0"><circle cx="81.00" cy="511.00" r="2.61" fill="#ffd336" opacity="0.8" stroke="#fff" stroke-width="0.7"></circle></g><g class="key-Ecuador_0"><circle cx="81.00" cy="510.00" r="2.60" fill="#4d824b" opacity="0.8" stroke="#fff" stroke-width="0.7"></circle></g><g class="key-Zambia_0"><circle cx="81.00" cy="512.00" r="2.60" fill="#ffd336" opacity="0.8" stroke="#fff" stroke-width="0.7"></circle></g><g class="key-Zimbabwe_0"><circle cx="81.00" cy="512.00" r="2.59" fill="#d14e5b" opacity="0.8" stroke="#fff" stroke-width="0.7"></circle></g><g class="key-Cambodia_0"><circle cx="81.00" cy="512.00" r="2.58" fill="#ffd336" opacity="0.8" stroke="#fff" stroke-width="0.7"></circle></g><g class="key-Senegal_0"><circle cx="81.00" cy="512.00" r="2.56" fill="#d14e5b" opacity="0.8" stroke="#fff" stroke-width="0.7"></circle></g><g class="key-Guinea_0"><circle cx="80.00" cy="512.00" r="2.42" fill="#d14e5b" opacity="0.8" stroke="#fff" stroke-width="0.7"></circle></g><g class="key-Rwanda_0"><circle cx="79.00" cy="512.00" r="2.40" fill="#d14e5b" opacity="0.8" stroke="#fff" stroke-width="0.7"></circle></g><g class="key-Belgium_0"><circle cx="79.00" cy="504.00" r="2.38" fill="#5675c1" opacity="0.8" stroke="#fff" stroke-width="0.7"></circle></g><g class="key-Tunisia_0"><circle cx="79.00" cy="511.00" r="2.38" fill="#ffd336" opacity="0.8" stroke="#fff" stroke-width="0.7"></circle></g><g class="key-Greece_0"><circle cx="79.00" cy="509.00" r="2.36" fill="#5675c1" opacity="0.8" stroke="#fff" stroke-width="0.7"></circle></g><g class="key-Bolivia_0"><circle cx="79.00" cy="511.00" r="2.36" fill="#ffd336" opacity="0.8" stroke="#fff" stroke-width="0.7"></circle></g><g class="key-Benin_0"><circle cx="79.00" cy="512.00" r="2.35" fill="#d14e5b" opacity="0.8" stroke="#fff" stroke-width="0.7"></circle></g><g class="key-Czech-Republic_0"><circle cx="79.00" cy="508.00" r="2.35" fill="#5675c1" opacity="0.8" stroke="#fff" stroke-width="0.7"></circle></g><g class="key-Dominican-Republic_0"><circle cx="79.00" cy="511.00" r="2.35" fill="#4d824b" opacity="0.8" stroke="#fff" stroke-width="0.7"></circle></g><g class="key-Portugal_0"><circle cx="79.00" cy="510.00" r="2.34" fill="#5675c1" opacity="0.8" stroke="#fff" stroke-width="0.7"></circle></g><g class="key-Hungary_0"><circle cx="79.00" cy="510.00" r="2.31" fill="#5675c1" opacity="0.8" stroke="#fff" stroke-width="0.7"></circle></g><g class="key-Sweden_0"><circle cx="79.00" cy="509.00" r="2.31" fill="#5675c1" opacity="0.8" stroke="#fff" stroke-width="0.7"></circle></g><g class="key-Azerbaijan_0"><circle cx="79.00" cy="510.00" r="2.30" fill="#4d824b" opacity="0.8" stroke="#fff" stroke-width="0.7"></circle></g><g class="key-Belarus_0"><circle cx="78.00" cy="509.00" r="2.29" fill="#4d824b" opacity="0.8" stroke="#fff" stroke-width="0.7"></circle></g><g class="key-Jordan_0"><circle cx="78.00" cy="511.00" r="2.28" fill="#4d824b" opacity="0.8" stroke="#fff" stroke-width="0.7"></circle></g><g class="key-United-Arab-Emirates_0"><circle cx="78.00" cy="501.00" r="2.28" fill="#5675c1" opacity="0.8" stroke="#fff" stroke-width="0.7"></circle></g><g class="key-Honduras_0"><circle cx="78.00" cy="512.00" r="2.27" fill="#ffd336" opacity="0.8" stroke="#fff" stroke-width="0.7"></circle></g><g class="key-Austria_0"><circle cx="78.00" cy="508.00" r="2.25" fill="#5675c1" opacity="0.8" stroke="#fff" stroke-width="0.7"></circle></g><g class="key-Israel_0"><circle cx="78.00" cy="509.00" r="2.24" fill="#5675c1" opacity="0.8" stroke="#fff" stroke-width="0.7"></circle></g><g class="key-Switzerland_0"><circle cx="78.00" cy="507.00" r="2.23" fill="#5675c1" opacity="0.8" stroke="#fff" stroke-width="0.7"></circle></g><g class="key-Togo_0"><circle cx="78.00" cy="512.00" r="2.19" fill="#d14e5b" opacity="0.8" stroke="#fff" stroke-width="0.7"></circle></g><g class="key-Hong-Kong_0"><circle cx="78.00" cy="507.00" r="2.18" fill="#5675c1" opacity="0.8" stroke="#fff" stroke-width="0.7"></circle></g><g class="key-Bulgaria_0"><circle cx="78.00" cy="510.00" r="2.18" fill="#4d824b" opacity="0.8" stroke="#fff" stroke-width="0.7"></circle></g><g class="key-Laos_0"><circle cx="77.00" cy="512.00" r="2.15" fill="#ffd336" opacity="0.8" stroke="#fff" stroke-width="0.7"></circle></g><g class="key-Paraguay_0"><circle cx="77.00" cy="512.00" r="2.15" fill="#4d824b" opacity="0.8" stroke="#fff" stroke-width="0.7"></circle></g><g class="key-El-Salvador_0"><circle cx="77.00" cy="512.00" r="2.13" fill="#ffd336" opacity="0.8" stroke="#fff" stroke-width="0.7"></circle></g><g class="key-Nicaragua_0"><circle cx="77.00" cy="512.00" r="2.12" fill="#ffd336" opacity="0.8" stroke="#fff" stroke-width="0.7"></circle></g><g class="key-Kyrgyzstan_0"><circle cx="77.00" cy="511.00" r="2.11" fill="#ffd336" opacity="0.8" stroke="#fff" stroke-width="0.7"></circle></g><g class="key-Denmark_0"><circle cx="77.00" cy="510.00" r="2.09" fill="#5675c1" opacity="0.8" stroke="#fff" stroke-width="0.7"></circle></g><g class="key-Singapore_0"><circle cx="77.00" cy="507.00" r="2.09" fill="#5675c1" opacity="0.8" stroke="#fff" stroke-width="0.7"></circle></g><g class="key-Finland_0"><circle cx="77.00" cy="509.00" r="2.08" fill="#5675c1" opacity="0.8" stroke="#fff" stroke-width="0.7"></circle></g><g class="key-Slovakia_0"><circle cx="77.00" cy="510.00" r="2.08" fill="#5675c1" opacity="0.8" stroke="#fff" stroke-width="0.7"></circle></g><g class="key-Norway_0"><circle cx="77.00" cy="510.00" r="2.07" fill="#5675c1" opacity="0.8" stroke="#fff" stroke-width="0.7"></circle></g><g class="key-Costa-Rica_0"><circle cx="77.00" cy="512.00" r="2.04" fill="#4d824b" opacity="0.8" stroke="#fff" stroke-width="0.7"></circle></g><g class="key-Ireland_0"><circle cx="76.00" cy="510.00" r="2.04" fill="#5675c1" opacity="0.8" stroke="#fff" stroke-width="0.7"></circle></g><g class="key-New-Zealand_0"><circle cx="76.00" cy="511.00" r="2.03" fill="#5675c1" opacity="0.8" stroke="#fff" stroke-width="0.7"></circle></g><g class="key-Croatia_0"><circle cx="76.00" cy="511.00" r="2.01" fill="#5675c1" opacity="0.8" stroke="#fff" stroke-width="0.7"></circle></g><g class="key-Oman_0"><circle cx="76.00" cy="509.00" r="2.01" fill="#5675c1" opacity="0.8" stroke="#fff" stroke-width="0.7"></circle></g><g class="key-Kuwait_0"><circle cx="76.00" cy="508.00" r="2.00" fill="#5675c1" opacity="0.8" stroke="#fff" stroke-width="0.7"></circle></g><g class="key-Panama_0"><circle cx="76.00" cy="511.00" r="2.00" fill="#4d824b" opacity="0.8" stroke="#fff" stroke-width="0.7"></circle></g><g class="key-Georgia_0"><circle cx="76.00" cy="512.00" r="1.99" fill="#4d824b" opacity="0.8" stroke="#fff" stroke-width="0.7"></circle></g><g class="key-Uruguay_0"><circle cx="76.00" cy="512.00" r="1.97" fill="#5675c1" opacity="0.8" stroke="#fff" stroke-width="0.7"></circle></g><g class="key-Armenia_0"><circle cx="76.00" cy="512.00" r="1.94" fill="#ffd336" opacity="0.8" stroke="#fff" stroke-width="0.7"></circle></g><g class="key-Mongolia_0"><circle cx="76.00" cy="511.00" r="1.94" fill="#ffd336" opacity="0.8" stroke="#fff" stroke-width="0.7"></circle></g><g class="key-Albania_0"><circle cx="76.00" cy="512.00" r="1.93" fill="#4d824b" opacity="0.8" stroke="#fff" stroke-width="0.7"></circle></g><g class="key-Jamaica_0"><circle cx="76.00" cy="512.00" r="1.93" fill="#4d824b" opacity="0.8" stroke="#fff" stroke-width="0.7"></circle></g><g class="key-Lithuania_0"><circle cx="76.00" cy="511.00" r="1.93" fill="#5675c1" opacity="0.8" stroke="#fff" stroke-width="0.7"></circle></g><g class="key-Qatar_0"><circle cx="76.00" cy="508.00" r="1.91" fill="#5675c1" opacity="0.8" stroke="#fff" stroke-width="0.7"></circle></g><g class="key-Namibia_0"><circle cx="76.00" cy="512.00" r="1.91" fill="#4d824b" opacity="0.8" stroke="#fff" stroke-width="0.7"></circle></g><g class="key-Botswana_0"><circle cx="75.00" cy="512.00" r="1.89" fill="#4d824b" opacity="0.8" stroke="#fff" stroke-width="0.7"></circle></g><g class="key-Slovenia_0"><circle cx="75.00" cy="511.00" r="1.89" fill="#5675c1" opacity="0.8" stroke="#fff" stroke-width="0.7"></circle></g><g class="key-Latvia_0"><circle cx="75.00" cy="512.00" r="1.88" fill="#5675c1" opacity="0.8" stroke="#fff" stroke-width="0.7"></circle></g><g class="key-Bahrain_0"><circle cx="75.00" cy="511.00" r="1.84" fill="#5675c1" opacity="0.8" stroke="#fff" stroke-width="0.7"></circle></g><g class="key-Estonia_0"><circle cx="75.00" cy="512.00" r="1.84" fill="#5675c1" opacity="0.8" stroke="#fff" stroke-width="0.7"></circle></g><g class="key-Trinidad-and-Tobago_0"><circle cx="75.00" cy="512.00" r="1.84" fill="#5675c1" opacity="0.8" stroke="#fff" stroke-width="0.7"></circle></g><g class="key-Mauritius_0"><circle cx="75.00" cy="512.00" r="1.84" fill="#4d824b" opacity="0.8" stroke="#fff" stroke-width="0.7"></circle></g><g class="key-Cyprus_0"><circle cx="75.00" cy="512.00" r="1.83" fill="#5675c1" opacity="0.8" stroke="#fff" stroke-width="0.7"></circle></g><g class="key-Luxembourg_0"><circle cx="75.00" cy="511.00" r="1.79" fill="#5675c1" opacity="0.8" stroke="#fff" stroke-width="0.7"></circle></g><g class="key-Brunei_0"><circle cx="75.00" cy="512.00" r="1.78" fill="#5675c1" opacity="0.8" stroke="#fff" stroke-width="0.7"></circle></g><g class="key-Malta_0"><circle cx="75.00" cy="512.00" r="1.78" fill="#5675c1" opacity="0.8" stroke="#fff" stroke-width="0.7"></circle></g><g class="backgroundLabels" fill="#333"><text x="642.00" y="156.40" font-size="14.30">China</text><text x="617.00" y="401.56" font-size="14.15">India</text><text x="207.00" y="251.23" font-size="11.77">United States</text><text x="181.00" y="483.10" font-size="11.62">Indonesia</text><text x="153.00" y="496.17" font-size="11.45">Pakistan</text><text x="134.00" y="447.98" font-size="11.35">Russia</text><text x="127.00" y="483.34" font-size="11.30">Mexico</text><text x="113.00" y="498.04" font-size="11.22">Egypt</text><text x="108.00" y="468.32" font-size="11.20">Germany</text><text x="107.00" y="484.38" font-size="11.19">Iran</text><text x="88.00" y="504.79" font-size="11.07">Peru</text></g></g><g class="ScatterColorLegend clickable" style="cursor:pointer"><g class="legendMark"><rect x="704.048" y="139.6" width="81.182" height="17.6" fill="#fff" opacity="0"></rect>,<rect x="704.048" y="145.1" width="6" height="6" fill="#5675c1"></rect>,<text font-size="12.60" x="715.0" y="152.2"><tspan x="715.048" y="152.17999999999998">High income</tspan></text></g><g class="legendMark"><rect x="704.048" y="157.2" width="78.41" height="17.6" fill="#fff" opacity="0"></rect>,<rect x="704.048" y="162.7" width="6" height="6" fill="#d14e5b"></rect>,<text font-size="12.60" x="715.0" y="169.8"><tspan x="715.048" y="169.77999999999997">Low income</tspan></text></g><g class="legendMark"><rect x="704.048" y="174.8" width="130.952" height="17.6" fill="#fff" opacity="0"></rect>,<rect x="704.048" y="180.3" width="6" height="6" fill="#ffd336"></rect>,<text font-size="12.60" x="715.0" y="187.4"><tspan x="715.048" y="187.38">Lower-middle income</tspan></text></g><g class="legendMark"><rect x="704.048" y="192.4" width="130.952" height="17.6" fill="#fff" opacity="0"></rect>,<rect x="704.048" y="197.9" width="6" height="6" fill="#4d824b"></rect>,<text font-size="12.60" x="715.0" y="205.0"><tspan x="715.048" y="204.98">Upper-middle income</tspan></text></g></g></g><g class="SourcesFooter" style="fill:#777"><g class="clickable" style="fill:#777"><text font-size="12.60" x="15.0" y="581.6"><tspan x="15" y="581.58">Source: Based on Global Carbon Project (GCP) and UN Population (UNWPP, 2017)</tspan></text></g><text font-size="12.60" x="775.4" y="581.6"><tspan x="775.402" y="581.58"><a style="fill: #777;" class="cclogo" href="http://creativecommons.org/licenses/by-sa/4.0/deed.en_US" target="_blank">CC BY-SA</a></tspan></text></g></g></svg>