<svg xmlns="http://www.w3.org/2000/svg" version="1.1" style="font-family: 'Helvetica Neue', Helvetica, Arial, sans-serif; font-size: 18px; background-color: white; text-rendering: optimizeLegibility; -webkit-font-smoothing: antialiased;" width="850" height="600"><g class="ChartTab"><g class="HeaderView"><g opacity="0.8" transform="translate(770, 15) scale(0.31)"><a xmlns:xlink="http://www.w3.org/1999/xlink" xlink:href="https://ourworldindata.org" target="_blank"><g><rect x="0" y="0" fill="#1B2543" width="211.2" height="130.1"/><rect x="0" y="112.2" fill="#E63912" width="211.2" height="17.9"/><g><rect x="1.2" y="12.3" fill="none" width="210.2" height="99.2"/><path fill="#FFFFFF" d="M37.8,32.2c0,12.7-7.7,19.4-17.1,19.4c-9.7,0-16.6-7.5-16.6-18.7c0-11.7,7.3-19.3,17.1-19.3 C31.3,13.7,37.8,21.3,37.8,32.2z M9.2,32.8c0,7.9,4.3,14.9,11.8,14.9c7.5,0,11.8-6.9,11.8-15.3c0-7.3-3.8-14.9-11.8-14.9 C13.1,17.5,9.2,24.8,9.2,32.8z"/><path fill="#FFFFFF" d="M62.7,43.8c0,2.7,0.1,5.1,0.2,7.2h-4.3l-0.3-4.3h-0.1c-1.3,2.1-4,4.9-8.8,4.9c-4.2,0-9.1-2.3-9.1-11.6 V24.6h4.8v14.6c0,5,1.5,8.4,5.9,8.4c3.2,0,5.5-2.2,6.3-4.4c0.3-0.7,0.4-1.6,0.4-2.5V24.6h4.8V43.8z"/><path fill="#FFFFFF" d="M67.3,32.8c0-3.1-0.1-5.8-0.2-8.2h4.2l0.2,5.2h0.2c1.2-3.5,4.1-5.8,7.3-5.8c0.5,0,0.9,0.1,1.4,0.2v4.5 c-0.5-0.1-1-0.2-1.6-0.2c-3.4,0-5.8,2.6-6.5,6.2c-0.1,0.7-0.2,1.4-0.2,2.2V51h-4.8V32.8z"/><path fill="#FFFFFF" d="M95.4,51l-9.4-36.8h5l4.4,18.6c1.1,4.6,2.1,9.2,2.7,12.7h0.1c0.6-3.7,1.8-8,3-12.8l4.9-18.5h5l4.5,18.7 c1,4.4,2,8.7,2.6,12.6h0.1c0.8-4,1.8-8.1,3-12.7l4.9-18.5h4.9L120.6,51h-5L111,31.9c-1.1-4.7-1.9-8.3-2.4-12h-0.1 c-0.7,3.7-1.5,7.3-2.8,12L100.4,51H95.4z"/><path fill="#FFFFFF" d="M154.9,37.6c0,9.8-6.8,14-13.2,14c-7.2,0-12.7-5.2-12.7-13.6c0-8.8,5.8-14,13.1-14 C149.8,24,154.9,29.5,154.9,37.6z M133.9,37.9c0,5.8,3.3,10.1,8,10.1c4.6,0,8-4.3,8-10.3c0-4.5-2.2-10.1-7.9-10.1 C136.3,27.6,133.9,32.8,133.9,37.9z"/><path fill="#FFFFFF" d="M158.2,32.8c0-3.1-0.1-5.8-0.2-8.2h4.2l0.2,5.2h0.2c1.2-3.5,4.1-5.8,7.3-5.8c0.5,0,0.9,0.1,1.4,0.2v4.5 c-0.5-0.1-1-0.2-1.6-0.2c-3.4,0-5.8,2.6-6.5,6.2c-0.1,0.7-0.2,1.4-0.2,2.2V51h-4.8V32.8z"/><path fill="#FFFFFF" d="M173.5,12.3h4.8V51h-4.8V12.3z"/><path fill="#FFFFFF" d="M206.5,12.3v31.9c0,2.3,0.1,5,0.2,6.8h-4.3l-0.2-4.6H202c-1.5,2.9-4.7,5.2-9,5.2 c-6.4,0-11.3-5.4-11.3-13.4c-0.1-8.8,5.4-14.2,11.9-14.2c4,0,6.8,1.9,8,4h0.1V12.3H206.5z M201.7,35.4c0-0.6-0.1-1.4-0.2-2 c-0.7-3.1-3.3-5.6-6.9-5.6c-5,0-7.9,4.4-7.9,10.2c0,5.3,2.6,9.8,7.8,9.8c3.2,0,6.2-2.1,7.1-5.7c0.2-0.7,0.2-1.3,0.2-2.1V35.4z"/><path fill="#FFFFFF" d="M42.8,64c0.1,1.6-1.1,2.9-3.1,2.9c-1.7,0-2.9-1.3-2.9-2.9c0-1.7,1.3-3,3-3C41.7,61,42.8,62.3,42.8,64z M37.4,97.8V71.4h4.8v26.4H37.4z"/><path fill="#FFFFFF" d="M47.5,78.6c0-2.7-0.1-5-0.2-7.1h4.3l0.3,4.4h0.1c1.3-2.5,4.4-5,8.8-5c3.7,0,9.4,2.2,9.4,11.2v15.8h-4.8 V82.6c0-4.3-1.6-7.8-6.1-7.8c-3.2,0-5.6,2.2-6.5,4.9c-0.2,0.6-0.3,1.4-0.3,2.2v15.9h-4.8V78.6z"/><path fill="#FFFFFF" d="M84,61.6c2.9-0.4,6.3-0.8,10.1-0.8c6.8,0,11.7,1.6,14.9,4.6c3.3,3,5.2,7.3,5.2,13.2c0,6-1.9,10.9-5.3,14.3 c-3.4,3.4-9.1,5.3-16.3,5.3c-3.4,0-6.2-0.2-8.6-0.4V61.6z M88.8,94.1c1.2,0.2,3,0.3,4.8,0.3c10.2,0,15.7-5.7,15.7-15.6 c0.1-8.7-4.9-14.2-14.9-14.2c-2.5,0-4.3,0.2-5.6,0.5V94.1z"/><path fill="#FFFFFF" d="M132.1,97.8l-0.4-3.3h-0.2c-1.5,2.1-4.3,3.9-8.1,3.9c-5.4,0-8.1-3.8-8.1-7.6c0-6.4,5.7-9.9,15.9-9.8v-0.5 c0-2.2-0.6-6.1-6-6.1c-2.5,0-5,0.8-6.9,2l-1.1-3.2c2.2-1.4,5.4-2.3,8.7-2.3c8.1,0,10.1,5.5,10.1,10.8v9.9c0,2.3,0.1,4.5,0.4,6.3 H132.1z M131.4,84.4c-5.3-0.1-11.2,0.8-11.2,5.9c0,3.1,2.1,4.6,4.5,4.6c3.4,0,5.6-2.2,6.4-4.4c0.2-0.5,0.3-1,0.3-1.5V84.4z"/><path fill="#FFFFFF" d="M146.6,63.9v7.6h6.9v3.7h-6.9v14.2c0,3.3,0.9,5.1,3.6,5.1c1.3,0,2.2-0.2,2.8-0.3l0.2,3.6 c-0.9,0.4-2.4,0.7-4.3,0.7c-2.2,0-4-0.7-5.2-2c-1.4-1.4-1.9-3.8-1.9-6.9V75.1h-4.1v-3.7h4.1v-6.3L146.6,63.9z"/><path fill="#FFFFFF" d="M171.4,97.8l-0.4-3.3h-0.2c-1.5,2.1-4.3,3.9-8.1,3.9c-5.4,0-8.1-3.8-8.1-7.6c0-6.4,5.7-9.9,15.9-9.8v-0.5 c0-2.2-0.6-6.1-6-6.1c-2.5,0-5,0.8-6.9,2l-1.1-3.2c2.2-1.4,5.4-2.3,8.7-2.3c8.1,0,10.1,5.5,10.1,10.8v9.9c0,2.3,0.1,4.5,0.4,6.3 H171.4z M170.7,84.4c-5.3-0.1-11.2,0.8-11.2,5.9c0,3.1,2.1,4.6,4.5,4.6c3.4,0,5.6-2.2,6.4-4.4c0.2-0.5,0.3-1,0.3-1.5V84.4z"/></g></g></a></g><a href="https://ourworldindata.org/grapher/correlation-between-child-mortality-and-mean-years-of-schooling-for-those-aged-15-and-older?time=2010" target="_blank"><text font-size="27.00" x="15.0" y="36.6" fill="#555"><tspan x="15" y="36.6">Child mortality vs. mean years of schooling, 2010</tspan></text></a><text font-size="14.40" x="15.0" y="55.5" fill="#666"><tspan x="15" y="55.519999999999996">Mean years of schooling is for those aged 15 and older.</tspan></text></g><g><g class="AxisBoxView"><g class="HorizontalAxis"><text font-size="12.60" x="274.2" y="554.0"><tspan x="274.217" y="553.98">Average years of total education</tspan></text><text x="75.2" y="533.9" fill="#666" text-anchor="middle" font-size="16.2">0</text><text x="160.5" y="533.9" fill="#666" text-anchor="middle" font-size="16.2">2</text><text x="245.8" y="533.9" fill="#666" text-anchor="middle" font-size="16.2">4</text><text x="331.1" y="533.9" fill="#666" text-anchor="middle" font-size="16.2">6</text><text x="416.4" y="533.9" fill="#666" text-anchor="middle" font-size="16.2">8</text><text x="501.7" y="533.9" fill="#666" text-anchor="middle" font-size="16.2">10</text><text x="587" y="533.9" fill="#666" text-anchor="middle" font-size="16.2">12</text><text x="672.3" y="533.9" fill="#666" text-anchor="middle" font-size="16.2">14</text><text x="715" y="533.9" fill="#666" text-anchor="middle" font-size="16.2">15</text></g><g class="VerticalAxis"><text font-size="12.60" x="-370.1" y="25.1" transform="rotate(-90)"><tspan x="-370.05500000000006" y="25.080000000000002">Child mortality rate</tspan></text><text x="70.16" y="369.7" fill="#666" dominant-baseline="middle" text-anchor="end" font-size="16.2">1%</text><text x="70.16" y="128.9" fill="#666" dominant-baseline="middle" text-anchor="end" font-size="16.2">10%</text></g><g class="AxisGridLines"><line x1="75.16" y1="369.7" x2="715.00" y2="369.7" stroke="#ddd" stroke-dasharray="3,2"></line><line x1="75.16" y1="128.9" x2="715.00" y2="128.9" stroke="#ddd" stroke-dasharray="3,2"></line></g><g class="AxisGridLines"><line x1="75.2" y1="512.70" x2="75.2" y2="78.40" stroke="#ccc"></line><line x1="160.5" y1="512.70" x2="160.5" y2="78.40" stroke="#ddd" stroke-dasharray="3,2"></line><line x1="245.8" y1="512.70" x2="245.8" y2="78.40" stroke="#ddd" stroke-dasharray="3,2"></line><line x1="331.1" y1="512.70" x2="331.1" y2="78.40" stroke="#ddd" stroke-dasharray="3,2"></line><line x1="416.4" y1="512.70" x2="416.4" y2="78.40" stroke="#ddd" stroke-dasharray="3,2"></line><line x1="501.7" y1="512.70" x2="501.7" y2="78.40" stroke="#ddd" stroke-dasharray="3,2"></line><line x1="587" y1="512.70" x2="587" y2="78.40" stroke="#ddd" stroke-dasharray="3,2"></line><line x1="672.3" y1="512.70" x2="672.3" y2="78.40" stroke="#ddd" stroke-dasharray="3,2"></line></g></g><g clip-path="url(#scatterBounds-591)" class="PointsWithLabels clickable"><rect x="75.162" y="78.4" width="639.838" height="434.3" fill="rgba(255,255,255,0)"></rect><defs><clipPath id="scatterBounds-591"><rect x="65.162" y="68.4" width="659.838" height="454.3"></rect></clipPath></defs><circle cx="414" cy="321" r="17.841241161527712" fill="#d14e5b" opacity="0.8"></circle><circle cx="341" cy="185" r="17.05542580920275" fill="#d14e5b" opacity="0.8"></circle><circle cx="637" cy="399" r="8.723456141707828" fill="#4d824b" opacity="0.8"></circle><circle cx="399" cy="244" r="7.715723741757541" fill="#d14e5b" opacity="0.8"></circle><circle cx="411" cy="292" r="6.998418346773327" fill="#69c487" opacity="0.8"></circle><circle cx="289" cy="138" r="6.6303223881595565" fill="#d14e5b" opacity="0.8"></circle><circle cx="327" cy="206" r="6.1734015211288105" fill="#d14e5b" opacity="0.8"></circle><circle cx="567" cy="356" r="6.0633118661042" fill="#ffd336" opacity="0.8"></circle><circle cx="570" cy="487" r="5.736333007625911" fill="#d14e5b" opacity="0.8"></circle><circle cx="450" cy="277" r="5.461207197636128" fill="#4d824b" opacity="0.8"></circle><circle cx="434" cy="251" r="5.008779751499624" fill="#d14e5b" opacity="0.8"></circle><circle cx="380" cy="269" r="4.8801945543219825" fill="#d14e5b" opacity="0.8"></circle><circle cx="602" cy="458" r="4.744821272866664" fill="#ffd336" opacity="0.8"></circle><circle cx="380" cy="266" r="4.7154823890069215" fill="#5675c1" opacity="0.8"></circle><circle cx="453" cy="300" r="4.5339338623353385" fill="#d14e5b" opacity="0.8"></circle><circle cx="375" cy="296" r="4.502179853814833" fill="#d14e5b" opacity="0.8"></circle><circle cx="416" cy="333" r="4.406446588262513" fill="#d14e5b" opacity="0.8"></circle><circle cx="231" cy="106" r="4.321481136852825" fill="#5675c1" opacity="0.8"></circle><circle cx="530" cy="459" r="4.2342029837998805" fill="#ffd336" opacity="0.8"></circle><circle cx="597" cy="438" r="4.213292533413651" fill="#ffd336" opacity="0.8"></circle><circle cx="485" cy="470" r="4.171691991508436" fill="#ffd336" opacity="0.8"></circle><circle cx="488" cy="183" r="3.867222089104849" fill="#5675c1" opacity="0.8"></circle><circle cx="589" cy="464" r="3.807552335401258" fill="#d14e5b" opacity="0.8"></circle><circle cx="282" cy="177" r="3.8007412044413327" fill="#d14e5b" opacity="0.8"></circle><circle cx="456" cy="269" r="3.748828400954947" fill="#69c487" opacity="0.8"></circle><circle cx="513" cy="471" r="3.741995768526095" fill="#ffd336" opacity="0.8"></circle><circle cx="550" cy="345" r="3.7222083823957144" fill="#ffd336" opacity="0.8"></circle><circle cx="323" cy="167" r="3.7029991552656463" fill="#5675c1" opacity="0.8"></circle><circle cx="337" cy="177" r="3.563040361569907" fill="#5675c1" opacity="0.8"></circle><circle cx="480" cy="316" r="3.5597318400295936" fill="#69c487" opacity="0.8"></circle><circle cx="558" cy="424" r="3.488542194598548" fill="#ffd336" opacity="0.8"></circle><circle cx="360" cy="239" r="3.3926553360634966" fill="#5675c1" opacity="0.8"></circle><circle cx="212" cy="154" r="3.346228334469926" fill="#5675c1" opacity="0.8"></circle><circle cx="600" cy="429" r="3.3420156301978787" fill="#4d824b" opacity="0.8"></circle><circle cx="318" cy="131" r="3.3211451956821207" fill="#5675c1" opacity="0.8"></circle><circle cx="286" cy="234" r="3.2686198621656164" fill="#5675c1" opacity="0.8"></circle><circle cx="380" cy="229" r="3.2585479568360696" fill="#d14e5b" opacity="0.8"></circle><circle cx="239" cy="141" r="3.249167003716707" fill="#d14e5b" opacity="0.8"></circle><circle cx="255" cy="211" r="3.1962266764736054" fill="#d14e5b" opacity="0.8"></circle><circle cx="453" cy="252" r="3.163613144298244" fill="#69c487" opacity="0.8"></circle><circle cx="433" cy="313" r="3.160022159063534" fill="#69c487" opacity="0.8"></circle><circle cx="520" cy="388" r="3.1384307613589533" fill="#d14e5b" opacity="0.8"></circle><circle cx="439" cy="318" r="3.102558053504513" fill="#d14e5b" opacity="0.8"></circle><circle cx="373" cy="157" r="2.984598709951811" fill="#5675c1" opacity="0.8"></circle><circle cx="157" cy="117" r="2.9449348644482516" fill="#5675c1" opacity="0.8"></circle><circle cx="548" cy="425" r="2.9303086349193093" fill="#d14e5b" opacity="0.8"></circle><circle cx="567" cy="444" r="2.8998189051599015" fill="#a652ba" opacity="0.8"></circle><circle cx="530" cy="351" r="2.8679651166161606" fill="#ffd336" opacity="0.8"></circle><circle cx="504" cy="365" r="2.8421915162638065" fill="#d14e5b" opacity="0.8"></circle><circle cx="361" cy="302" r="2.823558779003999" fill="#d14e5b" opacity="0.8"></circle><circle cx="273" cy="118" r="2.795427596625354" fill="#5675c1" opacity="0.8"></circle><circle cx="337" cy="116" r="2.7895841557248064" fill="#5675c1" opacity="0.8"></circle><circle cx="492" cy="378" r="2.6828916840149106" fill="#69c487" opacity="0.8"></circle><circle cx="561" cy="452" r="2.660878344023614" fill="#ffd336" opacity="0.8"></circle><circle cx="558" cy="288" r="2.634853524434248" fill="#d14e5b" opacity="0.8"></circle><circle cx="155" cy="99" r="2.6118186973721587" fill="#5675c1" opacity="0.8"></circle><circle cx="159" cy="96" r="2.605417751976467" fill="#5675c1" opacity="0.8"></circle><circle cx="280" cy="135" r="2.584187016695549" fill="#5675c1" opacity="0.8"></circle><circle cx="399" cy="266" r="2.5642864377918926" fill="#69c487" opacity="0.8"></circle><circle cx="270" cy="237" r="2.5608112325394212" fill="#4d824b" opacity="0.8"></circle><circle cx="276" cy="217" r="2.5492863579948493" fill="#d14e5b" opacity="0.8"></circle><circle cx="387" cy="141" r="2.500449644876284" fill="#5675c1" opacity="0.8"></circle><circle cx="399" cy="156" r="2.476036637986327" fill="#5675c1" opacity="0.8"></circle><circle cx="192" cy="172" r="2.4694939056209337" fill="#5675c1" opacity="0.8"></circle><circle cx="514" cy="465" r="2.4178472531660886" fill="#ffd336" opacity="0.8"></circle><circle cx="508" cy="406" r="2.4129173677392473" fill="#4d824b" opacity="0.8"></circle><circle cx="531" cy="453" r="2.386192296476318" fill="#ffd336" opacity="0.8"></circle><circle cx="395" cy="469" r="2.384395057929528" fill="#ffd336" opacity="0.8"></circle><circle cx="261" cy="160" r="2.3818531997469448" fill="#5675c1" opacity="0.8"></circle><circle cx="621" cy="482" r="2.375381445882657" fill="#ffd336" opacity="0.8"></circle><circle cx="394" cy="296" r="2.37478664948343" fill="#5675c1" opacity="0.8"></circle><circle cx="293" cy="150" r="2.3505392301139447" fill="#4d824b" opacity="0.8"></circle><circle cx="580" cy="421" r="2.3500593147546054" fill="#ffd336" opacity="0.8"></circle><circle cx="427" cy="154" r="2.347368734456016" fill="#69c487" opacity="0.8"></circle><circle cx="410" cy="253" r="2.3472421718713044" fill="#4d824b" opacity="0.8"></circle><circle cx="571" cy="494" r="2.3196735049639465" fill="#ffd336" opacity="0.8"></circle><circle cx="264" cy="117" r="2.292687370167058" fill="#5675c1" opacity="0.8"></circle><circle cx="484" cy="458" r="2.269190314448129" fill="#ffd336" opacity="0.8"></circle><circle cx="218" cy="101" r="2.2686314180309464" fill="#5675c1" opacity="0.8"></circle><circle cx="630" cy="450" r="2.231115678311112" fill="#ffd336" opacity="0.8"></circle><circle cx="339" cy="220" r="2.2277543484742117" fill="#4d824b" opacity="0.8"></circle><circle cx="462" cy="399" r="2.223065185338714" fill="#d14e5b" opacity="0.8"></circle><circle cx="554" cy="364" r="2.222147775862773" fill="#ffd336" opacity="0.8"></circle><circle cx="600" cy="451" r="2.2181301379326053" fill="#d14e5b" opacity="0.8"></circle><circle cx="560" cy="505" r="2.1987038921484077" fill="#d14e5b" opacity="0.8"></circle><circle cx="514" cy="192" r="2.1893582710890915" fill="#d14e5b" opacity="0.8"></circle><circle cx="256" cy="173" r="2.1882649944342503" fill="#a652ba" opacity="0.8"></circle><circle cx="398" cy="234" r="2.1664843331159047" fill="#69c487" opacity="0.8"></circle><circle cx="416" cy="259" r="2.1610860505261273" fill="#5675c1" opacity="0.8"></circle><circle cx="289" cy="169" r="2.152686928508944" fill="#d14e5b" opacity="0.8"></circle><circle cx="406" cy="288" r="2.152255736404694" fill="#4d824b" opacity="0.8"></circle><circle cx="484" cy="290" r="2.1519410060485553" fill="#d14e5b" opacity="0.8"></circle><circle cx="309" cy="140" r="2.143220454824383" fill="#5675c1" opacity="0.8"></circle><circle cx="255" cy="82" r="2.1344184308160394" fill="#5675c1" opacity="0.8"></circle><circle cx="357" cy="269" r="2.1300455821159012" fill="#4d824b" opacity="0.8"></circle><circle cx="557" cy="460" r="2.1168782766656524" fill="#ffd336" opacity="0.8"></circle><circle cx="622" cy="405" r="2.111988057566426" fill="#ffd336" opacity="0.8"></circle><circle cx="494" cy="491" r="2.1065540106542846" fill="#ffd336" opacity="0.8"></circle><circle cx="532" cy="260" r="2.1048624012523582" fill="#d14e5b" opacity="0.8"></circle><circle cx="536" cy="509" r="2.0909869765490434" fill="#d14e5b" opacity="0.8"></circle><circle cx="569" cy="485" r="2.079534006341919" fill="#ffd336" opacity="0.8"></circle><circle cx="415" cy="352" r="2.0668291174308133" fill="#4d824b" opacity="0.8"></circle><circle cx="588" cy="460" r="2.0560598440397198" fill="#ffd336" opacity="0.8"></circle><circle cx="557" cy="424" r="2.05225294670429" fill="#ffd336" opacity="0.8"></circle><circle cx="235" cy="78" r="2.0521224939194815" fill="#5675c1" opacity="0.8"></circle><circle cx="543" cy="428" r="2.050237472872622" fill="#a652ba" opacity="0.8"></circle><circle cx="328" cy="154" r="2.031517330664367" fill="#5675c1" opacity="0.8"></circle><circle cx="254" cy="142" r="2.028694905343212" fill="#5675c1" opacity="0.8"></circle><circle cx="518" cy="309" r="2.0041551319638686" fill="#ffd336" opacity="0.8"></circle><circle cx="470" cy="294" r="2.0008662893364746" fill="#4d824b" opacity="0.8"></circle><circle cx="268" cy="130" r="1.9975142833039314" fill="#5675c1" opacity="0.8"></circle><circle cx="423" cy="323" r="1.992156336309507" fill="#69c487" opacity="0.8"></circle><circle cx="539" cy="419" r="1.9894907576282639" fill="#ffd336" opacity="0.8"></circle><circle cx="498" cy="313" r="1.982432557361884" fill="#ffd336" opacity="0.8"></circle><circle cx="532" cy="299" r="1.9757722057712783" fill="#d14e5b" opacity="0.8"></circle><circle cx="467" cy="248" r="1.9556889946427578" fill="#d14e5b" opacity="0.8"></circle><circle cx="496" cy="300" r="1.9547908667219702" fill="#4d824b" opacity="0.8"></circle><circle cx="345" cy="354" r="1.9545312465697033" fill="#d14e5b" opacity="0.8"></circle><circle cx="338" cy="196" r="1.9270860658211058" fill="#5675c1" opacity="0.8"></circle><circle cx="529" cy="387" r="1.925181492291835" fill="#ffd336" opacity="0.8"></circle><circle cx="324" cy="138" r="1.92024849697125" fill="#5675c1" opacity="0.8"></circle><circle cx="582" cy="478" r="1.911564260990894" fill="#ffd336" opacity="0.8"></circle><circle cx="482" cy="197" r="1.9101666350114468" fill="#5675c1" opacity="0.8"></circle><circle cx="434" cy="381" r="1.8948445470231279" fill="#d14e5b" opacity="0.8"></circle><circle cx="236" cy="151" r="1.8929590408618509" fill="#5675c1" opacity="0.8"></circle><circle cx="433" cy="175" r="1.8790738741012982" fill="#5675c1" opacity="0.8"></circle><circle cx="528" cy="247" r="1.868793463721248" fill="#4d824b" opacity="0.8"></circle><circle cx="591" cy="443" r="1.868773034559721" fill="#ffd336" opacity="0.8"></circle><circle cx="453" cy="328" r="1.8661330906944202" fill="#5675c1" opacity="0.8"></circle><circle cx="376" cy="374" r="1.863781310849094" fill="#d14e5b" opacity="0.8"></circle><circle cx="291" cy="138" r="1.8589990025421388" fill="#5675c1" opacity="0.8"></circle><circle cx="547" cy="441" r="1.853784280627296" fill="#ffd336" opacity="0.8"></circle><circle cx="500" cy="290" r="1.8383199430245707" fill="#a652ba" opacity="0.8"></circle><circle cx="412" cy="431" r="1.8373896342236435" fill="#5675c1" opacity="0.8"></circle><circle cx="450" cy="219" r="1.831525615381696" fill="#69c487" opacity="0.8"></circle><circle cx="439" cy="451" r="1.8179527311006036" fill="#d14e5b" opacity="0.8"></circle><circle cx="543" cy="480" r="1.815611588897725" fill="#ffd336" opacity="0.8"></circle><circle cx="523" cy="418" r="1.8097186755873544" fill="#ffd336" opacity="0.8"></circle><circle cx="448" cy="397" r="1.808576214486429" fill="#d14e5b" opacity="0.8"></circle><circle cx="546" cy="512" r="1.8034518144596923" fill="#ffd336" opacity="0.8"></circle><circle cx="332" cy="343" r="1.803174899754246" fill="#d14e5b" opacity="0.8"></circle><circle cx="556" cy="306" r="1.8028974864236602" fill="#4d824b" opacity="0.8"></circle><circle cx="478" cy="352" r="1.8004005393305897" fill="#4d824b" opacity="0.8"></circle><circle cx="536" cy="272" r="1.789321989379883" fill="#a652ba" opacity="0.8"></circle><circle cx="232" cy="172" r="1.7824775112795137" fill="#d14e5b" opacity="0.8"></circle><text x="414" y="302.1587588384723" font-size="14.3" font-family="Arial Narrow, Arial, sans-serif" fill="#666">China</text><text x="341" y="166.94457419079725" font-size="14.012833962114328" font-family="Arial Narrow, Arial, sans-serif" fill="#666">India</text><text x="637" y="389.27654385829214" font-size="11.763570254013004" font-family="Arial Narrow, Arial, sans-serif" fill="#666">United States</text><text x="399" y="235.28427625824247" font-size="11.590088426856122" font-family="Arial Narrow, Arial, sans-serif" fill="#666">Indonesia</text><text x="411" y="284.00158165322665" font-size="11.479561610475963" font-family="Arial Narrow, Arial, sans-serif" fill="#666">Brazil</text><text x="289" y="130.36967761184044" font-size="11.427027014439496" font-family="Arial Narrow, Arial, sans-serif" fill="#666">Pakistan</text><text x="327" y="198.82659847887118" font-size="11.365762935169728" font-family="Arial Narrow, Arial, sans-serif" fill="#666">Bangladesh</text><text x="567" y="348.9366881338958" font-size="11.35165576462191" font-family="Arial Narrow, Arial, sans-serif" fill="#666">Russia</text><text x="570" y="480.2636669923741" font-size="11.311252428347755" font-family="Arial Narrow, Arial, sans-serif" fill="#666">Japan</text><text x="450" y="270.5387928023639" font-size="11.278991074945669" font-family="Arial Narrow, Arial, sans-serif" fill="#666">Mexico</text><text x="380" y="263.119805445678" font-size="11.216070365407822" font-family="Arial Narrow, Arial, sans-serif" fill="#666">Vietnam</text><text x="602" y="452.25517872713334" font-size="11.202425695720187" font-family="Arial Narrow, Arial, sans-serif" fill="#666">Germany</text><text x="453" y="294.46606613766465" font-size="11.181934420515839" font-family="Arial Narrow, Arial, sans-serif" fill="#666">Iran</text><text x="375" y="290.4978201461852" font-size="11.178929666926237" font-family="Arial Narrow, Arial, sans-serif" fill="#666">Turkey</text><text x="416" y="327.5935534117375" font-size="11.16999862270483" font-family="Arial Narrow, Arial, sans-serif" fill="#666">Thailand</text><text x="231" y="100.67851886314718" font-size="11.162232895539535" font-family="Arial Narrow, Arial, sans-serif" fill="#666">Democratic Republic of Congo</text><text x="530" y="453.7657970162001" font-size="11.154413216870347" font-family="Arial Narrow, Arial, sans-serif" fill="#666">France</text><text x="597" y="432.78670746658634" font-size="11.152563437315186" font-family="Arial Narrow, Arial, sans-serif" fill="#666">United Kingdom</text><text x="485" y="464.82830800849155" font-size="11.148910603863214" font-family="Arial Narrow, Arial, sans-serif" fill="#666">Italy</text><text x="488" y="178.13277791089516" font-size="11.123279319258774" font-family="Arial Narrow, Arial, sans-serif" fill="#666">South Africa</text><text x="282" y="172.19925879555868" font-size="11.117940989060761" font-family="Arial Narrow, Arial, sans-serif" fill="#666">Myanmar</text><text x="513" y="466.25800423147393" font-size="11.113300842349398" font-family="Arial Narrow, Arial, sans-serif" fill="#666">Spain</text><text x="480" y="311.4402681599704" font-size="11.099364302135896" font-family="Arial Narrow, Arial, sans-serif" fill="#666">Argentina</text><text x="558" y="419.51145780540145" font-size="11.094109840459764" font-family="Arial Narrow, Arial, sans-serif" fill="#666">Poland</text><text x="360" y="234.60734466393652" font-size="11.087200259128137" font-family="Arial Narrow, Arial, sans-serif" fill="#666">Algeria</text><text x="212" y="149.6537716655301" font-size="11.083923932331613" font-family="Arial Narrow, Arial, sans-serif" fill="#666">Sudan</text><text x="286" y="229.73138013783438" font-size="11.078547952452167" font-family="Arial Narrow, Arial, sans-serif" fill="#666">Morocco</text><text x="255" y="206.8037733235264" font-size="11.073646954438848" font-family="Arial Narrow, Arial, sans-serif" fill="#666">Nepal</text><text x="453" y="247.83638685570176" font-size="11.071474890363053" font-family="Arial Narrow, Arial, sans-serif" fill="#666">Peru</text><text x="520" y="383.86156923864104" font-size="11.06981298279205" font-family="Arial Narrow, Arial, sans-serif" fill="#666">Malaysia</text><text x="373" y="153.0154012900482" font-size="11.059949238630754" font-family="Arial Narrow, Arial, sans-serif" fill="#666">Ghana</text><text x="157" y="113.05506513555174" font-size="11.057486354569116" font-family="Arial Narrow, Arial, sans-serif" fill="#666">Mozambique</text><text x="504" y="361.1578084837362" font-size="11.051259835836596" font-family="Arial Narrow, Arial, sans-serif" fill="#666">Sri Lanka</text><text x="273" y="114.20457240337464" font-size="11.048499033878187" font-family="Arial Narrow, Arial, sans-serif" fill="#666">Cote d'Ivoire</text><text x="337" y="112.21041584427519" font-size="11.048157273772492" font-family="Arial Narrow, Arial, sans-serif" fill="#666">Cameroon</text><text x="492" y="374.3171083159851" font-size="11.04204298076163" font-family="Arial Narrow, Arial, sans-serif" fill="#666">Chile</text><text x="558" y="284.3651464755658" font-size="11.039367865472821" font-family="Arial Narrow, Arial, sans-serif" fill="#666">Kazakhstan</text><text x="155" y="95.38818130262784" font-size="11.038102262439148" font-family="Arial Narrow, Arial, sans-serif" fill="#666">Niger</text><text x="387" y="137.49955035512372" font-size="11.032140059084352" font-family="Arial Narrow, Arial, sans-serif" fill="#666">Zambia</text><text x="192" y="168.53050609437906" font-size="11.030528963698579" font-family="Arial Narrow, Arial, sans-serif" fill="#666">Senegal</text><text x="508" y="402.58708263226083" font-size="11.027636290674053" font-family="Arial Narrow, Arial, sans-serif" fill="#666">Cuba</text><text x="395" y="465.6156049420705" font-size="11.026203405748616" font-family="Arial Narrow, Arial, sans-serif" fill="#666">Portugal</text><text x="261" y="156.61814680025304" font-size="11.026076536433944" font-family="Arial Narrow, Arial, sans-serif" fill="#666">Rwanda</text><text x="621" y="478.6246185541173" font-size="11.025754128899258" font-family="Arial Narrow, Arial, sans-serif" fill="#666">Czech Republic</text><text x="427" y="150.652631265544" font-size="11.024368717557625" font-family="Arial Narrow, Arial, sans-serif" fill="#666">Bolivia</text><text x="339" y="216.7722456515258" font-size="11.018637923321052" font-family="Arial Narrow, Arial, sans-serif" fill="#666">Honduras</text><text x="554" y="360.77785222413723" font-size="11.018376661152153" font-family="Arial Narrow, Arial, sans-serif" fill="#666">Bulgaria</text><text x="560" y="501.8012961078516" font-size="11.017291325373805" font-family="Arial Narrow, Arial, sans-serif" fill="#666">Hong Kong</text><text x="484" y="286.84805899395144" font-size="11.015160815445524" font-family="Arial Narrow, Arial, sans-serif" fill="#666">Jordan</text><text x="255" y="89.41437428572543" font-size="11.014374285725419" font-family="Arial Narrow, Arial, sans-serif" fill="#666">Sierra Leone</text><text x="622" y="401.8880119424336" font-size="11.013376845949084" font-family="Arial Narrow, Arial, sans-serif" fill="#666">Slovakia</text><text x="494" y="487.8934459893457" font-size="11.013136788942852" font-family="Arial Narrow, Arial, sans-serif" fill="#666">Finland</text><text x="532" y="256.8951375987476" font-size="11.013062185839534" font-family="Arial Narrow, Arial, sans-serif" fill="#666">Kyrgyzstan</text><text x="415" y="348.9331708825692" font-size="11.01140066945322" font-family="Arial Narrow, Arial, sans-serif" fill="#666">Costa Rica</text><text x="328" y="150.96848266933563" font-size="11.009885165828694" font-family="Arial Narrow, Arial, sans-serif" fill="#666">Congo</text><text x="254" y="138.9713050946568" font-size="11.00976516069825" font-family="Arial Narrow, Arial, sans-serif" fill="#666">Liberia</text><text x="532" y="296.02422779422875" font-size="11.007545864146199" font-family="Arial Narrow, Arial, sans-serif" fill="#666">Armenia</text><text x="345" y="351.04546875343027" font-size="11.006671627865721" font-family="Arial Narrow, Arial, sans-serif" fill="#666">Kuwait</text><text x="482" y="194.08983336498855" font-size="11.00487614671409" font-family="Arial Narrow, Arial, sans-serif" fill="#666">Botswana</text><text x="434" y="378.1051554529769" font-size="11.00426562304247" font-family="Arial Narrow, Arial, sans-serif" fill="#666">Qatar</text><text x="433" y="172.1209261258987" font-size="11.003642360035398" font-family="Arial Narrow, Arial, sans-serif" fill="#666">Gabon</text><text x="528" y="244.13120653627874" font-size="11.003238878858141" font-family="Arial Narrow, Arial, sans-serif" fill="#666">Trinidad and Tobago</text><text x="376" y="371.1362186891509" font-size="11.003042966675402" font-family="Arial Narrow, Arial, sans-serif" fill="#666">Bahrain</text><text x="547" y="438.1462157193727" font-size="11.002653779731247" font-family="Arial Narrow, Arial, sans-serif" fill="#666">Cyprus</text><text x="412" y="428.16261036577635" font-size="11.002020062989846" font-family="Arial Narrow, Arial, sans-serif" fill="#666">Reunion</text><text x="450" y="216.1684743846183" font-size="11.001794762749558" font-family="Arial Narrow, Arial, sans-serif" fill="#666">Guyana</text><text x="439" y="448.1820472688994" font-size="11.001276044466596" font-family="Arial Narrow, Arial, sans-serif" fill="#666">Macao</text><text x="523" y="415.19028132441264" font-size="11.000963241869263" font-family="Arial Narrow, Arial, sans-serif" fill="#666">Malta</text><text x="448" y="394.1914237855136" font-size="11.000919953223587" font-family="Arial Narrow, Arial, sans-serif" fill="#666">Brunei</text><text x="478" y="349.1995994606694" font-size="11.000610968982498" font-family="Arial Narrow, Arial, sans-serif" fill="#666">Barbados</text><text x="536" y="269.21067801062014" font-size="11.00019450982252" font-family="Arial Narrow, Arial, sans-serif" fill="#666">Tonga</text></g><g style="cursor: pointer;" class="ScatterColorLegend clickable"><g class="legendMark"><rect x="735" y="75.9" width="43.256" height="17.6" fill="#fff" opacity="0"></rect>,<rect x="735" y="81.4" width="6" height="6" fill="#5675c1"></rect>,<text font-size="12.60" x="746.0" y="88.5"><tspan x="746" y="88.48">Africa</tspan></text></g><g class="legendMark"><rect x="735" y="93.5" width="35.57" height="17.6" fill="#fff" opacity="0"></rect>,<rect x="735" y="99" width="6" height="6" fill="#d14e5b"></rect>,<text font-size="12.60" x="746.0" y="106.1"><tspan x="746" y="106.08">Asia</tspan></text></g><g class="legendMark"><rect x="735" y="111.10000000000001" width="51.824" height="17.6" fill="#fff" opacity="0"></rect>,<rect x="735" y="116.60000000000001" width="6" height="6" fill="#ffd336"></rect>,<text font-size="12.60" x="746.0" y="123.7"><tspan x="746" y="123.68">Europe</tspan></text></g><g class="legendMark"><rect x="735" y="128.70000000000002" width="91.64" height="17.6" fill="#fff" opacity="0"></rect>,<rect x="735" y="134.20000000000002" width="6" height="6" fill="#4d824b"></rect>,<text font-size="12.60" x="746.0" y="141.3"><tspan x="746" y="141.28">North America</tspan></text></g><g class="legendMark"><rect x="735" y="146.3" width="58.124" height="17.6" fill="#fff" opacity="0"></rect>,<rect x="735" y="151.8" width="6" height="6" fill="#a652ba"></rect>,<text font-size="12.60" x="746.0" y="158.9"><tspan x="746" y="158.88">Oceania</tspan></text></g><g class="legendMark"><rect x="735" y="163.9" width="93.908" height="17.6" fill="#fff" opacity="0"></rect>,<rect x="735" y="169.4" width="6" height="6" fill="#69c487"></rect>,<text font-size="12.60" x="746.0" y="176.5"><tspan x="746" y="176.48">South America</tspan></text></g></g></g><g style="fill: #777;" class="SourcesFooter"><g style="fill: #777;" class="clickable"><text font-size="12.60" x="15.0" y="581.6"><tspan x="15" y="581.58">Source: UN Population Division, Barro Lee Education Dataset</tspan></text></g><text font-size="12.60" x="564.2" y="581.6"><tspan x="564.226" y="581.58"><a target='_blank' style='fill: #777;' href='https://ourworldindata.org/child-mortality/'>OurWorldInData.org/child-mortality/</a> • <a style="fill: #777;" href="http://creativecommons.org/licenses/by-sa/4.0/deed.en_US" target="_blank">CC BY-SA</a></tspan></text></g></g></svg>