<svg xmlns="http://www.w3.org/2000/svg" version="1.1" style="font-family:&#x27;Helvetica Neue&#x27;, Helvetica, Arial, sans-serif;font-size:18px;background-color:white;text-rendering:optimizeLegibility;-webkit-font-smoothing:antialiased" width="850" height="600"><g class="ChartTab"><g class="HeaderView"><g opacity="0.8" transform="translate(778, 15) scale(0.27)"><a xmlns:xlink="http://www.w3.org/1999/xlink" xlink:href="https://ourworldindata.org" target="_blank"><g><rect x="0" y="0" fill="#1B2543" width="211.2" height="130.1"/><rect x="0" y="112.2" fill="#E63912" width="211.2" height="17.9"/><g><rect x="1.2" y="12.3" fill="none" width="210.2" height="99.2"/><path fill="#FFFFFF" d="M37.8,32.2c0,12.7-7.7,19.4-17.1,19.4c-9.7,0-16.6-7.5-16.6-18.7c0-11.7,7.3-19.3,17.1-19.3 C31.3,13.7,37.8,21.3,37.8,32.2z M9.2,32.8c0,7.9,4.3,14.9,11.8,14.9c7.5,0,11.8-6.9,11.8-15.3c0-7.3-3.8-14.9-11.8-14.9 C13.1,17.5,9.2,24.8,9.2,32.8z"/><path fill="#FFFFFF" d="M62.7,43.8c0,2.7,0.1,5.1,0.2,7.2h-4.3l-0.3-4.3h-0.1c-1.3,2.1-4,4.9-8.8,4.9c-4.2,0-9.1-2.3-9.1-11.6 V24.6h4.8v14.6c0,5,1.5,8.4,5.9,8.4c3.2,0,5.5-2.2,6.3-4.4c0.3-0.7,0.4-1.6,0.4-2.5V24.6h4.8V43.8z"/><path fill="#FFFFFF" d="M67.3,32.8c0-3.1-0.1-5.8-0.2-8.2h4.2l0.2,5.2h0.2c1.2-3.5,4.1-5.8,7.3-5.8c0.5,0,0.9,0.1,1.4,0.2v4.5 c-0.5-0.1-1-0.2-1.6-0.2c-3.4,0-5.8,2.6-6.5,6.2c-0.1,0.7-0.2,1.4-0.2,2.2V51h-4.8V32.8z"/><path fill="#FFFFFF" d="M95.4,51l-9.4-36.8h5l4.4,18.6c1.1,4.6,2.1,9.2,2.7,12.7h0.1c0.6-3.7,1.8-8,3-12.8l4.9-18.5h5l4.5,18.7 c1,4.4,2,8.7,2.6,12.6h0.1c0.8-4,1.8-8.1,3-12.7l4.9-18.5h4.9L120.6,51h-5L111,31.9c-1.1-4.7-1.9-8.3-2.4-12h-0.1 c-0.7,3.7-1.5,7.3-2.8,12L100.4,51H95.4z"/><path fill="#FFFFFF" d="M154.9,37.6c0,9.8-6.8,14-13.2,14c-7.2,0-12.7-5.2-12.7-13.6c0-8.8,5.8-14,13.1-14 C149.8,24,154.9,29.5,154.9,37.6z M133.9,37.9c0,5.8,3.3,10.1,8,10.1c4.6,0,8-4.3,8-10.3c0-4.5-2.2-10.1-7.9-10.1 C136.3,27.6,133.9,32.8,133.9,37.9z"/><path fill="#FFFFFF" d="M158.2,32.8c0-3.1-0.1-5.8-0.2-8.2h4.2l0.2,5.2h0.2c1.2-3.5,4.1-5.8,7.3-5.8c0.5,0,0.9,0.1,1.4,0.2v4.5 c-0.5-0.1-1-0.2-1.6-0.2c-3.4,0-5.8,2.6-6.5,6.2c-0.1,0.7-0.2,1.4-0.2,2.2V51h-4.8V32.8z"/><path fill="#FFFFFF" d="M173.5,12.3h4.8V51h-4.8V12.3z"/><path fill="#FFFFFF" d="M206.5,12.3v31.9c0,2.3,0.1,5,0.2,6.8h-4.3l-0.2-4.6H202c-1.5,2.9-4.7,5.2-9,5.2 c-6.4,0-11.3-5.4-11.3-13.4c-0.1-8.8,5.4-14.2,11.9-14.2c4,0,6.8,1.9,8,4h0.1V12.3H206.5z M201.7,35.4c0-0.6-0.1-1.4-0.2-2 c-0.7-3.1-3.3-5.6-6.9-5.6c-5,0-7.9,4.4-7.9,10.2c0,5.3,2.6,9.8,7.8,9.8c3.2,0,6.2-2.1,7.1-5.7c0.2-0.7,0.2-1.3,0.2-2.1V35.4z"/><path fill="#FFFFFF" d="M42.8,64c0.1,1.6-1.1,2.9-3.1,2.9c-1.7,0-2.9-1.3-2.9-2.9c0-1.7,1.3-3,3-3C41.7,61,42.8,62.3,42.8,64z M37.4,97.8V71.4h4.8v26.4H37.4z"/><path fill="#FFFFFF" d="M47.5,78.6c0-2.7-0.1-5-0.2-7.1h4.3l0.3,4.4h0.1c1.3-2.5,4.4-5,8.8-5c3.7,0,9.4,2.2,9.4,11.2v15.8h-4.8 V82.6c0-4.3-1.6-7.8-6.1-7.8c-3.2,0-5.6,2.2-6.5,4.9c-0.2,0.6-0.3,1.4-0.3,2.2v15.9h-4.8V78.6z"/><path fill="#FFFFFF" d="M84,61.6c2.9-0.4,6.3-0.8,10.1-0.8c6.8,0,11.7,1.6,14.9,4.6c3.3,3,5.2,7.3,5.2,13.2c0,6-1.9,10.9-5.3,14.3 c-3.4,3.4-9.1,5.3-16.3,5.3c-3.4,0-6.2-0.2-8.6-0.4V61.6z M88.8,94.1c1.2,0.2,3,0.3,4.8,0.3c10.2,0,15.7-5.7,15.7-15.6 c0.1-8.7-4.9-14.2-14.9-14.2c-2.5,0-4.3,0.2-5.6,0.5V94.1z"/><path fill="#FFFFFF" d="M132.1,97.8l-0.4-3.3h-0.2c-1.5,2.1-4.3,3.9-8.1,3.9c-5.4,0-8.1-3.8-8.1-7.6c0-6.4,5.7-9.9,15.9-9.8v-0.5 c0-2.2-0.6-6.1-6-6.1c-2.5,0-5,0.8-6.9,2l-1.1-3.2c2.2-1.4,5.4-2.3,8.7-2.3c8.1,0,10.1,5.5,10.1,10.8v9.9c0,2.3,0.1,4.5,0.4,6.3 H132.1z M131.4,84.4c-5.3-0.1-11.2,0.8-11.2,5.9c0,3.1,2.1,4.6,4.5,4.6c3.4,0,5.6-2.2,6.4-4.4c0.2-0.5,0.3-1,0.3-1.5V84.4z"/><path fill="#FFFFFF" d="M146.6,63.9v7.6h6.9v3.7h-6.9v14.2c0,3.3,0.9,5.1,3.6,5.1c1.3,0,2.2-0.2,2.8-0.3l0.2,3.6 c-0.9,0.4-2.4,0.7-4.3,0.7c-2.2,0-4-0.7-5.2-2c-1.4-1.4-1.9-3.8-1.9-6.9V75.1h-4.1v-3.7h4.1v-6.3L146.6,63.9z"/><path fill="#FFFFFF" d="M171.4,97.8l-0.4-3.3h-0.2c-1.5,2.1-4.3,3.9-8.1,3.9c-5.4,0-8.1-3.8-8.1-7.6c0-6.4,5.7-9.9,15.9-9.8v-0.5 c0-2.2-0.6-6.1-6-6.1c-2.5,0-5,0.8-6.9,2l-1.1-3.2c2.2-1.4,5.4-2.3,8.7-2.3c8.1,0,10.1,5.5,10.1,10.8v9.9c0,2.3,0.1,4.5,0.4,6.3 H171.4z M170.7,84.4c-5.3-0.1-11.2,0.8-11.2,5.9c0,3.1,2.1,4.6,4.5,4.6c3.4,0,5.6-2.2,6.4-4.4c0.2-0.5,0.3-1,0.3-1.5V84.4z"/></g></g></a></g><a href="https://ourworldindata.org/grapher/cross-country-literacy-rates?year=1960&amp;country=ARG+BRA+FRA+DEU+ITA+NLD+SWE+GBR+USA+OWID_WRL" target="_blank"><text font-size="25.20" x="15.0" y="35.2" fill="#555"><tspan x="15" y="35.160000000000004">Literacy rate</tspan></text></a><text font-size="14.40" x="15.0" y="53.7" fill="#666"><tspan x="15" y="53.72">Estimates correspond to the share of the population older than 14 years that is able to read and write. Specific</tspan><tspan x="15" y="69.56">definitions and measurement methodologies vary across countries and time. See the &#x27;Sources&#x27;-tab for more details. </tspan></text></g><g class="LineChart"><defs><clipPath id="boundsClip-254"><rect x="51.634" y="0" width="830" height="928.8"></rect></clipPath></defs><g class="AxisBoxView"><g class="HorizontalAxis"><text x="61.6" y="556.5" fill="#666" text-anchor="middle" font-size="16.2">1475</text><text x="210.2" y="556.5" fill="#666" text-anchor="middle" font-size="16.2">1600</text><text x="329.1" y="556.5" fill="#666" text-anchor="middle" font-size="16.2">1700</text><text x="448" y="556.5" fill="#666" text-anchor="middle" font-size="16.2">1800</text><text x="566.9" y="556.5" fill="#666" text-anchor="middle" font-size="16.2">1900</text><text x="703.6" y="556.5" fill="#666" text-anchor="middle" font-size="16.2">2015</text></g><g class="VerticalAxis"><text x="56.63" y="535.3" fill="#666" dominant-baseline="middle" text-anchor="end" font-size="16.2">0%</text><text x="56.63" y="446.7" fill="#666" dominant-baseline="middle" text-anchor="end" font-size="16.2">20%</text><text x="56.63" y="358" fill="#666" dominant-baseline="middle" text-anchor="end" font-size="16.2">40%</text><text x="56.63" y="269.4" fill="#666" dominant-baseline="middle" text-anchor="end" font-size="16.2">60%</text><text x="56.63" y="180.7" fill="#666" dominant-baseline="middle" text-anchor="end" font-size="16.2">80%</text><text x="56.63" y="92.1" fill="#666" dominant-baseline="middle" text-anchor="end" font-size="16.2">100%</text></g><g class="AxisGridLines"><line x1="61.63" y1="535.3" x2="703.61" y2="535.3" stroke="#ccc"></line><line x1="61.63" y1="446.7" x2="703.61" y2="446.7" stroke="#ddd" stroke-dasharray="3,2"></line><line x1="61.63" y1="358" x2="703.61" y2="358" stroke="#ddd" stroke-dasharray="3,2"></line><line x1="61.63" y1="269.4" x2="703.61" y2="269.4" stroke="#ddd" stroke-dasharray="3,2"></line><line x1="61.63" y1="180.7" x2="703.61" y2="180.7" stroke="#ddd" stroke-dasharray="3,2"></line><line x1="61.63" y1="92.1" x2="703.61" y2="92.1" stroke="#ddd" stroke-dasharray="3,2"></line></g></g><g clip-path="url(#boundsClip-254)"><g class="HeightedLegend clickable"><g class="legendMark"><g class="indicator"><line x1="708.61" y1="96.5" x2="731.11" y2="96.5" stroke="#666" stroke-width="0.5"></line><line x1="731.11" y1="96.5" x2="731.11" y2="96.5" stroke="#666" stroke-width="0.5"></line><line x1="731.11" y1="96.5" x2="733.61" y2="96.5" stroke="#666" stroke-width="0.5"></line></g><rect x="703.61" y="89.75" width="77.12" height="13.5" fill="#fff" opacity="0"></rect><text font-size="13.50" x="738.6" y="100.5" fill="#f6a324"><tspan x="738.61" y="100.55">France</tspan></text></g><g class="legendMark"><g class="indicator"><line x1="708.61" y1="96.5" x2="729.11" y2="96.5" stroke="#666" stroke-width="0.5"></line><line x1="729.11" y1="96.5" x2="729.11" y2="112" stroke="#666" stroke-width="0.5"></line><line x1="729.11" y1="112" x2="733.61" y2="112" stroke="#666" stroke-width="0.5"></line></g><rect x="703.61" y="105.25" width="90.62" height="13.5" fill="#fff" opacity="0"></rect><text font-size="13.50" x="738.6" y="116.0" fill="#a652ba"><tspan x="738.61" y="116.05">Germany</tspan></text></g><g class="legendMark"><g class="indicator"><line x1="708.61" y1="96.5" x2="727.11" y2="96.5" stroke="#666" stroke-width="0.5"></line><line x1="727.11" y1="96.5" x2="727.11" y2="127.5" stroke="#666" stroke-width="0.5"></line><line x1="727.11" y1="127.5" x2="733.61" y2="127.5" stroke="#666" stroke-width="0.5"></line></g><rect x="703.61" y="120.75" width="59.84" height="13.5" fill="#fff" opacity="0"></rect><text font-size="13.50" x="738.6" y="131.6" fill="#b077b1"><tspan x="738.61" y="131.55">Italy</tspan></text></g><g class="legendMark"><g class="indicator"><line x1="708.61" y1="96.5" x2="725.11" y2="96.5" stroke="#666" stroke-width="0.5"></line><line x1="725.11" y1="96.5" x2="725.11" y2="143" stroke="#666" stroke-width="0.5"></line><line x1="725.11" y1="143" x2="733.61" y2="143" stroke="#666" stroke-width="0.5"></line></g><rect x="703.61" y="136.25" width="108.03500000000001" height="13.5" fill="#fff" opacity="0"></rect><text font-size="13.50" x="738.6" y="147.1" fill="#2a939b"><tspan x="738.61" y="147.05">Netherlands</tspan></text></g><g class="legendMark"><g class="indicator"><line x1="708.61" y1="96.5" x2="723.11" y2="96.5" stroke="#666" stroke-width="0.5"></line><line x1="723.11" y1="96.5" x2="723.11" y2="158.5" stroke="#666" stroke-width="0.5"></line><line x1="723.11" y1="158.5" x2="733.61" y2="158.5" stroke="#666" stroke-width="0.5"></line></g><rect x="703.61" y="151.75" width="84.005" height="13.5" fill="#fff" opacity="0"></rect><text font-size="13.50" x="738.6" y="162.6" fill="#e6332e"><tspan x="738.61" y="162.55">Sweden</tspan></text></g><g class="legendMark"><g class="indicator"><line x1="708.61" y1="96.5" x2="721.11" y2="96.5" stroke="#666" stroke-width="0.5"></line><line x1="721.11" y1="96.5" x2="721.11" y2="174" stroke="#666" stroke-width="0.5"></line><line x1="721.11" y1="174" x2="733.61" y2="174" stroke="#666" stroke-width="0.5"></line></g><rect x="703.61" y="167.25" width="131.39" height="13.5" fill="#fff" opacity="0"></rect><text font-size="13.50" x="738.6" y="178.1" fill="#9ecc8a"><tspan x="738.61" y="178.05">United Kingdom</tspan></text></g><g class="legendMark"><g class="indicator"><line x1="708.61" y1="96.5" x2="719.11" y2="96.5" stroke="#666" stroke-width="0.5"></line><line x1="719.11" y1="96.5" x2="719.11" y2="189.5" stroke="#666" stroke-width="0.5"></line><line x1="719.11" y1="189.5" x2="733.61" y2="189.5" stroke="#666" stroke-width="0.5"></line></g><rect x="703.61" y="182.75" width="116.405" height="13.5" fill="#fff" opacity="0"></rect><text font-size="13.50" x="738.6" y="193.6" fill="#ffd53e"><tspan x="738.61" y="193.55">United States</tspan></text></g><g class="legendMark"><g class="indicator"><line x1="708.61" y1="100.6" x2="717.11" y2="100.6" stroke="#666" stroke-width="0.5"></line><line x1="717.11" y1="100.6" x2="717.11" y2="205" stroke="#666" stroke-width="0.5"></line><line x1="717.11" y1="205" x2="733.61" y2="205" stroke="#666" stroke-width="0.5"></line></g><rect x="703.61" y="198.25" width="93.05000000000001" height="13.5" fill="#fff" opacity="0"></rect><text font-size="13.50" x="738.6" y="209.1" fill="#34983f"><tspan x="738.61" y="209.05">Argentina</tspan></text></g><g class="legendMark"><g class="indicator"><line x1="708.61" y1="125" x2="715.11" y2="125" stroke="#666" stroke-width="0.5"></line><line x1="715.11" y1="125" x2="715.11" y2="220.5" stroke="#666" stroke-width="0.5"></line><line x1="715.11" y1="220.5" x2="733.61" y2="220.5" stroke="#666" stroke-width="0.5"></line></g><rect x="703.61" y="213.75" width="68.75" height="13.5" fill="#fff" opacity="0"></rect><text font-size="13.50" x="738.6" y="224.6" fill="#ca2628"><tspan x="738.61" y="224.55">Brazil</tspan></text></g><g class="legendMark"><g class="indicator"><line x1="708.61" y1="157.2" x2="713.11" y2="157.2" stroke="#666" stroke-width="0.5"></line><line x1="713.11" y1="157.2" x2="713.11" y2="236" stroke="#666" stroke-width="0.5"></line><line x1="713.11" y1="236" x2="733.61" y2="236" stroke="#666" stroke-width="0.5"></line></g><rect x="703.61" y="229.25" width="70.235" height="13.5" fill="#fff" opacity="0"></rect><text font-size="13.50" x="738.6" y="240.1" fill="#3360a9"><tspan x="738.61" y="240.05">World</tspan></text></g></g><g class="Lines"><rect x="62" y="92" width="642" height="443" fill="rgba(255,255,255,0)" opacity="0"></rect><g class="key-Argentina_0"><path stroke="#34983f" stroke-linecap="round" d="M567 308L579 268L591 233L603 203L614 173L626 147L638 130L650 123L661 118L662 119L675 109L687 105L702 101L704 101" fill="none" stroke-width="1.5"></path><g fill="#34983f"><circle cx="567" cy="308" r="2"></circle><circle cx="579" cy="268" r="2"></circle><circle cx="591" cy="233" r="2"></circle><circle cx="603" cy="203" r="2"></circle><circle cx="614" cy="173" r="2"></circle><circle cx="626" cy="147" r="2"></circle><circle cx="638" cy="130" r="2"></circle><circle cx="650" cy="123" r="2"></circle><circle cx="661" cy="118" r="2"></circle><circle cx="662" cy="119" r="2"></circle><circle cx="675" cy="109" r="2"></circle><circle cx="687" cy="105" r="2"></circle><circle cx="702" cy="101" r="2"></circle><circle cx="704" cy="101" r="2"></circle></g></g><g class="key-Brazil_0"><path stroke="#ca2628" stroke-linecap="round" d="M567 380L579 380L591 380L603 363L614 340L626 318L638 269L650 234L661 203L662 205L686 153L691 143L693 138L694 136L695 136L697 135L698 135L699 130L700 131L701 130L704 125" fill="none" stroke-width="1.5"></path><g fill="#ca2628"><circle cx="567" cy="380" r="2"></circle><circle cx="579" cy="380" r="2"></circle><circle cx="591" cy="380" r="2"></circle><circle cx="603" cy="363" r="2"></circle><circle cx="614" cy="340" r="2"></circle><circle cx="626" cy="318" r="2"></circle><circle cx="638" cy="269" r="2"></circle><circle cx="650" cy="234" r="2"></circle><circle cx="661" cy="203" r="2"></circle><circle cx="662" cy="205" r="2"></circle><circle cx="686" cy="153" r="2"></circle><circle cx="691" cy="143" r="2"></circle><circle cx="693" cy="138" r="2"></circle><circle cx="694" cy="136" r="2"></circle><circle cx="695" cy="136" r="2"></circle><circle cx="697" cy="135" r="2"></circle><circle cx="698" cy="135" r="2"></circle><circle cx="699" cy="130" r="2"></circle><circle cx="700" cy="131" r="2"></circle><circle cx="701" cy="130" r="2"></circle><circle cx="704" cy="125" r="2"></circle></g></g><g class="key-France_0"><path stroke="#f6a324" stroke-linecap="round" d="M62 509L151 451L270 407L389 407L472 367L531 230L689 97" fill="none" stroke-width="1.5"></path><g fill="#f6a324"><circle cx="62" cy="509" r="2"></circle><circle cx="151" cy="451" r="2"></circle><circle cx="270" cy="407" r="2"></circle><circle cx="389" cy="407" r="2"></circle><circle cx="472" cy="367" r="2"></circle><circle cx="531" cy="230" r="2"></circle><circle cx="689" cy="97" r="2"></circle></g></g><g class="key-Germany_0"><path stroke="#a652ba" stroke-linecap="round" d="M62 495L151 464L270 398L389 367L689 97" fill="none" stroke-width="1.5"></path><g fill="#a652ba"><circle cx="62" cy="495" r="2"></circle><circle cx="151" cy="464" r="2"></circle><circle cx="270" cy="398" r="2"></circle><circle cx="389" cy="367" r="2"></circle><circle cx="689" cy="97" r="2"></circle></g></g><g class="key-Italy_0"><path stroke="#b077b1" stroke-linecap="round" d="M62 469L151 456L270 433L389 433L472 438L531 394L663 108L687 99L699 97L704 97" fill="none" stroke-width="1.5"></path><g fill="#b077b1"><circle cx="62" cy="469" r="2"></circle><circle cx="151" cy="456" r="2"></circle><circle cx="270" cy="433" r="2"></circle><circle cx="389" cy="433" r="2"></circle><circle cx="472" cy="438" r="2"></circle><circle cx="531" cy="394" r="2"></circle><circle cx="663" cy="108" r="2"></circle><circle cx="687" cy="99" r="2"></circle><circle cx="699" cy="97" r="2"></circle><circle cx="704" cy="97" r="2"></circle></g></g><g class="key-Netherlands_0"><path stroke="#2a939b" stroke-linecap="round" d="M62 460L151 482L270 300L389 159L689 97" fill="none" stroke-width="1.5"></path><g fill="#2a939b"><circle cx="62" cy="460" r="2"></circle><circle cx="151" cy="482" r="2"></circle><circle cx="270" cy="300" r="2"></circle><circle cx="389" cy="159" r="2"></circle><circle cx="689" cy="97" r="2"></circle></g></g><g class="key-Sweden_0"><path stroke="#e6332e" stroke-linecap="round" d="M62 531L151 531L270 433L389 323L472 203L531 181L689 97" fill="none" stroke-width="1.5"></path><g fill="#e6332e"><circle cx="62" cy="531" r="2"></circle><circle cx="151" cy="531" r="2"></circle><circle cx="270" cy="433" r="2"></circle><circle cx="389" cy="323" r="2"></circle><circle cx="472" cy="203" r="2"></circle><circle cx="531" cy="181" r="2"></circle><circle cx="689" cy="97" r="2"></circle></g></g><g class="key-United-Kingdom_0"><path stroke="#9ecc8a" stroke-linecap="round" d="M62 513L151 464L270 300L389 296L472 300L531 199L689 97" fill="none" stroke-width="1.5"></path><g fill="#9ecc8a"><circle cx="62" cy="513" r="2"></circle><circle cx="151" cy="464" r="2"></circle><circle cx="270" cy="300" r="2"></circle><circle cx="389" cy="296" r="2"></circle><circle cx="472" cy="300" r="2"></circle><circle cx="531" cy="199" r="2"></circle><circle cx="689" cy="97" r="2"></circle></g></g><g class="key-United-States_0"><path stroke="#ffd53e" stroke-linecap="round" d="M531 181L543 167L555 151L567 140L579 126L591 119L603 111L614 105L623 104L626 106L629 103L637 102L649 97L661 95L689 97" fill="none" stroke-width="1.5"></path><g fill="#ffd53e"><circle cx="531" cy="181" r="2"></circle><circle cx="543" cy="167" r="2"></circle><circle cx="555" cy="151" r="2"></circle><circle cx="567" cy="140" r="2"></circle><circle cx="579" cy="126" r="2"></circle><circle cx="591" cy="119" r="2"></circle><circle cx="603" cy="111" r="2"></circle><circle cx="614" cy="105" r="2"></circle><circle cx="623" cy="104" r="2"></circle><circle cx="626" cy="106" r="2"></circle><circle cx="629" cy="103" r="2"></circle><circle cx="637" cy="102" r="2"></circle><circle cx="649" cy="97" r="2"></circle><circle cx="661" cy="95" r="2"></circle><circle cx="689" cy="97" r="2"></circle></g></g><g class="key-World_0"><path stroke="#3360a9" stroke-linecap="round" d="M472 482L531 451L543 447L555 442L567 442L579 420L591 394L603 389L614 349L626 376L638 349L674 199L686 172L698 157" fill="none" stroke-width="1.5"></path><g fill="#3360a9"><circle cx="472" cy="482" r="2"></circle><circle cx="531" cy="451" r="2"></circle><circle cx="543" cy="447" r="2"></circle><circle cx="555" cy="442" r="2"></circle><circle cx="567" cy="442" r="2"></circle><circle cx="579" cy="420" r="2"></circle><circle cx="591" cy="394" r="2"></circle><circle cx="603" cy="389" r="2"></circle><circle cx="614" cy="349" r="2"></circle><circle cx="626" cy="376" r="2"></circle><circle cx="638" cy="349" r="2"></circle><circle cx="674" cy="199" r="2"></circle><circle cx="686" cy="172" r="2"></circle><circle cx="698" cy="157" r="2"></circle></g></g></g></g></g><g class="SourcesFooter" style="fill:#777"><g class="clickable" style="fill:#777"><text font-size="12.60" x="15.0" y="581.6"><tspan x="15" y="581.58">Source: WDI, CIA World Factbook, &amp; other sources</tspan></text></g><text font-size="12.60" x="605.6" y="581.6"><tspan x="605.554" y="581.58"><a target='_blank' style='fill: #777;' href='https://ourworldindata.org/literacy'>OurWorldInData.org/literacy</a> • <a style="fill: #777;" class="cclogo" href="http://creativecommons.org/licenses/by-sa/4.0/deed.en_US" target="_blank">CC BY-SA</a></tspan></text></g></g></svg>