<svg xmlns="http://www.w3.org/2000/svg" version="1.1" style="font-family:&#x27;Helvetica Neue&#x27;, Helvetica, Arial, sans-serif;font-size:18px;background-color:white;text-rendering:optimizeLegibility;-webkit-font-smoothing:antialiased" width="850" height="600"><g class="ChartTab"><g class="HeaderView"><g opacity="0.8" transform="translate(778, 15) scale(0.27)"><a xmlns:xlink="http://www.w3.org/1999/xlink" xlink:href="https://ourworldindata.org" target="_blank"><g><rect x="0" y="0" fill="#1B2543" width="211.2" height="130.1"/><rect x="0" y="112.2" fill="#E63912" width="211.2" height="17.9"/><g><rect x="1.2" y="12.3" fill="none" width="210.2" height="99.2"/><path fill="#FFFFFF" d="M37.8,32.2c0,12.7-7.7,19.4-17.1,19.4c-9.7,0-16.6-7.5-16.6-18.7c0-11.7,7.3-19.3,17.1-19.3 C31.3,13.7,37.8,21.3,37.8,32.2z M9.2,32.8c0,7.9,4.3,14.9,11.8,14.9c7.5,0,11.8-6.9,11.8-15.3c0-7.3-3.8-14.9-11.8-14.9 C13.1,17.5,9.2,24.8,9.2,32.8z"/><path fill="#FFFFFF" d="M62.7,43.8c0,2.7,0.1,5.1,0.2,7.2h-4.3l-0.3-4.3h-0.1c-1.3,2.1-4,4.9-8.8,4.9c-4.2,0-9.1-2.3-9.1-11.6 V24.6h4.8v14.6c0,5,1.5,8.4,5.9,8.4c3.2,0,5.5-2.2,6.3-4.4c0.3-0.7,0.4-1.6,0.4-2.5V24.6h4.8V43.8z"/><path fill="#FFFFFF" d="M67.3,32.8c0-3.1-0.1-5.8-0.2-8.2h4.2l0.2,5.2h0.2c1.2-3.5,4.1-5.8,7.3-5.8c0.5,0,0.9,0.1,1.4,0.2v4.5 c-0.5-0.1-1-0.2-1.6-0.2c-3.4,0-5.8,2.6-6.5,6.2c-0.1,0.7-0.2,1.4-0.2,2.2V51h-4.8V32.8z"/><path fill="#FFFFFF" d="M95.4,51l-9.4-36.8h5l4.4,18.6c1.1,4.6,2.1,9.2,2.7,12.7h0.1c0.6-3.7,1.8-8,3-12.8l4.9-18.5h5l4.5,18.7 c1,4.4,2,8.7,2.6,12.6h0.1c0.8-4,1.8-8.1,3-12.7l4.9-18.5h4.9L120.6,51h-5L111,31.9c-1.1-4.7-1.9-8.3-2.4-12h-0.1 c-0.7,3.7-1.5,7.3-2.8,12L100.4,51H95.4z"/><path fill="#FFFFFF" d="M154.9,37.6c0,9.8-6.8,14-13.2,14c-7.2,0-12.7-5.2-12.7-13.6c0-8.8,5.8-14,13.1-14 C149.8,24,154.9,29.5,154.9,37.6z M133.9,37.9c0,5.8,3.3,10.1,8,10.1c4.6,0,8-4.3,8-10.3c0-4.5-2.2-10.1-7.9-10.1 C136.3,27.6,133.9,32.8,133.9,37.9z"/><path fill="#FFFFFF" d="M158.2,32.8c0-3.1-0.1-5.8-0.2-8.2h4.2l0.2,5.2h0.2c1.2-3.5,4.1-5.8,7.3-5.8c0.5,0,0.9,0.1,1.4,0.2v4.5 c-0.5-0.1-1-0.2-1.6-0.2c-3.4,0-5.8,2.6-6.5,6.2c-0.1,0.7-0.2,1.4-0.2,2.2V51h-4.8V32.8z"/><path fill="#FFFFFF" d="M173.5,12.3h4.8V51h-4.8V12.3z"/><path fill="#FFFFFF" d="M206.5,12.3v31.9c0,2.3,0.1,5,0.2,6.8h-4.3l-0.2-4.6H202c-1.5,2.9-4.7,5.2-9,5.2 c-6.4,0-11.3-5.4-11.3-13.4c-0.1-8.8,5.4-14.2,11.9-14.2c4,0,6.8,1.9,8,4h0.1V12.3H206.5z M201.7,35.4c0-0.6-0.1-1.4-0.2-2 c-0.7-3.1-3.3-5.6-6.9-5.6c-5,0-7.9,4.4-7.9,10.2c0,5.3,2.6,9.8,7.8,9.8c3.2,0,6.2-2.1,7.1-5.7c0.2-0.7,0.2-1.3,0.2-2.1V35.4z"/><path fill="#FFFFFF" d="M42.8,64c0.1,1.6-1.1,2.9-3.1,2.9c-1.7,0-2.9-1.3-2.9-2.9c0-1.7,1.3-3,3-3C41.7,61,42.8,62.3,42.8,64z M37.4,97.8V71.4h4.8v26.4H37.4z"/><path fill="#FFFFFF" d="M47.5,78.6c0-2.7-0.1-5-0.2-7.1h4.3l0.3,4.4h0.1c1.3-2.5,4.4-5,8.8-5c3.7,0,9.4,2.2,9.4,11.2v15.8h-4.8 V82.6c0-4.3-1.6-7.8-6.1-7.8c-3.2,0-5.6,2.2-6.5,4.9c-0.2,0.6-0.3,1.4-0.3,2.2v15.9h-4.8V78.6z"/><path fill="#FFFFFF" d="M84,61.6c2.9-0.4,6.3-0.8,10.1-0.8c6.8,0,11.7,1.6,14.9,4.6c3.3,3,5.2,7.3,5.2,13.2c0,6-1.9,10.9-5.3,14.3 c-3.4,3.4-9.1,5.3-16.3,5.3c-3.4,0-6.2-0.2-8.6-0.4V61.6z M88.8,94.1c1.2,0.2,3,0.3,4.8,0.3c10.2,0,15.7-5.7,15.7-15.6 c0.1-8.7-4.9-14.2-14.9-14.2c-2.5,0-4.3,0.2-5.6,0.5V94.1z"/><path fill="#FFFFFF" d="M132.1,97.8l-0.4-3.3h-0.2c-1.5,2.1-4.3,3.9-8.1,3.9c-5.4,0-8.1-3.8-8.1-7.6c0-6.4,5.7-9.9,15.9-9.8v-0.5 c0-2.2-0.6-6.1-6-6.1c-2.5,0-5,0.8-6.9,2l-1.1-3.2c2.2-1.4,5.4-2.3,8.7-2.3c8.1,0,10.1,5.5,10.1,10.8v9.9c0,2.3,0.1,4.5,0.4,6.3 H132.1z M131.4,84.4c-5.3-0.1-11.2,0.8-11.2,5.9c0,3.1,2.1,4.6,4.5,4.6c3.4,0,5.6-2.2,6.4-4.4c0.2-0.5,0.3-1,0.3-1.5V84.4z"/><path fill="#FFFFFF" d="M146.6,63.9v7.6h6.9v3.7h-6.9v14.2c0,3.3,0.9,5.1,3.6,5.1c1.3,0,2.2-0.2,2.8-0.3l0.2,3.6 c-0.9,0.4-2.4,0.7-4.3,0.7c-2.2,0-4-0.7-5.2-2c-1.4-1.4-1.9-3.8-1.9-6.9V75.1h-4.1v-3.7h4.1v-6.3L146.6,63.9z"/><path fill="#FFFFFF" d="M171.4,97.8l-0.4-3.3h-0.2c-1.5,2.1-4.3,3.9-8.1,3.9c-5.4,0-8.1-3.8-8.1-7.6c0-6.4,5.7-9.9,15.9-9.8v-0.5 c0-2.2-0.6-6.1-6-6.1c-2.5,0-5,0.8-6.9,2l-1.1-3.2c2.2-1.4,5.4-2.3,8.7-2.3c8.1,0,10.1,5.5,10.1,10.8v9.9c0,2.3,0.1,4.5,0.4,6.3 H171.4z M170.7,84.4c-5.3-0.1-11.2,0.8-11.2,5.9c0,3.1,2.1,4.6,4.5,4.6c3.4,0,5.6-2.2,6.4-4.4c0.2-0.5,0.3-1,0.3-1.5V84.4z"/></g></g></a></g><a href="https://ourworldindata.org/grapher/cross-country-literacy-rates?year=1960&amp;country=ARG+BOL+BRA+COL+HTI+PRY+URY" target="_blank"><text font-size="25.20" x="15.0" y="35.2" fill="#555"><tspan x="15" y="35.160000000000004">Literacy rate</tspan></text></a><text font-size="14.40" x="15.0" y="53.7" fill="#666"><tspan x="15" y="53.72">Estimates correspond to the share of the population older than 14 years that is able to read and write. Specific</tspan><tspan x="15" y="69.56">definitions and measurement methodologies vary across countries and time. See the &#x27;Sources&#x27;-tab for more details. </tspan></text></g><g class="LineChart"><defs><clipPath id="boundsClip-255"><rect x="51.634" y="0" width="830" height="928.8"></rect></clipPath></defs><g class="AxisBoxView"><g class="HorizontalAxis"><text x="61.6" y="556.5" fill="#666" text-anchor="middle" font-size="16.2">1900</text><text x="179.9" y="556.5" fill="#666" text-anchor="middle" font-size="16.2">1920</text><text x="298.3" y="556.5" fill="#666" text-anchor="middle" font-size="16.2">1940</text><text x="416.6" y="556.5" fill="#666" text-anchor="middle" font-size="16.2">1960</text><text x="534.9" y="556.5" fill="#666" text-anchor="middle" font-size="16.2">1980</text><text x="653.2" y="556.5" fill="#666" text-anchor="middle" font-size="16.2">2000</text><text x="742" y="556.5" fill="#666" text-anchor="middle" font-size="16.2">2015</text></g><g class="VerticalAxis"><text x="56.63" y="535.3" fill="#666" dominant-baseline="middle" text-anchor="end" font-size="16.2">0%</text><text x="56.63" y="446.7" fill="#666" dominant-baseline="middle" text-anchor="end" font-size="16.2">20%</text><text x="56.63" y="358" fill="#666" dominant-baseline="middle" text-anchor="end" font-size="16.2">40%</text><text x="56.63" y="269.4" fill="#666" dominant-baseline="middle" text-anchor="end" font-size="16.2">60%</text><text x="56.63" y="180.7" fill="#666" dominant-baseline="middle" text-anchor="end" font-size="16.2">80%</text><text x="56.63" y="92.1" fill="#666" dominant-baseline="middle" text-anchor="end" font-size="16.2">100%</text></g><g class="AxisGridLines"><line x1="61.63" y1="535.3" x2="741.95" y2="535.3" stroke="#ccc"></line><line x1="61.63" y1="446.7" x2="741.95" y2="446.7" stroke="#ddd" stroke-dasharray="3,2"></line><line x1="61.63" y1="358" x2="741.95" y2="358" stroke="#ddd" stroke-dasharray="3,2"></line><line x1="61.63" y1="269.4" x2="741.95" y2="269.4" stroke="#ddd" stroke-dasharray="3,2"></line><line x1="61.63" y1="180.7" x2="741.95" y2="180.7" stroke="#ddd" stroke-dasharray="3,2"></line><line x1="61.63" y1="92.1" x2="741.95" y2="92.1" stroke="#ddd" stroke-dasharray="3,2"></line></g></g><g clip-path="url(#boundsClip-255)"><g class="HeightedLegend clickable"><g class="legendMark"><g class="indicator"><line x1="746.95" y1="99" x2="769.45" y2="99" stroke="#666" stroke-width="0.5"></line><line x1="769.45" y1="99" x2="769.45" y2="99" stroke="#666" stroke-width="0.5"></line><line x1="769.45" y1="99" x2="771.95" y2="99" stroke="#666" stroke-width="0.5"></line></g><rect x="741.95" y="92.25" width="86.165" height="13.5" fill="#fff" opacity="0"></rect><text font-size="13.50" x="777.0" y="103.0" fill="#e6332e"><tspan x="776.95" y="103.05">Uruguay</tspan></text></g><g class="legendMark"><g class="indicator"><line x1="746.95" y1="100.6" x2="766.1166666666667" y2="100.6" stroke="#666" stroke-width="0.5"></line><line x1="766.1166666666667" y1="100.6" x2="766.1166666666667" y2="114.5" stroke="#666" stroke-width="0.5"></line><line x1="766.1166666666667" y1="114.5" x2="771.95" y2="114.5" stroke="#666" stroke-width="0.5"></line></g><rect x="741.95" y="107.75" width="93.05000000000001" height="13.5" fill="#fff" opacity="0"></rect><text font-size="13.50" x="777.0" y="118.5" fill="#2a939b"><tspan x="776.95" y="118.55">Argentina</tspan></text></g><g class="legendMark"><g class="indicator"><line x1="746.95" y1="111.9" x2="762.7833333333334" y2="111.9" stroke="#666" stroke-width="0.5"></line><line x1="762.7833333333334" y1="111.9" x2="762.7833333333334" y2="130" stroke="#666" stroke-width="0.5"></line><line x1="762.7833333333334" y1="130" x2="771.95" y2="130" stroke="#666" stroke-width="0.5"></line></g><rect x="741.95" y="123.25" width="93.05000000000001" height="13.5" fill="#fff" opacity="0"></rect><text font-size="13.50" x="777.0" y="134.1" fill="#a652ba"><tspan x="776.95" y="134.05">Paraguay</tspan></text></g><g class="legendMark"><g class="indicator"><line x1="746.95" y1="113.6" x2="759.45" y2="113.6" stroke="#666" stroke-width="0.5"></line><line x1="759.45" y1="113.6" x2="759.45" y2="145.5" stroke="#666" stroke-width="0.5"></line><line x1="759.45" y1="145.5" x2="771.95" y2="145.5" stroke="#666" stroke-width="0.5"></line></g><rect x="741.95" y="138.75" width="74.825" height="13.5" fill="#fff" opacity="0"></rect><text font-size="13.50" x="777.0" y="149.6" fill="#f6a324"><tspan x="776.95" y="149.55">Bolivia</tspan></text></g><g class="legendMark"><g class="indicator"><line x1="746.95" y1="116.1" x2="756.1166666666667" y2="116.1" stroke="#666" stroke-width="0.5"></line><line x1="756.1166666666667" y1="116.1" x2="756.1166666666667" y2="161" stroke="#666" stroke-width="0.5"></line><line x1="756.1166666666667" y1="161" x2="771.95" y2="161" stroke="#666" stroke-width="0.5"></line></g><rect x="741.95" y="154.25" width="92.105" height="13.5" fill="#fff" opacity="0"></rect><text font-size="13.50" x="777.0" y="165.1" fill="#34983f"><tspan x="776.95" y="165.05">Colombia</tspan></text></g><g class="legendMark"><g class="indicator"><line x1="746.95" y1="125" x2="752.7833333333334" y2="125" stroke="#666" stroke-width="0.5"></line><line x1="752.7833333333334" y1="125" x2="752.7833333333334" y2="176.5" stroke="#666" stroke-width="0.5"></line><line x1="752.7833333333334" y1="176.5" x2="771.95" y2="176.5" stroke="#666" stroke-width="0.5"></line></g><rect x="741.95" y="169.75" width="68.75" height="13.5" fill="#fff" opacity="0"></rect><text font-size="13.50" x="777.0" y="180.6" fill="#ca2628"><tspan x="776.95" y="180.55">Brazil</tspan></text></g><g class="legendMark"><g class="indicator"><line x1="746.95" y1="266.3" x2="759.45" y2="266.3" stroke="#666" stroke-width="0.5"></line><line x1="759.45" y1="266.3" x2="759.45" y2="266.3" stroke="#666" stroke-width="0.5"></line><line x1="759.45" y1="266.3" x2="771.95" y2="266.3" stroke="#666" stroke-width="0.5"></line></g><rect x="741.95" y="259.55" width="62" height="13.5" fill="#fff" opacity="0"></rect><text font-size="13.50" x="777.0" y="270.4" fill="#3360a9"><tspan x="776.95" y="270.35">Haiti</tspan></text></g></g><g class="Lines"><rect x="62" y="92" width="680" height="443" fill="rgba(255,255,255,0)" opacity="0"></rect><g class="key-Argentina_0"><path stroke="#2a939b" stroke-linecap="round" d="M62 308L121 268L180 233L239 203L298 173L357 147L417 130L476 123L529 118L535 119L600 109L659 105L736 101L742 101" fill="none" stroke-width="1.5"></path><g fill="#2a939b"><circle cx="62" cy="308" r="2"></circle><circle cx="121" cy="268" r="2"></circle><circle cx="180" cy="233" r="2"></circle><circle cx="239" cy="203" r="2"></circle><circle cx="298" cy="173" r="2"></circle><circle cx="357" cy="147" r="2"></circle><circle cx="417" cy="130" r="2"></circle><circle cx="476" cy="123" r="2"></circle><circle cx="529" cy="118" r="2"></circle><circle cx="535" cy="119" r="2"></circle><circle cx="600" cy="109" r="2"></circle><circle cx="659" cy="105" r="2"></circle><circle cx="736" cy="101" r="2"></circle><circle cx="742" cy="101" r="2"></circle></g></g><g class="key-Bolivia_0"><path stroke="#f6a324" stroke-linecap="round" d="M62 456L121 447L180 438L239 425L298 411L357 394L417 340L476 278L482 274L488 269L494 265L499 261L505 256L511 255L606 181L659 151L695 133L701 133L707 131L718 127L724 117L742 114" fill="none" stroke-width="1.5"></path><g fill="#f6a324"><circle cx="62" cy="456" r="2"></circle><circle cx="121" cy="447" r="2"></circle><circle cx="180" cy="438" r="2"></circle><circle cx="239" cy="425" r="2"></circle><circle cx="298" cy="411" r="2"></circle><circle cx="357" cy="394" r="2"></circle><circle cx="417" cy="340" r="2"></circle><circle cx="476" cy="278" r="2"></circle><circle cx="482" cy="274" r="2"></circle><circle cx="488" cy="269" r="2"></circle><circle cx="494" cy="265" r="2"></circle><circle cx="499" cy="261" r="2"></circle><circle cx="505" cy="256" r="2"></circle><circle cx="511" cy="255" r="2"></circle><circle cx="606" cy="181" r="2"></circle><circle cx="659" cy="151" r="2"></circle><circle cx="695" cy="133" r="2"></circle><circle cx="701" cy="133" r="2"></circle><circle cx="707" cy="131" r="2"></circle><circle cx="718" cy="127" r="2"></circle><circle cx="724" cy="117" r="2"></circle><circle cx="742" cy="114" r="2"></circle></g></g><g class="key-Brazil_0"><path stroke="#ca2628" stroke-linecap="round" d="M62 380L121 380L180 380L239 363L298 340L357 318L417 269L476 234L529 203L535 205L653 153L677 143L689 138L695 136L701 136L707 135L712 135L718 130L724 131L730 130L742 125" fill="none" stroke-width="1.5"></path><g fill="#ca2628"><circle cx="62" cy="380" r="2"></circle><circle cx="121" cy="380" r="2"></circle><circle cx="180" cy="380" r="2"></circle><circle cx="239" cy="363" r="2"></circle><circle cx="298" cy="340" r="2"></circle><circle cx="357" cy="318" r="2"></circle><circle cx="417" cy="269" r="2"></circle><circle cx="476" cy="234" r="2"></circle><circle cx="529" cy="203" r="2"></circle><circle cx="535" cy="205" r="2"></circle><circle cx="653" cy="153" r="2"></circle><circle cx="677" cy="143" r="2"></circle><circle cx="689" cy="138" r="2"></circle><circle cx="695" cy="136" r="2"></circle><circle cx="701" cy="136" r="2"></circle><circle cx="707" cy="135" r="2"></circle><circle cx="712" cy="135" r="2"></circle><circle cx="718" cy="130" r="2"></circle><circle cx="724" cy="131" r="2"></circle><circle cx="730" cy="130" r="2"></circle><circle cx="742" cy="125" r="2"></circle></g></g><g class="key-Colombia_0"><path stroke="#34983f" stroke-linecap="round" d="M62 385L121 363L180 340L239 305L298 283L357 261L417 225L476 190L482 185L488 185L494 181L499 176L505 176L511 172L517 172L523 167L529 163L535 163L541 159L612 132L630 131L677 124L683 124L689 126L695 125L701 121L707 122L712 122L718 121L736 118L742 116" fill="none" stroke-width="1.5"></path><g fill="#34983f"><circle cx="62" cy="385" r="2"></circle><circle cx="121" cy="363" r="2"></circle><circle cx="180" cy="340" r="2"></circle><circle cx="239" cy="305" r="2"></circle><circle cx="298" cy="283" r="2"></circle><circle cx="357" cy="261" r="2"></circle><circle cx="417" cy="225" r="2"></circle><circle cx="476" cy="190" r="2"></circle><circle cx="482" cy="185" r="2"></circle><circle cx="488" cy="185" r="2"></circle><circle cx="494" cy="181" r="2"></circle><circle cx="499" cy="176" r="2"></circle><circle cx="505" cy="176" r="2"></circle><circle cx="511" cy="172" r="2"></circle><circle cx="517" cy="172" r="2"></circle><circle cx="523" cy="167" r="2"></circle><circle cx="529" cy="163" r="2"></circle><circle cx="535" cy="163" r="2"></circle><circle cx="541" cy="159" r="2"></circle><circle cx="612" cy="132" r="2"></circle><circle cx="630" cy="131" r="2"></circle><circle cx="677" cy="124" r="2"></circle><circle cx="683" cy="124" r="2"></circle><circle cx="689" cy="126" r="2"></circle><circle cx="695" cy="125" r="2"></circle><circle cx="701" cy="121" r="2"></circle><circle cx="707" cy="122" r="2"></circle><circle cx="712" cy="122" r="2"></circle><circle cx="718" cy="121" r="2"></circle><circle cx="736" cy="118" r="2"></circle><circle cx="742" cy="116" r="2"></circle></g></g><g class="key-Haiti_0"><path stroke="#3360a9" stroke-linecap="round" d="M62 500L121 500L180 500L239 500L298 495L357 487L417 464L476 438L482 433L488 429L494 425L499 425L505 420L511 416L517 411L523 407L529 402L535 398L541 398L547 381L671 275L689 320L742 266" fill="none" stroke-width="1.5"></path><g fill="#3360a9"><circle cx="62" cy="500" r="2"></circle><circle cx="121" cy="500" r="2"></circle><circle cx="180" cy="500" r="2"></circle><circle cx="239" cy="500" r="2"></circle><circle cx="298" cy="495" r="2"></circle><circle cx="357" cy="487" r="2"></circle><circle cx="417" cy="464" r="2"></circle><circle cx="476" cy="438" r="2"></circle><circle cx="482" cy="433" r="2"></circle><circle cx="488" cy="429" r="2"></circle><circle cx="494" cy="425" r="2"></circle><circle cx="499" cy="425" r="2"></circle><circle cx="505" cy="420" r="2"></circle><circle cx="511" cy="416" r="2"></circle><circle cx="517" cy="411" r="2"></circle><circle cx="523" cy="407" r="2"></circle><circle cx="529" cy="402" r="2"></circle><circle cx="535" cy="398" r="2"></circle><circle cx="541" cy="398" r="2"></circle><circle cx="547" cy="381" r="2"></circle><circle cx="671" cy="275" r="2"></circle><circle cx="689" cy="320" r="2"></circle><circle cx="742" cy="266" r="2"></circle></g></g><g class="key-Paraguay_0"><path stroke="#a652ba" stroke-linecap="round" d="M62 398L121 367L180 336L239 305L298 274L357 243L417 212L476 181L482 181L488 176L494 172L499 172L505 167L511 163L517 163L523 159L529 159L535 154L541 154L547 150L606 135L695 116L701 122L707 120L712 119L736 116L742 112" fill="none" stroke-width="1.5"></path><g fill="#a652ba"><circle cx="62" cy="398" r="2"></circle><circle cx="121" cy="367" r="2"></circle><circle cx="180" cy="336" r="2"></circle><circle cx="239" cy="305" r="2"></circle><circle cx="298" cy="274" r="2"></circle><circle cx="357" cy="243" r="2"></circle><circle cx="417" cy="212" r="2"></circle><circle cx="476" cy="181" r="2"></circle><circle cx="482" cy="181" r="2"></circle><circle cx="488" cy="176" r="2"></circle><circle cx="494" cy="172" r="2"></circle><circle cx="499" cy="172" r="2"></circle><circle cx="505" cy="167" r="2"></circle><circle cx="511" cy="163" r="2"></circle><circle cx="517" cy="163" r="2"></circle><circle cx="523" cy="159" r="2"></circle><circle cx="529" cy="159" r="2"></circle><circle cx="535" cy="154" r="2"></circle><circle cx="541" cy="154" r="2"></circle><circle cx="547" cy="150" r="2"></circle><circle cx="606" cy="135" r="2"></circle><circle cx="695" cy="116" r="2"></circle><circle cx="701" cy="122" r="2"></circle><circle cx="707" cy="120" r="2"></circle><circle cx="712" cy="119" r="2"></circle><circle cx="736" cy="116" r="2"></circle><circle cx="742" cy="112" r="2"></circle></g></g><g class="key-Uruguay_0"><path stroke="#e6332e" stroke-linecap="round" d="M62 274L121 247L180 225L239 199L298 176L357 154L417 141L476 123L482 123L488 123L494 123L499 119L505 119L565 113L630 106L689 102L695 102L701 100L707 100L712 101L718 100L724 99L730 99L736 99L742 99" fill="none" stroke-width="1.5"></path><g fill="#e6332e"><circle cx="62" cy="274" r="2"></circle><circle cx="121" cy="247" r="2"></circle><circle cx="180" cy="225" r="2"></circle><circle cx="239" cy="199" r="2"></circle><circle cx="298" cy="176" r="2"></circle><circle cx="357" cy="154" r="2"></circle><circle cx="417" cy="141" r="2"></circle><circle cx="476" cy="123" r="2"></circle><circle cx="482" cy="123" r="2"></circle><circle cx="488" cy="123" r="2"></circle><circle cx="494" cy="123" r="2"></circle><circle cx="499" cy="119" r="2"></circle><circle cx="505" cy="119" r="2"></circle><circle cx="565" cy="113" r="2"></circle><circle cx="630" cy="106" r="2"></circle><circle cx="689" cy="102" r="2"></circle><circle cx="695" cy="102" r="2"></circle><circle cx="701" cy="100" r="2"></circle><circle cx="707" cy="100" r="2"></circle><circle cx="712" cy="101" r="2"></circle><circle cx="718" cy="100" r="2"></circle><circle cx="724" cy="99" r="2"></circle><circle cx="730" cy="99" r="2"></circle><circle cx="736" cy="99" r="2"></circle><circle cx="742" cy="99" r="2"></circle></g></g></g></g></g><g class="SourcesFooter" style="fill:#777"><g class="clickable" style="fill:#777"><text font-size="12.60" x="15.0" y="581.6"><tspan x="15" y="581.58">Source: WDI, CIA World Factbook, &amp; other sources</tspan></text></g><text font-size="12.60" x="605.6" y="581.6"><tspan x="605.554" y="581.58"><a target='_blank' style='fill: #777;' href='https://ourworldindata.org/literacy'>OurWorldInData.org/literacy</a> • <a style="fill: #777;" class="cclogo" href="http://creativecommons.org/licenses/by-sa/4.0/deed.en_US" target="_blank">CC BY-SA</a></tspan></text></g></g></svg>