<svg xmlns="http://www.w3.org/2000/svg" version="1.1" style="font-family:&#x27;Helvetica Neue&#x27;, Helvetica, Arial, sans-serif;font-size:18px;background-color:white;text-rendering:optimizeLegibility;-webkit-font-smoothing:antialiased" width="850" height="600"><g class="ChartTab"><g class="HeaderView"><g opacity="0.8" transform="translate(778, 15) scale(0.27)"><a xmlns:xlink="http://www.w3.org/1999/xlink" xlink:href="https://ourworldindata.org" target="_blank"><g><rect x="0" y="0" fill="#1B2543" width="211.2" height="130.1"/><rect x="0" y="112.2" fill="#E63912" width="211.2" height="17.9"/><g><rect x="1.2" y="12.3" fill="none" width="210.2" height="99.2"/><path fill="#FFFFFF" d="M37.8,32.2c0,12.7-7.7,19.4-17.1,19.4c-9.7,0-16.6-7.5-16.6-18.7c0-11.7,7.3-19.3,17.1-19.3 C31.3,13.7,37.8,21.3,37.8,32.2z M9.2,32.8c0,7.9,4.3,14.9,11.8,14.9c7.5,0,11.8-6.9,11.8-15.3c0-7.3-3.8-14.9-11.8-14.9 C13.1,17.5,9.2,24.8,9.2,32.8z"/><path fill="#FFFFFF" d="M62.7,43.8c0,2.7,0.1,5.1,0.2,7.2h-4.3l-0.3-4.3h-0.1c-1.3,2.1-4,4.9-8.8,4.9c-4.2,0-9.1-2.3-9.1-11.6 V24.6h4.8v14.6c0,5,1.5,8.4,5.9,8.4c3.2,0,5.5-2.2,6.3-4.4c0.3-0.7,0.4-1.6,0.4-2.5V24.6h4.8V43.8z"/><path fill="#FFFFFF" d="M67.3,32.8c0-3.1-0.1-5.8-0.2-8.2h4.2l0.2,5.2h0.2c1.2-3.5,4.1-5.8,7.3-5.8c0.5,0,0.9,0.1,1.4,0.2v4.5 c-0.5-0.1-1-0.2-1.6-0.2c-3.4,0-5.8,2.6-6.5,6.2c-0.1,0.7-0.2,1.4-0.2,2.2V51h-4.8V32.8z"/><path fill="#FFFFFF" d="M95.4,51l-9.4-36.8h5l4.4,18.6c1.1,4.6,2.1,9.2,2.7,12.7h0.1c0.6-3.7,1.8-8,3-12.8l4.9-18.5h5l4.5,18.7 c1,4.4,2,8.7,2.6,12.6h0.1c0.8-4,1.8-8.1,3-12.7l4.9-18.5h4.9L120.6,51h-5L111,31.9c-1.1-4.7-1.9-8.3-2.4-12h-0.1 c-0.7,3.7-1.5,7.3-2.8,12L100.4,51H95.4z"/><path fill="#FFFFFF" d="M154.9,37.6c0,9.8-6.8,14-13.2,14c-7.2,0-12.7-5.2-12.7-13.6c0-8.8,5.8-14,13.1-14 C149.8,24,154.9,29.5,154.9,37.6z M133.9,37.9c0,5.8,3.3,10.1,8,10.1c4.6,0,8-4.3,8-10.3c0-4.5-2.2-10.1-7.9-10.1 C136.3,27.6,133.9,32.8,133.9,37.9z"/><path fill="#FFFFFF" d="M158.2,32.8c0-3.1-0.1-5.8-0.2-8.2h4.2l0.2,5.2h0.2c1.2-3.5,4.1-5.8,7.3-5.8c0.5,0,0.9,0.1,1.4,0.2v4.5 c-0.5-0.1-1-0.2-1.6-0.2c-3.4,0-5.8,2.6-6.5,6.2c-0.1,0.7-0.2,1.4-0.2,2.2V51h-4.8V32.8z"/><path fill="#FFFFFF" d="M173.5,12.3h4.8V51h-4.8V12.3z"/><path fill="#FFFFFF" d="M206.5,12.3v31.9c0,2.3,0.1,5,0.2,6.8h-4.3l-0.2-4.6H202c-1.5,2.9-4.7,5.2-9,5.2 c-6.4,0-11.3-5.4-11.3-13.4c-0.1-8.8,5.4-14.2,11.9-14.2c4,0,6.8,1.9,8,4h0.1V12.3H206.5z M201.7,35.4c0-0.6-0.1-1.4-0.2-2 c-0.7-3.1-3.3-5.6-6.9-5.6c-5,0-7.9,4.4-7.9,10.2c0,5.3,2.6,9.8,7.8,9.8c3.2,0,6.2-2.1,7.1-5.7c0.2-0.7,0.2-1.3,0.2-2.1V35.4z"/><path fill="#FFFFFF" d="M42.8,64c0.1,1.6-1.1,2.9-3.1,2.9c-1.7,0-2.9-1.3-2.9-2.9c0-1.7,1.3-3,3-3C41.7,61,42.8,62.3,42.8,64z M37.4,97.8V71.4h4.8v26.4H37.4z"/><path fill="#FFFFFF" d="M47.5,78.6c0-2.7-0.1-5-0.2-7.1h4.3l0.3,4.4h0.1c1.3-2.5,4.4-5,8.8-5c3.7,0,9.4,2.2,9.4,11.2v15.8h-4.8 V82.6c0-4.3-1.6-7.8-6.1-7.8c-3.2,0-5.6,2.2-6.5,4.9c-0.2,0.6-0.3,1.4-0.3,2.2v15.9h-4.8V78.6z"/><path fill="#FFFFFF" d="M84,61.6c2.9-0.4,6.3-0.8,10.1-0.8c6.8,0,11.7,1.6,14.9,4.6c3.3,3,5.2,7.3,5.2,13.2c0,6-1.9,10.9-5.3,14.3 c-3.4,3.4-9.1,5.3-16.3,5.3c-3.4,0-6.2-0.2-8.6-0.4V61.6z M88.8,94.1c1.2,0.2,3,0.3,4.8,0.3c10.2,0,15.7-5.7,15.7-15.6 c0.1-8.7-4.9-14.2-14.9-14.2c-2.5,0-4.3,0.2-5.6,0.5V94.1z"/><path fill="#FFFFFF" d="M132.1,97.8l-0.4-3.3h-0.2c-1.5,2.1-4.3,3.9-8.1,3.9c-5.4,0-8.1-3.8-8.1-7.6c0-6.4,5.7-9.9,15.9-9.8v-0.5 c0-2.2-0.6-6.1-6-6.1c-2.5,0-5,0.8-6.9,2l-1.1-3.2c2.2-1.4,5.4-2.3,8.7-2.3c8.1,0,10.1,5.5,10.1,10.8v9.9c0,2.3,0.1,4.5,0.4,6.3 H132.1z M131.4,84.4c-5.3-0.1-11.2,0.8-11.2,5.9c0,3.1,2.1,4.6,4.5,4.6c3.4,0,5.6-2.2,6.4-4.4c0.2-0.5,0.3-1,0.3-1.5V84.4z"/><path fill="#FFFFFF" d="M146.6,63.9v7.6h6.9v3.7h-6.9v14.2c0,3.3,0.9,5.1,3.6,5.1c1.3,0,2.2-0.2,2.8-0.3l0.2,3.6 c-0.9,0.4-2.4,0.7-4.3,0.7c-2.2,0-4-0.7-5.2-2c-1.4-1.4-1.9-3.8-1.9-6.9V75.1h-4.1v-3.7h4.1v-6.3L146.6,63.9z"/><path fill="#FFFFFF" d="M171.4,97.8l-0.4-3.3h-0.2c-1.5,2.1-4.3,3.9-8.1,3.9c-5.4,0-8.1-3.8-8.1-7.6c0-6.4,5.7-9.9,15.9-9.8v-0.5 c0-2.2-0.6-6.1-6-6.1c-2.5,0-5,0.8-6.9,2l-1.1-3.2c2.2-1.4,5.4-2.3,8.7-2.3c8.1,0,10.1,5.5,10.1,10.8v9.9c0,2.3,0.1,4.5,0.4,6.3 H171.4z M170.7,84.4c-5.3-0.1-11.2,0.8-11.2,5.9c0,3.1,2.1,4.6,4.5,4.6c3.4,0,5.6-2.2,6.4-4.4c0.2-0.5,0.3-1,0.3-1.5V84.4z"/></g></g></a></g><a href="https://ourworldindata.org/grapher/crude-oil-spot-prices" target="_blank"><text font-size="25.20" x="15.0" y="35.2" fill="#555"><tspan x="15" y="35.160000000000004">Crude oil spot prices, US$ per MWh</tspan></text></a><text font-size="14.40" x="15.0" y="53.7" fill="#666"><tspan x="15" y="53.72">Crude oil spot price of the most common oil blends, measured in nominal US dollars per megawatt-hour (MWh)</tspan><tspan x="15" y="69.56">equivalents. </tspan></text></g><g class="LineChart"><defs><clipPath id="boundsClip-367"><rect x="37.216" y="0" width="830" height="928.8"></rect></clipPath></defs><g class="AxisBoxView"><g class="HorizontalAxis"><text x="47.2" y="556.5" fill="#666" text-anchor="middle" font-size="16.2">1972</text><text x="158.1" y="556.5" fill="#666" text-anchor="middle" font-size="16.2">1980</text><text x="296.7" y="556.5" fill="#666" text-anchor="middle" font-size="16.2">1990</text><text x="435.3" y="556.5" fill="#666" text-anchor="middle" font-size="16.2">2000</text><text x="573.9" y="556.5" fill="#666" text-anchor="middle" font-size="16.2">2010</text><text x="657" y="556.5" fill="#666" text-anchor="middle" font-size="16.2">2016</text></g><g class="VerticalAxis"><text x="42.22" y="535.3" fill="#666" dominant-baseline="middle" text-anchor="end" font-size="16.2">$0</text><text x="42.22" y="469.3" fill="#666" dominant-baseline="middle" text-anchor="end" font-size="16.2">$10</text><text x="42.22" y="403.4" fill="#666" dominant-baseline="middle" text-anchor="end" font-size="16.2">$20</text><text x="42.22" y="337.4" fill="#666" dominant-baseline="middle" text-anchor="end" font-size="16.2">$30</text><text x="42.22" y="271.4" fill="#666" dominant-baseline="middle" text-anchor="end" font-size="16.2">$40</text><text x="42.22" y="205.5" fill="#666" dominant-baseline="middle" text-anchor="end" font-size="16.2">$50</text><text x="42.22" y="139.5" fill="#666" dominant-baseline="middle" text-anchor="end" font-size="16.2">$60</text></g><g class="AxisGridLines"><line x1="47.22" y1="535.3" x2="657.03" y2="535.3" stroke="#ccc"></line><line x1="47.22" y1="469.3" x2="657.03" y2="469.3" stroke="#ddd" stroke-dasharray="3,2"></line><line x1="47.22" y1="403.4" x2="657.03" y2="403.4" stroke="#ddd" stroke-dasharray="3,2"></line><line x1="47.22" y1="337.4" x2="657.03" y2="337.4" stroke="#ddd" stroke-dasharray="3,2"></line><line x1="47.22" y1="271.4" x2="657.03" y2="271.4" stroke="#ddd" stroke-dasharray="3,2"></line><line x1="47.22" y1="205.5" x2="657.03" y2="205.5" stroke="#ddd" stroke-dasharray="3,2"></line><line x1="47.22" y1="139.5" x2="657.03" y2="139.5" stroke="#ddd" stroke-dasharray="3,2"></line></g></g><g clip-path="url(#boundsClip-367)"><g class="HeightedLegend clickable"><g class="legendMark"><g class="indicator"><line x1="662.035" y1="362.5" x2="684.535" y2="362.5" stroke="#666" stroke-width="0.5"></line><line x1="684.535" y1="362.5" x2="684.535" y2="362.5" stroke="#666" stroke-width="0.5"></line><line x1="684.535" y1="362.5" x2="687.035" y2="362.5" stroke="#666" stroke-width="0.5"></line></g><rect x="657.035" y="355.75" width="145.565" height="13.5" fill="#fff" opacity="0"></rect><text font-size="13.50" x="692.0" y="366.6" fill="#f6a324"><tspan x="692.035" y="366.55">Nigerian Forcados</tspan></text></g><g class="legendMark"><g class="indicator"><line x1="662.035" y1="365.6" x2="679.535" y2="365.6" stroke="#666" stroke-width="0.5"></line><line x1="679.535" y1="365.6" x2="679.535" y2="378" stroke="#666" stroke-width="0.5"></line><line x1="679.535" y1="378" x2="687.035" y2="378" stroke="#666" stroke-width="0.5"></line></g><rect x="657.035" y="371.25" width="67.4" height="13.5" fill="#fff" opacity="0"></rect><text font-size="13.50" x="692.0" y="382.1" fill="#34983f"><tspan x="692.035" y="382.05">Brent</tspan></text></g><g class="legendMark"><g class="indicator"><line x1="662.035" y1="367.1" x2="674.535" y2="367.1" stroke="#666" stroke-width="0.5"></line><line x1="674.535" y1="367.1" x2="674.535" y2="393.5" stroke="#666" stroke-width="0.5"></line><line x1="674.535" y1="393.5" x2="687.035" y2="393.5" stroke="#666" stroke-width="0.5"></line></g><rect x="657.035" y="386.75" width="177.965" height="13.5" fill="#fff" opacity="0"></rect><text font-size="13.50" x="692.0" y="397.6" fill="#ca2628"><tspan x="692.035" y="397.55">West Texas Intermdiate</tspan></text></g><g class="legendMark"><g class="indicator"><line x1="662.035" y1="375.4" x2="669.535" y2="375.4" stroke="#666" stroke-width="0.5"></line><line x1="669.535" y1="375.4" x2="669.535" y2="409" stroke="#666" stroke-width="0.5"></line><line x1="669.535" y1="409" x2="687.035" y2="409" stroke="#666" stroke-width="0.5"></line></g><rect x="657.035" y="402.25" width="70.37" height="13.5" fill="#fff" opacity="0"></rect><text font-size="13.50" x="692.0" y="413.1" fill="#3360a9"><tspan x="692.035" y="413.05">Dubai</tspan></text></g></g><g class="Lines"><rect x="47" y="92" width="610" height="443" fill="rgba(255,255,255,0)" opacity="0"></rect><g class="key-Brent_0"><path stroke="#34983f" stroke-linecap="round" d="M103 486L117 481L130 481L144 413L158 392L172 396L186 407L200 421L214 424L227 428L241 479L255 464L269 477L283 465L297 443L311 458L324 460L338 469L352 474L366 469L380 455L394 461L408 486L421 466L435 425L449 440L463 438L477 423L491 387L505 324L518 283L532 254L546 158L560 296L574 227L588 104L602 102L616 114L629 151L643 332L657 366" fill="none" stroke-width="1.5"></path><g fill="#34983f"><circle cx="103" cy="486" r="2"></circle><circle cx="117" cy="481" r="2"></circle><circle cx="130" cy="481" r="2"></circle><circle cx="144" cy="413" r="2"></circle><circle cx="158" cy="392" r="2"></circle><circle cx="172" cy="396" r="2"></circle><circle cx="186" cy="407" r="2"></circle><circle cx="200" cy="421" r="2"></circle><circle cx="214" cy="424" r="2"></circle><circle cx="227" cy="428" r="2"></circle><circle cx="241" cy="479" r="2"></circle><circle cx="255" cy="464" r="2"></circle><circle cx="269" cy="477" r="2"></circle><circle cx="283" cy="465" r="2"></circle><circle cx="297" cy="443" r="2"></circle><circle cx="311" cy="458" r="2"></circle><circle cx="324" cy="460" r="2"></circle><circle cx="338" cy="469" r="2"></circle><circle cx="352" cy="474" r="2"></circle><circle cx="366" cy="469" r="2"></circle><circle cx="380" cy="455" r="2"></circle><circle cx="394" cy="461" r="2"></circle><circle cx="408" cy="486" r="2"></circle><circle cx="421" cy="466" r="2"></circle><circle cx="435" cy="425" r="2"></circle><circle cx="449" cy="440" r="2"></circle><circle cx="463" cy="438" r="2"></circle><circle cx="477" cy="423" r="2"></circle><circle cx="491" cy="387" r="2"></circle><circle cx="505" cy="324" r="2"></circle><circle cx="518" cy="283" r="2"></circle><circle cx="532" cy="254" r="2"></circle><circle cx="546" cy="158" r="2"></circle><circle cx="560" cy="296" r="2"></circle><circle cx="574" cy="227" r="2"></circle><circle cx="588" cy="104" r="2"></circle><circle cx="602" cy="102" r="2"></circle><circle cx="616" cy="114" r="2"></circle><circle cx="629" cy="151" r="2"></circle><circle cx="643" cy="332" r="2"></circle><circle cx="657" cy="366" r="2"></circle></g></g><g class="key-Dubai_0"><path stroke="#3360a9" stroke-linecap="round" d="M47 528L61 524L75 495L89 494L103 490L117 487L130 485L144 420L158 397L172 402L186 412L200 424L214 426L227 429L241 485L255 470L269 484L283 475L297 456L311 471L324 469L338 477L352 478L366 473L380 463L394 465L408 488L421 468L435 434L449 447L463 443L477 431L491 405L505 344L518 297L532 271L546 169L560 297L574 232L588 123L602 112L616 126L629 159L643 337L657 375" fill="none" stroke-width="1.5"></path><g fill="#3360a9"><circle cx="47" cy="528" r="2"></circle><circle cx="61" cy="524" r="2"></circle><circle cx="75" cy="495" r="2"></circle><circle cx="89" cy="494" r="2"></circle><circle cx="103" cy="490" r="2"></circle><circle cx="117" cy="487" r="2"></circle><circle cx="130" cy="485" r="2"></circle><circle cx="144" cy="420" r="2"></circle><circle cx="158" cy="397" r="2"></circle><circle cx="172" cy="402" r="2"></circle><circle cx="186" cy="412" r="2"></circle><circle cx="200" cy="424" r="2"></circle><circle cx="214" cy="426" r="2"></circle><circle cx="227" cy="429" r="2"></circle><circle cx="241" cy="485" r="2"></circle><circle cx="255" cy="470" r="2"></circle><circle cx="269" cy="484" r="2"></circle><circle cx="283" cy="475" r="2"></circle><circle cx="297" cy="456" r="2"></circle><circle cx="311" cy="471" r="2"></circle><circle cx="324" cy="469" r="2"></circle><circle cx="338" cy="477" r="2"></circle><circle cx="352" cy="478" r="2"></circle><circle cx="366" cy="473" r="2"></circle><circle cx="380" cy="463" r="2"></circle><circle cx="394" cy="465" r="2"></circle><circle cx="408" cy="488" r="2"></circle><circle cx="421" cy="468" r="2"></circle><circle cx="435" cy="434" r="2"></circle><circle cx="449" cy="447" r="2"></circle><circle cx="463" cy="443" r="2"></circle><circle cx="477" cy="431" r="2"></circle><circle cx="491" cy="405" r="2"></circle><circle cx="505" cy="344" r="2"></circle><circle cx="518" cy="297" r="2"></circle><circle cx="532" cy="271" r="2"></circle><circle cx="546" cy="169" r="2"></circle><circle cx="560" cy="297" r="2"></circle><circle cx="574" cy="232" r="2"></circle><circle cx="588" cy="123" r="2"></circle><circle cx="602" cy="112" r="2"></circle><circle cx="616" cy="126" r="2"></circle><circle cx="629" cy="159" r="2"></circle><circle cx="643" cy="337" r="2"></circle><circle cx="657" cy="375" r="2"></circle></g></g><g class="key-Nigerian-Forcados_0"><path stroke="#f6a324" stroke-linecap="round" d="M103 485L117 480L130 482L144 422L158 392L172 395L186 406L200 421L214 426L227 428L241 479L255 464L269 477L283 464L297 443L311 457L324 459L338 468L352 472L366 468L380 453L394 460L408 486L421 466L435 425L449 441L463 438L477 424L491 387L505 319L518 275L532 246L546 142L560 290L574 221L588 94L602 92L616 101L629 142L643 324L657 363" fill="none" stroke-width="1.5"></path><g fill="#f6a324"><circle cx="103" cy="485" r="2"></circle><circle cx="117" cy="480" r="2"></circle><circle cx="130" cy="482" r="2"></circle><circle cx="144" cy="422" r="2"></circle><circle cx="158" cy="392" r="2"></circle><circle cx="172" cy="395" r="2"></circle><circle cx="186" cy="406" r="2"></circle><circle cx="200" cy="421" r="2"></circle><circle cx="214" cy="426" r="2"></circle><circle cx="227" cy="428" r="2"></circle><circle cx="241" cy="479" r="2"></circle><circle cx="255" cy="464" r="2"></circle><circle cx="269" cy="477" r="2"></circle><circle cx="283" cy="464" r="2"></circle><circle cx="297" cy="443" r="2"></circle><circle cx="311" cy="457" r="2"></circle><circle cx="324" cy="459" r="2"></circle><circle cx="338" cy="468" r="2"></circle><circle cx="352" cy="472" r="2"></circle><circle cx="366" cy="468" r="2"></circle><circle cx="380" cy="453" r="2"></circle><circle cx="394" cy="460" r="2"></circle><circle cx="408" cy="486" r="2"></circle><circle cx="421" cy="466" r="2"></circle><circle cx="435" cy="425" r="2"></circle><circle cx="449" cy="441" r="2"></circle><circle cx="463" cy="438" r="2"></circle><circle cx="477" cy="424" r="2"></circle><circle cx="491" cy="387" r="2"></circle><circle cx="505" cy="319" r="2"></circle><circle cx="518" cy="275" r="2"></circle><circle cx="532" cy="246" r="2"></circle><circle cx="546" cy="142" r="2"></circle><circle cx="560" cy="290" r="2"></circle><circle cx="574" cy="221" r="2"></circle><circle cx="588" cy="94" r="2"></circle><circle cx="602" cy="92" r="2"></circle><circle cx="616" cy="101" r="2"></circle><circle cx="629" cy="142" r="2"></circle><circle cx="643" cy="324" r="2"></circle><circle cx="657" cy="363" r="2"></circle></g></g><g class="key-West-Texas-Intermdiate_0"><path stroke="#ca2628" stroke-linecap="round" d="M103 488L117 480L130 479L144 438L158 388L172 395L186 405L200 418L214 421L227 427L241 477L255 461L269 473L283 459L297 440L311 452L324 456L338 464L352 469L366 464L380 449L394 455L408 480L421 460L435 418L449 435L463 434L477 415L491 374L505 316L518 279L532 255L546 147L560 295L574 227L588 167L602 170L616 155L629 173L643 346L657 367" fill="none" stroke-width="1.5"></path><g fill="#ca2628"><circle cx="103" cy="488" r="2"></circle><circle cx="117" cy="480" r="2"></circle><circle cx="130" cy="479" r="2"></circle><circle cx="144" cy="438" r="2"></circle><circle cx="158" cy="388" r="2"></circle><circle cx="172" cy="395" r="2"></circle><circle cx="186" cy="405" r="2"></circle><circle cx="200" cy="418" r="2"></circle><circle cx="214" cy="421" r="2"></circle><circle cx="227" cy="427" r="2"></circle><circle cx="241" cy="477" r="2"></circle><circle cx="255" cy="461" r="2"></circle><circle cx="269" cy="473" r="2"></circle><circle cx="283" cy="459" r="2"></circle><circle cx="297" cy="440" r="2"></circle><circle cx="311" cy="452" r="2"></circle><circle cx="324" cy="456" r="2"></circle><circle cx="338" cy="464" r="2"></circle><circle cx="352" cy="469" r="2"></circle><circle cx="366" cy="464" r="2"></circle><circle cx="380" cy="449" r="2"></circle><circle cx="394" cy="455" r="2"></circle><circle cx="408" cy="480" r="2"></circle><circle cx="421" cy="460" r="2"></circle><circle cx="435" cy="418" r="2"></circle><circle cx="449" cy="435" r="2"></circle><circle cx="463" cy="434" r="2"></circle><circle cx="477" cy="415" r="2"></circle><circle cx="491" cy="374" r="2"></circle><circle cx="505" cy="316" r="2"></circle><circle cx="518" cy="279" r="2"></circle><circle cx="532" cy="255" r="2"></circle><circle cx="546" cy="147" r="2"></circle><circle cx="560" cy="295" r="2"></circle><circle cx="574" cy="227" r="2"></circle><circle cx="588" cy="167" r="2"></circle><circle cx="602" cy="170" r="2"></circle><circle cx="616" cy="155" r="2"></circle><circle cx="629" cy="173" r="2"></circle><circle cx="643" cy="346" r="2"></circle><circle cx="657" cy="367" r="2"></circle></g></g></g></g></g><g class="SourcesFooter" style="fill:#777"><g class="clickable" style="fill:#777"><text font-size="12.60" x="15.0" y="581.6"><tspan x="15" y="581.58">Source: BP Statistical Review of Global Energy</tspan></text></g><text font-size="12.60" x="582.4" y="581.6"><tspan x="582.37" y="581.58"><a target='_blank' style='fill: #777;' href='https://ourworldindata.org/fossil-fuels/'>OurWorldInData.org/fossil-fuels/</a> • <a style="fill: #777;" class="cclogo" href="http://creativecommons.org/licenses/by-sa/4.0/deed.en_US" target="_blank">CC BY-SA</a></tspan></text></g></g></svg>