<svg xmlns="http://www.w3.org/2000/svg" version="1.1" style="font-family:&#x27;Helvetica Neue&#x27;, Helvetica, Arial, sans-serif;font-size:18px;background-color:white;text-rendering:optimizeLegibility;-webkit-font-smoothing:antialiased" width="850" height="600"><g class="ChartTab"><g class="HeaderView"><g opacity="0.8" transform="translate(778, 15) scale(0.27)"><a xmlns:xlink="http://www.w3.org/1999/xlink" xlink:href="https://ourworldindata.org" target="_blank"><g><rect x="0" y="0" fill="#1B2543" width="211.2" height="130.1"/><rect x="0" y="112.2" fill="#E63912" width="211.2" height="17.9"/><g><rect x="1.2" y="12.3" fill="none" width="210.2" height="99.2"/><path fill="#FFFFFF" d="M37.8,32.2c0,12.7-7.7,19.4-17.1,19.4c-9.7,0-16.6-7.5-16.6-18.7c0-11.7,7.3-19.3,17.1-19.3 C31.3,13.7,37.8,21.3,37.8,32.2z M9.2,32.8c0,7.9,4.3,14.9,11.8,14.9c7.5,0,11.8-6.9,11.8-15.3c0-7.3-3.8-14.9-11.8-14.9 C13.1,17.5,9.2,24.8,9.2,32.8z"/><path fill="#FFFFFF" d="M62.7,43.8c0,2.7,0.1,5.1,0.2,7.2h-4.3l-0.3-4.3h-0.1c-1.3,2.1-4,4.9-8.8,4.9c-4.2,0-9.1-2.3-9.1-11.6 V24.6h4.8v14.6c0,5,1.5,8.4,5.9,8.4c3.2,0,5.5-2.2,6.3-4.4c0.3-0.7,0.4-1.6,0.4-2.5V24.6h4.8V43.8z"/><path fill="#FFFFFF" d="M67.3,32.8c0-3.1-0.1-5.8-0.2-8.2h4.2l0.2,5.2h0.2c1.2-3.5,4.1-5.8,7.3-5.8c0.5,0,0.9,0.1,1.4,0.2v4.5 c-0.5-0.1-1-0.2-1.6-0.2c-3.4,0-5.8,2.6-6.5,6.2c-0.1,0.7-0.2,1.4-0.2,2.2V51h-4.8V32.8z"/><path fill="#FFFFFF" d="M95.4,51l-9.4-36.8h5l4.4,18.6c1.1,4.6,2.1,9.2,2.7,12.7h0.1c0.6-3.7,1.8-8,3-12.8l4.9-18.5h5l4.5,18.7 c1,4.4,2,8.7,2.6,12.6h0.1c0.8-4,1.8-8.1,3-12.7l4.9-18.5h4.9L120.6,51h-5L111,31.9c-1.1-4.7-1.9-8.3-2.4-12h-0.1 c-0.7,3.7-1.5,7.3-2.8,12L100.4,51H95.4z"/><path fill="#FFFFFF" d="M154.9,37.6c0,9.8-6.8,14-13.2,14c-7.2,0-12.7-5.2-12.7-13.6c0-8.8,5.8-14,13.1-14 C149.8,24,154.9,29.5,154.9,37.6z M133.9,37.9c0,5.8,3.3,10.1,8,10.1c4.6,0,8-4.3,8-10.3c0-4.5-2.2-10.1-7.9-10.1 C136.3,27.6,133.9,32.8,133.9,37.9z"/><path fill="#FFFFFF" d="M158.2,32.8c0-3.1-0.1-5.8-0.2-8.2h4.2l0.2,5.2h0.2c1.2-3.5,4.1-5.8,7.3-5.8c0.5,0,0.9,0.1,1.4,0.2v4.5 c-0.5-0.1-1-0.2-1.6-0.2c-3.4,0-5.8,2.6-6.5,6.2c-0.1,0.7-0.2,1.4-0.2,2.2V51h-4.8V32.8z"/><path fill="#FFFFFF" d="M173.5,12.3h4.8V51h-4.8V12.3z"/><path fill="#FFFFFF" d="M206.5,12.3v31.9c0,2.3,0.1,5,0.2,6.8h-4.3l-0.2-4.6H202c-1.5,2.9-4.7,5.2-9,5.2 c-6.4,0-11.3-5.4-11.3-13.4c-0.1-8.8,5.4-14.2,11.9-14.2c4,0,6.8,1.9,8,4h0.1V12.3H206.5z M201.7,35.4c0-0.6-0.1-1.4-0.2-2 c-0.7-3.1-3.3-5.6-6.9-5.6c-5,0-7.9,4.4-7.9,10.2c0,5.3,2.6,9.8,7.8,9.8c3.2,0,6.2-2.1,7.1-5.7c0.2-0.7,0.2-1.3,0.2-2.1V35.4z"/><path fill="#FFFFFF" d="M42.8,64c0.1,1.6-1.1,2.9-3.1,2.9c-1.7,0-2.9-1.3-2.9-2.9c0-1.7,1.3-3,3-3C41.7,61,42.8,62.3,42.8,64z M37.4,97.8V71.4h4.8v26.4H37.4z"/><path fill="#FFFFFF" d="M47.5,78.6c0-2.7-0.1-5-0.2-7.1h4.3l0.3,4.4h0.1c1.3-2.5,4.4-5,8.8-5c3.7,0,9.4,2.2,9.4,11.2v15.8h-4.8 V82.6c0-4.3-1.6-7.8-6.1-7.8c-3.2,0-5.6,2.2-6.5,4.9c-0.2,0.6-0.3,1.4-0.3,2.2v15.9h-4.8V78.6z"/><path fill="#FFFFFF" d="M84,61.6c2.9-0.4,6.3-0.8,10.1-0.8c6.8,0,11.7,1.6,14.9,4.6c3.3,3,5.2,7.3,5.2,13.2c0,6-1.9,10.9-5.3,14.3 c-3.4,3.4-9.1,5.3-16.3,5.3c-3.4,0-6.2-0.2-8.6-0.4V61.6z M88.8,94.1c1.2,0.2,3,0.3,4.8,0.3c10.2,0,15.7-5.7,15.7-15.6 c0.1-8.7-4.9-14.2-14.9-14.2c-2.5,0-4.3,0.2-5.6,0.5V94.1z"/><path fill="#FFFFFF" d="M132.1,97.8l-0.4-3.3h-0.2c-1.5,2.1-4.3,3.9-8.1,3.9c-5.4,0-8.1-3.8-8.1-7.6c0-6.4,5.7-9.9,15.9-9.8v-0.5 c0-2.2-0.6-6.1-6-6.1c-2.5,0-5,0.8-6.9,2l-1.1-3.2c2.2-1.4,5.4-2.3,8.7-2.3c8.1,0,10.1,5.5,10.1,10.8v9.9c0,2.3,0.1,4.5,0.4,6.3 H132.1z M131.4,84.4c-5.3-0.1-11.2,0.8-11.2,5.9c0,3.1,2.1,4.6,4.5,4.6c3.4,0,5.6-2.2,6.4-4.4c0.2-0.5,0.3-1,0.3-1.5V84.4z"/><path fill="#FFFFFF" d="M146.6,63.9v7.6h6.9v3.7h-6.9v14.2c0,3.3,0.9,5.1,3.6,5.1c1.3,0,2.2-0.2,2.8-0.3l0.2,3.6 c-0.9,0.4-2.4,0.7-4.3,0.7c-2.2,0-4-0.7-5.2-2c-1.4-1.4-1.9-3.8-1.9-6.9V75.1h-4.1v-3.7h4.1v-6.3L146.6,63.9z"/><path fill="#FFFFFF" d="M171.4,97.8l-0.4-3.3h-0.2c-1.5,2.1-4.3,3.9-8.1,3.9c-5.4,0-8.1-3.8-8.1-7.6c0-6.4,5.7-9.9,15.9-9.8v-0.5 c0-2.2-0.6-6.1-6-6.1c-2.5,0-5,0.8-6.9,2l-1.1-3.2c2.2-1.4,5.4-2.3,8.7-2.3c8.1,0,10.1,5.5,10.1,10.8v9.9c0,2.3,0.1,4.5,0.4,6.3 H171.4z M170.7,84.4c-5.3-0.1-11.2,0.8-11.2,5.9c0,3.1,2.1,4.6,4.5,4.6c3.4,0,5.6-2.2,6.4-4.4c0.2-0.5,0.3-1,0.3-1.5V84.4z"/></g></g></a></g><a href="https://ourworldindata.org/grapher/cumulative-co2-emissions-region" target="_blank"><text font-size="25.20" x="15.0" y="35.2" fill="#555"><tspan x="15" y="35.160000000000004">Cumulative CO₂ emissions by world region</tspan></text></a><text font-size="14.40" x="15.0" y="53.7" fill="#666"><tspan x="15" y="53.72">Cumulative carbon dioxide (CO₂) emissions by region from the year 1751 onwards. Emissions are based on territorial</tspan><tspan x="15" y="69.56">emissions (production-based) and do not account for emissions embedded in trade.</tspan></text></g><g class="StackedArea"><defs><clipPath id="boundsClip-300"><rect x="61.634" y="0" width="820" height="928.8"></rect></clipPath></defs><g class="AxisBoxView"><g class="HorizontalAxis"><text x="61.6" y="556.5" fill="#666" text-anchor="middle" font-size="16.2">1751</text><text x="180.1" y="556.5" fill="#666" text-anchor="middle" font-size="16.2">1800</text><text x="301.1" y="556.5" fill="#666" text-anchor="middle" font-size="16.2">1850</text><text x="422" y="556.5" fill="#666" text-anchor="middle" font-size="16.2">1900</text><text x="542.9" y="556.5" fill="#666" text-anchor="middle" font-size="16.2">1950</text><text x="700.1" y="556.5" fill="#666" text-anchor="middle" font-size="16.2">2015</text></g><g class="VerticalAxis"><text x="56.63" y="535.3" fill="#666" dominant-baseline="middle" text-anchor="end" font-size="16.2">0%</text><text x="56.63" y="446.7" fill="#666" dominant-baseline="middle" text-anchor="end" font-size="16.2">20%</text><text x="56.63" y="358" fill="#666" dominant-baseline="middle" text-anchor="end" font-size="16.2">40%</text><text x="56.63" y="269.4" fill="#666" dominant-baseline="middle" text-anchor="end" font-size="16.2">60%</text><text x="56.63" y="180.7" fill="#666" dominant-baseline="middle" text-anchor="end" font-size="16.2">80%</text><text x="56.63" y="92.1" fill="#666" dominant-baseline="middle" text-anchor="end" font-size="16.2">100%</text></g><g class="AxisGridLines"><line x1="61.63" y1="535.3" x2="700.10" y2="535.3" stroke="#ccc"></line><line x1="61.63" y1="446.7" x2="700.10" y2="446.7" stroke="#ddd" stroke-dasharray="3,2"></line><line x1="61.63" y1="358" x2="700.10" y2="358" stroke="#ddd" stroke-dasharray="3,2"></line><line x1="61.63" y1="269.4" x2="700.10" y2="269.4" stroke="#ddd" stroke-dasharray="3,2"></line><line x1="61.63" y1="180.7" x2="700.10" y2="180.7" stroke="#ddd" stroke-dasharray="3,2"></line><line x1="61.63" y1="92.1" x2="700.10" y2="92.1" stroke="#ddd" stroke-dasharray="3,2"></line></g></g><g clip-path="url(#boundsClip-300)"><g class="HeightedLegend clickable"><g class="legendMark"><g class="indicator"><line x1="705.1" y1="112.6" x2="717.6" y2="112.6" stroke="#666" stroke-width="0.5"></line><line x1="717.6" y1="112.6" x2="717.6" y2="112.6" stroke="#666" stroke-width="0.5"></line><line x1="717.6" y1="112.6" x2="730.1" y2="112.6" stroke="#666" stroke-width="0.5"></line></g><rect x="700.1" y="98.55" width="131.39" height="28.1" fill="#fff" opacity="0"></rect><text font-size="13.50" x="735.1" y="109.3" fill="#932834"><tspan x="735.1" y="109.35">Asia and Pacific</tspan><tspan x="735.1" y="124.19999999999999">(other)</tspan></text></g><g class="legendMark"><g class="indicator"><line x1="705.1" y1="161.3" x2="717.6" y2="161.3" stroke="#666" stroke-width="0.5"></line><line x1="717.6" y1="161.3" x2="717.6" y2="161.3" stroke="#666" stroke-width="0.5"></line><line x1="717.6" y1="161.3" x2="730.1" y2="161.3" stroke="#666" stroke-width="0.5"></line></g><rect x="700.1" y="154.55" width="70.37" height="13.5" fill="#fff" opacity="0"></rect><text font-size="13.50" x="735.1" y="165.4" fill="#e6332e"><tspan x="735.1" y="165.35000000000002">China</tspan></text></g><g class="legendMark"><g class="indicator"><line x1="705.1" y1="196.3" x2="724.2666666666667" y2="196.3" stroke="#666" stroke-width="0.5"></line><line x1="724.2666666666667" y1="196.3" x2="724.2666666666667" y2="196.3" stroke="#666" stroke-width="0.5"></line><line x1="724.2666666666667" y1="196.3" x2="730.1" y2="196.3" stroke="#666" stroke-width="0.5"></line></g><rect x="700.1" y="189.55" width="64.43" height="13.5" fill="#fff" opacity="0"></rect><text font-size="13.50" x="735.1" y="200.4" fill="#f6a324"><tspan x="735.1" y="200.35000000000002">India</tspan></text></g><g class="legendMark"><g class="indicator"><line x1="705.1" y1="208.8" x2="717.6" y2="208.8" stroke="#666" stroke-width="0.5"></line><line x1="717.6" y1="208.8" x2="717.6" y2="211.8" stroke="#666" stroke-width="0.5"></line><line x1="717.6" y1="211.8" x2="730.1" y2="211.8" stroke="#666" stroke-width="0.5"></line></g><rect x="700.1" y="205.05" width="69.56" height="13.5" fill="#fff" opacity="0"></rect><text font-size="13.50" x="735.1" y="215.9" fill="#3360a9"><tspan x="735.1" y="215.85000000000002">Africa</tspan></text></g><g class="legendMark"><g class="indicator"><line x1="705.1" y1="223.9" x2="710.9333333333334" y2="223.9" stroke="#666" stroke-width="0.5"></line><line x1="710.9333333333334" y1="223.9" x2="710.9333333333334" y2="227.3" stroke="#666" stroke-width="0.5"></line><line x1="710.9333333333334" y1="227.3" x2="730.1" y2="227.3" stroke="#666" stroke-width="0.5"></line></g><rect x="700.1" y="220.55" width="105.74000000000001" height="13.5" fill="#fff" opacity="0"></rect><text font-size="13.50" x="735.1" y="231.4" fill="#d26e66"><tspan x="735.1" y="231.35000000000002">Middle East</tspan></text></g><g class="legendMark"><g class="indicator"><line x1="705.1" y1="247.2" x2="717.6" y2="247.2" stroke="#666" stroke-width="0.5"></line><line x1="717.6" y1="247.2" x2="717.6" y2="247.2" stroke="#666" stroke-width="0.5"></line><line x1="717.6" y1="247.2" x2="730.1" y2="247.2" stroke="#666" stroke-width="0.5"></line></g><rect x="700.1" y="240.45" width="134.9" height="13.5" fill="#fff" opacity="0"></rect><text font-size="13.50" x="735.1" y="251.3" fill="#34983f"><tspan x="735.1" y="251.25">Americas (other)</tspan></text></g><g class="legendMark"><g class="indicator"><line x1="705.1" y1="319.4" x2="717.6" y2="319.4" stroke="#666" stroke-width="0.5"></line><line x1="717.6" y1="319.4" x2="717.6" y2="319.4" stroke="#666" stroke-width="0.5"></line><line x1="717.6" y1="319.4" x2="730.1" y2="319.4" stroke="#666" stroke-width="0.5"></line></g><rect x="700.1" y="312.65" width="116.405" height="13.5" fill="#fff" opacity="0"></rect><text font-size="13.50" x="735.1" y="323.4" fill="#2a939b"><tspan x="735.1" y="323.45">United States</tspan></text></g><g class="legendMark"><g class="indicator"><line x1="705.1" y1="406" x2="717.6" y2="406" stroke="#666" stroke-width="0.5"></line><line x1="717.6" y1="406" x2="717.6" y2="406" stroke="#666" stroke-width="0.5"></line><line x1="717.6" y1="406" x2="730.1" y2="406" stroke="#666" stroke-width="0.5"></line></g><rect x="700.1" y="399.25" width="122.345" height="13.5" fill="#fff" opacity="0"></rect><text font-size="13.50" x="735.1" y="410.1" fill="#ed6c2d"><tspan x="735.1" y="410.05">Europe (other)</tspan></text></g><g class="legendMark"><g class="indicator"><line x1="705.1" y1="484.9" x2="717.6" y2="484.9" stroke="#666" stroke-width="0.5"></line><line x1="717.6" y1="484.9" x2="717.6" y2="484.9" stroke="#666" stroke-width="0.5"></line><line x1="717.6" y1="484.9" x2="730.1" y2="484.9" stroke="#666" stroke-width="0.5"></line></g><rect x="700.1" y="478.15" width="73.34" height="13.5" fill="#fff" opacity="0"></rect><text font-size="13.50" x="735.1" y="488.9" fill="#ffd53e"><tspan x="735.1" y="488.95">EU-28</tspan></text></g></g><g class="Areas"><rect x="61.634" y="92.1" width="638.466" height="443.19999999999993" opacity="0" fill="rgba(255,255,255,0)"></rect><path class="EU__002d28_0-area" stroke-linecap="round" d="M61.6 92.1L64.1 92.1L66.5 92.1L68.9 92.1L71.3 92.1L73.7 92.1L76.1 92.1L78.6 92.1L81 92.1L83.4 92.1L85.8 92.1L88.2 92.1L90.7 92.1L93.1 92.1L95.5 92.1L97.9 92.1L100.3 92.1L102.7 92.1L105.2 92.1L107.6 92.1L110 92.1L112.4 92.1L114.8 92.1L117.3 92.1L119.7 92.1L122.1 92.1L124.5 92.1L126.9 92.1L129.4 92.1L131.8 92.1L134.2 92.1L136.6 92.1L139 92.1L141.4 92.1L143.9 92.1L146.3 92.1L148.7 92.1L151.1 92.1L153.5 92.1L156 92.1L158.4 92.1L160.8 92.1L163.2 92.1L165.6 92.1L168 92.1L170.5 92.1L172.9 92.1L175.3 92.1L177.7 92.1L180.1 92.1L182.6 92.7L185 92.6L187.4 92.6L189.8 92.6L192.2 93L194.6 93L197.1 93L199.5 93.4L201.9 93.3L204.3 93.7L206.7 93.6L209.2 93.9L211.6 93.9L214 94.2L216.4 94.1L218.8 94.4L221.3 94.6L223.7 94.5L226.1 94.7L228.5 94.9L230.9 95.1L233.3 95.3L235.8 95.4L238.2 95.6L240.6 95.7L243 95.8L245.4 96.1L247.9 96.2L250.3 96.5L252.7 96.7L255.1 96.9L257.5 97.3L259.9 97.9L262.4 98.2L264.8 98.8L267.2 99.2L269.6 99.9L272 100.3L274.5 100.8L276.9 101.3L279.3 101.7L281.7 102.3L284.1 102.9L286.5 103.7L289 104.6L291.4 105.4L293.8 106.4L296.2 107.6L298.6 108.7L301.1 109.9L303.5 111.4L305.9 113.1L308.3 114.7L310.7 116.3L313.2 118.2L315.6 119.9L318 121.6L320.4 123.1L322.8 124.8L325.2 126.4L327.7 127.6L330.1 129L332.5 130.4L334.9 131.9L337.3 133.2L339.8 134.5L342.2 136.2L344.6 138L347 140L349.4 142.1L351.8 144L354.3 146.5L356.7 148.9L359.1 151.2L361.5 153.2L363.9 155.2L366.4 157.4L368.8 159.5L371.2 162L373.6 164.7L376 167.3L378.4 170.2L380.9 173L383.3 176L385.7 178.7L388.1 181.5L390.5 184.4L393 187.8L395.4 190.5L397.8 193.7L400.2 196.8L402.6 200.1L405.1 203.3L407.5 205.8L409.9 208.7L412.3 211.3L414.7 213.7L417.1 216.5L419.6 219.5L422 222.4L424.4 225.7L426.8 229L429.2 232.7L431.7 236.2L434.1 239.7L436.5 243.4L438.9 247.4L441.3 250.3L443.7 253.6L446.2 256.9L448.6 260L451 263.1L453.4 266.2L455.8 268.9L458.3 271.7L460.7 274.7L463.1 278L465.5 281.2L467.9 284L470.3 287L472.8 289.3L475.2 291.2L477.6 294.2L480 296.4L482.4 298.5L484.9 301.2L487.3 303.2L489.7 305.1L492.1 307.1L494.5 308.7L497 310.1L499.4 311.2L501.8 312.5L504.2 313.8L506.6 315.2L509 316.9L511.5 318.5L513.9 319.7L516.3 321L518.7 322.6L521.1 324.4L523.6 325.9L526 327.7L528.4 329.7L530.8 332.2L533.2 334.2L535.6 336.3L538.1 338.2L540.5 339.6L542.9 341.3L545.3 342.8L547.7 344.3L550.2 345.8L552.6 347.1L555 348.6L557.4 350.1L559.8 351.6L562.2 353.3L564.7 355.1L567.1 356.8L569.5 358.3L571.9 359.7L574.3 361.1L576.8 362.4L579.2 363.9L581.6 365.5L584 367L586.4 368.6L588.9 370.1L591.3 371.9L593.7 373.6L596.1 375.4L598.5 377.2L600.9 378.8L603.4 380.5L605.8 382.1L608.2 383.8L610.6 385.5L613 387L615.5 388.5L617.9 390L620.3 391.4L622.7 392.8L625.1 394.2L627.5 395.7L630 397.1L632.4 398.6L634.8 400.1L637.2 401.6L639.6 403L642.1 404.4L644.5 405.6L646.9 406.9L649.3 408.1L651.7 409.2L654.1 410.4L656.6 411.5L659 412.6L661.4 413.7L663.8 414.8L666.2 415.8L668.7 416.9L671.1 418L673.5 419.2L675.9 420.5L678.3 421.8L680.8 423.1L683.2 424.4L685.6 425.8L688 427.2L690.4 428.7L692.8 430.2L695.3 431.6L697.7 433.1L700.1 434.5L700.1 535.3L61.634 535.3" fill="#ffd53e" fill-opacity="0.7"></path><path class="Europe-__0028other__0029_0-area" stroke-linecap="round" d="M61.6 92.1L64.1 92.1L66.5 92.1L68.9 92.1L71.3 92.1L73.7 92.1L76.1 92.1L78.6 92.1L81 92.1L83.4 92.1L85.8 92.1L88.2 92.1L90.7 92.1L93.1 92.1L95.5 92.1L97.9 92.1L100.3 92.1L102.7 92.1L105.2 92.1L107.6 92.1L110 92.1L112.4 92.1L114.8 92.1L117.3 92.1L119.7 92.1L122.1 92.1L124.5 92.1L126.9 92.1L129.4 92.1L131.8 92.1L134.2 92.1L136.6 92.1L139 92.1L141.4 92.1L143.9 92.1L146.3 92.1L148.7 92.1L151.1 92.1L153.5 92.1L156 92.1L158.4 92.1L160.8 92.1L163.2 92.1L165.6 92.1L168 92.1L170.5 92.1L172.9 92.1L175.3 92.1L177.7 92.1L180.1 92.1L182.6 92.7L185 92.6L187.4 92.6L189.8 92.6L192.2 93L194.6 93L197.1 93L199.5 93.4L201.9 93.3L204.3 93.7L206.7 93.6L209.2 93.9L211.6 93.9L214 94.2L216.4 94.1L218.8 94.4L221.3 94.6L223.7 94.5L226.1 94.7L228.5 94.9L230.9 95.1L233.3 95.3L235.8 95.4L238.2 95.6L240.6 95.7L243 95.8L245.4 96.1L247.9 96.2L250.3 96.5L252.7 96.7L255.1 96.9L257.5 97.3L259.9 97.9L262.4 98.2L264.8 98.8L267.2 99.2L269.6 99.9L272 100.3L274.5 100.8L276.9 101.3L279.3 101.7L281.7 102.3L284.1 102.9L286.5 103.5L289 104.5L291.4 105.3L293.8 106.3L296.2 107.5L298.6 108.6L301.1 109.8L303.5 111.3L305.9 112.9L308.3 114.6L310.7 116.2L313.2 117.9L315.6 119.7L318 121.3L320.4 122.9L322.8 124.5L325.2 125.9L327.7 127.1L330.1 128.3L332.5 129.6L334.9 130.9L337.3 132L339.8 132.9L342.2 134.3L344.6 135.8L347 137.5L349.4 139.3L351.8 140.8L354.3 142.9L356.7 145L359.1 147L361.5 148.6L363.9 150.1L366.4 151.6L368.8 153.1L371.2 155.1L373.6 157.2L376 159.3L378.4 161.6L380.9 163.9L383.3 166.3L385.7 168.6L388.1 170.9L390.5 173.3L393 176.3L395.4 178.5L397.8 181.1L400.2 183.8L402.6 186.6L405.1 189.3L407.5 191.4L409.9 193.7L412.3 195.8L414.7 197.8L417.1 199.9L419.6 202.4L422 204.8L424.4 207.6L426.8 210.4L429.2 213.8L431.7 216.9L434.1 220.3L436.5 223.6L438.9 227.4L441.3 230.1L443.7 233L446.2 236.2L448.6 239.2L451 242L453.4 244.9L455.8 247.4L458.3 250.1L460.7 253L463.1 256.3L465.5 259.9L467.9 262.9L470.3 266.2L472.8 268.7L475.2 270.8L477.6 274.1L480 276.4L482.4 278.6L484.9 281.4L487.3 283.4L489.7 285.3L492.1 287.2L494.5 288.7L497 289.7L499.4 290.4L501.8 291.3L504.2 292.1L506.6 292.9L509 293.9L511.5 294.9L513.9 295.4L516.3 296.1L518.7 296.9L521.1 298.1L523.6 299.5L526 300.8L528.4 302.6L530.8 304.7L533.2 306.2L535.6 307.7L538.1 309.1L540.5 309.8L542.9 310.6L545.3 311.4L547.7 312L550.2 312.6L552.6 312.9L555 313.3L557.4 313.7L559.8 314L562.2 314.4L564.7 315L567.1 315.5L569.5 315.8L571.9 315.9L574.3 316L576.8 316.1L579.2 316.3L581.6 316.5L584 316.8L586.4 317.2L588.9 317.6L591.3 318.3L593.7 318.9L596.1 319.6L598.5 320.4L600.9 321L603.4 321.5L605.8 322.1L608.2 322.7L610.6 323.4L613 324L615.5 324.5L617.9 325.1L620.3 325.6L622.7 326.1L625.1 326.8L627.5 327.4L630 328L632.4 328.7L634.8 329.5L637.2 330.3L639.6 331.2L642.1 332.4L644.5 333.8L646.9 335.4L649.3 337.1L651.7 338.9L654.1 340.6L656.6 342.4L659 344.2L661.4 345.9L663.8 347.6L666.2 349.3L668.7 351L671.1 352.8L673.5 354.7L675.9 356.6L678.3 358.6L680.8 360.6L683.2 362.7L685.6 364.8L688 366.9L690.4 369.1L692.8 371.2L695.3 373.3L697.7 375.5L700.1 377.6L700.1 434.5L697.7 433.1L695.3 431.6L692.8 430.2L690.4 428.7L688 427.2L685.6 425.8L683.2 424.4L680.8 423.1L678.3 421.8L675.9 420.5L673.5 419.2L671.1 418L668.7 416.9L666.2 415.8L663.8 414.8L661.4 413.7L659 412.6L656.6 411.5L654.1 410.4L651.7 409.2L649.3 408.1L646.9 406.9L644.5 405.6L642.1 404.4L639.6 403L637.2 401.6L634.8 400.1L632.4 398.6L630 397.1L627.5 395.7L625.1 394.2L622.7 392.8L620.3 391.4L617.9 390L615.5 388.5L613 387L610.6 385.5L608.2 383.8L605.8 382.1L603.4 380.5L600.9 378.8L598.5 377.2L596.1 375.4L593.7 373.6L591.3 371.9L588.9 370.1L586.4 368.6L584 367L581.6 365.5L579.2 363.9L576.8 362.4L574.3 361.1L571.9 359.7L569.5 358.3L567.1 356.8L564.7 355.1L562.2 353.3L559.8 351.6L557.4 350.1L555 348.6L552.6 347.1L550.2 345.8L547.7 344.3L545.3 342.8L542.9 341.3L540.5 339.6L538.1 338.2L535.6 336.3L533.2 334.2L530.8 332.2L528.4 329.7L526 327.7L523.6 325.9L521.1 324.4L518.7 322.6L516.3 321L513.9 319.7L511.5 318.5L509 316.9L506.6 315.2L504.2 313.8L501.8 312.5L499.4 311.2L497 310.1L494.5 308.7L492.1 307.1L489.7 305.1L487.3 303.2L484.9 301.2L482.4 298.5L480 296.4L477.6 294.2L475.2 291.2L472.8 289.3L470.3 287L467.9 284L465.5 281.2L463.1 278L460.7 274.7L458.3 271.7L455.8 268.9L453.4 266.2L451 263.1L448.6 260L446.2 256.9L443.7 253.6L441.3 250.3L438.9 247.4L436.5 243.4L434.1 239.7L431.7 236.2L429.2 232.7L426.8 229L424.4 225.7L422 222.4L419.6 219.5L417.1 216.5L414.7 213.7L412.3 211.3L409.9 208.7L407.5 205.8L405.1 203.3L402.6 200.1L400.2 196.8L397.8 193.7L395.4 190.5L393 187.8L390.5 184.4L388.1 181.5L385.7 178.7L383.3 176L380.9 173L378.4 170.2L376 167.3L373.6 164.7L371.2 162L368.8 159.5L366.4 157.4L363.9 155.2L361.5 153.2L359.1 151.2L356.7 148.9L354.3 146.5L351.8 144L349.4 142.1L347 140L344.6 138L342.2 136.2L339.8 134.5L337.3 133.2L334.9 131.9L332.5 130.4L330.1 129L327.7 127.6L325.2 126.4L322.8 124.8L320.4 123.1L318 121.6L315.6 119.9L313.2 118.2L310.7 116.3L308.3 114.7L305.9 113.1L303.5 111.4L301.1 109.9L298.6 108.7L296.2 107.6L293.8 106.4L291.4 105.4L289 104.6L286.5 103.7L284.1 102.9L281.7 102.3L279.3 101.7L276.9 101.3L274.5 100.8L272 100.3L269.6 99.9L267.2 99.2L264.8 98.8L262.4 98.2L259.9 97.9L257.5 97.3L255.1 96.9L252.7 96.7L250.3 96.5L247.9 96.2L245.4 96.1L243 95.8L240.6 95.7L238.2 95.6L235.8 95.4L233.3 95.3L230.9 95.1L228.5 94.9L226.1 94.7L223.7 94.5L221.3 94.6L218.8 94.4L216.4 94.1L214 94.2L211.6 93.9L209.2 93.9L206.7 93.6L204.3 93.7L201.9 93.3L199.5 93.4L197.1 93L194.6 93L192.2 93L189.8 92.6L187.4 92.6L185 92.6L182.6 92.7L180.1 92.1L177.7 92.1L175.3 92.1L172.9 92.1L170.5 92.1L168 92.1L165.6 92.1L163.2 92.1L160.8 92.1L158.4 92.1L156 92.1L153.5 92.1L151.1 92.1L148.7 92.1L146.3 92.1L143.9 92.1L141.4 92.1L139 92.1L136.6 92.1L134.2 92.1L131.8 92.1L129.4 92.1L126.9 92.1L124.5 92.1L122.1 92.1L119.7 92.1L117.3 92.1L114.8 92.1L112.4 92.1L110 92.1L107.6 92.1L105.2 92.1L102.7 92.1L100.3 92.1L97.9 92.1L95.5 92.1L93.1 92.1L90.7 92.1L88.2 92.1L85.8 92.1L83.4 92.1L81 92.1L78.6 92.1L76.1 92.1L73.7 92.1L71.3 92.1L68.9 92.1L66.5 92.1L64.1 92.1L61.6 92.1" fill="#ed6c2d" fill-opacity="0.7"></path><path class="United-States_0-area" stroke-linecap="round" d="M61.6 92.1L64.1 92.1L66.5 92.1L68.9 92.1L71.3 92.1L73.7 92.1L76.1 92.1L78.6 92.1L81 92.1L83.4 92.1L85.8 92.1L88.2 92.1L90.7 92.1L93.1 92.1L95.5 92.1L97.9 92.1L100.3 92.1L102.7 92.1L105.2 92.1L107.6 92.1L110 92.1L112.4 92.1L114.8 92.1L117.3 92.1L119.7 92.1L122.1 92.1L124.5 92.1L126.9 92.1L129.4 92.1L131.8 92.1L134.2 92.1L136.6 92.1L139 92.1L141.4 92.1L143.9 92.1L146.3 92.1L148.7 92.1L151.1 92.1L153.5 92.1L156 92.1L158.4 92.1L160.8 92.1L163.2 92.1L165.6 92.1L168 92.1L170.5 92.1L172.9 92.1L175.3 92.1L177.7 92.1L180.1 92.1L182.6 92.1L185 92.1L187.4 92.1L189.8 92.1L192.2 92.1L194.6 92.1L197.1 92.1L199.5 92.1L201.9 92.1L204.3 92.1L206.7 92.1L209.2 92.1L211.6 92.1L214 92.1L216.4 92.1L218.8 92.1L221.3 92.1L223.7 92.1L226.1 92.1L228.5 92.1L230.9 92.1L233.3 92.1L235.8 92.1L238.2 92.1L240.6 92.1L243 92.1L245.4 92.1L247.9 92.1L250.3 92.1L252.7 92.1L255.1 92.1L257.5 92.1L259.9 92.1L262.4 92.1L264.8 92.1L267.2 92.1L269.6 92.1L272 92.1L274.5 92.1L276.9 92.1L279.3 92.1L281.7 92.1L284.1 92.1L286.5 92.1L289 92.1L291.4 92.1L293.8 92.1L296.2 92.1L298.6 92.1L301.1 92.1L303.5 92.1L305.9 92.2L308.3 92.2L310.7 92.2L313.2 92.2L315.6 92.2L318 92.2L320.4 92.2L322.8 92.3L325.2 92.3L327.7 92.4L330.1 92.4L332.5 92.5L334.9 92.6L337.3 92.6L339.8 92.7L342.2 92.8L344.6 92.8L347 92.8L349.4 92.8L351.8 92.8L354.3 92.9L356.7 92.9L359.1 92.9L361.5 93L363.9 93.1L366.4 93.1L368.8 93.3L371.2 93.4L373.6 93.6L376 93.8L378.4 93.9L380.9 94.1L383.3 94.4L385.7 94.6L388.1 94.8L390.5 95L393 95.3L395.4 95.6L397.8 95.8L400.2 96.1L402.6 96.4L405.1 96.7L407.5 97L409.9 97.3L412.3 97.7L414.7 98L417.1 98.4L419.6 98.8L422 99.1L424.4 99.6L426.8 100.1L429.2 100.6L431.7 101.1L434.1 101.7L436.5 102.4L438.9 103.1L441.3 103.8L443.7 104.5L446.2 105.2L448.6 106L451 106.7L453.4 107.4L455.8 108.1L458.3 108.7L460.7 109.4L463.1 110.2L465.5 111L467.9 111.9L470.3 112.8L472.8 113.8L475.2 114.6L477.6 115.5L480 116.3L482.4 117L484.9 117.7L487.3 118.4L489.7 119.1L492.1 119.8L494.5 120.5L497 121.1L499.4 121.6L501.8 122.2L504.2 122.9L506.6 123.7L509 124.4L511.5 125.1L513.9 126L516.3 126.7L518.7 127.6L521.1 128.4L523.6 129.1L526 129.9L528.4 130.6L530.8 131.2L533.2 131.9L535.6 132.5L538.1 133L540.5 133.5L542.9 133.8L545.3 134.3L547.7 134.8L550.2 135.4L552.6 136L555 136.6L557.4 137.3L559.8 138.1L562.2 139.3L564.7 140.7L567.1 142.1L569.5 143.3L571.9 144.4L574.3 145.4L576.8 146.4L579.2 147.6L581.6 148.7L584 149.9L586.4 151.2L588.9 152.6L591.3 154.3L593.7 156.1L596.1 158L598.5 159.8L600.9 161.6L603.4 163.5L605.8 165.4L608.2 167.3L610.6 169.2L613 171.1L615.5 173L617.9 174.8L620.3 176.6L622.7 178.4L625.1 180.3L627.5 182.1L630 184L632.4 185.9L634.8 187.9L637.2 189.9L639.6 191.9L642.1 194.1L644.5 196.5L646.9 198.9L649.3 201.4L651.7 203.9L654.1 206.5L656.6 209L659 211.3L661.4 213.6L663.8 216L666.2 218.3L668.7 220.6L671.1 223.1L673.5 225.9L675.9 228.7L678.3 231.6L680.8 234.6L683.2 237.7L685.6 241L688 244.2L690.4 247.7L692.8 251.2L695.3 254.6L697.7 257.9L700.1 261.2L700.1 377.6L697.7 375.5L695.3 373.3L692.8 371.2L690.4 369.1L688 366.9L685.6 364.8L683.2 362.7L680.8 360.6L678.3 358.6L675.9 356.6L673.5 354.7L671.1 352.8L668.7 351L666.2 349.3L663.8 347.6L661.4 345.9L659 344.2L656.6 342.4L654.1 340.6L651.7 338.9L649.3 337.1L646.9 335.4L644.5 333.8L642.1 332.4L639.6 331.2L637.2 330.3L634.8 329.5L632.4 328.7L630 328L627.5 327.4L625.1 326.8L622.7 326.1L620.3 325.6L617.9 325.1L615.5 324.5L613 324L610.6 323.4L608.2 322.7L605.8 322.1L603.4 321.5L600.9 321L598.5 320.4L596.1 319.6L593.7 318.9L591.3 318.3L588.9 317.6L586.4 317.2L584 316.8L581.6 316.5L579.2 316.3L576.8 316.1L574.3 316L571.9 315.9L569.5 315.8L567.1 315.5L564.7 315L562.2 314.4L559.8 314L557.4 313.7L555 313.3L552.6 312.9L550.2 312.6L547.7 312L545.3 311.4L542.9 310.6L540.5 309.8L538.1 309.1L535.6 307.7L533.2 306.2L530.8 304.7L528.4 302.6L526 300.8L523.6 299.5L521.1 298.1L518.7 296.9L516.3 296.1L513.9 295.4L511.5 294.9L509 293.9L506.6 292.9L504.2 292.1L501.8 291.3L499.4 290.4L497 289.7L494.5 288.7L492.1 287.2L489.7 285.3L487.3 283.4L484.9 281.4L482.4 278.6L480 276.4L477.6 274.1L475.2 270.8L472.8 268.7L470.3 266.2L467.9 262.9L465.5 259.9L463.1 256.3L460.7 253L458.3 250.1L455.8 247.4L453.4 244.9L451 242L448.6 239.2L446.2 236.2L443.7 233L441.3 230.1L438.9 227.4L436.5 223.6L434.1 220.3L431.7 216.9L429.2 213.8L426.8 210.4L424.4 207.6L422 204.8L419.6 202.4L417.1 199.9L414.7 197.8L412.3 195.8L409.9 193.7L407.5 191.4L405.1 189.3L402.6 186.6L400.2 183.8L397.8 181.1L395.4 178.5L393 176.3L390.5 173.3L388.1 170.9L385.7 168.6L383.3 166.3L380.9 163.9L378.4 161.6L376 159.3L373.6 157.2L371.2 155.1L368.8 153.1L366.4 151.6L363.9 150.1L361.5 148.6L359.1 147L356.7 145L354.3 142.9L351.8 140.8L349.4 139.3L347 137.5L344.6 135.8L342.2 134.3L339.8 132.9L337.3 132L334.9 130.9L332.5 129.6L330.1 128.3L327.7 127.1L325.2 125.9L322.8 124.5L320.4 122.9L318 121.3L315.6 119.7L313.2 117.9L310.7 116.2L308.3 114.6L305.9 112.9L303.5 111.3L301.1 109.8L298.6 108.6L296.2 107.5L293.8 106.3L291.4 105.3L289 104.5L286.5 103.5L284.1 102.9L281.7 102.3L279.3 101.7L276.9 101.3L274.5 100.8L272 100.3L269.6 99.9L267.2 99.2L264.8 98.8L262.4 98.2L259.9 97.9L257.5 97.3L255.1 96.9L252.7 96.7L250.3 96.5L247.9 96.2L245.4 96.1L243 95.8L240.6 95.7L238.2 95.6L235.8 95.4L233.3 95.3L230.9 95.1L228.5 94.9L226.1 94.7L223.7 94.5L221.3 94.6L218.8 94.4L216.4 94.1L214 94.2L211.6 93.9L209.2 93.9L206.7 93.6L204.3 93.7L201.9 93.3L199.5 93.4L197.1 93L194.6 93L192.2 93L189.8 92.6L187.4 92.6L185 92.6L182.6 92.7L180.1 92.1L177.7 92.1L175.3 92.1L172.9 92.1L170.5 92.1L168 92.1L165.6 92.1L163.2 92.1L160.8 92.1L158.4 92.1L156 92.1L153.5 92.1L151.1 92.1L148.7 92.1L146.3 92.1L143.9 92.1L141.4 92.1L139 92.1L136.6 92.1L134.2 92.1L131.8 92.1L129.4 92.1L126.9 92.1L124.5 92.1L122.1 92.1L119.7 92.1L117.3 92.1L114.8 92.1L112.4 92.1L110 92.1L107.6 92.1L105.2 92.1L102.7 92.1L100.3 92.1L97.9 92.1L95.5 92.1L93.1 92.1L90.7 92.1L88.2 92.1L85.8 92.1L83.4 92.1L81 92.1L78.6 92.1L76.1 92.1L73.7 92.1L71.3 92.1L68.9 92.1L66.5 92.1L64.1 92.1L61.6 92.1" fill="#2a939b" fill-opacity="0.7"></path><path class="Americas-__0028other__0029_0-area" stroke-linecap="round" d="M61.6 92.1L64.1 92.1L66.5 92.1L68.9 92.1L71.3 92.1L73.7 92.1L76.1 92.1L78.6 92.1L81 92.1L83.4 92.1L85.8 92.1L88.2 92.1L90.7 92.1L93.1 92.1L95.5 92.1L97.9 92.1L100.3 92.1L102.7 92.1L105.2 92.1L107.6 92.1L110 92.1L112.4 92.1L114.8 92.1L117.3 92.1L119.7 92.1L122.1 92.1L124.5 92.1L126.9 92.1L129.4 92.1L131.8 92.1L134.2 92.1L136.6 92.1L139 92.1L141.4 92.1L143.9 92.1L146.3 92.1L148.7 92.1L151.1 92.1L153.5 92.1L156 92.1L158.4 92.1L160.8 92.1L163.2 92.1L165.6 92.1L168 92.1L170.5 92.1L172.9 92.1L175.3 92.1L177.7 92.1L180.1 92.1L182.6 92.1L185 92.1L187.4 92.1L189.8 92.1L192.2 92.1L194.6 92.1L197.1 92.1L199.5 92.1L201.9 92.1L204.3 92.1L206.7 92.1L209.2 92.1L211.6 92.1L214 92.1L216.4 92.1L218.8 92.1L221.3 92.1L223.7 92.1L226.1 92.1L228.5 92.1L230.9 92.1L233.3 92.1L235.8 92.1L238.2 92.1L240.6 92.1L243 92.1L245.4 92.1L247.9 92.1L250.3 92.1L252.7 92.1L255.1 92.1L257.5 92.1L259.9 92.1L262.4 92.1L264.8 92.1L267.2 92.1L269.6 92.1L272 92.1L274.5 92.1L276.9 92.1L279.3 92.1L281.7 92.1L284.1 92.1L286.5 92.1L289 92.1L291.4 92.1L293.8 92.1L296.2 92.1L298.6 92.1L301.1 92.1L303.5 92.1L305.9 92.1L308.3 92.1L310.7 92.1L313.2 92.1L315.6 92.1L318 92.1L320.4 92.1L322.8 92.2L325.2 92.2L327.7 92.2L330.1 92.3L332.5 92.3L334.9 92.3L337.3 92.3L339.8 92.4L342.2 92.4L344.6 92.4L347 92.4L349.4 92.4L351.8 92.4L354.3 92.4L356.7 92.4L359.1 92.4L361.5 92.4L363.9 92.5L366.4 92.5L368.8 92.6L371.2 92.7L373.6 92.8L376 92.9L378.4 92.9L380.9 93.1L383.3 93.1L385.7 93.3L388.1 93.3L390.5 93.5L393 93.6L395.4 93.7L397.8 93.8L400.2 94L402.6 94.1L405.1 94.3L407.5 94.5L409.9 94.7L412.3 95L414.7 95.2L417.1 95.5L419.6 95.8L422 96L424.4 96.3L426.8 96.6L429.2 96.9L431.7 97.3L434.1 97.6L436.5 98.1L438.9 98.5L441.3 99L443.7 99.5L446.2 99.9L448.6 100.4L451 100.8L453.4 101.1L455.8 101.6L458.3 102L460.7 102.4L463.1 102.8L465.5 103.3L467.9 103.8L470.3 104.3L472.8 104.7L475.2 105.1L477.6 105.6L480 106L482.4 106.5L484.9 106.9L487.3 107.3L489.7 107.8L492.1 108.2L494.5 108.6L497 109L499.4 109.4L501.8 109.8L504.2 110.3L506.6 110.7L509 111.3L511.5 111.8L513.9 112.3L516.3 112.9L518.7 113.5L521.1 114.1L523.6 114.6L526 115.1L528.4 115.6L530.8 115.9L533.2 116.1L535.6 116.3L538.1 116.5L540.5 116.9L542.9 117.1L545.3 117.3L547.7 117.6L550.2 118L552.6 118.3L555 118.8L557.4 119.3L559.8 119.9L562.2 120.8L564.7 122L567.1 123.4L569.5 124.4L571.9 125.3L574.3 126.1L576.8 127L579.2 128L581.6 129L584 130L586.4 131L588.9 132.3L591.3 133.8L593.7 135.4L596.1 137L598.5 138.6L600.9 140.2L603.4 141.8L605.8 143.5L608.2 145.2L610.6 146.9L613 148.5L615.5 150.1L617.9 151.7L620.3 153.3L622.7 154.9L625.1 156.6L627.5 158.3L630 160L632.4 161.8L634.8 163.6L637.2 165.4L639.6 167.2L642.1 169.4L644.5 171.6L646.9 173.8L649.3 176.2L651.7 178.5L654.1 180.9L656.6 183.2L659 185.3L661.4 187.4L663.8 189.6L666.2 191.7L668.7 193.8L671.1 196.2L673.5 198.8L675.9 201.5L678.3 204.3L680.8 207.2L683.2 210.2L685.6 213.3L688 216.5L690.4 219.9L692.8 223.3L695.3 226.6L697.7 229.9L700.1 233.1L700.1 261.2L697.7 257.9L695.3 254.6L692.8 251.2L690.4 247.7L688 244.2L685.6 241L683.2 237.7L680.8 234.6L678.3 231.6L675.9 228.7L673.5 225.9L671.1 223.1L668.7 220.6L666.2 218.3L663.8 216L661.4 213.6L659 211.3L656.6 209L654.1 206.5L651.7 203.9L649.3 201.4L646.9 198.9L644.5 196.5L642.1 194.1L639.6 191.9L637.2 189.9L634.8 187.9L632.4 185.9L630 184L627.5 182.1L625.1 180.3L622.7 178.4L620.3 176.6L617.9 174.8L615.5 173L613 171.1L610.6 169.2L608.2 167.3L605.8 165.4L603.4 163.5L600.9 161.6L598.5 159.8L596.1 158L593.7 156.1L591.3 154.3L588.9 152.6L586.4 151.2L584 149.9L581.6 148.7L579.2 147.6L576.8 146.4L574.3 145.4L571.9 144.4L569.5 143.3L567.1 142.1L564.7 140.7L562.2 139.3L559.8 138.1L557.4 137.3L555 136.6L552.6 136L550.2 135.4L547.7 134.8L545.3 134.3L542.9 133.8L540.5 133.5L538.1 133L535.6 132.5L533.2 131.9L530.8 131.2L528.4 130.6L526 129.9L523.6 129.1L521.1 128.4L518.7 127.6L516.3 126.7L513.9 126L511.5 125.1L509 124.4L506.6 123.7L504.2 122.9L501.8 122.2L499.4 121.6L497 121.1L494.5 120.5L492.1 119.8L489.7 119.1L487.3 118.4L484.9 117.7L482.4 117L480 116.3L477.6 115.5L475.2 114.6L472.8 113.8L470.3 112.8L467.9 111.9L465.5 111L463.1 110.2L460.7 109.4L458.3 108.7L455.8 108.1L453.4 107.4L451 106.7L448.6 106L446.2 105.2L443.7 104.5L441.3 103.8L438.9 103.1L436.5 102.4L434.1 101.7L431.7 101.1L429.2 100.6L426.8 100.1L424.4 99.6L422 99.1L419.6 98.8L417.1 98.4L414.7 98L412.3 97.7L409.9 97.3L407.5 97L405.1 96.7L402.6 96.4L400.2 96.1L397.8 95.8L395.4 95.6L393 95.3L390.5 95L388.1 94.8L385.7 94.6L383.3 94.4L380.9 94.1L378.4 93.9L376 93.8L373.6 93.6L371.2 93.4L368.8 93.3L366.4 93.1L363.9 93.1L361.5 93L359.1 92.9L356.7 92.9L354.3 92.9L351.8 92.8L349.4 92.8L347 92.8L344.6 92.8L342.2 92.8L339.8 92.7L337.3 92.6L334.9 92.6L332.5 92.5L330.1 92.4L327.7 92.4L325.2 92.3L322.8 92.3L320.4 92.2L318 92.2L315.6 92.2L313.2 92.2L310.7 92.2L308.3 92.2L305.9 92.2L303.5 92.1L301.1 92.1L298.6 92.1L296.2 92.1L293.8 92.1L291.4 92.1L289 92.1L286.5 92.1L284.1 92.1L281.7 92.1L279.3 92.1L276.9 92.1L274.5 92.1L272 92.1L269.6 92.1L267.2 92.1L264.8 92.1L262.4 92.1L259.9 92.1L257.5 92.1L255.1 92.1L252.7 92.1L250.3 92.1L247.9 92.1L245.4 92.1L243 92.1L240.6 92.1L238.2 92.1L235.8 92.1L233.3 92.1L230.9 92.1L228.5 92.1L226.1 92.1L223.7 92.1L221.3 92.1L218.8 92.1L216.4 92.1L214 92.1L211.6 92.1L209.2 92.1L206.7 92.1L204.3 92.1L201.9 92.1L199.5 92.1L197.1 92.1L194.6 92.1L192.2 92.1L189.8 92.1L187.4 92.1L185 92.1L182.6 92.1L180.1 92.1L177.7 92.1L175.3 92.1L172.9 92.1L170.5 92.1L168 92.1L165.6 92.1L163.2 92.1L160.8 92.1L158.4 92.1L156 92.1L153.5 92.1L151.1 92.1L148.7 92.1L146.3 92.1L143.9 92.1L141.4 92.1L139 92.1L136.6 92.1L134.2 92.1L131.8 92.1L129.4 92.1L126.9 92.1L124.5 92.1L122.1 92.1L119.7 92.1L117.3 92.1L114.8 92.1L112.4 92.1L110 92.1L107.6 92.1L105.2 92.1L102.7 92.1L100.3 92.1L97.9 92.1L95.5 92.1L93.1 92.1L90.7 92.1L88.2 92.1L85.8 92.1L83.4 92.1L81 92.1L78.6 92.1L76.1 92.1L73.7 92.1L71.3 92.1L68.9 92.1L66.5 92.1L64.1 92.1L61.6 92.1" fill="#34983f" fill-opacity="0.7"></path><path class="Middle-East_0-area" stroke-linecap="round" d="M61.6 92.1L64.1 92.1L66.5 92.1L68.9 92.1L71.3 92.1L73.7 92.1L76.1 92.1L78.6 92.1L81 92.1L83.4 92.1L85.8 92.1L88.2 92.1L90.7 92.1L93.1 92.1L95.5 92.1L97.9 92.1L100.3 92.1L102.7 92.1L105.2 92.1L107.6 92.1L110 92.1L112.4 92.1L114.8 92.1L117.3 92.1L119.7 92.1L122.1 92.1L124.5 92.1L126.9 92.1L129.4 92.1L131.8 92.1L134.2 92.1L136.6 92.1L139 92.1L141.4 92.1L143.9 92.1L146.3 92.1L148.7 92.1L151.1 92.1L153.5 92.1L156 92.1L158.4 92.1L160.8 92.1L163.2 92.1L165.6 92.1L168 92.1L170.5 92.1L172.9 92.1L175.3 92.1L177.7 92.1L180.1 92.1L182.6 92.1L185 92.1L187.4 92.1L189.8 92.1L192.2 92.1L194.6 92.1L197.1 92.1L199.5 92.1L201.9 92.1L204.3 92.1L206.7 92.1L209.2 92.1L211.6 92.1L214 92.1L216.4 92.1L218.8 92.1L221.3 92.1L223.7 92.1L226.1 92.1L228.5 92.1L230.9 92.1L233.3 92.1L235.8 92.1L238.2 92.1L240.6 92.1L243 92.1L245.4 92.1L247.9 92.1L250.3 92.1L252.7 92.1L255.1 92.1L257.5 92.1L259.9 92.1L262.4 92.1L264.8 92.1L267.2 92.1L269.6 92.1L272 92.1L274.5 92.1L276.9 92.1L279.3 92.1L281.7 92.1L284.1 92.1L286.5 92.1L289 92.1L291.4 92.1L293.8 92.1L296.2 92.1L298.6 92.1L301.1 92.1L303.5 92.1L305.9 92.1L308.3 92.1L310.7 92.1L313.2 92.1L315.6 92.1L318 92.1L320.4 92.1L322.8 92.2L325.2 92.2L327.7 92.2L330.1 92.3L332.5 92.3L334.9 92.3L337.3 92.3L339.8 92.4L342.2 92.4L344.6 92.3L347 92.3L349.4 92.3L351.8 92.3L354.3 92.3L356.7 92.3L359.1 92.3L361.5 92.3L363.9 92.4L366.4 92.4L368.8 92.5L371.2 92.6L373.6 92.7L376 92.8L378.4 92.9L380.9 93L383.3 93.1L385.7 93.2L388.1 93.2L390.5 93.4L393 93.5L395.4 93.6L397.8 93.8L400.2 93.9L402.6 94L405.1 94.2L407.5 94.4L409.9 94.6L412.3 94.9L414.7 95.1L417.1 95.4L419.6 95.6L422 95.9L424.4 96.2L426.8 96.5L429.2 96.8L431.7 97.1L434.1 97.5L436.5 97.9L438.9 98.4L441.3 98.9L443.7 99.3L446.2 99.8L448.6 100.2L451 100.6L453.4 101L455.8 101.4L458.3 101.8L460.7 102.2L463.1 102.6L465.5 103L467.9 103.6L470.3 104L472.8 104.4L475.2 104.8L477.6 105.2L480 105.6L482.4 106L484.9 106.4L487.3 106.8L489.7 107.1L492.1 107.5L494.5 107.9L497 108.2L499.4 108.5L501.8 108.9L504.2 109.3L506.6 109.7L509 110.1L511.5 110.5L513.9 111L516.3 111.4L518.7 111.9L521.1 112.5L523.6 113L526 113.4L528.4 113.7L530.8 113.9L533.2 113.9L535.6 113.9L538.1 113.9L540.5 114.1L542.9 114.3L545.3 114.5L547.7 114.8L550.2 115.2L552.6 115.6L555 116L557.4 116.4L559.8 117L562.2 117.9L564.7 119.1L567.1 120.3L569.5 121.3L571.9 122.1L574.3 122.8L576.8 123.6L579.2 124.4L581.6 125.3L584 126.1L586.4 127L588.9 128L591.3 129.3L593.7 130.7L596.1 132.1L598.5 133.5L600.9 134.8L603.4 136.2L605.8 137.6L608.2 139L610.6 140.4L613 141.8L615.5 143.2L617.9 144.5L620.3 145.9L622.7 147.2L625.1 148.7L627.5 150.2L630 151.6L632.4 153.1L634.8 154.7L637.2 156.2L639.6 157.8L642.1 159.3L644.5 161.2L646.9 163.1L649.3 165.1L651.7 167.2L654.1 169.3L656.6 171.3L659 173.1L661.4 174.9L663.8 176.7L666.2 178.4L668.7 180.3L671.1 182.3L673.5 184.5L675.9 186.8L678.3 189.2L680.8 191.8L683.2 194.4L685.6 197.1L688 199.9L690.4 202.9L692.8 205.9L695.3 208.9L697.7 211.7L700.1 214.6L700.1 233.1L697.7 229.9L695.3 226.6L692.8 223.3L690.4 219.9L688 216.5L685.6 213.3L683.2 210.2L680.8 207.2L678.3 204.3L675.9 201.5L673.5 198.8L671.1 196.2L668.7 193.8L666.2 191.7L663.8 189.6L661.4 187.4L659 185.3L656.6 183.2L654.1 180.9L651.7 178.5L649.3 176.2L646.9 173.8L644.5 171.6L642.1 169.4L639.6 167.2L637.2 165.4L634.8 163.6L632.4 161.8L630 160L627.5 158.3L625.1 156.6L622.7 154.9L620.3 153.3L617.9 151.7L615.5 150.1L613 148.5L610.6 146.9L608.2 145.2L605.8 143.5L603.4 141.8L600.9 140.2L598.5 138.6L596.1 137L593.7 135.4L591.3 133.8L588.9 132.3L586.4 131L584 130L581.6 129L579.2 128L576.8 127L574.3 126.1L571.9 125.3L569.5 124.4L567.1 123.4L564.7 122L562.2 120.8L559.8 119.9L557.4 119.3L555 118.8L552.6 118.3L550.2 118L547.7 117.6L545.3 117.3L542.9 117.1L540.5 116.9L538.1 116.5L535.6 116.3L533.2 116.1L530.8 115.9L528.4 115.6L526 115.1L523.6 114.6L521.1 114.1L518.7 113.5L516.3 112.9L513.9 112.3L511.5 111.8L509 111.3L506.6 110.7L504.2 110.3L501.8 109.8L499.4 109.4L497 109L494.5 108.6L492.1 108.2L489.7 107.8L487.3 107.3L484.9 106.9L482.4 106.5L480 106L477.6 105.6L475.2 105.1L472.8 104.7L470.3 104.3L467.9 103.8L465.5 103.3L463.1 102.8L460.7 102.4L458.3 102L455.8 101.6L453.4 101.1L451 100.8L448.6 100.4L446.2 99.9L443.7 99.5L441.3 99L438.9 98.5L436.5 98.1L434.1 97.6L431.7 97.3L429.2 96.9L426.8 96.6L424.4 96.3L422 96L419.6 95.8L417.1 95.5L414.7 95.2L412.3 95L409.9 94.7L407.5 94.5L405.1 94.3L402.6 94.1L400.2 94L397.8 93.8L395.4 93.7L393 93.6L390.5 93.5L388.1 93.3L385.7 93.3L383.3 93.1L380.9 93.1L378.4 92.9L376 92.9L373.6 92.8L371.2 92.7L368.8 92.6L366.4 92.5L363.9 92.5L361.5 92.4L359.1 92.4L356.7 92.4L354.3 92.4L351.8 92.4L349.4 92.4L347 92.4L344.6 92.4L342.2 92.4L339.8 92.4L337.3 92.3L334.9 92.3L332.5 92.3L330.1 92.3L327.7 92.2L325.2 92.2L322.8 92.2L320.4 92.1L318 92.1L315.6 92.1L313.2 92.1L310.7 92.1L308.3 92.1L305.9 92.1L303.5 92.1L301.1 92.1L298.6 92.1L296.2 92.1L293.8 92.1L291.4 92.1L289 92.1L286.5 92.1L284.1 92.1L281.7 92.1L279.3 92.1L276.9 92.1L274.5 92.1L272 92.1L269.6 92.1L267.2 92.1L264.8 92.1L262.4 92.1L259.9 92.1L257.5 92.1L255.1 92.1L252.7 92.1L250.3 92.1L247.9 92.1L245.4 92.1L243 92.1L240.6 92.1L238.2 92.1L235.8 92.1L233.3 92.1L230.9 92.1L228.5 92.1L226.1 92.1L223.7 92.1L221.3 92.1L218.8 92.1L216.4 92.1L214 92.1L211.6 92.1L209.2 92.1L206.7 92.1L204.3 92.1L201.9 92.1L199.5 92.1L197.1 92.1L194.6 92.1L192.2 92.1L189.8 92.1L187.4 92.1L185 92.1L182.6 92.1L180.1 92.1L177.7 92.1L175.3 92.1L172.9 92.1L170.5 92.1L168 92.1L165.6 92.1L163.2 92.1L160.8 92.1L158.4 92.1L156 92.1L153.5 92.1L151.1 92.1L148.7 92.1L146.3 92.1L143.9 92.1L141.4 92.1L139 92.1L136.6 92.1L134.2 92.1L131.8 92.1L129.4 92.1L126.9 92.1L124.5 92.1L122.1 92.1L119.7 92.1L117.3 92.1L114.8 92.1L112.4 92.1L110 92.1L107.6 92.1L105.2 92.1L102.7 92.1L100.3 92.1L97.9 92.1L95.5 92.1L93.1 92.1L90.7 92.1L88.2 92.1L85.8 92.1L83.4 92.1L81 92.1L78.6 92.1L76.1 92.1L73.7 92.1L71.3 92.1L68.9 92.1L66.5 92.1L64.1 92.1L61.6 92.1" fill="#d26e66" fill-opacity="0.7"></path><path class="Africa_0-area" stroke-linecap="round" d="M61.6 92.1L64.1 92.1L66.5 92.1L68.9 92.1L71.3 92.1L73.7 92.1L76.1 92.1L78.6 92.1L81 92.1L83.4 92.1L85.8 92.1L88.2 92.1L90.7 92.1L93.1 92.1L95.5 92.1L97.9 92.1L100.3 92.1L102.7 92.1L105.2 92.1L107.6 92.1L110 92.1L112.4 92.1L114.8 92.1L117.3 92.1L119.7 92.1L122.1 92.1L124.5 92.1L126.9 92.1L129.4 92.1L131.8 92.1L134.2 92.1L136.6 92.1L139 92.1L141.4 92.1L143.9 92.1L146.3 92.1L148.7 92.1L151.1 92.1L153.5 92.1L156 92.1L158.4 92.1L160.8 92.1L163.2 92.1L165.6 92.1L168 92.1L170.5 92.1L172.9 92.1L175.3 92.1L177.7 92.1L180.1 92.1L182.6 92.1L185 92.1L187.4 92.1L189.8 92.1L192.2 92.1L194.6 92.1L197.1 92.1L199.5 92.1L201.9 92.1L204.3 92.1L206.7 92.1L209.2 92.1L211.6 92.1L214 92.1L216.4 92.1L218.8 92.1L221.3 92.1L223.7 92.1L226.1 92.1L228.5 92.1L230.9 92.1L233.3 92.1L235.8 92.1L238.2 92.1L240.6 92.1L243 92.1L245.4 92.1L247.9 92.1L250.3 92.1L252.7 92.1L255.1 92.1L257.5 92.1L259.9 92.1L262.4 92.1L264.8 92.1L267.2 92.1L269.6 92.1L272 92.1L274.5 92.1L276.9 92.1L279.3 92.1L281.7 92.1L284.1 92.1L286.5 92.1L289 92.1L291.4 92.1L293.8 92.1L296.2 92.1L298.6 92.1L301.1 92.1L303.5 92.1L305.9 92.1L308.3 92.1L310.7 92.1L313.2 92.1L315.6 92.1L318 92.1L320.4 92.1L322.8 92.2L325.2 92.2L327.7 92.2L330.1 92.3L332.5 92.3L334.9 92.3L337.3 92.3L339.8 92.4L342.2 92.4L344.6 92.3L347 92.3L349.4 92.3L351.8 92.3L354.3 92.3L356.7 92.3L359.1 92.3L361.5 92.3L363.9 92.4L366.4 92.4L368.8 92.5L371.2 92.6L373.6 92.7L376 92.8L378.4 92.9L380.9 93L383.3 93.1L385.7 93.2L388.1 93.2L390.5 93.4L393 93.5L395.4 93.6L397.8 93.7L400.2 93.9L402.6 94L405.1 94.2L407.5 94.3L409.9 94.5L412.3 94.7L414.7 94.9L417.1 95.1L419.6 95.3L422 95.6L424.4 95.8L426.8 96.1L429.2 96.3L431.7 96.6L434.1 96.9L436.5 97.3L438.9 97.7L441.3 98.2L443.7 98.5L446.2 98.9L448.6 99.3L451 99.6L453.4 99.9L455.8 100.2L458.3 100.6L460.7 100.9L463.1 101.2L465.5 101.6L467.9 102.1L470.3 102.4L472.8 102.8L475.2 103.1L477.6 103.4L480 103.8L482.4 104.1L484.9 104.4L487.3 104.7L489.7 105.1L492.1 105.4L494.5 105.7L497 105.9L499.4 106.2L501.8 106.5L504.2 106.9L506.6 107.2L509 107.6L511.5 107.9L513.9 108.3L516.3 108.7L518.7 109.2L521.1 109.6L523.6 110L526 110.4L528.4 110.6L530.8 110.7L533.2 110.6L535.6 110.5L538.1 110.4L540.5 110.5L542.9 110.6L545.3 110.8L547.7 111L550.2 111.3L552.6 111.6L555 111.9L557.4 112.3L559.8 112.7L562.2 113.5L564.7 114.6L567.1 115.8L569.5 116.7L571.9 117.4L574.3 118.1L576.8 118.7L579.2 119.5L581.6 120.2L584 120.9L586.4 121.7L588.9 122.7L591.3 123.8L593.7 125.1L596.1 126.3L598.5 127.5L600.9 128.7L603.4 130L605.8 131.2L608.2 132.5L610.6 133.7L613 135L615.5 136.2L617.9 137.3L620.3 138.5L622.7 139.7L625.1 140.9L627.5 142.2L630 143.5L632.4 144.8L634.8 146.2L637.2 147.6L639.6 149L642.1 150.5L644.5 152.3L646.9 154.1L649.3 155.9L651.7 157.9L654.1 159.8L656.6 161.8L659 163.4L661.4 165.1L663.8 166.8L666.2 168.4L668.7 170.1L671.1 172L673.5 174.1L675.9 176.3L678.3 178.6L680.8 181L683.2 183.5L685.6 186.1L688 188.8L690.4 191.8L692.8 194.7L695.3 197.5L697.7 200.2L700.1 203L700.1 214.6L697.7 211.7L695.3 208.9L692.8 205.9L690.4 202.9L688 199.9L685.6 197.1L683.2 194.4L680.8 191.8L678.3 189.2L675.9 186.8L673.5 184.5L671.1 182.3L668.7 180.3L666.2 178.4L663.8 176.7L661.4 174.9L659 173.1L656.6 171.3L654.1 169.3L651.7 167.2L649.3 165.1L646.9 163.1L644.5 161.2L642.1 159.3L639.6 157.8L637.2 156.2L634.8 154.7L632.4 153.1L630 151.6L627.5 150.2L625.1 148.7L622.7 147.2L620.3 145.9L617.9 144.5L615.5 143.2L613 141.8L610.6 140.4L608.2 139L605.8 137.6L603.4 136.2L600.9 134.8L598.5 133.5L596.1 132.1L593.7 130.7L591.3 129.3L588.9 128L586.4 127L584 126.1L581.6 125.3L579.2 124.4L576.8 123.6L574.3 122.8L571.9 122.1L569.5 121.3L567.1 120.3L564.7 119.1L562.2 117.9L559.8 117L557.4 116.4L555 116L552.6 115.6L550.2 115.2L547.7 114.8L545.3 114.5L542.9 114.3L540.5 114.1L538.1 113.9L535.6 113.9L533.2 113.9L530.8 113.9L528.4 113.7L526 113.4L523.6 113L521.1 112.5L518.7 111.9L516.3 111.4L513.9 111L511.5 110.5L509 110.1L506.6 109.7L504.2 109.3L501.8 108.9L499.4 108.5L497 108.2L494.5 107.9L492.1 107.5L489.7 107.1L487.3 106.8L484.9 106.4L482.4 106L480 105.6L477.6 105.2L475.2 104.8L472.8 104.4L470.3 104L467.9 103.6L465.5 103L463.1 102.6L460.7 102.2L458.3 101.8L455.8 101.4L453.4 101L451 100.6L448.6 100.2L446.2 99.8L443.7 99.3L441.3 98.9L438.9 98.4L436.5 97.9L434.1 97.5L431.7 97.1L429.2 96.8L426.8 96.5L424.4 96.2L422 95.9L419.6 95.6L417.1 95.4L414.7 95.1L412.3 94.9L409.9 94.6L407.5 94.4L405.1 94.2L402.6 94L400.2 93.9L397.8 93.8L395.4 93.6L393 93.5L390.5 93.4L388.1 93.2L385.7 93.2L383.3 93.1L380.9 93L378.4 92.9L376 92.8L373.6 92.7L371.2 92.6L368.8 92.5L366.4 92.4L363.9 92.4L361.5 92.3L359.1 92.3L356.7 92.3L354.3 92.3L351.8 92.3L349.4 92.3L347 92.3L344.6 92.3L342.2 92.4L339.8 92.4L337.3 92.3L334.9 92.3L332.5 92.3L330.1 92.3L327.7 92.2L325.2 92.2L322.8 92.2L320.4 92.1L318 92.1L315.6 92.1L313.2 92.1L310.7 92.1L308.3 92.1L305.9 92.1L303.5 92.1L301.1 92.1L298.6 92.1L296.2 92.1L293.8 92.1L291.4 92.1L289 92.1L286.5 92.1L284.1 92.1L281.7 92.1L279.3 92.1L276.9 92.1L274.5 92.1L272 92.1L269.6 92.1L267.2 92.1L264.8 92.1L262.4 92.1L259.9 92.1L257.5 92.1L255.1 92.1L252.7 92.1L250.3 92.1L247.9 92.1L245.4 92.1L243 92.1L240.6 92.1L238.2 92.1L235.8 92.1L233.3 92.1L230.9 92.1L228.5 92.1L226.1 92.1L223.7 92.1L221.3 92.1L218.8 92.1L216.4 92.1L214 92.1L211.6 92.1L209.2 92.1L206.7 92.1L204.3 92.1L201.9 92.1L199.5 92.1L197.1 92.1L194.6 92.1L192.2 92.1L189.8 92.1L187.4 92.1L185 92.1L182.6 92.1L180.1 92.1L177.7 92.1L175.3 92.1L172.9 92.1L170.5 92.1L168 92.1L165.6 92.1L163.2 92.1L160.8 92.1L158.4 92.1L156 92.1L153.5 92.1L151.1 92.1L148.7 92.1L146.3 92.1L143.9 92.1L141.4 92.1L139 92.1L136.6 92.1L134.2 92.1L131.8 92.1L129.4 92.1L126.9 92.1L124.5 92.1L122.1 92.1L119.7 92.1L117.3 92.1L114.8 92.1L112.4 92.1L110 92.1L107.6 92.1L105.2 92.1L102.7 92.1L100.3 92.1L97.9 92.1L95.5 92.1L93.1 92.1L90.7 92.1L88.2 92.1L85.8 92.1L83.4 92.1L81 92.1L78.6 92.1L76.1 92.1L73.7 92.1L71.3 92.1L68.9 92.1L66.5 92.1L64.1 92.1L61.6 92.1" fill="#3360a9" fill-opacity="0.7"></path><path class="India_0-area" stroke-linecap="round" d="M61.6 92.1L64.1 92.1L66.5 92.1L68.9 92.1L71.3 92.1L73.7 92.1L76.1 92.1L78.6 92.1L81 92.1L83.4 92.1L85.8 92.1L88.2 92.1L90.7 92.1L93.1 92.1L95.5 92.1L97.9 92.1L100.3 92.1L102.7 92.1L105.2 92.1L107.6 92.1L110 92.1L112.4 92.1L114.8 92.1L117.3 92.1L119.7 92.1L122.1 92.1L124.5 92.1L126.9 92.1L129.4 92.1L131.8 92.1L134.2 92.1L136.6 92.1L139 92.1L141.4 92.1L143.9 92.1L146.3 92.1L148.7 92.1L151.1 92.1L153.5 92.1L156 92.1L158.4 92.1L160.8 92.1L163.2 92.1L165.6 92.1L168 92.1L170.5 92.1L172.9 92.1L175.3 92.1L177.7 92.1L180.1 92.1L182.6 92.1L185 92.1L187.4 92.1L189.8 92.1L192.2 92.1L194.6 92.1L197.1 92.1L199.5 92.1L201.9 92.1L204.3 92.1L206.7 92.1L209.2 92.1L211.6 92.1L214 92.1L216.4 92.1L218.8 92.1L221.3 92.1L223.7 92.1L226.1 92.1L228.5 92.1L230.9 92.1L233.3 92.1L235.8 92.1L238.2 92.1L240.6 92.1L243 92.1L245.4 92.1L247.9 92.1L250.3 92.1L252.7 92.1L255.1 92.1L257.5 92.1L259.9 92.1L262.4 92.1L264.8 92.1L267.2 92.1L269.6 92.1L272 92.1L274.5 92.1L276.9 92.1L279.3 92.1L281.7 92.1L284.1 92.1L286.5 92.1L289 92.1L291.4 92.1L293.8 92.1L296.2 92.1L298.6 92.1L301.1 92.1L303.5 92.1L305.9 92.1L308.3 92.1L310.7 92.1L313.2 92.1L315.6 92.1L318 92.1L320.4 92.1L322.8 92.1L325.2 92.1L327.7 92.1L330.1 92.1L332.5 92.1L334.9 92.1L337.3 92.1L339.8 92.1L342.2 92.1L344.6 92.1L347 92.1L349.4 92.1L351.8 92.1L354.3 92.1L356.7 92.1L359.1 92.1L361.5 92.2L363.9 92.2L366.4 92.2L368.8 92.3L371.2 92.3L373.6 92.4L376 92.5L378.4 92.5L380.9 92.6L383.3 92.6L385.7 92.7L388.1 92.8L390.5 92.8L393 92.9L395.4 93L397.8 93.1L400.2 93.2L402.6 93.3L405.1 93.4L407.5 93.5L409.9 93.6L412.3 93.7L414.7 93.9L417.1 94L419.6 94.2L422 94.3L424.4 94.5L426.8 94.7L429.2 94.9L431.7 95.1L434.1 95.3L436.5 95.6L438.9 95.9L441.3 96.2L443.7 96.5L446.2 96.8L448.6 97.1L451 97.3L453.4 97.5L455.8 97.8L458.3 98L460.7 98.2L463.1 98.5L465.5 98.8L467.9 99.1L470.3 99.4L472.8 99.6L475.2 99.9L477.6 100.2L480 100.5L482.4 100.7L484.9 101L487.3 101.3L489.7 101.5L492.1 101.8L494.5 102.1L497 102.3L499.4 102.5L501.8 102.8L504.2 103.1L506.6 103.4L509 103.8L511.5 104.1L513.9 104.4L516.3 104.8L518.7 105.2L521.1 105.6L523.6 106L526 106.3L528.4 106.6L530.8 106.6L533.2 106.4L535.6 106.3L538.1 106.3L540.5 106.3L542.9 106.4L545.3 106.5L547.7 106.8L550.2 107L552.6 107.3L555 107.5L557.4 107.9L559.8 108.3L562.2 109.1L564.7 110.1L567.1 111.3L569.5 112.1L571.9 112.7L574.3 113.4L576.8 114L579.2 114.6L581.6 115.4L584 116L586.4 116.7L588.9 117.6L591.3 118.8L593.7 120L596.1 121.2L598.5 122.4L600.9 123.5L603.4 124.7L605.8 125.9L608.2 127.1L610.6 128.3L613 129.5L615.5 130.6L617.9 131.7L620.3 132.8L622.7 133.9L625.1 135L627.5 136.2L630 137.4L632.4 138.5L634.8 139.8L637.2 141.1L639.6 142.3L642.1 143.6L644.5 145.2L646.9 146.8L649.3 148.4L651.7 150.2L654.1 151.9L656.6 153.6L659 155L661.4 156.4L663.8 157.8L666.2 159.2L668.7 160.7L671.1 162.4L673.5 164.2L675.9 166.2L678.3 168.2L680.8 170.4L683.2 172.6L685.6 174.8L688 177.2L690.4 179.8L692.8 182.4L695.3 184.8L697.7 187.2L700.1 189.6L700.1 203L697.7 200.2L695.3 197.5L692.8 194.7L690.4 191.8L688 188.8L685.6 186.1L683.2 183.5L680.8 181L678.3 178.6L675.9 176.3L673.5 174.1L671.1 172L668.7 170.1L666.2 168.4L663.8 166.8L661.4 165.1L659 163.4L656.6 161.8L654.1 159.8L651.7 157.9L649.3 155.9L646.9 154.1L644.5 152.3L642.1 150.5L639.6 149L637.2 147.6L634.8 146.2L632.4 144.8L630 143.5L627.5 142.2L625.1 140.9L622.7 139.7L620.3 138.5L617.9 137.3L615.5 136.2L613 135L610.6 133.7L608.2 132.5L605.8 131.2L603.4 130L600.9 128.7L598.5 127.5L596.1 126.3L593.7 125.1L591.3 123.8L588.9 122.7L586.4 121.7L584 120.9L581.6 120.2L579.2 119.5L576.8 118.7L574.3 118.1L571.9 117.4L569.5 116.7L567.1 115.8L564.7 114.6L562.2 113.5L559.8 112.7L557.4 112.3L555 111.9L552.6 111.6L550.2 111.3L547.7 111L545.3 110.8L542.9 110.6L540.5 110.5L538.1 110.4L535.6 110.5L533.2 110.6L530.8 110.7L528.4 110.6L526 110.4L523.6 110L521.1 109.6L518.7 109.2L516.3 108.7L513.9 108.3L511.5 107.9L509 107.6L506.6 107.2L504.2 106.9L501.8 106.5L499.4 106.2L497 105.9L494.5 105.7L492.1 105.4L489.7 105.1L487.3 104.7L484.9 104.4L482.4 104.1L480 103.8L477.6 103.4L475.2 103.1L472.8 102.8L470.3 102.4L467.9 102.1L465.5 101.6L463.1 101.2L460.7 100.9L458.3 100.6L455.8 100.2L453.4 99.9L451 99.6L448.6 99.3L446.2 98.9L443.7 98.5L441.3 98.2L438.9 97.7L436.5 97.3L434.1 96.9L431.7 96.6L429.2 96.3L426.8 96.1L424.4 95.8L422 95.6L419.6 95.3L417.1 95.1L414.7 94.9L412.3 94.7L409.9 94.5L407.5 94.3L405.1 94.2L402.6 94L400.2 93.9L397.8 93.7L395.4 93.6L393 93.5L390.5 93.4L388.1 93.2L385.7 93.2L383.3 93.1L380.9 93L378.4 92.9L376 92.8L373.6 92.7L371.2 92.6L368.8 92.5L366.4 92.4L363.9 92.4L361.5 92.3L359.1 92.3L356.7 92.3L354.3 92.3L351.8 92.3L349.4 92.3L347 92.3L344.6 92.3L342.2 92.4L339.8 92.4L337.3 92.3L334.9 92.3L332.5 92.3L330.1 92.3L327.7 92.2L325.2 92.2L322.8 92.2L320.4 92.1L318 92.1L315.6 92.1L313.2 92.1L310.7 92.1L308.3 92.1L305.9 92.1L303.5 92.1L301.1 92.1L298.6 92.1L296.2 92.1L293.8 92.1L291.4 92.1L289 92.1L286.5 92.1L284.1 92.1L281.7 92.1L279.3 92.1L276.9 92.1L274.5 92.1L272 92.1L269.6 92.1L267.2 92.1L264.8 92.1L262.4 92.1L259.9 92.1L257.5 92.1L255.1 92.1L252.7 92.1L250.3 92.1L247.9 92.1L245.4 92.1L243 92.1L240.6 92.1L238.2 92.1L235.8 92.1L233.3 92.1L230.9 92.1L228.5 92.1L226.1 92.1L223.7 92.1L221.3 92.1L218.8 92.1L216.4 92.1L214 92.1L211.6 92.1L209.2 92.1L206.7 92.1L204.3 92.1L201.9 92.1L199.5 92.1L197.1 92.1L194.6 92.1L192.2 92.1L189.8 92.1L187.4 92.1L185 92.1L182.6 92.1L180.1 92.1L177.7 92.1L175.3 92.1L172.9 92.1L170.5 92.1L168 92.1L165.6 92.1L163.2 92.1L160.8 92.1L158.4 92.1L156 92.1L153.5 92.1L151.1 92.1L148.7 92.1L146.3 92.1L143.9 92.1L141.4 92.1L139 92.1L136.6 92.1L134.2 92.1L131.8 92.1L129.4 92.1L126.9 92.1L124.5 92.1L122.1 92.1L119.7 92.1L117.3 92.1L114.8 92.1L112.4 92.1L110 92.1L107.6 92.1L105.2 92.1L102.7 92.1L100.3 92.1L97.9 92.1L95.5 92.1L93.1 92.1L90.7 92.1L88.2 92.1L85.8 92.1L83.4 92.1L81 92.1L78.6 92.1L76.1 92.1L73.7 92.1L71.3 92.1L68.9 92.1L66.5 92.1L64.1 92.1L61.6 92.1" fill="#f6a324" fill-opacity="0.7"></path><path class="China_0-area" stroke-linecap="round" d="M61.6 92.1L64.1 92.1L66.5 92.1L68.9 92.1L71.3 92.1L73.7 92.1L76.1 92.1L78.6 92.1L81 92.1L83.4 92.1L85.8 92.1L88.2 92.1L90.7 92.1L93.1 92.1L95.5 92.1L97.9 92.1L100.3 92.1L102.7 92.1L105.2 92.1L107.6 92.1L110 92.1L112.4 92.1L114.8 92.1L117.3 92.1L119.7 92.1L122.1 92.1L124.5 92.1L126.9 92.1L129.4 92.1L131.8 92.1L134.2 92.1L136.6 92.1L139 92.1L141.4 92.1L143.9 92.1L146.3 92.1L148.7 92.1L151.1 92.1L153.5 92.1L156 92.1L158.4 92.1L160.8 92.1L163.2 92.1L165.6 92.1L168 92.1L170.5 92.1L172.9 92.1L175.3 92.1L177.7 92.1L180.1 92.1L182.6 92.1L185 92.1L187.4 92.1L189.8 92.1L192.2 92.1L194.6 92.1L197.1 92.1L199.5 92.1L201.9 92.1L204.3 92.1L206.7 92.1L209.2 92.1L211.6 92.1L214 92.1L216.4 92.1L218.8 92.1L221.3 92.1L223.7 92.1L226.1 92.1L228.5 92.1L230.9 92.1L233.3 92.1L235.8 92.1L238.2 92.1L240.6 92.1L243 92.1L245.4 92.1L247.9 92.1L250.3 92.1L252.7 92.1L255.1 92.1L257.5 92.1L259.9 92.1L262.4 92.1L264.8 92.1L267.2 92.1L269.6 92.1L272 92.1L274.5 92.1L276.9 92.1L279.3 92.1L281.7 92.1L284.1 92.1L286.5 92.1L289 92.1L291.4 92.1L293.8 92.1L296.2 92.1L298.6 92.1L301.1 92.1L303.5 92.1L305.9 92.1L308.3 92.1L310.7 92.1L313.2 92.1L315.6 92.1L318 92.1L320.4 92.1L322.8 92.1L325.2 92.1L327.7 92.1L330.1 92.1L332.5 92.1L334.9 92.1L337.3 92.1L339.8 92.1L342.2 92.1L344.6 92.1L347 92.1L349.4 92.1L351.8 92.1L354.3 92.1L356.7 92.1L359.1 92.1L361.5 92.2L363.9 92.2L366.4 92.2L368.8 92.3L371.2 92.3L373.6 92.4L376 92.5L378.4 92.5L380.9 92.6L383.3 92.6L385.7 92.7L388.1 92.8L390.5 92.8L393 92.9L395.4 93L397.8 93.1L400.2 93.2L402.6 93.3L405.1 93.4L407.5 93.5L409.9 93.6L412.3 93.7L414.7 93.9L417.1 94L419.6 94.2L422 94.3L424.4 94.5L426.8 94.7L429.2 94.8L431.7 95L434.1 95.2L436.5 95.4L438.9 95.6L441.3 95.8L443.7 95.9L446.2 96.1L448.6 96.3L451 96.5L453.4 96.7L455.8 96.9L458.3 97L460.7 97.2L463.1 97.4L465.5 97.7L467.9 97.9L470.3 98.1L472.8 98.3L475.2 98.5L477.6 98.7L480 98.9L482.4 99.1L484.9 99.3L487.3 99.5L489.7 99.7L492.1 99.9L494.5 100.1L497 100.3L499.4 100.4L501.8 100.6L504.2 100.8L506.6 101L509 101.3L511.5 101.5L513.9 101.8L516.3 102L518.7 102.3L521.1 102.5L523.6 102.7L526 102.9L528.4 103L530.8 103L533.2 102.9L535.6 102.8L538.1 102.8L540.5 102.8L542.9 102.8L545.3 102.8L547.7 102.9L550.2 103L552.6 103.1L555 103.2L557.4 103.3L559.8 103.4L562.2 103.5L564.7 103.7L567.1 103.9L569.5 104.1L571.9 104.4L574.3 104.7L576.8 105L579.2 105.3L581.6 105.7L584 106.1L586.4 106.7L588.9 107.2L591.3 107.9L593.7 108.6L596.1 109.3L598.5 109.9L600.9 110.6L603.4 111.2L605.8 111.8L608.2 112.4L610.6 112.9L613 113.5L615.5 114L617.9 114.5L620.3 115L622.7 115.4L625.1 115.9L627.5 116.3L630 116.7L632.4 117.1L634.8 117.6L637.2 118.1L639.6 118.6L642.1 119.1L644.5 119.8L646.9 120.6L649.3 121.3L651.7 122.1L654.1 122.8L656.6 123.5L659 124.1L661.4 124.8L663.8 125.4L666.2 126.1L668.7 126.7L671.1 127.3L673.5 127.9L675.9 128.4L678.3 128.9L680.8 129.4L683.2 129.9L685.6 130.4L688 130.8L690.4 131.3L692.8 131.7L695.3 132.1L697.7 132.5L700.1 133.1L700.1 189.6L697.7 187.2L695.3 184.8L692.8 182.4L690.4 179.8L688 177.2L685.6 174.8L683.2 172.6L680.8 170.4L678.3 168.2L675.9 166.2L673.5 164.2L671.1 162.4L668.7 160.7L666.2 159.2L663.8 157.8L661.4 156.4L659 155L656.6 153.6L654.1 151.9L651.7 150.2L649.3 148.4L646.9 146.8L644.5 145.2L642.1 143.6L639.6 142.3L637.2 141.1L634.8 139.8L632.4 138.5L630 137.4L627.5 136.2L625.1 135L622.7 133.9L620.3 132.8L617.9 131.7L615.5 130.6L613 129.5L610.6 128.3L608.2 127.1L605.8 125.9L603.4 124.7L600.9 123.5L598.5 122.4L596.1 121.2L593.7 120L591.3 118.8L588.9 117.6L586.4 116.7L584 116L581.6 115.4L579.2 114.6L576.8 114L574.3 113.4L571.9 112.7L569.5 112.1L567.1 111.3L564.7 110.1L562.2 109.1L559.8 108.3L557.4 107.9L555 107.5L552.6 107.3L550.2 107L547.7 106.8L545.3 106.5L542.9 106.4L540.5 106.3L538.1 106.3L535.6 106.3L533.2 106.4L530.8 106.6L528.4 106.6L526 106.3L523.6 106L521.1 105.6L518.7 105.2L516.3 104.8L513.9 104.4L511.5 104.1L509 103.8L506.6 103.4L504.2 103.1L501.8 102.8L499.4 102.5L497 102.3L494.5 102.1L492.1 101.8L489.7 101.5L487.3 101.3L484.9 101L482.4 100.7L480 100.5L477.6 100.2L475.2 99.9L472.8 99.6L470.3 99.4L467.9 99.1L465.5 98.8L463.1 98.5L460.7 98.2L458.3 98L455.8 97.8L453.4 97.5L451 97.3L448.6 97.1L446.2 96.8L443.7 96.5L441.3 96.2L438.9 95.9L436.5 95.6L434.1 95.3L431.7 95.1L429.2 94.9L426.8 94.7L424.4 94.5L422 94.3L419.6 94.2L417.1 94L414.7 93.9L412.3 93.7L409.9 93.6L407.5 93.5L405.1 93.4L402.6 93.3L400.2 93.2L397.8 93.1L395.4 93L393 92.9L390.5 92.8L388.1 92.8L385.7 92.7L383.3 92.6L380.9 92.6L378.4 92.5L376 92.5L373.6 92.4L371.2 92.3L368.8 92.3L366.4 92.2L363.9 92.2L361.5 92.2L359.1 92.1L356.7 92.1L354.3 92.1L351.8 92.1L349.4 92.1L347 92.1L344.6 92.1L342.2 92.1L339.8 92.1L337.3 92.1L334.9 92.1L332.5 92.1L330.1 92.1L327.7 92.1L325.2 92.1L322.8 92.1L320.4 92.1L318 92.1L315.6 92.1L313.2 92.1L310.7 92.1L308.3 92.1L305.9 92.1L303.5 92.1L301.1 92.1L298.6 92.1L296.2 92.1L293.8 92.1L291.4 92.1L289 92.1L286.5 92.1L284.1 92.1L281.7 92.1L279.3 92.1L276.9 92.1L274.5 92.1L272 92.1L269.6 92.1L267.2 92.1L264.8 92.1L262.4 92.1L259.9 92.1L257.5 92.1L255.1 92.1L252.7 92.1L250.3 92.1L247.9 92.1L245.4 92.1L243 92.1L240.6 92.1L238.2 92.1L235.8 92.1L233.3 92.1L230.9 92.1L228.5 92.1L226.1 92.1L223.7 92.1L221.3 92.1L218.8 92.1L216.4 92.1L214 92.1L211.6 92.1L209.2 92.1L206.7 92.1L204.3 92.1L201.9 92.1L199.5 92.1L197.1 92.1L194.6 92.1L192.2 92.1L189.8 92.1L187.4 92.1L185 92.1L182.6 92.1L180.1 92.1L177.7 92.1L175.3 92.1L172.9 92.1L170.5 92.1L168 92.1L165.6 92.1L163.2 92.1L160.8 92.1L158.4 92.1L156 92.1L153.5 92.1L151.1 92.1L148.7 92.1L146.3 92.1L143.9 92.1L141.4 92.1L139 92.1L136.6 92.1L134.2 92.1L131.8 92.1L129.4 92.1L126.9 92.1L124.5 92.1L122.1 92.1L119.7 92.1L117.3 92.1L114.8 92.1L112.4 92.1L110 92.1L107.6 92.1L105.2 92.1L102.7 92.1L100.3 92.1L97.9 92.1L95.5 92.1L93.1 92.1L90.7 92.1L88.2 92.1L85.8 92.1L83.4 92.1L81 92.1L78.6 92.1L76.1 92.1L73.7 92.1L71.3 92.1L68.9 92.1L66.5 92.1L64.1 92.1L61.6 92.1" fill="#e6332e" fill-opacity="0.7"></path><path class="Asia-and-Pacific-__0028other__0029_0-area" stroke-linecap="round" d="M61.6 92.1L64.1 92.1L66.5 92.1L68.9 92.1L71.3 92.1L73.7 92.1L76.1 92.1L78.6 92.1L81 92.1L83.4 92.1L85.8 92.1L88.2 92.1L90.7 92.1L93.1 92.1L95.5 92.1L97.9 92.1L100.3 92.1L102.7 92.1L105.2 92.1L107.6 92.1L110 92.1L112.4 92.1L114.8 92.1L117.3 92.1L119.7 92.1L122.1 92.1L124.5 92.1L126.9 92.1L129.4 92.1L131.8 92.1L134.2 92.1L136.6 92.1L139 92.1L141.4 92.1L143.9 92.1L146.3 92.1L148.7 92.1L151.1 92.1L153.5 92.1L156 92.1L158.4 92.1L160.8 92.1L163.2 92.1L165.6 92.1L168 92.1L170.5 92.1L172.9 92.1L175.3 92.1L177.7 92.1L180.1 92.1L182.6 92.1L185 92.1L187.4 92.1L189.8 92.1L192.2 92.1L194.6 92.1L197.1 92.1L199.5 92.1L201.9 92.1L204.3 92.1L206.7 92.1L209.2 92.1L211.6 92.1L214 92.1L216.4 92.1L218.8 92.1L221.3 92.1L223.7 92.1L226.1 92.1L228.5 92.1L230.9 92.1L233.3 92.1L235.8 92.1L238.2 92.1L240.6 92.1L243 92.1L245.4 92.1L247.9 92.1L250.3 92.1L252.7 92.1L255.1 92.1L257.5 92.1L259.9 92.1L262.4 92.1L264.8 92.1L267.2 92.1L269.6 92.1L272 92.1L274.5 92.1L276.9 92.1L279.3 92.1L281.7 92.1L284.1 92.1L286.5 92.1L289 92.1L291.4 92.1L293.8 92.1L296.2 92.1L298.6 92.1L301.1 92.1L303.5 92.1L305.9 92.1L308.3 92.1L310.7 92.1L313.2 92.1L315.6 92.1L318 92.1L320.4 92.1L322.8 92.1L325.2 92.1L327.7 92.1L330.1 92.1L332.5 92.1L334.9 92.1L337.3 92.1L339.8 92.1L342.2 92.1L344.6 92.1L347 92.1L349.4 92.1L351.8 92.1L354.3 92.1L356.7 92.1L359.1 92.1L361.5 92.1L363.9 92.1L366.4 92.1L368.8 92.1L371.2 92.1L373.6 92.1L376 92.1L378.4 92.1L380.9 92.1L383.3 92.1L385.7 92.1L388.1 92.1L390.5 92.1L393 92.1L395.4 92.1L397.8 92.1L400.2 92.1L402.6 92.1L405.1 92.1L407.5 92.1L409.9 92.1L412.3 92.1L414.7 92.1L417.1 92.1L419.6 92.1L422 92.1L424.4 92.1L426.8 92.1L429.2 92.1L431.7 92.1L434.1 92.1L436.5 92.1L438.9 92.1L441.3 92.1L443.7 92.1L446.2 92.1L448.6 92.1L451 92.1L453.4 92.1L455.8 92.1L458.3 92.1L460.7 92.1L463.1 92.1L465.5 92.1L467.9 92.1L470.3 92.1L472.8 92.1L475.2 92.1L477.6 92.1L480 92.1L482.4 92.1L484.9 92.1L487.3 92.1L489.7 92.1L492.1 92.1L494.5 92.1L497 92.1L499.4 92.1L501.8 92.1L504.2 92.1L506.6 92.1L509 92.1L511.5 92.1L513.9 92.1L516.3 92.1L518.7 92.1L521.1 92.1L523.6 92.1L526 92.1L528.4 92.1L530.8 92.1L533.2 92.1L535.6 92.1L538.1 92.1L540.5 92.1L542.9 92.1L545.3 92.1L547.7 92.1L550.2 92.1L552.6 92.1L555 92.1L557.4 92.1L559.8 92.1L562.2 92.1L564.7 92.1L567.1 92.1L569.5 92.1L571.9 92.1L574.3 92.1L576.8 92.1L579.2 92.1L581.6 92.1L584 92.1L586.4 92.1L588.9 92.1L591.3 92.1L593.7 92.1L596.1 92.1L598.5 92.1L600.9 92.1L603.4 92.1L605.8 92.1L608.2 92.1L610.6 92.1L613 92.1L615.5 92.1L617.9 92.1L620.3 92.1L622.7 92.1L625.1 92.1L627.5 92.1L630 92.1L632.4 92.1L634.8 92.1L637.2 92.1L639.6 92.1L642.1 92.1L644.5 92.1L646.9 92.1L649.3 92.1L651.7 92.1L654.1 92.1L656.6 92.1L659 92.1L661.4 92.1L663.8 92.1L666.2 92.1L668.7 92.1L671.1 92.1L673.5 92.1L675.9 92.1L678.3 92.1L680.8 92.1L683.2 92.1L685.6 92.1L688 92.1L690.4 92.1L692.8 92.1L695.3 92.1L697.7 92.1L700.1 92.1L700.1 133.1L697.7 132.5L695.3 132.1L692.8 131.7L690.4 131.3L688 130.8L685.6 130.4L683.2 129.9L680.8 129.4L678.3 128.9L675.9 128.4L673.5 127.9L671.1 127.3L668.7 126.7L666.2 126.1L663.8 125.4L661.4 124.8L659 124.1L656.6 123.5L654.1 122.8L651.7 122.1L649.3 121.3L646.9 120.6L644.5 119.8L642.1 119.1L639.6 118.6L637.2 118.1L634.8 117.6L632.4 117.1L630 116.7L627.5 116.3L625.1 115.9L622.7 115.4L620.3 115L617.9 114.5L615.5 114L613 113.5L610.6 112.9L608.2 112.4L605.8 111.8L603.4 111.2L600.9 110.6L598.5 109.9L596.1 109.3L593.7 108.6L591.3 107.9L588.9 107.2L586.4 106.7L584 106.1L581.6 105.7L579.2 105.3L576.8 105L574.3 104.7L571.9 104.4L569.5 104.1L567.1 103.9L564.7 103.7L562.2 103.5L559.8 103.4L557.4 103.3L555 103.2L552.6 103.1L550.2 103L547.7 102.9L545.3 102.8L542.9 102.8L540.5 102.8L538.1 102.8L535.6 102.8L533.2 102.9L530.8 103L528.4 103L526 102.9L523.6 102.7L521.1 102.5L518.7 102.3L516.3 102L513.9 101.8L511.5 101.5L509 101.3L506.6 101L504.2 100.8L501.8 100.6L499.4 100.4L497 100.3L494.5 100.1L492.1 99.9L489.7 99.7L487.3 99.5L484.9 99.3L482.4 99.1L480 98.9L477.6 98.7L475.2 98.5L472.8 98.3L470.3 98.1L467.9 97.9L465.5 97.7L463.1 97.4L460.7 97.2L458.3 97L455.8 96.9L453.4 96.7L451 96.5L448.6 96.3L446.2 96.1L443.7 95.9L441.3 95.8L438.9 95.6L436.5 95.4L434.1 95.2L431.7 95L429.2 94.8L426.8 94.7L424.4 94.5L422 94.3L419.6 94.2L417.1 94L414.7 93.9L412.3 93.7L409.9 93.6L407.5 93.5L405.1 93.4L402.6 93.3L400.2 93.2L397.8 93.1L395.4 93L393 92.9L390.5 92.8L388.1 92.8L385.7 92.7L383.3 92.6L380.9 92.6L378.4 92.5L376 92.5L373.6 92.4L371.2 92.3L368.8 92.3L366.4 92.2L363.9 92.2L361.5 92.2L359.1 92.1L356.7 92.1L354.3 92.1L351.8 92.1L349.4 92.1L347 92.1L344.6 92.1L342.2 92.1L339.8 92.1L337.3 92.1L334.9 92.1L332.5 92.1L330.1 92.1L327.7 92.1L325.2 92.1L322.8 92.1L320.4 92.1L318 92.1L315.6 92.1L313.2 92.1L310.7 92.1L308.3 92.1L305.9 92.1L303.5 92.1L301.1 92.1L298.6 92.1L296.2 92.1L293.8 92.1L291.4 92.1L289 92.1L286.5 92.1L284.1 92.1L281.7 92.1L279.3 92.1L276.9 92.1L274.5 92.1L272 92.1L269.6 92.1L267.2 92.1L264.8 92.1L262.4 92.1L259.9 92.1L257.5 92.1L255.1 92.1L252.7 92.1L250.3 92.1L247.9 92.1L245.4 92.1L243 92.1L240.6 92.1L238.2 92.1L235.8 92.1L233.3 92.1L230.9 92.1L228.5 92.1L226.1 92.1L223.7 92.1L221.3 92.1L218.8 92.1L216.4 92.1L214 92.1L211.6 92.1L209.2 92.1L206.7 92.1L204.3 92.1L201.9 92.1L199.5 92.1L197.1 92.1L194.6 92.1L192.2 92.1L189.8 92.1L187.4 92.1L185 92.1L182.6 92.1L180.1 92.1L177.7 92.1L175.3 92.1L172.9 92.1L170.5 92.1L168 92.1L165.6 92.1L163.2 92.1L160.8 92.1L158.4 92.1L156 92.1L153.5 92.1L151.1 92.1L148.7 92.1L146.3 92.1L143.9 92.1L141.4 92.1L139 92.1L136.6 92.1L134.2 92.1L131.8 92.1L129.4 92.1L126.9 92.1L124.5 92.1L122.1 92.1L119.7 92.1L117.3 92.1L114.8 92.1L112.4 92.1L110 92.1L107.6 92.1L105.2 92.1L102.7 92.1L100.3 92.1L97.9 92.1L95.5 92.1L93.1 92.1L90.7 92.1L88.2 92.1L85.8 92.1L83.4 92.1L81 92.1L78.6 92.1L76.1 92.1L73.7 92.1L71.3 92.1L68.9 92.1L66.5 92.1L64.1 92.1L61.6 92.1" fill="#932834" fill-opacity="0.7"></path><path class="EU__002d28_0-border" stroke-linecap="round" d="M61.6 92.1L64.1 92.1L66.5 92.1L68.9 92.1L71.3 92.1L73.7 92.1L76.1 92.1L78.6 92.1L81 92.1L83.4 92.1L85.8 92.1L88.2 92.1L90.7 92.1L93.1 92.1L95.5 92.1L97.9 92.1L100.3 92.1L102.7 92.1L105.2 92.1L107.6 92.1L110 92.1L112.4 92.1L114.8 92.1L117.3 92.1L119.7 92.1L122.1 92.1L124.5 92.1L126.9 92.1L129.4 92.1L131.8 92.1L134.2 92.1L136.6 92.1L139 92.1L141.4 92.1L143.9 92.1L146.3 92.1L148.7 92.1L151.1 92.1L153.5 92.1L156 92.1L158.4 92.1L160.8 92.1L163.2 92.1L165.6 92.1L168 92.1L170.5 92.1L172.9 92.1L175.3 92.1L177.7 92.1L180.1 92.1L182.6 92.7L185 92.6L187.4 92.6L189.8 92.6L192.2 93L194.6 93L197.1 93L199.5 93.4L201.9 93.3L204.3 93.7L206.7 93.6L209.2 93.9L211.6 93.9L214 94.2L216.4 94.1L218.8 94.4L221.3 94.6L223.7 94.5L226.1 94.7L228.5 94.9L230.9 95.1L233.3 95.3L235.8 95.4L238.2 95.6L240.6 95.7L243 95.8L245.4 96.1L247.9 96.2L250.3 96.5L252.7 96.7L255.1 96.9L257.5 97.3L259.9 97.9L262.4 98.2L264.8 98.8L267.2 99.2L269.6 99.9L272 100.3L274.5 100.8L276.9 101.3L279.3 101.7L281.7 102.3L284.1 102.9L286.5 103.7L289 104.6L291.4 105.4L293.8 106.4L296.2 107.6L298.6 108.7L301.1 109.9L303.5 111.4L305.9 113.1L308.3 114.7L310.7 116.3L313.2 118.2L315.6 119.9L318 121.6L320.4 123.1L322.8 124.8L325.2 126.4L327.7 127.6L330.1 129L332.5 130.4L334.9 131.9L337.3 133.2L339.8 134.5L342.2 136.2L344.6 138L347 140L349.4 142.1L351.8 144L354.3 146.5L356.7 148.9L359.1 151.2L361.5 153.2L363.9 155.2L366.4 157.4L368.8 159.5L371.2 162L373.6 164.7L376 167.3L378.4 170.2L380.9 173L383.3 176L385.7 178.7L388.1 181.5L390.5 184.4L393 187.8L395.4 190.5L397.8 193.7L400.2 196.8L402.6 200.1L405.1 203.3L407.5 205.8L409.9 208.7L412.3 211.3L414.7 213.7L417.1 216.5L419.6 219.5L422 222.4L424.4 225.7L426.8 229L429.2 232.7L431.7 236.2L434.1 239.7L436.5 243.4L438.9 247.4L441.3 250.3L443.7 253.6L446.2 256.9L448.6 260L451 263.1L453.4 266.2L455.8 268.9L458.3 271.7L460.7 274.7L463.1 278L465.5 281.2L467.9 284L470.3 287L472.8 289.3L475.2 291.2L477.6 294.2L480 296.4L482.4 298.5L484.9 301.2L487.3 303.2L489.7 305.1L492.1 307.1L494.5 308.7L497 310.1L499.4 311.2L501.8 312.5L504.2 313.8L506.6 315.2L509 316.9L511.5 318.5L513.9 319.7L516.3 321L518.7 322.6L521.1 324.4L523.6 325.9L526 327.7L528.4 329.7L530.8 332.2L533.2 334.2L535.6 336.3L538.1 338.2L540.5 339.6L542.9 341.3L545.3 342.8L547.7 344.3L550.2 345.8L552.6 347.1L555 348.6L557.4 350.1L559.8 351.6L562.2 353.3L564.7 355.1L567.1 356.8L569.5 358.3L571.9 359.7L574.3 361.1L576.8 362.4L579.2 363.9L581.6 365.5L584 367L586.4 368.6L588.9 370.1L591.3 371.9L593.7 373.6L596.1 375.4L598.5 377.2L600.9 378.8L603.4 380.5L605.8 382.1L608.2 383.8L610.6 385.5L613 387L615.5 388.5L617.9 390L620.3 391.4L622.7 392.8L625.1 394.2L627.5 395.7L630 397.1L632.4 398.6L634.8 400.1L637.2 401.6L639.6 403L642.1 404.4L644.5 405.6L646.9 406.9L649.3 408.1L651.7 409.2L654.1 410.4L656.6 411.5L659 412.6L661.4 413.7L663.8 414.8L666.2 415.8L668.7 416.9L671.1 418L673.5 419.2L675.9 420.5L678.3 421.8L680.8 423.1L683.2 424.4L685.6 425.8L688 427.2L690.4 428.7L692.8 430.2L695.3 431.6L697.7 433.1L700.1 434.5" stroke="rgb(213, 178, 52)" stroke-opacity="0.7" stroke-width="0.5" fill="none"></path><path class="Europe-__0028other__0029_0-border" stroke-linecap="round" d="M61.6 92.1L64.1 92.1L66.5 92.1L68.9 92.1L71.3 92.1L73.7 92.1L76.1 92.1L78.6 92.1L81 92.1L83.4 92.1L85.8 92.1L88.2 92.1L90.7 92.1L93.1 92.1L95.5 92.1L97.9 92.1L100.3 92.1L102.7 92.1L105.2 92.1L107.6 92.1L110 92.1L112.4 92.1L114.8 92.1L117.3 92.1L119.7 92.1L122.1 92.1L124.5 92.1L126.9 92.1L129.4 92.1L131.8 92.1L134.2 92.1L136.6 92.1L139 92.1L141.4 92.1L143.9 92.1L146.3 92.1L148.7 92.1L151.1 92.1L153.5 92.1L156 92.1L158.4 92.1L160.8 92.1L163.2 92.1L165.6 92.1L168 92.1L170.5 92.1L172.9 92.1L175.3 92.1L177.7 92.1L180.1 92.1L182.6 92.7L185 92.6L187.4 92.6L189.8 92.6L192.2 93L194.6 93L197.1 93L199.5 93.4L201.9 93.3L204.3 93.7L206.7 93.6L209.2 93.9L211.6 93.9L214 94.2L216.4 94.1L218.8 94.4L221.3 94.6L223.7 94.5L226.1 94.7L228.5 94.9L230.9 95.1L233.3 95.3L235.8 95.4L238.2 95.6L240.6 95.7L243 95.8L245.4 96.1L247.9 96.2L250.3 96.5L252.7 96.7L255.1 96.9L257.5 97.3L259.9 97.9L262.4 98.2L264.8 98.8L267.2 99.2L269.6 99.9L272 100.3L274.5 100.8L276.9 101.3L279.3 101.7L281.7 102.3L284.1 102.9L286.5 103.5L289 104.5L291.4 105.3L293.8 106.3L296.2 107.5L298.6 108.6L301.1 109.8L303.5 111.3L305.9 112.9L308.3 114.6L310.7 116.2L313.2 117.9L315.6 119.7L318 121.3L320.4 122.9L322.8 124.5L325.2 125.9L327.7 127.1L330.1 128.3L332.5 129.6L334.9 130.9L337.3 132L339.8 132.9L342.2 134.3L344.6 135.8L347 137.5L349.4 139.3L351.8 140.8L354.3 142.9L356.7 145L359.1 147L361.5 148.6L363.9 150.1L366.4 151.6L368.8 153.1L371.2 155.1L373.6 157.2L376 159.3L378.4 161.6L380.9 163.9L383.3 166.3L385.7 168.6L388.1 170.9L390.5 173.3L393 176.3L395.4 178.5L397.8 181.1L400.2 183.8L402.6 186.6L405.1 189.3L407.5 191.4L409.9 193.7L412.3 195.8L414.7 197.8L417.1 199.9L419.6 202.4L422 204.8L424.4 207.6L426.8 210.4L429.2 213.8L431.7 216.9L434.1 220.3L436.5 223.6L438.9 227.4L441.3 230.1L443.7 233L446.2 236.2L448.6 239.2L451 242L453.4 244.9L455.8 247.4L458.3 250.1L460.7 253L463.1 256.3L465.5 259.9L467.9 262.9L470.3 266.2L472.8 268.7L475.2 270.8L477.6 274.1L480 276.4L482.4 278.6L484.9 281.4L487.3 283.4L489.7 285.3L492.1 287.2L494.5 288.7L497 289.7L499.4 290.4L501.8 291.3L504.2 292.1L506.6 292.9L509 293.9L511.5 294.9L513.9 295.4L516.3 296.1L518.7 296.9L521.1 298.1L523.6 299.5L526 300.8L528.4 302.6L530.8 304.7L533.2 306.2L535.6 307.7L538.1 309.1L540.5 309.8L542.9 310.6L545.3 311.4L547.7 312L550.2 312.6L552.6 312.9L555 313.3L557.4 313.7L559.8 314L562.2 314.4L564.7 315L567.1 315.5L569.5 315.8L571.9 315.9L574.3 316L576.8 316.1L579.2 316.3L581.6 316.5L584 316.8L586.4 317.2L588.9 317.6L591.3 318.3L593.7 318.9L596.1 319.6L598.5 320.4L600.9 321L603.4 321.5L605.8 322.1L608.2 322.7L610.6 323.4L613 324L615.5 324.5L617.9 325.1L620.3 325.6L622.7 326.1L625.1 326.8L627.5 327.4L630 328L632.4 328.7L634.8 329.5L637.2 330.3L639.6 331.2L642.1 332.4L644.5 333.8L646.9 335.4L649.3 337.1L651.7 338.9L654.1 340.6L656.6 342.4L659 344.2L661.4 345.9L663.8 347.6L666.2 349.3L668.7 351L671.1 352.8L673.5 354.7L675.9 356.6L678.3 358.6L680.8 360.6L683.2 362.7L685.6 364.8L688 366.9L690.4 369.1L692.8 371.2L695.3 373.3L697.7 375.5L700.1 377.6" stroke="rgb(198, 90, 38)" stroke-opacity="0.7" stroke-width="0.5" fill="none"></path><path class="United-States_0-border" stroke-linecap="round" d="M61.6 92.1L64.1 92.1L66.5 92.1L68.9 92.1L71.3 92.1L73.7 92.1L76.1 92.1L78.6 92.1L81 92.1L83.4 92.1L85.8 92.1L88.2 92.1L90.7 92.1L93.1 92.1L95.5 92.1L97.9 92.1L100.3 92.1L102.7 92.1L105.2 92.1L107.6 92.1L110 92.1L112.4 92.1L114.8 92.1L117.3 92.1L119.7 92.1L122.1 92.1L124.5 92.1L126.9 92.1L129.4 92.1L131.8 92.1L134.2 92.1L136.6 92.1L139 92.1L141.4 92.1L143.9 92.1L146.3 92.1L148.7 92.1L151.1 92.1L153.5 92.1L156 92.1L158.4 92.1L160.8 92.1L163.2 92.1L165.6 92.1L168 92.1L170.5 92.1L172.9 92.1L175.3 92.1L177.7 92.1L180.1 92.1L182.6 92.1L185 92.1L187.4 92.1L189.8 92.1L192.2 92.1L194.6 92.1L197.1 92.1L199.5 92.1L201.9 92.1L204.3 92.1L206.7 92.1L209.2 92.1L211.6 92.1L214 92.1L216.4 92.1L218.8 92.1L221.3 92.1L223.7 92.1L226.1 92.1L228.5 92.1L230.9 92.1L233.3 92.1L235.8 92.1L238.2 92.1L240.6 92.1L243 92.1L245.4 92.1L247.9 92.1L250.3 92.1L252.7 92.1L255.1 92.1L257.5 92.1L259.9 92.1L262.4 92.1L264.8 92.1L267.2 92.1L269.6 92.1L272 92.1L274.5 92.1L276.9 92.1L279.3 92.1L281.7 92.1L284.1 92.1L286.5 92.1L289 92.1L291.4 92.1L293.8 92.1L296.2 92.1L298.6 92.1L301.1 92.1L303.5 92.1L305.9 92.2L308.3 92.2L310.7 92.2L313.2 92.2L315.6 92.2L318 92.2L320.4 92.2L322.8 92.3L325.2 92.3L327.7 92.4L330.1 92.4L332.5 92.5L334.9 92.6L337.3 92.6L339.8 92.7L342.2 92.8L344.6 92.8L347 92.8L349.4 92.8L351.8 92.8L354.3 92.9L356.7 92.9L359.1 92.9L361.5 93L363.9 93.1L366.4 93.1L368.8 93.3L371.2 93.4L373.6 93.6L376 93.8L378.4 93.9L380.9 94.1L383.3 94.4L385.7 94.6L388.1 94.8L390.5 95L393 95.3L395.4 95.6L397.8 95.8L400.2 96.1L402.6 96.4L405.1 96.7L407.5 97L409.9 97.3L412.3 97.7L414.7 98L417.1 98.4L419.6 98.8L422 99.1L424.4 99.6L426.8 100.1L429.2 100.6L431.7 101.1L434.1 101.7L436.5 102.4L438.9 103.1L441.3 103.8L443.7 104.5L446.2 105.2L448.6 106L451 106.7L453.4 107.4L455.8 108.1L458.3 108.7L460.7 109.4L463.1 110.2L465.5 111L467.9 111.9L470.3 112.8L472.8 113.8L475.2 114.6L477.6 115.5L480 116.3L482.4 117L484.9 117.7L487.3 118.4L489.7 119.1L492.1 119.8L494.5 120.5L497 121.1L499.4 121.6L501.8 122.2L504.2 122.9L506.6 123.7L509 124.4L511.5 125.1L513.9 126L516.3 126.7L518.7 127.6L521.1 128.4L523.6 129.1L526 129.9L528.4 130.6L530.8 131.2L533.2 131.9L535.6 132.5L538.1 133L540.5 133.5L542.9 133.8L545.3 134.3L547.7 134.8L550.2 135.4L552.6 136L555 136.6L557.4 137.3L559.8 138.1L562.2 139.3L564.7 140.7L567.1 142.1L569.5 143.3L571.9 144.4L574.3 145.4L576.8 146.4L579.2 147.6L581.6 148.7L584 149.9L586.4 151.2L588.9 152.6L591.3 154.3L593.7 156.1L596.1 158L598.5 159.8L600.9 161.6L603.4 163.5L605.8 165.4L608.2 167.3L610.6 169.2L613 171.1L615.5 173L617.9 174.8L620.3 176.6L622.7 178.4L625.1 180.3L627.5 182.1L630 184L632.4 185.9L634.8 187.9L637.2 189.9L639.6 191.9L642.1 194.1L644.5 196.5L646.9 198.9L649.3 201.4L651.7 203.9L654.1 206.5L656.6 209L659 211.3L661.4 213.6L663.8 216L666.2 218.3L668.7 220.6L671.1 223.1L673.5 225.9L675.9 228.7L678.3 231.6L680.8 234.6L683.2 237.7L685.6 241L688 244.2L690.4 247.7L692.8 251.2L695.3 254.6L697.7 257.9L700.1 261.2" stroke="rgb(35, 123, 130)" stroke-opacity="0.7" stroke-width="0.5" fill="none"></path><path class="Americas-__0028other__0029_0-border" stroke-linecap="round" d="M61.6 92.1L64.1 92.1L66.5 92.1L68.9 92.1L71.3 92.1L73.7 92.1L76.1 92.1L78.6 92.1L81 92.1L83.4 92.1L85.8 92.1L88.2 92.1L90.7 92.1L93.1 92.1L95.5 92.1L97.9 92.1L100.3 92.1L102.7 92.1L105.2 92.1L107.6 92.1L110 92.1L112.4 92.1L114.8 92.1L117.3 92.1L119.7 92.1L122.1 92.1L124.5 92.1L126.9 92.1L129.4 92.1L131.8 92.1L134.2 92.1L136.6 92.1L139 92.1L141.4 92.1L143.9 92.1L146.3 92.1L148.7 92.1L151.1 92.1L153.5 92.1L156 92.1L158.4 92.1L160.8 92.1L163.2 92.1L165.6 92.1L168 92.1L170.5 92.1L172.9 92.1L175.3 92.1L177.7 92.1L180.1 92.1L182.6 92.1L185 92.1L187.4 92.1L189.8 92.1L192.2 92.1L194.6 92.1L197.1 92.1L199.5 92.1L201.9 92.1L204.3 92.1L206.7 92.1L209.2 92.1L211.6 92.1L214 92.1L216.4 92.1L218.8 92.1L221.3 92.1L223.7 92.1L226.1 92.1L228.5 92.1L230.9 92.1L233.3 92.1L235.8 92.1L238.2 92.1L240.6 92.1L243 92.1L245.4 92.1L247.9 92.1L250.3 92.1L252.7 92.1L255.1 92.1L257.5 92.1L259.9 92.1L262.4 92.1L264.8 92.1L267.2 92.1L269.6 92.1L272 92.1L274.5 92.1L276.9 92.1L279.3 92.1L281.7 92.1L284.1 92.1L286.5 92.1L289 92.1L291.4 92.1L293.8 92.1L296.2 92.1L298.6 92.1L301.1 92.1L303.5 92.1L305.9 92.1L308.3 92.1L310.7 92.1L313.2 92.1L315.6 92.1L318 92.1L320.4 92.1L322.8 92.2L325.2 92.2L327.7 92.2L330.1 92.3L332.5 92.3L334.9 92.3L337.3 92.3L339.8 92.4L342.2 92.4L344.6 92.4L347 92.4L349.4 92.4L351.8 92.4L354.3 92.4L356.7 92.4L359.1 92.4L361.5 92.4L363.9 92.5L366.4 92.5L368.8 92.6L371.2 92.7L373.6 92.8L376 92.9L378.4 92.9L380.9 93.1L383.3 93.1L385.7 93.3L388.1 93.3L390.5 93.5L393 93.6L395.4 93.7L397.8 93.8L400.2 94L402.6 94.1L405.1 94.3L407.5 94.5L409.9 94.7L412.3 95L414.7 95.2L417.1 95.5L419.6 95.8L422 96L424.4 96.3L426.8 96.6L429.2 96.9L431.7 97.3L434.1 97.6L436.5 98.1L438.9 98.5L441.3 99L443.7 99.5L446.2 99.9L448.6 100.4L451 100.8L453.4 101.1L455.8 101.6L458.3 102L460.7 102.4L463.1 102.8L465.5 103.3L467.9 103.8L470.3 104.3L472.8 104.7L475.2 105.1L477.6 105.6L480 106L482.4 106.5L484.9 106.9L487.3 107.3L489.7 107.8L492.1 108.2L494.5 108.6L497 109L499.4 109.4L501.8 109.8L504.2 110.3L506.6 110.7L509 111.3L511.5 111.8L513.9 112.3L516.3 112.9L518.7 113.5L521.1 114.1L523.6 114.6L526 115.1L528.4 115.6L530.8 115.9L533.2 116.1L535.6 116.3L538.1 116.5L540.5 116.9L542.9 117.1L545.3 117.3L547.7 117.6L550.2 118L552.6 118.3L555 118.8L557.4 119.3L559.8 119.9L562.2 120.8L564.7 122L567.1 123.4L569.5 124.4L571.9 125.3L574.3 126.1L576.8 127L579.2 128L581.6 129L584 130L586.4 131L588.9 132.3L591.3 133.8L593.7 135.4L596.1 137L598.5 138.6L600.9 140.2L603.4 141.8L605.8 143.5L608.2 145.2L610.6 146.9L613 148.5L615.5 150.1L617.9 151.7L620.3 153.3L622.7 154.9L625.1 156.6L627.5 158.3L630 160L632.4 161.8L634.8 163.6L637.2 165.4L639.6 167.2L642.1 169.4L644.5 171.6L646.9 173.8L649.3 176.2L651.7 178.5L654.1 180.9L656.6 183.2L659 185.3L661.4 187.4L663.8 189.6L666.2 191.7L668.7 193.8L671.1 196.2L673.5 198.8L675.9 201.5L678.3 204.3L680.8 207.2L683.2 210.2L685.6 213.3L688 216.5L690.4 219.9L692.8 223.3L695.3 226.6L697.7 229.9L700.1 233.1" stroke="rgb(44, 127, 53)" stroke-opacity="0.7" stroke-width="0.5" fill="none"></path><path class="Middle-East_0-border" stroke-linecap="round" d="M61.6 92.1L64.1 92.1L66.5 92.1L68.9 92.1L71.3 92.1L73.7 92.1L76.1 92.1L78.6 92.1L81 92.1L83.4 92.1L85.8 92.1L88.2 92.1L90.7 92.1L93.1 92.1L95.5 92.1L97.9 92.1L100.3 92.1L102.7 92.1L105.2 92.1L107.6 92.1L110 92.1L112.4 92.1L114.8 92.1L117.3 92.1L119.7 92.1L122.1 92.1L124.5 92.1L126.9 92.1L129.4 92.1L131.8 92.1L134.2 92.1L136.6 92.1L139 92.1L141.4 92.1L143.9 92.1L146.3 92.1L148.7 92.1L151.1 92.1L153.5 92.1L156 92.1L158.4 92.1L160.8 92.1L163.2 92.1L165.6 92.1L168 92.1L170.5 92.1L172.9 92.1L175.3 92.1L177.7 92.1L180.1 92.1L182.6 92.1L185 92.1L187.4 92.1L189.8 92.1L192.2 92.1L194.6 92.1L197.1 92.1L199.5 92.1L201.9 92.1L204.3 92.1L206.7 92.1L209.2 92.1L211.6 92.1L214 92.1L216.4 92.1L218.8 92.1L221.3 92.1L223.7 92.1L226.1 92.1L228.5 92.1L230.9 92.1L233.3 92.1L235.8 92.1L238.2 92.1L240.6 92.1L243 92.1L245.4 92.1L247.9 92.1L250.3 92.1L252.7 92.1L255.1 92.1L257.5 92.1L259.9 92.1L262.4 92.1L264.8 92.1L267.2 92.1L269.6 92.1L272 92.1L274.5 92.1L276.9 92.1L279.3 92.1L281.7 92.1L284.1 92.1L286.5 92.1L289 92.1L291.4 92.1L293.8 92.1L296.2 92.1L298.6 92.1L301.1 92.1L303.5 92.1L305.9 92.1L308.3 92.1L310.7 92.1L313.2 92.1L315.6 92.1L318 92.1L320.4 92.1L322.8 92.2L325.2 92.2L327.7 92.2L330.1 92.3L332.5 92.3L334.9 92.3L337.3 92.3L339.8 92.4L342.2 92.4L344.6 92.3L347 92.3L349.4 92.3L351.8 92.3L354.3 92.3L356.7 92.3L359.1 92.3L361.5 92.3L363.9 92.4L366.4 92.4L368.8 92.5L371.2 92.6L373.6 92.7L376 92.8L378.4 92.9L380.9 93L383.3 93.1L385.7 93.2L388.1 93.2L390.5 93.4L393 93.5L395.4 93.6L397.8 93.8L400.2 93.9L402.6 94L405.1 94.2L407.5 94.4L409.9 94.6L412.3 94.9L414.7 95.1L417.1 95.4L419.6 95.6L422 95.9L424.4 96.2L426.8 96.5L429.2 96.8L431.7 97.1L434.1 97.5L436.5 97.9L438.9 98.4L441.3 98.9L443.7 99.3L446.2 99.8L448.6 100.2L451 100.6L453.4 101L455.8 101.4L458.3 101.8L460.7 102.2L463.1 102.6L465.5 103L467.9 103.6L470.3 104L472.8 104.4L475.2 104.8L477.6 105.2L480 105.6L482.4 106L484.9 106.4L487.3 106.8L489.7 107.1L492.1 107.5L494.5 107.9L497 108.2L499.4 108.5L501.8 108.9L504.2 109.3L506.6 109.7L509 110.1L511.5 110.5L513.9 111L516.3 111.4L518.7 111.9L521.1 112.5L523.6 113L526 113.4L528.4 113.7L530.8 113.9L533.2 113.9L535.6 113.9L538.1 113.9L540.5 114.1L542.9 114.3L545.3 114.5L547.7 114.8L550.2 115.2L552.6 115.6L555 116L557.4 116.4L559.8 117L562.2 117.9L564.7 119.1L567.1 120.3L569.5 121.3L571.9 122.1L574.3 122.8L576.8 123.6L579.2 124.4L581.6 125.3L584 126.1L586.4 127L588.9 128L591.3 129.3L593.7 130.7L596.1 132.1L598.5 133.5L600.9 134.8L603.4 136.2L605.8 137.6L608.2 139L610.6 140.4L613 141.8L615.5 143.2L617.9 144.5L620.3 145.9L622.7 147.2L625.1 148.7L627.5 150.2L630 151.6L632.4 153.1L634.8 154.7L637.2 156.2L639.6 157.8L642.1 159.3L644.5 161.2L646.9 163.1L649.3 165.1L651.7 167.2L654.1 169.3L656.6 171.3L659 173.1L661.4 174.9L663.8 176.7L666.2 178.4L668.7 180.3L671.1 182.3L673.5 184.5L675.9 186.8L678.3 189.2L680.8 191.8L683.2 194.4L685.6 197.1L688 199.9L690.4 202.9L692.8 205.9L695.3 208.9L697.7 211.7L700.1 214.6" stroke="rgb(176, 92, 85)" stroke-opacity="0.7" stroke-width="0.5" fill="none"></path><path class="Africa_0-border" stroke-linecap="round" d="M61.6 92.1L64.1 92.1L66.5 92.1L68.9 92.1L71.3 92.1L73.7 92.1L76.1 92.1L78.6 92.1L81 92.1L83.4 92.1L85.8 92.1L88.2 92.1L90.7 92.1L93.1 92.1L95.5 92.1L97.9 92.1L100.3 92.1L102.7 92.1L105.2 92.1L107.6 92.1L110 92.1L112.4 92.1L114.8 92.1L117.3 92.1L119.7 92.1L122.1 92.1L124.5 92.1L126.9 92.1L129.4 92.1L131.8 92.1L134.2 92.1L136.6 92.1L139 92.1L141.4 92.1L143.9 92.1L146.3 92.1L148.7 92.1L151.1 92.1L153.5 92.1L156 92.1L158.4 92.1L160.8 92.1L163.2 92.1L165.6 92.1L168 92.1L170.5 92.1L172.9 92.1L175.3 92.1L177.7 92.1L180.1 92.1L182.6 92.1L185 92.1L187.4 92.1L189.8 92.1L192.2 92.1L194.6 92.1L197.1 92.1L199.5 92.1L201.9 92.1L204.3 92.1L206.7 92.1L209.2 92.1L211.6 92.1L214 92.1L216.4 92.1L218.8 92.1L221.3 92.1L223.7 92.1L226.1 92.1L228.5 92.1L230.9 92.1L233.3 92.1L235.8 92.1L238.2 92.1L240.6 92.1L243 92.1L245.4 92.1L247.9 92.1L250.3 92.1L252.7 92.1L255.1 92.1L257.5 92.1L259.9 92.1L262.4 92.1L264.8 92.1L267.2 92.1L269.6 92.1L272 92.1L274.5 92.1L276.9 92.1L279.3 92.1L281.7 92.1L284.1 92.1L286.5 92.1L289 92.1L291.4 92.1L293.8 92.1L296.2 92.1L298.6 92.1L301.1 92.1L303.5 92.1L305.9 92.1L308.3 92.1L310.7 92.1L313.2 92.1L315.6 92.1L318 92.1L320.4 92.1L322.8 92.2L325.2 92.2L327.7 92.2L330.1 92.3L332.5 92.3L334.9 92.3L337.3 92.3L339.8 92.4L342.2 92.4L344.6 92.3L347 92.3L349.4 92.3L351.8 92.3L354.3 92.3L356.7 92.3L359.1 92.3L361.5 92.3L363.9 92.4L366.4 92.4L368.8 92.5L371.2 92.6L373.6 92.7L376 92.8L378.4 92.9L380.9 93L383.3 93.1L385.7 93.2L388.1 93.2L390.5 93.4L393 93.5L395.4 93.6L397.8 93.7L400.2 93.9L402.6 94L405.1 94.2L407.5 94.3L409.9 94.5L412.3 94.7L414.7 94.9L417.1 95.1L419.6 95.3L422 95.6L424.4 95.8L426.8 96.1L429.2 96.3L431.7 96.6L434.1 96.9L436.5 97.3L438.9 97.7L441.3 98.2L443.7 98.5L446.2 98.9L448.6 99.3L451 99.6L453.4 99.9L455.8 100.2L458.3 100.6L460.7 100.9L463.1 101.2L465.5 101.6L467.9 102.1L470.3 102.4L472.8 102.8L475.2 103.1L477.6 103.4L480 103.8L482.4 104.1L484.9 104.4L487.3 104.7L489.7 105.1L492.1 105.4L494.5 105.7L497 105.9L499.4 106.2L501.8 106.5L504.2 106.9L506.6 107.2L509 107.6L511.5 107.9L513.9 108.3L516.3 108.7L518.7 109.2L521.1 109.6L523.6 110L526 110.4L528.4 110.6L530.8 110.7L533.2 110.6L535.6 110.5L538.1 110.4L540.5 110.5L542.9 110.6L545.3 110.8L547.7 111L550.2 111.3L552.6 111.6L555 111.9L557.4 112.3L559.8 112.7L562.2 113.5L564.7 114.6L567.1 115.8L569.5 116.7L571.9 117.4L574.3 118.1L576.8 118.7L579.2 119.5L581.6 120.2L584 120.9L586.4 121.7L588.9 122.7L591.3 123.8L593.7 125.1L596.1 126.3L598.5 127.5L600.9 128.7L603.4 130L605.8 131.2L608.2 132.5L610.6 133.7L613 135L615.5 136.2L617.9 137.3L620.3 138.5L622.7 139.7L625.1 140.9L627.5 142.2L630 143.5L632.4 144.8L634.8 146.2L637.2 147.6L639.6 149L642.1 150.5L644.5 152.3L646.9 154.1L649.3 155.9L651.7 157.9L654.1 159.8L656.6 161.8L659 163.4L661.4 165.1L663.8 166.8L666.2 168.4L668.7 170.1L671.1 172L673.5 174.1L675.9 176.3L678.3 178.6L680.8 181L683.2 183.5L685.6 186.1L688 188.8L690.4 191.8L692.8 194.7L695.3 197.5L697.7 200.2L700.1 203" stroke="rgb(43, 80, 141)" stroke-opacity="0.7" stroke-width="0.5" fill="none"></path><path class="India_0-border" stroke-linecap="round" d="M61.6 92.1L64.1 92.1L66.5 92.1L68.9 92.1L71.3 92.1L73.7 92.1L76.1 92.1L78.6 92.1L81 92.1L83.4 92.1L85.8 92.1L88.2 92.1L90.7 92.1L93.1 92.1L95.5 92.1L97.9 92.1L100.3 92.1L102.7 92.1L105.2 92.1L107.6 92.1L110 92.1L112.4 92.1L114.8 92.1L117.3 92.1L119.7 92.1L122.1 92.1L124.5 92.1L126.9 92.1L129.4 92.1L131.8 92.1L134.2 92.1L136.6 92.1L139 92.1L141.4 92.1L143.9 92.1L146.3 92.1L148.7 92.1L151.1 92.1L153.5 92.1L156 92.1L158.4 92.1L160.8 92.1L163.2 92.1L165.6 92.1L168 92.1L170.5 92.1L172.9 92.1L175.3 92.1L177.7 92.1L180.1 92.1L182.6 92.1L185 92.1L187.4 92.1L189.8 92.1L192.2 92.1L194.6 92.1L197.1 92.1L199.5 92.1L201.9 92.1L204.3 92.1L206.7 92.1L209.2 92.1L211.6 92.1L214 92.1L216.4 92.1L218.8 92.1L221.3 92.1L223.7 92.1L226.1 92.1L228.5 92.1L230.9 92.1L233.3 92.1L235.8 92.1L238.2 92.1L240.6 92.1L243 92.1L245.4 92.1L247.9 92.1L250.3 92.1L252.7 92.1L255.1 92.1L257.5 92.1L259.9 92.1L262.4 92.1L264.8 92.1L267.2 92.1L269.6 92.1L272 92.1L274.5 92.1L276.9 92.1L279.3 92.1L281.7 92.1L284.1 92.1L286.5 92.1L289 92.1L291.4 92.1L293.8 92.1L296.2 92.1L298.6 92.1L301.1 92.1L303.5 92.1L305.9 92.1L308.3 92.1L310.7 92.1L313.2 92.1L315.6 92.1L318 92.1L320.4 92.1L322.8 92.1L325.2 92.1L327.7 92.1L330.1 92.1L332.5 92.1L334.9 92.1L337.3 92.1L339.8 92.1L342.2 92.1L344.6 92.1L347 92.1L349.4 92.1L351.8 92.1L354.3 92.1L356.7 92.1L359.1 92.1L361.5 92.2L363.9 92.2L366.4 92.2L368.8 92.3L371.2 92.3L373.6 92.4L376 92.5L378.4 92.5L380.9 92.6L383.3 92.6L385.7 92.7L388.1 92.8L390.5 92.8L393 92.9L395.4 93L397.8 93.1L400.2 93.2L402.6 93.3L405.1 93.4L407.5 93.5L409.9 93.6L412.3 93.7L414.7 93.9L417.1 94L419.6 94.2L422 94.3L424.4 94.5L426.8 94.7L429.2 94.9L431.7 95.1L434.1 95.3L436.5 95.6L438.9 95.9L441.3 96.2L443.7 96.5L446.2 96.8L448.6 97.1L451 97.3L453.4 97.5L455.8 97.8L458.3 98L460.7 98.2L463.1 98.5L465.5 98.8L467.9 99.1L470.3 99.4L472.8 99.6L475.2 99.9L477.6 100.2L480 100.5L482.4 100.7L484.9 101L487.3 101.3L489.7 101.5L492.1 101.8L494.5 102.1L497 102.3L499.4 102.5L501.8 102.8L504.2 103.1L506.6 103.4L509 103.8L511.5 104.1L513.9 104.4L516.3 104.8L518.7 105.2L521.1 105.6L523.6 106L526 106.3L528.4 106.6L530.8 106.6L533.2 106.4L535.6 106.3L538.1 106.3L540.5 106.3L542.9 106.4L545.3 106.5L547.7 106.8L550.2 107L552.6 107.3L555 107.5L557.4 107.9L559.8 108.3L562.2 109.1L564.7 110.1L567.1 111.3L569.5 112.1L571.9 112.7L574.3 113.4L576.8 114L579.2 114.6L581.6 115.4L584 116L586.4 116.7L588.9 117.6L591.3 118.8L593.7 120L596.1 121.2L598.5 122.4L600.9 123.5L603.4 124.7L605.8 125.9L608.2 127.1L610.6 128.3L613 129.5L615.5 130.6L617.9 131.7L620.3 132.8L622.7 133.9L625.1 135L627.5 136.2L630 137.4L632.4 138.5L634.8 139.8L637.2 141.1L639.6 142.3L642.1 143.6L644.5 145.2L646.9 146.8L649.3 148.4L651.7 150.2L654.1 151.9L656.6 153.6L659 155L661.4 156.4L663.8 157.8L666.2 159.2L668.7 160.7L671.1 162.4L673.5 164.2L675.9 166.2L678.3 168.2L680.8 170.4L683.2 172.6L685.6 174.8L688 177.2L690.4 179.8L692.8 182.4L695.3 184.8L697.7 187.2L700.1 189.6" stroke="rgb(206, 136, 30)" stroke-opacity="0.7" stroke-width="0.5" fill="none"></path><path class="China_0-border" stroke-linecap="round" d="M61.6 92.1L64.1 92.1L66.5 92.1L68.9 92.1L71.3 92.1L73.7 92.1L76.1 92.1L78.6 92.1L81 92.1L83.4 92.1L85.8 92.1L88.2 92.1L90.7 92.1L93.1 92.1L95.5 92.1L97.9 92.1L100.3 92.1L102.7 92.1L105.2 92.1L107.6 92.1L110 92.1L112.4 92.1L114.8 92.1L117.3 92.1L119.7 92.1L122.1 92.1L124.5 92.1L126.9 92.1L129.4 92.1L131.8 92.1L134.2 92.1L136.6 92.1L139 92.1L141.4 92.1L143.9 92.1L146.3 92.1L148.7 92.1L151.1 92.1L153.5 92.1L156 92.1L158.4 92.1L160.8 92.1L163.2 92.1L165.6 92.1L168 92.1L170.5 92.1L172.9 92.1L175.3 92.1L177.7 92.1L180.1 92.1L182.6 92.1L185 92.1L187.4 92.1L189.8 92.1L192.2 92.1L194.6 92.1L197.1 92.1L199.5 92.1L201.9 92.1L204.3 92.1L206.7 92.1L209.2 92.1L211.6 92.1L214 92.1L216.4 92.1L218.8 92.1L221.3 92.1L223.7 92.1L226.1 92.1L228.5 92.1L230.9 92.1L233.3 92.1L235.8 92.1L238.2 92.1L240.6 92.1L243 92.1L245.4 92.1L247.9 92.1L250.3 92.1L252.7 92.1L255.1 92.1L257.5 92.1L259.9 92.1L262.4 92.1L264.8 92.1L267.2 92.1L269.6 92.1L272 92.1L274.5 92.1L276.9 92.1L279.3 92.1L281.7 92.1L284.1 92.1L286.5 92.1L289 92.1L291.4 92.1L293.8 92.1L296.2 92.1L298.6 92.1L301.1 92.1L303.5 92.1L305.9 92.1L308.3 92.1L310.7 92.1L313.2 92.1L315.6 92.1L318 92.1L320.4 92.1L322.8 92.1L325.2 92.1L327.7 92.1L330.1 92.1L332.5 92.1L334.9 92.1L337.3 92.1L339.8 92.1L342.2 92.1L344.6 92.1L347 92.1L349.4 92.1L351.8 92.1L354.3 92.1L356.7 92.1L359.1 92.1L361.5 92.2L363.9 92.2L366.4 92.2L368.8 92.3L371.2 92.3L373.6 92.4L376 92.5L378.4 92.5L380.9 92.6L383.3 92.6L385.7 92.7L388.1 92.8L390.5 92.8L393 92.9L395.4 93L397.8 93.1L400.2 93.2L402.6 93.3L405.1 93.4L407.5 93.5L409.9 93.6L412.3 93.7L414.7 93.9L417.1 94L419.6 94.2L422 94.3L424.4 94.5L426.8 94.7L429.2 94.8L431.7 95L434.1 95.2L436.5 95.4L438.9 95.6L441.3 95.8L443.7 95.9L446.2 96.1L448.6 96.3L451 96.5L453.4 96.7L455.8 96.9L458.3 97L460.7 97.2L463.1 97.4L465.5 97.7L467.9 97.9L470.3 98.1L472.8 98.3L475.2 98.5L477.6 98.7L480 98.9L482.4 99.1L484.9 99.3L487.3 99.5L489.7 99.7L492.1 99.9L494.5 100.1L497 100.3L499.4 100.4L501.8 100.6L504.2 100.8L506.6 101L509 101.3L511.5 101.5L513.9 101.8L516.3 102L518.7 102.3L521.1 102.5L523.6 102.7L526 102.9L528.4 103L530.8 103L533.2 102.9L535.6 102.8L538.1 102.8L540.5 102.8L542.9 102.8L545.3 102.8L547.7 102.9L550.2 103L552.6 103.1L555 103.2L557.4 103.3L559.8 103.4L562.2 103.5L564.7 103.7L567.1 103.9L569.5 104.1L571.9 104.4L574.3 104.7L576.8 105L579.2 105.3L581.6 105.7L584 106.1L586.4 106.7L588.9 107.2L591.3 107.9L593.7 108.6L596.1 109.3L598.5 109.9L600.9 110.6L603.4 111.2L605.8 111.8L608.2 112.4L610.6 112.9L613 113.5L615.5 114L617.9 114.5L620.3 115L622.7 115.4L625.1 115.9L627.5 116.3L630 116.7L632.4 117.1L634.8 117.6L637.2 118.1L639.6 118.6L642.1 119.1L644.5 119.8L646.9 120.6L649.3 121.3L651.7 122.1L654.1 122.8L656.6 123.5L659 124.1L661.4 124.8L663.8 125.4L666.2 126.1L668.7 126.7L671.1 127.3L673.5 127.9L675.9 128.4L678.3 128.9L680.8 129.4L683.2 129.9L685.6 130.4L688 130.8L690.4 131.3L692.8 131.7L695.3 132.1L697.7 132.5L700.1 133.1" stroke="rgb(192, 43, 38)" stroke-opacity="0.7" stroke-width="0.5" fill="none"></path><path class="Asia-and-Pacific-__0028other__0029_0-border" stroke-linecap="round" d="M61.6 92.1L64.1 92.1L66.5 92.1L68.9 92.1L71.3 92.1L73.7 92.1L76.1 92.1L78.6 92.1L81 92.1L83.4 92.1L85.8 92.1L88.2 92.1L90.7 92.1L93.1 92.1L95.5 92.1L97.9 92.1L100.3 92.1L102.7 92.1L105.2 92.1L107.6 92.1L110 92.1L112.4 92.1L114.8 92.1L117.3 92.1L119.7 92.1L122.1 92.1L124.5 92.1L126.9 92.1L129.4 92.1L131.8 92.1L134.2 92.1L136.6 92.1L139 92.1L141.4 92.1L143.9 92.1L146.3 92.1L148.7 92.1L151.1 92.1L153.5 92.1L156 92.1L158.4 92.1L160.8 92.1L163.2 92.1L165.6 92.1L168 92.1L170.5 92.1L172.9 92.1L175.3 92.1L177.7 92.1L180.1 92.1L182.6 92.1L185 92.1L187.4 92.1L189.8 92.1L192.2 92.1L194.6 92.1L197.1 92.1L199.5 92.1L201.9 92.1L204.3 92.1L206.7 92.1L209.2 92.1L211.6 92.1L214 92.1L216.4 92.1L218.8 92.1L221.3 92.1L223.7 92.1L226.1 92.1L228.5 92.1L230.9 92.1L233.3 92.1L235.8 92.1L238.2 92.1L240.6 92.1L243 92.1L245.4 92.1L247.9 92.1L250.3 92.1L252.7 92.1L255.1 92.1L257.5 92.1L259.9 92.1L262.4 92.1L264.8 92.1L267.2 92.1L269.6 92.1L272 92.1L274.5 92.1L276.9 92.1L279.3 92.1L281.7 92.1L284.1 92.1L286.5 92.1L289 92.1L291.4 92.1L293.8 92.1L296.2 92.1L298.6 92.1L301.1 92.1L303.5 92.1L305.9 92.1L308.3 92.1L310.7 92.1L313.2 92.1L315.6 92.1L318 92.1L320.4 92.1L322.8 92.1L325.2 92.1L327.7 92.1L330.1 92.1L332.5 92.1L334.9 92.1L337.3 92.1L339.8 92.1L342.2 92.1L344.6 92.1L347 92.1L349.4 92.1L351.8 92.1L354.3 92.1L356.7 92.1L359.1 92.1L361.5 92.1L363.9 92.1L366.4 92.1L368.8 92.1L371.2 92.1L373.6 92.1L376 92.1L378.4 92.1L380.9 92.1L383.3 92.1L385.7 92.1L388.1 92.1L390.5 92.1L393 92.1L395.4 92.1L397.8 92.1L400.2 92.1L402.6 92.1L405.1 92.1L407.5 92.1L409.9 92.1L412.3 92.1L414.7 92.1L417.1 92.1L419.6 92.1L422 92.1L424.4 92.1L426.8 92.1L429.2 92.1L431.7 92.1L434.1 92.1L436.5 92.1L438.9 92.1L441.3 92.1L443.7 92.1L446.2 92.1L448.6 92.1L451 92.1L453.4 92.1L455.8 92.1L458.3 92.1L460.7 92.1L463.1 92.1L465.5 92.1L467.9 92.1L470.3 92.1L472.8 92.1L475.2 92.1L477.6 92.1L480 92.1L482.4 92.1L484.9 92.1L487.3 92.1L489.7 92.1L492.1 92.1L494.5 92.1L497 92.1L499.4 92.1L501.8 92.1L504.2 92.1L506.6 92.1L509 92.1L511.5 92.1L513.9 92.1L516.3 92.1L518.7 92.1L521.1 92.1L523.6 92.1L526 92.1L528.4 92.1L530.8 92.1L533.2 92.1L535.6 92.1L538.1 92.1L540.5 92.1L542.9 92.1L545.3 92.1L547.7 92.1L550.2 92.1L552.6 92.1L555 92.1L557.4 92.1L559.8 92.1L562.2 92.1L564.7 92.1L567.1 92.1L569.5 92.1L571.9 92.1L574.3 92.1L576.8 92.1L579.2 92.1L581.6 92.1L584 92.1L586.4 92.1L588.9 92.1L591.3 92.1L593.7 92.1L596.1 92.1L598.5 92.1L600.9 92.1L603.4 92.1L605.8 92.1L608.2 92.1L610.6 92.1L613 92.1L615.5 92.1L617.9 92.1L620.3 92.1L622.7 92.1L625.1 92.1L627.5 92.1L630 92.1L632.4 92.1L634.8 92.1L637.2 92.1L639.6 92.1L642.1 92.1L644.5 92.1L646.9 92.1L649.3 92.1L651.7 92.1L654.1 92.1L656.6 92.1L659 92.1L661.4 92.1L663.8 92.1L666.2 92.1L668.7 92.1L671.1 92.1L673.5 92.1L675.9 92.1L678.3 92.1L680.8 92.1L683.2 92.1L685.6 92.1L688 92.1L690.4 92.1L692.8 92.1L695.3 92.1L697.7 92.1L700.1 92.1" stroke="rgb(123, 33, 44)" stroke-opacity="0.7" stroke-width="0.5" fill="none"></path></g></g></g><g class="SourcesFooter" style="fill:#777"><g class="clickable" style="fill:#777"><text font-size="12.60" x="15.0" y="581.6"><tspan x="15" y="581.58">Source: OWID based on the Global Carbon Project (2017)</tspan></text></g><text font-size="12.60" x="775.4" y="581.6"><tspan x="775.402" y="581.58"><a style="fill: #777;" class="cclogo" href="http://creativecommons.org/licenses/by-sa/4.0/deed.en_US" target="_blank">CC BY-SA</a></tspan></text></g></g></svg>