<svg xmlns="http://www.w3.org/2000/svg" version="1.1" style="font-family:&#x27;Helvetica Neue&#x27;, Helvetica, Arial, sans-serif;font-size:18px;background-color:white;text-rendering:optimizeLegibility;-webkit-font-smoothing:antialiased" width="850" height="600"><g class="ChartTab"><g class="HeaderView"><g opacity="0.8" transform="translate(778, 15) scale(0.27)"><a xmlns:xlink="http://www.w3.org/1999/xlink" xlink:href="https://ourworldindata.org" target="_blank"><g><rect x="0" y="0" fill="#1B2543" width="211.2" height="130.1"/><rect x="0" y="112.2" fill="#E63912" width="211.2" height="17.9"/><g><rect x="1.2" y="12.3" fill="none" width="210.2" height="99.2"/><path fill="#FFFFFF" d="M37.8,32.2c0,12.7-7.7,19.4-17.1,19.4c-9.7,0-16.6-7.5-16.6-18.7c0-11.7,7.3-19.3,17.1-19.3 C31.3,13.7,37.8,21.3,37.8,32.2z M9.2,32.8c0,7.9,4.3,14.9,11.8,14.9c7.5,0,11.8-6.9,11.8-15.3c0-7.3-3.8-14.9-11.8-14.9 C13.1,17.5,9.2,24.8,9.2,32.8z"/><path fill="#FFFFFF" d="M62.7,43.8c0,2.7,0.1,5.1,0.2,7.2h-4.3l-0.3-4.3h-0.1c-1.3,2.1-4,4.9-8.8,4.9c-4.2,0-9.1-2.3-9.1-11.6 V24.6h4.8v14.6c0,5,1.5,8.4,5.9,8.4c3.2,0,5.5-2.2,6.3-4.4c0.3-0.7,0.4-1.6,0.4-2.5V24.6h4.8V43.8z"/><path fill="#FFFFFF" d="M67.3,32.8c0-3.1-0.1-5.8-0.2-8.2h4.2l0.2,5.2h0.2c1.2-3.5,4.1-5.8,7.3-5.8c0.5,0,0.9,0.1,1.4,0.2v4.5 c-0.5-0.1-1-0.2-1.6-0.2c-3.4,0-5.8,2.6-6.5,6.2c-0.1,0.7-0.2,1.4-0.2,2.2V51h-4.8V32.8z"/><path fill="#FFFFFF" d="M95.4,51l-9.4-36.8h5l4.4,18.6c1.1,4.6,2.1,9.2,2.7,12.7h0.1c0.6-3.7,1.8-8,3-12.8l4.9-18.5h5l4.5,18.7 c1,4.4,2,8.7,2.6,12.6h0.1c0.8-4,1.8-8.1,3-12.7l4.9-18.5h4.9L120.6,51h-5L111,31.9c-1.1-4.7-1.9-8.3-2.4-12h-0.1 c-0.7,3.7-1.5,7.3-2.8,12L100.4,51H95.4z"/><path fill="#FFFFFF" d="M154.9,37.6c0,9.8-6.8,14-13.2,14c-7.2,0-12.7-5.2-12.7-13.6c0-8.8,5.8-14,13.1-14 C149.8,24,154.9,29.5,154.9,37.6z M133.9,37.9c0,5.8,3.3,10.1,8,10.1c4.6,0,8-4.3,8-10.3c0-4.5-2.2-10.1-7.9-10.1 C136.3,27.6,133.9,32.8,133.9,37.9z"/><path fill="#FFFFFF" d="M158.2,32.8c0-3.1-0.1-5.8-0.2-8.2h4.2l0.2,5.2h0.2c1.2-3.5,4.1-5.8,7.3-5.8c0.5,0,0.9,0.1,1.4,0.2v4.5 c-0.5-0.1-1-0.2-1.6-0.2c-3.4,0-5.8,2.6-6.5,6.2c-0.1,0.7-0.2,1.4-0.2,2.2V51h-4.8V32.8z"/><path fill="#FFFFFF" d="M173.5,12.3h4.8V51h-4.8V12.3z"/><path fill="#FFFFFF" d="M206.5,12.3v31.9c0,2.3,0.1,5,0.2,6.8h-4.3l-0.2-4.6H202c-1.5,2.9-4.7,5.2-9,5.2 c-6.4,0-11.3-5.4-11.3-13.4c-0.1-8.8,5.4-14.2,11.9-14.2c4,0,6.8,1.9,8,4h0.1V12.3H206.5z M201.7,35.4c0-0.6-0.1-1.4-0.2-2 c-0.7-3.1-3.3-5.6-6.9-5.6c-5,0-7.9,4.4-7.9,10.2c0,5.3,2.6,9.8,7.8,9.8c3.2,0,6.2-2.1,7.1-5.7c0.2-0.7,0.2-1.3,0.2-2.1V35.4z"/><path fill="#FFFFFF" d="M42.8,64c0.1,1.6-1.1,2.9-3.1,2.9c-1.7,0-2.9-1.3-2.9-2.9c0-1.7,1.3-3,3-3C41.7,61,42.8,62.3,42.8,64z M37.4,97.8V71.4h4.8v26.4H37.4z"/><path fill="#FFFFFF" d="M47.5,78.6c0-2.7-0.1-5-0.2-7.1h4.3l0.3,4.4h0.1c1.3-2.5,4.4-5,8.8-5c3.7,0,9.4,2.2,9.4,11.2v15.8h-4.8 V82.6c0-4.3-1.6-7.8-6.1-7.8c-3.2,0-5.6,2.2-6.5,4.9c-0.2,0.6-0.3,1.4-0.3,2.2v15.9h-4.8V78.6z"/><path fill="#FFFFFF" d="M84,61.6c2.9-0.4,6.3-0.8,10.1-0.8c6.8,0,11.7,1.6,14.9,4.6c3.3,3,5.2,7.3,5.2,13.2c0,6-1.9,10.9-5.3,14.3 c-3.4,3.4-9.1,5.3-16.3,5.3c-3.4,0-6.2-0.2-8.6-0.4V61.6z M88.8,94.1c1.2,0.2,3,0.3,4.8,0.3c10.2,0,15.7-5.7,15.7-15.6 c0.1-8.7-4.9-14.2-14.9-14.2c-2.5,0-4.3,0.2-5.6,0.5V94.1z"/><path fill="#FFFFFF" d="M132.1,97.8l-0.4-3.3h-0.2c-1.5,2.1-4.3,3.9-8.1,3.9c-5.4,0-8.1-3.8-8.1-7.6c0-6.4,5.7-9.9,15.9-9.8v-0.5 c0-2.2-0.6-6.1-6-6.1c-2.5,0-5,0.8-6.9,2l-1.1-3.2c2.2-1.4,5.4-2.3,8.7-2.3c8.1,0,10.1,5.5,10.1,10.8v9.9c0,2.3,0.1,4.5,0.4,6.3 H132.1z M131.4,84.4c-5.3-0.1-11.2,0.8-11.2,5.9c0,3.1,2.1,4.6,4.5,4.6c3.4,0,5.6-2.2,6.4-4.4c0.2-0.5,0.3-1,0.3-1.5V84.4z"/><path fill="#FFFFFF" d="M146.6,63.9v7.6h6.9v3.7h-6.9v14.2c0,3.3,0.9,5.1,3.6,5.1c1.3,0,2.2-0.2,2.8-0.3l0.2,3.6 c-0.9,0.4-2.4,0.7-4.3,0.7c-2.2,0-4-0.7-5.2-2c-1.4-1.4-1.9-3.8-1.9-6.9V75.1h-4.1v-3.7h4.1v-6.3L146.6,63.9z"/><path fill="#FFFFFF" d="M171.4,97.8l-0.4-3.3h-0.2c-1.5,2.1-4.3,3.9-8.1,3.9c-5.4,0-8.1-3.8-8.1-7.6c0-6.4,5.7-9.9,15.9-9.8v-0.5 c0-2.2-0.6-6.1-6-6.1c-2.5,0-5,0.8-6.9,2l-1.1-3.2c2.2-1.4,5.4-2.3,8.7-2.3c8.1,0,10.1,5.5,10.1,10.8v9.9c0,2.3,0.1,4.5,0.4,6.3 H171.4z M170.7,84.4c-5.3-0.1-11.2,0.8-11.2,5.9c0,3.1,2.1,4.6,4.5,4.6c3.4,0,5.6-2.2,6.4-4.4c0.2-0.5,0.3-1,0.3-1.5V84.4z"/></g></g></a></g><a href="https://ourworldindata.org/grapher/deaths-and-new-cases-of-hiv" target="_blank"><text font-size="25.20" x="15.0" y="35.2" fill="#555"><tspan x="15" y="35.160000000000004">Prevalence, new cases and deaths from HIV, World</tspan></text></a><text font-size="14.40" x="15.0" y="53.7" fill="#666"><tspan x="15" y="53.72">Total number of deaths from HIV/AIDS (not including deaths from tuberculosis), new cases of HIV infection per year,</tspan><tspan x="15" y="69.56">and total number of people living with HIV. The total number of people living with HIV is measured in tens (i.e. equal</tspan><tspan x="15" y="85.4">to 36 million in 2016).</tspan></text></g><g class="LineChart"><defs><clipPath id="boundsClip-206"><rect x="83.062" y="0" width="830" height="897.8"></rect></clipPath></defs><g class="AxisBoxView"><g class="HorizontalAxis"><text x="93.1" y="556.5" fill="#666" text-anchor="middle" font-size="16.2">1990</text><text x="183.9" y="556.5" fill="#666" text-anchor="middle" font-size="16.2">1995</text><text x="274.7" y="556.5" fill="#666" text-anchor="middle" font-size="16.2">2000</text><text x="365.5" y="556.5" fill="#666" text-anchor="middle" font-size="16.2">2005</text><text x="456.3" y="556.5" fill="#666" text-anchor="middle" font-size="16.2">2010</text><text x="565.2" y="556.5" fill="#666" text-anchor="middle" font-size="16.2">2016</text></g><g class="VerticalAxis"><text x="88.06" y="535.3" fill="#666" dominant-baseline="middle" text-anchor="end" font-size="16.2">0</text><text x="88.06" y="476.5" fill="#666" dominant-baseline="middle" text-anchor="end" font-size="16.2">500,000</text><text x="88.06" y="417.7" fill="#666" dominant-baseline="middle" text-anchor="end" font-size="16.2">1 million</text><text x="88.06" y="358.9" fill="#666" dominant-baseline="middle" text-anchor="end" font-size="16.2">1.5 million</text><text x="88.06" y="300.1" fill="#666" dominant-baseline="middle" text-anchor="end" font-size="16.2">2 million</text><text x="88.06" y="241.3" fill="#666" dominant-baseline="middle" text-anchor="end" font-size="16.2">2.5 million</text><text x="88.06" y="182.5" fill="#666" dominant-baseline="middle" text-anchor="end" font-size="16.2">3 million</text><text x="88.06" y="123.7" fill="#666" dominant-baseline="middle" text-anchor="end" font-size="16.2">3.5 million</text></g><g class="AxisGridLines"><line x1="93.06" y1="535.3" x2="565.24" y2="535.3" stroke="#ccc"></line><line x1="93.06" y1="476.5" x2="565.24" y2="476.5" stroke="#ddd" stroke-dasharray="3,2"></line><line x1="93.06" y1="417.7" x2="565.24" y2="417.7" stroke="#ddd" stroke-dasharray="3,2"></line><line x1="93.06" y1="358.9" x2="565.24" y2="358.9" stroke="#ddd" stroke-dasharray="3,2"></line><line x1="93.06" y1="300.1" x2="565.24" y2="300.1" stroke="#ddd" stroke-dasharray="3,2"></line><line x1="93.06" y1="241.3" x2="565.24" y2="241.3" stroke="#ddd" stroke-dasharray="3,2"></line><line x1="93.06" y1="182.5" x2="565.24" y2="182.5" stroke="#ddd" stroke-dasharray="3,2"></line><line x1="93.06" y1="123.7" x2="565.24" y2="123.7" stroke="#ddd" stroke-dasharray="3,2"></line></g></g><g clip-path="url(#boundsClip-206)"><g class="HeightedLegend clickable"><g class="legendMark"><rect x="565.235" y="100.85" width="269.765" height="13.5" fill="#fff" opacity="0"></rect><text font-size="13.50" x="570.2" y="111.6" fill="#34983f"><tspan x="570.235" y="111.64999999999999">Number of people living with HIV (tens)</tspan></text></g><g class="legendMark"><rect x="565.235" y="309.15" width="199.835" height="13.5" fill="#fff" opacity="0"></rect><text font-size="13.50" x="570.2" y="319.9" fill="#ca2628"><tspan x="570.235" y="319.95">New infections of HIV/AIDS</tspan></text></g><g class="legendMark"><rect x="565.235" y="406.95" width="170.405" height="13.5" fill="#fff" opacity="0"></rect><text font-size="13.50" x="570.2" y="417.8" fill="#3360a9"><tspan x="570.235" y="417.75">Deaths from HIV/AIDS</tspan></text></g></g><g class="Lines"><rect x="93" y="108" width="472" height="428" fill="rgba(255,255,255,0)" opacity="0"></rect><g class="key-World_0"><path stroke="#3360a9" stroke-linecap="round" d="M93 501L111 491L129 480L148 466L166 452L184 436L202 422L220 409L238 394L257 377L275 361L293 346L311 333L329 322L347 314L366 311L384 311L402 316L420 323L438 333L456 343L474 355L493 367L511 379L529 391L547 402L565 414" fill="none" stroke-width="1.5"></path><g fill="#3360a9"><circle cx="93" cy="501" r="2"></circle><circle cx="111" cy="491" r="2"></circle><circle cx="129" cy="480" r="2"></circle><circle cx="148" cy="466" r="2"></circle><circle cx="166" cy="452" r="2"></circle><circle cx="184" cy="436" r="2"></circle><circle cx="202" cy="422" r="2"></circle><circle cx="220" cy="409" r="2"></circle><circle cx="238" cy="394" r="2"></circle><circle cx="257" cy="377" r="2"></circle><circle cx="275" cy="361" r="2"></circle><circle cx="293" cy="346" r="2"></circle><circle cx="311" cy="333" r="2"></circle><circle cx="329" cy="322" r="2"></circle><circle cx="347" cy="314" r="2"></circle><circle cx="366" cy="311" r="2"></circle><circle cx="384" cy="311" r="2"></circle><circle cx="402" cy="316" r="2"></circle><circle cx="420" cy="323" r="2"></circle><circle cx="438" cy="333" r="2"></circle><circle cx="456" cy="343" r="2"></circle><circle cx="474" cy="355" r="2"></circle><circle cx="493" cy="367" r="2"></circle><circle cx="511" cy="379" r="2"></circle><circle cx="529" cy="391" r="2"></circle><circle cx="547" cy="402" r="2"></circle><circle cx="565" cy="414" r="2"></circle></g></g><g class="key-World_1"><path stroke="#ca2628" stroke-linecap="round" d="M93 306L111 300L129 287L148 264L166 229L184 174L202 183L220 186L238 185L257 179L275 167L293 194L311 215L329 231L347 244L366 252L384 257L402 261L420 263L438 263L456 262L474 276L493 287L511 297L529 304L547 311L565 316" fill="none" stroke-width="1.5"></path><g fill="#ca2628"><circle cx="93" cy="306" r="2"></circle><circle cx="111" cy="300" r="2"></circle><circle cx="129" cy="287" r="2"></circle><circle cx="148" cy="264" r="2"></circle><circle cx="166" cy="229" r="2"></circle><circle cx="184" cy="174" r="2"></circle><circle cx="202" cy="183" r="2"></circle><circle cx="220" cy="186" r="2"></circle><circle cx="238" cy="185" r="2"></circle><circle cx="257" cy="179" r="2"></circle><circle cx="275" cy="167" r="2"></circle><circle cx="293" cy="194" r="2"></circle><circle cx="311" cy="215" r="2"></circle><circle cx="329" cy="231" r="2"></circle><circle cx="347" cy="244" r="2"></circle><circle cx="366" cy="252" r="2"></circle><circle cx="384" cy="257" r="2"></circle><circle cx="402" cy="261" r="2"></circle><circle cx="420" cy="263" r="2"></circle><circle cx="438" cy="263" r="2"></circle><circle cx="456" cy="262" r="2"></circle><circle cx="474" cy="276" r="2"></circle><circle cx="493" cy="287" r="2"></circle><circle cx="511" cy="297" r="2"></circle><circle cx="529" cy="304" r="2"></circle><circle cx="547" cy="311" r="2"></circle><circle cx="565" cy="316" r="2"></circle></g></g><g class="key-World_2"><path stroke="#34983f" stroke-linecap="round" d="M93 440L111 428L129 412L148 391L166 363L184 322L202 313L220 300L238 283L257 260L275 212L293 210L311 206L329 199L347 190L366 168L384 176L402 181L420 180L438 174L456 149L474 159L493 162L511 159L529 150L547 134L565 108" fill="none" stroke-width="1.5"></path><g fill="#34983f"><circle cx="93" cy="440" r="2"></circle><circle cx="111" cy="428" r="2"></circle><circle cx="129" cy="412" r="2"></circle><circle cx="148" cy="391" r="2"></circle><circle cx="166" cy="363" r="2"></circle><circle cx="184" cy="322" r="2"></circle><circle cx="202" cy="313" r="2"></circle><circle cx="220" cy="300" r="2"></circle><circle cx="238" cy="283" r="2"></circle><circle cx="257" cy="260" r="2"></circle><circle cx="275" cy="212" r="2"></circle><circle cx="293" cy="210" r="2"></circle><circle cx="311" cy="206" r="2"></circle><circle cx="329" cy="199" r="2"></circle><circle cx="347" cy="190" r="2"></circle><circle cx="366" cy="168" r="2"></circle><circle cx="384" cy="176" r="2"></circle><circle cx="402" cy="181" r="2"></circle><circle cx="420" cy="180" r="2"></circle><circle cx="438" cy="174" r="2"></circle><circle cx="456" cy="149" r="2"></circle><circle cx="474" cy="159" r="2"></circle><circle cx="493" cy="162" r="2"></circle><circle cx="511" cy="159" r="2"></circle><circle cx="529" cy="150" r="2"></circle><circle cx="547" cy="134" r="2"></circle><circle cx="565" cy="108" r="2"></circle></g></g></g></g></g><g class="SourcesFooter" style="fill:#777"><g class="clickable" style="fill:#777"><text font-size="12.60" x="15.0" y="581.6"><tspan x="15" y="581.58">Source: IHME, Global Burden of Disease</tspan></text></g><text font-size="12.60" x="775.4" y="581.6"><tspan x="775.402" y="581.58"><a style="fill: #777;" class="cclogo" href="http://creativecommons.org/licenses/by-sa/4.0/deed.en_US" target="_blank">CC BY-SA</a></tspan></text></g></g></svg>