<svg xmlns="http://www.w3.org/2000/svg" version="1.1" style="font-family:&#x27;Helvetica Neue&#x27;, Helvetica, Arial, sans-serif;font-size:18px;background-color:white;text-rendering:optimizeLegibility;-webkit-font-smoothing:antialiased" width="850" height="600"><g class="ChartTab"><g class="HeaderView"><g opacity="0.8" transform="translate(778, 15) scale(0.27)"><a xmlns:xlink="http://www.w3.org/1999/xlink" xlink:href="https://ourworldindata.org" target="_blank"><g><rect x="0" y="0" fill="#1B2543" width="211.2" height="130.1"/><rect x="0" y="112.2" fill="#E63912" width="211.2" height="17.9"/><g><rect x="1.2" y="12.3" fill="none" width="210.2" height="99.2"/><path fill="#FFFFFF" d="M37.8,32.2c0,12.7-7.7,19.4-17.1,19.4c-9.7,0-16.6-7.5-16.6-18.7c0-11.7,7.3-19.3,17.1-19.3 C31.3,13.7,37.8,21.3,37.8,32.2z M9.2,32.8c0,7.9,4.3,14.9,11.8,14.9c7.5,0,11.8-6.9,11.8-15.3c0-7.3-3.8-14.9-11.8-14.9 C13.1,17.5,9.2,24.8,9.2,32.8z"/><path fill="#FFFFFF" d="M62.7,43.8c0,2.7,0.1,5.1,0.2,7.2h-4.3l-0.3-4.3h-0.1c-1.3,2.1-4,4.9-8.8,4.9c-4.2,0-9.1-2.3-9.1-11.6 V24.6h4.8v14.6c0,5,1.5,8.4,5.9,8.4c3.2,0,5.5-2.2,6.3-4.4c0.3-0.7,0.4-1.6,0.4-2.5V24.6h4.8V43.8z"/><path fill="#FFFFFF" d="M67.3,32.8c0-3.1-0.1-5.8-0.2-8.2h4.2l0.2,5.2h0.2c1.2-3.5,4.1-5.8,7.3-5.8c0.5,0,0.9,0.1,1.4,0.2v4.5 c-0.5-0.1-1-0.2-1.6-0.2c-3.4,0-5.8,2.6-6.5,6.2c-0.1,0.7-0.2,1.4-0.2,2.2V51h-4.8V32.8z"/><path fill="#FFFFFF" d="M95.4,51l-9.4-36.8h5l4.4,18.6c1.1,4.6,2.1,9.2,2.7,12.7h0.1c0.6-3.7,1.8-8,3-12.8l4.9-18.5h5l4.5,18.7 c1,4.4,2,8.7,2.6,12.6h0.1c0.8-4,1.8-8.1,3-12.7l4.9-18.5h4.9L120.6,51h-5L111,31.9c-1.1-4.7-1.9-8.3-2.4-12h-0.1 c-0.7,3.7-1.5,7.3-2.8,12L100.4,51H95.4z"/><path fill="#FFFFFF" d="M154.9,37.6c0,9.8-6.8,14-13.2,14c-7.2,0-12.7-5.2-12.7-13.6c0-8.8,5.8-14,13.1-14 C149.8,24,154.9,29.5,154.9,37.6z M133.9,37.9c0,5.8,3.3,10.1,8,10.1c4.6,0,8-4.3,8-10.3c0-4.5-2.2-10.1-7.9-10.1 C136.3,27.6,133.9,32.8,133.9,37.9z"/><path fill="#FFFFFF" d="M158.2,32.8c0-3.1-0.1-5.8-0.2-8.2h4.2l0.2,5.2h0.2c1.2-3.5,4.1-5.8,7.3-5.8c0.5,0,0.9,0.1,1.4,0.2v4.5 c-0.5-0.1-1-0.2-1.6-0.2c-3.4,0-5.8,2.6-6.5,6.2c-0.1,0.7-0.2,1.4-0.2,2.2V51h-4.8V32.8z"/><path fill="#FFFFFF" d="M173.5,12.3h4.8V51h-4.8V12.3z"/><path fill="#FFFFFF" d="M206.5,12.3v31.9c0,2.3,0.1,5,0.2,6.8h-4.3l-0.2-4.6H202c-1.5,2.9-4.7,5.2-9,5.2 c-6.4,0-11.3-5.4-11.3-13.4c-0.1-8.8,5.4-14.2,11.9-14.2c4,0,6.8,1.9,8,4h0.1V12.3H206.5z M201.7,35.4c0-0.6-0.1-1.4-0.2-2 c-0.7-3.1-3.3-5.6-6.9-5.6c-5,0-7.9,4.4-7.9,10.2c0,5.3,2.6,9.8,7.8,9.8c3.2,0,6.2-2.1,7.1-5.7c0.2-0.7,0.2-1.3,0.2-2.1V35.4z"/><path fill="#FFFFFF" d="M42.8,64c0.1,1.6-1.1,2.9-3.1,2.9c-1.7,0-2.9-1.3-2.9-2.9c0-1.7,1.3-3,3-3C41.7,61,42.8,62.3,42.8,64z M37.4,97.8V71.4h4.8v26.4H37.4z"/><path fill="#FFFFFF" d="M47.5,78.6c0-2.7-0.1-5-0.2-7.1h4.3l0.3,4.4h0.1c1.3-2.5,4.4-5,8.8-5c3.7,0,9.4,2.2,9.4,11.2v15.8h-4.8 V82.6c0-4.3-1.6-7.8-6.1-7.8c-3.2,0-5.6,2.2-6.5,4.9c-0.2,0.6-0.3,1.4-0.3,2.2v15.9h-4.8V78.6z"/><path fill="#FFFFFF" d="M84,61.6c2.9-0.4,6.3-0.8,10.1-0.8c6.8,0,11.7,1.6,14.9,4.6c3.3,3,5.2,7.3,5.2,13.2c0,6-1.9,10.9-5.3,14.3 c-3.4,3.4-9.1,5.3-16.3,5.3c-3.4,0-6.2-0.2-8.6-0.4V61.6z M88.8,94.1c1.2,0.2,3,0.3,4.8,0.3c10.2,0,15.7-5.7,15.7-15.6 c0.1-8.7-4.9-14.2-14.9-14.2c-2.5,0-4.3,0.2-5.6,0.5V94.1z"/><path fill="#FFFFFF" d="M132.1,97.8l-0.4-3.3h-0.2c-1.5,2.1-4.3,3.9-8.1,3.9c-5.4,0-8.1-3.8-8.1-7.6c0-6.4,5.7-9.9,15.9-9.8v-0.5 c0-2.2-0.6-6.1-6-6.1c-2.5,0-5,0.8-6.9,2l-1.1-3.2c2.2-1.4,5.4-2.3,8.7-2.3c8.1,0,10.1,5.5,10.1,10.8v9.9c0,2.3,0.1,4.5,0.4,6.3 H132.1z M131.4,84.4c-5.3-0.1-11.2,0.8-11.2,5.9c0,3.1,2.1,4.6,4.5,4.6c3.4,0,5.6-2.2,6.4-4.4c0.2-0.5,0.3-1,0.3-1.5V84.4z"/><path fill="#FFFFFF" d="M146.6,63.9v7.6h6.9v3.7h-6.9v14.2c0,3.3,0.9,5.1,3.6,5.1c1.3,0,2.2-0.2,2.8-0.3l0.2,3.6 c-0.9,0.4-2.4,0.7-4.3,0.7c-2.2,0-4-0.7-5.2-2c-1.4-1.4-1.9-3.8-1.9-6.9V75.1h-4.1v-3.7h4.1v-6.3L146.6,63.9z"/><path fill="#FFFFFF" d="M171.4,97.8l-0.4-3.3h-0.2c-1.5,2.1-4.3,3.9-8.1,3.9c-5.4,0-8.1-3.8-8.1-7.6c0-6.4,5.7-9.9,15.9-9.8v-0.5 c0-2.2-0.6-6.1-6-6.1c-2.5,0-5,0.8-6.9,2l-1.1-3.2c2.2-1.4,5.4-2.3,8.7-2.3c8.1,0,10.1,5.5,10.1,10.8v9.9c0,2.3,0.1,4.5,0.4,6.3 H171.4z M170.7,84.4c-5.3-0.1-11.2,0.8-11.2,5.9c0,3.1,2.1,4.6,4.5,4.6c3.4,0,5.6-2.2,6.4-4.4c0.2-0.5,0.3-1,0.3-1.5V84.4z"/></g></g></a></g><a href="https://ourworldindata.org/grapher/deaths-from-hiv-by-age" target="_blank"><text font-size="25.20" x="15.0" y="35.2" fill="#555"><tspan x="15" y="35.160000000000004">Deaths from HIV/AIDS by age group, World</tspan></text></a><text font-size="14.40" x="15.0" y="53.7" fill="#666"><tspan x="15" y="53.72">Total number of annual deaths from HIV/AIDS, categorised by broad age groups.</tspan></text></g><g class="StackedArea"><defs><clipPath id="boundsClip-428"><rect x="146.522" y="0" width="820" height="959.8"></rect></clipPath></defs><g class="AxisBoxView"><g class="HorizontalAxis"><text x="146.5" y="556.5" fill="#666" text-anchor="middle" font-size="16.2">1990</text><text x="255.8" y="556.5" fill="#666" text-anchor="middle" font-size="16.2">1995</text><text x="365.1" y="556.5" fill="#666" text-anchor="middle" font-size="16.2">2000</text><text x="474.5" y="556.5" fill="#666" text-anchor="middle" font-size="16.2">2005</text><text x="583.8" y="556.5" fill="#666" text-anchor="middle" font-size="16.2">2010</text><text x="715" y="556.5" fill="#666" text-anchor="middle" font-size="16.2">2016</text></g><g class="VerticalAxis"><text x="141.52" y="535.3" fill="#666" dominant-baseline="middle" text-anchor="end" font-size="16.2">0 deaths</text><text x="141.52" y="415.3" fill="#666" dominant-baseline="middle" text-anchor="end" font-size="16.2">500,000 deaths</text><text x="141.52" y="295.3" fill="#666" dominant-baseline="middle" text-anchor="end" font-size="16.2">1 million deaths</text><text x="141.52" y="175.3" fill="#666" dominant-baseline="middle" text-anchor="end" font-size="16.2">1.5 million deaths</text></g><g class="AxisGridLines"><line x1="146.52" y1="535.3" x2="714.95" y2="535.3" stroke="#ccc"></line><line x1="146.52" y1="415.3" x2="714.95" y2="415.3" stroke="#ddd" stroke-dasharray="3,2"></line><line x1="146.52" y1="295.3" x2="714.95" y2="295.3" stroke="#ddd" stroke-dasharray="3,2"></line><line x1="146.52" y1="175.3" x2="714.95" y2="175.3" stroke="#ddd" stroke-dasharray="3,2"></line></g></g><g clip-path="url(#boundsClip-428)"><g class="HeightedLegend clickable"><g class="legendMark"><rect x="714.95" y="281.85" width="94.805" height="13.5" fill="#fff" opacity="0"></rect><text font-size="13.50" x="720.0" y="292.7" fill="#2a939b"><tspan x="719.95" y="292.65000000000003">70+ years</tspan></text></g><g class="legendMark"><rect x="714.95" y="300.15" width="106.55000000000001" height="13.5" fill="#fff" opacity="0"></rect><text font-size="13.50" x="720.0" y="310.9" fill="#ffd53e"><tspan x="719.95" y="310.95">50-69 years</tspan></text></g><g class="legendMark"><rect x="714.95" y="409.05" width="106.55000000000001" height="13.5" fill="#fff" opacity="0"></rect><text font-size="13.50" x="720.0" y="419.9" fill="#ca2628"><tspan x="719.95" y="419.85">15-49 years</tspan></text></g><g class="legendMark"><rect x="714.95" y="507.45000000000005" width="98.99000000000001" height="13.5" fill="#fff" opacity="0"></rect><text font-size="13.50" x="720.0" y="518.3" fill="#c8c8c8"><tspan x="719.95" y="518.25">5-14 years</tspan></text></g><g class="legendMark"><rect x="714.95" y="521.15" width="120.05000000000001" height="13.5" fill="#fff" opacity="0"></rect><text font-size="13.50" x="720.0" y="531.9" fill="#3360a9"><tspan x="719.95" y="531.9499999999999">Under 5 years</tspan></text></g></g><g class="Areas"><rect x="146.522" y="76.6" width="568.4280000000001" height="458.69999999999993" opacity="0" fill="rgba(255,255,255,0)"></rect><path class="World_0-area" stroke-linecap="round" d="M146.5 528L168.4 525.5L190.2 522.8L212.1 519.8L234 516.6L255.8 513.3L277.7 510L299.6 507L321.4 504.1L343.3 501.5L365.1 499.3L387 497.5L408.9 496.1L430.7 495.2L452.6 494.9L474.5 495.4L496.3 496.7L518.2 498.6L540 501L561.9 503.3L583.8 505.7L605.6 508.5L627.5 510.9L649.4 513.4L671.2 515.7L693.1 518.2L715 520.5L714.95 535.3L146.522 535.3" fill="#3360a9" fill-opacity="0.7"></path><path class="World_2-area" stroke-linecap="round" d="M146.5 527.5L168.4 524.9L190.2 521.8L212.1 518.5L234 514.8L255.8 510.9L277.7 506.8L299.6 502.8L321.4 498.8L343.3 494.8L365.1 491.3L387 488L408.9 485.1L430.7 482.8L452.6 481L474.5 480.3L496.3 480.7L518.2 481.8L540 483.8L561.9 485.9L583.8 488.3L605.6 491.5L627.5 494.3L649.4 497.5L671.2 500.5L693.1 504L715 507.9L715 520.5L693.1 518.2L671.2 515.7L649.4 513.4L627.5 510.9L605.6 508.5L583.8 505.7L561.9 503.3L540 501L518.2 498.6L496.3 496.7L474.5 495.4L452.6 494.9L430.7 495.2L408.9 496.1L387 497.5L365.1 499.3L343.3 501.5L321.4 504.1L299.6 507L277.7 510L255.8 513.3L234 516.6L212.1 519.8L190.2 522.8L168.4 525.5L146.5 528" fill="#c8c8c8" fill-opacity="0.7"></path><path class="World_3-area" stroke-linecap="round" d="M146.5 475.8L168.4 458.4L190.2 437.9L212.1 414.9L234 389.4L255.8 362.9L277.7 338.5L299.6 315.8L321.4 289.2L343.3 260L365.1 232.7L387 208.6L408.9 186.9L430.7 168.7L452.6 155.8L474.5 149.6L496.3 150.4L518.2 157.6L540 170.2L561.9 185.5L583.8 202.7L605.6 221.5L627.5 241.6L649.4 262.8L671.2 283L693.1 303.8L715 323.6L715 507.9L693.1 504L671.2 500.5L649.4 497.5L627.5 494.3L605.6 491.5L583.8 488.3L561.9 485.9L540 483.8L518.2 481.8L496.3 480.7L474.5 480.3L452.6 481L430.7 482.8L408.9 485.1L387 488L365.1 491.3L343.3 494.8L321.4 498.8L299.6 502.8L277.7 506.8L255.8 510.9L234 514.8L212.1 518.5L190.2 521.8L168.4 524.9L146.5 527.5" fill="#ca2628" fill-opacity="0.7"></path><path class="World_4-area" stroke-linecap="round" d="M146.5 466.9L168.4 446.8L190.2 423.2L212.1 396.6L234 367.1L255.8 336.5L277.7 308.2L299.6 281.8L321.4 250.7L343.3 216.5L365.1 184.5L387 155.8L408.9 129.8L430.7 107.7L452.6 91.9L474.5 84.3L496.3 85.1L518.2 93.9L540 109.1L561.9 127.8L583.8 148.8L605.6 171.7L627.5 195.4L649.4 220.4L671.2 243.7L693.1 267.2L715 290.1L715 323.6L693.1 303.8L671.2 283L649.4 262.8L627.5 241.6L605.6 221.5L583.8 202.7L561.9 185.5L540 170.2L518.2 157.6L496.3 150.4L474.5 149.6L452.6 155.8L430.7 168.7L408.9 186.9L387 208.6L365.1 232.7L343.3 260L321.4 289.2L299.6 315.8L277.7 338.5L255.8 362.9L234 389.4L212.1 414.9L190.2 437.9L168.4 458.4L146.5 475.8" fill="#ffd53e" fill-opacity="0.7"></path><path class="World_1-area" stroke-linecap="round" d="M146.5 465.8L168.4 445.4L190.2 421.4L212.1 394.4L234 364.4L255.8 333.2L277.7 304.4L299.6 277.5L321.4 245.9L343.3 211.1L365.1 178.5L387 149.3L408.9 122.8L430.7 100.4L452.6 84.3L474.5 76.6L496.3 77.6L518.2 86.8L540 102.5L561.9 121.8L583.8 143.4L605.6 166.9L627.5 191.1L649.4 216.6L671.2 240.2L693.1 264L715 287.2L715 290.1L693.1 267.2L671.2 243.7L649.4 220.4L627.5 195.4L605.6 171.7L583.8 148.8L561.9 127.8L540 109.1L518.2 93.9L496.3 85.1L474.5 84.3L452.6 91.9L430.7 107.7L408.9 129.8L387 155.8L365.1 184.5L343.3 216.5L321.4 250.7L299.6 281.8L277.7 308.2L255.8 336.5L234 367.1L212.1 396.6L190.2 423.2L168.4 446.8L146.5 466.9" fill="#2a939b" fill-opacity="0.7"></path><path class="World_0-border" stroke-linecap="round" d="M146.5 528L168.4 525.5L190.2 522.8L212.1 519.8L234 516.6L255.8 513.3L277.7 510L299.6 507L321.4 504.1L343.3 501.5L365.1 499.3L387 497.5L408.9 496.1L430.7 495.2L452.6 494.9L474.5 495.4L496.3 496.7L518.2 498.6L540 501L561.9 503.3L583.8 505.7L605.6 508.5L627.5 510.9L649.4 513.4L671.2 515.7L693.1 518.2L715 520.5" stroke="rgb(43, 80, 141)" stroke-opacity="0.7" stroke-width="0.5" fill="none"></path><path class="World_2-border" stroke-linecap="round" d="M146.5 527.5L168.4 524.9L190.2 521.8L212.1 518.5L234 514.8L255.8 510.9L277.7 506.8L299.6 502.8L321.4 498.8L343.3 494.8L365.1 491.3L387 488L408.9 485.1L430.7 482.8L452.6 481L474.5 480.3L496.3 480.7L518.2 481.8L540 483.8L561.9 485.9L583.8 488.3L605.6 491.5L627.5 494.3L649.4 497.5L671.2 500.5L693.1 504L715 507.9" stroke="rgb(167, 167, 167)" stroke-opacity="0.7" stroke-width="0.5" fill="none"></path><path class="World_3-border" stroke-linecap="round" d="M146.5 475.8L168.4 458.4L190.2 437.9L212.1 414.9L234 389.4L255.8 362.9L277.7 338.5L299.6 315.8L321.4 289.2L343.3 260L365.1 232.7L387 208.6L408.9 186.9L430.7 168.7L452.6 155.8L474.5 149.6L496.3 150.4L518.2 157.6L540 170.2L561.9 185.5L583.8 202.7L605.6 221.5L627.5 241.6L649.4 262.8L671.2 283L693.1 303.8L715 323.6" stroke="rgb(169, 32, 33)" stroke-opacity="0.7" stroke-width="0.5" fill="none"></path><path class="World_4-border" stroke-linecap="round" d="M146.5 466.9L168.4 446.8L190.2 423.2L212.1 396.6L234 367.1L255.8 336.5L277.7 308.2L299.6 281.8L321.4 250.7L343.3 216.5L365.1 184.5L387 155.8L408.9 129.8L430.7 107.7L452.6 91.9L474.5 84.3L496.3 85.1L518.2 93.9L540 109.1L561.9 127.8L583.8 148.8L605.6 171.7L627.5 195.4L649.4 220.4L671.2 243.7L693.1 267.2L715 290.1" stroke="rgb(213, 178, 52)" stroke-opacity="0.7" stroke-width="0.5" fill="none"></path><path class="World_1-border" stroke-linecap="round" d="M146.5 465.8L168.4 445.4L190.2 421.4L212.1 394.4L234 364.4L255.8 333.2L277.7 304.4L299.6 277.5L321.4 245.9L343.3 211.1L365.1 178.5L387 149.3L408.9 122.8L430.7 100.4L452.6 84.3L474.5 76.6L496.3 77.6L518.2 86.8L540 102.5L561.9 121.8L583.8 143.4L605.6 166.9L627.5 191.1L649.4 216.6L671.2 240.2L693.1 264L715 287.2" stroke="rgb(35, 123, 130)" stroke-opacity="0.7" stroke-width="0.5" fill="none"></path></g></g></g><g class="SourcesFooter" style="fill:#777"><g class="clickable" style="fill:#777"><text font-size="12.60" x="15.0" y="581.6"><tspan x="15" y="581.58">Source: IHME, Global Burden of Disease (GBD)</tspan></text></g><text font-size="12.60" x="598.5" y="581.6"><tspan x="598.498" y="581.58"><a target='_blank' style='fill: #777;' href='https://ourworldindata.org/hiv-aids/'>OurWorldInData.org/hiv-aids/</a> • <a style="fill: #777;" class="cclogo" href="http://creativecommons.org/licenses/by-sa/4.0/deed.en_US" target="_blank">CC BY-SA</a></tspan></text></g></g></svg>