<svg xmlns="http://www.w3.org/2000/svg" version="1.1" style="font-family:&#x27;Helvetica Neue&#x27;, Helvetica, Arial, sans-serif;font-size:18px;background-color:white;text-rendering:optimizeLegibility;-webkit-font-smoothing:antialiased" width="850" height="600"><g class="ChartTab"><g class="HeaderView"><g opacity="0.8" transform="translate(778, 15) scale(0.27)"><a xmlns:xlink="http://www.w3.org/1999/xlink" xlink:href="https://ourworldindata.org" target="_blank"><g><rect x="0" y="0" fill="#1B2543" width="211.2" height="130.1"/><rect x="0" y="112.2" fill="#E63912" width="211.2" height="17.9"/><g><rect x="1.2" y="12.3" fill="none" width="210.2" height="99.2"/><path fill="#FFFFFF" d="M37.8,32.2c0,12.7-7.7,19.4-17.1,19.4c-9.7,0-16.6-7.5-16.6-18.7c0-11.7,7.3-19.3,17.1-19.3 C31.3,13.7,37.8,21.3,37.8,32.2z M9.2,32.8c0,7.9,4.3,14.9,11.8,14.9c7.5,0,11.8-6.9,11.8-15.3c0-7.3-3.8-14.9-11.8-14.9 C13.1,17.5,9.2,24.8,9.2,32.8z"/><path fill="#FFFFFF" d="M62.7,43.8c0,2.7,0.1,5.1,0.2,7.2h-4.3l-0.3-4.3h-0.1c-1.3,2.1-4,4.9-8.8,4.9c-4.2,0-9.1-2.3-9.1-11.6 V24.6h4.8v14.6c0,5,1.5,8.4,5.9,8.4c3.2,0,5.5-2.2,6.3-4.4c0.3-0.7,0.4-1.6,0.4-2.5V24.6h4.8V43.8z"/><path fill="#FFFFFF" d="M67.3,32.8c0-3.1-0.1-5.8-0.2-8.2h4.2l0.2,5.2h0.2c1.2-3.5,4.1-5.8,7.3-5.8c0.5,0,0.9,0.1,1.4,0.2v4.5 c-0.5-0.1-1-0.2-1.6-0.2c-3.4,0-5.8,2.6-6.5,6.2c-0.1,0.7-0.2,1.4-0.2,2.2V51h-4.8V32.8z"/><path fill="#FFFFFF" d="M95.4,51l-9.4-36.8h5l4.4,18.6c1.1,4.6,2.1,9.2,2.7,12.7h0.1c0.6-3.7,1.8-8,3-12.8l4.9-18.5h5l4.5,18.7 c1,4.4,2,8.7,2.6,12.6h0.1c0.8-4,1.8-8.1,3-12.7l4.9-18.5h4.9L120.6,51h-5L111,31.9c-1.1-4.7-1.9-8.3-2.4-12h-0.1 c-0.7,3.7-1.5,7.3-2.8,12L100.4,51H95.4z"/><path fill="#FFFFFF" d="M154.9,37.6c0,9.8-6.8,14-13.2,14c-7.2,0-12.7-5.2-12.7-13.6c0-8.8,5.8-14,13.1-14 C149.8,24,154.9,29.5,154.9,37.6z M133.9,37.9c0,5.8,3.3,10.1,8,10.1c4.6,0,8-4.3,8-10.3c0-4.5-2.2-10.1-7.9-10.1 C136.3,27.6,133.9,32.8,133.9,37.9z"/><path fill="#FFFFFF" d="M158.2,32.8c0-3.1-0.1-5.8-0.2-8.2h4.2l0.2,5.2h0.2c1.2-3.5,4.1-5.8,7.3-5.8c0.5,0,0.9,0.1,1.4,0.2v4.5 c-0.5-0.1-1-0.2-1.6-0.2c-3.4,0-5.8,2.6-6.5,6.2c-0.1,0.7-0.2,1.4-0.2,2.2V51h-4.8V32.8z"/><path fill="#FFFFFF" d="M173.5,12.3h4.8V51h-4.8V12.3z"/><path fill="#FFFFFF" d="M206.5,12.3v31.9c0,2.3,0.1,5,0.2,6.8h-4.3l-0.2-4.6H202c-1.5,2.9-4.7,5.2-9,5.2 c-6.4,0-11.3-5.4-11.3-13.4c-0.1-8.8,5.4-14.2,11.9-14.2c4,0,6.8,1.9,8,4h0.1V12.3H206.5z M201.7,35.4c0-0.6-0.1-1.4-0.2-2 c-0.7-3.1-3.3-5.6-6.9-5.6c-5,0-7.9,4.4-7.9,10.2c0,5.3,2.6,9.8,7.8,9.8c3.2,0,6.2-2.1,7.1-5.7c0.2-0.7,0.2-1.3,0.2-2.1V35.4z"/><path fill="#FFFFFF" d="M42.8,64c0.1,1.6-1.1,2.9-3.1,2.9c-1.7,0-2.9-1.3-2.9-2.9c0-1.7,1.3-3,3-3C41.7,61,42.8,62.3,42.8,64z M37.4,97.8V71.4h4.8v26.4H37.4z"/><path fill="#FFFFFF" d="M47.5,78.6c0-2.7-0.1-5-0.2-7.1h4.3l0.3,4.4h0.1c1.3-2.5,4.4-5,8.8-5c3.7,0,9.4,2.2,9.4,11.2v15.8h-4.8 V82.6c0-4.3-1.6-7.8-6.1-7.8c-3.2,0-5.6,2.2-6.5,4.9c-0.2,0.6-0.3,1.4-0.3,2.2v15.9h-4.8V78.6z"/><path fill="#FFFFFF" d="M84,61.6c2.9-0.4,6.3-0.8,10.1-0.8c6.8,0,11.7,1.6,14.9,4.6c3.3,3,5.2,7.3,5.2,13.2c0,6-1.9,10.9-5.3,14.3 c-3.4,3.4-9.1,5.3-16.3,5.3c-3.4,0-6.2-0.2-8.6-0.4V61.6z M88.8,94.1c1.2,0.2,3,0.3,4.8,0.3c10.2,0,15.7-5.7,15.7-15.6 c0.1-8.7-4.9-14.2-14.9-14.2c-2.5,0-4.3,0.2-5.6,0.5V94.1z"/><path fill="#FFFFFF" d="M132.1,97.8l-0.4-3.3h-0.2c-1.5,2.1-4.3,3.9-8.1,3.9c-5.4,0-8.1-3.8-8.1-7.6c0-6.4,5.7-9.9,15.9-9.8v-0.5 c0-2.2-0.6-6.1-6-6.1c-2.5,0-5,0.8-6.9,2l-1.1-3.2c2.2-1.4,5.4-2.3,8.7-2.3c8.1,0,10.1,5.5,10.1,10.8v9.9c0,2.3,0.1,4.5,0.4,6.3 H132.1z M131.4,84.4c-5.3-0.1-11.2,0.8-11.2,5.9c0,3.1,2.1,4.6,4.5,4.6c3.4,0,5.6-2.2,6.4-4.4c0.2-0.5,0.3-1,0.3-1.5V84.4z"/><path fill="#FFFFFF" d="M146.6,63.9v7.6h6.9v3.7h-6.9v14.2c0,3.3,0.9,5.1,3.6,5.1c1.3,0,2.2-0.2,2.8-0.3l0.2,3.6 c-0.9,0.4-2.4,0.7-4.3,0.7c-2.2,0-4-0.7-5.2-2c-1.4-1.4-1.9-3.8-1.9-6.9V75.1h-4.1v-3.7h4.1v-6.3L146.6,63.9z"/><path fill="#FFFFFF" d="M171.4,97.8l-0.4-3.3h-0.2c-1.5,2.1-4.3,3.9-8.1,3.9c-5.4,0-8.1-3.8-8.1-7.6c0-6.4,5.7-9.9,15.9-9.8v-0.5 c0-2.2-0.6-6.1-6-6.1c-2.5,0-5,0.8-6.9,2l-1.1-3.2c2.2-1.4,5.4-2.3,8.7-2.3c8.1,0,10.1,5.5,10.1,10.8v9.9c0,2.3,0.1,4.5,0.4,6.3 H171.4z M170.7,84.4c-5.3-0.1-11.2,0.8-11.2,5.9c0,3.1,2.1,4.6,4.5,4.6c3.4,0,5.6-2.2,6.4-4.4c0.2-0.5,0.3-1,0.3-1.5V84.4z"/></g></g></a></g><a href="https://ourworldindata.org/grapher/deaths-from-smallpox-in-london" target="_blank"><text font-size="21.60" x="15.0" y="32.3" fill="#555"><tspan x="15" y="32.279999999999994">Deaths caused by smallpox as a share of all deaths in London, (1629-1902)</tspan></text></a></g><g class="LineChart"><defs><clipPath id="boundsClip-194"><rect x="42.562" y="0" width="830" height="973"></rect></clipPath></defs><g class="AxisBoxView"><g class="HorizontalAxis"><text x="52.6" y="556.5" fill="#666" text-anchor="middle" font-size="16.2">1629</text><text x="95.9" y="556.5" fill="#666" text-anchor="middle" font-size="16.2">1650</text><text x="199.1" y="556.5" fill="#666" text-anchor="middle" font-size="16.2">1700</text><text x="302.3" y="556.5" fill="#666" text-anchor="middle" font-size="16.2">1750</text><text x="405.5" y="556.5" fill="#666" text-anchor="middle" font-size="16.2">1800</text><text x="508.7" y="556.5" fill="#666" text-anchor="middle" font-size="16.2">1850</text><text x="616" y="556.5" fill="#666" text-anchor="middle" font-size="16.2">1902</text></g><g class="VerticalAxis"><text x="47.56" y="535.3" fill="#666" dominant-baseline="middle" text-anchor="end" font-size="16.2">0%</text><text x="47.56" y="484.7" fill="#666" dominant-baseline="middle" text-anchor="end" font-size="16.2">2%</text><text x="47.56" y="434.1" fill="#666" dominant-baseline="middle" text-anchor="end" font-size="16.2">4%</text><text x="47.56" y="383.5" fill="#666" dominant-baseline="middle" text-anchor="end" font-size="16.2">6%</text><text x="47.56" y="332.9" fill="#666" dominant-baseline="middle" text-anchor="end" font-size="16.2">8%</text><text x="47.56" y="282.3" fill="#666" dominant-baseline="middle" text-anchor="end" font-size="16.2">10%</text><text x="47.56" y="231.8" fill="#666" dominant-baseline="middle" text-anchor="end" font-size="16.2">12%</text><text x="47.56" y="181.2" fill="#666" dominant-baseline="middle" text-anchor="end" font-size="16.2">14%</text><text x="47.56" y="130.6" fill="#666" dominant-baseline="middle" text-anchor="end" font-size="16.2">16%</text><text x="47.56" y="80" fill="#666" dominant-baseline="middle" text-anchor="end" font-size="16.2">18%</text><text x="15" y="62" style="font-size:12px;text-transform:uppercase;cursor:pointer" class="clickable"><tspan style="font-family:FontAwesome"></tspan> linear</text></g><g class="AxisGridLines"><line x1="52.56" y1="535.3" x2="616.00" y2="535.3" stroke="#ccc"></line><line x1="52.56" y1="484.7" x2="616.00" y2="484.7" stroke="#ddd" stroke-dasharray="3,2"></line><line x1="52.56" y1="434.1" x2="616.00" y2="434.1" stroke="#ddd" stroke-dasharray="3,2"></line><line x1="52.56" y1="383.5" x2="616.00" y2="383.5" stroke="#ddd" stroke-dasharray="3,2"></line><line x1="52.56" y1="332.9" x2="616.00" y2="332.9" stroke="#ddd" stroke-dasharray="3,2"></line><line x1="52.56" y1="282.3" x2="616.00" y2="282.3" stroke="#ddd" stroke-dasharray="3,2"></line><line x1="52.56" y1="231.8" x2="616.00" y2="231.8" stroke="#ddd" stroke-dasharray="3,2"></line><line x1="52.56" y1="181.2" x2="616.00" y2="181.2" stroke="#ddd" stroke-dasharray="3,2"></line><line x1="52.56" y1="130.6" x2="616.00" y2="130.6" stroke="#ddd" stroke-dasharray="3,2"></line><line x1="52.56" y1="80" x2="616.00" y2="80" stroke="#ddd" stroke-dasharray="3,2"></line></g></g><g clip-path="url(#boundsClip-194)"><g class="HeightedLegend clickable"><g class="legendMark"><rect x="615.995" y="480.95" width="219.00500000000002" height="28.1" fill="#fff" opacity="0"></rect><text font-size="13.50" x="621.0" y="491.8" fill="#3360a9"><tspan x="620.995" y="491.75">Smallpox death rate in London</tspan><tspan x="620.995" y="506.6">1629-1902 (OWID, 2017)</tspan></text></g></g><g class="Lines"><rect x="53" y="70" width="563" height="465" fill="rgba(255,255,255,0)" opacity="0"></rect><g class="key-United-Kingdom_1"><path stroke="#3360a9" stroke-linecap="round" d="M53 515L55 526L57 518L59 395L61 514L63 220L65 466L67 522L90 510L92 433L94 250L96 482L98 412L100 277L102 497L104 379L106 248L108 384L110 365L112 466L115 274L117 476L119 376L121 418L123 468L125 365L127 518L129 528L131 344L133 244L135 412L137 352L139 423L141 380L143 412L145 236L148 389L150 487L152 313L154 315L156 306L158 451L160 221L162 363L164 278L166 365L168 263L170 417L201 400L203 495L205 426L207 368L209 410L212 443L214 409L216 335L218 417L220 213L222 419L224 303L226 341L228 268L230 415L232 284L234 297L236 356L238 247L240 392L242 306L245 322L247 252L249 416L251 219L253 406L255 324L257 344L259 293L261 354L263 271L265 406L267 417L269 274L271 364L273 259L276 346L278 380L280 367L282 312L284 380L286 404L288 332L290 335L292 392L294 245L296 398L298 346L300 275L302 404L304 415L306 98L309 434L311 272L313 306L315 340L317 144L319 352L321 200L323 256L325 352L327 272L329 189L331 276L333 263L335 288L337 291L339 211L342 307L344 311L346 343L348 148L350 414L352 235L354 206L356 306L358 257L360 359L362 227L364 428L366 108L368 446L370 329L373 286L375 268L377 386L379 219L381 394L383 282L385 309L387 300L389 339L391 258L393 284L395 411L397 70L399 458L401 210L403 380L406 271L408 345L410 329L412 380L414 443L416 293L418 372L420 356L422 387L424 359L426 383L428 424L430 357L432 404L434 452L436 442L439 454L441 402L443 481L445 442L447 432L449 466L451 454L453 440L455 445L457 379L459 474L461 465L463 466L465 456L467 462L470 479L490 477L492 515L494 513L496 446L498 488L500 522L503 494L505 464L507 516L509 510L511 487L513 482L515 526L517 512L519 493L521 512L523 529L525 526L527 488L529 499L531 527L533 522L536 464L538 518L540 513L542 492L544 487L546 515L548 526L550 504L552 287L554 472L556 532L558 533L560 534L562 511L564 452L567 493L569 522L571 521L573 461L575 522L577 531L579 507L581 507L583 535L585 535L587 535L589 535L591 535L593 535L595 534L597 530L600 532L602 534L604 535L606 535L608 535L610 535L612 535L614 528L616 495" fill="none" stroke-width="1.5"></path><g fill="#3360a9"><circle cx="53" cy="515" r="2"></circle><circle cx="55" cy="526" r="2"></circle><circle cx="57" cy="518" r="2"></circle><circle cx="59" cy="395" r="2"></circle><circle cx="61" cy="514" r="2"></circle><circle cx="63" cy="220" r="2"></circle><circle cx="65" cy="466" r="2"></circle><circle cx="67" cy="522" r="2"></circle><circle cx="90" cy="510" r="2"></circle><circle cx="92" cy="433" r="2"></circle><circle cx="94" cy="250" r="2"></circle><circle cx="96" cy="482" r="2"></circle><circle cx="98" cy="412" r="2"></circle><circle cx="100" cy="277" r="2"></circle><circle cx="102" cy="497" r="2"></circle><circle cx="104" cy="379" r="2"></circle><circle cx="106" cy="248" r="2"></circle><circle cx="108" cy="384" r="2"></circle><circle cx="110" cy="365" r="2"></circle><circle cx="112" cy="466" r="2"></circle><circle cx="115" cy="274" r="2"></circle><circle cx="117" cy="476" r="2"></circle><circle cx="119" cy="376" r="2"></circle><circle cx="121" cy="418" r="2"></circle><circle cx="123" cy="468" r="2"></circle><circle cx="125" cy="365" r="2"></circle><circle cx="127" cy="518" r="2"></circle><circle cx="129" cy="528" r="2"></circle><circle cx="131" cy="344" r="2"></circle><circle cx="133" cy="244" r="2"></circle><circle cx="135" cy="412" r="2"></circle><circle cx="137" cy="352" r="2"></circle><circle cx="139" cy="423" r="2"></circle><circle cx="141" cy="380" r="2"></circle><circle cx="143" cy="412" r="2"></circle><circle cx="145" cy="236" r="2"></circle><circle cx="148" cy="389" r="2"></circle><circle cx="150" cy="487" r="2"></circle><circle cx="152" cy="313" r="2"></circle><circle cx="154" cy="315" r="2"></circle><circle cx="156" cy="306" r="2"></circle><circle cx="158" cy="451" r="2"></circle><circle cx="160" cy="221" r="2"></circle><circle cx="162" cy="363" r="2"></circle><circle cx="164" cy="278" r="2"></circle><circle cx="166" cy="365" r="2"></circle><circle cx="168" cy="263" r="2"></circle><circle cx="170" cy="417" r="2"></circle><circle cx="201" cy="400" r="2"></circle><circle cx="203" cy="495" r="2"></circle><circle cx="205" cy="426" r="2"></circle><circle cx="207" cy="368" r="2"></circle><circle cx="209" cy="410" r="2"></circle><circle cx="212" cy="443" r="2"></circle><circle cx="214" cy="409" r="2"></circle><circle cx="216" cy="335" r="2"></circle><circle cx="218" cy="417" r="2"></circle><circle cx="220" cy="213" r="2"></circle><circle cx="222" cy="419" r="2"></circle><circle cx="224" cy="303" r="2"></circle><circle cx="226" cy="341" r="2"></circle><circle cx="228" cy="268" r="2"></circle><circle cx="230" cy="415" r="2"></circle><circle cx="232" cy="284" r="2"></circle><circle cx="234" cy="297" r="2"></circle><circle cx="236" cy="356" r="2"></circle><circle cx="238" cy="247" r="2"></circle><circle cx="240" cy="392" r="2"></circle><circle cx="242" cy="306" r="2"></circle><circle cx="245" cy="322" r="2"></circle><circle cx="247" cy="252" r="2"></circle><circle cx="249" cy="416" r="2"></circle><circle cx="251" cy="219" r="2"></circle><circle cx="253" cy="406" r="2"></circle><circle cx="255" cy="324" r="2"></circle><circle cx="257" cy="344" r="2"></circle><circle cx="259" cy="293" r="2"></circle><circle cx="261" cy="354" r="2"></circle><circle cx="263" cy="271" r="2"></circle><circle cx="265" cy="406" r="2"></circle><circle cx="267" cy="417" r="2"></circle><circle cx="269" cy="274" r="2"></circle><circle cx="271" cy="364" r="2"></circle><circle cx="273" cy="259" r="2"></circle><circle cx="276" cy="346" r="2"></circle><circle cx="278" cy="380" r="2"></circle><circle cx="280" cy="367" r="2"></circle><circle cx="282" cy="312" r="2"></circle><circle cx="284" cy="380" r="2"></circle><circle cx="286" cy="404" r="2"></circle><circle cx="288" cy="332" r="2"></circle><circle cx="290" cy="335" r="2"></circle><circle cx="292" cy="392" r="2"></circle><circle cx="294" cy="245" r="2"></circle><circle cx="296" cy="398" r="2"></circle><circle cx="298" cy="346" r="2"></circle><circle cx="300" cy="275" r="2"></circle><circle cx="302" cy="404" r="2"></circle><circle cx="304" cy="415" r="2"></circle><circle cx="306" cy="98" r="2"></circle><circle cx="309" cy="434" r="2"></circle><circle cx="311" cy="272" r="2"></circle><circle cx="313" cy="306" r="2"></circle><circle cx="315" cy="340" r="2"></circle><circle cx="317" cy="144" r="2"></circle><circle cx="319" cy="352" r="2"></circle><circle cx="321" cy="200" r="2"></circle><circle cx="323" cy="256" r="2"></circle><circle cx="325" cy="352" r="2"></circle><circle cx="327" cy="272" r="2"></circle><circle cx="329" cy="189" r="2"></circle><circle cx="331" cy="276" r="2"></circle><circle cx="333" cy="263" r="2"></circle><circle cx="335" cy="288" r="2"></circle><circle cx="337" cy="291" r="2"></circle><circle cx="339" cy="211" r="2"></circle><circle cx="342" cy="307" r="2"></circle><circle cx="344" cy="311" r="2"></circle><circle cx="346" cy="343" r="2"></circle><circle cx="348" cy="148" r="2"></circle><circle cx="350" cy="414" r="2"></circle><circle cx="352" cy="235" r="2"></circle><circle cx="354" cy="206" r="2"></circle><circle cx="356" cy="306" r="2"></circle><circle cx="358" cy="257" r="2"></circle><circle cx="360" cy="359" r="2"></circle><circle cx="362" cy="227" r="2"></circle><circle cx="364" cy="428" r="2"></circle><circle cx="366" cy="108" r="2"></circle><circle cx="368" cy="446" r="2"></circle><circle cx="370" cy="329" r="2"></circle><circle cx="373" cy="286" r="2"></circle><circle cx="375" cy="268" r="2"></circle><circle cx="377" cy="386" r="2"></circle><circle cx="379" cy="219" r="2"></circle><circle cx="381" cy="394" r="2"></circle><circle cx="383" cy="282" r="2"></circle><circle cx="385" cy="309" r="2"></circle><circle cx="387" cy="300" r="2"></circle><circle cx="389" cy="339" r="2"></circle><circle cx="391" cy="258" r="2"></circle><circle cx="393" cy="284" r="2"></circle><circle cx="395" cy="411" r="2"></circle><circle cx="397" cy="70" r="2"></circle><circle cx="399" cy="458" r="2"></circle><circle cx="401" cy="210" r="2"></circle><circle cx="403" cy="380" r="2"></circle><circle cx="406" cy="271" r="2"></circle><circle cx="408" cy="345" r="2"></circle><circle cx="410" cy="329" r="2"></circle><circle cx="412" cy="380" r="2"></circle><circle cx="414" cy="443" r="2"></circle><circle cx="416" cy="293" r="2"></circle><circle cx="418" cy="372" r="2"></circle><circle cx="420" cy="356" r="2"></circle><circle cx="422" cy="387" r="2"></circle><circle cx="424" cy="359" r="2"></circle><circle cx="426" cy="383" r="2"></circle><circle cx="428" cy="424" r="2"></circle><circle cx="430" cy="357" r="2"></circle><circle cx="432" cy="404" r="2"></circle><circle cx="434" cy="452" r="2"></circle><circle cx="436" cy="442" r="2"></circle><circle cx="439" cy="454" r="2"></circle><circle cx="441" cy="402" r="2"></circle><circle cx="443" cy="481" r="2"></circle><circle cx="445" cy="442" r="2"></circle><circle cx="447" cy="432" r="2"></circle><circle cx="449" cy="466" r="2"></circle><circle cx="451" cy="454" r="2"></circle><circle cx="453" cy="440" r="2"></circle><circle cx="455" cy="445" r="2"></circle><circle cx="457" cy="379" r="2"></circle><circle cx="459" cy="474" r="2"></circle><circle cx="461" cy="465" r="2"></circle><circle cx="463" cy="466" r="2"></circle><circle cx="465" cy="456" r="2"></circle><circle cx="467" cy="462" r="2"></circle><circle cx="470" cy="479" r="2"></circle><circle cx="490" cy="477" r="2"></circle><circle cx="492" cy="515" r="2"></circle><circle cx="494" cy="513" r="2"></circle><circle cx="496" cy="446" r="2"></circle><circle cx="498" cy="488" r="2"></circle><circle cx="500" cy="522" r="2"></circle><circle cx="503" cy="494" r="2"></circle><circle cx="505" cy="464" r="2"></circle><circle cx="507" cy="516" r="2"></circle><circle cx="509" cy="510" r="2"></circle><circle cx="511" cy="487" r="2"></circle><circle cx="513" cy="482" r="2"></circle><circle cx="515" cy="526" r="2"></circle><circle cx="517" cy="512" r="2"></circle><circle cx="519" cy="493" r="2"></circle><circle cx="521" cy="512" r="2"></circle><circle cx="523" cy="529" r="2"></circle><circle cx="525" cy="526" r="2"></circle><circle cx="527" cy="488" r="2"></circle><circle cx="529" cy="499" r="2"></circle><circle cx="531" cy="527" r="2"></circle><circle cx="533" cy="522" r="2"></circle><circle cx="536" cy="464" r="2"></circle><circle cx="538" cy="518" r="2"></circle><circle cx="540" cy="513" r="2"></circle><circle cx="542" cy="492" r="2"></circle><circle cx="544" cy="487" r="2"></circle><circle cx="546" cy="515" r="2"></circle><circle cx="548" cy="526" r="2"></circle><circle cx="550" cy="504" r="2"></circle><circle cx="552" cy="287" r="2"></circle><circle cx="554" cy="472" r="2"></circle><circle cx="556" cy="532" r="2"></circle><circle cx="558" cy="533" r="2"></circle><circle cx="560" cy="534" r="2"></circle><circle cx="562" cy="511" r="2"></circle><circle cx="564" cy="452" r="2"></circle><circle cx="567" cy="493" r="2"></circle><circle cx="569" cy="522" r="2"></circle><circle cx="571" cy="521" r="2"></circle><circle cx="573" cy="461" r="2"></circle><circle cx="575" cy="522" r="2"></circle><circle cx="577" cy="531" r="2"></circle><circle cx="579" cy="507" r="2"></circle><circle cx="581" cy="507" r="2"></circle><circle cx="583" cy="535" r="2"></circle><circle cx="585" cy="535" r="2"></circle><circle cx="587" cy="535" r="2"></circle><circle cx="589" cy="535" r="2"></circle><circle cx="591" cy="535" r="2"></circle><circle cx="593" cy="535" r="2"></circle><circle cx="595" cy="534" r="2"></circle><circle cx="597" cy="530" r="2"></circle><circle cx="600" cy="532" r="2"></circle><circle cx="602" cy="534" r="2"></circle><circle cx="604" cy="535" r="2"></circle><circle cx="606" cy="535" r="2"></circle><circle cx="608" cy="535" r="2"></circle><circle cx="610" cy="535" r="2"></circle><circle cx="612" cy="535" r="2"></circle><circle cx="614" cy="528" r="2"></circle><circle cx="616" cy="495" r="2"></circle></g></g></g></g></g><g class="SourcesFooter" style="fill:#777"><g class="clickable" style="fill:#777"><text font-size="12.60" x="15.0" y="581.6"><tspan x="15" y="581.58">Source: Our World in Data (2017)</tspan></text></g><text font-size="12.60" x="775.4" y="581.6"><tspan x="775.402" y="581.58"><a style="fill: #777;" class="cclogo" href="http://creativecommons.org/licenses/by-sa/4.0/deed.en_US" target="_blank">CC BY-SA</a></tspan></text></g></g></svg>