<svg xmlns="http://www.w3.org/2000/svg" version="1.1" style="font-family: 'Helvetica Neue', Helvetica, Arial, sans-serif; font-size: 18px; background-color: white; text-rendering: optimizeLegibility; -webkit-font-smoothing: antialiased;" width="850" height="600"><g class="ChartTab"><g class="HeaderView"><g opacity="0.8" transform="translate(770, 15) scale(0.31)"><a xmlns:xlink="http://www.w3.org/1999/xlink" xlink:href="https://ourworldindata.org" target="_blank"><g><rect x="0" y="0" fill="#1B2543" width="211.2" height="130.1"/><rect x="0" y="112.2" fill="#E63912" width="211.2" height="17.9"/><g><rect x="1.2" y="12.3" fill="none" width="210.2" height="99.2"/><path fill="#FFFFFF" d="M37.8,32.2c0,12.7-7.7,19.4-17.1,19.4c-9.7,0-16.6-7.5-16.6-18.7c0-11.7,7.3-19.3,17.1-19.3 C31.3,13.7,37.8,21.3,37.8,32.2z M9.2,32.8c0,7.9,4.3,14.9,11.8,14.9c7.5,0,11.8-6.9,11.8-15.3c0-7.3-3.8-14.9-11.8-14.9 C13.1,17.5,9.2,24.8,9.2,32.8z"/><path fill="#FFFFFF" d="M62.7,43.8c0,2.7,0.1,5.1,0.2,7.2h-4.3l-0.3-4.3h-0.1c-1.3,2.1-4,4.9-8.8,4.9c-4.2,0-9.1-2.3-9.1-11.6 V24.6h4.8v14.6c0,5,1.5,8.4,5.9,8.4c3.2,0,5.5-2.2,6.3-4.4c0.3-0.7,0.4-1.6,0.4-2.5V24.6h4.8V43.8z"/><path fill="#FFFFFF" d="M67.3,32.8c0-3.1-0.1-5.8-0.2-8.2h4.2l0.2,5.2h0.2c1.2-3.5,4.1-5.8,7.3-5.8c0.5,0,0.9,0.1,1.4,0.2v4.5 c-0.5-0.1-1-0.2-1.6-0.2c-3.4,0-5.8,2.6-6.5,6.2c-0.1,0.7-0.2,1.4-0.2,2.2V51h-4.8V32.8z"/><path fill="#FFFFFF" d="M95.4,51l-9.4-36.8h5l4.4,18.6c1.1,4.6,2.1,9.2,2.7,12.7h0.1c0.6-3.7,1.8-8,3-12.8l4.9-18.5h5l4.5,18.7 c1,4.4,2,8.7,2.6,12.6h0.1c0.8-4,1.8-8.1,3-12.7l4.9-18.5h4.9L120.6,51h-5L111,31.9c-1.1-4.7-1.9-8.3-2.4-12h-0.1 c-0.7,3.7-1.5,7.3-2.8,12L100.4,51H95.4z"/><path fill="#FFFFFF" d="M154.9,37.6c0,9.8-6.8,14-13.2,14c-7.2,0-12.7-5.2-12.7-13.6c0-8.8,5.8-14,13.1-14 C149.8,24,154.9,29.5,154.9,37.6z M133.9,37.9c0,5.8,3.3,10.1,8,10.1c4.6,0,8-4.3,8-10.3c0-4.5-2.2-10.1-7.9-10.1 C136.3,27.6,133.9,32.8,133.9,37.9z"/><path fill="#FFFFFF" d="M158.2,32.8c0-3.1-0.1-5.8-0.2-8.2h4.2l0.2,5.2h0.2c1.2-3.5,4.1-5.8,7.3-5.8c0.5,0,0.9,0.1,1.4,0.2v4.5 c-0.5-0.1-1-0.2-1.6-0.2c-3.4,0-5.8,2.6-6.5,6.2c-0.1,0.7-0.2,1.4-0.2,2.2V51h-4.8V32.8z"/><path fill="#FFFFFF" d="M173.5,12.3h4.8V51h-4.8V12.3z"/><path fill="#FFFFFF" d="M206.5,12.3v31.9c0,2.3,0.1,5,0.2,6.8h-4.3l-0.2-4.6H202c-1.5,2.9-4.7,5.2-9,5.2 c-6.4,0-11.3-5.4-11.3-13.4c-0.1-8.8,5.4-14.2,11.9-14.2c4,0,6.8,1.9,8,4h0.1V12.3H206.5z M201.7,35.4c0-0.6-0.1-1.4-0.2-2 c-0.7-3.1-3.3-5.6-6.9-5.6c-5,0-7.9,4.4-7.9,10.2c0,5.3,2.6,9.8,7.8,9.8c3.2,0,6.2-2.1,7.1-5.7c0.2-0.7,0.2-1.3,0.2-2.1V35.4z"/><path fill="#FFFFFF" d="M42.8,64c0.1,1.6-1.1,2.9-3.1,2.9c-1.7,0-2.9-1.3-2.9-2.9c0-1.7,1.3-3,3-3C41.7,61,42.8,62.3,42.8,64z M37.4,97.8V71.4h4.8v26.4H37.4z"/><path fill="#FFFFFF" d="M47.5,78.6c0-2.7-0.1-5-0.2-7.1h4.3l0.3,4.4h0.1c1.3-2.5,4.4-5,8.8-5c3.7,0,9.4,2.2,9.4,11.2v15.8h-4.8 V82.6c0-4.3-1.6-7.8-6.1-7.8c-3.2,0-5.6,2.2-6.5,4.9c-0.2,0.6-0.3,1.4-0.3,2.2v15.9h-4.8V78.6z"/><path fill="#FFFFFF" d="M84,61.6c2.9-0.4,6.3-0.8,10.1-0.8c6.8,0,11.7,1.6,14.9,4.6c3.3,3,5.2,7.3,5.2,13.2c0,6-1.9,10.9-5.3,14.3 c-3.4,3.4-9.1,5.3-16.3,5.3c-3.4,0-6.2-0.2-8.6-0.4V61.6z M88.8,94.1c1.2,0.2,3,0.3,4.8,0.3c10.2,0,15.7-5.7,15.7-15.6 c0.1-8.7-4.9-14.2-14.9-14.2c-2.5,0-4.3,0.2-5.6,0.5V94.1z"/><path fill="#FFFFFF" d="M132.1,97.8l-0.4-3.3h-0.2c-1.5,2.1-4.3,3.9-8.1,3.9c-5.4,0-8.1-3.8-8.1-7.6c0-6.4,5.7-9.9,15.9-9.8v-0.5 c0-2.2-0.6-6.1-6-6.1c-2.5,0-5,0.8-6.9,2l-1.1-3.2c2.2-1.4,5.4-2.3,8.7-2.3c8.1,0,10.1,5.5,10.1,10.8v9.9c0,2.3,0.1,4.5,0.4,6.3 H132.1z M131.4,84.4c-5.3-0.1-11.2,0.8-11.2,5.9c0,3.1,2.1,4.6,4.5,4.6c3.4,0,5.6-2.2,6.4-4.4c0.2-0.5,0.3-1,0.3-1.5V84.4z"/><path fill="#FFFFFF" d="M146.6,63.9v7.6h6.9v3.7h-6.9v14.2c0,3.3,0.9,5.1,3.6,5.1c1.3,0,2.2-0.2,2.8-0.3l0.2,3.6 c-0.9,0.4-2.4,0.7-4.3,0.7c-2.2,0-4-0.7-5.2-2c-1.4-1.4-1.9-3.8-1.9-6.9V75.1h-4.1v-3.7h4.1v-6.3L146.6,63.9z"/><path fill="#FFFFFF" d="M171.4,97.8l-0.4-3.3h-0.2c-1.5,2.1-4.3,3.9-8.1,3.9c-5.4,0-8.1-3.8-8.1-7.6c0-6.4,5.7-9.9,15.9-9.8v-0.5 c0-2.2-0.6-6.1-6-6.1c-2.5,0-5,0.8-6.9,2l-1.1-3.2c2.2-1.4,5.4-2.3,8.7-2.3c8.1,0,10.1,5.5,10.1,10.8v9.9c0,2.3,0.1,4.5,0.4,6.3 H171.4z M170.7,84.4c-5.3-0.1-11.2,0.8-11.2,5.9c0,3.1,2.1,4.6,4.5,4.6c3.4,0,5.6-2.2,6.4-4.4c0.2-0.5,0.3-1,0.3-1.5V84.4z"/></g></g></a></g><a href="https://ourworldindata.org/grapher/death-rates-from-indoor-air-pollution-vs-share-of-population-in-absolute-poverty?time=2010" target="_blank"><text font-size="21.60" x="15.0" y="32.3" fill="#555"><tspan x="15" y="32.279999999999994">Death rates from indoor air pollution vs. share of population in absolute</tspan><tspan x="15" y="53.87999999999999">poverty, 2010</tspan></text></a><text font-size="14.40" x="15.0" y="72.7" fill="#666"><tspan x="15" y="72.72">Age-standardized death rates from illness attributed to household air pollution from solid cooking fuels, measured per 100,000</tspan><tspan x="15" y="88.56">individuals versus the share of the total population in absolute poverty (which is defined by a $1.90 poverty line corrected for</tspan><tspan x="15" y="104.4">cross-country price differences).</tspan></text></g><g><g class="AxisBoxView"><g class="HorizontalAxis"><text font-size="12.60" x="172.2" y="539.4"><tspan x="172.157" y="539.38">Poverty headcount ratio at $1.90 a day (2011 PPP) (% of population)</tspan></text><text x="69.8" y="519.3" fill="#666" text-anchor="middle" font-size="16.2">0%</text><text x="148.7" y="519.3" fill="#666" text-anchor="middle" font-size="16.2">10%</text><text x="227.6" y="519.3" fill="#666" text-anchor="middle" font-size="16.2">20%</text><text x="306.6" y="519.3" fill="#666" text-anchor="middle" font-size="16.2">30%</text><text x="385.5" y="519.3" fill="#666" text-anchor="middle" font-size="16.2">40%</text><text x="464.4" y="519.3" fill="#666" text-anchor="middle" font-size="16.2">50%</text><text x="543.3" y="519.3" fill="#666" text-anchor="middle" font-size="16.2">60%</text><text x="622.2" y="519.3" fill="#666" text-anchor="middle" font-size="16.2">70%</text><text x="701.1" y="519.3" fill="#666" text-anchor="middle" font-size="16.2">80%</text></g><g class="VerticalAxis"><text font-size="12.60" x="-474.5" y="25.1" transform="rotate(-90)"><tspan x="-474.488" y="25.080000000000002">Death rates from indoor air pollution (per 100,000)</tspan></text><text x="64.82" y="498.1" fill="#666" dominant-baseline="middle" text-anchor="end" font-size="16.2">0</text><text x="64.82" y="438" fill="#666" dominant-baseline="middle" text-anchor="end" font-size="16.2">20</text><text x="64.82" y="377.9" fill="#666" dominant-baseline="middle" text-anchor="end" font-size="16.2">40</text><text x="64.82" y="317.7" fill="#666" dominant-baseline="middle" text-anchor="end" font-size="16.2">60</text><text x="64.82" y="257.6" fill="#666" dominant-baseline="middle" text-anchor="end" font-size="16.2">80</text><text x="64.82" y="197.5" fill="#666" dominant-baseline="middle" text-anchor="end" font-size="16.2">100</text><text x="64.82" y="137.4" fill="#666" dominant-baseline="middle" text-anchor="end" font-size="16.2">120</text></g><g class="AxisGridLines"><line x1="69.82" y1="498.1" x2="715.00" y2="498.1" stroke="#ccc"></line><line x1="69.82" y1="438" x2="715.00" y2="438" stroke="#ddd" stroke-dasharray="3,2"></line><line x1="69.82" y1="377.9" x2="715.00" y2="377.9" stroke="#ddd" stroke-dasharray="3,2"></line><line x1="69.82" y1="317.7" x2="715.00" y2="317.7" stroke="#ddd" stroke-dasharray="3,2"></line><line x1="69.82" y1="257.6" x2="715.00" y2="257.6" stroke="#ddd" stroke-dasharray="3,2"></line><line x1="69.82" y1="197.5" x2="715.00" y2="197.5" stroke="#ddd" stroke-dasharray="3,2"></line><line x1="69.82" y1="137.4" x2="715.00" y2="137.4" stroke="#ddd" stroke-dasharray="3,2"></line></g><g class="AxisGridLines"><line x1="69.8" y1="498.10" x2="69.8" y2="126.60" stroke="#ccc"></line><line x1="148.7" y1="498.10" x2="148.7" y2="126.60" stroke="#ddd" stroke-dasharray="3,2"></line><line x1="227.6" y1="498.10" x2="227.6" y2="126.60" stroke="#ddd" stroke-dasharray="3,2"></line><line x1="306.6" y1="498.10" x2="306.6" y2="126.60" stroke="#ddd" stroke-dasharray="3,2"></line><line x1="385.5" y1="498.10" x2="385.5" y2="126.60" stroke="#ddd" stroke-dasharray="3,2"></line><line x1="464.4" y1="498.10" x2="464.4" y2="126.60" stroke="#ddd" stroke-dasharray="3,2"></line><line x1="543.3" y1="498.10" x2="543.3" y2="126.60" stroke="#ddd" stroke-dasharray="3,2"></line><line x1="622.2" y1="498.10" x2="622.2" y2="126.60" stroke="#ddd" stroke-dasharray="3,2"></line><line x1="701.1" y1="498.10" x2="701.1" y2="126.60" stroke="#ddd" stroke-dasharray="3,2"></line></g></g><g clip-path="url(#scatterBounds-11)" class="PointsWithLabels clickable"><rect x="69.816" y="126.6" width="645.184" height="371.49999999999994" fill="rgba(255,255,255,0)"></rect><defs><clipPath id="scatterBounds-11"><rect x="59.816" y="116.6" width="665.184" height="391.49999999999994"></rect></clipPath></defs><circle cx="158" cy="335" r="17.841241161527712" fill="#d14e5b" opacity="0.8"></circle><circle cx="195" cy="403" r="7.714273060728514" fill="#d14e5b" opacity="0.8"></circle><circle cx="135" cy="298" r="6.628532573047985" fill="#d14e5b" opacity="0.8"></circle><circle cx="216" cy="259" r="6.171438195249033" fill="#d14e5b" opacity="0.8"></circle><circle cx="71" cy="462" r="6.061303268804209" fill="#ffd336" opacity="0.8"></circle><circle cx="99" cy="472" r="5.458922088870491" fill="#4d824b" opacity="0.8"></circle><circle cx="107" cy="386" r="4.877583979462201" fill="#d14e5b" opacity="0.8"></circle><circle cx="334" cy="276" r="4.75812774950344" fill="#5675c1" opacity="0.8"></circle><circle cx="76" cy="488" r="4.499315863635484" fill="#d14e5b" opacity="0.8"></circle><circle cx="70" cy="413" r="4.403511958540487" fill="#d14e5b" opacity="0.8"></circle><circle cx="133" cy="458" r="3.745316610692971" fill="#69c487" opacity="0.8"></circle><circle cx="69" cy="452" r="3.7186691401157934" fill="#ffd336" opacity="0.8"></circle><circle cx="86" cy="490" r="3.556016502174504" fill="#69c487" opacity="0.8"></circle><circle cx="72" cy="446" r="3.4847447298472263" fill="#ffd336" opacity="0.8"></circle><circle cx="188" cy="279" r="3.1920550013516915" fill="#d14e5b" opacity="0.8"></circle><circle cx="107" cy="421" r="3.159395567141404" fill="#69c487" opacity="0.8"></circle><circle cx="715" cy="229" r="2.8314101038850055" fill="#5675c1" opacity="0.8"></circle><circle cx="70" cy="428" r="2.6297376508895236" fill="#d14e5b" opacity="0.8"></circle><circle cx="629" cy="274" r="2.5789662040344643" fill="#5675c1" opacity="0.8"></circle><circle cx="125" cy="486" r="2.5590232935348074" fill="#69c487" opacity="0.8"></circle><circle cx="106" cy="321" r="2.543990876958269" fill="#d14e5b" opacity="0.8"></circle><circle cx="578" cy="227" r="2.4950462404143967" fill="#5675c1" opacity="0.8"></circle><circle cx="545" cy="301" r="2.3761695847291326" fill="#5675c1" opacity="0.8"></circle><circle cx="70" cy="487" r="2.3696817466884568" fill="#ffd336" opacity="0.8"></circle><circle cx="85" cy="496" r="2.3690854677104234" fill="#5675c1" opacity="0.8"></circle><circle cx="70" cy="426" r="2.344295843038629" fill="#ffd336" opacity="0.8"></circle><circle cx="90" cy="468" r="2.3414715214145425" fill="#4d824b" opacity="0.8"></circle><circle cx="70" cy="307" r="2.337901561121931" fill="#ffd336" opacity="0.8"></circle><circle cx="69" cy="484" r="2.3247593301562812" fill="#ffd336" opacity="0.8"></circle><circle cx="191" cy="390" r="2.2216627160936366" fill="#4d824b" opacity="0.8"></circle><circle cx="85" cy="421" r="2.2160402448214307" fill="#ffd336" opacity="0.8"></circle><circle cx="117" cy="409" r="2.1602145411966363" fill="#69c487" opacity="0.8"></circle><circle cx="126" cy="450" r="2.1459431348280327" fill="#4d824b" opacity="0.8"></circle><circle cx="73" cy="481" r="2.1055512070426285" fill="#ffd336" opacity="0.8"></circle><circle cx="102" cy="366" r="2.0984030735950707" fill="#d14e5b" opacity="0.8"></circle><circle cx="82" cy="487" r="2.060247220000477" fill="#4d824b" opacity="0.8"></circle><circle cx="69" cy="432" r="2.0456228808545918" fill="#ffd336" opacity="0.8"></circle><circle cx="224" cy="254" r="2.042686909755752" fill="#d14e5b" opacity="0.8"></circle><circle cx="74" cy="428" r="1.9973611916869554" fill="#ffd336" opacity="0.8"></circle><circle cx="105" cy="463" r="1.9940608580301082" fill="#4d824b" opacity="0.8"></circle><circle cx="71" cy="490" r="1.985320290952922" fill="#69c487" opacity="0.8"></circle><circle cx="83" cy="449" r="1.9826452900131297" fill="#ffd336" opacity="0.8"></circle><circle cx="89" cy="481" r="1.9688778466618104" fill="#d14e5b" opacity="0.8"></circle><circle cx="75" cy="304" r="1.9487218324057134" fill="#d14e5b" opacity="0.8"></circle><circle cx="85" cy="441" r="1.9181008507062391" fill="#ffd336" opacity="0.8"></circle><circle cx="540" cy="159" r="1.913149169431096" fill="#5675c1" opacity="0.8"></circle><circle cx="69" cy="462" r="1.9044318050008038" fill="#ffd336" opacity="0.8"></circle><circle cx="599" cy="126" r="1.8724272990853545" fill="#5675c1" opacity="0.8"></circle><circle cx="77" cy="440" r="1.8614728679620087" fill="#ffd336" opacity="0.8"></circle><circle cx="69" cy="328" r="1.8161337984251877" fill="#ffd336" opacity="0.8"></circle><circle cx="191" cy="278" r="1.7906075888787794" fill="#a652ba" opacity="0.8"></circle><circle cx="324" cy="251" r="1.7857292146163593" fill="#5675c1" opacity="0.8"></circle><circle cx="192" cy="365" r="1.774814752866713" fill="#000" opacity="0.8"></circle><text x="158" y="316.1587588384723" font-size="14.3" font-family="Arial Narrow, Arial, sans-serif" fill="#666">China</text><text x="195" y="394.2857269392715" font-size="11.589854022118152" font-family="Arial Narrow, Arial, sans-serif" fill="#666">Indonesia</text><text x="135" y="290.371467426952" font-size="11.426778505046586" font-family="Arial Narrow, Arial, sans-serif" fill="#666">Pakistan</text><text x="216" y="251.82856180475096" font-size="11.36550912649304" font-family="Arial Narrow, Arial, sans-serif" fill="#666">Bangladesh</text><text x="71" y="454.9386967311958" font-size="11.35140073568857" font-family="Arial Narrow, Arial, sans-serif" fill="#666">Russia</text><text x="107" y="380.1224160205378" font-size="11.215803608468192" font-family="Arial Narrow, Arial, sans-serif" fill="#666">Vietnam</text><text x="334" y="270.24187225049656" font-size="11.20374988507816" font-family="Arial Narrow, Arial, sans-serif" fill="#666">Ethiopia</text><text x="76" y="482.5006841363645" font-size="11.178659697352005" font-family="Arial Narrow, Arial, sans-serif" fill="#666">Turkey</text><text x="70" y="407.5964880414595" font-size="11.169727880603881" font-family="Arial Narrow, Arial, sans-serif" fill="#666">Thailand</text><text x="133" y="453.25468338930705" font-size="11.113561219461396" font-family="Arial Narrow, Arial, sans-serif" fill="#666">Colombia</text><text x="72" y="441.51525527015275" font-size="11.09383253405233" font-family="Arial Narrow, Arial, sans-serif" fill="#666">Poland</text><text x="188" y="274.8079449986483" font-size="11.073367878011506" font-family="Arial Narrow, Arial, sans-serif" fill="#666">Nepal</text><text x="654.0005816242344" y="225.168589896115" font-size="11.050619270972032" font-family="Arial Narrow, Arial, sans-serif" fill="#666">Madagascar</text><text x="70" y="424.3702623491105" font-size="11.039085823937338" font-family="Arial Narrow, Arial, sans-serif" fill="#666">Kazakhstan</text><text x="629" y="270.4210337959655" font-size="11.036316474084332" font-family="Arial Narrow, Arial, sans-serif" fill="#666">Malawi</text><text x="125" y="482.44097670646516" font-size="11.035243447775214" font-family="Arial Narrow, Arial, sans-serif" fill="#666">Ecuador</text><text x="106" y="317.4560091230417" font-size="11.03444013588601" font-family="Arial Narrow, Arial, sans-serif" fill="#666">Cambodia</text><text x="578" y="223.5049537595856" font-size="11.031857392350584" font-family="Arial Narrow, Arial, sans-serif" fill="#666">Zambia</text><text x="545" y="297.62383041527085" font-size="11.025793345211317" font-family="Arial Narrow, Arial, sans-serif" fill="#666">Rwanda</text><text x="70" y="303.66209843887805" font-size="11.023904219826216" font-family="Arial Narrow, Arial, sans-serif" fill="#666">Serbia</text><text x="117" y="405.83978545880336" font-size="11.01553442171238" font-family="Arial Narrow, Arial, sans-serif" fill="#666">Paraguay</text><text x="102" y="362.9015969264049" font-size="11.01277786888813" font-family="Arial Narrow, Arial, sans-serif" fill="#666">Kyrgyzstan</text><text x="540" y="156.0868508305689" font-size="11.004995560441392" font-family="Arial Narrow, Arial, sans-serif" fill="#666">Lesotho</text><text x="599" y="137.60338124515906" font-size="11.003381245159064" font-family="Arial Narrow, Arial, sans-serif" fill="#666">Guinea-Bissau</text><text x="324" y="248.21427078538363" font-size="11.000060004064649" font-family="Arial Narrow, Arial, sans-serif" fill="#666">Sao Tome and Principe</text><text x="192" y="362.2251852471333" font-size="10.999653048216192" font-family="Arial Narrow, Arial, sans-serif" fill="#666">World</text></g><g style="cursor: pointer;" class="ScatterColorLegend clickable"><g class="legendMark"><rect x="735" y="124.1" width="43.256" height="17.6" fill="#fff" opacity="0"></rect>,<rect x="735" y="129.6" width="6" height="6" fill="#5675c1"></rect>,<text font-size="12.60" x="746.0" y="136.7"><tspan x="746" y="136.67999999999998">Africa</tspan></text></g><g class="legendMark"><rect x="735" y="141.7" width="35.57" height="17.6" fill="#fff" opacity="0"></rect>,<rect x="735" y="147.2" width="6" height="6" fill="#d14e5b"></rect>,<text font-size="12.60" x="746.0" y="154.3"><tspan x="746" y="154.27999999999997">Asia</tspan></text></g><g class="legendMark"><rect x="735" y="159.3" width="51.824" height="17.6" fill="#fff" opacity="0"></rect>,<rect x="735" y="164.8" width="6" height="6" fill="#ffd336"></rect>,<text font-size="12.60" x="746.0" y="171.9"><tspan x="746" y="171.88">Europe</tspan></text></g><g class="legendMark"><rect x="735" y="176.9" width="91.64" height="17.6" fill="#fff" opacity="0"></rect>,<rect x="735" y="182.4" width="6" height="6" fill="#4d824b"></rect>,<text font-size="12.60" x="746.0" y="189.5"><tspan x="746" y="189.48">North America</tspan></text></g><g class="legendMark"><rect x="735" y="194.5" width="58.124" height="17.6" fill="#fff" opacity="0"></rect>,<rect x="735" y="200" width="6" height="6" fill="#a652ba"></rect>,<text font-size="12.60" x="746.0" y="207.1"><tspan x="746" y="207.07999999999998">Oceania</tspan></text></g><g class="legendMark"><rect x="735" y="212.1" width="93.908" height="17.6" fill="#fff" opacity="0"></rect>,<rect x="735" y="217.6" width="6" height="6" fill="#69c487"></rect>,<text font-size="12.60" x="746.0" y="224.7"><tspan x="746" y="224.67999999999998">South America</tspan></text></g></g></g><g style="fill: #777;" class="SourcesFooter"><g style="fill: #777;" class="clickable"><text font-size="12.60" x="15.0" y="567.0"><tspan x="15" y="566.98">Source: Institute for Health Metrics and Evaluation (IHME); World Bank - World Development Indicators</tspan></text></g><text font-size="12.60" x="15.0" y="582.5"><tspan x="15" y="582.48"><a target='_blank' style='fill: #777;' href='https://ourworldindata.org/indoor-air-pollution/'>OurWorldInData.org/indoor-air-pollution/</a> • <a style="fill: #777;" href="http://creativecommons.org/licenses/by-sa/4.0/deed.en_US" target="_blank">CC BY-SA</a></tspan></text></g></g></svg>