<svg xmlns="http://www.w3.org/2000/svg" version="1.1" style="font-family:&#x27;Helvetica Neue&#x27;, Helvetica, Arial, sans-serif;font-size:18px;background-color:white;text-rendering:optimizeLegibility;-webkit-font-smoothing:antialiased" width="850" height="600"><g class="ChartTab"><g class="HeaderView"><g opacity="0.8" transform="translate(778, 15) scale(0.27)"><a xmlns:xlink="http://www.w3.org/1999/xlink" xlink:href="https://ourworldindata.org" target="_blank"><g><rect x="0" y="0" fill="#1B2543" width="211.2" height="130.1"/><rect x="0" y="112.2" fill="#E63912" width="211.2" height="17.9"/><g><rect x="1.2" y="12.3" fill="none" width="210.2" height="99.2"/><path fill="#FFFFFF" d="M37.8,32.2c0,12.7-7.7,19.4-17.1,19.4c-9.7,0-16.6-7.5-16.6-18.7c0-11.7,7.3-19.3,17.1-19.3 C31.3,13.7,37.8,21.3,37.8,32.2z M9.2,32.8c0,7.9,4.3,14.9,11.8,14.9c7.5,0,11.8-6.9,11.8-15.3c0-7.3-3.8-14.9-11.8-14.9 C13.1,17.5,9.2,24.8,9.2,32.8z"/><path fill="#FFFFFF" d="M62.7,43.8c0,2.7,0.1,5.1,0.2,7.2h-4.3l-0.3-4.3h-0.1c-1.3,2.1-4,4.9-8.8,4.9c-4.2,0-9.1-2.3-9.1-11.6 V24.6h4.8v14.6c0,5,1.5,8.4,5.9,8.4c3.2,0,5.5-2.2,6.3-4.4c0.3-0.7,0.4-1.6,0.4-2.5V24.6h4.8V43.8z"/><path fill="#FFFFFF" d="M67.3,32.8c0-3.1-0.1-5.8-0.2-8.2h4.2l0.2,5.2h0.2c1.2-3.5,4.1-5.8,7.3-5.8c0.5,0,0.9,0.1,1.4,0.2v4.5 c-0.5-0.1-1-0.2-1.6-0.2c-3.4,0-5.8,2.6-6.5,6.2c-0.1,0.7-0.2,1.4-0.2,2.2V51h-4.8V32.8z"/><path fill="#FFFFFF" d="M95.4,51l-9.4-36.8h5l4.4,18.6c1.1,4.6,2.1,9.2,2.7,12.7h0.1c0.6-3.7,1.8-8,3-12.8l4.9-18.5h5l4.5,18.7 c1,4.4,2,8.7,2.6,12.6h0.1c0.8-4,1.8-8.1,3-12.7l4.9-18.5h4.9L120.6,51h-5L111,31.9c-1.1-4.7-1.9-8.3-2.4-12h-0.1 c-0.7,3.7-1.5,7.3-2.8,12L100.4,51H95.4z"/><path fill="#FFFFFF" d="M154.9,37.6c0,9.8-6.8,14-13.2,14c-7.2,0-12.7-5.2-12.7-13.6c0-8.8,5.8-14,13.1-14 C149.8,24,154.9,29.5,154.9,37.6z M133.9,37.9c0,5.8,3.3,10.1,8,10.1c4.6,0,8-4.3,8-10.3c0-4.5-2.2-10.1-7.9-10.1 C136.3,27.6,133.9,32.8,133.9,37.9z"/><path fill="#FFFFFF" d="M158.2,32.8c0-3.1-0.1-5.8-0.2-8.2h4.2l0.2,5.2h0.2c1.2-3.5,4.1-5.8,7.3-5.8c0.5,0,0.9,0.1,1.4,0.2v4.5 c-0.5-0.1-1-0.2-1.6-0.2c-3.4,0-5.8,2.6-6.5,6.2c-0.1,0.7-0.2,1.4-0.2,2.2V51h-4.8V32.8z"/><path fill="#FFFFFF" d="M173.5,12.3h4.8V51h-4.8V12.3z"/><path fill="#FFFFFF" d="M206.5,12.3v31.9c0,2.3,0.1,5,0.2,6.8h-4.3l-0.2-4.6H202c-1.5,2.9-4.7,5.2-9,5.2 c-6.4,0-11.3-5.4-11.3-13.4c-0.1-8.8,5.4-14.2,11.9-14.2c4,0,6.8,1.9,8,4h0.1V12.3H206.5z M201.7,35.4c0-0.6-0.1-1.4-0.2-2 c-0.7-3.1-3.3-5.6-6.9-5.6c-5,0-7.9,4.4-7.9,10.2c0,5.3,2.6,9.8,7.8,9.8c3.2,0,6.2-2.1,7.1-5.7c0.2-0.7,0.2-1.3,0.2-2.1V35.4z"/><path fill="#FFFFFF" d="M42.8,64c0.1,1.6-1.1,2.9-3.1,2.9c-1.7,0-2.9-1.3-2.9-2.9c0-1.7,1.3-3,3-3C41.7,61,42.8,62.3,42.8,64z M37.4,97.8V71.4h4.8v26.4H37.4z"/><path fill="#FFFFFF" d="M47.5,78.6c0-2.7-0.1-5-0.2-7.1h4.3l0.3,4.4h0.1c1.3-2.5,4.4-5,8.8-5c3.7,0,9.4,2.2,9.4,11.2v15.8h-4.8 V82.6c0-4.3-1.6-7.8-6.1-7.8c-3.2,0-5.6,2.2-6.5,4.9c-0.2,0.6-0.3,1.4-0.3,2.2v15.9h-4.8V78.6z"/><path fill="#FFFFFF" d="M84,61.6c2.9-0.4,6.3-0.8,10.1-0.8c6.8,0,11.7,1.6,14.9,4.6c3.3,3,5.2,7.3,5.2,13.2c0,6-1.9,10.9-5.3,14.3 c-3.4,3.4-9.1,5.3-16.3,5.3c-3.4,0-6.2-0.2-8.6-0.4V61.6z M88.8,94.1c1.2,0.2,3,0.3,4.8,0.3c10.2,0,15.7-5.7,15.7-15.6 c0.1-8.7-4.9-14.2-14.9-14.2c-2.5,0-4.3,0.2-5.6,0.5V94.1z"/><path fill="#FFFFFF" d="M132.1,97.8l-0.4-3.3h-0.2c-1.5,2.1-4.3,3.9-8.1,3.9c-5.4,0-8.1-3.8-8.1-7.6c0-6.4,5.7-9.9,15.9-9.8v-0.5 c0-2.2-0.6-6.1-6-6.1c-2.5,0-5,0.8-6.9,2l-1.1-3.2c2.2-1.4,5.4-2.3,8.7-2.3c8.1,0,10.1,5.5,10.1,10.8v9.9c0,2.3,0.1,4.5,0.4,6.3 H132.1z M131.4,84.4c-5.3-0.1-11.2,0.8-11.2,5.9c0,3.1,2.1,4.6,4.5,4.6c3.4,0,5.6-2.2,6.4-4.4c0.2-0.5,0.3-1,0.3-1.5V84.4z"/><path fill="#FFFFFF" d="M146.6,63.9v7.6h6.9v3.7h-6.9v14.2c0,3.3,0.9,5.1,3.6,5.1c1.3,0,2.2-0.2,2.8-0.3l0.2,3.6 c-0.9,0.4-2.4,0.7-4.3,0.7c-2.2,0-4-0.7-5.2-2c-1.4-1.4-1.9-3.8-1.9-6.9V75.1h-4.1v-3.7h4.1v-6.3L146.6,63.9z"/><path fill="#FFFFFF" d="M171.4,97.8l-0.4-3.3h-0.2c-1.5,2.1-4.3,3.9-8.1,3.9c-5.4,0-8.1-3.8-8.1-7.6c0-6.4,5.7-9.9,15.9-9.8v-0.5 c0-2.2-0.6-6.1-6-6.1c-2.5,0-5,0.8-6.9,2l-1.1-3.2c2.2-1.4,5.4-2.3,8.7-2.3c8.1,0,10.1,5.5,10.1,10.8v9.9c0,2.3,0.1,4.5,0.4,6.3 H171.4z M170.7,84.4c-5.3-0.1-11.2,0.8-11.2,5.9c0,3.1,2.1,4.6,4.5,4.6c3.4,0,5.6-2.2,6.4-4.4c0.2-0.5,0.3-1,0.3-1.5V84.4z"/></g></g></a></g><a href="https://ourworldindata.org/grapher/dementia-related-deaths-by-age" target="_blank"><text font-size="25.20" x="15.0" y="35.2" fill="#555"><tspan x="15" y="35.160000000000004">Dementia-related deaths by age, World</tspan></text></a><text font-size="14.40" x="15.0" y="53.7" fill="#666"><tspan x="15" y="53.72">Annual number of deaths from Alzheimer&#x27;s and other dementia diseases by age group.</tspan></text></g><g class="StackedArea"><defs><clipPath id="boundsClip-406"><rect x="93.062" y="0" width="820" height="959.8"></rect></clipPath></defs><g class="AxisBoxView"><g class="HorizontalAxis"><text x="93.1" y="556.5" fill="#666" text-anchor="middle" font-size="16.2">1990</text><text x="211" y="556.5" fill="#666" text-anchor="middle" font-size="16.2">1995</text><text x="329" y="556.5" fill="#666" text-anchor="middle" font-size="16.2">2000</text><text x="447" y="556.5" fill="#666" text-anchor="middle" font-size="16.2">2005</text><text x="565" y="556.5" fill="#666" text-anchor="middle" font-size="16.2">2010</text><text x="706.6" y="556.5" fill="#666" text-anchor="middle" font-size="16.2">2016</text></g><g class="VerticalAxis"><text x="88.06" y="535.3" fill="#666" dominant-baseline="middle" text-anchor="end" font-size="16.2">0</text><text x="88.06" y="439" fill="#666" dominant-baseline="middle" text-anchor="end" font-size="16.2">500,000</text><text x="88.06" y="342.7" fill="#666" dominant-baseline="middle" text-anchor="end" font-size="16.2">1 million</text><text x="88.06" y="246.5" fill="#666" dominant-baseline="middle" text-anchor="end" font-size="16.2">1.5 million</text><text x="88.06" y="150.2" fill="#666" dominant-baseline="middle" text-anchor="end" font-size="16.2">2 million</text></g><g class="AxisGridLines"><line x1="93.06" y1="535.3" x2="706.58" y2="535.3" stroke="#ccc"></line><line x1="93.06" y1="439" x2="706.58" y2="439" stroke="#ddd" stroke-dasharray="3,2"></line><line x1="93.06" y1="342.7" x2="706.58" y2="342.7" stroke="#ddd" stroke-dasharray="3,2"></line><line x1="93.06" y1="246.5" x2="706.58" y2="246.5" stroke="#ddd" stroke-dasharray="3,2"></line><line x1="93.06" y1="150.2" x2="706.58" y2="150.2" stroke="#ddd" stroke-dasharray="3,2"></line></g></g><g clip-path="url(#boundsClip-406)"><g class="HeightedLegend clickable"><g class="legendMark"><g class="indicator"><line x1="711.5799999999999" y1="535.3" x2="734.0799999999999" y2="535.3" stroke="#666" stroke-width="0.5"></line><line x1="734.0799999999999" y1="535.3" x2="734.0799999999999" y2="528.55" stroke="#666" stroke-width="0.5"></line><line x1="734.0799999999999" y1="528.55" x2="736.5799999999999" y2="528.55" stroke="#666" stroke-width="0.5"></line></g><rect x="706.5799999999999" y="521.8" width="90.62" height="13.5" fill="#fff" opacity="0"></rect><text font-size="13.50" x="741.6" y="532.6" fill="#a652ba"><tspan x="741.5799999999999" y="532.5999999999999">Under-5s</tspan></text></g><g class="legendMark"><g class="indicator"><line x1="711.5799999999999" y1="535.3" x2="729.0799999999999" y2="535.3" stroke="#666" stroke-width="0.5"></line><line x1="729.0799999999999" y1="535.3" x2="729.0799999999999" y2="513.05" stroke="#666" stroke-width="0.5"></line><line x1="729.0799999999999" y1="513.05" x2="736.5799999999999" y2="513.05" stroke="#666" stroke-width="0.5"></line></g><rect x="706.5799999999999" y="506.29999999999995" width="120.86" height="13.5" fill="#fff" opacity="0"></rect><text font-size="13.50" x="741.6" y="517.1" fill="#ffd53e"><tspan x="741.5799999999999" y="517.0999999999999">5-14 years old</tspan></text></g><g class="legendMark"><g class="indicator"><line x1="711.5799999999999" y1="535" x2="724.0799999999999" y2="535" stroke="#666" stroke-width="0.5"></line><line x1="724.0799999999999" y1="535" x2="724.0799999999999" y2="497.54999999999995" stroke="#666" stroke-width="0.5"></line><line x1="724.0799999999999" y1="497.54999999999995" x2="736.5799999999999" y2="497.54999999999995" stroke="#666" stroke-width="0.5"></line></g><rect x="706.5799999999999" y="490.79999999999995" width="128.42000000000002" height="13.5" fill="#fff" opacity="0"></rect><text font-size="13.50" x="741.6" y="501.6" fill="#e6332e"><tspan x="741.5799999999999" y="501.59999999999997">15-49 years old</tspan></text></g><g class="legendMark"><g class="indicator"><line x1="711.5799999999999" y1="520.4" x2="719.0799999999999" y2="520.4" stroke="#666" stroke-width="0.5"></line><line x1="719.0799999999999" y1="520.4" x2="719.0799999999999" y2="482.04999999999995" stroke="#666" stroke-width="0.5"></line><line x1="719.0799999999999" y1="482.04999999999995" x2="736.5799999999999" y2="482.04999999999995" stroke="#666" stroke-width="0.5"></line></g><rect x="706.5799999999999" y="475.29999999999995" width="128.42000000000002" height="13.5" fill="#fff" opacity="0"></rect><text font-size="13.50" x="741.6" y="486.1" fill="#3360a9"><tspan x="741.5799999999999" y="486.09999999999997">50-69 years old</tspan></text></g><g class="legendMark"><g class="indicator"><line x1="711.5799999999999" y1="291.3" x2="724.0799999999999" y2="291.3" stroke="#666" stroke-width="0.5"></line><line x1="724.0799999999999" y1="291.3" x2="724.0799999999999" y2="291.3" stroke="#666" stroke-width="0.5"></line><line x1="724.0799999999999" y1="291.3" x2="736.5799999999999" y2="291.3" stroke="#666" stroke-width="0.5"></line></g><rect x="706.5799999999999" y="284.55" width="116.67500000000001" height="13.5" fill="#fff" opacity="0"></rect><text font-size="13.50" x="741.6" y="295.4" fill="#34983f"><tspan x="741.5799999999999" y="295.35">70+ years old</tspan></text></g></g><g class="Areas"><rect x="93.062" y="76.6" width="613.5179999999999" height="458.69999999999993" opacity="0" fill="rgba(255,255,255,0)"></rect><path class="World_4-area" stroke-linecap="round" d="M93.1 535.3L116.7 535.3L140.3 535.3L163.9 535.3L187.4 535.3L211 535.3L234.6 535.3L258.2 535.3L281.8 535.3L305.4 535.3L329 535.3L352.6 535.3L376.2 535.3L399.8 535.3L423.4 535.3L447 535.3L470.6 535.3L494.2 535.3L517.8 535.3L541.4 535.3L565 535.3L588.6 535.3L612.2 535.3L635.8 535.3L659.4 535.3L683 535.3L706.6 535.3L706.5799999999999 535.3L93.062 535.3" fill="#a652ba" fill-opacity="0.7"></path><path class="World_3-area" stroke-linecap="round" d="M93.1 535.3L116.7 535.3L140.3 535.3L163.9 535.3L187.4 535.3L211 535.3L234.6 535.3L258.2 535.3L281.8 535.3L305.4 535.3L329 535.3L352.6 535.3L376.2 535.3L399.8 535.3L423.4 535.3L447 535.3L470.6 535.3L494.2 535.3L517.8 535.3L541.4 535.3L565 535.3L588.6 535.3L612.2 535.3L635.8 535.3L659.4 535.3L683 535.3L706.6 535.3L706.6 535.3L683 535.3L659.4 535.3L635.8 535.3L612.2 535.3L588.6 535.3L565 535.3L541.4 535.3L517.8 535.3L494.2 535.3L470.6 535.3L447 535.3L423.4 535.3L399.8 535.3L376.2 535.3L352.6 535.3L329 535.3L305.4 535.3L281.8 535.3L258.2 535.3L234.6 535.3L211 535.3L187.4 535.3L163.9 535.3L140.3 535.3L116.7 535.3L93.1 535.3" fill="#ffd53e" fill-opacity="0.7"></path><path class="World_2-area" stroke-linecap="round" d="M93.1 535L116.7 535L140.3 535L163.9 535L187.4 535L211 535L234.6 535L258.2 534.9L281.8 534.9L305.4 534.9L329 534.9L352.6 534.9L376.2 534.9L399.8 534.9L423.4 534.9L447 534.9L470.6 534.9L494.2 534.9L517.8 534.8L541.4 534.8L565 534.8L588.6 534.8L612.2 534.8L635.8 534.8L659.4 534.8L683 534.8L706.6 534.8L706.6 535.3L683 535.3L659.4 535.3L635.8 535.3L612.2 535.3L588.6 535.3L565 535.3L541.4 535.3L517.8 535.3L494.2 535.3L470.6 535.3L447 535.3L423.4 535.3L399.8 535.3L376.2 535.3L352.6 535.3L329 535.3L305.4 535.3L281.8 535.3L258.2 535.3L234.6 535.3L211 535.3L187.4 535.3L163.9 535.3L140.3 535.3L116.7 535.3L93.1 535.3" fill="#e6332e" fill-opacity="0.7"></path><path class="World_1-area" stroke-linecap="round" d="M93.1 520.3L116.7 520L140.3 519.6L163.9 519.2L187.4 518.8L211 518.4L234.6 518.1L258.2 517.8L281.8 517.4L305.4 517.1L329 516.7L352.6 516.3L376.2 515.8L399.8 515.4L423.4 514.9L447 514.4L470.6 514L494.2 513.6L517.8 513.1L541.4 512.6L565 511.9L588.6 511.2L612.2 510.3L635.8 509.3L659.4 508.2L683 507.1L706.6 506.1L706.6 534.8L683 534.8L659.4 534.8L635.8 534.8L612.2 534.8L588.6 534.8L565 534.8L541.4 534.8L517.8 534.8L494.2 534.9L470.6 534.9L447 534.9L423.4 534.9L399.8 534.9L376.2 534.9L352.6 534.9L329 534.9L305.4 534.9L281.8 534.9L258.2 534.9L234.6 535L211 535L187.4 535L163.9 535L140.3 535L116.7 535L93.1 535" fill="#3360a9" fill-opacity="0.7"></path><path class="World_0-area" stroke-linecap="round" d="M93.1 350.6L116.7 344.2L140.3 337.7L163.9 330.6L187.4 323.5L211 316.3L234.6 309.3L258.2 302.1L281.8 294.3L305.4 286L329 277.6L352.6 268.6L376.2 259.6L399.8 249.9L423.4 240.2L447 228.9L470.6 218.2L494.2 207.3L517.8 195.3L541.4 182.4L565 168.3L588.6 153.9L612.2 139.1L635.8 125L659.4 110.4L683 95.3L706.6 76.6L706.6 506.1L683 507.1L659.4 508.2L635.8 509.3L612.2 510.3L588.6 511.2L565 511.9L541.4 512.6L517.8 513.1L494.2 513.6L470.6 514L447 514.4L423.4 514.9L399.8 515.4L376.2 515.8L352.6 516.3L329 516.7L305.4 517.1L281.8 517.4L258.2 517.8L234.6 518.1L211 518.4L187.4 518.8L163.9 519.2L140.3 519.6L116.7 520L93.1 520.3" fill="#34983f" fill-opacity="0.7"></path><path class="World_4-border" stroke-linecap="round" d="M93.1 535.3L116.7 535.3L140.3 535.3L163.9 535.3L187.4 535.3L211 535.3L234.6 535.3L258.2 535.3L281.8 535.3L305.4 535.3L329 535.3L352.6 535.3L376.2 535.3L399.8 535.3L423.4 535.3L447 535.3L470.6 535.3L494.2 535.3L517.8 535.3L541.4 535.3L565 535.3L588.6 535.3L612.2 535.3L635.8 535.3L659.4 535.3L683 535.3L706.6 535.3" stroke="rgb(139, 69, 156)" stroke-opacity="0.7" stroke-width="0.5" fill="none"></path><path class="World_3-border" stroke-linecap="round" d="M93.1 535.3L116.7 535.3L140.3 535.3L163.9 535.3L187.4 535.3L211 535.3L234.6 535.3L258.2 535.3L281.8 535.3L305.4 535.3L329 535.3L352.6 535.3L376.2 535.3L399.8 535.3L423.4 535.3L447 535.3L470.6 535.3L494.2 535.3L517.8 535.3L541.4 535.3L565 535.3L588.6 535.3L612.2 535.3L635.8 535.3L659.4 535.3L683 535.3L706.6 535.3" stroke="rgb(213, 178, 52)" stroke-opacity="0.7" stroke-width="0.5" fill="none"></path><path class="World_2-border" stroke-linecap="round" d="M93.1 535L116.7 535L140.3 535L163.9 535L187.4 535L211 535L234.6 535L258.2 534.9L281.8 534.9L305.4 534.9L329 534.9L352.6 534.9L376.2 534.9L399.8 534.9L423.4 534.9L447 534.9L470.6 534.9L494.2 534.9L517.8 534.8L541.4 534.8L565 534.8L588.6 534.8L612.2 534.8L635.8 534.8L659.4 534.8L683 534.8L706.6 534.8" stroke="rgb(192, 43, 38)" stroke-opacity="0.7" stroke-width="0.5" fill="none"></path><path class="World_1-border" stroke-linecap="round" d="M93.1 520.3L116.7 520L140.3 519.6L163.9 519.2L187.4 518.8L211 518.4L234.6 518.1L258.2 517.8L281.8 517.4L305.4 517.1L329 516.7L352.6 516.3L376.2 515.8L399.8 515.4L423.4 514.9L447 514.4L470.6 514L494.2 513.6L517.8 513.1L541.4 512.6L565 511.9L588.6 511.2L612.2 510.3L635.8 509.3L659.4 508.2L683 507.1L706.6 506.1" stroke="rgb(43, 80, 141)" stroke-opacity="0.7" stroke-width="0.5" fill="none"></path><path class="World_0-border" stroke-linecap="round" d="M93.1 350.6L116.7 344.2L140.3 337.7L163.9 330.6L187.4 323.5L211 316.3L234.6 309.3L258.2 302.1L281.8 294.3L305.4 286L329 277.6L352.6 268.6L376.2 259.6L399.8 249.9L423.4 240.2L447 228.9L470.6 218.2L494.2 207.3L517.8 195.3L541.4 182.4L565 168.3L588.6 153.9L612.2 139.1L635.8 125L659.4 110.4L683 95.3L706.6 76.6" stroke="rgb(44, 127, 53)" stroke-opacity="0.7" stroke-width="0.5" fill="none"></path></g></g></g><g class="SourcesFooter" style="fill:#777"><g class="clickable" style="fill:#777"><text font-size="12.60" x="15.0" y="581.6"><tspan x="15" y="581.58">Source: IHME, Global Burden of Disease (GBD)</tspan></text></g><text font-size="12.60" x="775.4" y="581.6"><tspan x="775.402" y="581.58"><a style="fill: #777;" class="cclogo" href="http://creativecommons.org/licenses/by-sa/4.0/deed.en_US" target="_blank">CC BY-SA</a></tspan></text></g></g></svg>