<svg xmlns="http://www.w3.org/2000/svg" version="1.1" style="font-family: 'Helvetica Neue', Helvetica, Arial, sans-serif; font-size: 16px; background-color: white; text-rendering: optimizeLegibility; -webkit-font-smoothing: antialiased;" width="850" height="600"><g class="ChartTab"><g class="HeaderView"><g opacity="0.8" transform="translate(770, 15) scale(0.31)"><a xmlns:xlink="http://www.w3.org/1999/xlink" xlink:href="https://ourworldindata.org" target="_blank"><g><rect x="0" y="0" fill="#1B2543" width="211.2" height="130.1"/><rect x="0" y="112.2" fill="#E63912" width="211.2" height="17.9"/><g><rect x="1.2" y="12.3" fill="none" width="210.2" height="99.2"/><path fill="#FFFFFF" d="M37.8,32.2c0,12.7-7.7,19.4-17.1,19.4c-9.7,0-16.6-7.5-16.6-18.7c0-11.7,7.3-19.3,17.1-19.3 C31.3,13.7,37.8,21.3,37.8,32.2z M9.2,32.8c0,7.9,4.3,14.9,11.8,14.9c7.5,0,11.8-6.9,11.8-15.3c0-7.3-3.8-14.9-11.8-14.9 C13.1,17.5,9.2,24.8,9.2,32.8z"/><path fill="#FFFFFF" d="M62.7,43.8c0,2.7,0.1,5.1,0.2,7.2h-4.3l-0.3-4.3h-0.1c-1.3,2.1-4,4.9-8.8,4.9c-4.2,0-9.1-2.3-9.1-11.6 V24.6h4.8v14.6c0,5,1.5,8.4,5.9,8.4c3.2,0,5.5-2.2,6.3-4.4c0.3-0.7,0.4-1.6,0.4-2.5V24.6h4.8V43.8z"/><path fill="#FFFFFF" d="M67.3,32.8c0-3.1-0.1-5.8-0.2-8.2h4.2l0.2,5.2h0.2c1.2-3.5,4.1-5.8,7.3-5.8c0.5,0,0.9,0.1,1.4,0.2v4.5 c-0.5-0.1-1-0.2-1.6-0.2c-3.4,0-5.8,2.6-6.5,6.2c-0.1,0.7-0.2,1.4-0.2,2.2V51h-4.8V32.8z"/><path fill="#FFFFFF" d="M95.4,51l-9.4-36.8h5l4.4,18.6c1.1,4.6,2.1,9.2,2.7,12.7h0.1c0.6-3.7,1.8-8,3-12.8l4.9-18.5h5l4.5,18.7 c1,4.4,2,8.7,2.6,12.6h0.1c0.8-4,1.8-8.1,3-12.7l4.9-18.5h4.9L120.6,51h-5L111,31.9c-1.1-4.7-1.9-8.3-2.4-12h-0.1 c-0.7,3.7-1.5,7.3-2.8,12L100.4,51H95.4z"/><path fill="#FFFFFF" d="M154.9,37.6c0,9.8-6.8,14-13.2,14c-7.2,0-12.7-5.2-12.7-13.6c0-8.8,5.8-14,13.1-14 C149.8,24,154.9,29.5,154.9,37.6z M133.9,37.9c0,5.8,3.3,10.1,8,10.1c4.6,0,8-4.3,8-10.3c0-4.5-2.2-10.1-7.9-10.1 C136.3,27.6,133.9,32.8,133.9,37.9z"/><path fill="#FFFFFF" d="M158.2,32.8c0-3.1-0.1-5.8-0.2-8.2h4.2l0.2,5.2h0.2c1.2-3.5,4.1-5.8,7.3-5.8c0.5,0,0.9,0.1,1.4,0.2v4.5 c-0.5-0.1-1-0.2-1.6-0.2c-3.4,0-5.8,2.6-6.5,6.2c-0.1,0.7-0.2,1.4-0.2,2.2V51h-4.8V32.8z"/><path fill="#FFFFFF" d="M173.5,12.3h4.8V51h-4.8V12.3z"/><path fill="#FFFFFF" d="M206.5,12.3v31.9c0,2.3,0.1,5,0.2,6.8h-4.3l-0.2-4.6H202c-1.5,2.9-4.7,5.2-9,5.2 c-6.4,0-11.3-5.4-11.3-13.4c-0.1-8.8,5.4-14.2,11.9-14.2c4,0,6.8,1.9,8,4h0.1V12.3H206.5z M201.7,35.4c0-0.6-0.1-1.4-0.2-2 c-0.7-3.1-3.3-5.6-6.9-5.6c-5,0-7.9,4.4-7.9,10.2c0,5.3,2.6,9.8,7.8,9.8c3.2,0,6.2-2.1,7.1-5.7c0.2-0.7,0.2-1.3,0.2-2.1V35.4z"/><path fill="#FFFFFF" d="M42.8,64c0.1,1.6-1.1,2.9-3.1,2.9c-1.7,0-2.9-1.3-2.9-2.9c0-1.7,1.3-3,3-3C41.7,61,42.8,62.3,42.8,64z M37.4,97.8V71.4h4.8v26.4H37.4z"/><path fill="#FFFFFF" d="M47.5,78.6c0-2.7-0.1-5-0.2-7.1h4.3l0.3,4.4h0.1c1.3-2.5,4.4-5,8.8-5c3.7,0,9.4,2.2,9.4,11.2v15.8h-4.8 V82.6c0-4.3-1.6-7.8-6.1-7.8c-3.2,0-5.6,2.2-6.5,4.9c-0.2,0.6-0.3,1.4-0.3,2.2v15.9h-4.8V78.6z"/><path fill="#FFFFFF" d="M84,61.6c2.9-0.4,6.3-0.8,10.1-0.8c6.8,0,11.7,1.6,14.9,4.6c3.3,3,5.2,7.3,5.2,13.2c0,6-1.9,10.9-5.3,14.3 c-3.4,3.4-9.1,5.3-16.3,5.3c-3.4,0-6.2-0.2-8.6-0.4V61.6z M88.8,94.1c1.2,0.2,3,0.3,4.8,0.3c10.2,0,15.7-5.7,15.7-15.6 c0.1-8.7-4.9-14.2-14.9-14.2c-2.5,0-4.3,0.2-5.6,0.5V94.1z"/><path fill="#FFFFFF" d="M132.1,97.8l-0.4-3.3h-0.2c-1.5,2.1-4.3,3.9-8.1,3.9c-5.4,0-8.1-3.8-8.1-7.6c0-6.4,5.7-9.9,15.9-9.8v-0.5 c0-2.2-0.6-6.1-6-6.1c-2.5,0-5,0.8-6.9,2l-1.1-3.2c2.2-1.4,5.4-2.3,8.7-2.3c8.1,0,10.1,5.5,10.1,10.8v9.9c0,2.3,0.1,4.5,0.4,6.3 H132.1z M131.4,84.4c-5.3-0.1-11.2,0.8-11.2,5.9c0,3.1,2.1,4.6,4.5,4.6c3.4,0,5.6-2.2,6.4-4.4c0.2-0.5,0.3-1,0.3-1.5V84.4z"/><path fill="#FFFFFF" d="M146.6,63.9v7.6h6.9v3.7h-6.9v14.2c0,3.3,0.9,5.1,3.6,5.1c1.3,0,2.2-0.2,2.8-0.3l0.2,3.6 c-0.9,0.4-2.4,0.7-4.3,0.7c-2.2,0-4-0.7-5.2-2c-1.4-1.4-1.9-3.8-1.9-6.9V75.1h-4.1v-3.7h4.1v-6.3L146.6,63.9z"/><path fill="#FFFFFF" d="M171.4,97.8l-0.4-3.3h-0.2c-1.5,2.1-4.3,3.9-8.1,3.9c-5.4,0-8.1-3.8-8.1-7.6c0-6.4,5.7-9.9,15.9-9.8v-0.5 c0-2.2-0.6-6.1-6-6.1c-2.5,0-5,0.8-6.9,2l-1.1-3.2c2.2-1.4,5.4-2.3,8.7-2.3c8.1,0,10.1,5.5,10.1,10.8v9.9c0,2.3,0.1,4.5,0.4,6.3 H171.4z M170.7,84.4c-5.3-0.1-11.2,0.8-11.2,5.9c0,3.1,2.1,4.6,4.5,4.6c3.4,0,5.6-2.2,6.4-4.4c0.2-0.5,0.3-1,0.3-1.5V84.4z"/></g></g></a></g><a href="https://ourworldindata.org/grapher/dietary-land-use-vs-beef-consumption" target="_blank"><text font-size="24.00" x="15.0" y="34.2" fill="#555"><tspan x="15" y="34.2">Dietary land use vs. beef consumption, 2011</tspan></text></a><text font-size="12.80" x="15.0" y="51.2" fill="#666"><tspan x="15" y="51.239999999999995">The percentage of global habitable land area needed for agriculture if the total world population was to adopt the average diet of</tspan><tspan x="15" y="65.32">any given country versus annual per capita beef consumption, measured in kilograms per year. We currently use approximately</tspan><tspan x="15" y="79.4">50% of habitable land for agriculture, as shown by the grey horizontal line.</tspan></text></g><g><g class="AxisBoxView"><g class="HorizontalAxis"><text font-size="11.20" x="271.5" y="542.5"><tspan x="271.536" y="542.4599999999999">Annual beef consumption (per capita)</tspan></text><text x="190.6" y="523.4999999999999" fill="#666" text-anchor="middle" font-size="14.4">10 kilograms</text><text x="307.3" y="523.4999999999999" fill="#666" text-anchor="middle" font-size="14.4">20 kilograms</text><text x="424" y="523.4999999999999" fill="#666" text-anchor="middle" font-size="14.4">30 kilograms</text><text x="540.7" y="523.4999999999999" fill="#666" text-anchor="middle" font-size="14.4">40 kilograms</text><text x="657.4" y="523.4999999999999" fill="#666" text-anchor="middle" font-size="14.4">50 kilograms</text></g><g class="VerticalAxis"><text font-size="11.20" x="-406.0" y="24.0" transform="rotate(-90)"><tspan x="-405.974" y="23.96">HALF Index (habitable land area)</tspan></text><text x="73.21" y="504.1" fill="#666" dominant-baseline="middle" text-anchor="end" font-size="14.4">0%</text><text x="73.21" y="398.8" fill="#666" dominant-baseline="middle" text-anchor="end" font-size="14.4">50%</text><text x="73.21" y="293.6" fill="#666" dominant-baseline="middle" text-anchor="end" font-size="14.4">100%</text><text x="73.21" y="188.3" fill="#666" dominant-baseline="middle" text-anchor="end" font-size="14.4">150%</text></g><g class="AxisGridLines"><line x1="78.21" y1="504.1" x2="715.00" y2="504.1" stroke="#ccc"></line><line x1="78.21" y1="398.8" x2="715.00" y2="398.8" stroke="#ddd" stroke-dasharray="3,2"></line><line x1="78.21" y1="293.6" x2="715.00" y2="293.6" stroke="#ddd" stroke-dasharray="3,2"></line><line x1="78.21" y1="188.3" x2="715.00" y2="188.3" stroke="#ddd" stroke-dasharray="3,2"></line></g><g class="AxisGridLines"><line x1="190.6" y1="504.10" x2="190.6" y2="101.60" stroke="#ddd" stroke-dasharray="3,2"></line><line x1="307.3" y1="504.10" x2="307.3" y2="101.60" stroke="#ddd" stroke-dasharray="3,2"></line><line x1="424" y1="504.10" x2="424" y2="101.60" stroke="#ddd" stroke-dasharray="3,2"></line><line x1="540.7" y1="504.10" x2="540.7" y2="101.60" stroke="#ddd" stroke-dasharray="3,2"></line><line x1="657.4" y1="504.10" x2="657.4" y2="101.60" stroke="#ddd" stroke-dasharray="3,2"></line></g></g><g class="ComparisonLine"><defs><clipPath id="axisBounds-28"><rect x="78.208" y="101.60000000000001" width="636.792" height="402.49999999999994"></rect></clipPath></defs><path d="M78.2,398.8L84.6,398.8L90.9,398.8L97.3,398.8L103.7,398.8L110,398.8L116.4,398.8L122.8,398.8L129.2,398.8L135.5,398.8L141.9,398.8L148.3,398.8L154.6,398.8L161,398.8L167.4,398.8L173.7,398.8L180.1,398.8L186.5,398.8L192.8,398.8L199.2,398.8L205.6,398.8L211.9,398.8L218.3,398.8L224.7,398.8L231,398.8L237.4,398.8L243.8,398.8L250.1,398.8L256.5,398.8L262.9,398.8L269.2,398.8L275.6,398.8L282,398.8L288.3,398.8L294.7,398.8L301.1,398.8L307.5,398.8L313.8,398.8L320.2,398.8L326.6,398.8L332.9,398.8L339.3,398.8L345.7,398.8L352,398.8L358.4,398.8L364.8,398.8L371.1,398.8L377.5,398.8L383.9,398.8L390.2,398.8L396.6,398.8L403,398.8L409.3,398.8L415.7,398.8L422.1,398.8L428.4,398.8L434.8,398.8L441.2,398.8L447.5,398.8L453.9,398.8L460.3,398.8L466.7,398.8L473,398.8L479.4,398.8L485.8,398.8L492.1,398.8L498.5,398.8L504.9,398.8L511.2,398.8L517.6,398.8L524,398.8L530.3,398.8L536.7,398.8L543.1,398.8L549.4,398.8L555.8,398.8L562.2,398.8L568.5,398.8L574.9,398.8L581.3,398.8L587.6,398.8L594,398.8L600.4,398.8L606.7,398.8L613.1,398.8L619.5,398.8L625.8,398.8L632.2,398.8L638.6,398.8L645,398.8L651.3,398.8L657.7,398.8L664.1,398.8L670.4,398.8L676.8,398.8L683.2,398.8L689.5,398.8L695.9,398.8L702.3,398.8L708.6,398.8" clip-path="url(#axisBounds-28)" fill="none" stroke="#ccc"></path></g><g clip-path="url(#scatterBounds-29)" class="PointsWithLabels clickable"><rect x="78.208" y="101.60000000000001" width="636.792" height="402.49999999999994" fill="rgba(255,255,255,0)"></rect><defs><clipPath id="scatterBounds-29"><rect x="68.208" y="91.60000000000001" width="656.792" height="422.49999999999994"></rect></clipPath></defs><circle cx="130" cy="419" r="17.841241161527712" fill="#d14e5b" opacity="0.8"></circle><circle cx="88" cy="457" r="17.131951458809365" fill="#d14e5b" opacity="0.8"></circle><circle cx="503" cy="214" r="8.740038567602701" fill="#4d824b" opacity="0.8"></circle><circle cx="102" cy="465" r="7.735666012113487" fill="#d14e5b" opacity="0.8"></circle><circle cx="529" cy="242" r="7.0114248892457995" fill="#69c487" opacity="0.8"></circle><circle cx="174" cy="398" r="6.6711351488375215" fill="#d14e5b" opacity="0.8"></circle><circle cx="101" cy="450" r="6.416058422092516" fill="#5675c1" opacity="0.8"></circle><circle cx="89" cy="472" r="6.193937972289232" fill="#d14e5b" opacity="0.8"></circle><circle cx="263" cy="332" r="6.047640652615773" fill="#ffd336" opacity="0.8"></circle><circle cx="178" cy="414" r="5.723033186068944" fill="#d14e5b" opacity="0.8"></circle><circle cx="261" cy="366" r="5.478691077752282" fill="#4d824b" opacity="0.8"></circle><circle cx="124" cy="445" r="5.035138224285824" fill="#d14e5b" opacity="0.8"></circle><circle cx="157" cy="426" r="4.892384728065008" fill="#d14e5b" opacity="0.8"></circle><circle cx="127" cy="447" r="4.794423216626446" fill="#5675c1" opacity="0.8"></circle><circle cx="227" cy="391" r="4.740526602438714" fill="#5675c1" opacity="0.8"></circle><circle cx="229" cy="296" r="4.7312862065453745" fill="#ffd336" opacity="0.8"></circle><circle cx="141" cy="416" r="4.54565262301366" fill="#d14e5b" opacity="0.8"></circle><circle cx="194" cy="375" r="4.515740849520942" fill="#d14e5b" opacity="0.8"></circle><circle cx="104" cy="460" r="4.407740488280992" fill="#d14e5b" opacity="0.8"></circle><circle cx="369" cy="247" r="4.234760920298396" fill="#ffd336" opacity="0.8"></circle><circle cx="292" cy="304" r="4.215153635870029" fill="#ffd336" opacity="0.8"></circle><circle cx="325" cy="258" r="4.169727410723905" fill="#ffd336" opacity="0.8"></circle><circle cx="258" cy="377" r="3.86925985219099" fill="#5675c1" opacity="0.8"></circle><circle cx="244" cy="381" r="3.806232330987816" fill="#d14e5b" opacity="0.8"></circle><circle cx="132" cy="439" r="3.80455524039242" fill="#d14e5b" opacity="0.8"></circle><circle cx="272" cy="371" r="3.760981943525258" fill="#69c487" opacity="0.8"></circle><circle cx="225" cy="337" r="3.7462715230348955" fill="#ffd336" opacity="0.8"></circle><circle cx="140" cy="441" r="3.738885414449416" fill="#5675c1" opacity="0.8"></circle><circle cx="172" cy="393" r="3.7065868879279193" fill="#ffd336" opacity="0.8"></circle><circle cx="201" cy="401" r="3.591861400068483" fill="#5675c1" opacity="0.8"></circle><circle cx="715" cy="163" r="3.564241727012002" fill="#69c487" opacity="0.8"></circle><circle cx="102" cy="385" r="3.482415184573544" fill="#ffd336" opacity="0.8"></circle><circle cx="131" cy="400" r="3.403667937085632" fill="#5675c1" opacity="0.8"></circle><circle cx="135" cy="437" r="3.352753022224217" fill="#5675c1" opacity="0.8"></circle><circle cx="416" cy="230" r="3.3471807197132355" fill="#4d824b" opacity="0.8"></circle><circle cx="104" cy="460" r="3.287804253988538" fill="#d14e5b" opacity="0.8"></circle><circle cx="130" cy="433" r="3.276879111856071" fill="#d14e5b" opacity="0.8"></circle><circle cx="150" cy="408" r="3.273834431326164" fill="#5675c1" opacity="0.8"></circle><circle cx="166" cy="425" r="3.2093684941124345" fill="#d14e5b" opacity="0.8"></circle><circle cx="309" cy="318" r="3.170922678608202" fill="#69c487" opacity="0.8"></circle><circle cx="123" cy="444" r="3.169555264545233" fill="#69c487" opacity="0.8"></circle><circle cx="142" cy="436" r="3.1495463327210644" fill="#d14e5b" opacity="0.8"></circle><circle cx="147" cy="405" r="3.1205808414297964" fill="#d14e5b" opacity="0.8"></circle><circle cx="390" cy="309" r="3.10848168276773" fill="#d14e5b" opacity="0.8"></circle><circle cx="87" cy="448" r="3.0015251300686887" fill="#5675c1" opacity="0.8"></circle><circle cx="84" cy="459" r="2.981413392289739" fill="#d14e5b" opacity="0.8"></circle><circle cx="87" cy="476" r="2.960886819886305" fill="#5675c1" opacity="0.8"></circle><circle cx="556" cy="171" r="2.9081313799698116" fill="#a652ba" opacity="0.8"></circle><circle cx="150" cy="366" r="2.860732855287795" fill="#ffd336" opacity="0.8"></circle><circle cx="163" cy="441" r="2.855768099624038" fill="#5675c1" opacity="0.8"></circle><circle cx="89" cy="470" r="2.8447021453166825" fill="#d14e5b" opacity="0.8"></circle><circle cx="95" cy="446" r="2.8077770311969976" fill="#5675c1" opacity="0.8"></circle><circle cx="122" cy="429" r="2.8026695746414036" fill="#5675c1" opacity="0.8"></circle><circle cx="156" cy="441" r="2.785430584044816" fill="#5675c1" opacity="0.8"></circle><circle cx="302" cy="342" r="2.685016273377909" fill="#69c487" opacity="0.8"></circle><circle cx="165" cy="404" r="2.6718461872209125" fill="#5675c1" opacity="0.8"></circle><circle cx="248" cy="293" r="2.6585484504239476" fill="#ffd336" opacity="0.8"></circle><circle cx="332" cy="275" r="2.638327831330334" fill="#d14e5b" opacity="0.8"></circle><circle cx="175" cy="374" r="2.6322154881622666" fill="#5675c1" opacity="0.8"></circle><circle cx="189" cy="373" r="2.6220027098057193" fill="#5675c1" opacity="0.8"></circle><circle cx="99" cy="466" r="2.6014686523750266" fill="#5675c1" opacity="0.8"></circle><circle cx="139" cy="440" r="2.573288115852324" fill="#4d824b" opacity="0.8"></circle><circle cx="279" cy="345" r="2.5691379088115016" fill="#69c487" opacity="0.8"></circle><circle cx="132" cy="456" r="2.552660713863518" fill="#d14e5b" opacity="0.8"></circle><circle cx="131" cy="456" r="2.514343261047547" fill="#5675c1" opacity="0.8"></circle><circle cx="135" cy="436" r="2.481227528052043" fill="#5675c1" opacity="0.8"></circle><circle cx="163" cy="434" r="2.4806064304268896" fill="#5675c1" opacity="0.8"></circle><circle cx="167" cy="420" r="2.4219876417558712" fill="#5675c1" opacity="0.8"></circle><circle cx="283" cy="263" r="2.415438787568631" fill="#ffd336" opacity="0.8"></circle><circle cx="146" cy="399" r="2.408828393624287" fill="#4d824b" opacity="0.8"></circle><circle cx="103" cy="447" r="2.393698180850163" fill="#5675c1" opacity="0.8"></circle><circle cx="262" cy="284" r="2.3844530968758133" fill="#ffd336" opacity="0.8"></circle><circle cx="267" cy="301" r="2.381293291570327" fill="#ffd336" opacity="0.8"></circle><circle cx="138" cy="405" r="2.3765940953238056" fill="#5675c1" opacity="0.8"></circle><circle cx="180" cy="348" r="2.3736518684903687" fill="#ffd336" opacity="0.8"></circle><circle cx="142" cy="453" r="2.35820822126848" fill="#5675c1" opacity="0.8"></circle><circle cx="127" cy="453" r="2.3533429415978673" fill="#4d824b" opacity="0.8"></circle><circle cx="304" cy="355" r="2.351569512951831" fill="#69c487" opacity="0.8"></circle><circle cx="193" cy="408" r="2.34998144326004" fill="#4d824b" opacity="0.8"></circle><circle cx="144" cy="373" r="2.3454957568439077" fill="#ffd336" opacity="0.8"></circle><circle cx="170" cy="387" r="2.339898256426241" fill="#ffd336" opacity="0.8"></circle><circle cx="311" cy="332" r="2.3251335583352732" fill="#ffd336" opacity="0.8"></circle><circle cx="356" cy="238" r="2.3191568510022775" fill="#ffd336" opacity="0.8"></circle><circle cx="222" cy="360" r="2.3123542523034453" fill="#d14e5b" opacity="0.8"></circle><circle cx="110" cy="457" r="2.3019087254683175" fill="#5675c1" opacity="0.8"></circle><circle cx="275" cy="267" r="2.2667690148807904" fill="#ffd336" opacity="0.8"></circle><circle cx="137" cy="388" r="2.239653922120758" fill="#d14e5b" opacity="0.8"></circle><circle cx="163" cy="421" r="2.232529854675529" fill="#4d824b" opacity="0.8"></circle><circle cx="324" cy="269" r="2.2297524008911886" fill="#ffd336" opacity="0.8"></circle><circle cx="397" cy="284" r="2.222425136325309" fill="#d14e5b" opacity="0.8"></circle><circle cx="125" cy="405" r="2.216310478783874" fill="#ffd336" opacity="0.8"></circle><circle cx="118" cy="442" r="2.19141763527959" fill="#d14e5b" opacity="0.8"></circle><circle cx="276" cy="355" r="2.169502452535302" fill="#69c487" opacity="0.8"></circle><circle cx="155" cy="406" r="2.156630321684264" fill="#d14e5b" opacity="0.8"></circle><circle cx="157" cy="440" r="2.154344779963141" fill="#d14e5b" opacity="0.8"></circle><circle cx="160" cy="417" r="2.151056078466139" fill="#4d824b" opacity="0.8"></circle><circle cx="91" cy="466" r="2.147101745805567" fill="#5675c1" opacity="0.8"></circle><circle cx="95" cy="466" r="2.1385167052572958" fill="#5675c1" opacity="0.8"></circle><circle cx="78" cy="437" r="2.13152693599363" fill="#4d824b" opacity="0.8"></circle><circle cx="419" cy="217" r="2.115157020804401" fill="#ffd336" opacity="0.8"></circle><circle cx="127" cy="386" r="2.1095610989143885" fill="#ffd336" opacity="0.8"></circle><circle cx="250" cy="345" r="2.105182052370101" fill="#d14e5b" opacity="0.8"></circle><circle cx="294" cy="275" r="2.1047482132363515" fill="#ffd336" opacity="0.8"></circle><circle cx="384" cy="243" r="2.0891646477345676" fill="#d14e5b" opacity="0.8"></circle><circle cx="296" cy="279" r="2.0790402864205224" fill="#ffd336" opacity="0.8"></circle><circle cx="281" cy="345" r="2.0678589765136195" fill="#4d824b" opacity="0.8"></circle><circle cx="341" cy="281" r="2.056474734940831" fill="#ffd336" opacity="0.8"></circle><circle cx="305" cy="347" r="2.0542580292890715" fill="#5675c1" opacity="0.8"></circle><circle cx="624" cy="101" r="2.05013696015703" fill="#a652ba" opacity="0.8"></circle><circle cx="179" cy="361" r="2.0490559232175776" fill="#ffd336" opacity="0.8"></circle><circle cx="151" cy="411" r="2.0452556454770283" fill="#d14e5b" opacity="0.8"></circle><circle cx="274" cy="360" r="2.0412714699401544" fill="#d14e5b" opacity="0.8"></circle><circle cx="105" cy="440" r="2.03440567341035" fill="#5675c1" opacity="0.8"></circle><circle cx="82" cy="475" r="2.033763222408579" fill="#5675c1" opacity="0.8"></circle><circle cx="185" cy="391" r="2.0120093728522344" fill="#ffd336" opacity="0.8"></circle><circle cx="316" cy="344" r="2.0014602987134356" fill="#4d824b" opacity="0.8"></circle><circle cx="95" cy="442" r="1.9999219849251249" fill="#ffd336" opacity="0.8"></circle><circle cx="150" cy="364" r="1.9997276317409096" fill="#5675c1" opacity="0.8"></circle><circle cx="444" cy="283" r="1.9902600381013418" fill="#69c487" opacity="0.8"></circle><circle cx="116" cy="358" r="1.9859944576926" fill="#ffd336" opacity="0.8"></circle><circle cx="321" cy="312" r="1.9806003125795264" fill="#ffd336" opacity="0.8"></circle><circle cx="289" cy="336" r="1.9737548085951524" fill="#d14e5b" opacity="0.8"></circle><circle cx="214" cy="345" r="1.9586441182452003" fill="#d14e5b" opacity="0.8"></circle><circle cx="175" cy="363" r="1.9569656780573785" fill="#d14e5b" opacity="0.8"></circle><circle cx="292" cy="209" r="1.9558941830739107" fill="#d14e5b" opacity="0.8"></circle><circle cx="138" cy="424" r="1.9529721419675874" fill="#4d824b" opacity="0.8"></circle><circle cx="185" cy="390" r="1.927220752889146" fill="#5675c1" opacity="0.8"></circle><circle cx="130" cy="355" r="1.9223084011254419" fill="#ffd336" opacity="0.8"></circle><circle cx="145" cy="426" r="1.919307326590363" fill="#5675c1" opacity="0.8"></circle><circle cx="167" cy="387" r="1.9113740454236947" fill="#ffd336" opacity="0.8"></circle><circle cx="303" cy="293" r="1.9096064209679497" fill="#ffd336" opacity="0.8"></circle><circle cx="167" cy="386" r="1.9093446972923562" fill="#5675c1" opacity="0.8"></circle><circle cx="100" cy="445" r="1.8936865347001401" fill="#5675c1" opacity="0.8"></circle><circle cx="120" cy="454" r="1.8794907137584878" fill="#5675c1" opacity="0.8"></circle><circle cx="149" cy="380" r="1.878694278500926" fill="#5675c1" opacity="0.8"></circle><circle cx="128" cy="418" r="1.8669620861213168" fill="#4d824b" opacity="0.8"></circle><circle cx="232" cy="347" r="1.8665979784970934" fill="#ffd336" opacity="0.8"></circle><circle cx="148" cy="408" r="1.8644704156336247" fill="#5675c1" opacity="0.8"></circle><circle cx="236" cy="398" r="1.8579830548278284" fill="#5675c1" opacity="0.8"></circle><circle cx="154" cy="386" r="1.852514532174435" fill="#ffd336" opacity="0.8"></circle><circle cx="169" cy="417" r="1.8391481758856802" fill="#5675c1" opacity="0.8"></circle><circle cx="187" cy="387" r="1.8367842306786795" fill="#a652ba" opacity="0.8"></circle><circle cx="108" cy="440" r="1.8296170638084477" fill="#69c487" opacity="0.8"></circle><circle cx="205" cy="342" r="1.8216892892899208" fill="#ffd336" opacity="0.8"></circle><circle cx="139" cy="447" r="1.8165474434479676" fill="#a652ba" opacity="0.8"></circle><circle cx="208" cy="407" r="1.815076147787706" fill="#69c487" opacity="0.8"></circle><circle cx="420" cy="237" r="1.8142076732065353" fill="#ffd336" opacity="0.8"></circle><circle cx="289" cy="295" r="1.8078747928573697" fill="#ffd336" opacity="0.8"></circle><circle cx="207" cy="384" r="1.8071038649021844" fill="#d14e5b" opacity="0.8"></circle><circle cx="265" cy="353" r="1.8032976469000366" fill="#4d824b" opacity="0.8"></circle><circle cx="225" cy="252" r="1.8018179979945572" fill="#ffd336" opacity="0.8"></circle><circle cx="152" cy="422" r="1.801539901177154" fill="#d14e5b" opacity="0.8"></circle><circle cx="135" cy="424" r="1.801400155112818" fill="#4d824b" opacity="0.8"></circle><circle cx="218" cy="363" r="1.7985416471977822" fill="#4d824b" opacity="0.8"></circle><circle cx="465" cy="247" r="1.7985320252061445" fill="#a652ba" opacity="0.8"></circle><circle cx="263" cy="340" r="1.797298879002853" fill="#a652ba" opacity="0.8"></circle><circle cx="164" cy="420" r="1.7967004387625307" fill="#a652ba" opacity="0.8"></circle><circle cx="186" cy="393" r="1.7926775762601237" fill="#a652ba" opacity="0.8"></circle><circle cx="153" cy="409" r="1.7921667843039621" fill="#4d824b" opacity="0.8"></circle><circle cx="124" cy="447" r="1.7916762087094986" fill="#5675c1" opacity="0.8"></circle><circle cx="206" cy="385" r="1.7878110504767575" fill="#4d824b" opacity="0.8"></circle><circle cx="136" cy="415" r="1.7875183458600126" fill="#4d824b" opacity="0.8"></circle><circle cx="149" cy="442" r="1.7872699508527918" fill="#a652ba" opacity="0.8"></circle><circle cx="221" cy="367" r="1.786518668049541" fill="#4d824b" opacity="0.8"></circle><circle cx="189" cy="383" r="1.7850822961631962" fill="#4d824b" opacity="0.8"></circle><circle cx="636" cy="175" r="1.784912110017124" fill="#4d824b" opacity="0.8"></circle><circle cx="188" cy="385" r="1.7841241161527712" fill="#4d824b" opacity="0.8"></circle><circle cx="101" cy="420" r="1.7806438960713276" fill="#000" opacity="0.8"></circle><circle cx="130" cy="444" r="1.7806438960713276" fill="#d14e5b" opacity="0.8"></circle><circle cx="183" cy="399" r="1.7806438960713276" fill="#000" opacity="0.8"></circle><text x="130" y="400.1587588384723" font-size="14.3" font-family="Arial Narrow, Arial, sans-serif" fill="#666">China</text><text x="88" y="438.86804854119066" font-size="14.040230862298053" font-family="Arial Narrow, Arial, sans-serif" fill="#666">India</text><text x="503" y="204.2599614323973" font-size="11.76660280310486" font-family="Arial Narrow, Arial, sans-serif" fill="#666">United States</text><text x="102" y="456.2643339878865" font-size="11.5933152173227" font-family="Arial Narrow, Arial, sans-serif" fill="#666">Indonesia</text><text x="529" y="233.9885751107542" font-size="11.481469809885732" font-family="Arial Narrow, Arial, sans-serif" fill="#666">Brazil</text><text x="174" y="390.3288648511625" font-size="11.432711927440828" font-family="Arial Narrow, Arial, sans-serif" fill="#666">Pakistan</text><text x="263" y="324.95235934738423" font-size="11.349668253596677" font-family="Arial Narrow, Arial, sans-serif" fill="#666">Russia</text><text x="178" y="407.27696681393104" font-size="11.309656420472544" font-family="Arial Narrow, Arial, sans-serif" fill="#666">Japan</text><text x="261" y="359.5213089222477" font-size="11.280994069283702" font-family="Arial Narrow, Arial, sans-serif" fill="#666">Mexico</text><text x="124" y="438.96486177571416" font-size="11.232158650402141" font-family="Arial Narrow, Arial, sans-serif" fill="#666">Philippines</text><text x="157" y="420.107615271935" font-size="11.217317885979655" font-family="Arial Narrow, Arial, sans-serif" fill="#666">Vietnam</text><text x="227" y="385.2594733975613" font-size="11.201999104686447" font-family="Arial Narrow, Arial, sans-serif" fill="#666">Egypt</text><text x="229" y="290.26871379345465" font-size="11.20108256283021" font-family="Arial Narrow, Arial, sans-serif" fill="#666">Germany</text><text x="194" y="369.48425915047903" font-size="11.180210305587325" font-family="Arial Narrow, Arial, sans-serif" fill="#666">Turkey</text><text x="369" y="241.76523907970162" font-size="11.154462698463306" font-family="Arial Narrow, Arial, sans-serif" fill="#666">France</text><text x="292" y="298.78484636413" font-size="11.152727702837035" font-family="Arial Narrow, Arial, sans-serif" fill="#666">United Kingdom</text><text x="325" y="252.8302725892761" font-size="11.148738995492623" font-family="Arial Narrow, Arial, sans-serif" fill="#666">Italy</text><text x="258" y="372.13074014780904" font-size="11.123444411181257" font-family="Arial Narrow, Arial, sans-serif" fill="#666">South Africa</text><text x="225" y="332.2537284769651" font-size="11.113636133984215" font-family="Arial Narrow, Arial, sans-serif" fill="#666">Spain</text><text x="667.2712867789962" y="158.435758272988" font-size="11.099700749070655" font-family="Arial Narrow, Arial, sans-serif" fill="#666">Argentina</text><text x="102" y="380.51758481542646" font-size="11.093662570596862" font-family="Arial Narrow, Arial, sans-serif" fill="#666">Poland</text><text x="416" y="225.65281928028676" font-size="11.083990688075907" font-family="Arial Narrow, Arial, sans-serif" fill="#666">Canada</text><text x="309" y="313.8290773213918" font-size="11.071959769081822" font-family="Arial Narrow, Arial, sans-serif" fill="#666">Venezuela</text><text x="390" y="304.8915183172323" font-size="11.067853788519818" font-family="Arial Narrow, Arial, sans-serif" fill="#666">Uzbekistan</text><text x="87" y="472.0391131801137" font-size="11.058472913144296" font-family="Arial Narrow, Arial, sans-serif" fill="#666">Mozambique</text><text x="556" y="167.0918686200302" font-size="11.055230552471563" font-family="Arial Narrow, Arial, sans-serif" fill="#666">Australia</text><text x="302" y="338.3149837266221" font-size="11.042162409455102" font-family="Arial Narrow, Arial, sans-serif" fill="#666">Chile</text><text x="332" y="271.36167216866966" font-size="11.039559718874635" font-family="Arial Narrow, Arial, sans-serif" fill="#666">Kazakhstan</text><text x="283" y="259.58456121243137" font-size="11.027763779781175" font-family="Arial Narrow, Arial, sans-serif" fill="#666">Greece</text><text x="180" y="344.62634813150964" font-size="11.025668113970491" font-family="Arial Narrow, Arial, sans-serif" fill="#666">Czech Republic</text><text x="304" y="351.6484304870482" font-size="11.024575425963487" font-family="Arial Narrow, Arial, sans-serif" fill="#666">Bolivia</text><text x="144" y="369.6545042431561" font-size="11.024276672766156" font-family="Arial Narrow, Arial, sans-serif" fill="#666">Hungary</text><text x="397" y="280.7775748636747" font-size="11.018389570467386" font-family="Arial Narrow, Arial, sans-serif" fill="#666">Israel</text><text x="419" y="213.8848429791956" font-size="11.013517125049592" font-family="Arial Narrow, Arial, sans-serif" fill="#666">Denmark</text><text x="294" y="271.89525178676365" font-size="11.01305715209616" font-family="Arial Narrow, Arial, sans-serif" fill="#666">Finland</text><text x="624" y="112.61068102435013" font-size="11.010681024350122" font-family="Arial Narrow, Arial, sans-serif" fill="#666">New Zealand</text><text x="179" y="357.95094407678243" font-size="11.010634619058495" font-family="Arial Narrow, Arial, sans-serif" fill="#666">Croatia</text><text x="444" y="280.0097399618987" font-size="11.008147575587982" font-family="Arial Narrow, Arial, sans-serif" fill="#666">Uruguay</text><text x="116" y="355.0140055423074" font-size="11.007969960062844" font-family="Arial Narrow, Arial, sans-serif" fill="#666">Lithuania</text><text x="292" y="206.04410581692608" font-size="11.006727439951117" font-family="Arial Narrow, Arial, sans-serif" fill="#666">Mongolia</text><text x="225" y="249.19818200200544" font-size="11.000664438846266" font-family="Arial Narrow, Arial, sans-serif" fill="#666">Iceland</text><text x="636" y="172.21508788998287" font-size="11.000029451160332" font-family="Arial Narrow, Arial, sans-serif" fill="#666">Bermuda</text></g><g style="cursor: pointer;" class="ScatterColorLegend clickable"><g class="legendMark"><rect x="735" y="99.10000000000001" width="39.005333333333326" height="16.2" fill="#fff" opacity="0"></rect>,<rect x="735" y="104.26666666666668" width="5.333333333333333" height="5.333333333333333" fill="#5675c1"></rect>,<text font-size="11.20" x="745.3" y="110.6"><tspan x="745.3333333333334" y="110.56000000000002">Africa</tspan></text></g><g class="legendMark"><rect x="735" y="115.30000000000001" width="32.17333333333333" height="16.2" fill="#fff" opacity="0"></rect>,<rect x="735" y="120.46666666666668" width="5.333333333333333" height="5.333333333333333" fill="#d14e5b"></rect>,<text font-size="11.20" x="745.3" y="126.8"><tspan x="745.3333333333334" y="126.76">Asia</tspan></text></g><g class="legendMark"><rect x="735" y="131.5" width="46.621333333333325" height="16.2" fill="#fff" opacity="0"></rect>,<rect x="735" y="136.66666666666666" width="5.333333333333333" height="5.333333333333333" fill="#ffd336"></rect>,<text font-size="11.20" x="745.3" y="143.0"><tspan x="745.3333333333334" y="142.95999999999998">Europe</tspan></text></g><g class="legendMark"><rect x="735" y="147.7" width="82.01333333333332" height="16.2" fill="#fff" opacity="0"></rect>,<rect x="735" y="152.86666666666665" width="5.333333333333333" height="5.333333333333333" fill="#4d824b"></rect>,<text font-size="11.20" x="745.3" y="159.2"><tspan x="745.3333333333334" y="159.15999999999997">North America</tspan></text></g><g class="legendMark"><rect x="735" y="163.9" width="52.221333333333334" height="16.2" fill="#fff" opacity="0"></rect>,<rect x="735" y="169.06666666666666" width="5.333333333333333" height="5.333333333333333" fill="#a652ba"></rect>,<text font-size="11.20" x="745.3" y="175.4"><tspan x="745.3333333333334" y="175.35999999999999">Oceania</tspan></text></g><g class="legendMark"><rect x="735" y="180.10000000000002" width="84.02933333333333" height="16.2" fill="#fff" opacity="0"></rect>,<rect x="735" y="185.26666666666668" width="5.333333333333333" height="5.333333333333333" fill="#69c487"></rect>,<text font-size="11.20" x="745.3" y="191.6"><tspan x="745.3333333333334" y="191.56">South America</tspan></text></g></g></g><g style="fill: #777;" class="SourcesFooter"><g style="fill: #777;" class="clickable"><text font-size="11.20" x="15.0" y="568.7"><tspan x="15" y="568.6600000000001">Source: Food Balance Sheets - FAO (2017), HALF Index (Land Use) - Alexander et al. (2016)</tspan></text></g><text font-size="11.20" x="15.0" y="582.8"><tspan x="15" y="582.7600000000001"><a target='_blank' style='fill: #777;' href='https://ourworldindata.org/meat-and-seafood-production-consumption/'>OurWorldInData.org/meat-and-seafood-production-consumption/</a> • <a style="fill: #777;" href="http://creativecommons.org/licenses/by-sa/4.0/deed.en_US" target="_blank">CC BY-SA</a></tspan></text></g></g></svg>