<svg xmlns="http://www.w3.org/2000/svg" version="1.1" style="font-family:&#x27;Helvetica Neue&#x27;, Helvetica, Arial, sans-serif;font-size:18px;background-color:white;text-rendering:optimizeLegibility;-webkit-font-smoothing:antialiased" width="850" height="600"><g class="ChartTab"><g class="HeaderView"><g opacity="0.8" transform="translate(778, 15) scale(0.27)"><a xmlns:xlink="http://www.w3.org/1999/xlink" xlink:href="https://ourworldindata.org" target="_blank"><g><rect x="0" y="0" fill="#1B2543" width="211.2" height="130.1"/><rect x="0" y="112.2" fill="#E63912" width="211.2" height="17.9"/><g><rect x="1.2" y="12.3" fill="none" width="210.2" height="99.2"/><path fill="#FFFFFF" d="M37.8,32.2c0,12.7-7.7,19.4-17.1,19.4c-9.7,0-16.6-7.5-16.6-18.7c0-11.7,7.3-19.3,17.1-19.3 C31.3,13.7,37.8,21.3,37.8,32.2z M9.2,32.8c0,7.9,4.3,14.9,11.8,14.9c7.5,0,11.8-6.9,11.8-15.3c0-7.3-3.8-14.9-11.8-14.9 C13.1,17.5,9.2,24.8,9.2,32.8z"/><path fill="#FFFFFF" d="M62.7,43.8c0,2.7,0.1,5.1,0.2,7.2h-4.3l-0.3-4.3h-0.1c-1.3,2.1-4,4.9-8.8,4.9c-4.2,0-9.1-2.3-9.1-11.6 V24.6h4.8v14.6c0,5,1.5,8.4,5.9,8.4c3.2,0,5.5-2.2,6.3-4.4c0.3-0.7,0.4-1.6,0.4-2.5V24.6h4.8V43.8z"/><path fill="#FFFFFF" d="M67.3,32.8c0-3.1-0.1-5.8-0.2-8.2h4.2l0.2,5.2h0.2c1.2-3.5,4.1-5.8,7.3-5.8c0.5,0,0.9,0.1,1.4,0.2v4.5 c-0.5-0.1-1-0.2-1.6-0.2c-3.4,0-5.8,2.6-6.5,6.2c-0.1,0.7-0.2,1.4-0.2,2.2V51h-4.8V32.8z"/><path fill="#FFFFFF" d="M95.4,51l-9.4-36.8h5l4.4,18.6c1.1,4.6,2.1,9.2,2.7,12.7h0.1c0.6-3.7,1.8-8,3-12.8l4.9-18.5h5l4.5,18.7 c1,4.4,2,8.7,2.6,12.6h0.1c0.8-4,1.8-8.1,3-12.7l4.9-18.5h4.9L120.6,51h-5L111,31.9c-1.1-4.7-1.9-8.3-2.4-12h-0.1 c-0.7,3.7-1.5,7.3-2.8,12L100.4,51H95.4z"/><path fill="#FFFFFF" d="M154.9,37.6c0,9.8-6.8,14-13.2,14c-7.2,0-12.7-5.2-12.7-13.6c0-8.8,5.8-14,13.1-14 C149.8,24,154.9,29.5,154.9,37.6z M133.9,37.9c0,5.8,3.3,10.1,8,10.1c4.6,0,8-4.3,8-10.3c0-4.5-2.2-10.1-7.9-10.1 C136.3,27.6,133.9,32.8,133.9,37.9z"/><path fill="#FFFFFF" d="M158.2,32.8c0-3.1-0.1-5.8-0.2-8.2h4.2l0.2,5.2h0.2c1.2-3.5,4.1-5.8,7.3-5.8c0.5,0,0.9,0.1,1.4,0.2v4.5 c-0.5-0.1-1-0.2-1.6-0.2c-3.4,0-5.8,2.6-6.5,6.2c-0.1,0.7-0.2,1.4-0.2,2.2V51h-4.8V32.8z"/><path fill="#FFFFFF" d="M173.5,12.3h4.8V51h-4.8V12.3z"/><path fill="#FFFFFF" d="M206.5,12.3v31.9c0,2.3,0.1,5,0.2,6.8h-4.3l-0.2-4.6H202c-1.5,2.9-4.7,5.2-9,5.2 c-6.4,0-11.3-5.4-11.3-13.4c-0.1-8.8,5.4-14.2,11.9-14.2c4,0,6.8,1.9,8,4h0.1V12.3H206.5z M201.7,35.4c0-0.6-0.1-1.4-0.2-2 c-0.7-3.1-3.3-5.6-6.9-5.6c-5,0-7.9,4.4-7.9,10.2c0,5.3,2.6,9.8,7.8,9.8c3.2,0,6.2-2.1,7.1-5.7c0.2-0.7,0.2-1.3,0.2-2.1V35.4z"/><path fill="#FFFFFF" d="M42.8,64c0.1,1.6-1.1,2.9-3.1,2.9c-1.7,0-2.9-1.3-2.9-2.9c0-1.7,1.3-3,3-3C41.7,61,42.8,62.3,42.8,64z M37.4,97.8V71.4h4.8v26.4H37.4z"/><path fill="#FFFFFF" d="M47.5,78.6c0-2.7-0.1-5-0.2-7.1h4.3l0.3,4.4h0.1c1.3-2.5,4.4-5,8.8-5c3.7,0,9.4,2.2,9.4,11.2v15.8h-4.8 V82.6c0-4.3-1.6-7.8-6.1-7.8c-3.2,0-5.6,2.2-6.5,4.9c-0.2,0.6-0.3,1.4-0.3,2.2v15.9h-4.8V78.6z"/><path fill="#FFFFFF" d="M84,61.6c2.9-0.4,6.3-0.8,10.1-0.8c6.8,0,11.7,1.6,14.9,4.6c3.3,3,5.2,7.3,5.2,13.2c0,6-1.9,10.9-5.3,14.3 c-3.4,3.4-9.1,5.3-16.3,5.3c-3.4,0-6.2-0.2-8.6-0.4V61.6z M88.8,94.1c1.2,0.2,3,0.3,4.8,0.3c10.2,0,15.7-5.7,15.7-15.6 c0.1-8.7-4.9-14.2-14.9-14.2c-2.5,0-4.3,0.2-5.6,0.5V94.1z"/><path fill="#FFFFFF" d="M132.1,97.8l-0.4-3.3h-0.2c-1.5,2.1-4.3,3.9-8.1,3.9c-5.4,0-8.1-3.8-8.1-7.6c0-6.4,5.7-9.9,15.9-9.8v-0.5 c0-2.2-0.6-6.1-6-6.1c-2.5,0-5,0.8-6.9,2l-1.1-3.2c2.2-1.4,5.4-2.3,8.7-2.3c8.1,0,10.1,5.5,10.1,10.8v9.9c0,2.3,0.1,4.5,0.4,6.3 H132.1z M131.4,84.4c-5.3-0.1-11.2,0.8-11.2,5.9c0,3.1,2.1,4.6,4.5,4.6c3.4,0,5.6-2.2,6.4-4.4c0.2-0.5,0.3-1,0.3-1.5V84.4z"/><path fill="#FFFFFF" d="M146.6,63.9v7.6h6.9v3.7h-6.9v14.2c0,3.3,0.9,5.1,3.6,5.1c1.3,0,2.2-0.2,2.8-0.3l0.2,3.6 c-0.9,0.4-2.4,0.7-4.3,0.7c-2.2,0-4-0.7-5.2-2c-1.4-1.4-1.9-3.8-1.9-6.9V75.1h-4.1v-3.7h4.1v-6.3L146.6,63.9z"/><path fill="#FFFFFF" d="M171.4,97.8l-0.4-3.3h-0.2c-1.5,2.1-4.3,3.9-8.1,3.9c-5.4,0-8.1-3.8-8.1-7.6c0-6.4,5.7-9.9,15.9-9.8v-0.5 c0-2.2-0.6-6.1-6-6.1c-2.5,0-5,0.8-6.9,2l-1.1-3.2c2.2-1.4,5.4-2.3,8.7-2.3c8.1,0,10.1,5.5,10.1,10.8v9.9c0,2.3,0.1,4.5,0.4,6.3 H171.4z M170.7,84.4c-5.3-0.1-11.2,0.8-11.2,5.9c0,3.1,2.1,4.6,4.5,4.6c3.4,0,5.6-2.2,6.4-4.4c0.2-0.5,0.3-1,0.3-1.5V84.4z"/></g></g></a></g><a href="https://ourworldindata.org/grapher/emissions-of-particulate-matter" target="_blank"><text font-size="25.20" x="15.0" y="35.2" fill="#555"><tspan x="15" y="35.160000000000004">Emissions of particulate matter, United Kingdom</tspan></text></a><text font-size="14.40" x="15.0" y="53.7" fill="#666"><tspan x="15" y="53.72">Annual emissions of particulate matter from all human-induced sources. This is measured in terms of PM₁₀ and</tspan><tspan x="15" y="69.56">PM₂.₅, which denotes particulate matter less than 10 and 2.5 microns in diameter, respectively.</tspan></text></g><g class="LineChart"><defs><clipPath id="boundsClip-286"><rect x="122.428" y="0" width="830" height="928.8"></rect></clipPath></defs><g class="AxisBoxView"><g class="HorizontalAxis"><text x="132.4" y="556.5" fill="#666" text-anchor="middle" font-size="16.2">1970</text><text x="269.4" y="556.5" fill="#666" text-anchor="middle" font-size="16.2">1980</text><text x="406.4" y="556.5" fill="#666" text-anchor="middle" font-size="16.2">1990</text><text x="543.3" y="556.5" fill="#666" text-anchor="middle" font-size="16.2">2000</text><text x="680.3" y="556.5" fill="#666" text-anchor="middle" font-size="16.2">2010</text><text x="762.5" y="556.5" fill="#666" text-anchor="middle" font-size="16.2">2016</text></g><g class="VerticalAxis"><text x="127.43" y="535.3" fill="#666" dominant-baseline="middle" text-anchor="end" font-size="16.2">0 tonnes</text><text x="127.43" y="465.9" fill="#666" dominant-baseline="middle" text-anchor="end" font-size="16.2">100,000 tonnes</text><text x="127.43" y="396.6" fill="#666" dominant-baseline="middle" text-anchor="end" font-size="16.2">200,000 tonnes</text><text x="127.43" y="327.2" fill="#666" dominant-baseline="middle" text-anchor="end" font-size="16.2">300,000 tonnes</text><text x="127.43" y="257.9" fill="#666" dominant-baseline="middle" text-anchor="end" font-size="16.2">400,000 tonnes</text><text x="127.43" y="188.5" fill="#666" dominant-baseline="middle" text-anchor="end" font-size="16.2">500,000 tonnes</text><text x="127.43" y="119.1" fill="#666" dominant-baseline="middle" text-anchor="end" font-size="16.2">600,000 tonnes</text></g><g class="AxisGridLines"><line x1="132.43" y1="535.3" x2="762.47" y2="535.3" stroke="#ccc"></line><line x1="132.43" y1="465.9" x2="762.47" y2="465.9" stroke="#ddd" stroke-dasharray="3,2"></line><line x1="132.43" y1="396.6" x2="762.47" y2="396.6" stroke="#ddd" stroke-dasharray="3,2"></line><line x1="132.43" y1="327.2" x2="762.47" y2="327.2" stroke="#ddd" stroke-dasharray="3,2"></line><line x1="132.43" y1="257.9" x2="762.47" y2="257.9" stroke="#ddd" stroke-dasharray="3,2"></line><line x1="132.43" y1="188.5" x2="762.47" y2="188.5" stroke="#ddd" stroke-dasharray="3,2"></line><line x1="132.43" y1="119.1" x2="762.47" y2="119.1" stroke="#ddd" stroke-dasharray="3,2"></line></g></g><g clip-path="url(#boundsClip-286)"><g class="HeightedLegend clickable"><g class="legendMark"><rect x="762.47" y="410.65" width="68.75" height="13.5" fill="#fff" opacity="0"></rect><text font-size="13.50" x="767.5" y="421.4" fill="#ca2628"><tspan x="767.47" y="421.45">PM₁₀</tspan></text></g><g class="legendMark"><rect x="762.47" y="453.65" width="72.53" height="13.5" fill="#fff" opacity="0"></rect><text font-size="13.50" x="767.5" y="464.4" fill="#3360a9"><tspan x="767.47" y="464.45">PM₂.₅</tspan></text></g></g><g class="Lines"><rect x="132" y="92" width="630" height="443" fill="rgba(255,255,255,0)" opacity="0"></rect><g class="key-United-Kingdom_0"><path stroke="#3360a9" stroke-linecap="round" d="M132 190L146 227L160 262L174 257L187 276L201 305L215 309L228 311L242 320L256 315L269 338L283 347L297 349L311 356L324 372L338 356L352 349L365 362L379 367L393 368L406 371L420 372L434 379L447 389L461 395L475 408L489 409L502 415L516 421L530 423L543 433L557 434L571 445L584 444L598 446L612 447L626 449L639 452L653 453L667 457L680 451L694 459L708 456L721 454L735 458L749 458L763 460" fill="none" stroke-width="1.5"></path><g fill="#3360a9"><circle cx="132" cy="190" r="2"></circle><circle cx="146" cy="227" r="2"></circle><circle cx="160" cy="262" r="2"></circle><circle cx="174" cy="257" r="2"></circle><circle cx="187" cy="276" r="2"></circle><circle cx="201" cy="305" r="2"></circle><circle cx="215" cy="309" r="2"></circle><circle cx="228" cy="311" r="2"></circle><circle cx="242" cy="320" r="2"></circle><circle cx="256" cy="315" r="2"></circle><circle cx="269" cy="338" r="2"></circle><circle cx="283" cy="347" r="2"></circle><circle cx="297" cy="349" r="2"></circle><circle cx="311" cy="356" r="2"></circle><circle cx="324" cy="372" r="2"></circle><circle cx="338" cy="356" r="2"></circle><circle cx="352" cy="349" r="2"></circle><circle cx="365" cy="362" r="2"></circle><circle cx="379" cy="367" r="2"></circle><circle cx="393" cy="368" r="2"></circle><circle cx="406" cy="371" r="2"></circle><circle cx="420" cy="372" r="2"></circle><circle cx="434" cy="379" r="2"></circle><circle cx="447" cy="389" r="2"></circle><circle cx="461" cy="395" r="2"></circle><circle cx="475" cy="408" r="2"></circle><circle cx="489" cy="409" r="2"></circle><circle cx="502" cy="415" r="2"></circle><circle cx="516" cy="421" r="2"></circle><circle cx="530" cy="423" r="2"></circle><circle cx="543" cy="433" r="2"></circle><circle cx="557" cy="434" r="2"></circle><circle cx="571" cy="445" r="2"></circle><circle cx="584" cy="444" r="2"></circle><circle cx="598" cy="446" r="2"></circle><circle cx="612" cy="447" r="2"></circle><circle cx="626" cy="449" r="2"></circle><circle cx="639" cy="452" r="2"></circle><circle cx="653" cy="453" r="2"></circle><circle cx="667" cy="457" r="2"></circle><circle cx="680" cy="451" r="2"></circle><circle cx="694" cy="459" r="2"></circle><circle cx="708" cy="456" r="2"></circle><circle cx="721" cy="454" r="2"></circle><circle cx="735" cy="458" r="2"></circle><circle cx="749" cy="458" r="2"></circle><circle cx="763" cy="460" r="2"></circle></g></g><g class="key-United-Kingdom_1"><path stroke="#ca2628" stroke-linecap="round" d="M132 92L146 125L160 169L174 152L187 186L201 205L215 213L228 216L242 223L256 220L269 242L283 253L297 259L311 261L324 290L338 264L352 257L365 261L379 268L393 265L406 275L420 277L434 293L447 310L461 322L475 338L489 339L502 351L516 361L530 365L543 377L557 375L571 395L584 389L598 395L612 397L626 399L639 405L653 411L667 418L680 408L694 417L708 416L721 411L735 416L749 415L763 417" fill="none" stroke-width="1.5"></path><g fill="#ca2628"><circle cx="132" cy="92" r="2"></circle><circle cx="146" cy="125" r="2"></circle><circle cx="160" cy="169" r="2"></circle><circle cx="174" cy="152" r="2"></circle><circle cx="187" cy="186" r="2"></circle><circle cx="201" cy="205" r="2"></circle><circle cx="215" cy="213" r="2"></circle><circle cx="228" cy="216" r="2"></circle><circle cx="242" cy="223" r="2"></circle><circle cx="256" cy="220" r="2"></circle><circle cx="269" cy="242" r="2"></circle><circle cx="283" cy="253" r="2"></circle><circle cx="297" cy="259" r="2"></circle><circle cx="311" cy="261" r="2"></circle><circle cx="324" cy="290" r="2"></circle><circle cx="338" cy="264" r="2"></circle><circle cx="352" cy="257" r="2"></circle><circle cx="365" cy="261" r="2"></circle><circle cx="379" cy="268" r="2"></circle><circle cx="393" cy="265" r="2"></circle><circle cx="406" cy="275" r="2"></circle><circle cx="420" cy="277" r="2"></circle><circle cx="434" cy="293" r="2"></circle><circle cx="447" cy="310" r="2"></circle><circle cx="461" cy="322" r="2"></circle><circle cx="475" cy="338" r="2"></circle><circle cx="489" cy="339" r="2"></circle><circle cx="502" cy="351" r="2"></circle><circle cx="516" cy="361" r="2"></circle><circle cx="530" cy="365" r="2"></circle><circle cx="543" cy="377" r="2"></circle><circle cx="557" cy="375" r="2"></circle><circle cx="571" cy="395" r="2"></circle><circle cx="584" cy="389" r="2"></circle><circle cx="598" cy="395" r="2"></circle><circle cx="612" cy="397" r="2"></circle><circle cx="626" cy="399" r="2"></circle><circle cx="639" cy="405" r="2"></circle><circle cx="653" cy="411" r="2"></circle><circle cx="667" cy="418" r="2"></circle><circle cx="680" cy="408" r="2"></circle><circle cx="694" cy="417" r="2"></circle><circle cx="708" cy="416" r="2"></circle><circle cx="721" cy="411" r="2"></circle><circle cx="735" cy="416" r="2"></circle><circle cx="749" cy="415" r="2"></circle><circle cx="763" cy="417" r="2"></circle></g></g></g></g></g><g class="SourcesFooter" style="fill:#777"><g class="clickable" style="fill:#777"><text font-size="12.60" x="15.0" y="581.6"><tspan x="15" y="581.58">Source: UK DEFRA; US EPA</tspan></text></g><text font-size="12.60" x="775.4" y="581.6"><tspan x="775.402" y="581.58"><a style="fill: #777;" class="cclogo" href="http://creativecommons.org/licenses/by-sa/4.0/deed.en_US" target="_blank">CC BY-SA</a></tspan></text></g></g></svg>