<svg xmlns="http://www.w3.org/2000/svg" version="1.1" style="font-family: 'Helvetica Neue', Helvetica, Arial, sans-serif; font-size: 18px; background-color: white; text-rendering: optimizeLegibility; -webkit-font-smoothing: antialiased;" width="850" height="600"><g class="ChartTab"><g class="HeaderView"><g opacity="0.8" transform="translate(770, 15) scale(0.31)"><a xmlns:xlink="http://www.w3.org/1999/xlink" xlink:href="https://ourworldindata.org" target="_blank"><g><rect x="0" y="0" fill="#1B2543" width="211.2" height="130.1"/><rect x="0" y="112.2" fill="#E63912" width="211.2" height="17.9"/><g><rect x="1.2" y="12.3" fill="none" width="210.2" height="99.2"/><path fill="#FFFFFF" d="M37.8,32.2c0,12.7-7.7,19.4-17.1,19.4c-9.7,0-16.6-7.5-16.6-18.7c0-11.7,7.3-19.3,17.1-19.3 C31.3,13.7,37.8,21.3,37.8,32.2z M9.2,32.8c0,7.9,4.3,14.9,11.8,14.9c7.5,0,11.8-6.9,11.8-15.3c0-7.3-3.8-14.9-11.8-14.9 C13.1,17.5,9.2,24.8,9.2,32.8z"/><path fill="#FFFFFF" d="M62.7,43.8c0,2.7,0.1,5.1,0.2,7.2h-4.3l-0.3-4.3h-0.1c-1.3,2.1-4,4.9-8.8,4.9c-4.2,0-9.1-2.3-9.1-11.6 V24.6h4.8v14.6c0,5,1.5,8.4,5.9,8.4c3.2,0,5.5-2.2,6.3-4.4c0.3-0.7,0.4-1.6,0.4-2.5V24.6h4.8V43.8z"/><path fill="#FFFFFF" d="M67.3,32.8c0-3.1-0.1-5.8-0.2-8.2h4.2l0.2,5.2h0.2c1.2-3.5,4.1-5.8,7.3-5.8c0.5,0,0.9,0.1,1.4,0.2v4.5 c-0.5-0.1-1-0.2-1.6-0.2c-3.4,0-5.8,2.6-6.5,6.2c-0.1,0.7-0.2,1.4-0.2,2.2V51h-4.8V32.8z"/><path fill="#FFFFFF" d="M95.4,51l-9.4-36.8h5l4.4,18.6c1.1,4.6,2.1,9.2,2.7,12.7h0.1c0.6-3.7,1.8-8,3-12.8l4.9-18.5h5l4.5,18.7 c1,4.4,2,8.7,2.6,12.6h0.1c0.8-4,1.8-8.1,3-12.7l4.9-18.5h4.9L120.6,51h-5L111,31.9c-1.1-4.7-1.9-8.3-2.4-12h-0.1 c-0.7,3.7-1.5,7.3-2.8,12L100.4,51H95.4z"/><path fill="#FFFFFF" d="M154.9,37.6c0,9.8-6.8,14-13.2,14c-7.2,0-12.7-5.2-12.7-13.6c0-8.8,5.8-14,13.1-14 C149.8,24,154.9,29.5,154.9,37.6z M133.9,37.9c0,5.8,3.3,10.1,8,10.1c4.6,0,8-4.3,8-10.3c0-4.5-2.2-10.1-7.9-10.1 C136.3,27.6,133.9,32.8,133.9,37.9z"/><path fill="#FFFFFF" d="M158.2,32.8c0-3.1-0.1-5.8-0.2-8.2h4.2l0.2,5.2h0.2c1.2-3.5,4.1-5.8,7.3-5.8c0.5,0,0.9,0.1,1.4,0.2v4.5 c-0.5-0.1-1-0.2-1.6-0.2c-3.4,0-5.8,2.6-6.5,6.2c-0.1,0.7-0.2,1.4-0.2,2.2V51h-4.8V32.8z"/><path fill="#FFFFFF" d="M173.5,12.3h4.8V51h-4.8V12.3z"/><path fill="#FFFFFF" d="M206.5,12.3v31.9c0,2.3,0.1,5,0.2,6.8h-4.3l-0.2-4.6H202c-1.5,2.9-4.7,5.2-9,5.2 c-6.4,0-11.3-5.4-11.3-13.4c-0.1-8.8,5.4-14.2,11.9-14.2c4,0,6.8,1.9,8,4h0.1V12.3H206.5z M201.7,35.4c0-0.6-0.1-1.4-0.2-2 c-0.7-3.1-3.3-5.6-6.9-5.6c-5,0-7.9,4.4-7.9,10.2c0,5.3,2.6,9.8,7.8,9.8c3.2,0,6.2-2.1,7.1-5.7c0.2-0.7,0.2-1.3,0.2-2.1V35.4z"/><path fill="#FFFFFF" d="M42.8,64c0.1,1.6-1.1,2.9-3.1,2.9c-1.7,0-2.9-1.3-2.9-2.9c0-1.7,1.3-3,3-3C41.7,61,42.8,62.3,42.8,64z M37.4,97.8V71.4h4.8v26.4H37.4z"/><path fill="#FFFFFF" d="M47.5,78.6c0-2.7-0.1-5-0.2-7.1h4.3l0.3,4.4h0.1c1.3-2.5,4.4-5,8.8-5c3.7,0,9.4,2.2,9.4,11.2v15.8h-4.8 V82.6c0-4.3-1.6-7.8-6.1-7.8c-3.2,0-5.6,2.2-6.5,4.9c-0.2,0.6-0.3,1.4-0.3,2.2v15.9h-4.8V78.6z"/><path fill="#FFFFFF" d="M84,61.6c2.9-0.4,6.3-0.8,10.1-0.8c6.8,0,11.7,1.6,14.9,4.6c3.3,3,5.2,7.3,5.2,13.2c0,6-1.9,10.9-5.3,14.3 c-3.4,3.4-9.1,5.3-16.3,5.3c-3.4,0-6.2-0.2-8.6-0.4V61.6z M88.8,94.1c1.2,0.2,3,0.3,4.8,0.3c10.2,0,15.7-5.7,15.7-15.6 c0.1-8.7-4.9-14.2-14.9-14.2c-2.5,0-4.3,0.2-5.6,0.5V94.1z"/><path fill="#FFFFFF" d="M132.1,97.8l-0.4-3.3h-0.2c-1.5,2.1-4.3,3.9-8.1,3.9c-5.4,0-8.1-3.8-8.1-7.6c0-6.4,5.7-9.9,15.9-9.8v-0.5 c0-2.2-0.6-6.1-6-6.1c-2.5,0-5,0.8-6.9,2l-1.1-3.2c2.2-1.4,5.4-2.3,8.7-2.3c8.1,0,10.1,5.5,10.1,10.8v9.9c0,2.3,0.1,4.5,0.4,6.3 H132.1z M131.4,84.4c-5.3-0.1-11.2,0.8-11.2,5.9c0,3.1,2.1,4.6,4.5,4.6c3.4,0,5.6-2.2,6.4-4.4c0.2-0.5,0.3-1,0.3-1.5V84.4z"/><path fill="#FFFFFF" d="M146.6,63.9v7.6h6.9v3.7h-6.9v14.2c0,3.3,0.9,5.1,3.6,5.1c1.3,0,2.2-0.2,2.8-0.3l0.2,3.6 c-0.9,0.4-2.4,0.7-4.3,0.7c-2.2,0-4-0.7-5.2-2c-1.4-1.4-1.9-3.8-1.9-6.9V75.1h-4.1v-3.7h4.1v-6.3L146.6,63.9z"/><path fill="#FFFFFF" d="M171.4,97.8l-0.4-3.3h-0.2c-1.5,2.1-4.3,3.9-8.1,3.9c-5.4,0-8.1-3.8-8.1-7.6c0-6.4,5.7-9.9,15.9-9.8v-0.5 c0-2.2-0.6-6.1-6-6.1c-2.5,0-5,0.8-6.9,2l-1.1-3.2c2.2-1.4,5.4-2.3,8.7-2.3c8.1,0,10.1,5.5,10.1,10.8v9.9c0,2.3,0.1,4.5,0.4,6.3 H171.4z M170.7,84.4c-5.3-0.1-11.2,0.8-11.2,5.9c0,3.1,2.1,4.6,4.5,4.6c3.4,0,5.6-2.2,6.4-4.4c0.2-0.5,0.3-1,0.3-1.5V84.4z"/></g></g></a></g><a href="https://ourworldindata.org/grapher/employment-by-economic-sector?stackMode=relative" target="_blank"><text font-size="27.00" x="15.0" y="36.6" fill="#555"><tspan x="15" y="36.6">Employment by economic sector, United States</tspan></text></a><text font-size="14.40" x="15.0" y="55.5" fill="#666"><tspan x="15" y="55.519999999999996">Number of people employed by economic sector.</tspan></text></g><g class="StackedArea"><defs><clipPath id="boundsClip-278"><rect x="61.634" y="0" width="820" height="956.2"></rect></clipPath></defs><g class="AxisBoxView"><g class="HorizontalAxis"><text x="61.6" y="556.5" fill="#666" text-anchor="middle" font-size="16.2">1840</text><text x="133.2" y="556.5" fill="#666" text-anchor="middle" font-size="16.2">1860</text><text x="204.8" y="556.5" fill="#666" text-anchor="middle" font-size="16.2">1880</text><text x="276.4" y="556.5" fill="#666" text-anchor="middle" font-size="16.2">1900</text><text x="348" y="556.5" fill="#666" text-anchor="middle" font-size="16.2">1920</text><text x="419.6" y="556.5" fill="#666" text-anchor="middle" font-size="16.2">1940</text><text x="491.1" y="556.5" fill="#666" text-anchor="middle" font-size="16.2">1960</text><text x="562.7" y="556.5" fill="#666" text-anchor="middle" font-size="16.2">1980</text><text x="634.3" y="556.5" fill="#666" text-anchor="middle" font-size="16.2">2000</text><text x="688" y="556.5" fill="#666" text-anchor="middle" font-size="16.2">2015</text></g><g class="VerticalAxis"><text x="56.63" y="535.3" fill="#666" dominant-baseline="middle" text-anchor="end" font-size="16.2">0%</text><text x="56.63" y="443.9" fill="#666" dominant-baseline="middle" text-anchor="end" font-size="16.2">20%</text><text x="56.63" y="352.5" fill="#666" dominant-baseline="middle" text-anchor="end" font-size="16.2">40%</text><text x="56.63" y="261.2" fill="#666" dominant-baseline="middle" text-anchor="end" font-size="16.2">60%</text><text x="56.63" y="169.8" fill="#666" dominant-baseline="middle" text-anchor="end" font-size="16.2">80%</text><text x="56.63" y="78.4" fill="#666" dominant-baseline="middle" text-anchor="end" font-size="16.2">100%</text></g><g class="AxisGridLines"><line x1="61.63" y1="535.3" x2="687.99" y2="535.3" stroke="#ccc"></line><line x1="61.63" y1="443.9" x2="687.99" y2="443.9" stroke="#ddd" stroke-dasharray="3,2"></line><line x1="61.63" y1="352.5" x2="687.99" y2="352.5" stroke="#ddd" stroke-dasharray="3,2"></line><line x1="61.63" y1="261.2" x2="687.99" y2="261.2" stroke="#ddd" stroke-dasharray="3,2"></line><line x1="61.63" y1="169.8" x2="687.99" y2="169.8" stroke="#ddd" stroke-dasharray="3,2"></line><line x1="61.63" y1="78.4" x2="687.99" y2="78.4" stroke="#ddd" stroke-dasharray="3,2"></line></g><g class="AxisGridLines"><line x1="61.6" y1="535.30" x2="61.6" y2="78.40" stroke="#ddd" stroke-dasharray="3,2"></line><line x1="133.2" y1="535.30" x2="133.2" y2="78.40" stroke="#ddd" stroke-dasharray="3,2"></line><line x1="204.8" y1="535.30" x2="204.8" y2="78.40" stroke="#ddd" stroke-dasharray="3,2"></line><line x1="276.4" y1="535.30" x2="276.4" y2="78.40" stroke="#ddd" stroke-dasharray="3,2"></line><line x1="348" y1="535.30" x2="348" y2="78.40" stroke="#ddd" stroke-dasharray="3,2"></line><line x1="419.6" y1="535.30" x2="419.6" y2="78.40" stroke="#ddd" stroke-dasharray="3,2"></line><line x1="491.1" y1="535.30" x2="491.1" y2="78.40" stroke="#ddd" stroke-dasharray="3,2"></line><line x1="562.7" y1="535.30" x2="562.7" y2="78.40" stroke="#ddd" stroke-dasharray="3,2"></line><line x1="634.3" y1="535.30" x2="634.3" y2="78.40" stroke="#ddd" stroke-dasharray="3,2"></line></g></g><g clip-path="url(#boundsClip-278)"><g class="HeightedLegend clickable"><g class="legendMark"><rect x="692.992" y="254.65000000000003" width="142.008" height="29.900000000000002" fill="#fff" opacity="0"></rect><rect x="692.992" y="268.35" width="10" height="2.5" fill="#f9bc8f"></rect><text font-size="14.40" x="708.0" y="266.2" fill="#333"><tspan x="707.992" y="266.17">People employed in</tspan><tspan x="707.992" y="282.01">services</tspan></text></g><g class="legendMark"><rect x="692.992" y="479.75" width="142.008" height="29.900000000000002" fill="#fff" opacity="0"></rect><rect x="692.992" y="493.45" width="10" height="2.5" fill="#3360a9"></rect><text font-size="14.40" x="708.0" y="491.3" fill="#333"><tspan x="707.992" y="491.27">People employed in</tspan><tspan x="707.992" y="507.10999999999996">manufacturing</tspan></text></g><g class="legendMark"><rect x="692.992" y="517.05" width="142.008" height="29.900000000000002" fill="#fff" opacity="0"></rect><rect x="692.992" y="530.75" width="10" height="2.5" fill="#9ecc8a"></rect><text font-size="14.40" x="708.0" y="528.6" fill="#333"><tspan x="707.992" y="528.5699999999999">People employed in</tspan><tspan x="707.992" y="544.41">agriculture</tspan></text></g></g><g class="Areas"><rect x="61.634" y="78.4" width="626.358" height="456.9000000000001" opacity="0" fill="rgba(255,255,255,0)"></rect><path stroke-linecap="round" d="M61.6 247.1L97.4 285L133.2 293.5L169 295.4L204.8 300.9L240.6 340.2L276.4 351.7L312.2 391.8L348 416.8L380.2 448.9L383.8 446.7L387.3 439.7L390.9 432.1L394.5 432.6L398.1 440L401.7 442.1L405.2 449.4L408.8 453.3L412.4 453L416 457.9L419.6 463.1L423.1 470.3L426.7 476.9L430.3 483.5L433.9 486L437.4 485.9L441 481.5L444.6 482.2L448.2 483.3L451.8 483.5L455.3 485.3L458.9 491.1L462.5 492.9L466.1 494.7L469.7 493.4L473.2 495.4L476.8 498.1L480.4 499.9L484 499.9L487.6 501.8L491.1 503.5L494.7 504L498.3 505.5L501.9 507.4L505.5 509.3L509 511.1L512.6 513.9L516.2 515L519.8 515.7L523.3 516.8L526.9 517.1L530.5 517.3L534.1 517.5L537.7 517.9L541.2 517.7L544.8 517.7L548.4 518.1L552 519.2L555.6 519.7L559.1 520.1L562.7 519.7L566.3 519.9L569.9 520.2L573.5 520.2L577 521.3L580.6 522.4L584.2 522.7L587.8 522.8L591.4 522.9L594.9 523.4L598.5 523.6L602.1 523.3L605.7 523.6L609.2 523.6L612.8 523.7L616.4 523.1L620 523.6L623.6 523.9L627.1 524.2L630.7 524.2L634.3 524.5L637.9 528.2L641.5 528.1L645 528.1L648.6 528.4L652.2 528.6L655.8 528.6L659.4 528.9L662.9 528.9L666.5 528.7L670.1 528.6L673.7 528.5L677.3 528.8L680.8 528.7L684.4 529L688 528.7L687.992 535.3000000000001L61.634 535.3000000000001" fill="#9ecc8a" fill-opacity="0.7" class="United-States_2-area"></path><path stroke-linecap="round" d="M61.6 180.8L97.4 190.2L133.2 201.9L169 174.2L204.8 183.5L240.6 215.9L276.4 222.9L312.2 253.5L348 267.5L380.2 309.8L383.8 314.8L387.3 317.8L390.9 319.9L394.5 318.4L398.1 319.8L401.7 319.5L405.2 324.4L408.8 321.9L412.4 332.5L416 330.9L419.6 330.7L423.1 324.9L426.7 323.2L430.3 333.7L433.9 345.4L437.4 355.3L441 336L444.6 327.6L448.2 324.1L451.8 331.7L455.3 330.1L458.9 335.2L462.5 338.3L466.1 337.5L469.7 342.1L473.2 342.7L476.8 345.1L480.4 348.2L484 355.7L487.6 354.7L491.1 358L494.7 361.4L498.3 361.4L501.9 363.2L505.5 365.5L509 365L512.6 366.1L516.2 369.7L519.8 371.2L523.3 372.5L526.9 377.2L530.5 381.4L534.1 380.6L537.7 379L541.2 381.1L544.8 390.3L548.4 389.3L552 389.1L555.6 388.5L559.1 388.7L562.7 392.8L566.3 394.8L569.9 401.5L573.5 404.3L577 403.8L580.6 407L584.2 410L587.8 412.6L591.4 413.4L594.9 416.2L598.5 418.6L602.1 421.8L605.7 424.2L609.2 425.1L612.8 425.3L616.4 425.7L620 426.9L623.6 427.7L627.1 428.3L630.7 429.9L634.3 431.3L637.9 441L641.5 444.7L645 446.9L648.6 447.1L652.2 447.9L655.8 448L659.4 449.9L662.9 452.5L666.5 458.8L670.1 460.8L673.7 460.9L677.3 461.3L680.8 461.2L684.4 461.3L688 460.7L688 528.7L684.4 529L680.8 528.7L677.3 528.8L673.7 528.5L670.1 528.6L666.5 528.7L662.9 528.9L659.4 528.9L655.8 528.6L652.2 528.6L648.6 528.4L645 528.1L641.5 528.1L637.9 528.2L634.3 524.5L630.7 524.2L627.1 524.2L623.6 523.9L620 523.6L616.4 523.1L612.8 523.7L609.2 523.6L605.7 523.6L602.1 523.3L598.5 523.6L594.9 523.4L591.4 522.9L587.8 522.8L584.2 522.7L580.6 522.4L577 521.3L573.5 520.2L569.9 520.2L566.3 519.9L562.7 519.7L559.1 520.1L555.6 519.7L552 519.2L548.4 518.1L544.8 517.7L541.2 517.7L537.7 517.9L534.1 517.5L530.5 517.3L526.9 517.1L523.3 516.8L519.8 515.7L516.2 515L512.6 513.9L509 511.1L505.5 509.3L501.9 507.4L498.3 505.5L494.7 504L491.1 503.5L487.6 501.8L484 499.9L480.4 499.9L476.8 498.1L473.2 495.4L469.7 493.4L466.1 494.7L462.5 492.9L458.9 491.1L455.3 485.3L451.8 483.5L448.2 483.3L444.6 482.2L441 481.5L437.4 485.9L433.9 486L430.3 483.5L426.7 476.9L423.1 470.3L419.6 463.1L416 457.9L412.4 453L408.8 453.3L405.2 449.4L401.7 442.1L398.1 440L394.5 432.6L390.9 432.1L387.3 439.7L383.8 446.7L380.2 448.9L348 416.8L312.2 391.8L276.4 351.7L240.6 340.2L204.8 300.9L169 295.4L133.2 293.5L97.4 285L61.6 247.1" fill="#3360a9" fill-opacity="0.7" class="United-States_1-area"></path><path stroke-linecap="round" d="M61.6 78.4L97.4 78.4L133.2 78.4L169 78.4L204.8 78.4L240.6 78.4L276.4 78.4L312.2 78.4L348 78.4L380.2 78.4L383.8 78.4L387.3 78.4L390.9 78.4L394.5 78.4L398.1 78.4L401.7 78.4L405.2 78.4L408.8 78.4L412.4 78.4L416 78.4L419.6 78.4L423.1 78.4L426.7 78.4L430.3 78.4L433.9 78.4L437.4 78.4L441 78.4L444.6 78.4L448.2 78.4L451.8 78.4L455.3 78.4L458.9 78.4L462.5 78.4L466.1 78.4L469.7 78.4L473.2 78.4L476.8 78.4L480.4 78.4L484 78.4L487.6 78.4L491.1 78.4L494.7 78.4L498.3 78.4L501.9 78.4L505.5 78.4L509 78.4L512.6 78.4L516.2 78.4L519.8 78.4L523.3 78.4L526.9 78.4L530.5 78.4L534.1 78.4L537.7 78.4L541.2 78.4L544.8 78.4L548.4 78.4L552 78.4L555.6 78.4L559.1 78.4L562.7 78.4L566.3 78.4L569.9 78.4L573.5 78.4L577 78.4L580.6 78.4L584.2 78.4L587.8 78.4L591.4 78.4L594.9 78.4L598.5 78.4L602.1 78.4L605.7 78.4L609.2 78.4L612.8 78.4L616.4 78.4L620 78.4L623.6 78.4L627.1 78.4L630.7 78.4L634.3 78.4L637.9 78.4L641.5 78.4L645 78.4L648.6 78.4L652.2 78.4L655.8 78.4L659.4 78.4L662.9 78.4L666.5 78.4L670.1 78.4L673.7 78.4L677.3 78.4L680.8 78.4L684.4 78.4L688 78.4L688 460.7L684.4 461.3L680.8 461.2L677.3 461.3L673.7 460.9L670.1 460.8L666.5 458.8L662.9 452.5L659.4 449.9L655.8 448L652.2 447.9L648.6 447.1L645 446.9L641.5 444.7L637.9 441L634.3 431.3L630.7 429.9L627.1 428.3L623.6 427.7L620 426.9L616.4 425.7L612.8 425.3L609.2 425.1L605.7 424.2L602.1 421.8L598.5 418.6L594.9 416.2L591.4 413.4L587.8 412.6L584.2 410L580.6 407L577 403.8L573.5 404.3L569.9 401.5L566.3 394.8L562.7 392.8L559.1 388.7L555.6 388.5L552 389.1L548.4 389.3L544.8 390.3L541.2 381.1L537.7 379L534.1 380.6L530.5 381.4L526.9 377.2L523.3 372.5L519.8 371.2L516.2 369.7L512.6 366.1L509 365L505.5 365.5L501.9 363.2L498.3 361.4L494.7 361.4L491.1 358L487.6 354.7L484 355.7L480.4 348.2L476.8 345.1L473.2 342.7L469.7 342.1L466.1 337.5L462.5 338.3L458.9 335.2L455.3 330.1L451.8 331.7L448.2 324.1L444.6 327.6L441 336L437.4 355.3L433.9 345.4L430.3 333.7L426.7 323.2L423.1 324.9L419.6 330.7L416 330.9L412.4 332.5L408.8 321.9L405.2 324.4L401.7 319.5L398.1 319.8L394.5 318.4L390.9 319.9L387.3 317.8L383.8 314.8L380.2 309.8L348 267.5L312.2 253.5L276.4 222.9L240.6 215.9L204.8 183.5L169 174.2L133.2 201.9L97.4 190.2L61.6 180.8" fill="#f9bc8f" fill-opacity="0.7" class="United-States_0-area"></path><path stroke-linecap="round" d="M61.6 247.1L97.4 285L133.2 293.5L169 295.4L204.8 300.9L240.6 340.2L276.4 351.7L312.2 391.8L348 416.8L380.2 448.9L383.8 446.7L387.3 439.7L390.9 432.1L394.5 432.6L398.1 440L401.7 442.1L405.2 449.4L408.8 453.3L412.4 453L416 457.9L419.6 463.1L423.1 470.3L426.7 476.9L430.3 483.5L433.9 486L437.4 485.9L441 481.5L444.6 482.2L448.2 483.3L451.8 483.5L455.3 485.3L458.9 491.1L462.5 492.9L466.1 494.7L469.7 493.4L473.2 495.4L476.8 498.1L480.4 499.9L484 499.9L487.6 501.8L491.1 503.5L494.7 504L498.3 505.5L501.9 507.4L505.5 509.3L509 511.1L512.6 513.9L516.2 515L519.8 515.7L523.3 516.8L526.9 517.1L530.5 517.3L534.1 517.5L537.7 517.9L541.2 517.7L544.8 517.7L548.4 518.1L552 519.2L555.6 519.7L559.1 520.1L562.7 519.7L566.3 519.9L569.9 520.2L573.5 520.2L577 521.3L580.6 522.4L584.2 522.7L587.8 522.8L591.4 522.9L594.9 523.4L598.5 523.6L602.1 523.3L605.7 523.6L609.2 523.6L612.8 523.7L616.4 523.1L620 523.6L623.6 523.9L627.1 524.2L630.7 524.2L634.3 524.5L637.9 528.2L641.5 528.1L645 528.1L648.6 528.4L652.2 528.6L655.8 528.6L659.4 528.9L662.9 528.9L666.5 528.7L670.1 528.6L673.7 528.5L677.3 528.8L680.8 528.7L684.4 529L688 528.7" stroke="rgb(132, 171, 115)" stroke-opacity="0.7" stroke-width="0.5" fill="none" class="United-States_2-border"></path><path stroke-linecap="round" d="M61.6 180.8L97.4 190.2L133.2 201.9L169 174.2L204.8 183.5L240.6 215.9L276.4 222.9L312.2 253.5L348 267.5L380.2 309.8L383.8 314.8L387.3 317.8L390.9 319.9L394.5 318.4L398.1 319.8L401.7 319.5L405.2 324.4L408.8 321.9L412.4 332.5L416 330.9L419.6 330.7L423.1 324.9L426.7 323.2L430.3 333.7L433.9 345.4L437.4 355.3L441 336L444.6 327.6L448.2 324.1L451.8 331.7L455.3 330.1L458.9 335.2L462.5 338.3L466.1 337.5L469.7 342.1L473.2 342.7L476.8 345.1L480.4 348.2L484 355.7L487.6 354.7L491.1 358L494.7 361.4L498.3 361.4L501.9 363.2L505.5 365.5L509 365L512.6 366.1L516.2 369.7L519.8 371.2L523.3 372.5L526.9 377.2L530.5 381.4L534.1 380.6L537.7 379L541.2 381.1L544.8 390.3L548.4 389.3L552 389.1L555.6 388.5L559.1 388.7L562.7 392.8L566.3 394.8L569.9 401.5L573.5 404.3L577 403.8L580.6 407L584.2 410L587.8 412.6L591.4 413.4L594.9 416.2L598.5 418.6L602.1 421.8L605.7 424.2L609.2 425.1L612.8 425.3L616.4 425.7L620 426.9L623.6 427.7L627.1 428.3L630.7 429.9L634.3 431.3L637.9 441L641.5 444.7L645 446.9L648.6 447.1L652.2 447.9L655.8 448L659.4 449.9L662.9 452.5L666.5 458.8L670.1 460.8L673.7 460.9L677.3 461.3L680.8 461.2L684.4 461.3L688 460.7" stroke="rgb(43, 80, 141)" stroke-opacity="0.7" stroke-width="0.5" fill="none" class="United-States_1-border"></path><path stroke-linecap="round" d="M61.6 78.4L97.4 78.4L133.2 78.4L169 78.4L204.8 78.4L240.6 78.4L276.4 78.4L312.2 78.4L348 78.4L380.2 78.4L383.8 78.4L387.3 78.4L390.9 78.4L394.5 78.4L398.1 78.4L401.7 78.4L405.2 78.4L408.8 78.4L412.4 78.4L416 78.4L419.6 78.4L423.1 78.4L426.7 78.4L430.3 78.4L433.9 78.4L437.4 78.4L441 78.4L444.6 78.4L448.2 78.4L451.8 78.4L455.3 78.4L458.9 78.4L462.5 78.4L466.1 78.4L469.7 78.4L473.2 78.4L476.8 78.4L480.4 78.4L484 78.4L487.6 78.4L491.1 78.4L494.7 78.4L498.3 78.4L501.9 78.4L505.5 78.4L509 78.4L512.6 78.4L516.2 78.4L519.8 78.4L523.3 78.4L526.9 78.4L530.5 78.4L534.1 78.4L537.7 78.4L541.2 78.4L544.8 78.4L548.4 78.4L552 78.4L555.6 78.4L559.1 78.4L562.7 78.4L566.3 78.4L569.9 78.4L573.5 78.4L577 78.4L580.6 78.4L584.2 78.4L587.8 78.4L591.4 78.4L594.9 78.4L598.5 78.4L602.1 78.4L605.7 78.4L609.2 78.4L612.8 78.4L616.4 78.4L620 78.4L623.6 78.4L627.1 78.4L630.7 78.4L634.3 78.4L637.9 78.4L641.5 78.4L645 78.4L648.6 78.4L652.2 78.4L655.8 78.4L659.4 78.4L662.9 78.4L666.5 78.4L670.1 78.4L673.7 78.4L677.3 78.4L680.8 78.4L684.4 78.4L688 78.4" stroke="rgb(208, 157, 120)" stroke-opacity="0.7" stroke-width="0.5" fill="none" class="United-States_0-border"></path></g></g></g><g style="fill: #777;" class="SourcesFooter"><g style="fill: #777;" class="clickable"><text font-size="12.60" x="15.0" y="581.6"><tspan x="15" y="581.58">Source: Our World In Data based on Herrendorf et al. (2014)</tspan></text></g><text font-size="12.60" x="649.0" y="581.6"><tspan x="649.024" y="581.58"><a target='_blank' style='fill: #777;' href='http://ourworldindata.org'>OurWorldInData.org</a> • <a style="fill: #777;" href="http://creativecommons.org/licenses/by-sa/4.0/deed.en_US" target="_blank">CC BY-SA</a></tspan></text></g></g></svg>