<svg xmlns="http://www.w3.org/2000/svg" version="1.1" style="font-family:&#x27;Helvetica Neue&#x27;, Helvetica, Arial, sans-serif;font-size:18px;background-color:white;text-rendering:optimizeLegibility;-webkit-font-smoothing:antialiased" width="850" height="600"><g class="ChartTab"><g class="HeaderView"><g opacity="0.8" transform="translate(778, 15) scale(0.27)"><a xmlns:xlink="http://www.w3.org/1999/xlink" xlink:href="https://ourworldindata.org" target="_blank"><g><rect x="0" y="0" fill="#1B2543" width="211.2" height="130.1"/><rect x="0" y="112.2" fill="#E63912" width="211.2" height="17.9"/><g><rect x="1.2" y="12.3" fill="none" width="210.2" height="99.2"/><path fill="#FFFFFF" d="M37.8,32.2c0,12.7-7.7,19.4-17.1,19.4c-9.7,0-16.6-7.5-16.6-18.7c0-11.7,7.3-19.3,17.1-19.3 C31.3,13.7,37.8,21.3,37.8,32.2z M9.2,32.8c0,7.9,4.3,14.9,11.8,14.9c7.5,0,11.8-6.9,11.8-15.3c0-7.3-3.8-14.9-11.8-14.9 C13.1,17.5,9.2,24.8,9.2,32.8z"/><path fill="#FFFFFF" d="M62.7,43.8c0,2.7,0.1,5.1,0.2,7.2h-4.3l-0.3-4.3h-0.1c-1.3,2.1-4,4.9-8.8,4.9c-4.2,0-9.1-2.3-9.1-11.6 V24.6h4.8v14.6c0,5,1.5,8.4,5.9,8.4c3.2,0,5.5-2.2,6.3-4.4c0.3-0.7,0.4-1.6,0.4-2.5V24.6h4.8V43.8z"/><path fill="#FFFFFF" d="M67.3,32.8c0-3.1-0.1-5.8-0.2-8.2h4.2l0.2,5.2h0.2c1.2-3.5,4.1-5.8,7.3-5.8c0.5,0,0.9,0.1,1.4,0.2v4.5 c-0.5-0.1-1-0.2-1.6-0.2c-3.4,0-5.8,2.6-6.5,6.2c-0.1,0.7-0.2,1.4-0.2,2.2V51h-4.8V32.8z"/><path fill="#FFFFFF" d="M95.4,51l-9.4-36.8h5l4.4,18.6c1.1,4.6,2.1,9.2,2.7,12.7h0.1c0.6-3.7,1.8-8,3-12.8l4.9-18.5h5l4.5,18.7 c1,4.4,2,8.7,2.6,12.6h0.1c0.8-4,1.8-8.1,3-12.7l4.9-18.5h4.9L120.6,51h-5L111,31.9c-1.1-4.7-1.9-8.3-2.4-12h-0.1 c-0.7,3.7-1.5,7.3-2.8,12L100.4,51H95.4z"/><path fill="#FFFFFF" d="M154.9,37.6c0,9.8-6.8,14-13.2,14c-7.2,0-12.7-5.2-12.7-13.6c0-8.8,5.8-14,13.1-14 C149.8,24,154.9,29.5,154.9,37.6z M133.9,37.9c0,5.8,3.3,10.1,8,10.1c4.6,0,8-4.3,8-10.3c0-4.5-2.2-10.1-7.9-10.1 C136.3,27.6,133.9,32.8,133.9,37.9z"/><path fill="#FFFFFF" d="M158.2,32.8c0-3.1-0.1-5.8-0.2-8.2h4.2l0.2,5.2h0.2c1.2-3.5,4.1-5.8,7.3-5.8c0.5,0,0.9,0.1,1.4,0.2v4.5 c-0.5-0.1-1-0.2-1.6-0.2c-3.4,0-5.8,2.6-6.5,6.2c-0.1,0.7-0.2,1.4-0.2,2.2V51h-4.8V32.8z"/><path fill="#FFFFFF" d="M173.5,12.3h4.8V51h-4.8V12.3z"/><path fill="#FFFFFF" d="M206.5,12.3v31.9c0,2.3,0.1,5,0.2,6.8h-4.3l-0.2-4.6H202c-1.5,2.9-4.7,5.2-9,5.2 c-6.4,0-11.3-5.4-11.3-13.4c-0.1-8.8,5.4-14.2,11.9-14.2c4,0,6.8,1.9,8,4h0.1V12.3H206.5z M201.7,35.4c0-0.6-0.1-1.4-0.2-2 c-0.7-3.1-3.3-5.6-6.9-5.6c-5,0-7.9,4.4-7.9,10.2c0,5.3,2.6,9.8,7.8,9.8c3.2,0,6.2-2.1,7.1-5.7c0.2-0.7,0.2-1.3,0.2-2.1V35.4z"/><path fill="#FFFFFF" d="M42.8,64c0.1,1.6-1.1,2.9-3.1,2.9c-1.7,0-2.9-1.3-2.9-2.9c0-1.7,1.3-3,3-3C41.7,61,42.8,62.3,42.8,64z M37.4,97.8V71.4h4.8v26.4H37.4z"/><path fill="#FFFFFF" d="M47.5,78.6c0-2.7-0.1-5-0.2-7.1h4.3l0.3,4.4h0.1c1.3-2.5,4.4-5,8.8-5c3.7,0,9.4,2.2,9.4,11.2v15.8h-4.8 V82.6c0-4.3-1.6-7.8-6.1-7.8c-3.2,0-5.6,2.2-6.5,4.9c-0.2,0.6-0.3,1.4-0.3,2.2v15.9h-4.8V78.6z"/><path fill="#FFFFFF" d="M84,61.6c2.9-0.4,6.3-0.8,10.1-0.8c6.8,0,11.7,1.6,14.9,4.6c3.3,3,5.2,7.3,5.2,13.2c0,6-1.9,10.9-5.3,14.3 c-3.4,3.4-9.1,5.3-16.3,5.3c-3.4,0-6.2-0.2-8.6-0.4V61.6z M88.8,94.1c1.2,0.2,3,0.3,4.8,0.3c10.2,0,15.7-5.7,15.7-15.6 c0.1-8.7-4.9-14.2-14.9-14.2c-2.5,0-4.3,0.2-5.6,0.5V94.1z"/><path fill="#FFFFFF" d="M132.1,97.8l-0.4-3.3h-0.2c-1.5,2.1-4.3,3.9-8.1,3.9c-5.4,0-8.1-3.8-8.1-7.6c0-6.4,5.7-9.9,15.9-9.8v-0.5 c0-2.2-0.6-6.1-6-6.1c-2.5,0-5,0.8-6.9,2l-1.1-3.2c2.2-1.4,5.4-2.3,8.7-2.3c8.1,0,10.1,5.5,10.1,10.8v9.9c0,2.3,0.1,4.5,0.4,6.3 H132.1z M131.4,84.4c-5.3-0.1-11.2,0.8-11.2,5.9c0,3.1,2.1,4.6,4.5,4.6c3.4,0,5.6-2.2,6.4-4.4c0.2-0.5,0.3-1,0.3-1.5V84.4z"/><path fill="#FFFFFF" d="M146.6,63.9v7.6h6.9v3.7h-6.9v14.2c0,3.3,0.9,5.1,3.6,5.1c1.3,0,2.2-0.2,2.8-0.3l0.2,3.6 c-0.9,0.4-2.4,0.7-4.3,0.7c-2.2,0-4-0.7-5.2-2c-1.4-1.4-1.9-3.8-1.9-6.9V75.1h-4.1v-3.7h4.1v-6.3L146.6,63.9z"/><path fill="#FFFFFF" d="M171.4,97.8l-0.4-3.3h-0.2c-1.5,2.1-4.3,3.9-8.1,3.9c-5.4,0-8.1-3.8-8.1-7.6c0-6.4,5.7-9.9,15.9-9.8v-0.5 c0-2.2-0.6-6.1-6-6.1c-2.5,0-5,0.8-6.9,2l-1.1-3.2c2.2-1.4,5.4-2.3,8.7-2.3c8.1,0,10.1,5.5,10.1,10.8v9.9c0,2.3,0.1,4.5,0.4,6.3 H171.4z M170.7,84.4c-5.3-0.1-11.2,0.8-11.2,5.9c0,3.1,2.1,4.6,4.5,4.6c3.4,0,5.6-2.2,6.4-4.4c0.2-0.5,0.3-1,0.3-1.5V84.4z"/></g></g></a></g><a href="https://ourworldindata.org/grapher/fat-supply-by-region" target="_blank"><text font-size="25.20" x="15.0" y="35.2" fill="#555"><tspan x="15" y="35.160000000000004">Fat supply by region</tspan></text></a><text font-size="14.40" x="15.0" y="53.7" fill="#666"><tspan x="15" y="53.72">Average daily fat supply, measured in grams per person per day by world region. Note that this measures the food</tspan><tspan x="15" y="69.56">available for consumption at the household level but does not account for any food wasted or not eaten at the</tspan><tspan x="15" y="85.4">consumption level.</tspan></text></g><g class="LineChart"><defs><clipPath id="boundsClip-9"><rect x="50.824" y="0" width="830" height="897.8"></rect></clipPath></defs><g class="AxisBoxView"><g class="HorizontalAxis"><text x="60.8" y="556.5" fill="#666" text-anchor="middle" font-size="16.2">1961</text><text x="170.4" y="556.5" fill="#666" text-anchor="middle" font-size="16.2">1970</text><text x="292.2" y="556.5" fill="#666" text-anchor="middle" font-size="16.2">1980</text><text x="414" y="556.5" fill="#666" text-anchor="middle" font-size="16.2">1990</text><text x="535.7" y="556.5" fill="#666" text-anchor="middle" font-size="16.2">2000</text><text x="694" y="556.5" fill="#666" text-anchor="middle" font-size="16.2">2013</text></g><g class="VerticalAxis"><text x="55.82" y="535.3" fill="#666" dominant-baseline="middle" text-anchor="end" font-size="16.2">0 g</text><text x="55.82" y="482.8" fill="#666" dominant-baseline="middle" text-anchor="end" font-size="16.2">20 g</text><text x="55.82" y="430.3" fill="#666" dominant-baseline="middle" text-anchor="end" font-size="16.2">40 g</text><text x="55.82" y="377.8" fill="#666" dominant-baseline="middle" text-anchor="end" font-size="16.2">60 g</text><text x="55.82" y="325.3" fill="#666" dominant-baseline="middle" text-anchor="end" font-size="16.2">80 g</text><text x="55.82" y="272.8" fill="#666" dominant-baseline="middle" text-anchor="end" font-size="16.2">100 g</text><text x="55.82" y="220.4" fill="#666" dominant-baseline="middle" text-anchor="end" font-size="16.2">120 g</text><text x="55.82" y="167.9" fill="#666" dominant-baseline="middle" text-anchor="end" font-size="16.2">140 g</text><text x="55.82" y="115.4" fill="#666" dominant-baseline="middle" text-anchor="end" font-size="16.2">160 g</text></g><g class="AxisGridLines"><line x1="60.82" y1="535.3" x2="694.02" y2="535.3" stroke="#ccc"></line><line x1="60.82" y1="482.8" x2="694.02" y2="482.8" stroke="#ddd" stroke-dasharray="3,2"></line><line x1="60.82" y1="430.3" x2="694.02" y2="430.3" stroke="#ddd" stroke-dasharray="3,2"></line><line x1="60.82" y1="377.8" x2="694.02" y2="377.8" stroke="#ddd" stroke-dasharray="3,2"></line><line x1="60.82" y1="325.3" x2="694.02" y2="325.3" stroke="#ddd" stroke-dasharray="3,2"></line><line x1="60.82" y1="272.8" x2="694.02" y2="272.8" stroke="#ddd" stroke-dasharray="3,2"></line><line x1="60.82" y1="220.4" x2="694.02" y2="220.4" stroke="#ddd" stroke-dasharray="3,2"></line><line x1="60.82" y1="167.9" x2="694.02" y2="167.9" stroke="#ddd" stroke-dasharray="3,2"></line><line x1="60.82" y1="115.4" x2="694.02" y2="115.4" stroke="#ddd" stroke-dasharray="3,2"></line></g></g><g clip-path="url(#boundsClip-9)"><g class="HeightedLegend clickable"><g class="legendMark"><g class="indicator"><line x1="699.025" y1="115.1" x2="711.525" y2="115.1" stroke="#666" stroke-width="0.5"></line><line x1="711.525" y1="115.1" x2="711.525" y2="115.1" stroke="#666" stroke-width="0.5"></line><line x1="711.525" y1="115.1" x2="724.025" y2="115.1" stroke="#666" stroke-width="0.5"></line></g><rect x="694.025" y="108.35" width="140.97500000000002" height="13.5" fill="#fff" opacity="0"></rect><text font-size="13.50" x="729.0" y="119.1" fill="#9ecc8a"><tspan x="729.025" y="119.14999999999999">Northern America</tspan></text></g><g class="legendMark"><g class="indicator"><line x1="699.025" y1="165.1" x2="711.525" y2="165.1" stroke="#666" stroke-width="0.5"></line><line x1="711.525" y1="165.1" x2="711.525" y2="165.1" stroke="#666" stroke-width="0.5"></line><line x1="711.525" y1="165.1" x2="724.025" y2="165.1" stroke="#666" stroke-width="0.5"></line></g><rect x="694.025" y="158.35" width="85.49000000000001" height="13.5" fill="#fff" opacity="0"></rect><text font-size="13.50" x="729.0" y="169.2" fill="#e6332e"><tspan x="729.025" y="169.15">Oceania</tspan></text></g><g class="legendMark"><g class="indicator"><line x1="699.025" y1="196.8" x2="711.525" y2="196.8" stroke="#666" stroke-width="0.5"></line><line x1="711.525" y1="196.8" x2="711.525" y2="196.8" stroke="#666" stroke-width="0.5"></line><line x1="711.525" y1="196.8" x2="724.025" y2="196.8" stroke="#666" stroke-width="0.5"></line></g><rect x="694.025" y="190.05" width="78.74000000000001" height="13.5" fill="#fff" opacity="0"></rect><text font-size="13.50" x="729.0" y="200.9" fill="#2a939b"><tspan x="729.025" y="200.85000000000002">Europe</tspan></text></g><g class="legendMark"><g class="indicator"><line x1="699.025" y1="269.5" x2="711.525" y2="269.5" stroke="#666" stroke-width="0.5"></line><line x1="711.525" y1="269.5" x2="711.525" y2="269.5" stroke="#666" stroke-width="0.5"></line><line x1="711.525" y1="269.5" x2="724.025" y2="269.5" stroke="#666" stroke-width="0.5"></line></g><rect x="694.025" y="262.75" width="123.83000000000001" height="13.5" fill="#fff" opacity="0"></rect><text font-size="13.50" x="729.0" y="273.6" fill="#a652ba"><tspan x="729.025" y="273.55">South America</tspan></text></g><g class="legendMark"><g class="indicator"><line x1="699.025" y1="318.1" x2="711.525" y2="318.1" stroke="#666" stroke-width="0.5"></line><line x1="711.525" y1="318.1" x2="711.525" y2="318.1" stroke="#666" stroke-width="0.5"></line><line x1="711.525" y1="318.1" x2="724.025" y2="318.1" stroke="#666" stroke-width="0.5"></line></g><rect x="694.025" y="311.35" width="70.235" height="13.5" fill="#fff" opacity="0"></rect><text font-size="13.50" x="729.0" y="322.2" fill="#f6a324"><tspan x="729.025" y="322.15000000000003">World</tspan></text></g><g class="legendMark"><g class="indicator"><line x1="699.025" y1="344.6" x2="721.525" y2="344.6" stroke="#666" stroke-width="0.5"></line><line x1="721.525" y1="344.6" x2="721.525" y2="344.6" stroke="#666" stroke-width="0.5"></line><line x1="721.525" y1="344.6" x2="724.025" y2="344.6" stroke="#666" stroke-width="0.5"></line></g><rect x="694.025" y="337.85" width="61.325" height="13.5" fill="#fff" opacity="0"></rect><text font-size="13.50" x="729.0" y="348.7" fill="#34983f"><tspan x="729.025" y="348.65000000000003">Asia</tspan></text></g><g class="legendMark"><g class="indicator"><line x1="699.025" y1="348.2" x2="711.525" y2="348.2" stroke="#666" stroke-width="0.5"></line><line x1="711.525" y1="348.2" x2="711.525" y2="360.1" stroke="#666" stroke-width="0.5"></line><line x1="711.525" y1="360.1" x2="724.025" y2="360.1" stroke="#666" stroke-width="0.5"></line></g><rect x="694.025" y="353.35" width="97.505" height="13.5" fill="#fff" opacity="0"></rect><text font-size="13.50" x="729.0" y="364.2" fill="#ca2628"><tspan x="729.025" y="364.15000000000003">Caribbean</tspan></text></g><g class="legendMark"><g class="indicator"><line x1="699.025" y1="392.4" x2="711.525" y2="392.4" stroke="#666" stroke-width="0.5"></line><line x1="711.525" y1="392.4" x2="711.525" y2="392.4" stroke="#666" stroke-width="0.5"></line><line x1="711.525" y1="392.4" x2="724.025" y2="392.4" stroke="#666" stroke-width="0.5"></line></g><rect x="694.025" y="385.65" width="69.56" height="13.5" fill="#fff" opacity="0"></rect><text font-size="13.50" x="729.0" y="396.4" fill="#3360a9"><tspan x="729.025" y="396.45">Africa</tspan></text></g></g><g class="Lines"><rect x="61" y="108" width="633" height="428" fill="rgba(255,255,255,0)" opacity="0"></rect><g class="key-Africa_0"><path stroke="#3360a9" stroke-linecap="round" d="M61 431L73 428L85 428L97 430L110 426L122 429L134 427L146 424L158 423L170 423L183 423L195 426L207 425L219 420L231 423L244 421L256 416L268 415L280 414L292 413L304 409L317 410L329 415L341 418L353 414L365 411L377 416L390 413L402 413L414 411L426 411L438 409L451 409L463 409L475 407L487 408L499 406L511 405L524 403L536 404L548 402L560 399L572 398L584 397L597 395L609 394L621 394L633 391L645 394L658 393L670 391L682 391L694 392" fill="none" stroke-width="1.5"></path><g fill="#3360a9"><circle cx="61" cy="431" r="2"></circle><circle cx="73" cy="428" r="2"></circle><circle cx="85" cy="428" r="2"></circle><circle cx="97" cy="430" r="2"></circle><circle cx="110" cy="426" r="2"></circle><circle cx="122" cy="429" r="2"></circle><circle cx="134" cy="427" r="2"></circle><circle cx="146" cy="424" r="2"></circle><circle cx="158" cy="423" r="2"></circle><circle cx="170" cy="423" r="2"></circle><circle cx="183" cy="423" r="2"></circle><circle cx="195" cy="426" r="2"></circle><circle cx="207" cy="425" r="2"></circle><circle cx="219" cy="420" r="2"></circle><circle cx="231" cy="423" r="2"></circle><circle cx="244" cy="421" r="2"></circle><circle cx="256" cy="416" r="2"></circle><circle cx="268" cy="415" r="2"></circle><circle cx="280" cy="414" r="2"></circle><circle cx="292" cy="413" r="2"></circle><circle cx="304" cy="409" r="2"></circle><circle cx="317" cy="410" r="2"></circle><circle cx="329" cy="415" r="2"></circle><circle cx="341" cy="418" r="2"></circle><circle cx="353" cy="414" r="2"></circle><circle cx="365" cy="411" r="2"></circle><circle cx="377" cy="416" r="2"></circle><circle cx="390" cy="413" r="2"></circle><circle cx="402" cy="413" r="2"></circle><circle cx="414" cy="411" r="2"></circle><circle cx="426" cy="411" r="2"></circle><circle cx="438" cy="409" r="2"></circle><circle cx="451" cy="409" r="2"></circle><circle cx="463" cy="409" r="2"></circle><circle cx="475" cy="407" r="2"></circle><circle cx="487" cy="408" r="2"></circle><circle cx="499" cy="406" r="2"></circle><circle cx="511" cy="405" r="2"></circle><circle cx="524" cy="403" r="2"></circle><circle cx="536" cy="404" r="2"></circle><circle cx="548" cy="402" r="2"></circle><circle cx="560" cy="399" r="2"></circle><circle cx="572" cy="398" r="2"></circle><circle cx="584" cy="397" r="2"></circle><circle cx="597" cy="395" r="2"></circle><circle cx="609" cy="394" r="2"></circle><circle cx="621" cy="394" r="2"></circle><circle cx="633" cy="391" r="2"></circle><circle cx="645" cy="394" r="2"></circle><circle cx="658" cy="393" r="2"></circle><circle cx="670" cy="391" r="2"></circle><circle cx="682" cy="391" r="2"></circle><circle cx="694" cy="392" r="2"></circle></g></g><g class="key-Asia_0"><path stroke="#34983f" stroke-linecap="round" d="M61 471L73 468L85 465L97 461L110 460L122 458L134 458L146 458L158 459L170 457L183 456L195 455L207 453L219 454L231 452L244 453L256 450L268 446L280 443L292 438L304 435L317 431L329 429L341 424L353 422L365 419L377 416L390 412L402 408L414 406L426 405L438 402L451 399L463 393L475 389L487 387L499 385L511 383L524 380L536 377L548 378L560 376L572 373L584 370L597 366L609 361L621 356L633 356L645 351L658 348L670 347L682 345L694 345" fill="none" stroke-width="1.5"></path><g fill="#34983f"><circle cx="61" cy="471" r="2"></circle><circle cx="73" cy="468" r="2"></circle><circle cx="85" cy="465" r="2"></circle><circle cx="97" cy="461" r="2"></circle><circle cx="110" cy="460" r="2"></circle><circle cx="122" cy="458" r="2"></circle><circle cx="134" cy="458" r="2"></circle><circle cx="146" cy="458" r="2"></circle><circle cx="158" cy="459" r="2"></circle><circle cx="170" cy="457" r="2"></circle><circle cx="183" cy="456" r="2"></circle><circle cx="195" cy="455" r="2"></circle><circle cx="207" cy="453" r="2"></circle><circle cx="219" cy="454" r="2"></circle><circle cx="231" cy="452" r="2"></circle><circle cx="244" cy="453" r="2"></circle><circle cx="256" cy="450" r="2"></circle><circle cx="268" cy="446" r="2"></circle><circle cx="280" cy="443" r="2"></circle><circle cx="292" cy="438" r="2"></circle><circle cx="304" cy="435" r="2"></circle><circle cx="317" cy="431" r="2"></circle><circle cx="329" cy="429" r="2"></circle><circle cx="341" cy="424" r="2"></circle><circle cx="353" cy="422" r="2"></circle><circle cx="365" cy="419" r="2"></circle><circle cx="377" cy="416" r="2"></circle><circle cx="390" cy="412" r="2"></circle><circle cx="402" cy="408" r="2"></circle><circle cx="414" cy="406" r="2"></circle><circle cx="426" cy="405" r="2"></circle><circle cx="438" cy="402" r="2"></circle><circle cx="451" cy="399" r="2"></circle><circle cx="463" cy="393" r="2"></circle><circle cx="475" cy="389" r="2"></circle><circle cx="487" cy="387" r="2"></circle><circle cx="499" cy="385" r="2"></circle><circle cx="511" cy="383" r="2"></circle><circle cx="524" cy="380" r="2"></circle><circle cx="536" cy="377" r="2"></circle><circle cx="548" cy="378" r="2"></circle><circle cx="560" cy="376" r="2"></circle><circle cx="572" cy="373" r="2"></circle><circle cx="584" cy="370" r="2"></circle><circle cx="597" cy="366" r="2"></circle><circle cx="609" cy="361" r="2"></circle><circle cx="621" cy="356" r="2"></circle><circle cx="633" cy="356" r="2"></circle><circle cx="645" cy="351" r="2"></circle><circle cx="658" cy="348" r="2"></circle><circle cx="670" cy="347" r="2"></circle><circle cx="682" cy="345" r="2"></circle><circle cx="694" cy="345" r="2"></circle></g></g><g class="key-World_0"><path stroke="#f6a324" stroke-linecap="round" d="M61 411L73 407L85 404L97 403L110 401L122 399L134 398L146 396L158 397L170 395L183 395L195 394L207 394L219 392L231 392L244 390L256 389L268 385L280 382L292 379L304 377L317 375L329 373L341 371L353 367L365 366L377 364L390 361L402 359L414 359L426 360L438 360L451 359L463 355L475 353L487 352L499 351L511 348L524 345L536 342L548 343L560 340L572 339L584 336L597 333L609 329L621 326L633 325L645 323L658 321L670 319L682 318L694 318" fill="none" stroke-width="1.5"></path><g fill="#f6a324"><circle cx="61" cy="411" r="2"></circle><circle cx="73" cy="407" r="2"></circle><circle cx="85" cy="404" r="2"></circle><circle cx="97" cy="403" r="2"></circle><circle cx="110" cy="401" r="2"></circle><circle cx="122" cy="399" r="2"></circle><circle cx="134" cy="398" r="2"></circle><circle cx="146" cy="396" r="2"></circle><circle cx="158" cy="397" r="2"></circle><circle cx="170" cy="395" r="2"></circle><circle cx="183" cy="395" r="2"></circle><circle cx="195" cy="394" r="2"></circle><circle cx="207" cy="394" r="2"></circle><circle cx="219" cy="392" r="2"></circle><circle cx="231" cy="392" r="2"></circle><circle cx="244" cy="390" r="2"></circle><circle cx="256" cy="389" r="2"></circle><circle cx="268" cy="385" r="2"></circle><circle cx="280" cy="382" r="2"></circle><circle cx="292" cy="379" r="2"></circle><circle cx="304" cy="377" r="2"></circle><circle cx="317" cy="375" r="2"></circle><circle cx="329" cy="373" r="2"></circle><circle cx="341" cy="371" r="2"></circle><circle cx="353" cy="367" r="2"></circle><circle cx="365" cy="366" r="2"></circle><circle cx="377" cy="364" r="2"></circle><circle cx="390" cy="361" r="2"></circle><circle cx="402" cy="359" r="2"></circle><circle cx="414" cy="359" r="2"></circle><circle cx="426" cy="360" r="2"></circle><circle cx="438" cy="360" r="2"></circle><circle cx="451" cy="359" r="2"></circle><circle cx="463" cy="355" r="2"></circle><circle cx="475" cy="353" r="2"></circle><circle cx="487" cy="352" r="2"></circle><circle cx="499" cy="351" r="2"></circle><circle cx="511" cy="348" r="2"></circle><circle cx="524" cy="345" r="2"></circle><circle cx="536" cy="342" r="2"></circle><circle cx="548" cy="343" r="2"></circle><circle cx="560" cy="340" r="2"></circle><circle cx="572" cy="339" r="2"></circle><circle cx="584" cy="336" r="2"></circle><circle cx="597" cy="333" r="2"></circle><circle cx="609" cy="329" r="2"></circle><circle cx="621" cy="326" r="2"></circle><circle cx="633" cy="325" r="2"></circle><circle cx="645" cy="323" r="2"></circle><circle cx="658" cy="321" r="2"></circle><circle cx="670" cy="319" r="2"></circle><circle cx="682" cy="318" r="2"></circle><circle cx="694" cy="318" r="2"></circle></g></g><g class="key-Europe_0"><path stroke="#2a939b" stroke-linecap="round" d="M61 301L73 292L85 288L97 290L110 283L122 280L134 274L146 266L158 267L170 260L183 258L195 255L207 253L219 248L231 249L244 242L256 244L268 237L280 233L292 232L304 233L317 234L329 228L341 225L353 218L365 217L377 213L390 209L402 207L414 208L426 223L438 219L451 225L463 228L475 228L487 226L499 225L511 220L524 221L536 220L548 218L560 214L572 216L584 215L597 210L609 205L621 202L633 200L645 201L658 198L670 198L682 198L694 197" fill="none" stroke-width="1.5"></path><g fill="#2a939b"><circle cx="61" cy="301" r="2"></circle><circle cx="73" cy="292" r="2"></circle><circle cx="85" cy="288" r="2"></circle><circle cx="97" cy="290" r="2"></circle><circle cx="110" cy="283" r="2"></circle><circle cx="122" cy="280" r="2"></circle><circle cx="134" cy="274" r="2"></circle><circle cx="146" cy="266" r="2"></circle><circle cx="158" cy="267" r="2"></circle><circle cx="170" cy="260" r="2"></circle><circle cx="183" cy="258" r="2"></circle><circle cx="195" cy="255" r="2"></circle><circle cx="207" cy="253" r="2"></circle><circle cx="219" cy="248" r="2"></circle><circle cx="231" cy="249" r="2"></circle><circle cx="244" cy="242" r="2"></circle><circle cx="256" cy="244" r="2"></circle><circle cx="268" cy="237" r="2"></circle><circle cx="280" cy="233" r="2"></circle><circle cx="292" cy="232" r="2"></circle><circle cx="304" cy="233" r="2"></circle><circle cx="317" cy="234" r="2"></circle><circle cx="329" cy="228" r="2"></circle><circle cx="341" cy="225" r="2"></circle><circle cx="353" cy="218" r="2"></circle><circle cx="365" cy="217" r="2"></circle><circle cx="377" cy="213" r="2"></circle><circle cx="390" cy="209" r="2"></circle><circle cx="402" cy="207" r="2"></circle><circle cx="414" cy="208" r="2"></circle><circle cx="426" cy="223" r="2"></circle><circle cx="438" cy="219" r="2"></circle><circle cx="451" cy="225" r="2"></circle><circle cx="463" cy="228" r="2"></circle><circle cx="475" cy="228" r="2"></circle><circle cx="487" cy="226" r="2"></circle><circle cx="499" cy="225" r="2"></circle><circle cx="511" cy="220" r="2"></circle><circle cx="524" cy="221" r="2"></circle><circle cx="536" cy="220" r="2"></circle><circle cx="548" cy="218" r="2"></circle><circle cx="560" cy="214" r="2"></circle><circle cx="572" cy="216" r="2"></circle><circle cx="584" cy="215" r="2"></circle><circle cx="597" cy="210" r="2"></circle><circle cx="609" cy="205" r="2"></circle><circle cx="621" cy="202" r="2"></circle><circle cx="633" cy="200" r="2"></circle><circle cx="645" cy="201" r="2"></circle><circle cx="658" cy="198" r="2"></circle><circle cx="670" cy="198" r="2"></circle><circle cx="682" cy="198" r="2"></circle><circle cx="694" cy="197" r="2"></circle></g></g><g class="key-Northern-America_0"><path stroke="#9ecc8a" stroke-linecap="round" d="M61 247L73 249L85 245L97 237L110 240L122 235L134 231L146 227L158 226L170 222L183 222L195 217L207 229L219 225L231 227L244 206L256 213L268 204L280 201L292 200L304 191L317 194L329 184L341 179L353 163L365 174L377 169L390 167L402 176L414 173L426 168L438 165L451 162L463 157L475 169L487 175L499 168L511 159L524 151L536 132L548 131L560 120L572 122L584 115L597 108L609 114L621 112L633 116L645 121L658 119L670 114L682 113L694 115" fill="none" stroke-width="1.5"></path><g fill="#9ecc8a"><circle cx="61" cy="247" r="2"></circle><circle cx="73" cy="249" r="2"></circle><circle cx="85" cy="245" r="2"></circle><circle cx="97" cy="237" r="2"></circle><circle cx="110" cy="240" r="2"></circle><circle cx="122" cy="235" r="2"></circle><circle cx="134" cy="231" r="2"></circle><circle cx="146" cy="227" r="2"></circle><circle cx="158" cy="226" r="2"></circle><circle cx="170" cy="222" r="2"></circle><circle cx="183" cy="222" r="2"></circle><circle cx="195" cy="217" r="2"></circle><circle cx="207" cy="229" r="2"></circle><circle cx="219" cy="225" r="2"></circle><circle cx="231" cy="227" r="2"></circle><circle cx="244" cy="206" r="2"></circle><circle cx="256" cy="213" r="2"></circle><circle cx="268" cy="204" r="2"></circle><circle cx="280" cy="201" r="2"></circle><circle cx="292" cy="200" r="2"></circle><circle cx="304" cy="191" r="2"></circle><circle cx="317" cy="194" r="2"></circle><circle cx="329" cy="184" r="2"></circle><circle cx="341" cy="179" r="2"></circle><circle cx="353" cy="163" r="2"></circle><circle cx="365" cy="174" r="2"></circle><circle cx="377" cy="169" r="2"></circle><circle cx="390" cy="167" r="2"></circle><circle cx="402" cy="176" r="2"></circle><circle cx="414" cy="173" r="2"></circle><circle cx="426" cy="168" r="2"></circle><circle cx="438" cy="165" r="2"></circle><circle cx="451" cy="162" r="2"></circle><circle cx="463" cy="157" r="2"></circle><circle cx="475" cy="169" r="2"></circle><circle cx="487" cy="175" r="2"></circle><circle cx="499" cy="168" r="2"></circle><circle cx="511" cy="159" r="2"></circle><circle cx="524" cy="151" r="2"></circle><circle cx="536" cy="132" r="2"></circle><circle cx="548" cy="131" r="2"></circle><circle cx="560" cy="120" r="2"></circle><circle cx="572" cy="122" r="2"></circle><circle cx="584" cy="115" r="2"></circle><circle cx="597" cy="108" r="2"></circle><circle cx="609" cy="114" r="2"></circle><circle cx="621" cy="112" r="2"></circle><circle cx="633" cy="116" r="2"></circle><circle cx="645" cy="121" r="2"></circle><circle cx="658" cy="119" r="2"></circle><circle cx="670" cy="114" r="2"></circle><circle cx="682" cy="113" r="2"></circle><circle cx="694" cy="115" r="2"></circle></g></g><g class="key-South-America_0"><path stroke="#a652ba" stroke-linecap="round" d="M61 407L73 402L85 404L97 403L110 401L122 394L134 395L146 389L158 389L170 391L183 393L195 392L207 392L219 380L231 379L244 379L256 372L268 365L280 361L292 355L304 356L317 360L329 361L341 361L353 357L365 353L377 347L390 342L402 342L414 344L426 335L438 334L451 334L463 333L475 329L487 328L499 324L511 322L524 307L536 301L548 303L560 305L572 302L584 298L597 302L609 295L621 291L633 281L645 284L658 279L670 275L682 272L694 270" fill="none" stroke-width="1.5"></path><g fill="#a652ba"><circle cx="61" cy="407" r="2"></circle><circle cx="73" cy="402" r="2"></circle><circle cx="85" cy="404" r="2"></circle><circle cx="97" cy="403" r="2"></circle><circle cx="110" cy="401" r="2"></circle><circle cx="122" cy="394" r="2"></circle><circle cx="134" cy="395" r="2"></circle><circle cx="146" cy="389" r="2"></circle><circle cx="158" cy="389" r="2"></circle><circle cx="170" cy="391" r="2"></circle><circle cx="183" cy="393" r="2"></circle><circle cx="195" cy="392" r="2"></circle><circle cx="207" cy="392" r="2"></circle><circle cx="219" cy="380" r="2"></circle><circle cx="231" cy="379" r="2"></circle><circle cx="244" cy="379" r="2"></circle><circle cx="256" cy="372" r="2"></circle><circle cx="268" cy="365" r="2"></circle><circle cx="280" cy="361" r="2"></circle><circle cx="292" cy="355" r="2"></circle><circle cx="304" cy="356" r="2"></circle><circle cx="317" cy="360" r="2"></circle><circle cx="329" cy="361" r="2"></circle><circle cx="341" cy="361" r="2"></circle><circle cx="353" cy="357" r="2"></circle><circle cx="365" cy="353" r="2"></circle><circle cx="377" cy="347" r="2"></circle><circle cx="390" cy="342" r="2"></circle><circle cx="402" cy="342" r="2"></circle><circle cx="414" cy="344" r="2"></circle><circle cx="426" cy="335" r="2"></circle><circle cx="438" cy="334" r="2"></circle><circle cx="451" cy="334" r="2"></circle><circle cx="463" cy="333" r="2"></circle><circle cx="475" cy="329" r="2"></circle><circle cx="487" cy="328" r="2"></circle><circle cx="499" cy="324" r="2"></circle><circle cx="511" cy="322" r="2"></circle><circle cx="524" cy="307" r="2"></circle><circle cx="536" cy="301" r="2"></circle><circle cx="548" cy="303" r="2"></circle><circle cx="560" cy="305" r="2"></circle><circle cx="572" cy="302" r="2"></circle><circle cx="584" cy="298" r="2"></circle><circle cx="597" cy="302" r="2"></circle><circle cx="609" cy="295" r="2"></circle><circle cx="621" cy="291" r="2"></circle><circle cx="633" cy="281" r="2"></circle><circle cx="645" cy="284" r="2"></circle><circle cx="658" cy="279" r="2"></circle><circle cx="670" cy="275" r="2"></circle><circle cx="682" cy="272" r="2"></circle><circle cx="694" cy="270" r="2"></circle></g></g><g class="key-Oceania_0"><path stroke="#e6332e" stroke-linecap="round" d="M61 253L73 250L85 250L97 251L110 252L122 249L134 250L146 250L158 249L170 244L183 237L195 226L207 236L219 251L231 241L244 240L256 247L268 248L280 246L292 242L304 239L317 236L329 239L341 237L353 232L365 224L377 219L390 219L402 213L414 204L426 206L438 200L451 205L463 213L475 214L487 216L499 212L511 219L524 208L536 209L548 201L560 206L572 207L584 199L597 192L609 180L621 178L633 184L645 180L658 174L670 168L682 162L694 165" fill="none" stroke-width="1.5"></path><g fill="#e6332e"><circle cx="61" cy="253" r="2"></circle><circle cx="73" cy="250" r="2"></circle><circle cx="85" cy="250" r="2"></circle><circle cx="97" cy="251" r="2"></circle><circle cx="110" cy="252" r="2"></circle><circle cx="122" cy="249" r="2"></circle><circle cx="134" cy="250" r="2"></circle><circle cx="146" cy="250" r="2"></circle><circle cx="158" cy="249" r="2"></circle><circle cx="170" cy="244" r="2"></circle><circle cx="183" cy="237" r="2"></circle><circle cx="195" cy="226" r="2"></circle><circle cx="207" cy="236" r="2"></circle><circle cx="219" cy="251" r="2"></circle><circle cx="231" cy="241" r="2"></circle><circle cx="244" cy="240" r="2"></circle><circle cx="256" cy="247" r="2"></circle><circle cx="268" cy="248" r="2"></circle><circle cx="280" cy="246" r="2"></circle><circle cx="292" cy="242" r="2"></circle><circle cx="304" cy="239" r="2"></circle><circle cx="317" cy="236" r="2"></circle><circle cx="329" cy="239" r="2"></circle><circle cx="341" cy="237" r="2"></circle><circle cx="353" cy="232" r="2"></circle><circle cx="365" cy="224" r="2"></circle><circle cx="377" cy="219" r="2"></circle><circle cx="390" cy="219" r="2"></circle><circle cx="402" cy="213" r="2"></circle><circle cx="414" cy="204" r="2"></circle><circle cx="426" cy="206" r="2"></circle><circle cx="438" cy="200" r="2"></circle><circle cx="451" cy="205" r="2"></circle><circle cx="463" cy="213" r="2"></circle><circle cx="475" cy="214" r="2"></circle><circle cx="487" cy="216" r="2"></circle><circle cx="499" cy="212" r="2"></circle><circle cx="511" cy="219" r="2"></circle><circle cx="524" cy="208" r="2"></circle><circle cx="536" cy="209" r="2"></circle><circle cx="548" cy="201" r="2"></circle><circle cx="560" cy="206" r="2"></circle><circle cx="572" cy="207" r="2"></circle><circle cx="584" cy="199" r="2"></circle><circle cx="597" cy="192" r="2"></circle><circle cx="609" cy="180" r="2"></circle><circle cx="621" cy="178" r="2"></circle><circle cx="633" cy="184" r="2"></circle><circle cx="645" cy="180" r="2"></circle><circle cx="658" cy="174" r="2"></circle><circle cx="670" cy="168" r="2"></circle><circle cx="682" cy="162" r="2"></circle><circle cx="694" cy="165" r="2"></circle></g></g><g class="key-Caribbean_0"><path stroke="#ca2628" stroke-linecap="round" d="M61 426L73 423L85 419L97 414L110 414L122 409L134 405L146 399L158 397L170 396L183 392L195 391L207 392L219 390L231 389L244 385L256 381L268 381L280 382L292 373L304 369L317 369L329 370L341 368L353 370L365 365L377 370L390 373L402 372L414 365L426 379L438 397L451 395L463 393L475 400L487 400L499 393L511 388L524 382L536 374L548 378L560 376L572 383L584 371L597 373L609 368L621 365L633 366L645 363L658 355L670 350L682 349L694 348" fill="none" stroke-width="1.5"></path><g fill="#ca2628"><circle cx="61" cy="426" r="2"></circle><circle cx="73" cy="423" r="2"></circle><circle cx="85" cy="419" r="2"></circle><circle cx="97" cy="414" r="2"></circle><circle cx="110" cy="414" r="2"></circle><circle cx="122" cy="409" r="2"></circle><circle cx="134" cy="405" r="2"></circle><circle cx="146" cy="399" r="2"></circle><circle cx="158" cy="397" r="2"></circle><circle cx="170" cy="396" r="2"></circle><circle cx="183" cy="392" r="2"></circle><circle cx="195" cy="391" r="2"></circle><circle cx="207" cy="392" r="2"></circle><circle cx="219" cy="390" r="2"></circle><circle cx="231" cy="389" r="2"></circle><circle cx="244" cy="385" r="2"></circle><circle cx="256" cy="381" r="2"></circle><circle cx="268" cy="381" r="2"></circle><circle cx="280" cy="382" r="2"></circle><circle cx="292" cy="373" r="2"></circle><circle cx="304" cy="369" r="2"></circle><circle cx="317" cy="369" r="2"></circle><circle cx="329" cy="370" r="2"></circle><circle cx="341" cy="368" r="2"></circle><circle cx="353" cy="370" r="2"></circle><circle cx="365" cy="365" r="2"></circle><circle cx="377" cy="370" r="2"></circle><circle cx="390" cy="373" r="2"></circle><circle cx="402" cy="372" r="2"></circle><circle cx="414" cy="365" r="2"></circle><circle cx="426" cy="379" r="2"></circle><circle cx="438" cy="397" r="2"></circle><circle cx="451" cy="395" r="2"></circle><circle cx="463" cy="393" r="2"></circle><circle cx="475" cy="400" r="2"></circle><circle cx="487" cy="400" r="2"></circle><circle cx="499" cy="393" r="2"></circle><circle cx="511" cy="388" r="2"></circle><circle cx="524" cy="382" r="2"></circle><circle cx="536" cy="374" r="2"></circle><circle cx="548" cy="378" r="2"></circle><circle cx="560" cy="376" r="2"></circle><circle cx="572" cy="383" r="2"></circle><circle cx="584" cy="371" r="2"></circle><circle cx="597" cy="373" r="2"></circle><circle cx="609" cy="368" r="2"></circle><circle cx="621" cy="365" r="2"></circle><circle cx="633" cy="366" r="2"></circle><circle cx="645" cy="363" r="2"></circle><circle cx="658" cy="355" r="2"></circle><circle cx="670" cy="350" r="2"></circle><circle cx="682" cy="349" r="2"></circle><circle cx="694" cy="348" r="2"></circle></g></g></g></g></g><g class="SourcesFooter" style="fill:#777"><g class="clickable" style="fill:#777"><text font-size="12.60" x="15.0" y="581.6"><tspan x="15" y="581.58">Source: UN Food and Agriculture Organization (FAO)</tspan></text></g><text font-size="12.60" x="552.0" y="581.6"><tspan x="552.004" y="581.58"><a target='_blank' style='fill: #777;' href='https://ourworldindata.org/food-per-person/'>OurWorldInData.org/food-per-person/</a> • <a style="fill: #777;" class="cclogo" href="http://creativecommons.org/licenses/by-sa/4.0/deed.en_US" target="_blank">CC BY-SA</a></tspan></text></g></g></svg>