<svg xmlns="http://www.w3.org/2000/svg" version="1.1" style="font-family:&#x27;Helvetica Neue&#x27;, Helvetica, Arial, sans-serif;font-size:18px;background-color:white;text-rendering:optimizeLegibility;-webkit-font-smoothing:antialiased" width="850" height="600"><g class="ChartTab"><g class="HeaderView"><g opacity="0.8" transform="translate(778, 15) scale(0.27)"><a xmlns:xlink="http://www.w3.org/1999/xlink" xlink:href="https://ourworldindata.org" target="_blank"><g><rect x="0" y="0" fill="#1B2543" width="211.2" height="130.1"/><rect x="0" y="112.2" fill="#E63912" width="211.2" height="17.9"/><g><rect x="1.2" y="12.3" fill="none" width="210.2" height="99.2"/><path fill="#FFFFFF" d="M37.8,32.2c0,12.7-7.7,19.4-17.1,19.4c-9.7,0-16.6-7.5-16.6-18.7c0-11.7,7.3-19.3,17.1-19.3 C31.3,13.7,37.8,21.3,37.8,32.2z M9.2,32.8c0,7.9,4.3,14.9,11.8,14.9c7.5,0,11.8-6.9,11.8-15.3c0-7.3-3.8-14.9-11.8-14.9 C13.1,17.5,9.2,24.8,9.2,32.8z"/><path fill="#FFFFFF" d="M62.7,43.8c0,2.7,0.1,5.1,0.2,7.2h-4.3l-0.3-4.3h-0.1c-1.3,2.1-4,4.9-8.8,4.9c-4.2,0-9.1-2.3-9.1-11.6 V24.6h4.8v14.6c0,5,1.5,8.4,5.9,8.4c3.2,0,5.5-2.2,6.3-4.4c0.3-0.7,0.4-1.6,0.4-2.5V24.6h4.8V43.8z"/><path fill="#FFFFFF" d="M67.3,32.8c0-3.1-0.1-5.8-0.2-8.2h4.2l0.2,5.2h0.2c1.2-3.5,4.1-5.8,7.3-5.8c0.5,0,0.9,0.1,1.4,0.2v4.5 c-0.5-0.1-1-0.2-1.6-0.2c-3.4,0-5.8,2.6-6.5,6.2c-0.1,0.7-0.2,1.4-0.2,2.2V51h-4.8V32.8z"/><path fill="#FFFFFF" d="M95.4,51l-9.4-36.8h5l4.4,18.6c1.1,4.6,2.1,9.2,2.7,12.7h0.1c0.6-3.7,1.8-8,3-12.8l4.9-18.5h5l4.5,18.7 c1,4.4,2,8.7,2.6,12.6h0.1c0.8-4,1.8-8.1,3-12.7l4.9-18.5h4.9L120.6,51h-5L111,31.9c-1.1-4.7-1.9-8.3-2.4-12h-0.1 c-0.7,3.7-1.5,7.3-2.8,12L100.4,51H95.4z"/><path fill="#FFFFFF" d="M154.9,37.6c0,9.8-6.8,14-13.2,14c-7.2,0-12.7-5.2-12.7-13.6c0-8.8,5.8-14,13.1-14 C149.8,24,154.9,29.5,154.9,37.6z M133.9,37.9c0,5.8,3.3,10.1,8,10.1c4.6,0,8-4.3,8-10.3c0-4.5-2.2-10.1-7.9-10.1 C136.3,27.6,133.9,32.8,133.9,37.9z"/><path fill="#FFFFFF" d="M158.2,32.8c0-3.1-0.1-5.8-0.2-8.2h4.2l0.2,5.2h0.2c1.2-3.5,4.1-5.8,7.3-5.8c0.5,0,0.9,0.1,1.4,0.2v4.5 c-0.5-0.1-1-0.2-1.6-0.2c-3.4,0-5.8,2.6-6.5,6.2c-0.1,0.7-0.2,1.4-0.2,2.2V51h-4.8V32.8z"/><path fill="#FFFFFF" d="M173.5,12.3h4.8V51h-4.8V12.3z"/><path fill="#FFFFFF" d="M206.5,12.3v31.9c0,2.3,0.1,5,0.2,6.8h-4.3l-0.2-4.6H202c-1.5,2.9-4.7,5.2-9,5.2 c-6.4,0-11.3-5.4-11.3-13.4c-0.1-8.8,5.4-14.2,11.9-14.2c4,0,6.8,1.9,8,4h0.1V12.3H206.5z M201.7,35.4c0-0.6-0.1-1.4-0.2-2 c-0.7-3.1-3.3-5.6-6.9-5.6c-5,0-7.9,4.4-7.9,10.2c0,5.3,2.6,9.8,7.8,9.8c3.2,0,6.2-2.1,7.1-5.7c0.2-0.7,0.2-1.3,0.2-2.1V35.4z"/><path fill="#FFFFFF" d="M42.8,64c0.1,1.6-1.1,2.9-3.1,2.9c-1.7,0-2.9-1.3-2.9-2.9c0-1.7,1.3-3,3-3C41.7,61,42.8,62.3,42.8,64z M37.4,97.8V71.4h4.8v26.4H37.4z"/><path fill="#FFFFFF" d="M47.5,78.6c0-2.7-0.1-5-0.2-7.1h4.3l0.3,4.4h0.1c1.3-2.5,4.4-5,8.8-5c3.7,0,9.4,2.2,9.4,11.2v15.8h-4.8 V82.6c0-4.3-1.6-7.8-6.1-7.8c-3.2,0-5.6,2.2-6.5,4.9c-0.2,0.6-0.3,1.4-0.3,2.2v15.9h-4.8V78.6z"/><path fill="#FFFFFF" d="M84,61.6c2.9-0.4,6.3-0.8,10.1-0.8c6.8,0,11.7,1.6,14.9,4.6c3.3,3,5.2,7.3,5.2,13.2c0,6-1.9,10.9-5.3,14.3 c-3.4,3.4-9.1,5.3-16.3,5.3c-3.4,0-6.2-0.2-8.6-0.4V61.6z M88.8,94.1c1.2,0.2,3,0.3,4.8,0.3c10.2,0,15.7-5.7,15.7-15.6 c0.1-8.7-4.9-14.2-14.9-14.2c-2.5,0-4.3,0.2-5.6,0.5V94.1z"/><path fill="#FFFFFF" d="M132.1,97.8l-0.4-3.3h-0.2c-1.5,2.1-4.3,3.9-8.1,3.9c-5.4,0-8.1-3.8-8.1-7.6c0-6.4,5.7-9.9,15.9-9.8v-0.5 c0-2.2-0.6-6.1-6-6.1c-2.5,0-5,0.8-6.9,2l-1.1-3.2c2.2-1.4,5.4-2.3,8.7-2.3c8.1,0,10.1,5.5,10.1,10.8v9.9c0,2.3,0.1,4.5,0.4,6.3 H132.1z M131.4,84.4c-5.3-0.1-11.2,0.8-11.2,5.9c0,3.1,2.1,4.6,4.5,4.6c3.4,0,5.6-2.2,6.4-4.4c0.2-0.5,0.3-1,0.3-1.5V84.4z"/><path fill="#FFFFFF" d="M146.6,63.9v7.6h6.9v3.7h-6.9v14.2c0,3.3,0.9,5.1,3.6,5.1c1.3,0,2.2-0.2,2.8-0.3l0.2,3.6 c-0.9,0.4-2.4,0.7-4.3,0.7c-2.2,0-4-0.7-5.2-2c-1.4-1.4-1.9-3.8-1.9-6.9V75.1h-4.1v-3.7h4.1v-6.3L146.6,63.9z"/><path fill="#FFFFFF" d="M171.4,97.8l-0.4-3.3h-0.2c-1.5,2.1-4.3,3.9-8.1,3.9c-5.4,0-8.1-3.8-8.1-7.6c0-6.4,5.7-9.9,15.9-9.8v-0.5 c0-2.2-0.6-6.1-6-6.1c-2.5,0-5,0.8-6.9,2l-1.1-3.2c2.2-1.4,5.4-2.3,8.7-2.3c8.1,0,10.1,5.5,10.1,10.8v9.9c0,2.3,0.1,4.5,0.4,6.3 H171.4z M170.7,84.4c-5.3-0.1-11.2,0.8-11.2,5.9c0,3.1,2.1,4.6,4.5,4.6c3.4,0,5.6-2.2,6.4-4.4c0.2-0.5,0.3-1,0.3-1.5V84.4z"/></g></g></a></g><a href="https://ourworldindata.org/grapher/female-labor-force-by-age?stackMode=absolute" target="_blank"><text font-size="25.20" x="15.0" y="35.2" fill="#555"><tspan x="15" y="35.160000000000004">Female labor force by age, World</tspan></text></a><text font-size="14.40" x="15.0" y="53.7" fill="#666"><tspan x="15" y="53.72">Population in the labor force are those recorded as economically active. It includes both employed and unemployed</tspan><tspan x="15" y="69.56">people looking for jobs.  All figures correspond to &#x27;modelled ILO estimates&#x27; (see source for details).</tspan></text></g><g class="StackedArea"><defs><clipPath id="boundsClip-498"><rect x="97.598" y="0" width="820" height="928.8"></rect></clipPath></defs><g class="AxisBoxView"><g class="HorizontalAxis"><text x="97.6" y="556.5" fill="#666" text-anchor="middle" font-size="16.2">1990</text><text x="211.9" y="556.5" fill="#666" text-anchor="middle" font-size="16.2">1995</text><text x="326.2" y="556.5" fill="#666" text-anchor="middle" font-size="16.2">2000</text><text x="440.6" y="556.5" fill="#666" text-anchor="middle" font-size="16.2">2005</text><text x="554.9" y="556.5" fill="#666" text-anchor="middle" font-size="16.2">2010</text><text x="669.2" y="556.5" fill="#666" text-anchor="middle" font-size="16.2">2015</text><text x="715" y="556.5" fill="#666" text-anchor="middle" font-size="16.2">2017</text></g><g class="VerticalAxis"><text x="92.60" y="535.3" fill="#666" dominant-baseline="middle" text-anchor="end" font-size="16.2">0</text><text x="92.60" y="471" fill="#666" dominant-baseline="middle" text-anchor="end" font-size="16.2">200 million</text><text x="92.60" y="406.7" fill="#666" dominant-baseline="middle" text-anchor="end" font-size="16.2">400 million</text><text x="92.60" y="342.5" fill="#666" dominant-baseline="middle" text-anchor="end" font-size="16.2">600 million</text><text x="92.60" y="278.2" fill="#666" dominant-baseline="middle" text-anchor="end" font-size="16.2">800 million</text><text x="92.60" y="213.9" fill="#666" dominant-baseline="middle" text-anchor="end" font-size="16.2">1 billion</text><text x="92.60" y="149.6" fill="#666" dominant-baseline="middle" text-anchor="end" font-size="16.2">1.2 billion</text></g><g class="AxisGridLines"><line x1="97.60" y1="535.3" x2="714.95" y2="535.3" stroke="#ccc"></line><line x1="97.60" y1="471" x2="714.95" y2="471" stroke="#ddd" stroke-dasharray="3,2"></line><line x1="97.60" y1="406.7" x2="714.95" y2="406.7" stroke="#ddd" stroke-dasharray="3,2"></line><line x1="97.60" y1="342.5" x2="714.95" y2="342.5" stroke="#ddd" stroke-dasharray="3,2"></line><line x1="97.60" y1="278.2" x2="714.95" y2="278.2" stroke="#ddd" stroke-dasharray="3,2"></line><line x1="97.60" y1="213.9" x2="714.95" y2="213.9" stroke="#ddd" stroke-dasharray="3,2"></line><line x1="97.60" y1="149.6" x2="714.95" y2="149.6" stroke="#ddd" stroke-dasharray="3,2"></line></g></g><g clip-path="url(#boundsClip-498)"><g class="HeightedLegend clickable"><g class="legendMark"><rect x="714.95" y="93.65" width="108.305" height="13.5" fill="#fff" opacity="0"></rect><text font-size="13.50" x="720.0" y="104.5" fill="#34983f"><tspan x="719.95" y="104.45">Women 65+</tspan></text></g><g class="legendMark"><rect x="714.95" y="126.25" width="120.05000000000001" height="13.5" fill="#fff" opacity="0"></rect><text font-size="13.50" x="720.0" y="137.1" fill="#9ecc8a"><tspan x="719.95" y="137.05">Women 55-64</tspan></text></g><g class="legendMark"><rect x="714.95" y="195.95" width="120.05000000000001" height="13.5" fill="#fff" opacity="0"></rect><text font-size="13.50" x="720.0" y="206.8" fill="#ffd53e"><tspan x="719.95" y="206.75">Women 45-54</tspan></text></g><g class="legendMark"><rect x="714.95" y="293.25" width="120.05000000000001" height="13.5" fill="#fff" opacity="0"></rect><text font-size="13.50" x="720.0" y="304.1" fill="#ca2628"><tspan x="719.95" y="304.05">Women 35-44</tspan></text></g><g class="legendMark"><rect x="714.95" y="402.65" width="120.05000000000001" height="13.5" fill="#fff" opacity="0"></rect><text font-size="13.50" x="720.0" y="413.4" fill="#e6332e"><tspan x="719.95" y="413.45">Women 25-34</tspan></text></g><g class="legendMark"><rect x="714.95" y="494.35" width="120.05000000000001" height="13.5" fill="#fff" opacity="0"></rect><text font-size="13.50" x="720.0" y="505.2" fill="#3360a9"><tspan x="719.95" y="505.15000000000003">Women 15-24</tspan></text></g></g><g class="Areas"><rect x="97.598" y="92.1" width="617.3520000000001" height="443.19999999999993" opacity="0" fill="rgba(255,255,255,0)"></rect><path class="World_5-area" stroke-linecap="round" d="M97.6 453.8L120.5 454.3L143.3 455L166.2 456L189.1 456.7L211.9 457.5L234.8 458.3L257.7 459L280.5 459.7L303.4 459.5L326.2 459.6L349.1 459.3L372 458.5L394.8 457.9L417.7 457L440.6 456.4L463.4 457L486.3 457.8L509.2 458.5L532 459.7L554.9 461.4L577.8 462.4L600.6 463.5L623.5 464.7L646.4 465.8L669.2 466.3L692.1 466.7L715 466.9L714.95 535.3L97.598 535.3" fill="#3360a9" fill-opacity="0.7"></path><path class="World_0-area" stroke-linecap="round" d="M97.6 369.4L120.5 368L143.3 366.6L166.2 365.4L189.1 363.6L211.9 362.6L234.8 361.6L257.7 361.1L280.5 360.5L303.4 359.3L326.2 358.7L349.1 358L372 356.9L394.8 356.4L417.7 355.3L440.6 354.3L463.4 355.1L486.3 356L509.2 356.9L532 357.7L554.9 358.7L577.8 358.2L600.6 357.3L623.5 356.2L646.4 355.1L669.2 353.8L692.1 352.8L715 351.9L715 466.9L692.1 466.7L669.2 466.3L646.4 465.8L623.5 464.7L600.6 463.5L577.8 462.4L554.9 461.4L532 459.7L509.2 458.5L486.3 457.8L463.4 457L440.6 456.4L417.7 457L394.8 457.9L372 458.5L349.1 459.3L326.2 459.6L303.4 459.5L280.5 459.7L257.7 459L234.8 458.3L211.9 457.5L189.1 456.7L166.2 456L143.3 455L120.5 454.3L97.6 453.8" fill="#e6332e" fill-opacity="0.7"></path><path class="World_3-area" stroke-linecap="round" d="M97.6 301.7L120.5 297.9L143.3 294.3L166.2 291.2L189.1 287.4L211.9 284.6L234.8 281.9L257.7 279.6L280.5 277.7L303.4 274.4L326.2 272L349.1 269.3L372 266.1L394.8 263L417.7 259.6L440.6 256.4L463.4 255.9L486.3 255.8L509.2 255.8L532 256L554.9 256.9L577.8 256.2L600.6 255.1L623.5 253.8L646.4 252.5L669.2 251L692.1 249.4L715 248L715 351.9L692.1 352.8L669.2 353.8L646.4 355.1L623.5 356.2L600.6 357.3L577.8 358.2L554.9 358.7L532 357.7L509.2 356.9L486.3 356L463.4 355.1L440.6 354.3L417.7 355.3L394.8 356.4L372 356.9L349.1 358L326.2 358.7L303.4 359.3L280.5 360.5L257.7 361.1L234.8 361.6L211.9 362.6L189.1 363.6L166.2 365.4L143.3 366.6L120.5 368L97.6 369.4" fill="#ca2628" fill-opacity="0.7"></path><path class="World_1-area" stroke-linecap="round" d="M97.6 259.4L120.5 254.5L143.3 249.8L166.2 245.6L189.1 240.2L211.9 235.6L234.8 230.9L257.7 226.1L280.5 221.5L303.4 215.7L326.2 211.1L349.1 206.2L372 201.1L394.8 196.2L417.7 191L440.6 185.9L463.4 183.9L486.3 182.3L509.2 180.9L532 179.6L554.9 178.8L577.8 176.3L600.6 173.4L623.5 170L646.4 166.6L669.2 163.3L692.1 160.3L715 157.5L715 248L692.1 249.4L669.2 251L646.4 252.5L623.5 253.8L600.6 255.1L577.8 256.2L554.9 256.9L532 256L509.2 255.8L486.3 255.8L463.4 255.9L440.6 256.4L417.7 259.6L394.8 263L372 266.1L349.1 269.3L326.2 272L303.4 274.4L280.5 277.7L257.7 279.6L234.8 281.9L211.9 284.6L189.1 287.4L166.2 291.2L143.3 294.3L120.5 297.9L97.6 301.7" fill="#ffd53e" fill-opacity="0.7"></path><path class="World_2-area" stroke-linecap="round" d="M97.6 239.5L120.5 234.1L143.3 228.7L166.2 223.9L189.1 217.9L211.9 212.7L234.8 207.5L257.7 202.2L280.5 197.2L303.4 190.6L326.2 185.2L349.1 179.6L372 173.4L394.8 167.2L417.7 160.6L440.6 153.9L463.4 150.5L486.3 147.3L509.2 144.3L532 141.3L554.9 139L577.8 135.2L600.6 131.1L623.5 126.3L646.4 121.5L669.2 116.9L692.1 112.7L715 108.6L715 157.5L692.1 160.3L669.2 163.3L646.4 166.6L623.5 170L600.6 173.4L577.8 176.3L554.9 178.8L532 179.6L509.2 180.9L486.3 182.3L463.4 183.9L440.6 185.9L417.7 191L394.8 196.2L372 201.1L349.1 206.2L326.2 211.1L303.4 215.7L280.5 221.5L257.7 226.1L234.8 230.9L211.9 235.6L189.1 240.2L166.2 245.6L143.3 249.8L120.5 254.5L97.6 259.4" fill="#9ecc8a" fill-opacity="0.7"></path><path class="World_4-area" stroke-linecap="round" d="M97.6 233.4L120.5 227.7L143.3 222L166.2 217L189.1 210.6L211.9 205.1L234.8 199.5L257.7 193.8L280.5 188.5L303.4 181.3L326.2 175.5L349.1 169.6L372 163.2L394.8 156.4L417.7 149.5L440.6 142.4L463.4 138.8L486.3 135.3L509.2 131.9L532 128.7L554.9 126.1L577.8 122.1L600.6 117.5L623.5 112.3L646.4 106.9L669.2 101.7L692.1 96.8L715 92.1L715 108.6L692.1 112.7L669.2 116.9L646.4 121.5L623.5 126.3L600.6 131.1L577.8 135.2L554.9 139L532 141.3L509.2 144.3L486.3 147.3L463.4 150.5L440.6 153.9L417.7 160.6L394.8 167.2L372 173.4L349.1 179.6L326.2 185.2L303.4 190.6L280.5 197.2L257.7 202.2L234.8 207.5L211.9 212.7L189.1 217.9L166.2 223.9L143.3 228.7L120.5 234.1L97.6 239.5" fill="#34983f" fill-opacity="0.7"></path><path class="World_5-border" stroke-linecap="round" d="M97.6 453.8L120.5 454.3L143.3 455L166.2 456L189.1 456.7L211.9 457.5L234.8 458.3L257.7 459L280.5 459.7L303.4 459.5L326.2 459.6L349.1 459.3L372 458.5L394.8 457.9L417.7 457L440.6 456.4L463.4 457L486.3 457.8L509.2 458.5L532 459.7L554.9 461.4L577.8 462.4L600.6 463.5L623.5 464.7L646.4 465.8L669.2 466.3L692.1 466.7L715 466.9" stroke="rgb(43, 80, 141)" stroke-opacity="0.7" stroke-width="0.5" fill="none"></path><path class="World_0-border" stroke-linecap="round" d="M97.6 369.4L120.5 368L143.3 366.6L166.2 365.4L189.1 363.6L211.9 362.6L234.8 361.6L257.7 361.1L280.5 360.5L303.4 359.3L326.2 358.7L349.1 358L372 356.9L394.8 356.4L417.7 355.3L440.6 354.3L463.4 355.1L486.3 356L509.2 356.9L532 357.7L554.9 358.7L577.8 358.2L600.6 357.3L623.5 356.2L646.4 355.1L669.2 353.8L692.1 352.8L715 351.9" stroke="rgb(192, 43, 38)" stroke-opacity="0.7" stroke-width="0.5" fill="none"></path><path class="World_3-border" stroke-linecap="round" d="M97.6 301.7L120.5 297.9L143.3 294.3L166.2 291.2L189.1 287.4L211.9 284.6L234.8 281.9L257.7 279.6L280.5 277.7L303.4 274.4L326.2 272L349.1 269.3L372 266.1L394.8 263L417.7 259.6L440.6 256.4L463.4 255.9L486.3 255.8L509.2 255.8L532 256L554.9 256.9L577.8 256.2L600.6 255.1L623.5 253.8L646.4 252.5L669.2 251L692.1 249.4L715 248" stroke="rgb(169, 32, 33)" stroke-opacity="0.7" stroke-width="0.5" fill="none"></path><path class="World_1-border" stroke-linecap="round" d="M97.6 259.4L120.5 254.5L143.3 249.8L166.2 245.6L189.1 240.2L211.9 235.6L234.8 230.9L257.7 226.1L280.5 221.5L303.4 215.7L326.2 211.1L349.1 206.2L372 201.1L394.8 196.2L417.7 191L440.6 185.9L463.4 183.9L486.3 182.3L509.2 180.9L532 179.6L554.9 178.8L577.8 176.3L600.6 173.4L623.5 170L646.4 166.6L669.2 163.3L692.1 160.3L715 157.5" stroke="rgb(213, 178, 52)" stroke-opacity="0.7" stroke-width="0.5" fill="none"></path><path class="World_2-border" stroke-linecap="round" d="M97.6 239.5L120.5 234.1L143.3 228.7L166.2 223.9L189.1 217.9L211.9 212.7L234.8 207.5L257.7 202.2L280.5 197.2L303.4 190.6L326.2 185.2L349.1 179.6L372 173.4L394.8 167.2L417.7 160.6L440.6 153.9L463.4 150.5L486.3 147.3L509.2 144.3L532 141.3L554.9 139L577.8 135.2L600.6 131.1L623.5 126.3L646.4 121.5L669.2 116.9L692.1 112.7L715 108.6" stroke="rgb(132, 171, 115)" stroke-opacity="0.7" stroke-width="0.5" fill="none"></path><path class="World_4-border" stroke-linecap="round" d="M97.6 233.4L120.5 227.7L143.3 222L166.2 217L189.1 210.6L211.9 205.1L234.8 199.5L257.7 193.8L280.5 188.5L303.4 181.3L326.2 175.5L349.1 169.6L372 163.2L394.8 156.4L417.7 149.5L440.6 142.4L463.4 138.8L486.3 135.3L509.2 131.9L532 128.7L554.9 126.1L577.8 122.1L600.6 117.5L623.5 112.3L646.4 106.9L669.2 101.7L692.1 96.8L715 92.1" stroke="rgb(44, 127, 53)" stroke-opacity="0.7" stroke-width="0.5" fill="none"></path></g></g></g><g class="SourcesFooter" style="fill:#777"><g class="clickable" style="fill:#777"><text font-size="12.60" x="15.0" y="581.6"><tspan x="15" y="581.58">Source: ILOSTAT</tspan></text></g><text font-size="12.60" x="775.4" y="581.6"><tspan x="775.402" y="581.58"><a style="fill: #777;" class="cclogo" href="http://creativecommons.org/licenses/by-sa/4.0/deed.en_US" target="_blank">CC BY-SA</a></tspan></text></g></g></svg>