<svg xmlns="http://www.w3.org/2000/svg" version="1.1" style="font-family:&#x27;Helvetica Neue&#x27;, Helvetica, Arial, sans-serif;font-size:18px;background-color:white;text-rendering:optimizeLegibility;-webkit-font-smoothing:antialiased" width="850" height="600"><g class="ChartTab"><g class="HeaderView"><g opacity="0.8" transform="translate(778, 15) scale(0.27)"><a xmlns:xlink="http://www.w3.org/1999/xlink" xlink:href="https://ourworldindata.org" target="_blank"><g><rect x="0" y="0" fill="#1B2543" width="211.2" height="130.1"/><rect x="0" y="112.2" fill="#E63912" width="211.2" height="17.9"/><g><rect x="1.2" y="12.3" fill="none" width="210.2" height="99.2"/><path fill="#FFFFFF" d="M37.8,32.2c0,12.7-7.7,19.4-17.1,19.4c-9.7,0-16.6-7.5-16.6-18.7c0-11.7,7.3-19.3,17.1-19.3 C31.3,13.7,37.8,21.3,37.8,32.2z M9.2,32.8c0,7.9,4.3,14.9,11.8,14.9c7.5,0,11.8-6.9,11.8-15.3c0-7.3-3.8-14.9-11.8-14.9 C13.1,17.5,9.2,24.8,9.2,32.8z"/><path fill="#FFFFFF" d="M62.7,43.8c0,2.7,0.1,5.1,0.2,7.2h-4.3l-0.3-4.3h-0.1c-1.3,2.1-4,4.9-8.8,4.9c-4.2,0-9.1-2.3-9.1-11.6 V24.6h4.8v14.6c0,5,1.5,8.4,5.9,8.4c3.2,0,5.5-2.2,6.3-4.4c0.3-0.7,0.4-1.6,0.4-2.5V24.6h4.8V43.8z"/><path fill="#FFFFFF" d="M67.3,32.8c0-3.1-0.1-5.8-0.2-8.2h4.2l0.2,5.2h0.2c1.2-3.5,4.1-5.8,7.3-5.8c0.5,0,0.9,0.1,1.4,0.2v4.5 c-0.5-0.1-1-0.2-1.6-0.2c-3.4,0-5.8,2.6-6.5,6.2c-0.1,0.7-0.2,1.4-0.2,2.2V51h-4.8V32.8z"/><path fill="#FFFFFF" d="M95.4,51l-9.4-36.8h5l4.4,18.6c1.1,4.6,2.1,9.2,2.7,12.7h0.1c0.6-3.7,1.8-8,3-12.8l4.9-18.5h5l4.5,18.7 c1,4.4,2,8.7,2.6,12.6h0.1c0.8-4,1.8-8.1,3-12.7l4.9-18.5h4.9L120.6,51h-5L111,31.9c-1.1-4.7-1.9-8.3-2.4-12h-0.1 c-0.7,3.7-1.5,7.3-2.8,12L100.4,51H95.4z"/><path fill="#FFFFFF" d="M154.9,37.6c0,9.8-6.8,14-13.2,14c-7.2,0-12.7-5.2-12.7-13.6c0-8.8,5.8-14,13.1-14 C149.8,24,154.9,29.5,154.9,37.6z M133.9,37.9c0,5.8,3.3,10.1,8,10.1c4.6,0,8-4.3,8-10.3c0-4.5-2.2-10.1-7.9-10.1 C136.3,27.6,133.9,32.8,133.9,37.9z"/><path fill="#FFFFFF" d="M158.2,32.8c0-3.1-0.1-5.8-0.2-8.2h4.2l0.2,5.2h0.2c1.2-3.5,4.1-5.8,7.3-5.8c0.5,0,0.9,0.1,1.4,0.2v4.5 c-0.5-0.1-1-0.2-1.6-0.2c-3.4,0-5.8,2.6-6.5,6.2c-0.1,0.7-0.2,1.4-0.2,2.2V51h-4.8V32.8z"/><path fill="#FFFFFF" d="M173.5,12.3h4.8V51h-4.8V12.3z"/><path fill="#FFFFFF" d="M206.5,12.3v31.9c0,2.3,0.1,5,0.2,6.8h-4.3l-0.2-4.6H202c-1.5,2.9-4.7,5.2-9,5.2 c-6.4,0-11.3-5.4-11.3-13.4c-0.1-8.8,5.4-14.2,11.9-14.2c4,0,6.8,1.9,8,4h0.1V12.3H206.5z M201.7,35.4c0-0.6-0.1-1.4-0.2-2 c-0.7-3.1-3.3-5.6-6.9-5.6c-5,0-7.9,4.4-7.9,10.2c0,5.3,2.6,9.8,7.8,9.8c3.2,0,6.2-2.1,7.1-5.7c0.2-0.7,0.2-1.3,0.2-2.1V35.4z"/><path fill="#FFFFFF" d="M42.8,64c0.1,1.6-1.1,2.9-3.1,2.9c-1.7,0-2.9-1.3-2.9-2.9c0-1.7,1.3-3,3-3C41.7,61,42.8,62.3,42.8,64z M37.4,97.8V71.4h4.8v26.4H37.4z"/><path fill="#FFFFFF" d="M47.5,78.6c0-2.7-0.1-5-0.2-7.1h4.3l0.3,4.4h0.1c1.3-2.5,4.4-5,8.8-5c3.7,0,9.4,2.2,9.4,11.2v15.8h-4.8 V82.6c0-4.3-1.6-7.8-6.1-7.8c-3.2,0-5.6,2.2-6.5,4.9c-0.2,0.6-0.3,1.4-0.3,2.2v15.9h-4.8V78.6z"/><path fill="#FFFFFF" d="M84,61.6c2.9-0.4,6.3-0.8,10.1-0.8c6.8,0,11.7,1.6,14.9,4.6c3.3,3,5.2,7.3,5.2,13.2c0,6-1.9,10.9-5.3,14.3 c-3.4,3.4-9.1,5.3-16.3,5.3c-3.4,0-6.2-0.2-8.6-0.4V61.6z M88.8,94.1c1.2,0.2,3,0.3,4.8,0.3c10.2,0,15.7-5.7,15.7-15.6 c0.1-8.7-4.9-14.2-14.9-14.2c-2.5,0-4.3,0.2-5.6,0.5V94.1z"/><path fill="#FFFFFF" d="M132.1,97.8l-0.4-3.3h-0.2c-1.5,2.1-4.3,3.9-8.1,3.9c-5.4,0-8.1-3.8-8.1-7.6c0-6.4,5.7-9.9,15.9-9.8v-0.5 c0-2.2-0.6-6.1-6-6.1c-2.5,0-5,0.8-6.9,2l-1.1-3.2c2.2-1.4,5.4-2.3,8.7-2.3c8.1,0,10.1,5.5,10.1,10.8v9.9c0,2.3,0.1,4.5,0.4,6.3 H132.1z M131.4,84.4c-5.3-0.1-11.2,0.8-11.2,5.9c0,3.1,2.1,4.6,4.5,4.6c3.4,0,5.6-2.2,6.4-4.4c0.2-0.5,0.3-1,0.3-1.5V84.4z"/><path fill="#FFFFFF" d="M146.6,63.9v7.6h6.9v3.7h-6.9v14.2c0,3.3,0.9,5.1,3.6,5.1c1.3,0,2.2-0.2,2.8-0.3l0.2,3.6 c-0.9,0.4-2.4,0.7-4.3,0.7c-2.2,0-4-0.7-5.2-2c-1.4-1.4-1.9-3.8-1.9-6.9V75.1h-4.1v-3.7h4.1v-6.3L146.6,63.9z"/><path fill="#FFFFFF" d="M171.4,97.8l-0.4-3.3h-0.2c-1.5,2.1-4.3,3.9-8.1,3.9c-5.4,0-8.1-3.8-8.1-7.6c0-6.4,5.7-9.9,15.9-9.8v-0.5 c0-2.2-0.6-6.1-6-6.1c-2.5,0-5,0.8-6.9,2l-1.1-3.2c2.2-1.4,5.4-2.3,8.7-2.3c8.1,0,10.1,5.5,10.1,10.8v9.9c0,2.3,0.1,4.5,0.4,6.3 H171.4z M170.7,84.4c-5.3-0.1-11.2,0.8-11.2,5.9c0,3.1,2.1,4.6,4.5,4.6c3.4,0,5.6-2.2,6.4-4.4c0.2-0.5,0.3-1,0.3-1.5V84.4z"/></g></g></a></g><a href="https://ourworldindata.org/grapher/fire-deaths-by-age" target="_blank"><text font-size="25.20" x="15.0" y="35.2" fill="#555"><tspan x="15" y="35.160000000000004">Fire deaths by age, World</tspan></text></a><text font-size="14.40" x="15.0" y="53.7" fill="#666"><tspan x="15" y="53.72">Annual number of fire-related deaths by age group across both sexes.</tspan></text></g><g class="StackedArea"><defs><clipPath id="boundsClip-411"><rect x="78.968" y="0" width="820" height="959.8"></rect></clipPath></defs><g class="AxisBoxView"><g class="HorizontalAxis"><text x="79" y="556.5" fill="#666" text-anchor="middle" font-size="16.2">1990</text><text x="199.7" y="556.5" fill="#666" text-anchor="middle" font-size="16.2">1995</text><text x="320.4" y="556.5" fill="#666" text-anchor="middle" font-size="16.2">2000</text><text x="441.1" y="556.5" fill="#666" text-anchor="middle" font-size="16.2">2005</text><text x="561.7" y="556.5" fill="#666" text-anchor="middle" font-size="16.2">2010</text><text x="706.6" y="556.5" fill="#666" text-anchor="middle" font-size="16.2">2016</text></g><g class="VerticalAxis"><text x="73.97" y="535.3" fill="#666" dominant-baseline="middle" text-anchor="end" font-size="16.2">0</text><text x="73.97" y="478.4" fill="#666" dominant-baseline="middle" text-anchor="end" font-size="16.2">20,000</text><text x="73.97" y="421.4" fill="#666" dominant-baseline="middle" text-anchor="end" font-size="16.2">40,000</text><text x="73.97" y="364.5" fill="#666" dominant-baseline="middle" text-anchor="end" font-size="16.2">60,000</text><text x="73.97" y="307.6" fill="#666" dominant-baseline="middle" text-anchor="end" font-size="16.2">80,000</text><text x="73.97" y="250.7" fill="#666" dominant-baseline="middle" text-anchor="end" font-size="16.2">100,000</text><text x="73.97" y="193.7" fill="#666" dominant-baseline="middle" text-anchor="end" font-size="16.2">120,000</text><text x="73.97" y="136.8" fill="#666" dominant-baseline="middle" text-anchor="end" font-size="16.2">140,000</text><text x="73.97" y="79.9" fill="#666" dominant-baseline="middle" text-anchor="end" font-size="16.2">160,000</text></g><g class="AxisGridLines"><line x1="78.97" y1="535.3" x2="706.58" y2="535.3" stroke="#ccc"></line><line x1="78.97" y1="478.4" x2="706.58" y2="478.4" stroke="#ddd" stroke-dasharray="3,2"></line><line x1="78.97" y1="421.4" x2="706.58" y2="421.4" stroke="#ddd" stroke-dasharray="3,2"></line><line x1="78.97" y1="364.5" x2="706.58" y2="364.5" stroke="#ddd" stroke-dasharray="3,2"></line><line x1="78.97" y1="307.6" x2="706.58" y2="307.6" stroke="#ddd" stroke-dasharray="3,2"></line><line x1="78.97" y1="250.7" x2="706.58" y2="250.7" stroke="#ddd" stroke-dasharray="3,2"></line><line x1="78.97" y1="193.7" x2="706.58" y2="193.7" stroke="#ddd" stroke-dasharray="3,2"></line><line x1="78.97" y1="136.8" x2="706.58" y2="136.8" stroke="#ddd" stroke-dasharray="3,2"></line><line x1="78.97" y1="79.9" x2="706.58" y2="79.9" stroke="#ddd" stroke-dasharray="3,2"></line></g></g><g clip-path="url(#boundsClip-411)"><g class="HeightedLegend clickable"><g class="legendMark"><rect x="706.5799999999999" y="199.65" width="116.67500000000001" height="13.5" fill="#fff" opacity="0"></rect><text font-size="13.50" x="711.6" y="210.5" fill="#34983f"><tspan x="711.5799999999999" y="210.45000000000002">70+ years old</tspan></text></g><g class="legendMark"><rect x="706.5799999999999" y="286.15" width="128.42000000000002" height="13.5" fill="#fff" opacity="0"></rect><text font-size="13.50" x="711.6" y="296.9" fill="#9ecc8a"><tspan x="711.5799999999999" y="296.95">50-69 years old</tspan></text></g><g class="legendMark"><rect x="706.5799999999999" y="392.85" width="128.42000000000002" height="13.5" fill="#fff" opacity="0"></rect><text font-size="13.50" x="711.6" y="403.7" fill="#ffd53e"><tspan x="711.5799999999999" y="403.65000000000003">15-49 years old</tspan></text></g><g class="legendMark"><rect x="706.5799999999999" y="470.35" width="120.86" height="13.5" fill="#fff" opacity="0"></rect><text font-size="13.50" x="711.6" y="481.2" fill="#ca2628"><tspan x="711.5799999999999" y="481.15000000000003">5-14 years old</tspan></text></g><g class="legendMark"><rect x="706.5799999999999" y="504.55" width="90.62" height="13.5" fill="#fff" opacity="0"></rect><text font-size="13.50" x="711.6" y="515.3" fill="#3360a9"><tspan x="711.5799999999999" y="515.3499999999999">Under-5s</tspan></text></g></g><g class="Areas"><rect x="78.968" y="76.6" width="627.612" height="458.69999999999993" opacity="0" fill="rgba(255,255,255,0)"></rect><path class="World_0-area" stroke-linecap="round" d="M79 427.3L103.1 429.7L127.2 433.3L151.4 436.6L175.5 440.1L199.7 443.7L223.8 447.8L247.9 450.9L272.1 455.1L296.2 458.5L320.4 461L344.5 463.6L368.6 466.3L392.8 467.8L416.9 469.3L441.1 470.8L465.2 472.1L489.3 473.2L513.5 474.5L537.6 475.7L561.7 477.2L585.9 478.7L610 479.2L634.2 481.1L658.3 482.9L682.4 484.9L706.6 487.3L706.5799999999999 535.3L78.968 535.3" fill="#3360a9" fill-opacity="0.7"></path><path class="World_1-area" stroke-linecap="round" d="M79 389.8L103.1 392.5L127.2 396.4L151.4 399.8L175.5 403.6L199.7 407.2L223.8 411.7L247.9 415.5L272.1 421.2L296.2 425.9L320.4 429.3L344.5 433L368.6 436.8L392.8 439.2L416.9 441.8L441.1 444.3L465.2 446.4L489.3 448.2L513.5 450.3L537.6 451.8L561.7 453.8L585.9 455.9L610 456.7L634.2 459.1L658.3 461.4L682.4 463.9L706.6 466.9L706.6 487.3L682.4 484.9L658.3 482.9L634.2 481.1L610 479.2L585.9 478.7L561.7 477.2L537.6 475.7L513.5 474.5L489.3 473.2L465.2 472.1L441.1 470.8L416.9 469.3L392.8 467.8L368.6 466.3L344.5 463.6L320.4 461L296.2 458.5L272.1 455.1L247.9 450.9L223.8 447.8L199.7 443.7L175.5 440.1L151.4 436.6L127.2 433.3L103.1 429.7L79 427.3" fill="#ca2628" fill-opacity="0.7"></path><path class="World_2-area" stroke-linecap="round" d="M79 237.1L103.1 237.2L127.2 237.7L151.4 235.3L175.5 234.2L199.7 236L223.8 241.6L247.9 246.8L272.1 254.7L296.2 257.9L320.4 259.7L344.5 264.7L368.6 268.8L392.8 271.4L416.9 277L441.1 282L465.2 287.8L489.3 292.7L513.5 298.2L537.6 303.9L561.7 308.3L585.9 313.3L610 316L634.2 320.7L658.3 324.5L682.4 327.7L706.6 332.4L706.6 466.9L682.4 463.9L658.3 461.4L634.2 459.1L610 456.7L585.9 455.9L561.7 453.8L537.6 451.8L513.5 450.3L489.3 448.2L465.2 446.4L441.1 444.3L416.9 441.8L392.8 439.2L368.6 436.8L344.5 433L320.4 429.3L296.2 425.9L272.1 421.2L247.9 415.5L223.8 411.7L199.7 407.2L175.5 403.6L151.4 399.8L127.2 396.4L103.1 392.5L79 389.8" fill="#ffd53e" fill-opacity="0.7"></path><path class="World_3-area" stroke-linecap="round" d="M79 168.4L103.1 167.3L127.2 165.7L151.4 159.9L175.5 156.3L199.7 157.9L223.8 164.5L247.9 170.8L272.1 179.5L296.2 181.1L320.4 181.1L344.5 186.3L368.6 189.4L392.8 191.1L416.9 197.1L441.1 202.2L465.2 209.8L489.3 215.3L513.5 221.5L537.6 228.3L561.7 232.5L585.9 237.9L610 240.4L634.2 244.7L658.3 247.8L682.4 249.7L706.6 253.5L706.6 332.4L682.4 327.7L658.3 324.5L634.2 320.7L610 316L585.9 313.3L561.7 308.3L537.6 303.9L513.5 298.2L489.3 292.7L465.2 287.8L441.1 282L416.9 277L392.8 271.4L368.6 268.8L344.5 264.7L320.4 259.7L296.2 257.9L272.1 254.7L247.9 246.8L223.8 241.6L199.7 236L175.5 234.2L151.4 235.3L127.2 237.7L103.1 237.2L79 237.1" fill="#9ecc8a" fill-opacity="0.7"></path><path class="World_4-area" stroke-linecap="round" d="M79 95.1L103.1 92.7L127.2 89.8L151.4 81.7L175.5 76.6L199.7 77L223.8 83.1L247.9 89.3L272.1 97.7L296.2 98.8L320.4 98L344.5 103L368.6 104.8L392.8 105.5L416.9 112.1L441.1 116.3L465.2 124.1L489.3 129L513.5 134.6L537.6 140.9L561.7 144L585.9 149L610 150.7L634.2 154.6L658.3 157L682.4 157.7L706.6 159.3L706.6 253.5L682.4 249.7L658.3 247.8L634.2 244.7L610 240.4L585.9 237.9L561.7 232.5L537.6 228.3L513.5 221.5L489.3 215.3L465.2 209.8L441.1 202.2L416.9 197.1L392.8 191.1L368.6 189.4L344.5 186.3L320.4 181.1L296.2 181.1L272.1 179.5L247.9 170.8L223.8 164.5L199.7 157.9L175.5 156.3L151.4 159.9L127.2 165.7L103.1 167.3L79 168.4" fill="#34983f" fill-opacity="0.7"></path><path class="World_0-border" stroke-linecap="round" d="M79 427.3L103.1 429.7L127.2 433.3L151.4 436.6L175.5 440.1L199.7 443.7L223.8 447.8L247.9 450.9L272.1 455.1L296.2 458.5L320.4 461L344.5 463.6L368.6 466.3L392.8 467.8L416.9 469.3L441.1 470.8L465.2 472.1L489.3 473.2L513.5 474.5L537.6 475.7L561.7 477.2L585.9 478.7L610 479.2L634.2 481.1L658.3 482.9L682.4 484.9L706.6 487.3" stroke="rgb(43, 80, 141)" stroke-opacity="0.7" stroke-width="0.5" fill="none"></path><path class="World_1-border" stroke-linecap="round" d="M79 389.8L103.1 392.5L127.2 396.4L151.4 399.8L175.5 403.6L199.7 407.2L223.8 411.7L247.9 415.5L272.1 421.2L296.2 425.9L320.4 429.3L344.5 433L368.6 436.8L392.8 439.2L416.9 441.8L441.1 444.3L465.2 446.4L489.3 448.2L513.5 450.3L537.6 451.8L561.7 453.8L585.9 455.9L610 456.7L634.2 459.1L658.3 461.4L682.4 463.9L706.6 466.9" stroke="rgb(169, 32, 33)" stroke-opacity="0.7" stroke-width="0.5" fill="none"></path><path class="World_2-border" stroke-linecap="round" d="M79 237.1L103.1 237.2L127.2 237.7L151.4 235.3L175.5 234.2L199.7 236L223.8 241.6L247.9 246.8L272.1 254.7L296.2 257.9L320.4 259.7L344.5 264.7L368.6 268.8L392.8 271.4L416.9 277L441.1 282L465.2 287.8L489.3 292.7L513.5 298.2L537.6 303.9L561.7 308.3L585.9 313.3L610 316L634.2 320.7L658.3 324.5L682.4 327.7L706.6 332.4" stroke="rgb(213, 178, 52)" stroke-opacity="0.7" stroke-width="0.5" fill="none"></path><path class="World_3-border" stroke-linecap="round" d="M79 168.4L103.1 167.3L127.2 165.7L151.4 159.9L175.5 156.3L199.7 157.9L223.8 164.5L247.9 170.8L272.1 179.5L296.2 181.1L320.4 181.1L344.5 186.3L368.6 189.4L392.8 191.1L416.9 197.1L441.1 202.2L465.2 209.8L489.3 215.3L513.5 221.5L537.6 228.3L561.7 232.5L585.9 237.9L610 240.4L634.2 244.7L658.3 247.8L682.4 249.7L706.6 253.5" stroke="rgb(132, 171, 115)" stroke-opacity="0.7" stroke-width="0.5" fill="none"></path><path class="World_4-border" stroke-linecap="round" d="M79 95.1L103.1 92.7L127.2 89.8L151.4 81.7L175.5 76.6L199.7 77L223.8 83.1L247.9 89.3L272.1 97.7L296.2 98.8L320.4 98L344.5 103L368.6 104.8L392.8 105.5L416.9 112.1L441.1 116.3L465.2 124.1L489.3 129L513.5 134.6L537.6 140.9L561.7 144L585.9 149L610 150.7L634.2 154.6L658.3 157L682.4 157.7L706.6 159.3" stroke="rgb(44, 127, 53)" stroke-opacity="0.7" stroke-width="0.5" fill="none"></path></g></g></g><g class="SourcesFooter" style="fill:#777"><g class="clickable" style="fill:#777"><text font-size="12.60" x="15.0" y="581.6"><tspan x="15" y="581.58">Source: IHME, Global Burden of Disease (GBD)</tspan></text></g><text font-size="12.60" x="775.4" y="581.6"><tspan x="775.402" y="581.58"><a style="fill: #777;" class="cclogo" href="http://creativecommons.org/licenses/by-sa/4.0/deed.en_US" target="_blank">CC BY-SA</a></tspan></text></g></g></svg>