<svg xmlns="http://www.w3.org/2000/svg" version="1.1" style="font-family: 'Helvetica Neue', Helvetica, Arial, sans-serif; font-size: 16px; background-color: white; text-rendering: optimizeLegibility; -webkit-font-smoothing: antialiased;" width="850" height="600"><g class="ChartTab"><g class="HeaderView"><g opacity="0.8" transform="translate(770, 15) scale(0.31)"><a xmlns:xlink="http://www.w3.org/1999/xlink" xlink:href="https://ourworldindata.org" target="_blank"><g><rect x="0" y="0" fill="#1B2543" width="211.2" height="130.1"/><rect x="0" y="112.2" fill="#E63912" width="211.2" height="17.9"/><g><rect x="1.2" y="12.3" fill="none" width="210.2" height="99.2"/><path fill="#FFFFFF" d="M37.8,32.2c0,12.7-7.7,19.4-17.1,19.4c-9.7,0-16.6-7.5-16.6-18.7c0-11.7,7.3-19.3,17.1-19.3 C31.3,13.7,37.8,21.3,37.8,32.2z M9.2,32.8c0,7.9,4.3,14.9,11.8,14.9c7.5,0,11.8-6.9,11.8-15.3c0-7.3-3.8-14.9-11.8-14.9 C13.1,17.5,9.2,24.8,9.2,32.8z"/><path fill="#FFFFFF" d="M62.7,43.8c0,2.7,0.1,5.1,0.2,7.2h-4.3l-0.3-4.3h-0.1c-1.3,2.1-4,4.9-8.8,4.9c-4.2,0-9.1-2.3-9.1-11.6 V24.6h4.8v14.6c0,5,1.5,8.4,5.9,8.4c3.2,0,5.5-2.2,6.3-4.4c0.3-0.7,0.4-1.6,0.4-2.5V24.6h4.8V43.8z"/><path fill="#FFFFFF" d="M67.3,32.8c0-3.1-0.1-5.8-0.2-8.2h4.2l0.2,5.2h0.2c1.2-3.5,4.1-5.8,7.3-5.8c0.5,0,0.9,0.1,1.4,0.2v4.5 c-0.5-0.1-1-0.2-1.6-0.2c-3.4,0-5.8,2.6-6.5,6.2c-0.1,0.7-0.2,1.4-0.2,2.2V51h-4.8V32.8z"/><path fill="#FFFFFF" d="M95.4,51l-9.4-36.8h5l4.4,18.6c1.1,4.6,2.1,9.2,2.7,12.7h0.1c0.6-3.7,1.8-8,3-12.8l4.9-18.5h5l4.5,18.7 c1,4.4,2,8.7,2.6,12.6h0.1c0.8-4,1.8-8.1,3-12.7l4.9-18.5h4.9L120.6,51h-5L111,31.9c-1.1-4.7-1.9-8.3-2.4-12h-0.1 c-0.7,3.7-1.5,7.3-2.8,12L100.4,51H95.4z"/><path fill="#FFFFFF" d="M154.9,37.6c0,9.8-6.8,14-13.2,14c-7.2,0-12.7-5.2-12.7-13.6c0-8.8,5.8-14,13.1-14 C149.8,24,154.9,29.5,154.9,37.6z M133.9,37.9c0,5.8,3.3,10.1,8,10.1c4.6,0,8-4.3,8-10.3c0-4.5-2.2-10.1-7.9-10.1 C136.3,27.6,133.9,32.8,133.9,37.9z"/><path fill="#FFFFFF" d="M158.2,32.8c0-3.1-0.1-5.8-0.2-8.2h4.2l0.2,5.2h0.2c1.2-3.5,4.1-5.8,7.3-5.8c0.5,0,0.9,0.1,1.4,0.2v4.5 c-0.5-0.1-1-0.2-1.6-0.2c-3.4,0-5.8,2.6-6.5,6.2c-0.1,0.7-0.2,1.4-0.2,2.2V51h-4.8V32.8z"/><path fill="#FFFFFF" d="M173.5,12.3h4.8V51h-4.8V12.3z"/><path fill="#FFFFFF" d="M206.5,12.3v31.9c0,2.3,0.1,5,0.2,6.8h-4.3l-0.2-4.6H202c-1.5,2.9-4.7,5.2-9,5.2 c-6.4,0-11.3-5.4-11.3-13.4c-0.1-8.8,5.4-14.2,11.9-14.2c4,0,6.8,1.9,8,4h0.1V12.3H206.5z M201.7,35.4c0-0.6-0.1-1.4-0.2-2 c-0.7-3.1-3.3-5.6-6.9-5.6c-5,0-7.9,4.4-7.9,10.2c0,5.3,2.6,9.8,7.8,9.8c3.2,0,6.2-2.1,7.1-5.7c0.2-0.7,0.2-1.3,0.2-2.1V35.4z"/><path fill="#FFFFFF" d="M42.8,64c0.1,1.6-1.1,2.9-3.1,2.9c-1.7,0-2.9-1.3-2.9-2.9c0-1.7,1.3-3,3-3C41.7,61,42.8,62.3,42.8,64z M37.4,97.8V71.4h4.8v26.4H37.4z"/><path fill="#FFFFFF" d="M47.5,78.6c0-2.7-0.1-5-0.2-7.1h4.3l0.3,4.4h0.1c1.3-2.5,4.4-5,8.8-5c3.7,0,9.4,2.2,9.4,11.2v15.8h-4.8 V82.6c0-4.3-1.6-7.8-6.1-7.8c-3.2,0-5.6,2.2-6.5,4.9c-0.2,0.6-0.3,1.4-0.3,2.2v15.9h-4.8V78.6z"/><path fill="#FFFFFF" d="M84,61.6c2.9-0.4,6.3-0.8,10.1-0.8c6.8,0,11.7,1.6,14.9,4.6c3.3,3,5.2,7.3,5.2,13.2c0,6-1.9,10.9-5.3,14.3 c-3.4,3.4-9.1,5.3-16.3,5.3c-3.4,0-6.2-0.2-8.6-0.4V61.6z M88.8,94.1c1.2,0.2,3,0.3,4.8,0.3c10.2,0,15.7-5.7,15.7-15.6 c0.1-8.7-4.9-14.2-14.9-14.2c-2.5,0-4.3,0.2-5.6,0.5V94.1z"/><path fill="#FFFFFF" d="M132.1,97.8l-0.4-3.3h-0.2c-1.5,2.1-4.3,3.9-8.1,3.9c-5.4,0-8.1-3.8-8.1-7.6c0-6.4,5.7-9.9,15.9-9.8v-0.5 c0-2.2-0.6-6.1-6-6.1c-2.5,0-5,0.8-6.9,2l-1.1-3.2c2.2-1.4,5.4-2.3,8.7-2.3c8.1,0,10.1,5.5,10.1,10.8v9.9c0,2.3,0.1,4.5,0.4,6.3 H132.1z M131.4,84.4c-5.3-0.1-11.2,0.8-11.2,5.9c0,3.1,2.1,4.6,4.5,4.6c3.4,0,5.6-2.2,6.4-4.4c0.2-0.5,0.3-1,0.3-1.5V84.4z"/><path fill="#FFFFFF" d="M146.6,63.9v7.6h6.9v3.7h-6.9v14.2c0,3.3,0.9,5.1,3.6,5.1c1.3,0,2.2-0.2,2.8-0.3l0.2,3.6 c-0.9,0.4-2.4,0.7-4.3,0.7c-2.2,0-4-0.7-5.2-2c-1.4-1.4-1.9-3.8-1.9-6.9V75.1h-4.1v-3.7h4.1v-6.3L146.6,63.9z"/><path fill="#FFFFFF" d="M171.4,97.8l-0.4-3.3h-0.2c-1.5,2.1-4.3,3.9-8.1,3.9c-5.4,0-8.1-3.8-8.1-7.6c0-6.4,5.7-9.9,15.9-9.8v-0.5 c0-2.2-0.6-6.1-6-6.1c-2.5,0-5,0.8-6.9,2l-1.1-3.2c2.2-1.4,5.4-2.3,8.7-2.3c8.1,0,10.1,5.5,10.1,10.8v9.9c0,2.3,0.1,4.5,0.4,6.3 H171.4z M170.7,84.4c-5.3-0.1-11.2,0.8-11.2,5.9c0,3.1,2.1,4.6,4.5,4.6c3.4,0,5.6-2.2,6.4-4.4c0.2-0.5,0.3-1,0.3-1.5V84.4z"/></g></g></a></g><a href="https://ourworldindata.org/grapher/fish-consumption-vs-gdp-per-capita" target="_blank"><text font-size="24.00" x="15.0" y="34.2" fill="#555"><tspan x="15" y="34.2">Fish and seafood consumption vs. GDP per capita, 2013</tspan></text></a><text font-size="12.80" x="15.0" y="51.2" fill="#666"><tspan x="15" y="51.239999999999995">Annual average per capita consumption of fish and seafood products, measured in kilograms per person, versus gross domestic</tspan><tspan x="15" y="65.32">product (GDP) per capita, measured in 2011 international-$. International dollars correct for price differences across countries.</tspan></text></g><g><g class="AxisBoxView"><g class="HorizontalAxis"><text font-size="11.20" x="326.6" y="555.7"><tspan x="326.584" y="555.66">GDP per capita</tspan></text><text x="145.6" y="536.6999999999999" fill="#666" text-anchor="middle" font-size="14.4">$1,000</text><text x="436.3" y="536.6999999999999" fill="#666" text-anchor="middle" font-size="14.4">$10,000</text></g><g class="VerticalAxis"><text font-size="11.20" x="-403.5" y="24.0" transform="rotate(-90)"><tspan x="-403.496" y="23.96">Seafood consumption per capita</tspan></text><text x="75.66" y="497.9" fill="#666" dominant-baseline="middle" text-anchor="end" font-size="14.4">0.1 kg</text><text x="75.66" y="372.3" fill="#666" dominant-baseline="middle" text-anchor="end" font-size="14.4">1 kg</text><text x="75.66" y="246.8" fill="#666" dominant-baseline="middle" text-anchor="end" font-size="14.4">10 kg</text><text x="75.66" y="121.2" fill="#666" dominant-baseline="middle" text-anchor="end" font-size="14.4">100 kg</text></g><g class="AxisGridLines"><line x1="80.66" y1="497.9" x2="715.00" y2="497.9" stroke="#ddd" stroke-dasharray="3,2"></line><line x1="80.66" y1="372.3" x2="715.00" y2="372.3" stroke="#ddd" stroke-dasharray="3,2"></line><line x1="80.66" y1="246.8" x2="715.00" y2="246.8" stroke="#ddd" stroke-dasharray="3,2"></line><line x1="80.66" y1="121.2" x2="715.00" y2="121.2" stroke="#ddd" stroke-dasharray="3,2"></line></g><g class="AxisGridLines"><line x1="145.6" y1="517.30" x2="145.6" y2="87.70" stroke="#ddd" stroke-dasharray="3,2"></line><line x1="436.3" y1="517.30" x2="436.3" y2="87.70" stroke="#ddd" stroke-dasharray="3,2"></line></g></g><g clip-path="url(#scatterBounds-27)" class="PointsWithLabels clickable"><rect x="80.656" y="87.7" width="634.344" height="429.5999999999999" fill="rgba(255,255,255,0)"></rect><defs><clipPath id="scatterBounds-27"><rect x="70.656" y="77.7" width="654.344" height="449.5999999999999"></rect></clipPath></defs><circle cx="458" cy="179" r="17.841241161527712" fill="#d14e5b" opacity="0.8"></circle><circle cx="350" cy="284" r="17.28533722075075" fill="#d14e5b" opacity="0.8"></circle><circle cx="642" cy="205" r="8.775369085839275" fill="#4d824b" opacity="0.8"></circle><circle cx="431" cy="190" r="7.776605472807036" fill="#d14e5b" opacity="0.8"></circle><circle cx="491" cy="242" r="7.039017227686099" fill="#69c487" opacity="0.8"></circle><circle cx="334" cy="336" r="6.755647033557481" fill="#d14e5b" opacity="0.8"></circle><circle cx="360" cy="220" r="6.541417030976421" fill="#5675c1" opacity="0.8"></circle><circle cx="277" cy="211" r="6.242057810513045" fill="#d14e5b" opacity="0.8"></circle><circle cx="552" cy="201" r="6.018254103377414" fill="#ffd336" opacity="0.8"></circle><circle cx="602" cy="160" r="5.697441360469396" fill="#d14e5b" opacity="0.8"></circle><circle cx="498" cy="244" r="5.514095809425572" fill="#4d824b" opacity="0.8"></circle><circle cx="378" cy="184" r="5.09075343012278" fill="#d14e5b" opacity="0.8"></circle><circle cx="351" cy="182" r="4.918049327182841" fill="#d14e5b" opacity="0.8"></circle><circle cx="181" cy="447" r="4.863534130705879" fill="#5675c1" opacity="0.8"></circle><circle cx="433" cy="203" r="4.792034705919971" fill="#5675c1" opacity="0.8"></circle><circle cx="620" cy="234" r="4.704784263260352" fill="#ffd336" opacity="0.8"></circle><circle cx="495" cy="246" r="4.5698764264875384" fill="#d14e5b" opacity="0.8"></circle><circle cx="533" cy="274" r="4.543216860014063" fill="#d14e5b" opacity="0.8"></circle><circle cx="485" cy="197" r="4.410764441382675" fill="#d14e5b" opacity="0.8"></circle><circle cx="602" cy="180" r="4.237589524299243" fill="#ffd336" opacity="0.8"></circle><circle cx="601" cy="206" r="4.220992778615163" fill="#ffd336" opacity="0.8"></circle><circle cx="591" cy="196" r="4.163202782928306" fill="#ffd336" opacity="0.8"></circle><circle cx="463" cy="272" r="3.8716058478806685" fill="#5675c1" opacity="0.8"></circle><circle cx="251" cy="278" r="3.8164818211408313" fill="#5675c1" opacity="0.8"></circle><circle cx="334" cy="154" r="3.815468600765681" fill="#d14e5b" opacity="0.8"></circle><circle cx="585" cy="156" r="3.804976755252183" fill="#d14e5b" opacity="0.8"></circle><circle cx="462" cy="272" r="3.786362160126391" fill="#69c487" opacity="0.8"></circle><circle cx="577" cy="168" r="3.7518374337124456" fill="#ffd336" opacity="0.8"></circle><circle cx="413" cy="217" r="3.6786476270924964" fill="#ffd336" opacity="0.8"></circle><circle cx="270" cy="293" r="3.6542085852618786" fill="#5675c1" opacity="0.8"></circle><circle cx="520" cy="265" r="3.5756570412563913" fill="#69c487" opacity="0.8"></circle><circle cx="544" cy="243" r="3.472301667792069" fill="#ffd336" opacity="0.8"></circle><circle cx="471" cy="297" r="3.427010806253382" fill="#5675c1" opacity="0.8"></circle><circle cx="207" cy="234" r="3.4194038886602023" fill="#5675c1" opacity="0.8"></circle><circle cx="326" cy="375" r="3.3915486550257583" fill="#5675c1" opacity="0.8"></circle><circle cx="618" cy="202" r="3.359021395606871" fill="#4d824b" opacity="0.8"></circle><circle cx="488" cy="307" r="3.351505998154137" fill="#d14e5b" opacity="0.8"></circle><circle cx="220" cy="517" r="3.341936677488004" fill="#d14e5b" opacity="0.8"></circle><circle cx="391" cy="214" r="3.2868769215835507" fill="#5675c1" opacity="0.8"></circle><circle cx="243" cy="330" r="3.2374849203296456" fill="#d14e5b" opacity="0.8"></circle><circle cx="508" cy="249" r="3.19441771552788" fill="#69c487" opacity="0.8"></circle><circle cx="453" cy="203" r="3.184770853846845" fill="#69c487" opacity="0.8"></circle><circle cx="542" cy="150" r="3.174272068002505" fill="#d14e5b" opacity="0.8"></circle><circle cx="638" cy="230" r="3.157143311765266" fill="#d14e5b" opacity="0.8"></circle><circle cx="350" cy="388" r="3.12313676254432" fill="#d14e5b" opacity="0.8"></circle><circle cx="314" cy="194" r="3.037839957077792" fill="#5675c1" opacity="0.8"></circle><circle cx="149" cy="258" r="2.9954565968321485" fill="#5675c1" opacity="0.8"></circle><circle cx="620" cy="194" r="2.9244040543473755" fill="#a652ba" opacity="0.8"></circle><circle cx="184" cy="289" r="2.89816980312703" fill="#5675c1" opacity="0.8"></circle><circle cx="439" cy="195" r="2.8513499848496826" fill="#d14e5b" opacity="0.8"></circle><circle cx="517" cy="272" r="2.8491107500958335" fill="#ffd336" opacity="0.8"></circle><circle cx="279" cy="222" r="2.8376350674539803" fill="#5675c1" opacity="0.8"></circle><circle cx="276" cy="223" r="2.8317581561004403" fill="#5675c1" opacity="0.8"></circle><circle cx="375" cy="223" r="2.823596485049417" fill="#5675c1" opacity="0.8"></circle><circle cx="198" cy="268" r="2.7103633733065275" fill="#5675c1" opacity="0.8"></circle><circle cx="535" cy="234" r="2.691607494372699" fill="#69c487" opacity="0.8"></circle><circle cx="128" cy="318" r="2.677157544245862" fill="#5675c1" opacity="0.8"></circle><circle cx="219" cy="260" r="2.6584054154708157" fill="#5675c1" opacity="0.8"></circle><circle cx="626" cy="203" r="2.656368821082741" fill="#ffd336" opacity="0.8"></circle><circle cx="541" cy="281" r="2.647164088921716" fill="#d14e5b" opacity="0.8"></circle><circle cx="153" cy="263" r="2.640849779424666" fill="#5675c1" opacity="0.8"></circle><circle cx="391" cy="358" r="2.601962381133669" fill="#4d824b" opacity="0.8"></circle><circle cx="444" cy="257" r="2.58111456040078" fill="#69c487" opacity="0.8"></circle><circle cx="282" cy="169" r="2.5628448181434966" fill="#d14e5b" opacity="0.8"></circle><circle cx="306" cy="272" r="2.547352378594434" fill="#5675c1" opacity="0.8"></circle><circle cx="244" cy="199" r="2.5078989476335667" fill="#5675c1" opacity="0.8"></circle><circle cx="226" cy="315" r="2.502056187251561" fill="#5675c1" opacity="0.8"></circle><circle cx="233" cy="287" r="2.4464926014584956" fill="#5675c1" opacity="0.8"></circle><circle cx="200" cy="298" r="2.4210866423311246" fill="#5675c1" opacity="0.8"></circle><circle cx="545" cy="210" r="2.4132822091425794" fill="#ffd336" opacity="0.8"></circle><circle cx="613" cy="196" r="2.382825672783465" fill="#ffd336" opacity="0.8"></circle><circle cx="443" cy="229" r="2.38273232012166" fill="#5675c1" opacity="0.8"></circle><circle cx="172" cy="251" r="2.379811682070823" fill="#5675c1" opacity="0.8"></circle><circle cx="555" cy="155" r="2.377416714354336" fill="#ffd336" opacity="0.8"></circle><circle cx="568" cy="255" r="2.3718164126513392" fill="#ffd336" opacity="0.8"></circle><circle cx="373" cy="329" r="2.3630009863258787" fill="#69c487" opacity="0.8"></circle><circle cx="207" cy="286" r="2.361954096057274" fill="#4d824b" opacity="0.8"></circle><circle cx="458" cy="258" r="2.358033888019193" fill="#4d824b" opacity="0.8"></circle><circle cx="541" cy="283" r="2.339536603008787" fill="#ffd336" opacity="0.8"></circle><circle cx="472" cy="276" r="2.33463710431836" fill="#ffd336" opacity="0.8"></circle><circle cx="228" cy="231" r="2.3232656592291105" fill="#5675c1" opacity="0.8"></circle><circle cx="621" cy="183" r="2.3202346490312116" fill="#ffd336" opacity="0.8"></circle><circle cx="500" cy="331" r="2.3196161885568727" fill="#d14e5b" opacity="0.8"></circle><circle cx="508" cy="219" r="2.31785878697481" fill="#ffd336" opacity="0.8"></circle><circle cx="623" cy="228" r="2.2643809586602055" fill="#ffd336" opacity="0.8"></circle><circle cx="667" cy="201" r="2.252405463310645" fill="#d14e5b" opacity="0.8"></circle><circle cx="326" cy="297" r="2.245374108712917" fill="#4d824b" opacity="0.8"></circle><circle cx="580" cy="200" r="2.2322927262593777" fill="#d14e5b" opacity="0.8"></circle><circle cx="654" cy="215" r="2.2293289032193138" fill="#ffd336" opacity="0.8"></circle><circle cx="495" cy="266" r="2.207784254871302" fill="#ffd336" opacity="0.8"></circle><circle cx="258" cy="410" r="2.1990551234212634" fill="#d14e5b" opacity="0.8"></circle><circle cx="411" cy="301" r="2.1786513746431053" fill="#69c487" opacity="0.8"></circle><circle cx="419" cy="281" r="2.166629493351989" fill="#d14e5b" opacity="0.8"></circle><circle cx="344" cy="209" r="2.160522355437447" fill="#d14e5b" opacity="0.8"></circle><circle cx="176" cy="238" r="2.1580341513935277" fill="#5675c1" opacity="0.8"></circle><circle cx="402" cy="268" r="2.152126420524326" fill="#4d824b" opacity="0.8"></circle><circle cx="209" cy="182" r="2.1495633045714055" fill="#5675c1" opacity="0.8"></circle><circle cx="338" cy="287" r="2.1380248713644376" fill="#4d824b" opacity="0.8"></circle><circle cx="624" cy="201" r="2.1145521675462247" fill="#ffd336" opacity="0.8"></circle><circle cx="289" cy="326" r="2.1086272237860184" fill="#d14e5b" opacity="0.8"></circle><circle cx="559" cy="254" r="2.107831199643024" fill="#ffd336" opacity="0.8"></circle><circle cx="609" cy="176" r="2.103977575724509" fill="#ffd336" opacity="0.8"></circle><circle cx="471" cy="300" r="2.0938091631020757" fill="#d14e5b" opacity="0.8"></circle><circle cx="668" cy="156" r="2.080333007410666" fill="#ffd336" opacity="0.8"></circle><circle cx="479" cy="232" r="2.072962826656889" fill="#4d824b" opacity="0.8"></circle><circle cx="80" cy="260" r="2.062135633542912" fill="#5675c1" opacity="0.8"></circle><circle cx="626" cy="203" r="2.060142453980726" fill="#ffd336" opacity="0.8"></circle><circle cx="590" cy="197" r="2.053197494547675" fill="#a652ba" opacity="0.8"></circle><circle cx="524" cy="211" r="2.045881401515137" fill="#ffd336" opacity="0.8"></circle><circle cx="120" cy="294" r="2.0441772366445607" fill="#5675c1" opacity="0.8"></circle><circle cx="356" cy="193" r="2.0427851793789493" fill="#5675c1" opacity="0.8"></circle><circle cx="479" cy="243" r="2.0427772920775937" fill="#d14e5b" opacity="0.8"></circle><circle cx="412" cy="243" r="2.0401853167157387" fill="#d14e5b" opacity="0.8"></circle><circle cx="439" cy="293" r="2.0091248336419" fill="#ffd336" opacity="0.8"></circle><circle cx="306" cy="252" r="2.0073086220122636" fill="#5675c1" opacity="0.8"></circle><circle cx="517" cy="232" r="2.0057979976482354" fill="#4d824b" opacity="0.8"></circle><circle cx="336" cy="232" r="1.995217339197334" fill="#ffd336" opacity="0.8"></circle><circle cx="519" cy="262" r="1.9898338843247279" fill="#69c487" opacity="0.8"></circle><circle cx="552" cy="166" r="1.9825517435670807" fill="#ffd336" opacity="0.8"></circle><circle cx="442" cy="286" r="1.9802104524644883" fill="#ffd336" opacity="0.8"></circle><circle cx="403" cy="291" r="1.9731387168369188" fill="#d14e5b" opacity="0.8"></circle><circle cx="689" cy="229" r="1.9637931925889693" fill="#d14e5b" opacity="0.8"></circle><circle cx="617" cy="202" r="1.9636939091723837" fill="#d14e5b" opacity="0.8"></circle><circle cx="445" cy="393" r="1.9595889090685346" fill="#d14e5b" opacity="0.8"></circle><circle cx="408" cy="199" r="1.9526746014181582" fill="#4d824b" opacity="0.8"></circle><circle cx="426" cy="239" r="1.9307838785851346" fill="#5675c1" opacity="0.8"></circle><circle cx="268" cy="381" r="1.920891786944614" fill="#5675c1" opacity="0.8"></circle><circle cx="533" cy="199" r="1.9200548776152342" fill="#ffd336" opacity="0.8"></circle><circle cx="492" cy="296" r="1.910878185571475" fill="#5675c1" opacity="0.8"></circle><circle cx="458" cy="279" r="1.9105507754376618" fill="#ffd336" opacity="0.8"></circle><circle cx="564" cy="244" r="1.9090666255123776" fill="#ffd336" opacity="0.8"></circle><circle cx="204" cy="198" r="1.898691795616334" fill="#5675c1" opacity="0.8"></circle><circle cx="187" cy="354" r="1.8826629691111705" fill="#5675c1" opacity="0.8"></circle><circle cx="499" cy="177" r="1.881510781531607" fill="#5675c1" opacity="0.8"></circle><circle cx="582" cy="199" r="1.8667371910066393" fill="#4d824b" opacity="0.8"></circle><circle cx="557" cy="225" r="1.86571173108838" fill="#ffd336" opacity="0.8"></circle><circle cx="507" cy="200" r="1.8645901607177178" fill="#5675c1" opacity="0.8"></circle><circle cx="406" cy="358" r="1.859384645442685" fill="#5675c1" opacity="0.8"></circle><circle cx="574" cy="204" r="1.8534083000549018" fill="#ffd336" opacity="0.8"></circle><circle cx="279" cy="300" r="1.8407717913961588" fill="#5675c1" opacity="0.8"></circle><circle cx="407" cy="176" r="1.8371646576238398" fill="#a652ba" opacity="0.8"></circle><circle cx="385" cy="187" r="1.829349565527939" fill="#69c487" opacity="0.8"></circle><circle cx="483" cy="235" r="1.821342227059796" fill="#ffd336" opacity="0.8"></circle><circle cx="235" cy="180" r="1.8180058569457658" fill="#a652ba" opacity="0.8"></circle><circle cx="491" cy="219" r="1.815331822327706" fill="#69c487" opacity="0.8"></circle><circle cx="715" cy="180" r="1.8147657434638638" fill="#ffd336" opacity="0.8"></circle><circle cx="575" cy="182" r="1.8077606595553515" fill="#ffd336" opacity="0.8"></circle><circle cx="697" cy="162" r="1.807710324532958" fill="#d14e5b" opacity="0.8"></circle><circle cx="539" cy="191" r="1.803567210797921" fill="#4d824b" opacity="0.8"></circle><circle cx="614" cy="125" r="1.8020731676528525" fill="#ffd336" opacity="0.8"></circle><circle cx="406" cy="229" r="1.801991154569221" fill="#4d824b" opacity="0.8"></circle><circle cx="453" cy="87" r="1.8018515629339464" fill="#d14e5b" opacity="0.8"></circle><circle cx="490" cy="171" r="1.798412392287575" fill="#4d824b" opacity="0.8"></circle><circle cx="279" cy="183" r="1.7972951313040517" fill="#a652ba" opacity="0.8"></circle><circle cx="360" cy="165" r="1.7926400874044486" fill="#a652ba" opacity="0.8"></circle><circle cx="442" cy="200" r="1.792238368285699" fill="#4d824b" opacity="0.8"></circle><circle cx="275" cy="195" r="1.7919711092366146" fill="#5675c1" opacity="0.8"></circle><circle cx="438" cy="213" r="1.7876949122761763" fill="#4d824b" opacity="0.8"></circle><circle cx="451" cy="189" r="1.7874592038342243" fill="#4d824b" opacity="0.8"></circle><circle cx="222" cy="138" r="1.7873640038280059" fill="#a652ba" opacity="0.8"></circle><circle cx="516" cy="155" r="1.786530657614923" fill="#4d824b" opacity="0.8"></circle><circle cx="436" cy="207" r="1.7849921591945317" fill="#4d824b" opacity="0.8"></circle><circle cx="641" cy="164" r="1.7848384442334466" fill="#4d824b" opacity="0.8"></circle><circle cx="538" cy="175" r="1.7841241161527712" fill="#4d824b" opacity="0.8"></circle><circle cx="316" cy="323" r="1.7805903614714957" fill="#d14e5b" opacity="0.8"></circle><circle cx="479" cy="211" r="1.7805903614714957" fill="#000" opacity="0.8"></circle><circle cx="592" cy="202" r="1.7805903614714957" fill="#000" opacity="0.8"></circle><text x="458" y="160.1587588384723" font-size="14.3" font-family="Arial Narrow, Arial, sans-serif" fill="#666">China</text><text x="350" y="265.71466277924924" font-size="14.095513699110136" font-family="Arial Narrow, Arial, sans-serif" fill="#666">India</text><text x="642" y="195.2246309141607" font-size="11.773083159264912" font-family="Arial Narrow, Arial, sans-serif" fill="#666">United States</text><text x="431" y="181.22339452719297" font-size="11.599965592280036" font-family="Arial Narrow, Arial, sans-serif" fill="#666">Indonesia</text><text x="491" y="233.9609827723139" font-size="11.48552963304291" font-family="Arial Narrow, Arial, sans-serif" fill="#666">Brazil</text><text x="334" y="328.24435296644253" font-size="11.444594715432562" font-family="Arial Narrow, Arial, sans-serif" fill="#666">Pakistan</text><text x="360" y="212.45858296902358" font-size="11.414763931108753" font-family="Arial Narrow, Arial, sans-serif" fill="#666">Nigeria</text><text x="277" y="203.75794218948695" font-size="11.37468924048529" font-family="Arial Narrow, Arial, sans-serif" fill="#666">Bangladesh</text><text x="552" y="193.98174589662258" font-size="11.34595515277112" font-family="Arial Narrow, Arial, sans-serif" fill="#666">Russia</text><text x="602" y="153.30255863953062" font-size="11.306595767886861" font-family="Arial Narrow, Arial, sans-serif" fill="#666">Japan</text><text x="351" y="176.08195067281716" font-size="11.219954528950636" font-family="Arial Narrow, Arial, sans-serif" fill="#666">Vietnam</text><text x="181" y="441.1364658692941" font-size="11.214370400954532" font-family="Arial Narrow, Arial, sans-serif" fill="#666">Ethiopia</text><text x="433" y="197.20796529408003" font-size="11.20714088816668" font-family="Arial Narrow, Arial, sans-serif" fill="#666">Egypt</text><text x="620" y="228.29521573673964" font-size="11.198463791885304" font-family="Arial Narrow, Arial, sans-serif" fill="#666">Germany</text><text x="533" y="268.456783139986" font-size="11.182816822359058" font-family="Arial Narrow, Arial, sans-serif" fill="#666">Turkey</text><text x="485" y="191.58923555861733" font-size="11.170397305705347" font-family="Arial Narrow, Arial, sans-serif" fill="#666">Thailand</text><text x="602" y="174.76241047570076" font-size="11.154713658564392" font-family="Arial Narrow, Arial, sans-serif" fill="#666">France</text><text x="591" y="190.8367972170717" font-size="11.14816964184994" font-family="Arial Narrow, Arial, sans-serif" fill="#666">Italy</text><text x="463" y="267.1283941521193" font-size="11.123634582649952" font-family="Arial Narrow, Arial, sans-serif" fill="#666">South Africa</text><text x="251" y="273.1835181788592" font-size="11.119196576704171" font-family="Arial Narrow, Arial, sans-serif" fill="#666">Tanzania</text><text x="334" y="149.18453139923432" font-size="11.119115598512737" font-family="Arial Narrow, Arial, sans-serif" fill="#666">Myanmar</text><text x="413" y="212.3213523729075" font-size="11.1083781345547" font-family="Arial Narrow, Arial, sans-serif" fill="#666">Ukraine</text><text x="270" y="288.34579141473813" font-size="11.10650147297961" font-family="Arial Narrow, Arial, sans-serif" fill="#666">Kenya</text><text x="544" y="238.52769833220793" font-size="11.092926006966579" font-family="Arial Narrow, Arial, sans-serif" fill="#666">Poland</text><text x="471" y="292.5729891937466" font-size="11.089653767978335" font-family="Arial Narrow, Arial, sans-serif" fill="#666">Algeria</text><text x="207" y="229.5805961113398" font-size="11.089108386316695" font-family="Arial Narrow, Arial, sans-serif" fill="#666">Uganda</text><text x="326" y="370.60845134497424" font-size="11.087121636060502" font-family="Arial Narrow, Arial, sans-serif" fill="#666">Sudan</text><text x="220" y="512.658063322512" font-size="11.083623351971449" font-family="Arial Narrow, Arial, sans-serif" fill="#666">Afghanistan</text><text x="243" y="325.7625150796704" font-size="11.076426673757263" font-family="Arial Narrow, Arial, sans-serif" fill="#666">Nepal</text><text x="542" y="145.8257279319975" font-size="11.072182325034492" font-family="Arial Narrow, Arial, sans-serif" fill="#666">Malaysia</text><text x="350" y="383.87686323745567" font-size="11.06881014027448" font-family="Arial Narrow, Arial, sans-serif" fill="#666">Uzbekistan</text><text x="314" y="189.96216004292222" font-size="11.0633069953252" font-family="Arial Narrow, Arial, sans-serif" fill="#666">Ghana</text><text x="149" y="254.00454340316784" font-size="11.060629192001956" font-family="Arial Narrow, Arial, sans-serif" fill="#666">Mozambique</text><text x="184" y="285.101830196873" font-size="11.054624854293799" font-family="Arial Narrow, Arial, sans-serif" fill="#666">Madagascar</text><text x="279" y="218.162364932546" font-size="11.050988822795524" font-family="Arial Narrow, Arial, sans-serif" fill="#666">Cote d'Ivoire</text><text x="128" y="314.32284245575414" font-size="11.041721121751717" font-family="Arial Narrow, Arial, sans-serif" fill="#666">Niger</text><text x="219" y="256.34159458452916" font-size="11.040673367471472" font-family="Arial Narrow, Arial, sans-serif" fill="#666">Mali</text><text x="391" y="354.39803761886634" font-size="11.037564121491823" font-family="Arial Narrow, Arial, sans-serif" fill="#666">Guatemala</text><text x="444" y="253.41888543959922" font-size="11.036432563183268" font-family="Arial Narrow, Arial, sans-serif" fill="#666">Ecuador</text><text x="282" y="165.4371551818565" font-size="11.03544841936507" font-family="Arial Narrow, Arial, sans-serif" fill="#666">Cambodia</text><text x="306" y="268.45264762140556" font-size="11.034619359125447" font-family="Arial Narrow, Arial, sans-serif" fill="#666">Zambia</text><text x="226" y="311.4979438127484" font-size="11.032224219603714" font-family="Arial Narrow, Arial, sans-serif" fill="#666">Zimbabwe</text><text x="545" y="206.5867177908574" font-size="11.027654729701581" font-family="Arial Narrow, Arial, sans-serif" fill="#666">Greece</text><text x="443" y="225.61726767987835" font-size="11.026120399813514" font-family="Arial Narrow, Arial, sans-serif" fill="#666">Tunisia</text><text x="568" y="251.62818358734867" font-size="11.025576902043127" font-family="Arial Narrow, Arial, sans-serif" fill="#666">Czech Republic</text><text x="541" y="279.6604633969912" font-size="11.023984307477209" font-family="Arial Narrow, Arial, sans-serif" fill="#666">Hungary</text><text x="500" y="327.6803838114431" font-size="11.023012379819798" font-family="Arial Narrow, Arial, sans-serif" fill="#666">Azerbaijan</text><text x="326" y="293.7546258912871" font-size="11.019463276793184" font-family="Arial Narrow, Arial, sans-serif" fill="#666">Honduras</text><text x="654" y="211.7706710967807" font-size="11.018711414824017" font-family="Arial Narrow, Arial, sans-serif" fill="#666">Switzerland</text><text x="258" y="406.80094487657874" font-size="11.01730750070654" font-family="Arial Narrow, Arial, sans-serif" fill="#666">Tajikistan</text><text x="411" y="297.8213486253569" font-size="11.016372126851397" font-family="Arial Narrow, Arial, sans-serif" fill="#666">Paraguay</text><text x="419" y="277.833370506648" font-size="11.015825087074134" font-family="Arial Narrow, Arial, sans-serif" fill="#666">Jordan</text><text x="176" y="234.84196584860646" font-size="11.015435823189103" font-family="Arial Narrow, Arial, sans-serif" fill="#666">Togo</text><text x="402" y="264.8478735794757" font-size="11.01516917246322" font-family="Arial Narrow, Arial, sans-serif" fill="#666">El Salvador</text><text x="209" y="178.85043669542858" font-size="11.015053711293278" font-family="Arial Narrow, Arial, sans-serif" fill="#666">Sierra Leone</text><text x="668" y="152.91966699258933" font-size="11.011987129623988" font-family="Arial Narrow, Arial, sans-serif" fill="#666">Norway</text><text x="120" y="290.95582276335546" font-size="11.010425497878956" font-family="Arial Narrow, Arial, sans-serif" fill="#666">Liberia</text><text x="356" y="189.95721482062106" font-size="11.01036591981816" font-family="Arial Narrow, Arial, sans-serif" fill="#666">Congo</text><text x="412" y="239.95981468328426" font-size="11.010254758095902" font-family="Arial Narrow, Arial, sans-serif" fill="#666">Georgia</text><text x="306" y="248.99269137798774" font-size="11.008861270928067" font-family="Arial Narrow, Arial, sans-serif" fill="#666">Mauritania</text><text x="552" y="163.0174482564329" font-size="11.007826885963693" font-family="Arial Narrow, Arial, sans-serif" fill="#666">Lithuania</text><text x="445" y="390.04041109093146" font-size="11.006878934221218" font-family="Arial Narrow, Arial, sans-serif" fill="#666">Mongolia</text><text x="268" y="378.0791082130554" font-size="11.00530642640299" font-family="Arial Narrow, Arial, sans-serif" fill="#666">Lesotho</text><text x="204" y="195.10130820438366" font-size="11.004418458146363" font-family="Arial Narrow, Arial, sans-serif" fill="#666">Gambia</text><text x="187" y="351.11733703088885" font-size="11.003783744595102" font-family="Arial Narrow, Arial, sans-serif" fill="#666">Guinea-Bissau</text><text x="499" y="174.1184892184684" font-size="11.003738327278718" font-family="Arial Narrow, Arial, sans-serif" fill="#666">Gabon</text><text x="557" y="222.13428826891163" font-size="11.003118359546344" font-family="Arial Narrow, Arial, sans-serif" fill="#666">Estonia</text><text x="407" y="173.16283534237616" font-size="11.002011405925705" font-family="Arial Narrow, Arial, sans-serif" fill="#666">Fiji</text><text x="491" y="216.1846681776723" font-size="11.001176325002705" font-family="Arial Narrow, Arial, sans-serif" fill="#666">Suriname</text><text x="653.6135561829942" y="177.18523425653615" font-size="11.00115480591502" font-family="Arial Narrow, Arial, sans-serif" fill="#666">Luxembourg</text><text x="575" y="179.19223934044464" font-size="11.000889068002422" font-family="Arial Narrow, Arial, sans-serif" fill="#666">Malta</text><text x="614" y="122.19792683234715" font-size="11.000674068913455" font-family="Arial Narrow, Arial, sans-serif" fill="#666">Iceland</text><text x="406" y="226.1980088454308" font-size="11.000670973602443" font-family="Arial Narrow, Arial, sans-serif" fill="#666">Belize</text><text x="453" y="98.70066570550449" font-size="11.000665705504488" font-family="Arial Narrow, Arial, sans-serif" fill="#666">Maldives</text><text x="360" y="162.20735991259556" font-size="11.000318972406594" font-family="Arial Narrow, Arial, sans-serif" fill="#666">Samoa</text><text x="222" y="135.212635996172" font-size="11.000121173536067" font-family="Arial Narrow, Arial, sans-serif" fill="#666">Kiribati</text></g><g style="cursor: pointer;" class="ScatterColorLegend clickable"><g class="legendMark"><rect x="735" y="85.2" width="39.005333333333326" height="16.2" fill="#fff" opacity="0"></rect>,<rect x="735" y="90.36666666666667" width="5.333333333333333" height="5.333333333333333" fill="#5675c1"></rect>,<text font-size="11.20" x="745.3" y="96.7"><tspan x="745.3333333333334" y="96.66000000000001">Africa</tspan></text></g><g class="legendMark"><rect x="735" y="101.4" width="32.17333333333333" height="16.2" fill="#fff" opacity="0"></rect>,<rect x="735" y="106.56666666666668" width="5.333333333333333" height="5.333333333333333" fill="#d14e5b"></rect>,<text font-size="11.20" x="745.3" y="112.9"><tspan x="745.3333333333334" y="112.86000000000001">Asia</tspan></text></g><g class="legendMark"><rect x="735" y="117.6" width="46.621333333333325" height="16.2" fill="#fff" opacity="0"></rect>,<rect x="735" y="122.76666666666667" width="5.333333333333333" height="5.333333333333333" fill="#ffd336"></rect>,<text font-size="11.20" x="745.3" y="129.1"><tspan x="745.3333333333334" y="129.05999999999997">Europe</tspan></text></g><g class="legendMark"><rect x="735" y="133.8" width="82.01333333333332" height="16.2" fill="#fff" opacity="0"></rect>,<rect x="735" y="138.96666666666667" width="5.333333333333333" height="5.333333333333333" fill="#4d824b"></rect>,<text font-size="11.20" x="745.3" y="145.3"><tspan x="745.3333333333334" y="145.26">North America</tspan></text></g><g class="legendMark"><rect x="735" y="150" width="52.221333333333334" height="16.2" fill="#fff" opacity="0"></rect>,<rect x="735" y="155.16666666666666" width="5.333333333333333" height="5.333333333333333" fill="#a652ba"></rect>,<text font-size="11.20" x="745.3" y="161.5"><tspan x="745.3333333333334" y="161.45999999999998">Oceania</tspan></text></g><g class="legendMark"><rect x="735" y="166.2" width="84.02933333333333" height="16.2" fill="#fff" opacity="0"></rect>,<rect x="735" y="171.36666666666665" width="5.333333333333333" height="5.333333333333333" fill="#69c487"></rect>,<text font-size="11.20" x="745.3" y="177.7"><tspan x="745.3333333333334" y="177.65999999999997">South America</tspan></text></g></g></g><g style="fill: #777;" class="SourcesFooter"><g style="fill: #777;" class="clickable"><text font-size="11.20" x="15.0" y="581.9"><tspan x="15" y="581.86">Source: UN FAO; World Bank, World Development Indicators</tspan></text></g><text font-size="11.20" x="448.5" y="581.9"><tspan x="448.48800000000006" y="581.86"><a target='_blank' style='fill: #777;' href='https://ourworldindata.org/meat-and-seafood-production-consumption/'>OurWorldInData.org/meat-and-seafood-production-consumption/</a> • <a style="fill: #777;" href="http://creativecommons.org/licenses/by-sa/4.0/deed.en_US" target="_blank">CC BY-SA</a></tspan></text></g></g></svg>