<svg xmlns="http://www.w3.org/2000/svg" version="1.1" style="font-family: 'Helvetica Neue', Helvetica, Arial, sans-serif; font-size: 18px; background-color: white; text-rendering: optimizeLegibility; -webkit-font-smoothing: antialiased;" width="850" height="600"><g class="ChartTab"><g class="HeaderView"><g opacity="0.8" transform="translate(778, 15) scale(0.27)"><a xmlns:xlink="http://www.w3.org/1999/xlink" xlink:href="https://ourworldindata.org" target="_blank"><g><rect x="0" y="0" fill="#1B2543" width="211.2" height="130.1"/><rect x="0" y="112.2" fill="#E63912" width="211.2" height="17.9"/><g><rect x="1.2" y="12.3" fill="none" width="210.2" height="99.2"/><path fill="#FFFFFF" d="M37.8,32.2c0,12.7-7.7,19.4-17.1,19.4c-9.7,0-16.6-7.5-16.6-18.7c0-11.7,7.3-19.3,17.1-19.3 C31.3,13.7,37.8,21.3,37.8,32.2z M9.2,32.8c0,7.9,4.3,14.9,11.8,14.9c7.5,0,11.8-6.9,11.8-15.3c0-7.3-3.8-14.9-11.8-14.9 C13.1,17.5,9.2,24.8,9.2,32.8z"/><path fill="#FFFFFF" d="M62.7,43.8c0,2.7,0.1,5.1,0.2,7.2h-4.3l-0.3-4.3h-0.1c-1.3,2.1-4,4.9-8.8,4.9c-4.2,0-9.1-2.3-9.1-11.6 V24.6h4.8v14.6c0,5,1.5,8.4,5.9,8.4c3.2,0,5.5-2.2,6.3-4.4c0.3-0.7,0.4-1.6,0.4-2.5V24.6h4.8V43.8z"/><path fill="#FFFFFF" d="M67.3,32.8c0-3.1-0.1-5.8-0.2-8.2h4.2l0.2,5.2h0.2c1.2-3.5,4.1-5.8,7.3-5.8c0.5,0,0.9,0.1,1.4,0.2v4.5 c-0.5-0.1-1-0.2-1.6-0.2c-3.4,0-5.8,2.6-6.5,6.2c-0.1,0.7-0.2,1.4-0.2,2.2V51h-4.8V32.8z"/><path fill="#FFFFFF" d="M95.4,51l-9.4-36.8h5l4.4,18.6c1.1,4.6,2.1,9.2,2.7,12.7h0.1c0.6-3.7,1.8-8,3-12.8l4.9-18.5h5l4.5,18.7 c1,4.4,2,8.7,2.6,12.6h0.1c0.8-4,1.8-8.1,3-12.7l4.9-18.5h4.9L120.6,51h-5L111,31.9c-1.1-4.7-1.9-8.3-2.4-12h-0.1 c-0.7,3.7-1.5,7.3-2.8,12L100.4,51H95.4z"/><path fill="#FFFFFF" d="M154.9,37.6c0,9.8-6.8,14-13.2,14c-7.2,0-12.7-5.2-12.7-13.6c0-8.8,5.8-14,13.1-14 C149.8,24,154.9,29.5,154.9,37.6z M133.9,37.9c0,5.8,3.3,10.1,8,10.1c4.6,0,8-4.3,8-10.3c0-4.5-2.2-10.1-7.9-10.1 C136.3,27.6,133.9,32.8,133.9,37.9z"/><path fill="#FFFFFF" d="M158.2,32.8c0-3.1-0.1-5.8-0.2-8.2h4.2l0.2,5.2h0.2c1.2-3.5,4.1-5.8,7.3-5.8c0.5,0,0.9,0.1,1.4,0.2v4.5 c-0.5-0.1-1-0.2-1.6-0.2c-3.4,0-5.8,2.6-6.5,6.2c-0.1,0.7-0.2,1.4-0.2,2.2V51h-4.8V32.8z"/><path fill="#FFFFFF" d="M173.5,12.3h4.8V51h-4.8V12.3z"/><path fill="#FFFFFF" d="M206.5,12.3v31.9c0,2.3,0.1,5,0.2,6.8h-4.3l-0.2-4.6H202c-1.5,2.9-4.7,5.2-9,5.2 c-6.4,0-11.3-5.4-11.3-13.4c-0.1-8.8,5.4-14.2,11.9-14.2c4,0,6.8,1.9,8,4h0.1V12.3H206.5z M201.7,35.4c0-0.6-0.1-1.4-0.2-2 c-0.7-3.1-3.3-5.6-6.9-5.6c-5,0-7.9,4.4-7.9,10.2c0,5.3,2.6,9.8,7.8,9.8c3.2,0,6.2-2.1,7.1-5.7c0.2-0.7,0.2-1.3,0.2-2.1V35.4z"/><path fill="#FFFFFF" d="M42.8,64c0.1,1.6-1.1,2.9-3.1,2.9c-1.7,0-2.9-1.3-2.9-2.9c0-1.7,1.3-3,3-3C41.7,61,42.8,62.3,42.8,64z M37.4,97.8V71.4h4.8v26.4H37.4z"/><path fill="#FFFFFF" d="M47.5,78.6c0-2.7-0.1-5-0.2-7.1h4.3l0.3,4.4h0.1c1.3-2.5,4.4-5,8.8-5c3.7,0,9.4,2.2,9.4,11.2v15.8h-4.8 V82.6c0-4.3-1.6-7.8-6.1-7.8c-3.2,0-5.6,2.2-6.5,4.9c-0.2,0.6-0.3,1.4-0.3,2.2v15.9h-4.8V78.6z"/><path fill="#FFFFFF" d="M84,61.6c2.9-0.4,6.3-0.8,10.1-0.8c6.8,0,11.7,1.6,14.9,4.6c3.3,3,5.2,7.3,5.2,13.2c0,6-1.9,10.9-5.3,14.3 c-3.4,3.4-9.1,5.3-16.3,5.3c-3.4,0-6.2-0.2-8.6-0.4V61.6z M88.8,94.1c1.2,0.2,3,0.3,4.8,0.3c10.2,0,15.7-5.7,15.7-15.6 c0.1-8.7-4.9-14.2-14.9-14.2c-2.5,0-4.3,0.2-5.6,0.5V94.1z"/><path fill="#FFFFFF" d="M132.1,97.8l-0.4-3.3h-0.2c-1.5,2.1-4.3,3.9-8.1,3.9c-5.4,0-8.1-3.8-8.1-7.6c0-6.4,5.7-9.9,15.9-9.8v-0.5 c0-2.2-0.6-6.1-6-6.1c-2.5,0-5,0.8-6.9,2l-1.1-3.2c2.2-1.4,5.4-2.3,8.7-2.3c8.1,0,10.1,5.5,10.1,10.8v9.9c0,2.3,0.1,4.5,0.4,6.3 H132.1z M131.4,84.4c-5.3-0.1-11.2,0.8-11.2,5.9c0,3.1,2.1,4.6,4.5,4.6c3.4,0,5.6-2.2,6.4-4.4c0.2-0.5,0.3-1,0.3-1.5V84.4z"/><path fill="#FFFFFF" d="M146.6,63.9v7.6h6.9v3.7h-6.9v14.2c0,3.3,0.9,5.1,3.6,5.1c1.3,0,2.2-0.2,2.8-0.3l0.2,3.6 c-0.9,0.4-2.4,0.7-4.3,0.7c-2.2,0-4-0.7-5.2-2c-1.4-1.4-1.9-3.8-1.9-6.9V75.1h-4.1v-3.7h4.1v-6.3L146.6,63.9z"/><path fill="#FFFFFF" d="M171.4,97.8l-0.4-3.3h-0.2c-1.5,2.1-4.3,3.9-8.1,3.9c-5.4,0-8.1-3.8-8.1-7.6c0-6.4,5.7-9.9,15.9-9.8v-0.5 c0-2.2-0.6-6.1-6-6.1c-2.5,0-5,0.8-6.9,2l-1.1-3.2c2.2-1.4,5.4-2.3,8.7-2.3c8.1,0,10.1,5.5,10.1,10.8v9.9c0,2.3,0.1,4.5,0.4,6.3 H171.4z M170.7,84.4c-5.3-0.1-11.2,0.8-11.2,5.9c0,3.1,2.1,4.6,4.5,4.6c3.4,0,5.6-2.2,6.4-4.4c0.2-0.5,0.3-1,0.3-1.5V84.4z"/></g></g></a></g><a href="https://ourworldindata.org/grapher/five-year-cancer-survival-rates-by-sex-and-race" target="_blank"><text font-size="25.20" x="15.0" y="35.2" fill="#555"><tspan x="15" y="35.160000000000004">Five-year cancer survival rates by sex and race</tspan></text></a><text font-size="14.40" x="15.0" y="53.7" fill="#666"><tspan x="15" y="53.72">Percentage of cancer patients surviving at least five years following diagnosis of any cancer type. This is shown by</tspan><tspan x="15" y="69.56">sex and race in the United States.</tspan></text></g><g class="LineChart"><defs><clipPath id="boundsClip-14"><rect x="42.562" y="0" width="830" height="928.8"></rect></clipPath></defs><g class="AxisBoxView"><g class="HorizontalAxis"><text x="52.6" y="556.5" fill="#666" text-anchor="middle" font-size="16.2">1963</text><text x="142.3" y="556.5" fill="#666" text-anchor="middle" font-size="16.2">1970</text><text x="270.4" y="556.5" fill="#666" text-anchor="middle" font-size="16.2">1980</text><text x="398.5" y="556.5" fill="#666" text-anchor="middle" font-size="16.2">1990</text><text x="526.6" y="556.5" fill="#666" text-anchor="middle" font-size="16.2">2000</text><text x="693.2" y="556.5" fill="#666" text-anchor="middle" font-size="16.2">2013</text></g><g class="VerticalAxis"><text x="47.56" y="535.3" fill="#666" dominant-baseline="middle" text-anchor="end" font-size="16.2">0%</text><text x="47.56" y="472.1" fill="#666" dominant-baseline="middle" text-anchor="end" font-size="16.2">10%</text><text x="47.56" y="408.9" fill="#666" dominant-baseline="middle" text-anchor="end" font-size="16.2">20%</text><text x="47.56" y="345.6" fill="#666" dominant-baseline="middle" text-anchor="end" font-size="16.2">30%</text><text x="47.56" y="282.4" fill="#666" dominant-baseline="middle" text-anchor="end" font-size="16.2">40%</text><text x="47.56" y="219.2" fill="#666" dominant-baseline="middle" text-anchor="end" font-size="16.2">50%</text><text x="47.56" y="156" fill="#666" dominant-baseline="middle" text-anchor="end" font-size="16.2">60%</text><text x="47.56" y="92.7" fill="#666" dominant-baseline="middle" text-anchor="end" font-size="16.2">70%</text></g><g class="AxisGridLines"><line x1="52.56" y1="535.3" x2="693.21" y2="535.3" stroke="#ccc"></line><line x1="52.56" y1="472.1" x2="693.21" y2="472.1" stroke="#ddd" stroke-dasharray="3,2"></line><line x1="52.56" y1="408.9" x2="693.21" y2="408.9" stroke="#ddd" stroke-dasharray="3,2"></line><line x1="52.56" y1="345.6" x2="693.21" y2="345.6" stroke="#ddd" stroke-dasharray="3,2"></line><line x1="52.56" y1="282.4" x2="693.21" y2="282.4" stroke="#ddd" stroke-dasharray="3,2"></line><line x1="52.56" y1="219.2" x2="693.21" y2="219.2" stroke="#ddd" stroke-dasharray="3,2"></line><line x1="52.56" y1="156" x2="693.21" y2="156" stroke="#ddd" stroke-dasharray="3,2"></line><line x1="52.56" y1="92.7" x2="693.21" y2="92.7" stroke="#ddd" stroke-dasharray="3,2"></line></g></g><g clip-path="url(#boundsClip-14)"><g class="HeightedLegend clickable"><g class="legendMark"><g class="indicator"><line x1="698.2149999999999" y1="92.1" x2="719.6038888888888" y2="92.1" stroke="#666" stroke-width="0.5"></line><line x1="719.6038888888888" y1="92.1" x2="719.6038888888888" y2="92.1" stroke="#666" stroke-width="0.5"></line><line x1="719.6038888888888" y1="92.1" x2="723.2149999999999" y2="92.1" stroke="#666" stroke-width="0.5"></line></g><rect x="693.2149999999999" y="85.35" width="124.50500000000001" height="13.5" fill="#fff" opacity="0"></rect><text font-size="13.50" x="728.2" y="96.1" fill="#ffd53e"><tspan x="728.2149999999999" y="96.14999999999999">White, females</tspan></text></g><g class="legendMark"><g class="indicator"><line x1="698.2149999999999" y1="92.1" x2="717.3816666666665" y2="92.1" stroke="#666" stroke-width="0.5"></line><line x1="717.3816666666665" y1="92.1" x2="717.3816666666665" y2="107.6" stroke="#666" stroke-width="0.5"></line><line x1="717.3816666666665" y1="107.6" x2="723.2149999999999" y2="107.6" stroke="#666" stroke-width="0.5"></line></g><rect x="693.2149999999999" y="100.85" width="113.165" height="13.5" fill="#fff" opacity="0"></rect><text font-size="13.50" x="728.2" y="111.6" fill="#9ecc8a"><tspan x="728.2149999999999" y="111.64999999999999">White, males</tspan></text></g><g class="legendMark"><g class="indicator"><line x1="698.2149999999999" y1="92.1" x2="715.1594444444444" y2="92.1" stroke="#666" stroke-width="0.5"></line><line x1="715.1594444444444" y1="92.1" x2="715.1594444444444" y2="123.1" stroke="#666" stroke-width="0.5"></line><line x1="715.1594444444444" y1="123.1" x2="723.2149999999999" y2="123.1" stroke="#666" stroke-width="0.5"></line></g><rect x="693.2149999999999" y="116.35" width="102.77000000000001" height="13.5" fill="#fff" opacity="0"></rect><text font-size="13.50" x="728.2" y="127.1" fill="#e6332e"><tspan x="728.2149999999999" y="127.14999999999999">White, total</tspan></text></g><g class="legendMark"><g class="indicator"><line x1="698.2149999999999" y1="97.8" x2="712.9372222222221" y2="97.8" stroke="#666" stroke-width="0.5"></line><line x1="712.9372222222221" y1="97.8" x2="712.9372222222221" y2="138.6" stroke="#666" stroke-width="0.5"></line><line x1="712.9372222222221" y1="138.6" x2="723.2149999999999" y2="138.6" stroke="#666" stroke-width="0.5"></line></g><rect x="693.2149999999999" y="131.85" width="130.445" height="13.5" fill="#fff" opacity="0"></rect><text font-size="13.50" x="728.2" y="142.7" fill="#2a939b"><tspan x="728.2149999999999" y="142.65">All races, males</tspan></text></g><g class="legendMark"><g class="indicator"><line x1="698.2149999999999" y1="97.8" x2="710.7149999999999" y2="97.8" stroke="#666" stroke-width="0.5"></line><line x1="710.7149999999999" y1="97.8" x2="710.7149999999999" y2="154.1" stroke="#666" stroke-width="0.5"></line><line x1="710.7149999999999" y1="154.1" x2="723.2149999999999" y2="154.1" stroke="#666" stroke-width="0.5"></line></g><rect x="693.2149999999999" y="147.35" width="120.05000000000001" height="13.5" fill="#fff" opacity="0"></rect><text font-size="13.50" x="728.2" y="158.2" fill="#a652ba"><tspan x="728.2149999999999" y="158.15">All races, total</tspan></text></g><g class="legendMark"><g class="indicator"><line x1="698.2149999999999" y1="98.4" x2="708.4927777777777" y2="98.4" stroke="#666" stroke-width="0.5"></line><line x1="708.4927777777777" y1="98.4" x2="708.4927777777777" y2="169.6" stroke="#666" stroke-width="0.5"></line><line x1="708.4927777777777" y1="169.6" x2="723.2149999999999" y2="169.6" stroke="#666" stroke-width="0.5"></line></g><rect x="693.2149999999999" y="162.85" width="141.78500000000003" height="13.5" fill="#fff" opacity="0"></rect><text font-size="13.50" x="728.2" y="173.7" fill="#f6a324"><tspan x="728.2149999999999" y="173.65">All races, females</tspan></text></g><g class="legendMark"><g class="indicator"><line x1="698.2149999999999" y1="118.7" x2="706.2705555555555" y2="118.7" stroke="#666" stroke-width="0.5"></line><line x1="706.2705555555555" y1="118.7" x2="706.2705555555555" y2="185.1" stroke="#666" stroke-width="0.5"></line><line x1="706.2705555555555" y1="185.1" x2="723.2149999999999" y2="185.1" stroke="#666" stroke-width="0.5"></line></g><rect x="693.2149999999999" y="178.35" width="111.68" height="13.5" fill="#fff" opacity="0"></rect><text font-size="13.50" x="728.2" y="189.2" fill="#34983f"><tspan x="728.2149999999999" y="189.15">Black, males</tspan></text></g><g class="legendMark"><g class="indicator"><line x1="698.2149999999999" y1="135.1" x2="704.0483333333333" y2="135.1" stroke="#666" stroke-width="0.5"></line><line x1="704.0483333333333" y1="135.1" x2="704.0483333333333" y2="200.6" stroke="#666" stroke-width="0.5"></line><line x1="704.0483333333333" y1="200.6" x2="723.2149999999999" y2="200.6" stroke="#666" stroke-width="0.5"></line></g><rect x="693.2149999999999" y="193.85" width="101.28500000000001" height="13.5" fill="#fff" opacity="0"></rect><text font-size="13.50" x="728.2" y="204.7" fill="#ca2628"><tspan x="728.2149999999999" y="204.65">Black, total</tspan></text></g><g class="legendMark"><g class="indicator"><line x1="698.2149999999999" y1="154.1" x2="701.826111111111" y2="154.1" stroke="#666" stroke-width="0.5"></line><line x1="701.826111111111" y1="154.1" x2="701.826111111111" y2="216.1" stroke="#666" stroke-width="0.5"></line><line x1="701.826111111111" y1="216.1" x2="723.2149999999999" y2="216.1" stroke="#666" stroke-width="0.5"></line></g><rect x="693.2149999999999" y="209.35" width="123.02000000000001" height="13.5" fill="#fff" opacity="0"></rect><text font-size="13.50" x="728.2" y="220.2" fill="#3360a9"><tspan x="728.2149999999999" y="220.15">Black, females</tspan></text></g></g><g class="Lines"><rect x="53" y="92" width="641" height="443" fill="rgba(255,255,255,0)" opacity="0"></rect><g class="key-All-races__002c-females_0"><path stroke="#f6a324" stroke-linecap="round" d="M232 182L270 188L309 187L347 171L386 159L424 150L463 145L501 133L540 120L604 112L693 98" fill="none" stroke-width="1.5"></path><g fill="#f6a324"><circle cx="232" cy="182" r="2"></circle><circle cx="270" cy="188" r="2"></circle><circle cx="309" cy="187" r="2"></circle><circle cx="347" cy="171" r="2"></circle><circle cx="386" cy="159" r="2"></circle><circle cx="424" cy="150" r="2"></circle><circle cx="463" cy="145" r="2"></circle><circle cx="501" cy="133" r="2"></circle><circle cx="540" cy="120" r="2"></circle><circle cx="604" cy="112" r="2"></circle><circle cx="693" cy="98" r="2"></circle></g></g><g class="key-All-races__002c-males_0"><path stroke="#2a939b" stroke-linecap="round" d="M232 272L270 263L309 250L347 237L386 212L424 162L463 151L501 137L540 116L604 105L693 98" fill="none" stroke-width="1.5"></path><g fill="#2a939b"><circle cx="232" cy="272" r="2"></circle><circle cx="270" cy="263" r="2"></circle><circle cx="309" cy="250" r="2"></circle><circle cx="347" cy="237" r="2"></circle><circle cx="386" cy="212" r="2"></circle><circle cx="424" cy="162" r="2"></circle><circle cx="463" cy="151" r="2"></circle><circle cx="501" cy="137" r="2"></circle><circle cx="540" cy="116" r="2"></circle><circle cx="604" cy="105" r="2"></circle><circle cx="693" cy="98" r="2"></circle></g></g><g class="key-All-races__002c-total_0"><path stroke="#a652ba" stroke-linecap="round" d="M232 226L270 226L309 218L347 204L386 186L424 157L463 148L501 135L540 118L604 109L693 98" fill="none" stroke-width="1.5"></path><g fill="#a652ba"><circle cx="232" cy="226" r="2"></circle><circle cx="270" cy="226" r="2"></circle><circle cx="309" cy="218" r="2"></circle><circle cx="347" cy="204" r="2"></circle><circle cx="386" cy="186" r="2"></circle><circle cx="424" cy="157" r="2"></circle><circle cx="463" cy="148" r="2"></circle><circle cx="501" cy="135" r="2"></circle><circle cx="540" cy="118" r="2"></circle><circle cx="604" cy="109" r="2"></circle><circle cx="693" cy="98" r="2"></circle></g></g><g class="key-Black__002c-females_0"><path stroke="#3360a9" stroke-linecap="round" d="M232 243L270 247L309 255L347 248L386 234L424 231L463 215L501 206L540 192L604 183L693 154" fill="none" stroke-width="1.5"></path><g fill="#3360a9"><circle cx="232" cy="243" r="2"></circle><circle cx="270" cy="247" r="2"></circle><circle cx="309" cy="255" r="2"></circle><circle cx="347" cy="248" r="2"></circle><circle cx="386" cy="234" r="2"></circle><circle cx="424" cy="231" r="2"></circle><circle cx="463" cy="215" r="2"></circle><circle cx="501" cy="206" r="2"></circle><circle cx="540" cy="192" r="2"></circle><circle cx="604" cy="183" r="2"></circle><circle cx="693" cy="154" r="2"></circle></g></g><g class="key-Black__002c-males_0"><path stroke="#34983f" stroke-linecap="round" d="M232 329L270 325L309 319L347 311L386 289L424 234L463 191L501 169L540 149L604 133L693 119" fill="none" stroke-width="1.5"></path><g fill="#34983f"><circle cx="232" cy="329" r="2"></circle><circle cx="270" cy="325" r="2"></circle><circle cx="309" cy="319" r="2"></circle><circle cx="347" cy="311" r="2"></circle><circle cx="386" cy="289" r="2"></circle><circle cx="424" cy="234" r="2"></circle><circle cx="463" cy="191" r="2"></circle><circle cx="501" cy="169" r="2"></circle><circle cx="540" cy="149" r="2"></circle><circle cx="604" cy="133" r="2"></circle><circle cx="693" cy="119" r="2"></circle></g></g><g class="key-Black__002c-total_0"><path stroke="#ca2628" stroke-linecap="round" d="M53 365L181 339L232 289L270 289L309 290L347 281L386 263L424 233L463 202L501 186L540 169L604 157L693 135" fill="none" stroke-width="1.5"></path><g fill="#ca2628"><circle cx="53" cy="365" r="2"></circle><circle cx="181" cy="339" r="2"></circle><circle cx="232" cy="289" r="2"></circle><circle cx="270" cy="289" r="2"></circle><circle cx="309" cy="290" r="2"></circle><circle cx="347" cy="281" r="2"></circle><circle cx="386" cy="263" r="2"></circle><circle cx="424" cy="233" r="2"></circle><circle cx="463" cy="202" r="2"></circle><circle cx="501" cy="186" r="2"></circle><circle cx="540" cy="169" r="2"></circle><circle cx="604" cy="157" r="2"></circle><circle cx="693" cy="135" r="2"></circle></g></g><g class="key-White__002c-females_0"><path stroke="#ffd53e" stroke-linecap="round" d="M232 178L270 184L309 181L347 165L386 152L424 143L463 138L501 126L540 113L604 104L693 92" fill="none" stroke-width="1.5"></path><g fill="#ffd53e"><circle cx="232" cy="178" r="2"></circle><circle cx="270" cy="184" r="2"></circle><circle cx="309" cy="181" r="2"></circle><circle cx="347" cy="165" r="2"></circle><circle cx="386" cy="152" r="2"></circle><circle cx="424" cy="143" r="2"></circle><circle cx="463" cy="138" r="2"></circle><circle cx="501" cy="126" r="2"></circle><circle cx="540" cy="113" r="2"></circle><circle cx="604" cy="104" r="2"></circle><circle cx="693" cy="92" r="2"></circle></g></g><g class="key-White__002c-males_0"><path stroke="#9ecc8a" stroke-linecap="round" d="M232 265L270 255L309 241L347 228L386 202L424 151L463 143L501 130L540 109L604 97L693 92" fill="none" stroke-width="1.5"></path><g fill="#9ecc8a"><circle cx="232" cy="265" r="2"></circle><circle cx="270" cy="255" r="2"></circle><circle cx="309" cy="241" r="2"></circle><circle cx="347" cy="228" r="2"></circle><circle cx="386" cy="202" r="2"></circle><circle cx="424" cy="151" r="2"></circle><circle cx="463" cy="143" r="2"></circle><circle cx="501" cy="130" r="2"></circle><circle cx="540" cy="109" r="2"></circle><circle cx="604" cy="97" r="2"></circle><circle cx="693" cy="92" r="2"></circle></g></g><g class="key-White__002c-total_0"><path stroke="#e6332e" stroke-linecap="round" d="M53 289L181 263L232 220L270 219L309 211L347 196L386 177L424 147L463 141L501 128L540 110L604 100L693 92" fill="none" stroke-width="1.5"></path><g fill="#e6332e"><circle cx="53" cy="289" r="2"></circle><circle cx="181" cy="263" r="2"></circle><circle cx="232" cy="220" r="2"></circle><circle cx="270" cy="219" r="2"></circle><circle cx="309" cy="211" r="2"></circle><circle cx="347" cy="196" r="2"></circle><circle cx="386" cy="177" r="2"></circle><circle cx="424" cy="147" r="2"></circle><circle cx="463" cy="141" r="2"></circle><circle cx="501" cy="128" r="2"></circle><circle cx="540" cy="110" r="2"></circle><circle cx="604" cy="100" r="2"></circle><circle cx="693" cy="92" r="2"></circle></g></g></g></g></g><g style="fill: #777;" class="SourcesFooter"><g style="fill: #777;" class="clickable"><text font-size="12.60" x="15.0" y="581.6"><tspan x="15" y="581.58">Source: National Cancer Institute</tspan></text></g><text font-size="12.60" x="775.4" y="581.6"><tspan x="775.402" y="581.58"><a style="fill: #777;" class="cclogo" href="http://creativecommons.org/licenses/by-sa/4.0/deed.en_US" target="_blank">CC BY-SA</a></tspan></text></g></g></svg>