<svg xmlns="http://www.w3.org/2000/svg" version="1.1" style="font-family: 'Helvetica Neue', Helvetica, Arial, sans-serif; font-size: 18px; background-color: white; text-rendering: optimizeLegibility; -webkit-font-smoothing: antialiased;" width="850" height="600"><g class="ChartTab"><g class="HeaderView"><g opacity="0.8" transform="translate(778, 15) scale(0.27)"><a xmlns:xlink="http://www.w3.org/1999/xlink" xlink:href="https://ourworldindata.org" target="_blank"><g><rect x="0" y="0" fill="#1B2543" width="211.2" height="130.1"/><rect x="0" y="112.2" fill="#E63912" width="211.2" height="17.9"/><g><rect x="1.2" y="12.3" fill="none" width="210.2" height="99.2"/><path fill="#FFFFFF" d="M37.8,32.2c0,12.7-7.7,19.4-17.1,19.4c-9.7,0-16.6-7.5-16.6-18.7c0-11.7,7.3-19.3,17.1-19.3 C31.3,13.7,37.8,21.3,37.8,32.2z M9.2,32.8c0,7.9,4.3,14.9,11.8,14.9c7.5,0,11.8-6.9,11.8-15.3c0-7.3-3.8-14.9-11.8-14.9 C13.1,17.5,9.2,24.8,9.2,32.8z"/><path fill="#FFFFFF" d="M62.7,43.8c0,2.7,0.1,5.1,0.2,7.2h-4.3l-0.3-4.3h-0.1c-1.3,2.1-4,4.9-8.8,4.9c-4.2,0-9.1-2.3-9.1-11.6 V24.6h4.8v14.6c0,5,1.5,8.4,5.9,8.4c3.2,0,5.5-2.2,6.3-4.4c0.3-0.7,0.4-1.6,0.4-2.5V24.6h4.8V43.8z"/><path fill="#FFFFFF" d="M67.3,32.8c0-3.1-0.1-5.8-0.2-8.2h4.2l0.2,5.2h0.2c1.2-3.5,4.1-5.8,7.3-5.8c0.5,0,0.9,0.1,1.4,0.2v4.5 c-0.5-0.1-1-0.2-1.6-0.2c-3.4,0-5.8,2.6-6.5,6.2c-0.1,0.7-0.2,1.4-0.2,2.2V51h-4.8V32.8z"/><path fill="#FFFFFF" d="M95.4,51l-9.4-36.8h5l4.4,18.6c1.1,4.6,2.1,9.2,2.7,12.7h0.1c0.6-3.7,1.8-8,3-12.8l4.9-18.5h5l4.5,18.7 c1,4.4,2,8.7,2.6,12.6h0.1c0.8-4,1.8-8.1,3-12.7l4.9-18.5h4.9L120.6,51h-5L111,31.9c-1.1-4.7-1.9-8.3-2.4-12h-0.1 c-0.7,3.7-1.5,7.3-2.8,12L100.4,51H95.4z"/><path fill="#FFFFFF" d="M154.9,37.6c0,9.8-6.8,14-13.2,14c-7.2,0-12.7-5.2-12.7-13.6c0-8.8,5.8-14,13.1-14 C149.8,24,154.9,29.5,154.9,37.6z M133.9,37.9c0,5.8,3.3,10.1,8,10.1c4.6,0,8-4.3,8-10.3c0-4.5-2.2-10.1-7.9-10.1 C136.3,27.6,133.9,32.8,133.9,37.9z"/><path fill="#FFFFFF" d="M158.2,32.8c0-3.1-0.1-5.8-0.2-8.2h4.2l0.2,5.2h0.2c1.2-3.5,4.1-5.8,7.3-5.8c0.5,0,0.9,0.1,1.4,0.2v4.5 c-0.5-0.1-1-0.2-1.6-0.2c-3.4,0-5.8,2.6-6.5,6.2c-0.1,0.7-0.2,1.4-0.2,2.2V51h-4.8V32.8z"/><path fill="#FFFFFF" d="M173.5,12.3h4.8V51h-4.8V12.3z"/><path fill="#FFFFFF" d="M206.5,12.3v31.9c0,2.3,0.1,5,0.2,6.8h-4.3l-0.2-4.6H202c-1.5,2.9-4.7,5.2-9,5.2 c-6.4,0-11.3-5.4-11.3-13.4c-0.1-8.8,5.4-14.2,11.9-14.2c4,0,6.8,1.9,8,4h0.1V12.3H206.5z M201.7,35.4c0-0.6-0.1-1.4-0.2-2 c-0.7-3.1-3.3-5.6-6.9-5.6c-5,0-7.9,4.4-7.9,10.2c0,5.3,2.6,9.8,7.8,9.8c3.2,0,6.2-2.1,7.1-5.7c0.2-0.7,0.2-1.3,0.2-2.1V35.4z"/><path fill="#FFFFFF" d="M42.8,64c0.1,1.6-1.1,2.9-3.1,2.9c-1.7,0-2.9-1.3-2.9-2.9c0-1.7,1.3-3,3-3C41.7,61,42.8,62.3,42.8,64z M37.4,97.8V71.4h4.8v26.4H37.4z"/><path fill="#FFFFFF" d="M47.5,78.6c0-2.7-0.1-5-0.2-7.1h4.3l0.3,4.4h0.1c1.3-2.5,4.4-5,8.8-5c3.7,0,9.4,2.2,9.4,11.2v15.8h-4.8 V82.6c0-4.3-1.6-7.8-6.1-7.8c-3.2,0-5.6,2.2-6.5,4.9c-0.2,0.6-0.3,1.4-0.3,2.2v15.9h-4.8V78.6z"/><path fill="#FFFFFF" d="M84,61.6c2.9-0.4,6.3-0.8,10.1-0.8c6.8,0,11.7,1.6,14.9,4.6c3.3,3,5.2,7.3,5.2,13.2c0,6-1.9,10.9-5.3,14.3 c-3.4,3.4-9.1,5.3-16.3,5.3c-3.4,0-6.2-0.2-8.6-0.4V61.6z M88.8,94.1c1.2,0.2,3,0.3,4.8,0.3c10.2,0,15.7-5.7,15.7-15.6 c0.1-8.7-4.9-14.2-14.9-14.2c-2.5,0-4.3,0.2-5.6,0.5V94.1z"/><path fill="#FFFFFF" d="M132.1,97.8l-0.4-3.3h-0.2c-1.5,2.1-4.3,3.9-8.1,3.9c-5.4,0-8.1-3.8-8.1-7.6c0-6.4,5.7-9.9,15.9-9.8v-0.5 c0-2.2-0.6-6.1-6-6.1c-2.5,0-5,0.8-6.9,2l-1.1-3.2c2.2-1.4,5.4-2.3,8.7-2.3c8.1,0,10.1,5.5,10.1,10.8v9.9c0,2.3,0.1,4.5,0.4,6.3 H132.1z M131.4,84.4c-5.3-0.1-11.2,0.8-11.2,5.9c0,3.1,2.1,4.6,4.5,4.6c3.4,0,5.6-2.2,6.4-4.4c0.2-0.5,0.3-1,0.3-1.5V84.4z"/><path fill="#FFFFFF" d="M146.6,63.9v7.6h6.9v3.7h-6.9v14.2c0,3.3,0.9,5.1,3.6,5.1c1.3,0,2.2-0.2,2.8-0.3l0.2,3.6 c-0.9,0.4-2.4,0.7-4.3,0.7c-2.2,0-4-0.7-5.2-2c-1.4-1.4-1.9-3.8-1.9-6.9V75.1h-4.1v-3.7h4.1v-6.3L146.6,63.9z"/><path fill="#FFFFFF" d="M171.4,97.8l-0.4-3.3h-0.2c-1.5,2.1-4.3,3.9-8.1,3.9c-5.4,0-8.1-3.8-8.1-7.6c0-6.4,5.7-9.9,15.9-9.8v-0.5 c0-2.2-0.6-6.1-6-6.1c-2.5,0-5,0.8-6.9,2l-1.1-3.2c2.2-1.4,5.4-2.3,8.7-2.3c8.1,0,10.1,5.5,10.1,10.8v9.9c0,2.3,0.1,4.5,0.4,6.3 H171.4z M170.7,84.4c-5.3-0.1-11.2,0.8-11.2,5.9c0,3.1,2.1,4.6,4.5,4.6c3.4,0,5.6-2.2,6.4-4.4c0.2-0.5,0.3-1,0.3-1.5V84.4z"/></g></g></a></g><a href="https://ourworldindata.org/grapher/five-year-survival-rates-by-cancer-type" target="_blank"><text font-size="25.20" x="15.0" y="35.2" fill="#555"><tspan x="15" y="35.160000000000004">Five year survival rates by cancer type, United Kingdom</tspan></text></a><text font-size="14.40" x="15.0" y="53.7" fill="#666"><tspan x="15" y="53.72">Share of adults (aged 15-99), and children (aged 0-14) for leukaemia, diagnosed with cancer who survive at least five</tspan><tspan x="15" y="69.56">years following their diagnosis date. The year provided represents the year of diagnosis.</tspan></text></g><g class="LineChart"><defs><clipPath id="boundsClip-15"><rect x="42.562" y="0" width="830" height="928.8"></rect></clipPath></defs><g class="AxisBoxView"><g class="HorizontalAxis"><text x="52.6" y="556.5" fill="#666" text-anchor="middle" font-size="16.2">1999</text><text x="120.7" y="556.5" fill="#666" text-anchor="middle" font-size="16.2">2000</text><text x="256.9" y="556.5" fill="#666" text-anchor="middle" font-size="16.2">2002</text><text x="393.1" y="556.5" fill="#666" text-anchor="middle" font-size="16.2">2004</text><text x="529.4" y="556.5" fill="#666" text-anchor="middle" font-size="16.2">2006</text><text x="665.6" y="556.5" fill="#666" text-anchor="middle" font-size="16.2">2008</text><text x="733.7" y="556.5" fill="#666" text-anchor="middle" font-size="16.2">2009</text></g><g class="VerticalAxis"><text x="47.56" y="535.3" fill="#666" dominant-baseline="middle" text-anchor="end" font-size="16.2">0%</text><text x="47.56" y="482" fill="#666" dominant-baseline="middle" text-anchor="end" font-size="16.2">10%</text><text x="47.56" y="428.8" fill="#666" dominant-baseline="middle" text-anchor="end" font-size="16.2">20%</text><text x="47.56" y="375.5" fill="#666" dominant-baseline="middle" text-anchor="end" font-size="16.2">30%</text><text x="47.56" y="322.2" fill="#666" dominant-baseline="middle" text-anchor="end" font-size="16.2">40%</text><text x="47.56" y="269" fill="#666" dominant-baseline="middle" text-anchor="end" font-size="16.2">50%</text><text x="47.56" y="215.7" fill="#666" dominant-baseline="middle" text-anchor="end" font-size="16.2">60%</text><text x="47.56" y="162.4" fill="#666" dominant-baseline="middle" text-anchor="end" font-size="16.2">70%</text><text x="47.56" y="109.1" fill="#666" dominant-baseline="middle" text-anchor="end" font-size="16.2">80%</text></g><g class="AxisGridLines"><line x1="52.56" y1="535.3" x2="733.72" y2="535.3" stroke="#ccc"></line><line x1="52.56" y1="482" x2="733.72" y2="482" stroke="#ddd" stroke-dasharray="3,2"></line><line x1="52.56" y1="428.8" x2="733.72" y2="428.8" stroke="#ddd" stroke-dasharray="3,2"></line><line x1="52.56" y1="375.5" x2="733.72" y2="375.5" stroke="#ddd" stroke-dasharray="3,2"></line><line x1="52.56" y1="322.2" x2="733.72" y2="322.2" stroke="#ddd" stroke-dasharray="3,2"></line><line x1="52.56" y1="269" x2="733.72" y2="269" stroke="#ddd" stroke-dasharray="3,2"></line><line x1="52.56" y1="215.7" x2="733.72" y2="215.7" stroke="#ddd" stroke-dasharray="3,2"></line><line x1="52.56" y1="162.4" x2="733.72" y2="162.4" stroke="#ddd" stroke-dasharray="3,2"></line><line x1="52.56" y1="109.1" x2="733.72" y2="109.1" stroke="#ddd" stroke-dasharray="3,2"></line></g></g><g clip-path="url(#boundsClip-15)"><g class="HeightedLegend clickable"><g class="legendMark"><g class="indicator"><line x1="738.715" y1="92.1" x2="761.215" y2="92.1" stroke="#666" stroke-width="0.5"></line><line x1="761.215" y1="92.1" x2="761.215" y2="92.1" stroke="#666" stroke-width="0.5"></line><line x1="761.215" y1="92.1" x2="763.715" y2="92.1" stroke="#666" stroke-width="0.5"></line></g><rect x="733.715" y="85.35" width="85.49000000000001" height="13.5" fill="#fff" opacity="0"></rect><text font-size="13.50" x="768.7" y="96.1" fill="#b077b1"><tspan x="768.715" y="96.14999999999999">Prostate</tspan></text></g><g class="legendMark"><g class="indicator"><line x1="738.715" y1="103.3" x2="751.215" y2="103.3" stroke="#666" stroke-width="0.5"></line><line x1="751.215" y1="103.3" x2="751.215" y2="107.6" stroke="#666" stroke-width="0.5"></line><line x1="751.215" y1="107.6" x2="763.715" y2="107.6" stroke="#666" stroke-width="0.5"></line></g><rect x="733.715" y="100.85" width="74.15" height="13.5" fill="#fff" opacity="0"></rect><text font-size="13.50" x="768.7" y="111.6" fill="#ffd53e"><tspan x="768.715" y="111.64999999999999">Breast</tspan></text></g><g class="legendMark"><g class="indicator"><line x1="738.715" y1="214.6" x2="751.215" y2="214.6" stroke="#666" stroke-width="0.5"></line><line x1="751.215" y1="214.6" x2="751.215" y2="214.6" stroke="#666" stroke-width="0.5"></line><line x1="751.215" y1="214.6" x2="763.715" y2="214.6" stroke="#666" stroke-width="0.5"></line></g><rect x="733.715" y="207.85" width="73.20500000000001" height="13.5" fill="#fff" opacity="0"></rect><text font-size="13.50" x="768.7" y="218.7" fill="#9ecc8a"><tspan x="768.715" y="218.65">Cervix</tspan></text></g><g class="legendMark"><g class="indicator"><line x1="738.715" y1="233.8" x2="751.215" y2="233.8" stroke="#666" stroke-width="0.5"></line><line x1="751.215" y1="233.8" x2="751.215" y2="233.8" stroke="#666" stroke-width="0.5"></line><line x1="751.215" y1="233.8" x2="763.715" y2="233.8" stroke="#666" stroke-width="0.5"></line></g><rect x="733.715" y="227.05" width="81.575" height="13.5" fill="#fff" opacity="0"></rect><text font-size="13.50" x="768.7" y="237.9" fill="#e6332e"><tspan x="768.715" y="237.85000000000002">Rectum</tspan></text></g><g class="legendMark"><g class="indicator"><line x1="738.715" y1="248.7" x2="751.215" y2="248.7" stroke="#666" stroke-width="0.5"></line><line x1="751.215" y1="248.7" x2="751.215" y2="248.7" stroke="#666" stroke-width="0.5"></line><line x1="751.215" y1="248.7" x2="763.715" y2="248.7" stroke="#666" stroke-width="0.5"></line></g><rect x="733.715" y="241.95" width="70.37" height="13.5" fill="#fff" opacity="0"></rect><text font-size="13.50" x="768.7" y="252.8" fill="#2a939b"><tspan x="768.715" y="252.75">Colon</tspan></text></g><g class="legendMark"><g class="indicator"><line x1="738.715" y1="284.9" x2="751.215" y2="284.9" stroke="#666" stroke-width="0.5"></line><line x1="751.215" y1="284.9" x2="751.215" y2="284.9" stroke="#666" stroke-width="0.5"></line><line x1="751.215" y1="284.9" x2="763.715" y2="284.9" stroke="#666" stroke-width="0.5"></line></g><rect x="733.715" y="278.15" width="101.28500000000001" height="13.5" fill="#fff" opacity="0"></rect><text font-size="13.50" x="768.7" y="288.9" fill="#a652ba"><tspan x="768.715" y="288.95">Leukaemia</tspan></text></g><g class="legendMark"><g class="indicator"><line x1="738.715" y1="338.7" x2="751.215" y2="338.7" stroke="#666" stroke-width="0.5"></line><line x1="751.215" y1="338.7" x2="751.215" y2="338.7" stroke="#666" stroke-width="0.5"></line><line x1="751.215" y1="338.7" x2="763.715" y2="338.7" stroke="#666" stroke-width="0.5"></line></g><rect x="733.715" y="331.95" width="71.045" height="13.5" fill="#fff" opacity="0"></rect><text font-size="13.50" x="768.7" y="342.8" fill="#f6a324"><tspan x="768.715" y="342.75">Ovary</tspan></text></g><g class="legendMark"><g class="indicator"><line x1="738.715" y1="436.8" x2="751.215" y2="436.8" stroke="#666" stroke-width="0.5"></line><line x1="751.215" y1="436.8" x2="751.215" y2="436.8" stroke="#666" stroke-width="0.5"></line><line x1="751.215" y1="436.8" x2="763.715" y2="436.8" stroke="#666" stroke-width="0.5"></line></g><rect x="733.715" y="430.05" width="88.46000000000001" height="13.5" fill="#fff" opacity="0"></rect><text font-size="13.50" x="768.7" y="440.9" fill="#34983f"><tspan x="768.715" y="440.85">Stomach</tspan></text></g><g class="legendMark"><g class="indicator"><line x1="738.715" y1="484.2" x2="761.215" y2="484.2" stroke="#666" stroke-width="0.5"></line><line x1="761.215" y1="484.2" x2="761.215" y2="484.2" stroke="#666" stroke-width="0.5"></line><line x1="761.215" y1="484.2" x2="763.715" y2="484.2" stroke="#666" stroke-width="0.5"></line></g><rect x="733.715" y="477.45" width="65.24000000000001" height="13.5" fill="#fff" opacity="0"></rect><text font-size="13.50" x="768.7" y="488.3" fill="#ca2628"><tspan x="768.715" y="488.25">Lung</tspan></text></g><g class="legendMark"><g class="indicator"><line x1="738.715" y1="485.8" x2="751.215" y2="485.8" stroke="#666" stroke-width="0.5"></line><line x1="751.215" y1="485.8" x2="751.215" y2="499.7" stroke="#666" stroke-width="0.5"></line><line x1="751.215" y1="499.7" x2="763.715" y2="499.7" stroke="#666" stroke-width="0.5"></line></g><rect x="733.715" y="492.95" width="64.295" height="13.5" fill="#fff" opacity="0"></rect><text font-size="13.50" x="768.7" y="503.8" fill="#3360a9"><tspan x="768.715" y="503.75">Liver</tspan></text></g></g><g class="Lines"><rect x="53" y="92" width="681" height="443" fill="rgba(255,255,255,0)" opacity="0"></rect><g class="key-United-Kingdom_0"><path stroke="#ffd53e" stroke-linecap="round" d="M53 140L393 116L734 103" fill="none" stroke-width="1.5"></path><g fill="#ffd53e"><circle cx="53" cy="140" r="2"></circle><circle cx="393" cy="116" r="2"></circle><circle cx="734" cy="103" r="2"></circle></g></g><g class="key-United-Kingdom_1"><path stroke="#9ecc8a" stroke-linecap="round" d="M53 226L393 221L734 215" fill="none" stroke-width="1.5"></path><g fill="#9ecc8a"><circle cx="53" cy="226" r="2"></circle><circle cx="393" cy="221" r="2"></circle><circle cx="734" cy="215" r="2"></circle></g></g><g class="key-United-Kingdom_2"><path stroke="#2a939b" stroke-linecap="round" d="M53 279L393 262L734 249" fill="none" stroke-width="1.5"></path><g fill="#2a939b"><circle cx="53" cy="279" r="2"></circle><circle cx="393" cy="262" r="2"></circle><circle cx="734" cy="249" r="2"></circle></g></g><g class="key-United-Kingdom_3"><path stroke="#a652ba" stroke-linecap="round" d="M53 312L393 298L734 285" fill="none" stroke-width="1.5"></path><g fill="#a652ba"><circle cx="53" cy="312" r="2"></circle><circle cx="393" cy="298" r="2"></circle><circle cx="734" cy="285" r="2"></circle></g></g><g class="key-United-Kingdom_4"><path stroke="#3360a9" stroke-linecap="round" d="M53 500L393 492L734 486" fill="none" stroke-width="1.5"></path><g fill="#3360a9"><circle cx="53" cy="500" r="2"></circle><circle cx="393" cy="492" r="2"></circle><circle cx="734" cy="486" r="2"></circle></g></g><g class="key-United-Kingdom_5"><path stroke="#ca2628" stroke-linecap="round" d="M53 496L393 490L734 484" fill="none" stroke-width="1.5"></path><g fill="#ca2628"><circle cx="53" cy="496" r="2"></circle><circle cx="393" cy="490" r="2"></circle><circle cx="734" cy="484" r="2"></circle></g></g><g class="key-United-Kingdom_6"><path stroke="#f6a324" stroke-linecap="round" d="M53 362L393 351L734 339" fill="none" stroke-width="1.5"></path><g fill="#f6a324"><circle cx="53" cy="362" r="2"></circle><circle cx="393" cy="351" r="2"></circle><circle cx="734" cy="339" r="2"></circle></g></g><g class="key-United-Kingdom_7"><path stroke="#b077b1" stroke-linecap="round" d="M53 171L393 107L734 92" fill="none" stroke-width="1.5"></path><g fill="#b077b1"><circle cx="53" cy="171" r="2"></circle><circle cx="393" cy="107" r="2"></circle><circle cx="734" cy="92" r="2"></circle></g></g><g class="key-United-Kingdom_8"><path stroke="#e6332e" stroke-linecap="round" d="M53 274L393 248L734 234" fill="none" stroke-width="1.5"></path><g fill="#e6332e"><circle cx="53" cy="274" r="2"></circle><circle cx="393" cy="248" r="2"></circle><circle cx="734" cy="234" r="2"></circle></g></g><g class="key-United-Kingdom_9"><path stroke="#34983f" stroke-linecap="round" d="M53 458L393 447L734 437" fill="none" stroke-width="1.5"></path><g fill="#34983f"><circle cx="53" cy="458" r="2"></circle><circle cx="393" cy="447" r="2"></circle><circle cx="734" cy="437" r="2"></circle></g></g></g></g></g><g style="fill: #777;" class="SourcesFooter"><g style="fill: #777;" class="clickable"><text font-size="12.60" x="15.0" y="581.6"><tspan x="15" y="581.58">Source: Allemani et al. (2015)</tspan></text></g><text font-size="12.60" x="775.4" y="581.6"><tspan x="775.402" y="581.58"><a style="fill: #777;" class="cclogo" href="http://creativecommons.org/licenses/by-sa/4.0/deed.en_US" target="_blank">CC BY-SA</a></tspan></text></g></g></svg>