<svg xmlns="http://www.w3.org/2000/svg" version="1.1" style="font-family: 'Helvetica Neue', Helvetica, Arial, sans-serif; font-size: 18px; background-color: white; text-rendering: optimizeLegibility; -webkit-font-smoothing: antialiased;" width="850" height="600"><g class="ChartTab"><g class="HeaderView"><g opacity="0.8" transform="translate(778, 15) scale(0.27)"><a xmlns:xlink="http://www.w3.org/1999/xlink" xlink:href="https://ourworldindata.org" target="_blank"><g><rect x="0" y="0" fill="#1B2543" width="211.2" height="130.1"/><rect x="0" y="112.2" fill="#E63912" width="211.2" height="17.9"/><g><rect x="1.2" y="12.3" fill="none" width="210.2" height="99.2"/><path fill="#FFFFFF" d="M37.8,32.2c0,12.7-7.7,19.4-17.1,19.4c-9.7,0-16.6-7.5-16.6-18.7c0-11.7,7.3-19.3,17.1-19.3 C31.3,13.7,37.8,21.3,37.8,32.2z M9.2,32.8c0,7.9,4.3,14.9,11.8,14.9c7.5,0,11.8-6.9,11.8-15.3c0-7.3-3.8-14.9-11.8-14.9 C13.1,17.5,9.2,24.8,9.2,32.8z"/><path fill="#FFFFFF" d="M62.7,43.8c0,2.7,0.1,5.1,0.2,7.2h-4.3l-0.3-4.3h-0.1c-1.3,2.1-4,4.9-8.8,4.9c-4.2,0-9.1-2.3-9.1-11.6 V24.6h4.8v14.6c0,5,1.5,8.4,5.9,8.4c3.2,0,5.5-2.2,6.3-4.4c0.3-0.7,0.4-1.6,0.4-2.5V24.6h4.8V43.8z"/><path fill="#FFFFFF" d="M67.3,32.8c0-3.1-0.1-5.8-0.2-8.2h4.2l0.2,5.2h0.2c1.2-3.5,4.1-5.8,7.3-5.8c0.5,0,0.9,0.1,1.4,0.2v4.5 c-0.5-0.1-1-0.2-1.6-0.2c-3.4,0-5.8,2.6-6.5,6.2c-0.1,0.7-0.2,1.4-0.2,2.2V51h-4.8V32.8z"/><path fill="#FFFFFF" d="M95.4,51l-9.4-36.8h5l4.4,18.6c1.1,4.6,2.1,9.2,2.7,12.7h0.1c0.6-3.7,1.8-8,3-12.8l4.9-18.5h5l4.5,18.7 c1,4.4,2,8.7,2.6,12.6h0.1c0.8-4,1.8-8.1,3-12.7l4.9-18.5h4.9L120.6,51h-5L111,31.9c-1.1-4.7-1.9-8.3-2.4-12h-0.1 c-0.7,3.7-1.5,7.3-2.8,12L100.4,51H95.4z"/><path fill="#FFFFFF" d="M154.9,37.6c0,9.8-6.8,14-13.2,14c-7.2,0-12.7-5.2-12.7-13.6c0-8.8,5.8-14,13.1-14 C149.8,24,154.9,29.5,154.9,37.6z M133.9,37.9c0,5.8,3.3,10.1,8,10.1c4.6,0,8-4.3,8-10.3c0-4.5-2.2-10.1-7.9-10.1 C136.3,27.6,133.9,32.8,133.9,37.9z"/><path fill="#FFFFFF" d="M158.2,32.8c0-3.1-0.1-5.8-0.2-8.2h4.2l0.2,5.2h0.2c1.2-3.5,4.1-5.8,7.3-5.8c0.5,0,0.9,0.1,1.4,0.2v4.5 c-0.5-0.1-1-0.2-1.6-0.2c-3.4,0-5.8,2.6-6.5,6.2c-0.1,0.7-0.2,1.4-0.2,2.2V51h-4.8V32.8z"/><path fill="#FFFFFF" d="M173.5,12.3h4.8V51h-4.8V12.3z"/><path fill="#FFFFFF" d="M206.5,12.3v31.9c0,2.3,0.1,5,0.2,6.8h-4.3l-0.2-4.6H202c-1.5,2.9-4.7,5.2-9,5.2 c-6.4,0-11.3-5.4-11.3-13.4c-0.1-8.8,5.4-14.2,11.9-14.2c4,0,6.8,1.9,8,4h0.1V12.3H206.5z M201.7,35.4c0-0.6-0.1-1.4-0.2-2 c-0.7-3.1-3.3-5.6-6.9-5.6c-5,0-7.9,4.4-7.9,10.2c0,5.3,2.6,9.8,7.8,9.8c3.2,0,6.2-2.1,7.1-5.7c0.2-0.7,0.2-1.3,0.2-2.1V35.4z"/><path fill="#FFFFFF" d="M42.8,64c0.1,1.6-1.1,2.9-3.1,2.9c-1.7,0-2.9-1.3-2.9-2.9c0-1.7,1.3-3,3-3C41.7,61,42.8,62.3,42.8,64z M37.4,97.8V71.4h4.8v26.4H37.4z"/><path fill="#FFFFFF" d="M47.5,78.6c0-2.7-0.1-5-0.2-7.1h4.3l0.3,4.4h0.1c1.3-2.5,4.4-5,8.8-5c3.7,0,9.4,2.2,9.4,11.2v15.8h-4.8 V82.6c0-4.3-1.6-7.8-6.1-7.8c-3.2,0-5.6,2.2-6.5,4.9c-0.2,0.6-0.3,1.4-0.3,2.2v15.9h-4.8V78.6z"/><path fill="#FFFFFF" d="M84,61.6c2.9-0.4,6.3-0.8,10.1-0.8c6.8,0,11.7,1.6,14.9,4.6c3.3,3,5.2,7.3,5.2,13.2c0,6-1.9,10.9-5.3,14.3 c-3.4,3.4-9.1,5.3-16.3,5.3c-3.4,0-6.2-0.2-8.6-0.4V61.6z M88.8,94.1c1.2,0.2,3,0.3,4.8,0.3c10.2,0,15.7-5.7,15.7-15.6 c0.1-8.7-4.9-14.2-14.9-14.2c-2.5,0-4.3,0.2-5.6,0.5V94.1z"/><path fill="#FFFFFF" d="M132.1,97.8l-0.4-3.3h-0.2c-1.5,2.1-4.3,3.9-8.1,3.9c-5.4,0-8.1-3.8-8.1-7.6c0-6.4,5.7-9.9,15.9-9.8v-0.5 c0-2.2-0.6-6.1-6-6.1c-2.5,0-5,0.8-6.9,2l-1.1-3.2c2.2-1.4,5.4-2.3,8.7-2.3c8.1,0,10.1,5.5,10.1,10.8v9.9c0,2.3,0.1,4.5,0.4,6.3 H132.1z M131.4,84.4c-5.3-0.1-11.2,0.8-11.2,5.9c0,3.1,2.1,4.6,4.5,4.6c3.4,0,5.6-2.2,6.4-4.4c0.2-0.5,0.3-1,0.3-1.5V84.4z"/><path fill="#FFFFFF" d="M146.6,63.9v7.6h6.9v3.7h-6.9v14.2c0,3.3,0.9,5.1,3.6,5.1c1.3,0,2.2-0.2,2.8-0.3l0.2,3.6 c-0.9,0.4-2.4,0.7-4.3,0.7c-2.2,0-4-0.7-5.2-2c-1.4-1.4-1.9-3.8-1.9-6.9V75.1h-4.1v-3.7h4.1v-6.3L146.6,63.9z"/><path fill="#FFFFFF" d="M171.4,97.8l-0.4-3.3h-0.2c-1.5,2.1-4.3,3.9-8.1,3.9c-5.4,0-8.1-3.8-8.1-7.6c0-6.4,5.7-9.9,15.9-9.8v-0.5 c0-2.2-0.6-6.1-6-6.1c-2.5,0-5,0.8-6.9,2l-1.1-3.2c2.2-1.4,5.4-2.3,8.7-2.3c8.1,0,10.1,5.5,10.1,10.8v9.9c0,2.3,0.1,4.5,0.4,6.3 H171.4z M170.7,84.4c-5.3-0.1-11.2,0.8-11.2,5.9c0,3.1,2.1,4.6,4.5,4.6c3.4,0,5.6-2.2,6.4-4.4c0.2-0.5,0.3-1,0.3-1.5V84.4z"/></g></g></a></g><a href="https://ourworldindata.org/grapher/five-year-cancer-survival-in-usa" target="_blank"><text font-size="25.20" x="15.0" y="35.2" fill="#555"><tspan x="15" y="35.160000000000004">Five-year cancer survival rates in the USA, All races, total</tspan></text></a><text font-size="14.40" x="15.0" y="53.7" fill="#666"><tspan x="15" y="53.72">Percentage of cancer patients surviving at least five years since diagnosis, by cancer type. This data is available to</tspan><tspan x="15" y="69.56">view by sex and race. </tspan></text></g><g class="LineChart"><defs><clipPath id="boundsClip-13"><rect x="42.562" y="0" width="830" height="928.8"></rect></clipPath></defs><g class="AxisBoxView"><g class="HorizontalAxis"><text x="52.6" y="556.5" fill="#666" text-anchor="middle" font-size="16.2">1977</text><text x="101.8" y="556.5" fill="#666" text-anchor="middle" font-size="16.2">1980</text><text x="183.9" y="556.5" fill="#666" text-anchor="middle" font-size="16.2">1985</text><text x="265.9" y="556.5" fill="#666" text-anchor="middle" font-size="16.2">1990</text><text x="348" y="556.5" fill="#666" text-anchor="middle" font-size="16.2">1995</text><text x="430" y="556.5" fill="#666" text-anchor="middle" font-size="16.2">2000</text><text x="512.1" y="556.5" fill="#666" text-anchor="middle" font-size="16.2">2005</text><text x="594.2" y="556.5" fill="#666" text-anchor="middle" font-size="16.2">2010</text><text x="643.4" y="556.5" fill="#666" text-anchor="middle" font-size="16.2">2013</text></g><g class="VerticalAxis"><text x="47.56" y="535.3" fill="#666" dominant-baseline="middle" text-anchor="end" font-size="16.2">0%</text><text x="47.56" y="446.3" fill="#666" dominant-baseline="middle" text-anchor="end" font-size="16.2">20%</text><text x="47.56" y="357.3" fill="#666" dominant-baseline="middle" text-anchor="end" font-size="16.2">40%</text><text x="47.56" y="268.3" fill="#666" dominant-baseline="middle" text-anchor="end" font-size="16.2">60%</text><text x="47.56" y="179.3" fill="#666" dominant-baseline="middle" text-anchor="end" font-size="16.2">80%</text></g><g class="AxisGridLines"><line x1="52.56" y1="535.3" x2="643.40" y2="535.3" stroke="#ccc"></line><line x1="52.56" y1="446.3" x2="643.40" y2="446.3" stroke="#ddd" stroke-dasharray="3,2"></line><line x1="52.56" y1="357.3" x2="643.40" y2="357.3" stroke="#ddd" stroke-dasharray="3,2"></line><line x1="52.56" y1="268.3" x2="643.40" y2="268.3" stroke="#ddd" stroke-dasharray="3,2"></line><line x1="52.56" y1="179.3" x2="643.40" y2="179.3" stroke="#ddd" stroke-dasharray="3,2"></line></g></g><g clip-path="url(#boundsClip-13)"><g class="HeightedLegend clickable"><g class="legendMark"><g class="indicator"><line x1="648.4" y1="93.9" x2="670.9" y2="93.9" stroke="#666" stroke-width="0.5"></line><line x1="670.9" y1="93.9" x2="670.9" y2="93.9" stroke="#666" stroke-width="0.5"></line><line x1="670.9" y1="93.9" x2="673.4" y2="93.9" stroke="#666" stroke-width="0.5"></line></g><rect x="643.4" y="87.15" width="85.49000000000001" height="13.5" fill="#fff" opacity="0"></rect><text font-size="13.50" x="678.4" y="98.0" fill="#818282"><tspan x="678.4" y="97.95">Prostate</tspan></text></g><g class="legendMark"><g class="indicator"><line x1="648.4" y1="98.3" x2="665.9" y2="98.3" stroke="#666" stroke-width="0.5"></line><line x1="665.9" y1="98.3" x2="665.9" y2="109.4" stroke="#666" stroke-width="0.5"></line><line x1="665.9" y1="109.4" x2="673.4" y2="109.4" stroke="#666" stroke-width="0.5"></line></g><rect x="643.4" y="102.65" width="80.09" height="13.5" fill="#fff" opacity="0"></rect><text font-size="13.50" x="678.4" y="113.5" fill="#5eb77e"><tspan x="678.4" y="113.45">Thyroid</tspan></text></g><g class="legendMark"><g class="indicator"><line x1="648.4" y1="118.8" x2="660.9" y2="118.8" stroke="#666" stroke-width="0.5"></line><line x1="660.9" y1="118.8" x2="660.9" y2="124.9" stroke="#666" stroke-width="0.5"></line><line x1="660.9" y1="124.9" x2="673.4" y2="124.9" stroke="#666" stroke-width="0.5"></line></g><rect x="643.4" y="118.15" width="61.325" height="13.5" fill="#fff" opacity="0"></rect><text font-size="13.50" x="678.4" y="129.0" fill="#ce8ebd"><tspan x="678.4" y="128.95000000000002">Skin</tspan></text></g><g class="legendMark"><g class="indicator"><line x1="648.4" y1="129.9" x2="655.9" y2="129.9" stroke="#666" stroke-width="0.5"></line><line x1="655.9" y1="129.9" x2="655.9" y2="140.4" stroke="#666" stroke-width="0.5"></line><line x1="655.9" y1="140.4" x2="673.4" y2="140.4" stroke="#666" stroke-width="0.5"></line></g><rect x="643.4" y="133.65" width="74.15" height="13.5" fill="#fff" opacity="0"></rect><text font-size="13.50" x="678.4" y="144.5" fill="#f07f59"><tspan x="678.4" y="144.45000000000002">Breast</tspan></text></g><g class="legendMark"><g class="indicator"><line x1="648.4" y1="188.2" x2="660.9" y2="188.2" stroke="#666" stroke-width="0.5"></line><line x1="660.9" y1="188.2" x2="660.9" y2="188.2" stroke="#666" stroke-width="0.5"></line><line x1="660.9" y1="188.2" x2="673.4" y2="188.2" stroke="#666" stroke-width="0.5"></line></g><rect x="643.4" y="181.45" width="81.71000000000001" height="13.5" fill="#fff" opacity="0"></rect><text font-size="13.50" x="678.4" y="192.3" fill="#6bb537"><tspan x="678.4" y="192.25">Bladder</tspan></text></g><g class="legendMark"><g class="indicator"><line x1="648.4" y1="227.4" x2="670.9" y2="227.4" stroke="#666" stroke-width="0.5"></line><line x1="670.9" y1="227.4" x2="670.9" y2="227.4" stroke="#666" stroke-width="0.5"></line><line x1="670.9" y1="227.4" x2="673.4" y2="227.4" stroke="#666" stroke-width="0.5"></line></g><rect x="643.4" y="220.65" width="101.15" height="13.5" fill="#fff" opacity="0"></rect><text font-size="13.50" x="678.4" y="231.5" fill="#e6332e"><tspan x="678.4" y="231.45000000000002">All cancers</tspan></text></g><g class="legendMark"><g class="indicator"><line x1="648.4" y1="229.2" x2="665.9" y2="229.2" stroke="#666" stroke-width="0.5"></line><line x1="665.9" y1="229.2" x2="665.9" y2="242.9" stroke="#666" stroke-width="0.5"></line><line x1="665.9" y1="242.9" x2="673.4" y2="242.9" stroke="#666" stroke-width="0.5"></line></g><rect x="643.4" y="236.15" width="103.31" height="13.5" fill="#fff" opacity="0"></rect><text font-size="13.50" x="678.4" y="247.0" fill="#7ec7ce"><tspan x="678.4" y="246.95000000000002">Cervix uteri</tspan></text></g><g class="legendMark"><g class="indicator"><line x1="648.4" y1="240.3" x2="660.9" y2="240.3" stroke="#666" stroke-width="0.5"></line><line x1="660.9" y1="240.3" x2="660.9" y2="258.4" stroke="#666" stroke-width="0.5"></line><line x1="660.9" y1="258.4" x2="673.4" y2="258.4" stroke="#666" stroke-width="0.5"></line></g><rect x="643.4" y="251.65" width="141.92000000000002" height="13.5" fill="#fff" opacity="0"></rect><text font-size="13.50" x="678.4" y="262.4" fill="#b077b1"><tspan x="678.4" y="262.45">Colon and rectum</tspan></text></g><g class="legendMark"><g class="indicator"><line x1="648.4" y1="251.8" x2="655.9" y2="251.8" stroke="#666" stroke-width="0.5"></line><line x1="655.9" y1="251.8" x2="655.9" y2="273.9" stroke="#666" stroke-width="0.5"></line><line x1="655.9" y1="273.9" x2="673.4" y2="273.9" stroke="#666" stroke-width="0.5"></line></g><rect x="643.4" y="267.15" width="93.725" height="13.5" fill="#fff" opacity="0"></rect><text font-size="13.50" x="678.4" y="277.9" fill="#ffd53e"><tspan x="678.4" y="277.95">Leukemia</tspan></text></g><g class="legendMark"><g class="indicator"><line x1="648.4" y1="308.4" x2="660.9" y2="308.4" stroke="#666" stroke-width="0.5"></line><line x1="660.9" y1="308.4" x2="660.9" y2="308.4" stroke="#666" stroke-width="0.5"></line><line x1="660.9" y1="308.4" x2="673.4" y2="308.4" stroke="#666" stroke-width="0.5"></line></g><rect x="643.4" y="301.65" width="89.81" height="13.5" fill="#fff" opacity="0"></rect><text font-size="13.50" x="678.4" y="312.4" fill="#9ecc8a"><tspan x="678.4" y="312.45">Myeloma</tspan></text></g><g class="legendMark"><g class="indicator"><line x1="648.4" y1="327.5" x2="660.9" y2="327.5" stroke="#666" stroke-width="0.5"></line><line x1="660.9" y1="327.5" x2="660.9" y2="327.5" stroke="#666" stroke-width="0.5"></line><line x1="660.9" y1="327.5" x2="673.4" y2="327.5" stroke="#666" stroke-width="0.5"></line></g><rect x="643.4" y="320.75" width="71.045" height="13.5" fill="#fff" opacity="0"></rect><text font-size="13.50" x="678.4" y="331.6" fill="#e6332e"><tspan x="678.4" y="331.55">Ovary</tspan></text></g><g class="legendMark"><g class="indicator"><line x1="648.4" y1="375.6" x2="660.9" y2="375.6" stroke="#666" stroke-width="0.5"></line><line x1="660.9" y1="375.6" x2="660.9" y2="375.6" stroke="#666" stroke-width="0.5"></line><line x1="660.9" y1="375.6" x2="673.4" y2="375.6" stroke="#666" stroke-width="0.5"></line></g><rect x="643.4" y="368.85" width="191.60000000000002" height="13.5" fill="#fff" opacity="0"></rect><text font-size="13.50" x="678.4" y="379.7" fill="#2a939b"><tspan x="678.4" y="379.65000000000003">Brain and nervous system</tspan></text></g><g class="legendMark"><g class="indicator"><line x1="648.4" y1="396.9" x2="660.9" y2="396.9" stroke="#666" stroke-width="0.5"></line><line x1="660.9" y1="396.9" x2="660.9" y2="396.9" stroke="#666" stroke-width="0.5"></line><line x1="660.9" y1="396.9" x2="673.4" y2="396.9" stroke="#666" stroke-width="0.5"></line></g><rect x="643.4" y="390.15" width="88.46000000000001" height="13.5" fill="#fff" opacity="0"></rect><text font-size="13.50" x="678.4" y="400.9" fill="#a652ba"><tspan x="678.4" y="400.95">Stomach</tspan></text></g><g class="legendMark"><g class="indicator"><line x1="648.4" y1="441.9" x2="667.5666666666666" y2="441.9" stroke="#666" stroke-width="0.5"></line><line x1="667.5666666666666" y1="441.9" x2="667.5666666666666" y2="441.9" stroke="#666" stroke-width="0.5"></line><line x1="667.5666666666666" y1="441.9" x2="673.4" y2="441.9" stroke="#666" stroke-width="0.5"></line></g><rect x="643.4" y="435.15" width="106.685" height="13.5" fill="#fff" opacity="0"></rect><text font-size="13.50" x="678.4" y="445.9" fill="#f6a324"><tspan x="678.4" y="445.95">Esophagus </tspan></text></g><g class="legendMark"><g class="indicator"><line x1="648.4" y1="448.5" x2="660.9" y2="448.5" stroke="#666" stroke-width="0.5"></line><line x1="660.9" y1="448.5" x2="660.9" y2="457.4" stroke="#666" stroke-width="0.5"></line><line x1="660.9" y1="457.4" x2="673.4" y2="457.4" stroke="#666" stroke-width="0.5"></line></g><rect x="643.4" y="450.65" width="151.235" height="13.5" fill="#fff" opacity="0"></rect><text font-size="13.50" x="678.4" y="461.4" fill="#34983f"><tspan x="678.4" y="461.45">Lung and bronchus</tspan></text></g><g class="legendMark"><g class="indicator"><line x1="648.4" y1="453" x2="654.2333333333333" y2="453" stroke="#666" stroke-width="0.5"></line><line x1="654.2333333333333" y1="453" x2="654.2333333333333" y2="472.9" stroke="#666" stroke-width="0.5"></line><line x1="654.2333333333333" y1="472.9" x2="673.4" y2="472.9" stroke="#666" stroke-width="0.5"></line></g><rect x="643.4" y="466.15" width="64.295" height="13.5" fill="#fff" opacity="0"></rect><text font-size="13.50" x="678.4" y="476.9" fill="#ca2628"><tspan x="678.4" y="476.95">Liver</tspan></text></g><g class="legendMark"><g class="indicator"><line x1="648.4" y1="496.6" x2="660.9" y2="496.6" stroke="#666" stroke-width="0.5"></line><line x1="660.9" y1="496.6" x2="660.9" y2="496.6" stroke="#666" stroke-width="0.5"></line><line x1="660.9" y1="496.6" x2="673.4" y2="496.6" stroke="#666" stroke-width="0.5"></line></g><rect x="643.4" y="489.85" width="92.24000000000001" height="13.5" fill="#fff" opacity="0"></rect><text font-size="13.50" x="678.4" y="500.7" fill="#3360a9"><tspan x="678.4" y="500.65000000000003">Pancreas</tspan></text></g></g><g class="Lines"><rect x="53" y="92" width="591" height="443" fill="rgba(255,255,255,0)" opacity="0"></rect><g class="key-All-races__002c-total_0"><path stroke="#e6332e" stroke-linecap="round" d="M53 318L102 317L151 312L200 302L250 289L299 269L348 263L397 254L447 242L529 235L643 227" fill="none" stroke-width="1.5"></path><g fill="#e6332e"><circle cx="53" cy="318" r="2"></circle><circle cx="102" cy="317" r="2"></circle><circle cx="151" cy="312" r="2"></circle><circle cx="200" cy="302" r="2"></circle><circle cx="250" cy="289" r="2"></circle><circle cx="299" cy="269" r="2"></circle><circle cx="348" cy="263" r="2"></circle><circle cx="397" cy="254" r="2"></circle><circle cx="447" cy="242" r="2"></circle><circle cx="529" cy="235" r="2"></circle><circle cx="643" cy="227" r="2"></circle></g></g><g class="key-All-races__002c-total_1"><path stroke="#6bb537" stroke-linecap="round" d="M53 214L102 207L151 194L200 194L250 184L299 183L348 178L397 183L447 179L529 179L643 188" fill="none" stroke-width="1.5"></path><g fill="#6bb537"><circle cx="53" cy="214" r="2"></circle><circle cx="102" cy="207" r="2"></circle><circle cx="151" cy="194" r="2"></circle><circle cx="200" cy="194" r="2"></circle><circle cx="250" cy="184" r="2"></circle><circle cx="299" cy="183" r="2"></circle><circle cx="348" cy="178" r="2"></circle><circle cx="397" cy="183" r="2"></circle><circle cx="447" cy="179" r="2"></circle><circle cx="529" cy="179" r="2"></circle><circle cx="643" cy="188" r="2"></circle></g></g><g class="key-All-races__002c-total_10"><path stroke="#9ecc8a" stroke-linecap="round" d="M53 426L102 420L151 413L200 414L250 414L299 405L348 395L397 391L447 382L529 340L643 308" fill="none" stroke-width="1.5"></path><g fill="#9ecc8a"><circle cx="53" cy="426" r="2"></circle><circle cx="102" cy="420" r="2"></circle><circle cx="151" cy="413" r="2"></circle><circle cx="200" cy="414" r="2"></circle><circle cx="250" cy="414" r="2"></circle><circle cx="299" cy="405" r="2"></circle><circle cx="348" cy="395" r="2"></circle><circle cx="397" cy="391" r="2"></circle><circle cx="447" cy="382" r="2"></circle><circle cx="529" cy="340" r="2"></circle><circle cx="643" cy="308" r="2"></circle></g></g><g class="key-All-races__002c-total_11"><path stroke="#e6332e" stroke-linecap="round" d="M53 375L102 368L151 362L200 364L250 365L299 355L348 351L397 340L447 340L529 338L643 328" fill="none" stroke-width="1.5"></path><g fill="#e6332e"><circle cx="53" cy="375" r="2"></circle><circle cx="102" cy="368" r="2"></circle><circle cx="151" cy="362" r="2"></circle><circle cx="200" cy="364" r="2"></circle><circle cx="250" cy="365" r="2"></circle><circle cx="299" cy="355" r="2"></circle><circle cx="348" cy="351" r="2"></circle><circle cx="397" cy="340" r="2"></circle><circle cx="447" cy="340" r="2"></circle><circle cx="529" cy="338" r="2"></circle><circle cx="643" cy="328" r="2"></circle></g></g><g class="key-All-races__002c-total_12"><path stroke="#3360a9" stroke-linecap="round" d="M53 524L102 522L151 523L200 522L250 520L299 516L348 518L397 516L447 513L529 508L643 497" fill="none" stroke-width="1.5"></path><g fill="#3360a9"><circle cx="53" cy="524" r="2"></circle><circle cx="102" cy="522" r="2"></circle><circle cx="151" cy="523" r="2"></circle><circle cx="200" cy="522" r="2"></circle><circle cx="250" cy="520" r="2"></circle><circle cx="299" cy="516" r="2"></circle><circle cx="348" cy="518" r="2"></circle><circle cx="397" cy="516" r="2"></circle><circle cx="447" cy="513" r="2"></circle><circle cx="529" cy="508" r="2"></circle><circle cx="643" cy="497" r="2"></circle></g></g><g class="key-All-races__002c-total_13"><path stroke="#818282" stroke-linecap="round" d="M53 234L102 223L151 215L200 201L250 167L299 122L348 112L397 102L447 93L529 92L643 94" fill="none" stroke-width="1.5"></path><g fill="#818282"><circle cx="53" cy="234" r="2"></circle><circle cx="102" cy="223" r="2"></circle><circle cx="151" cy="215" r="2"></circle><circle cx="200" cy="201" r="2"></circle><circle cx="250" cy="167" r="2"></circle><circle cx="299" cy="122" r="2"></circle><circle cx="348" cy="112" r="2"></circle><circle cx="397" cy="102" r="2"></circle><circle cx="447" cy="93" r="2"></circle><circle cx="529" cy="92" r="2"></circle><circle cx="643" cy="94" r="2"></circle></g></g><g class="key-All-races__002c-total_14"><path stroke="#ce8ebd" stroke-linecap="round" d="M53 171L102 167L151 167L200 150L250 143L299 138L348 136L397 130L447 125L529 121L643 119" fill="none" stroke-width="1.5"></path><g fill="#ce8ebd"><circle cx="53" cy="171" r="2"></circle><circle cx="102" cy="167" r="2"></circle><circle cx="151" cy="167" r="2"></circle><circle cx="200" cy="150" r="2"></circle><circle cx="250" cy="143" r="2"></circle><circle cx="299" cy="138" r="2"></circle><circle cx="348" cy="136" r="2"></circle><circle cx="397" cy="130" r="2"></circle><circle cx="447" cy="125" r="2"></circle><circle cx="529" cy="121" r="2"></circle><circle cx="643" cy="119" r="2"></circle></g></g><g class="key-All-races__002c-total_15"><path stroke="#a652ba" stroke-linecap="round" d="M53 468L102 464L151 459L200 457L250 448L299 442L348 442L397 436L447 428L529 411L643 397" fill="none" stroke-width="1.5"></path><g fill="#a652ba"><circle cx="53" cy="468" r="2"></circle><circle cx="102" cy="464" r="2"></circle><circle cx="151" cy="459" r="2"></circle><circle cx="200" cy="457" r="2"></circle><circle cx="250" cy="448" r="2"></circle><circle cx="299" cy="442" r="2"></circle><circle cx="348" cy="442" r="2"></circle><circle cx="397" cy="436" r="2"></circle><circle cx="447" cy="428" r="2"></circle><circle cx="529" cy="411" r="2"></circle><circle cx="643" cy="397" r="2"></circle></g></g><g class="key-All-races__002c-total_16"><path stroke="#5eb77e" stroke-linecap="round" d="M53 126L102 126L151 119L200 121L250 115L299 116L348 111L397 110L447 106L529 101L643 98" fill="none" stroke-width="1.5"></path><g fill="#5eb77e"><circle cx="53" cy="126" r="2"></circle><circle cx="102" cy="126" r="2"></circle><circle cx="151" cy="119" r="2"></circle><circle cx="200" cy="121" r="2"></circle><circle cx="250" cy="115" r="2"></circle><circle cx="299" cy="116" r="2"></circle><circle cx="348" cy="111" r="2"></circle><circle cx="397" cy="110" r="2"></circle><circle cx="447" cy="106" r="2"></circle><circle cx="529" cy="101" r="2"></circle><circle cx="643" cy="98" r="2"></circle></g></g><g class="key-All-races__002c-total_2"><path stroke="#2a939b" stroke-linecap="round" d="M53 435L102 430L151 428L200 416L250 407L299 401L348 392L397 396L447 385L529 379L643 376" fill="none" stroke-width="1.5"></path><g fill="#2a939b"><circle cx="53" cy="435" r="2"></circle><circle cx="102" cy="430" r="2"></circle><circle cx="151" cy="428" r="2"></circle><circle cx="200" cy="416" r="2"></circle><circle cx="250" cy="407" r="2"></circle><circle cx="299" cy="401" r="2"></circle><circle cx="348" cy="392" r="2"></circle><circle cx="397" cy="396" r="2"></circle><circle cx="447" cy="385" r="2"></circle><circle cx="529" cy="379" r="2"></circle><circle cx="643" cy="376" r="2"></circle></g></g><g class="key-All-races__002c-total_3"><path stroke="#f07f59" stroke-linecap="round" d="M53 203L102 204L151 197L200 184L250 162L299 156L348 151L397 143L447 136L529 134L643 130" fill="none" stroke-width="1.5"></path><g fill="#f07f59"><circle cx="53" cy="203" r="2"></circle><circle cx="102" cy="204" r="2"></circle><circle cx="151" cy="197" r="2"></circle><circle cx="200" cy="184" r="2"></circle><circle cx="250" cy="162" r="2"></circle><circle cx="299" cy="156" r="2"></circle><circle cx="348" cy="151" r="2"></circle><circle cx="397" cy="143" r="2"></circle><circle cx="447" cy="136" r="2"></circle><circle cx="529" cy="134" r="2"></circle><circle cx="643" cy="130" r="2"></circle></g></g><g class="key-All-races__002c-total_4"><path stroke="#7ec7ce" stroke-linecap="round" d="M53 228L102 235L151 238L200 236L250 223L299 226L348 212L397 212L447 213L529 226L643 229" fill="none" stroke-width="1.5"></path><g fill="#7ec7ce"><circle cx="53" cy="228" r="2"></circle><circle cx="102" cy="235" r="2"></circle><circle cx="151" cy="238" r="2"></circle><circle cx="200" cy="236" r="2"></circle><circle cx="250" cy="223" r="2"></circle><circle cx="299" cy="226" r="2"></circle><circle cx="348" cy="212" r="2"></circle><circle cx="397" cy="212" r="2"></circle><circle cx="447" cy="213" r="2"></circle><circle cx="529" cy="226" r="2"></circle><circle cx="643" cy="229" r="2"></circle></g></g><g class="key-All-races__002c-total_5"><path stroke="#b077b1" stroke-linecap="round" d="M53 314L102 308L151 295L200 279L250 270L299 263L348 269L397 258L447 246L529 242L643 240" fill="none" stroke-width="1.5"></path><g fill="#b077b1"><circle cx="53" cy="314" r="2"></circle><circle cx="102" cy="308" r="2"></circle><circle cx="151" cy="295" r="2"></circle><circle cx="200" cy="279" r="2"></circle><circle cx="250" cy="270" r="2"></circle><circle cx="299" cy="263" r="2"></circle><circle cx="348" cy="269" r="2"></circle><circle cx="397" cy="258" r="2"></circle><circle cx="447" cy="246" r="2"></circle><circle cx="529" cy="242" r="2"></circle><circle cx="643" cy="240" r="2"></circle></g></g><g class="key-All-races__002c-total_6"><path stroke="#f6a324" stroke-linecap="round" d="M53 513L102 513L151 506L200 493L250 494L299 481L348 482L397 476L447 455L529 452L643 442" fill="none" stroke-width="1.5"></path><g fill="#f6a324"><circle cx="53" cy="513" r="2"></circle><circle cx="102" cy="513" r="2"></circle><circle cx="151" cy="506" r="2"></circle><circle cx="200" cy="493" r="2"></circle><circle cx="250" cy="494" r="2"></circle><circle cx="299" cy="481" r="2"></circle><circle cx="348" cy="482" r="2"></circle><circle cx="397" cy="476" r="2"></circle><circle cx="447" cy="455" r="2"></circle><circle cx="529" cy="452" r="2"></circle><circle cx="643" cy="442" r="2"></circle></g></g><g class="key-All-races__002c-total_7"><path stroke="#ffd53e" stroke-linecap="round" d="M53 384L102 375L151 369L200 355L250 344L299 334L348 324L397 320L447 309L529 271L643 252" fill="none" stroke-width="1.5"></path><g fill="#ffd53e"><circle cx="53" cy="384" r="2"></circle><circle cx="102" cy="375" r="2"></circle><circle cx="151" cy="369" r="2"></circle><circle cx="200" cy="355" r="2"></circle><circle cx="250" cy="344" r="2"></circle><circle cx="299" cy="334" r="2"></circle><circle cx="348" cy="324" r="2"></circle><circle cx="397" cy="320" r="2"></circle><circle cx="447" cy="309" r="2"></circle><circle cx="529" cy="271" r="2"></circle><circle cx="643" cy="252" r="2"></circle></g></g><g class="key-All-races__002c-total_8"><path stroke="#ca2628" stroke-linecap="round" d="M53 520L102 521L151 519L200 510L250 514L299 510L348 510L397 497L447 485L529 465L643 453" fill="none" stroke-width="1.5"></path><g fill="#ca2628"><circle cx="53" cy="520" r="2"></circle><circle cx="102" cy="521" r="2"></circle><circle cx="151" cy="519" r="2"></circle><circle cx="200" cy="510" r="2"></circle><circle cx="250" cy="514" r="2"></circle><circle cx="299" cy="510" r="2"></circle><circle cx="348" cy="510" r="2"></circle><circle cx="397" cy="497" r="2"></circle><circle cx="447" cy="485" r="2"></circle><circle cx="529" cy="465" r="2"></circle><circle cx="643" cy="453" r="2"></circle></g></g><g class="key-All-races__002c-total_9"><path stroke="#34983f" stroke-linecap="round" d="M53 481L102 478L151 477L200 478L250 478L299 475L348 472L397 470L447 467L529 461L643 449" fill="none" stroke-width="1.5"></path><g fill="#34983f"><circle cx="53" cy="481" r="2"></circle><circle cx="102" cy="478" r="2"></circle><circle cx="151" cy="477" r="2"></circle><circle cx="200" cy="478" r="2"></circle><circle cx="250" cy="478" r="2"></circle><circle cx="299" cy="475" r="2"></circle><circle cx="348" cy="472" r="2"></circle><circle cx="397" cy="470" r="2"></circle><circle cx="447" cy="467" r="2"></circle><circle cx="529" cy="461" r="2"></circle><circle cx="643" cy="449" r="2"></circle></g></g></g></g></g><g style="fill: #777;" class="SourcesFooter"><g style="fill: #777;" class="clickable"><text font-size="12.60" x="15.0" y="581.6"><tspan x="15" y="581.58">Source: National Cancer Institute</tspan></text></g><text font-size="12.60" x="775.4" y="581.6"><tspan x="775.402" y="581.58"><a style="fill: #777;" class="cclogo" href="http://creativecommons.org/licenses/by-sa/4.0/deed.en_US" target="_blank">CC BY-SA</a></tspan></text></g></g></svg>