<svg xmlns="http://www.w3.org/2000/svg" version="1.1" style="font-family:&#x27;Helvetica Neue&#x27;, Helvetica, Arial, sans-serif;font-size:18px;background-color:white;text-rendering:optimizeLegibility;-webkit-font-smoothing:antialiased" width="850" height="600"><g class="ChartTab"><g class="HeaderView"><g opacity="0.8" transform="translate(778, 15) scale(0.27)"><a xmlns:xlink="http://www.w3.org/1999/xlink" xlink:href="https://ourworldindata.org" target="_blank"><g><rect x="0" y="0" fill="#1B2543" width="211.2" height="130.1"/><rect x="0" y="112.2" fill="#E63912" width="211.2" height="17.9"/><g><rect x="1.2" y="12.3" fill="none" width="210.2" height="99.2"/><path fill="#FFFFFF" d="M37.8,32.2c0,12.7-7.7,19.4-17.1,19.4c-9.7,0-16.6-7.5-16.6-18.7c0-11.7,7.3-19.3,17.1-19.3 C31.3,13.7,37.8,21.3,37.8,32.2z M9.2,32.8c0,7.9,4.3,14.9,11.8,14.9c7.5,0,11.8-6.9,11.8-15.3c0-7.3-3.8-14.9-11.8-14.9 C13.1,17.5,9.2,24.8,9.2,32.8z"/><path fill="#FFFFFF" d="M62.7,43.8c0,2.7,0.1,5.1,0.2,7.2h-4.3l-0.3-4.3h-0.1c-1.3,2.1-4,4.9-8.8,4.9c-4.2,0-9.1-2.3-9.1-11.6 V24.6h4.8v14.6c0,5,1.5,8.4,5.9,8.4c3.2,0,5.5-2.2,6.3-4.4c0.3-0.7,0.4-1.6,0.4-2.5V24.6h4.8V43.8z"/><path fill="#FFFFFF" d="M67.3,32.8c0-3.1-0.1-5.8-0.2-8.2h4.2l0.2,5.2h0.2c1.2-3.5,4.1-5.8,7.3-5.8c0.5,0,0.9,0.1,1.4,0.2v4.5 c-0.5-0.1-1-0.2-1.6-0.2c-3.4,0-5.8,2.6-6.5,6.2c-0.1,0.7-0.2,1.4-0.2,2.2V51h-4.8V32.8z"/><path fill="#FFFFFF" d="M95.4,51l-9.4-36.8h5l4.4,18.6c1.1,4.6,2.1,9.2,2.7,12.7h0.1c0.6-3.7,1.8-8,3-12.8l4.9-18.5h5l4.5,18.7 c1,4.4,2,8.7,2.6,12.6h0.1c0.8-4,1.8-8.1,3-12.7l4.9-18.5h4.9L120.6,51h-5L111,31.9c-1.1-4.7-1.9-8.3-2.4-12h-0.1 c-0.7,3.7-1.5,7.3-2.8,12L100.4,51H95.4z"/><path fill="#FFFFFF" d="M154.9,37.6c0,9.8-6.8,14-13.2,14c-7.2,0-12.7-5.2-12.7-13.6c0-8.8,5.8-14,13.1-14 C149.8,24,154.9,29.5,154.9,37.6z M133.9,37.9c0,5.8,3.3,10.1,8,10.1c4.6,0,8-4.3,8-10.3c0-4.5-2.2-10.1-7.9-10.1 C136.3,27.6,133.9,32.8,133.9,37.9z"/><path fill="#FFFFFF" d="M158.2,32.8c0-3.1-0.1-5.8-0.2-8.2h4.2l0.2,5.2h0.2c1.2-3.5,4.1-5.8,7.3-5.8c0.5,0,0.9,0.1,1.4,0.2v4.5 c-0.5-0.1-1-0.2-1.6-0.2c-3.4,0-5.8,2.6-6.5,6.2c-0.1,0.7-0.2,1.4-0.2,2.2V51h-4.8V32.8z"/><path fill="#FFFFFF" d="M173.5,12.3h4.8V51h-4.8V12.3z"/><path fill="#FFFFFF" d="M206.5,12.3v31.9c0,2.3,0.1,5,0.2,6.8h-4.3l-0.2-4.6H202c-1.5,2.9-4.7,5.2-9,5.2 c-6.4,0-11.3-5.4-11.3-13.4c-0.1-8.8,5.4-14.2,11.9-14.2c4,0,6.8,1.9,8,4h0.1V12.3H206.5z M201.7,35.4c0-0.6-0.1-1.4-0.2-2 c-0.7-3.1-3.3-5.6-6.9-5.6c-5,0-7.9,4.4-7.9,10.2c0,5.3,2.6,9.8,7.8,9.8c3.2,0,6.2-2.1,7.1-5.7c0.2-0.7,0.2-1.3,0.2-2.1V35.4z"/><path fill="#FFFFFF" d="M42.8,64c0.1,1.6-1.1,2.9-3.1,2.9c-1.7,0-2.9-1.3-2.9-2.9c0-1.7,1.3-3,3-3C41.7,61,42.8,62.3,42.8,64z M37.4,97.8V71.4h4.8v26.4H37.4z"/><path fill="#FFFFFF" d="M47.5,78.6c0-2.7-0.1-5-0.2-7.1h4.3l0.3,4.4h0.1c1.3-2.5,4.4-5,8.8-5c3.7,0,9.4,2.2,9.4,11.2v15.8h-4.8 V82.6c0-4.3-1.6-7.8-6.1-7.8c-3.2,0-5.6,2.2-6.5,4.9c-0.2,0.6-0.3,1.4-0.3,2.2v15.9h-4.8V78.6z"/><path fill="#FFFFFF" d="M84,61.6c2.9-0.4,6.3-0.8,10.1-0.8c6.8,0,11.7,1.6,14.9,4.6c3.3,3,5.2,7.3,5.2,13.2c0,6-1.9,10.9-5.3,14.3 c-3.4,3.4-9.1,5.3-16.3,5.3c-3.4,0-6.2-0.2-8.6-0.4V61.6z M88.8,94.1c1.2,0.2,3,0.3,4.8,0.3c10.2,0,15.7-5.7,15.7-15.6 c0.1-8.7-4.9-14.2-14.9-14.2c-2.5,0-4.3,0.2-5.6,0.5V94.1z"/><path fill="#FFFFFF" d="M132.1,97.8l-0.4-3.3h-0.2c-1.5,2.1-4.3,3.9-8.1,3.9c-5.4,0-8.1-3.8-8.1-7.6c0-6.4,5.7-9.9,15.9-9.8v-0.5 c0-2.2-0.6-6.1-6-6.1c-2.5,0-5,0.8-6.9,2l-1.1-3.2c2.2-1.4,5.4-2.3,8.7-2.3c8.1,0,10.1,5.5,10.1,10.8v9.9c0,2.3,0.1,4.5,0.4,6.3 H132.1z M131.4,84.4c-5.3-0.1-11.2,0.8-11.2,5.9c0,3.1,2.1,4.6,4.5,4.6c3.4,0,5.6-2.2,6.4-4.4c0.2-0.5,0.3-1,0.3-1.5V84.4z"/><path fill="#FFFFFF" d="M146.6,63.9v7.6h6.9v3.7h-6.9v14.2c0,3.3,0.9,5.1,3.6,5.1c1.3,0,2.2-0.2,2.8-0.3l0.2,3.6 c-0.9,0.4-2.4,0.7-4.3,0.7c-2.2,0-4-0.7-5.2-2c-1.4-1.4-1.9-3.8-1.9-6.9V75.1h-4.1v-3.7h4.1v-6.3L146.6,63.9z"/><path fill="#FFFFFF" d="M171.4,97.8l-0.4-3.3h-0.2c-1.5,2.1-4.3,3.9-8.1,3.9c-5.4,0-8.1-3.8-8.1-7.6c0-6.4,5.7-9.9,15.9-9.8v-0.5 c0-2.2-0.6-6.1-6-6.1c-2.5,0-5,0.8-6.9,2l-1.1-3.2c2.2-1.4,5.4-2.3,8.7-2.3c8.1,0,10.1,5.5,10.1,10.8v9.9c0,2.3,0.1,4.5,0.4,6.3 H171.4z M170.7,84.4c-5.3-0.1-11.2,0.8-11.2,5.9c0,3.1,2.1,4.6,4.5,4.6c3.4,0,5.6-2.2,6.4-4.4c0.2-0.5,0.3-1,0.3-1.5V84.4z"/></g></g></a></g><a href="https://ourworldindata.org/grapher/food-expenditure-as-share-of-family-disposable-income" target="_blank"><text font-size="22.50" x="15.0" y="33.0" fill="#555"><tspan x="15" y="33">Food expenditure as a share of family disposable income, United States</tspan></text></a><text font-size="14.40" x="15.0" y="51.0" fill="#666"><tspan x="15" y="51.019999999999996">Food expenditure, differentiated between that consumed at home and away from home (such as restaurants, cafes,</tspan><tspan x="15" y="66.86">colleges, work etc.) as a share of the average family&#x27;s disposable income. This does not include alcoholic beverages</tspan><tspan x="15" y="82.7">or tobacco.</tspan></text></g><g class="StackedArea"><defs><clipPath id="boundsClip-118"><rect x="52.562" y="0" width="820" height="903.2"></rect></clipPath></defs><g class="AxisBoxView"><g class="HorizontalAxis"><text x="52.6" y="556.5" fill="#666" text-anchor="middle" font-size="16.2">1929</text><text x="134.8" y="556.5" fill="#666" text-anchor="middle" font-size="16.2">1940</text><text x="284.2" y="556.5" fill="#666" text-anchor="middle" font-size="16.2">1960</text><text x="433.6" y="556.5" fill="#666" text-anchor="middle" font-size="16.2">1980</text><text x="583.1" y="556.5" fill="#666" text-anchor="middle" font-size="16.2">2000</text><text x="687.7" y="556.5" fill="#666" text-anchor="middle" font-size="16.2">2014</text></g><g class="VerticalAxis"><text x="47.56" y="535.3" fill="#666" dominant-baseline="middle" text-anchor="end" font-size="16.2">0%</text><text x="47.56" y="449.2" fill="#666" dominant-baseline="middle" text-anchor="end" font-size="16.2">5%</text><text x="47.56" y="363.1" fill="#666" dominant-baseline="middle" text-anchor="end" font-size="16.2">10%</text><text x="47.56" y="277.1" fill="#666" dominant-baseline="middle" text-anchor="end" font-size="16.2">15%</text><text x="47.56" y="191" fill="#666" dominant-baseline="middle" text-anchor="end" font-size="16.2">20%</text><text x="47.56" y="104.9" fill="#666" dominant-baseline="middle" text-anchor="end" font-size="16.2">25%</text></g><g class="AxisGridLines"><line x1="52.56" y1="535.3" x2="687.68" y2="535.3" stroke="#ccc"></line><line x1="52.56" y1="449.2" x2="687.68" y2="449.2" stroke="#ddd" stroke-dasharray="3,2"></line><line x1="52.56" y1="363.1" x2="687.68" y2="363.1" stroke="#ddd" stroke-dasharray="3,2"></line><line x1="52.56" y1="277.1" x2="687.68" y2="277.1" stroke="#ddd" stroke-dasharray="3,2"></line><line x1="52.56" y1="191" x2="687.68" y2="191" stroke="#ddd" stroke-dasharray="3,2"></line><line x1="52.56" y1="104.9" x2="687.68" y2="104.9" stroke="#ddd" stroke-dasharray="3,2"></line></g></g><g clip-path="url(#boundsClip-118)"><g class="HeightedLegend clickable"><g class="legendMark"><rect x="687.6800000000001" y="400.75" width="147.32" height="28.1" fill="#fff" opacity="0"></rect><text font-size="13.50" x="692.7" y="411.6" fill="#2a939b"><tspan x="692.6800000000001" y="411.55">Food consumed at</tspan><tspan x="692.6800000000001" y="426.40000000000003">home</tspan></text></g><g class="legendMark"><rect x="687.6800000000001" y="484.55" width="135.03500000000003" height="28.1" fill="#fff" opacity="0"></rect><text font-size="13.50" x="692.7" y="495.4" fill="#e6332e"><tspan x="692.6800000000001" y="495.35">Food consumed</tspan><tspan x="692.6800000000001" y="510.20000000000005">away from home</tspan></text></g></g><g class="Areas"><rect x="52.562" y="104.9" width="635.118" height="430.4000000000001" opacity="0" fill="rgba(255,255,255,0)"></rect><path class="United-States_1-area" stroke-linecap="round" d="M52.6 481.4L60 482.4L67.5 479.3L75 476.2L82.4 479.7L89.9 480.2L97.4 483.5L104.9 484.5L112.3 483.3L119.8 481.4L127.3 480.7L134.8 482.1L142.2 483.1L149.7 484.3L157.2 479.7L164.6 477.5L172.1 472.5L179.6 467.6L187.1 462.5L194.5 468.8L202 466.4L209.5 474.5L216.9 474.4L224.4 474.9L231.9 477.1L239.4 476.6L246.8 477.5L254.3 477.8L261.8 478.3L269.2 479.2L276.7 477.5L284.2 477.8L291.7 478L299.1 478L306.6 478.1L314.1 478.7L321.6 478.5L329 477.5L336.5 477.8L344 477.3L351.4 477.5L358.9 475.6L366.4 477.1L373.9 475.4L381.3 475.6L388.8 474.9L396.3 470.4L403.7 467L411.2 466.3L418.7 464L426.2 462.1L433.6 462.6L441.1 462L448.6 461.1L456 460.6L463.5 463L471 463.9L478.5 463L485.9 463.7L493.4 464.4L500.9 465.9L508.4 465.4L515.8 464.7L523.3 467L530.8 464.9L538.2 464.7L545.7 464L553.2 466.8L560.7 466.1L568.1 467.1L575.6 467.3L583.1 467.5L590.5 468.5L598 470.1L605.5 467.5L613 468.5L620.4 465.4L627.9 465.2L635.4 464.7L642.8 466.1L650.3 466.3L657.8 466.1L665.3 465.6L672.7 465.4L680.2 462.3L687.7 462L687.6800000000001 535.3000000000001L52.562 535.3000000000001" fill="#e6332e" fill-opacity="0.7"></path><path class="United-States_0-area" stroke-linecap="round" d="M52.6 132.6L60 119.4L67.5 140.9L75 142.4L82.4 104.9L89.9 121.1L97.4 135.2L104.9 162.6L112.3 168.8L119.8 158.6L127.3 171.5L134.8 183.1L142.2 207.5L149.7 223.5L157.2 224.6L164.6 227L172.1 212.8L179.6 172.2L187.1 139L194.5 159.6L202 163.1L209.5 188.9L216.9 184.4L224.4 187.9L231.9 203.4L239.4 208.5L246.8 224.4L254.3 232.6L261.8 227.3L269.2 227.5L276.7 238.3L284.2 242.5L291.7 250.7L299.1 259.7L306.6 268.8L314.1 277.9L321.6 282.6L329 288.1L336.5 299.6L344 304.8L351.4 306.8L358.9 304.8L366.4 312.2L373.9 310.8L381.3 313.2L388.8 306.7L396.3 304.6L403.7 304.6L411.2 308L418.7 308.6L426.2 306.2L433.6 308.4L441.1 312.4L448.6 318.4L456 321.5L463.5 330.3L471 333.9L478.5 335.9L485.9 338.2L493.4 340.2L500.9 342.7L508.4 339.9L515.8 338.5L523.3 347.8L530.8 347.8L538.2 348.9L545.7 352.1L553.2 356.3L560.7 357.6L568.1 363.1L575.6 363.7L583.1 367.1L590.5 367.8L598 369.2L605.5 368.1L613 371.2L620.4 367.6L627.9 370.5L635.4 369.9L642.8 371.1L650.3 370.9L657.8 371.1L665.3 370.4L672.7 371.6L680.2 366.4L687.7 367.6L687.7 462L680.2 462.3L672.7 465.4L665.3 465.6L657.8 466.1L650.3 466.3L642.8 466.1L635.4 464.7L627.9 465.2L620.4 465.4L613 468.5L605.5 467.5L598 470.1L590.5 468.5L583.1 467.5L575.6 467.3L568.1 467.1L560.7 466.1L553.2 466.8L545.7 464L538.2 464.7L530.8 464.9L523.3 467L515.8 464.7L508.4 465.4L500.9 465.9L493.4 464.4L485.9 463.7L478.5 463L471 463.9L463.5 463L456 460.6L448.6 461.1L441.1 462L433.6 462.6L426.2 462.1L418.7 464L411.2 466.3L403.7 467L396.3 470.4L388.8 474.9L381.3 475.6L373.9 475.4L366.4 477.1L358.9 475.6L351.4 477.5L344 477.3L336.5 477.8L329 477.5L321.6 478.5L314.1 478.7L306.6 478.1L299.1 478L291.7 478L284.2 477.8L276.7 477.5L269.2 479.2L261.8 478.3L254.3 477.8L246.8 477.5L239.4 476.6L231.9 477.1L224.4 474.9L216.9 474.4L209.5 474.5L202 466.4L194.5 468.8L187.1 462.5L179.6 467.6L172.1 472.5L164.6 477.5L157.2 479.7L149.7 484.3L142.2 483.1L134.8 482.1L127.3 480.7L119.8 481.4L112.3 483.3L104.9 484.5L97.4 483.5L89.9 480.2L82.4 479.7L75 476.2L67.5 479.3L60 482.4L52.6 481.4" fill="#2a939b" fill-opacity="0.7"></path><path class="United-States_1-border" stroke-linecap="round" d="M52.6 481.4L60 482.4L67.5 479.3L75 476.2L82.4 479.7L89.9 480.2L97.4 483.5L104.9 484.5L112.3 483.3L119.8 481.4L127.3 480.7L134.8 482.1L142.2 483.1L149.7 484.3L157.2 479.7L164.6 477.5L172.1 472.5L179.6 467.6L187.1 462.5L194.5 468.8L202 466.4L209.5 474.5L216.9 474.4L224.4 474.9L231.9 477.1L239.4 476.6L246.8 477.5L254.3 477.8L261.8 478.3L269.2 479.2L276.7 477.5L284.2 477.8L291.7 478L299.1 478L306.6 478.1L314.1 478.7L321.6 478.5L329 477.5L336.5 477.8L344 477.3L351.4 477.5L358.9 475.6L366.4 477.1L373.9 475.4L381.3 475.6L388.8 474.9L396.3 470.4L403.7 467L411.2 466.3L418.7 464L426.2 462.1L433.6 462.6L441.1 462L448.6 461.1L456 460.6L463.5 463L471 463.9L478.5 463L485.9 463.7L493.4 464.4L500.9 465.9L508.4 465.4L515.8 464.7L523.3 467L530.8 464.9L538.2 464.7L545.7 464L553.2 466.8L560.7 466.1L568.1 467.1L575.6 467.3L583.1 467.5L590.5 468.5L598 470.1L605.5 467.5L613 468.5L620.4 465.4L627.9 465.2L635.4 464.7L642.8 466.1L650.3 466.3L657.8 466.1L665.3 465.6L672.7 465.4L680.2 462.3L687.7 462" stroke="rgb(192, 43, 38)" stroke-opacity="0.7" stroke-width="0.5" fill="none"></path><path class="United-States_0-border" stroke-linecap="round" d="M52.6 132.6L60 119.4L67.5 140.9L75 142.4L82.4 104.9L89.9 121.1L97.4 135.2L104.9 162.6L112.3 168.8L119.8 158.6L127.3 171.5L134.8 183.1L142.2 207.5L149.7 223.5L157.2 224.6L164.6 227L172.1 212.8L179.6 172.2L187.1 139L194.5 159.6L202 163.1L209.5 188.9L216.9 184.4L224.4 187.9L231.9 203.4L239.4 208.5L246.8 224.4L254.3 232.6L261.8 227.3L269.2 227.5L276.7 238.3L284.2 242.5L291.7 250.7L299.1 259.7L306.6 268.8L314.1 277.9L321.6 282.6L329 288.1L336.5 299.6L344 304.8L351.4 306.8L358.9 304.8L366.4 312.2L373.9 310.8L381.3 313.2L388.8 306.7L396.3 304.6L403.7 304.6L411.2 308L418.7 308.6L426.2 306.2L433.6 308.4L441.1 312.4L448.6 318.4L456 321.5L463.5 330.3L471 333.9L478.5 335.9L485.9 338.2L493.4 340.2L500.9 342.7L508.4 339.9L515.8 338.5L523.3 347.8L530.8 347.8L538.2 348.9L545.7 352.1L553.2 356.3L560.7 357.6L568.1 363.1L575.6 363.7L583.1 367.1L590.5 367.8L598 369.2L605.5 368.1L613 371.2L620.4 367.6L627.9 370.5L635.4 369.9L642.8 371.1L650.3 370.9L657.8 371.1L665.3 370.4L672.7 371.6L680.2 366.4L687.7 367.6" stroke="rgb(35, 123, 130)" stroke-opacity="0.7" stroke-width="0.5" fill="none"></path></g></g></g><g class="SourcesFooter" style="fill:#777"><g class="clickable" style="fill:#777"><text font-size="12.60" x="15.0" y="581.6"><tspan x="15" y="581.58">Source: United States Department of Agriculture (USDA)</tspan></text></g><text font-size="12.60" x="775.4" y="581.6"><tspan x="775.402" y="581.58"><a style="fill: #777;" class="cclogo" href="http://creativecommons.org/licenses/by-sa/4.0/deed.en_US" target="_blank">CC BY-SA</a></tspan></text></g></g></svg>