<svg xmlns="http://www.w3.org/2000/svg" version="1.1" style="font-family:&#x27;Helvetica Neue&#x27;, Helvetica, Arial, sans-serif;font-size:18px;background-color:white;text-rendering:optimizeLegibility;-webkit-font-smoothing:antialiased" width="850" height="600"><g class="ChartTab"><g class="HeaderView"><g opacity="0.8" transform="translate(778, 15) scale(0.27)"><a xmlns:xlink="http://www.w3.org/1999/xlink" xlink:href="https://ourworldindata.org" target="_blank"><g><rect x="0" y="0" fill="#1B2543" width="211.2" height="130.1"/><rect x="0" y="112.2" fill="#E63912" width="211.2" height="17.9"/><g><rect x="1.2" y="12.3" fill="none" width="210.2" height="99.2"/><path fill="#FFFFFF" d="M37.8,32.2c0,12.7-7.7,19.4-17.1,19.4c-9.7,0-16.6-7.5-16.6-18.7c0-11.7,7.3-19.3,17.1-19.3 C31.3,13.7,37.8,21.3,37.8,32.2z M9.2,32.8c0,7.9,4.3,14.9,11.8,14.9c7.5,0,11.8-6.9,11.8-15.3c0-7.3-3.8-14.9-11.8-14.9 C13.1,17.5,9.2,24.8,9.2,32.8z"/><path fill="#FFFFFF" d="M62.7,43.8c0,2.7,0.1,5.1,0.2,7.2h-4.3l-0.3-4.3h-0.1c-1.3,2.1-4,4.9-8.8,4.9c-4.2,0-9.1-2.3-9.1-11.6 V24.6h4.8v14.6c0,5,1.5,8.4,5.9,8.4c3.2,0,5.5-2.2,6.3-4.4c0.3-0.7,0.4-1.6,0.4-2.5V24.6h4.8V43.8z"/><path fill="#FFFFFF" d="M67.3,32.8c0-3.1-0.1-5.8-0.2-8.2h4.2l0.2,5.2h0.2c1.2-3.5,4.1-5.8,7.3-5.8c0.5,0,0.9,0.1,1.4,0.2v4.5 c-0.5-0.1-1-0.2-1.6-0.2c-3.4,0-5.8,2.6-6.5,6.2c-0.1,0.7-0.2,1.4-0.2,2.2V51h-4.8V32.8z"/><path fill="#FFFFFF" d="M95.4,51l-9.4-36.8h5l4.4,18.6c1.1,4.6,2.1,9.2,2.7,12.7h0.1c0.6-3.7,1.8-8,3-12.8l4.9-18.5h5l4.5,18.7 c1,4.4,2,8.7,2.6,12.6h0.1c0.8-4,1.8-8.1,3-12.7l4.9-18.5h4.9L120.6,51h-5L111,31.9c-1.1-4.7-1.9-8.3-2.4-12h-0.1 c-0.7,3.7-1.5,7.3-2.8,12L100.4,51H95.4z"/><path fill="#FFFFFF" d="M154.9,37.6c0,9.8-6.8,14-13.2,14c-7.2,0-12.7-5.2-12.7-13.6c0-8.8,5.8-14,13.1-14 C149.8,24,154.9,29.5,154.9,37.6z M133.9,37.9c0,5.8,3.3,10.1,8,10.1c4.6,0,8-4.3,8-10.3c0-4.5-2.2-10.1-7.9-10.1 C136.3,27.6,133.9,32.8,133.9,37.9z"/><path fill="#FFFFFF" d="M158.2,32.8c0-3.1-0.1-5.8-0.2-8.2h4.2l0.2,5.2h0.2c1.2-3.5,4.1-5.8,7.3-5.8c0.5,0,0.9,0.1,1.4,0.2v4.5 c-0.5-0.1-1-0.2-1.6-0.2c-3.4,0-5.8,2.6-6.5,6.2c-0.1,0.7-0.2,1.4-0.2,2.2V51h-4.8V32.8z"/><path fill="#FFFFFF" d="M173.5,12.3h4.8V51h-4.8V12.3z"/><path fill="#FFFFFF" d="M206.5,12.3v31.9c0,2.3,0.1,5,0.2,6.8h-4.3l-0.2-4.6H202c-1.5,2.9-4.7,5.2-9,5.2 c-6.4,0-11.3-5.4-11.3-13.4c-0.1-8.8,5.4-14.2,11.9-14.2c4,0,6.8,1.9,8,4h0.1V12.3H206.5z M201.7,35.4c0-0.6-0.1-1.4-0.2-2 c-0.7-3.1-3.3-5.6-6.9-5.6c-5,0-7.9,4.4-7.9,10.2c0,5.3,2.6,9.8,7.8,9.8c3.2,0,6.2-2.1,7.1-5.7c0.2-0.7,0.2-1.3,0.2-2.1V35.4z"/><path fill="#FFFFFF" d="M42.8,64c0.1,1.6-1.1,2.9-3.1,2.9c-1.7,0-2.9-1.3-2.9-2.9c0-1.7,1.3-3,3-3C41.7,61,42.8,62.3,42.8,64z M37.4,97.8V71.4h4.8v26.4H37.4z"/><path fill="#FFFFFF" d="M47.5,78.6c0-2.7-0.1-5-0.2-7.1h4.3l0.3,4.4h0.1c1.3-2.5,4.4-5,8.8-5c3.7,0,9.4,2.2,9.4,11.2v15.8h-4.8 V82.6c0-4.3-1.6-7.8-6.1-7.8c-3.2,0-5.6,2.2-6.5,4.9c-0.2,0.6-0.3,1.4-0.3,2.2v15.9h-4.8V78.6z"/><path fill="#FFFFFF" d="M84,61.6c2.9-0.4,6.3-0.8,10.1-0.8c6.8,0,11.7,1.6,14.9,4.6c3.3,3,5.2,7.3,5.2,13.2c0,6-1.9,10.9-5.3,14.3 c-3.4,3.4-9.1,5.3-16.3,5.3c-3.4,0-6.2-0.2-8.6-0.4V61.6z M88.8,94.1c1.2,0.2,3,0.3,4.8,0.3c10.2,0,15.7-5.7,15.7-15.6 c0.1-8.7-4.9-14.2-14.9-14.2c-2.5,0-4.3,0.2-5.6,0.5V94.1z"/><path fill="#FFFFFF" d="M132.1,97.8l-0.4-3.3h-0.2c-1.5,2.1-4.3,3.9-8.1,3.9c-5.4,0-8.1-3.8-8.1-7.6c0-6.4,5.7-9.9,15.9-9.8v-0.5 c0-2.2-0.6-6.1-6-6.1c-2.5,0-5,0.8-6.9,2l-1.1-3.2c2.2-1.4,5.4-2.3,8.7-2.3c8.1,0,10.1,5.5,10.1,10.8v9.9c0,2.3,0.1,4.5,0.4,6.3 H132.1z M131.4,84.4c-5.3-0.1-11.2,0.8-11.2,5.9c0,3.1,2.1,4.6,4.5,4.6c3.4,0,5.6-2.2,6.4-4.4c0.2-0.5,0.3-1,0.3-1.5V84.4z"/><path fill="#FFFFFF" d="M146.6,63.9v7.6h6.9v3.7h-6.9v14.2c0,3.3,0.9,5.1,3.6,5.1c1.3,0,2.2-0.2,2.8-0.3l0.2,3.6 c-0.9,0.4-2.4,0.7-4.3,0.7c-2.2,0-4-0.7-5.2-2c-1.4-1.4-1.9-3.8-1.9-6.9V75.1h-4.1v-3.7h4.1v-6.3L146.6,63.9z"/><path fill="#FFFFFF" d="M171.4,97.8l-0.4-3.3h-0.2c-1.5,2.1-4.3,3.9-8.1,3.9c-5.4,0-8.1-3.8-8.1-7.6c0-6.4,5.7-9.9,15.9-9.8v-0.5 c0-2.2-0.6-6.1-6-6.1c-2.5,0-5,0.8-6.9,2l-1.1-3.2c2.2-1.4,5.4-2.3,8.7-2.3c8.1,0,10.1,5.5,10.1,10.8v9.9c0,2.3,0.1,4.5,0.4,6.3 H171.4z M170.7,84.4c-5.3-0.1-11.2,0.8-11.2,5.9c0,3.1,2.1,4.6,4.5,4.6c3.4,0,5.6-2.2,6.4-4.4c0.2-0.5,0.3-1,0.3-1.5V84.4z"/></g></g></a></g><a href="https://ourworldindata.org/grapher/food-supply-by-region-kilocalories" target="_blank"><text font-size="25.20" x="15.0" y="35.2" fill="#555"><tspan x="15" y="35.160000000000004">Food energy supply by region</tspan></text></a><text font-size="14.40" x="15.0" y="53.7" fill="#666"><tspan x="15" y="53.72">Daily per capita food supply by world region, measured on the basis of average caloric supply (kilocalories per person</tspan><tspan x="15" y="69.56">per day). Note that this measures the food available for consumption at the household level but does not account for</tspan><tspan x="15" y="85.4">any food wasted or not eaten at the consumption level.</tspan></text></g><g class="LineChart"><defs><clipPath id="boundsClip-5"><rect x="50.824" y="0" width="830" height="897.8"></rect></clipPath></defs><g class="AxisBoxView"><g class="HorizontalAxis"><text x="60.8" y="556.5" fill="#666" text-anchor="middle" font-size="16.2">1961</text><text x="170.4" y="556.5" fill="#666" text-anchor="middle" font-size="16.2">1970</text><text x="292.2" y="556.5" fill="#666" text-anchor="middle" font-size="16.2">1980</text><text x="414" y="556.5" fill="#666" text-anchor="middle" font-size="16.2">1990</text><text x="535.7" y="556.5" fill="#666" text-anchor="middle" font-size="16.2">2000</text><text x="694" y="556.5" fill="#666" text-anchor="middle" font-size="16.2">2013</text></g><g class="VerticalAxis"><text x="55.82" y="535.3" fill="#666" dominant-baseline="middle" text-anchor="end" font-size="16.2">0</text><text x="55.82" y="478.9" fill="#666" dominant-baseline="middle" text-anchor="end" font-size="16.2">500</text><text x="55.82" y="422.5" fill="#666" dominant-baseline="middle" text-anchor="end" font-size="16.2">1,000</text><text x="55.82" y="366.2" fill="#666" dominant-baseline="middle" text-anchor="end" font-size="16.2">1,500</text><text x="55.82" y="309.8" fill="#666" dominant-baseline="middle" text-anchor="end" font-size="16.2">2,000</text><text x="55.82" y="253.4" fill="#666" dominant-baseline="middle" text-anchor="end" font-size="16.2">2,500</text><text x="55.82" y="197" fill="#666" dominant-baseline="middle" text-anchor="end" font-size="16.2">3,000</text><text x="55.82" y="140.6" fill="#666" dominant-baseline="middle" text-anchor="end" font-size="16.2">3,500</text></g><g class="AxisGridLines"><line x1="60.82" y1="535.3" x2="694.02" y2="535.3" stroke="#ccc"></line><line x1="60.82" y1="478.9" x2="694.02" y2="478.9" stroke="#ddd" stroke-dasharray="3,2"></line><line x1="60.82" y1="422.5" x2="694.02" y2="422.5" stroke="#ddd" stroke-dasharray="3,2"></line><line x1="60.82" y1="366.2" x2="694.02" y2="366.2" stroke="#ddd" stroke-dasharray="3,2"></line><line x1="60.82" y1="309.8" x2="694.02" y2="309.8" stroke="#ddd" stroke-dasharray="3,2"></line><line x1="60.82" y1="253.4" x2="694.02" y2="253.4" stroke="#ddd" stroke-dasharray="3,2"></line><line x1="60.82" y1="197" x2="694.02" y2="197" stroke="#ddd" stroke-dasharray="3,2"></line><line x1="60.82" y1="140.6" x2="694.02" y2="140.6" stroke="#ddd" stroke-dasharray="3,2"></line></g></g><g clip-path="url(#boundsClip-5)"><g class="HeightedLegend clickable"><g class="legendMark"><g class="indicator"><line x1="699.025" y1="122.3" x2="711.525" y2="122.3" stroke="#666" stroke-width="0.5"></line><line x1="711.525" y1="122.3" x2="711.525" y2="122.3" stroke="#666" stroke-width="0.5"></line><line x1="711.525" y1="122.3" x2="724.025" y2="122.3" stroke="#666" stroke-width="0.5"></line></g><rect x="694.025" y="115.55" width="140.97500000000002" height="13.5" fill="#fff" opacity="0"></rect><text font-size="13.50" x="729.0" y="126.4" fill="#9ecc8a"><tspan x="729.025" y="126.35000000000001">Northern America</tspan></text></g><g class="legendMark"><g class="indicator"><line x1="699.025" y1="155.6" x2="711.525" y2="155.6" stroke="#666" stroke-width="0.5"></line><line x1="711.525" y1="155.6" x2="711.525" y2="155.6" stroke="#666" stroke-width="0.5"></line><line x1="711.525" y1="155.6" x2="724.025" y2="155.6" stroke="#666" stroke-width="0.5"></line></g><rect x="694.025" y="148.85" width="78.74000000000001" height="13.5" fill="#fff" opacity="0"></rect><text font-size="13.50" x="729.0" y="159.7" fill="#e6332e"><tspan x="729.025" y="159.65">Europe</tspan></text></g><g class="legendMark"><g class="indicator"><line x1="699.025" y1="172.7" x2="711.525" y2="172.7" stroke="#666" stroke-width="0.5"></line><line x1="711.525" y1="172.7" x2="711.525" y2="172.7" stroke="#666" stroke-width="0.5"></line><line x1="711.525" y1="172.7" x2="724.025" y2="172.7" stroke="#666" stroke-width="0.5"></line></g><rect x="694.025" y="165.95" width="85.49000000000001" height="13.5" fill="#fff" opacity="0"></rect><text font-size="13.50" x="729.0" y="176.8" fill="#2a939b"><tspan x="729.025" y="176.75">Oceania</tspan></text></g><g class="legendMark"><g class="indicator"><line x1="699.025" y1="194" x2="711.525" y2="194" stroke="#666" stroke-width="0.5"></line><line x1="711.525" y1="194" x2="711.525" y2="194" stroke="#666" stroke-width="0.5"></line><line x1="711.525" y1="194" x2="724.025" y2="194" stroke="#666" stroke-width="0.5"></line></g><rect x="694.025" y="187.25" width="123.83000000000001" height="13.5" fill="#fff" opacity="0"></rect><text font-size="13.50" x="729.0" y="198.1" fill="#a652ba"><tspan x="729.025" y="198.05">South America</tspan></text></g><g class="legendMark"><g class="indicator"><line x1="699.025" y1="210.1" x2="721.525" y2="210.1" stroke="#666" stroke-width="0.5"></line><line x1="721.525" y1="210.1" x2="721.525" y2="210.1" stroke="#666" stroke-width="0.5"></line><line x1="721.525" y1="210.1" x2="724.025" y2="210.1" stroke="#666" stroke-width="0.5"></line></g><rect x="694.025" y="203.35" width="70.235" height="13.5" fill="#fff" opacity="0"></rect><text font-size="13.50" x="729.0" y="214.2" fill="#f6a324"><tspan x="729.025" y="214.15">World</tspan></text></g><g class="legendMark"><g class="indicator"><line x1="699.025" y1="221.9" x2="716.525" y2="221.9" stroke="#666" stroke-width="0.5"></line><line x1="716.525" y1="221.9" x2="716.525" y2="225.6" stroke="#666" stroke-width="0.5"></line><line x1="716.525" y1="225.6" x2="724.025" y2="225.6" stroke="#666" stroke-width="0.5"></line></g><rect x="694.025" y="218.85" width="61.325" height="13.5" fill="#fff" opacity="0"></rect><text font-size="13.50" x="729.0" y="229.7" fill="#34983f"><tspan x="729.025" y="229.65">Asia</tspan></text></g><g class="legendMark"><g class="indicator"><line x1="699.025" y1="226.6" x2="711.525" y2="226.6" stroke="#666" stroke-width="0.5"></line><line x1="711.525" y1="226.6" x2="711.525" y2="241.1" stroke="#666" stroke-width="0.5"></line><line x1="711.525" y1="241.1" x2="724.025" y2="241.1" stroke="#666" stroke-width="0.5"></line></g><rect x="694.025" y="234.35" width="97.505" height="13.5" fill="#fff" opacity="0"></rect><text font-size="13.50" x="729.0" y="245.2" fill="#ca2628"><tspan x="729.025" y="245.15">Caribbean</tspan></text></g><g class="legendMark"><g class="indicator"><line x1="699.025" y1="239.4" x2="706.525" y2="239.4" stroke="#666" stroke-width="0.5"></line><line x1="706.525" y1="239.4" x2="706.525" y2="256.6" stroke="#666" stroke-width="0.5"></line><line x1="706.525" y1="256.6" x2="724.025" y2="256.6" stroke="#666" stroke-width="0.5"></line></g><rect x="694.025" y="249.85" width="69.56" height="13.5" fill="#fff" opacity="0"></rect><text font-size="13.50" x="729.0" y="260.7" fill="#3360a9"><tspan x="729.025" y="260.65000000000003">Africa</tspan></text></g></g><g class="Lines"><rect x="61" y="108" width="633" height="428" fill="rgba(255,255,255,0)" opacity="0"></rect><g class="key-Africa_0"><path stroke="#3360a9" stroke-linecap="round" d="M61 311L73 307L85 307L97 306L110 305L122 309L134 305L146 304L158 300L170 298L183 300L195 304L207 301L219 296L231 296L244 296L256 294L268 291L280 288L292 284L304 283L317 282L329 286L341 289L353 284L365 280L377 281L390 279L402 278L414 277L426 274L438 274L451 271L463 270L475 267L487 266L499 264L511 262L524 261L536 261L548 258L560 256L572 256L584 254L597 251L609 248L621 248L633 246L645 245L658 243L670 241L682 240L694 239" fill="none" stroke-width="1.5"></path><g fill="#3360a9"><circle cx="61" cy="311" r="2"></circle><circle cx="73" cy="307" r="2"></circle><circle cx="85" cy="307" r="2"></circle><circle cx="97" cy="306" r="2"></circle><circle cx="110" cy="305" r="2"></circle><circle cx="122" cy="309" r="2"></circle><circle cx="134" cy="305" r="2"></circle><circle cx="146" cy="304" r="2"></circle><circle cx="158" cy="300" r="2"></circle><circle cx="170" cy="298" r="2"></circle><circle cx="183" cy="300" r="2"></circle><circle cx="195" cy="304" r="2"></circle><circle cx="207" cy="301" r="2"></circle><circle cx="219" cy="296" r="2"></circle><circle cx="231" cy="296" r="2"></circle><circle cx="244" cy="296" r="2"></circle><circle cx="256" cy="294" r="2"></circle><circle cx="268" cy="291" r="2"></circle><circle cx="280" cy="288" r="2"></circle><circle cx="292" cy="284" r="2"></circle><circle cx="304" cy="283" r="2"></circle><circle cx="317" cy="282" r="2"></circle><circle cx="329" cy="286" r="2"></circle><circle cx="341" cy="289" r="2"></circle><circle cx="353" cy="284" r="2"></circle><circle cx="365" cy="280" r="2"></circle><circle cx="377" cy="281" r="2"></circle><circle cx="390" cy="279" r="2"></circle><circle cx="402" cy="278" r="2"></circle><circle cx="414" cy="277" r="2"></circle><circle cx="426" cy="274" r="2"></circle><circle cx="438" cy="274" r="2"></circle><circle cx="451" cy="271" r="2"></circle><circle cx="463" cy="270" r="2"></circle><circle cx="475" cy="267" r="2"></circle><circle cx="487" cy="266" r="2"></circle><circle cx="499" cy="264" r="2"></circle><circle cx="511" cy="262" r="2"></circle><circle cx="524" cy="261" r="2"></circle><circle cx="536" cy="261" r="2"></circle><circle cx="548" cy="258" r="2"></circle><circle cx="560" cy="256" r="2"></circle><circle cx="572" cy="256" r="2"></circle><circle cx="584" cy="254" r="2"></circle><circle cx="597" cy="251" r="2"></circle><circle cx="609" cy="248" r="2"></circle><circle cx="621" cy="248" r="2"></circle><circle cx="633" cy="246" r="2"></circle><circle cx="645" cy="245" r="2"></circle><circle cx="658" cy="243" r="2"></circle><circle cx="670" cy="241" r="2"></circle><circle cx="682" cy="240" r="2"></circle><circle cx="694" cy="239" r="2"></circle></g></g><g class="key-Asia_0"><path stroke="#34983f" stroke-linecap="round" d="M61 332L73 325L85 323L97 318L110 314L122 311L134 311L146 312L158 311L170 303L183 307L195 308L207 301L219 304L231 301L244 305L256 298L268 289L280 291L292 289L304 286L317 279L329 270L341 268L353 270L365 269L377 267L390 264L402 261L414 263L426 264L438 261L451 260L463 255L475 250L487 249L499 248L511 246L524 244L536 243L548 245L560 245L572 245L584 244L597 242L609 239L621 235L633 232L645 231L658 227L670 224L682 223L694 222" fill="none" stroke-width="1.5"></path><g fill="#34983f"><circle cx="61" cy="332" r="2"></circle><circle cx="73" cy="325" r="2"></circle><circle cx="85" cy="323" r="2"></circle><circle cx="97" cy="318" r="2"></circle><circle cx="110" cy="314" r="2"></circle><circle cx="122" cy="311" r="2"></circle><circle cx="134" cy="311" r="2"></circle><circle cx="146" cy="312" r="2"></circle><circle cx="158" cy="311" r="2"></circle><circle cx="170" cy="303" r="2"></circle><circle cx="183" cy="307" r="2"></circle><circle cx="195" cy="308" r="2"></circle><circle cx="207" cy="301" r="2"></circle><circle cx="219" cy="304" r="2"></circle><circle cx="231" cy="301" r="2"></circle><circle cx="244" cy="305" r="2"></circle><circle cx="256" cy="298" r="2"></circle><circle cx="268" cy="289" r="2"></circle><circle cx="280" cy="291" r="2"></circle><circle cx="292" cy="289" r="2"></circle><circle cx="304" cy="286" r="2"></circle><circle cx="317" cy="279" r="2"></circle><circle cx="329" cy="270" r="2"></circle><circle cx="341" cy="268" r="2"></circle><circle cx="353" cy="270" r="2"></circle><circle cx="365" cy="269" r="2"></circle><circle cx="377" cy="267" r="2"></circle><circle cx="390" cy="264" r="2"></circle><circle cx="402" cy="261" r="2"></circle><circle cx="414" cy="263" r="2"></circle><circle cx="426" cy="264" r="2"></circle><circle cx="438" cy="261" r="2"></circle><circle cx="451" cy="260" r="2"></circle><circle cx="463" cy="255" r="2"></circle><circle cx="475" cy="250" r="2"></circle><circle cx="487" cy="249" r="2"></circle><circle cx="499" cy="248" r="2"></circle><circle cx="511" cy="246" r="2"></circle><circle cx="524" cy="244" r="2"></circle><circle cx="536" cy="243" r="2"></circle><circle cx="548" cy="245" r="2"></circle><circle cx="560" cy="245" r="2"></circle><circle cx="572" cy="245" r="2"></circle><circle cx="584" cy="244" r="2"></circle><circle cx="597" cy="242" r="2"></circle><circle cx="609" cy="239" r="2"></circle><circle cx="621" cy="235" r="2"></circle><circle cx="633" cy="232" r="2"></circle><circle cx="645" cy="231" r="2"></circle><circle cx="658" cy="227" r="2"></circle><circle cx="670" cy="224" r="2"></circle><circle cx="682" cy="223" r="2"></circle><circle cx="694" cy="222" r="2"></circle></g></g><g class="key-World_0"><path stroke="#f6a324" stroke-linecap="round" d="M61 288L73 282L85 281L97 277L110 275L122 273L134 273L146 272L158 271L170 266L183 269L195 270L207 266L219 267L231 265L244 266L256 263L268 256L280 256L292 255L304 253L317 250L329 245L341 244L353 244L365 243L377 241L390 239L402 238L414 240L426 242L438 241L451 240L463 238L475 235L487 234L499 232L511 231L524 229L536 228L548 228L560 228L572 227L584 226L597 224L609 222L621 219L633 217L645 217L658 214L670 212L682 211L694 210" fill="none" stroke-width="1.5"></path><g fill="#f6a324"><circle cx="61" cy="288" r="2"></circle><circle cx="73" cy="282" r="2"></circle><circle cx="85" cy="281" r="2"></circle><circle cx="97" cy="277" r="2"></circle><circle cx="110" cy="275" r="2"></circle><circle cx="122" cy="273" r="2"></circle><circle cx="134" cy="273" r="2"></circle><circle cx="146" cy="272" r="2"></circle><circle cx="158" cy="271" r="2"></circle><circle cx="170" cy="266" r="2"></circle><circle cx="183" cy="269" r="2"></circle><circle cx="195" cy="270" r="2"></circle><circle cx="207" cy="266" r="2"></circle><circle cx="219" cy="267" r="2"></circle><circle cx="231" cy="265" r="2"></circle><circle cx="244" cy="266" r="2"></circle><circle cx="256" cy="263" r="2"></circle><circle cx="268" cy="256" r="2"></circle><circle cx="280" cy="256" r="2"></circle><circle cx="292" cy="255" r="2"></circle><circle cx="304" cy="253" r="2"></circle><circle cx="317" cy="250" r="2"></circle><circle cx="329" cy="245" r="2"></circle><circle cx="341" cy="244" r="2"></circle><circle cx="353" cy="244" r="2"></circle><circle cx="365" cy="243" r="2"></circle><circle cx="377" cy="241" r="2"></circle><circle cx="390" cy="239" r="2"></circle><circle cx="402" cy="238" r="2"></circle><circle cx="414" cy="240" r="2"></circle><circle cx="426" cy="242" r="2"></circle><circle cx="438" cy="241" r="2"></circle><circle cx="451" cy="240" r="2"></circle><circle cx="463" cy="238" r="2"></circle><circle cx="475" cy="235" r="2"></circle><circle cx="487" cy="234" r="2"></circle><circle cx="499" cy="232" r="2"></circle><circle cx="511" cy="231" r="2"></circle><circle cx="524" cy="229" r="2"></circle><circle cx="536" cy="228" r="2"></circle><circle cx="548" cy="228" r="2"></circle><circle cx="560" cy="228" r="2"></circle><circle cx="572" cy="227" r="2"></circle><circle cx="584" cy="226" r="2"></circle><circle cx="597" cy="224" r="2"></circle><circle cx="609" cy="222" r="2"></circle><circle cx="621" cy="219" r="2"></circle><circle cx="633" cy="217" r="2"></circle><circle cx="645" cy="217" r="2"></circle><circle cx="658" cy="214" r="2"></circle><circle cx="670" cy="212" r="2"></circle><circle cx="682" cy="211" r="2"></circle><circle cx="694" cy="210" r="2"></circle></g></g><g class="key-Europe_0"><path stroke="#e6332e" stroke-linecap="round" d="M61 192L73 187L85 184L97 184L110 181L122 179L134 177L146 173L158 173L170 168L183 169L195 170L207 166L219 165L231 167L244 162L256 164L268 161L280 159L292 159L304 162L317 161L329 160L341 159L353 158L365 157L377 154L390 153L402 155L414 156L426 170L438 170L451 174L463 179L475 179L487 178L499 177L511 173L524 172L536 172L548 167L560 163L572 165L584 162L597 160L609 158L621 156L633 155L645 157L658 157L670 155L682 156L694 156" fill="none" stroke-width="1.5"></path><g fill="#e6332e"><circle cx="61" cy="192" r="2"></circle><circle cx="73" cy="187" r="2"></circle><circle cx="85" cy="184" r="2"></circle><circle cx="97" cy="184" r="2"></circle><circle cx="110" cy="181" r="2"></circle><circle cx="122" cy="179" r="2"></circle><circle cx="134" cy="177" r="2"></circle><circle cx="146" cy="173" r="2"></circle><circle cx="158" cy="173" r="2"></circle><circle cx="170" cy="168" r="2"></circle><circle cx="183" cy="169" r="2"></circle><circle cx="195" cy="170" r="2"></circle><circle cx="207" cy="166" r="2"></circle><circle cx="219" cy="165" r="2"></circle><circle cx="231" cy="167" r="2"></circle><circle cx="244" cy="162" r="2"></circle><circle cx="256" cy="164" r="2"></circle><circle cx="268" cy="161" r="2"></circle><circle cx="280" cy="159" r="2"></circle><circle cx="292" cy="159" r="2"></circle><circle cx="304" cy="162" r="2"></circle><circle cx="317" cy="161" r="2"></circle><circle cx="329" cy="160" r="2"></circle><circle cx="341" cy="159" r="2"></circle><circle cx="353" cy="158" r="2"></circle><circle cx="365" cy="157" r="2"></circle><circle cx="377" cy="154" r="2"></circle><circle cx="390" cy="153" r="2"></circle><circle cx="402" cy="155" r="2"></circle><circle cx="414" cy="156" r="2"></circle><circle cx="426" cy="170" r="2"></circle><circle cx="438" cy="170" r="2"></circle><circle cx="451" cy="174" r="2"></circle><circle cx="463" cy="179" r="2"></circle><circle cx="475" cy="179" r="2"></circle><circle cx="487" cy="178" r="2"></circle><circle cx="499" cy="177" r="2"></circle><circle cx="511" cy="173" r="2"></circle><circle cx="524" cy="172" r="2"></circle><circle cx="536" cy="172" r="2"></circle><circle cx="548" cy="167" r="2"></circle><circle cx="560" cy="163" r="2"></circle><circle cx="572" cy="165" r="2"></circle><circle cx="584" cy="162" r="2"></circle><circle cx="597" cy="160" r="2"></circle><circle cx="609" cy="158" r="2"></circle><circle cx="621" cy="156" r="2"></circle><circle cx="633" cy="155" r="2"></circle><circle cx="645" cy="157" r="2"></circle><circle cx="658" cy="157" r="2"></circle><circle cx="670" cy="155" r="2"></circle><circle cx="682" cy="156" r="2"></circle><circle cx="694" cy="156" r="2"></circle></g></g><g class="key-South-America_0"><path stroke="#a652ba" stroke-linecap="round" d="M61 273L73 270L85 274L97 267L110 264L122 266L134 263L146 257L158 256L170 257L183 257L195 261L207 264L219 253L231 251L244 248L256 247L268 244L280 236L292 235L304 239L317 241L329 245L341 245L353 243L365 241L377 238L390 238L402 240L414 242L426 236L438 233L451 232L463 228L475 227L487 226L499 225L511 226L524 223L536 221L548 220L560 223L572 214L584 212L597 211L609 209L621 207L633 200L645 202L658 198L670 194L682 196L694 194" fill="none" stroke-width="1.5"></path><g fill="#a652ba"><circle cx="61" cy="273" r="2"></circle><circle cx="73" cy="270" r="2"></circle><circle cx="85" cy="274" r="2"></circle><circle cx="97" cy="267" r="2"></circle><circle cx="110" cy="264" r="2"></circle><circle cx="122" cy="266" r="2"></circle><circle cx="134" cy="263" r="2"></circle><circle cx="146" cy="257" r="2"></circle><circle cx="158" cy="256" r="2"></circle><circle cx="170" cy="257" r="2"></circle><circle cx="183" cy="257" r="2"></circle><circle cx="195" cy="261" r="2"></circle><circle cx="207" cy="264" r="2"></circle><circle cx="219" cy="253" r="2"></circle><circle cx="231" cy="251" r="2"></circle><circle cx="244" cy="248" r="2"></circle><circle cx="256" cy="247" r="2"></circle><circle cx="268" cy="244" r="2"></circle><circle cx="280" cy="236" r="2"></circle><circle cx="292" cy="235" r="2"></circle><circle cx="304" cy="239" r="2"></circle><circle cx="317" cy="241" r="2"></circle><circle cx="329" cy="245" r="2"></circle><circle cx="341" cy="245" r="2"></circle><circle cx="353" cy="243" r="2"></circle><circle cx="365" cy="241" r="2"></circle><circle cx="377" cy="238" r="2"></circle><circle cx="390" cy="238" r="2"></circle><circle cx="402" cy="240" r="2"></circle><circle cx="414" cy="242" r="2"></circle><circle cx="426" cy="236" r="2"></circle><circle cx="438" cy="233" r="2"></circle><circle cx="451" cy="232" r="2"></circle><circle cx="463" cy="228" r="2"></circle><circle cx="475" cy="227" r="2"></circle><circle cx="487" cy="226" r="2"></circle><circle cx="499" cy="225" r="2"></circle><circle cx="511" cy="226" r="2"></circle><circle cx="524" cy="223" r="2"></circle><circle cx="536" cy="221" r="2"></circle><circle cx="548" cy="220" r="2"></circle><circle cx="560" cy="223" r="2"></circle><circle cx="572" cy="214" r="2"></circle><circle cx="584" cy="212" r="2"></circle><circle cx="597" cy="211" r="2"></circle><circle cx="609" cy="209" r="2"></circle><circle cx="621" cy="207" r="2"></circle><circle cx="633" cy="200" r="2"></circle><circle cx="645" cy="202" r="2"></circle><circle cx="658" cy="198" r="2"></circle><circle cx="670" cy="194" r="2"></circle><circle cx="682" cy="196" r="2"></circle><circle cx="694" cy="194" r="2"></circle></g></g><g class="key-Northern-America_0"><path stroke="#9ecc8a" stroke-linecap="round" d="M61 211L73 213L85 212L97 207L110 206L122 203L134 200L146 198L158 194L170 194L183 193L195 191L207 193L219 194L231 195L244 180L256 183L268 182L280 176L292 179L304 176L317 178L329 175L341 169L353 158L365 160L377 150L390 150L402 153L414 147L426 144L438 139L451 134L463 127L475 136L487 135L499 127L511 125L524 123L536 115L548 120L560 112L572 112L584 109L597 108L609 112L621 115L633 121L645 127L658 126L670 126L682 122L694 122" fill="none" stroke-width="1.5"></path><g fill="#9ecc8a"><circle cx="61" cy="211" r="2"></circle><circle cx="73" cy="213" r="2"></circle><circle cx="85" cy="212" r="2"></circle><circle cx="97" cy="207" r="2"></circle><circle cx="110" cy="206" r="2"></circle><circle cx="122" cy="203" r="2"></circle><circle cx="134" cy="200" r="2"></circle><circle cx="146" cy="198" r="2"></circle><circle cx="158" cy="194" r="2"></circle><circle cx="170" cy="194" r="2"></circle><circle cx="183" cy="193" r="2"></circle><circle cx="195" cy="191" r="2"></circle><circle cx="207" cy="193" r="2"></circle><circle cx="219" cy="194" r="2"></circle><circle cx="231" cy="195" r="2"></circle><circle cx="244" cy="180" r="2"></circle><circle cx="256" cy="183" r="2"></circle><circle cx="268" cy="182" r="2"></circle><circle cx="280" cy="176" r="2"></circle><circle cx="292" cy="179" r="2"></circle><circle cx="304" cy="176" r="2"></circle><circle cx="317" cy="178" r="2"></circle><circle cx="329" cy="175" r="2"></circle><circle cx="341" cy="169" r="2"></circle><circle cx="353" cy="158" r="2"></circle><circle cx="365" cy="160" r="2"></circle><circle cx="377" cy="150" r="2"></circle><circle cx="390" cy="150" r="2"></circle><circle cx="402" cy="153" r="2"></circle><circle cx="414" cy="147" r="2"></circle><circle cx="426" cy="144" r="2"></circle><circle cx="438" cy="139" r="2"></circle><circle cx="451" cy="134" r="2"></circle><circle cx="463" cy="127" r="2"></circle><circle cx="475" cy="136" r="2"></circle><circle cx="487" cy="135" r="2"></circle><circle cx="499" cy="127" r="2"></circle><circle cx="511" cy="125" r="2"></circle><circle cx="524" cy="123" r="2"></circle><circle cx="536" cy="115" r="2"></circle><circle cx="548" cy="120" r="2"></circle><circle cx="560" cy="112" r="2"></circle><circle cx="572" cy="112" r="2"></circle><circle cx="584" cy="109" r="2"></circle><circle cx="597" cy="108" r="2"></circle><circle cx="609" cy="112" r="2"></circle><circle cx="621" cy="115" r="2"></circle><circle cx="633" cy="121" r="2"></circle><circle cx="645" cy="127" r="2"></circle><circle cx="658" cy="126" r="2"></circle><circle cx="670" cy="126" r="2"></circle><circle cx="682" cy="122" r="2"></circle><circle cx="694" cy="122" r="2"></circle></g></g><g class="key-Oceania_0"><path stroke="#2a939b" stroke-linecap="round" d="M61 195L73 192L85 187L97 189L110 193L122 185L134 192L146 191L158 190L170 188L183 184L195 181L207 191L219 198L231 191L244 187L256 193L268 197L280 199L292 195L304 195L317 191L329 199L341 193L353 190L365 191L377 189L390 189L402 188L414 181L426 187L438 187L451 193L463 193L475 188L487 190L499 188L511 195L524 195L536 198L548 193L560 191L572 188L584 192L597 187L609 183L621 179L633 178L645 179L658 178L670 176L682 174L694 173" fill="none" stroke-width="1.5"></path><g fill="#2a939b"><circle cx="61" cy="195" r="2"></circle><circle cx="73" cy="192" r="2"></circle><circle cx="85" cy="187" r="2"></circle><circle cx="97" cy="189" r="2"></circle><circle cx="110" cy="193" r="2"></circle><circle cx="122" cy="185" r="2"></circle><circle cx="134" cy="192" r="2"></circle><circle cx="146" cy="191" r="2"></circle><circle cx="158" cy="190" r="2"></circle><circle cx="170" cy="188" r="2"></circle><circle cx="183" cy="184" r="2"></circle><circle cx="195" cy="181" r="2"></circle><circle cx="207" cy="191" r="2"></circle><circle cx="219" cy="198" r="2"></circle><circle cx="231" cy="191" r="2"></circle><circle cx="244" cy="187" r="2"></circle><circle cx="256" cy="193" r="2"></circle><circle cx="268" cy="197" r="2"></circle><circle cx="280" cy="199" r="2"></circle><circle cx="292" cy="195" r="2"></circle><circle cx="304" cy="195" r="2"></circle><circle cx="317" cy="191" r="2"></circle><circle cx="329" cy="199" r="2"></circle><circle cx="341" cy="193" r="2"></circle><circle cx="353" cy="190" r="2"></circle><circle cx="365" cy="191" r="2"></circle><circle cx="377" cy="189" r="2"></circle><circle cx="390" cy="189" r="2"></circle><circle cx="402" cy="188" r="2"></circle><circle cx="414" cy="181" r="2"></circle><circle cx="426" cy="187" r="2"></circle><circle cx="438" cy="187" r="2"></circle><circle cx="451" cy="193" r="2"></circle><circle cx="463" cy="193" r="2"></circle><circle cx="475" cy="188" r="2"></circle><circle cx="487" cy="190" r="2"></circle><circle cx="499" cy="188" r="2"></circle><circle cx="511" cy="195" r="2"></circle><circle cx="524" cy="195" r="2"></circle><circle cx="536" cy="198" r="2"></circle><circle cx="548" cy="193" r="2"></circle><circle cx="560" cy="191" r="2"></circle><circle cx="572" cy="188" r="2"></circle><circle cx="584" cy="192" r="2"></circle><circle cx="597" cy="187" r="2"></circle><circle cx="609" cy="183" r="2"></circle><circle cx="621" cy="179" r="2"></circle><circle cx="633" cy="178" r="2"></circle><circle cx="645" cy="179" r="2"></circle><circle cx="658" cy="178" r="2"></circle><circle cx="670" cy="176" r="2"></circle><circle cx="682" cy="174" r="2"></circle><circle cx="694" cy="173" r="2"></circle></g></g><g class="key-Caribbean_0"><path stroke="#ca2628" stroke-linecap="round" d="M61 311L73 302L85 293L97 295L110 294L122 297L134 294L146 289L158 284L170 278L183 268L195 271L207 272L219 260L231 268L244 262L256 263L268 259L280 263L292 252L304 251L317 250L329 247L341 245L353 244L365 246L377 250L390 258L402 258L414 266L426 272L438 282L451 287L463 285L475 285L487 281L499 277L511 271L524 261L536 253L548 252L560 248L572 251L584 245L597 245L609 242L621 241L633 246L645 240L658 235L670 232L682 230L694 227" fill="none" stroke-width="1.5"></path><g fill="#ca2628"><circle cx="61" cy="311" r="2"></circle><circle cx="73" cy="302" r="2"></circle><circle cx="85" cy="293" r="2"></circle><circle cx="97" cy="295" r="2"></circle><circle cx="110" cy="294" r="2"></circle><circle cx="122" cy="297" r="2"></circle><circle cx="134" cy="294" r="2"></circle><circle cx="146" cy="289" r="2"></circle><circle cx="158" cy="284" r="2"></circle><circle cx="170" cy="278" r="2"></circle><circle cx="183" cy="268" r="2"></circle><circle cx="195" cy="271" r="2"></circle><circle cx="207" cy="272" r="2"></circle><circle cx="219" cy="260" r="2"></circle><circle cx="231" cy="268" r="2"></circle><circle cx="244" cy="262" r="2"></circle><circle cx="256" cy="263" r="2"></circle><circle cx="268" cy="259" r="2"></circle><circle cx="280" cy="263" r="2"></circle><circle cx="292" cy="252" r="2"></circle><circle cx="304" cy="251" r="2"></circle><circle cx="317" cy="250" r="2"></circle><circle cx="329" cy="247" r="2"></circle><circle cx="341" cy="245" r="2"></circle><circle cx="353" cy="244" r="2"></circle><circle cx="365" cy="246" r="2"></circle><circle cx="377" cy="250" r="2"></circle><circle cx="390" cy="258" r="2"></circle><circle cx="402" cy="258" r="2"></circle><circle cx="414" cy="266" r="2"></circle><circle cx="426" cy="272" r="2"></circle><circle cx="438" cy="282" r="2"></circle><circle cx="451" cy="287" r="2"></circle><circle cx="463" cy="285" r="2"></circle><circle cx="475" cy="285" r="2"></circle><circle cx="487" cy="281" r="2"></circle><circle cx="499" cy="277" r="2"></circle><circle cx="511" cy="271" r="2"></circle><circle cx="524" cy="261" r="2"></circle><circle cx="536" cy="253" r="2"></circle><circle cx="548" cy="252" r="2"></circle><circle cx="560" cy="248" r="2"></circle><circle cx="572" cy="251" r="2"></circle><circle cx="584" cy="245" r="2"></circle><circle cx="597" cy="245" r="2"></circle><circle cx="609" cy="242" r="2"></circle><circle cx="621" cy="241" r="2"></circle><circle cx="633" cy="246" r="2"></circle><circle cx="645" cy="240" r="2"></circle><circle cx="658" cy="235" r="2"></circle><circle cx="670" cy="232" r="2"></circle><circle cx="682" cy="230" r="2"></circle><circle cx="694" cy="227" r="2"></circle></g></g></g></g></g><g class="SourcesFooter" style="fill:#777"><g class="clickable" style="fill:#777"><text font-size="12.60" x="15.0" y="581.6"><tspan x="15" y="581.58">Source: UN Food and Agriculture Organization (FAO)</tspan></text></g><text font-size="12.60" x="552.0" y="581.6"><tspan x="552.004" y="581.58"><a target='_blank' style='fill: #777;' href='https://ourworldindata.org/food-per-person/'>OurWorldInData.org/food-per-person/</a> • <a style="fill: #777;" class="cclogo" href="http://creativecommons.org/licenses/by-sa/4.0/deed.en_US" target="_blank">CC BY-SA</a></tspan></text></g></g></svg>