<svg xmlns="http://www.w3.org/2000/svg" version="1.1" style="font-family:&#x27;Helvetica Neue&#x27;, Helvetica, Arial, sans-serif;font-size:18px;background-color:white;text-rendering:optimizeLegibility;-webkit-font-smoothing:antialiased" width="850" height="600"><g class="ChartTab"><g class="HeaderView"><g opacity="0.8" transform="translate(778, 15) scale(0.27)"><a xmlns:xlink="http://www.w3.org/1999/xlink" xlink:href="https://ourworldindata.org" target="_blank"><g><rect x="0" y="0" fill="#1B2543" width="211.2" height="130.1"/><rect x="0" y="112.2" fill="#E63912" width="211.2" height="17.9"/><g><rect x="1.2" y="12.3" fill="none" width="210.2" height="99.2"/><path fill="#FFFFFF" d="M37.8,32.2c0,12.7-7.7,19.4-17.1,19.4c-9.7,0-16.6-7.5-16.6-18.7c0-11.7,7.3-19.3,17.1-19.3 C31.3,13.7,37.8,21.3,37.8,32.2z M9.2,32.8c0,7.9,4.3,14.9,11.8,14.9c7.5,0,11.8-6.9,11.8-15.3c0-7.3-3.8-14.9-11.8-14.9 C13.1,17.5,9.2,24.8,9.2,32.8z"/><path fill="#FFFFFF" d="M62.7,43.8c0,2.7,0.1,5.1,0.2,7.2h-4.3l-0.3-4.3h-0.1c-1.3,2.1-4,4.9-8.8,4.9c-4.2,0-9.1-2.3-9.1-11.6 V24.6h4.8v14.6c0,5,1.5,8.4,5.9,8.4c3.2,0,5.5-2.2,6.3-4.4c0.3-0.7,0.4-1.6,0.4-2.5V24.6h4.8V43.8z"/><path fill="#FFFFFF" d="M67.3,32.8c0-3.1-0.1-5.8-0.2-8.2h4.2l0.2,5.2h0.2c1.2-3.5,4.1-5.8,7.3-5.8c0.5,0,0.9,0.1,1.4,0.2v4.5 c-0.5-0.1-1-0.2-1.6-0.2c-3.4,0-5.8,2.6-6.5,6.2c-0.1,0.7-0.2,1.4-0.2,2.2V51h-4.8V32.8z"/><path fill="#FFFFFF" d="M95.4,51l-9.4-36.8h5l4.4,18.6c1.1,4.6,2.1,9.2,2.7,12.7h0.1c0.6-3.7,1.8-8,3-12.8l4.9-18.5h5l4.5,18.7 c1,4.4,2,8.7,2.6,12.6h0.1c0.8-4,1.8-8.1,3-12.7l4.9-18.5h4.9L120.6,51h-5L111,31.9c-1.1-4.7-1.9-8.3-2.4-12h-0.1 c-0.7,3.7-1.5,7.3-2.8,12L100.4,51H95.4z"/><path fill="#FFFFFF" d="M154.9,37.6c0,9.8-6.8,14-13.2,14c-7.2,0-12.7-5.2-12.7-13.6c0-8.8,5.8-14,13.1-14 C149.8,24,154.9,29.5,154.9,37.6z M133.9,37.9c0,5.8,3.3,10.1,8,10.1c4.6,0,8-4.3,8-10.3c0-4.5-2.2-10.1-7.9-10.1 C136.3,27.6,133.9,32.8,133.9,37.9z"/><path fill="#FFFFFF" d="M158.2,32.8c0-3.1-0.1-5.8-0.2-8.2h4.2l0.2,5.2h0.2c1.2-3.5,4.1-5.8,7.3-5.8c0.5,0,0.9,0.1,1.4,0.2v4.5 c-0.5-0.1-1-0.2-1.6-0.2c-3.4,0-5.8,2.6-6.5,6.2c-0.1,0.7-0.2,1.4-0.2,2.2V51h-4.8V32.8z"/><path fill="#FFFFFF" d="M173.5,12.3h4.8V51h-4.8V12.3z"/><path fill="#FFFFFF" d="M206.5,12.3v31.9c0,2.3,0.1,5,0.2,6.8h-4.3l-0.2-4.6H202c-1.5,2.9-4.7,5.2-9,5.2 c-6.4,0-11.3-5.4-11.3-13.4c-0.1-8.8,5.4-14.2,11.9-14.2c4,0,6.8,1.9,8,4h0.1V12.3H206.5z M201.7,35.4c0-0.6-0.1-1.4-0.2-2 c-0.7-3.1-3.3-5.6-6.9-5.6c-5,0-7.9,4.4-7.9,10.2c0,5.3,2.6,9.8,7.8,9.8c3.2,0,6.2-2.1,7.1-5.7c0.2-0.7,0.2-1.3,0.2-2.1V35.4z"/><path fill="#FFFFFF" d="M42.8,64c0.1,1.6-1.1,2.9-3.1,2.9c-1.7,0-2.9-1.3-2.9-2.9c0-1.7,1.3-3,3-3C41.7,61,42.8,62.3,42.8,64z M37.4,97.8V71.4h4.8v26.4H37.4z"/><path fill="#FFFFFF" d="M47.5,78.6c0-2.7-0.1-5-0.2-7.1h4.3l0.3,4.4h0.1c1.3-2.5,4.4-5,8.8-5c3.7,0,9.4,2.2,9.4,11.2v15.8h-4.8 V82.6c0-4.3-1.6-7.8-6.1-7.8c-3.2,0-5.6,2.2-6.5,4.9c-0.2,0.6-0.3,1.4-0.3,2.2v15.9h-4.8V78.6z"/><path fill="#FFFFFF" d="M84,61.6c2.9-0.4,6.3-0.8,10.1-0.8c6.8,0,11.7,1.6,14.9,4.6c3.3,3,5.2,7.3,5.2,13.2c0,6-1.9,10.9-5.3,14.3 c-3.4,3.4-9.1,5.3-16.3,5.3c-3.4,0-6.2-0.2-8.6-0.4V61.6z M88.8,94.1c1.2,0.2,3,0.3,4.8,0.3c10.2,0,15.7-5.7,15.7-15.6 c0.1-8.7-4.9-14.2-14.9-14.2c-2.5,0-4.3,0.2-5.6,0.5V94.1z"/><path fill="#FFFFFF" d="M132.1,97.8l-0.4-3.3h-0.2c-1.5,2.1-4.3,3.9-8.1,3.9c-5.4,0-8.1-3.8-8.1-7.6c0-6.4,5.7-9.9,15.9-9.8v-0.5 c0-2.2-0.6-6.1-6-6.1c-2.5,0-5,0.8-6.9,2l-1.1-3.2c2.2-1.4,5.4-2.3,8.7-2.3c8.1,0,10.1,5.5,10.1,10.8v9.9c0,2.3,0.1,4.5,0.4,6.3 H132.1z M131.4,84.4c-5.3-0.1-11.2,0.8-11.2,5.9c0,3.1,2.1,4.6,4.5,4.6c3.4,0,5.6-2.2,6.4-4.4c0.2-0.5,0.3-1,0.3-1.5V84.4z"/><path fill="#FFFFFF" d="M146.6,63.9v7.6h6.9v3.7h-6.9v14.2c0,3.3,0.9,5.1,3.6,5.1c1.3,0,2.2-0.2,2.8-0.3l0.2,3.6 c-0.9,0.4-2.4,0.7-4.3,0.7c-2.2,0-4-0.7-5.2-2c-1.4-1.4-1.9-3.8-1.9-6.9V75.1h-4.1v-3.7h4.1v-6.3L146.6,63.9z"/><path fill="#FFFFFF" d="M171.4,97.8l-0.4-3.3h-0.2c-1.5,2.1-4.3,3.9-8.1,3.9c-5.4,0-8.1-3.8-8.1-7.6c0-6.4,5.7-9.9,15.9-9.8v-0.5 c0-2.2-0.6-6.1-6-6.1c-2.5,0-5,0.8-6.9,2l-1.1-3.2c2.2-1.4,5.4-2.3,8.7-2.3c8.1,0,10.1,5.5,10.1,10.8v9.9c0,2.3,0.1,4.5,0.4,6.3 H171.4z M170.7,84.4c-5.3-0.1-11.2,0.8-11.2,5.9c0,3.1,2.1,4.6,4.5,4.6c3.4,0,5.6-2.2,6.4-4.4c0.2-0.5,0.3-1,0.3-1.5V84.4z"/></g></g></a></g><a href="https://ourworldindata.org/grapher/food-expenditure-per-person" target="_blank"><text font-size="25.20" x="15.0" y="35.2" fill="#555"><tspan x="15" y="35.160000000000004">Food expenditure per person, United States</tspan></text></a><text font-size="14.40" x="15.0" y="53.7" fill="#666"><tspan x="15" y="53.72">Average annual food expenditure per person, differentiated between that spent on food at home versus away from</tspan><tspan x="15" y="69.56">home (such as restaurants, cafes, colleges, work etc.). Alcoholic beverages and tobacco are not included. This is</tspan><tspan x="15" y="85.4">measured in constant 1988 US$.</tspan></text></g><g class="StackedArea"><defs><clipPath id="boundsClip-119"><rect x="69.896" y="0" width="820" height="897.8"></rect></clipPath></defs><g class="AxisBoxView"><g class="HorizontalAxis"><text x="69.9" y="556.5" fill="#666" text-anchor="middle" font-size="16.2">1953</text><text x="142.5" y="556.5" fill="#666" text-anchor="middle" font-size="16.2">1960</text><text x="246.3" y="556.5" fill="#666" text-anchor="middle" font-size="16.2">1970</text><text x="350.1" y="556.5" fill="#666" text-anchor="middle" font-size="16.2">1980</text><text x="453.9" y="556.5" fill="#666" text-anchor="middle" font-size="16.2">1990</text><text x="557.6" y="556.5" fill="#666" text-anchor="middle" font-size="16.2">2000</text><text x="661.4" y="556.5" fill="#666" text-anchor="middle" font-size="16.2">2010</text><text x="702.9" y="556.5" fill="#666" text-anchor="middle" font-size="16.2">2014</text></g><g class="VerticalAxis"><text x="64.90" y="535.3" fill="#666" dominant-baseline="middle" text-anchor="end" font-size="16.2">$0</text><text x="64.90" y="440.6" fill="#666" dominant-baseline="middle" text-anchor="end" font-size="16.2">$500</text><text x="64.90" y="345.9" fill="#666" dominant-baseline="middle" text-anchor="end" font-size="16.2">$1,000</text><text x="64.90" y="251.2" fill="#666" dominant-baseline="middle" text-anchor="end" font-size="16.2">$1,500</text><text x="64.90" y="156.5" fill="#666" dominant-baseline="middle" text-anchor="end" font-size="16.2">$2,000</text></g><g class="AxisGridLines"><line x1="69.90" y1="535.3" x2="702.93" y2="535.3" stroke="#ccc"></line><line x1="69.90" y1="440.6" x2="702.93" y2="440.6" stroke="#ddd" stroke-dasharray="3,2"></line><line x1="69.90" y1="345.9" x2="702.93" y2="345.9" stroke="#ddd" stroke-dasharray="3,2"></line><line x1="69.90" y1="251.2" x2="702.93" y2="251.2" stroke="#ddd" stroke-dasharray="3,2"></line><line x1="69.90" y1="156.5" x2="702.93" y2="156.5" stroke="#ddd" stroke-dasharray="3,2"></line></g></g><g clip-path="url(#boundsClip-119)"><g class="HeightedLegend clickable"><g class="legendMark"><rect x="702.935" y="201.45" width="132.065" height="28.1" fill="#fff" opacity="0"></rect><text font-size="13.50" x="707.9" y="212.3" fill="#f6a324"><tspan x="707.935" y="212.25">Food away from</tspan><tspan x="707.935" y="227.1">home</tspan></text></g><g class="legendMark"><rect x="702.935" y="421.95" width="118.7" height="13.5" fill="#fff" opacity="0"></rect><text font-size="13.50" x="707.9" y="432.8" fill="#3360a9"><tspan x="707.935" y="432.75">Food at home</tspan></text></g></g><g class="Areas"><rect x="69.896" y="107.60000000000001" width="633.039" height="427.69999999999993" opacity="0" fill="rgba(255,255,255,0)"></rect><path class="United-States_1-area" stroke-linecap="round" d="M69.9 321.4L80.3 346.6L90.7 323.9L101 322.2L111.4 320.1L121.8 332.6L132.2 321.3L142.5 319.9L152.9 320.9L163.3 324.5L173.7 326L184.1 331.3L194.4 327.9L204.8 325.4L215.2 330L225.6 330.4L235.9 328.8L246.3 326.6L256.7 321.3L267.1 318.8L277.4 314.1L287.8 327.1L298.2 331.9L308.6 332.8L319 326.2L329.3 325.4L339.7 328.6L350.1 330.4L360.5 328.5L370.8 331.7L381.2 332.2L391.6 326L402 324.5L412.4 321.6L422.7 322L433.1 318.8L443.5 316.9L453.9 319.4L464.2 318L474.6 316.7L485 318.4L495.4 320.9L505.8 321.3L516.1 326.2L526.5 327.5L536.9 327.3L547.3 328.5L557.6 325.8L568 328.6L578.4 327.7L588.8 322.6L599.2 322.2L609.5 324.1L619.9 319.7L630.3 318.6L640.7 318.8L651 324.3L661.4 327.7L671.8 324.5L682.2 325.4L692.6 324.9L702.9 322L702.935 535.3L69.896 535.3" fill="#3360a9" fill-opacity="0.7"></path><path class="United-States_0-area" stroke-linecap="round" d="M69.9 222.6L80.3 247.8L90.7 223L101 220.5L111.4 217.7L121.8 231.1L132.2 222.4L142.5 221.1L152.9 222L163.3 225.6L173.7 225.6L184.1 230.2L194.4 223.5L204.8 215.6L215.2 215.9L225.6 216.9L235.9 211.2L246.3 208L256.7 201.9L267.1 199.3L277.4 188.9L287.8 197.2L298.2 205.9L308.6 199.1L319 186.2L329.3 183.2L339.7 183.6L350.1 182.6L360.5 182L370.8 187L381.2 187L391.6 177.1L402 173.3L412.4 170.5L422.7 166.9L433.1 158.7L443.5 150.8L453.9 151.7L464.2 148.1L474.6 146.6L485 149.1L495.4 146.8L505.8 144.3L516.1 145.1L526.5 150L536.9 144.3L547.3 143L557.6 139.6L568 139.4L578.4 140L588.8 137.5L599.2 127.5L609.5 128.4L619.9 115L630.3 108.7L640.7 107.6L651 118.2L661.4 131.8L671.8 127.1L682.2 122.2L692.6 118L702.9 108.9L702.9 322L692.6 324.9L682.2 325.4L671.8 324.5L661.4 327.7L651 324.3L640.7 318.8L630.3 318.6L619.9 319.7L609.5 324.1L599.2 322.2L588.8 322.6L578.4 327.7L568 328.6L557.6 325.8L547.3 328.5L536.9 327.3L526.5 327.5L516.1 326.2L505.8 321.3L495.4 320.9L485 318.4L474.6 316.7L464.2 318L453.9 319.4L443.5 316.9L433.1 318.8L422.7 322L412.4 321.6L402 324.5L391.6 326L381.2 332.2L370.8 331.7L360.5 328.5L350.1 330.4L339.7 328.6L329.3 325.4L319 326.2L308.6 332.8L298.2 331.9L287.8 327.1L277.4 314.1L267.1 318.8L256.7 321.3L246.3 326.6L235.9 328.8L225.6 330.4L215.2 330L204.8 325.4L194.4 327.9L184.1 331.3L173.7 326L163.3 324.5L152.9 320.9L142.5 319.9L132.2 321.3L121.8 332.6L111.4 320.1L101 322.2L90.7 323.9L80.3 346.6L69.9 321.4" fill="#f6a324" fill-opacity="0.7"></path><path class="United-States_1-border" stroke-linecap="round" d="M69.9 321.4L80.3 346.6L90.7 323.9L101 322.2L111.4 320.1L121.8 332.6L132.2 321.3L142.5 319.9L152.9 320.9L163.3 324.5L173.7 326L184.1 331.3L194.4 327.9L204.8 325.4L215.2 330L225.6 330.4L235.9 328.8L246.3 326.6L256.7 321.3L267.1 318.8L277.4 314.1L287.8 327.1L298.2 331.9L308.6 332.8L319 326.2L329.3 325.4L339.7 328.6L350.1 330.4L360.5 328.5L370.8 331.7L381.2 332.2L391.6 326L402 324.5L412.4 321.6L422.7 322L433.1 318.8L443.5 316.9L453.9 319.4L464.2 318L474.6 316.7L485 318.4L495.4 320.9L505.8 321.3L516.1 326.2L526.5 327.5L536.9 327.3L547.3 328.5L557.6 325.8L568 328.6L578.4 327.7L588.8 322.6L599.2 322.2L609.5 324.1L619.9 319.7L630.3 318.6L640.7 318.8L651 324.3L661.4 327.7L671.8 324.5L682.2 325.4L692.6 324.9L702.9 322" stroke="rgb(43, 80, 141)" stroke-opacity="0.7" stroke-width="0.5" fill="none"></path><path class="United-States_0-border" stroke-linecap="round" d="M69.9 222.6L80.3 247.8L90.7 223L101 220.5L111.4 217.7L121.8 231.1L132.2 222.4L142.5 221.1L152.9 222L163.3 225.6L173.7 225.6L184.1 230.2L194.4 223.5L204.8 215.6L215.2 215.9L225.6 216.9L235.9 211.2L246.3 208L256.7 201.9L267.1 199.3L277.4 188.9L287.8 197.2L298.2 205.9L308.6 199.1L319 186.2L329.3 183.2L339.7 183.6L350.1 182.6L360.5 182L370.8 187L381.2 187L391.6 177.1L402 173.3L412.4 170.5L422.7 166.9L433.1 158.7L443.5 150.8L453.9 151.7L464.2 148.1L474.6 146.6L485 149.1L495.4 146.8L505.8 144.3L516.1 145.1L526.5 150L536.9 144.3L547.3 143L557.6 139.6L568 139.4L578.4 140L588.8 137.5L599.2 127.5L609.5 128.4L619.9 115L630.3 108.7L640.7 107.6L651 118.2L661.4 131.8L671.8 127.1L682.2 122.2L692.6 118L702.9 108.9" stroke="rgb(206, 136, 30)" stroke-opacity="0.7" stroke-width="0.5" fill="none"></path></g></g></g><g class="SourcesFooter" style="fill:#777"><g class="clickable" style="fill:#777"><text font-size="12.60" x="15.0" y="581.6"><tspan x="15" y="581.58">Source: United States Department of Agriculture (USDA)</tspan></text></g><text font-size="12.60" x="775.4" y="581.6"><tspan x="775.402" y="581.58"><a style="fill: #777;" class="cclogo" href="http://creativecommons.org/licenses/by-sa/4.0/deed.en_US" target="_blank">CC BY-SA</a></tspan></text></g></g></svg>