<svg xmlns="http://www.w3.org/2000/svg" version="1.1" style="font-family:&#x27;Helvetica Neue&#x27;, Helvetica, Arial, sans-serif;font-size:18px;background-color:white;text-rendering:optimizeLegibility;-webkit-font-smoothing:antialiased" width="850" height="600"><g class="ChartTab"><g class="HeaderView"><g opacity="0.8" transform="translate(778, 15) scale(0.27)"><a xmlns:xlink="http://www.w3.org/1999/xlink" xlink:href="https://ourworldindata.org" target="_blank"><g><rect x="0" y="0" fill="#1B2543" width="211.2" height="130.1"/><rect x="0" y="112.2" fill="#E63912" width="211.2" height="17.9"/><g><rect x="1.2" y="12.3" fill="none" width="210.2" height="99.2"/><path fill="#FFFFFF" d="M37.8,32.2c0,12.7-7.7,19.4-17.1,19.4c-9.7,0-16.6-7.5-16.6-18.7c0-11.7,7.3-19.3,17.1-19.3 C31.3,13.7,37.8,21.3,37.8,32.2z M9.2,32.8c0,7.9,4.3,14.9,11.8,14.9c7.5,0,11.8-6.9,11.8-15.3c0-7.3-3.8-14.9-11.8-14.9 C13.1,17.5,9.2,24.8,9.2,32.8z"/><path fill="#FFFFFF" d="M62.7,43.8c0,2.7,0.1,5.1,0.2,7.2h-4.3l-0.3-4.3h-0.1c-1.3,2.1-4,4.9-8.8,4.9c-4.2,0-9.1-2.3-9.1-11.6 V24.6h4.8v14.6c0,5,1.5,8.4,5.9,8.4c3.2,0,5.5-2.2,6.3-4.4c0.3-0.7,0.4-1.6,0.4-2.5V24.6h4.8V43.8z"/><path fill="#FFFFFF" d="M67.3,32.8c0-3.1-0.1-5.8-0.2-8.2h4.2l0.2,5.2h0.2c1.2-3.5,4.1-5.8,7.3-5.8c0.5,0,0.9,0.1,1.4,0.2v4.5 c-0.5-0.1-1-0.2-1.6-0.2c-3.4,0-5.8,2.6-6.5,6.2c-0.1,0.7-0.2,1.4-0.2,2.2V51h-4.8V32.8z"/><path fill="#FFFFFF" d="M95.4,51l-9.4-36.8h5l4.4,18.6c1.1,4.6,2.1,9.2,2.7,12.7h0.1c0.6-3.7,1.8-8,3-12.8l4.9-18.5h5l4.5,18.7 c1,4.4,2,8.7,2.6,12.6h0.1c0.8-4,1.8-8.1,3-12.7l4.9-18.5h4.9L120.6,51h-5L111,31.9c-1.1-4.7-1.9-8.3-2.4-12h-0.1 c-0.7,3.7-1.5,7.3-2.8,12L100.4,51H95.4z"/><path fill="#FFFFFF" d="M154.9,37.6c0,9.8-6.8,14-13.2,14c-7.2,0-12.7-5.2-12.7-13.6c0-8.8,5.8-14,13.1-14 C149.8,24,154.9,29.5,154.9,37.6z M133.9,37.9c0,5.8,3.3,10.1,8,10.1c4.6,0,8-4.3,8-10.3c0-4.5-2.2-10.1-7.9-10.1 C136.3,27.6,133.9,32.8,133.9,37.9z"/><path fill="#FFFFFF" d="M158.2,32.8c0-3.1-0.1-5.8-0.2-8.2h4.2l0.2,5.2h0.2c1.2-3.5,4.1-5.8,7.3-5.8c0.5,0,0.9,0.1,1.4,0.2v4.5 c-0.5-0.1-1-0.2-1.6-0.2c-3.4,0-5.8,2.6-6.5,6.2c-0.1,0.7-0.2,1.4-0.2,2.2V51h-4.8V32.8z"/><path fill="#FFFFFF" d="M173.5,12.3h4.8V51h-4.8V12.3z"/><path fill="#FFFFFF" d="M206.5,12.3v31.9c0,2.3,0.1,5,0.2,6.8h-4.3l-0.2-4.6H202c-1.5,2.9-4.7,5.2-9,5.2 c-6.4,0-11.3-5.4-11.3-13.4c-0.1-8.8,5.4-14.2,11.9-14.2c4,0,6.8,1.9,8,4h0.1V12.3H206.5z M201.7,35.4c0-0.6-0.1-1.4-0.2-2 c-0.7-3.1-3.3-5.6-6.9-5.6c-5,0-7.9,4.4-7.9,10.2c0,5.3,2.6,9.8,7.8,9.8c3.2,0,6.2-2.1,7.1-5.7c0.2-0.7,0.2-1.3,0.2-2.1V35.4z"/><path fill="#FFFFFF" d="M42.8,64c0.1,1.6-1.1,2.9-3.1,2.9c-1.7,0-2.9-1.3-2.9-2.9c0-1.7,1.3-3,3-3C41.7,61,42.8,62.3,42.8,64z M37.4,97.8V71.4h4.8v26.4H37.4z"/><path fill="#FFFFFF" d="M47.5,78.6c0-2.7-0.1-5-0.2-7.1h4.3l0.3,4.4h0.1c1.3-2.5,4.4-5,8.8-5c3.7,0,9.4,2.2,9.4,11.2v15.8h-4.8 V82.6c0-4.3-1.6-7.8-6.1-7.8c-3.2,0-5.6,2.2-6.5,4.9c-0.2,0.6-0.3,1.4-0.3,2.2v15.9h-4.8V78.6z"/><path fill="#FFFFFF" d="M84,61.6c2.9-0.4,6.3-0.8,10.1-0.8c6.8,0,11.7,1.6,14.9,4.6c3.3,3,5.2,7.3,5.2,13.2c0,6-1.9,10.9-5.3,14.3 c-3.4,3.4-9.1,5.3-16.3,5.3c-3.4,0-6.2-0.2-8.6-0.4V61.6z M88.8,94.1c1.2,0.2,3,0.3,4.8,0.3c10.2,0,15.7-5.7,15.7-15.6 c0.1-8.7-4.9-14.2-14.9-14.2c-2.5,0-4.3,0.2-5.6,0.5V94.1z"/><path fill="#FFFFFF" d="M132.1,97.8l-0.4-3.3h-0.2c-1.5,2.1-4.3,3.9-8.1,3.9c-5.4,0-8.1-3.8-8.1-7.6c0-6.4,5.7-9.9,15.9-9.8v-0.5 c0-2.2-0.6-6.1-6-6.1c-2.5,0-5,0.8-6.9,2l-1.1-3.2c2.2-1.4,5.4-2.3,8.7-2.3c8.1,0,10.1,5.5,10.1,10.8v9.9c0,2.3,0.1,4.5,0.4,6.3 H132.1z M131.4,84.4c-5.3-0.1-11.2,0.8-11.2,5.9c0,3.1,2.1,4.6,4.5,4.6c3.4,0,5.6-2.2,6.4-4.4c0.2-0.5,0.3-1,0.3-1.5V84.4z"/><path fill="#FFFFFF" d="M146.6,63.9v7.6h6.9v3.7h-6.9v14.2c0,3.3,0.9,5.1,3.6,5.1c1.3,0,2.2-0.2,2.8-0.3l0.2,3.6 c-0.9,0.4-2.4,0.7-4.3,0.7c-2.2,0-4-0.7-5.2-2c-1.4-1.4-1.9-3.8-1.9-6.9V75.1h-4.1v-3.7h4.1v-6.3L146.6,63.9z"/><path fill="#FFFFFF" d="M171.4,97.8l-0.4-3.3h-0.2c-1.5,2.1-4.3,3.9-8.1,3.9c-5.4,0-8.1-3.8-8.1-7.6c0-6.4,5.7-9.9,15.9-9.8v-0.5 c0-2.2-0.6-6.1-6-6.1c-2.5,0-5,0.8-6.9,2l-1.1-3.2c2.2-1.4,5.4-2.3,8.7-2.3c8.1,0,10.1,5.5,10.1,10.8v9.9c0,2.3,0.1,4.5,0.4,6.3 H171.4z M170.7,84.4c-5.3-0.1-11.2,0.8-11.2,5.9c0,3.1,2.1,4.6,4.5,4.6c3.4,0,5.6-2.2,6.4-4.4c0.2-0.5,0.3-1,0.3-1.5V84.4z"/></g></g></a></g><a href="https://ourworldindata.org/grapher/fossil-fuel-production-per-capita" target="_blank"><text font-size="25.20" x="15.0" y="35.2" fill="#555"><tspan x="15" y="35.160000000000004">Fossil fuel production per capita, United Kingdom</tspan></text></a><text font-size="14.40" x="15.0" y="53.7" fill="#666"><tspan x="15" y="53.72">Average fossil fuel production per capita across countries and regions, measured in megawatt-hours (MWh) per</tspan><tspan x="15" y="69.56">person per year. Fossil fuel consumption has been categorised by coal, oil and natural gas sources.</tspan></text></g><g class="StackedArea"><defs><clipPath id="boundsClip-351"><rect x="80.426" y="0" width="820" height="928.8"></rect></clipPath></defs><g class="AxisBoxView"><g class="HorizontalAxis"><text x="80.4" y="556.5" fill="#666" text-anchor="middle" font-size="16.2">1950</text><text x="179" y="556.5" fill="#666" text-anchor="middle" font-size="16.2">1960</text><text x="277.5" y="556.5" fill="#666" text-anchor="middle" font-size="16.2">1970</text><text x="376" y="556.5" fill="#666" text-anchor="middle" font-size="16.2">1980</text><text x="474.6" y="556.5" fill="#666" text-anchor="middle" font-size="16.2">1990</text><text x="573.1" y="556.5" fill="#666" text-anchor="middle" font-size="16.2">2000</text><text x="671.6" y="556.5" fill="#666" text-anchor="middle" font-size="16.2">2010</text><text x="730.7" y="556.5" fill="#666" text-anchor="middle" font-size="16.2">2016</text></g><g class="VerticalAxis"><text x="75.43" y="535.3" fill="#666" dominant-baseline="middle" text-anchor="end" font-size="16.2">0 MWh</text><text x="75.43" y="446.5" fill="#666" dominant-baseline="middle" text-anchor="end" font-size="16.2">10 MWh</text><text x="75.43" y="357.7" fill="#666" dominant-baseline="middle" text-anchor="end" font-size="16.2">20 MWh</text><text x="75.43" y="269" fill="#666" dominant-baseline="middle" text-anchor="end" font-size="16.2">30 MWh</text><text x="75.43" y="180.2" fill="#666" dominant-baseline="middle" text-anchor="end" font-size="16.2">40 MWh</text></g><g class="AxisGridLines"><line x1="80.43" y1="535.3" x2="730.75" y2="535.3" stroke="#ccc"></line><line x1="80.43" y1="446.5" x2="730.75" y2="446.5" stroke="#ddd" stroke-dasharray="3,2"></line><line x1="80.43" y1="357.7" x2="730.75" y2="357.7" stroke="#ddd" stroke-dasharray="3,2"></line><line x1="80.43" y1="269" x2="730.75" y2="269" stroke="#ddd" stroke-dasharray="3,2"></line><line x1="80.43" y1="180.2" x2="730.75" y2="180.2" stroke="#ddd" stroke-dasharray="3,2"></line></g></g><g clip-path="url(#boundsClip-351)"><g class="HeightedLegend clickable"><g class="legendMark"><rect x="730.745" y="420.65" width="104.25500000000001" height="13.5" fill="#fff" opacity="0"></rect><text font-size="13.50" x="735.7" y="431.4" fill="#2a939b"><tspan x="735.745" y="431.45">Natural gas</tspan></text></g><g class="legendMark"><rect x="730.745" y="487.05" width="89.135" height="13.5" fill="#fff" opacity="0"></rect><text font-size="13.50" x="735.7" y="497.9" fill="#ed6c2d"><tspan x="735.745" y="497.85">Crude oil</tspan></text></g><g class="legendMark"><rect x="730.745" y="526.45" width="62.81" height="13.5" fill="#fff" opacity="0"></rect><text font-size="13.50" x="735.7" y="537.3" fill="#818282"><tspan x="735.745" y="537.25">Coal</tspan></text></g></g><g class="Areas"><rect x="80.426" y="92.1" width="650.319" height="443.19999999999993" opacity="0" fill="rgba(255,255,255,0)"></rect><path class="United-Kingdom_0-area" stroke-linecap="round" d="M80.4 221.9L90.3 212.4L100.1 209.5L110 212.2L119.8 212.7L129.7 216.3L139.5 217L149.4 216L159.3 228.8L169.1 243.9L179 262.6L188.8 268.3L198.7 259.9L208.5 264.8L218.4 269.9L228.2 280.3L238.1 297.3L247.9 301.5L257.8 312.8L267.6 332.3L277.5 344.1L287.3 336.3L297.2 371.5L307.1 365.2L316.9 393.1L326.8 369.8L336.6 376.2L346.5 378.4L356.3 376.6L366.2 378.1L376 368.2L385.9 371.6L395.7 375.2L405.6 382.3L415.4 469.7L425.3 414.8L435.1 397.2L445 402.1L454.9 403L464.7 408.8L474.6 418.1L484.4 416.6L494.3 429.1L504.1 449.8L514 473.1L523.8 469.2L533.7 472.9L543.5 475.2L553.4 484.5L563.2 489.7L573.1 497.1L582.9 496.3L592.8 498.8L602.7 501L612.5 505L622.4 510.7L632.2 513.3L642.1 515.3L651.9 514.3L661.8 514.7L671.6 514.4L681.5 514.3L691.3 516.2L701.2 521L711 522.4L720.9 526.8L730.7 531.2L730.745 535.3L80.426 535.3" fill="#818282" fill-opacity="0.7"></path><path class="United-Kingdom_1-area" stroke-linecap="round" d="M80.4 221.8L90.3 212.3L100.1 209.4L110 212.1L119.8 212.6L129.7 216.2L139.5 216.9L149.4 215.8L159.3 228.6L169.1 243.7L179 262.4L188.8 268.1L198.7 259.6L208.5 264.6L218.4 269.7L228.2 280.1L238.1 297.1L247.9 301.4L257.8 312.6L267.6 332.1L277.5 343.8L287.3 335.9L297.2 370.9L307.1 364.5L316.9 392.4L326.8 367L336.6 353.9L346.5 308.2L356.3 277.5L366.2 235.2L376 220.5L385.9 207.4L395.7 185.9L405.6 171.6L415.4 238.9L425.3 181.5L435.1 165.3L445 177.5L454.9 195.2L464.7 242.7L474.6 252.7L484.4 252.2L494.3 259.8L504.1 270.4L514 247.1L523.8 237.9L533.7 242.6L543.5 248.9L553.4 250.6L563.2 248.8L573.1 275.9L582.9 292.4L592.8 296.8L602.7 316.8L612.5 340.2L622.4 365L632.2 382.7L642.1 386.1L651.9 394.5L661.8 402.2L671.6 411.3L681.5 430L691.3 444.4L701.2 456L711 458.8L720.9 454.8L730.7 456.4L730.7 531.2L720.9 526.8L711 522.4L701.2 521L691.3 516.2L681.5 514.3L671.6 514.4L661.8 514.7L651.9 514.3L642.1 515.3L632.2 513.3L622.4 510.7L612.5 505L602.7 501L592.8 498.8L582.9 496.3L573.1 497.1L563.2 489.7L553.4 484.5L543.5 475.2L533.7 472.9L523.8 469.2L514 473.1L504.1 449.8L494.3 429.1L484.4 416.6L474.6 418.1L464.7 408.8L454.9 403L445 402.1L435.1 397.2L425.3 414.8L415.4 469.7L405.6 382.3L395.7 375.2L385.9 371.6L376 368.2L366.2 378.1L356.3 376.6L346.5 378.4L336.6 376.2L326.8 369.8L316.9 393.1L307.1 365.2L297.2 371.5L287.3 336.3L277.5 344.1L267.6 332.3L257.8 312.8L247.9 301.5L238.1 297.3L228.2 280.3L218.4 269.9L208.5 264.8L198.7 259.9L188.8 268.3L179 262.6L169.1 243.9L159.3 228.8L149.4 216L139.5 217L129.7 216.3L119.8 212.7L110 212.2L100.1 209.5L90.3 212.4L80.4 221.9" fill="#ed6c2d" fill-opacity="0.7"></path><path class="United-Kingdom_2-area" stroke-linecap="round" d="M80.4 221.8L90.3 212.3L100.1 209.4L110 212.1L119.8 212.6L129.7 216.1L139.5 216.8L149.4 215.8L159.3 228.5L169.1 243.6L179 262.3L188.8 267.9L198.7 259.4L208.5 264.3L218.4 269.4L228.2 279.8L238.1 296.8L247.9 300.2L257.8 308.8L267.6 323.1L277.5 326.3L287.3 306.9L297.2 329.2L307.1 319.3L316.9 338L326.8 310.4L336.6 294L346.5 245.7L356.3 217.6L366.2 174.8L376 163.1L385.9 150.1L395.7 127.6L405.6 111.6L415.4 180.2L425.3 116.2L435.1 96.8L445 105.9L454.9 126.5L464.7 175.6L474.6 178.8L484.4 170.2L494.3 176.6L504.1 172.8L514 143.2L523.8 124.5L533.7 108.1L543.5 112.2L553.4 107.5L563.2 92.1L573.1 105L582.9 126.1L592.8 134.5L602.7 156.3L612.5 190.6L622.4 229.1L632.2 260.4L642.1 277L651.9 290.3L661.8 313.8L671.6 327.5L681.5 364.1L691.3 388.2L701.2 403.5L711 406.2L720.9 398.3L730.7 398.4L730.7 456.4L720.9 454.8L711 458.8L701.2 456L691.3 444.4L681.5 430L671.6 411.3L661.8 402.2L651.9 394.5L642.1 386.1L632.2 382.7L622.4 365L612.5 340.2L602.7 316.8L592.8 296.8L582.9 292.4L573.1 275.9L563.2 248.8L553.4 250.6L543.5 248.9L533.7 242.6L523.8 237.9L514 247.1L504.1 270.4L494.3 259.8L484.4 252.2L474.6 252.7L464.7 242.7L454.9 195.2L445 177.5L435.1 165.3L425.3 181.5L415.4 238.9L405.6 171.6L395.7 185.9L385.9 207.4L376 220.5L366.2 235.2L356.3 277.5L346.5 308.2L336.6 353.9L326.8 367L316.9 392.4L307.1 364.5L297.2 370.9L287.3 335.9L277.5 343.8L267.6 332.1L257.8 312.6L247.9 301.4L238.1 297.1L228.2 280.1L218.4 269.7L208.5 264.6L198.7 259.6L188.8 268.1L179 262.4L169.1 243.7L159.3 228.6L149.4 215.8L139.5 216.9L129.7 216.2L119.8 212.6L110 212.1L100.1 209.4L90.3 212.3L80.4 221.8" fill="#2a939b" fill-opacity="0.7"></path><path class="United-Kingdom_0-border" stroke-linecap="round" d="M80.4 221.9L90.3 212.4L100.1 209.5L110 212.2L119.8 212.7L129.7 216.3L139.5 217L149.4 216L159.3 228.8L169.1 243.9L179 262.6L188.8 268.3L198.7 259.9L208.5 264.8L218.4 269.9L228.2 280.3L238.1 297.3L247.9 301.5L257.8 312.8L267.6 332.3L277.5 344.1L287.3 336.3L297.2 371.5L307.1 365.2L316.9 393.1L326.8 369.8L336.6 376.2L346.5 378.4L356.3 376.6L366.2 378.1L376 368.2L385.9 371.6L395.7 375.2L405.6 382.3L415.4 469.7L425.3 414.8L435.1 397.2L445 402.1L454.9 403L464.7 408.8L474.6 418.1L484.4 416.6L494.3 429.1L504.1 449.8L514 473.1L523.8 469.2L533.7 472.9L543.5 475.2L553.4 484.5L563.2 489.7L573.1 497.1L582.9 496.3L592.8 498.8L602.7 501L612.5 505L622.4 510.7L632.2 513.3L642.1 515.3L651.9 514.3L661.8 514.7L671.6 514.4L681.5 514.3L691.3 516.2L701.2 521L711 522.4L720.9 526.8L730.7 531.2" stroke="rgb(108, 109, 109)" stroke-opacity="0.7" stroke-width="0.5" fill="none"></path><path class="United-Kingdom_1-border" stroke-linecap="round" d="M80.4 221.8L90.3 212.3L100.1 209.4L110 212.1L119.8 212.6L129.7 216.2L139.5 216.9L149.4 215.8L159.3 228.6L169.1 243.7L179 262.4L188.8 268.1L198.7 259.6L208.5 264.6L218.4 269.7L228.2 280.1L238.1 297.1L247.9 301.4L257.8 312.6L267.6 332.1L277.5 343.8L287.3 335.9L297.2 370.9L307.1 364.5L316.9 392.4L326.8 367L336.6 353.9L346.5 308.2L356.3 277.5L366.2 235.2L376 220.5L385.9 207.4L395.7 185.9L405.6 171.6L415.4 238.9L425.3 181.5L435.1 165.3L445 177.5L454.9 195.2L464.7 242.7L474.6 252.7L484.4 252.2L494.3 259.8L504.1 270.4L514 247.1L523.8 237.9L533.7 242.6L543.5 248.9L553.4 250.6L563.2 248.8L573.1 275.9L582.9 292.4L592.8 296.8L602.7 316.8L612.5 340.2L622.4 365L632.2 382.7L642.1 386.1L651.9 394.5L661.8 402.2L671.6 411.3L681.5 430L691.3 444.4L701.2 456L711 458.8L720.9 454.8L730.7 456.4" stroke="rgb(198, 90, 38)" stroke-opacity="0.7" stroke-width="0.5" fill="none"></path><path class="United-Kingdom_2-border" stroke-linecap="round" d="M80.4 221.8L90.3 212.3L100.1 209.4L110 212.1L119.8 212.6L129.7 216.1L139.5 216.8L149.4 215.8L159.3 228.5L169.1 243.6L179 262.3L188.8 267.9L198.7 259.4L208.5 264.3L218.4 269.4L228.2 279.8L238.1 296.8L247.9 300.2L257.8 308.8L267.6 323.1L277.5 326.3L287.3 306.9L297.2 329.2L307.1 319.3L316.9 338L326.8 310.4L336.6 294L346.5 245.7L356.3 217.6L366.2 174.8L376 163.1L385.9 150.1L395.7 127.6L405.6 111.6L415.4 180.2L425.3 116.2L435.1 96.8L445 105.9L454.9 126.5L464.7 175.6L474.6 178.8L484.4 170.2L494.3 176.6L504.1 172.8L514 143.2L523.8 124.5L533.7 108.1L543.5 112.2L553.4 107.5L563.2 92.1L573.1 105L582.9 126.1L592.8 134.5L602.7 156.3L612.5 190.6L622.4 229.1L632.2 260.4L642.1 277L651.9 290.3L661.8 313.8L671.6 327.5L681.5 364.1L691.3 388.2L701.2 403.5L711 406.2L720.9 398.3L730.7 398.4" stroke="rgb(35, 123, 130)" stroke-opacity="0.7" stroke-width="0.5" fill="none"></path></g></g></g><g class="SourcesFooter" style="fill:#777"><g class="clickable" style="fill:#777"><text font-size="12.60" x="15.0" y="581.6"><tspan x="15" y="581.58">Source: Long-term per capita fossil fuels - OWID based on UN, Gapminder, BP, Etemad &amp; Luciana</tspan></text></g><text font-size="12.60" x="582.4" y="581.6"><tspan x="582.37" y="581.58"><a target='_blank' style='fill: #777;' href='https://ourworldindata.org/fossil-fuels/'>OurWorldInData.org/fossil-fuels/</a> • <a style="fill: #777;" class="cclogo" href="http://creativecommons.org/licenses/by-sa/4.0/deed.en_US" target="_blank">CC BY-SA</a></tspan></text></g></g></svg>