<svg xmlns="http://www.w3.org/2000/svg" version="1.1" style="font-family:&#x27;Helvetica Neue&#x27;, Helvetica, Arial, sans-serif;font-size:18px;background-color:white;text-rendering:optimizeLegibility;-webkit-font-smoothing:antialiased" width="850" height="600"><g class="ChartTab"><g class="HeaderView"><g opacity="0.8" transform="translate(778, 15) scale(0.27)"><a xmlns:xlink="http://www.w3.org/1999/xlink" xlink:href="https://ourworldindata.org" target="_blank"><g><rect x="0" y="0" fill="#1B2543" width="211.2" height="130.1"/><rect x="0" y="112.2" fill="#E63912" width="211.2" height="17.9"/><g><rect x="1.2" y="12.3" fill="none" width="210.2" height="99.2"/><path fill="#FFFFFF" d="M37.8,32.2c0,12.7-7.7,19.4-17.1,19.4c-9.7,0-16.6-7.5-16.6-18.7c0-11.7,7.3-19.3,17.1-19.3 C31.3,13.7,37.8,21.3,37.8,32.2z M9.2,32.8c0,7.9,4.3,14.9,11.8,14.9c7.5,0,11.8-6.9,11.8-15.3c0-7.3-3.8-14.9-11.8-14.9 C13.1,17.5,9.2,24.8,9.2,32.8z"/><path fill="#FFFFFF" d="M62.7,43.8c0,2.7,0.1,5.1,0.2,7.2h-4.3l-0.3-4.3h-0.1c-1.3,2.1-4,4.9-8.8,4.9c-4.2,0-9.1-2.3-9.1-11.6 V24.6h4.8v14.6c0,5,1.5,8.4,5.9,8.4c3.2,0,5.5-2.2,6.3-4.4c0.3-0.7,0.4-1.6,0.4-2.5V24.6h4.8V43.8z"/><path fill="#FFFFFF" d="M67.3,32.8c0-3.1-0.1-5.8-0.2-8.2h4.2l0.2,5.2h0.2c1.2-3.5,4.1-5.8,7.3-5.8c0.5,0,0.9,0.1,1.4,0.2v4.5 c-0.5-0.1-1-0.2-1.6-0.2c-3.4,0-5.8,2.6-6.5,6.2c-0.1,0.7-0.2,1.4-0.2,2.2V51h-4.8V32.8z"/><path fill="#FFFFFF" d="M95.4,51l-9.4-36.8h5l4.4,18.6c1.1,4.6,2.1,9.2,2.7,12.7h0.1c0.6-3.7,1.8-8,3-12.8l4.9-18.5h5l4.5,18.7 c1,4.4,2,8.7,2.6,12.6h0.1c0.8-4,1.8-8.1,3-12.7l4.9-18.5h4.9L120.6,51h-5L111,31.9c-1.1-4.7-1.9-8.3-2.4-12h-0.1 c-0.7,3.7-1.5,7.3-2.8,12L100.4,51H95.4z"/><path fill="#FFFFFF" d="M154.9,37.6c0,9.8-6.8,14-13.2,14c-7.2,0-12.7-5.2-12.7-13.6c0-8.8,5.8-14,13.1-14 C149.8,24,154.9,29.5,154.9,37.6z M133.9,37.9c0,5.8,3.3,10.1,8,10.1c4.6,0,8-4.3,8-10.3c0-4.5-2.2-10.1-7.9-10.1 C136.3,27.6,133.9,32.8,133.9,37.9z"/><path fill="#FFFFFF" d="M158.2,32.8c0-3.1-0.1-5.8-0.2-8.2h4.2l0.2,5.2h0.2c1.2-3.5,4.1-5.8,7.3-5.8c0.5,0,0.9,0.1,1.4,0.2v4.5 c-0.5-0.1-1-0.2-1.6-0.2c-3.4,0-5.8,2.6-6.5,6.2c-0.1,0.7-0.2,1.4-0.2,2.2V51h-4.8V32.8z"/><path fill="#FFFFFF" d="M173.5,12.3h4.8V51h-4.8V12.3z"/><path fill="#FFFFFF" d="M206.5,12.3v31.9c0,2.3,0.1,5,0.2,6.8h-4.3l-0.2-4.6H202c-1.5,2.9-4.7,5.2-9,5.2 c-6.4,0-11.3-5.4-11.3-13.4c-0.1-8.8,5.4-14.2,11.9-14.2c4,0,6.8,1.9,8,4h0.1V12.3H206.5z M201.7,35.4c0-0.6-0.1-1.4-0.2-2 c-0.7-3.1-3.3-5.6-6.9-5.6c-5,0-7.9,4.4-7.9,10.2c0,5.3,2.6,9.8,7.8,9.8c3.2,0,6.2-2.1,7.1-5.7c0.2-0.7,0.2-1.3,0.2-2.1V35.4z"/><path fill="#FFFFFF" d="M42.8,64c0.1,1.6-1.1,2.9-3.1,2.9c-1.7,0-2.9-1.3-2.9-2.9c0-1.7,1.3-3,3-3C41.7,61,42.8,62.3,42.8,64z M37.4,97.8V71.4h4.8v26.4H37.4z"/><path fill="#FFFFFF" d="M47.5,78.6c0-2.7-0.1-5-0.2-7.1h4.3l0.3,4.4h0.1c1.3-2.5,4.4-5,8.8-5c3.7,0,9.4,2.2,9.4,11.2v15.8h-4.8 V82.6c0-4.3-1.6-7.8-6.1-7.8c-3.2,0-5.6,2.2-6.5,4.9c-0.2,0.6-0.3,1.4-0.3,2.2v15.9h-4.8V78.6z"/><path fill="#FFFFFF" d="M84,61.6c2.9-0.4,6.3-0.8,10.1-0.8c6.8,0,11.7,1.6,14.9,4.6c3.3,3,5.2,7.3,5.2,13.2c0,6-1.9,10.9-5.3,14.3 c-3.4,3.4-9.1,5.3-16.3,5.3c-3.4,0-6.2-0.2-8.6-0.4V61.6z M88.8,94.1c1.2,0.2,3,0.3,4.8,0.3c10.2,0,15.7-5.7,15.7-15.6 c0.1-8.7-4.9-14.2-14.9-14.2c-2.5,0-4.3,0.2-5.6,0.5V94.1z"/><path fill="#FFFFFF" d="M132.1,97.8l-0.4-3.3h-0.2c-1.5,2.1-4.3,3.9-8.1,3.9c-5.4,0-8.1-3.8-8.1-7.6c0-6.4,5.7-9.9,15.9-9.8v-0.5 c0-2.2-0.6-6.1-6-6.1c-2.5,0-5,0.8-6.9,2l-1.1-3.2c2.2-1.4,5.4-2.3,8.7-2.3c8.1,0,10.1,5.5,10.1,10.8v9.9c0,2.3,0.1,4.5,0.4,6.3 H132.1z M131.4,84.4c-5.3-0.1-11.2,0.8-11.2,5.9c0,3.1,2.1,4.6,4.5,4.6c3.4,0,5.6-2.2,6.4-4.4c0.2-0.5,0.3-1,0.3-1.5V84.4z"/><path fill="#FFFFFF" d="M146.6,63.9v7.6h6.9v3.7h-6.9v14.2c0,3.3,0.9,5.1,3.6,5.1c1.3,0,2.2-0.2,2.8-0.3l0.2,3.6 c-0.9,0.4-2.4,0.7-4.3,0.7c-2.2,0-4-0.7-5.2-2c-1.4-1.4-1.9-3.8-1.9-6.9V75.1h-4.1v-3.7h4.1v-6.3L146.6,63.9z"/><path fill="#FFFFFF" d="M171.4,97.8l-0.4-3.3h-0.2c-1.5,2.1-4.3,3.9-8.1,3.9c-5.4,0-8.1-3.8-8.1-7.6c0-6.4,5.7-9.9,15.9-9.8v-0.5 c0-2.2-0.6-6.1-6-6.1c-2.5,0-5,0.8-6.9,2l-1.1-3.2c2.2-1.4,5.4-2.3,8.7-2.3c8.1,0,10.1,5.5,10.1,10.8v9.9c0,2.3,0.1,4.5,0.4,6.3 H171.4z M170.7,84.4c-5.3-0.1-11.2,0.8-11.2,5.9c0,3.1,2.1,4.6,4.5,4.6c3.4,0,5.6-2.2,6.4-4.4c0.2-0.5,0.3-1,0.3-1.5V84.4z"/></g></g></a></g><a href="https://ourworldindata.org/grapher/gas-production-by-country" target="_blank"><text font-size="25.20" x="15.0" y="35.2" fill="#555"><tspan x="15" y="35.160000000000004">Gas production by country, terawatt-hours (TWh)</tspan></text></a><text font-size="14.40" x="15.0" y="53.7" fill="#666"><tspan x="15" y="53.72">Natural gas production, measured in terawatt-hour (TWh) equivalents per year.</tspan></text></g><g class="LineChart"><defs><clipPath id="boundsClip-363"><rect x="89.542" y="0" width="830" height="959.8"></rect></clipPath></defs><g class="AxisBoxView"><g class="HorizontalAxis"><text x="99.5" y="556.5" fill="#666" text-anchor="middle" font-size="16.2">1922</text><text x="221.4" y="556.5" fill="#666" text-anchor="middle" font-size="16.2">1940</text><text x="356.8" y="556.5" fill="#666" text-anchor="middle" font-size="16.2">1960</text><text x="492.2" y="556.5" fill="#666" text-anchor="middle" font-size="16.2">1980</text><text x="627.6" y="556.5" fill="#666" text-anchor="middle" font-size="16.2">2000</text><text x="722.4" y="556.5" fill="#666" text-anchor="middle" font-size="16.2">2014</text></g><g class="VerticalAxis"><text x="94.54" y="535.3" fill="#666" dominant-baseline="middle" text-anchor="end" font-size="16.2">0 TWh</text><text x="94.54" y="429.3" fill="#666" dominant-baseline="middle" text-anchor="end" font-size="16.2">2,000 TWh</text><text x="94.54" y="323.3" fill="#666" dominant-baseline="middle" text-anchor="end" font-size="16.2">4,000 TWh</text><text x="94.54" y="217.3" fill="#666" dominant-baseline="middle" text-anchor="end" font-size="16.2">6,000 TWh</text><text x="94.54" y="111.3" fill="#666" dominant-baseline="middle" text-anchor="end" font-size="16.2">8,000 TWh</text></g><g class="AxisGridLines"><line x1="99.54" y1="535.3" x2="722.38" y2="535.3" stroke="#ccc"></line><line x1="99.54" y1="429.3" x2="722.38" y2="429.3" stroke="#ddd" stroke-dasharray="3,2"></line><line x1="99.54" y1="323.3" x2="722.38" y2="323.3" stroke="#ddd" stroke-dasharray="3,2"></line><line x1="99.54" y1="217.3" x2="722.38" y2="217.3" stroke="#ddd" stroke-dasharray="3,2"></line><line x1="99.54" y1="111.3" x2="722.38" y2="111.3" stroke="#ddd" stroke-dasharray="3,2"></line></g></g><g clip-path="url(#boundsClip-363)"><g class="HeightedLegend clickable"><g class="legendMark"><rect x="722.375" y="190.85" width="76.31" height="13.5" fill="#fff" opacity="0"></rect><text font-size="13.50" x="727.4" y="201.7" fill="#f6a324"><tspan x="727.375" y="201.65">Russia</tspan></text></g><g class="legendMark"><rect x="722.375" y="431.55" width="68.885" height="13.5" fill="#fff" opacity="0"></rect><text font-size="13.50" x="727.4" y="442.4" fill="#34983f"><tspan x="727.375" y="442.35">Qatar</tspan></text></g><g class="legendMark"><rect x="722.375" y="468.05" width="112.625" height="13.5" fill="#fff" opacity="0"></rect><text font-size="13.50" x="727.4" y="478.9" fill="#ca2628"><tspan x="727.375" y="478.85">Saudi Arabia</tspan></text></g><g class="legendMark"><rect x="722.375" y="515.85" width="68.75" height="13.5" fill="#fff" opacity="0"></rect><text font-size="13.50" x="727.4" y="526.6" fill="#3360a9"><tspan x="727.375" y="526.65">Brazil</tspan></text></g></g><g class="Lines"><rect x="100" y="77" width="623" height="459" fill="rgba(255,255,255,0)" opacity="0"></rect><g class="key-Russia_0"><path stroke="#f6a324" stroke-linecap="round" d="M100 535L106 535L113 535L120 535L127 535L133 535L140 535L147 535L154 535L161 535L167 535L174 535L181 535L188 534L194 534L201 534L208 534L215 534L221 534L228 534L235 534L242 534L249 533L255 533L262 533L269 533L276 533L282 532L289 532L296 532L303 532L309 532L316 531L323 530L330 529L337 525L343 520L350 516L357 511L364 503L370 495L377 486L384 476L391 465L397 457L404 449L411 443L418 436L425 427L431 419L438 414L445 406L452 393L458 377L465 359L472 296L479 331L485 313L492 287L499 280L506 261L513 242L519 203L526 171L533 150L540 131L546 102L553 87L560 77L567 85L573 181L580 194L587 199L594 206L601 224L607 239L614 229L621 228L628 232L634 234L641 227L648 214L655 201L661 197L668 189L675 191L682 192L689 228L695 192L702 181L709 188L716 183L722 198" fill="none" stroke-width="1.5"></path><g fill="#f6a324"><circle cx="100" cy="535" r="2"></circle><circle cx="106" cy="535" r="2"></circle><circle cx="113" cy="535" r="2"></circle><circle cx="120" cy="535" r="2"></circle><circle cx="127" cy="535" r="2"></circle><circle cx="133" cy="535" r="2"></circle><circle cx="140" cy="535" r="2"></circle><circle cx="147" cy="535" r="2"></circle><circle cx="154" cy="535" r="2"></circle><circle cx="161" cy="535" r="2"></circle><circle cx="167" cy="535" r="2"></circle><circle cx="174" cy="535" r="2"></circle><circle cx="181" cy="535" r="2"></circle><circle cx="188" cy="534" r="2"></circle><circle cx="194" cy="534" r="2"></circle><circle cx="201" cy="534" r="2"></circle><circle cx="208" cy="534" r="2"></circle><circle cx="215" cy="534" r="2"></circle><circle cx="221" cy="534" r="2"></circle><circle cx="228" cy="534" r="2"></circle><circle cx="235" cy="534" r="2"></circle><circle cx="242" cy="534" r="2"></circle><circle cx="249" cy="533" r="2"></circle><circle cx="255" cy="533" r="2"></circle><circle cx="262" cy="533" r="2"></circle><circle cx="269" cy="533" r="2"></circle><circle cx="276" cy="533" r="2"></circle><circle cx="282" cy="532" r="2"></circle><circle cx="289" cy="532" r="2"></circle><circle cx="296" cy="532" r="2"></circle><circle cx="303" cy="532" r="2"></circle><circle cx="309" cy="532" r="2"></circle><circle cx="316" cy="531" r="2"></circle><circle cx="323" cy="530" r="2"></circle><circle cx="330" cy="529" r="2"></circle><circle cx="337" cy="525" r="2"></circle><circle cx="343" cy="520" r="2"></circle><circle cx="350" cy="516" r="2"></circle><circle cx="357" cy="511" r="2"></circle><circle cx="364" cy="503" r="2"></circle><circle cx="370" cy="495" r="2"></circle><circle cx="377" cy="486" r="2"></circle><circle cx="384" cy="476" r="2"></circle><circle cx="391" cy="465" r="2"></circle><circle cx="397" cy="457" r="2"></circle><circle cx="404" cy="449" r="2"></circle><circle cx="411" cy="443" r="2"></circle><circle cx="418" cy="436" r="2"></circle><circle cx="425" cy="427" r="2"></circle><circle cx="431" cy="419" r="2"></circle><circle cx="438" cy="414" r="2"></circle><circle cx="445" cy="406" r="2"></circle><circle cx="452" cy="393" r="2"></circle><circle cx="458" cy="377" r="2"></circle><circle cx="465" cy="359" r="2"></circle><circle cx="472" cy="296" r="2"></circle><circle cx="479" cy="331" r="2"></circle><circle cx="485" cy="313" r="2"></circle><circle cx="492" cy="287" r="2"></circle><circle cx="499" cy="280" r="2"></circle><circle cx="506" cy="261" r="2"></circle><circle cx="513" cy="242" r="2"></circle><circle cx="519" cy="203" r="2"></circle><circle cx="526" cy="171" r="2"></circle><circle cx="533" cy="150" r="2"></circle><circle cx="540" cy="131" r="2"></circle><circle cx="546" cy="102" r="2"></circle><circle cx="553" cy="87" r="2"></circle><circle cx="560" cy="77" r="2"></circle><circle cx="567" cy="85" r="2"></circle><circle cx="573" cy="181" r="2"></circle><circle cx="580" cy="194" r="2"></circle><circle cx="587" cy="199" r="2"></circle><circle cx="594" cy="206" r="2"></circle><circle cx="601" cy="224" r="2"></circle><circle cx="607" cy="239" r="2"></circle><circle cx="614" cy="229" r="2"></circle><circle cx="621" cy="228" r="2"></circle><circle cx="628" cy="232" r="2"></circle><circle cx="634" cy="234" r="2"></circle><circle cx="641" cy="227" r="2"></circle><circle cx="648" cy="214" r="2"></circle><circle cx="655" cy="201" r="2"></circle><circle cx="661" cy="197" r="2"></circle><circle cx="668" cy="189" r="2"></circle><circle cx="675" cy="191" r="2"></circle><circle cx="682" cy="192" r="2"></circle><circle cx="689" cy="228" r="2"></circle><circle cx="695" cy="192" r="2"></circle><circle cx="702" cy="181" r="2"></circle><circle cx="709" cy="188" r="2"></circle><circle cx="716" cy="183" r="2"></circle><circle cx="722" cy="198" r="2"></circle></g></g><g class="key-Brazil_0"><path stroke="#3360a9" stroke-linecap="round" d="M262 535L269 535L276 535L282 535L289 535L296 535L303 535L309 535L316 535L323 535L330 535L337 535L343 535L350 535L357 535L364 535L370 535L377 535L384 535L391 535L397 535L404 535L411 535L418 535L425 535L431 535L438 535L445 535L452 534L458 534L465 534L472 534L479 534L485 534L492 534L499 534L506 535L513 534L519 534L526 534L533 534L540 534L546 534L553 533L560 534L567 533L573 533L580 533L587 533L594 533L601 532L607 532L614 532L621 532L628 531L634 532L641 531L648 530L655 530L661 530L668 530L675 530L682 528L689 529L695 528L702 527L709 526L716 523L722 523" fill="none" stroke-width="1.5"></path><g fill="#3360a9"><circle cx="262" cy="535" r="2"></circle><circle cx="269" cy="535" r="2"></circle><circle cx="276" cy="535" r="2"></circle><circle cx="282" cy="535" r="2"></circle><circle cx="289" cy="535" r="2"></circle><circle cx="296" cy="535" r="2"></circle><circle cx="303" cy="535" r="2"></circle><circle cx="309" cy="535" r="2"></circle><circle cx="316" cy="535" r="2"></circle><circle cx="323" cy="535" r="2"></circle><circle cx="330" cy="535" r="2"></circle><circle cx="337" cy="535" r="2"></circle><circle cx="343" cy="535" r="2"></circle><circle cx="350" cy="535" r="2"></circle><circle cx="357" cy="535" r="2"></circle><circle cx="364" cy="535" r="2"></circle><circle cx="370" cy="535" r="2"></circle><circle cx="377" cy="535" r="2"></circle><circle cx="384" cy="535" r="2"></circle><circle cx="391" cy="535" r="2"></circle><circle cx="397" cy="535" r="2"></circle><circle cx="404" cy="535" r="2"></circle><circle cx="411" cy="535" r="2"></circle><circle cx="418" cy="535" r="2"></circle><circle cx="425" cy="535" r="2"></circle><circle cx="431" cy="535" r="2"></circle><circle cx="438" cy="535" r="2"></circle><circle cx="445" cy="535" r="2"></circle><circle cx="452" cy="534" r="2"></circle><circle cx="458" cy="534" r="2"></circle><circle cx="465" cy="534" r="2"></circle><circle cx="472" cy="534" r="2"></circle><circle cx="479" cy="534" r="2"></circle><circle cx="485" cy="534" r="2"></circle><circle cx="492" cy="534" r="2"></circle><circle cx="499" cy="534" r="2"></circle><circle cx="506" cy="535" r="2"></circle><circle cx="513" cy="534" r="2"></circle><circle cx="519" cy="534" r="2"></circle><circle cx="526" cy="534" r="2"></circle><circle cx="533" cy="534" r="2"></circle><circle cx="540" cy="534" r="2"></circle><circle cx="546" cy="534" r="2"></circle><circle cx="553" cy="533" r="2"></circle><circle cx="560" cy="534" r="2"></circle><circle cx="567" cy="533" r="2"></circle><circle cx="573" cy="533" r="2"></circle><circle cx="580" cy="533" r="2"></circle><circle cx="587" cy="533" r="2"></circle><circle cx="594" cy="533" r="2"></circle><circle cx="601" cy="532" r="2"></circle><circle cx="607" cy="532" r="2"></circle><circle cx="614" cy="532" r="2"></circle><circle cx="621" cy="532" r="2"></circle><circle cx="628" cy="531" r="2"></circle><circle cx="634" cy="532" r="2"></circle><circle cx="641" cy="531" r="2"></circle><circle cx="648" cy="530" r="2"></circle><circle cx="655" cy="530" r="2"></circle><circle cx="661" cy="530" r="2"></circle><circle cx="668" cy="530" r="2"></circle><circle cx="675" cy="530" r="2"></circle><circle cx="682" cy="528" r="2"></circle><circle cx="689" cy="529" r="2"></circle><circle cx="695" cy="528" r="2"></circle><circle cx="702" cy="527" r="2"></circle><circle cx="709" cy="526" r="2"></circle><circle cx="716" cy="523" r="2"></circle><circle cx="722" cy="523" r="2"></circle></g></g><g class="key-Qatar_0"><path stroke="#34983f" stroke-linecap="round" d="M377 535L384 535L391 535L397 535L404 535L411 535L418 535L425 535L431 535L438 535L445 534L452 535L458 534L465 534L472 534L479 534L485 533L492 532L499 533L506 532L513 533L519 532L526 532L533 532L540 532L546 532L553 532L560 531L567 530L573 529L580 528L587 528L594 528L601 527L607 525L614 524L621 523L628 519L634 520L641 518L648 517L655 513L661 507L668 504L675 497L682 488L689 481L695 463L702 446L709 440L716 439L722 438" fill="none" stroke-width="1.5"></path><g fill="#34983f"><circle cx="377" cy="535" r="2"></circle><circle cx="384" cy="535" r="2"></circle><circle cx="391" cy="535" r="2"></circle><circle cx="397" cy="535" r="2"></circle><circle cx="404" cy="535" r="2"></circle><circle cx="411" cy="535" r="2"></circle><circle cx="418" cy="535" r="2"></circle><circle cx="425" cy="535" r="2"></circle><circle cx="431" cy="535" r="2"></circle><circle cx="438" cy="535" r="2"></circle><circle cx="445" cy="534" r="2"></circle><circle cx="452" cy="535" r="2"></circle><circle cx="458" cy="534" r="2"></circle><circle cx="465" cy="534" r="2"></circle><circle cx="472" cy="534" r="2"></circle><circle cx="479" cy="534" r="2"></circle><circle cx="485" cy="533" r="2"></circle><circle cx="492" cy="532" r="2"></circle><circle cx="499" cy="533" r="2"></circle><circle cx="506" cy="532" r="2"></circle><circle cx="513" cy="533" r="2"></circle><circle cx="519" cy="532" r="2"></circle><circle cx="526" cy="532" r="2"></circle><circle cx="533" cy="532" r="2"></circle><circle cx="540" cy="532" r="2"></circle><circle cx="546" cy="532" r="2"></circle><circle cx="553" cy="532" r="2"></circle><circle cx="560" cy="531" r="2"></circle><circle cx="567" cy="530" r="2"></circle><circle cx="573" cy="529" r="2"></circle><circle cx="580" cy="528" r="2"></circle><circle cx="587" cy="528" r="2"></circle><circle cx="594" cy="528" r="2"></circle><circle cx="601" cy="527" r="2"></circle><circle cx="607" cy="525" r="2"></circle><circle cx="614" cy="524" r="2"></circle><circle cx="621" cy="523" r="2"></circle><circle cx="628" cy="519" r="2"></circle><circle cx="634" cy="520" r="2"></circle><circle cx="641" cy="518" r="2"></circle><circle cx="648" cy="517" r="2"></circle><circle cx="655" cy="513" r="2"></circle><circle cx="661" cy="507" r="2"></circle><circle cx="668" cy="504" r="2"></circle><circle cx="675" cy="497" r="2"></circle><circle cx="682" cy="488" r="2"></circle><circle cx="689" cy="481" r="2"></circle><circle cx="695" cy="463" r="2"></circle><circle cx="702" cy="446" r="2"></circle><circle cx="709" cy="440" r="2"></circle><circle cx="716" cy="439" r="2"></circle><circle cx="722" cy="438" r="2"></circle></g></g><g class="key-Saudi-Arabia_0"><path stroke="#ca2628" stroke-linecap="round" d="M364 535L370 535L377 535L384 535L391 535L397 535L404 535L411 534L418 534L425 534L431 534L438 534L445 532L452 531L458 532L465 531L472 530L479 529L485 528L492 530L499 526L506 528L513 529L519 525L526 524L533 521L540 520L546 519L553 518L560 518L567 517L573 516L580 515L587 514L594 514L601 512L607 509L614 508L621 509L628 507L634 505L641 503L648 501L655 498L661 495L668 494L675 494L682 490L689 491L695 486L702 484L709 480L716 479L722 475" fill="none" stroke-width="1.5"></path><g fill="#ca2628"><circle cx="364" cy="535" r="2"></circle><circle cx="370" cy="535" r="2"></circle><circle cx="377" cy="535" r="2"></circle><circle cx="384" cy="535" r="2"></circle><circle cx="391" cy="535" r="2"></circle><circle cx="397" cy="535" r="2"></circle><circle cx="404" cy="535" r="2"></circle><circle cx="411" cy="534" r="2"></circle><circle cx="418" cy="534" r="2"></circle><circle cx="425" cy="534" r="2"></circle><circle cx="431" cy="534" r="2"></circle><circle cx="438" cy="534" r="2"></circle><circle cx="445" cy="532" r="2"></circle><circle cx="452" cy="531" r="2"></circle><circle cx="458" cy="532" r="2"></circle><circle cx="465" cy="531" r="2"></circle><circle cx="472" cy="530" r="2"></circle><circle cx="479" cy="529" r="2"></circle><circle cx="485" cy="528" r="2"></circle><circle cx="492" cy="530" r="2"></circle><circle cx="499" cy="526" r="2"></circle><circle cx="506" cy="528" r="2"></circle><circle cx="513" cy="529" r="2"></circle><circle cx="519" cy="525" r="2"></circle><circle cx="526" cy="524" r="2"></circle><circle cx="533" cy="521" r="2"></circle><circle cx="540" cy="520" r="2"></circle><circle cx="546" cy="519" r="2"></circle><circle cx="553" cy="518" r="2"></circle><circle cx="560" cy="518" r="2"></circle><circle cx="567" cy="517" r="2"></circle><circle cx="573" cy="516" r="2"></circle><circle cx="580" cy="515" r="2"></circle><circle cx="587" cy="514" r="2"></circle><circle cx="594" cy="514" r="2"></circle><circle cx="601" cy="512" r="2"></circle><circle cx="607" cy="509" r="2"></circle><circle cx="614" cy="508" r="2"></circle><circle cx="621" cy="509" r="2"></circle><circle cx="628" cy="507" r="2"></circle><circle cx="634" cy="505" r="2"></circle><circle cx="641" cy="503" r="2"></circle><circle cx="648" cy="501" r="2"></circle><circle cx="655" cy="498" r="2"></circle><circle cx="661" cy="495" r="2"></circle><circle cx="668" cy="494" r="2"></circle><circle cx="675" cy="494" r="2"></circle><circle cx="682" cy="490" r="2"></circle><circle cx="689" cy="491" r="2"></circle><circle cx="695" cy="486" r="2"></circle><circle cx="702" cy="484" r="2"></circle><circle cx="709" cy="480" r="2"></circle><circle cx="716" cy="479" r="2"></circle><circle cx="722" cy="475" r="2"></circle></g></g></g></g></g><g class="SourcesFooter" style="fill:#777"><g class="clickable" style="fill:#777"><text font-size="12.60" x="15.0" y="581.6"><tspan x="15" y="581.58">Source: The SHIFT Project - Etemad &amp; Luciana; US IEA</tspan></text></g><text font-size="12.60" x="582.4" y="581.6"><tspan x="582.37" y="581.58"><a target='_blank' style='fill: #777;' href='https://ourworldindata.org/fossil-fuels/'>OurWorldInData.org/fossil-fuels/</a> • <a style="fill: #777;" class="cclogo" href="http://creativecommons.org/licenses/by-sa/4.0/deed.en_US" target="_blank">CC BY-SA</a></tspan></text></g></g></svg>