<svg xmlns="http://www.w3.org/2000/svg" version="1.1" style="font-family:&#x27;Helvetica Neue&#x27;, Helvetica, Arial, sans-serif;font-size:18px;background-color:white;text-rendering:optimizeLegibility;-webkit-font-smoothing:antialiased" width="850" height="600"><g class="ChartTab"><g class="HeaderView"><g opacity="0.8" transform="translate(778, 15) scale(0.27)"><a xmlns:xlink="http://www.w3.org/1999/xlink" xlink:href="https://ourworldindata.org" target="_blank"><g><rect x="0" y="0" fill="#1B2543" width="211.2" height="130.1"/><rect x="0" y="112.2" fill="#E63912" width="211.2" height="17.9"/><g><rect x="1.2" y="12.3" fill="none" width="210.2" height="99.2"/><path fill="#FFFFFF" d="M37.8,32.2c0,12.7-7.7,19.4-17.1,19.4c-9.7,0-16.6-7.5-16.6-18.7c0-11.7,7.3-19.3,17.1-19.3 C31.3,13.7,37.8,21.3,37.8,32.2z M9.2,32.8c0,7.9,4.3,14.9,11.8,14.9c7.5,0,11.8-6.9,11.8-15.3c0-7.3-3.8-14.9-11.8-14.9 C13.1,17.5,9.2,24.8,9.2,32.8z"/><path fill="#FFFFFF" d="M62.7,43.8c0,2.7,0.1,5.1,0.2,7.2h-4.3l-0.3-4.3h-0.1c-1.3,2.1-4,4.9-8.8,4.9c-4.2,0-9.1-2.3-9.1-11.6 V24.6h4.8v14.6c0,5,1.5,8.4,5.9,8.4c3.2,0,5.5-2.2,6.3-4.4c0.3-0.7,0.4-1.6,0.4-2.5V24.6h4.8V43.8z"/><path fill="#FFFFFF" d="M67.3,32.8c0-3.1-0.1-5.8-0.2-8.2h4.2l0.2,5.2h0.2c1.2-3.5,4.1-5.8,7.3-5.8c0.5,0,0.9,0.1,1.4,0.2v4.5 c-0.5-0.1-1-0.2-1.6-0.2c-3.4,0-5.8,2.6-6.5,6.2c-0.1,0.7-0.2,1.4-0.2,2.2V51h-4.8V32.8z"/><path fill="#FFFFFF" d="M95.4,51l-9.4-36.8h5l4.4,18.6c1.1,4.6,2.1,9.2,2.7,12.7h0.1c0.6-3.7,1.8-8,3-12.8l4.9-18.5h5l4.5,18.7 c1,4.4,2,8.7,2.6,12.6h0.1c0.8-4,1.8-8.1,3-12.7l4.9-18.5h4.9L120.6,51h-5L111,31.9c-1.1-4.7-1.9-8.3-2.4-12h-0.1 c-0.7,3.7-1.5,7.3-2.8,12L100.4,51H95.4z"/><path fill="#FFFFFF" d="M154.9,37.6c0,9.8-6.8,14-13.2,14c-7.2,0-12.7-5.2-12.7-13.6c0-8.8,5.8-14,13.1-14 C149.8,24,154.9,29.5,154.9,37.6z M133.9,37.9c0,5.8,3.3,10.1,8,10.1c4.6,0,8-4.3,8-10.3c0-4.5-2.2-10.1-7.9-10.1 C136.3,27.6,133.9,32.8,133.9,37.9z"/><path fill="#FFFFFF" d="M158.2,32.8c0-3.1-0.1-5.8-0.2-8.2h4.2l0.2,5.2h0.2c1.2-3.5,4.1-5.8,7.3-5.8c0.5,0,0.9,0.1,1.4,0.2v4.5 c-0.5-0.1-1-0.2-1.6-0.2c-3.4,0-5.8,2.6-6.5,6.2c-0.1,0.7-0.2,1.4-0.2,2.2V51h-4.8V32.8z"/><path fill="#FFFFFF" d="M173.5,12.3h4.8V51h-4.8V12.3z"/><path fill="#FFFFFF" d="M206.5,12.3v31.9c0,2.3,0.1,5,0.2,6.8h-4.3l-0.2-4.6H202c-1.5,2.9-4.7,5.2-9,5.2 c-6.4,0-11.3-5.4-11.3-13.4c-0.1-8.8,5.4-14.2,11.9-14.2c4,0,6.8,1.9,8,4h0.1V12.3H206.5z M201.7,35.4c0-0.6-0.1-1.4-0.2-2 c-0.7-3.1-3.3-5.6-6.9-5.6c-5,0-7.9,4.4-7.9,10.2c0,5.3,2.6,9.8,7.8,9.8c3.2,0,6.2-2.1,7.1-5.7c0.2-0.7,0.2-1.3,0.2-2.1V35.4z"/><path fill="#FFFFFF" d="M42.8,64c0.1,1.6-1.1,2.9-3.1,2.9c-1.7,0-2.9-1.3-2.9-2.9c0-1.7,1.3-3,3-3C41.7,61,42.8,62.3,42.8,64z M37.4,97.8V71.4h4.8v26.4H37.4z"/><path fill="#FFFFFF" d="M47.5,78.6c0-2.7-0.1-5-0.2-7.1h4.3l0.3,4.4h0.1c1.3-2.5,4.4-5,8.8-5c3.7,0,9.4,2.2,9.4,11.2v15.8h-4.8 V82.6c0-4.3-1.6-7.8-6.1-7.8c-3.2,0-5.6,2.2-6.5,4.9c-0.2,0.6-0.3,1.4-0.3,2.2v15.9h-4.8V78.6z"/><path fill="#FFFFFF" d="M84,61.6c2.9-0.4,6.3-0.8,10.1-0.8c6.8,0,11.7,1.6,14.9,4.6c3.3,3,5.2,7.3,5.2,13.2c0,6-1.9,10.9-5.3,14.3 c-3.4,3.4-9.1,5.3-16.3,5.3c-3.4,0-6.2-0.2-8.6-0.4V61.6z M88.8,94.1c1.2,0.2,3,0.3,4.8,0.3c10.2,0,15.7-5.7,15.7-15.6 c0.1-8.7-4.9-14.2-14.9-14.2c-2.5,0-4.3,0.2-5.6,0.5V94.1z"/><path fill="#FFFFFF" d="M132.1,97.8l-0.4-3.3h-0.2c-1.5,2.1-4.3,3.9-8.1,3.9c-5.4,0-8.1-3.8-8.1-7.6c0-6.4,5.7-9.9,15.9-9.8v-0.5 c0-2.2-0.6-6.1-6-6.1c-2.5,0-5,0.8-6.9,2l-1.1-3.2c2.2-1.4,5.4-2.3,8.7-2.3c8.1,0,10.1,5.5,10.1,10.8v9.9c0,2.3,0.1,4.5,0.4,6.3 H132.1z M131.4,84.4c-5.3-0.1-11.2,0.8-11.2,5.9c0,3.1,2.1,4.6,4.5,4.6c3.4,0,5.6-2.2,6.4-4.4c0.2-0.5,0.3-1,0.3-1.5V84.4z"/><path fill="#FFFFFF" d="M146.6,63.9v7.6h6.9v3.7h-6.9v14.2c0,3.3,0.9,5.1,3.6,5.1c1.3,0,2.2-0.2,2.8-0.3l0.2,3.6 c-0.9,0.4-2.4,0.7-4.3,0.7c-2.2,0-4-0.7-5.2-2c-1.4-1.4-1.9-3.8-1.9-6.9V75.1h-4.1v-3.7h4.1v-6.3L146.6,63.9z"/><path fill="#FFFFFF" d="M171.4,97.8l-0.4-3.3h-0.2c-1.5,2.1-4.3,3.9-8.1,3.9c-5.4,0-8.1-3.8-8.1-7.6c0-6.4,5.7-9.9,15.9-9.8v-0.5 c0-2.2-0.6-6.1-6-6.1c-2.5,0-5,0.8-6.9,2l-1.1-3.2c2.2-1.4,5.4-2.3,8.7-2.3c8.1,0,10.1,5.5,10.1,10.8v9.9c0,2.3,0.1,4.5,0.4,6.3 H171.4z M170.7,84.4c-5.3-0.1-11.2,0.8-11.2,5.9c0,3.1,2.1,4.6,4.5,4.6c3.4,0,5.6-2.2,6.4-4.4c0.2-0.5,0.3-1,0.3-1.5V84.4z"/></g></g></a></g><a href="https://ourworldindata.org/grapher/gender-gap-in-hourly-wages-vs-ratio-of-female-to-male-labor-force-participation" target="_blank"><text font-size="21.60" x="15.0" y="32.3" fill="#555"><tspan x="15" y="32.279999999999994">Gender gap in hourly wages vs. Ratio of female-to-male labor force</tspan><tspan x="15" y="53.87999999999999">participation, 2016</tspan></text></a><text font-size="14.40" x="15.0" y="72.7" fill="#666"><tspan x="15" y="72.72">The vertical axis shows the unadjusted gender wage gap calculated as the difference between average hourly earnings of men</tspan><tspan x="15" y="88.56">and average hourly earnings of women expressed as a percentage of average hourly earnings of men. The horizontal axis</tspan><tspan x="15" y="104.4">shows the ratio of female to male labor force participation rates (participation rates correspond to the proportion of the</tspan><tspan x="15" y="120.24000000000001">population ages 15 and older that is economically active). </tspan></text></g><g><g class="AxisBoxView"><g class="HorizontalAxis"><text font-size="12.60" x="140.5" y="554.0"><tspan x="140.531" y="553.98">Ratio of female to male labor force participation rate (%) (modeled ILO estimate)</tspan></text><text x="82.3" y="533.9" fill="#666" text-anchor="middle" font-size="16.2">30</text><text x="185.8" y="533.9" fill="#666" text-anchor="middle" font-size="16.2">40</text><text x="289.2" y="533.9" fill="#666" text-anchor="middle" font-size="16.2">50</text><text x="392.7" y="533.9" fill="#666" text-anchor="middle" font-size="16.2">60</text><text x="496.2" y="533.9" fill="#666" text-anchor="middle" font-size="16.2">70</text><text x="599.6" y="533.9" fill="#666" text-anchor="middle" font-size="16.2">80</text><text x="703.1" y="533.9" fill="#666" text-anchor="middle" font-size="16.2">90</text></g><g class="VerticalAxis"><text font-size="12.60" x="-411.2" y="25.1" transform="rotate(-90)"><tspan x="-411.16599999999994" y="25.080000000000002">Gender wage gap (%)</tspan></text><text x="75.51" y="502.2" fill="#666" dominant-baseline="middle" text-anchor="end" font-size="16.2">-20%</text><text x="75.51" y="435" fill="#666" dominant-baseline="middle" text-anchor="end" font-size="16.2">-10%</text><text x="75.51" y="367.8" fill="#666" dominant-baseline="middle" text-anchor="end" font-size="16.2">0%</text><text x="75.51" y="300.6" fill="#666" dominant-baseline="middle" text-anchor="end" font-size="16.2">10%</text><text x="75.51" y="233.4" fill="#666" dominant-baseline="middle" text-anchor="end" font-size="16.2">20%</text><text x="75.51" y="166.2" fill="#666" dominant-baseline="middle" text-anchor="end" font-size="16.2">30%</text></g><g class="AxisGridLines"><line x1="80.51" y1="502.2" x2="715.00" y2="502.2" stroke="#ddd" stroke-dasharray="3,2"></line><line x1="80.51" y1="435" x2="715.00" y2="435" stroke="#ddd" stroke-dasharray="3,2"></line><line x1="80.51" y1="367.8" x2="715.00" y2="367.8" stroke="#ccc"></line><line x1="80.51" y1="300.6" x2="715.00" y2="300.6" stroke="#ddd" stroke-dasharray="3,2"></line><line x1="80.51" y1="233.4" x2="715.00" y2="233.4" stroke="#ddd" stroke-dasharray="3,2"></line><line x1="80.51" y1="166.2" x2="715.00" y2="166.2" stroke="#ddd" stroke-dasharray="3,2"></line></g><g class="AxisGridLines"><line x1="82.3" y1="512.70" x2="82.3" y2="142.10" stroke="#ddd" stroke-dasharray="3,2"></line><line x1="185.8" y1="512.70" x2="185.8" y2="142.10" stroke="#ddd" stroke-dasharray="3,2"></line><line x1="289.2" y1="512.70" x2="289.2" y2="142.10" stroke="#ddd" stroke-dasharray="3,2"></line><line x1="392.7" y1="512.70" x2="392.7" y2="142.10" stroke="#ddd" stroke-dasharray="3,2"></line><line x1="496.2" y1="512.70" x2="496.2" y2="142.10" stroke="#ddd" stroke-dasharray="3,2"></line><line x1="599.6" y1="512.70" x2="599.6" y2="142.10" stroke="#ddd" stroke-dasharray="3,2"></line><line x1="703.1" y1="512.70" x2="703.1" y2="142.10" stroke="#ddd" stroke-dasharray="3,2"></line></g></g><g class="PointsWithLabels clickable" clip-path="url(#scatterBounds-479)" font-family="Arial Narrow, Arial, sans-serif"><rect x="80.50800000000001" y="142.1" width="634.492" height="370.59999999999997" fill="rgba(255,255,255,0)"></rect><defs><clipPath id="scatterBounds-479"><rect x="70.50800000000001" y="132.1" width="654.492" height="390.59999999999997"></rect></clipPath></defs><g class="key-Brazil_0"><circle cx="513.00" cy="260.00" r="17.84" fill="#69c487" opacity="0.8" stroke="#333" stroke-width="0.7"></circle></g><g class="key-Pakistan_0"><circle cx="80.00" cy="295.00" r="17.08" fill="#d14e5b" opacity="0.8" stroke="#333" stroke-width="0.7"></circle></g><g class="key-Russia_0"><circle cx="589.00" cy="203.00" r="15.09" fill="#ffd336" opacity="0.8" stroke="#333" stroke-width="0.7"></circle></g><g class="key-Mexico_0"><circle cx="363.00" cy="323.00" r="13.72" fill="#4d824b" opacity="0.8" stroke="#333" stroke-width="0.7"></circle></g><g class="key-Vietnam_0"><circle cx="689.00" cy="295.00" r="12.08" fill="#d14e5b" opacity="0.8" stroke="#333" stroke-width="0.7"></circle></g><g class="key-Germany_0"><circle cx="623.00" cy="218.00" r="11.48" fill="#ffd336" opacity="0.8" stroke="#333" stroke-width="0.7"></circle></g><g class="key-Turkey_0"><circle cx="211.00" cy="376.00" r="11.03" fill="#d14e5b" opacity="0.8" stroke="#333" stroke-width="0.7"></circle></g><g class="key-Thailand_0"><circle cx="584.00" cy="512.00" r="10.66" fill="#d14e5b" opacity="0.8" stroke="#333" stroke-width="0.7"></circle></g><g class="key-France_0"><circle cx="647.00" cy="263.00" r="10.17" fill="#ffd336" opacity="0.8" stroke="#333" stroke-width="0.7"></circle></g><g class="key-United-Kingdom_0"><circle cx="630.00" cy="229.00" r="10.12" fill="#ffd336" opacity="0.8" stroke="#333" stroke-width="0.7"></circle></g><g class="key-Italy_0"><circle cx="472.00" cy="326.00" r="9.96" fill="#ffd336" opacity="0.8" stroke="#333" stroke-width="0.7"></circle></g><g class="key-South-Korea_0"><circle cx="492.00" cy="142.00" r="8.93" fill="#d14e5b" opacity="0.8" stroke="#333" stroke-width="0.7"></circle></g><g class="key-Colombia_0"><circle cx="523.00" cy="365.00" r="8.88" fill="#69c487" opacity="0.8" stroke="#333" stroke-width="0.7"></circle></g><g class="key-Spain_0"><circle cx="610.00" cy="283.00" r="8.78" fill="#ffd336" opacity="0.8" stroke="#333" stroke-width="0.7"></circle></g><g class="key-Argentina_0"><circle cx="446.00" cy="392.00" r="8.26" fill="#69c487" opacity="0.8" stroke="#333" stroke-width="0.7"></circle></g><g class="key-Poland_0"><circle cx="552.00" cy="315.00" r="7.96" fill="#ffd336" opacity="0.8" stroke="#333" stroke-width="0.7"></circle></g><g class="key-Peru_0"><circle cx="596.00" cy="230.00" r="7.09" fill="#69c487" opacity="0.8" stroke="#333" stroke-width="0.7"></circle></g><g class="key-Malaysia_0"><circle cx="428.00" cy="382.00" r="7.06" fill="#d14e5b" opacity="0.8" stroke="#fff" stroke-width="0.7"></circle></g><g class="key-Romania_0"><circle cx="530.00" cy="323.00" r="6.04" fill="#ffd336" opacity="0.8" stroke="#fff" stroke-width="0.7"></circle></g><g class="key-Chile_0"><circle cx="474.00" cy="229.00" r="5.53" fill="#69c487" opacity="0.8" stroke="#333" stroke-width="0.7"></circle></g><g class="key-Netherlands_0"><circle cx="620.00" cy="259.00" r="5.41" fill="#ffd336" opacity="0.8" stroke="#fff" stroke-width="0.7"></circle></g><g class="key-Guatemala_0"><circle cx="284.00" cy="363.00" r="5.23" fill="#4d824b" opacity="0.8" stroke="#333" stroke-width="0.7"></circle></g><g class="key-Ecuador_0"><circle cx="407.00" cy="386.00" r="5.16" fill="#69c487" opacity="0.8" stroke="#fff" stroke-width="0.7"></circle></g><g class="key-Belgium_0"><circle cx="615.00" cy="323.00" r="4.47" fill="#ffd336" opacity="0.8" stroke="#333" stroke-width="0.7"></circle></g><g class="key-Portugal_0"><circle cx="636.00" cy="310.00" r="4.45" fill="#ffd336" opacity="0.8" stroke="#333" stroke-width="0.7"></circle></g><g class="key-Czech-Republic_0"><circle cx="550.00" cy="229.00" r="4.42" fill="#ffd336" opacity="0.8" stroke="#fff" stroke-width="0.7"></circle></g><g class="key-Bolivia_0"><circle cx="573.00" cy="326.00" r="4.39" fill="#69c487" opacity="0.8" stroke="#333" stroke-width="0.7"></circle></g><g class="key-Dominican-Republic_0"><circle cx="460.00" cy="318.00" r="4.37" fill="#4d824b" opacity="0.8" stroke="#fff" stroke-width="0.7"></circle></g><g class="key-Hungary_0"><circle cx="542.00" cy="266.00" r="4.31" fill="#ffd336" opacity="0.8" stroke="#333" stroke-width="0.7"></circle></g><g class="key-Serbia_0"><circle cx="520.00" cy="309.00" r="4.29" fill="#ffd336" opacity="0.8" stroke="#fff" stroke-width="0.7"></circle></g><g class="key-Sweden_0"><circle cx="695.00" cy="274.00" r="4.23" fill="#ffd336" opacity="0.8" stroke="#333" stroke-width="0.7"></circle></g><g class="key-Austria_0"><circle cx="630.00" cy="218.00" r="4.02" fill="#ffd336" opacity="0.8" stroke="#fff" stroke-width="0.7"></circle></g><g class="key-Honduras_0"><circle cx="352.00" cy="468.00" r="3.95" fill="#4d824b" opacity="0.8" stroke="#333" stroke-width="0.7"></circle></g><g class="key-Israel_0"><circle cx="649.00" cy="266.00" r="3.90" fill="#d14e5b" opacity="0.8" stroke="#fff" stroke-width="0.7"></circle></g><g class="key-Switzerland_0"><circle cx="639.00" cy="251.00" r="3.89" fill="#ffd336" opacity="0.8" stroke="#fff" stroke-width="0.7"></circle></g><g class="key-Bulgaria_0"><circle cx="607.00" cy="282.00" r="3.80" fill="#ffd336" opacity="0.8" stroke="#fff" stroke-width="0.7"></circle></g><g class="key-Paraguay_0"><circle cx="483.00" cy="379.00" r="3.69" fill="#69c487" opacity="0.8" stroke="#fff" stroke-width="0.7"></circle></g><g class="key-El-Salvador_0"><circle cx="415.00" cy="403.00" r="3.58" fill="#4d824b" opacity="0.8" stroke="#333" stroke-width="0.7"></circle></g><g class="key-Nicaragua_0"><circle cx="406.00" cy="350.00" r="3.52" fill="#4d824b" opacity="0.8" stroke="#333" stroke-width="0.7"></circle></g><g class="key-Denmark_0"><circle cx="681.00" cy="260.00" r="3.42" fill="#ffd336" opacity="0.8" stroke="#fff" stroke-width="0.7"></circle></g><g class="key-Slovakia_0"><circle cx="551.00" cy="239.00" r="3.40" fill="#ffd336" opacity="0.8" stroke="#333" stroke-width="0.7"></circle></g><g class="key-Finland_0"><circle cx="687.00" cy="258.00" r="3.38" fill="#ffd336" opacity="0.8" stroke="#fff" stroke-width="0.7"></circle></g><g class="key-Norway_0"><circle cx="696.00" cy="270.00" r="3.28" fill="#ffd336" opacity="0.8" stroke="#fff" stroke-width="0.7"></circle></g><g class="key-Ireland_0"><circle cx="571.00" cy="274.00" r="3.19" fill="#ffd336" opacity="0.8" stroke="#fff" stroke-width="0.7"></circle></g><g class="key-Panama_0"><circle cx="422.00" cy="337.00" r="2.95" fill="#4d824b" opacity="0.8" stroke="#333" stroke-width="0.7"></circle></g><g class="key-Uruguay_0"><circle cx="524.00" cy="309.00" r="2.87" fill="#69c487" opacity="0.8" stroke="#fff" stroke-width="0.7"></circle></g><g class="key-Lithuania_0"><circle cx="621.00" cy="278.00" r="2.84" fill="#ffd336" opacity="0.8" stroke="#fff" stroke-width="0.7"></circle></g><g class="key-Latvia_0"><circle cx="603.00" cy="251.00" r="2.53" fill="#ffd336" opacity="0.8" stroke="#333" stroke-width="0.7"></circle></g><g class="key-Macedonia_0"><circle cx="440.00" cy="306.00" r="2.48" fill="#ffd336" opacity="0.8" stroke="#333" stroke-width="0.7"></circle></g><g class="key-Slovenia_0"><circle cx="631.00" cy="320.00" r="2.47" fill="#ffd336" opacity="0.8" stroke="#fff" stroke-width="0.7"></circle></g><g class="key-Estonia_0"><circle cx="596.00" cy="178.00" r="2.23" fill="#ffd336" opacity="0.8" stroke="#fff" stroke-width="0.7"></circle></g><g class="key-Cyprus_0"><circle cx="620.00" cy="272.00" r="2.16" fill="#ffd336" opacity="0.8" stroke="#fff" stroke-width="0.7"></circle></g><g class="key-Montenegro_0"><circle cx="545.00" cy="315.00" r="1.97" fill="#ffd336" opacity="0.8" stroke="#fff" stroke-width="0.7"></circle></g><g class="key-Luxembourg_0"><circle cx="591.00" cy="331.00" r="1.93" fill="#ffd336" opacity="0.8" stroke="#fff" stroke-width="0.7"></circle></g><g class="key-Malta_0"><circle cx="386.00" cy="299.00" r="1.88" fill="#ffd336" opacity="0.8" stroke="#fff" stroke-width="0.7"></circle></g><g class="key-Brunei_0"><circle cx="470.00" cy="349.00" r="1.88" fill="#d14e5b" opacity="0.8" stroke="#333" stroke-width="0.7"></circle></g><g class="key-Iceland_0"><circle cx="715.00" cy="256.00" r="1.85" fill="#ffd336" opacity="0.8" stroke="#fff" stroke-width="0.7"></circle></g><g class="key-Belize_0"><circle cx="469.00" cy="502.00" r="1.85" fill="#4d824b" opacity="0.8" stroke="#333" stroke-width="0.7"></circle></g><g class="backgroundLabels" fill="#333"><text x="513.00" y="241.16" font-size="14.30">Brazil</text><text x="80.00" y="276.92" font-size="14.02">Pakistan</text><text x="589.00" y="186.91" font-size="13.35">Russia</text><text x="363.00" y="308.28" font-size="12.94">Mexico</text><text x="643.02" y="281.92" font-size="12.49">Vietnam</text><text x="623.00" y="205.52" font-size="12.35">Germany</text><text x="211.00" y="363.97" font-size="12.24">Turkey</text><text x="584.00" y="500.34" font-size="12.16">Thailand</text><text x="647.00" y="251.83" font-size="12.05">France</text><text x="630.00" y="217.88" font-size="12.04">United Kingdom</text><text x="472.00" y="315.04" font-size="12.01">Italy</text><text x="492.00" y="153.90" font-size="11.80">South Korea</text><text x="523.00" y="355.12" font-size="11.79">Colombia</text><text x="610.00" y="273.22" font-size="11.77">Spain</text><text x="446.00" y="382.74" font-size="11.68">Argentina</text><text x="552.00" y="306.04" font-size="11.63">Poland</text><text x="596.00" y="221.91" font-size="11.49">Peru</text><text x="474.00" y="222.47" font-size="11.29">Chile</text><text x="284.00" y="356.77" font-size="11.25">Guatemala</text><text x="615.00" y="317.53" font-size="11.18">Belgium</text><text x="636.00" y="304.55" font-size="11.17">Portugal</text><text x="573.00" y="320.61" font-size="11.17">Bolivia</text><text x="542.00" y="260.69" font-size="11.16">Hungary</text><text x="654.51" y="268.77" font-size="11.15">Sweden</text><text x="352.00" y="463.05" font-size="11.13">Honduras</text><text x="415.00" y="398.42" font-size="11.10">El Salvador</text><text x="406.00" y="345.48" font-size="11.10">Nicaragua</text><text x="551.00" y="234.60" font-size="11.09">Slovakia</text><text x="422.00" y="333.05" font-size="11.06">Panama</text><text x="603.00" y="247.47" font-size="11.03">Latvia</text><text x="440.00" y="302.52" font-size="11.03">Macedonia</text><text x="470.00" y="346.12" font-size="11.00">Brunei</text><text x="469.00" y="499.15" font-size="11.00">Belize</text></g></g><g class="ScatterColorLegend clickable" style="cursor:pointer"><g class="legendMark"><rect x="735" y="139.6" width="35.57" height="17.6" fill="#fff" opacity="0"></rect>,<rect x="735" y="145.1" width="6" height="6" fill="#d14e5b"></rect>,<text font-size="12.60" x="746.0" y="152.2"><tspan x="746" y="152.17999999999998">Asia</tspan></text></g><g class="legendMark"><rect x="735" y="157.2" width="51.824" height="17.6" fill="#fff" opacity="0"></rect>,<rect x="735" y="162.7" width="6" height="6" fill="#ffd336"></rect>,<text font-size="12.60" x="746.0" y="169.8"><tspan x="746" y="169.77999999999997">Europe</tspan></text></g><g class="legendMark"><rect x="735" y="174.8" width="91.64" height="17.6" fill="#fff" opacity="0"></rect>,<rect x="735" y="180.3" width="6" height="6" fill="#4d824b"></rect>,<text font-size="12.60" x="746.0" y="187.4"><tspan x="746" y="187.38">North America</tspan></text></g><g class="legendMark"><rect x="735" y="192.4" width="93.908" height="17.6" fill="#fff" opacity="0"></rect>,<rect x="735" y="197.9" width="6" height="6" fill="#69c487"></rect>,<text font-size="12.60" x="746.0" y="205.0"><tspan x="746" y="204.98">South America</tspan></text></g></g></g><g class="SourcesFooter" style="fill:#777"><g class="clickable" style="fill:#777"><text font-size="12.60" x="15.0" y="581.6"><tspan x="15" y="581.58">Source: ILOSTAT, World Bank</tspan></text></g><text font-size="12.60" x="775.4" y="581.6"><tspan x="775.402" y="581.58"><a style="fill: #777;" class="cclogo" href="http://creativecommons.org/licenses/by-sa/4.0/deed.en_US" target="_blank">CC BY-SA</a></tspan></text></g></g></svg>