<svg xmlns="http://www.w3.org/2000/svg" version="1.1" style="font-family:&#x27;Helvetica Neue&#x27;, Helvetica, Arial, sans-serif;font-size:18px;background-color:white;text-rendering:optimizeLegibility;-webkit-font-smoothing:antialiased" width="850" height="600"><g class="ChartTab"><g class="HeaderView"><g opacity="0.8" transform="translate(778, 15) scale(0.27)"><a xmlns:xlink="http://www.w3.org/1999/xlink" xlink:href="https://ourworldindata.org" target="_blank"><g><rect x="0" y="0" fill="#1B2543" width="211.2" height="130.1"/><rect x="0" y="112.2" fill="#E63912" width="211.2" height="17.9"/><g><rect x="1.2" y="12.3" fill="none" width="210.2" height="99.2"/><path fill="#FFFFFF" d="M37.8,32.2c0,12.7-7.7,19.4-17.1,19.4c-9.7,0-16.6-7.5-16.6-18.7c0-11.7,7.3-19.3,17.1-19.3 C31.3,13.7,37.8,21.3,37.8,32.2z M9.2,32.8c0,7.9,4.3,14.9,11.8,14.9c7.5,0,11.8-6.9,11.8-15.3c0-7.3-3.8-14.9-11.8-14.9 C13.1,17.5,9.2,24.8,9.2,32.8z"/><path fill="#FFFFFF" d="M62.7,43.8c0,2.7,0.1,5.1,0.2,7.2h-4.3l-0.3-4.3h-0.1c-1.3,2.1-4,4.9-8.8,4.9c-4.2,0-9.1-2.3-9.1-11.6 V24.6h4.8v14.6c0,5,1.5,8.4,5.9,8.4c3.2,0,5.5-2.2,6.3-4.4c0.3-0.7,0.4-1.6,0.4-2.5V24.6h4.8V43.8z"/><path fill="#FFFFFF" d="M67.3,32.8c0-3.1-0.1-5.8-0.2-8.2h4.2l0.2,5.2h0.2c1.2-3.5,4.1-5.8,7.3-5.8c0.5,0,0.9,0.1,1.4,0.2v4.5 c-0.5-0.1-1-0.2-1.6-0.2c-3.4,0-5.8,2.6-6.5,6.2c-0.1,0.7-0.2,1.4-0.2,2.2V51h-4.8V32.8z"/><path fill="#FFFFFF" d="M95.4,51l-9.4-36.8h5l4.4,18.6c1.1,4.6,2.1,9.2,2.7,12.7h0.1c0.6-3.7,1.8-8,3-12.8l4.9-18.5h5l4.5,18.7 c1,4.4,2,8.7,2.6,12.6h0.1c0.8-4,1.8-8.1,3-12.7l4.9-18.5h4.9L120.6,51h-5L111,31.9c-1.1-4.7-1.9-8.3-2.4-12h-0.1 c-0.7,3.7-1.5,7.3-2.8,12L100.4,51H95.4z"/><path fill="#FFFFFF" d="M154.9,37.6c0,9.8-6.8,14-13.2,14c-7.2,0-12.7-5.2-12.7-13.6c0-8.8,5.8-14,13.1-14 C149.8,24,154.9,29.5,154.9,37.6z M133.9,37.9c0,5.8,3.3,10.1,8,10.1c4.6,0,8-4.3,8-10.3c0-4.5-2.2-10.1-7.9-10.1 C136.3,27.6,133.9,32.8,133.9,37.9z"/><path fill="#FFFFFF" d="M158.2,32.8c0-3.1-0.1-5.8-0.2-8.2h4.2l0.2,5.2h0.2c1.2-3.5,4.1-5.8,7.3-5.8c0.5,0,0.9,0.1,1.4,0.2v4.5 c-0.5-0.1-1-0.2-1.6-0.2c-3.4,0-5.8,2.6-6.5,6.2c-0.1,0.7-0.2,1.4-0.2,2.2V51h-4.8V32.8z"/><path fill="#FFFFFF" d="M173.5,12.3h4.8V51h-4.8V12.3z"/><path fill="#FFFFFF" d="M206.5,12.3v31.9c0,2.3,0.1,5,0.2,6.8h-4.3l-0.2-4.6H202c-1.5,2.9-4.7,5.2-9,5.2 c-6.4,0-11.3-5.4-11.3-13.4c-0.1-8.8,5.4-14.2,11.9-14.2c4,0,6.8,1.9,8,4h0.1V12.3H206.5z M201.7,35.4c0-0.6-0.1-1.4-0.2-2 c-0.7-3.1-3.3-5.6-6.9-5.6c-5,0-7.9,4.4-7.9,10.2c0,5.3,2.6,9.8,7.8,9.8c3.2,0,6.2-2.1,7.1-5.7c0.2-0.7,0.2-1.3,0.2-2.1V35.4z"/><path fill="#FFFFFF" d="M42.8,64c0.1,1.6-1.1,2.9-3.1,2.9c-1.7,0-2.9-1.3-2.9-2.9c0-1.7,1.3-3,3-3C41.7,61,42.8,62.3,42.8,64z M37.4,97.8V71.4h4.8v26.4H37.4z"/><path fill="#FFFFFF" d="M47.5,78.6c0-2.7-0.1-5-0.2-7.1h4.3l0.3,4.4h0.1c1.3-2.5,4.4-5,8.8-5c3.7,0,9.4,2.2,9.4,11.2v15.8h-4.8 V82.6c0-4.3-1.6-7.8-6.1-7.8c-3.2,0-5.6,2.2-6.5,4.9c-0.2,0.6-0.3,1.4-0.3,2.2v15.9h-4.8V78.6z"/><path fill="#FFFFFF" d="M84,61.6c2.9-0.4,6.3-0.8,10.1-0.8c6.8,0,11.7,1.6,14.9,4.6c3.3,3,5.2,7.3,5.2,13.2c0,6-1.9,10.9-5.3,14.3 c-3.4,3.4-9.1,5.3-16.3,5.3c-3.4,0-6.2-0.2-8.6-0.4V61.6z M88.8,94.1c1.2,0.2,3,0.3,4.8,0.3c10.2,0,15.7-5.7,15.7-15.6 c0.1-8.7-4.9-14.2-14.9-14.2c-2.5,0-4.3,0.2-5.6,0.5V94.1z"/><path fill="#FFFFFF" d="M132.1,97.8l-0.4-3.3h-0.2c-1.5,2.1-4.3,3.9-8.1,3.9c-5.4,0-8.1-3.8-8.1-7.6c0-6.4,5.7-9.9,15.9-9.8v-0.5 c0-2.2-0.6-6.1-6-6.1c-2.5,0-5,0.8-6.9,2l-1.1-3.2c2.2-1.4,5.4-2.3,8.7-2.3c8.1,0,10.1,5.5,10.1,10.8v9.9c0,2.3,0.1,4.5,0.4,6.3 H132.1z M131.4,84.4c-5.3-0.1-11.2,0.8-11.2,5.9c0,3.1,2.1,4.6,4.5,4.6c3.4,0,5.6-2.2,6.4-4.4c0.2-0.5,0.3-1,0.3-1.5V84.4z"/><path fill="#FFFFFF" d="M146.6,63.9v7.6h6.9v3.7h-6.9v14.2c0,3.3,0.9,5.1,3.6,5.1c1.3,0,2.2-0.2,2.8-0.3l0.2,3.6 c-0.9,0.4-2.4,0.7-4.3,0.7c-2.2,0-4-0.7-5.2-2c-1.4-1.4-1.9-3.8-1.9-6.9V75.1h-4.1v-3.7h4.1v-6.3L146.6,63.9z"/><path fill="#FFFFFF" d="M171.4,97.8l-0.4-3.3h-0.2c-1.5,2.1-4.3,3.9-8.1,3.9c-5.4,0-8.1-3.8-8.1-7.6c0-6.4,5.7-9.9,15.9-9.8v-0.5 c0-2.2-0.6-6.1-6-6.1c-2.5,0-5,0.8-6.9,2l-1.1-3.2c2.2-1.4,5.4-2.3,8.7-2.3c8.1,0,10.1,5.5,10.1,10.8v9.9c0,2.3,0.1,4.5,0.4,6.3 H171.4z M170.7,84.4c-5.3-0.1-11.2,0.8-11.2,5.9c0,3.1,2.1,4.6,4.5,4.6c3.4,0,5.6-2.2,6.4-4.4c0.2-0.5,0.3-1,0.3-1.5V84.4z"/></g></g></a></g><a href="https://ourworldindata.org/grapher/genuine-savings-per-capita-in-international-dollars-1900-2000" target="_blank"><text font-size="25.20" x="15.0" y="35.2" fill="#555"><tspan x="15" y="35.160000000000004">Genuine savings per capita (in international dollars), 1900-2000</tspan></text></a><text font-size="14.40" x="15.0" y="53.7" fill="#666"><tspan x="15" y="53.72">Genuine Savings = Net investment in fixed produced capital formation and overseas investment + change to natural</tspan><tspan x="15" y="69.56">capital + education expenditure</tspan></text></g><g class="LineChart"><defs><clipPath id="boundsClip-691"><rect x="65.242" y="0" width="830" height="901.4"></rect></clipPath></defs><g class="AxisBoxView"><g class="HorizontalAxis"><text x="75.2" y="542.8" fill="#666" text-anchor="middle" font-size="16.2">1900</text><text x="200.9" y="542.8" fill="#666" text-anchor="middle" font-size="16.2">1920</text><text x="326.6" y="542.8" fill="#666" text-anchor="middle" font-size="16.2">1940</text><text x="452.3" y="542.8" fill="#666" text-anchor="middle" font-size="16.2">1960</text><text x="577.9" y="542.8" fill="#666" text-anchor="middle" font-size="16.2">1980</text><text x="703.6" y="542.8" fill="#666" text-anchor="middle" font-size="16.2">2000</text></g><g class="VerticalAxis"><text x="70.24" y="505.8" fill="#666" dominant-baseline="middle" text-anchor="end" font-size="16.2">$-2,000</text><text x="70.24" y="452.6" fill="#666" dominant-baseline="middle" text-anchor="end" font-size="16.2">$-1,000</text><text x="70.24" y="399.4" fill="#666" dominant-baseline="middle" text-anchor="end" font-size="16.2">$0</text><text x="70.24" y="346.2" fill="#666" dominant-baseline="middle" text-anchor="end" font-size="16.2">$1,000</text><text x="70.24" y="292.9" fill="#666" dominant-baseline="middle" text-anchor="end" font-size="16.2">$2,000</text><text x="70.24" y="239.7" fill="#666" dominant-baseline="middle" text-anchor="end" font-size="16.2">$3,000</text><text x="70.24" y="186.5" fill="#666" dominant-baseline="middle" text-anchor="end" font-size="16.2">$4,000</text><text x="70.24" y="133.3" fill="#666" dominant-baseline="middle" text-anchor="end" font-size="16.2">$5,000</text><text x="15" y="84.1" style="font-size:12px;text-transform:uppercase;cursor:pointer" class="clickable"><tspan style="font-family:FontAwesome"></tspan> linear</text></g><g class="AxisGridLines"><line x1="75.24" y1="505.8" x2="703.61" y2="505.8" stroke="#ddd" stroke-dasharray="3,2"></line><line x1="75.24" y1="452.6" x2="703.61" y2="452.6" stroke="#ddd" stroke-dasharray="3,2"></line><line x1="75.24" y1="399.4" x2="703.61" y2="399.4" stroke="#ccc"></line><line x1="75.24" y1="346.2" x2="703.61" y2="346.2" stroke="#ddd" stroke-dasharray="3,2"></line><line x1="75.24" y1="292.9" x2="703.61" y2="292.9" stroke="#ddd" stroke-dasharray="3,2"></line><line x1="75.24" y1="239.7" x2="703.61" y2="239.7" stroke="#ddd" stroke-dasharray="3,2"></line><line x1="75.24" y1="186.5" x2="703.61" y2="186.5" stroke="#ddd" stroke-dasharray="3,2"></line><line x1="75.24" y1="133.3" x2="703.61" y2="133.3" stroke="#ddd" stroke-dasharray="3,2"></line></g></g><g clip-path="url(#boundsClip-691)"><g class="HeightedLegend clickable"><g class="legendMark"><g class="indicator"><line x1="708.61" y1="136.7" x2="721.11" y2="136.7" stroke="#666" stroke-width="0.5"></line><line x1="721.11" y1="136.7" x2="721.11" y2="136.7" stroke="#666" stroke-width="0.5"></line><line x1="721.11" y1="136.7" x2="733.61" y2="136.7" stroke="#666" stroke-width="0.5"></line></g><rect x="703.61" y="129.95" width="104.93" height="13.5" fill="#fff" opacity="0"></rect><text font-size="13.50" x="738.6" y="140.8" fill="#2a939b"><tspan x="738.61" y="140.75">Switzerland</tspan></text></g><g class="legendMark"><g class="indicator"><line x1="708.61" y1="289.3" x2="721.11" y2="289.3" stroke="#666" stroke-width="0.5"></line><line x1="721.11" y1="289.3" x2="721.11" y2="289.3" stroke="#666" stroke-width="0.5"></line><line x1="721.11" y1="289.3" x2="733.61" y2="289.3" stroke="#666" stroke-width="0.5"></line></g><rect x="703.61" y="282.55" width="90.62" height="13.5" fill="#fff" opacity="0"></rect><text font-size="13.50" x="738.6" y="293.4" fill="#a652ba"><tspan x="738.61" y="293.35">Germany</tspan></text></g><g class="legendMark"><g class="indicator"><line x1="708.61" y1="309.8" x2="731.11" y2="309.8" stroke="#666" stroke-width="0.5"></line><line x1="731.11" y1="309.8" x2="731.11" y2="309.8" stroke="#666" stroke-width="0.5"></line><line x1="731.11" y1="309.8" x2="733.61" y2="309.8" stroke="#666" stroke-width="0.5"></line></g><rect x="703.61" y="303.05" width="116.405" height="13.5" fill="#fff" opacity="0"></rect><text font-size="13.50" x="738.6" y="313.9" fill="#f6a324"><tspan x="738.61" y="313.85">United States</tspan></text></g><g class="legendMark"><g class="indicator"><line x1="708.61" y1="321.3" x2="721.11" y2="321.3" stroke="#666" stroke-width="0.5"></line><line x1="721.11" y1="321.3" x2="721.11" y2="325.3" stroke="#666" stroke-width="0.5"></line><line x1="721.11" y1="325.3" x2="733.61" y2="325.3" stroke="#666" stroke-width="0.5"></line></g><rect x="703.61" y="318.55" width="131.39" height="13.5" fill="#fff" opacity="0"></rect><text font-size="13.50" x="738.6" y="329.4" fill="#34983f"><tspan x="738.61" y="329.35">United Kingdom</tspan></text></g><g class="legendMark"><g class="indicator"><line x1="708.61" y1="363.3" x2="731.11" y2="363.3" stroke="#666" stroke-width="0.5"></line><line x1="731.11" y1="363.3" x2="731.11" y2="363.3" stroke="#666" stroke-width="0.5"></line><line x1="731.11" y1="363.3" x2="733.61" y2="363.3" stroke="#666" stroke-width="0.5"></line></g><rect x="703.61" y="356.55" width="68.75" height="13.5" fill="#fff" opacity="0"></rect><text font-size="13.50" x="738.6" y="367.4" fill="#ca2628"><tspan x="738.61" y="367.35">Brazil</tspan></text></g><g class="legendMark"><g class="indicator"><line x1="708.61" y1="371.7" x2="721.11" y2="371.7" stroke="#666" stroke-width="0.5"></line><line x1="721.11" y1="371.7" x2="721.11" y2="378.8" stroke="#666" stroke-width="0.5"></line><line x1="721.11" y1="378.8" x2="733.61" y2="378.8" stroke="#666" stroke-width="0.5"></line></g><rect x="703.61" y="372.05" width="65.78" height="13.5" fill="#fff" opacity="0"></rect><text font-size="13.50" x="738.6" y="382.9" fill="#3360a9"><tspan x="738.61" y="382.85">Chile</tspan></text></g></g><g class="Lines"><rect x="75" y="92" width="628" height="430" fill="rgba(255,255,255,0)" opacity="0"></rect><g class="key-Brazil_0"><path stroke="#ca2628" stroke-linecap="round" d="M75 399L82 401L88 400L94 399L100 399L107 395L113 395L119 393L126 393L132 393L138 391L144 392L151 391L157 390L163 401L170 404L176 403L182 403L188 403L195 400L201 398L207 399L214 398L220 400L226 398L232 397L239 396L245 395L251 395L258 394L264 399L270 400L276 400L283 400L289 398L295 396L302 397L308 396L314 397L320 399L327 398L333 400L339 401L345 401L352 401L358 399L364 396L371 394L377 398L383 397L389 397L396 398L402 398L408 397L415 396L421 398L427 397L433 396L440 393L446 393L452 403L459 404L465 400L471 399L477 401L484 400L490 398L496 398L503 393L509 391L515 383L521 398L528 394L534 388L540 385L547 380L553 379L559 380L565 376L572 372L578 357L584 358L591 362L597 373L603 377L609 377L616 364L622 352L628 348L635 342L641 363L647 373L653 371L660 366L666 368L672 374L679 377L685 372L691 368L697 365L704 363" fill="none" stroke-width="1.5"></path></g><g class="key-Chile_0"><path stroke="#3360a9" stroke-linecap="round" d="M75 404L82 400L88 402L94 402L100 398L107 393L113 386L119 384L126 389L132 395L138 392L144 387L151 384L157 386L163 400L170 410L176 414L182 416L188 412L195 406L201 405L207 400L214 400L220 404L226 403L232 402L239 396L245 399L251 402L258 389L264 377L270 392L276 399L283 401L289 403L295 395L302 395L308 405L314 396L320 415L327 413L333 417L339 419L345 419L352 416L358 414L364 406L371 408L377 411L383 402L389 408L396 411L402 411L408 413L415 424L421 429L427 430L433 411L440 410L446 419L452 419L459 416L465 427L471 430L477 432L484 431L490 430L496 431L503 427L509 433L515 424L521 436L528 455L534 465L540 481L547 456L553 459L559 448L565 434L572 434L578 422L584 402L591 428L597 429L603 423L609 410L616 401L622 391L628 391L635 386L641 397L647 393L653 376L660 365L666 363L672 353L679 340L685 327L691 329L697 343L704 372" fill="none" stroke-width="1.5"></path></g><g class="key-Germany_0"><path stroke="#a652ba" stroke-linecap="round" d="M75 376L82 380L88 380L94 375L100 372L107 368L113 371L119 370L126 376L132 373L138 373L144 369L151 368L157 368L163 360L170 370L176 375L182 377L188 386L195 400L201 386L207 374L214 373L220 379L226 383L232 381L239 391L245 378L251 380L258 387L264 393L270 405L276 400L283 389L289 385L295 378L302 374L308 363L314 361L320 361L327 363L333 363L339 364L345 361L352 359L358 522L364 437L371 439L377 440L383 387L389 373L396 362L402 367L408 371L415 360L421 348L427 350L433 347L440 349L446 337L452 337L459 322L465 323L471 324L477 312L484 311L490 309L496 312L503 319L509 294L515 309L521 303L528 306L534 285L540 275L547 305L553 299L559 304L565 302L572 287L578 286L584 314L591 323L597 305L603 298L609 295L616 275L622 298L628 249L635 237L641 244L647 304L653 299L660 298L666 300L672 303L679 301L685 296L691 298L697 296L704 289" fill="none" stroke-width="1.5"></path></g><g class="key-Switzerland_0"><path stroke="#2a939b" stroke-linecap="round" d="M75 369L82 365L88 370L94 377L100 377L107 379L113 367L119 372L126 363L132 369L138 368L144 366L151 370L157 364L163 345L170 330L176 301L182 282L188 256L195 260L201 300L207 342L214 356L220 352L226 346L232 352L239 354L245 346L251 346L258 341L264 355L270 384L276 413L283 401L289 397L295 389L302 392L308 391L314 356L320 357L327 358L333 334L339 314L345 287L352 280L358 272L364 340L371 342L377 355L383 360L389 353L396 330L402 323L408 310L415 297L421 281L427 269L433 264L440 278L446 258L452 229L459 213L465 215L471 207L477 192L484 210L490 207L496 203L503 192L509 182L515 127L521 108L528 99L534 92L540 95L547 158L553 173L559 173L565 169L572 169L578 157L584 143L591 161L597 170L603 139L609 127L616 134L622 139L628 109L635 96L641 191L647 219L653 243L660 231L666 223L672 210L679 218L685 183L691 168L697 166L704 137" fill="none" stroke-width="1.5"></path></g><g class="key-United-Kingdom_0"><path stroke="#34983f" stroke-linecap="round" d="M75 391L82 379L88 383L94 382L100 379L107 372L113 374L119 376L126 378L132 375L138 374L144 368L151 372L157 364L163 387L170 409L176 415L182 410L188 413L195 407L201 397L207 387L214 388L220 393L226 392L232 381L239 395L245 381L251 380L258 381L264 382L270 397L276 396L283 397L289 388L295 386L302 387L308 385L314 383L320 399L327 426L333 434L339 436L345 435L352 448L358 450L364 406L371 392L377 367L383 371L389 367L396 367L402 368L408 362L415 362L421 360L427 352L433 349L440 350L446 348L452 342L459 338L465 342L471 339L477 326L484 323L490 323L496 319L503 319L509 302L515 305L521 303L528 319L534 298L540 320L547 332L553 315L559 307L565 315L572 349L578 363L584 368L591 377L597 367L603 356L609 368L616 346L622 354L628 331L635 321L641 333L647 341L653 341L660 350L666 333L672 326L679 330L685 305L691 307L697 322L704 321" fill="none" stroke-width="1.5"></path></g><g class="key-United-States_0"><path stroke="#f6a324" stroke-linecap="round" d="M75 362L82 348L88 357L94 352L100 372L107 353L113 337L119 361L126 394L132 354L138 378L144 382L151 376L157 373L163 396L170 378L176 352L182 367L188 377L195 345L201 347L207 387L214 384L220 363L226 383L232 364L239 366L245 370L251 374L258 377L264 392L270 405L276 420L283 419L289 410L295 402L302 397L308 387L314 399L320 393L327 378L333 371L339 402L345 420L352 417L358 407L364 346L371 342L377 342L383 363L389 344L396 340L402 355L408 358L415 363L421 345L427 342L433 345L440 360L446 348L452 350L459 349L465 341L471 348L477 340L484 326L490 323L496 328L503 327L509 320L515 326L521 319L528 306L534 283L540 308L547 338L553 325L559 315L565 301L572 315L578 351L584 335L591 364L597 360L603 334L609 343L616 341L622 341L628 327L635 318L641 325L647 323L653 324L660 318L666 304L672 311L679 306L685 292L691 289L697 293L704 310" fill="none" stroke-width="1.5"></path></g></g></g></g><g class="SourcesFooter" style="fill:#777"><g class="clickable" style="fill:#777"><text font-size="12.60" x="15.0" y="567.9"><tspan x="15" y="567.88">Source: Blum, Ducoing, McLaughlin (2017)</tspan></text></g><text font-size="12.60" x="15.0" y="582.5"><tspan x="15" y="582.48">Note: Measured in 1990 international dollars</tspan></text><text font-size="12.60" x="340.7" y="567.9"><tspan x="340.702" y="567.88"><a target='_blank' style='fill: #777;' href='https://ourworldindata.org/genuine-savings-other-measures-of-savinginvestment/'>OurWorldInData.org/genuine-savings-other-measures-of-savinginvestment/</a> • <a style="fill: #777;" class="cclogo" href="http://creativecommons.org/licenses/by-sa/4.0/deed.en_US" target="_blank">CC BY-SA</a></tspan></text></g></g></svg>