<svg xmlns="http://www.w3.org/2000/svg" version="1.1" style="font-family:&#x27;Helvetica Neue&#x27;, Helvetica, Arial, sans-serif;font-size:18px;background-color:white;text-rendering:optimizeLegibility;-webkit-font-smoothing:antialiased" width="850" height="600"><g class="ChartTab"><g class="HeaderView"><g opacity="0.8" transform="translate(778, 15) scale(0.27)"><a xmlns:xlink="http://www.w3.org/1999/xlink" xlink:href="https://ourworldindata.org" target="_blank"><g><rect x="0" y="0" fill="#1B2543" width="211.2" height="130.1"/><rect x="0" y="112.2" fill="#E63912" width="211.2" height="17.9"/><g><rect x="1.2" y="12.3" fill="none" width="210.2" height="99.2"/><path fill="#FFFFFF" d="M37.8,32.2c0,12.7-7.7,19.4-17.1,19.4c-9.7,0-16.6-7.5-16.6-18.7c0-11.7,7.3-19.3,17.1-19.3 C31.3,13.7,37.8,21.3,37.8,32.2z M9.2,32.8c0,7.9,4.3,14.9,11.8,14.9c7.5,0,11.8-6.9,11.8-15.3c0-7.3-3.8-14.9-11.8-14.9 C13.1,17.5,9.2,24.8,9.2,32.8z"/><path fill="#FFFFFF" d="M62.7,43.8c0,2.7,0.1,5.1,0.2,7.2h-4.3l-0.3-4.3h-0.1c-1.3,2.1-4,4.9-8.8,4.9c-4.2,0-9.1-2.3-9.1-11.6 V24.6h4.8v14.6c0,5,1.5,8.4,5.9,8.4c3.2,0,5.5-2.2,6.3-4.4c0.3-0.7,0.4-1.6,0.4-2.5V24.6h4.8V43.8z"/><path fill="#FFFFFF" d="M67.3,32.8c0-3.1-0.1-5.8-0.2-8.2h4.2l0.2,5.2h0.2c1.2-3.5,4.1-5.8,7.3-5.8c0.5,0,0.9,0.1,1.4,0.2v4.5 c-0.5-0.1-1-0.2-1.6-0.2c-3.4,0-5.8,2.6-6.5,6.2c-0.1,0.7-0.2,1.4-0.2,2.2V51h-4.8V32.8z"/><path fill="#FFFFFF" d="M95.4,51l-9.4-36.8h5l4.4,18.6c1.1,4.6,2.1,9.2,2.7,12.7h0.1c0.6-3.7,1.8-8,3-12.8l4.9-18.5h5l4.5,18.7 c1,4.4,2,8.7,2.6,12.6h0.1c0.8-4,1.8-8.1,3-12.7l4.9-18.5h4.9L120.6,51h-5L111,31.9c-1.1-4.7-1.9-8.3-2.4-12h-0.1 c-0.7,3.7-1.5,7.3-2.8,12L100.4,51H95.4z"/><path fill="#FFFFFF" d="M154.9,37.6c0,9.8-6.8,14-13.2,14c-7.2,0-12.7-5.2-12.7-13.6c0-8.8,5.8-14,13.1-14 C149.8,24,154.9,29.5,154.9,37.6z M133.9,37.9c0,5.8,3.3,10.1,8,10.1c4.6,0,8-4.3,8-10.3c0-4.5-2.2-10.1-7.9-10.1 C136.3,27.6,133.9,32.8,133.9,37.9z"/><path fill="#FFFFFF" d="M158.2,32.8c0-3.1-0.1-5.8-0.2-8.2h4.2l0.2,5.2h0.2c1.2-3.5,4.1-5.8,7.3-5.8c0.5,0,0.9,0.1,1.4,0.2v4.5 c-0.5-0.1-1-0.2-1.6-0.2c-3.4,0-5.8,2.6-6.5,6.2c-0.1,0.7-0.2,1.4-0.2,2.2V51h-4.8V32.8z"/><path fill="#FFFFFF" d="M173.5,12.3h4.8V51h-4.8V12.3z"/><path fill="#FFFFFF" d="M206.5,12.3v31.9c0,2.3,0.1,5,0.2,6.8h-4.3l-0.2-4.6H202c-1.5,2.9-4.7,5.2-9,5.2 c-6.4,0-11.3-5.4-11.3-13.4c-0.1-8.8,5.4-14.2,11.9-14.2c4,0,6.8,1.9,8,4h0.1V12.3H206.5z M201.7,35.4c0-0.6-0.1-1.4-0.2-2 c-0.7-3.1-3.3-5.6-6.9-5.6c-5,0-7.9,4.4-7.9,10.2c0,5.3,2.6,9.8,7.8,9.8c3.2,0,6.2-2.1,7.1-5.7c0.2-0.7,0.2-1.3,0.2-2.1V35.4z"/><path fill="#FFFFFF" d="M42.8,64c0.1,1.6-1.1,2.9-3.1,2.9c-1.7,0-2.9-1.3-2.9-2.9c0-1.7,1.3-3,3-3C41.7,61,42.8,62.3,42.8,64z M37.4,97.8V71.4h4.8v26.4H37.4z"/><path fill="#FFFFFF" d="M47.5,78.6c0-2.7-0.1-5-0.2-7.1h4.3l0.3,4.4h0.1c1.3-2.5,4.4-5,8.8-5c3.7,0,9.4,2.2,9.4,11.2v15.8h-4.8 V82.6c0-4.3-1.6-7.8-6.1-7.8c-3.2,0-5.6,2.2-6.5,4.9c-0.2,0.6-0.3,1.4-0.3,2.2v15.9h-4.8V78.6z"/><path fill="#FFFFFF" d="M84,61.6c2.9-0.4,6.3-0.8,10.1-0.8c6.8,0,11.7,1.6,14.9,4.6c3.3,3,5.2,7.3,5.2,13.2c0,6-1.9,10.9-5.3,14.3 c-3.4,3.4-9.1,5.3-16.3,5.3c-3.4,0-6.2-0.2-8.6-0.4V61.6z M88.8,94.1c1.2,0.2,3,0.3,4.8,0.3c10.2,0,15.7-5.7,15.7-15.6 c0.1-8.7-4.9-14.2-14.9-14.2c-2.5,0-4.3,0.2-5.6,0.5V94.1z"/><path fill="#FFFFFF" d="M132.1,97.8l-0.4-3.3h-0.2c-1.5,2.1-4.3,3.9-8.1,3.9c-5.4,0-8.1-3.8-8.1-7.6c0-6.4,5.7-9.9,15.9-9.8v-0.5 c0-2.2-0.6-6.1-6-6.1c-2.5,0-5,0.8-6.9,2l-1.1-3.2c2.2-1.4,5.4-2.3,8.7-2.3c8.1,0,10.1,5.5,10.1,10.8v9.9c0,2.3,0.1,4.5,0.4,6.3 H132.1z M131.4,84.4c-5.3-0.1-11.2,0.8-11.2,5.9c0,3.1,2.1,4.6,4.5,4.6c3.4,0,5.6-2.2,6.4-4.4c0.2-0.5,0.3-1,0.3-1.5V84.4z"/><path fill="#FFFFFF" d="M146.6,63.9v7.6h6.9v3.7h-6.9v14.2c0,3.3,0.9,5.1,3.6,5.1c1.3,0,2.2-0.2,2.8-0.3l0.2,3.6 c-0.9,0.4-2.4,0.7-4.3,0.7c-2.2,0-4-0.7-5.2-2c-1.4-1.4-1.9-3.8-1.9-6.9V75.1h-4.1v-3.7h4.1v-6.3L146.6,63.9z"/><path fill="#FFFFFF" d="M171.4,97.8l-0.4-3.3h-0.2c-1.5,2.1-4.3,3.9-8.1,3.9c-5.4,0-8.1-3.8-8.1-7.6c0-6.4,5.7-9.9,15.9-9.8v-0.5 c0-2.2-0.6-6.1-6-6.1c-2.5,0-5,0.8-6.9,2l-1.1-3.2c2.2-1.4,5.4-2.3,8.7-2.3c8.1,0,10.1,5.5,10.1,10.8v9.9c0,2.3,0.1,4.5,0.4,6.3 H171.4z M170.7,84.4c-5.3-0.1-11.2,0.8-11.2,5.9c0,3.1,2.1,4.6,4.5,4.6c3.4,0,5.6-2.2,6.4-4.4c0.2-0.5,0.3-1,0.3-1.5V84.4z"/></g></g></a></g><a href="https://ourworldindata.org/grapher/genuine-saving-and-gdp-per-capita-in-international-dollars" target="_blank"><text font-size="25.20" x="15.0" y="35.2" fill="#555"><tspan x="15" y="35.160000000000004">Genuine saving and GDP per capita (in international dollars)</tspan></text></a><text font-size="14.40" x="15.0" y="53.7" fill="#666"><tspan x="15" y="53.72">GDP (gross domestic product) represents a nation&#x27;s total income. Genuine Savings = net fixed produced capital</tspan><tspan x="15" y="69.56">formation and overseas investment + change in natural capital + education expenditure. </tspan></text></g><g class="LineChart"><defs><clipPath id="boundsClip-690"><rect x="68.968" y="0" width="830" height="901.4"></rect></clipPath></defs><g class="AxisBoxView"><g class="HorizontalAxis"><text x="79" y="542.8" fill="#666" text-anchor="middle" font-size="16.2">1900</text><text x="182.6" y="542.8" fill="#666" text-anchor="middle" font-size="16.2">1920</text><text x="286.3" y="542.8" fill="#666" text-anchor="middle" font-size="16.2">1940</text><text x="390" y="542.8" fill="#666" text-anchor="middle" font-size="16.2">1960</text><text x="493.7" y="542.8" fill="#666" text-anchor="middle" font-size="16.2">1980</text><text x="597.4" y="542.8" fill="#666" text-anchor="middle" font-size="16.2">2000</text></g><g class="VerticalAxis"><text x="73.97" y="505.7" fill="#666" dominant-baseline="middle" text-anchor="end" font-size="16.2">$0</text><text x="73.97" y="422.9" fill="#666" dominant-baseline="middle" text-anchor="end" font-size="16.2">$5,000</text><text x="73.97" y="340.1" fill="#666" dominant-baseline="middle" text-anchor="end" font-size="16.2">$10,000</text><text x="73.97" y="257.3" fill="#666" dominant-baseline="middle" text-anchor="end" font-size="16.2">$15,000</text><text x="73.97" y="174.5" fill="#666" dominant-baseline="middle" text-anchor="end" font-size="16.2">$20,000</text><text x="15" y="84.1" style="font-size:12px;text-transform:uppercase;cursor:pointer" class="clickable"><tspan style="font-family:FontAwesome"></tspan> linear</text></g><g class="AxisGridLines"><line x1="78.97" y1="505.7" x2="597.37" y2="505.7" stroke="#ccc"></line><line x1="78.97" y1="422.9" x2="597.37" y2="422.9" stroke="#ddd" stroke-dasharray="3,2"></line><line x1="78.97" y1="340.1" x2="597.37" y2="340.1" stroke="#ddd" stroke-dasharray="3,2"></line><line x1="78.97" y1="257.3" x2="597.37" y2="257.3" stroke="#ddd" stroke-dasharray="3,2"></line><line x1="78.97" y1="174.5" x2="597.37" y2="174.5" stroke="#ddd" stroke-dasharray="3,2"></line></g></g><g clip-path="url(#boundsClip-690)"><g class="HeightedLegend clickable"><g class="legendMark"><rect x="597.365" y="85.35" width="172.70000000000002" height="13.5" fill="#fff" opacity="0"></rect><text font-size="13.50" x="602.4" y="96.1" fill="#ca2628"><tspan x="602.365" y="96.14999999999999">United Kingdom - GDP</tspan></text></g><g class="legendMark"><rect x="597.365" y="474.65" width="237.63500000000002" height="13.5" fill="#fff" opacity="0"></rect><text font-size="13.50" x="602.4" y="485.4" fill="#3360a9"><tspan x="602.365" y="485.45">United Kingdom - Genuine saving</tspan></text></g></g><g class="Lines"><rect x="79" y="92" width="518" height="430" fill="rgba(255,255,255,0)" opacity="0"></rect><g class="key-United-Kingdom_1"><path stroke="#ca2628" stroke-linecap="round" d="M79 418L84 417L89 416L95 417L100 417L105 415L110 414L115 413L120 417L126 416L131 414L136 412L141 411L146 408L152 406L157 401L162 401L167 402L172 399L178 408L183 412L188 422L193 418L198 415L203 412L209 409L214 413L219 406L224 405L229 402L235 404L240 409L245 409L250 407L255 401L260 398L266 393L271 390L276 389L281 386L286 374L292 363L297 360L302 359L307 366L312 373L317 376L323 379L328 376L333 372L338 369L343 365L349 365L354 360L359 355L364 350L369 350L375 348L380 348L385 342L390 335L395 332L400 332L406 326L411 317L416 314L421 311L426 308L432 300L437 297L442 293L447 290L452 283L457 267L463 270L468 272L473 265L478 260L483 252L489 245L494 251L499 254L504 249L509 240L514 233L520 224L525 213L530 201L535 186L540 179L546 178L551 184L556 184L561 178L566 164L571 155L577 146L582 134L587 121L592 108L597 92" fill="none" stroke-width="1.5"></path><g fill="#ca2628"><circle cx="79" cy="418" r="2"></circle><circle cx="84" cy="417" r="2"></circle><circle cx="89" cy="416" r="2"></circle><circle cx="95" cy="417" r="2"></circle><circle cx="100" cy="417" r="2"></circle><circle cx="105" cy="415" r="2"></circle><circle cx="110" cy="414" r="2"></circle><circle cx="115" cy="413" r="2"></circle><circle cx="120" cy="417" r="2"></circle><circle cx="126" cy="416" r="2"></circle><circle cx="131" cy="414" r="2"></circle><circle cx="136" cy="412" r="2"></circle><circle cx="141" cy="411" r="2"></circle><circle cx="146" cy="408" r="2"></circle><circle cx="152" cy="406" r="2"></circle><circle cx="157" cy="401" r="2"></circle><circle cx="162" cy="401" r="2"></circle><circle cx="167" cy="402" r="2"></circle><circle cx="172" cy="399" r="2"></circle><circle cx="178" cy="408" r="2"></circle><circle cx="183" cy="412" r="2"></circle><circle cx="188" cy="422" r="2"></circle><circle cx="193" cy="418" r="2"></circle><circle cx="198" cy="415" r="2"></circle><circle cx="203" cy="412" r="2"></circle><circle cx="209" cy="409" r="2"></circle><circle cx="214" cy="413" r="2"></circle><circle cx="219" cy="406" r="2"></circle><circle cx="224" cy="405" r="2"></circle><circle cx="229" cy="402" r="2"></circle><circle cx="235" cy="404" r="2"></circle><circle cx="240" cy="409" r="2"></circle><circle cx="245" cy="409" r="2"></circle><circle cx="250" cy="407" r="2"></circle><circle cx="255" cy="401" r="2"></circle><circle cx="260" cy="398" r="2"></circle><circle cx="266" cy="393" r="2"></circle><circle cx="271" cy="390" r="2"></circle><circle cx="276" cy="389" r="2"></circle><circle cx="281" cy="386" r="2"></circle><circle cx="286" cy="374" r="2"></circle><circle cx="292" cy="363" r="2"></circle><circle cx="297" cy="360" r="2"></circle><circle cx="302" cy="359" r="2"></circle><circle cx="307" cy="366" r="2"></circle><circle cx="312" cy="373" r="2"></circle><circle cx="317" cy="376" r="2"></circle><circle cx="323" cy="379" r="2"></circle><circle cx="328" cy="376" r="2"></circle><circle cx="333" cy="372" r="2"></circle><circle cx="338" cy="369" r="2"></circle><circle cx="343" cy="365" r="2"></circle><circle cx="349" cy="365" r="2"></circle><circle cx="354" cy="360" r="2"></circle><circle cx="359" cy="355" r="2"></circle><circle cx="364" cy="350" r="2"></circle><circle cx="369" cy="350" r="2"></circle><circle cx="375" cy="348" r="2"></circle><circle cx="380" cy="348" r="2"></circle><circle cx="385" cy="342" r="2"></circle><circle cx="390" cy="335" r="2"></circle><circle cx="395" cy="332" r="2"></circle><circle cx="400" cy="332" r="2"></circle><circle cx="406" cy="326" r="2"></circle><circle cx="411" cy="317" r="2"></circle><circle cx="416" cy="314" r="2"></circle><circle cx="421" cy="311" r="2"></circle><circle cx="426" cy="308" r="2"></circle><circle cx="432" cy="300" r="2"></circle><circle cx="437" cy="297" r="2"></circle><circle cx="442" cy="293" r="2"></circle><circle cx="447" cy="290" r="2"></circle><circle cx="452" cy="283" r="2"></circle><circle cx="457" cy="267" r="2"></circle><circle cx="463" cy="270" r="2"></circle><circle cx="468" cy="272" r="2"></circle><circle cx="473" cy="265" r="2"></circle><circle cx="478" cy="260" r="2"></circle><circle cx="483" cy="252" r="2"></circle><circle cx="489" cy="245" r="2"></circle><circle cx="494" cy="251" r="2"></circle><circle cx="499" cy="254" r="2"></circle><circle cx="504" cy="249" r="2"></circle><circle cx="509" cy="240" r="2"></circle><circle cx="514" cy="233" r="2"></circle><circle cx="520" cy="224" r="2"></circle><circle cx="525" cy="213" r="2"></circle><circle cx="530" cy="201" r="2"></circle><circle cx="535" cy="186" r="2"></circle><circle cx="540" cy="179" r="2"></circle><circle cx="546" cy="178" r="2"></circle><circle cx="551" cy="184" r="2"></circle><circle cx="556" cy="184" r="2"></circle><circle cx="561" cy="178" r="2"></circle><circle cx="566" cy="164" r="2"></circle><circle cx="571" cy="155" r="2"></circle><circle cx="577" cy="146" r="2"></circle><circle cx="582" cy="134" r="2"></circle><circle cx="587" cy="121" r="2"></circle><circle cx="592" cy="108" r="2"></circle><circle cx="597" cy="92" r="2"></circle></g></g><g class="key-United-Kingdom_0"><path stroke="#3360a9" stroke-linecap="round" d="M79 503L84 500L89 501L95 500L100 499L105 497L110 498L115 498L120 499L126 498L131 498L136 496L141 497L146 495L152 502L157 509L162 511L167 509L172 510L178 508L183 505L188 502L193 502L198 504L203 503L209 500L214 504L219 500L224 500L229 500L235 500L240 505L245 505L250 505L255 502L260 502L266 502L271 501L276 501L281 506L286 514L292 517L297 517L302 517L307 521L312 522L317 508L323 503L328 496L333 497L338 496L343 496L349 496L354 494L359 494L364 493L369 491L375 490L380 490L385 490L390 488L395 487L400 488L406 487L411 483L416 482L421 482L426 481L432 481L437 475L442 476L447 476L452 481L457 474L463 481L468 485L473 480L478 477L483 480L489 490L494 494L499 496L504 499L509 496L514 492L520 496L525 489L530 492L535 484L540 481L546 485L551 488L556 488L561 490L566 485L571 483L577 484L582 476L587 477L592 482L597 481" fill="none" stroke-width="1.5"></path><g fill="#3360a9"><circle cx="79" cy="503" r="2"></circle><circle cx="84" cy="500" r="2"></circle><circle cx="89" cy="501" r="2"></circle><circle cx="95" cy="500" r="2"></circle><circle cx="100" cy="499" r="2"></circle><circle cx="105" cy="497" r="2"></circle><circle cx="110" cy="498" r="2"></circle><circle cx="115" cy="498" r="2"></circle><circle cx="120" cy="499" r="2"></circle><circle cx="126" cy="498" r="2"></circle><circle cx="131" cy="498" r="2"></circle><circle cx="136" cy="496" r="2"></circle><circle cx="141" cy="497" r="2"></circle><circle cx="146" cy="495" r="2"></circle><circle cx="152" cy="502" r="2"></circle><circle cx="157" cy="509" r="2"></circle><circle cx="162" cy="511" r="2"></circle><circle cx="167" cy="509" r="2"></circle><circle cx="172" cy="510" r="2"></circle><circle cx="178" cy="508" r="2"></circle><circle cx="183" cy="505" r="2"></circle><circle cx="188" cy="502" r="2"></circle><circle cx="193" cy="502" r="2"></circle><circle cx="198" cy="504" r="2"></circle><circle cx="203" cy="503" r="2"></circle><circle cx="209" cy="500" r="2"></circle><circle cx="214" cy="504" r="2"></circle><circle cx="219" cy="500" r="2"></circle><circle cx="224" cy="500" r="2"></circle><circle cx="229" cy="500" r="2"></circle><circle cx="235" cy="500" r="2"></circle><circle cx="240" cy="505" r="2"></circle><circle cx="245" cy="505" r="2"></circle><circle cx="250" cy="505" r="2"></circle><circle cx="255" cy="502" r="2"></circle><circle cx="260" cy="502" r="2"></circle><circle cx="266" cy="502" r="2"></circle><circle cx="271" cy="501" r="2"></circle><circle cx="276" cy="501" r="2"></circle><circle cx="281" cy="506" r="2"></circle><circle cx="286" cy="514" r="2"></circle><circle cx="292" cy="517" r="2"></circle><circle cx="297" cy="517" r="2"></circle><circle cx="302" cy="517" r="2"></circle><circle cx="307" cy="521" r="2"></circle><circle cx="312" cy="522" r="2"></circle><circle cx="317" cy="508" r="2"></circle><circle cx="323" cy="503" r="2"></circle><circle cx="328" cy="496" r="2"></circle><circle cx="333" cy="497" r="2"></circle><circle cx="338" cy="496" r="2"></circle><circle cx="343" cy="496" r="2"></circle><circle cx="349" cy="496" r="2"></circle><circle cx="354" cy="494" r="2"></circle><circle cx="359" cy="494" r="2"></circle><circle cx="364" cy="493" r="2"></circle><circle cx="369" cy="491" r="2"></circle><circle cx="375" cy="490" r="2"></circle><circle cx="380" cy="490" r="2"></circle><circle cx="385" cy="490" r="2"></circle><circle cx="390" cy="488" r="2"></circle><circle cx="395" cy="487" r="2"></circle><circle cx="400" cy="488" r="2"></circle><circle cx="406" cy="487" r="2"></circle><circle cx="411" cy="483" r="2"></circle><circle cx="416" cy="482" r="2"></circle><circle cx="421" cy="482" r="2"></circle><circle cx="426" cy="481" r="2"></circle><circle cx="432" cy="481" r="2"></circle><circle cx="437" cy="475" r="2"></circle><circle cx="442" cy="476" r="2"></circle><circle cx="447" cy="476" r="2"></circle><circle cx="452" cy="481" r="2"></circle><circle cx="457" cy="474" r="2"></circle><circle cx="463" cy="481" r="2"></circle><circle cx="468" cy="485" r="2"></circle><circle cx="473" cy="480" r="2"></circle><circle cx="478" cy="477" r="2"></circle><circle cx="483" cy="480" r="2"></circle><circle cx="489" cy="490" r="2"></circle><circle cx="494" cy="494" r="2"></circle><circle cx="499" cy="496" r="2"></circle><circle cx="504" cy="499" r="2"></circle><circle cx="509" cy="496" r="2"></circle><circle cx="514" cy="492" r="2"></circle><circle cx="520" cy="496" r="2"></circle><circle cx="525" cy="489" r="2"></circle><circle cx="530" cy="492" r="2"></circle><circle cx="535" cy="484" r="2"></circle><circle cx="540" cy="481" r="2"></circle><circle cx="546" cy="485" r="2"></circle><circle cx="551" cy="488" r="2"></circle><circle cx="556" cy="488" r="2"></circle><circle cx="561" cy="490" r="2"></circle><circle cx="566" cy="485" r="2"></circle><circle cx="571" cy="483" r="2"></circle><circle cx="577" cy="484" r="2"></circle><circle cx="582" cy="476" r="2"></circle><circle cx="587" cy="477" r="2"></circle><circle cx="592" cy="482" r="2"></circle><circle cx="597" cy="481" r="2"></circle></g></g></g></g></g><g class="SourcesFooter" style="fill:#777"><g class="clickable" style="fill:#777"><text font-size="12.60" x="15.0" y="567.9"><tspan x="15" y="567.88">Source: Blum, Ducoing, McLaughlin (2017)</tspan></text></g><text font-size="12.60" x="15.0" y="582.5"><tspan x="15" y="582.48">Note: Measured in 1990 international dollars</tspan></text><text font-size="12.60" x="775.4" y="567.9"><tspan x="775.402" y="567.88"><a style="fill: #777;" class="cclogo" href="http://creativecommons.org/licenses/by-sa/4.0/deed.en_US" target="_blank">CC BY-SA</a></tspan></text></g></g></svg>