<svg xmlns="http://www.w3.org/2000/svg" version="1.1" style="font-family:&#x27;Helvetica Neue&#x27;, Helvetica, Arial, sans-serif;font-size:18px;background-color:white;text-rendering:optimizeLegibility;-webkit-font-smoothing:antialiased" width="850" height="600"><g class="ChartTab"><g class="HeaderView"><g opacity="0.8" transform="translate(778, 15) scale(0.27)"><a xmlns:xlink="http://www.w3.org/1999/xlink" xlink:href="https://ourworldindata.org" target="_blank"><g><rect x="0" y="0" fill="#1B2543" width="211.2" height="130.1"/><rect x="0" y="112.2" fill="#E63912" width="211.2" height="17.9"/><g><rect x="1.2" y="12.3" fill="none" width="210.2" height="99.2"/><path fill="#FFFFFF" d="M37.8,32.2c0,12.7-7.7,19.4-17.1,19.4c-9.7,0-16.6-7.5-16.6-18.7c0-11.7,7.3-19.3,17.1-19.3 C31.3,13.7,37.8,21.3,37.8,32.2z M9.2,32.8c0,7.9,4.3,14.9,11.8,14.9c7.5,0,11.8-6.9,11.8-15.3c0-7.3-3.8-14.9-11.8-14.9 C13.1,17.5,9.2,24.8,9.2,32.8z"/><path fill="#FFFFFF" d="M62.7,43.8c0,2.7,0.1,5.1,0.2,7.2h-4.3l-0.3-4.3h-0.1c-1.3,2.1-4,4.9-8.8,4.9c-4.2,0-9.1-2.3-9.1-11.6 V24.6h4.8v14.6c0,5,1.5,8.4,5.9,8.4c3.2,0,5.5-2.2,6.3-4.4c0.3-0.7,0.4-1.6,0.4-2.5V24.6h4.8V43.8z"/><path fill="#FFFFFF" d="M67.3,32.8c0-3.1-0.1-5.8-0.2-8.2h4.2l0.2,5.2h0.2c1.2-3.5,4.1-5.8,7.3-5.8c0.5,0,0.9,0.1,1.4,0.2v4.5 c-0.5-0.1-1-0.2-1.6-0.2c-3.4,0-5.8,2.6-6.5,6.2c-0.1,0.7-0.2,1.4-0.2,2.2V51h-4.8V32.8z"/><path fill="#FFFFFF" d="M95.4,51l-9.4-36.8h5l4.4,18.6c1.1,4.6,2.1,9.2,2.7,12.7h0.1c0.6-3.7,1.8-8,3-12.8l4.9-18.5h5l4.5,18.7 c1,4.4,2,8.7,2.6,12.6h0.1c0.8-4,1.8-8.1,3-12.7l4.9-18.5h4.9L120.6,51h-5L111,31.9c-1.1-4.7-1.9-8.3-2.4-12h-0.1 c-0.7,3.7-1.5,7.3-2.8,12L100.4,51H95.4z"/><path fill="#FFFFFF" d="M154.9,37.6c0,9.8-6.8,14-13.2,14c-7.2,0-12.7-5.2-12.7-13.6c0-8.8,5.8-14,13.1-14 C149.8,24,154.9,29.5,154.9,37.6z M133.9,37.9c0,5.8,3.3,10.1,8,10.1c4.6,0,8-4.3,8-10.3c0-4.5-2.2-10.1-7.9-10.1 C136.3,27.6,133.9,32.8,133.9,37.9z"/><path fill="#FFFFFF" d="M158.2,32.8c0-3.1-0.1-5.8-0.2-8.2h4.2l0.2,5.2h0.2c1.2-3.5,4.1-5.8,7.3-5.8c0.5,0,0.9,0.1,1.4,0.2v4.5 c-0.5-0.1-1-0.2-1.6-0.2c-3.4,0-5.8,2.6-6.5,6.2c-0.1,0.7-0.2,1.4-0.2,2.2V51h-4.8V32.8z"/><path fill="#FFFFFF" d="M173.5,12.3h4.8V51h-4.8V12.3z"/><path fill="#FFFFFF" d="M206.5,12.3v31.9c0,2.3,0.1,5,0.2,6.8h-4.3l-0.2-4.6H202c-1.5,2.9-4.7,5.2-9,5.2 c-6.4,0-11.3-5.4-11.3-13.4c-0.1-8.8,5.4-14.2,11.9-14.2c4,0,6.8,1.9,8,4h0.1V12.3H206.5z M201.7,35.4c0-0.6-0.1-1.4-0.2-2 c-0.7-3.1-3.3-5.6-6.9-5.6c-5,0-7.9,4.4-7.9,10.2c0,5.3,2.6,9.8,7.8,9.8c3.2,0,6.2-2.1,7.1-5.7c0.2-0.7,0.2-1.3,0.2-2.1V35.4z"/><path fill="#FFFFFF" d="M42.8,64c0.1,1.6-1.1,2.9-3.1,2.9c-1.7,0-2.9-1.3-2.9-2.9c0-1.7,1.3-3,3-3C41.7,61,42.8,62.3,42.8,64z M37.4,97.8V71.4h4.8v26.4H37.4z"/><path fill="#FFFFFF" d="M47.5,78.6c0-2.7-0.1-5-0.2-7.1h4.3l0.3,4.4h0.1c1.3-2.5,4.4-5,8.8-5c3.7,0,9.4,2.2,9.4,11.2v15.8h-4.8 V82.6c0-4.3-1.6-7.8-6.1-7.8c-3.2,0-5.6,2.2-6.5,4.9c-0.2,0.6-0.3,1.4-0.3,2.2v15.9h-4.8V78.6z"/><path fill="#FFFFFF" d="M84,61.6c2.9-0.4,6.3-0.8,10.1-0.8c6.8,0,11.7,1.6,14.9,4.6c3.3,3,5.2,7.3,5.2,13.2c0,6-1.9,10.9-5.3,14.3 c-3.4,3.4-9.1,5.3-16.3,5.3c-3.4,0-6.2-0.2-8.6-0.4V61.6z M88.8,94.1c1.2,0.2,3,0.3,4.8,0.3c10.2,0,15.7-5.7,15.7-15.6 c0.1-8.7-4.9-14.2-14.9-14.2c-2.5,0-4.3,0.2-5.6,0.5V94.1z"/><path fill="#FFFFFF" d="M132.1,97.8l-0.4-3.3h-0.2c-1.5,2.1-4.3,3.9-8.1,3.9c-5.4,0-8.1-3.8-8.1-7.6c0-6.4,5.7-9.9,15.9-9.8v-0.5 c0-2.2-0.6-6.1-6-6.1c-2.5,0-5,0.8-6.9,2l-1.1-3.2c2.2-1.4,5.4-2.3,8.7-2.3c8.1,0,10.1,5.5,10.1,10.8v9.9c0,2.3,0.1,4.5,0.4,6.3 H132.1z M131.4,84.4c-5.3-0.1-11.2,0.8-11.2,5.9c0,3.1,2.1,4.6,4.5,4.6c3.4,0,5.6-2.2,6.4-4.4c0.2-0.5,0.3-1,0.3-1.5V84.4z"/><path fill="#FFFFFF" d="M146.6,63.9v7.6h6.9v3.7h-6.9v14.2c0,3.3,0.9,5.1,3.6,5.1c1.3,0,2.2-0.2,2.8-0.3l0.2,3.6 c-0.9,0.4-2.4,0.7-4.3,0.7c-2.2,0-4-0.7-5.2-2c-1.4-1.4-1.9-3.8-1.9-6.9V75.1h-4.1v-3.7h4.1v-6.3L146.6,63.9z"/><path fill="#FFFFFF" d="M171.4,97.8l-0.4-3.3h-0.2c-1.5,2.1-4.3,3.9-8.1,3.9c-5.4,0-8.1-3.8-8.1-7.6c0-6.4,5.7-9.9,15.9-9.8v-0.5 c0-2.2-0.6-6.1-6-6.1c-2.5,0-5,0.8-6.9,2l-1.1-3.2c2.2-1.4,5.4-2.3,8.7-2.3c8.1,0,10.1,5.5,10.1,10.8v9.9c0,2.3,0.1,4.5,0.4,6.3 H171.4z M170.7,84.4c-5.3-0.1-11.2,0.8-11.2,5.9c0,3.1,2.1,4.6,4.5,4.6c3.4,0,5.6-2.2,6.4-4.4c0.2-0.5,0.3-1,0.3-1.5V84.4z"/></g></g></a></g><a href="https://ourworldindata.org/grapher/global-meat-production-by-livestock-type" target="_blank"><text font-size="25.20" x="15.0" y="35.2" fill="#555"><tspan x="15" y="35.160000000000004">Meat production by livestock type</tspan></text></a><text font-size="14.40" x="15.0" y="53.7" fill="#666"><tspan x="15" y="53.72">Meat production by commodity or product type, measured in tonnes per year. All data shown relate to total meat</tspan><tspan x="15" y="69.56">production, from both commercial and farm slaughter. Data are given in terms of dressed carcass weight, excluding</tspan><tspan x="15" y="85.4">offal and slaughter fats. </tspan></text></g><g class="StackedArea"><defs><clipPath id="boundsClip-2"><rect x="106.67" y="0" width="820" height="897.8"></rect></clipPath></defs><g class="AxisBoxView"><g class="HorizontalAxis"><text x="106.7" y="556.5" fill="#666" text-anchor="middle" font-size="16.2">1961</text><text x="207.5" y="556.5" fill="#666" text-anchor="middle" font-size="16.2">1970</text><text x="319.5" y="556.5" fill="#666" text-anchor="middle" font-size="16.2">1980</text><text x="431.4" y="556.5" fill="#666" text-anchor="middle" font-size="16.2">1990</text><text x="543.4" y="556.5" fill="#666" text-anchor="middle" font-size="16.2">2000</text><text x="689" y="556.5" fill="#666" text-anchor="middle" font-size="16.2">2013</text></g><g class="VerticalAxis"><text x="101.67" y="535.3" fill="#666" dominant-baseline="middle" text-anchor="end" font-size="16.2">0 t</text><text x="101.67" y="467.4" fill="#666" dominant-baseline="middle" text-anchor="end" font-size="16.2">50 million t</text><text x="101.67" y="399.6" fill="#666" dominant-baseline="middle" text-anchor="end" font-size="16.2">100 million t</text><text x="101.67" y="331.7" fill="#666" dominant-baseline="middle" text-anchor="end" font-size="16.2">150 million t</text><text x="101.67" y="263.9" fill="#666" dominant-baseline="middle" text-anchor="end" font-size="16.2">200 million t</text><text x="101.67" y="196" fill="#666" dominant-baseline="middle" text-anchor="end" font-size="16.2">250 million t</text><text x="101.67" y="128.2" fill="#666" dominant-baseline="middle" text-anchor="end" font-size="16.2">300 million t</text></g><g class="AxisGridLines"><line x1="106.67" y1="535.3" x2="689.03" y2="535.3" stroke="#ccc"></line><line x1="106.67" y1="467.4" x2="689.03" y2="467.4" stroke="#ddd" stroke-dasharray="3,2"></line><line x1="106.67" y1="399.6" x2="689.03" y2="399.6" stroke="#ddd" stroke-dasharray="3,2"></line><line x1="106.67" y1="331.7" x2="689.03" y2="331.7" stroke="#ddd" stroke-dasharray="3,2"></line><line x1="106.67" y1="263.9" x2="689.03" y2="263.9" stroke="#ddd" stroke-dasharray="3,2"></line><line x1="106.67" y1="196" x2="689.03" y2="196" stroke="#ddd" stroke-dasharray="3,2"></line><line x1="106.67" y1="128.2" x2="689.03" y2="128.2" stroke="#ddd" stroke-dasharray="3,2"></line></g></g><g clip-path="url(#boundsClip-2)"><g class="HeightedLegend clickable"><g class="legendMark"><g class="indicator"><line x1="694.03" y1="108.7" x2="716.53" y2="108.7" stroke="#666" stroke-width="0.5"></line><line x1="716.53" y1="108.7" x2="716.53" y2="108.7" stroke="#666" stroke-width="0.5"></line><line x1="716.53" y1="108.7" x2="719.03" y2="108.7" stroke="#666" stroke-width="0.5"></line></g><rect x="689.03" y="101.95" width="108.71000000000001" height="13.5" fill="#fff" opacity="0"></rect><text font-size="13.50" x="724.0" y="112.8" fill="#34983f"><tspan x="724.03" y="112.75">Meat (other)</tspan></text></g><g class="legendMark"><g class="indicator"><line x1="694.03" y1="111.6" x2="714.03" y2="111.6" stroke="#666" stroke-width="0.5"></line><line x1="714.03" y1="111.6" x2="714.03" y2="131.5" stroke="#666" stroke-width="0.5"></line><line x1="714.03" y1="131.5" x2="719.03" y2="131.5" stroke="#666" stroke-width="0.5"></line></g><rect x="689.03" y="117.45" width="145.97000000000003" height="28.1" fill="#fff" opacity="0"></rect><text font-size="13.50" x="724.0" y="128.3" fill="rgb(105, 178, 101)"><tspan x="724.03" y="128.25">Goose and guinea</tspan><tspan x="724.03" y="143.1">fowl</tspan></text></g><g class="legendMark"><g class="indicator"><line x1="694.03" y1="116.4" x2="711.53" y2="116.4" stroke="#666" stroke-width="0.5"></line><line x1="711.53" y1="116.4" x2="711.53" y2="154.3" stroke="#666" stroke-width="0.5"></line><line x1="711.53" y1="154.3" x2="719.03" y2="154.3" stroke="#666" stroke-width="0.5"></line></g><rect x="689.03" y="147.55" width="65.78" height="13.5" fill="#fff" opacity="0"></rect><text font-size="13.50" x="724.0" y="158.4" fill="#9ecc8a"><tspan x="724.03" y="158.35000000000002">Duck</tspan></text></g><g class="legendMark"><g class="indicator"><line x1="694.03" y1="120.6" x2="709.03" y2="120.6" stroke="#666" stroke-width="0.5"></line><line x1="709.03" y1="120.6" x2="709.03" y2="169.8" stroke="#666" stroke-width="0.5"></line><line x1="709.03" y1="169.8" x2="719.03" y2="169.8" stroke="#666" stroke-width="0.5"></line></g><rect x="689.03" y="163.05" width="74.15" height="13.5" fill="#fff" opacity="0"></rect><text font-size="13.50" x="724.0" y="173.9" fill="rgb(207, 209, 100)"><tspan x="724.03" y="173.85000000000002">Rabbit</tspan></text></g><g class="legendMark"><g class="indicator"><line x1="694.03" y1="122.3" x2="706.53" y2="122.3" stroke="#666" stroke-width="0.5"></line><line x1="706.53" y1="122.3" x2="706.53" y2="185.3" stroke="#666" stroke-width="0.5"></line><line x1="706.53" y1="185.3" x2="719.03" y2="185.3" stroke="#666" stroke-width="0.5"></line></g><rect x="689.03" y="178.55" width="71.045" height="13.5" fill="#fff" opacity="0"></rect><text font-size="13.50" x="724.0" y="189.4" fill="#ffd53e"><tspan x="724.03" y="189.35000000000002">Horse</tspan></text></g><g class="legendMark"><g class="indicator"><line x1="694.03" y1="123.2" x2="704.03" y2="123.2" stroke="#666" stroke-width="0.5"></line><line x1="704.03" y1="123.2" x2="704.03" y2="200.8" stroke="#666" stroke-width="0.5"></line><line x1="704.03" y1="200.8" x2="719.03" y2="200.8" stroke="#666" stroke-width="0.5"></line></g><rect x="689.03" y="194.05" width="74.015" height="13.5" fill="#fff" opacity="0"></rect><text font-size="13.50" x="724.0" y="204.9" fill="rgb(229, 126, 51)"><tspan x="724.03" y="204.85000000000002">Camel</tspan></text></g><g class="legendMark"><g class="indicator"><line x1="694.03" y1="133.1" x2="701.53" y2="133.1" stroke="#666" stroke-width="0.5"></line><line x1="701.53" y1="133.1" x2="701.53" y2="216.3" stroke="#666" stroke-width="0.5"></line><line x1="701.53" y1="216.3" x2="719.03" y2="216.3" stroke="#666" stroke-width="0.5"></line></g><rect x="689.03" y="209.55" width="130.985" height="13.5" fill="#fff" opacity="0"></rect><text font-size="13.50" x="724.0" y="220.4" fill="#ca2628"><tspan x="724.03" y="220.35000000000002">Sheep and goat</tspan></text></g><g class="legendMark"><g class="indicator"><line x1="694.03" y1="188.7" x2="699.03" y2="188.7" stroke="#666" stroke-width="0.5"></line><line x1="699.03" y1="188.7" x2="699.03" y2="231.8" stroke="#666" stroke-width="0.5"></line><line x1="699.03" y1="231.8" x2="719.03" y2="231.8" stroke="#666" stroke-width="0.5"></line></g><rect x="689.03" y="225.05" width="135.44" height="13.5" fill="#fff" opacity="0"></rect><text font-size="13.50" x="724.0" y="235.9" fill="#e6332e"><tspan x="724.03" y="235.85000000000002">Beef and Buffalo</tspan></text></g><g class="legendMark"><g class="indicator"><line x1="694.03" y1="311.1" x2="706.53" y2="311.1" stroke="#666" stroke-width="0.5"></line><line x1="706.53" y1="311.1" x2="706.53" y2="311.1" stroke="#666" stroke-width="0.5"></line><line x1="706.53" y1="311.1" x2="719.03" y2="311.1" stroke="#666" stroke-width="0.5"></line></g><rect x="689.03" y="304.35" width="84.68" height="13.5" fill="#fff" opacity="0"></rect><text font-size="13.50" x="724.0" y="315.2" fill="#2a939b"><tspan x="724.03" y="315.15000000000003">Pigmeat</tspan></text></g><g class="legendMark"><g class="indicator"><line x1="694.03" y1="461.3" x2="706.53" y2="461.3" stroke="#666" stroke-width="0.5"></line><line x1="706.53" y1="461.3" x2="706.53" y2="461.3" stroke="#666" stroke-width="0.5"></line><line x1="706.53" y1="461.3" x2="719.03" y2="461.3" stroke="#666" stroke-width="0.5"></line></g><rect x="689.03" y="454.55" width="77.12" height="13.5" fill="#fff" opacity="0"></rect><text font-size="13.50" x="724.0" y="465.4" fill="#3360a9"><tspan x="724.03" y="465.35">Poultry</tspan></text></g></g><g class="Areas"><rect x="106.67" y="107.60000000000001" width="582.36" height="427.69999999999993" opacity="0" fill="rgba(255,255,255,0)"></rect><path class="World_9-area" stroke-linecap="round" d="M106.7 523.2L117.9 522.9L129.1 522.1L140.3 521.6L151.5 520.5L162.7 519.5L173.9 518.6L185.1 518.1L196.3 516.7L207.5 514.9L218.7 514L229.9 512.6L241.1 511.5L252.3 510.6L263.5 510L274.7 508.3L285.9 506.8L297.1 504.6L308.3 502.1L319.5 500.2L330.7 498.2L341.9 496.9L353.1 496L364.3 495.2L375.5 493.3L386.7 490.5L397.9 487L409 484.5L420.2 483.1L431.4 479.8L442.6 476.8L453.8 473.9L465 470.2L476.2 466.4L487.4 461.3L498.6 459.3L509.8 454.7L521 451.1L532.2 447L543.4 442.3L554.6 439L565.8 435.2L577 433.2L588.2 429.4L599.4 425.6L610.6 422.7L621.8 416.4L633 409.8L644.2 406.2L655.4 400.5L666.6 395.7L677.8 391.4L689 387.3L689.03 535.3L106.67 535.3" fill="#3360a9" fill-opacity="0.7"></path><path class="World_8-area" stroke-linecap="round" d="M106.7 489.6L117.9 487.5L129.1 484.4L140.3 482.7L151.5 478L162.7 475.6L173.9 472.6L185.1 471.4L196.3 470.4L207.5 466.3L218.7 460.5L229.9 457.4L241.1 456.6L252.3 453L263.5 453.5L274.7 453L285.9 448.5L297.1 442.6L308.3 434.2L319.5 428.8L330.7 426.2L341.9 424.6L353.1 420.6L364.3 415.9L375.5 411.8L386.7 408L397.9 400.5L409 393.5L420.2 390.7L431.4 384.9L442.6 380.2L453.8 375.4L465 369.7L476.2 362.9L487.4 356.4L498.6 353.8L509.8 348.3L521 338.1L532.2 332L543.4 325.2L554.6 321.4L565.8 314.2L577 307.4L588.2 303L599.4 296L610.6 290.4L621.8 280.3L633 270L644.2 264.1L655.4 254.7L666.6 250L677.8 241.3L689 234.9L689 387.3L677.8 391.4L666.6 395.7L655.4 400.5L644.2 406.2L633 409.8L621.8 416.4L610.6 422.7L599.4 425.6L588.2 429.4L577 433.2L565.8 435.2L554.6 439L543.4 442.3L532.2 447L521 451.1L509.8 454.7L498.6 459.3L487.4 461.3L476.2 466.4L465 470.2L453.8 473.9L442.6 476.8L431.4 479.8L420.2 483.1L409 484.5L397.9 487L386.7 490.5L375.5 493.3L364.3 495.2L353.1 496L341.9 496.9L330.7 498.2L319.5 500.2L308.3 502.1L297.1 504.6L285.9 506.8L274.7 508.3L263.5 510L252.3 510.6L241.1 511.5L229.9 512.6L218.7 514L207.5 514.9L196.3 516.7L185.1 518.1L173.9 518.6L162.7 519.5L151.5 520.5L140.3 521.6L129.1 522.1L117.9 522.9L106.7 523.2" fill="#2a939b" fill-opacity="0.7"></path><path class="World_7-area" stroke-linecap="round" d="M106.7 450.6L117.9 446.3L129.1 441L140.3 438.7L151.5 433.2L162.7 428.4L173.9 423.1L185.1 419.5L196.3 417.2L207.5 412.5L218.7 407L229.9 403.3L241.1 401.9L252.3 394.2L263.5 392.2L274.7 388.4L285.9 383.4L297.1 376.8L308.3 370L319.5 364.7L330.7 361.5L341.9 359.8L353.1 354.1L364.3 347.5L375.5 342.2L386.7 335.9L397.9 328.5L409 320.9L420.2 317.7L431.4 309.8L442.6 304.2L453.8 300.5L465 295.6L476.2 288.1L487.4 280.8L498.6 277.2L509.8 270.5L521 260.6L532.2 253L543.4 245.2L554.6 242.8L565.8 233.4L577 226.1L588.2 220.3L599.4 211.5L610.6 203.4L621.8 191.1L633 180.7L644.2 174.6L655.4 164.2L666.6 160L677.8 150.5L689 142.6L689 234.9L677.8 241.3L666.6 250L655.4 254.7L644.2 264.1L633 270L621.8 280.3L610.6 290.4L599.4 296L588.2 303L577 307.4L565.8 314.2L554.6 321.4L543.4 325.2L532.2 332L521 338.1L509.8 348.3L498.6 353.8L487.4 356.4L476.2 362.9L465 369.7L453.8 375.4L442.6 380.2L431.4 384.9L420.2 390.7L409 393.5L397.9 400.5L386.7 408L375.5 411.8L364.3 415.9L353.1 420.6L341.9 424.6L330.7 426.2L319.5 428.8L308.3 434.2L297.1 442.6L285.9 448.5L274.7 453L263.5 453.5L252.3 453L241.1 456.6L229.9 457.4L218.7 460.5L207.5 466.3L196.3 470.4L185.1 471.4L173.9 472.6L162.7 475.6L151.5 478L140.3 482.7L129.1 484.4L117.9 487.5L106.7 489.6" fill="#e6332e" fill-opacity="0.7"></path><path class="World_6-area" stroke-linecap="round" d="M106.7 442.4L117.9 438L129.1 432.6L140.3 430.3L151.5 424.8L162.7 419.8L173.9 414.3L185.1 410.4L196.3 408.2L207.5 403.2L218.7 397.6L229.9 393.8L241.1 392.7L252.3 385.3L263.5 383L274.7 379.2L285.9 374.1L297.1 367.2L308.3 360.4L319.5 354.8L330.7 351.2L341.9 349.4L353.1 343.2L364.3 336.6L375.5 331L386.7 324.6L397.9 316.7L409 308.6L420.2 305L431.4 296.6L442.6 290.8L453.8 287.1L465 282L476.2 274.1L487.4 266.5L498.6 263.3L509.8 256.2L521 245.6L532.2 237.7L543.4 229.6L554.6 227.1L565.8 217.6L577 210L588.2 203.8L599.4 194.3L610.6 186L621.8 173.2L633 162.6L644.2 156.5L655.4 146L666.6 141.7L677.8 131.9L689 123.5L689 142.6L677.8 150.5L666.6 160L655.4 164.2L644.2 174.6L633 180.7L621.8 191.1L610.6 203.4L599.4 211.5L588.2 220.3L577 226.1L565.8 233.4L554.6 242.8L543.4 245.2L532.2 253L521 260.6L509.8 270.5L498.6 277.2L487.4 280.8L476.2 288.1L465 295.6L453.8 300.5L442.6 304.2L431.4 309.8L420.2 317.7L409 320.9L397.9 328.5L386.7 335.9L375.5 342.2L364.3 347.5L353.1 354.1L341.9 359.8L330.7 361.5L319.5 364.7L308.3 370L297.1 376.8L285.9 383.4L274.7 388.4L263.5 392.2L252.3 394.2L241.1 401.9L229.9 403.3L218.7 407L207.5 412.5L196.3 417.2L185.1 419.5L173.9 423.1L162.7 428.4L151.5 433.2L140.3 438.7L129.1 441L117.9 446.3L106.7 450.6" fill="#ca2628" fill-opacity="0.7"></path><path class="World_5-area" stroke-linecap="round" d="M106.7 442.2L117.9 437.8L129.1 432.4L140.3 430.1L151.5 424.6L162.7 419.6L173.9 414.1L185.1 410.2L196.3 407.9L207.5 403L218.7 397.3L229.9 393.5L241.1 392.5L252.3 385.1L263.5 382.7L274.7 378.9L285.9 373.8L297.1 367L308.3 360.1L319.5 354.5L330.7 350.9L341.9 349.1L353.1 343L364.3 336.3L375.5 330.7L386.7 324.3L397.9 316.5L409 308.3L420.2 304.7L431.4 296.3L442.6 290.5L453.8 286.7L465 281.6L476.2 273.7L487.4 266.2L498.6 262.9L509.8 255.7L521 245.2L532.2 237.3L543.4 229.1L554.6 226.6L565.8 217.2L577 209.5L588.2 203.2L599.4 193.8L610.6 185.5L621.8 172.6L633 161.9L644.2 155.9L655.4 145.3L666.6 141L677.8 131.2L689 122.8L689 123.5L677.8 131.9L666.6 141.7L655.4 146L644.2 156.5L633 162.6L621.8 173.2L610.6 186L599.4 194.3L588.2 203.8L577 210L565.8 217.6L554.6 227.1L543.4 229.6L532.2 237.7L521 245.6L509.8 256.2L498.6 263.3L487.4 266.5L476.2 274.1L465 282L453.8 287.1L442.6 290.8L431.4 296.6L420.2 305L409 308.6L397.9 316.7L386.7 324.6L375.5 331L364.3 336.6L353.1 343.2L341.9 349.4L330.7 351.2L319.5 354.8L308.3 360.4L297.1 367.2L285.9 374.1L274.7 379.2L263.5 383L252.3 385.3L241.1 392.7L229.9 393.8L218.7 397.6L207.5 403.2L196.3 408.2L185.1 410.4L173.9 414.3L162.7 419.8L151.5 424.8L140.3 430.3L129.1 432.6L117.9 438L106.7 442.4" fill="rgb(229, 126, 51)" fill-opacity="0.7"></path><path class="World_4-area" stroke-linecap="round" d="M106.7 441.4L117.9 437.1L129.1 431.7L140.3 429.4L151.5 423.8L162.7 418.9L173.9 413.4L185.1 409.5L196.3 407.2L207.5 402.3L218.7 396.6L229.9 392.9L241.1 391.8L252.3 384.4L263.5 382L274.7 378.2L285.9 373.1L297.1 366.2L308.3 359.4L319.5 353.8L330.7 350.2L341.9 348.5L353.1 342.3L364.3 335.6L375.5 330L386.7 323.7L397.9 315.8L409 307.6L420.2 304L431.4 295.6L442.6 289.8L453.8 285.8L465 280.7L476.2 272.8L487.4 265.2L498.6 261.9L509.8 254.7L521 244.2L532.2 236.3L543.4 228.1L554.6 225.5L565.8 216.1L577 208.4L588.2 202.2L599.4 192.8L610.6 184.5L621.8 171.6L633 160.9L644.2 154.9L655.4 144.3L666.6 140L677.8 130.1L689 121.7L689 122.8L677.8 131.2L666.6 141L655.4 145.3L644.2 155.9L633 161.9L621.8 172.6L610.6 185.5L599.4 193.8L588.2 203.2L577 209.5L565.8 217.2L554.6 226.6L543.4 229.1L532.2 237.3L521 245.2L509.8 255.7L498.6 262.9L487.4 266.2L476.2 273.7L465 281.6L453.8 286.7L442.6 290.5L431.4 296.3L420.2 304.7L409 308.3L397.9 316.5L386.7 324.3L375.5 330.7L364.3 336.3L353.1 343L341.9 349.1L330.7 350.9L319.5 354.5L308.3 360.1L297.1 367L285.9 373.8L274.7 378.9L263.5 382.7L252.3 385.1L241.1 392.5L229.9 393.5L218.7 397.3L207.5 403L196.3 407.9L185.1 410.2L173.9 414.1L162.7 419.6L151.5 424.6L140.3 430.1L129.1 432.4L117.9 437.8L106.7 442.2" fill="#ffd53e" fill-opacity="0.7"></path><path class="World_3-area" stroke-linecap="round" d="M106.7 440.9L117.9 436.5L129.1 431.1L140.3 428.8L151.5 423.3L162.7 418.3L173.9 412.8L185.1 408.9L196.3 406.6L207.5 401.6L218.7 395.9L229.9 392.1L241.1 391L252.3 383.6L263.5 381.1L274.7 377.3L285.9 372.1L297.1 365.2L308.3 358.4L319.5 352.8L330.7 349.3L341.9 347.5L353.1 341.3L364.3 334.6L375.5 329L386.7 322.6L397.9 314.7L409 306.5L420.2 302.9L431.4 294.4L442.6 288.5L453.8 284.5L465 279.3L476.2 271.4L487.4 263.7L498.6 260.3L509.8 253.2L521 242.6L532.2 234.7L543.4 226.4L554.6 223.6L565.8 214.2L577 206.5L588.2 200.3L599.4 190.8L610.6 182.3L621.8 169.1L633 158.8L644.2 152.7L655.4 142L666.6 137.6L677.8 127.7L689 119.4L689 121.7L677.8 130.1L666.6 140L655.4 144.3L644.2 154.9L633 160.9L621.8 171.6L610.6 184.5L599.4 192.8L588.2 202.2L577 208.4L565.8 216.1L554.6 225.5L543.4 228.1L532.2 236.3L521 244.2L509.8 254.7L498.6 261.9L487.4 265.2L476.2 272.8L465 280.7L453.8 285.8L442.6 289.8L431.4 295.6L420.2 304L409 307.6L397.9 315.8L386.7 323.7L375.5 330L364.3 335.6L353.1 342.3L341.9 348.5L330.7 350.2L319.5 353.8L308.3 359.4L297.1 366.2L285.9 373.1L274.7 378.2L263.5 382L252.3 384.4L241.1 391.8L229.9 392.9L218.7 396.6L207.5 402.3L196.3 407.2L185.1 409.5L173.9 413.4L162.7 418.9L151.5 423.8L140.3 429.4L129.1 431.7L117.9 437.1L106.7 441.4" fill="rgb(207, 209, 100)" fill-opacity="0.7"></path><path class="World_2-area" stroke-linecap="round" d="M106.7 440.4L117.9 436.1L129.1 430.6L140.3 428.3L151.5 422.7L162.7 417.8L173.9 412.2L185.1 408.3L196.3 406L207.5 400.9L218.7 395.2L229.9 391.4L241.1 390.3L252.3 382.8L263.5 380.4L274.7 376.5L285.9 371.3L297.1 364.3L308.3 357.5L319.5 351.9L330.7 348.3L341.9 346.4L353.1 340.2L364.3 333.5L375.5 327.8L386.7 321.3L397.9 313.2L409 305L420.2 301.4L431.4 292.7L442.6 286.7L453.8 282.5L465 277L476.2 268.8L487.4 260.9L498.6 257.3L509.8 249.9L521 239.1L532.2 230.8L543.4 222.4L554.6 219.6L565.8 210.2L577 202.4L588.2 196.1L599.4 186.3L610.6 177.7L621.8 164.2L633 153.7L644.2 147.4L655.4 136.6L666.6 132L677.8 121.8L689 113.5L689 119.4L677.8 127.7L666.6 137.6L655.4 142L644.2 152.7L633 158.8L621.8 169.1L610.6 182.3L599.4 190.8L588.2 200.3L577 206.5L565.8 214.2L554.6 223.6L543.4 226.4L532.2 234.7L521 242.6L509.8 253.2L498.6 260.3L487.4 263.7L476.2 271.4L465 279.3L453.8 284.5L442.6 288.5L431.4 294.4L420.2 302.9L409 306.5L397.9 314.7L386.7 322.6L375.5 329L364.3 334.6L353.1 341.3L341.9 347.5L330.7 349.3L319.5 352.8L308.3 358.4L297.1 365.2L285.9 372.1L274.7 377.3L263.5 381.1L252.3 383.6L241.1 391L229.9 392.1L218.7 395.9L207.5 401.6L196.3 406.6L185.1 408.9L173.9 412.8L162.7 418.3L151.5 423.3L140.3 428.8L129.1 431.1L117.9 436.5L106.7 440.9" fill="#9ecc8a" fill-opacity="0.7"></path><path class="World_1-area" stroke-linecap="round" d="M106.7 440.2L117.9 435.8L129.1 430.4L140.3 428.1L151.5 422.5L162.7 417.5L173.9 411.9L185.1 408L196.3 405.7L207.5 400.6L218.7 394.9L229.9 391L241.1 389.9L252.3 382.5L263.5 380L274.7 376.1L285.9 370.9L297.1 364L308.3 357.1L319.5 351.5L330.7 347.9L341.9 346L353.1 339.8L364.3 333L375.5 327.4L386.7 320.8L397.9 312.7L409 304.3L420.2 300.6L431.4 291.9L442.6 285.6L453.8 281.3L465 275.7L476.2 267.4L487.4 258.9L498.6 255.3L509.8 247.7L521 236.7L532.2 228.3L543.4 219.8L554.6 217L565.8 207.7L577 199.8L588.2 193.5L599.4 183.5L610.6 174.9L621.8 161.1L633 150.6L644.2 144.2L655.4 133.2L666.6 128.5L677.8 118.2L689 109.8L689 113.5L677.8 121.8L666.6 132L655.4 136.6L644.2 147.4L633 153.7L621.8 164.2L610.6 177.7L599.4 186.3L588.2 196.1L577 202.4L565.8 210.2L554.6 219.6L543.4 222.4L532.2 230.8L521 239.1L509.8 249.9L498.6 257.3L487.4 260.9L476.2 268.8L465 277L453.8 282.5L442.6 286.7L431.4 292.7L420.2 301.4L409 305L397.9 313.2L386.7 321.3L375.5 327.8L364.3 333.5L353.1 340.2L341.9 346.4L330.7 348.3L319.5 351.9L308.3 357.5L297.1 364.3L285.9 371.3L274.7 376.5L263.5 380.4L252.3 382.8L241.1 390.3L229.9 391.4L218.7 395.2L207.5 400.9L196.3 406L185.1 408.3L173.9 412.2L162.7 417.8L151.5 422.7L140.3 428.3L129.1 430.6L117.9 436.1L106.7 440.4" fill="rgb(105, 178, 101)" fill-opacity="0.7"></path><path class="World_0-area" stroke-linecap="round" d="M106.7 439.1L117.9 434.6L129.1 429.2L140.3 426.8L151.5 421.3L162.7 416.3L173.9 410.7L185.1 406.7L196.3 404.3L207.5 399.2L218.7 393.5L229.9 389.6L241.1 388.5L252.3 381.1L263.5 378.6L274.7 374.8L285.9 369.6L297.1 362.7L308.3 355.7L319.5 350.2L330.7 346.6L341.9 344.8L353.1 338.5L364.3 331.7L375.5 326L386.7 319.6L397.9 311.4L409 303L420.2 299.3L431.4 290.7L442.6 284.4L453.8 280.2L465 274.6L476.2 266.3L487.4 257.7L498.6 254.2L509.8 246.6L521 235.5L532.2 227.1L543.4 218.8L554.6 215.9L565.8 206.5L577 198.6L588.2 192.1L599.4 182.1L610.6 173.4L621.8 159.6L633 148.8L644.2 142.4L655.4 131.2L666.6 126.4L677.8 116.1L689 107.6L689 109.8L677.8 118.2L666.6 128.5L655.4 133.2L644.2 144.2L633 150.6L621.8 161.1L610.6 174.9L599.4 183.5L588.2 193.5L577 199.8L565.8 207.7L554.6 217L543.4 219.8L532.2 228.3L521 236.7L509.8 247.7L498.6 255.3L487.4 258.9L476.2 267.4L465 275.7L453.8 281.3L442.6 285.6L431.4 291.9L420.2 300.6L409 304.3L397.9 312.7L386.7 320.8L375.5 327.4L364.3 333L353.1 339.8L341.9 346L330.7 347.9L319.5 351.5L308.3 357.1L297.1 364L285.9 370.9L274.7 376.1L263.5 380L252.3 382.5L241.1 389.9L229.9 391L218.7 394.9L207.5 400.6L196.3 405.7L185.1 408L173.9 411.9L162.7 417.5L151.5 422.5L140.3 428.1L129.1 430.4L117.9 435.8L106.7 440.2" fill="#34983f" fill-opacity="0.7"></path><path class="World_9-border" stroke-linecap="round" d="M106.7 523.2L117.9 522.9L129.1 522.1L140.3 521.6L151.5 520.5L162.7 519.5L173.9 518.6L185.1 518.1L196.3 516.7L207.5 514.9L218.7 514L229.9 512.6L241.1 511.5L252.3 510.6L263.5 510L274.7 508.3L285.9 506.8L297.1 504.6L308.3 502.1L319.5 500.2L330.7 498.2L341.9 496.9L353.1 496L364.3 495.2L375.5 493.3L386.7 490.5L397.9 487L409 484.5L420.2 483.1L431.4 479.8L442.6 476.8L453.8 473.9L465 470.2L476.2 466.4L487.4 461.3L498.6 459.3L509.8 454.7L521 451.1L532.2 447L543.4 442.3L554.6 439L565.8 435.2L577 433.2L588.2 429.4L599.4 425.6L610.6 422.7L621.8 416.4L633 409.8L644.2 406.2L655.4 400.5L666.6 395.7L677.8 391.4L689 387.3" stroke="rgb(43, 80, 141)" stroke-opacity="0.7" stroke-width="0.5" fill="none"></path><path class="World_8-border" stroke-linecap="round" d="M106.7 489.6L117.9 487.5L129.1 484.4L140.3 482.7L151.5 478L162.7 475.6L173.9 472.6L185.1 471.4L196.3 470.4L207.5 466.3L218.7 460.5L229.9 457.4L241.1 456.6L252.3 453L263.5 453.5L274.7 453L285.9 448.5L297.1 442.6L308.3 434.2L319.5 428.8L330.7 426.2L341.9 424.6L353.1 420.6L364.3 415.9L375.5 411.8L386.7 408L397.9 400.5L409 393.5L420.2 390.7L431.4 384.9L442.6 380.2L453.8 375.4L465 369.7L476.2 362.9L487.4 356.4L498.6 353.8L509.8 348.3L521 338.1L532.2 332L543.4 325.2L554.6 321.4L565.8 314.2L577 307.4L588.2 303L599.4 296L610.6 290.4L621.8 280.3L633 270L644.2 264.1L655.4 254.7L666.6 250L677.8 241.3L689 234.9" stroke="rgb(35, 123, 130)" stroke-opacity="0.7" stroke-width="0.5" fill="none"></path><path class="World_7-border" stroke-linecap="round" d="M106.7 450.6L117.9 446.3L129.1 441L140.3 438.7L151.5 433.2L162.7 428.4L173.9 423.1L185.1 419.5L196.3 417.2L207.5 412.5L218.7 407L229.9 403.3L241.1 401.9L252.3 394.2L263.5 392.2L274.7 388.4L285.9 383.4L297.1 376.8L308.3 370L319.5 364.7L330.7 361.5L341.9 359.8L353.1 354.1L364.3 347.5L375.5 342.2L386.7 335.9L397.9 328.5L409 320.9L420.2 317.7L431.4 309.8L442.6 304.2L453.8 300.5L465 295.6L476.2 288.1L487.4 280.8L498.6 277.2L509.8 270.5L521 260.6L532.2 253L543.4 245.2L554.6 242.8L565.8 233.4L577 226.1L588.2 220.3L599.4 211.5L610.6 203.4L621.8 191.1L633 180.7L644.2 174.6L655.4 164.2L666.6 160L677.8 150.5L689 142.6" stroke="rgb(192, 43, 38)" stroke-opacity="0.7" stroke-width="0.5" fill="none"></path><path class="World_6-border" stroke-linecap="round" d="M106.7 442.4L117.9 438L129.1 432.6L140.3 430.3L151.5 424.8L162.7 419.8L173.9 414.3L185.1 410.4L196.3 408.2L207.5 403.2L218.7 397.6L229.9 393.8L241.1 392.7L252.3 385.3L263.5 383L274.7 379.2L285.9 374.1L297.1 367.2L308.3 360.4L319.5 354.8L330.7 351.2L341.9 349.4L353.1 343.2L364.3 336.6L375.5 331L386.7 324.6L397.9 316.7L409 308.6L420.2 305L431.4 296.6L442.6 290.8L453.8 287.1L465 282L476.2 274.1L487.4 266.5L498.6 263.3L509.8 256.2L521 245.6L532.2 237.7L543.4 229.6L554.6 227.1L565.8 217.6L577 210L588.2 203.8L599.4 194.3L610.6 186L621.8 173.2L633 162.6L644.2 156.5L655.4 146L666.6 141.7L677.8 131.9L689 123.5" stroke="rgb(169, 32, 33)" stroke-opacity="0.7" stroke-width="0.5" fill="none"></path><path class="World_5-border" stroke-linecap="round" d="M106.7 442.2L117.9 437.8L129.1 432.4L140.3 430.1L151.5 424.6L162.7 419.6L173.9 414.1L185.1 410.2L196.3 407.9L207.5 403L218.7 397.3L229.9 393.5L241.1 392.5L252.3 385.1L263.5 382.7L274.7 378.9L285.9 373.8L297.1 367L308.3 360.1L319.5 354.5L330.7 350.9L341.9 349.1L353.1 343L364.3 336.3L375.5 330.7L386.7 324.3L397.9 316.5L409 308.3L420.2 304.7L431.4 296.3L442.6 290.5L453.8 286.7L465 281.6L476.2 273.7L487.4 266.2L498.6 262.9L509.8 255.7L521 245.2L532.2 237.3L543.4 229.1L554.6 226.6L565.8 217.2L577 209.5L588.2 203.2L599.4 193.8L610.6 185.5L621.8 172.6L633 161.9L644.2 155.9L655.4 145.3L666.6 141L677.8 131.2L689 122.8" stroke="rgb(192, 105, 43)" stroke-opacity="0.7" stroke-width="0.5" fill="none"></path><path class="World_4-border" stroke-linecap="round" d="M106.7 441.4L117.9 437.1L129.1 431.7L140.3 429.4L151.5 423.8L162.7 418.9L173.9 413.4L185.1 409.5L196.3 407.2L207.5 402.3L218.7 396.6L229.9 392.9L241.1 391.8L252.3 384.4L263.5 382L274.7 378.2L285.9 373.1L297.1 366.2L308.3 359.4L319.5 353.8L330.7 350.2L341.9 348.5L353.1 342.3L364.3 335.6L375.5 330L386.7 323.7L397.9 315.8L409 307.6L420.2 304L431.4 295.6L442.6 289.8L453.8 285.8L465 280.7L476.2 272.8L487.4 265.2L498.6 261.9L509.8 254.7L521 244.2L532.2 236.3L543.4 228.1L554.6 225.5L565.8 216.1L577 208.4L588.2 202.2L599.4 192.8L610.6 184.5L621.8 171.6L633 160.9L644.2 154.9L655.4 144.3L666.6 140L677.8 130.1L689 121.7" stroke="rgb(213, 178, 52)" stroke-opacity="0.7" stroke-width="0.5" fill="none"></path><path class="World_3-border" stroke-linecap="round" d="M106.7 440.9L117.9 436.5L129.1 431.1L140.3 428.8L151.5 423.3L162.7 418.3L173.9 412.8L185.1 408.9L196.3 406.6L207.5 401.6L218.7 395.9L229.9 392.1L241.1 391L252.3 383.6L263.5 381.1L274.7 377.3L285.9 372.1L297.1 365.2L308.3 358.4L319.5 352.8L330.7 349.3L341.9 347.5L353.1 341.3L364.3 334.6L375.5 329L386.7 322.6L397.9 314.7L409 306.5L420.2 302.9L431.4 294.4L442.6 288.5L453.8 284.5L465 279.3L476.2 271.4L487.4 263.7L498.6 260.3L509.8 253.2L521 242.6L532.2 234.7L543.4 226.4L554.6 223.6L565.8 214.2L577 206.5L588.2 200.3L599.4 190.8L610.6 182.3L621.8 169.1L633 158.8L644.2 152.7L655.4 142L666.6 137.6L677.8 127.7L689 119.4" stroke="rgb(173, 175, 84)" stroke-opacity="0.7" stroke-width="0.5" fill="none"></path><path class="World_2-border" stroke-linecap="round" d="M106.7 440.4L117.9 436.1L129.1 430.6L140.3 428.3L151.5 422.7L162.7 417.8L173.9 412.2L185.1 408.3L196.3 406L207.5 400.9L218.7 395.2L229.9 391.4L241.1 390.3L252.3 382.8L263.5 380.4L274.7 376.5L285.9 371.3L297.1 364.3L308.3 357.5L319.5 351.9L330.7 348.3L341.9 346.4L353.1 340.2L364.3 333.5L375.5 327.8L386.7 321.3L397.9 313.2L409 305L420.2 301.4L431.4 292.7L442.6 286.7L453.8 282.5L465 277L476.2 268.8L487.4 260.9L498.6 257.3L509.8 249.9L521 239.1L532.2 230.8L543.4 222.4L554.6 219.6L565.8 210.2L577 202.4L588.2 196.1L599.4 186.3L610.6 177.7L621.8 164.2L633 153.7L644.2 147.4L655.4 136.6L666.6 132L677.8 121.8L689 113.5" stroke="rgb(132, 171, 115)" stroke-opacity="0.7" stroke-width="0.5" fill="none"></path><path class="World_1-border" stroke-linecap="round" d="M106.7 440.2L117.9 435.8L129.1 430.4L140.3 428.1L151.5 422.5L162.7 417.5L173.9 411.9L185.1 408L196.3 405.7L207.5 400.6L218.7 394.9L229.9 391L241.1 389.9L252.3 382.5L263.5 380L274.7 376.1L285.9 370.9L297.1 364L308.3 357.1L319.5 351.5L330.7 347.9L341.9 346L353.1 339.8L364.3 333L375.5 327.4L386.7 320.8L397.9 312.7L409 304.3L420.2 300.6L431.4 291.9L442.6 285.6L453.8 281.3L465 275.7L476.2 267.4L487.4 258.9L498.6 255.3L509.8 247.7L521 236.7L532.2 228.3L543.4 219.8L554.6 217L565.8 207.7L577 199.8L588.2 193.5L599.4 183.5L610.6 174.9L621.8 161.1L633 150.6L644.2 144.2L655.4 133.2L666.6 128.5L677.8 118.2L689 109.8" stroke="rgb(88, 149, 85)" stroke-opacity="0.7" stroke-width="0.5" fill="none"></path><path class="World_0-border" stroke-linecap="round" d="M106.7 439.1L117.9 434.6L129.1 429.2L140.3 426.8L151.5 421.3L162.7 416.3L173.9 410.7L185.1 406.7L196.3 404.3L207.5 399.2L218.7 393.5L229.9 389.6L241.1 388.5L252.3 381.1L263.5 378.6L274.7 374.8L285.9 369.6L297.1 362.7L308.3 355.7L319.5 350.2L330.7 346.6L341.9 344.8L353.1 338.5L364.3 331.7L375.5 326L386.7 319.6L397.9 311.4L409 303L420.2 299.3L431.4 290.7L442.6 284.4L453.8 280.2L465 274.6L476.2 266.3L487.4 257.7L498.6 254.2L509.8 246.6L521 235.5L532.2 227.1L543.4 218.8L554.6 215.9L565.8 206.5L577 198.6L588.2 192.1L599.4 182.1L610.6 173.4L621.8 159.6L633 148.8L644.2 142.4L655.4 131.2L666.6 126.4L677.8 116.1L689 107.6" stroke="rgb(44, 127, 53)" stroke-opacity="0.7" stroke-width="0.5" fill="none"></path></g></g></g><g class="SourcesFooter" style="fill:#777"><g class="clickable" style="fill:#777"><text font-size="12.60" x="15.0" y="581.6"><tspan x="15" y="581.58">Source: UN Food and Agricultural Organization (FAO)</tspan></text></g><text font-size="12.60" x="400.2" y="581.6"><tspan x="400.174" y="581.58"><a target='_blank' style='fill: #777;' href='https://ourworldindata.org/meat-and-seafood-production-consumption/'>OurWorldInData.org/meat-and-seafood-production-consumption/</a> • <a style="fill: #777;" class="cclogo" href="http://creativecommons.org/licenses/by-sa/4.0/deed.en_US" target="_blank">CC BY-SA</a></tspan></text></g></g></svg>