<svg xmlns="http://www.w3.org/2000/svg" version="1.1" style="font-family:&#x27;Helvetica Neue&#x27;, Helvetica, Arial, sans-serif;font-size:18px;background-color:white;text-rendering:optimizeLegibility;-webkit-font-smoothing:antialiased" width="850" height="600"><g class="ChartTab"><g class="HeaderView"><g opacity="0.8" transform="translate(778, 15) scale(0.27)"><a xmlns:xlink="http://www.w3.org/1999/xlink" xlink:href="https://ourworldindata.org" target="_blank"><g><rect x="0" y="0" fill="#1B2543" width="211.2" height="130.1"/><rect x="0" y="112.2" fill="#E63912" width="211.2" height="17.9"/><g><rect x="1.2" y="12.3" fill="none" width="210.2" height="99.2"/><path fill="#FFFFFF" d="M37.8,32.2c0,12.7-7.7,19.4-17.1,19.4c-9.7,0-16.6-7.5-16.6-18.7c0-11.7,7.3-19.3,17.1-19.3 C31.3,13.7,37.8,21.3,37.8,32.2z M9.2,32.8c0,7.9,4.3,14.9,11.8,14.9c7.5,0,11.8-6.9,11.8-15.3c0-7.3-3.8-14.9-11.8-14.9 C13.1,17.5,9.2,24.8,9.2,32.8z"/><path fill="#FFFFFF" d="M62.7,43.8c0,2.7,0.1,5.1,0.2,7.2h-4.3l-0.3-4.3h-0.1c-1.3,2.1-4,4.9-8.8,4.9c-4.2,0-9.1-2.3-9.1-11.6 V24.6h4.8v14.6c0,5,1.5,8.4,5.9,8.4c3.2,0,5.5-2.2,6.3-4.4c0.3-0.7,0.4-1.6,0.4-2.5V24.6h4.8V43.8z"/><path fill="#FFFFFF" d="M67.3,32.8c0-3.1-0.1-5.8-0.2-8.2h4.2l0.2,5.2h0.2c1.2-3.5,4.1-5.8,7.3-5.8c0.5,0,0.9,0.1,1.4,0.2v4.5 c-0.5-0.1-1-0.2-1.6-0.2c-3.4,0-5.8,2.6-6.5,6.2c-0.1,0.7-0.2,1.4-0.2,2.2V51h-4.8V32.8z"/><path fill="#FFFFFF" d="M95.4,51l-9.4-36.8h5l4.4,18.6c1.1,4.6,2.1,9.2,2.7,12.7h0.1c0.6-3.7,1.8-8,3-12.8l4.9-18.5h5l4.5,18.7 c1,4.4,2,8.7,2.6,12.6h0.1c0.8-4,1.8-8.1,3-12.7l4.9-18.5h4.9L120.6,51h-5L111,31.9c-1.1-4.7-1.9-8.3-2.4-12h-0.1 c-0.7,3.7-1.5,7.3-2.8,12L100.4,51H95.4z"/><path fill="#FFFFFF" d="M154.9,37.6c0,9.8-6.8,14-13.2,14c-7.2,0-12.7-5.2-12.7-13.6c0-8.8,5.8-14,13.1-14 C149.8,24,154.9,29.5,154.9,37.6z M133.9,37.9c0,5.8,3.3,10.1,8,10.1c4.6,0,8-4.3,8-10.3c0-4.5-2.2-10.1-7.9-10.1 C136.3,27.6,133.9,32.8,133.9,37.9z"/><path fill="#FFFFFF" d="M158.2,32.8c0-3.1-0.1-5.8-0.2-8.2h4.2l0.2,5.2h0.2c1.2-3.5,4.1-5.8,7.3-5.8c0.5,0,0.9,0.1,1.4,0.2v4.5 c-0.5-0.1-1-0.2-1.6-0.2c-3.4,0-5.8,2.6-6.5,6.2c-0.1,0.7-0.2,1.4-0.2,2.2V51h-4.8V32.8z"/><path fill="#FFFFFF" d="M173.5,12.3h4.8V51h-4.8V12.3z"/><path fill="#FFFFFF" d="M206.5,12.3v31.9c0,2.3,0.1,5,0.2,6.8h-4.3l-0.2-4.6H202c-1.5,2.9-4.7,5.2-9,5.2 c-6.4,0-11.3-5.4-11.3-13.4c-0.1-8.8,5.4-14.2,11.9-14.2c4,0,6.8,1.9,8,4h0.1V12.3H206.5z M201.7,35.4c0-0.6-0.1-1.4-0.2-2 c-0.7-3.1-3.3-5.6-6.9-5.6c-5,0-7.9,4.4-7.9,10.2c0,5.3,2.6,9.8,7.8,9.8c3.2,0,6.2-2.1,7.1-5.7c0.2-0.7,0.2-1.3,0.2-2.1V35.4z"/><path fill="#FFFFFF" d="M42.8,64c0.1,1.6-1.1,2.9-3.1,2.9c-1.7,0-2.9-1.3-2.9-2.9c0-1.7,1.3-3,3-3C41.7,61,42.8,62.3,42.8,64z M37.4,97.8V71.4h4.8v26.4H37.4z"/><path fill="#FFFFFF" d="M47.5,78.6c0-2.7-0.1-5-0.2-7.1h4.3l0.3,4.4h0.1c1.3-2.5,4.4-5,8.8-5c3.7,0,9.4,2.2,9.4,11.2v15.8h-4.8 V82.6c0-4.3-1.6-7.8-6.1-7.8c-3.2,0-5.6,2.2-6.5,4.9c-0.2,0.6-0.3,1.4-0.3,2.2v15.9h-4.8V78.6z"/><path fill="#FFFFFF" d="M84,61.6c2.9-0.4,6.3-0.8,10.1-0.8c6.8,0,11.7,1.6,14.9,4.6c3.3,3,5.2,7.3,5.2,13.2c0,6-1.9,10.9-5.3,14.3 c-3.4,3.4-9.1,5.3-16.3,5.3c-3.4,0-6.2-0.2-8.6-0.4V61.6z M88.8,94.1c1.2,0.2,3,0.3,4.8,0.3c10.2,0,15.7-5.7,15.7-15.6 c0.1-8.7-4.9-14.2-14.9-14.2c-2.5,0-4.3,0.2-5.6,0.5V94.1z"/><path fill="#FFFFFF" d="M132.1,97.8l-0.4-3.3h-0.2c-1.5,2.1-4.3,3.9-8.1,3.9c-5.4,0-8.1-3.8-8.1-7.6c0-6.4,5.7-9.9,15.9-9.8v-0.5 c0-2.2-0.6-6.1-6-6.1c-2.5,0-5,0.8-6.9,2l-1.1-3.2c2.2-1.4,5.4-2.3,8.7-2.3c8.1,0,10.1,5.5,10.1,10.8v9.9c0,2.3,0.1,4.5,0.4,6.3 H132.1z M131.4,84.4c-5.3-0.1-11.2,0.8-11.2,5.9c0,3.1,2.1,4.6,4.5,4.6c3.4,0,5.6-2.2,6.4-4.4c0.2-0.5,0.3-1,0.3-1.5V84.4z"/><path fill="#FFFFFF" d="M146.6,63.9v7.6h6.9v3.7h-6.9v14.2c0,3.3,0.9,5.1,3.6,5.1c1.3,0,2.2-0.2,2.8-0.3l0.2,3.6 c-0.9,0.4-2.4,0.7-4.3,0.7c-2.2,0-4-0.7-5.2-2c-1.4-1.4-1.9-3.8-1.9-6.9V75.1h-4.1v-3.7h4.1v-6.3L146.6,63.9z"/><path fill="#FFFFFF" d="M171.4,97.8l-0.4-3.3h-0.2c-1.5,2.1-4.3,3.9-8.1,3.9c-5.4,0-8.1-3.8-8.1-7.6c0-6.4,5.7-9.9,15.9-9.8v-0.5 c0-2.2-0.6-6.1-6-6.1c-2.5,0-5,0.8-6.9,2l-1.1-3.2c2.2-1.4,5.4-2.3,8.7-2.3c8.1,0,10.1,5.5,10.1,10.8v9.9c0,2.3,0.1,4.5,0.4,6.3 H171.4z M170.7,84.4c-5.3-0.1-11.2,0.8-11.2,5.9c0,3.1,2.1,4.6,4.5,4.6c3.4,0,5.6-2.2,6.4-4.4c0.2-0.5,0.3-1,0.3-1.5V84.4z"/></g></g></a></g><a href="https://ourworldindata.org/grapher/global-primary-energy" target="_blank"><text font-size="25.20" x="15.0" y="35.2" fill="#555"><tspan x="15" y="35.160000000000004">Global primary energy consumption</tspan></text></a><text font-size="14.40" x="15.0" y="53.7" fill="#666"><tspan x="15" y="53.72">Global primary energy consumption, measured in terawatt-hours (TWh) per year. Here &#x27;other renewables&#x27; are</tspan><tspan x="15" y="69.56">renewable technologies not including solar, wind, hydropower and traditional biofuels.</tspan></text></g><g class="StackedArea"><defs><clipPath id="boundsClip-155"><rect x="117.686" y="0" width="820" height="928.8"></rect></clipPath></defs><g class="AxisBoxView"><g class="HorizontalAxis"><text x="117.7" y="556.5" fill="#666" text-anchor="middle" font-size="16.2">1800</text><text x="248.7" y="556.5" fill="#666" text-anchor="middle" font-size="16.2">1850</text><text x="379.7" y="556.5" fill="#666" text-anchor="middle" font-size="16.2">1900</text><text x="510.8" y="556.5" fill="#666" text-anchor="middle" font-size="16.2">1950</text><text x="641.8" y="556.5" fill="#666" text-anchor="middle" font-size="16.2">2000</text><text x="686.3" y="556.5" fill="#666" text-anchor="middle" font-size="16.2">2017</text></g><g class="VerticalAxis"><text x="112.69" y="535.3" fill="#666" dominant-baseline="middle" text-anchor="end" font-size="16.2">0 TWh</text><text x="112.69" y="477.6" fill="#666" dominant-baseline="middle" text-anchor="end" font-size="16.2">20,000 TWh</text><text x="112.69" y="419.9" fill="#666" dominant-baseline="middle" text-anchor="end" font-size="16.2">40,000 TWh</text><text x="112.69" y="362.2" fill="#666" dominant-baseline="middle" text-anchor="end" font-size="16.2">60,000 TWh</text><text x="112.69" y="304.5" fill="#666" dominant-baseline="middle" text-anchor="end" font-size="16.2">80,000 TWh</text><text x="112.69" y="246.8" fill="#666" dominant-baseline="middle" text-anchor="end" font-size="16.2">100,000 TWh</text><text x="112.69" y="189" fill="#666" dominant-baseline="middle" text-anchor="end" font-size="16.2">120,000 TWh</text><text x="112.69" y="131.3" fill="#666" dominant-baseline="middle" text-anchor="end" font-size="16.2">140,000 TWh</text></g><g class="AxisGridLines"><line x1="117.69" y1="535.3" x2="686.33" y2="535.3" stroke="#ccc"></line><line x1="117.69" y1="477.6" x2="686.33" y2="477.6" stroke="#ddd" stroke-dasharray="3,2"></line><line x1="117.69" y1="419.9" x2="686.33" y2="419.9" stroke="#ddd" stroke-dasharray="3,2"></line><line x1="117.69" y1="362.2" x2="686.33" y2="362.2" stroke="#ddd" stroke-dasharray="3,2"></line><line x1="117.69" y1="304.5" x2="686.33" y2="304.5" stroke="#ddd" stroke-dasharray="3,2"></line><line x1="117.69" y1="246.8" x2="686.33" y2="246.8" stroke="#ddd" stroke-dasharray="3,2"></line><line x1="117.69" y1="189" x2="686.33" y2="189" stroke="#ddd" stroke-dasharray="3,2"></line><line x1="117.69" y1="131.3" x2="686.33" y2="131.3" stroke="#ddd" stroke-dasharray="3,2"></line></g></g><g clip-path="url(#boundsClip-155)"><g class="HeightedLegend clickable"><g class="legendMark"><g class="indicator"><line x1="691.3299999999999" y1="92.9" x2="711.8299999999999" y2="92.9" stroke="#666" stroke-width="0.5"></line><line x1="711.8299999999999" y1="92.9" x2="711.8299999999999" y2="92.9" stroke="#666" stroke-width="0.5"></line><line x1="711.8299999999999" y1="92.9" x2="716.3299999999999" y2="92.9" stroke="#666" stroke-width="0.5"></line></g><rect x="686.3299999999999" y="86.15" width="141.92000000000002" height="13.5" fill="#fff" opacity="0"></rect><text font-size="13.50" x="721.3" y="97.0" fill="#2a939b"><tspan x="721.3299999999999" y="96.95">Other renewables</tspan></text></g><g class="legendMark"><g class="indicator"><line x1="691.3299999999999" y1="94.4" x2="707.8299999999999" y2="94.4" stroke="#666" stroke-width="0.5"></line><line x1="707.8299999999999" y1="94.4" x2="707.8299999999999" y2="108.4" stroke="#666" stroke-width="0.5"></line><line x1="707.8299999999999" y1="108.4" x2="716.3299999999999" y2="108.4" stroke="#666" stroke-width="0.5"></line></g><rect x="686.3299999999999" y="101.65" width="66.59" height="13.5" fill="#fff" opacity="0"></rect><text font-size="13.50" x="721.3" y="112.5" fill="#ffd53e"><tspan x="721.3299999999999" y="112.45">Solar</tspan></text></g><g class="legendMark"><g class="indicator"><line x1="691.3299999999999" y1="96.7" x2="703.8299999999999" y2="96.7" stroke="#666" stroke-width="0.5"></line><line x1="703.8299999999999" y1="96.7" x2="703.8299999999999" y2="123.9" stroke="#666" stroke-width="0.5"></line><line x1="703.8299999999999" y1="123.9" x2="716.3299999999999" y2="123.9" stroke="#666" stroke-width="0.5"></line></g><rect x="686.3299999999999" y="117.15" width="65.78" height="13.5" fill="#fff" opacity="0"></rect><text font-size="13.50" x="721.3" y="128.0" fill="#5eb77e"><tspan x="721.3299999999999" y="127.95">Wind</tspan></text></g><g class="legendMark"><g class="indicator"><line x1="691.3299999999999" y1="102.1" x2="699.8299999999999" y2="102.1" stroke="#666" stroke-width="0.5"></line><line x1="699.8299999999999" y1="102.1" x2="699.8299999999999" y2="139.4" stroke="#666" stroke-width="0.5"></line><line x1="699.8299999999999" y1="139.4" x2="716.3299999999999" y2="139.4" stroke="#666" stroke-width="0.5"></line></g><rect x="686.3299999999999" y="132.65" width="81.575" height="13.5" fill="#fff" opacity="0"></rect><text font-size="13.50" x="721.3" y="143.5" fill="#ca2628"><tspan x="721.3299999999999" y="143.45000000000002">Nuclear</tspan></text></g><g class="legendMark"><g class="indicator"><line x1="691.3299999999999" y1="111.8" x2="695.8299999999999" y2="111.8" stroke="#666" stroke-width="0.5"></line><line x1="695.8299999999999" y1="111.8" x2="695.8299999999999" y2="154.9" stroke="#666" stroke-width="0.5"></line><line x1="695.8299999999999" y1="154.9" x2="716.3299999999999" y2="154.9" stroke="#666" stroke-width="0.5"></line></g><rect x="686.3299999999999" y="148.15" width="107.9" height="13.5" fill="#fff" opacity="0"></rect><text font-size="13.50" x="721.3" y="159.0" fill="#7ec7ce"><tspan x="721.3299999999999" y="158.95000000000002">Hydropower</tspan></text></g><g class="legendMark"><g class="indicator"><line x1="691.3299999999999" y1="170.6" x2="703.8299999999999" y2="170.6" stroke="#666" stroke-width="0.5"></line><line x1="703.8299999999999" y1="170.6" x2="703.8299999999999" y2="170.6" stroke="#666" stroke-width="0.5"></line><line x1="703.8299999999999" y1="170.6" x2="716.3299999999999" y2="170.6" stroke="#666" stroke-width="0.5"></line></g><rect x="686.3299999999999" y="163.85" width="104.25500000000001" height="13.5" fill="#fff" opacity="0"></rect><text font-size="13.50" x="721.3" y="174.7" fill="#a652ba"><tspan x="721.3299999999999" y="174.65">Natural gas</tspan></text></g><g class="legendMark"><g class="indicator"><line x1="691.3299999999999" y1="301.1" x2="703.8299999999999" y2="301.1" stroke="#666" stroke-width="0.5"></line><line x1="703.8299999999999" y1="301.1" x2="703.8299999999999" y2="301.1" stroke="#666" stroke-width="0.5"></line><line x1="703.8299999999999" y1="301.1" x2="716.3299999999999" y2="301.1" stroke="#666" stroke-width="0.5"></line></g><rect x="686.3299999999999" y="294.35" width="89.135" height="13.5" fill="#fff" opacity="0"></rect><text font-size="13.50" x="721.3" y="305.2" fill="#3360a9"><tspan x="721.3299999999999" y="305.15000000000003">Crude oil</tspan></text></g><g class="legendMark"><g class="indicator"><line x1="691.3299999999999" y1="441.3" x2="703.8299999999999" y2="441.3" stroke="#666" stroke-width="0.5"></line><line x1="703.8299999999999" y1="441.3" x2="703.8299999999999" y2="441.3" stroke="#666" stroke-width="0.5"></line><line x1="703.8299999999999" y1="441.3" x2="716.3299999999999" y2="441.3" stroke="#666" stroke-width="0.5"></line></g><rect x="686.3299999999999" y="434.55" width="62.81" height="13.5" fill="#fff" opacity="0"></rect><text font-size="13.50" x="721.3" y="445.4" fill="#818282"><tspan x="721.3299999999999" y="445.35">Coal</tspan></text></g><g class="legendMark"><g class="indicator"><line x1="691.3299999999999" y1="519.6" x2="703.8299999999999" y2="519.6" stroke="#666" stroke-width="0.5"></line><line x1="703.8299999999999" y1="519.6" x2="703.8299999999999" y2="519.6" stroke="#666" stroke-width="0.5"></line><line x1="703.8299999999999" y1="519.6" x2="716.3299999999999" y2="519.6" stroke="#666" stroke-width="0.5"></line></g><rect x="686.3299999999999" y="512.85" width="148.67000000000002" height="13.5" fill="#fff" opacity="0"></rect><text font-size="13.50" x="721.3" y="523.6" fill="#932834"><tspan x="721.3299999999999" y="523.65">Traditional biofuels</tspan></text></g></g><g class="Areas"><rect x="117.686" y="92.1" width="568.6439999999999" height="443.19999999999993" opacity="0" fill="rgba(255,255,255,0)"></rect><path class="World_4-area" stroke-linecap="round" d="M117.7 519.3L143.9 518.5L170.1 517.7L196.3 516.9L222.5 515.3L248.7 514.5L274.9 515.3L301.1 515.3L327.3 515.3L353.5 516.1L379.7 517.7L405.9 516.9L432.1 515.3L458.3 514.5L484.6 514.5L510.8 513.7L537 509.7L550.1 508.9L552.7 508.7L555.3 508.5L557.9 508.4L560.5 508.2L563.2 508L565.8 507.9L568.4 507.7L571 507.6L573.6 507.4L576.3 507.3L578.9 507.1L581.5 506.9L584.1 506.8L586.8 506.6L589.4 506.4L592 506.1L594.6 505.8L597.2 505.5L599.9 505.2L602.5 504.9L605.1 504.6L607.7 504.2L610.3 503.9L613 503.6L615.6 503.2L618.2 502.9L620.8 502.5L623.4 502.1L626.1 501.7L628.7 501.3L631.3 500.9L633.9 500.5L636.5 500.1L639.2 499.5L641.8 499.2L644.4 499.2L647 499.3L649.6 499.7L652.3 500.2L654.9 500.5L657.5 500.7L660.1 500.9L662.7 501.2L665.4 501.4L668 501.6L670.6 502L673.2 502.3L675.8 502.6L678.5 502.9L681.1 503.2L683.7 503.6L686.3 503.9L686.3299999999999 535.3L117.686 535.3" fill="#932834" fill-opacity="0.7"></path><path class="World_0-area" stroke-linecap="round" d="M117.7 519L143.9 518.1L170.1 517.2L196.3 516.1L222.5 514.2L248.7 512.8L274.9 512.2L301.1 510.5L327.3 507.9L353.5 504.9L379.7 501.1L405.9 491.9L432.1 486.9L458.3 485.2L484.6 481L510.8 477.3L537 465.1L550.1 462.3L552.7 461.6L555.3 462.2L557.9 461.3L560.5 459.7L563.2 458.8L565.8 458.9L568.4 458.2L571 456.6L573.6 456.4L576.3 455.2L578.9 453.2L581.5 451.4L584.1 450.6L586.8 447.9L589.4 446.3L592 445.1L594.6 444.1L597.2 441.9L599.9 438.8L602.5 435.9L605.1 434.8L607.7 431.7L610.3 429.2L613 428.1L615.6 428.7L618.2 429.1L620.8 429L623.4 428.3L626.1 427.4L628.7 426.7L631.3 424.4L633.9 423.9L636.5 424L639.2 423L641.8 420.2L644.4 418.9L647 415.8L649.6 408.9L652.3 403.1L654.9 396.2L657.5 391.1L660.1 385.1L662.7 383.7L665.4 385.7L668 380.6L670.6 375.1L673.2 375L675.8 372.9L678.5 373.3L681.1 376.9L683.7 379.2L686.3 378.6L686.3 503.9L683.7 503.6L681.1 503.2L678.5 502.9L675.8 502.6L673.2 502.3L670.6 502L668 501.6L665.4 501.4L662.7 501.2L660.1 500.9L657.5 500.7L654.9 500.5L652.3 500.2L649.6 499.7L647 499.3L644.4 499.2L641.8 499.2L639.2 499.5L636.5 500.1L633.9 500.5L631.3 500.9L628.7 501.3L626.1 501.7L623.4 502.1L620.8 502.5L618.2 502.9L615.6 503.2L613 503.6L610.3 503.9L607.7 504.2L605.1 504.6L602.5 504.9L599.9 505.2L597.2 505.5L594.6 505.8L592 506.1L589.4 506.4L586.8 506.6L584.1 506.8L581.5 506.9L578.9 507.1L576.3 507.3L573.6 507.4L571 507.6L568.4 507.7L565.8 507.9L563.2 508L560.5 508.2L557.9 508.4L555.3 508.5L552.7 508.7L550.1 508.9L537 509.7L510.8 513.7L484.6 514.5L458.3 514.5L432.1 515.3L405.9 516.9L379.7 517.7L353.5 516.1L327.3 515.3L301.1 515.3L274.9 515.3L248.7 514.5L222.5 515.3L196.3 516.9L170.1 517.7L143.9 518.5L117.7 519.3" fill="#818282" fill-opacity="0.7"></path><path class="World_2-area" stroke-linecap="round" d="M117.7 519L143.9 518.1L170.1 517.2L196.3 516.1L222.5 514.2L248.7 512.8L274.9 512.2L301.1 510.5L327.3 507.8L353.5 504.7L379.7 500.6L405.9 490.7L432.1 484.3L458.3 480.2L484.6 473.4L510.8 461.6L537 433.1L550.1 410.2L552.7 405.5L555.3 402.1L557.9 396.1L560.5 388.9L563.2 381.9L565.8 377.5L568.4 370.5L571 362L573.6 363.2L576.3 363L578.9 354.9L581.5 349.8L584.1 345.7L586.8 341.2L589.4 343.8L592 346.3L594.6 348.4L597.2 346.8L599.9 341.5L602.5 338.4L605.1 334.3L607.7 329.2L610.3 323.2L613 320.4L615.6 319.8L618.2 320.1L620.8 318.1L623.4 318.1L626.1 314.9L628.7 312.5L631.3 307.6L633.9 304L636.5 303.5L639.2 300.4L641.8 296L644.4 293.6L647 289.4L649.6 279.6L652.3 268.9L654.9 260.3L657.5 253.4L660.1 245.2L662.7 244.5L665.4 248.9L668 239.4L670.6 232.4L673.2 230.5L675.8 226.6L678.5 225.8L681.1 226.7L683.7 226.2L686.3 223.5L686.3 378.6L683.7 379.2L681.1 376.9L678.5 373.3L675.8 372.9L673.2 375L670.6 375.1L668 380.6L665.4 385.7L662.7 383.7L660.1 385.1L657.5 391.1L654.9 396.2L652.3 403.1L649.6 408.9L647 415.8L644.4 418.9L641.8 420.2L639.2 423L636.5 424L633.9 423.9L631.3 424.4L628.7 426.7L626.1 427.4L623.4 428.3L620.8 429L618.2 429.1L615.6 428.7L613 428.1L610.3 429.2L607.7 431.7L605.1 434.8L602.5 435.9L599.9 438.8L597.2 441.9L594.6 444.1L592 445.1L589.4 446.3L586.8 447.9L584.1 450.6L581.5 451.4L578.9 453.2L576.3 455.2L573.6 456.4L571 456.6L568.4 458.2L565.8 458.9L563.2 458.8L560.5 459.7L557.9 461.3L555.3 462.2L552.7 461.6L550.1 462.3L537 465.1L510.8 477.3L484.6 481L458.3 485.2L432.1 486.9L405.9 491.9L379.7 501.1L353.5 504.9L327.3 507.9L301.1 510.5L274.9 512.2L248.7 512.8L222.5 514.2L196.3 516.1L170.1 517.2L143.9 518.1L117.7 519" fill="#3360a9" fill-opacity="0.7"></path><path class="World_3-area" stroke-linecap="round" d="M117.7 519L143.9 518.1L170.1 517.2L196.3 516.1L222.5 514.2L248.7 512.8L274.9 512.2L301.1 510.5L327.3 507.8L353.5 504.6L379.7 500.4L405.9 490.3L432.1 483.6L458.3 478.4L484.6 470.8L510.8 455.5L537 420.2L550.1 392L552.7 385.6L555.3 380.8L557.9 372.8L560.5 363.4L563.2 354.2L565.8 347.8L568.4 339.2L571 329.2L573.6 329.6L576.3 329.3L578.9 319.2L581.5 313L584.1 307.4L586.8 300.5L589.4 302.7L592 304.8L594.6 306.6L597.2 304.3L599.9 295.6L602.5 291.5L605.1 286.9L607.7 279.3L610.3 271L613 265.8L615.6 263.5L618.2 262.5L620.8 260.2L623.4 259.6L626.1 256L628.7 251.6L631.3 243.7L633.9 240.3L636.5 238.6L639.2 233.7L641.8 226.7L644.4 223.3L647 217L649.6 205.3L652.3 191.7L654.9 180.8L657.5 171.6L660.1 159.9L662.7 157L665.4 163.8L668 147.8L670.6 138.9L673.2 134.5L675.8 129.3L678.5 127.8L681.1 126.4L683.7 123.1L686.3 117.6L686.3 223.5L683.7 226.2L681.1 226.7L678.5 225.8L675.8 226.6L673.2 230.5L670.6 232.4L668 239.4L665.4 248.9L662.7 244.5L660.1 245.2L657.5 253.4L654.9 260.3L652.3 268.9L649.6 279.6L647 289.4L644.4 293.6L641.8 296L639.2 300.4L636.5 303.5L633.9 304L631.3 307.6L628.7 312.5L626.1 314.9L623.4 318.1L620.8 318.1L618.2 320.1L615.6 319.8L613 320.4L610.3 323.2L607.7 329.2L605.1 334.3L602.5 338.4L599.9 341.5L597.2 346.8L594.6 348.4L592 346.3L589.4 343.8L586.8 341.2L584.1 345.7L581.5 349.8L578.9 354.9L576.3 363L573.6 363.2L571 362L568.4 370.5L565.8 377.5L563.2 381.9L560.5 388.9L557.9 396.1L555.3 402.1L552.7 405.5L550.1 410.2L537 433.1L510.8 461.6L484.6 473.4L458.3 480.2L432.1 484.3L405.9 490.7L379.7 500.6L353.5 504.7L327.3 507.8L301.1 510.5L274.9 512.2L248.7 512.8L222.5 514.2L196.3 516.1L170.1 517.2L143.9 518.1L117.7 519" fill="#a652ba" fill-opacity="0.7"></path><path class="World_6-area" stroke-linecap="round" d="M117.7 519L143.9 518.1L170.1 517.2L196.3 516.1L222.5 514.2L248.7 512.8L274.9 512.2L301.1 510.5L327.3 507.8L353.5 504.5L379.7 500.4L405.9 490.2L432.1 483.5L458.3 478.1L484.6 470.3L510.8 454.6L537 418.2L550.1 389.3L552.7 382.8L555.3 377.9L557.9 369.8L560.5 360.1L563.2 350.8L565.8 344.2L568.4 335.5L571 325.5L573.6 325.5L576.3 325.2L578.9 315.1L581.5 308.7L584.1 302.8L586.8 295.7L589.4 297.8L592 299.8L594.6 301.4L597.2 298.9L599.9 290L602.5 285.8L605.1 281.1L607.7 273.4L610.3 265L613 259.8L615.6 257.3L618.2 256.1L620.8 253.8L623.4 252.8L626.1 249.2L628.7 244.4L631.3 236.4L633.9 232.9L636.5 231.2L639.2 226.2L641.8 219L644.4 215.8L647 209.4L649.6 197.7L652.3 183.6L654.9 172.4L657.5 162.8L660.1 151L662.7 147.6L665.4 154.4L668 137.8L670.6 128.8L673.2 123.9L675.8 118.4L678.5 116.6L681.1 115.2L683.7 111.5L686.3 105.9L686.3 117.6L683.7 123.1L681.1 126.4L678.5 127.8L675.8 129.3L673.2 134.5L670.6 138.9L668 147.8L665.4 163.8L662.7 157L660.1 159.9L657.5 171.6L654.9 180.8L652.3 191.7L649.6 205.3L647 217L644.4 223.3L641.8 226.7L639.2 233.7L636.5 238.6L633.9 240.3L631.3 243.7L628.7 251.6L626.1 256L623.4 259.6L620.8 260.2L618.2 262.5L615.6 263.5L613 265.8L610.3 271L607.7 279.3L605.1 286.9L602.5 291.5L599.9 295.6L597.2 304.3L594.6 306.6L592 304.8L589.4 302.7L586.8 300.5L584.1 307.4L581.5 313L578.9 319.2L576.3 329.3L573.6 329.6L571 329.2L568.4 339.2L565.8 347.8L563.2 354.2L560.5 363.4L557.9 372.8L555.3 380.8L552.7 385.6L550.1 392L537 420.2L510.8 455.5L484.6 470.8L458.3 478.4L432.1 483.6L405.9 490.3L379.7 500.4L353.5 504.6L327.3 507.8L301.1 510.5L274.9 512.2L248.7 512.8L222.5 514.2L196.3 516.1L170.1 517.2L143.9 518.1L117.7 519" fill="#7ec7ce" fill-opacity="0.7"></path><path class="World_7-area" stroke-linecap="round" d="M117.7 519L143.9 518.1L170.1 517.2L196.3 516.1L222.5 514.2L248.7 512.8L274.9 512.2L301.1 510.5L327.3 507.8L353.5 504.5L379.7 500.4L405.9 490.2L432.1 483.5L458.3 478.1L484.6 470.3L510.8 454.6L537 418.2L550.1 389.2L552.7 382.7L555.3 377.7L557.9 369.6L560.5 359.9L563.2 350.6L565.8 343.9L568.4 335L571 324.9L573.6 324.7L576.3 324.1L578.9 313.8L581.5 307.2L584.1 301L586.8 293.8L589.4 295.8L592 297.4L594.6 298.8L597.2 295.9L599.9 286.4L602.5 281.5L605.1 276.5L607.7 268.4L610.3 259.5L613 254.2L615.6 251.5L618.2 250L620.8 247.7L623.4 246.5L626.1 242.7L628.7 237.7L631.3 229.5L633.9 226L636.5 224.1L639.2 218.9L641.8 211.6L644.4 208.1L647 201.6L649.6 190.1L652.3 175.7L654.9 164.4L657.5 154.7L660.1 143.1L662.7 139.7L665.4 146.7L668 129.9L670.6 121.2L673.2 116.8L675.8 111.2L678.5 109.2L681.1 107.8L683.7 103.9L686.3 98.3L686.3 105.9L683.7 111.5L681.1 115.2L678.5 116.6L675.8 118.4L673.2 123.9L670.6 128.8L668 137.8L665.4 154.4L662.7 147.6L660.1 151L657.5 162.8L654.9 172.4L652.3 183.6L649.6 197.7L647 209.4L644.4 215.8L641.8 219L639.2 226.2L636.5 231.2L633.9 232.9L631.3 236.4L628.7 244.4L626.1 249.2L623.4 252.8L620.8 253.8L618.2 256.1L615.6 257.3L613 259.8L610.3 265L607.7 273.4L605.1 281.1L602.5 285.8L599.9 290L597.2 298.9L594.6 301.4L592 299.8L589.4 297.8L586.8 295.7L584.1 302.8L581.5 308.7L578.9 315.1L576.3 325.2L573.6 325.5L571 325.5L568.4 335.5L565.8 344.2L563.2 350.8L560.5 360.1L557.9 369.8L555.3 377.9L552.7 382.8L550.1 389.3L537 418.2L510.8 454.6L484.6 470.3L458.3 478.1L432.1 483.5L405.9 490.2L379.7 500.4L353.5 504.5L327.3 507.8L301.1 510.5L274.9 512.2L248.7 512.8L222.5 514.2L196.3 516.1L170.1 517.2L143.9 518.1L117.7 519" fill="#ca2628" fill-opacity="0.7"></path><path class="World_8-area" stroke-linecap="round" d="M117.7 519L143.9 518.1L170.1 517.2L196.3 516.1L222.5 514.2L248.7 512.8L274.9 512.2L301.1 510.5L327.3 507.8L353.5 504.5L379.7 500.4L405.9 490.2L432.1 483.5L458.3 478.1L484.6 470.3L510.8 454.6L537 418.2L550.1 389.2L552.7 382.7L555.3 377.7L557.9 369.6L560.5 359.9L563.2 350.6L565.8 343.9L568.4 335L571 324.9L573.6 324.7L576.3 324.1L578.9 313.8L581.5 307.2L584.1 301L586.8 293.8L589.4 295.8L592 297.4L594.6 298.8L597.2 295.9L599.9 286.4L602.5 281.5L605.1 276.5L607.7 268.4L610.3 259.5L613 254.2L615.6 251.5L618.2 250L620.8 247.7L623.4 246.5L626.1 242.7L628.7 237.7L631.3 229.4L633.9 225.9L636.5 224.1L639.2 218.8L641.8 211.5L644.4 208L647 201.5L649.6 189.9L652.3 175.4L654.9 164.1L657.5 154.4L660.1 142.6L662.7 139L665.4 145.9L668 128.9L670.6 119.9L673.2 115.2L675.8 109.3L678.5 107.2L681.1 105.4L683.7 101.2L686.3 95.1L686.3 98.3L683.7 103.9L681.1 107.8L678.5 109.2L675.8 111.2L673.2 116.8L670.6 121.2L668 129.9L665.4 146.7L662.7 139.7L660.1 143.1L657.5 154.7L654.9 164.4L652.3 175.7L649.6 190.1L647 201.6L644.4 208.1L641.8 211.6L639.2 218.9L636.5 224.1L633.9 226L631.3 229.5L628.7 237.7L626.1 242.7L623.4 246.5L620.8 247.7L618.2 250L615.6 251.5L613 254.2L610.3 259.5L607.7 268.4L605.1 276.5L602.5 281.5L599.9 286.4L597.2 295.9L594.6 298.8L592 297.4L589.4 295.8L586.8 293.8L584.1 301L581.5 307.2L578.9 313.8L576.3 324.1L573.6 324.7L571 324.9L568.4 335L565.8 343.9L563.2 350.6L560.5 359.9L557.9 369.6L555.3 377.7L552.7 382.7L550.1 389.2L537 418.2L510.8 454.6L484.6 470.3L458.3 478.1L432.1 483.5L405.9 490.2L379.7 500.4L353.5 504.5L327.3 507.8L301.1 510.5L274.9 512.2L248.7 512.8L222.5 514.2L196.3 516.1L170.1 517.2L143.9 518.1L117.7 519" fill="#5eb77e" fill-opacity="0.7"></path><path class="World_1-area" stroke-linecap="round" d="M117.7 519L143.9 518.1L170.1 517.2L196.3 516.1L222.5 514.2L248.7 512.8L274.9 512.2L301.1 510.5L327.3 507.8L353.5 504.5L379.7 500.4L405.9 490.2L432.1 483.5L458.3 478.1L484.6 470.3L510.8 454.6L537 418.2L550.1 389.2L552.7 382.7L555.3 377.7L557.9 369.6L560.5 359.9L563.2 350.6L565.8 343.9L568.4 335L571 324.9L573.6 324.7L576.3 324.1L578.9 313.8L581.5 307.2L584.1 301L586.8 293.8L589.4 295.8L592 297.4L594.6 298.8L597.2 295.9L599.9 286.4L602.5 281.5L605.1 276.5L607.7 268.4L610.3 259.5L613 254.2L615.6 251.5L618.2 250L620.8 247.7L623.4 246.5L626.1 242.7L628.7 237.7L631.3 229.4L633.9 225.9L636.5 224.1L639.2 218.8L641.8 211.5L644.4 208L647 201.5L649.6 189.9L652.3 175.4L654.9 164.1L657.5 154.3L660.1 142.6L662.7 139L665.4 145.8L668 128.8L670.6 119.7L673.2 115L675.8 108.9L678.5 106.6L681.1 104.6L683.7 100.2L686.3 93.8L686.3 95.1L683.7 101.2L681.1 105.4L678.5 107.2L675.8 109.3L673.2 115.2L670.6 119.9L668 128.9L665.4 145.9L662.7 139L660.1 142.6L657.5 154.4L654.9 164.1L652.3 175.4L649.6 189.9L647 201.5L644.4 208L641.8 211.5L639.2 218.8L636.5 224.1L633.9 225.9L631.3 229.4L628.7 237.7L626.1 242.7L623.4 246.5L620.8 247.7L618.2 250L615.6 251.5L613 254.2L610.3 259.5L607.7 268.4L605.1 276.5L602.5 281.5L599.9 286.4L597.2 295.9L594.6 298.8L592 297.4L589.4 295.8L586.8 293.8L584.1 301L581.5 307.2L578.9 313.8L576.3 324.1L573.6 324.7L571 324.9L568.4 335L565.8 343.9L563.2 350.6L560.5 359.9L557.9 369.6L555.3 377.7L552.7 382.7L550.1 389.2L537 418.2L510.8 454.6L484.6 470.3L458.3 478.1L432.1 483.5L405.9 490.2L379.7 500.4L353.5 504.5L327.3 507.8L301.1 510.5L274.9 512.2L248.7 512.8L222.5 514.2L196.3 516.1L170.1 517.2L143.9 518.1L117.7 519" fill="#ffd53e" fill-opacity="0.7"></path><path class="World_5-area" stroke-linecap="round" d="M117.7 519L143.9 518.1L170.1 517.2L196.3 516.1L222.5 514.2L248.7 512.8L274.9 512.2L301.1 510.5L327.3 507.8L353.5 504.5L379.7 500.4L405.9 490.2L432.1 483.5L458.3 478.1L484.6 470.3L510.8 454.6L537 418.2L550.1 389.2L552.7 382.6L555.3 377.7L557.9 369.6L560.5 359.9L563.2 350.5L565.8 343.8L568.4 335L571 324.8L573.6 324.6L576.3 324L578.9 313.7L581.5 307.1L584.1 300.9L586.8 293.7L589.4 295.6L592 297.3L594.6 298.6L597.2 295.7L599.9 286.1L602.5 281.2L605.1 276.3L607.7 268.1L610.3 259.2L613 253.9L615.6 251.2L618.2 249.7L620.8 247.3L623.4 246.1L626.1 242.3L628.7 237.2L631.3 229L633.9 225.5L636.5 223.6L639.2 218.3L641.8 210.9L644.4 207.5L647 200.9L649.6 189.2L652.3 174.7L654.9 163.4L657.5 153.6L660.1 141.7L662.7 138.1L665.4 144.8L668 127.7L670.6 118.6L673.2 113.7L675.8 107.6L678.5 105.1L681.1 103.1L683.7 98.6L686.3 92.1L686.3 93.8L683.7 100.2L681.1 104.6L678.5 106.6L675.8 108.9L673.2 115L670.6 119.7L668 128.8L665.4 145.8L662.7 139L660.1 142.6L657.5 154.3L654.9 164.1L652.3 175.4L649.6 189.9L647 201.5L644.4 208L641.8 211.5L639.2 218.8L636.5 224.1L633.9 225.9L631.3 229.4L628.7 237.7L626.1 242.7L623.4 246.5L620.8 247.7L618.2 250L615.6 251.5L613 254.2L610.3 259.5L607.7 268.4L605.1 276.5L602.5 281.5L599.9 286.4L597.2 295.9L594.6 298.8L592 297.4L589.4 295.8L586.8 293.8L584.1 301L581.5 307.2L578.9 313.8L576.3 324.1L573.6 324.7L571 324.9L568.4 335L565.8 343.9L563.2 350.6L560.5 359.9L557.9 369.6L555.3 377.7L552.7 382.7L550.1 389.2L537 418.2L510.8 454.6L484.6 470.3L458.3 478.1L432.1 483.5L405.9 490.2L379.7 500.4L353.5 504.5L327.3 507.8L301.1 510.5L274.9 512.2L248.7 512.8L222.5 514.2L196.3 516.1L170.1 517.2L143.9 518.1L117.7 519" fill="#2a939b" fill-opacity="0.7"></path><path class="World_4-border" stroke-linecap="round" d="M117.7 519.3L143.9 518.5L170.1 517.7L196.3 516.9L222.5 515.3L248.7 514.5L274.9 515.3L301.1 515.3L327.3 515.3L353.5 516.1L379.7 517.7L405.9 516.9L432.1 515.3L458.3 514.5L484.6 514.5L510.8 513.7L537 509.7L550.1 508.9L552.7 508.7L555.3 508.5L557.9 508.4L560.5 508.2L563.2 508L565.8 507.9L568.4 507.7L571 507.6L573.6 507.4L576.3 507.3L578.9 507.1L581.5 506.9L584.1 506.8L586.8 506.6L589.4 506.4L592 506.1L594.6 505.8L597.2 505.5L599.9 505.2L602.5 504.9L605.1 504.6L607.7 504.2L610.3 503.9L613 503.6L615.6 503.2L618.2 502.9L620.8 502.5L623.4 502.1L626.1 501.7L628.7 501.3L631.3 500.9L633.9 500.5L636.5 500.1L639.2 499.5L641.8 499.2L644.4 499.2L647 499.3L649.6 499.7L652.3 500.2L654.9 500.5L657.5 500.7L660.1 500.9L662.7 501.2L665.4 501.4L668 501.6L670.6 502L673.2 502.3L675.8 502.6L678.5 502.9L681.1 503.2L683.7 503.6L686.3 503.9" stroke="rgb(123, 33, 44)" stroke-opacity="0.7" stroke-width="0.5" fill="none"></path><path class="World_0-border" stroke-linecap="round" d="M117.7 519L143.9 518.1L170.1 517.2L196.3 516.1L222.5 514.2L248.7 512.8L274.9 512.2L301.1 510.5L327.3 507.9L353.5 504.9L379.7 501.1L405.9 491.9L432.1 486.9L458.3 485.2L484.6 481L510.8 477.3L537 465.1L550.1 462.3L552.7 461.6L555.3 462.2L557.9 461.3L560.5 459.7L563.2 458.8L565.8 458.9L568.4 458.2L571 456.6L573.6 456.4L576.3 455.2L578.9 453.2L581.5 451.4L584.1 450.6L586.8 447.9L589.4 446.3L592 445.1L594.6 444.1L597.2 441.9L599.9 438.8L602.5 435.9L605.1 434.8L607.7 431.7L610.3 429.2L613 428.1L615.6 428.7L618.2 429.1L620.8 429L623.4 428.3L626.1 427.4L628.7 426.7L631.3 424.4L633.9 423.9L636.5 424L639.2 423L641.8 420.2L644.4 418.9L647 415.8L649.6 408.9L652.3 403.1L654.9 396.2L657.5 391.1L660.1 385.1L662.7 383.7L665.4 385.7L668 380.6L670.6 375.1L673.2 375L675.8 372.9L678.5 373.3L681.1 376.9L683.7 379.2L686.3 378.6" stroke="rgb(108, 109, 109)" stroke-opacity="0.7" stroke-width="0.5" fill="none"></path><path class="World_2-border" stroke-linecap="round" d="M117.7 519L143.9 518.1L170.1 517.2L196.3 516.1L222.5 514.2L248.7 512.8L274.9 512.2L301.1 510.5L327.3 507.8L353.5 504.7L379.7 500.6L405.9 490.7L432.1 484.3L458.3 480.2L484.6 473.4L510.8 461.6L537 433.1L550.1 410.2L552.7 405.5L555.3 402.1L557.9 396.1L560.5 388.9L563.2 381.9L565.8 377.5L568.4 370.5L571 362L573.6 363.2L576.3 363L578.9 354.9L581.5 349.8L584.1 345.7L586.8 341.2L589.4 343.8L592 346.3L594.6 348.4L597.2 346.8L599.9 341.5L602.5 338.4L605.1 334.3L607.7 329.2L610.3 323.2L613 320.4L615.6 319.8L618.2 320.1L620.8 318.1L623.4 318.1L626.1 314.9L628.7 312.5L631.3 307.6L633.9 304L636.5 303.5L639.2 300.4L641.8 296L644.4 293.6L647 289.4L649.6 279.6L652.3 268.9L654.9 260.3L657.5 253.4L660.1 245.2L662.7 244.5L665.4 248.9L668 239.4L670.6 232.4L673.2 230.5L675.8 226.6L678.5 225.8L681.1 226.7L683.7 226.2L686.3 223.5" stroke="rgb(43, 80, 141)" stroke-opacity="0.7" stroke-width="0.5" fill="none"></path><path class="World_3-border" stroke-linecap="round" d="M117.7 519L143.9 518.1L170.1 517.2L196.3 516.1L222.5 514.2L248.7 512.8L274.9 512.2L301.1 510.5L327.3 507.8L353.5 504.6L379.7 500.4L405.9 490.3L432.1 483.6L458.3 478.4L484.6 470.8L510.8 455.5L537 420.2L550.1 392L552.7 385.6L555.3 380.8L557.9 372.8L560.5 363.4L563.2 354.2L565.8 347.8L568.4 339.2L571 329.2L573.6 329.6L576.3 329.3L578.9 319.2L581.5 313L584.1 307.4L586.8 300.5L589.4 302.7L592 304.8L594.6 306.6L597.2 304.3L599.9 295.6L602.5 291.5L605.1 286.9L607.7 279.3L610.3 271L613 265.8L615.6 263.5L618.2 262.5L620.8 260.2L623.4 259.6L626.1 256L628.7 251.6L631.3 243.7L633.9 240.3L636.5 238.6L639.2 233.7L641.8 226.7L644.4 223.3L647 217L649.6 205.3L652.3 191.7L654.9 180.8L657.5 171.6L660.1 159.9L662.7 157L665.4 163.8L668 147.8L670.6 138.9L673.2 134.5L675.8 129.3L678.5 127.8L681.1 126.4L683.7 123.1L686.3 117.6" stroke="rgb(139, 69, 156)" stroke-opacity="0.7" stroke-width="0.5" fill="none"></path><path class="World_6-border" stroke-linecap="round" d="M117.7 519L143.9 518.1L170.1 517.2L196.3 516.1L222.5 514.2L248.7 512.8L274.9 512.2L301.1 510.5L327.3 507.8L353.5 504.5L379.7 500.4L405.9 490.2L432.1 483.5L458.3 478.1L484.6 470.3L510.8 454.6L537 418.2L550.1 389.3L552.7 382.8L555.3 377.9L557.9 369.8L560.5 360.1L563.2 350.8L565.8 344.2L568.4 335.5L571 325.5L573.6 325.5L576.3 325.2L578.9 315.1L581.5 308.7L584.1 302.8L586.8 295.7L589.4 297.8L592 299.8L594.6 301.4L597.2 298.9L599.9 290L602.5 285.8L605.1 281.1L607.7 273.4L610.3 265L613 259.8L615.6 257.3L618.2 256.1L620.8 253.8L623.4 252.8L626.1 249.2L628.7 244.4L631.3 236.4L633.9 232.9L636.5 231.2L639.2 226.2L641.8 219L644.4 215.8L647 209.4L649.6 197.7L652.3 183.6L654.9 172.4L657.5 162.8L660.1 151L662.7 147.6L665.4 154.4L668 137.8L670.6 128.8L673.2 123.9L675.8 118.4L678.5 116.6L681.1 115.2L683.7 111.5L686.3 105.9" stroke="rgb(105, 166, 172)" stroke-opacity="0.7" stroke-width="0.5" fill="none"></path><path class="World_7-border" stroke-linecap="round" d="M117.7 519L143.9 518.1L170.1 517.2L196.3 516.1L222.5 514.2L248.7 512.8L274.9 512.2L301.1 510.5L327.3 507.8L353.5 504.5L379.7 500.4L405.9 490.2L432.1 483.5L458.3 478.1L484.6 470.3L510.8 454.6L537 418.2L550.1 389.2L552.7 382.7L555.3 377.7L557.9 369.6L560.5 359.9L563.2 350.6L565.8 343.9L568.4 335L571 324.9L573.6 324.7L576.3 324.1L578.9 313.8L581.5 307.2L584.1 301L586.8 293.8L589.4 295.8L592 297.4L594.6 298.8L597.2 295.9L599.9 286.4L602.5 281.5L605.1 276.5L607.7 268.4L610.3 259.5L613 254.2L615.6 251.5L618.2 250L620.8 247.7L623.4 246.5L626.1 242.7L628.7 237.7L631.3 229.5L633.9 226L636.5 224.1L639.2 218.9L641.8 211.6L644.4 208.1L647 201.6L649.6 190.1L652.3 175.7L654.9 164.4L657.5 154.7L660.1 143.1L662.7 139.7L665.4 146.7L668 129.9L670.6 121.2L673.2 116.8L675.8 111.2L678.5 109.2L681.1 107.8L683.7 103.9L686.3 98.3" stroke="rgb(169, 32, 33)" stroke-opacity="0.7" stroke-width="0.5" fill="none"></path><path class="World_8-border" stroke-linecap="round" d="M117.7 519L143.9 518.1L170.1 517.2L196.3 516.1L222.5 514.2L248.7 512.8L274.9 512.2L301.1 510.5L327.3 507.8L353.5 504.5L379.7 500.4L405.9 490.2L432.1 483.5L458.3 478.1L484.6 470.3L510.8 454.6L537 418.2L550.1 389.2L552.7 382.7L555.3 377.7L557.9 369.6L560.5 359.9L563.2 350.6L565.8 343.9L568.4 335L571 324.9L573.6 324.7L576.3 324.1L578.9 313.8L581.5 307.2L584.1 301L586.8 293.8L589.4 295.8L592 297.4L594.6 298.8L597.2 295.9L599.9 286.4L602.5 281.5L605.1 276.5L607.7 268.4L610.3 259.5L613 254.2L615.6 251.5L618.2 250L620.8 247.7L623.4 246.5L626.1 242.7L628.7 237.7L631.3 229.4L633.9 225.9L636.5 224.1L639.2 218.8L641.8 211.5L644.4 208L647 201.5L649.6 189.9L652.3 175.4L654.9 164.1L657.5 154.4L660.1 142.6L662.7 139L665.4 145.9L668 128.9L670.6 119.9L673.2 115.2L675.8 109.3L678.5 107.2L681.1 105.4L683.7 101.2L686.3 95.1" stroke="rgb(79, 153, 105)" stroke-opacity="0.7" stroke-width="0.5" fill="none"></path><path class="World_1-border" stroke-linecap="round" d="M117.7 519L143.9 518.1L170.1 517.2L196.3 516.1L222.5 514.2L248.7 512.8L274.9 512.2L301.1 510.5L327.3 507.8L353.5 504.5L379.7 500.4L405.9 490.2L432.1 483.5L458.3 478.1L484.6 470.3L510.8 454.6L537 418.2L550.1 389.2L552.7 382.7L555.3 377.7L557.9 369.6L560.5 359.9L563.2 350.6L565.8 343.9L568.4 335L571 324.9L573.6 324.7L576.3 324.1L578.9 313.8L581.5 307.2L584.1 301L586.8 293.8L589.4 295.8L592 297.4L594.6 298.8L597.2 295.9L599.9 286.4L602.5 281.5L605.1 276.5L607.7 268.4L610.3 259.5L613 254.2L615.6 251.5L618.2 250L620.8 247.7L623.4 246.5L626.1 242.7L628.7 237.7L631.3 229.4L633.9 225.9L636.5 224.1L639.2 218.8L641.8 211.5L644.4 208L647 201.5L649.6 189.9L652.3 175.4L654.9 164.1L657.5 154.3L660.1 142.6L662.7 139L665.4 145.8L668 128.8L670.6 119.7L673.2 115L675.8 108.9L678.5 106.6L681.1 104.6L683.7 100.2L686.3 93.8" stroke="rgb(213, 178, 52)" stroke-opacity="0.7" stroke-width="0.5" fill="none"></path><path class="World_5-border" stroke-linecap="round" d="M117.7 519L143.9 518.1L170.1 517.2L196.3 516.1L222.5 514.2L248.7 512.8L274.9 512.2L301.1 510.5L327.3 507.8L353.5 504.5L379.7 500.4L405.9 490.2L432.1 483.5L458.3 478.1L484.6 470.3L510.8 454.6L537 418.2L550.1 389.2L552.7 382.6L555.3 377.7L557.9 369.6L560.5 359.9L563.2 350.5L565.8 343.8L568.4 335L571 324.8L573.6 324.6L576.3 324L578.9 313.7L581.5 307.1L584.1 300.9L586.8 293.7L589.4 295.6L592 297.3L594.6 298.6L597.2 295.7L599.9 286.1L602.5 281.2L605.1 276.3L607.7 268.1L610.3 259.2L613 253.9L615.6 251.2L618.2 249.7L620.8 247.3L623.4 246.1L626.1 242.3L628.7 237.2L631.3 229L633.9 225.5L636.5 223.6L639.2 218.3L641.8 210.9L644.4 207.5L647 200.9L649.6 189.2L652.3 174.7L654.9 163.4L657.5 153.6L660.1 141.7L662.7 138.1L665.4 144.8L668 127.7L670.6 118.6L673.2 113.7L675.8 107.6L678.5 105.1L681.1 103.1L683.7 98.6L686.3 92.1" stroke="rgb(35, 123, 130)" stroke-opacity="0.7" stroke-width="0.5" fill="none"></path></g></g></g><g class="SourcesFooter" style="fill:#777"><g class="clickable" style="fill:#777"><text font-size="12.60" x="15.0" y="581.6"><tspan x="15" y="581.58">Source: Vaclav Smil (2017) and BP Statistical Review of World Energy</tspan></text></g><text font-size="12.60" x="775.4" y="581.6"><tspan x="775.402" y="581.58"><a style="fill: #777;" class="cclogo" href="http://creativecommons.org/licenses/by-sa/4.0/deed.en_US" target="_blank">CC BY-SA</a></tspan></text></g></g></svg>