<svg xmlns="http://www.w3.org/2000/svg" version="1.1" style="font-family:&#x27;Helvetica Neue&#x27;, Helvetica, Arial, sans-serif;font-size:18px;background-color:white;text-rendering:optimizeLegibility;-webkit-font-smoothing:antialiased" width="850" height="600"><g class="ChartTab"><g class="HeaderView"><g opacity="0.8" transform="translate(778, 15) scale(0.27)"><a xmlns:xlink="http://www.w3.org/1999/xlink" xlink:href="https://ourworldindata.org" target="_blank"><g><rect x="0" y="0" fill="#1B2543" width="211.2" height="130.1"/><rect x="0" y="112.2" fill="#E63912" width="211.2" height="17.9"/><g><rect x="1.2" y="12.3" fill="none" width="210.2" height="99.2"/><path fill="#FFFFFF" d="M37.8,32.2c0,12.7-7.7,19.4-17.1,19.4c-9.7,0-16.6-7.5-16.6-18.7c0-11.7,7.3-19.3,17.1-19.3 C31.3,13.7,37.8,21.3,37.8,32.2z M9.2,32.8c0,7.9,4.3,14.9,11.8,14.9c7.5,0,11.8-6.9,11.8-15.3c0-7.3-3.8-14.9-11.8-14.9 C13.1,17.5,9.2,24.8,9.2,32.8z"/><path fill="#FFFFFF" d="M62.7,43.8c0,2.7,0.1,5.1,0.2,7.2h-4.3l-0.3-4.3h-0.1c-1.3,2.1-4,4.9-8.8,4.9c-4.2,0-9.1-2.3-9.1-11.6 V24.6h4.8v14.6c0,5,1.5,8.4,5.9,8.4c3.2,0,5.5-2.2,6.3-4.4c0.3-0.7,0.4-1.6,0.4-2.5V24.6h4.8V43.8z"/><path fill="#FFFFFF" d="M67.3,32.8c0-3.1-0.1-5.8-0.2-8.2h4.2l0.2,5.2h0.2c1.2-3.5,4.1-5.8,7.3-5.8c0.5,0,0.9,0.1,1.4,0.2v4.5 c-0.5-0.1-1-0.2-1.6-0.2c-3.4,0-5.8,2.6-6.5,6.2c-0.1,0.7-0.2,1.4-0.2,2.2V51h-4.8V32.8z"/><path fill="#FFFFFF" d="M95.4,51l-9.4-36.8h5l4.4,18.6c1.1,4.6,2.1,9.2,2.7,12.7h0.1c0.6-3.7,1.8-8,3-12.8l4.9-18.5h5l4.5,18.7 c1,4.4,2,8.7,2.6,12.6h0.1c0.8-4,1.8-8.1,3-12.7l4.9-18.5h4.9L120.6,51h-5L111,31.9c-1.1-4.7-1.9-8.3-2.4-12h-0.1 c-0.7,3.7-1.5,7.3-2.8,12L100.4,51H95.4z"/><path fill="#FFFFFF" d="M154.9,37.6c0,9.8-6.8,14-13.2,14c-7.2,0-12.7-5.2-12.7-13.6c0-8.8,5.8-14,13.1-14 C149.8,24,154.9,29.5,154.9,37.6z M133.9,37.9c0,5.8,3.3,10.1,8,10.1c4.6,0,8-4.3,8-10.3c0-4.5-2.2-10.1-7.9-10.1 C136.3,27.6,133.9,32.8,133.9,37.9z"/><path fill="#FFFFFF" d="M158.2,32.8c0-3.1-0.1-5.8-0.2-8.2h4.2l0.2,5.2h0.2c1.2-3.5,4.1-5.8,7.3-5.8c0.5,0,0.9,0.1,1.4,0.2v4.5 c-0.5-0.1-1-0.2-1.6-0.2c-3.4,0-5.8,2.6-6.5,6.2c-0.1,0.7-0.2,1.4-0.2,2.2V51h-4.8V32.8z"/><path fill="#FFFFFF" d="M173.5,12.3h4.8V51h-4.8V12.3z"/><path fill="#FFFFFF" d="M206.5,12.3v31.9c0,2.3,0.1,5,0.2,6.8h-4.3l-0.2-4.6H202c-1.5,2.9-4.7,5.2-9,5.2 c-6.4,0-11.3-5.4-11.3-13.4c-0.1-8.8,5.4-14.2,11.9-14.2c4,0,6.8,1.9,8,4h0.1V12.3H206.5z M201.7,35.4c0-0.6-0.1-1.4-0.2-2 c-0.7-3.1-3.3-5.6-6.9-5.6c-5,0-7.9,4.4-7.9,10.2c0,5.3,2.6,9.8,7.8,9.8c3.2,0,6.2-2.1,7.1-5.7c0.2-0.7,0.2-1.3,0.2-2.1V35.4z"/><path fill="#FFFFFF" d="M42.8,64c0.1,1.6-1.1,2.9-3.1,2.9c-1.7,0-2.9-1.3-2.9-2.9c0-1.7,1.3-3,3-3C41.7,61,42.8,62.3,42.8,64z M37.4,97.8V71.4h4.8v26.4H37.4z"/><path fill="#FFFFFF" d="M47.5,78.6c0-2.7-0.1-5-0.2-7.1h4.3l0.3,4.4h0.1c1.3-2.5,4.4-5,8.8-5c3.7,0,9.4,2.2,9.4,11.2v15.8h-4.8 V82.6c0-4.3-1.6-7.8-6.1-7.8c-3.2,0-5.6,2.2-6.5,4.9c-0.2,0.6-0.3,1.4-0.3,2.2v15.9h-4.8V78.6z"/><path fill="#FFFFFF" d="M84,61.6c2.9-0.4,6.3-0.8,10.1-0.8c6.8,0,11.7,1.6,14.9,4.6c3.3,3,5.2,7.3,5.2,13.2c0,6-1.9,10.9-5.3,14.3 c-3.4,3.4-9.1,5.3-16.3,5.3c-3.4,0-6.2-0.2-8.6-0.4V61.6z M88.8,94.1c1.2,0.2,3,0.3,4.8,0.3c10.2,0,15.7-5.7,15.7-15.6 c0.1-8.7-4.9-14.2-14.9-14.2c-2.5,0-4.3,0.2-5.6,0.5V94.1z"/><path fill="#FFFFFF" d="M132.1,97.8l-0.4-3.3h-0.2c-1.5,2.1-4.3,3.9-8.1,3.9c-5.4,0-8.1-3.8-8.1-7.6c0-6.4,5.7-9.9,15.9-9.8v-0.5 c0-2.2-0.6-6.1-6-6.1c-2.5,0-5,0.8-6.9,2l-1.1-3.2c2.2-1.4,5.4-2.3,8.7-2.3c8.1,0,10.1,5.5,10.1,10.8v9.9c0,2.3,0.1,4.5,0.4,6.3 H132.1z M131.4,84.4c-5.3-0.1-11.2,0.8-11.2,5.9c0,3.1,2.1,4.6,4.5,4.6c3.4,0,5.6-2.2,6.4-4.4c0.2-0.5,0.3-1,0.3-1.5V84.4z"/><path fill="#FFFFFF" d="M146.6,63.9v7.6h6.9v3.7h-6.9v14.2c0,3.3,0.9,5.1,3.6,5.1c1.3,0,2.2-0.2,2.8-0.3l0.2,3.6 c-0.9,0.4-2.4,0.7-4.3,0.7c-2.2,0-4-0.7-5.2-2c-1.4-1.4-1.9-3.8-1.9-6.9V75.1h-4.1v-3.7h4.1v-6.3L146.6,63.9z"/><path fill="#FFFFFF" d="M171.4,97.8l-0.4-3.3h-0.2c-1.5,2.1-4.3,3.9-8.1,3.9c-5.4,0-8.1-3.8-8.1-7.6c0-6.4,5.7-9.9,15.9-9.8v-0.5 c0-2.2-0.6-6.1-6-6.1c-2.5,0-5,0.8-6.9,2l-1.1-3.2c2.2-1.4,5.4-2.3,8.7-2.3c8.1,0,10.1,5.5,10.1,10.8v9.9c0,2.3,0.1,4.5,0.4,6.3 H171.4z M170.7,84.4c-5.3-0.1-11.2,0.8-11.2,5.9c0,3.1,2.1,4.6,4.5,4.6c3.4,0,5.6-2.2,6.4-4.4c0.2-0.5,0.3-1,0.3-1.5V84.4z"/></g></g></a></g><a href="https://ourworldindata.org/grapher/global-hunger-index-in-2017-vs-population-growth-1992-2015-un-population-division" target="_blank"><text font-size="21.60" x="15.0" y="32.3" fill="#555"><tspan x="15" y="32.279999999999994">Global Hunger Index in 2017 vs. Population growth 1992-2015 (UN</tspan><tspan x="15" y="53.87999999999999">Population Division)</tspan></text></a></g><g><g class="AxisBoxView"><g class="HorizontalAxis"><text font-size="12.60" x="211.8" y="554.0"><tspan x="211.784" y="553.98">Population growth 1992-2015 (UN Population Division)</tspan></text><text x="82" y="533.9" fill="#666" text-anchor="middle" font-size="16.2">-20%</text><text x="160.5" y="533.9" fill="#666" text-anchor="middle" font-size="16.2">0%</text><text x="239" y="533.9" fill="#666" text-anchor="middle" font-size="16.2">20%</text><text x="317.5" y="533.9" fill="#666" text-anchor="middle" font-size="16.2">40%</text><text x="396" y="533.9" fill="#666" text-anchor="middle" font-size="16.2">60%</text><text x="474.4" y="533.9" fill="#666" text-anchor="middle" font-size="16.2">80%</text><text x="552.9" y="533.9" fill="#666" text-anchor="middle" font-size="16.2">100%</text><text x="631.4" y="533.9" fill="#666" text-anchor="middle" font-size="16.2">120%</text><text x="709.9" y="533.9" fill="#666" text-anchor="middle" font-size="16.2">140%</text></g><g class="VerticalAxis"><text font-size="12.60" x="-478.7" y="25.1" transform="rotate(-90)"><tspan x="-478.698" y="25.080000000000002">Global Hunger Index in 2017 (Global Hunger Index 2017)</tspan></text><text x="55.74" y="512.7" fill="#666" dominant-baseline="middle" text-anchor="end" font-size="16.2">0</text><text x="55.74" y="427.7" fill="#666" dominant-baseline="middle" text-anchor="end" font-size="16.2">10</text><text x="55.74" y="342.7" fill="#666" dominant-baseline="middle" text-anchor="end" font-size="16.2">20</text><text x="55.74" y="257.7" fill="#666" dominant-baseline="middle" text-anchor="end" font-size="16.2">30</text><text x="55.74" y="172.7" fill="#666" dominant-baseline="middle" text-anchor="end" font-size="16.2">40</text><text x="55.74" y="87.7" fill="#666" dominant-baseline="middle" text-anchor="end" font-size="16.2">50</text></g><g class="AxisGridLines"><line x1="60.74" y1="512.7" x2="715.00" y2="512.7" stroke="#ccc"></line><line x1="60.74" y1="427.7" x2="715.00" y2="427.7" stroke="#ddd" stroke-dasharray="3,2"></line><line x1="60.74" y1="342.7" x2="715.00" y2="342.7" stroke="#ddd" stroke-dasharray="3,2"></line><line x1="60.74" y1="257.7" x2="715.00" y2="257.7" stroke="#ddd" stroke-dasharray="3,2"></line><line x1="60.74" y1="172.7" x2="715.00" y2="172.7" stroke="#ddd" stroke-dasharray="3,2"></line><line x1="60.74" y1="87.7" x2="715.00" y2="87.7" stroke="#ddd" stroke-dasharray="3,2"></line></g><g class="AxisGridLines"><line x1="82" y1="512.70" x2="82" y2="80.10" stroke="#ddd" stroke-dasharray="3,2"></line><line x1="160.5" y1="512.70" x2="160.5" y2="80.10" stroke="#ccc"></line><line x1="239" y1="512.70" x2="239" y2="80.10" stroke="#ddd" stroke-dasharray="3,2"></line><line x1="317.5" y1="512.70" x2="317.5" y2="80.10" stroke="#ddd" stroke-dasharray="3,2"></line><line x1="396" y1="512.70" x2="396" y2="80.10" stroke="#ddd" stroke-dasharray="3,2"></line><line x1="474.4" y1="512.70" x2="474.4" y2="80.10" stroke="#ddd" stroke-dasharray="3,2"></line><line x1="552.9" y1="512.70" x2="552.9" y2="80.10" stroke="#ddd" stroke-dasharray="3,2"></line><line x1="631.4" y1="512.70" x2="631.4" y2="80.10" stroke="#ddd" stroke-dasharray="3,2"></line><line x1="709.9" y1="512.70" x2="709.9" y2="80.10" stroke="#ddd" stroke-dasharray="3,2"></line></g></g><g class="PointsWithLabels clickable" clip-path="url(#scatterBounds-695)" font-family="Arial Narrow, Arial, sans-serif"><rect x="60.744" y="80.1" width="654.256" height="432.59999999999997" fill="rgba(255,255,255,0)"></rect><defs><clipPath id="scatterBounds-695"><rect x="50.744" y="70.1" width="674.256" height="452.59999999999997"></rect></clipPath></defs><g class="key-China_0"><circle cx="223.00" cy="449.00" r="17.84" fill="#d14e5b" opacity="0.8" stroke="#333" stroke-width="0.7"></circle></g><g class="key-India_0"><circle cx="335.00" cy="245.00" r="17.29" fill="#d14e5b" opacity="0.8" stroke="#333" stroke-width="0.7"></circle></g><g class="key-Indonesia_0"><circle cx="307.00" cy="325.00" r="7.77" fill="#d14e5b" opacity="0.8" stroke="#333" stroke-width="0.7"></circle></g><g class="key-Brazil_0"><circle cx="291.00" cy="466.00" r="7.03" fill="#69c487" opacity="0.8" stroke="#333" stroke-width="0.7"></circle></g><g class="key-Pakistan_0"><circle cx="421.00" cy="235.00" r="6.75" fill="#d14e5b" opacity="0.8" stroke="#333" stroke-width="0.7"></circle></g><g class="key-Nigeria_0"><circle cx="477.00" cy="296.00" r="6.53" fill="#5675c1" opacity="0.8" stroke="#333" stroke-width="0.7"></circle></g><g class="key-Bangladesh_0"><circle cx="336.00" cy="287.00" r="6.23" fill="#d14e5b" opacity="0.8" stroke="#333" stroke-width="0.7"></circle></g><g class="key-Russia_0"><circle cx="148.00" cy="460.00" r="6.01" fill="#ffd336" opacity="0.8" stroke="#333" stroke-width="0.7"></circle></g><g class="key-Mexico_0"><circle cx="324.00" cy="457.00" r="5.50" fill="#4d824b" opacity="0.8" stroke="#333" stroke-width="0.7"></circle></g><g class="key-Philippines_0"><circle cx="381.00" cy="342.00" r="5.08" fill="#d14e5b" opacity="0.8" stroke="#333" stroke-width="0.7"></circle></g><g class="key-Vietnam_0"><circle cx="284.00" cy="376.00" r="4.91" fill="#d14e5b" opacity="0.8" stroke="#333" stroke-width="0.7"></circle></g><g class="key-Ethiopia_0"><circle cx="526.00" cy="238.00" r="4.85" fill="#5675c1" opacity="0.8" stroke="#333" stroke-width="0.7"></circle></g><g class="key-Egypt_0"><circle cx="381.00" cy="387.00" r="4.78" fill="#5675c1" opacity="0.8" stroke="#333" stroke-width="0.7"></circle></g><g class="key-Iran_0"><circle cx="302.00" cy="448.00" r="4.56" fill="#d14e5b" opacity="0.8" stroke="#333" stroke-width="0.7"></circle></g><g class="key-Turkey_0"><circle cx="319.00" cy="491.00" r="4.53" fill="#d14e5b" opacity="0.8" stroke="#333" stroke-width="0.7"></circle></g><g class="key-Thailand_0"><circle cx="233.00" cy="422.00" r="4.40" fill="#d14e5b" opacity="0.8" stroke="#fff" stroke-width="0.7"></circle></g><g class="key-South-Africa_0"><circle cx="319.00" cy="400.00" r="3.86" fill="#5675c1" opacity="0.8" stroke="#333" stroke-width="0.7"></circle></g><g class="key-Tanzania_0"><circle cx="544.00" cy="267.00" r="3.80" fill="#5675c1" opacity="0.8" stroke="#333" stroke-width="0.7"></circle></g><g class="key-Myanmar_0"><circle cx="261.00" cy="320.00" r="3.80" fill="#d14e5b" opacity="0.8" stroke="#fff" stroke-width="0.7"></circle></g><g class="key-Colombia_0"><circle cx="300.00" cy="444.00" r="3.77" fill="#69c487" opacity="0.8" stroke="#fff" stroke-width="0.7"></circle></g><g class="key-Ukraine_0"><circle cx="108.00" cy="491.00" r="3.66" fill="#ffd336" opacity="0.8" stroke="#333" stroke-width="0.7"></circle></g><g class="key-Kenya_0"><circle cx="510.00" cy="334.00" r="3.64" fill="#5675c1" opacity="0.8" stroke="#333" stroke-width="0.7"></circle></g><g class="key-Argentina_0"><circle cx="274.00" cy="466.00" r="3.56" fill="#69c487" opacity="0.8" stroke="#fff" stroke-width="0.7"></circle></g><g class="key-Algeria_0"><circle cx="343.00" cy="432.00" r="3.41" fill="#5675c1" opacity="0.8" stroke="#333" stroke-width="0.7"></circle></g><g class="key-Uganda_0"><circle cx="612.00" cy="240.00" r="3.40" fill="#5675c1" opacity="0.8" stroke="#333" stroke-width="0.7"></circle></g><g class="key-Sudan_0"><circle cx="466.00" cy="211.00" r="3.38" fill="#5675c1" opacity="0.8" stroke="#333" stroke-width="0.7"></circle></g><g class="key-Iraq_0"><circle cx="535.00" cy="318.00" r="3.34" fill="#d14e5b" opacity="0.8" stroke="#333" stroke-width="0.7"></circle></g><g class="key-Afghanistan_0"><circle cx="715.00" cy="229.00" r="3.33" fill="#d14e5b" opacity="0.8" stroke="#333" stroke-width="0.7"></circle></g><g class="key-Morocco_0"><circle cx="297.00" cy="426.00" r="3.27" fill="#5675c1" opacity="0.8" stroke="#333" stroke-width="0.7"></circle></g><g class="key-Nepal_0"><circle cx="336.00" cy="325.00" r="3.22" fill="#d14e5b" opacity="0.8" stroke="#fff" stroke-width="0.7"></circle></g><g class="key-Venezuela_0"><circle cx="355.00" cy="402.00" r="3.18" fill="#69c487" opacity="0.8" stroke="#fff" stroke-width="0.7"></circle></g><g class="key-Peru_0"><circle cx="309.00" cy="438.00" r="3.17" fill="#69c487" opacity="0.8" stroke="#fff" stroke-width="0.7"></circle></g><g class="key-Malaysia_0"><circle cx="402.00" cy="426.00" r="3.16" fill="#d14e5b" opacity="0.8" stroke="#333" stroke-width="0.7"></circle></g><g class="key-Saudi-Arabia_0"><circle cx="480.00" cy="452.00" r="3.14" fill="#d14e5b" opacity="0.8" stroke="#333" stroke-width="0.7"></circle></g><g class="key-Uzbekistan_0"><circle cx="334.00" cy="401.00" r="3.11" fill="#d14e5b" opacity="0.8" stroke="#fff" stroke-width="0.7"></circle></g><g class="key-Ghana_0"><circle cx="468.00" cy="375.00" r="3.02" fill="#5675c1" opacity="0.8" stroke="#333" stroke-width="0.7"></circle></g><g class="key-Mozambique_0"><circle cx="549.00" cy="253.00" r="2.98" fill="#5675c1" opacity="0.8" stroke="#333" stroke-width="0.7"></circle></g><g class="key-North-Korea_0"><circle cx="241.00" cy="273.00" r="2.96" fill="#d14e5b" opacity="0.8" stroke="#333" stroke-width="0.7"></circle></g><g class="key-Madagascar_0"><circle cx="541.00" cy="187.00" r="2.88" fill="#5675c1" opacity="0.8" stroke="#333" stroke-width="0.7"></circle></g><g class="key-Sri-Lanka_0"><circle cx="226.00" cy="296.00" r="2.83" fill="#d14e5b" opacity="0.8" stroke="#333" stroke-width="0.7"></circle></g><g class="key-Romania_0"><circle cx="101.00" cy="468.00" r="2.83" fill="#ffd336" opacity="0.8" stroke="#333" stroke-width="0.7"></circle></g><g class="key-Cote-d__0027Ivoire_0"><circle cx="457.00" cy="287.00" r="2.82" fill="#5675c1" opacity="0.8" stroke="#fff" stroke-width="0.7"></circle></g><g class="key-Cameroon_0"><circle cx="490.00" cy="324.00" r="2.81" fill="#5675c1" opacity="0.8" stroke="#fff" stroke-width="0.7"></circle></g><g class="key-Angola_0"><circle cx="611.00" cy="236.00" r="2.80" fill="#5675c1" opacity="0.8" stroke="#fff" stroke-width="0.7"></circle></g><g class="key-Burkina-Faso_0"><circle cx="532.00" cy="278.00" r="2.69" fill="#5675c1" opacity="0.8" stroke="#333" stroke-width="0.7"></circle></g><g class="key-Chile_0"><circle cx="277.00" cy="491.00" r="2.67" fill="#69c487" opacity="0.8" stroke="#333" stroke-width="0.7"></circle></g><g class="key-Niger_0"><circle cx="681.00" cy="219.00" r="2.66" fill="#5675c1" opacity="0.8" stroke="#fff" stroke-width="0.7"></circle></g><g class="key-Mali_0"><circle cx="541.00" cy="269.00" r="2.64" fill="#5675c1" opacity="0.8" stroke="#fff" stroke-width="0.7"></circle></g><g class="key-Kazakhstan_0"><circle cx="190.00" cy="463.00" r="2.63" fill="#d14e5b" opacity="0.8" stroke="#333" stroke-width="0.7"></circle></g><g class="key-Malawi_0"><circle cx="476.00" cy="281.00" r="2.62" fill="#5675c1" opacity="0.8" stroke="#fff" stroke-width="0.7"></circle></g><g class="key-Guatemala_0"><circle cx="425.00" cy="336.00" r="2.58" fill="#4d824b" opacity="0.8" stroke="#fff" stroke-width="0.7"></circle></g><g class="key-Ecuador_0"><circle cx="359.00" cy="390.00" r="2.56" fill="#69c487" opacity="0.8" stroke="#fff" stroke-width="0.7"></circle></g><g class="key-Cambodia_0"><circle cx="401.00" cy="324.00" r="2.54" fill="#d14e5b" opacity="0.8" stroke="#333" stroke-width="0.7"></circle></g><g class="key-Zambia_0"><circle cx="515.00" cy="188.00" r="2.53" fill="#5675c1" opacity="0.8" stroke="#fff" stroke-width="0.7"></circle></g><g class="key-Senegal_0"><circle cx="500.00" cy="356.00" r="2.49" fill="#5675c1" opacity="0.8" stroke="#333" stroke-width="0.7"></circle></g><g class="key-Zimbabwe_0"><circle cx="347.00" cy="225.00" r="2.48" fill="#5675c1" opacity="0.8" stroke="#fff" stroke-width="0.7"></circle></g><g class="key-Chad_0"><circle cx="634.00" cy="143.00" r="2.42" fill="#5675c1" opacity="0.8" stroke="#333" stroke-width="0.7"></circle></g><g class="key-Rwanda_0"><circle cx="449.00" cy="245.00" r="2.40" fill="#5675c1" opacity="0.8" stroke="#333" stroke-width="0.7"></circle></g><g class="key-Cuba_0"><circle cx="187.00" cy="491.00" r="2.38" fill="#4d824b" opacity="0.8" stroke="#333" stroke-width="0.7"></circle></g><g class="key-Tunisia_0"><circle cx="282.00" cy="449.00" r="2.36" fill="#5675c1" opacity="0.8" stroke="#fff" stroke-width="0.7"></circle></g><g class="key-Guinea_0"><circle cx="470.00" cy="269.00" r="2.36" fill="#5675c1" opacity="0.8" stroke="#333" stroke-width="0.7"></circle></g><g class="key-Bolivia_0"><circle cx="358.00" cy="366.00" r="2.34" fill="#69c487" opacity="0.8" stroke="#333" stroke-width="0.7"></circle></g><g class="key-Haiti_0"><circle cx="337.00" cy="222.00" r="2.34" fill="#4d824b" opacity="0.8" stroke="#fff" stroke-width="0.7"></circle></g><g class="key-Dominican-Republic_0"><circle cx="321.00" cy="414.00" r="2.33" fill="#4d824b" opacity="0.8" stroke="#fff" stroke-width="0.7"></circle></g><g class="key-Benin_0"><circle cx="546.00" cy="305.00" r="2.30" fill="#5675c1" opacity="0.8" stroke="#333" stroke-width="0.7"></circle></g><g class="key-Azerbaijan_0"><circle cx="273.00" cy="431.00" r="2.30" fill="#d14e5b" opacity="0.8" stroke="#fff" stroke-width="0.7"></circle></g><g class="key-Belarus_0"><circle cx="132.00" cy="491.00" r="2.29" fill="#ffd336" opacity="0.8" stroke="#fff" stroke-width="0.7"></circle></g><g class="key-Honduras_0"><circle cx="438.00" cy="391.00" r="2.22" fill="#4d824b" opacity="0.8" stroke="#333" stroke-width="0.7"></circle></g><g class="key-Bulgaria_0"><circle cx="92.00" cy="466.00" r="2.18" fill="#ffd336" opacity="0.8" stroke="#fff" stroke-width="0.7"></circle></g><g class="key-Tajikistan_0"><circle cx="377.00" cy="268.00" r="2.17" fill="#d14e5b" opacity="0.8" stroke="#333" stroke-width="0.7"></circle></g><g class="key-Paraguay_0"><circle cx="355.00" cy="419.00" r="2.15" fill="#69c487" opacity="0.8" stroke="#fff" stroke-width="0.7"></circle></g><g class="key-Jordan_0"><circle cx="673.00" cy="455.00" r="2.14" fill="#d14e5b" opacity="0.8" stroke="#333" stroke-width="0.7"></circle></g><g class="key-Laos_0"><circle cx="348.00" cy="279.00" r="2.13" fill="#d14e5b" opacity="0.8" stroke="#fff" stroke-width="0.7"></circle></g><g class="key-Togo_0"><circle cx="500.00" cy="321.00" r="2.13" fill="#5675c1" opacity="0.8" stroke="#333" stroke-width="0.7"></circle></g><g class="key-El-Salvador_0"><circle cx="226.00" cy="418.00" r="2.13" fill="#4d824b" opacity="0.8" stroke="#333" stroke-width="0.7"></circle></g><g class="key-Sierra-Leone_0"><circle cx="423.00" cy="185.00" r="2.12" fill="#5675c1" opacity="0.8" stroke="#333" stroke-width="0.7"></circle></g><g class="key-Nicaragua_0"><circle cx="319.00" cy="397.00" r="2.11" fill="#4d824b" opacity="0.8" stroke="#fff" stroke-width="0.7"></circle></g><g class="key-Kyrgyzstan_0"><circle cx="284.00" cy="433.00" r="2.08" fill="#d14e5b" opacity="0.8" stroke="#fff" stroke-width="0.7"></circle></g><g class="key-Slovakia_0"><circle cx="168.00" cy="491.00" r="2.08" fill="#ffd336" opacity="0.8" stroke="#fff" stroke-width="0.7"></circle></g><g class="key-Turkmenistan_0"><circle cx="328.00" cy="409.00" r="2.07" fill="#d14e5b" opacity="0.8" stroke="#fff" stroke-width="0.7"></circle></g><g class="key-Costa-Rica_0"><circle cx="347.00" cy="467.00" r="2.05" fill="#4d824b" opacity="0.8" stroke="#333" stroke-width="0.7"></circle></g><g class="key-Central-African-Republic_0"><circle cx="344.00" cy="80.00" r="2.03" fill="#5675c1" opacity="0.8" stroke="#333" stroke-width="0.7"></circle></g><g class="key-Croatia_0"><circle cx="119.00" cy="491.00" r="2.02" fill="#ffd336" opacity="0.8" stroke="#fff" stroke-width="0.7"></circle></g><g class="key-Liberia_0"><circle cx="641.00" cy="212.00" r="2.02" fill="#5675c1" opacity="0.8" stroke="#333" stroke-width="0.7"></circle></g><g class="key-Congo_0"><circle cx="528.00" cy="295.00" r="2.02" fill="#5675c1" opacity="0.8" stroke="#fff" stroke-width="0.7"></circle></g><g class="key-Lebanon_0"><circle cx="581.00" cy="443.00" r="2.02" fill="#d14e5b" opacity="0.8" stroke="#333" stroke-width="0.7"></circle></g><g class="key-Georgia_0"><circle cx="60.00" cy="447.00" r="2.01" fill="#d14e5b" opacity="0.8" stroke="#333" stroke-width="0.7"></circle></g><g class="key-Bosnia-and-Herzegovina_0"><circle cx="95.00" cy="491.00" r="1.98" fill="#ffd336" opacity="0.8" stroke="#fff" stroke-width="0.7"></circle></g><g class="key-Mauritania_0"><circle cx="534.00" cy="298.00" r="1.98" fill="#5675c1" opacity="0.8" stroke="#fff" stroke-width="0.7"></circle></g><g class="key-Panama_0"><circle cx="372.00" cy="434.00" r="1.98" fill="#4d824b" opacity="0.8" stroke="#fff" stroke-width="0.7"></circle></g><g class="key-Moldova_0"><circle cx="132.00" cy="448.00" r="1.97" fill="#ffd336" opacity="0.8" stroke="#fff" stroke-width="0.7"></circle></g><g class="key-Uruguay_0"><circle cx="194.00" cy="491.00" r="1.96" fill="#69c487" opacity="0.8" stroke="#fff" stroke-width="0.7"></circle></g><g class="key-Lithuania_0"><circle cx="80.00" cy="491.00" r="1.95" fill="#ffd336" opacity="0.8" stroke="#fff" stroke-width="0.7"></circle></g><g class="key-Albania_0"><circle cx="122.00" cy="418.00" r="1.95" fill="#ffd336" opacity="0.8" stroke="#333" stroke-width="0.7"></circle></g><g class="key-Armenia_0"><circle cx="100.00" cy="447.00" r="1.94" fill="#d14e5b" opacity="0.8" stroke="#333" stroke-width="0.7"></circle></g><g class="key-Kuwait_0"><circle cx="573.00" cy="491.00" r="1.94" fill="#d14e5b" opacity="0.8" stroke="#333" stroke-width="0.7"></circle></g><g class="key-Oman_0"><circle cx="599.00" cy="416.00" r="1.93" fill="#d14e5b" opacity="0.8" stroke="#333" stroke-width="0.7"></circle></g><g class="key-Mongolia_0"><circle cx="288.00" cy="398.00" r="1.93" fill="#d14e5b" opacity="0.8" stroke="#fff" stroke-width="0.7"></circle></g><g class="key-Jamaica_0"><circle cx="225.00" cy="444.00" r="1.92" fill="#4d824b" opacity="0.8" stroke="#fff" stroke-width="0.7"></circle></g><g class="key-Namibia_0"><circle cx="396.00" cy="294.00" r="1.90" fill="#5675c1" opacity="0.8" stroke="#333" stroke-width="0.7"></circle></g><g class="key-Lesotho_0"><circle cx="280.00" cy="307.00" r="1.89" fill="#5675c1" opacity="0.8" stroke="#333" stroke-width="0.7"></circle></g><g class="key-Latvia_0"><circle cx="66.00" cy="491.00" r="1.89" fill="#ffd336" opacity="0.8" stroke="#333" stroke-width="0.7"></circle></g><g class="key-Botswana_0"><circle cx="363.00" cy="305.00" r="1.88" fill="#5675c1" opacity="0.8" stroke="#333" stroke-width="0.7"></circle></g><g class="key-Macedonia_0"><circle cx="178.00" cy="467.00" r="1.88" fill="#ffd336" opacity="0.8" stroke="#fff" stroke-width="0.7"></circle></g><g class="key-Gambia_0"><circle cx="560.00" cy="315.00" r="1.87" fill="#5675c1" opacity="0.8" stroke="#fff" stroke-width="0.7"></circle></g><g class="key-Guinea__002dBissau_0"><circle cx="421.00" cy="252.00" r="1.85" fill="#5675c1" opacity="0.8" stroke="#fff" stroke-width="0.7"></circle></g><g class="key-Gabon_0"><circle cx="522.00" cy="395.00" r="1.85" fill="#5675c1" opacity="0.8" stroke="#333" stroke-width="0.7"></circle></g><g class="key-Trinidad-and-Tobago_0"><circle cx="199.00" cy="454.00" r="1.84" fill="#4d824b" opacity="0.8" stroke="#fff" stroke-width="0.7"></circle></g><g class="key-Estonia_0"><circle cx="107.00" cy="491.00" r="1.84" fill="#ffd336" opacity="0.8" stroke="#fff" stroke-width="0.7"></circle></g><g class="key-Mauritius_0"><circle cx="224.00" cy="399.00" r="1.83" fill="#5675c1" opacity="0.8" stroke="#333" stroke-width="0.7"></circle></g><g class="key-Swaziland_0"><circle cx="339.00" cy="332.00" r="1.83" fill="#5675c1" opacity="0.8" stroke="#fff" stroke-width="0.7"></circle></g><g class="key-Djibouti_0"><circle cx="359.00" cy="245.00" r="1.81" fill="#5675c1" opacity="0.8" stroke="#333" stroke-width="0.7"></circle></g><g class="key-Fiji_0"><circle cx="238.00" cy="443.00" r="1.81" fill="#a652ba" opacity="0.8" stroke="#fff" stroke-width="0.7"></circle></g><g class="key-Guyana_0"><circle cx="171.00" cy="396.00" r="1.80" fill="#69c487" opacity="0.8" stroke="#333" stroke-width="0.7"></circle></g><g class="key-Montenegro_0"><circle cx="167.00" cy="491.00" r="1.79" fill="#ffd336" opacity="0.8" stroke="#fff" stroke-width="0.7"></circle></g><g class="key-Suriname_0"><circle cx="281.00" cy="428.00" r="1.78" fill="#69c487" opacity="0.8" stroke="#fff" stroke-width="0.7"></circle></g><g class="key-Timor_0"><circle cx="372.00" cy="221.00" r="1.75" fill="#d14e5b" opacity="0.8" stroke="#333" stroke-width="0.7"></circle></g><g class="key-Yemen_0"><circle cx="560.00" cy="205.00" r="1.75" fill="#d14e5b" opacity="0.8" stroke="#333" stroke-width="0.7"></circle></g><g class="backgroundLabels" fill="#333"><text x="223.00" y="430.16" font-size="14.30">China</text><text x="335.00" y="226.71" font-size="14.10">India</text><text x="307.00" y="316.23" font-size="11.60">Indonesia</text><text x="291.00" y="457.97" font-size="11.48">Brazil</text><text x="421.00" y="227.25" font-size="11.44">Pakistan</text><text x="477.00" y="288.47" font-size="11.41">Nigeria</text><text x="336.00" y="279.77" font-size="11.37">Bangladesh</text><text x="148.00" y="452.99" font-size="11.34">Russia</text><text x="324.00" y="450.50" font-size="11.28">Mexico</text><text x="381.00" y="335.92" font-size="11.24">Philippines</text><text x="284.00" y="370.09" font-size="11.22">Vietnam</text><text x="526.00" y="232.15" font-size="11.21">Ethiopia</text><text x="381.00" y="381.22" font-size="11.21">Egypt</text><text x="302.00" y="442.44" font-size="11.18">Iran</text><text x="319.00" y="485.47" font-size="11.18">Turkey</text><text x="319.00" y="395.14" font-size="11.12">South Africa</text><text x="544.00" y="262.20" font-size="11.12">Tanzania</text><text x="108.00" y="486.34" font-size="11.11">Ukraine</text><text x="510.00" y="329.36" font-size="11.11">Kenya</text><text x="343.00" y="427.59" font-size="11.09">Algeria</text><text x="612.00" y="235.60" font-size="11.09">Uganda</text><text x="466.00" y="206.62" font-size="11.09">Sudan</text><text x="535.00" y="313.66" font-size="11.08">Iraq</text><text x="656.15" y="224.67" font-size="11.08">Afghanistan</text><text x="297.00" y="421.73" font-size="11.08">Morocco</text><text x="402.00" y="421.84" font-size="11.07">Malaysia</text><text x="480.00" y="447.86" font-size="11.07">Saudi Arabia</text><text x="468.00" y="370.98" font-size="11.06">Ghana</text><text x="549.00" y="249.02" font-size="11.06">Mozambique</text><text x="241.00" y="269.04" font-size="11.06">North Korea</text><text x="541.00" y="183.12" font-size="11.05">Madagascar</text><text x="226.00" y="292.17" font-size="11.05">Sri Lanka</text><text x="101.00" y="464.17" font-size="11.05">Romania</text><text x="532.00" y="274.31" font-size="11.04">Burkina Faso</text><text x="277.00" y="487.33" font-size="11.04">Chile</text><text x="190.00" y="459.37" font-size="11.04">Kazakhstan</text><text x="401.00" y="320.46" font-size="11.03">Cambodia</text><text x="500.00" y="352.51" font-size="11.03">Senegal</text><text x="634.00" y="139.58" font-size="11.03">Chad</text><text x="449.00" y="241.60" font-size="11.03">Rwanda</text><text x="187.00" y="487.62" font-size="11.03">Cuba</text><text x="470.00" y="265.64" font-size="11.02">Guinea</text><text x="358.00" y="362.66" font-size="11.02">Bolivia</text><text x="546.00" y="301.70" font-size="11.02">Benin</text><text x="438.00" y="387.78" font-size="11.02">Honduras</text><text x="377.00" y="264.83" font-size="11.02">Tajikistan</text><text x="673.00" y="451.86" font-size="11.01">Jordan</text><text x="500.00" y="317.87" font-size="11.01">Togo</text><text x="226.00" y="414.87" font-size="11.01">El Salvador</text><text x="423.00" y="181.88" font-size="11.01">Sierra Leone</text><text x="347.00" y="463.95" font-size="11.01">Costa Rica</text><text x="344.00" y="91.11" font-size="11.01">Central African Republic</text><text x="641.00" y="208.98" font-size="11.01">Liberia</text><text x="581.00" y="439.98" font-size="11.01">Lebanon</text><text x="60.00" y="443.99" font-size="11.01">Georgia</text><text x="122.00" y="415.05" font-size="11.01">Albania</text><text x="100.00" y="444.06" font-size="11.01">Armenia</text><text x="573.00" y="488.06" font-size="11.01">Kuwait</text><text x="599.00" y="413.07" font-size="11.01">Oman</text><text x="396.00" y="291.10" font-size="11.00">Namibia</text><text x="280.00" y="304.11" font-size="11.00">Lesotho</text><text x="66.00" y="488.11" font-size="11.00">Latvia</text><text x="363.00" y="302.12" font-size="11.00">Botswana</text><text x="522.00" y="392.15" font-size="11.00">Gabon</text><text x="224.00" y="396.17" font-size="11.00">Mauritius</text><text x="359.00" y="242.19" font-size="11.00">Djibouti</text><text x="171.00" y="393.20" font-size="11.00">Guyana</text><text x="372.00" y="218.25" font-size="11.00">Timor</text><text x="560.00" y="202.25" font-size="11.00">Yemen</text></g></g><g class="ScatterColorLegend clickable" style="cursor:pointer"><g class="legendMark"><rect x="735" y="77.6" width="43.256" height="17.6" fill="#fff" opacity="0"></rect>,<rect x="735" y="83.1" width="6" height="6" fill="#5675c1"></rect>,<text font-size="12.60" x="746.0" y="90.2"><tspan x="746" y="90.17999999999999">Africa</tspan></text></g><g class="legendMark"><rect x="735" y="95.19999999999999" width="35.57" height="17.6" fill="#fff" opacity="0"></rect>,<rect x="735" y="100.69999999999999" width="6" height="6" fill="#d14e5b"></rect>,<text font-size="12.60" x="746.0" y="107.8"><tspan x="746" y="107.77999999999999">Asia</tspan></text></g><g class="legendMark"><rect x="735" y="112.8" width="51.824" height="17.6" fill="#fff" opacity="0"></rect>,<rect x="735" y="118.3" width="6" height="6" fill="#ffd336"></rect>,<text font-size="12.60" x="746.0" y="125.4"><tspan x="746" y="125.38">Europe</tspan></text></g><g class="legendMark"><rect x="735" y="130.4" width="91.64" height="17.6" fill="#fff" opacity="0"></rect>,<rect x="735" y="135.9" width="6" height="6" fill="#4d824b"></rect>,<text font-size="12.60" x="746.0" y="143.0"><tspan x="746" y="142.98">North America</tspan></text></g><g class="legendMark"><rect x="735" y="148" width="58.124" height="17.6" fill="#fff" opacity="0"></rect>,<rect x="735" y="153.5" width="6" height="6" fill="#a652ba"></rect>,<text font-size="12.60" x="746.0" y="160.6"><tspan x="746" y="160.57999999999998">Oceania</tspan></text></g><g class="legendMark"><rect x="735" y="165.6" width="93.908" height="17.6" fill="#fff" opacity="0"></rect>,<rect x="735" y="171.1" width="6" height="6" fill="#69c487"></rect>,<text font-size="12.60" x="746.0" y="178.2"><tspan x="746" y="178.17999999999998">South America</tspan></text></g></g></g><g class="SourcesFooter" style="fill:#777"><g class="clickable" style="fill:#777"><text font-size="12.60" x="15.0" y="581.6"><tspan x="15" y="581.58">Source: IFPRI 2017 Global Hunger Index, UN Population Division (2015)</tspan></text></g><text font-size="12.60" x="775.4" y="581.6"><tspan x="775.402" y="581.58"><a style="fill: #777;" class="cclogo" href="http://creativecommons.org/licenses/by-sa/4.0/deed.en_US" target="_blank">CC BY-SA</a></tspan></text></g></g></svg>