<svg xmlns="http://www.w3.org/2000/svg" version="1.1" style="font-family:&#x27;Helvetica Neue&#x27;, Helvetica, Arial, sans-serif;font-size:18px;background-color:white;text-rendering:optimizeLegibility;-webkit-font-smoothing:antialiased" width="850" height="600"><g class="ChartTab"><g class="HeaderView"><g opacity="0.8" transform="translate(778, 15) scale(0.27)"><a xmlns:xlink="http://www.w3.org/1999/xlink" xlink:href="https://ourworldindata.org" target="_blank"><g><rect x="0" y="0" fill="#1B2543" width="211.2" height="130.1"/><rect x="0" y="112.2" fill="#E63912" width="211.2" height="17.9"/><g><rect x="1.2" y="12.3" fill="none" width="210.2" height="99.2"/><path fill="#FFFFFF" d="M37.8,32.2c0,12.7-7.7,19.4-17.1,19.4c-9.7,0-16.6-7.5-16.6-18.7c0-11.7,7.3-19.3,17.1-19.3 C31.3,13.7,37.8,21.3,37.8,32.2z M9.2,32.8c0,7.9,4.3,14.9,11.8,14.9c7.5,0,11.8-6.9,11.8-15.3c0-7.3-3.8-14.9-11.8-14.9 C13.1,17.5,9.2,24.8,9.2,32.8z"/><path fill="#FFFFFF" d="M62.7,43.8c0,2.7,0.1,5.1,0.2,7.2h-4.3l-0.3-4.3h-0.1c-1.3,2.1-4,4.9-8.8,4.9c-4.2,0-9.1-2.3-9.1-11.6 V24.6h4.8v14.6c0,5,1.5,8.4,5.9,8.4c3.2,0,5.5-2.2,6.3-4.4c0.3-0.7,0.4-1.6,0.4-2.5V24.6h4.8V43.8z"/><path fill="#FFFFFF" d="M67.3,32.8c0-3.1-0.1-5.8-0.2-8.2h4.2l0.2,5.2h0.2c1.2-3.5,4.1-5.8,7.3-5.8c0.5,0,0.9,0.1,1.4,0.2v4.5 c-0.5-0.1-1-0.2-1.6-0.2c-3.4,0-5.8,2.6-6.5,6.2c-0.1,0.7-0.2,1.4-0.2,2.2V51h-4.8V32.8z"/><path fill="#FFFFFF" d="M95.4,51l-9.4-36.8h5l4.4,18.6c1.1,4.6,2.1,9.2,2.7,12.7h0.1c0.6-3.7,1.8-8,3-12.8l4.9-18.5h5l4.5,18.7 c1,4.4,2,8.7,2.6,12.6h0.1c0.8-4,1.8-8.1,3-12.7l4.9-18.5h4.9L120.6,51h-5L111,31.9c-1.1-4.7-1.9-8.3-2.4-12h-0.1 c-0.7,3.7-1.5,7.3-2.8,12L100.4,51H95.4z"/><path fill="#FFFFFF" d="M154.9,37.6c0,9.8-6.8,14-13.2,14c-7.2,0-12.7-5.2-12.7-13.6c0-8.8,5.8-14,13.1-14 C149.8,24,154.9,29.5,154.9,37.6z M133.9,37.9c0,5.8,3.3,10.1,8,10.1c4.6,0,8-4.3,8-10.3c0-4.5-2.2-10.1-7.9-10.1 C136.3,27.6,133.9,32.8,133.9,37.9z"/><path fill="#FFFFFF" d="M158.2,32.8c0-3.1-0.1-5.8-0.2-8.2h4.2l0.2,5.2h0.2c1.2-3.5,4.1-5.8,7.3-5.8c0.5,0,0.9,0.1,1.4,0.2v4.5 c-0.5-0.1-1-0.2-1.6-0.2c-3.4,0-5.8,2.6-6.5,6.2c-0.1,0.7-0.2,1.4-0.2,2.2V51h-4.8V32.8z"/><path fill="#FFFFFF" d="M173.5,12.3h4.8V51h-4.8V12.3z"/><path fill="#FFFFFF" d="M206.5,12.3v31.9c0,2.3,0.1,5,0.2,6.8h-4.3l-0.2-4.6H202c-1.5,2.9-4.7,5.2-9,5.2 c-6.4,0-11.3-5.4-11.3-13.4c-0.1-8.8,5.4-14.2,11.9-14.2c4,0,6.8,1.9,8,4h0.1V12.3H206.5z M201.7,35.4c0-0.6-0.1-1.4-0.2-2 c-0.7-3.1-3.3-5.6-6.9-5.6c-5,0-7.9,4.4-7.9,10.2c0,5.3,2.6,9.8,7.8,9.8c3.2,0,6.2-2.1,7.1-5.7c0.2-0.7,0.2-1.3,0.2-2.1V35.4z"/><path fill="#FFFFFF" d="M42.8,64c0.1,1.6-1.1,2.9-3.1,2.9c-1.7,0-2.9-1.3-2.9-2.9c0-1.7,1.3-3,3-3C41.7,61,42.8,62.3,42.8,64z M37.4,97.8V71.4h4.8v26.4H37.4z"/><path fill="#FFFFFF" d="M47.5,78.6c0-2.7-0.1-5-0.2-7.1h4.3l0.3,4.4h0.1c1.3-2.5,4.4-5,8.8-5c3.7,0,9.4,2.2,9.4,11.2v15.8h-4.8 V82.6c0-4.3-1.6-7.8-6.1-7.8c-3.2,0-5.6,2.2-6.5,4.9c-0.2,0.6-0.3,1.4-0.3,2.2v15.9h-4.8V78.6z"/><path fill="#FFFFFF" d="M84,61.6c2.9-0.4,6.3-0.8,10.1-0.8c6.8,0,11.7,1.6,14.9,4.6c3.3,3,5.2,7.3,5.2,13.2c0,6-1.9,10.9-5.3,14.3 c-3.4,3.4-9.1,5.3-16.3,5.3c-3.4,0-6.2-0.2-8.6-0.4V61.6z M88.8,94.1c1.2,0.2,3,0.3,4.8,0.3c10.2,0,15.7-5.7,15.7-15.6 c0.1-8.7-4.9-14.2-14.9-14.2c-2.5,0-4.3,0.2-5.6,0.5V94.1z"/><path fill="#FFFFFF" d="M132.1,97.8l-0.4-3.3h-0.2c-1.5,2.1-4.3,3.9-8.1,3.9c-5.4,0-8.1-3.8-8.1-7.6c0-6.4,5.7-9.9,15.9-9.8v-0.5 c0-2.2-0.6-6.1-6-6.1c-2.5,0-5,0.8-6.9,2l-1.1-3.2c2.2-1.4,5.4-2.3,8.7-2.3c8.1,0,10.1,5.5,10.1,10.8v9.9c0,2.3,0.1,4.5,0.4,6.3 H132.1z M131.4,84.4c-5.3-0.1-11.2,0.8-11.2,5.9c0,3.1,2.1,4.6,4.5,4.6c3.4,0,5.6-2.2,6.4-4.4c0.2-0.5,0.3-1,0.3-1.5V84.4z"/><path fill="#FFFFFF" d="M146.6,63.9v7.6h6.9v3.7h-6.9v14.2c0,3.3,0.9,5.1,3.6,5.1c1.3,0,2.2-0.2,2.8-0.3l0.2,3.6 c-0.9,0.4-2.4,0.7-4.3,0.7c-2.2,0-4-0.7-5.2-2c-1.4-1.4-1.9-3.8-1.9-6.9V75.1h-4.1v-3.7h4.1v-6.3L146.6,63.9z"/><path fill="#FFFFFF" d="M171.4,97.8l-0.4-3.3h-0.2c-1.5,2.1-4.3,3.9-8.1,3.9c-5.4,0-8.1-3.8-8.1-7.6c0-6.4,5.7-9.9,15.9-9.8v-0.5 c0-2.2-0.6-6.1-6-6.1c-2.5,0-5,0.8-6.9,2l-1.1-3.2c2.2-1.4,5.4-2.3,8.7-2.3c8.1,0,10.1,5.5,10.1,10.8v9.9c0,2.3,0.1,4.5,0.4,6.3 H171.4z M170.7,84.4c-5.3-0.1-11.2,0.8-11.2,5.9c0,3.1,2.1,4.6,4.5,4.6c3.4,0,5.6-2.2,6.4-4.4c0.2-0.5,0.3-1,0.3-1.5V84.4z"/></g></g></a></g><a href="https://ourworldindata.org/grapher/global-demand-for-education-growth-to-2100-of-under-15-by-WittgensteinCentre" target="_blank"><text font-size="25.20" x="15.0" y="35.2" fill="#555"><tspan x="15" y="35.160000000000004">Projection of the population under 15, by world region</tspan></text></a></g><g class="LineChart"><defs><clipPath id="boundsClip-677"><rect x="87.598" y="0" width="830" height="973"></rect></clipPath></defs><g class="AxisBoxView"><g class="HorizontalAxis"><text x="97.6" y="556.5" fill="#666" text-anchor="middle" font-size="16.2">1970</text><text x="214" y="556.5" fill="#666" text-anchor="middle" font-size="16.2">2000</text><text x="291.5" y="556.5" fill="#666" text-anchor="middle" font-size="16.2">2020</text><text x="369.1" y="556.5" fill="#666" text-anchor="middle" font-size="16.2">2040</text><text x="446.7" y="556.5" fill="#666" text-anchor="middle" font-size="16.2">2060</text><text x="524.2" y="556.5" fill="#666" text-anchor="middle" font-size="16.2">2080</text><text x="601.8" y="556.5" fill="#666" text-anchor="middle" font-size="16.2">2100</text></g><g class="VerticalAxis"><text x="92.60" y="535.3" fill="#666" dominant-baseline="middle" text-anchor="end" font-size="16.2">0</text><text x="92.60" y="485.7" fill="#666" dominant-baseline="middle" text-anchor="end" font-size="16.2">200 million</text><text x="92.60" y="436.2" fill="#666" dominant-baseline="middle" text-anchor="end" font-size="16.2">400 million</text><text x="92.60" y="386.6" fill="#666" dominant-baseline="middle" text-anchor="end" font-size="16.2">600 million</text><text x="92.60" y="337.1" fill="#666" dominant-baseline="middle" text-anchor="end" font-size="16.2">800 million</text><text x="92.60" y="287.5" fill="#666" dominant-baseline="middle" text-anchor="end" font-size="16.2">1 billion</text><text x="92.60" y="238" fill="#666" dominant-baseline="middle" text-anchor="end" font-size="16.2">1.2 billion</text><text x="92.60" y="188.4" fill="#666" dominant-baseline="middle" text-anchor="end" font-size="16.2">1.4 billion</text><text x="92.60" y="138.9" fill="#666" dominant-baseline="middle" text-anchor="end" font-size="16.2">1.6 billion</text><text x="92.60" y="89.3" fill="#666" dominant-baseline="middle" text-anchor="end" font-size="16.2">1.8 billion</text></g><g class="AxisGridLines"><line x1="97.60" y1="535.3" x2="601.82" y2="535.3" stroke="#ccc"></line><line x1="97.60" y1="485.7" x2="601.82" y2="485.7" stroke="#ddd" stroke-dasharray="3,2"></line><line x1="97.60" y1="436.2" x2="601.82" y2="436.2" stroke="#ddd" stroke-dasharray="3,2"></line><line x1="97.60" y1="386.6" x2="601.82" y2="386.6" stroke="#ddd" stroke-dasharray="3,2"></line><line x1="97.60" y1="337.1" x2="601.82" y2="337.1" stroke="#ddd" stroke-dasharray="3,2"></line><line x1="97.60" y1="287.5" x2="601.82" y2="287.5" stroke="#ddd" stroke-dasharray="3,2"></line><line x1="97.60" y1="238" x2="601.82" y2="238" stroke="#ddd" stroke-dasharray="3,2"></line><line x1="97.60" y1="188.4" x2="601.82" y2="188.4" stroke="#ddd" stroke-dasharray="3,2"></line><line x1="97.60" y1="138.9" x2="601.82" y2="138.9" stroke="#ddd" stroke-dasharray="3,2"></line><line x1="97.60" y1="89.3" x2="601.82" y2="89.3" stroke="#ddd" stroke-dasharray="3,2"></line></g></g><g clip-path="url(#boundsClip-677)"><g class="HeightedLegend clickable"><g class="legendMark"><g class="indicator"><line x1="606.8199999999999" y1="533.2" x2="629.3199999999999" y2="533.2" stroke="#666" stroke-width="0.5"></line><line x1="629.3199999999999" y1="533.2" x2="629.3199999999999" y2="528.55" stroke="#666" stroke-width="0.5"></line><line x1="629.3199999999999" y1="528.55" x2="631.8199999999999" y2="528.55" stroke="#666" stroke-width="0.5"></line></g><rect x="601.8199999999999" y="521.8" width="85.49000000000001" height="13.5" fill="#fff" opacity="0"></rect><text font-size="13.50" x="636.8" y="532.6" fill="#3360a9"><tspan x="636.8199999999999" y="532.5999999999999">Oceania</tspan></text></g><g class="legendMark"><g class="indicator"><line x1="606.8199999999999" y1="517.1" x2="624.3199999999999" y2="517.1" stroke="#666" stroke-width="0.5"></line><line x1="624.3199999999999" y1="517.1" x2="624.3199999999999" y2="513.05" stroke="#666" stroke-width="0.5"></line><line x1="624.3199999999999" y1="513.05" x2="631.8199999999999" y2="513.05" stroke="#666" stroke-width="0.5"></line></g><rect x="601.8199999999999" y="506.29999999999995" width="140.97500000000002" height="13.5" fill="#fff" opacity="0"></rect><text font-size="13.50" x="636.8" y="517.1" fill="#ca2628"><tspan x="636.8199999999999" y="517.0999999999999">Northern America</tspan></text></g><g class="legendMark"><g class="indicator"><line x1="606.8199999999999" y1="515.5" x2="619.3199999999999" y2="515.5" stroke="#666" stroke-width="0.5"></line><line x1="619.3199999999999" y1="515.5" x2="619.3199999999999" y2="497.54999999999995" stroke="#666" stroke-width="0.5"></line><line x1="619.3199999999999" y1="497.54999999999995" x2="631.8199999999999" y2="497.54999999999995" stroke="#666" stroke-width="0.5"></line></g><rect x="601.8199999999999" y="490.79999999999995" width="233.18" height="13.5" fill="#fff" opacity="0"></rect><text font-size="13.50" x="636.8" y="501.6" fill="#34983f"><tspan x="636.8199999999999" y="501.59999999999997">Latin America and the Caribbean</tspan></text></g><g class="legendMark"><g class="indicator"><line x1="606.8199999999999" y1="513.4" x2="614.3199999999999" y2="513.4" stroke="#666" stroke-width="0.5"></line><line x1="614.3199999999999" y1="513.4" x2="614.3199999999999" y2="482.04999999999995" stroke="#666" stroke-width="0.5"></line><line x1="614.3199999999999" y1="482.04999999999995" x2="631.8199999999999" y2="482.04999999999995" stroke="#666" stroke-width="0.5"></line></g><rect x="601.8199999999999" y="475.29999999999995" width="78.74000000000001" height="13.5" fill="#fff" opacity="0"></rect><text font-size="13.50" x="636.8" y="486.1" fill="#f6a324"><tspan x="636.8199999999999" y="486.09999999999997">Europe</tspan></text></g><g class="legendMark"><g class="indicator"><line x1="606.8199999999999" y1="423.2" x2="619.3199999999999" y2="423.2" stroke="#666" stroke-width="0.5"></line><line x1="619.3199999999999" y1="423.2" x2="619.3199999999999" y2="423.2" stroke="#666" stroke-width="0.5"></line><line x1="619.3199999999999" y1="423.2" x2="631.8199999999999" y2="423.2" stroke="#666" stroke-width="0.5"></line></g><rect x="601.8199999999999" y="416.45" width="69.56" height="13.5" fill="#fff" opacity="0"></rect><text font-size="13.50" x="636.8" y="427.3" fill="#a652ba"><tspan x="636.8199999999999" y="427.25">Africa</tspan></text></g><g class="legendMark"><g class="indicator"><line x1="606.8199999999999" y1="403" x2="619.3199999999999" y2="403" stroke="#666" stroke-width="0.5"></line><line x1="619.3199999999999" y1="403" x2="619.3199999999999" y2="403" stroke="#666" stroke-width="0.5"></line><line x1="619.3199999999999" y1="403" x2="631.8199999999999" y2="403" stroke="#666" stroke-width="0.5"></line></g><rect x="601.8199999999999" y="396.25" width="61.325" height="13.5" fill="#fff" opacity="0"></rect><text font-size="13.50" x="636.8" y="407.1" fill="#2a939b"><tspan x="636.8199999999999" y="407.05">Asia</tspan></text></g><g class="legendMark"><g class="indicator"><line x1="606.8199999999999" y1="228.9" x2="619.3199999999999" y2="228.9" stroke="#666" stroke-width="0.5"></line><line x1="619.3199999999999" y1="228.9" x2="619.3199999999999" y2="228.9" stroke="#666" stroke-width="0.5"></line><line x1="619.3199999999999" y1="228.9" x2="631.8199999999999" y2="228.9" stroke="#666" stroke-width="0.5"></line></g><rect x="601.8199999999999" y="222.15" width="70.235" height="13.5" fill="#fff" opacity="0"></rect><text font-size="13.50" x="636.8" y="233.0" fill="#e6332e"><tspan x="636.8199999999999" y="232.95000000000002">World</tspan></text></g></g><g class="Lines"><rect x="98" y="70" width="504" height="465" fill="rgba(255,255,255,0)" opacity="0"></rect><g class="key-Northern-America_0"><path stroke="#ca2628" stroke-linecap="round" d="M98 519L117 520L136 521L156 521L175 520L195 519L214 519L233 519L253 519L272 518L292 518L311 518L330 518L350 517L369 517L389 517L408 517L427 517L447 516L466 516L486 516L505 516L524 516L544 516L563 517L582 517L602 517" fill="none" stroke-width="1.5"></path><g fill="#ca2628"><circle cx="98" cy="519" r="2"></circle><circle cx="117" cy="520" r="2"></circle><circle cx="136" cy="521" r="2"></circle><circle cx="156" cy="521" r="2"></circle><circle cx="175" cy="520" r="2"></circle><circle cx="195" cy="519" r="2"></circle><circle cx="214" cy="519" r="2"></circle><circle cx="233" cy="519" r="2"></circle><circle cx="253" cy="519" r="2"></circle><circle cx="272" cy="518" r="2"></circle><circle cx="292" cy="518" r="2"></circle><circle cx="311" cy="518" r="2"></circle><circle cx="330" cy="518" r="2"></circle><circle cx="350" cy="517" r="2"></circle><circle cx="369" cy="517" r="2"></circle><circle cx="389" cy="517" r="2"></circle><circle cx="408" cy="517" r="2"></circle><circle cx="427" cy="517" r="2"></circle><circle cx="447" cy="516" r="2"></circle><circle cx="466" cy="516" r="2"></circle><circle cx="486" cy="516" r="2"></circle><circle cx="505" cy="516" r="2"></circle><circle cx="524" cy="516" r="2"></circle><circle cx="544" cy="516" r="2"></circle><circle cx="563" cy="517" r="2"></circle><circle cx="582" cy="517" r="2"></circle><circle cx="602" cy="517" r="2"></circle></g></g><g class="key-World_0"><path stroke="#e6332e" stroke-linecap="round" d="M98 194L117 166L136 147L156 129L175 106L195 86L214 78L233 82L253 79L272 74L292 70L311 72L330 77L350 83L369 89L389 95L408 104L427 115L447 127L466 141L486 153L505 164L524 177L544 190L563 204L582 217L602 229" fill="none" stroke-width="1.5"></path><g fill="#e6332e"><circle cx="98" cy="194" r="2"></circle><circle cx="117" cy="166" r="2"></circle><circle cx="136" cy="147" r="2"></circle><circle cx="156" cy="129" r="2"></circle><circle cx="175" cy="106" r="2"></circle><circle cx="195" cy="86" r="2"></circle><circle cx="214" cy="78" r="2"></circle><circle cx="233" cy="82" r="2"></circle><circle cx="253" cy="79" r="2"></circle><circle cx="272" cy="74" r="2"></circle><circle cx="292" cy="70" r="2"></circle><circle cx="311" cy="72" r="2"></circle><circle cx="330" cy="77" r="2"></circle><circle cx="350" cy="83" r="2"></circle><circle cx="369" cy="89" r="2"></circle><circle cx="389" cy="95" r="2"></circle><circle cx="408" cy="104" r="2"></circle><circle cx="427" cy="115" r="2"></circle><circle cx="447" cy="127" r="2"></circle><circle cx="466" cy="141" r="2"></circle><circle cx="486" cy="153" r="2"></circle><circle cx="505" cy="164" r="2"></circle><circle cx="524" cy="177" r="2"></circle><circle cx="544" cy="190" r="2"></circle><circle cx="563" cy="204" r="2"></circle><circle cx="582" cy="217" r="2"></circle><circle cx="602" cy="229" r="2"></circle></g></g><g class="key-Latin-America-and-the-Caribbean_0"><path stroke="#34983f" stroke-linecap="round" d="M98 505L117 502L136 500L156 498L175 496L195 495L214 494L233 494L253 495L272 495L292 496L311 497L330 498L350 499L369 501L389 502L408 503L427 505L447 506L466 508L486 509L505 510L524 511L544 513L563 514L582 515L602 516" fill="none" stroke-width="1.5"></path><g fill="#34983f"><circle cx="98" cy="505" r="2"></circle><circle cx="117" cy="502" r="2"></circle><circle cx="136" cy="500" r="2"></circle><circle cx="156" cy="498" r="2"></circle><circle cx="175" cy="496" r="2"></circle><circle cx="195" cy="495" r="2"></circle><circle cx="214" cy="494" r="2"></circle><circle cx="233" cy="494" r="2"></circle><circle cx="253" cy="495" r="2"></circle><circle cx="272" cy="495" r="2"></circle><circle cx="292" cy="496" r="2"></circle><circle cx="311" cy="497" r="2"></circle><circle cx="330" cy="498" r="2"></circle><circle cx="350" cy="499" r="2"></circle><circle cx="369" cy="501" r="2"></circle><circle cx="389" cy="502" r="2"></circle><circle cx="408" cy="503" r="2"></circle><circle cx="427" cy="505" r="2"></circle><circle cx="447" cy="506" r="2"></circle><circle cx="466" cy="508" r="2"></circle><circle cx="486" cy="509" r="2"></circle><circle cx="505" cy="510" r="2"></circle><circle cx="524" cy="511" r="2"></circle><circle cx="544" cy="513" r="2"></circle><circle cx="563" cy="514" r="2"></circle><circle cx="582" cy="515" r="2"></circle><circle cx="602" cy="516" r="2"></circle></g></g><g class="key-Oceania_0"><path stroke="#3360a9" stroke-linecap="round" d="M98 534L117 534L136 534L156 534L175 534L195 533L214 533L233 533L253 533L272 533L292 533L311 533L330 533L350 533L369 533L389 533L408 533L427 533L447 533L466 533L486 533L505 533L524 533L544 533L563 533L582 533L602 533" fill="none" stroke-width="1.5"></path><g fill="#3360a9"><circle cx="98" cy="534" r="2"></circle><circle cx="117" cy="534" r="2"></circle><circle cx="136" cy="534" r="2"></circle><circle cx="156" cy="534" r="2"></circle><circle cx="175" cy="534" r="2"></circle><circle cx="195" cy="533" r="2"></circle><circle cx="214" cy="533" r="2"></circle><circle cx="233" cy="533" r="2"></circle><circle cx="253" cy="533" r="2"></circle><circle cx="272" cy="533" r="2"></circle><circle cx="292" cy="533" r="2"></circle><circle cx="311" cy="533" r="2"></circle><circle cx="330" cy="533" r="2"></circle><circle cx="350" cy="533" r="2"></circle><circle cx="369" cy="533" r="2"></circle><circle cx="389" cy="533" r="2"></circle><circle cx="408" cy="533" r="2"></circle><circle cx="427" cy="533" r="2"></circle><circle cx="447" cy="533" r="2"></circle><circle cx="466" cy="533" r="2"></circle><circle cx="486" cy="533" r="2"></circle><circle cx="505" cy="533" r="2"></circle><circle cx="524" cy="533" r="2"></circle><circle cx="544" cy="533" r="2"></circle><circle cx="563" cy="533" r="2"></circle><circle cx="582" cy="533" r="2"></circle><circle cx="602" cy="533" r="2"></circle></g></g><g class="key-Europe_0"><path stroke="#f6a324" stroke-linecap="round" d="M98 494L117 496L136 497L156 498L175 499L195 501L214 504L233 507L253 507L272 507L292 506L311 507L330 508L350 509L369 509L389 509L408 509L427 509L447 510L466 510L486 510L505 511L524 511L544 512L563 512L582 513L602 513" fill="none" stroke-width="1.5"></path><g fill="#f6a324"><circle cx="98" cy="494" r="2"></circle><circle cx="117" cy="496" r="2"></circle><circle cx="136" cy="497" r="2"></circle><circle cx="156" cy="498" r="2"></circle><circle cx="175" cy="499" r="2"></circle><circle cx="195" cy="501" r="2"></circle><circle cx="214" cy="504" r="2"></circle><circle cx="233" cy="507" r="2"></circle><circle cx="253" cy="507" r="2"></circle><circle cx="272" cy="507" r="2"></circle><circle cx="292" cy="506" r="2"></circle><circle cx="311" cy="507" r="2"></circle><circle cx="330" cy="508" r="2"></circle><circle cx="350" cy="509" r="2"></circle><circle cx="369" cy="509" r="2"></circle><circle cx="389" cy="509" r="2"></circle><circle cx="408" cy="509" r="2"></circle><circle cx="427" cy="509" r="2"></circle><circle cx="447" cy="510" r="2"></circle><circle cx="466" cy="510" r="2"></circle><circle cx="486" cy="510" r="2"></circle><circle cx="505" cy="511" r="2"></circle><circle cx="524" cy="511" r="2"></circle><circle cx="544" cy="512" r="2"></circle><circle cx="563" cy="512" r="2"></circle><circle cx="582" cy="513" r="2"></circle><circle cx="602" cy="513" r="2"></circle></g></g><g class="key-Asia_0"><path stroke="#2a939b" stroke-linecap="round" d="M98 324L117 302L136 290L156 282L175 269L195 257L214 254L233 263L253 269L272 273L292 277L311 284L330 292L350 301L369 310L389 317L408 326L427 334L447 344L466 352L486 360L505 368L524 375L544 382L563 390L582 397L602 403" fill="none" stroke-width="1.5"></path><g fill="#2a939b"><circle cx="98" cy="324" r="2"></circle><circle cx="117" cy="302" r="2"></circle><circle cx="136" cy="290" r="2"></circle><circle cx="156" cy="282" r="2"></circle><circle cx="175" cy="269" r="2"></circle><circle cx="195" cy="257" r="2"></circle><circle cx="214" cy="254" r="2"></circle><circle cx="233" cy="263" r="2"></circle><circle cx="253" cy="269" r="2"></circle><circle cx="272" cy="273" r="2"></circle><circle cx="292" cy="277" r="2"></circle><circle cx="311" cy="284" r="2"></circle><circle cx="330" cy="292" r="2"></circle><circle cx="350" cy="301" r="2"></circle><circle cx="369" cy="310" r="2"></circle><circle cx="389" cy="317" r="2"></circle><circle cx="408" cy="326" r="2"></circle><circle cx="427" cy="334" r="2"></circle><circle cx="447" cy="344" r="2"></circle><circle cx="466" cy="352" r="2"></circle><circle cx="486" cy="360" r="2"></circle><circle cx="505" cy="368" r="2"></circle><circle cx="524" cy="375" r="2"></circle><circle cx="544" cy="382" r="2"></circle><circle cx="563" cy="390" r="2"></circle><circle cx="582" cy="397" r="2"></circle><circle cx="602" cy="403" r="2"></circle></g></g><g class="key-Africa_0"><path stroke="#a652ba" stroke-linecap="round" d="M98 495L117 489L136 482L156 474L175 465L195 458L214 451L233 442L253 433L272 424L292 416L311 410L330 404L350 400L369 396L389 394L408 393L427 393L447 395L466 398L486 401L505 404L524 407L544 411L563 415L582 419L602 423" fill="none" stroke-width="1.5"></path><g fill="#a652ba"><circle cx="98" cy="495" r="2"></circle><circle cx="117" cy="489" r="2"></circle><circle cx="136" cy="482" r="2"></circle><circle cx="156" cy="474" r="2"></circle><circle cx="175" cy="465" r="2"></circle><circle cx="195" cy="458" r="2"></circle><circle cx="214" cy="451" r="2"></circle><circle cx="233" cy="442" r="2"></circle><circle cx="253" cy="433" r="2"></circle><circle cx="272" cy="424" r="2"></circle><circle cx="292" cy="416" r="2"></circle><circle cx="311" cy="410" r="2"></circle><circle cx="330" cy="404" r="2"></circle><circle cx="350" cy="400" r="2"></circle><circle cx="369" cy="396" r="2"></circle><circle cx="389" cy="394" r="2"></circle><circle cx="408" cy="393" r="2"></circle><circle cx="427" cy="393" r="2"></circle><circle cx="447" cy="395" r="2"></circle><circle cx="466" cy="398" r="2"></circle><circle cx="486" cy="401" r="2"></circle><circle cx="505" cy="404" r="2"></circle><circle cx="524" cy="407" r="2"></circle><circle cx="544" cy="411" r="2"></circle><circle cx="563" cy="415" r="2"></circle><circle cx="582" cy="419" r="2"></circle><circle cx="602" cy="423" r="2"></circle></g></g></g></g></g><g class="SourcesFooter" style="fill:#777"><g class="clickable" style="fill:#777"><text font-size="12.60" x="15.0" y="581.6"><tspan x="15" y="581.58">Source: Medium SSP2 - Wittgenstein Centre for Demography and Global Human Capital</tspan></text></g><text font-size="12.60" x="775.4" y="581.6"><tspan x="775.402" y="581.58"><a style="fill: #777;" class="cclogo" href="http://creativecommons.org/licenses/by-sa/4.0/deed.en_US" target="_blank">CC BY-SA</a></tspan></text></g></g></svg>