<svg xmlns="http://www.w3.org/2000/svg" version="1.1" style="font-family:&#x27;Helvetica Neue&#x27;, Helvetica, Arial, sans-serif;font-size:18px;background-color:white;text-rendering:optimizeLegibility;-webkit-font-smoothing:antialiased" width="850" height="600"><g class="ChartTab"><g class="HeaderView"><g opacity="0.8" transform="translate(778, 15) scale(0.27)"><a xmlns:xlink="http://www.w3.org/1999/xlink" xlink:href="https://ourworldindata.org" target="_blank"><g><rect x="0" y="0" fill="#1B2543" width="211.2" height="130.1"/><rect x="0" y="112.2" fill="#E63912" width="211.2" height="17.9"/><g><rect x="1.2" y="12.3" fill="none" width="210.2" height="99.2"/><path fill="#FFFFFF" d="M37.8,32.2c0,12.7-7.7,19.4-17.1,19.4c-9.7,0-16.6-7.5-16.6-18.7c0-11.7,7.3-19.3,17.1-19.3 C31.3,13.7,37.8,21.3,37.8,32.2z M9.2,32.8c0,7.9,4.3,14.9,11.8,14.9c7.5,0,11.8-6.9,11.8-15.3c0-7.3-3.8-14.9-11.8-14.9 C13.1,17.5,9.2,24.8,9.2,32.8z"/><path fill="#FFFFFF" d="M62.7,43.8c0,2.7,0.1,5.1,0.2,7.2h-4.3l-0.3-4.3h-0.1c-1.3,2.1-4,4.9-8.8,4.9c-4.2,0-9.1-2.3-9.1-11.6 V24.6h4.8v14.6c0,5,1.5,8.4,5.9,8.4c3.2,0,5.5-2.2,6.3-4.4c0.3-0.7,0.4-1.6,0.4-2.5V24.6h4.8V43.8z"/><path fill="#FFFFFF" d="M67.3,32.8c0-3.1-0.1-5.8-0.2-8.2h4.2l0.2,5.2h0.2c1.2-3.5,4.1-5.8,7.3-5.8c0.5,0,0.9,0.1,1.4,0.2v4.5 c-0.5-0.1-1-0.2-1.6-0.2c-3.4,0-5.8,2.6-6.5,6.2c-0.1,0.7-0.2,1.4-0.2,2.2V51h-4.8V32.8z"/><path fill="#FFFFFF" d="M95.4,51l-9.4-36.8h5l4.4,18.6c1.1,4.6,2.1,9.2,2.7,12.7h0.1c0.6-3.7,1.8-8,3-12.8l4.9-18.5h5l4.5,18.7 c1,4.4,2,8.7,2.6,12.6h0.1c0.8-4,1.8-8.1,3-12.7l4.9-18.5h4.9L120.6,51h-5L111,31.9c-1.1-4.7-1.9-8.3-2.4-12h-0.1 c-0.7,3.7-1.5,7.3-2.8,12L100.4,51H95.4z"/><path fill="#FFFFFF" d="M154.9,37.6c0,9.8-6.8,14-13.2,14c-7.2,0-12.7-5.2-12.7-13.6c0-8.8,5.8-14,13.1-14 C149.8,24,154.9,29.5,154.9,37.6z M133.9,37.9c0,5.8,3.3,10.1,8,10.1c4.6,0,8-4.3,8-10.3c0-4.5-2.2-10.1-7.9-10.1 C136.3,27.6,133.9,32.8,133.9,37.9z"/><path fill="#FFFFFF" d="M158.2,32.8c0-3.1-0.1-5.8-0.2-8.2h4.2l0.2,5.2h0.2c1.2-3.5,4.1-5.8,7.3-5.8c0.5,0,0.9,0.1,1.4,0.2v4.5 c-0.5-0.1-1-0.2-1.6-0.2c-3.4,0-5.8,2.6-6.5,6.2c-0.1,0.7-0.2,1.4-0.2,2.2V51h-4.8V32.8z"/><path fill="#FFFFFF" d="M173.5,12.3h4.8V51h-4.8V12.3z"/><path fill="#FFFFFF" d="M206.5,12.3v31.9c0,2.3,0.1,5,0.2,6.8h-4.3l-0.2-4.6H202c-1.5,2.9-4.7,5.2-9,5.2 c-6.4,0-11.3-5.4-11.3-13.4c-0.1-8.8,5.4-14.2,11.9-14.2c4,0,6.8,1.9,8,4h0.1V12.3H206.5z M201.7,35.4c0-0.6-0.1-1.4-0.2-2 c-0.7-3.1-3.3-5.6-6.9-5.6c-5,0-7.9,4.4-7.9,10.2c0,5.3,2.6,9.8,7.8,9.8c3.2,0,6.2-2.1,7.1-5.7c0.2-0.7,0.2-1.3,0.2-2.1V35.4z"/><path fill="#FFFFFF" d="M42.8,64c0.1,1.6-1.1,2.9-3.1,2.9c-1.7,0-2.9-1.3-2.9-2.9c0-1.7,1.3-3,3-3C41.7,61,42.8,62.3,42.8,64z M37.4,97.8V71.4h4.8v26.4H37.4z"/><path fill="#FFFFFF" d="M47.5,78.6c0-2.7-0.1-5-0.2-7.1h4.3l0.3,4.4h0.1c1.3-2.5,4.4-5,8.8-5c3.7,0,9.4,2.2,9.4,11.2v15.8h-4.8 V82.6c0-4.3-1.6-7.8-6.1-7.8c-3.2,0-5.6,2.2-6.5,4.9c-0.2,0.6-0.3,1.4-0.3,2.2v15.9h-4.8V78.6z"/><path fill="#FFFFFF" d="M84,61.6c2.9-0.4,6.3-0.8,10.1-0.8c6.8,0,11.7,1.6,14.9,4.6c3.3,3,5.2,7.3,5.2,13.2c0,6-1.9,10.9-5.3,14.3 c-3.4,3.4-9.1,5.3-16.3,5.3c-3.4,0-6.2-0.2-8.6-0.4V61.6z M88.8,94.1c1.2,0.2,3,0.3,4.8,0.3c10.2,0,15.7-5.7,15.7-15.6 c0.1-8.7-4.9-14.2-14.9-14.2c-2.5,0-4.3,0.2-5.6,0.5V94.1z"/><path fill="#FFFFFF" d="M132.1,97.8l-0.4-3.3h-0.2c-1.5,2.1-4.3,3.9-8.1,3.9c-5.4,0-8.1-3.8-8.1-7.6c0-6.4,5.7-9.9,15.9-9.8v-0.5 c0-2.2-0.6-6.1-6-6.1c-2.5,0-5,0.8-6.9,2l-1.1-3.2c2.2-1.4,5.4-2.3,8.7-2.3c8.1,0,10.1,5.5,10.1,10.8v9.9c0,2.3,0.1,4.5,0.4,6.3 H132.1z M131.4,84.4c-5.3-0.1-11.2,0.8-11.2,5.9c0,3.1,2.1,4.6,4.5,4.6c3.4,0,5.6-2.2,6.4-4.4c0.2-0.5,0.3-1,0.3-1.5V84.4z"/><path fill="#FFFFFF" d="M146.6,63.9v7.6h6.9v3.7h-6.9v14.2c0,3.3,0.9,5.1,3.6,5.1c1.3,0,2.2-0.2,2.8-0.3l0.2,3.6 c-0.9,0.4-2.4,0.7-4.3,0.7c-2.2,0-4-0.7-5.2-2c-1.4-1.4-1.9-3.8-1.9-6.9V75.1h-4.1v-3.7h4.1v-6.3L146.6,63.9z"/><path fill="#FFFFFF" d="M171.4,97.8l-0.4-3.3h-0.2c-1.5,2.1-4.3,3.9-8.1,3.9c-5.4,0-8.1-3.8-8.1-7.6c0-6.4,5.7-9.9,15.9-9.8v-0.5 c0-2.2-0.6-6.1-6-6.1c-2.5,0-5,0.8-6.9,2l-1.1-3.2c2.2-1.4,5.4-2.3,8.7-2.3c8.1,0,10.1,5.5,10.1,10.8v9.9c0,2.3,0.1,4.5,0.4,6.3 H171.4z M170.7,84.4c-5.3-0.1-11.2,0.8-11.2,5.9c0,3.1,2.1,4.6,4.5,4.6c3.4,0,5.6-2.2,6.4-4.4c0.2-0.5,0.3-1,0.3-1.5V84.4z"/></g></g></a></g><a href="https://ourworldindata.org/grapher/global-electricity-production-by-source" target="_blank"><text font-size="25.20" x="15.0" y="35.2" fill="#555"><tspan x="15" y="35.160000000000004">Global electricity production by source</tspan></text></a><text font-size="14.40" x="15.0" y="53.7" fill="#666"><tspan x="15" y="53.72">Global electricity production, measured as the percentage contribution from fossil fuels (coal, oil and gas) and</tspan><tspan x="15" y="69.56">low-carbon sources (nuclear, hydropower, biomass, wind, solar, geothermal and marine power)</tspan></text></g><g class="StackedArea"><defs><clipPath id="boundsClip-164"><rect x="61.634" y="0" width="820" height="899.5999999999999"></rect></clipPath></defs><g class="AxisBoxView"><g class="HorizontalAxis"><text x="61.6" y="541.9" fill="#666" text-anchor="middle" font-size="16.2">1990</text><text x="195.7" y="541.9" fill="#666" text-anchor="middle" font-size="16.2">1995</text><text x="329.8" y="541.9" fill="#666" text-anchor="middle" font-size="16.2">2000</text><text x="463.9" y="541.9" fill="#666" text-anchor="middle" font-size="16.2">2005</text><text x="598" y="541.9" fill="#666" text-anchor="middle" font-size="16.2">2010</text><text x="705.2" y="541.9" fill="#666" text-anchor="middle" font-size="16.2">2014</text></g><g class="VerticalAxis"><text x="56.63" y="520.7" fill="#666" dominant-baseline="middle" text-anchor="end" font-size="16.2">0%</text><text x="56.63" y="435" fill="#666" dominant-baseline="middle" text-anchor="end" font-size="16.2">20%</text><text x="56.63" y="349.3" fill="#666" dominant-baseline="middle" text-anchor="end" font-size="16.2">40%</text><text x="56.63" y="263.5" fill="#666" dominant-baseline="middle" text-anchor="end" font-size="16.2">60%</text><text x="56.63" y="177.8" fill="#666" dominant-baseline="middle" text-anchor="end" font-size="16.2">80%</text><text x="56.63" y="92.1" fill="#666" dominant-baseline="middle" text-anchor="end" font-size="16.2">100%</text></g><g class="AxisGridLines"><line x1="61.63" y1="520.7" x2="705.23" y2="520.7" stroke="#ccc"></line><line x1="61.63" y1="435" x2="705.23" y2="435" stroke="#ddd" stroke-dasharray="3,2"></line><line x1="61.63" y1="349.3" x2="705.23" y2="349.3" stroke="#ddd" stroke-dasharray="3,2"></line><line x1="61.63" y1="263.5" x2="705.23" y2="263.5" stroke="#ddd" stroke-dasharray="3,2"></line><line x1="61.63" y1="177.8" x2="705.23" y2="177.8" stroke="#ddd" stroke-dasharray="3,2"></line><line x1="61.63" y1="92.1" x2="705.23" y2="92.1" stroke="#ddd" stroke-dasharray="3,2"></line></g></g><g clip-path="url(#boundsClip-164)"><g class="HeightedLegend clickable"><g class="legendMark"><rect x="705.23" y="214.35" width="122.885" height="42.7" fill="#fff" opacity="0"></rect><text font-size="13.50" x="710.2" y="225.2" fill="#34983f"><tspan x="710.23" y="225.15">Fossil fuels (%</tspan><tspan x="710.23" y="240">electricity</tspan><tspan x="710.23" y="254.85000000000002">production)</tspan></text></g><g class="legendMark"><rect x="705.23" y="421.35" width="129.77" height="57.3" fill="#fff" opacity="0"></rect><text font-size="13.50" x="710.2" y="432.2" fill="#3360a9"><tspan x="710.23" y="432.15000000000003">Nuclear +</tspan><tspan x="710.23" y="447.00000000000006">Renewables (%</tspan><tspan x="710.23" y="461.85">electricity</tspan><tspan x="710.23" y="476.70000000000005">production)</tspan></text></g></g><g class="Areas"><rect x="61.634" y="92.1" width="643.596" height="428.5999999999999" opacity="0" fill="rgba(255,255,255,0)"></rect><path class="World_1-area" stroke-linecap="round" d="M61.6 365.2L88.5 364.1L115.3 364.4L142.1 361.2L168.9 362.3L195.7 360.6L222.5 361.7L249.3 364.5L276.2 366.3L303 367.4L329.8 370.5L356.6 371.7L383.4 374.2L410.2 379.1L437.1 377.7L463.9 379.1L490.7 380.3L517.5 385.5L544.3 383.4L571.1 380.6L598 382L624.8 385.5L651.6 384.8L678.4 382.5L705.2 379.4L705.23 520.6999999999999L61.634 520.6999999999999" fill="#3360a9" fill-opacity="0.7"></path><path class="World_0-area" stroke-linecap="round" d="M61.6 92.1L88.5 92.1L115.3 92.1L142.1 92.1L168.9 92.1L195.7 92.1L222.5 92.1L249.3 92.1L276.2 92.1L303 92.1L329.8 92.1L356.6 92.1L383.4 92.1L410.2 92.1L437.1 92.1L463.9 92.1L490.7 92.1L517.5 92.1L544.3 92.1L571.1 92.1L598 92.1L624.8 92.1L651.6 92.1L678.4 92.1L705.2 92.1L705.2 379.4L678.4 382.5L651.6 384.8L624.8 385.5L598 382L571.1 380.6L544.3 383.4L517.5 385.5L490.7 380.3L463.9 379.1L437.1 377.7L410.2 379.1L383.4 374.2L356.6 371.7L329.8 370.5L303 367.4L276.2 366.3L249.3 364.5L222.5 361.7L195.7 360.6L168.9 362.3L142.1 361.2L115.3 364.4L88.5 364.1L61.6 365.2" fill="#34983f" fill-opacity="0.7"></path><path class="World_1-border" stroke-linecap="round" d="M61.6 365.2L88.5 364.1L115.3 364.4L142.1 361.2L168.9 362.3L195.7 360.6L222.5 361.7L249.3 364.5L276.2 366.3L303 367.4L329.8 370.5L356.6 371.7L383.4 374.2L410.2 379.1L437.1 377.7L463.9 379.1L490.7 380.3L517.5 385.5L544.3 383.4L571.1 380.6L598 382L624.8 385.5L651.6 384.8L678.4 382.5L705.2 379.4" stroke="rgb(43, 80, 141)" stroke-opacity="0.7" stroke-width="0.5" fill="none"></path><path class="World_0-border" stroke-linecap="round" d="M61.6 92.1L88.5 92.1L115.3 92.1L142.1 92.1L168.9 92.1L195.7 92.1L222.5 92.1L249.3 92.1L276.2 92.1L303 92.1L329.8 92.1L356.6 92.1L383.4 92.1L410.2 92.1L437.1 92.1L463.9 92.1L490.7 92.1L517.5 92.1L544.3 92.1L571.1 92.1L598 92.1L624.8 92.1L651.6 92.1L678.4 92.1L705.2 92.1" stroke="rgb(44, 127, 53)" stroke-opacity="0.7" stroke-width="0.5" fill="none"></path></g></g></g><g class="SourcesFooter" style="fill:#777"><g class="clickable" style="fill:#777"><text font-size="12.60" x="15.0" y="567.0"><tspan x="15" y="566.98">Source: International Energy Agency (IEA) via The World Bank</tspan></text></g><text font-size="12.60" x="15.0" y="582.5"><tspan x="15" y="582.48"><a target='_blank' style='fill: #777;' href='https://ourworldindata.org/energy-production-and-changing-energy-sources/'>OurWorldInData.org/energy-production-and-changing-energy-sources/</a> • <a style="fill: #777;" class="cclogo" href="http://creativecommons.org/licenses/by-sa/4.0/deed.en_US" target="_blank">CC BY-SA</a></tspan></text></g></g></svg>