<svg xmlns="http://www.w3.org/2000/svg" version="1.1" style="font-family:&#x27;Helvetica Neue&#x27;, Helvetica, Arial, sans-serif;font-size:18px;background-color:white;text-rendering:optimizeLegibility;-webkit-font-smoothing:antialiased" width="850" height="600"><g class="ChartTab"><g class="HeaderView"><g opacity="0.8" transform="translate(778, 15) scale(0.27)"><a xmlns:xlink="http://www.w3.org/1999/xlink" xlink:href="https://ourworldindata.org" target="_blank"><g><rect x="0" y="0" fill="#1B2543" width="211.2" height="130.1"/><rect x="0" y="112.2" fill="#E63912" width="211.2" height="17.9"/><g><rect x="1.2" y="12.3" fill="none" width="210.2" height="99.2"/><path fill="#FFFFFF" d="M37.8,32.2c0,12.7-7.7,19.4-17.1,19.4c-9.7,0-16.6-7.5-16.6-18.7c0-11.7,7.3-19.3,17.1-19.3 C31.3,13.7,37.8,21.3,37.8,32.2z M9.2,32.8c0,7.9,4.3,14.9,11.8,14.9c7.5,0,11.8-6.9,11.8-15.3c0-7.3-3.8-14.9-11.8-14.9 C13.1,17.5,9.2,24.8,9.2,32.8z"/><path fill="#FFFFFF" d="M62.7,43.8c0,2.7,0.1,5.1,0.2,7.2h-4.3l-0.3-4.3h-0.1c-1.3,2.1-4,4.9-8.8,4.9c-4.2,0-9.1-2.3-9.1-11.6 V24.6h4.8v14.6c0,5,1.5,8.4,5.9,8.4c3.2,0,5.5-2.2,6.3-4.4c0.3-0.7,0.4-1.6,0.4-2.5V24.6h4.8V43.8z"/><path fill="#FFFFFF" d="M67.3,32.8c0-3.1-0.1-5.8-0.2-8.2h4.2l0.2,5.2h0.2c1.2-3.5,4.1-5.8,7.3-5.8c0.5,0,0.9,0.1,1.4,0.2v4.5 c-0.5-0.1-1-0.2-1.6-0.2c-3.4,0-5.8,2.6-6.5,6.2c-0.1,0.7-0.2,1.4-0.2,2.2V51h-4.8V32.8z"/><path fill="#FFFFFF" d="M95.4,51l-9.4-36.8h5l4.4,18.6c1.1,4.6,2.1,9.2,2.7,12.7h0.1c0.6-3.7,1.8-8,3-12.8l4.9-18.5h5l4.5,18.7 c1,4.4,2,8.7,2.6,12.6h0.1c0.8-4,1.8-8.1,3-12.7l4.9-18.5h4.9L120.6,51h-5L111,31.9c-1.1-4.7-1.9-8.3-2.4-12h-0.1 c-0.7,3.7-1.5,7.3-2.8,12L100.4,51H95.4z"/><path fill="#FFFFFF" d="M154.9,37.6c0,9.8-6.8,14-13.2,14c-7.2,0-12.7-5.2-12.7-13.6c0-8.8,5.8-14,13.1-14 C149.8,24,154.9,29.5,154.9,37.6z M133.9,37.9c0,5.8,3.3,10.1,8,10.1c4.6,0,8-4.3,8-10.3c0-4.5-2.2-10.1-7.9-10.1 C136.3,27.6,133.9,32.8,133.9,37.9z"/><path fill="#FFFFFF" d="M158.2,32.8c0-3.1-0.1-5.8-0.2-8.2h4.2l0.2,5.2h0.2c1.2-3.5,4.1-5.8,7.3-5.8c0.5,0,0.9,0.1,1.4,0.2v4.5 c-0.5-0.1-1-0.2-1.6-0.2c-3.4,0-5.8,2.6-6.5,6.2c-0.1,0.7-0.2,1.4-0.2,2.2V51h-4.8V32.8z"/><path fill="#FFFFFF" d="M173.5,12.3h4.8V51h-4.8V12.3z"/><path fill="#FFFFFF" d="M206.5,12.3v31.9c0,2.3,0.1,5,0.2,6.8h-4.3l-0.2-4.6H202c-1.5,2.9-4.7,5.2-9,5.2 c-6.4,0-11.3-5.4-11.3-13.4c-0.1-8.8,5.4-14.2,11.9-14.2c4,0,6.8,1.9,8,4h0.1V12.3H206.5z M201.7,35.4c0-0.6-0.1-1.4-0.2-2 c-0.7-3.1-3.3-5.6-6.9-5.6c-5,0-7.9,4.4-7.9,10.2c0,5.3,2.6,9.8,7.8,9.8c3.2,0,6.2-2.1,7.1-5.7c0.2-0.7,0.2-1.3,0.2-2.1V35.4z"/><path fill="#FFFFFF" d="M42.8,64c0.1,1.6-1.1,2.9-3.1,2.9c-1.7,0-2.9-1.3-2.9-2.9c0-1.7,1.3-3,3-3C41.7,61,42.8,62.3,42.8,64z M37.4,97.8V71.4h4.8v26.4H37.4z"/><path fill="#FFFFFF" d="M47.5,78.6c0-2.7-0.1-5-0.2-7.1h4.3l0.3,4.4h0.1c1.3-2.5,4.4-5,8.8-5c3.7,0,9.4,2.2,9.4,11.2v15.8h-4.8 V82.6c0-4.3-1.6-7.8-6.1-7.8c-3.2,0-5.6,2.2-6.5,4.9c-0.2,0.6-0.3,1.4-0.3,2.2v15.9h-4.8V78.6z"/><path fill="#FFFFFF" d="M84,61.6c2.9-0.4,6.3-0.8,10.1-0.8c6.8,0,11.7,1.6,14.9,4.6c3.3,3,5.2,7.3,5.2,13.2c0,6-1.9,10.9-5.3,14.3 c-3.4,3.4-9.1,5.3-16.3,5.3c-3.4,0-6.2-0.2-8.6-0.4V61.6z M88.8,94.1c1.2,0.2,3,0.3,4.8,0.3c10.2,0,15.7-5.7,15.7-15.6 c0.1-8.7-4.9-14.2-14.9-14.2c-2.5,0-4.3,0.2-5.6,0.5V94.1z"/><path fill="#FFFFFF" d="M132.1,97.8l-0.4-3.3h-0.2c-1.5,2.1-4.3,3.9-8.1,3.9c-5.4,0-8.1-3.8-8.1-7.6c0-6.4,5.7-9.9,15.9-9.8v-0.5 c0-2.2-0.6-6.1-6-6.1c-2.5,0-5,0.8-6.9,2l-1.1-3.2c2.2-1.4,5.4-2.3,8.7-2.3c8.1,0,10.1,5.5,10.1,10.8v9.9c0,2.3,0.1,4.5,0.4,6.3 H132.1z M131.4,84.4c-5.3-0.1-11.2,0.8-11.2,5.9c0,3.1,2.1,4.6,4.5,4.6c3.4,0,5.6-2.2,6.4-4.4c0.2-0.5,0.3-1,0.3-1.5V84.4z"/><path fill="#FFFFFF" d="M146.6,63.9v7.6h6.9v3.7h-6.9v14.2c0,3.3,0.9,5.1,3.6,5.1c1.3,0,2.2-0.2,2.8-0.3l0.2,3.6 c-0.9,0.4-2.4,0.7-4.3,0.7c-2.2,0-4-0.7-5.2-2c-1.4-1.4-1.9-3.8-1.9-6.9V75.1h-4.1v-3.7h4.1v-6.3L146.6,63.9z"/><path fill="#FFFFFF" d="M171.4,97.8l-0.4-3.3h-0.2c-1.5,2.1-4.3,3.9-8.1,3.9c-5.4,0-8.1-3.8-8.1-7.6c0-6.4,5.7-9.9,15.9-9.8v-0.5 c0-2.2-0.6-6.1-6-6.1c-2.5,0-5,0.8-6.9,2l-1.1-3.2c2.2-1.4,5.4-2.3,8.7-2.3c8.1,0,10.1,5.5,10.1,10.8v9.9c0,2.3,0.1,4.5,0.4,6.3 H171.4z M170.7,84.4c-5.3-0.1-11.2,0.8-11.2,5.9c0,3.1,2.1,4.6,4.5,4.6c3.4,0,5.6-2.2,6.4-4.4c0.2-0.5,0.3-1,0.3-1.5V84.4z"/></g></g></a></g><a href="https://ourworldindata.org/grapher/global-wild-fishery-catch-by-sector" target="_blank"><text font-size="25.20" x="15.0" y="35.2" fill="#555"><tspan x="15" y="35.160000000000004">Global wild fishery catch by sector</tspan></text></a><text font-size="14.40" x="15.0" y="53.7" fill="#666"><tspan x="15" y="53.72">Breakdown of global wild fishery catch by sector. This relates only to wild fishery catch, and does not include</tspan><tspan x="15" y="69.56">aquaculture (fish farming) production.</tspan></text></g><g class="LineChart"><defs><clipPath id="boundsClip-346"><rect x="87.598" y="0" width="830" height="928.8"></rect></clipPath></defs><g class="AxisBoxView"><g class="HorizontalAxis"><text x="97.6" y="556.5" fill="#666" text-anchor="middle" font-size="16.2">1950</text><text x="180.2" y="556.5" fill="#666" text-anchor="middle" font-size="16.2">1960</text><text x="262.9" y="556.5" fill="#666" text-anchor="middle" font-size="16.2">1970</text><text x="345.5" y="556.5" fill="#666" text-anchor="middle" font-size="16.2">1980</text><text x="428.2" y="556.5" fill="#666" text-anchor="middle" font-size="16.2">1990</text><text x="510.8" y="556.5" fill="#666" text-anchor="middle" font-size="16.2">2000</text><text x="593.5" y="556.5" fill="#666" text-anchor="middle" font-size="16.2">2010</text></g><g class="VerticalAxis"><text x="92.60" y="535.3" fill="#666" dominant-baseline="middle" text-anchor="end" font-size="16.2">0 t</text><text x="92.60" y="436.9" fill="#666" dominant-baseline="middle" text-anchor="end" font-size="16.2">20 million t</text><text x="92.60" y="338.5" fill="#666" dominant-baseline="middle" text-anchor="end" font-size="16.2">40 million t</text><text x="92.60" y="240.1" fill="#666" dominant-baseline="middle" text-anchor="end" font-size="16.2">60 million t</text><text x="92.60" y="141.6" fill="#666" dominant-baseline="middle" text-anchor="end" font-size="16.2">80 million t</text></g><g class="AxisGridLines"><line x1="97.60" y1="535.3" x2="593.45" y2="535.3" stroke="#ccc"></line><line x1="97.60" y1="436.9" x2="593.45" y2="436.9" stroke="#ddd" stroke-dasharray="3,2"></line><line x1="97.60" y1="338.5" x2="593.45" y2="338.5" stroke="#ddd" stroke-dasharray="3,2"></line><line x1="97.60" y1="240.1" x2="593.45" y2="240.1" stroke="#ddd" stroke-dasharray="3,2"></line><line x1="97.60" y1="141.6" x2="593.45" y2="141.6" stroke="#ddd" stroke-dasharray="3,2"></line></g></g><g clip-path="url(#boundsClip-346)"><g class="HeightedLegend clickable"><g class="legendMark"><rect x="593.45" y="167.75" width="241.55" height="13.5" fill="#fff" opacity="0"></rect><text font-size="13.50" x="598.5" y="178.6" fill="#3360a9"><tspan x="598.45" y="178.55">Industrial (large-scale commercial)</tspan></text></g><g class="legendMark"><rect x="593.45" y="422.35" width="240.60500000000002" height="13.5" fill="#fff" opacity="0"></rect><text font-size="13.50" x="598.5" y="433.2" fill="#ca2628"><tspan x="598.45" y="433.15000000000003">Artisanal (small-scale commercial)</tspan></text></g><g class="legendMark"><rect x="593.45" y="481.15" width="87.515" height="13.5" fill="#fff" opacity="0"></rect><text font-size="13.50" x="598.5" y="491.9" fill="#34983f"><tspan x="598.45" y="491.95">Discards</tspan></text></g><g class="legendMark"><rect x="593.45" y="510.75" width="108.845" height="13.5" fill="#fff" opacity="0"></rect><text font-size="13.50" x="598.5" y="521.5" fill="#ffd53e"><tspan x="598.45" y="521.55">Subsistence</tspan></text></g><g class="legendMark"><rect x="593.45" y="524.55" width="111.00500000000001" height="13.5" fill="#fff" opacity="0"></rect><text font-size="13.50" x="598.5" y="535.3" fill="#a652ba"><tspan x="598.45" y="535.3499999999999">Recreational</tspan></text></g></g><g class="Lines"><rect x="98" y="92" width="496" height="443" fill="rgba(255,255,255,0)" opacity="0"></rect><g class="key-World_0"><path stroke="#ca2628" stroke-linecap="round" d="M98 498L106 495L114 495L122 494L131 490L139 488L147 485L155 484L164 485L172 484L180 483L189 482L197 481L205 481L213 480L222 478L230 476L238 474L246 475L255 475L263 475L271 474L279 473L288 468L296 470L304 469L313 468L321 467L329 465L337 463L346 463L354 460L362 460L370 460L379 456L387 455L395 456L403 449L412 450L420 449L428 448L436 448L445 445L453 447L461 443L470 439L478 433L486 435L494 435L503 434L511 438L519 437L527 438L536 434L544 432L552 432L560 430L569 432L577 431L585 428L594 429" fill="none" stroke-width="1.5"></path><g fill="#ca2628"><circle cx="98" cy="498" r="2"></circle><circle cx="106" cy="495" r="2"></circle><circle cx="114" cy="495" r="2"></circle><circle cx="122" cy="494" r="2"></circle><circle cx="131" cy="490" r="2"></circle><circle cx="139" cy="488" r="2"></circle><circle cx="147" cy="485" r="2"></circle><circle cx="155" cy="484" r="2"></circle><circle cx="164" cy="485" r="2"></circle><circle cx="172" cy="484" r="2"></circle><circle cx="180" cy="483" r="2"></circle><circle cx="189" cy="482" r="2"></circle><circle cx="197" cy="481" r="2"></circle><circle cx="205" cy="481" r="2"></circle><circle cx="213" cy="480" r="2"></circle><circle cx="222" cy="478" r="2"></circle><circle cx="230" cy="476" r="2"></circle><circle cx="238" cy="474" r="2"></circle><circle cx="246" cy="475" r="2"></circle><circle cx="255" cy="475" r="2"></circle><circle cx="263" cy="475" r="2"></circle><circle cx="271" cy="474" r="2"></circle><circle cx="279" cy="473" r="2"></circle><circle cx="288" cy="468" r="2"></circle><circle cx="296" cy="470" r="2"></circle><circle cx="304" cy="469" r="2"></circle><circle cx="313" cy="468" r="2"></circle><circle cx="321" cy="467" r="2"></circle><circle cx="329" cy="465" r="2"></circle><circle cx="337" cy="463" r="2"></circle><circle cx="346" cy="463" r="2"></circle><circle cx="354" cy="460" r="2"></circle><circle cx="362" cy="460" r="2"></circle><circle cx="370" cy="460" r="2"></circle><circle cx="379" cy="456" r="2"></circle><circle cx="387" cy="455" r="2"></circle><circle cx="395" cy="456" r="2"></circle><circle cx="403" cy="449" r="2"></circle><circle cx="412" cy="450" r="2"></circle><circle cx="420" cy="449" r="2"></circle><circle cx="428" cy="448" r="2"></circle><circle cx="436" cy="448" r="2"></circle><circle cx="445" cy="445" r="2"></circle><circle cx="453" cy="447" r="2"></circle><circle cx="461" cy="443" r="2"></circle><circle cx="470" cy="439" r="2"></circle><circle cx="478" cy="433" r="2"></circle><circle cx="486" cy="435" r="2"></circle><circle cx="494" cy="435" r="2"></circle><circle cx="503" cy="434" r="2"></circle><circle cx="511" cy="438" r="2"></circle><circle cx="519" cy="437" r="2"></circle><circle cx="527" cy="438" r="2"></circle><circle cx="536" cy="434" r="2"></circle><circle cx="544" cy="432" r="2"></circle><circle cx="552" cy="432" r="2"></circle><circle cx="560" cy="430" r="2"></circle><circle cx="569" cy="432" r="2"></circle><circle cx="577" cy="431" r="2"></circle><circle cx="585" cy="428" r="2"></circle><circle cx="594" cy="429" r="2"></circle></g></g><g class="key-World_1"><path stroke="#34983f" stroke-linecap="round" d="M98 506L106 504L114 500L122 500L131 496L139 494L147 493L155 491L164 490L172 487L180 482L189 478L197 479L205 475L213 472L222 468L230 470L238 469L246 467L255 473L263 473L271 473L279 475L288 476L296 479L304 480L313 481L321 482L329 482L337 483L346 484L354 481L362 474L370 474L379 467L387 463L395 461L403 458L412 456L420 452L428 453L436 454L445 458L453 461L461 464L470 464L478 463L486 465L494 471L503 474L511 476L519 479L527 482L536 482L544 484L552 486L560 488L569 487L577 488L585 489L594 488" fill="none" stroke-width="1.5"></path><g fill="#34983f"><circle cx="98" cy="506" r="2"></circle><circle cx="106" cy="504" r="2"></circle><circle cx="114" cy="500" r="2"></circle><circle cx="122" cy="500" r="2"></circle><circle cx="131" cy="496" r="2"></circle><circle cx="139" cy="494" r="2"></circle><circle cx="147" cy="493" r="2"></circle><circle cx="155" cy="491" r="2"></circle><circle cx="164" cy="490" r="2"></circle><circle cx="172" cy="487" r="2"></circle><circle cx="180" cy="482" r="2"></circle><circle cx="189" cy="478" r="2"></circle><circle cx="197" cy="479" r="2"></circle><circle cx="205" cy="475" r="2"></circle><circle cx="213" cy="472" r="2"></circle><circle cx="222" cy="468" r="2"></circle><circle cx="230" cy="470" r="2"></circle><circle cx="238" cy="469" r="2"></circle><circle cx="246" cy="467" r="2"></circle><circle cx="255" cy="473" r="2"></circle><circle cx="263" cy="473" r="2"></circle><circle cx="271" cy="473" r="2"></circle><circle cx="279" cy="475" r="2"></circle><circle cx="288" cy="476" r="2"></circle><circle cx="296" cy="479" r="2"></circle><circle cx="304" cy="480" r="2"></circle><circle cx="313" cy="481" r="2"></circle><circle cx="321" cy="482" r="2"></circle><circle cx="329" cy="482" r="2"></circle><circle cx="337" cy="483" r="2"></circle><circle cx="346" cy="484" r="2"></circle><circle cx="354" cy="481" r="2"></circle><circle cx="362" cy="474" r="2"></circle><circle cx="370" cy="474" r="2"></circle><circle cx="379" cy="467" r="2"></circle><circle cx="387" cy="463" r="2"></circle><circle cx="395" cy="461" r="2"></circle><circle cx="403" cy="458" r="2"></circle><circle cx="412" cy="456" r="2"></circle><circle cx="420" cy="452" r="2"></circle><circle cx="428" cy="453" r="2"></circle><circle cx="436" cy="454" r="2"></circle><circle cx="445" cy="458" r="2"></circle><circle cx="453" cy="461" r="2"></circle><circle cx="461" cy="464" r="2"></circle><circle cx="470" cy="464" r="2"></circle><circle cx="478" cy="463" r="2"></circle><circle cx="486" cy="465" r="2"></circle><circle cx="494" cy="471" r="2"></circle><circle cx="503" cy="474" r="2"></circle><circle cx="511" cy="476" r="2"></circle><circle cx="519" cy="479" r="2"></circle><circle cx="527" cy="482" r="2"></circle><circle cx="536" cy="482" r="2"></circle><circle cx="544" cy="484" r="2"></circle><circle cx="552" cy="486" r="2"></circle><circle cx="560" cy="488" r="2"></circle><circle cx="569" cy="487" r="2"></circle><circle cx="577" cy="488" r="2"></circle><circle cx="585" cy="489" r="2"></circle><circle cx="594" cy="488" r="2"></circle></g></g><g class="key-World_2"><path stroke="#3360a9" stroke-linecap="round" d="M98 464L106 459L114 454L122 451L131 445L139 443L147 437L155 437L164 434L172 420L180 408L189 385L197 370L205 358L213 331L222 336L230 315L238 290L246 262L255 276L263 246L271 249L279 281L288 283L296 256L304 261L313 245L321 244L329 227L337 239L346 238L354 228L362 203L370 212L379 188L387 174L395 149L403 143L412 126L420 121L428 139L436 144L445 133L453 128L461 100L470 104L478 92L486 101L494 144L503 118L511 105L519 121L527 120L536 137L544 113L552 123L560 149L569 147L577 157L585 163L594 175" fill="none" stroke-width="1.5"></path><g fill="#3360a9"><circle cx="98" cy="464" r="2"></circle><circle cx="106" cy="459" r="2"></circle><circle cx="114" cy="454" r="2"></circle><circle cx="122" cy="451" r="2"></circle><circle cx="131" cy="445" r="2"></circle><circle cx="139" cy="443" r="2"></circle><circle cx="147" cy="437" r="2"></circle><circle cx="155" cy="437" r="2"></circle><circle cx="164" cy="434" r="2"></circle><circle cx="172" cy="420" r="2"></circle><circle cx="180" cy="408" r="2"></circle><circle cx="189" cy="385" r="2"></circle><circle cx="197" cy="370" r="2"></circle><circle cx="205" cy="358" r="2"></circle><circle cx="213" cy="331" r="2"></circle><circle cx="222" cy="336" r="2"></circle><circle cx="230" cy="315" r="2"></circle><circle cx="238" cy="290" r="2"></circle><circle cx="246" cy="262" r="2"></circle><circle cx="255" cy="276" r="2"></circle><circle cx="263" cy="246" r="2"></circle><circle cx="271" cy="249" r="2"></circle><circle cx="279" cy="281" r="2"></circle><circle cx="288" cy="283" r="2"></circle><circle cx="296" cy="256" r="2"></circle><circle cx="304" cy="261" r="2"></circle><circle cx="313" cy="245" r="2"></circle><circle cx="321" cy="244" r="2"></circle><circle cx="329" cy="227" r="2"></circle><circle cx="337" cy="239" r="2"></circle><circle cx="346" cy="238" r="2"></circle><circle cx="354" cy="228" r="2"></circle><circle cx="362" cy="203" r="2"></circle><circle cx="370" cy="212" r="2"></circle><circle cx="379" cy="188" r="2"></circle><circle cx="387" cy="174" r="2"></circle><circle cx="395" cy="149" r="2"></circle><circle cx="403" cy="143" r="2"></circle><circle cx="412" cy="126" r="2"></circle><circle cx="420" cy="121" r="2"></circle><circle cx="428" cy="139" r="2"></circle><circle cx="436" cy="144" r="2"></circle><circle cx="445" cy="133" r="2"></circle><circle cx="453" cy="128" r="2"></circle><circle cx="461" cy="100" r="2"></circle><circle cx="470" cy="104" r="2"></circle><circle cx="478" cy="92" r="2"></circle><circle cx="486" cy="101" r="2"></circle><circle cx="494" cy="144" r="2"></circle><circle cx="503" cy="118" r="2"></circle><circle cx="511" cy="105" r="2"></circle><circle cx="519" cy="121" r="2"></circle><circle cx="527" cy="120" r="2"></circle><circle cx="536" cy="137" r="2"></circle><circle cx="544" cy="113" r="2"></circle><circle cx="552" cy="123" r="2"></circle><circle cx="560" cy="149" r="2"></circle><circle cx="569" cy="147" r="2"></circle><circle cx="577" cy="157" r="2"></circle><circle cx="585" cy="163" r="2"></circle><circle cx="594" cy="175" r="2"></circle></g></g><g class="key-World_3"><path stroke="#a652ba" stroke-linecap="round" d="M98 534L106 534L114 534L122 534L131 534L139 534L147 534L155 534L164 534L172 534L180 534L189 534L197 533L205 533L213 533L222 533L230 533L238 533L246 533L255 533L263 533L271 533L279 533L288 533L296 532L304 532L313 532L321 532L329 532L337 532L346 532L354 532L362 531L370 531L379 531L387 531L395 531L403 532L412 532L420 532L428 532L436 532L445 532L453 532L461 532L470 532L478 532L486 532L494 532L503 532L511 532L519 532L527 532L536 532L544 532L552 532L560 531L569 531L577 531L585 531L594 531" fill="none" stroke-width="1.5"></path><g fill="#a652ba"><circle cx="98" cy="534" r="2"></circle><circle cx="106" cy="534" r="2"></circle><circle cx="114" cy="534" r="2"></circle><circle cx="122" cy="534" r="2"></circle><circle cx="131" cy="534" r="2"></circle><circle cx="139" cy="534" r="2"></circle><circle cx="147" cy="534" r="2"></circle><circle cx="155" cy="534" r="2"></circle><circle cx="164" cy="534" r="2"></circle><circle cx="172" cy="534" r="2"></circle><circle cx="180" cy="534" r="2"></circle><circle cx="189" cy="534" r="2"></circle><circle cx="197" cy="533" r="2"></circle><circle cx="205" cy="533" r="2"></circle><circle cx="213" cy="533" r="2"></circle><circle cx="222" cy="533" r="2"></circle><circle cx="230" cy="533" r="2"></circle><circle cx="238" cy="533" r="2"></circle><circle cx="246" cy="533" r="2"></circle><circle cx="255" cy="533" r="2"></circle><circle cx="263" cy="533" r="2"></circle><circle cx="271" cy="533" r="2"></circle><circle cx="279" cy="533" r="2"></circle><circle cx="288" cy="533" r="2"></circle><circle cx="296" cy="532" r="2"></circle><circle cx="304" cy="532" r="2"></circle><circle cx="313" cy="532" r="2"></circle><circle cx="321" cy="532" r="2"></circle><circle cx="329" cy="532" r="2"></circle><circle cx="337" cy="532" r="2"></circle><circle cx="346" cy="532" r="2"></circle><circle cx="354" cy="532" r="2"></circle><circle cx="362" cy="531" r="2"></circle><circle cx="370" cy="531" r="2"></circle><circle cx="379" cy="531" r="2"></circle><circle cx="387" cy="531" r="2"></circle><circle cx="395" cy="531" r="2"></circle><circle cx="403" cy="532" r="2"></circle><circle cx="412" cy="532" r="2"></circle><circle cx="420" cy="532" r="2"></circle><circle cx="428" cy="532" r="2"></circle><circle cx="436" cy="532" r="2"></circle><circle cx="445" cy="532" r="2"></circle><circle cx="453" cy="532" r="2"></circle><circle cx="461" cy="532" r="2"></circle><circle cx="470" cy="532" r="2"></circle><circle cx="478" cy="532" r="2"></circle><circle cx="486" cy="532" r="2"></circle><circle cx="494" cy="532" r="2"></circle><circle cx="503" cy="532" r="2"></circle><circle cx="511" cy="532" r="2"></circle><circle cx="519" cy="532" r="2"></circle><circle cx="527" cy="532" r="2"></circle><circle cx="536" cy="532" r="2"></circle><circle cx="544" cy="532" r="2"></circle><circle cx="552" cy="532" r="2"></circle><circle cx="560" cy="531" r="2"></circle><circle cx="569" cy="531" r="2"></circle><circle cx="577" cy="531" r="2"></circle><circle cx="585" cy="531" r="2"></circle><circle cx="594" cy="531" r="2"></circle></g></g><g class="key-World_4"><path stroke="#ffd53e" stroke-linecap="round" d="M98 522L106 522L114 522L122 522L131 521L139 521L147 520L155 520L164 520L172 519L180 518L189 518L197 517L205 517L213 516L222 516L230 516L238 516L246 516L255 516L263 516L271 516L279 516L288 516L296 516L304 517L313 516L321 515L329 516L337 516L346 516L354 516L362 515L370 515L379 515L387 515L395 515L403 515L412 515L420 515L428 515L436 515L445 515L453 515L461 515L470 515L478 515L486 515L494 516L503 515L511 515L519 516L527 516L536 516L544 517L552 517L560 517L569 518L577 517L585 517L594 518" fill="none" stroke-width="1.5"></path><g fill="#ffd53e"><circle cx="98" cy="522" r="2"></circle><circle cx="106" cy="522" r="2"></circle><circle cx="114" cy="522" r="2"></circle><circle cx="122" cy="522" r="2"></circle><circle cx="131" cy="521" r="2"></circle><circle cx="139" cy="521" r="2"></circle><circle cx="147" cy="520" r="2"></circle><circle cx="155" cy="520" r="2"></circle><circle cx="164" cy="520" r="2"></circle><circle cx="172" cy="519" r="2"></circle><circle cx="180" cy="518" r="2"></circle><circle cx="189" cy="518" r="2"></circle><circle cx="197" cy="517" r="2"></circle><circle cx="205" cy="517" r="2"></circle><circle cx="213" cy="516" r="2"></circle><circle cx="222" cy="516" r="2"></circle><circle cx="230" cy="516" r="2"></circle><circle cx="238" cy="516" r="2"></circle><circle cx="246" cy="516" r="2"></circle><circle cx="255" cy="516" r="2"></circle><circle cx="263" cy="516" r="2"></circle><circle cx="271" cy="516" r="2"></circle><circle cx="279" cy="516" r="2"></circle><circle cx="288" cy="516" r="2"></circle><circle cx="296" cy="516" r="2"></circle><circle cx="304" cy="517" r="2"></circle><circle cx="313" cy="516" r="2"></circle><circle cx="321" cy="515" r="2"></circle><circle cx="329" cy="516" r="2"></circle><circle cx="337" cy="516" r="2"></circle><circle cx="346" cy="516" r="2"></circle><circle cx="354" cy="516" r="2"></circle><circle cx="362" cy="515" r="2"></circle><circle cx="370" cy="515" r="2"></circle><circle cx="379" cy="515" r="2"></circle><circle cx="387" cy="515" r="2"></circle><circle cx="395" cy="515" r="2"></circle><circle cx="403" cy="515" r="2"></circle><circle cx="412" cy="515" r="2"></circle><circle cx="420" cy="515" r="2"></circle><circle cx="428" cy="515" r="2"></circle><circle cx="436" cy="515" r="2"></circle><circle cx="445" cy="515" r="2"></circle><circle cx="453" cy="515" r="2"></circle><circle cx="461" cy="515" r="2"></circle><circle cx="470" cy="515" r="2"></circle><circle cx="478" cy="515" r="2"></circle><circle cx="486" cy="515" r="2"></circle><circle cx="494" cy="516" r="2"></circle><circle cx="503" cy="515" r="2"></circle><circle cx="511" cy="515" r="2"></circle><circle cx="519" cy="516" r="2"></circle><circle cx="527" cy="516" r="2"></circle><circle cx="536" cy="516" r="2"></circle><circle cx="544" cy="517" r="2"></circle><circle cx="552" cy="517" r="2"></circle><circle cx="560" cy="517" r="2"></circle><circle cx="569" cy="518" r="2"></circle><circle cx="577" cy="517" r="2"></circle><circle cx="585" cy="517" r="2"></circle><circle cx="594" cy="518" r="2"></circle></g></g></g></g></g><g class="SourcesFooter" style="fill:#777"><g class="clickable" style="fill:#777"><text font-size="12.60" x="15.0" y="581.6"><tspan x="15" y="581.58">Source: Pauly and Zeller (2016)</tspan></text></g><text font-size="12.60" x="775.4" y="581.6"><tspan x="775.402" y="581.58"><a style="fill: #777;" class="cclogo" href="http://creativecommons.org/licenses/by-sa/4.0/deed.en_US" target="_blank">CC BY-SA</a></tspan></text></g></g></svg>