<svg xmlns="http://www.w3.org/2000/svg" version="1.1" style="font-family:&#x27;Helvetica Neue&#x27;, Helvetica, Arial, sans-serif;font-size:18px;background-color:white;text-rendering:optimizeLegibility;-webkit-font-smoothing:antialiased" width="850" height="600"><g class="ChartTab"><g class="HeaderView"><g opacity="0.8" transform="translate(778, 15) scale(0.27)"><a xmlns:xlink="http://www.w3.org/1999/xlink" xlink:href="https://ourworldindata.org" target="_blank"><g><rect x="0" y="0" fill="#1B2543" width="211.2" height="130.1"/><rect x="0" y="112.2" fill="#E63912" width="211.2" height="17.9"/><g><rect x="1.2" y="12.3" fill="none" width="210.2" height="99.2"/><path fill="#FFFFFF" d="M37.8,32.2c0,12.7-7.7,19.4-17.1,19.4c-9.7,0-16.6-7.5-16.6-18.7c0-11.7,7.3-19.3,17.1-19.3 C31.3,13.7,37.8,21.3,37.8,32.2z M9.2,32.8c0,7.9,4.3,14.9,11.8,14.9c7.5,0,11.8-6.9,11.8-15.3c0-7.3-3.8-14.9-11.8-14.9 C13.1,17.5,9.2,24.8,9.2,32.8z"/><path fill="#FFFFFF" d="M62.7,43.8c0,2.7,0.1,5.1,0.2,7.2h-4.3l-0.3-4.3h-0.1c-1.3,2.1-4,4.9-8.8,4.9c-4.2,0-9.1-2.3-9.1-11.6 V24.6h4.8v14.6c0,5,1.5,8.4,5.9,8.4c3.2,0,5.5-2.2,6.3-4.4c0.3-0.7,0.4-1.6,0.4-2.5V24.6h4.8V43.8z"/><path fill="#FFFFFF" d="M67.3,32.8c0-3.1-0.1-5.8-0.2-8.2h4.2l0.2,5.2h0.2c1.2-3.5,4.1-5.8,7.3-5.8c0.5,0,0.9,0.1,1.4,0.2v4.5 c-0.5-0.1-1-0.2-1.6-0.2c-3.4,0-5.8,2.6-6.5,6.2c-0.1,0.7-0.2,1.4-0.2,2.2V51h-4.8V32.8z"/><path fill="#FFFFFF" d="M95.4,51l-9.4-36.8h5l4.4,18.6c1.1,4.6,2.1,9.2,2.7,12.7h0.1c0.6-3.7,1.8-8,3-12.8l4.9-18.5h5l4.5,18.7 c1,4.4,2,8.7,2.6,12.6h0.1c0.8-4,1.8-8.1,3-12.7l4.9-18.5h4.9L120.6,51h-5L111,31.9c-1.1-4.7-1.9-8.3-2.4-12h-0.1 c-0.7,3.7-1.5,7.3-2.8,12L100.4,51H95.4z"/><path fill="#FFFFFF" d="M154.9,37.6c0,9.8-6.8,14-13.2,14c-7.2,0-12.7-5.2-12.7-13.6c0-8.8,5.8-14,13.1-14 C149.8,24,154.9,29.5,154.9,37.6z M133.9,37.9c0,5.8,3.3,10.1,8,10.1c4.6,0,8-4.3,8-10.3c0-4.5-2.2-10.1-7.9-10.1 C136.3,27.6,133.9,32.8,133.9,37.9z"/><path fill="#FFFFFF" d="M158.2,32.8c0-3.1-0.1-5.8-0.2-8.2h4.2l0.2,5.2h0.2c1.2-3.5,4.1-5.8,7.3-5.8c0.5,0,0.9,0.1,1.4,0.2v4.5 c-0.5-0.1-1-0.2-1.6-0.2c-3.4,0-5.8,2.6-6.5,6.2c-0.1,0.7-0.2,1.4-0.2,2.2V51h-4.8V32.8z"/><path fill="#FFFFFF" d="M173.5,12.3h4.8V51h-4.8V12.3z"/><path fill="#FFFFFF" d="M206.5,12.3v31.9c0,2.3,0.1,5,0.2,6.8h-4.3l-0.2-4.6H202c-1.5,2.9-4.7,5.2-9,5.2 c-6.4,0-11.3-5.4-11.3-13.4c-0.1-8.8,5.4-14.2,11.9-14.2c4,0,6.8,1.9,8,4h0.1V12.3H206.5z M201.7,35.4c0-0.6-0.1-1.4-0.2-2 c-0.7-3.1-3.3-5.6-6.9-5.6c-5,0-7.9,4.4-7.9,10.2c0,5.3,2.6,9.8,7.8,9.8c3.2,0,6.2-2.1,7.1-5.7c0.2-0.7,0.2-1.3,0.2-2.1V35.4z"/><path fill="#FFFFFF" d="M42.8,64c0.1,1.6-1.1,2.9-3.1,2.9c-1.7,0-2.9-1.3-2.9-2.9c0-1.7,1.3-3,3-3C41.7,61,42.8,62.3,42.8,64z M37.4,97.8V71.4h4.8v26.4H37.4z"/><path fill="#FFFFFF" d="M47.5,78.6c0-2.7-0.1-5-0.2-7.1h4.3l0.3,4.4h0.1c1.3-2.5,4.4-5,8.8-5c3.7,0,9.4,2.2,9.4,11.2v15.8h-4.8 V82.6c0-4.3-1.6-7.8-6.1-7.8c-3.2,0-5.6,2.2-6.5,4.9c-0.2,0.6-0.3,1.4-0.3,2.2v15.9h-4.8V78.6z"/><path fill="#FFFFFF" d="M84,61.6c2.9-0.4,6.3-0.8,10.1-0.8c6.8,0,11.7,1.6,14.9,4.6c3.3,3,5.2,7.3,5.2,13.2c0,6-1.9,10.9-5.3,14.3 c-3.4,3.4-9.1,5.3-16.3,5.3c-3.4,0-6.2-0.2-8.6-0.4V61.6z M88.8,94.1c1.2,0.2,3,0.3,4.8,0.3c10.2,0,15.7-5.7,15.7-15.6 c0.1-8.7-4.9-14.2-14.9-14.2c-2.5,0-4.3,0.2-5.6,0.5V94.1z"/><path fill="#FFFFFF" d="M132.1,97.8l-0.4-3.3h-0.2c-1.5,2.1-4.3,3.9-8.1,3.9c-5.4,0-8.1-3.8-8.1-7.6c0-6.4,5.7-9.9,15.9-9.8v-0.5 c0-2.2-0.6-6.1-6-6.1c-2.5,0-5,0.8-6.9,2l-1.1-3.2c2.2-1.4,5.4-2.3,8.7-2.3c8.1,0,10.1,5.5,10.1,10.8v9.9c0,2.3,0.1,4.5,0.4,6.3 H132.1z M131.4,84.4c-5.3-0.1-11.2,0.8-11.2,5.9c0,3.1,2.1,4.6,4.5,4.6c3.4,0,5.6-2.2,6.4-4.4c0.2-0.5,0.3-1,0.3-1.5V84.4z"/><path fill="#FFFFFF" d="M146.6,63.9v7.6h6.9v3.7h-6.9v14.2c0,3.3,0.9,5.1,3.6,5.1c1.3,0,2.2-0.2,2.8-0.3l0.2,3.6 c-0.9,0.4-2.4,0.7-4.3,0.7c-2.2,0-4-0.7-5.2-2c-1.4-1.4-1.9-3.8-1.9-6.9V75.1h-4.1v-3.7h4.1v-6.3L146.6,63.9z"/><path fill="#FFFFFF" d="M171.4,97.8l-0.4-3.3h-0.2c-1.5,2.1-4.3,3.9-8.1,3.9c-5.4,0-8.1-3.8-8.1-7.6c0-6.4,5.7-9.9,15.9-9.8v-0.5 c0-2.2-0.6-6.1-6-6.1c-2.5,0-5,0.8-6.9,2l-1.1-3.2c2.2-1.4,5.4-2.3,8.7-2.3c8.1,0,10.1,5.5,10.1,10.8v9.9c0,2.3,0.1,4.5,0.4,6.3 H171.4z M170.7,84.4c-5.3-0.1-11.2,0.8-11.2,5.9c0,3.1,2.1,4.6,4.5,4.6c3.4,0,5.6-2.2,6.4-4.4c0.2-0.5,0.3-1,0.3-1.5V84.4z"/></g></g></a></g><a href="https://ourworldindata.org/grapher/global-fossil-fuel-consumption" target="_blank"><text font-size="25.20" x="15.0" y="35.2" fill="#555"><tspan x="15" y="35.160000000000004">Global fossil fuel consumption</tspan></text></a><text font-size="14.40" x="15.0" y="53.7" fill="#666"><tspan x="15" y="53.72">Global primary energy consumption by fossil fuel source, measured in terawatt-hours (TWh).</tspan></text></g><g class="StackedArea"><defs><clipPath id="boundsClip-349"><rect x="117.686" y="0" width="820" height="930.5999999999999"></rect></clipPath></defs><g class="AxisBoxView"><g class="HorizontalAxis"><text x="117.7" y="541.9" fill="#666" text-anchor="middle" font-size="16.2">1800</text><text x="258.9" y="541.9" fill="#666" text-anchor="middle" font-size="16.2">1850</text><text x="400.2" y="541.9" fill="#666" text-anchor="middle" font-size="16.2">1900</text><text x="541.5" y="541.9" fill="#666" text-anchor="middle" font-size="16.2">1950</text><text x="682.7" y="541.9" fill="#666" text-anchor="middle" font-size="16.2">2000</text><text x="730.7" y="541.9" fill="#666" text-anchor="middle" font-size="16.2">2017</text></g><g class="VerticalAxis"><text x="112.69" y="520.7" fill="#666" dominant-baseline="middle" text-anchor="end" font-size="16.2">0 TWh</text><text x="112.69" y="454.3" fill="#666" dominant-baseline="middle" text-anchor="end" font-size="16.2">20,000 TWh</text><text x="112.69" y="388" fill="#666" dominant-baseline="middle" text-anchor="end" font-size="16.2">40,000 TWh</text><text x="112.69" y="321.6" fill="#666" dominant-baseline="middle" text-anchor="end" font-size="16.2">60,000 TWh</text><text x="112.69" y="255.3" fill="#666" dominant-baseline="middle" text-anchor="end" font-size="16.2">80,000 TWh</text><text x="112.69" y="188.9" fill="#666" dominant-baseline="middle" text-anchor="end" font-size="16.2">100,000 TWh</text><text x="112.69" y="122.6" fill="#666" dominant-baseline="middle" text-anchor="end" font-size="16.2">120,000 TWh</text></g><g class="AxisGridLines"><line x1="117.69" y1="520.7" x2="730.75" y2="520.7" stroke="#ccc"></line><line x1="117.69" y1="454.3" x2="730.75" y2="454.3" stroke="#ddd" stroke-dasharray="3,2"></line><line x1="117.69" y1="388" x2="730.75" y2="388" stroke="#ddd" stroke-dasharray="3,2"></line><line x1="117.69" y1="321.6" x2="730.75" y2="321.6" stroke="#ddd" stroke-dasharray="3,2"></line><line x1="117.69" y1="255.3" x2="730.75" y2="255.3" stroke="#ddd" stroke-dasharray="3,2"></line><line x1="117.69" y1="188.9" x2="730.75" y2="188.9" stroke="#ddd" stroke-dasharray="3,2"></line><line x1="117.69" y1="122.6" x2="730.75" y2="122.6" stroke="#ddd" stroke-dasharray="3,2"></line></g></g><g clip-path="url(#boundsClip-349)"><g class="HeightedLegend clickable"><g class="legendMark"><rect x="730.745" y="130.75" width="104.25500000000001" height="13.5" fill="#fff" opacity="0"></rect><text font-size="13.50" x="735.7" y="141.6" fill="#2a939b"><tspan x="735.745" y="141.55">Natural gas</tspan></text></g><g class="legendMark"><rect x="730.745" y="280.75" width="89.135" height="13.5" fill="#fff" opacity="0"></rect><text font-size="13.50" x="735.7" y="291.6" fill="#ed6c2d"><tspan x="735.745" y="291.55">Crude oil</tspan></text></g><g class="legendMark"><rect x="730.745" y="441.95" width="62.81" height="13.5" fill="#fff" opacity="0"></rect><text font-size="13.50" x="735.7" y="452.8" fill="#818282"><tspan x="735.745" y="452.75">Coal</tspan></text></g></g><g class="Areas"><rect x="117.686" y="76.6" width="613.059" height="444.0999999999999" opacity="0" fill="rgba(255,255,255,0)"></rect><path class="World_0-area" stroke-linecap="round" d="M117.7 520.4L145.9 520.3L174.2 520.2L202.4 519.8L230.7 519.5L258.9 518.8L287.2 517.2L315.4 515.3L343.7 512.3L372 507.9L400.2 501.7L428.5 492L456.7 488.1L485 487.1L513.2 482.3L541.5 478.9L569.7 469.5L583.8 467.1L586.7 466.5L589.5 467.4L592.3 466.6L595.1 464.9L598 464.1L600.8 464.4L603.6 463.8L606.4 462.1L609.3 462L612.1 460.9L614.9 458.7L617.7 456.9L620.6 456.1L623.4 453.2L626.2 451.5L629 450.5L631.9 449.8L634.7 447.6L637.5 444.4L640.3 441.4L643.2 440.5L646 437.3L648.8 434.8L651.6 433.9L654.5 434.9L657.3 435.9L660.1 436.2L662.9 435.8L665.8 435.3L668.6 434.9L671.4 432.7L674.2 432.6L677.1 433.3L679.9 432.8L682.7 429.8L685.5 428.3L688.4 424.7L691.2 416.3L694 409L696.8 400.9L699.7 394.7L702.5 387.5L705.3 385.6L708.1 387.7L711 381.6L713.8 374.9L716.6 374.3L719.4 371.6L722.3 371.7L725.1 375.4L727.9 377.7L730.7 376.7L730.745 520.6999999999999L117.686 520.6999999999999" fill="#818282" fill-opacity="0.7"></path><path class="World_1-area" stroke-linecap="round" d="M117.7 520.4L145.9 520.3L174.2 520.2L202.4 519.8L230.7 519.5L258.9 518.8L287.2 517.2L315.4 515.2L343.7 512.2L372 507.6L400.2 501.1L428.5 490.7L456.7 485.1L485 481.3L513.2 473.5L541.5 460.8L569.7 432.6L583.8 407.2L586.7 402L589.5 398.3L592.3 391.6L595.1 383.5L598 375.7L600.8 370.7L603.6 362.9L606.4 353.3L609.3 354.9L612.1 354.8L614.9 345.7L617.7 340L620.6 335.5L623.4 330.5L626.2 333.7L629 337L631.9 339.7L634.7 338.1L637.5 332.4L640.3 329.3L643.2 324.9L646 319.4L648.8 312.9L651.6 310L654.5 309.7L657.3 310.6L660.1 308.7L662.9 309.2L665.8 305.9L668.6 303.6L671.4 298.4L674.2 294.8L677.1 294.7L679.9 291.8L682.7 287L685.5 284.2L688.4 279.4L691.2 267.6L694 254.7L696.8 244.5L699.7 236.3L702.5 226.7L705.3 225.5L708.1 230.4L711 219.2L713.8 210.8L716.6 208.2L719.4 203.3L722.3 202.1L725.1 202.7L727.9 201.8L730.7 198.4L730.7 376.7L727.9 377.7L725.1 375.4L722.3 371.7L719.4 371.6L716.6 374.3L713.8 374.9L711 381.6L708.1 387.7L705.3 385.6L702.5 387.5L699.7 394.7L696.8 400.9L694 409L691.2 416.3L688.4 424.7L685.5 428.3L682.7 429.8L679.9 432.8L677.1 433.3L674.2 432.6L671.4 432.7L668.6 434.9L665.8 435.3L662.9 435.8L660.1 436.2L657.3 435.9L654.5 434.9L651.6 433.9L648.8 434.8L646 437.3L643.2 440.5L640.3 441.4L637.5 444.4L634.7 447.6L631.9 449.8L629 450.5L626.2 451.5L623.4 453.2L620.6 456.1L617.7 456.9L614.9 458.7L612.1 460.9L609.3 462L606.4 462.1L603.6 463.8L600.8 464.4L598 464.1L595.1 464.9L592.3 466.6L589.5 467.4L586.7 466.5L583.8 467.1L569.7 469.5L541.5 478.9L513.2 482.3L485 487.1L456.7 488.1L428.5 492L400.2 501.7L372 507.9L343.7 512.3L315.4 515.3L287.2 517.2L258.9 518.8L230.7 519.5L202.4 519.8L174.2 520.2L145.9 520.3L117.7 520.4" fill="#ed6c2d" fill-opacity="0.7"></path><path class="World_2-area" stroke-linecap="round" d="M117.7 520.4L145.9 520.3L174.2 520.2L202.4 519.8L230.7 519.5L258.9 518.8L287.2 517.2L315.4 515.2L343.7 512.2L372 507.5L400.2 500.9L428.5 490.2L456.7 484.4L485 479.3L513.2 470.6L541.5 453.9L569.7 417.8L583.8 386.3L586.7 379.2L589.5 373.8L592.3 364.9L595.1 354.2L598 343.8L600.8 336.6L603.6 326.9L606.4 315.6L609.3 316.2L612.1 316.1L614.9 304.7L617.7 297.7L620.6 291.4L623.4 283.7L626.2 286.5L629 289.2L631.9 291.7L634.7 289.4L637.5 279.6L640.3 275.3L643.2 270.5L646 262L648.8 252.9L651.6 247.3L654.5 245.1L657.3 244.3L660.1 242.1L662.9 241.9L665.8 238.2L668.6 233.6L671.4 225L674.2 221.5L677.1 220.1L679.9 215.1L682.7 207.3L685.5 203.4L688.4 196.1L691.2 182.1L694 166L696.8 153.2L699.7 142.3L702.5 128.5L705.3 124.9L708.1 132.6L711 113.8L713.8 103.3L716.6 97.8L719.4 91.5L722.3 89.3L725.1 87.5L727.9 83.3L730.7 76.6L730.7 198.4L727.9 201.8L725.1 202.7L722.3 202.1L719.4 203.3L716.6 208.2L713.8 210.8L711 219.2L708.1 230.4L705.3 225.5L702.5 226.7L699.7 236.3L696.8 244.5L694 254.7L691.2 267.6L688.4 279.4L685.5 284.2L682.7 287L679.9 291.8L677.1 294.7L674.2 294.8L671.4 298.4L668.6 303.6L665.8 305.9L662.9 309.2L660.1 308.7L657.3 310.6L654.5 309.7L651.6 310L648.8 312.9L646 319.4L643.2 324.9L640.3 329.3L637.5 332.4L634.7 338.1L631.9 339.7L629 337L626.2 333.7L623.4 330.5L620.6 335.5L617.7 340L614.9 345.7L612.1 354.8L609.3 354.9L606.4 353.3L603.6 362.9L600.8 370.7L598 375.7L595.1 383.5L592.3 391.6L589.5 398.3L586.7 402L583.8 407.2L569.7 432.6L541.5 460.8L513.2 473.5L485 481.3L456.7 485.1L428.5 490.7L400.2 501.1L372 507.6L343.7 512.2L315.4 515.2L287.2 517.2L258.9 518.8L230.7 519.5L202.4 519.8L174.2 520.2L145.9 520.3L117.7 520.4" fill="#2a939b" fill-opacity="0.7"></path><path class="World_0-border" stroke-linecap="round" d="M117.7 520.4L145.9 520.3L174.2 520.2L202.4 519.8L230.7 519.5L258.9 518.8L287.2 517.2L315.4 515.3L343.7 512.3L372 507.9L400.2 501.7L428.5 492L456.7 488.1L485 487.1L513.2 482.3L541.5 478.9L569.7 469.5L583.8 467.1L586.7 466.5L589.5 467.4L592.3 466.6L595.1 464.9L598 464.1L600.8 464.4L603.6 463.8L606.4 462.1L609.3 462L612.1 460.9L614.9 458.7L617.7 456.9L620.6 456.1L623.4 453.2L626.2 451.5L629 450.5L631.9 449.8L634.7 447.6L637.5 444.4L640.3 441.4L643.2 440.5L646 437.3L648.8 434.8L651.6 433.9L654.5 434.9L657.3 435.9L660.1 436.2L662.9 435.8L665.8 435.3L668.6 434.9L671.4 432.7L674.2 432.6L677.1 433.3L679.9 432.8L682.7 429.8L685.5 428.3L688.4 424.7L691.2 416.3L694 409L696.8 400.9L699.7 394.7L702.5 387.5L705.3 385.6L708.1 387.7L711 381.6L713.8 374.9L716.6 374.3L719.4 371.6L722.3 371.7L725.1 375.4L727.9 377.7L730.7 376.7" stroke="rgb(108, 109, 109)" stroke-opacity="0.7" stroke-width="0.5" fill="none"></path><path class="World_1-border" stroke-linecap="round" d="M117.7 520.4L145.9 520.3L174.2 520.2L202.4 519.8L230.7 519.5L258.9 518.8L287.2 517.2L315.4 515.2L343.7 512.2L372 507.6L400.2 501.1L428.5 490.7L456.7 485.1L485 481.3L513.2 473.5L541.5 460.8L569.7 432.6L583.8 407.2L586.7 402L589.5 398.3L592.3 391.6L595.1 383.5L598 375.7L600.8 370.7L603.6 362.9L606.4 353.3L609.3 354.9L612.1 354.8L614.9 345.7L617.7 340L620.6 335.5L623.4 330.5L626.2 333.7L629 337L631.9 339.7L634.7 338.1L637.5 332.4L640.3 329.3L643.2 324.9L646 319.4L648.8 312.9L651.6 310L654.5 309.7L657.3 310.6L660.1 308.7L662.9 309.2L665.8 305.9L668.6 303.6L671.4 298.4L674.2 294.8L677.1 294.7L679.9 291.8L682.7 287L685.5 284.2L688.4 279.4L691.2 267.6L694 254.7L696.8 244.5L699.7 236.3L702.5 226.7L705.3 225.5L708.1 230.4L711 219.2L713.8 210.8L716.6 208.2L719.4 203.3L722.3 202.1L725.1 202.7L727.9 201.8L730.7 198.4" stroke="rgb(198, 90, 38)" stroke-opacity="0.7" stroke-width="0.5" fill="none"></path><path class="World_2-border" stroke-linecap="round" d="M117.7 520.4L145.9 520.3L174.2 520.2L202.4 519.8L230.7 519.5L258.9 518.8L287.2 517.2L315.4 515.2L343.7 512.2L372 507.5L400.2 500.9L428.5 490.2L456.7 484.4L485 479.3L513.2 470.6L541.5 453.9L569.7 417.8L583.8 386.3L586.7 379.2L589.5 373.8L592.3 364.9L595.1 354.2L598 343.8L600.8 336.6L603.6 326.9L606.4 315.6L609.3 316.2L612.1 316.1L614.9 304.7L617.7 297.7L620.6 291.4L623.4 283.7L626.2 286.5L629 289.2L631.9 291.7L634.7 289.4L637.5 279.6L640.3 275.3L643.2 270.5L646 262L648.8 252.9L651.6 247.3L654.5 245.1L657.3 244.3L660.1 242.1L662.9 241.9L665.8 238.2L668.6 233.6L671.4 225L674.2 221.5L677.1 220.1L679.9 215.1L682.7 207.3L685.5 203.4L688.4 196.1L691.2 182.1L694 166L696.8 153.2L699.7 142.3L702.5 128.5L705.3 124.9L708.1 132.6L711 113.8L713.8 103.3L716.6 97.8L719.4 91.5L722.3 89.3L725.1 87.5L727.9 83.3L730.7 76.6" stroke="rgb(35, 123, 130)" stroke-opacity="0.7" stroke-width="0.5" fill="none"></path></g></g></g><g class="SourcesFooter" style="fill:#777"><g class="clickable" style="fill:#777"><text font-size="12.60" x="15.0" y="567.0"><tspan x="15" y="566.98">Source: Vaclav Smil (2017). Energy Transitions: Global and National Perspective &amp; BP Statistical Review of World Energy</tspan></text></g><text font-size="12.60" x="15.0" y="582.5"><tspan x="15" y="582.48"><a target='_blank' style='fill: #777;' href='https://ourworldindata.org/fossil-fuels/'>OurWorldInData.org/fossil-fuels/</a> • <a style="fill: #777;" class="cclogo" href="http://creativecommons.org/licenses/by-sa/4.0/deed.en_US" target="_blank">CC BY-SA</a></tspan></text></g></g></svg>