<svg xmlns="http://www.w3.org/2000/svg" version="1.1" style="font-family: 'Helvetica Neue', Helvetica, Arial, sans-serif; font-size: 16px; background-color: white; text-rendering: optimizeLegibility; -webkit-font-smoothing: antialiased;" width="850" height="600"><g class="ChartTab"><g class="HeaderView"><g opacity="0.8" transform="translate(770, 15) scale(0.31)"><a xmlns:xlink="http://www.w3.org/1999/xlink" xlink:href="https://ourworldindata.org" target="_blank"><g><rect x="0" y="0" fill="#1B2543" width="211.2" height="130.1"/><rect x="0" y="112.2" fill="#E63912" width="211.2" height="17.9"/><g><rect x="1.2" y="12.3" fill="none" width="210.2" height="99.2"/><path fill="#FFFFFF" d="M37.8,32.2c0,12.7-7.7,19.4-17.1,19.4c-9.7,0-16.6-7.5-16.6-18.7c0-11.7,7.3-19.3,17.1-19.3 C31.3,13.7,37.8,21.3,37.8,32.2z M9.2,32.8c0,7.9,4.3,14.9,11.8,14.9c7.5,0,11.8-6.9,11.8-15.3c0-7.3-3.8-14.9-11.8-14.9 C13.1,17.5,9.2,24.8,9.2,32.8z"/><path fill="#FFFFFF" d="M62.7,43.8c0,2.7,0.1,5.1,0.2,7.2h-4.3l-0.3-4.3h-0.1c-1.3,2.1-4,4.9-8.8,4.9c-4.2,0-9.1-2.3-9.1-11.6 V24.6h4.8v14.6c0,5,1.5,8.4,5.9,8.4c3.2,0,5.5-2.2,6.3-4.4c0.3-0.7,0.4-1.6,0.4-2.5V24.6h4.8V43.8z"/><path fill="#FFFFFF" d="M67.3,32.8c0-3.1-0.1-5.8-0.2-8.2h4.2l0.2,5.2h0.2c1.2-3.5,4.1-5.8,7.3-5.8c0.5,0,0.9,0.1,1.4,0.2v4.5 c-0.5-0.1-1-0.2-1.6-0.2c-3.4,0-5.8,2.6-6.5,6.2c-0.1,0.7-0.2,1.4-0.2,2.2V51h-4.8V32.8z"/><path fill="#FFFFFF" d="M95.4,51l-9.4-36.8h5l4.4,18.6c1.1,4.6,2.1,9.2,2.7,12.7h0.1c0.6-3.7,1.8-8,3-12.8l4.9-18.5h5l4.5,18.7 c1,4.4,2,8.7,2.6,12.6h0.1c0.8-4,1.8-8.1,3-12.7l4.9-18.5h4.9L120.6,51h-5L111,31.9c-1.1-4.7-1.9-8.3-2.4-12h-0.1 c-0.7,3.7-1.5,7.3-2.8,12L100.4,51H95.4z"/><path fill="#FFFFFF" d="M154.9,37.6c0,9.8-6.8,14-13.2,14c-7.2,0-12.7-5.2-12.7-13.6c0-8.8,5.8-14,13.1-14 C149.8,24,154.9,29.5,154.9,37.6z M133.9,37.9c0,5.8,3.3,10.1,8,10.1c4.6,0,8-4.3,8-10.3c0-4.5-2.2-10.1-7.9-10.1 C136.3,27.6,133.9,32.8,133.9,37.9z"/><path fill="#FFFFFF" d="M158.2,32.8c0-3.1-0.1-5.8-0.2-8.2h4.2l0.2,5.2h0.2c1.2-3.5,4.1-5.8,7.3-5.8c0.5,0,0.9,0.1,1.4,0.2v4.5 c-0.5-0.1-1-0.2-1.6-0.2c-3.4,0-5.8,2.6-6.5,6.2c-0.1,0.7-0.2,1.4-0.2,2.2V51h-4.8V32.8z"/><path fill="#FFFFFF" d="M173.5,12.3h4.8V51h-4.8V12.3z"/><path fill="#FFFFFF" d="M206.5,12.3v31.9c0,2.3,0.1,5,0.2,6.8h-4.3l-0.2-4.6H202c-1.5,2.9-4.7,5.2-9,5.2 c-6.4,0-11.3-5.4-11.3-13.4c-0.1-8.8,5.4-14.2,11.9-14.2c4,0,6.8,1.9,8,4h0.1V12.3H206.5z M201.7,35.4c0-0.6-0.1-1.4-0.2-2 c-0.7-3.1-3.3-5.6-6.9-5.6c-5,0-7.9,4.4-7.9,10.2c0,5.3,2.6,9.8,7.8,9.8c3.2,0,6.2-2.1,7.1-5.7c0.2-0.7,0.2-1.3,0.2-2.1V35.4z"/><path fill="#FFFFFF" d="M42.8,64c0.1,1.6-1.1,2.9-3.1,2.9c-1.7,0-2.9-1.3-2.9-2.9c0-1.7,1.3-3,3-3C41.7,61,42.8,62.3,42.8,64z M37.4,97.8V71.4h4.8v26.4H37.4z"/><path fill="#FFFFFF" d="M47.5,78.6c0-2.7-0.1-5-0.2-7.1h4.3l0.3,4.4h0.1c1.3-2.5,4.4-5,8.8-5c3.7,0,9.4,2.2,9.4,11.2v15.8h-4.8 V82.6c0-4.3-1.6-7.8-6.1-7.8c-3.2,0-5.6,2.2-6.5,4.9c-0.2,0.6-0.3,1.4-0.3,2.2v15.9h-4.8V78.6z"/><path fill="#FFFFFF" d="M84,61.6c2.9-0.4,6.3-0.8,10.1-0.8c6.8,0,11.7,1.6,14.9,4.6c3.3,3,5.2,7.3,5.2,13.2c0,6-1.9,10.9-5.3,14.3 c-3.4,3.4-9.1,5.3-16.3,5.3c-3.4,0-6.2-0.2-8.6-0.4V61.6z M88.8,94.1c1.2,0.2,3,0.3,4.8,0.3c10.2,0,15.7-5.7,15.7-15.6 c0.1-8.7-4.9-14.2-14.9-14.2c-2.5,0-4.3,0.2-5.6,0.5V94.1z"/><path fill="#FFFFFF" d="M132.1,97.8l-0.4-3.3h-0.2c-1.5,2.1-4.3,3.9-8.1,3.9c-5.4,0-8.1-3.8-8.1-7.6c0-6.4,5.7-9.9,15.9-9.8v-0.5 c0-2.2-0.6-6.1-6-6.1c-2.5,0-5,0.8-6.9,2l-1.1-3.2c2.2-1.4,5.4-2.3,8.7-2.3c8.1,0,10.1,5.5,10.1,10.8v9.9c0,2.3,0.1,4.5,0.4,6.3 H132.1z M131.4,84.4c-5.3-0.1-11.2,0.8-11.2,5.9c0,3.1,2.1,4.6,4.5,4.6c3.4,0,5.6-2.2,6.4-4.4c0.2-0.5,0.3-1,0.3-1.5V84.4z"/><path fill="#FFFFFF" d="M146.6,63.9v7.6h6.9v3.7h-6.9v14.2c0,3.3,0.9,5.1,3.6,5.1c1.3,0,2.2-0.2,2.8-0.3l0.2,3.6 c-0.9,0.4-2.4,0.7-4.3,0.7c-2.2,0-4-0.7-5.2-2c-1.4-1.4-1.9-3.8-1.9-6.9V75.1h-4.1v-3.7h4.1v-6.3L146.6,63.9z"/><path fill="#FFFFFF" d="M171.4,97.8l-0.4-3.3h-0.2c-1.5,2.1-4.3,3.9-8.1,3.9c-5.4,0-8.1-3.8-8.1-7.6c0-6.4,5.7-9.9,15.9-9.8v-0.5 c0-2.2-0.6-6.1-6-6.1c-2.5,0-5,0.8-6.9,2l-1.1-3.2c2.2-1.4,5.4-2.3,8.7-2.3c8.1,0,10.1,5.5,10.1,10.8v9.9c0,2.3,0.1,4.5,0.4,6.3 H171.4z M170.7,84.4c-5.3-0.1-11.2,0.8-11.2,5.9c0,3.1,2.1,4.6,4.5,4.6c3.4,0,5.6-2.2,6.4-4.4c0.2-0.5,0.3-1,0.3-1.5V84.4z"/></g></g></a></g><a href="https://ourworldindata.org/grapher/global-meat-production-by-livestock-type" target="_blank"><text font-size="24.00" x="15.0" y="34.2" fill="#555"><tspan x="15" y="34.2">Meat production by livestock type</tspan></text></a><text font-size="12.80" x="15.0" y="51.2" fill="#666"><tspan x="15" y="51.239999999999995">Meat production by commodity or product type, measured in tonnes per year. All data shown relate to total meat production, from</tspan><tspan x="15" y="65.32">both commercial and farm slaughter. Data are given in terms of dressed carcass weight, excluding offal and slaughter fats. </tspan></text></g><g class="StackedArea"><defs><clipPath id="boundsClip-2"><rect x="97.04" y="0" width="820" height="940.3999999999999"></rect></clipPath></defs><g class="AxisBoxView"><g class="HorizontalAxis"><text x="97" y="557.9" fill="#666" text-anchor="middle" font-size="14.4">1961</text><text x="198.5" y="557.9" fill="#666" text-anchor="middle" font-size="14.4">1970</text><text x="311.3" y="557.9" fill="#666" text-anchor="middle" font-size="14.4">1980</text><text x="424.1" y="557.9" fill="#666" text-anchor="middle" font-size="14.4">1990</text><text x="536.8" y="557.9" fill="#666" text-anchor="middle" font-size="14.4">2000</text><text x="683.4" y="557.9" fill="#666" text-anchor="middle" font-size="14.4">2013</text></g><g class="VerticalAxis"><text x="92.04" y="538.5" fill="#666" dominant-baseline="middle" text-anchor="end" font-size="14.4">0 t</text><text x="92.04" y="467" fill="#666" dominant-baseline="middle" text-anchor="end" font-size="14.4">50 million t</text><text x="92.04" y="395.5" fill="#666" dominant-baseline="middle" text-anchor="end" font-size="14.4">100 million t</text><text x="92.04" y="323.9" fill="#666" dominant-baseline="middle" text-anchor="end" font-size="14.4">150 million t</text><text x="92.04" y="252.4" fill="#666" dominant-baseline="middle" text-anchor="end" font-size="14.4">200 million t</text><text x="92.04" y="180.9" fill="#666" dominant-baseline="middle" text-anchor="end" font-size="14.4">250 million t</text><text x="92.04" y="109.4" fill="#666" dominant-baseline="middle" text-anchor="end" font-size="14.4">300 million t</text></g><g class="AxisGridLines"><line x1="97.04" y1="538.5" x2="683.42" y2="538.5" stroke="#ccc"></line><line x1="97.04" y1="467" x2="683.42" y2="467" stroke="#ddd" stroke-dasharray="3,2"></line><line x1="97.04" y1="395.5" x2="683.42" y2="395.5" stroke="#ddd" stroke-dasharray="3,2"></line><line x1="97.04" y1="323.9" x2="683.42" y2="323.9" stroke="#ddd" stroke-dasharray="3,2"></line><line x1="97.04" y1="252.4" x2="683.42" y2="252.4" stroke="#ddd" stroke-dasharray="3,2"></line><line x1="97.04" y1="180.9" x2="683.42" y2="180.9" stroke="#ddd" stroke-dasharray="3,2"></line><line x1="97.04" y1="109.4" x2="683.42" y2="109.4" stroke="#ddd" stroke-dasharray="3,2"></line></g><g class="AxisGridLines"><line x1="198.5" y1="538.50" x2="198.5" y2="87.70" stroke="#ddd" stroke-dasharray="3,2"></line><line x1="311.3" y1="538.50" x2="311.3" y2="87.70" stroke="#ddd" stroke-dasharray="3,2"></line><line x1="424.1" y1="538.50" x2="424.1" y2="87.70" stroke="#ddd" stroke-dasharray="3,2"></line><line x1="536.8" y1="538.50" x2="536.8" y2="87.70" stroke="#ddd" stroke-dasharray="3,2"></line><line x1="649.6" y1="538.50" x2="649.6" y2="87.70" stroke="#ddd" stroke-dasharray="3,2"></line></g></g><g clip-path="url(#boundsClip-2)"><g class="HeightedLegend clickable"><g class="legendMark"><rect x="688.4159999999999" y="82.39999999999999" width="84.888" height="12.8" fill="#fff" opacity="0"></rect><rect x="688.4159999999999" y="87.55" width="10" height="2.5" fill="#34983f"></rect><text font-size="12.80" x="703.4" y="92.6" fill="#333"><tspan x="703.4159999999999" y="92.63999999999999">Meat (other)</tspan></text></g><g class="legendMark"><rect x="688.4159999999999" y="95.19999999999999" width="146.584" height="12.8" fill="#fff" opacity="0"></rect><rect x="688.4159999999999" y="100.35" width="10" height="2.5" fill="rgb(105, 178, 101)"></rect><text font-size="12.80" x="703.4" y="105.4" fill="#333"><tspan x="703.4159999999999" y="105.43999999999998">Goose and guinea fowl</tspan></text></g><g class="legendMark"><rect x="688.4159999999999" y="107.99999999999999" width="44.184" height="12.8" fill="#fff" opacity="0"></rect><rect x="688.4159999999999" y="113.14999999999999" width="10" height="2.5" fill="#9ecc8a"></rect><text font-size="12.80" x="703.4" y="118.2" fill="#333"><tspan x="703.4159999999999" y="118.23999999999998">Duck</tspan></text></g><g class="legendMark"><rect x="688.4159999999999" y="120.79999999999998" width="52.12" height="12.8" fill="#fff" opacity="0"></rect><rect x="688.4159999999999" y="125.94999999999999" width="10" height="2.5" fill="rgb(207, 209, 100)"></rect><text font-size="12.80" x="703.4" y="131.0" fill="#333"><tspan x="703.4159999999999" y="131.04">Rabbit</tspan></text></g><g class="legendMark"><rect x="688.4159999999999" y="133.6" width="49.176" height="12.8" fill="#fff" opacity="0"></rect><rect x="688.4159999999999" y="138.75" width="10" height="2.5" fill="#ffd53e"></rect><text font-size="12.80" x="703.4" y="143.8" fill="#333"><tspan x="703.4159999999999" y="143.84">Horse</tspan></text></g><g class="legendMark"><rect x="688.4159999999999" y="146.4" width="51.992" height="12.8" fill="#fff" opacity="0"></rect><rect x="688.4159999999999" y="151.55" width="10" height="2.5" fill="rgb(229, 126, 51)"></rect><text font-size="12.80" x="703.4" y="156.6" fill="#333"><tspan x="703.4159999999999" y="156.64000000000001">Camel</tspan></text></g><g class="legendMark"><rect x="688.4159999999999" y="159.20000000000002" width="106.008" height="12.8" fill="#fff" opacity="0"></rect><rect x="688.4159999999999" y="164.35000000000002" width="10" height="2.5" fill="#ca2628"></rect><text font-size="12.80" x="703.4" y="169.4" fill="#333"><tspan x="703.4159999999999" y="169.44000000000003">Sheep and goat</tspan></text></g><g class="legendMark"><rect x="688.4159999999999" y="172.00000000000003" width="110.232" height="12.8" fill="#fff" opacity="0"></rect><rect x="688.4159999999999" y="177.15000000000003" width="10" height="2.5" fill="#e6332e"></rect><text font-size="12.80" x="703.4" y="182.2" fill="#333"><tspan x="703.4159999999999" y="182.24000000000004">Beef and Buffalo</tspan></text></g><g class="legendMark"><rect x="688.4159999999999" y="295.8" width="62.104" height="12.8" fill="#fff" opacity="0"></rect><rect x="688.4159999999999" y="300.95" width="10" height="2.5" fill="#2a939b"></rect><text font-size="12.80" x="703.4" y="306.0" fill="#333"><tspan x="703.4159999999999" y="306.04">Pigmeat</tspan></text></g><g class="legendMark"><rect x="688.4159999999999" y="454.1" width="54.936" height="12.8" fill="#fff" opacity="0"></rect><rect x="688.4159999999999" y="459.25" width="10" height="2.5" fill="#3360a9"></rect><text font-size="12.80" x="703.4" y="464.3" fill="#333"><tspan x="703.4159999999999" y="464.34000000000003">Poultry</tspan></text></g></g><g class="Areas"><rect x="97.04" y="87.7" width="586.376" height="450.8" opacity="0" fill="rgba(255,255,255,0)"></rect><path stroke-linecap="round" d="M97 525.7L108.3 525.4L119.6 524.6L130.9 524.1L142.1 522.9L153.4 521.9L164.7 520.9L176 520.3L187.3 518.9L198.5 517L209.8 516.1L221.1 514.5L232.4 513.4L243.6 512.4L254.9 511.9L266.2 510L277.5 508.4L288.7 506.2L300 503.5L311.3 501.5L322.6 499.4L333.8 498L345.1 497L356.4 496.3L367.7 494.2L379 491.3L390.2 487.5L401.5 485L412.8 483.5L424.1 480L435.3 476.8L446.6 473.8L457.9 469.9L469.2 465.9L480.4 460.5L491.7 458.4L503 453.6L514.3 449.8L525.5 445.5L536.8 440.5L548.1 437L559.4 433L570.7 430.8L581.9 426.9L593.2 422.9L604.5 419.8L615.8 413.2L627 406.3L638.3 402.5L649.6 396.4L660.9 391.4L672.1 386.9L683.4 382.6L683.4159999999999 538.5L97.04 538.5" fill="#3360a9" fill-opacity="0.7" class="World_9-area"></path><path stroke-linecap="round" d="M97 490.3L108.3 488.1L119.6 484.8L130.9 483L142.1 478.1L153.4 475.5L164.7 472.5L176 471.1L187.3 470.1L198.5 465.8L209.8 459.7L221.1 456.4L232.4 455.5L243.6 451.8L254.9 452.3L266.2 451.8L277.5 447L288.7 440.8L300 432L311.3 426.2L322.6 423.5L333.8 421.8L345.1 417.6L356.4 412.7L367.7 408.3L379 404.3L390.2 396.4L401.5 389.1L412.8 386.1L424.1 379.9L435.3 375L446.6 370L457.9 364L469.2 356.8L480.4 350L491.7 347.2L503 341.4L514.3 330.7L525.5 324.2L536.8 317.1L548.1 313.1L559.4 305.5L570.7 298.3L581.9 293.7L593.2 286.3L604.5 280.3L615.8 269.7L627 258.9L638.3 252.7L649.6 242.7L660.9 237.8L672.1 228.6L683.4 221.9L683.4 382.6L672.1 386.9L660.9 391.4L649.6 396.4L638.3 402.5L627 406.3L615.8 413.2L604.5 419.8L593.2 422.9L581.9 426.9L570.7 430.8L559.4 433L548.1 437L536.8 440.5L525.5 445.5L514.3 449.8L503 453.6L491.7 458.4L480.4 460.5L469.2 465.9L457.9 469.9L446.6 473.8L435.3 476.8L424.1 480L412.8 483.5L401.5 485L390.2 487.5L379 491.3L367.7 494.2L356.4 496.3L345.1 497L333.8 498L322.6 499.4L311.3 501.5L300 503.5L288.7 506.2L277.5 508.4L266.2 510L254.9 511.9L243.6 512.4L232.4 513.4L221.1 514.5L209.8 516.1L198.5 517L187.3 518.9L176 520.3L164.7 520.9L153.4 521.9L142.1 522.9L130.9 524.1L119.6 524.6L108.3 525.4L97 525.7" fill="#2a939b" fill-opacity="0.7" class="World_8-area"></path><path stroke-linecap="round" d="M97 449.2L108.3 444.7L119.6 439.1L130.9 436.6L142.1 430.9L153.4 425.8L164.7 420.3L176 416.4L187.3 414L198.5 409L209.8 403.3L221.1 399.3L232.4 397.9L243.6 389.8L254.9 387.6L266.2 383.7L277.5 378.4L288.7 371.4L300 364.2L311.3 358.7L322.6 355.3L333.8 353.6L345.1 347.5L356.4 340.6L367.7 334.9L379 328.4L390.2 320.5L401.5 312.5L412.8 309.2L424.1 300.8L435.3 295L446.6 291.1L457.9 285.9L469.2 277.9L480.4 270.3L491.7 266.4L503 259.4L514.3 248.9L525.5 240.9L536.8 232.8L548.1 230.2L559.4 220.3L570.7 212.6L581.9 206.5L593.2 197.2L604.5 188.7L615.8 175.7L627 164.7L638.3 158.4L649.6 147.4L660.9 143L672.1 132.9L683.4 124.6L683.4 221.9L672.1 228.6L660.9 237.8L649.6 242.7L638.3 252.7L627 258.9L615.8 269.7L604.5 280.3L593.2 286.3L581.9 293.7L570.7 298.3L559.4 305.5L548.1 313.1L536.8 317.1L525.5 324.2L514.3 330.7L503 341.4L491.7 347.2L480.4 350L469.2 356.8L457.9 364L446.6 370L435.3 375L424.1 379.9L412.8 386.1L401.5 389.1L390.2 396.4L379 404.3L367.7 408.3L356.4 412.7L345.1 417.6L333.8 421.8L322.6 423.5L311.3 426.2L300 432L288.7 440.8L277.5 447L266.2 451.8L254.9 452.3L243.6 451.8L232.4 455.5L221.1 456.4L209.8 459.7L198.5 465.8L187.3 470.1L176 471.1L164.7 472.5L153.4 475.5L142.1 478.1L130.9 483L119.6 484.8L108.3 488.1L97 490.3" fill="#e6332e" fill-opacity="0.7" class="World_7-area"></path><path stroke-linecap="round" d="M97 440.6L108.3 435.9L119.6 430.3L130.9 427.8L142.1 422L153.4 416.8L164.7 411L176 406.9L187.3 404.5L198.5 399.3L209.8 393.3L221.1 389.3L232.4 388.2L243.6 380.4L254.9 377.9L266.2 373.9L277.5 368.6L288.7 361.4L300 354.1L311.3 348.2L322.6 344.4L333.8 342.5L345.1 336.1L356.4 329L367.7 323.1L379 316.4L390.2 308.1L401.5 299.5L412.8 295.7L424.1 287L435.3 280.8L446.6 276.9L457.9 271.5L469.2 263.2L480.4 255.2L491.7 251.8L503 244.3L514.3 233.2L525.5 224.8L536.8 216.3L548.1 213.6L559.4 203.7L570.7 195.6L581.9 189L593.2 179.1L604.5 170.4L615.8 156.8L627 145.7L638.3 139.3L649.6 128.2L660.9 123.7L672.1 113.3L683.4 104.5L683.4 124.6L672.1 132.9L660.9 143L649.6 147.4L638.3 158.4L627 164.7L615.8 175.7L604.5 188.7L593.2 197.2L581.9 206.5L570.7 212.6L559.4 220.3L548.1 230.2L536.8 232.8L525.5 240.9L514.3 248.9L503 259.4L491.7 266.4L480.4 270.3L469.2 277.9L457.9 285.9L446.6 291.1L435.3 295L424.1 300.8L412.8 309.2L401.5 312.5L390.2 320.5L379 328.4L367.7 334.9L356.4 340.6L345.1 347.5L333.8 353.6L322.6 355.3L311.3 358.7L300 364.2L288.7 371.4L277.5 378.4L266.2 383.7L254.9 387.6L243.6 389.8L232.4 397.9L221.1 399.3L209.8 403.3L198.5 409L187.3 414L176 416.4L164.7 420.3L153.4 425.8L142.1 430.9L130.9 436.6L119.6 439.1L108.3 444.7L97 449.2" fill="#ca2628" fill-opacity="0.7" class="World_6-area"></path><path stroke-linecap="round" d="M97 440.4L108.3 435.7L119.6 430L130.9 427.6L142.1 421.8L153.4 416.5L164.7 410.7L176 406.6L187.3 404.2L198.5 399L209.8 393.1L221.1 389.1L232.4 388L243.6 380.1L254.9 377.7L266.2 373.7L277.5 368.3L288.7 361.1L300 353.9L311.3 348L322.6 344.2L333.8 342.2L345.1 335.8L356.4 328.7L367.7 322.8L379 316.1L390.2 307.8L401.5 299.2L412.8 295.4L424.1 286.6L435.3 280.4L446.6 276.5L457.9 271.1L469.2 262.8L480.4 254.8L491.7 251.4L503 243.8L514.3 232.7L525.5 224.4L536.8 215.8L548.1 213.1L559.4 203.2L570.7 195.1L581.9 188.5L593.2 178.6L604.5 169.8L615.8 156.2L627 145L638.3 138.6L649.6 127.5L660.9 122.9L672.1 112.5L683.4 103.7L683.4 104.5L672.1 113.3L660.9 123.7L649.6 128.2L638.3 139.3L627 145.7L615.8 156.8L604.5 170.4L593.2 179.1L581.9 189L570.7 195.6L559.4 203.7L548.1 213.6L536.8 216.3L525.5 224.8L514.3 233.2L503 244.3L491.7 251.8L480.4 255.2L469.2 263.2L457.9 271.5L446.6 276.9L435.3 280.8L424.1 287L412.8 295.7L401.5 299.5L390.2 308.1L379 316.4L367.7 323.1L356.4 329L345.1 336.1L333.8 342.5L322.6 344.4L311.3 348.2L300 354.1L288.7 361.4L277.5 368.6L266.2 373.9L254.9 377.9L243.6 380.4L232.4 388.2L221.1 389.3L209.8 393.3L198.5 399.3L187.3 404.5L176 406.9L164.7 411L153.4 416.8L142.1 422L130.9 427.8L119.6 430.3L108.3 435.9L97 440.6" fill="rgb(229, 126, 51)" fill-opacity="0.7" class="World_5-area"></path><path stroke-linecap="round" d="M97 439.6L108.3 435L119.6 429.3L130.9 426.8L142.1 421L153.4 415.8L164.7 410L176 405.9L187.3 403.5L198.5 398.3L209.8 392.4L221.1 388.4L232.4 387.3L243.6 379.5L254.9 377L266.2 372.9L277.5 367.5L288.7 360.3L300 353.1L311.3 347.2L322.6 343.4L333.8 341.6L345.1 335.1L356.4 328L367.7 322.1L379 315.5L390.2 307.1L401.5 298.5L412.8 294.7L424.1 285.9L435.3 279.7L446.6 275.5L457.9 270.2L469.2 261.8L480.4 253.8L491.7 250.3L503 242.8L514.3 231.7L525.5 223.3L536.8 214.7L548.1 212L559.4 202.1L570.7 194L581.9 187.4L593.2 177.5L604.5 168.7L615.8 155.2L627 143.9L638.3 137.5L649.6 126.4L660.9 121.9L672.1 111.4L683.4 102.6L683.4 103.7L672.1 112.5L660.9 122.9L649.6 127.5L638.3 138.6L627 145L615.8 156.2L604.5 169.8L593.2 178.6L581.9 188.5L570.7 195.1L559.4 203.2L548.1 213.1L536.8 215.8L525.5 224.4L514.3 232.7L503 243.8L491.7 251.4L480.4 254.8L469.2 262.8L457.9 271.1L446.6 276.5L435.3 280.4L424.1 286.6L412.8 295.4L401.5 299.2L390.2 307.8L379 316.1L367.7 322.8L356.4 328.7L345.1 335.8L333.8 342.2L322.6 344.2L311.3 348L300 353.9L288.7 361.1L277.5 368.3L266.2 373.7L254.9 377.7L243.6 380.1L232.4 388L221.1 389.1L209.8 393.1L198.5 399L187.3 404.2L176 406.6L164.7 410.7L153.4 416.5L142.1 421.8L130.9 427.6L119.6 430L108.3 435.7L97 440.4" fill="#ffd53e" fill-opacity="0.7" class="World_4-area"></path><path stroke-linecap="round" d="M97 439L108.3 434.4L119.6 428.7L130.9 426.3L142.1 420.4L153.4 415.2L164.7 409.4L176 405.3L187.3 402.8L198.5 397.6L209.8 391.6L221.1 387.5L232.4 386.4L243.6 378.6L254.9 376L266.2 371.9L277.5 366.5L288.7 359.2L300 352.1L311.3 346.2L322.6 342.4L333.8 340.6L345.1 334.1L356.4 327L367.7 321.1L379 314.3L390.2 306L401.5 297.3L412.8 293.6L424.1 284.5L435.3 278.4L446.6 274.1L457.9 268.7L469.2 260.3L480.4 252.3L491.7 248.6L503 241.1L514.3 230L525.5 221.6L536.8 212.9L548.1 210L559.4 200.1L570.7 192L581.9 185.4L593.2 175.4L604.5 166.5L615.8 152.5L627 141.7L638.3 135.2L649.6 124L660.9 119.4L672.1 108.9L683.4 100.1L683.4 102.6L672.1 111.4L660.9 121.9L649.6 126.4L638.3 137.5L627 143.9L615.8 155.2L604.5 168.7L593.2 177.5L581.9 187.4L570.7 194L559.4 202.1L548.1 212L536.8 214.7L525.5 223.3L514.3 231.7L503 242.8L491.7 250.3L480.4 253.8L469.2 261.8L457.9 270.2L446.6 275.5L435.3 279.7L424.1 285.9L412.8 294.7L401.5 298.5L390.2 307.1L379 315.5L367.7 322.1L356.4 328L345.1 335.1L333.8 341.6L322.6 343.4L311.3 347.2L300 353.1L288.7 360.3L277.5 367.5L266.2 372.9L254.9 377L243.6 379.5L232.4 387.3L221.1 388.4L209.8 392.4L198.5 398.3L187.3 403.5L176 405.9L164.7 410L153.4 415.8L142.1 421L130.9 426.8L119.6 429.3L108.3 435L97 439.6" fill="rgb(207, 209, 100)" fill-opacity="0.7" class="World_3-area"></path><path stroke-linecap="round" d="M97 438.5L108.3 433.9L119.6 428.2L130.9 425.7L142.1 419.9L153.4 414.6L164.7 408.8L176 404.6L187.3 402.2L198.5 396.9L209.8 390.8L221.1 386.8L232.4 385.6L243.6 377.7L254.9 375.2L266.2 371.1L277.5 365.6L288.7 358.3L300 351.1L311.3 345.2L322.6 341.3L333.8 339.4L345.1 332.9L356.4 325.8L367.7 319.8L379 313L390.2 304.5L401.5 295.7L412.8 291.9L424.1 282.8L435.3 276.5L446.6 272L457.9 266.3L469.2 257.6L480.4 249.3L491.7 245.5L503 237.7L514.3 226.3L525.5 217.5L536.8 208.7L548.1 205.7L559.4 195.9L570.7 187.7L581.9 181L593.2 170.6L604.5 161.6L615.8 147.3L627 136.3L638.3 129.7L649.6 118.2L660.9 113.4L672.1 102.7L683.4 93.9L683.4 100.1L672.1 108.9L660.9 119.4L649.6 124L638.3 135.2L627 141.7L615.8 152.5L604.5 166.5L593.2 175.4L581.9 185.4L570.7 192L559.4 200.1L548.1 210L536.8 212.9L525.5 221.6L514.3 230L503 241.1L491.7 248.6L480.4 252.3L469.2 260.3L457.9 268.7L446.6 274.1L435.3 278.4L424.1 284.5L412.8 293.6L401.5 297.3L390.2 306L379 314.3L367.7 321.1L356.4 327L345.1 334.1L333.8 340.6L322.6 342.4L311.3 346.2L300 352.1L288.7 359.2L277.5 366.5L266.2 371.9L254.9 376L243.6 378.6L232.4 386.4L221.1 387.5L209.8 391.6L198.5 397.6L187.3 402.8L176 405.3L164.7 409.4L153.4 415.2L142.1 420.4L130.9 426.3L119.6 428.7L108.3 434.4L97 439" fill="#9ecc8a" fill-opacity="0.7" class="World_2-area"></path><path stroke-linecap="round" d="M97 438.3L108.3 433.7L119.6 428L130.9 425.5L142.1 419.6L153.4 414.4L164.7 408.5L176 404.3L187.3 401.9L198.5 396.5L209.8 390.5L221.1 386.4L232.4 385.3L243.6 377.4L254.9 374.8L266.2 370.7L277.5 365.2L288.7 357.9L300 350.7L311.3 344.8L322.6 340.9L333.8 339L345.1 332.4L356.4 325.3L367.7 319.4L379 312.5L390.2 303.9L401.5 295L412.8 291.2L424.1 281.9L435.3 275.4L446.6 270.7L457.9 264.9L469.2 256.1L480.4 247.2L491.7 243.3L503 235.4L514.3 223.8L525.5 214.9L536.8 206L548.1 203L559.4 193.2L570.7 184.9L581.9 178.2L593.2 167.7L604.5 158.6L615.8 144.1L627 133L638.3 126.3L649.6 114.7L660.9 109.7L672.1 98.8L683.4 90L683.4 93.9L672.1 102.7L660.9 113.4L649.6 118.2L638.3 129.7L627 136.3L615.8 147.3L604.5 161.6L593.2 170.6L581.9 181L570.7 187.7L559.4 195.9L548.1 205.7L536.8 208.7L525.5 217.5L514.3 226.3L503 237.7L491.7 245.5L480.4 249.3L469.2 257.6L457.9 266.3L446.6 272L435.3 276.5L424.1 282.8L412.8 291.9L401.5 295.7L390.2 304.5L379 313L367.7 319.8L356.4 325.8L345.1 332.9L333.8 339.4L322.6 341.3L311.3 345.2L300 351.1L288.7 358.3L277.5 365.6L266.2 371.1L254.9 375.2L243.6 377.7L232.4 385.6L221.1 386.8L209.8 390.8L198.5 396.9L187.3 402.2L176 404.6L164.7 408.8L153.4 414.6L142.1 419.9L130.9 425.7L119.6 428.2L108.3 433.9L97 438.5" fill="rgb(105, 178, 101)" fill-opacity="0.7" class="World_1-area"></path><path stroke-linecap="round" d="M97 437.1L108.3 432.3L119.6 426.7L130.9 424.2L142.1 418.3L153.4 413.1L164.7 407.2L176 403L187.3 400.4L198.5 395.1L209.8 389L221.1 385L232.4 383.8L243.6 375.9L254.9 373.4L266.2 369.3L277.5 363.9L288.7 356.5L300 349.2L311.3 343.4L322.6 339.6L333.8 337.7L345.1 331.1L356.4 323.9L367.7 317.9L379 311.2L390.2 302.5L401.5 293.6L412.8 289.8L424.1 280.7L435.3 274.1L446.6 269.6L457.9 263.8L469.2 255L480.4 245.9L491.7 242.2L503 234.2L514.3 222.6L525.5 213.7L536.8 204.9L548.1 201.9L559.4 191.9L570.7 183.6L581.9 176.8L593.2 166.2L604.5 157.1L615.8 142.5L627 131.2L638.3 124.3L649.6 112.6L660.9 107.6L672.1 96.6L683.4 87.7L683.4 90L672.1 98.8L660.9 109.7L649.6 114.7L638.3 126.3L627 133L615.8 144.1L604.5 158.6L593.2 167.7L581.9 178.2L570.7 184.9L559.4 193.2L548.1 203L536.8 206L525.5 214.9L514.3 223.8L503 235.4L491.7 243.3L480.4 247.2L469.2 256.1L457.9 264.9L446.6 270.7L435.3 275.4L424.1 281.9L412.8 291.2L401.5 295L390.2 303.9L379 312.5L367.7 319.4L356.4 325.3L345.1 332.4L333.8 339L322.6 340.9L311.3 344.8L300 350.7L288.7 357.9L277.5 365.2L266.2 370.7L254.9 374.8L243.6 377.4L232.4 385.3L221.1 386.4L209.8 390.5L198.5 396.5L187.3 401.9L176 404.3L164.7 408.5L153.4 414.4L142.1 419.6L130.9 425.5L119.6 428L108.3 433.7L97 438.3" fill="#34983f" fill-opacity="0.7" class="World_0-area"></path><path stroke-linecap="round" d="M97 525.7L108.3 525.4L119.6 524.6L130.9 524.1L142.1 522.9L153.4 521.9L164.7 520.9L176 520.3L187.3 518.9L198.5 517L209.8 516.1L221.1 514.5L232.4 513.4L243.6 512.4L254.9 511.9L266.2 510L277.5 508.4L288.7 506.2L300 503.5L311.3 501.5L322.6 499.4L333.8 498L345.1 497L356.4 496.3L367.7 494.2L379 491.3L390.2 487.5L401.5 485L412.8 483.5L424.1 480L435.3 476.8L446.6 473.8L457.9 469.9L469.2 465.9L480.4 460.5L491.7 458.4L503 453.6L514.3 449.8L525.5 445.5L536.8 440.5L548.1 437L559.4 433L570.7 430.8L581.9 426.9L593.2 422.9L604.5 419.8L615.8 413.2L627 406.3L638.3 402.5L649.6 396.4L660.9 391.4L672.1 386.9L683.4 382.6" stroke="rgb(43, 80, 141)" stroke-opacity="0.7" stroke-width="0.5" fill="none" class="World_9-border"></path><path stroke-linecap="round" d="M97 490.3L108.3 488.1L119.6 484.8L130.9 483L142.1 478.1L153.4 475.5L164.7 472.5L176 471.1L187.3 470.1L198.5 465.8L209.8 459.7L221.1 456.4L232.4 455.5L243.6 451.8L254.9 452.3L266.2 451.8L277.5 447L288.7 440.8L300 432L311.3 426.2L322.6 423.5L333.8 421.8L345.1 417.6L356.4 412.7L367.7 408.3L379 404.3L390.2 396.4L401.5 389.1L412.8 386.1L424.1 379.9L435.3 375L446.6 370L457.9 364L469.2 356.8L480.4 350L491.7 347.2L503 341.4L514.3 330.7L525.5 324.2L536.8 317.1L548.1 313.1L559.4 305.5L570.7 298.3L581.9 293.7L593.2 286.3L604.5 280.3L615.8 269.7L627 258.9L638.3 252.7L649.6 242.7L660.9 237.8L672.1 228.6L683.4 221.9" stroke="rgb(35, 123, 130)" stroke-opacity="0.7" stroke-width="0.5" fill="none" class="World_8-border"></path><path stroke-linecap="round" d="M97 449.2L108.3 444.7L119.6 439.1L130.9 436.6L142.1 430.9L153.4 425.8L164.7 420.3L176 416.4L187.3 414L198.5 409L209.8 403.3L221.1 399.3L232.4 397.9L243.6 389.8L254.9 387.6L266.2 383.7L277.5 378.4L288.7 371.4L300 364.2L311.3 358.7L322.6 355.3L333.8 353.6L345.1 347.5L356.4 340.6L367.7 334.9L379 328.4L390.2 320.5L401.5 312.5L412.8 309.2L424.1 300.8L435.3 295L446.6 291.1L457.9 285.9L469.2 277.9L480.4 270.3L491.7 266.4L503 259.4L514.3 248.9L525.5 240.9L536.8 232.8L548.1 230.2L559.4 220.3L570.7 212.6L581.9 206.5L593.2 197.2L604.5 188.7L615.8 175.7L627 164.7L638.3 158.4L649.6 147.4L660.9 143L672.1 132.9L683.4 124.6" stroke="rgb(192, 43, 38)" stroke-opacity="0.7" stroke-width="0.5" fill="none" class="World_7-border"></path><path stroke-linecap="round" d="M97 440.6L108.3 435.9L119.6 430.3L130.9 427.8L142.1 422L153.4 416.8L164.7 411L176 406.9L187.3 404.5L198.5 399.3L209.8 393.3L221.1 389.3L232.4 388.2L243.6 380.4L254.9 377.9L266.2 373.9L277.5 368.6L288.7 361.4L300 354.1L311.3 348.2L322.6 344.4L333.8 342.5L345.1 336.1L356.4 329L367.7 323.1L379 316.4L390.2 308.1L401.5 299.5L412.8 295.7L424.1 287L435.3 280.8L446.6 276.9L457.9 271.5L469.2 263.2L480.4 255.2L491.7 251.8L503 244.3L514.3 233.2L525.5 224.8L536.8 216.3L548.1 213.6L559.4 203.7L570.7 195.6L581.9 189L593.2 179.1L604.5 170.4L615.8 156.8L627 145.7L638.3 139.3L649.6 128.2L660.9 123.7L672.1 113.3L683.4 104.5" stroke="rgb(169, 32, 33)" stroke-opacity="0.7" stroke-width="0.5" fill="none" class="World_6-border"></path><path stroke-linecap="round" d="M97 440.4L108.3 435.7L119.6 430L130.9 427.6L142.1 421.8L153.4 416.5L164.7 410.7L176 406.6L187.3 404.2L198.5 399L209.8 393.1L221.1 389.1L232.4 388L243.6 380.1L254.9 377.7L266.2 373.7L277.5 368.3L288.7 361.1L300 353.9L311.3 348L322.6 344.2L333.8 342.2L345.1 335.8L356.4 328.7L367.7 322.8L379 316.1L390.2 307.8L401.5 299.2L412.8 295.4L424.1 286.6L435.3 280.4L446.6 276.5L457.9 271.1L469.2 262.8L480.4 254.8L491.7 251.4L503 243.8L514.3 232.7L525.5 224.4L536.8 215.8L548.1 213.1L559.4 203.2L570.7 195.1L581.9 188.5L593.2 178.6L604.5 169.8L615.8 156.2L627 145L638.3 138.6L649.6 127.5L660.9 122.9L672.1 112.5L683.4 103.7" stroke="rgb(192, 105, 43)" stroke-opacity="0.7" stroke-width="0.5" fill="none" class="World_5-border"></path><path stroke-linecap="round" d="M97 439.6L108.3 435L119.6 429.3L130.9 426.8L142.1 421L153.4 415.8L164.7 410L176 405.9L187.3 403.5L198.5 398.3L209.8 392.4L221.1 388.4L232.4 387.3L243.6 379.5L254.9 377L266.2 372.9L277.5 367.5L288.7 360.3L300 353.1L311.3 347.2L322.6 343.4L333.8 341.6L345.1 335.1L356.4 328L367.7 322.1L379 315.5L390.2 307.1L401.5 298.5L412.8 294.7L424.1 285.9L435.3 279.7L446.6 275.5L457.9 270.2L469.2 261.8L480.4 253.8L491.7 250.3L503 242.8L514.3 231.7L525.5 223.3L536.8 214.7L548.1 212L559.4 202.1L570.7 194L581.9 187.4L593.2 177.5L604.5 168.7L615.8 155.2L627 143.9L638.3 137.5L649.6 126.4L660.9 121.9L672.1 111.4L683.4 102.6" stroke="rgb(213, 178, 52)" stroke-opacity="0.7" stroke-width="0.5" fill="none" class="World_4-border"></path><path stroke-linecap="round" d="M97 439L108.3 434.4L119.6 428.7L130.9 426.3L142.1 420.4L153.4 415.2L164.7 409.4L176 405.3L187.3 402.8L198.5 397.6L209.8 391.6L221.1 387.5L232.4 386.4L243.6 378.6L254.9 376L266.2 371.9L277.5 366.5L288.7 359.2L300 352.1L311.3 346.2L322.6 342.4L333.8 340.6L345.1 334.1L356.4 327L367.7 321.1L379 314.3L390.2 306L401.5 297.3L412.8 293.6L424.1 284.5L435.3 278.4L446.6 274.1L457.9 268.7L469.2 260.3L480.4 252.3L491.7 248.6L503 241.1L514.3 230L525.5 221.6L536.8 212.9L548.1 210L559.4 200.1L570.7 192L581.9 185.4L593.2 175.4L604.5 166.5L615.8 152.5L627 141.7L638.3 135.2L649.6 124L660.9 119.4L672.1 108.9L683.4 100.1" stroke="rgb(173, 175, 84)" stroke-opacity="0.7" stroke-width="0.5" fill="none" class="World_3-border"></path><path stroke-linecap="round" d="M97 438.5L108.3 433.9L119.6 428.2L130.9 425.7L142.1 419.9L153.4 414.6L164.7 408.8L176 404.6L187.3 402.2L198.5 396.9L209.8 390.8L221.1 386.8L232.4 385.6L243.6 377.7L254.9 375.2L266.2 371.1L277.5 365.6L288.7 358.3L300 351.1L311.3 345.2L322.6 341.3L333.8 339.4L345.1 332.9L356.4 325.8L367.7 319.8L379 313L390.2 304.5L401.5 295.7L412.8 291.9L424.1 282.8L435.3 276.5L446.6 272L457.9 266.3L469.2 257.6L480.4 249.3L491.7 245.5L503 237.7L514.3 226.3L525.5 217.5L536.8 208.7L548.1 205.7L559.4 195.9L570.7 187.7L581.9 181L593.2 170.6L604.5 161.6L615.8 147.3L627 136.3L638.3 129.7L649.6 118.2L660.9 113.4L672.1 102.7L683.4 93.9" stroke="rgb(132, 171, 115)" stroke-opacity="0.7" stroke-width="0.5" fill="none" class="World_2-border"></path><path stroke-linecap="round" d="M97 438.3L108.3 433.7L119.6 428L130.9 425.5L142.1 419.6L153.4 414.4L164.7 408.5L176 404.3L187.3 401.9L198.5 396.5L209.8 390.5L221.1 386.4L232.4 385.3L243.6 377.4L254.9 374.8L266.2 370.7L277.5 365.2L288.7 357.9L300 350.7L311.3 344.8L322.6 340.9L333.8 339L345.1 332.4L356.4 325.3L367.7 319.4L379 312.5L390.2 303.9L401.5 295L412.8 291.2L424.1 281.9L435.3 275.4L446.6 270.7L457.9 264.9L469.2 256.1L480.4 247.2L491.7 243.3L503 235.4L514.3 223.8L525.5 214.9L536.8 206L548.1 203L559.4 193.2L570.7 184.9L581.9 178.2L593.2 167.7L604.5 158.6L615.8 144.1L627 133L638.3 126.3L649.6 114.7L660.9 109.7L672.1 98.8L683.4 90" stroke="rgb(88, 149, 85)" stroke-opacity="0.7" stroke-width="0.5" fill="none" class="World_1-border"></path><path stroke-linecap="round" d="M97 437.1L108.3 432.3L119.6 426.7L130.9 424.2L142.1 418.3L153.4 413.1L164.7 407.2L176 403L187.3 400.4L198.5 395.1L209.8 389L221.1 385L232.4 383.8L243.6 375.9L254.9 373.4L266.2 369.3L277.5 363.9L288.7 356.5L300 349.2L311.3 343.4L322.6 339.6L333.8 337.7L345.1 331.1L356.4 323.9L367.7 317.9L379 311.2L390.2 302.5L401.5 293.6L412.8 289.8L424.1 280.7L435.3 274.1L446.6 269.6L457.9 263.8L469.2 255L480.4 245.9L491.7 242.2L503 234.2L514.3 222.6L525.5 213.7L536.8 204.9L548.1 201.9L559.4 191.9L570.7 183.6L581.9 176.8L593.2 166.2L604.5 157.1L615.8 142.5L627 131.2L638.3 124.3L649.6 112.6L660.9 107.6L672.1 96.6L683.4 87.7" stroke="rgb(44, 127, 53)" stroke-opacity="0.7" stroke-width="0.5" fill="none" class="World_0-border"></path></g></g></g><g style="fill: #777;" class="SourcesFooter"><g style="fill: #777;" class="clickable"><text font-size="11.20" x="15.0" y="581.9"><tspan x="15" y="581.86">Source: UN Food and Agricultural Organization (FAO)</tspan></text></g><text font-size="11.20" x="448.5" y="581.9"><tspan x="448.48800000000006" y="581.86"><a target='_blank' style='fill: #777;' href='https://ourworldindata.org/meat-and-seafood-production-consumption/'>OurWorldInData.org/meat-and-seafood-production-consumption/</a> • <a style="fill: #777;" href="http://creativecommons.org/licenses/by-sa/4.0/deed.en_US" target="_blank">CC BY-SA</a></tspan></text></g></g></svg>