<svg xmlns="http://www.w3.org/2000/svg" version="1.1" style="font-family:&#x27;Helvetica Neue&#x27;, Helvetica, Arial, sans-serif;font-size:18px;background-color:white;text-rendering:optimizeLegibility;-webkit-font-smoothing:antialiased" width="850" height="600"><g class="ChartTab"><g class="HeaderView"><g opacity="0.8" transform="translate(778, 15) scale(0.27)"><a xmlns:xlink="http://www.w3.org/1999/xlink" xlink:href="https://ourworldindata.org" target="_blank"><g><rect x="0" y="0" fill="#1B2543" width="211.2" height="130.1"/><rect x="0" y="112.2" fill="#E63912" width="211.2" height="17.9"/><g><rect x="1.2" y="12.3" fill="none" width="210.2" height="99.2"/><path fill="#FFFFFF" d="M37.8,32.2c0,12.7-7.7,19.4-17.1,19.4c-9.7,0-16.6-7.5-16.6-18.7c0-11.7,7.3-19.3,17.1-19.3 C31.3,13.7,37.8,21.3,37.8,32.2z M9.2,32.8c0,7.9,4.3,14.9,11.8,14.9c7.5,0,11.8-6.9,11.8-15.3c0-7.3-3.8-14.9-11.8-14.9 C13.1,17.5,9.2,24.8,9.2,32.8z"/><path fill="#FFFFFF" d="M62.7,43.8c0,2.7,0.1,5.1,0.2,7.2h-4.3l-0.3-4.3h-0.1c-1.3,2.1-4,4.9-8.8,4.9c-4.2,0-9.1-2.3-9.1-11.6 V24.6h4.8v14.6c0,5,1.5,8.4,5.9,8.4c3.2,0,5.5-2.2,6.3-4.4c0.3-0.7,0.4-1.6,0.4-2.5V24.6h4.8V43.8z"/><path fill="#FFFFFF" d="M67.3,32.8c0-3.1-0.1-5.8-0.2-8.2h4.2l0.2,5.2h0.2c1.2-3.5,4.1-5.8,7.3-5.8c0.5,0,0.9,0.1,1.4,0.2v4.5 c-0.5-0.1-1-0.2-1.6-0.2c-3.4,0-5.8,2.6-6.5,6.2c-0.1,0.7-0.2,1.4-0.2,2.2V51h-4.8V32.8z"/><path fill="#FFFFFF" d="M95.4,51l-9.4-36.8h5l4.4,18.6c1.1,4.6,2.1,9.2,2.7,12.7h0.1c0.6-3.7,1.8-8,3-12.8l4.9-18.5h5l4.5,18.7 c1,4.4,2,8.7,2.6,12.6h0.1c0.8-4,1.8-8.1,3-12.7l4.9-18.5h4.9L120.6,51h-5L111,31.9c-1.1-4.7-1.9-8.3-2.4-12h-0.1 c-0.7,3.7-1.5,7.3-2.8,12L100.4,51H95.4z"/><path fill="#FFFFFF" d="M154.9,37.6c0,9.8-6.8,14-13.2,14c-7.2,0-12.7-5.2-12.7-13.6c0-8.8,5.8-14,13.1-14 C149.8,24,154.9,29.5,154.9,37.6z M133.9,37.9c0,5.8,3.3,10.1,8,10.1c4.6,0,8-4.3,8-10.3c0-4.5-2.2-10.1-7.9-10.1 C136.3,27.6,133.9,32.8,133.9,37.9z"/><path fill="#FFFFFF" d="M158.2,32.8c0-3.1-0.1-5.8-0.2-8.2h4.2l0.2,5.2h0.2c1.2-3.5,4.1-5.8,7.3-5.8c0.5,0,0.9,0.1,1.4,0.2v4.5 c-0.5-0.1-1-0.2-1.6-0.2c-3.4,0-5.8,2.6-6.5,6.2c-0.1,0.7-0.2,1.4-0.2,2.2V51h-4.8V32.8z"/><path fill="#FFFFFF" d="M173.5,12.3h4.8V51h-4.8V12.3z"/><path fill="#FFFFFF" d="M206.5,12.3v31.9c0,2.3,0.1,5,0.2,6.8h-4.3l-0.2-4.6H202c-1.5,2.9-4.7,5.2-9,5.2 c-6.4,0-11.3-5.4-11.3-13.4c-0.1-8.8,5.4-14.2,11.9-14.2c4,0,6.8,1.9,8,4h0.1V12.3H206.5z M201.7,35.4c0-0.6-0.1-1.4-0.2-2 c-0.7-3.1-3.3-5.6-6.9-5.6c-5,0-7.9,4.4-7.9,10.2c0,5.3,2.6,9.8,7.8,9.8c3.2,0,6.2-2.1,7.1-5.7c0.2-0.7,0.2-1.3,0.2-2.1V35.4z"/><path fill="#FFFFFF" d="M42.8,64c0.1,1.6-1.1,2.9-3.1,2.9c-1.7,0-2.9-1.3-2.9-2.9c0-1.7,1.3-3,3-3C41.7,61,42.8,62.3,42.8,64z M37.4,97.8V71.4h4.8v26.4H37.4z"/><path fill="#FFFFFF" d="M47.5,78.6c0-2.7-0.1-5-0.2-7.1h4.3l0.3,4.4h0.1c1.3-2.5,4.4-5,8.8-5c3.7,0,9.4,2.2,9.4,11.2v15.8h-4.8 V82.6c0-4.3-1.6-7.8-6.1-7.8c-3.2,0-5.6,2.2-6.5,4.9c-0.2,0.6-0.3,1.4-0.3,2.2v15.9h-4.8V78.6z"/><path fill="#FFFFFF" d="M84,61.6c2.9-0.4,6.3-0.8,10.1-0.8c6.8,0,11.7,1.6,14.9,4.6c3.3,3,5.2,7.3,5.2,13.2c0,6-1.9,10.9-5.3,14.3 c-3.4,3.4-9.1,5.3-16.3,5.3c-3.4,0-6.2-0.2-8.6-0.4V61.6z M88.8,94.1c1.2,0.2,3,0.3,4.8,0.3c10.2,0,15.7-5.7,15.7-15.6 c0.1-8.7-4.9-14.2-14.9-14.2c-2.5,0-4.3,0.2-5.6,0.5V94.1z"/><path fill="#FFFFFF" d="M132.1,97.8l-0.4-3.3h-0.2c-1.5,2.1-4.3,3.9-8.1,3.9c-5.4,0-8.1-3.8-8.1-7.6c0-6.4,5.7-9.9,15.9-9.8v-0.5 c0-2.2-0.6-6.1-6-6.1c-2.5,0-5,0.8-6.9,2l-1.1-3.2c2.2-1.4,5.4-2.3,8.7-2.3c8.1,0,10.1,5.5,10.1,10.8v9.9c0,2.3,0.1,4.5,0.4,6.3 H132.1z M131.4,84.4c-5.3-0.1-11.2,0.8-11.2,5.9c0,3.1,2.1,4.6,4.5,4.6c3.4,0,5.6-2.2,6.4-4.4c0.2-0.5,0.3-1,0.3-1.5V84.4z"/><path fill="#FFFFFF" d="M146.6,63.9v7.6h6.9v3.7h-6.9v14.2c0,3.3,0.9,5.1,3.6,5.1c1.3,0,2.2-0.2,2.8-0.3l0.2,3.6 c-0.9,0.4-2.4,0.7-4.3,0.7c-2.2,0-4-0.7-5.2-2c-1.4-1.4-1.9-3.8-1.9-6.9V75.1h-4.1v-3.7h4.1v-6.3L146.6,63.9z"/><path fill="#FFFFFF" d="M171.4,97.8l-0.4-3.3h-0.2c-1.5,2.1-4.3,3.9-8.1,3.9c-5.4,0-8.1-3.8-8.1-7.6c0-6.4,5.7-9.9,15.9-9.8v-0.5 c0-2.2-0.6-6.1-6-6.1c-2.5,0-5,0.8-6.9,2l-1.1-3.2c2.2-1.4,5.4-2.3,8.7-2.3c8.1,0,10.1,5.5,10.1,10.8v9.9c0,2.3,0.1,4.5,0.4,6.3 H171.4z M170.7,84.4c-5.3-0.1-11.2,0.8-11.2,5.9c0,3.1,2.1,4.6,4.5,4.6c3.4,0,5.6-2.2,6.4-4.4c0.2-0.5,0.3-1,0.3-1.5V84.4z"/></g></g></a></g><a href="https://ourworldindata.org/grapher/global-fishery-catch-by-sector" target="_blank"><text font-size="25.20" x="15.0" y="35.2" fill="#555"><tspan x="15" y="35.160000000000004">Global fishery catch by sector</tspan></text></a><text font-size="14.40" x="15.0" y="53.7" fill="#666"><tspan x="15" y="53.72">Breakdown of global wild fishery catch by sector. This relates only to wild fishery catch, and does not include</tspan><tspan x="15" y="69.56">aquaculture (fish farming) production. </tspan></text></g><g class="StackedArea"><defs><clipPath id="boundsClip-345"><rect x="106.67" y="0" width="820" height="928.8"></rect></clipPath></defs><g class="AxisBoxView"><g class="HorizontalAxis"><text x="106.7" y="556.5" fill="#666" text-anchor="middle" font-size="16.2">1950</text><text x="209.6" y="556.5" fill="#666" text-anchor="middle" font-size="16.2">1960</text><text x="312.4" y="556.5" fill="#666" text-anchor="middle" font-size="16.2">1970</text><text x="415.3" y="556.5" fill="#666" text-anchor="middle" font-size="16.2">1980</text><text x="518.2" y="556.5" fill="#666" text-anchor="middle" font-size="16.2">1990</text><text x="621.1" y="556.5" fill="#666" text-anchor="middle" font-size="16.2">2000</text><text x="724" y="556.5" fill="#666" text-anchor="middle" font-size="16.2">2010</text></g><g class="VerticalAxis"><text x="101.67" y="535.3" fill="#666" dominant-baseline="middle" text-anchor="end" font-size="16.2">0 t</text><text x="101.67" y="467.3" fill="#666" dominant-baseline="middle" text-anchor="end" font-size="16.2">20 million t</text><text x="101.67" y="399.3" fill="#666" dominant-baseline="middle" text-anchor="end" font-size="16.2">40 million t</text><text x="101.67" y="331.3" fill="#666" dominant-baseline="middle" text-anchor="end" font-size="16.2">60 million t</text><text x="101.67" y="263.3" fill="#666" dominant-baseline="middle" text-anchor="end" font-size="16.2">80 million t</text><text x="101.67" y="195.4" fill="#666" dominant-baseline="middle" text-anchor="end" font-size="16.2">100 million t</text><text x="101.67" y="127.4" fill="#666" dominant-baseline="middle" text-anchor="end" font-size="16.2">120 million t</text></g><g class="AxisGridLines"><line x1="106.67" y1="535.3" x2="724.00" y2="535.3" stroke="#ccc"></line><line x1="106.67" y1="467.3" x2="724.00" y2="467.3" stroke="#ddd" stroke-dasharray="3,2"></line><line x1="106.67" y1="399.3" x2="724.00" y2="399.3" stroke="#ddd" stroke-dasharray="3,2"></line><line x1="106.67" y1="331.3" x2="724.00" y2="331.3" stroke="#ddd" stroke-dasharray="3,2"></line><line x1="106.67" y1="263.3" x2="724.00" y2="263.3" stroke="#ddd" stroke-dasharray="3,2"></line><line x1="106.67" y1="195.4" x2="724.00" y2="195.4" stroke="#ddd" stroke-dasharray="3,2"></line><line x1="106.67" y1="127.4" x2="724.00" y2="127.4" stroke="#ddd" stroke-dasharray="3,2"></line></g></g><g clip-path="url(#boundsClip-345)"><g class="HeightedLegend clickable"><g class="legendMark"><g class="indicator"><line x1="728.995" y1="181.2" x2="741.495" y2="181.2" stroke="#666" stroke-width="0.5"></line><line x1="741.495" y1="181.2" x2="741.495" y2="181.2" stroke="#666" stroke-width="0.5"></line><line x1="741.495" y1="181.2" x2="753.995" y2="181.2" stroke="#666" stroke-width="0.5"></line></g><rect x="723.995" y="174.45" width="87.515" height="13.5" fill="#fff" opacity="0"></rect><text font-size="13.50" x="759.0" y="185.3" fill="#34983f"><tspan x="758.995" y="185.25">Discards</tspan></text></g><g class="legendMark"><g class="indicator"><line x1="728.995" y1="198.9" x2="751.495" y2="198.9" stroke="#666" stroke-width="0.5"></line><line x1="751.495" y1="198.9" x2="751.495" y2="198.9" stroke="#666" stroke-width="0.5"></line><line x1="751.495" y1="198.9" x2="753.995" y2="198.9" stroke="#666" stroke-width="0.5"></line></g><rect x="723.995" y="192.15" width="111.00500000000001" height="13.5" fill="#fff" opacity="0"></rect><text font-size="13.50" x="759.0" y="203.0" fill="#a652ba"><tspan x="758.995" y="202.95000000000002">Recreational</tspan></text></g><g class="legendMark"><g class="indicator"><line x1="728.995" y1="206.5" x2="741.495" y2="206.5" stroke="#666" stroke-width="0.5"></line><line x1="741.495" y1="206.5" x2="741.495" y2="214.4" stroke="#666" stroke-width="0.5"></line><line x1="741.495" y1="214.4" x2="753.995" y2="214.4" stroke="#666" stroke-width="0.5"></line></g><rect x="723.995" y="207.65" width="108.845" height="13.5" fill="#fff" opacity="0"></rect><text font-size="13.50" x="759.0" y="218.5" fill="#ffd53e"><tspan x="758.995" y="218.45000000000002">Subsistence</tspan></text></g><g class="legendMark"><g class="indicator"><line x1="728.995" y1="249.3" x2="741.495" y2="249.3" stroke="#666" stroke-width="0.5"></line><line x1="741.495" y1="249.3" x2="741.495" y2="249.3" stroke="#666" stroke-width="0.5"></line><line x1="741.495" y1="249.3" x2="753.995" y2="249.3" stroke="#666" stroke-width="0.5"></line></g><rect x="723.995" y="227.95000000000002" width="108.44" height="42.7" fill="#fff" opacity="0"></rect><text font-size="13.50" x="759.0" y="238.8" fill="#ca2628"><tspan x="758.995" y="238.75000000000003">Artisanal</tspan><tspan x="758.995" y="253.60000000000002">(small-scale</tspan><tspan x="758.995" y="268.45000000000005">commercial)</tspan></text></g><g class="legendMark"><g class="indicator"><line x1="728.995" y1="410.7" x2="741.495" y2="410.7" stroke="#666" stroke-width="0.5"></line><line x1="741.495" y1="410.7" x2="741.495" y2="410.7" stroke="#666" stroke-width="0.5"></line><line x1="741.495" y1="410.7" x2="753.995" y2="410.7" stroke="#666" stroke-width="0.5"></line></g><rect x="723.995" y="389.34999999999997" width="108.44" height="42.7" fill="#fff" opacity="0"></rect><text font-size="13.50" x="759.0" y="400.1" fill="#3360a9"><tspan x="758.995" y="400.15">Industrial</tspan><tspan x="758.995" y="415">(large-scale</tspan><tspan x="758.995" y="429.84999999999997">commercial)</tspan></text></g></g><g class="Areas"><rect x="106.67" y="92.1" width="617.325" height="443.19999999999993" opacity="0" fill="rgba(255,255,255,0)"></rect><path class="World_2-area" stroke-linecap="round" d="M106.7 485.8L117 482.9L127.2 479.3L137.5 477L147.8 473L158.1 471.6L168.4 467.6L178.7 467.2L189 465.5L199.3 455.7L209.6 447.4L219.8 431.5L230.1 420.9L240.4 412.6L250.7 394.3L261 397.7L271.3 382.9L281.6 365.9L291.9 346.2L302.2 356.4L312.4 335.1L322.7 337.1L333 359.2L343.3 360.9L353.6 342.5L363.9 345.4L374.2 334.5L384.5 333.9L394.8 322.4L405 330.5L415.3 329.7L425.6 323L435.9 305.7L446.2 312L456.5 295.3L466.8 285.4L477.1 268.1L487.4 264.2L497.6 252.4L507.9 249.3L518.2 261.3L528.5 265L538.8 257.3L549.1 254L559.4 234.5L569.7 237L580 229.1L590.2 235.5L600.5 264.8L610.8 246.9L621.1 237.9L631.4 249.1L641.7 248.5L652 260.1L662.3 243.8L672.6 250.5L682.8 268.5L693.1 267.2L703.4 274.1L713.7 277.9L724 286L723.995 535.3L106.67 535.3" fill="#3360a9" fill-opacity="0.7"></path><path class="World_0-area" stroke-linecap="round" d="M106.7 460.2L117 454.7L127.2 451.2L137.5 448.2L147.8 441.6L158.1 439.2L168.4 432.6L178.7 431.8L189 431L199.3 420.4L209.6 411L219.8 394.7L230.1 383.4L240.4 375.2L250.7 355.9L261 358.1L271.3 341.8L281.6 323.8L291.9 304.4L302.2 314.9L312.4 293.1L322.7 295L333 315.9L343.3 314.4L353.6 297.2L363.9 299.8L374.2 287.7L384.5 286.7L394.8 273.6L405 280.8L415.3 279.7L425.6 271L435.9 253.9L446.2 260L456.5 240.6L466.8 229.7L477.1 212.9L487.4 204.9L497.6 193.2L507.9 189.4L518.2 201L528.5 204.6L538.8 194.6L549.1 192.7L559.4 170.8L569.7 170.2L580 158.5L590.2 166.1L600.5 195.7L610.8 176.9L621.1 170.8L631.4 180.9L641.7 181.4L652 190.2L662.3 172.1L672.6 179.2L682.8 195.7L693.1 195.5L703.4 202.3L713.7 203.7L724 212.7L724 286L713.7 277.9L703.4 274.1L693.1 267.2L682.8 268.5L672.6 250.5L662.3 243.8L652 260.1L641.7 248.5L631.4 249.1L621.1 237.9L610.8 246.9L600.5 264.8L590.2 235.5L580 229.1L569.7 237L559.4 234.5L549.1 254L538.8 257.3L528.5 265L518.2 261.3L507.9 249.3L497.6 252.4L487.4 264.2L477.1 268.1L466.8 285.4L456.5 295.3L446.2 312L435.9 305.7L425.6 323L415.3 329.7L405 330.5L394.8 322.4L384.5 333.9L374.2 334.5L363.9 345.4L353.6 342.5L343.3 360.9L333 359.2L322.7 337.1L312.4 335.1L302.2 356.4L291.9 346.2L281.6 365.9L271.3 382.9L261 397.7L250.7 394.3L240.4 412.6L230.1 420.9L219.8 431.5L209.6 447.4L199.3 455.7L189 465.5L178.7 467.2L168.4 467.6L158.1 471.6L147.8 473L137.5 477L127.2 479.3L117 482.9L106.7 485.8" fill="#ca2628" fill-opacity="0.7"></path><path class="World_4-area" stroke-linecap="round" d="M106.7 451.1L117 445.6L127.2 441.9L137.5 438.8L147.8 431.7L158.1 428.9L168.4 422.2L178.7 421.2L189 420.1L199.3 409.2L209.6 399.2L219.8 382.7L230.1 370.9L240.4 362.2L250.7 342.7L261 344.9L271.3 328.7L281.6 310.5L291.9 291.1L302.2 301.7L312.4 279.7L322.7 281.5L333 302.4L343.3 300.9L353.6 284.1L363.9 286.8L374.2 274.4L384.5 272.9L394.8 259.9L405 267.2L415.3 266.4L425.6 257.5L435.9 240.1L446.2 245.7L456.5 226.6L466.8 215.6L477.1 198.6L487.4 190.5L497.6 179.2L507.9 175.4L518.2 187.2L528.5 190.7L538.8 180.7L549.1 178.9L559.4 156.7L569.7 156.2L580 144.6L590.2 152.4L600.5 182L610.8 163.1L621.1 156.9L631.4 167.5L641.7 168.2L652 177L662.3 159.2L672.6 166.6L682.8 182.8L693.1 183.2L703.4 190L713.7 191.3L724 200.3L724 212.7L713.7 203.7L703.4 202.3L693.1 195.5L682.8 195.7L672.6 179.2L662.3 172.1L652 190.2L641.7 181.4L631.4 180.9L621.1 170.8L610.8 176.9L600.5 195.7L590.2 166.1L580 158.5L569.7 170.2L559.4 170.8L549.1 192.7L538.8 194.6L528.5 204.6L518.2 201L507.9 189.4L497.6 193.2L487.4 204.9L477.1 212.9L466.8 229.7L456.5 240.6L446.2 260L435.9 253.9L425.6 271L415.3 279.7L405 280.8L394.8 273.6L384.5 286.7L374.2 287.7L363.9 299.8L353.6 297.2L343.3 314.4L333 315.9L322.7 295L312.4 293.1L302.2 314.9L291.9 304.4L281.6 323.8L271.3 341.8L261 358.1L250.7 355.9L240.4 375.2L230.1 383.4L219.8 394.7L209.6 411L199.3 420.4L189 431L178.7 431.8L168.4 432.6L158.1 439.2L147.8 441.6L137.5 448.2L127.2 451.2L117 454.7L106.7 460.2" fill="#ffd53e" fill-opacity="0.7"></path><path class="World_3-area" stroke-linecap="round" d="M106.7 450.2L117 444.6L127.2 440.9L137.5 437.8L147.8 430.7L158.1 427.9L168.4 421.1L178.7 420L189 418.9L199.3 408L209.6 398L219.8 381.4L230.1 369.6L240.4 360.9L250.7 341.4L261 343.5L271.3 327.2L281.6 309L291.9 289.5L302.2 300.2L312.4 278.1L322.7 279.7L333 300.6L343.3 299L353.6 282.1L363.9 284.8L374.2 272.2L384.5 270.7L394.8 257.6L405 264.8L415.3 263.8L425.6 254.9L435.9 237.3L446.2 242.8L456.5 223.9L466.8 212.8L477.1 195.7L487.4 187.9L497.6 176.6L507.9 172.8L518.2 184.7L528.5 188.1L538.8 178.1L549.1 176.3L559.4 154.2L569.7 153.6L580 142L590.2 149.7L600.5 179.5L610.8 160.6L621.1 154.3L631.4 164.9L641.7 165.6L652 174.4L662.3 156.5L672.6 164.1L682.8 180.1L693.1 180.4L703.4 187.2L713.7 188.6L724 197.6L724 200.3L713.7 191.3L703.4 190L693.1 183.2L682.8 182.8L672.6 166.6L662.3 159.2L652 177L641.7 168.2L631.4 167.5L621.1 156.9L610.8 163.1L600.5 182L590.2 152.4L580 144.6L569.7 156.2L559.4 156.7L549.1 178.9L538.8 180.7L528.5 190.7L518.2 187.2L507.9 175.4L497.6 179.2L487.4 190.5L477.1 198.6L466.8 215.6L456.5 226.6L446.2 245.7L435.9 240.1L425.6 257.5L415.3 266.4L405 267.2L394.8 259.9L384.5 272.9L374.2 274.4L363.9 286.8L353.6 284.1L343.3 300.9L333 302.4L322.7 281.5L312.4 279.7L302.2 301.7L291.9 291.1L281.6 310.5L271.3 328.7L261 344.9L250.7 342.7L240.4 362.2L230.1 370.9L219.8 382.7L209.6 399.2L199.3 409.2L189 420.1L178.7 421.2L168.4 422.2L158.1 428.9L147.8 431.7L137.5 438.8L127.2 441.9L117 445.6L106.7 451.1" fill="#a652ba" fill-opacity="0.7"></path><path class="World_1-area" stroke-linecap="round" d="M106.7 430.2L117 423.2L127.2 416.4L137.5 413.4L147.8 403.5L158.1 399.5L168.4 391.6L178.7 389.4L189 387.5L199.3 374.3L209.6 360.9L219.8 341.6L230.1 330.5L240.4 318.9L250.7 297.4L261 297.3L271.3 281.8L281.6 263L291.9 242.4L302.2 256.8L312.4 234.7L322.7 236.6L333 258.6L343.3 258.1L353.6 243.3L363.9 246.3L374.2 234.5L384.5 233.6L394.8 220.6L405 228.4L415.3 228.1L425.6 217.6L435.9 194.8L446.2 200.7L456.5 176.5L466.8 162.8L477.1 144.4L487.4 134.6L497.6 121.9L507.9 115.2L518.2 127.9L528.5 132.2L538.8 124.7L549.1 124.9L559.4 105L569.7 104.6L580 92.1L590.2 101L600.5 134.7L610.8 118.4L621.1 113.5L631.4 125.7L641.7 128.9L652 137.8L662.3 121.2L672.6 130L682.8 147.7L693.1 147.4L703.4 154.6L713.7 156.7L724 164.8L724 197.6L713.7 188.6L703.4 187.2L693.1 180.4L682.8 180.1L672.6 164.1L662.3 156.5L652 174.4L641.7 165.6L631.4 164.9L621.1 154.3L610.8 160.6L600.5 179.5L590.2 149.7L580 142L569.7 153.6L559.4 154.2L549.1 176.3L538.8 178.1L528.5 188.1L518.2 184.7L507.9 172.8L497.6 176.6L487.4 187.9L477.1 195.7L466.8 212.8L456.5 223.9L446.2 242.8L435.9 237.3L425.6 254.9L415.3 263.8L405 264.8L394.8 257.6L384.5 270.7L374.2 272.2L363.9 284.8L353.6 282.1L343.3 299L333 300.6L322.7 279.7L312.4 278.1L302.2 300.2L291.9 289.5L281.6 309L271.3 327.2L261 343.5L250.7 341.4L240.4 360.9L230.1 369.6L219.8 381.4L209.6 398L199.3 408L189 418.9L178.7 420L168.4 421.1L158.1 427.9L147.8 430.7L137.5 437.8L127.2 440.9L117 444.6L106.7 450.2" fill="#34983f" fill-opacity="0.7"></path><path class="World_2-border" stroke-linecap="round" d="M106.7 485.8L117 482.9L127.2 479.3L137.5 477L147.8 473L158.1 471.6L168.4 467.6L178.7 467.2L189 465.5L199.3 455.7L209.6 447.4L219.8 431.5L230.1 420.9L240.4 412.6L250.7 394.3L261 397.7L271.3 382.9L281.6 365.9L291.9 346.2L302.2 356.4L312.4 335.1L322.7 337.1L333 359.2L343.3 360.9L353.6 342.5L363.9 345.4L374.2 334.5L384.5 333.9L394.8 322.4L405 330.5L415.3 329.7L425.6 323L435.9 305.7L446.2 312L456.5 295.3L466.8 285.4L477.1 268.1L487.4 264.2L497.6 252.4L507.9 249.3L518.2 261.3L528.5 265L538.8 257.3L549.1 254L559.4 234.5L569.7 237L580 229.1L590.2 235.5L600.5 264.8L610.8 246.9L621.1 237.9L631.4 249.1L641.7 248.5L652 260.1L662.3 243.8L672.6 250.5L682.8 268.5L693.1 267.2L703.4 274.1L713.7 277.9L724 286" stroke="rgb(43, 80, 141)" stroke-opacity="0.7" stroke-width="0.5" fill="none"></path><path class="World_0-border" stroke-linecap="round" d="M106.7 460.2L117 454.7L127.2 451.2L137.5 448.2L147.8 441.6L158.1 439.2L168.4 432.6L178.7 431.8L189 431L199.3 420.4L209.6 411L219.8 394.7L230.1 383.4L240.4 375.2L250.7 355.9L261 358.1L271.3 341.8L281.6 323.8L291.9 304.4L302.2 314.9L312.4 293.1L322.7 295L333 315.9L343.3 314.4L353.6 297.2L363.9 299.8L374.2 287.7L384.5 286.7L394.8 273.6L405 280.8L415.3 279.7L425.6 271L435.9 253.9L446.2 260L456.5 240.6L466.8 229.7L477.1 212.9L487.4 204.9L497.6 193.2L507.9 189.4L518.2 201L528.5 204.6L538.8 194.6L549.1 192.7L559.4 170.8L569.7 170.2L580 158.5L590.2 166.1L600.5 195.7L610.8 176.9L621.1 170.8L631.4 180.9L641.7 181.4L652 190.2L662.3 172.1L672.6 179.2L682.8 195.7L693.1 195.5L703.4 202.3L713.7 203.7L724 212.7" stroke="rgb(169, 32, 33)" stroke-opacity="0.7" stroke-width="0.5" fill="none"></path><path class="World_4-border" stroke-linecap="round" d="M106.7 451.1L117 445.6L127.2 441.9L137.5 438.8L147.8 431.7L158.1 428.9L168.4 422.2L178.7 421.2L189 420.1L199.3 409.2L209.6 399.2L219.8 382.7L230.1 370.9L240.4 362.2L250.7 342.7L261 344.9L271.3 328.7L281.6 310.5L291.9 291.1L302.2 301.7L312.4 279.7L322.7 281.5L333 302.4L343.3 300.9L353.6 284.1L363.9 286.8L374.2 274.4L384.5 272.9L394.8 259.9L405 267.2L415.3 266.4L425.6 257.5L435.9 240.1L446.2 245.7L456.5 226.6L466.8 215.6L477.1 198.6L487.4 190.5L497.6 179.2L507.9 175.4L518.2 187.2L528.5 190.7L538.8 180.7L549.1 178.9L559.4 156.7L569.7 156.2L580 144.6L590.2 152.4L600.5 182L610.8 163.1L621.1 156.9L631.4 167.5L641.7 168.2L652 177L662.3 159.2L672.6 166.6L682.8 182.8L693.1 183.2L703.4 190L713.7 191.3L724 200.3" stroke="rgb(213, 178, 52)" stroke-opacity="0.7" stroke-width="0.5" fill="none"></path><path class="World_3-border" stroke-linecap="round" d="M106.7 450.2L117 444.6L127.2 440.9L137.5 437.8L147.8 430.7L158.1 427.9L168.4 421.1L178.7 420L189 418.9L199.3 408L209.6 398L219.8 381.4L230.1 369.6L240.4 360.9L250.7 341.4L261 343.5L271.3 327.2L281.6 309L291.9 289.5L302.2 300.2L312.4 278.1L322.7 279.7L333 300.6L343.3 299L353.6 282.1L363.9 284.8L374.2 272.2L384.5 270.7L394.8 257.6L405 264.8L415.3 263.8L425.6 254.9L435.9 237.3L446.2 242.8L456.5 223.9L466.8 212.8L477.1 195.7L487.4 187.9L497.6 176.6L507.9 172.8L518.2 184.7L528.5 188.1L538.8 178.1L549.1 176.3L559.4 154.2L569.7 153.6L580 142L590.2 149.7L600.5 179.5L610.8 160.6L621.1 154.3L631.4 164.9L641.7 165.6L652 174.4L662.3 156.5L672.6 164.1L682.8 180.1L693.1 180.4L703.4 187.2L713.7 188.6L724 197.6" stroke="rgb(139, 69, 156)" stroke-opacity="0.7" stroke-width="0.5" fill="none"></path><path class="World_1-border" stroke-linecap="round" d="M106.7 430.2L117 423.2L127.2 416.4L137.5 413.4L147.8 403.5L158.1 399.5L168.4 391.6L178.7 389.4L189 387.5L199.3 374.3L209.6 360.9L219.8 341.6L230.1 330.5L240.4 318.9L250.7 297.4L261 297.3L271.3 281.8L281.6 263L291.9 242.4L302.2 256.8L312.4 234.7L322.7 236.6L333 258.6L343.3 258.1L353.6 243.3L363.9 246.3L374.2 234.5L384.5 233.6L394.8 220.6L405 228.4L415.3 228.1L425.6 217.6L435.9 194.8L446.2 200.7L456.5 176.5L466.8 162.8L477.1 144.4L487.4 134.6L497.6 121.9L507.9 115.2L518.2 127.9L528.5 132.2L538.8 124.7L549.1 124.9L559.4 105L569.7 104.6L580 92.1L590.2 101L600.5 134.7L610.8 118.4L621.1 113.5L631.4 125.7L641.7 128.9L652 137.8L662.3 121.2L672.6 130L682.8 147.7L693.1 147.4L703.4 154.6L713.7 156.7L724 164.8" stroke="rgb(44, 127, 53)" stroke-opacity="0.7" stroke-width="0.5" fill="none"></path></g></g></g><g class="SourcesFooter" style="fill:#777"><g class="clickable" style="fill:#777"><text font-size="12.60" x="15.0" y="581.6"><tspan x="15" y="581.58">Source: Pauly and Zeller (2016)</tspan></text></g><text font-size="12.60" x="775.4" y="581.6"><tspan x="775.402" y="581.58"><a style="fill: #777;" class="cclogo" href="http://creativecommons.org/licenses/by-sa/4.0/deed.en_US" target="_blank">CC BY-SA</a></tspan></text></g></g></svg>