<svg xmlns="http://www.w3.org/2000/svg" version="1.1" style="font-family:&#x27;Helvetica Neue&#x27;, Helvetica, Arial, sans-serif;font-size:18px;background-color:white;text-rendering:optimizeLegibility;-webkit-font-smoothing:antialiased" width="850" height="600"><g class="ChartTab"><g class="HeaderView"><g opacity="0.8" transform="translate(778, 15) scale(0.27)"><a xmlns:xlink="http://www.w3.org/1999/xlink" xlink:href="https://ourworldindata.org" target="_blank"><g><rect x="0" y="0" fill="#1B2543" width="211.2" height="130.1"/><rect x="0" y="112.2" fill="#E63912" width="211.2" height="17.9"/><g><rect x="1.2" y="12.3" fill="none" width="210.2" height="99.2"/><path fill="#FFFFFF" d="M37.8,32.2c0,12.7-7.7,19.4-17.1,19.4c-9.7,0-16.6-7.5-16.6-18.7c0-11.7,7.3-19.3,17.1-19.3 C31.3,13.7,37.8,21.3,37.8,32.2z M9.2,32.8c0,7.9,4.3,14.9,11.8,14.9c7.5,0,11.8-6.9,11.8-15.3c0-7.3-3.8-14.9-11.8-14.9 C13.1,17.5,9.2,24.8,9.2,32.8z"/><path fill="#FFFFFF" d="M62.7,43.8c0,2.7,0.1,5.1,0.2,7.2h-4.3l-0.3-4.3h-0.1c-1.3,2.1-4,4.9-8.8,4.9c-4.2,0-9.1-2.3-9.1-11.6 V24.6h4.8v14.6c0,5,1.5,8.4,5.9,8.4c3.2,0,5.5-2.2,6.3-4.4c0.3-0.7,0.4-1.6,0.4-2.5V24.6h4.8V43.8z"/><path fill="#FFFFFF" d="M67.3,32.8c0-3.1-0.1-5.8-0.2-8.2h4.2l0.2,5.2h0.2c1.2-3.5,4.1-5.8,7.3-5.8c0.5,0,0.9,0.1,1.4,0.2v4.5 c-0.5-0.1-1-0.2-1.6-0.2c-3.4,0-5.8,2.6-6.5,6.2c-0.1,0.7-0.2,1.4-0.2,2.2V51h-4.8V32.8z"/><path fill="#FFFFFF" d="M95.4,51l-9.4-36.8h5l4.4,18.6c1.1,4.6,2.1,9.2,2.7,12.7h0.1c0.6-3.7,1.8-8,3-12.8l4.9-18.5h5l4.5,18.7 c1,4.4,2,8.7,2.6,12.6h0.1c0.8-4,1.8-8.1,3-12.7l4.9-18.5h4.9L120.6,51h-5L111,31.9c-1.1-4.7-1.9-8.3-2.4-12h-0.1 c-0.7,3.7-1.5,7.3-2.8,12L100.4,51H95.4z"/><path fill="#FFFFFF" d="M154.9,37.6c0,9.8-6.8,14-13.2,14c-7.2,0-12.7-5.2-12.7-13.6c0-8.8,5.8-14,13.1-14 C149.8,24,154.9,29.5,154.9,37.6z M133.9,37.9c0,5.8,3.3,10.1,8,10.1c4.6,0,8-4.3,8-10.3c0-4.5-2.2-10.1-7.9-10.1 C136.3,27.6,133.9,32.8,133.9,37.9z"/><path fill="#FFFFFF" d="M158.2,32.8c0-3.1-0.1-5.8-0.2-8.2h4.2l0.2,5.2h0.2c1.2-3.5,4.1-5.8,7.3-5.8c0.5,0,0.9,0.1,1.4,0.2v4.5 c-0.5-0.1-1-0.2-1.6-0.2c-3.4,0-5.8,2.6-6.5,6.2c-0.1,0.7-0.2,1.4-0.2,2.2V51h-4.8V32.8z"/><path fill="#FFFFFF" d="M173.5,12.3h4.8V51h-4.8V12.3z"/><path fill="#FFFFFF" d="M206.5,12.3v31.9c0,2.3,0.1,5,0.2,6.8h-4.3l-0.2-4.6H202c-1.5,2.9-4.7,5.2-9,5.2 c-6.4,0-11.3-5.4-11.3-13.4c-0.1-8.8,5.4-14.2,11.9-14.2c4,0,6.8,1.9,8,4h0.1V12.3H206.5z M201.7,35.4c0-0.6-0.1-1.4-0.2-2 c-0.7-3.1-3.3-5.6-6.9-5.6c-5,0-7.9,4.4-7.9,10.2c0,5.3,2.6,9.8,7.8,9.8c3.2,0,6.2-2.1,7.1-5.7c0.2-0.7,0.2-1.3,0.2-2.1V35.4z"/><path fill="#FFFFFF" d="M42.8,64c0.1,1.6-1.1,2.9-3.1,2.9c-1.7,0-2.9-1.3-2.9-2.9c0-1.7,1.3-3,3-3C41.7,61,42.8,62.3,42.8,64z M37.4,97.8V71.4h4.8v26.4H37.4z"/><path fill="#FFFFFF" d="M47.5,78.6c0-2.7-0.1-5-0.2-7.1h4.3l0.3,4.4h0.1c1.3-2.5,4.4-5,8.8-5c3.7,0,9.4,2.2,9.4,11.2v15.8h-4.8 V82.6c0-4.3-1.6-7.8-6.1-7.8c-3.2,0-5.6,2.2-6.5,4.9c-0.2,0.6-0.3,1.4-0.3,2.2v15.9h-4.8V78.6z"/><path fill="#FFFFFF" d="M84,61.6c2.9-0.4,6.3-0.8,10.1-0.8c6.8,0,11.7,1.6,14.9,4.6c3.3,3,5.2,7.3,5.2,13.2c0,6-1.9,10.9-5.3,14.3 c-3.4,3.4-9.1,5.3-16.3,5.3c-3.4,0-6.2-0.2-8.6-0.4V61.6z M88.8,94.1c1.2,0.2,3,0.3,4.8,0.3c10.2,0,15.7-5.7,15.7-15.6 c0.1-8.7-4.9-14.2-14.9-14.2c-2.5,0-4.3,0.2-5.6,0.5V94.1z"/><path fill="#FFFFFF" d="M132.1,97.8l-0.4-3.3h-0.2c-1.5,2.1-4.3,3.9-8.1,3.9c-5.4,0-8.1-3.8-8.1-7.6c0-6.4,5.7-9.9,15.9-9.8v-0.5 c0-2.2-0.6-6.1-6-6.1c-2.5,0-5,0.8-6.9,2l-1.1-3.2c2.2-1.4,5.4-2.3,8.7-2.3c8.1,0,10.1,5.5,10.1,10.8v9.9c0,2.3,0.1,4.5,0.4,6.3 H132.1z M131.4,84.4c-5.3-0.1-11.2,0.8-11.2,5.9c0,3.1,2.1,4.6,4.5,4.6c3.4,0,5.6-2.2,6.4-4.4c0.2-0.5,0.3-1,0.3-1.5V84.4z"/><path fill="#FFFFFF" d="M146.6,63.9v7.6h6.9v3.7h-6.9v14.2c0,3.3,0.9,5.1,3.6,5.1c1.3,0,2.2-0.2,2.8-0.3l0.2,3.6 c-0.9,0.4-2.4,0.7-4.3,0.7c-2.2,0-4-0.7-5.2-2c-1.4-1.4-1.9-3.8-1.9-6.9V75.1h-4.1v-3.7h4.1v-6.3L146.6,63.9z"/><path fill="#FFFFFF" d="M171.4,97.8l-0.4-3.3h-0.2c-1.5,2.1-4.3,3.9-8.1,3.9c-5.4,0-8.1-3.8-8.1-7.6c0-6.4,5.7-9.9,15.9-9.8v-0.5 c0-2.2-0.6-6.1-6-6.1c-2.5,0-5,0.8-6.9,2l-1.1-3.2c2.2-1.4,5.4-2.3,8.7-2.3c8.1,0,10.1,5.5,10.1,10.8v9.9c0,2.3,0.1,4.5,0.4,6.3 H171.4z M170.7,84.4c-5.3-0.1-11.2,0.8-11.2,5.9c0,3.1,2.1,4.6,4.5,4.6c3.4,0,5.6-2.2,6.4-4.4c0.2-0.5,0.3-1,0.3-1.5V84.4z"/></g></g></a></g><a href="https://ourworldindata.org/grapher/Happiness-WVS-vs-Gallup" target="_blank"><text font-size="25.20" x="15.0" y="35.2" fill="#555"><tspan x="15" y="35.160000000000004">Happiness vs Life satisfaction, 2014</tspan></text></a><text font-size="14.40" x="15.0" y="53.7" fill="#666"><tspan x="15" y="53.72">Vertical axis shows average self-reported life satisfaction scores in the Cantril Ladder. Horizontal axis shows share of</tspan><tspan x="15" y="69.56">people who say they are &#x27;very happy&#x27; or &#x27;rather happy&#x27; (as opposed to &#x27;not very happy&#x27; or &#x27;not at all happy&#x27;)</tspan></text></g><g><g class="AxisBoxView"><g class="HorizontalAxis"><text font-size="12.60" x="168.3" y="499.2"><tspan x="168.251" y="499.17999999999995">Share of people who say they are &#x27;very happy&#x27; or &#x27;rather happy&#x27; (WVS)</tspan></text><text x="146.6" y="479.0999999999999" fill="#666" text-anchor="middle" font-size="16.2">70%</text><text x="247.7" y="479.0999999999999" fill="#666" text-anchor="middle" font-size="16.2">75%</text><text x="348.8" y="479.0999999999999" fill="#666" text-anchor="middle" font-size="16.2">80%</text><text x="449.9" y="479.0999999999999" fill="#666" text-anchor="middle" font-size="16.2">85%</text><text x="551" y="479.0999999999999" fill="#666" text-anchor="middle" font-size="16.2">90%</text><text x="652.1" y="479.0999999999999" fill="#666" text-anchor="middle" font-size="16.2">95%</text></g><g class="VerticalAxis"><text font-size="12.60" x="-464.1" y="25.1" transform="rotate(-90)"><tspan x="-464.102" y="25.080000000000002">Self-reported life satisfaction (average Cantril Ladder score)</tspan></text><text x="46.67" y="457.9" fill="#666" dominant-baseline="middle" text-anchor="end" font-size="16.2">3</text><text x="46.67" y="373.2" fill="#666" dominant-baseline="middle" text-anchor="end" font-size="16.2">4</text><text x="46.67" y="288.6" fill="#666" dominant-baseline="middle" text-anchor="end" font-size="16.2">5</text><text x="46.67" y="203.9" fill="#666" dominant-baseline="middle" text-anchor="end" font-size="16.2">6</text><text x="46.67" y="119.3" fill="#666" dominant-baseline="middle" text-anchor="end" font-size="16.2">7</text></g><g class="AxisGridLines"><line x1="51.67" y1="457.9" x2="715.00" y2="457.9" stroke="#ddd" stroke-dasharray="3,2"></line><line x1="51.67" y1="373.2" x2="715.00" y2="373.2" stroke="#ddd" stroke-dasharray="3,2"></line><line x1="51.67" y1="288.6" x2="715.00" y2="288.6" stroke="#ddd" stroke-dasharray="3,2"></line><line x1="51.67" y1="203.9" x2="715.00" y2="203.9" stroke="#ddd" stroke-dasharray="3,2"></line><line x1="51.67" y1="119.3" x2="715.00" y2="119.3" stroke="#ddd" stroke-dasharray="3,2"></line></g><g class="AxisGridLines"><line x1="146.6" y1="457.90" x2="146.6" y2="92.10" stroke="#ddd" stroke-dasharray="3,2"></line><line x1="247.7" y1="457.90" x2="247.7" y2="92.10" stroke="#ddd" stroke-dasharray="3,2"></line><line x1="348.8" y1="457.90" x2="348.8" y2="92.10" stroke="#ddd" stroke-dasharray="3,2"></line><line x1="449.9" y1="457.90" x2="449.9" y2="92.10" stroke="#ddd" stroke-dasharray="3,2"></line><line x1="551" y1="457.90" x2="551" y2="92.10" stroke="#ddd" stroke-dasharray="3,2"></line><line x1="652.1" y1="457.90" x2="652.1" y2="92.10" stroke="#ddd" stroke-dasharray="3,2"></line></g></g><g class="PointsWithLabels clickable" clip-path="url(#scatterBounds-52)" font-family="Arial Narrow, Arial, sans-serif"><rect x="51.672000000000004" y="92.1" width="663.328" height="365.79999999999995" fill="rgba(255,255,255,0)"></rect><defs><clipPath id="scatterBounds-52"><rect x="41.672000000000004" y="82.1" width="683.328" height="385.79999999999995"></rect></clipPath></defs><g class="key-China_0"><circle cx="449.00" cy="272.00" r="17.84" fill="#d14e5b" opacity="0.8" stroke="#333" stroke-width="0.7"></circle></g><g class="key-India_0"><circle cx="359.00" cy="337.00" r="17.28" fill="#d14e5b" opacity="0.8" stroke="#333" stroke-width="0.7"></circle></g><g class="key-United-States_0"><circle cx="572.00" cy="106.00" r="8.76" fill="#4d824b" opacity="0.8" stroke="#333" stroke-width="0.7"></circle></g><g class="key-Brazil_0"><circle cx="587.00" cy="120.00" r="7.02" fill="#69c487" opacity="0.8" stroke="#fff" stroke-width="0.7"></circle></g><g class="key-Pakistan_0"><circle cx="427.00" cy="251.00" r="6.74" fill="#d14e5b" opacity="0.8" stroke="#fff" stroke-width="0.7"></circle></g><g class="key-Nigeria_0"><circle cx="425.00" cy="304.00" r="6.53" fill="#5675c1" opacity="0.8" stroke="#333" stroke-width="0.7"></circle></g><g class="key-Russia_0"><circle cx="210.00" cy="200.00" r="6.00" fill="#ffd336" opacity="0.8" stroke="#333" stroke-width="0.7"></circle></g><g class="key-Japan_0"><circle cx="479.00" cy="210.00" r="5.68" fill="#d14e5b" opacity="0.8" stroke="#333" stroke-width="0.7"></circle></g><g class="key-Mexico_0"><circle cx="636.00" cy="146.00" r="5.49" fill="#4d824b" opacity="0.8" stroke="#333" stroke-width="0.7"></circle></g><g class="key-Philippines_0"><circle cx="542.00" cy="262.00" r="5.07" fill="#d14e5b" opacity="0.8" stroke="#333" stroke-width="0.7"></circle></g><g class="key-Germany_0"><circle cx="472.00" cy="120.00" r="4.68" fill="#ffd336" opacity="0.8" stroke="#333" stroke-width="0.7"></circle></g><g class="key-Turkey_0"><circle cx="437.00" cy="239.00" r="4.52" fill="#d14e5b" opacity="0.8" stroke="#333" stroke-width="0.7"></circle></g><g class="key-Thailand_0"><circle cx="613.00" cy="120.00" r="4.38" fill="#d14e5b" opacity="0.8" stroke="#fff" stroke-width="0.7"></circle></g><g class="key-South-Africa_0"><circle cx="296.00" cy="303.00" r="3.84" fill="#5675c1" opacity="0.8" stroke="#333" stroke-width="0.7"></circle></g><g class="key-South-Korea_0"><circle cx="545.00" cy="220.00" r="3.77" fill="#d14e5b" opacity="0.8" stroke="#333" stroke-width="0.7"></circle></g><g class="key-Colombia_0"><circle cx="583.00" cy="166.00" r="3.76" fill="#69c487" opacity="0.8" stroke="#333" stroke-width="0.7"></circle></g><g class="key-Spain_0"><circle cx="472.00" cy="165.00" r="3.72" fill="#ffd336" opacity="0.8" stroke="#333" stroke-width="0.7"></circle></g><g class="key-Ukraine_0"><circle cx="112.00" cy="348.00" r="3.65" fill="#ffd336" opacity="0.8" stroke="#333" stroke-width="0.7"></circle></g><g class="key-Argentina_0"><circle cx="494.00" cy="147.00" r="3.54" fill="#69c487" opacity="0.8" stroke="#333" stroke-width="0.7"></circle></g><g class="key-Poland_0"><circle cx="606.00" cy="225.00" r="3.44" fill="#ffd336" opacity="0.8" stroke="#fff" stroke-width="0.7"></circle></g><g class="key-Algeria_0"><circle cx="346.00" cy="173.00" r="3.39" fill="#5675c1" opacity="0.8" stroke="#333" stroke-width="0.7"></circle></g><g class="key-Iraq_0"><circle cx="106.00" cy="327.00" r="3.32" fill="#d14e5b" opacity="0.8" stroke="#333" stroke-width="0.7"></circle></g><g class="key-Morocco_0"><circle cx="317.00" cy="276.00" r="3.25" fill="#5675c1" opacity="0.8" stroke="#333" stroke-width="0.7"></circle></g><g class="key-Peru_0"><circle cx="265.00" cy="215.00" r="3.15" fill="#69c487" opacity="0.8" stroke="#333" stroke-width="0.7"></circle></g><g class="key-Malaysia_0"><circle cx="673.00" cy="207.00" r="3.14" fill="#d14e5b" opacity="0.8" stroke="#333" stroke-width="0.7"></circle></g><g class="key-Uzbekistan_0"><circle cx="682.00" cy="199.00" r="3.09" fill="#d14e5b" opacity="0.8" stroke="#fff" stroke-width="0.7"></circle></g><g class="key-Ghana_0"><circle cx="400.00" cy="385.00" r="3.00" fill="#5675c1" opacity="0.8" stroke="#333" stroke-width="0.7"></circle></g><g class="key-Australia_0"><circle cx="631.00" cy="94.00" r="2.88" fill="#a652ba" opacity="0.8" stroke="#fff" stroke-width="0.7"></circle></g><g class="key-Taiwan_0"><circle cx="550.00" cy="173.00" r="2.88" fill="#d14e5b" opacity="0.8" stroke="#fff" stroke-width="0.7"></circle></g><g class="key-Romania_0"><circle cx="101.00" cy="227.00" r="2.81" fill="#ffd336" opacity="0.8" stroke="#333" stroke-width="0.7"></circle></g><g class="key-Chile_0"><circle cx="443.00" cy="132.00" r="2.65" fill="#69c487" opacity="0.8" stroke="#333" stroke-width="0.7"></circle></g><g class="key-Netherlands_0"><circle cx="600.00" cy="92.00" r="2.61" fill="#ffd336" opacity="0.8" stroke="#fff" stroke-width="0.7"></circle></g><g class="key-Kazakhstan_0"><circle cx="525.00" cy="206.00" r="2.60" fill="#d14e5b" opacity="0.8" stroke="#333" stroke-width="0.7"></circle></g><g class="key-Ecuador_0"><circle cx="611.00" cy="208.00" r="2.53" fill="#69c487" opacity="0.8" stroke="#fff" stroke-width="0.7"></circle></g><g class="key-Zimbabwe_0"><circle cx="391.00" cy="357.00" r="2.45" fill="#5675c1" opacity="0.8" stroke="#333" stroke-width="0.7"></circle></g><g class="key-Rwanda_0"><circle cx="559.00" cy="407.00" r="2.37" fill="#5675c1" opacity="0.8" stroke="#333" stroke-width="0.7"></circle></g><g class="key-Tunisia_0"><circle cx="333.00" cy="308.00" r="2.33" fill="#5675c1" opacity="0.8" stroke="#fff" stroke-width="0.7"></circle></g><g class="key-Sweden_0"><circle cx="657.00" cy="99.00" r="2.27" fill="#ffd336" opacity="0.8" stroke="#333" stroke-width="0.7"></circle></g><g class="key-Azerbaijan_0"><circle cx="385.00" cy="267.00" r="2.27" fill="#d14e5b" opacity="0.8" stroke="#333" stroke-width="0.7"></circle></g><g class="key-Belarus_0"><circle cx="51.00" cy="219.00" r="2.27" fill="#ffd336" opacity="0.8" stroke="#333" stroke-width="0.7"></circle></g><g class="key-Hong-Kong_0"><circle cx="536.00" cy="249.00" r="2.15" fill="#d14e5b" opacity="0.8" stroke="#fff" stroke-width="0.7"></circle></g><g class="key-Jordan_0"><circle cx="465.00" cy="260.00" r="2.11" fill="#d14e5b" opacity="0.8" stroke="#fff" stroke-width="0.7"></circle></g><g class="key-Libya_0"><circle cx="486.00" cy="236.00" r="2.11" fill="#5675c1" opacity="0.8" stroke="#333" stroke-width="0.7"></circle></g><g class="key-Kyrgyzstan_0"><circle cx="672.00" cy="267.00" r="2.05" fill="#d14e5b" opacity="0.8" stroke="#333" stroke-width="0.7"></circle></g><g class="key-Singapore_0"><circle cx="606.00" cy="114.00" r="2.04" fill="#d14e5b" opacity="0.8" stroke="#fff" stroke-width="0.7"></circle></g><g class="key-New-Zealand_0"><circle cx="633.00" cy="93.00" r="1.99" fill="#a652ba" opacity="0.8" stroke="#fff" stroke-width="0.7"></circle></g><g class="key-Lebanon_0"><circle cx="323.00" cy="268.00" r="1.98" fill="#d14e5b" opacity="0.8" stroke="#fff" stroke-width="0.7"></circle></g><g class="key-Georgia_0"><circle cx="137.00" cy="348.00" r="1.98" fill="#d14e5b" opacity="0.8" stroke="#fff" stroke-width="0.7"></circle></g><g class="key-Uruguay_0"><circle cx="477.00" cy="156.00" r="1.93" fill="#69c487" opacity="0.8" stroke="#fff" stroke-width="0.7"></circle></g><g class="key-Armenia_0"><circle cx="381.00" cy="334.00" r="1.91" fill="#d14e5b" opacity="0.8" stroke="#333" stroke-width="0.7"></circle></g><g class="key-Kuwait_0"><circle cx="591.00" cy="188.00" r="1.90" fill="#d14e5b" opacity="0.8" stroke="#333" stroke-width="0.7"></circle></g><g class="key-Slovenia_0"><circle cx="422.00" cy="231.00" r="1.85" fill="#ffd336" opacity="0.8" stroke="#fff" stroke-width="0.7"></circle></g><g class="key-Qatar_0"><circle cx="715.00" cy="172.00" r="1.84" fill="#d14e5b" opacity="0.8" stroke="#333" stroke-width="0.7"></circle></g><g class="key-Bahrain_0"><circle cx="200.00" cy="190.00" r="1.80" fill="#d14e5b" opacity="0.8" stroke="#fff" stroke-width="0.7"></circle></g><g class="key-Trinidad-and-Tobago_0"><circle cx="510.00" cy="189.00" r="1.80" fill="#4d824b" opacity="0.8" stroke="#fff" stroke-width="0.7"></circle></g><g class="key-Estonia_0"><circle cx="256.00" cy="241.00" r="1.80" fill="#ffd336" opacity="0.8" stroke="#333" stroke-width="0.7"></circle></g><g class="key-Cyprus_0"><circle cx="390.00" cy="235.00" r="1.79" fill="#ffd336" opacity="0.8" stroke="#333" stroke-width="0.7"></circle></g><g class="key-Palestine_0"><circle cx="235.00" cy="312.00" r="1.71" fill="#d14e5b" opacity="0.8" stroke="#333" stroke-width="0.7"></circle></g><g class="key-Yemen_0"><circle cx="189.00" cy="376.00" r="1.71" fill="#d14e5b" opacity="0.8" stroke="#333" stroke-width="0.7"></circle></g><g class="backgroundLabels" fill="#333"><text x="449.00" y="253.16" font-size="14.30">China</text><text x="359.00" y="318.72" font-size="14.10">India</text><text x="572.00" y="103.87" font-size="11.77">United States</text><text x="425.00" y="296.47" font-size="11.41">Nigeria</text><text x="210.00" y="193.00" font-size="11.34">Russia</text><text x="479.00" y="203.32" font-size="11.30">Japan</text><text x="636.00" y="139.51" font-size="11.28">Mexico</text><text x="542.00" y="255.93" font-size="11.24">Philippines</text><text x="472.00" y="114.32" font-size="11.20">Germany</text><text x="437.00" y="233.48" font-size="11.18">Turkey</text><text x="296.00" y="298.16" font-size="11.12">South Africa</text><text x="545.00" y="215.23" font-size="11.12">South Korea</text><text x="583.00" y="161.24" font-size="11.11">Colombia</text><text x="472.00" y="160.28" font-size="11.11">Spain</text><text x="112.00" y="343.35" font-size="11.11">Ukraine</text><text x="494.00" y="142.46" font-size="11.10">Argentina</text><text x="346.00" y="168.61" font-size="11.09">Algeria</text><text x="106.00" y="322.68" font-size="11.08">Iraq</text><text x="317.00" y="271.75" font-size="11.08">Morocco</text><text x="265.00" y="210.85" font-size="11.07">Peru</text><text x="629.27" y="202.86" font-size="11.07">Malaysia</text><text x="400.00" y="381.00" font-size="11.06">Ghana</text><text x="101.00" y="223.19" font-size="11.05">Romania</text><text x="443.00" y="128.35" font-size="11.04">Chile</text><text x="525.00" y="202.40" font-size="11.04">Kazakhstan</text><text x="391.00" y="353.55" font-size="11.03">Zimbabwe</text><text x="559.00" y="403.63" font-size="11.03">Rwanda</text><text x="657.00" y="103.12" font-size="11.02">Sweden</text><text x="385.00" y="263.73" font-size="11.02">Azerbaijan</text><text x="51.00" y="215.73" font-size="11.02">Belarus</text><text x="486.00" y="232.89" font-size="11.01">Libya</text><text x="617.39" y="263.95" font-size="11.01">Kyrgyzstan</text><text x="381.00" y="331.09" font-size="11.00">Armenia</text><text x="591.00" y="185.10" font-size="11.00">Kuwait</text><text x="687.38" y="169.16" font-size="11.00">Qatar</text><text x="256.00" y="238.20" font-size="11.00">Estonia</text><text x="390.00" y="232.21" font-size="11.00">Cyprus</text><text x="235.00" y="309.29" font-size="11.00">Palestine</text><text x="189.00" y="373.29" font-size="11.00">Yemen</text></g></g><g class="ScatterColorLegend clickable" style="cursor:pointer"><g class="legendMark"><rect x="735" y="89.6" width="43.256" height="17.6" fill="#fff" opacity="0"></rect>,<rect x="735" y="95.1" width="6" height="6" fill="#5675c1"></rect>,<text font-size="12.60" x="746.0" y="102.2"><tspan x="746" y="102.17999999999999">Africa</tspan></text></g><g class="legendMark"><rect x="735" y="107.19999999999999" width="35.57" height="17.6" fill="#fff" opacity="0"></rect>,<rect x="735" y="112.69999999999999" width="6" height="6" fill="#d14e5b"></rect>,<text font-size="12.60" x="746.0" y="119.8"><tspan x="746" y="119.77999999999999">Asia</tspan></text></g><g class="legendMark"><rect x="735" y="124.8" width="51.824" height="17.6" fill="#fff" opacity="0"></rect>,<rect x="735" y="130.3" width="6" height="6" fill="#ffd336"></rect>,<text font-size="12.60" x="746.0" y="137.4"><tspan x="746" y="137.38">Europe</tspan></text></g><g class="legendMark"><rect x="735" y="142.4" width="91.64" height="17.6" fill="#fff" opacity="0"></rect>,<rect x="735" y="147.9" width="6" height="6" fill="#4d824b"></rect>,<text font-size="12.60" x="746.0" y="155.0"><tspan x="746" y="154.98">North America</tspan></text></g><g class="legendMark"><rect x="735" y="160" width="58.124" height="17.6" fill="#fff" opacity="0"></rect>,<rect x="735" y="165.5" width="6" height="6" fill="#a652ba"></rect>,<text font-size="12.60" x="746.0" y="172.6"><tspan x="746" y="172.57999999999998">Oceania</tspan></text></g><g class="legendMark"><rect x="735" y="177.6" width="93.908" height="17.6" fill="#fff" opacity="0"></rect>,<rect x="735" y="183.1" width="6" height="6" fill="#69c487"></rect>,<text font-size="12.60" x="746.0" y="190.2"><tspan x="746" y="190.17999999999998">South America</tspan></text></g></g></g><g class="SourcesFooter" style="fill:#777"><g class="clickable" style="fill:#777"><text font-size="12.60" x="15.0" y="526.8"><tspan x="15" y="526.7800000000001">Source: World Value Survey (2014), World Happiness Report (2018)</tspan></text></g><text font-size="12.60" x="15.0" y="541.4"><tspan x="15" y="541.3800000000001">Note: Cantril ladder question: “Please imagine a ladder, with steps numbered from 0 at the bottom to 10 at the top. The top of theladder</tspan><tspan x="15" y="555.2400000000001">represents the best possible life for you and the bottom of the ladder represents the worst possible life for you. On which step ofthe ladder would</tspan><tspan x="15" y="569.1000000000001">you say you personally feel you stand at this time?” World Value Survey question: &quot;Taking all things together, would you say you are (i) Very</tspan><tspan x="15" y="582.9600000000002">happy, (ii) Rather happy, (iii) Not very happy or (iv) Not at all happy&quot;.</tspan></text><text font-size="12.60" x="471.2" y="526.8"><tspan x="471.238" y="526.7800000000001"><a target='_blank' style='fill: #777;' href='https://ourworldindata.org/happiness-and-life-satisfaction/'>OurWorldInData.org/happiness-and-life-satisfaction/</a> • <a style="fill: #777;" class="cclogo" href="http://creativecommons.org/licenses/by-sa/4.0/deed.en_US" target="_blank">CC BY-SA</a></tspan></text></g></g></svg>