<svg xmlns="http://www.w3.org/2000/svg" version="1.1" style="font-family:&#x27;Helvetica Neue&#x27;, Helvetica, Arial, sans-serif;font-size:18px;background-color:white;text-rendering:optimizeLegibility;-webkit-font-smoothing:antialiased" width="850" height="600"><g class="ChartTab"><g class="HeaderView"><g opacity="0.8" transform="translate(778, 15) scale(0.27)"><a xmlns:xlink="http://www.w3.org/1999/xlink" xlink:href="https://ourworldindata.org" target="_blank"><g><rect x="0" y="0" fill="#1B2543" width="211.2" height="130.1"/><rect x="0" y="112.2" fill="#E63912" width="211.2" height="17.9"/><g><rect x="1.2" y="12.3" fill="none" width="210.2" height="99.2"/><path fill="#FFFFFF" d="M37.8,32.2c0,12.7-7.7,19.4-17.1,19.4c-9.7,0-16.6-7.5-16.6-18.7c0-11.7,7.3-19.3,17.1-19.3 C31.3,13.7,37.8,21.3,37.8,32.2z M9.2,32.8c0,7.9,4.3,14.9,11.8,14.9c7.5,0,11.8-6.9,11.8-15.3c0-7.3-3.8-14.9-11.8-14.9 C13.1,17.5,9.2,24.8,9.2,32.8z"/><path fill="#FFFFFF" d="M62.7,43.8c0,2.7,0.1,5.1,0.2,7.2h-4.3l-0.3-4.3h-0.1c-1.3,2.1-4,4.9-8.8,4.9c-4.2,0-9.1-2.3-9.1-11.6 V24.6h4.8v14.6c0,5,1.5,8.4,5.9,8.4c3.2,0,5.5-2.2,6.3-4.4c0.3-0.7,0.4-1.6,0.4-2.5V24.6h4.8V43.8z"/><path fill="#FFFFFF" d="M67.3,32.8c0-3.1-0.1-5.8-0.2-8.2h4.2l0.2,5.2h0.2c1.2-3.5,4.1-5.8,7.3-5.8c0.5,0,0.9,0.1,1.4,0.2v4.5 c-0.5-0.1-1-0.2-1.6-0.2c-3.4,0-5.8,2.6-6.5,6.2c-0.1,0.7-0.2,1.4-0.2,2.2V51h-4.8V32.8z"/><path fill="#FFFFFF" d="M95.4,51l-9.4-36.8h5l4.4,18.6c1.1,4.6,2.1,9.2,2.7,12.7h0.1c0.6-3.7,1.8-8,3-12.8l4.9-18.5h5l4.5,18.7 c1,4.4,2,8.7,2.6,12.6h0.1c0.8-4,1.8-8.1,3-12.7l4.9-18.5h4.9L120.6,51h-5L111,31.9c-1.1-4.7-1.9-8.3-2.4-12h-0.1 c-0.7,3.7-1.5,7.3-2.8,12L100.4,51H95.4z"/><path fill="#FFFFFF" d="M154.9,37.6c0,9.8-6.8,14-13.2,14c-7.2,0-12.7-5.2-12.7-13.6c0-8.8,5.8-14,13.1-14 C149.8,24,154.9,29.5,154.9,37.6z M133.9,37.9c0,5.8,3.3,10.1,8,10.1c4.6,0,8-4.3,8-10.3c0-4.5-2.2-10.1-7.9-10.1 C136.3,27.6,133.9,32.8,133.9,37.9z"/><path fill="#FFFFFF" d="M158.2,32.8c0-3.1-0.1-5.8-0.2-8.2h4.2l0.2,5.2h0.2c1.2-3.5,4.1-5.8,7.3-5.8c0.5,0,0.9,0.1,1.4,0.2v4.5 c-0.5-0.1-1-0.2-1.6-0.2c-3.4,0-5.8,2.6-6.5,6.2c-0.1,0.7-0.2,1.4-0.2,2.2V51h-4.8V32.8z"/><path fill="#FFFFFF" d="M173.5,12.3h4.8V51h-4.8V12.3z"/><path fill="#FFFFFF" d="M206.5,12.3v31.9c0,2.3,0.1,5,0.2,6.8h-4.3l-0.2-4.6H202c-1.5,2.9-4.7,5.2-9,5.2 c-6.4,0-11.3-5.4-11.3-13.4c-0.1-8.8,5.4-14.2,11.9-14.2c4,0,6.8,1.9,8,4h0.1V12.3H206.5z M201.7,35.4c0-0.6-0.1-1.4-0.2-2 c-0.7-3.1-3.3-5.6-6.9-5.6c-5,0-7.9,4.4-7.9,10.2c0,5.3,2.6,9.8,7.8,9.8c3.2,0,6.2-2.1,7.1-5.7c0.2-0.7,0.2-1.3,0.2-2.1V35.4z"/><path fill="#FFFFFF" d="M42.8,64c0.1,1.6-1.1,2.9-3.1,2.9c-1.7,0-2.9-1.3-2.9-2.9c0-1.7,1.3-3,3-3C41.7,61,42.8,62.3,42.8,64z M37.4,97.8V71.4h4.8v26.4H37.4z"/><path fill="#FFFFFF" d="M47.5,78.6c0-2.7-0.1-5-0.2-7.1h4.3l0.3,4.4h0.1c1.3-2.5,4.4-5,8.8-5c3.7,0,9.4,2.2,9.4,11.2v15.8h-4.8 V82.6c0-4.3-1.6-7.8-6.1-7.8c-3.2,0-5.6,2.2-6.5,4.9c-0.2,0.6-0.3,1.4-0.3,2.2v15.9h-4.8V78.6z"/><path fill="#FFFFFF" d="M84,61.6c2.9-0.4,6.3-0.8,10.1-0.8c6.8,0,11.7,1.6,14.9,4.6c3.3,3,5.2,7.3,5.2,13.2c0,6-1.9,10.9-5.3,14.3 c-3.4,3.4-9.1,5.3-16.3,5.3c-3.4,0-6.2-0.2-8.6-0.4V61.6z M88.8,94.1c1.2,0.2,3,0.3,4.8,0.3c10.2,0,15.7-5.7,15.7-15.6 c0.1-8.7-4.9-14.2-14.9-14.2c-2.5,0-4.3,0.2-5.6,0.5V94.1z"/><path fill="#FFFFFF" d="M132.1,97.8l-0.4-3.3h-0.2c-1.5,2.1-4.3,3.9-8.1,3.9c-5.4,0-8.1-3.8-8.1-7.6c0-6.4,5.7-9.9,15.9-9.8v-0.5 c0-2.2-0.6-6.1-6-6.1c-2.5,0-5,0.8-6.9,2l-1.1-3.2c2.2-1.4,5.4-2.3,8.7-2.3c8.1,0,10.1,5.5,10.1,10.8v9.9c0,2.3,0.1,4.5,0.4,6.3 H132.1z M131.4,84.4c-5.3-0.1-11.2,0.8-11.2,5.9c0,3.1,2.1,4.6,4.5,4.6c3.4,0,5.6-2.2,6.4-4.4c0.2-0.5,0.3-1,0.3-1.5V84.4z"/><path fill="#FFFFFF" d="M146.6,63.9v7.6h6.9v3.7h-6.9v14.2c0,3.3,0.9,5.1,3.6,5.1c1.3,0,2.2-0.2,2.8-0.3l0.2,3.6 c-0.9,0.4-2.4,0.7-4.3,0.7c-2.2,0-4-0.7-5.2-2c-1.4-1.4-1.9-3.8-1.9-6.9V75.1h-4.1v-3.7h4.1v-6.3L146.6,63.9z"/><path fill="#FFFFFF" d="M171.4,97.8l-0.4-3.3h-0.2c-1.5,2.1-4.3,3.9-8.1,3.9c-5.4,0-8.1-3.8-8.1-7.6c0-6.4,5.7-9.9,15.9-9.8v-0.5 c0-2.2-0.6-6.1-6-6.1c-2.5,0-5,0.8-6.9,2l-1.1-3.2c2.2-1.4,5.4-2.3,8.7-2.3c8.1,0,10.1,5.5,10.1,10.8v9.9c0,2.3,0.1,4.5,0.4,6.3 H171.4z M170.7,84.4c-5.3-0.1-11.2,0.8-11.2,5.9c0,3.1,2.1,4.6,4.5,4.6c3.4,0,5.6-2.2,6.4-4.4c0.2-0.5,0.3-1,0.3-1.5V84.4z"/></g></g></a></g><a href="https://ourworldindata.org/grapher/hiv-funding-by-region" target="_blank"><text font-size="25.20" x="15.0" y="35.2" fill="#555"><tspan x="15" y="35.160000000000004">HIV funding in low- and middle-income countries, by region</tspan></text></a><text font-size="14.40" x="15.0" y="53.7" fill="#666"><tspan x="15" y="53.72">Total resource available in low-to-middle income countries for prevention and treatment of HIV, differentiated by</tspan><tspan x="15" y="69.56">region. This is measured in constant 2016 US$.</tspan></text></g><g class="StackedArea"><defs><clipPath id="boundsClip-453"><rect x="93.224" y="0" width="820" height="928.8"></rect></clipPath></defs><g class="AxisBoxView"><g class="HorizontalAxis"><text x="93.2" y="556.5" fill="#666" text-anchor="middle" font-size="16.2">2006</text><text x="212.1" y="556.5" fill="#666" text-anchor="middle" font-size="16.2">2008</text><text x="331" y="556.5" fill="#666" text-anchor="middle" font-size="16.2">2010</text><text x="449.8" y="556.5" fill="#666" text-anchor="middle" font-size="16.2">2012</text><text x="568.7" y="556.5" fill="#666" text-anchor="middle" font-size="16.2">2014</text><text x="687.5" y="556.5" fill="#666" text-anchor="middle" font-size="16.2">2016</text></g><g class="VerticalAxis"><text x="88.22" y="535.3" fill="#666" dominant-baseline="middle" text-anchor="end" font-size="16.2">$0</text><text x="88.22" y="419.5" fill="#666" dominant-baseline="middle" text-anchor="end" font-size="16.2">$5 billion</text><text x="88.22" y="303.7" fill="#666" dominant-baseline="middle" text-anchor="end" font-size="16.2">$10 billion</text><text x="88.22" y="187.9" fill="#666" dominant-baseline="middle" text-anchor="end" font-size="16.2">$15 billion</text></g><g class="AxisGridLines"><line x1="93.22" y1="535.3" x2="687.54" y2="535.3" stroke="#ccc"></line><line x1="93.22" y1="419.5" x2="687.54" y2="419.5" stroke="#ddd" stroke-dasharray="3,2"></line><line x1="93.22" y1="303.7" x2="687.54" y2="303.7" stroke="#ddd" stroke-dasharray="3,2"></line><line x1="93.22" y1="187.9" x2="687.54" y2="187.9" stroke="#ddd" stroke-dasharray="3,2"></line></g></g><g clip-path="url(#boundsClip-453)"><g class="HeightedLegend clickable"><g class="legendMark"><g class="indicator"><line x1="692.545" y1="95.1" x2="715.045" y2="95.1" stroke="#666" stroke-width="0.5"></line><line x1="715.045" y1="95.1" x2="715.045" y2="95.1" stroke="#666" stroke-width="0.5"></line><line x1="715.045" y1="95.1" x2="717.545" y2="95.1" stroke="#666" stroke-width="0.5"></line></g><rect x="687.545" y="81.05" width="132.2" height="28.1" fill="#fff" opacity="0"></rect><text font-size="13.50" x="722.5" y="91.8" fill="#34983f"><tspan x="722.545" y="91.85">Middle East and</tspan><tspan x="722.545" y="106.69999999999999">North Africa</tspan></text></g><g class="legendMark"><g class="indicator"><line x1="692.545" y1="101.9" x2="710.045" y2="101.9" stroke="#666" stroke-width="0.5"></line><line x1="710.045" y1="101.9" x2="710.045" y2="117.9" stroke="#666" stroke-width="0.5"></line><line x1="710.045" y1="117.9" x2="717.545" y2="117.9" stroke="#666" stroke-width="0.5"></line></g><rect x="687.545" y="111.15" width="97.505" height="13.5" fill="#fff" opacity="0"></rect><text font-size="13.50" x="722.5" y="122.0" fill="#9ecc8a"><tspan x="722.545" y="121.95">Caribbean</tspan></text></g><g class="legendMark"><g class="indicator"><line x1="692.545" y1="113.5" x2="705.045" y2="113.5" stroke="#666" stroke-width="0.5"></line><line x1="705.045" y1="113.5" x2="705.045" y2="140.70000000000002" stroke="#666" stroke-width="0.5"></line><line x1="705.045" y1="140.70000000000002" x2="717.545" y2="140.70000000000002" stroke="#666" stroke-width="0.5"></line></g><rect x="687.545" y="126.65" width="135.17000000000002" height="28.1" fill="#fff" opacity="0"></rect><text font-size="13.50" x="722.5" y="137.5" fill="#ffd53e"><tspan x="722.545" y="137.45000000000002">Eastern Europe</tspan><tspan x="722.545" y="152.3">and Central Asia</tspan></text></g><g class="legendMark"><g class="indicator"><line x1="692.545" y1="150.8" x2="700.045" y2="150.8" stroke="#666" stroke-width="0.5"></line><line x1="700.045" y1="150.8" x2="700.045" y2="163.5" stroke="#666" stroke-width="0.5"></line><line x1="700.045" y1="163.5" x2="717.545" y2="163.5" stroke="#666" stroke-width="0.5"></line></g><rect x="687.545" y="156.75" width="117.75500000000001" height="13.5" fill="#fff" opacity="0"></rect><text font-size="13.50" x="722.5" y="167.6" fill="#ca2628"><tspan x="722.545" y="167.55">Latin America</tspan></text></g><g class="legendMark"><g class="indicator"><line x1="692.545" y1="222.2" x2="705.045" y2="222.2" stroke="#666" stroke-width="0.5"></line><line x1="705.045" y1="222.2" x2="705.045" y2="222.2" stroke="#666" stroke-width="0.5"></line><line x1="705.045" y1="222.2" x2="717.545" y2="222.2" stroke="#666" stroke-width="0.5"></line></g><rect x="687.545" y="208.14999999999998" width="110.465" height="28.1" fill="#fff" opacity="0"></rect><text font-size="13.50" x="722.5" y="218.9" fill="#e6332e"><tspan x="722.545" y="218.95">Asia and the</tspan><tspan x="722.545" y="233.79999999999998">Pacific</tspan></text></g><g class="legendMark"><g class="indicator"><line x1="692.545" y1="288.1" x2="705.045" y2="288.1" stroke="#666" stroke-width="0.5"></line><line x1="705.045" y1="288.1" x2="705.045" y2="288.1" stroke="#666" stroke-width="0.5"></line><line x1="705.045" y1="288.1" x2="717.545" y2="288.1" stroke="#666" stroke-width="0.5"></line></g><rect x="687.545" y="274.05" width="139.625" height="28.1" fill="#fff" opacity="0"></rect><text font-size="13.50" x="722.5" y="284.9" fill="#2a939b"><tspan x="722.545" y="284.85">West and Central</tspan><tspan x="722.545" y="299.70000000000005">Africa</tspan></text></g><g class="legendMark"><g class="indicator"><line x1="692.545" y1="423.9" x2="705.045" y2="423.9" stroke="#666" stroke-width="0.5"></line><line x1="705.045" y1="423.9" x2="705.045" y2="423.9" stroke="#666" stroke-width="0.5"></line><line x1="705.045" y1="423.9" x2="717.545" y2="423.9" stroke="#666" stroke-width="0.5"></line></g><rect x="687.545" y="409.84999999999997" width="147.455" height="28.1" fill="#fff" opacity="0"></rect><text font-size="13.50" x="722.5" y="420.6" fill="#3360a9"><tspan x="722.545" y="420.65">East and Southern</tspan><tspan x="722.545" y="435.5">Africa</tspan></text></g></g><g class="Areas"><rect x="93.224" y="92.1" width="594.3209999999999" height="443.19999999999993" opacity="0" fill="rgba(255,255,255,0)"></rect><path class="East-and-Southern-Africa_0-area" stroke-linecap="round" d="M93.2 429L152.7 405L212.1 359.4L271.5 351.4L331 349.9L390.4 328.7L449.8 318.5L509.2 311.6L568.7 307.7L628.1 316.8L687.5 312.6L687.545 535.3L93.224 535.3" fill="#3360a9" fill-opacity="0.7"></path><path class="West-and-Central-Africa_0-area" stroke-linecap="round" d="M93.2 399.4L152.7 373.5L212.1 311.7L271.5 303.2L331 305.6L390.4 283.1L449.8 268.8L509.2 255L568.7 258.7L628.1 267.9L687.5 263.6L687.5 312.6L628.1 316.8L568.7 307.7L509.2 311.6L449.8 318.5L390.4 328.7L331 349.9L271.5 351.4L212.1 359.4L152.7 405L93.2 429" fill="#2a939b" fill-opacity="0.7"></path><path class="Asia-and-the-Pacific_0-area" stroke-linecap="round" d="M93.2 351.1L152.7 312.5L212.1 247.5L271.5 239.1L331 244.6L390.4 206.3L449.8 194.6L509.2 174.3L568.7 182.8L628.1 187.3L687.5 180.8L687.5 263.6L628.1 267.9L568.7 258.7L509.2 255L449.8 268.8L390.4 283.1L331 305.6L271.5 303.2L212.1 311.7L152.7 373.5L93.2 399.4" fill="#e6332e" fill-opacity="0.7"></path><path class="Latin-America_0-area" stroke-linecap="round" d="M93.2 326L152.7 282.3L212.1 211.2L271.5 205.3L331 202.2L390.4 158.5L449.8 147.4L509.2 122.4L568.7 129.9L628.1 130.7L687.5 120.9L687.5 180.8L628.1 187.3L568.7 182.8L509.2 174.3L449.8 194.6L390.4 206.3L331 244.6L271.5 239.1L212.1 247.5L152.7 312.5L93.2 351.1" fill="#ca2628" fill-opacity="0.7"></path><path class="Eastern-Europe-and-Central-Asia_0-area" stroke-linecap="round" d="M93.2 315.3L152.7 269.7L212.1 196.4L271.5 193.8L331 189.3L390.4 144L449.8 131.3L509.2 106.6L568.7 114.7L628.1 116.2L687.5 106.1L687.5 120.9L628.1 130.7L568.7 129.9L509.2 122.4L449.8 147.4L390.4 158.5L331 202.2L271.5 205.3L212.1 211.2L152.7 282.3L93.2 326" fill="#ffd53e" fill-opacity="0.7"></path><path class="Caribbean_0-area" stroke-linecap="round" d="M93.2 308.2L152.7 262.5L212.1 187.1L271.5 183.9L331 180.5L390.4 134.3L449.8 121.7L509.2 97.6L568.7 105.9L628.1 107.7L687.5 97.6L687.5 106.1L628.1 116.2L568.7 114.7L509.2 106.6L449.8 131.3L390.4 144L331 189.3L271.5 193.8L212.1 196.4L152.7 269.7L93.2 315.3" fill="#9ecc8a" fill-opacity="0.7"></path><path class="Middle-East-and-North-Africa_0-area" stroke-linecap="round" d="M93.2 303.7L152.7 257.6L212.1 181.4L271.5 179.7L331 174.5L390.4 128.3L449.8 116.2L509.2 92.1L568.7 100.7L628.1 102.6L687.5 92.5L687.5 97.6L628.1 107.7L568.7 105.9L509.2 97.6L449.8 121.7L390.4 134.3L331 180.5L271.5 183.9L212.1 187.1L152.7 262.5L93.2 308.2" fill="#34983f" fill-opacity="0.7"></path><path class="East-and-Southern-Africa_0-border" stroke-linecap="round" d="M93.2 429L152.7 405L212.1 359.4L271.5 351.4L331 349.9L390.4 328.7L449.8 318.5L509.2 311.6L568.7 307.7L628.1 316.8L687.5 312.6" stroke="rgb(43, 80, 141)" stroke-opacity="0.7" stroke-width="0.5" fill="none"></path><path class="West-and-Central-Africa_0-border" stroke-linecap="round" d="M93.2 399.4L152.7 373.5L212.1 311.7L271.5 303.2L331 305.6L390.4 283.1L449.8 268.8L509.2 255L568.7 258.7L628.1 267.9L687.5 263.6" stroke="rgb(35, 123, 130)" stroke-opacity="0.7" stroke-width="0.5" fill="none"></path><path class="Asia-and-the-Pacific_0-border" stroke-linecap="round" d="M93.2 351.1L152.7 312.5L212.1 247.5L271.5 239.1L331 244.6L390.4 206.3L449.8 194.6L509.2 174.3L568.7 182.8L628.1 187.3L687.5 180.8" stroke="rgb(192, 43, 38)" stroke-opacity="0.7" stroke-width="0.5" fill="none"></path><path class="Latin-America_0-border" stroke-linecap="round" d="M93.2 326L152.7 282.3L212.1 211.2L271.5 205.3L331 202.2L390.4 158.5L449.8 147.4L509.2 122.4L568.7 129.9L628.1 130.7L687.5 120.9" stroke="rgb(169, 32, 33)" stroke-opacity="0.7" stroke-width="0.5" fill="none"></path><path class="Eastern-Europe-and-Central-Asia_0-border" stroke-linecap="round" d="M93.2 315.3L152.7 269.7L212.1 196.4L271.5 193.8L331 189.3L390.4 144L449.8 131.3L509.2 106.6L568.7 114.7L628.1 116.2L687.5 106.1" stroke="rgb(213, 178, 52)" stroke-opacity="0.7" stroke-width="0.5" fill="none"></path><path class="Caribbean_0-border" stroke-linecap="round" d="M93.2 308.2L152.7 262.5L212.1 187.1L271.5 183.9L331 180.5L390.4 134.3L449.8 121.7L509.2 97.6L568.7 105.9L628.1 107.7L687.5 97.6" stroke="rgb(132, 171, 115)" stroke-opacity="0.7" stroke-width="0.5" fill="none"></path><path class="Middle-East-and-North-Africa_0-border" stroke-linecap="round" d="M93.2 303.7L152.7 257.6L212.1 181.4L271.5 179.7L331 174.5L390.4 128.3L449.8 116.2L509.2 92.1L568.7 100.7L628.1 102.6L687.5 92.5" stroke="rgb(44, 127, 53)" stroke-opacity="0.7" stroke-width="0.5" fill="none"></path></g></g></g><g class="SourcesFooter" style="fill:#777"><g class="clickable" style="fill:#777"><text font-size="12.60" x="15.0" y="581.6"><tspan x="15" y="581.58">Source: UNAIDS</tspan></text></g><text font-size="12.60" x="775.4" y="581.6"><tspan x="775.402" y="581.58"><a style="fill: #777;" class="cclogo" href="http://creativecommons.org/licenses/by-sa/4.0/deed.en_US" target="_blank">CC BY-SA</a></tspan></text></g></g></svg>