<svg xmlns="http://www.w3.org/2000/svg" version="1.1" style="font-family:&#x27;Helvetica Neue&#x27;, Helvetica, Arial, sans-serif;font-size:18px;background-color:white;text-rendering:optimizeLegibility;-webkit-font-smoothing:antialiased" width="850" height="600"><g class="ChartTab"><g class="HeaderView"><g opacity="0.8" transform="translate(778, 15) scale(0.27)"><a xmlns:xlink="http://www.w3.org/1999/xlink" xlink:href="https://ourworldindata.org" target="_blank"><g><rect x="0" y="0" fill="#1B2543" width="211.2" height="130.1"/><rect x="0" y="112.2" fill="#E63912" width="211.2" height="17.9"/><g><rect x="1.2" y="12.3" fill="none" width="210.2" height="99.2"/><path fill="#FFFFFF" d="M37.8,32.2c0,12.7-7.7,19.4-17.1,19.4c-9.7,0-16.6-7.5-16.6-18.7c0-11.7,7.3-19.3,17.1-19.3 C31.3,13.7,37.8,21.3,37.8,32.2z M9.2,32.8c0,7.9,4.3,14.9,11.8,14.9c7.5,0,11.8-6.9,11.8-15.3c0-7.3-3.8-14.9-11.8-14.9 C13.1,17.5,9.2,24.8,9.2,32.8z"/><path fill="#FFFFFF" d="M62.7,43.8c0,2.7,0.1,5.1,0.2,7.2h-4.3l-0.3-4.3h-0.1c-1.3,2.1-4,4.9-8.8,4.9c-4.2,0-9.1-2.3-9.1-11.6 V24.6h4.8v14.6c0,5,1.5,8.4,5.9,8.4c3.2,0,5.5-2.2,6.3-4.4c0.3-0.7,0.4-1.6,0.4-2.5V24.6h4.8V43.8z"/><path fill="#FFFFFF" d="M67.3,32.8c0-3.1-0.1-5.8-0.2-8.2h4.2l0.2,5.2h0.2c1.2-3.5,4.1-5.8,7.3-5.8c0.5,0,0.9,0.1,1.4,0.2v4.5 c-0.5-0.1-1-0.2-1.6-0.2c-3.4,0-5.8,2.6-6.5,6.2c-0.1,0.7-0.2,1.4-0.2,2.2V51h-4.8V32.8z"/><path fill="#FFFFFF" d="M95.4,51l-9.4-36.8h5l4.4,18.6c1.1,4.6,2.1,9.2,2.7,12.7h0.1c0.6-3.7,1.8-8,3-12.8l4.9-18.5h5l4.5,18.7 c1,4.4,2,8.7,2.6,12.6h0.1c0.8-4,1.8-8.1,3-12.7l4.9-18.5h4.9L120.6,51h-5L111,31.9c-1.1-4.7-1.9-8.3-2.4-12h-0.1 c-0.7,3.7-1.5,7.3-2.8,12L100.4,51H95.4z"/><path fill="#FFFFFF" d="M154.9,37.6c0,9.8-6.8,14-13.2,14c-7.2,0-12.7-5.2-12.7-13.6c0-8.8,5.8-14,13.1-14 C149.8,24,154.9,29.5,154.9,37.6z M133.9,37.9c0,5.8,3.3,10.1,8,10.1c4.6,0,8-4.3,8-10.3c0-4.5-2.2-10.1-7.9-10.1 C136.3,27.6,133.9,32.8,133.9,37.9z"/><path fill="#FFFFFF" d="M158.2,32.8c0-3.1-0.1-5.8-0.2-8.2h4.2l0.2,5.2h0.2c1.2-3.5,4.1-5.8,7.3-5.8c0.5,0,0.9,0.1,1.4,0.2v4.5 c-0.5-0.1-1-0.2-1.6-0.2c-3.4,0-5.8,2.6-6.5,6.2c-0.1,0.7-0.2,1.4-0.2,2.2V51h-4.8V32.8z"/><path fill="#FFFFFF" d="M173.5,12.3h4.8V51h-4.8V12.3z"/><path fill="#FFFFFF" d="M206.5,12.3v31.9c0,2.3,0.1,5,0.2,6.8h-4.3l-0.2-4.6H202c-1.5,2.9-4.7,5.2-9,5.2 c-6.4,0-11.3-5.4-11.3-13.4c-0.1-8.8,5.4-14.2,11.9-14.2c4,0,6.8,1.9,8,4h0.1V12.3H206.5z M201.7,35.4c0-0.6-0.1-1.4-0.2-2 c-0.7-3.1-3.3-5.6-6.9-5.6c-5,0-7.9,4.4-7.9,10.2c0,5.3,2.6,9.8,7.8,9.8c3.2,0,6.2-2.1,7.1-5.7c0.2-0.7,0.2-1.3,0.2-2.1V35.4z"/><path fill="#FFFFFF" d="M42.8,64c0.1,1.6-1.1,2.9-3.1,2.9c-1.7,0-2.9-1.3-2.9-2.9c0-1.7,1.3-3,3-3C41.7,61,42.8,62.3,42.8,64z M37.4,97.8V71.4h4.8v26.4H37.4z"/><path fill="#FFFFFF" d="M47.5,78.6c0-2.7-0.1-5-0.2-7.1h4.3l0.3,4.4h0.1c1.3-2.5,4.4-5,8.8-5c3.7,0,9.4,2.2,9.4,11.2v15.8h-4.8 V82.6c0-4.3-1.6-7.8-6.1-7.8c-3.2,0-5.6,2.2-6.5,4.9c-0.2,0.6-0.3,1.4-0.3,2.2v15.9h-4.8V78.6z"/><path fill="#FFFFFF" d="M84,61.6c2.9-0.4,6.3-0.8,10.1-0.8c6.8,0,11.7,1.6,14.9,4.6c3.3,3,5.2,7.3,5.2,13.2c0,6-1.9,10.9-5.3,14.3 c-3.4,3.4-9.1,5.3-16.3,5.3c-3.4,0-6.2-0.2-8.6-0.4V61.6z M88.8,94.1c1.2,0.2,3,0.3,4.8,0.3c10.2,0,15.7-5.7,15.7-15.6 c0.1-8.7-4.9-14.2-14.9-14.2c-2.5,0-4.3,0.2-5.6,0.5V94.1z"/><path fill="#FFFFFF" d="M132.1,97.8l-0.4-3.3h-0.2c-1.5,2.1-4.3,3.9-8.1,3.9c-5.4,0-8.1-3.8-8.1-7.6c0-6.4,5.7-9.9,15.9-9.8v-0.5 c0-2.2-0.6-6.1-6-6.1c-2.5,0-5,0.8-6.9,2l-1.1-3.2c2.2-1.4,5.4-2.3,8.7-2.3c8.1,0,10.1,5.5,10.1,10.8v9.9c0,2.3,0.1,4.5,0.4,6.3 H132.1z M131.4,84.4c-5.3-0.1-11.2,0.8-11.2,5.9c0,3.1,2.1,4.6,4.5,4.6c3.4,0,5.6-2.2,6.4-4.4c0.2-0.5,0.3-1,0.3-1.5V84.4z"/><path fill="#FFFFFF" d="M146.6,63.9v7.6h6.9v3.7h-6.9v14.2c0,3.3,0.9,5.1,3.6,5.1c1.3,0,2.2-0.2,2.8-0.3l0.2,3.6 c-0.9,0.4-2.4,0.7-4.3,0.7c-2.2,0-4-0.7-5.2-2c-1.4-1.4-1.9-3.8-1.9-6.9V75.1h-4.1v-3.7h4.1v-6.3L146.6,63.9z"/><path fill="#FFFFFF" d="M171.4,97.8l-0.4-3.3h-0.2c-1.5,2.1-4.3,3.9-8.1,3.9c-5.4,0-8.1-3.8-8.1-7.6c0-6.4,5.7-9.9,15.9-9.8v-0.5 c0-2.2-0.6-6.1-6-6.1c-2.5,0-5,0.8-6.9,2l-1.1-3.2c2.2-1.4,5.4-2.3,8.7-2.3c8.1,0,10.1,5.5,10.1,10.8v9.9c0,2.3,0.1,4.5,0.4,6.3 H171.4z M170.7,84.4c-5.3-0.1-11.2,0.8-11.2,5.9c0,3.1,2.1,4.6,4.5,4.6c3.4,0,5.6-2.2,6.4-4.4c0.2-0.5,0.3-1,0.3-1.5V84.4z"/></g></g></a></g><a href="https://ourworldindata.org/grapher/hiv-death-rates-by-age" target="_blank"><text font-size="25.20" x="15.0" y="35.2" fill="#555"><tspan x="15" y="35.160000000000004">HIV/AIDS death rates by age (per 100,000), World</tspan></text></a><text font-size="14.40" x="15.0" y="53.7" fill="#666"><tspan x="15" y="53.72">Death rates from HIV/AIDS measured per 100,000 individuals across various age categories. Also shown is the total</tspan><tspan x="15" y="69.56">death rate across all ages (not age-standardized) and the age-standardized death rate. Age-standardization assumes</tspan><tspan x="15" y="85.4">a constant population age &amp; structure to allow for comparisons between countries and with time without the effects of</tspan><tspan x="15" y="101.24000000000001">a changing age distribution within a population (e.g. aging).</tspan></text></g><g class="LineChart"><defs><clipPath id="boundsClip-429"><rect x="28.144000000000005" y="0" width="830" height="866.8"></rect></clipPath></defs><g class="AxisBoxView"><g class="HorizontalAxis"><text x="38.1" y="556.5" fill="#666" text-anchor="middle" font-size="16.2">1990</text><text x="164.2" y="556.5" fill="#666" text-anchor="middle" font-size="16.2">1995</text><text x="290.3" y="556.5" fill="#666" text-anchor="middle" font-size="16.2">2000</text><text x="416.4" y="556.5" fill="#666" text-anchor="middle" font-size="16.2">2005</text><text x="542.5" y="556.5" fill="#666" text-anchor="middle" font-size="16.2">2010</text><text x="693.8" y="556.5" fill="#666" text-anchor="middle" font-size="16.2">2016</text></g><g class="VerticalAxis"><text x="33.14" y="485.3" fill="#666" dominant-baseline="middle" text-anchor="end" font-size="16.2">5</text><text x="33.14" y="433.6" fill="#666" dominant-baseline="middle" text-anchor="end" font-size="16.2">10</text><text x="33.14" y="381.9" fill="#666" dominant-baseline="middle" text-anchor="end" font-size="16.2">15</text><text x="33.14" y="330.2" fill="#666" dominant-baseline="middle" text-anchor="end" font-size="16.2">20</text><text x="33.14" y="278.5" fill="#666" dominant-baseline="middle" text-anchor="end" font-size="16.2">25</text><text x="33.14" y="226.8" fill="#666" dominant-baseline="middle" text-anchor="end" font-size="16.2">30</text><text x="33.14" y="175.1" fill="#666" dominant-baseline="middle" text-anchor="end" font-size="16.2">35</text><text x="33.14" y="123.4" fill="#666" dominant-baseline="middle" text-anchor="end" font-size="16.2">40</text></g><g class="AxisGridLines"><line x1="38.14" y1="485.3" x2="693.75" y2="485.3" stroke="#ddd" stroke-dasharray="3,2"></line><line x1="38.14" y1="433.6" x2="693.75" y2="433.6" stroke="#ddd" stroke-dasharray="3,2"></line><line x1="38.14" y1="381.9" x2="693.75" y2="381.9" stroke="#ddd" stroke-dasharray="3,2"></line><line x1="38.14" y1="330.2" x2="693.75" y2="330.2" stroke="#ddd" stroke-dasharray="3,2"></line><line x1="38.14" y1="278.5" x2="693.75" y2="278.5" stroke="#ddd" stroke-dasharray="3,2"></line><line x1="38.14" y1="226.8" x2="693.75" y2="226.8" stroke="#ddd" stroke-dasharray="3,2"></line><line x1="38.14" y1="175.1" x2="693.75" y2="175.1" stroke="#ddd" stroke-dasharray="3,2"></line><line x1="38.14" y1="123.4" x2="693.75" y2="123.4" stroke="#ddd" stroke-dasharray="3,2"></line></g></g><g clip-path="url(#boundsClip-429)"><g class="HeightedLegend clickable"><g class="legendMark"><g class="indicator"><line x1="698.755" y1="329.1" x2="711.255" y2="329.1" stroke="#666" stroke-width="0.5"></line><line x1="711.255" y1="329.1" x2="711.255" y2="329.1" stroke="#666" stroke-width="0.5"></line><line x1="711.255" y1="329.1" x2="723.755" y2="329.1" stroke="#666" stroke-width="0.5"></line></g><rect x="693.755" y="322.35" width="128.42000000000002" height="13.5" fill="#fff" opacity="0"></rect><text font-size="13.50" x="728.8" y="333.2" fill="#e6332e"><tspan x="728.755" y="333.15000000000003">15-49 years old</tspan></text></g><g class="legendMark"><g class="indicator"><line x1="698.755" y1="392.4" x2="721.255" y2="392.4" stroke="#666" stroke-width="0.5"></line><line x1="721.255" y1="392.4" x2="721.255" y2="392.4" stroke="#666" stroke-width="0.5"></line><line x1="721.255" y1="392.4" x2="723.755" y2="392.4" stroke="#666" stroke-width="0.5"></line></g><rect x="693.755" y="385.65" width="83.195" height="13.5" fill="#fff" opacity="0"></rect><text font-size="13.50" x="728.8" y="396.4" fill="#2a939b"><tspan x="728.755" y="396.45">All ages</tspan></text></g><g class="legendMark"><g class="indicator"><line x1="698.755" y1="395.7" x2="711.255" y2="395.7" stroke="#666" stroke-width="0.5"></line><line x1="711.255" y1="395.7" x2="711.255" y2="407.9" stroke="#666" stroke-width="0.5"></line><line x1="711.255" y1="407.9" x2="723.755" y2="407.9" stroke="#666" stroke-width="0.5"></line></g><rect x="693.755" y="401.15" width="141.245" height="13.5" fill="#fff" opacity="0"></rect><text font-size="13.50" x="728.8" y="411.9" fill="#a652ba"><tspan x="728.755" y="411.95">Age-standardized</tspan></text></g><g class="legendMark"><g class="indicator"><line x1="698.755" y1="424.6" x2="721.255" y2="424.6" stroke="#666" stroke-width="0.5"></line><line x1="721.255" y1="424.6" x2="721.255" y2="424.6" stroke="#666" stroke-width="0.5"></line><line x1="721.255" y1="424.6" x2="723.755" y2="424.6" stroke="#666" stroke-width="0.5"></line></g><rect x="693.755" y="417.85" width="128.42000000000002" height="13.5" fill="#fff" opacity="0"></rect><text font-size="13.50" x="728.8" y="428.7" fill="#f6a324"><tspan x="728.755" y="428.65000000000003">50-69 years old</tspan></text></g><g class="legendMark"><g class="indicator"><line x1="698.755" y1="436" x2="711.255" y2="436" stroke="#666" stroke-width="0.5"></line><line x1="711.255" y1="436" x2="711.255" y2="440.1" stroke="#666" stroke-width="0.5"></line><line x1="711.255" y1="440.1" x2="723.755" y2="440.1" stroke="#666" stroke-width="0.5"></line></g><rect x="693.755" y="433.35" width="90.62" height="13.5" fill="#fff" opacity="0"></rect><text font-size="13.50" x="728.8" y="444.2" fill="#34983f"><tspan x="728.755" y="444.15000000000003">Under-5s</tspan></text></g><g class="legendMark"><g class="indicator"><line x1="698.755" y1="493.9" x2="721.255" y2="493.9" stroke="#666" stroke-width="0.5"></line><line x1="721.255" y1="493.9" x2="721.255" y2="493.9" stroke="#666" stroke-width="0.5"></line><line x1="721.255" y1="493.9" x2="723.755" y2="493.9" stroke="#666" stroke-width="0.5"></line></g><rect x="693.755" y="487.15" width="120.86" height="13.5" fill="#fff" opacity="0"></rect><text font-size="13.50" x="728.8" y="497.9" fill="#ca2628"><tspan x="728.755" y="497.95">5-14 years old</tspan></text></g><g class="legendMark"><g class="indicator"><line x1="698.755" y1="505.7" x2="711.255" y2="505.7" stroke="#666" stroke-width="0.5"></line><line x1="711.255" y1="505.7" x2="711.255" y2="509.4" stroke="#666" stroke-width="0.5"></line><line x1="711.255" y1="509.4" x2="723.755" y2="509.4" stroke="#666" stroke-width="0.5"></line></g><rect x="693.755" y="502.65" width="116.67500000000001" height="13.5" fill="#fff" opacity="0"></rect><text font-size="13.50" x="728.8" y="513.4" fill="#3360a9"><tspan x="728.755" y="513.4499999999999">70+ years old</tspan></text></g></g><g class="Lines"><rect x="38" y="123" width="656" height="412" fill="rgba(255,255,255,0)" opacity="0"></rect><g class="key-World_0"><path stroke="#34983f" stroke-linecap="round" d="M38 484L63 467L89 447L114 426L139 402L164 378L189 354L215 331L240 310L265 290L290 274L316 262L341 252L366 247L391 246L416 251L442 262L467 277L492 297L517 315L543 334L568 355L593 372L618 389L643 405L669 421L694 436" fill="none" stroke-width="1.5"></path><g fill="#34983f"><circle cx="38" cy="484" r="2"></circle><circle cx="63" cy="467" r="2"></circle><circle cx="89" cy="447" r="2"></circle><circle cx="114" cy="426" r="2"></circle><circle cx="139" cy="402" r="2"></circle><circle cx="164" cy="378" r="2"></circle><circle cx="189" cy="354" r="2"></circle><circle cx="215" cy="331" r="2"></circle><circle cx="240" cy="310" r="2"></circle><circle cx="265" cy="290" r="2"></circle><circle cx="290" cy="274" r="2"></circle><circle cx="316" cy="262" r="2"></circle><circle cx="341" cy="252" r="2"></circle><circle cx="366" cy="247" r="2"></circle><circle cx="391" cy="246" r="2"></circle><circle cx="416" cy="251" r="2"></circle><circle cx="442" cy="262" r="2"></circle><circle cx="467" cy="277" r="2"></circle><circle cx="492" cy="297" r="2"></circle><circle cx="517" cy="315" r="2"></circle><circle cx="543" cy="334" r="2"></circle><circle cx="568" cy="355" r="2"></circle><circle cx="593" cy="372" r="2"></circle><circle cx="618" cy="389" r="2"></circle><circle cx="643" cy="405" r="2"></circle><circle cx="669" cy="421" r="2"></circle><circle cx="694" cy="436" r="2"></circle></g></g><g class="key-World_1"><path stroke="#2a939b" stroke-linecap="round" d="M38 480L63 465L89 447L114 427L139 406L164 384L189 365L215 348L240 328L265 306L290 286L316 268L341 253L366 242L391 234L416 233L442 237L467 247L492 260L517 276L543 293L568 310L593 327L618 345L643 361L669 377L694 392" fill="none" stroke-width="1.5"></path><g fill="#2a939b"><circle cx="38" cy="480" r="2"></circle><circle cx="63" cy="465" r="2"></circle><circle cx="89" cy="447" r="2"></circle><circle cx="114" cy="427" r="2"></circle><circle cx="139" cy="406" r="2"></circle><circle cx="164" cy="384" r="2"></circle><circle cx="189" cy="365" r="2"></circle><circle cx="215" cy="348" r="2"></circle><circle cx="240" cy="328" r="2"></circle><circle cx="265" cy="306" r="2"></circle><circle cx="290" cy="286" r="2"></circle><circle cx="316" cy="268" r="2"></circle><circle cx="341" cy="253" r="2"></circle><circle cx="366" cy="242" r="2"></circle><circle cx="391" cy="234" r="2"></circle><circle cx="416" cy="233" r="2"></circle><circle cx="442" cy="237" r="2"></circle><circle cx="467" cy="247" r="2"></circle><circle cx="492" cy="260" r="2"></circle><circle cx="517" cy="276" r="2"></circle><circle cx="543" cy="293" r="2"></circle><circle cx="568" cy="310" r="2"></circle><circle cx="593" cy="327" r="2"></circle><circle cx="618" cy="345" r="2"></circle><circle cx="643" cy="361" r="2"></circle><circle cx="669" cy="377" r="2"></circle><circle cx="694" cy="392" r="2"></circle></g></g><g class="key-World_2"><path stroke="#3360a9" stroke-linecap="round" d="M38 514L63 508L89 501L114 493L139 485L164 477L189 469L215 462L240 454L265 447L290 441L316 436L341 432L366 429L391 428L416 430L442 435L467 442L492 452L517 462L543 471L568 480L593 487L618 494L643 498L669 502L694 506" fill="none" stroke-width="1.5"></path><g fill="#3360a9"><circle cx="38" cy="514" r="2"></circle><circle cx="63" cy="508" r="2"></circle><circle cx="89" cy="501" r="2"></circle><circle cx="114" cy="493" r="2"></circle><circle cx="139" cy="485" r="2"></circle><circle cx="164" cy="477" r="2"></circle><circle cx="189" cy="469" r="2"></circle><circle cx="215" cy="462" r="2"></circle><circle cx="240" cy="454" r="2"></circle><circle cx="265" cy="447" r="2"></circle><circle cx="290" cy="441" r="2"></circle><circle cx="316" cy="436" r="2"></circle><circle cx="341" cy="432" r="2"></circle><circle cx="366" cy="429" r="2"></circle><circle cx="391" cy="428" r="2"></circle><circle cx="416" cy="430" r="2"></circle><circle cx="442" cy="435" r="2"></circle><circle cx="467" cy="442" r="2"></circle><circle cx="492" cy="452" r="2"></circle><circle cx="517" cy="462" r="2"></circle><circle cx="543" cy="471" r="2"></circle><circle cx="568" cy="480" r="2"></circle><circle cx="593" cy="487" r="2"></circle><circle cx="618" cy="494" r="2"></circle><circle cx="643" cy="498" r="2"></circle><circle cx="669" cy="502" r="2"></circle><circle cx="694" cy="506" r="2"></circle></g></g><g class="key-World_3"><path stroke="#ca2628" stroke-linecap="round" d="M38 535L63 535L89 534L114 532L139 531L164 528L189 526L215 522L240 519L265 514L290 509L316 504L341 499L366 493L391 488L416 483L442 480L467 477L492 475L517 475L543 475L568 476L593 478L618 481L643 484L669 488L694 494" fill="none" stroke-width="1.5"></path><g fill="#ca2628"><circle cx="38" cy="535" r="2"></circle><circle cx="63" cy="535" r="2"></circle><circle cx="89" cy="534" r="2"></circle><circle cx="114" cy="532" r="2"></circle><circle cx="139" cy="531" r="2"></circle><circle cx="164" cy="528" r="2"></circle><circle cx="189" cy="526" r="2"></circle><circle cx="215" cy="522" r="2"></circle><circle cx="240" cy="519" r="2"></circle><circle cx="265" cy="514" r="2"></circle><circle cx="290" cy="509" r="2"></circle><circle cx="316" cy="504" r="2"></circle><circle cx="341" cy="499" r="2"></circle><circle cx="366" cy="493" r="2"></circle><circle cx="391" cy="488" r="2"></circle><circle cx="416" cy="483" r="2"></circle><circle cx="442" cy="480" r="2"></circle><circle cx="467" cy="477" r="2"></circle><circle cx="492" cy="475" r="2"></circle><circle cx="517" cy="475" r="2"></circle><circle cx="543" cy="475" r="2"></circle><circle cx="568" cy="476" r="2"></circle><circle cx="593" cy="478" r="2"></circle><circle cx="618" cy="481" r="2"></circle><circle cx="643" cy="484" r="2"></circle><circle cx="669" cy="488" r="2"></circle><circle cx="694" cy="494" r="2"></circle></g></g><g class="key-World_4"><path stroke="#e6332e" stroke-linecap="round" d="M38 454L63 432L89 407L114 380L139 350L164 320L189 295L215 273L240 245L265 215L290 189L316 166L341 147L366 133L391 124L416 123L442 129L467 141L492 159L517 179L543 200L568 221L593 244L618 267L643 288L669 310L694 329" fill="none" stroke-width="1.5"></path><g fill="#e6332e"><circle cx="38" cy="454" r="2"></circle><circle cx="63" cy="432" r="2"></circle><circle cx="89" cy="407" r="2"></circle><circle cx="114" cy="380" r="2"></circle><circle cx="139" cy="350" r="2"></circle><circle cx="164" cy="320" r="2"></circle><circle cx="189" cy="295" r="2"></circle><circle cx="215" cy="273" r="2"></circle><circle cx="240" cy="245" r="2"></circle><circle cx="265" cy="215" r="2"></circle><circle cx="290" cy="189" r="2"></circle><circle cx="316" cy="166" r="2"></circle><circle cx="341" cy="147" r="2"></circle><circle cx="366" cy="133" r="2"></circle><circle cx="391" cy="124" r="2"></circle><circle cx="416" cy="123" r="2"></circle><circle cx="442" cy="129" r="2"></circle><circle cx="467" cy="141" r="2"></circle><circle cx="492" cy="159" r="2"></circle><circle cx="517" cy="179" r="2"></circle><circle cx="543" cy="200" r="2"></circle><circle cx="568" cy="221" r="2"></circle><circle cx="593" cy="244" r="2"></circle><circle cx="618" cy="267" r="2"></circle><circle cx="643" cy="288" r="2"></circle><circle cx="669" cy="310" r="2"></circle><circle cx="694" cy="329" r="2"></circle></g></g><g class="key-World_5"><path stroke="#f6a324" stroke-linecap="round" d="M38 480L63 465L89 447L114 426L139 404L164 382L189 362L215 344L240 323L265 301L290 282L316 264L341 250L366 240L391 235L416 238L442 246L467 260L492 278L517 299L543 321L568 343L593 362L618 381L643 397L669 411L694 425" fill="none" stroke-width="1.5"></path><g fill="#f6a324"><circle cx="38" cy="480" r="2"></circle><circle cx="63" cy="465" r="2"></circle><circle cx="89" cy="447" r="2"></circle><circle cx="114" cy="426" r="2"></circle><circle cx="139" cy="404" r="2"></circle><circle cx="164" cy="382" r="2"></circle><circle cx="189" cy="362" r="2"></circle><circle cx="215" cy="344" r="2"></circle><circle cx="240" cy="323" r="2"></circle><circle cx="265" cy="301" r="2"></circle><circle cx="290" cy="282" r="2"></circle><circle cx="316" cy="264" r="2"></circle><circle cx="341" cy="250" r="2"></circle><circle cx="366" cy="240" r="2"></circle><circle cx="391" cy="235" r="2"></circle><circle cx="416" cy="238" r="2"></circle><circle cx="442" cy="246" r="2"></circle><circle cx="467" cy="260" r="2"></circle><circle cx="492" cy="278" r="2"></circle><circle cx="517" cy="299" r="2"></circle><circle cx="543" cy="321" r="2"></circle><circle cx="568" cy="343" r="2"></circle><circle cx="593" cy="362" r="2"></circle><circle cx="618" cy="381" r="2"></circle><circle cx="643" cy="397" r="2"></circle><circle cx="669" cy="411" r="2"></circle><circle cx="694" cy="425" r="2"></circle></g></g><g class="key-World_6"><path stroke="#a652ba" stroke-linecap="round" d="M38 477L63 461L89 442L114 422L139 400L164 378L189 359L215 342L240 322L265 300L290 280L316 264L341 249L366 239L391 232L416 232L442 237L467 248L492 263L517 279L543 296L568 314L593 331L618 349L643 365L669 381L694 396" fill="none" stroke-width="1.5"></path><g fill="#a652ba"><circle cx="38" cy="477" r="2"></circle><circle cx="63" cy="461" r="2"></circle><circle cx="89" cy="442" r="2"></circle><circle cx="114" cy="422" r="2"></circle><circle cx="139" cy="400" r="2"></circle><circle cx="164" cy="378" r="2"></circle><circle cx="189" cy="359" r="2"></circle><circle cx="215" cy="342" r="2"></circle><circle cx="240" cy="322" r="2"></circle><circle cx="265" cy="300" r="2"></circle><circle cx="290" cy="280" r="2"></circle><circle cx="316" cy="264" r="2"></circle><circle cx="341" cy="249" r="2"></circle><circle cx="366" cy="239" r="2"></circle><circle cx="391" cy="232" r="2"></circle><circle cx="416" cy="232" r="2"></circle><circle cx="442" cy="237" r="2"></circle><circle cx="467" cy="248" r="2"></circle><circle cx="492" cy="263" r="2"></circle><circle cx="517" cy="279" r="2"></circle><circle cx="543" cy="296" r="2"></circle><circle cx="568" cy="314" r="2"></circle><circle cx="593" cy="331" r="2"></circle><circle cx="618" cy="349" r="2"></circle><circle cx="643" cy="365" r="2"></circle><circle cx="669" cy="381" r="2"></circle><circle cx="694" cy="396" r="2"></circle></g></g></g></g></g><g class="SourcesFooter" style="fill:#777"><g class="clickable" style="fill:#777"><text font-size="12.60" x="15.0" y="581.6"><tspan x="15" y="581.58">Source: IHME, Global Burden of Disease (GBD)</tspan></text></g><text font-size="12.60" x="598.5" y="581.6"><tspan x="598.498" y="581.58"><a target='_blank' style='fill: #777;' href='https://ourworldindata.org/hiv-aids/'>OurWorldInData.org/hiv-aids/</a> • <a style="fill: #777;" class="cclogo" href="http://creativecommons.org/licenses/by-sa/4.0/deed.en_US" target="_blank">CC BY-SA</a></tspan></text></g></g></svg>