<svg xmlns="http://www.w3.org/2000/svg" version="1.1" style="font-family: 'Helvetica Neue', Helvetica, Arial, sans-serif; font-size: 18px; background-color: white; text-rendering: optimizeLegibility; -webkit-font-smoothing: antialiased;" width="850" height="600"><g class="ChartTab"><g class="HeaderView"><g opacity="0.8" transform="translate(770, 15) scale(0.31)"><a xmlns:xlink="http://www.w3.org/1999/xlink" xlink:href="https://ourworldindata.org" target="_blank"><g><rect x="0" y="0" fill="#1B2543" width="211.2" height="130.1"/><rect x="0" y="112.2" fill="#E63912" width="211.2" height="17.9"/><g><rect x="1.2" y="12.3" fill="none" width="210.2" height="99.2"/><path fill="#FFFFFF" d="M37.8,32.2c0,12.7-7.7,19.4-17.1,19.4c-9.7,0-16.6-7.5-16.6-18.7c0-11.7,7.3-19.3,17.1-19.3 C31.3,13.7,37.8,21.3,37.8,32.2z M9.2,32.8c0,7.9,4.3,14.9,11.8,14.9c7.5,0,11.8-6.9,11.8-15.3c0-7.3-3.8-14.9-11.8-14.9 C13.1,17.5,9.2,24.8,9.2,32.8z"/><path fill="#FFFFFF" d="M62.7,43.8c0,2.7,0.1,5.1,0.2,7.2h-4.3l-0.3-4.3h-0.1c-1.3,2.1-4,4.9-8.8,4.9c-4.2,0-9.1-2.3-9.1-11.6 V24.6h4.8v14.6c0,5,1.5,8.4,5.9,8.4c3.2,0,5.5-2.2,6.3-4.4c0.3-0.7,0.4-1.6,0.4-2.5V24.6h4.8V43.8z"/><path fill="#FFFFFF" d="M67.3,32.8c0-3.1-0.1-5.8-0.2-8.2h4.2l0.2,5.2h0.2c1.2-3.5,4.1-5.8,7.3-5.8c0.5,0,0.9,0.1,1.4,0.2v4.5 c-0.5-0.1-1-0.2-1.6-0.2c-3.4,0-5.8,2.6-6.5,6.2c-0.1,0.7-0.2,1.4-0.2,2.2V51h-4.8V32.8z"/><path fill="#FFFFFF" d="M95.4,51l-9.4-36.8h5l4.4,18.6c1.1,4.6,2.1,9.2,2.7,12.7h0.1c0.6-3.7,1.8-8,3-12.8l4.9-18.5h5l4.5,18.7 c1,4.4,2,8.7,2.6,12.6h0.1c0.8-4,1.8-8.1,3-12.7l4.9-18.5h4.9L120.6,51h-5L111,31.9c-1.1-4.7-1.9-8.3-2.4-12h-0.1 c-0.7,3.7-1.5,7.3-2.8,12L100.4,51H95.4z"/><path fill="#FFFFFF" d="M154.9,37.6c0,9.8-6.8,14-13.2,14c-7.2,0-12.7-5.2-12.7-13.6c0-8.8,5.8-14,13.1-14 C149.8,24,154.9,29.5,154.9,37.6z M133.9,37.9c0,5.8,3.3,10.1,8,10.1c4.6,0,8-4.3,8-10.3c0-4.5-2.2-10.1-7.9-10.1 C136.3,27.6,133.9,32.8,133.9,37.9z"/><path fill="#FFFFFF" d="M158.2,32.8c0-3.1-0.1-5.8-0.2-8.2h4.2l0.2,5.2h0.2c1.2-3.5,4.1-5.8,7.3-5.8c0.5,0,0.9,0.1,1.4,0.2v4.5 c-0.5-0.1-1-0.2-1.6-0.2c-3.4,0-5.8,2.6-6.5,6.2c-0.1,0.7-0.2,1.4-0.2,2.2V51h-4.8V32.8z"/><path fill="#FFFFFF" d="M173.5,12.3h4.8V51h-4.8V12.3z"/><path fill="#FFFFFF" d="M206.5,12.3v31.9c0,2.3,0.1,5,0.2,6.8h-4.3l-0.2-4.6H202c-1.5,2.9-4.7,5.2-9,5.2 c-6.4,0-11.3-5.4-11.3-13.4c-0.1-8.8,5.4-14.2,11.9-14.2c4,0,6.8,1.9,8,4h0.1V12.3H206.5z M201.7,35.4c0-0.6-0.1-1.4-0.2-2 c-0.7-3.1-3.3-5.6-6.9-5.6c-5,0-7.9,4.4-7.9,10.2c0,5.3,2.6,9.8,7.8,9.8c3.2,0,6.2-2.1,7.1-5.7c0.2-0.7,0.2-1.3,0.2-2.1V35.4z"/><path fill="#FFFFFF" d="M42.8,64c0.1,1.6-1.1,2.9-3.1,2.9c-1.7,0-2.9-1.3-2.9-2.9c0-1.7,1.3-3,3-3C41.7,61,42.8,62.3,42.8,64z M37.4,97.8V71.4h4.8v26.4H37.4z"/><path fill="#FFFFFF" d="M47.5,78.6c0-2.7-0.1-5-0.2-7.1h4.3l0.3,4.4h0.1c1.3-2.5,4.4-5,8.8-5c3.7,0,9.4,2.2,9.4,11.2v15.8h-4.8 V82.6c0-4.3-1.6-7.8-6.1-7.8c-3.2,0-5.6,2.2-6.5,4.9c-0.2,0.6-0.3,1.4-0.3,2.2v15.9h-4.8V78.6z"/><path fill="#FFFFFF" d="M84,61.6c2.9-0.4,6.3-0.8,10.1-0.8c6.8,0,11.7,1.6,14.9,4.6c3.3,3,5.2,7.3,5.2,13.2c0,6-1.9,10.9-5.3,14.3 c-3.4,3.4-9.1,5.3-16.3,5.3c-3.4,0-6.2-0.2-8.6-0.4V61.6z M88.8,94.1c1.2,0.2,3,0.3,4.8,0.3c10.2,0,15.7-5.7,15.7-15.6 c0.1-8.7-4.9-14.2-14.9-14.2c-2.5,0-4.3,0.2-5.6,0.5V94.1z"/><path fill="#FFFFFF" d="M132.1,97.8l-0.4-3.3h-0.2c-1.5,2.1-4.3,3.9-8.1,3.9c-5.4,0-8.1-3.8-8.1-7.6c0-6.4,5.7-9.9,15.9-9.8v-0.5 c0-2.2-0.6-6.1-6-6.1c-2.5,0-5,0.8-6.9,2l-1.1-3.2c2.2-1.4,5.4-2.3,8.7-2.3c8.1,0,10.1,5.5,10.1,10.8v9.9c0,2.3,0.1,4.5,0.4,6.3 H132.1z M131.4,84.4c-5.3-0.1-11.2,0.8-11.2,5.9c0,3.1,2.1,4.6,4.5,4.6c3.4,0,5.6-2.2,6.4-4.4c0.2-0.5,0.3-1,0.3-1.5V84.4z"/><path fill="#FFFFFF" d="M146.6,63.9v7.6h6.9v3.7h-6.9v14.2c0,3.3,0.9,5.1,3.6,5.1c1.3,0,2.2-0.2,2.8-0.3l0.2,3.6 c-0.9,0.4-2.4,0.7-4.3,0.7c-2.2,0-4-0.7-5.2-2c-1.4-1.4-1.9-3.8-1.9-6.9V75.1h-4.1v-3.7h4.1v-6.3L146.6,63.9z"/><path fill="#FFFFFF" d="M171.4,97.8l-0.4-3.3h-0.2c-1.5,2.1-4.3,3.9-8.1,3.9c-5.4,0-8.1-3.8-8.1-7.6c0-6.4,5.7-9.9,15.9-9.8v-0.5 c0-2.2-0.6-6.1-6-6.1c-2.5,0-5,0.8-6.9,2l-1.1-3.2c2.2-1.4,5.4-2.3,8.7-2.3c8.1,0,10.1,5.5,10.1,10.8v9.9c0,2.3,0.1,4.5,0.4,6.3 H171.4z M170.7,84.4c-5.3-0.1-11.2,0.8-11.2,5.9c0,3.1,2.1,4.6,4.5,4.6c3.4,0,5.6-2.2,6.4-4.4c0.2-0.5,0.3-1,0.3-1.5V84.4z"/></g></g></a></g><a href="https://ourworldindata.org/grapher/human-rights-protection?tab=chart" target="_blank"><text font-size="27.00" x="15.0" y="36.6" fill="#555"><tspan x="15" y="36.6">Human Rights Protection</tspan></text></a><text font-size="14.40" x="15.0" y="55.5" fill="#666"><tspan x="15" y="55.519999999999996">Higher values indicate better human rights protection. The human rights scores measure protection from political</tspan><tspan x="15" y="71.36">repression and violations of “physical integrity rights”.</tspan></text></g><g class="LineChart"><defs><clipPath id="boundsClip-333"><rect x="24.418" y="0" width="830" height="870.4000000000001"></rect></clipPath></defs><g class="AxisBoxView"><g class="HorizontalAxis"><text x="34.4" y="529.1" fill="#666" text-anchor="middle" font-size="16.2">1949</text><text x="152" y="529.1" fill="#666" text-anchor="middle" font-size="16.2">1960</text><text x="259" y="529.1" fill="#666" text-anchor="middle" font-size="16.2">1970</text><text x="365.9" y="529.1" fill="#666" text-anchor="middle" font-size="16.2">1980</text><text x="472.9" y="529.1" fill="#666" text-anchor="middle" font-size="16.2">1990</text><text x="579.8" y="529.1" fill="#666" text-anchor="middle" font-size="16.2">2000</text><text x="686.7" y="529.1" fill="#666" text-anchor="middle" font-size="16.2">2010</text><text x="729.5" y="529.1" fill="#666" text-anchor="middle" font-size="16.2">2014</text></g><g class="VerticalAxis"><text x="29.42" y="454.5" fill="#666" dominant-baseline="middle" text-anchor="end" font-size="16.2">-2</text><text x="29.42" y="385.3" fill="#666" dominant-baseline="middle" text-anchor="end" font-size="16.2">-1</text><text x="29.42" y="316.2" fill="#666" dominant-baseline="middle" text-anchor="end" font-size="16.2">0</text><text x="29.42" y="247" fill="#666" dominant-baseline="middle" text-anchor="end" font-size="16.2">1</text><text x="29.42" y="177.8" fill="#666" dominant-baseline="middle" text-anchor="end" font-size="16.2">2</text><text x="29.42" y="108.7" fill="#666" dominant-baseline="middle" text-anchor="end" font-size="16.2">3</text></g><g class="AxisGridLines"><line x1="34.42" y1="454.5" x2="729.50" y2="454.5" stroke="#ddd" stroke-dasharray="3,2"></line><line x1="34.42" y1="385.3" x2="729.50" y2="385.3" stroke="#ddd" stroke-dasharray="3,2"></line><line x1="34.42" y1="316.2" x2="729.50" y2="316.2" stroke="#ccc"></line><line x1="34.42" y1="247" x2="729.50" y2="247" stroke="#ddd" stroke-dasharray="3,2"></line><line x1="34.42" y1="177.8" x2="729.50" y2="177.8" stroke="#ddd" stroke-dasharray="3,2"></line><line x1="34.42" y1="108.7" x2="729.50" y2="108.7" stroke="#ddd" stroke-dasharray="3,2"></line></g><g class="AxisGridLines"><line x1="45.1" y1="507.90" x2="45.1" y2="93.90" stroke="#ddd" stroke-dasharray="3,2"></line><line x1="152" y1="507.90" x2="152" y2="93.90" stroke="#ddd" stroke-dasharray="3,2"></line><line x1="259" y1="507.90" x2="259" y2="93.90" stroke="#ddd" stroke-dasharray="3,2"></line><line x1="365.9" y1="507.90" x2="365.9" y2="93.90" stroke="#ddd" stroke-dasharray="3,2"></line><line x1="472.9" y1="507.90" x2="472.9" y2="93.90" stroke="#ddd" stroke-dasharray="3,2"></line><line x1="579.8" y1="507.90" x2="579.8" y2="93.90" stroke="#ddd" stroke-dasharray="3,2"></line><line x1="686.7" y1="507.90" x2="686.7" y2="93.90" stroke="#ddd" stroke-dasharray="3,2"></line></g></g><g clip-path="url(#boundsClip-333)"><g class="HeightedLegend clickable"><g class="legendMark"><rect x="739.504" y="97.7" width="63.816" height="14.4" fill="#fff" opacity="0"></rect><rect x="739.504" y="103.65" width="10" height="2.5" fill="#e6332e"></rect><text font-size="14.40" x="754.5" y="109.2" fill="#333"><tspan x="754.504" y="109.22000000000001">Norway</tspan></text></g><g class="legendMark"><rect x="739.504" y="241.8" width="95.49600000000001" height="14.4" fill="#fff" opacity="0"></rect><rect x="739.504" y="247.75" width="10" height="2.5" fill="#2a939b"></rect><text font-size="14.40" x="754.5" y="253.3" fill="#333"><tspan x="754.504" y="253.32">South Korea</tspan></text></g><g class="legendMark"><rect x="739.504" y="256.2" width="52.584" height="14.4" fill="#fff" opacity="0"></rect><rect x="739.504" y="262.15" width="10" height="2.5" fill="#a652ba"></rect><text font-size="14.40" x="754.5" y="267.7" fill="#333"><tspan x="754.504" y="267.71999999999997">World</tspan></text></g><g class="legendMark"><rect x="739.504" y="270.59999999999997" width="69.57600000000001" height="14.4" fill="#fff" opacity="0"></rect><rect x="739.504" y="276.54999999999995" width="10" height="2.5" fill="#f6a324"></rect><text font-size="14.40" x="754.5" y="282.1" fill="#333"><tspan x="754.504" y="282.11999999999995">Hungary</tspan></text></g><g class="legendMark"><rect x="739.504" y="284.99999999999994" width="63.24000000000001" height="14.4" fill="#fff" opacity="0"></rect><rect x="739.504" y="290.94999999999993" width="10" height="2.5" fill="#34983f"></rect><text font-size="14.40" x="754.5" y="296.5" fill="#333"><tspan x="754.504" y="296.5199999999999">Albania</tspan></text></g><g class="legendMark"><rect x="739.504" y="386.1" width="52.728" height="14.4" fill="#fff" opacity="0"></rect><rect x="739.504" y="392.05" width="10" height="2.5" fill="#ca2628"></rect><text font-size="14.40" x="754.5" y="397.6" fill="#333"><tspan x="754.504" y="397.62">China</tspan></text></g><g class="legendMark"><rect x="739.504" y="442" width="92.90400000000001" height="14.4" fill="#fff" opacity="0"></rect><rect x="739.504" y="447.95" width="10" height="2.5" fill="#5B5B5B"></rect><text font-size="14.40" x="754.5" y="453.5" fill="#333"><tspan x="754.504" y="453.52">North Korea</tspan></text></g></g><g class="Lines"><rect x="34" y="94" width="695" height="414" fill="rgba(255,255,255,0)" opacity="0"></rect><g class="key-World_0"><path stroke="#a652ba" stroke-linecap="round" d="M34 315L45 314L56 312L67 311L77 311L88 314L99 313L109 315L120 315L131 316L141 317L152 316L163 315L173 318L184 319L195 320L206 321L216 320L227 320L238 321L248 322L259 323L270 322L280 323L291 323L302 324L313 325L323 325L334 325L345 325L355 324L366 323L377 322L387 321L398 320L409 318L419 317L430 314L441 313L452 312L462 311L473 309L484 305L494 302L505 299L516 297L526 294L537 292L548 291L558 290L569 287L580 285L591 283L601 282L612 280L623 277L633 275L644 272L655 269L665 266L676 264L687 262L697 262L708 260L719 259L730 258" fill="none" stroke-width="1.5"></path><g fill="#a652ba"><circle cx="34" cy="315" r="2"></circle><circle cx="45" cy="314" r="2"></circle><circle cx="56" cy="312" r="2"></circle><circle cx="67" cy="311" r="2"></circle><circle cx="77" cy="311" r="2"></circle><circle cx="88" cy="314" r="2"></circle><circle cx="99" cy="313" r="2"></circle><circle cx="109" cy="315" r="2"></circle><circle cx="120" cy="315" r="2"></circle><circle cx="131" cy="316" r="2"></circle><circle cx="141" cy="317" r="2"></circle><circle cx="152" cy="316" r="2"></circle><circle cx="163" cy="315" r="2"></circle><circle cx="173" cy="318" r="2"></circle><circle cx="184" cy="319" r="2"></circle><circle cx="195" cy="320" r="2"></circle><circle cx="206" cy="321" r="2"></circle><circle cx="216" cy="320" r="2"></circle><circle cx="227" cy="320" r="2"></circle><circle cx="238" cy="321" r="2"></circle><circle cx="248" cy="322" r="2"></circle><circle cx="259" cy="323" r="2"></circle><circle cx="270" cy="322" r="2"></circle><circle cx="280" cy="323" r="2"></circle><circle cx="291" cy="323" r="2"></circle><circle cx="302" cy="324" r="2"></circle><circle cx="313" cy="325" r="2"></circle><circle cx="323" cy="325" r="2"></circle><circle cx="334" cy="325" r="2"></circle><circle cx="345" cy="325" r="2"></circle><circle cx="355" cy="324" r="2"></circle><circle cx="366" cy="323" r="2"></circle><circle cx="377" cy="322" r="2"></circle><circle cx="387" cy="321" r="2"></circle><circle cx="398" cy="320" r="2"></circle><circle cx="409" cy="318" r="2"></circle><circle cx="419" cy="317" r="2"></circle><circle cx="430" cy="314" r="2"></circle><circle cx="441" cy="313" r="2"></circle><circle cx="452" cy="312" r="2"></circle><circle cx="462" cy="311" r="2"></circle><circle cx="473" cy="309" r="2"></circle><circle cx="484" cy="305" r="2"></circle><circle cx="494" cy="302" r="2"></circle><circle cx="505" cy="299" r="2"></circle><circle cx="516" cy="297" r="2"></circle><circle cx="526" cy="294" r="2"></circle><circle cx="537" cy="292" r="2"></circle><circle cx="548" cy="291" r="2"></circle><circle cx="558" cy="290" r="2"></circle><circle cx="569" cy="287" r="2"></circle><circle cx="580" cy="285" r="2"></circle><circle cx="591" cy="283" r="2"></circle><circle cx="601" cy="282" r="2"></circle><circle cx="612" cy="280" r="2"></circle><circle cx="623" cy="277" r="2"></circle><circle cx="633" cy="275" r="2"></circle><circle cx="644" cy="272" r="2"></circle><circle cx="655" cy="269" r="2"></circle><circle cx="665" cy="266" r="2"></circle><circle cx="676" cy="264" r="2"></circle><circle cx="687" cy="262" r="2"></circle><circle cx="697" cy="262" r="2"></circle><circle cx="708" cy="260" r="2"></circle><circle cx="719" cy="259" r="2"></circle><circle cx="730" cy="258" r="2"></circle></g></g><g class="key-China_0"><path stroke="#ca2628" stroke-linecap="round" d="M34 445L45 456L56 456L67 446L77 441L88 438L99 436L109 435L120 437L131 441L141 452L152 440L163 435L173 431L184 433L195 437L206 450L216 477L227 494L238 503L248 508L259 508L270 504L280 500L291 494L302 485L313 468L323 439L334 419L345 395L355 380L366 373L377 369L387 364L398 364L409 365L419 361L430 361L441 369L452 383L462 411L473 401L484 387L494 385L505 384L516 396L526 395L537 394L548 401L558 405L569 404L580 406L591 407L601 411L612 413L623 414L633 415L644 412L655 407L665 415L676 416L687 416L697 413L708 406L719 400L730 393" fill="none" stroke-width="1.5"></path><g fill="#ca2628"><circle cx="34" cy="445" r="2"></circle><circle cx="45" cy="456" r="2"></circle><circle cx="56" cy="456" r="2"></circle><circle cx="67" cy="446" r="2"></circle><circle cx="77" cy="441" r="2"></circle><circle cx="88" cy="438" r="2"></circle><circle cx="99" cy="436" r="2"></circle><circle cx="109" cy="435" r="2"></circle><circle cx="120" cy="437" r="2"></circle><circle cx="131" cy="441" r="2"></circle><circle cx="141" cy="452" r="2"></circle><circle cx="152" cy="440" r="2"></circle><circle cx="163" cy="435" r="2"></circle><circle cx="173" cy="431" r="2"></circle><circle cx="184" cy="433" r="2"></circle><circle cx="195" cy="437" r="2"></circle><circle cx="206" cy="450" r="2"></circle><circle cx="216" cy="477" r="2"></circle><circle cx="227" cy="494" r="2"></circle><circle cx="238" cy="503" r="2"></circle><circle cx="248" cy="508" r="2"></circle><circle cx="259" cy="508" r="2"></circle><circle cx="270" cy="504" r="2"></circle><circle cx="280" cy="500" r="2"></circle><circle cx="291" cy="494" r="2"></circle><circle cx="302" cy="485" r="2"></circle><circle cx="313" cy="468" r="2"></circle><circle cx="323" cy="439" r="2"></circle><circle cx="334" cy="419" r="2"></circle><circle cx="345" cy="395" r="2"></circle><circle cx="355" cy="380" r="2"></circle><circle cx="366" cy="373" r="2"></circle><circle cx="377" cy="369" r="2"></circle><circle cx="387" cy="364" r="2"></circle><circle cx="398" cy="364" r="2"></circle><circle cx="409" cy="365" r="2"></circle><circle cx="419" cy="361" r="2"></circle><circle cx="430" cy="361" r="2"></circle><circle cx="441" cy="369" r="2"></circle><circle cx="452" cy="383" r="2"></circle><circle cx="462" cy="411" r="2"></circle><circle cx="473" cy="401" r="2"></circle><circle cx="484" cy="387" r="2"></circle><circle cx="494" cy="385" r="2"></circle><circle cx="505" cy="384" r="2"></circle><circle cx="516" cy="396" r="2"></circle><circle cx="526" cy="395" r="2"></circle><circle cx="537" cy="394" r="2"></circle><circle cx="548" cy="401" r="2"></circle><circle cx="558" cy="405" r="2"></circle><circle cx="569" cy="404" r="2"></circle><circle cx="580" cy="406" r="2"></circle><circle cx="591" cy="407" r="2"></circle><circle cx="601" cy="411" r="2"></circle><circle cx="612" cy="413" r="2"></circle><circle cx="623" cy="414" r="2"></circle><circle cx="633" cy="415" r="2"></circle><circle cx="644" cy="412" r="2"></circle><circle cx="655" cy="407" r="2"></circle><circle cx="665" cy="415" r="2"></circle><circle cx="676" cy="416" r="2"></circle><circle cx="687" cy="416" r="2"></circle><circle cx="697" cy="413" r="2"></circle><circle cx="708" cy="406" r="2"></circle><circle cx="719" cy="400" r="2"></circle><circle cx="730" cy="393" r="2"></circle></g></g><g class="key-Hungary_0"><path stroke="#f6a324" stroke-linecap="round" d="M34 396L45 398L56 398L67 398L77 401L88 404L99 410L109 419L120 422L131 421L141 415L152 402L163 375L173 358L184 343L195 331L206 321L216 314L227 309L238 304L248 301L259 298L270 296L280 295L291 295L302 296L313 297L323 299L334 292L345 288L355 285L366 283L377 280L387 281L398 279L409 274L419 270L430 266L441 260L452 244L462 219L473 210L484 210L494 220L505 226L516 224L526 232L537 232L548 238L558 254L569 263L580 267L591 272L601 276L612 278L623 281L633 276L644 274L655 273L665 263L676 260L687 261L697 261L708 261L719 261L730 261" fill="none" stroke-width="1.5"></path><g fill="#f6a324"><circle cx="34" cy="396" r="2"></circle><circle cx="45" cy="398" r="2"></circle><circle cx="56" cy="398" r="2"></circle><circle cx="67" cy="398" r="2"></circle><circle cx="77" cy="401" r="2"></circle><circle cx="88" cy="404" r="2"></circle><circle cx="99" cy="410" r="2"></circle><circle cx="109" cy="419" r="2"></circle><circle cx="120" cy="422" r="2"></circle><circle cx="131" cy="421" r="2"></circle><circle cx="141" cy="415" r="2"></circle><circle cx="152" cy="402" r="2"></circle><circle cx="163" cy="375" r="2"></circle><circle cx="173" cy="358" r="2"></circle><circle cx="184" cy="343" r="2"></circle><circle cx="195" cy="331" r="2"></circle><circle cx="206" cy="321" r="2"></circle><circle cx="216" cy="314" r="2"></circle><circle cx="227" cy="309" r="2"></circle><circle cx="238" cy="304" r="2"></circle><circle cx="248" cy="301" r="2"></circle><circle cx="259" cy="298" r="2"></circle><circle cx="270" cy="296" r="2"></circle><circle cx="280" cy="295" r="2"></circle><circle cx="291" cy="295" r="2"></circle><circle cx="302" cy="296" r="2"></circle><circle cx="313" cy="297" r="2"></circle><circle cx="323" cy="299" r="2"></circle><circle cx="334" cy="292" r="2"></circle><circle cx="345" cy="288" r="2"></circle><circle cx="355" cy="285" r="2"></circle><circle cx="366" cy="283" r="2"></circle><circle cx="377" cy="280" r="2"></circle><circle cx="387" cy="281" r="2"></circle><circle cx="398" cy="279" r="2"></circle><circle cx="409" cy="274" r="2"></circle><circle cx="419" cy="270" r="2"></circle><circle cx="430" cy="266" r="2"></circle><circle cx="441" cy="260" r="2"></circle><circle cx="452" cy="244" r="2"></circle><circle cx="462" cy="219" r="2"></circle><circle cx="473" cy="210" r="2"></circle><circle cx="484" cy="210" r="2"></circle><circle cx="494" cy="220" r="2"></circle><circle cx="505" cy="226" r="2"></circle><circle cx="516" cy="224" r="2"></circle><circle cx="526" cy="232" r="2"></circle><circle cx="537" cy="232" r="2"></circle><circle cx="548" cy="238" r="2"></circle><circle cx="558" cy="254" r="2"></circle><circle cx="569" cy="263" r="2"></circle><circle cx="580" cy="267" r="2"></circle><circle cx="591" cy="272" r="2"></circle><circle cx="601" cy="276" r="2"></circle><circle cx="612" cy="278" r="2"></circle><circle cx="623" cy="281" r="2"></circle><circle cx="633" cy="276" r="2"></circle><circle cx="644" cy="274" r="2"></circle><circle cx="655" cy="273" r="2"></circle><circle cx="665" cy="263" r="2"></circle><circle cx="676" cy="260" r="2"></circle><circle cx="687" cy="261" r="2"></circle><circle cx="697" cy="261" r="2"></circle><circle cx="708" cy="261" r="2"></circle><circle cx="719" cy="261" r="2"></circle><circle cx="730" cy="261" r="2"></circle></g></g><g class="key-North-Korea_0"><path stroke="#5B5B5B" stroke-linecap="round" d="M34 419L45 423L56 425L67 427L77 429L88 428L99 428L109 425L120 424L131 423L141 422L152 422L163 422L173 422L184 422L195 422L206 422L216 422L227 422L238 422L248 422L259 423L270 422L280 423L291 423L302 423L313 422L323 422L334 422L345 421L355 420L366 419L377 416L387 415L398 413L409 411L419 420L430 423L441 419L452 417L462 418L473 411L484 405L494 404L505 406L516 407L526 413L537 430L548 443L558 448L569 449L580 449L591 444L601 433L612 432L623 433L633 433L644 435L655 439L665 451L676 457L687 458L697 456L708 455L719 453L730 449" fill="none" stroke-width="1.5"></path><g fill="#5B5B5B"><circle cx="34" cy="419" r="2"></circle><circle cx="45" cy="423" r="2"></circle><circle cx="56" cy="425" r="2"></circle><circle cx="67" cy="427" r="2"></circle><circle cx="77" cy="429" r="2"></circle><circle cx="88" cy="428" r="2"></circle><circle cx="99" cy="428" r="2"></circle><circle cx="109" cy="425" r="2"></circle><circle cx="120" cy="424" r="2"></circle><circle cx="131" cy="423" r="2"></circle><circle cx="141" cy="422" r="2"></circle><circle cx="152" cy="422" r="2"></circle><circle cx="163" cy="422" r="2"></circle><circle cx="173" cy="422" r="2"></circle><circle cx="184" cy="422" r="2"></circle><circle cx="195" cy="422" r="2"></circle><circle cx="206" cy="422" r="2"></circle><circle cx="216" cy="422" r="2"></circle><circle cx="227" cy="422" r="2"></circle><circle cx="238" cy="422" r="2"></circle><circle cx="248" cy="422" r="2"></circle><circle cx="259" cy="423" r="2"></circle><circle cx="270" cy="422" r="2"></circle><circle cx="280" cy="423" r="2"></circle><circle cx="291" cy="423" r="2"></circle><circle cx="302" cy="423" r="2"></circle><circle cx="313" cy="422" r="2"></circle><circle cx="323" cy="422" r="2"></circle><circle cx="334" cy="422" r="2"></circle><circle cx="345" cy="421" r="2"></circle><circle cx="355" cy="420" r="2"></circle><circle cx="366" cy="419" r="2"></circle><circle cx="377" cy="416" r="2"></circle><circle cx="387" cy="415" r="2"></circle><circle cx="398" cy="413" r="2"></circle><circle cx="409" cy="411" r="2"></circle><circle cx="419" cy="420" r="2"></circle><circle cx="430" cy="423" r="2"></circle><circle cx="441" cy="419" r="2"></circle><circle cx="452" cy="417" r="2"></circle><circle cx="462" cy="418" r="2"></circle><circle cx="473" cy="411" r="2"></circle><circle cx="484" cy="405" r="2"></circle><circle cx="494" cy="404" r="2"></circle><circle cx="505" cy="406" r="2"></circle><circle cx="516" cy="407" r="2"></circle><circle cx="526" cy="413" r="2"></circle><circle cx="537" cy="430" r="2"></circle><circle cx="548" cy="443" r="2"></circle><circle cx="558" cy="448" r="2"></circle><circle cx="569" cy="449" r="2"></circle><circle cx="580" cy="449" r="2"></circle><circle cx="591" cy="444" r="2"></circle><circle cx="601" cy="433" r="2"></circle><circle cx="612" cy="432" r="2"></circle><circle cx="623" cy="433" r="2"></circle><circle cx="633" cy="433" r="2"></circle><circle cx="644" cy="435" r="2"></circle><circle cx="655" cy="439" r="2"></circle><circle cx="665" cy="451" r="2"></circle><circle cx="676" cy="457" r="2"></circle><circle cx="687" cy="458" r="2"></circle><circle cx="697" cy="456" r="2"></circle><circle cx="708" cy="455" r="2"></circle><circle cx="719" cy="453" r="2"></circle><circle cx="730" cy="449" r="2"></circle></g></g><g class="key-South-Korea_0"><path stroke="#2a939b" stroke-linecap="round" d="M34 399L45 402L56 391L67 378L77 361L88 351L99 341L109 335L120 331L131 326L141 323L152 319L163 316L173 310L184 307L195 304L206 303L216 303L227 304L238 307L248 310L259 311L270 313L280 317L291 322L302 330L313 336L323 340L334 339L345 332L355 333L366 343L377 345L387 346L398 347L409 341L419 345L430 346L441 346L452 335L462 345L473 350L484 350L494 340L505 324L516 324L526 323L537 319L548 305L558 300L569 299L580 299L591 304L601 315L612 298L623 286L633 274L644 273L655 280L665 288L676 295L687 297L697 273L708 258L719 250L730 249" fill="none" stroke-width="1.5"></path><g fill="#2a939b"><circle cx="34" cy="399" r="2"></circle><circle cx="45" cy="402" r="2"></circle><circle cx="56" cy="391" r="2"></circle><circle cx="67" cy="378" r="2"></circle><circle cx="77" cy="361" r="2"></circle><circle cx="88" cy="351" r="2"></circle><circle cx="99" cy="341" r="2"></circle><circle cx="109" cy="335" r="2"></circle><circle cx="120" cy="331" r="2"></circle><circle cx="131" cy="326" r="2"></circle><circle cx="141" cy="323" r="2"></circle><circle cx="152" cy="319" r="2"></circle><circle cx="163" cy="316" r="2"></circle><circle cx="173" cy="310" r="2"></circle><circle cx="184" cy="307" r="2"></circle><circle cx="195" cy="304" r="2"></circle><circle cx="206" cy="303" r="2"></circle><circle cx="216" cy="303" r="2"></circle><circle cx="227" cy="304" r="2"></circle><circle cx="238" cy="307" r="2"></circle><circle cx="248" cy="310" r="2"></circle><circle cx="259" cy="311" r="2"></circle><circle cx="270" cy="313" r="2"></circle><circle cx="280" cy="317" r="2"></circle><circle cx="291" cy="322" r="2"></circle><circle cx="302" cy="330" r="2"></circle><circle cx="313" cy="336" r="2"></circle><circle cx="323" cy="340" r="2"></circle><circle cx="334" cy="339" r="2"></circle><circle cx="345" cy="332" r="2"></circle><circle cx="355" cy="333" r="2"></circle><circle cx="366" cy="343" r="2"></circle><circle cx="377" cy="345" r="2"></circle><circle cx="387" cy="346" r="2"></circle><circle cx="398" cy="347" r="2"></circle><circle cx="409" cy="341" r="2"></circle><circle cx="419" cy="345" r="2"></circle><circle cx="430" cy="346" r="2"></circle><circle cx="441" cy="346" r="2"></circle><circle cx="452" cy="335" r="2"></circle><circle cx="462" cy="345" r="2"></circle><circle cx="473" cy="350" r="2"></circle><circle cx="484" cy="350" r="2"></circle><circle cx="494" cy="340" r="2"></circle><circle cx="505" cy="324" r="2"></circle><circle cx="516" cy="324" r="2"></circle><circle cx="526" cy="323" r="2"></circle><circle cx="537" cy="319" r="2"></circle><circle cx="548" cy="305" r="2"></circle><circle cx="558" cy="300" r="2"></circle><circle cx="569" cy="299" r="2"></circle><circle cx="580" cy="299" r="2"></circle><circle cx="591" cy="304" r="2"></circle><circle cx="601" cy="315" r="2"></circle><circle cx="612" cy="298" r="2"></circle><circle cx="623" cy="286" r="2"></circle><circle cx="633" cy="274" r="2"></circle><circle cx="644" cy="273" r="2"></circle><circle cx="655" cy="280" r="2"></circle><circle cx="665" cy="288" r="2"></circle><circle cx="676" cy="295" r="2"></circle><circle cx="687" cy="297" r="2"></circle><circle cx="697" cy="273" r="2"></circle><circle cx="708" cy="258" r="2"></circle><circle cx="719" cy="250" r="2"></circle><circle cx="730" cy="249" r="2"></circle></g></g><g class="key-Norway_0"><path stroke="#e6332e" stroke-linecap="round" d="M34 226L45 221L56 216L67 212L77 207L88 203L99 198L109 195L120 191L131 188L141 184L152 180L163 177L173 174L184 171L195 168L206 165L216 162L227 160L238 157L248 154L259 151L270 148L280 146L291 144L302 142L313 139L323 137L334 134L345 133L355 131L366 130L377 129L387 128L398 129L409 130L419 132L430 135L441 141L452 137L462 134L473 134L484 128L494 123L505 121L516 119L526 112L537 106L548 101L558 98L569 96L580 95L591 94L601 94L612 95L623 97L633 99L644 103L655 107L665 111L676 108L687 106L697 105L708 104L719 105L730 105" fill="none" stroke-width="1.5"></path><g fill="#e6332e"><circle cx="34" cy="226" r="2"></circle><circle cx="45" cy="221" r="2"></circle><circle cx="56" cy="216" r="2"></circle><circle cx="67" cy="212" r="2"></circle><circle cx="77" cy="207" r="2"></circle><circle cx="88" cy="203" r="2"></circle><circle cx="99" cy="198" r="2"></circle><circle cx="109" cy="195" r="2"></circle><circle cx="120" cy="191" r="2"></circle><circle cx="131" cy="188" r="2"></circle><circle cx="141" cy="184" r="2"></circle><circle cx="152" cy="180" r="2"></circle><circle cx="163" cy="177" r="2"></circle><circle cx="173" cy="174" r="2"></circle><circle cx="184" cy="171" r="2"></circle><circle cx="195" cy="168" r="2"></circle><circle cx="206" cy="165" r="2"></circle><circle cx="216" cy="162" r="2"></circle><circle cx="227" cy="160" r="2"></circle><circle cx="238" cy="157" r="2"></circle><circle cx="248" cy="154" r="2"></circle><circle cx="259" cy="151" r="2"></circle><circle cx="270" cy="148" r="2"></circle><circle cx="280" cy="146" r="2"></circle><circle cx="291" cy="144" r="2"></circle><circle cx="302" cy="142" r="2"></circle><circle cx="313" cy="139" r="2"></circle><circle cx="323" cy="137" r="2"></circle><circle cx="334" cy="134" r="2"></circle><circle cx="345" cy="133" r="2"></circle><circle cx="355" cy="131" r="2"></circle><circle cx="366" cy="130" r="2"></circle><circle cx="377" cy="129" r="2"></circle><circle cx="387" cy="128" r="2"></circle><circle cx="398" cy="129" r="2"></circle><circle cx="409" cy="130" r="2"></circle><circle cx="419" cy="132" r="2"></circle><circle cx="430" cy="135" r="2"></circle><circle cx="441" cy="141" r="2"></circle><circle cx="452" cy="137" r="2"></circle><circle cx="462" cy="134" r="2"></circle><circle cx="473" cy="134" r="2"></circle><circle cx="484" cy="128" r="2"></circle><circle cx="494" cy="123" r="2"></circle><circle cx="505" cy="121" r="2"></circle><circle cx="516" cy="119" r="2"></circle><circle cx="526" cy="112" r="2"></circle><circle cx="537" cy="106" r="2"></circle><circle cx="548" cy="101" r="2"></circle><circle cx="558" cy="98" r="2"></circle><circle cx="569" cy="96" r="2"></circle><circle cx="580" cy="95" r="2"></circle><circle cx="591" cy="94" r="2"></circle><circle cx="601" cy="94" r="2"></circle><circle cx="612" cy="95" r="2"></circle><circle cx="623" cy="97" r="2"></circle><circle cx="633" cy="99" r="2"></circle><circle cx="644" cy="103" r="2"></circle><circle cx="655" cy="107" r="2"></circle><circle cx="665" cy="111" r="2"></circle><circle cx="676" cy="108" r="2"></circle><circle cx="687" cy="106" r="2"></circle><circle cx="697" cy="105" r="2"></circle><circle cx="708" cy="104" r="2"></circle><circle cx="719" cy="105" r="2"></circle><circle cx="730" cy="105" r="2"></circle></g></g><g class="key-Albania_0"><path stroke="#34983f" stroke-linecap="round" d="M34 425L45 428L56 431L67 432L77 432L88 431L99 428L109 427L120 425L131 424L141 423L152 424L163 425L173 423L184 423L195 422L206 423L216 423L227 423L238 423L248 422L259 422L270 422L280 422L291 422L302 419L313 413L323 402L334 397L345 388L355 384L366 381L377 385L387 383L398 382L409 382L419 372L430 361L441 353L452 352L462 349L473 343L484 322L494 301L505 298L516 305L526 319L537 330L548 345L558 335L569 337L580 334L591 325L601 326L612 317L623 313L633 309L644 305L655 298L665 287L676 282L687 283L697 288L708 291L719 291L730 291" fill="none" stroke-width="1.5"></path><g fill="#34983f"><circle cx="34" cy="425" r="2"></circle><circle cx="45" cy="428" r="2"></circle><circle cx="56" cy="431" r="2"></circle><circle cx="67" cy="432" r="2"></circle><circle cx="77" cy="432" r="2"></circle><circle cx="88" cy="431" r="2"></circle><circle cx="99" cy="428" r="2"></circle><circle cx="109" cy="427" r="2"></circle><circle cx="120" cy="425" r="2"></circle><circle cx="131" cy="424" r="2"></circle><circle cx="141" cy="423" r="2"></circle><circle cx="152" cy="424" r="2"></circle><circle cx="163" cy="425" r="2"></circle><circle cx="173" cy="423" r="2"></circle><circle cx="184" cy="423" r="2"></circle><circle cx="195" cy="422" r="2"></circle><circle cx="206" cy="423" r="2"></circle><circle cx="216" cy="423" r="2"></circle><circle cx="227" cy="423" r="2"></circle><circle cx="238" cy="423" r="2"></circle><circle cx="248" cy="422" r="2"></circle><circle cx="259" cy="422" r="2"></circle><circle cx="270" cy="422" r="2"></circle><circle cx="280" cy="422" r="2"></circle><circle cx="291" cy="422" r="2"></circle><circle cx="302" cy="419" r="2"></circle><circle cx="313" cy="413" r="2"></circle><circle cx="323" cy="402" r="2"></circle><circle cx="334" cy="397" r="2"></circle><circle cx="345" cy="388" r="2"></circle><circle cx="355" cy="384" r="2"></circle><circle cx="366" cy="381" r="2"></circle><circle cx="377" cy="385" r="2"></circle><circle cx="387" cy="383" r="2"></circle><circle cx="398" cy="382" r="2"></circle><circle cx="409" cy="382" r="2"></circle><circle cx="419" cy="372" r="2"></circle><circle cx="430" cy="361" r="2"></circle><circle cx="441" cy="353" r="2"></circle><circle cx="452" cy="352" r="2"></circle><circle cx="462" cy="349" r="2"></circle><circle cx="473" cy="343" r="2"></circle><circle cx="484" cy="322" r="2"></circle><circle cx="494" cy="301" r="2"></circle><circle cx="505" cy="298" r="2"></circle><circle cx="516" cy="305" r="2"></circle><circle cx="526" cy="319" r="2"></circle><circle cx="537" cy="330" r="2"></circle><circle cx="548" cy="345" r="2"></circle><circle cx="558" cy="335" r="2"></circle><circle cx="569" cy="337" r="2"></circle><circle cx="580" cy="334" r="2"></circle><circle cx="591" cy="325" r="2"></circle><circle cx="601" cy="326" r="2"></circle><circle cx="612" cy="317" r="2"></circle><circle cx="623" cy="313" r="2"></circle><circle cx="633" cy="309" r="2"></circle><circle cx="644" cy="305" r="2"></circle><circle cx="655" cy="298" r="2"></circle><circle cx="665" cy="287" r="2"></circle><circle cx="676" cy="282" r="2"></circle><circle cx="687" cy="283" r="2"></circle><circle cx="697" cy="288" r="2"></circle><circle cx="708" cy="291" r="2"></circle><circle cx="719" cy="291" r="2"></circle><circle cx="730" cy="291" r="2"></circle></g></g></g></g></g><g style="fill: #777;" class="SourcesFooter"><g style="fill: #777;" class="clickable"><text font-size="12.60" x="15.0" y="554.2"><tspan x="15" y="554.1800000000001">Source: Human Rights Protection Scores – Christopher Farris (2014) and Keith Schnakenberg</tspan></text></g><text font-size="12.60" x="15.0" y="568.8"><tspan x="15" y="568.7800000000001">Note: The protection scores are latent variable estimates and are described in more detail in the Sources Tab. The original dataset is published</tspan><tspan x="15" y="582.6400000000001">with uncertainty estimates, which should be considered but cannot be shown here because of technical limitations.</tspan></text><text font-size="12.60" x="568.3" y="554.2"><tspan x="568.258" y="554.1800000000001"><a target='_blank' style='fill: #777;' href='https://ourworldindata.org/human-rights/'>OurWorldInData.org/human-rights/</a> • <a style="fill: #777;" href="http://creativecommons.org/licenses/by-sa/4.0/deed.en_US" target="_blank">CC BY-SA</a></tspan></text></g></g></svg>