<svg xmlns="http://www.w3.org/2000/svg" version="1.1" style="font-family: 'Helvetica Neue', Helvetica, Arial, sans-serif; font-size: 18px; background-color: white; text-rendering: optimizeLegibility; -webkit-font-smoothing: antialiased;" width="850" height="600"><g class="ChartTab"><g class="HeaderView"><g opacity="0.8" transform="translate(770, 15) scale(0.31)"><a xmlns:xlink="http://www.w3.org/1999/xlink" xlink:href="https://ourworldindata.org" target="_blank"><g><rect x="0" y="0" fill="#1B2543" width="211.2" height="130.1"/><rect x="0" y="112.2" fill="#E63912" width="211.2" height="17.9"/><g><rect x="1.2" y="12.3" fill="none" width="210.2" height="99.2"/><path fill="#FFFFFF" d="M37.8,32.2c0,12.7-7.7,19.4-17.1,19.4c-9.7,0-16.6-7.5-16.6-18.7c0-11.7,7.3-19.3,17.1-19.3 C31.3,13.7,37.8,21.3,37.8,32.2z M9.2,32.8c0,7.9,4.3,14.9,11.8,14.9c7.5,0,11.8-6.9,11.8-15.3c0-7.3-3.8-14.9-11.8-14.9 C13.1,17.5,9.2,24.8,9.2,32.8z"/><path fill="#FFFFFF" d="M62.7,43.8c0,2.7,0.1,5.1,0.2,7.2h-4.3l-0.3-4.3h-0.1c-1.3,2.1-4,4.9-8.8,4.9c-4.2,0-9.1-2.3-9.1-11.6 V24.6h4.8v14.6c0,5,1.5,8.4,5.9,8.4c3.2,0,5.5-2.2,6.3-4.4c0.3-0.7,0.4-1.6,0.4-2.5V24.6h4.8V43.8z"/><path fill="#FFFFFF" d="M67.3,32.8c0-3.1-0.1-5.8-0.2-8.2h4.2l0.2,5.2h0.2c1.2-3.5,4.1-5.8,7.3-5.8c0.5,0,0.9,0.1,1.4,0.2v4.5 c-0.5-0.1-1-0.2-1.6-0.2c-3.4,0-5.8,2.6-6.5,6.2c-0.1,0.7-0.2,1.4-0.2,2.2V51h-4.8V32.8z"/><path fill="#FFFFFF" d="M95.4,51l-9.4-36.8h5l4.4,18.6c1.1,4.6,2.1,9.2,2.7,12.7h0.1c0.6-3.7,1.8-8,3-12.8l4.9-18.5h5l4.5,18.7 c1,4.4,2,8.7,2.6,12.6h0.1c0.8-4,1.8-8.1,3-12.7l4.9-18.5h4.9L120.6,51h-5L111,31.9c-1.1-4.7-1.9-8.3-2.4-12h-0.1 c-0.7,3.7-1.5,7.3-2.8,12L100.4,51H95.4z"/><path fill="#FFFFFF" d="M154.9,37.6c0,9.8-6.8,14-13.2,14c-7.2,0-12.7-5.2-12.7-13.6c0-8.8,5.8-14,13.1-14 C149.8,24,154.9,29.5,154.9,37.6z M133.9,37.9c0,5.8,3.3,10.1,8,10.1c4.6,0,8-4.3,8-10.3c0-4.5-2.2-10.1-7.9-10.1 C136.3,27.6,133.9,32.8,133.9,37.9z"/><path fill="#FFFFFF" d="M158.2,32.8c0-3.1-0.1-5.8-0.2-8.2h4.2l0.2,5.2h0.2c1.2-3.5,4.1-5.8,7.3-5.8c0.5,0,0.9,0.1,1.4,0.2v4.5 c-0.5-0.1-1-0.2-1.6-0.2c-3.4,0-5.8,2.6-6.5,6.2c-0.1,0.7-0.2,1.4-0.2,2.2V51h-4.8V32.8z"/><path fill="#FFFFFF" d="M173.5,12.3h4.8V51h-4.8V12.3z"/><path fill="#FFFFFF" d="M206.5,12.3v31.9c0,2.3,0.1,5,0.2,6.8h-4.3l-0.2-4.6H202c-1.5,2.9-4.7,5.2-9,5.2 c-6.4,0-11.3-5.4-11.3-13.4c-0.1-8.8,5.4-14.2,11.9-14.2c4,0,6.8,1.9,8,4h0.1V12.3H206.5z M201.7,35.4c0-0.6-0.1-1.4-0.2-2 c-0.7-3.1-3.3-5.6-6.9-5.6c-5,0-7.9,4.4-7.9,10.2c0,5.3,2.6,9.8,7.8,9.8c3.2,0,6.2-2.1,7.1-5.7c0.2-0.7,0.2-1.3,0.2-2.1V35.4z"/><path fill="#FFFFFF" d="M42.8,64c0.1,1.6-1.1,2.9-3.1,2.9c-1.7,0-2.9-1.3-2.9-2.9c0-1.7,1.3-3,3-3C41.7,61,42.8,62.3,42.8,64z M37.4,97.8V71.4h4.8v26.4H37.4z"/><path fill="#FFFFFF" d="M47.5,78.6c0-2.7-0.1-5-0.2-7.1h4.3l0.3,4.4h0.1c1.3-2.5,4.4-5,8.8-5c3.7,0,9.4,2.2,9.4,11.2v15.8h-4.8 V82.6c0-4.3-1.6-7.8-6.1-7.8c-3.2,0-5.6,2.2-6.5,4.9c-0.2,0.6-0.3,1.4-0.3,2.2v15.9h-4.8V78.6z"/><path fill="#FFFFFF" d="M84,61.6c2.9-0.4,6.3-0.8,10.1-0.8c6.8,0,11.7,1.6,14.9,4.6c3.3,3,5.2,7.3,5.2,13.2c0,6-1.9,10.9-5.3,14.3 c-3.4,3.4-9.1,5.3-16.3,5.3c-3.4,0-6.2-0.2-8.6-0.4V61.6z M88.8,94.1c1.2,0.2,3,0.3,4.8,0.3c10.2,0,15.7-5.7,15.7-15.6 c0.1-8.7-4.9-14.2-14.9-14.2c-2.5,0-4.3,0.2-5.6,0.5V94.1z"/><path fill="#FFFFFF" d="M132.1,97.8l-0.4-3.3h-0.2c-1.5,2.1-4.3,3.9-8.1,3.9c-5.4,0-8.1-3.8-8.1-7.6c0-6.4,5.7-9.9,15.9-9.8v-0.5 c0-2.2-0.6-6.1-6-6.1c-2.5,0-5,0.8-6.9,2l-1.1-3.2c2.2-1.4,5.4-2.3,8.7-2.3c8.1,0,10.1,5.5,10.1,10.8v9.9c0,2.3,0.1,4.5,0.4,6.3 H132.1z M131.4,84.4c-5.3-0.1-11.2,0.8-11.2,5.9c0,3.1,2.1,4.6,4.5,4.6c3.4,0,5.6-2.2,6.4-4.4c0.2-0.5,0.3-1,0.3-1.5V84.4z"/><path fill="#FFFFFF" d="M146.6,63.9v7.6h6.9v3.7h-6.9v14.2c0,3.3,0.9,5.1,3.6,5.1c1.3,0,2.2-0.2,2.8-0.3l0.2,3.6 c-0.9,0.4-2.4,0.7-4.3,0.7c-2.2,0-4-0.7-5.2-2c-1.4-1.4-1.9-3.8-1.9-6.9V75.1h-4.1v-3.7h4.1v-6.3L146.6,63.9z"/><path fill="#FFFFFF" d="M171.4,97.8l-0.4-3.3h-0.2c-1.5,2.1-4.3,3.9-8.1,3.9c-5.4,0-8.1-3.8-8.1-7.6c0-6.4,5.7-9.9,15.9-9.8v-0.5 c0-2.2-0.6-6.1-6-6.1c-2.5,0-5,0.8-6.9,2l-1.1-3.2c2.2-1.4,5.4-2.3,8.7-2.3c8.1,0,10.1,5.5,10.1,10.8v9.9c0,2.3,0.1,4.5,0.4,6.3 H171.4z M170.7,84.4c-5.3-0.1-11.2,0.8-11.2,5.9c0,3.1,2.1,4.6,4.5,4.6c3.4,0,5.6-2.2,6.4-4.4c0.2-0.5,0.3-1,0.3-1.5V84.4z"/></g></g></a></g><a href="https://ourworldindata.org/grapher/human-development-index?tab=chart" target="_blank"><text font-size="27.00" x="15.0" y="36.6" fill="#555"><tspan x="15" y="36.6">Human Development Index</tspan></text></a><text font-size="14.40" x="15.0" y="55.5" fill="#666"><tspan x="15" y="55.519999999999996">The Human Development Index (HDI) is a summary measure of average achievement in key dimensions of human</tspan><tspan x="15" y="71.36">development: a long and healthy life, being knowledgeable and having a decent standard of living. The HDI is the</tspan><tspan x="15" y="87.2">geometric mean of normalized indices for each of the three dimensions.</tspan></text></g><g class="LineChart"><defs><clipPath id="boundsClip-292"><rect x="32.68" y="0" width="830" height="894.2"></rect></clipPath></defs><g class="AxisBoxView"><g class="HorizontalAxis"><text x="42.7" y="556.5" fill="#666" text-anchor="middle" font-size="16.2">1980</text><text x="142.8" y="556.5" fill="#666" text-anchor="middle" font-size="16.2">1985</text><text x="242.8" y="556.5" fill="#666" text-anchor="middle" font-size="16.2">1990</text><text x="342.9" y="556.5" fill="#666" text-anchor="middle" font-size="16.2">1995</text><text x="443" y="556.5" fill="#666" text-anchor="middle" font-size="16.2">2000</text><text x="543" y="556.5" fill="#666" text-anchor="middle" font-size="16.2">2005</text><text x="643.1" y="556.5" fill="#666" text-anchor="middle" font-size="16.2">2010</text><text x="723.2" y="556.5" fill="#666" text-anchor="middle" font-size="16.2">2014</text></g><g class="VerticalAxis"><text x="37.68" y="535.3" fill="#666" dominant-baseline="middle" text-anchor="end" font-size="16.2">0</text><text x="37.68" y="445.1" fill="#666" dominant-baseline="middle" text-anchor="end" font-size="16.2">0.2</text><text x="37.68" y="354.8" fill="#666" dominant-baseline="middle" text-anchor="end" font-size="16.2">0.4</text><text x="37.68" y="264.6" fill="#666" dominant-baseline="middle" text-anchor="end" font-size="16.2">0.6</text><text x="37.68" y="174.4" fill="#666" dominant-baseline="middle" text-anchor="end" font-size="16.2">0.8</text></g><g class="AxisGridLines"><line x1="42.68" y1="535.3" x2="723.17" y2="535.3" stroke="#ccc"></line><line x1="42.68" y1="445.1" x2="723.17" y2="445.1" stroke="#ddd" stroke-dasharray="3,2"></line><line x1="42.68" y1="354.8" x2="723.17" y2="354.8" stroke="#ddd" stroke-dasharray="3,2"></line><line x1="42.68" y1="264.6" x2="723.17" y2="264.6" stroke="#ddd" stroke-dasharray="3,2"></line><line x1="42.68" y1="174.4" x2="723.17" y2="174.4" stroke="#ddd" stroke-dasharray="3,2"></line></g><g class="AxisGridLines"><line x1="42.7" y1="535.30" x2="42.7" y2="109.40" stroke="#ddd" stroke-dasharray="3,2"></line><line x1="142.8" y1="535.30" x2="142.8" y2="109.40" stroke="#ddd" stroke-dasharray="3,2"></line><line x1="242.8" y1="535.30" x2="242.8" y2="109.40" stroke="#ddd" stroke-dasharray="3,2"></line><line x1="342.9" y1="535.30" x2="342.9" y2="109.40" stroke="#ddd" stroke-dasharray="3,2"></line><line x1="443" y1="535.30" x2="443" y2="109.40" stroke="#ddd" stroke-dasharray="3,2"></line><line x1="543" y1="535.30" x2="543" y2="109.40" stroke="#ddd" stroke-dasharray="3,2"></line><line x1="643.1" y1="535.30" x2="643.1" y2="109.40" stroke="#ddd" stroke-dasharray="3,2"></line></g></g><g clip-path="url(#boundsClip-292)"><g class="HeightedLegend clickable"><g class="legendMark"><rect x="733.168" y="102.2" width="63.816" height="14.4" fill="#fff" opacity="0"></rect><rect x="733.168" y="108.15" width="10" height="2.5" fill="#e6332e"></rect><text font-size="14.40" x="748.2" y="113.7" fill="#333"><tspan x="748.168" y="113.72000000000001">Norway</tspan></text></g><g class="legendMark"><rect x="733.168" y="116.60000000000001" width="101.83200000000001" height="14.4" fill="#fff" opacity="0"></rect><rect x="733.168" y="122.55000000000001" width="10" height="2.5" fill="#2a939b"></rect><text font-size="14.40" x="748.2" y="128.1" fill="#333"><tspan x="748.168" y="128.12">United States</tspan></text></g><g class="legendMark"><rect x="733.168" y="131" width="95.49600000000001" height="14.4" fill="#fff" opacity="0"></rect><rect x="733.168" y="136.95" width="10" height="2.5" fill="#a652ba"></rect><text font-size="14.40" x="748.2" y="142.5" fill="#333"><tspan x="748.168" y="142.52">South Korea</tspan></text></g><g class="legendMark"><rect x="733.168" y="150.9" width="76.92000000000002" height="14.4" fill="#fff" opacity="0"></rect><rect x="733.168" y="156.85" width="10" height="2.5" fill="#f6a324"></rect><text font-size="14.40" x="748.2" y="162.4" fill="#333"><tspan x="748.168" y="162.42000000000002">Argentina</tspan></text></g><g class="legendMark"><rect x="733.168" y="196" width="59.928000000000004" height="14.4" fill="#fff" opacity="0"></rect><rect x="733.168" y="201.95" width="10" height="2.5" fill="#34983f"></rect><text font-size="14.40" x="748.2" y="207.5" fill="#333"><tspan x="748.168" y="207.52">Algeria</tspan></text></g><g class="legendMark"><rect x="733.168" y="213.20000000000002" width="78.504" height="14.4" fill="#fff" opacity="0"></rect><rect x="733.168" y="219.15" width="10" height="2.5" fill="#ca2628"></rect><text font-size="14.40" x="748.2" y="224.7" fill="#333"><tspan x="748.168" y="224.72000000000003">Botswana</tspan></text></g><g class="legendMark"><rect x="733.168" y="253.3" width="46.392" height="14.4" fill="#fff" opacity="0"></rect><rect x="733.168" y="259.25" width="10" height="2.5" fill="#3360a9"></rect><text font-size="14.40" x="748.2" y="264.8" fill="#333"><tspan x="748.168" y="264.82">India</tspan></text></g></g><g class="Lines"><rect x="43" y="109" width="680" height="426" fill="rgba(255,255,255,0)" opacity="0"></rect><g class="key-India_0"><path stroke="#3360a9" stroke-linecap="round" d="M43 372L143 356L243 342L343 327L443 312L543 292L643 271L663 266L683 265L703 263L723 261" fill="none" stroke-width="1.5"></path><g fill="#3360a9"><circle cx="43" cy="372" r="2"></circle><circle cx="143" cy="356" r="2"></circle><circle cx="243" cy="342" r="2"></circle><circle cx="343" cy="327" r="2"></circle><circle cx="443" cy="312" r="2"></circle><circle cx="543" cy="292" r="2"></circle><circle cx="643" cy="271" r="2"></circle><circle cx="663" cy="266" r="2"></circle><circle cx="683" cy="265" r="2"></circle><circle cx="703" cy="263" r="2"></circle><circle cx="723" cy="261" r="2"></circle></g></g><g class="key-South-Korea_0"><path stroke="#a652ba" stroke-linecap="round" d="M43 255L143 229L243 206L343 183L443 165L543 148L643 136L663 133L683 132L703 132L723 130" fill="none" stroke-width="1.5"></path><g fill="#a652ba"><circle cx="43" cy="255" r="2"></circle><circle cx="143" cy="229" r="2"></circle><circle cx="243" cy="206" r="2"></circle><circle cx="343" cy="183" r="2"></circle><circle cx="443" cy="165" r="2"></circle><circle cx="543" cy="148" r="2"></circle><circle cx="643" cy="136" r="2"></circle><circle cx="663" cy="133" r="2"></circle><circle cx="683" cy="132" r="2"></circle><circle cx="703" cy="132" r="2"></circle><circle cx="723" cy="130" r="2"></circle></g></g><g class="key-Norway_0"><path stroke="#e6332e" stroke-linecap="round" d="M43 169L143 162L243 152L343 137L443 122L543 115L643 111L663 111L683 110L703 110L723 109" fill="none" stroke-width="1.5"></path><g fill="#e6332e"><circle cx="43" cy="169" r="2"></circle><circle cx="143" cy="162" r="2"></circle><circle cx="243" cy="152" r="2"></circle><circle cx="343" cy="137" r="2"></circle><circle cx="443" cy="122" r="2"></circle><circle cx="543" cy="115" r="2"></circle><circle cx="643" cy="111" r="2"></circle><circle cx="663" cy="111" r="2"></circle><circle cx="683" cy="110" r="2"></circle><circle cx="703" cy="110" r="2"></circle><circle cx="723" cy="109" r="2"></circle></g></g><g class="key-Botswana_0"><path stroke="#ca2628" stroke-linecap="round" d="M43 331L143 302L243 272L343 274L443 282L543 259L643 228L663 225L683 224L703 221L723 220" fill="none" stroke-width="1.5"></path><g fill="#ca2628"><circle cx="43" cy="331" r="2"></circle><circle cx="143" cy="302" r="2"></circle><circle cx="243" cy="272" r="2"></circle><circle cx="343" cy="274" r="2"></circle><circle cx="443" cy="282" r="2"></circle><circle cx="543" cy="259" r="2"></circle><circle cx="643" cy="228" r="2"></circle><circle cx="663" cy="225" r="2"></circle><circle cx="683" cy="224" r="2"></circle><circle cx="703" cy="221" r="2"></circle><circle cx="723" cy="220" r="2"></circle></g></g><g class="key-Argentina_0"><path stroke="#f6a324" stroke-linecap="round" d="M43 231L143 222L243 217L343 206L443 192L543 186L643 169L663 166L683 160L703 160L723 158" fill="none" stroke-width="1.5"></path><g fill="#f6a324"><circle cx="43" cy="231" r="2"></circle><circle cx="143" cy="222" r="2"></circle><circle cx="243" cy="217" r="2"></circle><circle cx="343" cy="206" r="2"></circle><circle cx="443" cy="192" r="2"></circle><circle cx="543" cy="186" r="2"></circle><circle cx="643" cy="169" r="2"></circle><circle cx="663" cy="166" r="2"></circle><circle cx="683" cy="160" r="2"></circle><circle cx="703" cy="160" r="2"></circle><circle cx="723" cy="158" r="2"></circle></g></g><g class="key-Algeria_0"><path stroke="#34983f" stroke-linecap="round" d="M243 276L343 266L443 247L543 225L643 208L663 206L683 205L703 204L723 203" fill="none" stroke-width="1.5"></path><g fill="#34983f"><circle cx="243" cy="276" r="2"></circle><circle cx="343" cy="266" r="2"></circle><circle cx="443" cy="247" r="2"></circle><circle cx="543" cy="225" r="2"></circle><circle cx="643" cy="208" r="2"></circle><circle cx="663" cy="206" r="2"></circle><circle cx="683" cy="205" r="2"></circle><circle cx="703" cy="204" r="2"></circle><circle cx="723" cy="203" r="2"></circle></g></g><g class="key-United-States_0"><path stroke="#2a939b" stroke-linecap="round" d="M43 163L143 156L243 148L343 140L443 137L543 131L643 125L663 124L683 124L703 123L723 123" fill="none" stroke-width="1.5"></path><g fill="#2a939b"><circle cx="43" cy="163" r="2"></circle><circle cx="143" cy="156" r="2"></circle><circle cx="243" cy="148" r="2"></circle><circle cx="343" cy="140" r="2"></circle><circle cx="443" cy="137" r="2"></circle><circle cx="543" cy="131" r="2"></circle><circle cx="643" cy="125" r="2"></circle><circle cx="663" cy="124" r="2"></circle><circle cx="683" cy="124" r="2"></circle><circle cx="703" cy="123" r="2"></circle><circle cx="723" cy="123" r="2"></circle></g></g></g></g></g><g style="fill: #777;" class="SourcesFooter"><g style="fill: #777;" class="clickable"><text font-size="12.60" x="15.0" y="581.6"><tspan x="15" y="581.58">Source: Human Development Index (UNDP)</tspan></text></g><text font-size="12.60" x="492.3" y="581.6"><tspan x="492.28" y="581.58"><a target='_blank' style='fill: #777;' href='https://ourworldindata.org/human-development-index/'>OurWorldInData.org/human-development-index/</a> • <a style="fill: #777;" href="http://creativecommons.org/licenses/by-sa/4.0/deed.en_US" target="_blank">CC BY-SA</a></tspan></text></g></g></svg>