<svg xmlns="http://www.w3.org/2000/svg" version="1.1" style="font-family:&#x27;Helvetica Neue&#x27;, Helvetica, Arial, sans-serif;font-size:18px;background-color:white;text-rendering:optimizeLegibility;-webkit-font-smoothing:antialiased" width="850" height="600"><g class="ChartTab"><g class="HeaderView"><g opacity="0.8" transform="translate(778, 15) scale(0.27)"><a xmlns:xlink="http://www.w3.org/1999/xlink" xlink:href="https://ourworldindata.org" target="_blank"><g><rect x="0" y="0" fill="#1B2543" width="211.2" height="130.1"/><rect x="0" y="112.2" fill="#E63912" width="211.2" height="17.9"/><g><rect x="1.2" y="12.3" fill="none" width="210.2" height="99.2"/><path fill="#FFFFFF" d="M37.8,32.2c0,12.7-7.7,19.4-17.1,19.4c-9.7,0-16.6-7.5-16.6-18.7c0-11.7,7.3-19.3,17.1-19.3 C31.3,13.7,37.8,21.3,37.8,32.2z M9.2,32.8c0,7.9,4.3,14.9,11.8,14.9c7.5,0,11.8-6.9,11.8-15.3c0-7.3-3.8-14.9-11.8-14.9 C13.1,17.5,9.2,24.8,9.2,32.8z"/><path fill="#FFFFFF" d="M62.7,43.8c0,2.7,0.1,5.1,0.2,7.2h-4.3l-0.3-4.3h-0.1c-1.3,2.1-4,4.9-8.8,4.9c-4.2,0-9.1-2.3-9.1-11.6 V24.6h4.8v14.6c0,5,1.5,8.4,5.9,8.4c3.2,0,5.5-2.2,6.3-4.4c0.3-0.7,0.4-1.6,0.4-2.5V24.6h4.8V43.8z"/><path fill="#FFFFFF" d="M67.3,32.8c0-3.1-0.1-5.8-0.2-8.2h4.2l0.2,5.2h0.2c1.2-3.5,4.1-5.8,7.3-5.8c0.5,0,0.9,0.1,1.4,0.2v4.5 c-0.5-0.1-1-0.2-1.6-0.2c-3.4,0-5.8,2.6-6.5,6.2c-0.1,0.7-0.2,1.4-0.2,2.2V51h-4.8V32.8z"/><path fill="#FFFFFF" d="M95.4,51l-9.4-36.8h5l4.4,18.6c1.1,4.6,2.1,9.2,2.7,12.7h0.1c0.6-3.7,1.8-8,3-12.8l4.9-18.5h5l4.5,18.7 c1,4.4,2,8.7,2.6,12.6h0.1c0.8-4,1.8-8.1,3-12.7l4.9-18.5h4.9L120.6,51h-5L111,31.9c-1.1-4.7-1.9-8.3-2.4-12h-0.1 c-0.7,3.7-1.5,7.3-2.8,12L100.4,51H95.4z"/><path fill="#FFFFFF" d="M154.9,37.6c0,9.8-6.8,14-13.2,14c-7.2,0-12.7-5.2-12.7-13.6c0-8.8,5.8-14,13.1-14 C149.8,24,154.9,29.5,154.9,37.6z M133.9,37.9c0,5.8,3.3,10.1,8,10.1c4.6,0,8-4.3,8-10.3c0-4.5-2.2-10.1-7.9-10.1 C136.3,27.6,133.9,32.8,133.9,37.9z"/><path fill="#FFFFFF" d="M158.2,32.8c0-3.1-0.1-5.8-0.2-8.2h4.2l0.2,5.2h0.2c1.2-3.5,4.1-5.8,7.3-5.8c0.5,0,0.9,0.1,1.4,0.2v4.5 c-0.5-0.1-1-0.2-1.6-0.2c-3.4,0-5.8,2.6-6.5,6.2c-0.1,0.7-0.2,1.4-0.2,2.2V51h-4.8V32.8z"/><path fill="#FFFFFF" d="M173.5,12.3h4.8V51h-4.8V12.3z"/><path fill="#FFFFFF" d="M206.5,12.3v31.9c0,2.3,0.1,5,0.2,6.8h-4.3l-0.2-4.6H202c-1.5,2.9-4.7,5.2-9,5.2 c-6.4,0-11.3-5.4-11.3-13.4c-0.1-8.8,5.4-14.2,11.9-14.2c4,0,6.8,1.9,8,4h0.1V12.3H206.5z M201.7,35.4c0-0.6-0.1-1.4-0.2-2 c-0.7-3.1-3.3-5.6-6.9-5.6c-5,0-7.9,4.4-7.9,10.2c0,5.3,2.6,9.8,7.8,9.8c3.2,0,6.2-2.1,7.1-5.7c0.2-0.7,0.2-1.3,0.2-2.1V35.4z"/><path fill="#FFFFFF" d="M42.8,64c0.1,1.6-1.1,2.9-3.1,2.9c-1.7,0-2.9-1.3-2.9-2.9c0-1.7,1.3-3,3-3C41.7,61,42.8,62.3,42.8,64z M37.4,97.8V71.4h4.8v26.4H37.4z"/><path fill="#FFFFFF" d="M47.5,78.6c0-2.7-0.1-5-0.2-7.1h4.3l0.3,4.4h0.1c1.3-2.5,4.4-5,8.8-5c3.7,0,9.4,2.2,9.4,11.2v15.8h-4.8 V82.6c0-4.3-1.6-7.8-6.1-7.8c-3.2,0-5.6,2.2-6.5,4.9c-0.2,0.6-0.3,1.4-0.3,2.2v15.9h-4.8V78.6z"/><path fill="#FFFFFF" d="M84,61.6c2.9-0.4,6.3-0.8,10.1-0.8c6.8,0,11.7,1.6,14.9,4.6c3.3,3,5.2,7.3,5.2,13.2c0,6-1.9,10.9-5.3,14.3 c-3.4,3.4-9.1,5.3-16.3,5.3c-3.4,0-6.2-0.2-8.6-0.4V61.6z M88.8,94.1c1.2,0.2,3,0.3,4.8,0.3c10.2,0,15.7-5.7,15.7-15.6 c0.1-8.7-4.9-14.2-14.9-14.2c-2.5,0-4.3,0.2-5.6,0.5V94.1z"/><path fill="#FFFFFF" d="M132.1,97.8l-0.4-3.3h-0.2c-1.5,2.1-4.3,3.9-8.1,3.9c-5.4,0-8.1-3.8-8.1-7.6c0-6.4,5.7-9.9,15.9-9.8v-0.5 c0-2.2-0.6-6.1-6-6.1c-2.5,0-5,0.8-6.9,2l-1.1-3.2c2.2-1.4,5.4-2.3,8.7-2.3c8.1,0,10.1,5.5,10.1,10.8v9.9c0,2.3,0.1,4.5,0.4,6.3 H132.1z M131.4,84.4c-5.3-0.1-11.2,0.8-11.2,5.9c0,3.1,2.1,4.6,4.5,4.6c3.4,0,5.6-2.2,6.4-4.4c0.2-0.5,0.3-1,0.3-1.5V84.4z"/><path fill="#FFFFFF" d="M146.6,63.9v7.6h6.9v3.7h-6.9v14.2c0,3.3,0.9,5.1,3.6,5.1c1.3,0,2.2-0.2,2.8-0.3l0.2,3.6 c-0.9,0.4-2.4,0.7-4.3,0.7c-2.2,0-4-0.7-5.2-2c-1.4-1.4-1.9-3.8-1.9-6.9V75.1h-4.1v-3.7h4.1v-6.3L146.6,63.9z"/><path fill="#FFFFFF" d="M171.4,97.8l-0.4-3.3h-0.2c-1.5,2.1-4.3,3.9-8.1,3.9c-5.4,0-8.1-3.8-8.1-7.6c0-6.4,5.7-9.9,15.9-9.8v-0.5 c0-2.2-0.6-6.1-6-6.1c-2.5,0-5,0.8-6.9,2l-1.1-3.2c2.2-1.4,5.4-2.3,8.7-2.3c8.1,0,10.1,5.5,10.1,10.8v9.9c0,2.3,0.1,4.5,0.4,6.3 H171.4z M170.7,84.4c-5.3-0.1-11.2,0.8-11.2,5.9c0,3.1,2.1,4.6,4.5,4.6c3.4,0,5.6-2.2,6.4-4.4c0.2-0.5,0.3-1,0.3-1.5V84.4z"/></g></g></a></g><a href="https://ourworldindata.org/grapher/incidence-of-terrorism?country=AFG" target="_blank"><text font-size="25.20" x="15.0" y="35.2" fill="#555"><tspan x="15" y="35.160000000000004">Incidence, fatality and injury from terrorist attacks, Afghanistan</tspan></text></a><text font-size="14.40" x="15.0" y="53.7" fill="#666"><tspan x="15" y="53.72">The total number of recorded terrorist incidents, fatalities and non-fatal injuries by country or region. This includes</tspan><tspan x="15" y="69.56">fatalities or non-fatal injuries of both victims and perpetrators. </tspan></text></g><g class="LineChart"><defs><clipPath id="boundsClip-99"><rect x="50.824" y="0" width="830" height="928.8"></rect></clipPath></defs><g class="AxisBoxView"><g class="HorizontalAxis"><text x="60.8" y="556.5" fill="#666" text-anchor="middle" font-size="16.2">1973</text><text x="162.3" y="556.5" fill="#666" text-anchor="middle" font-size="16.2">1980</text><text x="307.2" y="556.5" fill="#666" text-anchor="middle" font-size="16.2">1990</text><text x="452.1" y="556.5" fill="#666" text-anchor="middle" font-size="16.2">2000</text><text x="597" y="556.5" fill="#666" text-anchor="middle" font-size="16.2">2010</text><text x="698.5" y="556.5" fill="#666" text-anchor="middle" font-size="16.2">2017</text></g><g class="VerticalAxis"><text x="55.82" y="535.3" fill="#666" dominant-baseline="middle" text-anchor="end" font-size="16.2">0</text><text x="55.82" y="471.9" fill="#666" dominant-baseline="middle" text-anchor="end" font-size="16.2">1,000</text><text x="55.82" y="408.4" fill="#666" dominant-baseline="middle" text-anchor="end" font-size="16.2">2,000</text><text x="55.82" y="345" fill="#666" dominant-baseline="middle" text-anchor="end" font-size="16.2">3,000</text><text x="55.82" y="281.6" fill="#666" dominant-baseline="middle" text-anchor="end" font-size="16.2">4,000</text><text x="55.82" y="218.1" fill="#666" dominant-baseline="middle" text-anchor="end" font-size="16.2">5,000</text><text x="55.82" y="154.7" fill="#666" dominant-baseline="middle" text-anchor="end" font-size="16.2">6,000</text></g><g class="AxisGridLines"><line x1="60.82" y1="535.3" x2="698.48" y2="535.3" stroke="#ccc"></line><line x1="60.82" y1="471.9" x2="698.48" y2="471.9" stroke="#ddd" stroke-dasharray="3,2"></line><line x1="60.82" y1="408.4" x2="698.48" y2="408.4" stroke="#ddd" stroke-dasharray="3,2"></line><line x1="60.82" y1="345" x2="698.48" y2="345" stroke="#ddd" stroke-dasharray="3,2"></line><line x1="60.82" y1="281.6" x2="698.48" y2="281.6" stroke="#ddd" stroke-dasharray="3,2"></line><line x1="60.82" y1="218.1" x2="698.48" y2="218.1" stroke="#ddd" stroke-dasharray="3,2"></line><line x1="60.82" y1="154.7" x2="698.48" y2="154.7" stroke="#ddd" stroke-dasharray="3,2"></line></g></g><g clip-path="url(#boundsClip-99)"><g class="HeightedLegend clickable"><g class="legendMark"><g class="indicator"><line x1="703.48" y1="148.9" x2="725.98" y2="148.9" stroke="#666" stroke-width="0.5"></line><line x1="725.98" y1="148.9" x2="725.98" y2="148.9" stroke="#666" stroke-width="0.5"></line><line x1="725.98" y1="148.9" x2="728.48" y2="148.9" stroke="#666" stroke-width="0.5"></line></g><rect x="698.48" y="142.15" width="89.135" height="13.5" fill="#fff" opacity="0"></rect><text font-size="13.50" x="733.5" y="153.0" fill="#34983f"><tspan x="733.48" y="152.95000000000002">Fatalities</tspan></text></g><g class="legendMark"><g class="indicator"><line x1="703.48" y1="153" x2="715.98" y2="153" stroke="#666" stroke-width="0.5"></line><line x1="715.98" y1="153" x2="715.98" y2="164.4" stroke="#666" stroke-width="0.5"></line><line x1="715.98" y1="164.4" x2="728.48" y2="164.4" stroke="#666" stroke-width="0.5"></line></g><rect x="698.48" y="157.65" width="136.52" height="13.5" fill="#fff" opacity="0"></rect><text font-size="13.50" x="733.5" y="168.5" fill="#ca2628"><tspan x="733.48" y="168.45000000000002">Non-fatal injuries</tspan></text></g><g class="legendMark"><g class="indicator"><line x1="703.48" y1="445.6" x2="715.98" y2="445.6" stroke="#666" stroke-width="0.5"></line><line x1="715.98" y1="445.6" x2="715.98" y2="445.6" stroke="#666" stroke-width="0.5"></line><line x1="715.98" y1="445.6" x2="728.48" y2="445.6" stroke="#666" stroke-width="0.5"></line></g><rect x="698.48" y="438.85" width="89.27000000000001" height="13.5" fill="#fff" opacity="0"></rect><text font-size="13.50" x="733.5" y="449.7" fill="#3360a9"><tspan x="733.48" y="449.65000000000003">Incidents</tspan></text></g></g><g class="Lines"><rect x="61" y="92" width="638" height="443" fill="rgba(255,255,255,0)" opacity="0"></rect><g class="key-Afghanistan_0"><path stroke="#34983f" stroke-linecap="round" d="M61 535L148 532L264 535L278 527L293 535L307 535L322 531L336 532L365 534L380 535L394 533L409 535L423 535L438 533L452 533L467 524L481 531L496 525L510 518L525 512L539 489L554 459L568 466L583 468L597 462L612 439L626 312L641 300L655 192L670 141L684 146L699 149" fill="none" stroke-width="1.5"></path><g fill="#34983f"><circle cx="61" cy="535" r="2"></circle><circle cx="148" cy="532" r="2"></circle><circle cx="264" cy="535" r="2"></circle><circle cx="278" cy="527" r="2"></circle><circle cx="293" cy="535" r="2"></circle><circle cx="307" cy="535" r="2"></circle><circle cx="322" cy="531" r="2"></circle><circle cx="336" cy="532" r="2"></circle><circle cx="365" cy="534" r="2"></circle><circle cx="380" cy="535" r="2"></circle><circle cx="394" cy="533" r="2"></circle><circle cx="409" cy="535" r="2"></circle><circle cx="423" cy="535" r="2"></circle><circle cx="438" cy="533" r="2"></circle><circle cx="452" cy="533" r="2"></circle><circle cx="467" cy="524" r="2"></circle><circle cx="481" cy="531" r="2"></circle><circle cx="496" cy="525" r="2"></circle><circle cx="510" cy="518" r="2"></circle><circle cx="525" cy="512" r="2"></circle><circle cx="539" cy="489" r="2"></circle><circle cx="554" cy="459" r="2"></circle><circle cx="568" cy="466" r="2"></circle><circle cx="583" cy="468" r="2"></circle><circle cx="597" cy="462" r="2"></circle><circle cx="612" cy="439" r="2"></circle><circle cx="626" cy="312" r="2"></circle><circle cx="641" cy="300" r="2"></circle><circle cx="655" cy="192" r="2"></circle><circle cx="670" cy="141" r="2"></circle><circle cx="684" cy="146" r="2"></circle><circle cx="699" cy="149" r="2"></circle></g></g><g class="key-Afghanistan_1"><path stroke="#3360a9" stroke-linecap="round" d="M61 535L148 535L264 535L278 535L293 535L307 535L322 533L336 533L365 535L380 535L394 535L409 535L423 535L438 535L452 534L467 534L481 533L496 529L510 530L525 526L539 517L554 514L568 509L583 503L597 501L612 509L626 442L641 444L655 420L670 413L684 433L699 446" fill="none" stroke-width="1.5"></path><g fill="#3360a9"><circle cx="61" cy="535" r="2"></circle><circle cx="148" cy="535" r="2"></circle><circle cx="264" cy="535" r="2"></circle><circle cx="278" cy="535" r="2"></circle><circle cx="293" cy="535" r="2"></circle><circle cx="307" cy="535" r="2"></circle><circle cx="322" cy="533" r="2"></circle><circle cx="336" cy="533" r="2"></circle><circle cx="365" cy="535" r="2"></circle><circle cx="380" cy="535" r="2"></circle><circle cx="394" cy="535" r="2"></circle><circle cx="409" cy="535" r="2"></circle><circle cx="423" cy="535" r="2"></circle><circle cx="438" cy="535" r="2"></circle><circle cx="452" cy="534" r="2"></circle><circle cx="467" cy="534" r="2"></circle><circle cx="481" cy="533" r="2"></circle><circle cx="496" cy="529" r="2"></circle><circle cx="510" cy="530" r="2"></circle><circle cx="525" cy="526" r="2"></circle><circle cx="539" cy="517" r="2"></circle><circle cx="554" cy="514" r="2"></circle><circle cx="568" cy="509" r="2"></circle><circle cx="583" cy="503" r="2"></circle><circle cx="597" cy="501" r="2"></circle><circle cx="612" cy="509" r="2"></circle><circle cx="626" cy="442" r="2"></circle><circle cx="641" cy="444" r="2"></circle><circle cx="655" cy="420" r="2"></circle><circle cx="670" cy="413" r="2"></circle><circle cx="684" cy="433" r="2"></circle><circle cx="699" cy="446" r="2"></circle></g></g><g class="key-Afghanistan_2"><path stroke="#ca2628" stroke-linecap="round" d="M61 535L148 535L264 535L278 529L293 530L307 528L322 527L336 524L365 533L380 535L394 533L409 533L423 533L438 533L452 535L467 532L481 517L496 524L510 519L525 509L539 477L554 462L568 451L583 434L597 427L612 412L626 240L641 261L655 211L670 92L684 124L699 153" fill="none" stroke-width="1.5"></path><g fill="#ca2628"><circle cx="61" cy="535" r="2"></circle><circle cx="148" cy="535" r="2"></circle><circle cx="264" cy="535" r="2"></circle><circle cx="278" cy="529" r="2"></circle><circle cx="293" cy="530" r="2"></circle><circle cx="307" cy="528" r="2"></circle><circle cx="322" cy="527" r="2"></circle><circle cx="336" cy="524" r="2"></circle><circle cx="365" cy="533" r="2"></circle><circle cx="380" cy="535" r="2"></circle><circle cx="394" cy="533" r="2"></circle><circle cx="409" cy="533" r="2"></circle><circle cx="423" cy="533" r="2"></circle><circle cx="438" cy="533" r="2"></circle><circle cx="452" cy="535" r="2"></circle><circle cx="467" cy="532" r="2"></circle><circle cx="481" cy="517" r="2"></circle><circle cx="496" cy="524" r="2"></circle><circle cx="510" cy="519" r="2"></circle><circle cx="525" cy="509" r="2"></circle><circle cx="539" cy="477" r="2"></circle><circle cx="554" cy="462" r="2"></circle><circle cx="568" cy="451" r="2"></circle><circle cx="583" cy="434" r="2"></circle><circle cx="597" cy="427" r="2"></circle><circle cx="612" cy="412" r="2"></circle><circle cx="626" cy="240" r="2"></circle><circle cx="641" cy="261" r="2"></circle><circle cx="655" cy="211" r="2"></circle><circle cx="670" cy="92" r="2"></circle><circle cx="684" cy="124" r="2"></circle><circle cx="699" cy="153" r="2"></circle></g></g></g></g></g><g class="SourcesFooter" style="fill:#777"><g class="clickable" style="fill:#777"><text font-size="12.60" x="15.0" y="581.6"><tspan x="15" y="581.58">Source: Global Terrorism Database (2018)</tspan></text></g><text font-size="12.60" x="592.3" y="581.6"><tspan x="592.3240000000001" y="581.58"><a target='_blank' style='fill: #777;' href='https://ourworldindata.org/terrorism/'>OurWorldInData.org/terrorism/</a> • <a style="fill: #777;" class="cclogo" href="http://creativecommons.org/licenses/by-sa/4.0/deed.en_US" target="_blank">CC BY-SA</a></tspan></text></g></g></svg>