<svg xmlns="http://www.w3.org/2000/svg" version="1.1" style="font-family: 'Helvetica Neue', Helvetica, Arial, sans-serif; font-size: 18px; background-color: white; text-rendering: optimizeLegibility; -webkit-font-smoothing: antialiased;" width="850" height="600"><g class="ChartTab"><g class="HeaderView"><g opacity="0.8" transform="translate(770, 15) scale(0.31)"><a xmlns:xlink="http://www.w3.org/1999/xlink" xlink:href="https://ourworldindata.org" target="_blank"><g><rect x="0" y="0" fill="#1B2543" width="211.2" height="130.1"/><rect x="0" y="112.2" fill="#E63912" width="211.2" height="17.9"/><g><rect x="1.2" y="12.3" fill="none" width="210.2" height="99.2"/><path fill="#FFFFFF" d="M37.8,32.2c0,12.7-7.7,19.4-17.1,19.4c-9.7,0-16.6-7.5-16.6-18.7c0-11.7,7.3-19.3,17.1-19.3 C31.3,13.7,37.8,21.3,37.8,32.2z M9.2,32.8c0,7.9,4.3,14.9,11.8,14.9c7.5,0,11.8-6.9,11.8-15.3c0-7.3-3.8-14.9-11.8-14.9 C13.1,17.5,9.2,24.8,9.2,32.8z"/><path fill="#FFFFFF" d="M62.7,43.8c0,2.7,0.1,5.1,0.2,7.2h-4.3l-0.3-4.3h-0.1c-1.3,2.1-4,4.9-8.8,4.9c-4.2,0-9.1-2.3-9.1-11.6 V24.6h4.8v14.6c0,5,1.5,8.4,5.9,8.4c3.2,0,5.5-2.2,6.3-4.4c0.3-0.7,0.4-1.6,0.4-2.5V24.6h4.8V43.8z"/><path fill="#FFFFFF" d="M67.3,32.8c0-3.1-0.1-5.8-0.2-8.2h4.2l0.2,5.2h0.2c1.2-3.5,4.1-5.8,7.3-5.8c0.5,0,0.9,0.1,1.4,0.2v4.5 c-0.5-0.1-1-0.2-1.6-0.2c-3.4,0-5.8,2.6-6.5,6.2c-0.1,0.7-0.2,1.4-0.2,2.2V51h-4.8V32.8z"/><path fill="#FFFFFF" d="M95.4,51l-9.4-36.8h5l4.4,18.6c1.1,4.6,2.1,9.2,2.7,12.7h0.1c0.6-3.7,1.8-8,3-12.8l4.9-18.5h5l4.5,18.7 c1,4.4,2,8.7,2.6,12.6h0.1c0.8-4,1.8-8.1,3-12.7l4.9-18.5h4.9L120.6,51h-5L111,31.9c-1.1-4.7-1.9-8.3-2.4-12h-0.1 c-0.7,3.7-1.5,7.3-2.8,12L100.4,51H95.4z"/><path fill="#FFFFFF" d="M154.9,37.6c0,9.8-6.8,14-13.2,14c-7.2,0-12.7-5.2-12.7-13.6c0-8.8,5.8-14,13.1-14 C149.8,24,154.9,29.5,154.9,37.6z M133.9,37.9c0,5.8,3.3,10.1,8,10.1c4.6,0,8-4.3,8-10.3c0-4.5-2.2-10.1-7.9-10.1 C136.3,27.6,133.9,32.8,133.9,37.9z"/><path fill="#FFFFFF" d="M158.2,32.8c0-3.1-0.1-5.8-0.2-8.2h4.2l0.2,5.2h0.2c1.2-3.5,4.1-5.8,7.3-5.8c0.5,0,0.9,0.1,1.4,0.2v4.5 c-0.5-0.1-1-0.2-1.6-0.2c-3.4,0-5.8,2.6-6.5,6.2c-0.1,0.7-0.2,1.4-0.2,2.2V51h-4.8V32.8z"/><path fill="#FFFFFF" d="M173.5,12.3h4.8V51h-4.8V12.3z"/><path fill="#FFFFFF" d="M206.5,12.3v31.9c0,2.3,0.1,5,0.2,6.8h-4.3l-0.2-4.6H202c-1.5,2.9-4.7,5.2-9,5.2 c-6.4,0-11.3-5.4-11.3-13.4c-0.1-8.8,5.4-14.2,11.9-14.2c4,0,6.8,1.9,8,4h0.1V12.3H206.5z M201.7,35.4c0-0.6-0.1-1.4-0.2-2 c-0.7-3.1-3.3-5.6-6.9-5.6c-5,0-7.9,4.4-7.9,10.2c0,5.3,2.6,9.8,7.8,9.8c3.2,0,6.2-2.1,7.1-5.7c0.2-0.7,0.2-1.3,0.2-2.1V35.4z"/><path fill="#FFFFFF" d="M42.8,64c0.1,1.6-1.1,2.9-3.1,2.9c-1.7,0-2.9-1.3-2.9-2.9c0-1.7,1.3-3,3-3C41.7,61,42.8,62.3,42.8,64z M37.4,97.8V71.4h4.8v26.4H37.4z"/><path fill="#FFFFFF" d="M47.5,78.6c0-2.7-0.1-5-0.2-7.1h4.3l0.3,4.4h0.1c1.3-2.5,4.4-5,8.8-5c3.7,0,9.4,2.2,9.4,11.2v15.8h-4.8 V82.6c0-4.3-1.6-7.8-6.1-7.8c-3.2,0-5.6,2.2-6.5,4.9c-0.2,0.6-0.3,1.4-0.3,2.2v15.9h-4.8V78.6z"/><path fill="#FFFFFF" d="M84,61.6c2.9-0.4,6.3-0.8,10.1-0.8c6.8,0,11.7,1.6,14.9,4.6c3.3,3,5.2,7.3,5.2,13.2c0,6-1.9,10.9-5.3,14.3 c-3.4,3.4-9.1,5.3-16.3,5.3c-3.4,0-6.2-0.2-8.6-0.4V61.6z M88.8,94.1c1.2,0.2,3,0.3,4.8,0.3c10.2,0,15.7-5.7,15.7-15.6 c0.1-8.7-4.9-14.2-14.9-14.2c-2.5,0-4.3,0.2-5.6,0.5V94.1z"/><path fill="#FFFFFF" d="M132.1,97.8l-0.4-3.3h-0.2c-1.5,2.1-4.3,3.9-8.1,3.9c-5.4,0-8.1-3.8-8.1-7.6c0-6.4,5.7-9.9,15.9-9.8v-0.5 c0-2.2-0.6-6.1-6-6.1c-2.5,0-5,0.8-6.9,2l-1.1-3.2c2.2-1.4,5.4-2.3,8.7-2.3c8.1,0,10.1,5.5,10.1,10.8v9.9c0,2.3,0.1,4.5,0.4,6.3 H132.1z M131.4,84.4c-5.3-0.1-11.2,0.8-11.2,5.9c0,3.1,2.1,4.6,4.5,4.6c3.4,0,5.6-2.2,6.4-4.4c0.2-0.5,0.3-1,0.3-1.5V84.4z"/><path fill="#FFFFFF" d="M146.6,63.9v7.6h6.9v3.7h-6.9v14.2c0,3.3,0.9,5.1,3.6,5.1c1.3,0,2.2-0.2,2.8-0.3l0.2,3.6 c-0.9,0.4-2.4,0.7-4.3,0.7c-2.2,0-4-0.7-5.2-2c-1.4-1.4-1.9-3.8-1.9-6.9V75.1h-4.1v-3.7h4.1v-6.3L146.6,63.9z"/><path fill="#FFFFFF" d="M171.4,97.8l-0.4-3.3h-0.2c-1.5,2.1-4.3,3.9-8.1,3.9c-5.4,0-8.1-3.8-8.1-7.6c0-6.4,5.7-9.9,15.9-9.8v-0.5 c0-2.2-0.6-6.1-6-6.1c-2.5,0-5,0.8-6.9,2l-1.1-3.2c2.2-1.4,5.4-2.3,8.7-2.3c8.1,0,10.1,5.5,10.1,10.8v9.9c0,2.3,0.1,4.5,0.4,6.3 H171.4z M170.7,84.4c-5.3-0.1-11.2,0.8-11.2,5.9c0,3.1,2.1,4.6,4.5,4.6c3.4,0,5.6-2.2,6.4-4.4c0.2-0.5,0.3-1,0.3-1.5V84.4z"/></g></g></a></g><a href="https://ourworldindata.org/grapher/incidence-of-terrorism?country=AFG" target="_blank"><text font-size="26.10" x="15.0" y="35.9" fill="#555"><tspan x="15" y="35.879999999999995">Incidence, fatality and injury from terrorist attacks, Afghanistan</tspan></text></a><text font-size="14.40" x="15.0" y="54.6" fill="#666"><tspan x="15" y="54.61999999999999">The total number of recorded terrorist incidents, fatalities and non-fatal injuries by country or region. This includes</tspan><tspan x="15" y="70.46">fatalities or non-fatal injuries of both victims and perpetrators. </tspan></text></g><g class="LineChart"><defs><clipPath id="boundsClip-134"><rect x="50.824" y="0" width="830" height="870.4"></rect></clipPath></defs><g class="AxisBoxView"><g class="HorizontalAxis"><text x="60.8" y="528.2" fill="#666" text-anchor="middle" font-size="16.2">1970</text><text x="197" y="528.2" fill="#666" text-anchor="middle" font-size="16.2">1980</text><text x="333.3" y="528.2" fill="#666" text-anchor="middle" font-size="16.2">1990</text><text x="469.5" y="528.2" fill="#666" text-anchor="middle" font-size="16.2">2000</text><text x="605.7" y="528.2" fill="#666" text-anchor="middle" font-size="16.2">2010</text><text x="687.5" y="528.2" fill="#666" text-anchor="middle" font-size="16.2">2016</text></g><g class="VerticalAxis"><text x="55.82" y="507" fill="#666" dominant-baseline="middle" text-anchor="end" font-size="16.2">0</text><text x="55.82" y="447.7" fill="#666" dominant-baseline="middle" text-anchor="end" font-size="16.2">1,000</text><text x="55.82" y="388.5" fill="#666" dominant-baseline="middle" text-anchor="end" font-size="16.2">2,000</text><text x="55.82" y="329.2" fill="#666" dominant-baseline="middle" text-anchor="end" font-size="16.2">3,000</text><text x="55.82" y="270" fill="#666" dominant-baseline="middle" text-anchor="end" font-size="16.2">4,000</text><text x="55.82" y="210.7" fill="#666" dominant-baseline="middle" text-anchor="end" font-size="16.2">5,000</text><text x="55.82" y="151.5" fill="#666" dominant-baseline="middle" text-anchor="end" font-size="16.2">6,000</text></g><g class="AxisGridLines"><line x1="60.82" y1="507" x2="687.46" y2="507" stroke="#ccc"></line><line x1="60.82" y1="447.7" x2="687.46" y2="447.7" stroke="#ddd" stroke-dasharray="3,2"></line><line x1="60.82" y1="388.5" x2="687.46" y2="388.5" stroke="#ddd" stroke-dasharray="3,2"></line><line x1="60.82" y1="329.2" x2="687.46" y2="329.2" stroke="#ddd" stroke-dasharray="3,2"></line><line x1="60.82" y1="270" x2="687.46" y2="270" stroke="#ddd" stroke-dasharray="3,2"></line><line x1="60.82" y1="210.7" x2="687.46" y2="210.7" stroke="#ddd" stroke-dasharray="3,2"></line><line x1="60.82" y1="151.5" x2="687.46" y2="151.5" stroke="#ddd" stroke-dasharray="3,2"></line></g><g class="AxisGridLines"><line x1="60.8" y1="507.00" x2="60.8" y2="93.00" stroke="#ddd" stroke-dasharray="3,2"></line><line x1="197" y1="507.00" x2="197" y2="93.00" stroke="#ddd" stroke-dasharray="3,2"></line><line x1="333.3" y1="507.00" x2="333.3" y2="93.00" stroke="#ddd" stroke-dasharray="3,2"></line><line x1="469.5" y1="507.00" x2="469.5" y2="93.00" stroke="#ddd" stroke-dasharray="3,2"></line><line x1="605.7" y1="507.00" x2="605.7" y2="93.00" stroke="#ddd" stroke-dasharray="3,2"></line></g></g><g clip-path="url(#boundsClip-134)"><g class="HeightedLegend clickable"><g class="legendMark"><rect x="697.456" y="115.5" width="126.168" height="14.4" fill="#fff" opacity="0"></rect><rect x="697.456" y="121.45" width="10" height="2.5" fill="#34983f"></rect><text font-size="14.40" x="712.5" y="127.0" fill="#333"><tspan x="712.456" y="127.02000000000001">Terrorism injuries</tspan></text></g><g class="legendMark"><rect x="697.456" y="137.20000000000002" width="133.512" height="14.4" fill="#fff" opacity="0"></rect><rect x="697.456" y="143.15" width="10" height="2.5" fill="#ca2628"></rect><text font-size="14.40" x="712.5" y="148.7" fill="#333"><tspan x="712.456" y="148.72000000000003">Terrorism fatalities</tspan></text></g><g class="legendMark"><rect x="697.456" y="404.1" width="137.544" height="14.4" fill="#fff" opacity="0"></rect><rect x="697.456" y="410.05" width="10" height="2.5" fill="#3360a9"></rect><text font-size="14.40" x="712.5" y="415.6" fill="#333"><tspan x="712.456" y="415.62">Terrorism incidents</tspan></text></g></g><g class="Lines"><rect x="61" y="93" width="627" height="414" fill="rgba(255,255,255,0)" opacity="0"></rect><g class="key-Afghanistan_0"><path stroke="#3360a9" stroke-linecap="round" d="M61 507L74 507L88 507L102 507L115 507L129 507L143 507L156 507L170 507L183 507L197 507L211 507L224 507L238 507L252 507L265 507L279 507L292 507L306 506L320 506L333 507L347 505L361 505L388 507L401 507L415 507L429 507L442 507L456 507L470 506L483 506L497 505L510 501L524 502L538 498L551 490L565 487L579 482L592 477L606 475L619 482L633 420L647 422L660 399L674 393L688 411" fill="none" stroke-width="1.5"></path><g fill="#3360a9"><circle cx="61" cy="507" r="2"></circle><circle cx="74" cy="507" r="2"></circle><circle cx="88" cy="507" r="2"></circle><circle cx="102" cy="507" r="2"></circle><circle cx="115" cy="507" r="2"></circle><circle cx="129" cy="507" r="2"></circle><circle cx="143" cy="507" r="2"></circle><circle cx="156" cy="507" r="2"></circle><circle cx="170" cy="507" r="2"></circle><circle cx="183" cy="507" r="2"></circle><circle cx="197" cy="507" r="2"></circle><circle cx="211" cy="507" r="2"></circle><circle cx="224" cy="507" r="2"></circle><circle cx="238" cy="507" r="2"></circle><circle cx="252" cy="507" r="2"></circle><circle cx="265" cy="507" r="2"></circle><circle cx="279" cy="507" r="2"></circle><circle cx="292" cy="507" r="2"></circle><circle cx="306" cy="506" r="2"></circle><circle cx="320" cy="506" r="2"></circle><circle cx="333" cy="507" r="2"></circle><circle cx="347" cy="505" r="2"></circle><circle cx="361" cy="505" r="2"></circle><circle cx="388" cy="507" r="2"></circle><circle cx="401" cy="507" r="2"></circle><circle cx="415" cy="507" r="2"></circle><circle cx="429" cy="507" r="2"></circle><circle cx="442" cy="507" r="2"></circle><circle cx="456" cy="507" r="2"></circle><circle cx="470" cy="506" r="2"></circle><circle cx="483" cy="506" r="2"></circle><circle cx="497" cy="505" r="2"></circle><circle cx="510" cy="501" r="2"></circle><circle cx="524" cy="502" r="2"></circle><circle cx="538" cy="498" r="2"></circle><circle cx="551" cy="490" r="2"></circle><circle cx="565" cy="487" r="2"></circle><circle cx="579" cy="482" r="2"></circle><circle cx="592" cy="477" r="2"></circle><circle cx="606" cy="475" r="2"></circle><circle cx="619" cy="482" r="2"></circle><circle cx="633" cy="420" r="2"></circle><circle cx="647" cy="422" r="2"></circle><circle cx="660" cy="399" r="2"></circle><circle cx="674" cy="393" r="2"></circle><circle cx="688" cy="411" r="2"></circle></g></g><g class="key-Afghanistan_1"><path stroke="#34983f" stroke-linecap="round" d="M61 507L74 507L88 507L102 507L115 507L129 507L143 507L156 507L170 507L183 507L197 507L211 507L224 507L238 507L252 507L265 507L279 507L292 507L306 501L320 502L333 500L347 500L361 496L388 505L401 506L415 505L429 505L442 505L456 505L470 506L483 504L497 489L510 496L524 491L538 483L551 452L565 439L579 428L592 413L606 407L619 392L633 231L647 251L660 204L674 93L688 123" fill="none" stroke-width="1.5"></path><g fill="#34983f"><circle cx="61" cy="507" r="2"></circle><circle cx="74" cy="507" r="2"></circle><circle cx="88" cy="507" r="2"></circle><circle cx="102" cy="507" r="2"></circle><circle cx="115" cy="507" r="2"></circle><circle cx="129" cy="507" r="2"></circle><circle cx="143" cy="507" r="2"></circle><circle cx="156" cy="507" r="2"></circle><circle cx="170" cy="507" r="2"></circle><circle cx="183" cy="507" r="2"></circle><circle cx="197" cy="507" r="2"></circle><circle cx="211" cy="507" r="2"></circle><circle cx="224" cy="507" r="2"></circle><circle cx="238" cy="507" r="2"></circle><circle cx="252" cy="507" r="2"></circle><circle cx="265" cy="507" r="2"></circle><circle cx="279" cy="507" r="2"></circle><circle cx="292" cy="507" r="2"></circle><circle cx="306" cy="501" r="2"></circle><circle cx="320" cy="502" r="2"></circle><circle cx="333" cy="500" r="2"></circle><circle cx="347" cy="500" r="2"></circle><circle cx="361" cy="496" r="2"></circle><circle cx="388" cy="505" r="2"></circle><circle cx="401" cy="506" r="2"></circle><circle cx="415" cy="505" r="2"></circle><circle cx="429" cy="505" r="2"></circle><circle cx="442" cy="505" r="2"></circle><circle cx="456" cy="505" r="2"></circle><circle cx="470" cy="506" r="2"></circle><circle cx="483" cy="504" r="2"></circle><circle cx="497" cy="489" r="2"></circle><circle cx="510" cy="496" r="2"></circle><circle cx="524" cy="491" r="2"></circle><circle cx="538" cy="483" r="2"></circle><circle cx="551" cy="452" r="2"></circle><circle cx="565" cy="439" r="2"></circle><circle cx="579" cy="428" r="2"></circle><circle cx="592" cy="413" r="2"></circle><circle cx="606" cy="407" r="2"></circle><circle cx="619" cy="392" r="2"></circle><circle cx="633" cy="231" r="2"></circle><circle cx="647" cy="251" r="2"></circle><circle cx="660" cy="204" r="2"></circle><circle cx="674" cy="93" r="2"></circle><circle cx="688" cy="123" r="2"></circle></g></g><g class="key-Afghanistan_2"><path stroke="#ca2628" stroke-linecap="round" d="M61 507L74 507L88 507L102 507L115 507L129 507L143 507L156 507L170 507L183 504L197 507L211 507L224 507L238 507L252 507L265 507L279 507L292 507L306 499L320 506L333 506L347 503L361 504L388 506L401 507L415 505L429 507L442 507L456 505L470 505L483 497L497 503L510 497L524 491L538 485L551 464L565 436L579 443L592 444L606 444L619 417L633 298L647 288L660 186L674 139L688 144" fill="none" stroke-width="1.5"></path><g fill="#ca2628"><circle cx="61" cy="507" r="2"></circle><circle cx="74" cy="507" r="2"></circle><circle cx="88" cy="507" r="2"></circle><circle cx="102" cy="507" r="2"></circle><circle cx="115" cy="507" r="2"></circle><circle cx="129" cy="507" r="2"></circle><circle cx="143" cy="507" r="2"></circle><circle cx="156" cy="507" r="2"></circle><circle cx="170" cy="507" r="2"></circle><circle cx="183" cy="504" r="2"></circle><circle cx="197" cy="507" r="2"></circle><circle cx="211" cy="507" r="2"></circle><circle cx="224" cy="507" r="2"></circle><circle cx="238" cy="507" r="2"></circle><circle cx="252" cy="507" r="2"></circle><circle cx="265" cy="507" r="2"></circle><circle cx="279" cy="507" r="2"></circle><circle cx="292" cy="507" r="2"></circle><circle cx="306" cy="499" r="2"></circle><circle cx="320" cy="506" r="2"></circle><circle cx="333" cy="506" r="2"></circle><circle cx="347" cy="503" r="2"></circle><circle cx="361" cy="504" r="2"></circle><circle cx="388" cy="506" r="2"></circle><circle cx="401" cy="507" r="2"></circle><circle cx="415" cy="505" r="2"></circle><circle cx="429" cy="507" r="2"></circle><circle cx="442" cy="507" r="2"></circle><circle cx="456" cy="505" r="2"></circle><circle cx="470" cy="505" r="2"></circle><circle cx="483" cy="497" r="2"></circle><circle cx="497" cy="503" r="2"></circle><circle cx="510" cy="497" r="2"></circle><circle cx="524" cy="491" r="2"></circle><circle cx="538" cy="485" r="2"></circle><circle cx="551" cy="464" r="2"></circle><circle cx="565" cy="436" r="2"></circle><circle cx="579" cy="443" r="2"></circle><circle cx="592" cy="444" r="2"></circle><circle cx="606" cy="444" r="2"></circle><circle cx="619" cy="417" r="2"></circle><circle cx="633" cy="298" r="2"></circle><circle cx="647" cy="288" r="2"></circle><circle cx="660" cy="186" r="2"></circle><circle cx="674" cy="139" r="2"></circle><circle cx="688" cy="144" r="2"></circle></g></g></g></g></g><g style="fill: #777;" class="SourcesFooter"><g style="fill: #777;" class="clickable"><text font-size="12.60" x="15.0" y="553.3"><tspan x="15" y="553.2800000000001">Source: Terrorism incidents - Global Terrorism Database, Terrorism injuries - Global Terrorism Database, Terrorism Fatalities- Global Terrorism</tspan><tspan x="15" y="567.1400000000001">Database</tspan></text></g><text font-size="12.60" x="15.0" y="582.5"><tspan x="15" y="582.48"><a target='_blank' style='fill: #777;' href='https://ourworldindata.org/terrorism/'>OurWorldInData.org/terrorism/</a> • <a style="fill: #777;" href="http://creativecommons.org/licenses/by-sa/4.0/deed.en_US" target="_blank">CC BY-SA</a></tspan></text></g></g></svg>