<svg xmlns="http://www.w3.org/2000/svg" version="1.1" style="font-family: 'Helvetica Neue', Helvetica, Arial, sans-serif; font-size: 18px; background-color: white; text-rendering: optimizeLegibility; -webkit-font-smoothing: antialiased;" width="850" height="600"><g class="ChartTab"><g class="HeaderView"><g opacity="0.8" transform="translate(770, 15) scale(0.31)"><a xmlns:xlink="http://www.w3.org/1999/xlink" xlink:href="https://ourworldindata.org" target="_blank"><g><rect x="0" y="0" fill="#1B2543" width="211.2" height="130.1"/><rect x="0" y="112.2" fill="#E63912" width="211.2" height="17.9"/><g><rect x="1.2" y="12.3" fill="none" width="210.2" height="99.2"/><path fill="#FFFFFF" d="M37.8,32.2c0,12.7-7.7,19.4-17.1,19.4c-9.7,0-16.6-7.5-16.6-18.7c0-11.7,7.3-19.3,17.1-19.3 C31.3,13.7,37.8,21.3,37.8,32.2z M9.2,32.8c0,7.9,4.3,14.9,11.8,14.9c7.5,0,11.8-6.9,11.8-15.3c0-7.3-3.8-14.9-11.8-14.9 C13.1,17.5,9.2,24.8,9.2,32.8z"/><path fill="#FFFFFF" d="M62.7,43.8c0,2.7,0.1,5.1,0.2,7.2h-4.3l-0.3-4.3h-0.1c-1.3,2.1-4,4.9-8.8,4.9c-4.2,0-9.1-2.3-9.1-11.6 V24.6h4.8v14.6c0,5,1.5,8.4,5.9,8.4c3.2,0,5.5-2.2,6.3-4.4c0.3-0.7,0.4-1.6,0.4-2.5V24.6h4.8V43.8z"/><path fill="#FFFFFF" d="M67.3,32.8c0-3.1-0.1-5.8-0.2-8.2h4.2l0.2,5.2h0.2c1.2-3.5,4.1-5.8,7.3-5.8c0.5,0,0.9,0.1,1.4,0.2v4.5 c-0.5-0.1-1-0.2-1.6-0.2c-3.4,0-5.8,2.6-6.5,6.2c-0.1,0.7-0.2,1.4-0.2,2.2V51h-4.8V32.8z"/><path fill="#FFFFFF" d="M95.4,51l-9.4-36.8h5l4.4,18.6c1.1,4.6,2.1,9.2,2.7,12.7h0.1c0.6-3.7,1.8-8,3-12.8l4.9-18.5h5l4.5,18.7 c1,4.4,2,8.7,2.6,12.6h0.1c0.8-4,1.8-8.1,3-12.7l4.9-18.5h4.9L120.6,51h-5L111,31.9c-1.1-4.7-1.9-8.3-2.4-12h-0.1 c-0.7,3.7-1.5,7.3-2.8,12L100.4,51H95.4z"/><path fill="#FFFFFF" d="M154.9,37.6c0,9.8-6.8,14-13.2,14c-7.2,0-12.7-5.2-12.7-13.6c0-8.8,5.8-14,13.1-14 C149.8,24,154.9,29.5,154.9,37.6z M133.9,37.9c0,5.8,3.3,10.1,8,10.1c4.6,0,8-4.3,8-10.3c0-4.5-2.2-10.1-7.9-10.1 C136.3,27.6,133.9,32.8,133.9,37.9z"/><path fill="#FFFFFF" d="M158.2,32.8c0-3.1-0.1-5.8-0.2-8.2h4.2l0.2,5.2h0.2c1.2-3.5,4.1-5.8,7.3-5.8c0.5,0,0.9,0.1,1.4,0.2v4.5 c-0.5-0.1-1-0.2-1.6-0.2c-3.4,0-5.8,2.6-6.5,6.2c-0.1,0.7-0.2,1.4-0.2,2.2V51h-4.8V32.8z"/><path fill="#FFFFFF" d="M173.5,12.3h4.8V51h-4.8V12.3z"/><path fill="#FFFFFF" d="M206.5,12.3v31.9c0,2.3,0.1,5,0.2,6.8h-4.3l-0.2-4.6H202c-1.5,2.9-4.7,5.2-9,5.2 c-6.4,0-11.3-5.4-11.3-13.4c-0.1-8.8,5.4-14.2,11.9-14.2c4,0,6.8,1.9,8,4h0.1V12.3H206.5z M201.7,35.4c0-0.6-0.1-1.4-0.2-2 c-0.7-3.1-3.3-5.6-6.9-5.6c-5,0-7.9,4.4-7.9,10.2c0,5.3,2.6,9.8,7.8,9.8c3.2,0,6.2-2.1,7.1-5.7c0.2-0.7,0.2-1.3,0.2-2.1V35.4z"/><path fill="#FFFFFF" d="M42.8,64c0.1,1.6-1.1,2.9-3.1,2.9c-1.7,0-2.9-1.3-2.9-2.9c0-1.7,1.3-3,3-3C41.7,61,42.8,62.3,42.8,64z M37.4,97.8V71.4h4.8v26.4H37.4z"/><path fill="#FFFFFF" d="M47.5,78.6c0-2.7-0.1-5-0.2-7.1h4.3l0.3,4.4h0.1c1.3-2.5,4.4-5,8.8-5c3.7,0,9.4,2.2,9.4,11.2v15.8h-4.8 V82.6c0-4.3-1.6-7.8-6.1-7.8c-3.2,0-5.6,2.2-6.5,4.9c-0.2,0.6-0.3,1.4-0.3,2.2v15.9h-4.8V78.6z"/><path fill="#FFFFFF" d="M84,61.6c2.9-0.4,6.3-0.8,10.1-0.8c6.8,0,11.7,1.6,14.9,4.6c3.3,3,5.2,7.3,5.2,13.2c0,6-1.9,10.9-5.3,14.3 c-3.4,3.4-9.1,5.3-16.3,5.3c-3.4,0-6.2-0.2-8.6-0.4V61.6z M88.8,94.1c1.2,0.2,3,0.3,4.8,0.3c10.2,0,15.7-5.7,15.7-15.6 c0.1-8.7-4.9-14.2-14.9-14.2c-2.5,0-4.3,0.2-5.6,0.5V94.1z"/><path fill="#FFFFFF" d="M132.1,97.8l-0.4-3.3h-0.2c-1.5,2.1-4.3,3.9-8.1,3.9c-5.4,0-8.1-3.8-8.1-7.6c0-6.4,5.7-9.9,15.9-9.8v-0.5 c0-2.2-0.6-6.1-6-6.1c-2.5,0-5,0.8-6.9,2l-1.1-3.2c2.2-1.4,5.4-2.3,8.7-2.3c8.1,0,10.1,5.5,10.1,10.8v9.9c0,2.3,0.1,4.5,0.4,6.3 H132.1z M131.4,84.4c-5.3-0.1-11.2,0.8-11.2,5.9c0,3.1,2.1,4.6,4.5,4.6c3.4,0,5.6-2.2,6.4-4.4c0.2-0.5,0.3-1,0.3-1.5V84.4z"/><path fill="#FFFFFF" d="M146.6,63.9v7.6h6.9v3.7h-6.9v14.2c0,3.3,0.9,5.1,3.6,5.1c1.3,0,2.2-0.2,2.8-0.3l0.2,3.6 c-0.9,0.4-2.4,0.7-4.3,0.7c-2.2,0-4-0.7-5.2-2c-1.4-1.4-1.9-3.8-1.9-6.9V75.1h-4.1v-3.7h4.1v-6.3L146.6,63.9z"/><path fill="#FFFFFF" d="M171.4,97.8l-0.4-3.3h-0.2c-1.5,2.1-4.3,3.9-8.1,3.9c-5.4,0-8.1-3.8-8.1-7.6c0-6.4,5.7-9.9,15.9-9.8v-0.5 c0-2.2-0.6-6.1-6-6.1c-2.5,0-5,0.8-6.9,2l-1.1-3.2c2.2-1.4,5.4-2.3,8.7-2.3c8.1,0,10.1,5.5,10.1,10.8v9.9c0,2.3,0.1,4.5,0.4,6.3 H171.4z M170.7,84.4c-5.3-0.1-11.2,0.8-11.2,5.9c0,3.1,2.1,4.6,4.5,4.6c3.4,0,5.6-2.2,6.4-4.4c0.2-0.5,0.3-1,0.3-1.5V84.4z"/></g></g></a></g><a href="https://ourworldindata.org/grapher/index-of-cereal-production-yield-and-land-use-1961-2014?country=IND" target="_blank"><text font-size="26.10" x="15.0" y="35.9" fill="#555"><tspan x="15" y="35.879999999999995">Index of cereal production, yield and land use, 1961-2014, India</tspan></text></a><text font-size="14.40" x="15.0" y="54.6" fill="#666"><tspan x="15" y="54.61999999999999">The index of total cereal production (measured in metric tonnes), cereal yield (kilograms per hectare), and land used</tspan><tspan x="15" y="70.46">for cereal production (hectares). The index is calculated as the production, yield and land use in any given year</tspan><tspan x="15" y="86.3">divided by that in the year 1961 (i.e. 1961 = 100). The index of total population (all ages and genders) relative to</tspan><tspan x="15" y="102.13999999999999">1961 is also shown. Trends for individual countries can be viewed using the &quot;change country&quot; wheel.</tspan></text></g><g class="LineChart"><defs><clipPath id="boundsClip-601"><rect x="37.216" y="0" width="830" height="865"></rect></clipPath></defs><g class="AxisBoxView"><g class="HorizontalAxis"><text x="47.2" y="556.5" fill="#666" text-anchor="middle" font-size="16.2">1961</text><text x="138.2" y="556.5" fill="#666" text-anchor="middle" font-size="16.2">1970</text><text x="239.4" y="556.5" fill="#666" text-anchor="middle" font-size="16.2">1980</text><text x="340.5" y="556.5" fill="#666" text-anchor="middle" font-size="16.2">1990</text><text x="441.6" y="556.5" fill="#666" text-anchor="middle" font-size="16.2">2000</text><text x="583.2" y="556.5" fill="#666" text-anchor="middle" font-size="16.2">2014</text></g><g class="VerticalAxis"><text x="42.22" y="535.3" fill="#666" dominant-baseline="middle" text-anchor="end" font-size="16.2">0</text><text x="42.22" y="474.5" fill="#666" dominant-baseline="middle" text-anchor="end" font-size="16.2">50</text><text x="42.22" y="413.6" fill="#666" dominant-baseline="middle" text-anchor="end" font-size="16.2">100</text><text x="42.22" y="352.8" fill="#666" dominant-baseline="middle" text-anchor="end" font-size="16.2">150</text><text x="42.22" y="291.9" fill="#666" dominant-baseline="middle" text-anchor="end" font-size="16.2">200</text><text x="42.22" y="231.1" fill="#666" dominant-baseline="middle" text-anchor="end" font-size="16.2">250</text><text x="42.22" y="170.2" fill="#666" dominant-baseline="middle" text-anchor="end" font-size="16.2">300</text></g><g class="AxisGridLines"><line x1="47.22" y1="535.3" x2="583.20" y2="535.3" stroke="#ccc"></line><line x1="47.22" y1="474.5" x2="583.20" y2="474.5" stroke="#ddd" stroke-dasharray="3,2"></line><line x1="47.22" y1="413.6" x2="583.20" y2="413.6" stroke="#ddd" stroke-dasharray="3,2"></line><line x1="47.22" y1="352.8" x2="583.20" y2="352.8" stroke="#ddd" stroke-dasharray="3,2"></line><line x1="47.22" y1="291.9" x2="583.20" y2="291.9" stroke="#ddd" stroke-dasharray="3,2"></line><line x1="47.22" y1="231.1" x2="583.20" y2="231.1" stroke="#ddd" stroke-dasharray="3,2"></line><line x1="47.22" y1="170.2" x2="583.20" y2="170.2" stroke="#ddd" stroke-dasharray="3,2"></line></g><g class="AxisGridLines"><line x1="138.2" y1="535.30" x2="138.2" y2="124.00" stroke="#ddd" stroke-dasharray="3,2"></line><line x1="239.4" y1="535.30" x2="239.4" y2="124.00" stroke="#ddd" stroke-dasharray="3,2"></line><line x1="340.5" y1="535.30" x2="340.5" y2="124.00" stroke="#ddd" stroke-dasharray="3,2"></line><line x1="441.6" y1="535.30" x2="441.6" y2="124.00" stroke="#ddd" stroke-dasharray="3,2"></line><line x1="542.7" y1="535.30" x2="542.7" y2="124.00" stroke="#ddd" stroke-dasharray="3,2"></line></g></g><g clip-path="url(#boundsClip-601)"><g class="HeightedLegend clickable"><g class="legendMark"><rect x="593.1999999999999" y="116.8" width="167.64000000000001" height="14.4" fill="#fff" opacity="0"></rect><rect x="593.1999999999999" y="122.75" width="10" height="2.5" fill="#e6332e"></rect><text font-size="14.40" x="608.2" y="128.3" fill="#333"><tspan x="608.1999999999999" y="128.32">Cereal production index</tspan></text></g><g class="legendMark"><rect x="593.1999999999999" y="144.8" width="129.76800000000003" height="14.4" fill="#fff" opacity="0"></rect><rect x="593.1999999999999" y="150.75" width="10" height="2.5" fill="#674c98"></rect><text font-size="14.40" x="608.2" y="156.3" fill="#333"><tspan x="608.1999999999999" y="156.32000000000002">Cereal yield index</tspan></text></g><g class="legendMark"><rect x="593.1999999999999" y="184.70000000000002" width="121.99200000000002" height="14.4" fill="#fff" opacity="0"></rect><rect x="593.1999999999999" y="190.65" width="10" height="2.5" fill="#c8c8c8"></rect><text font-size="14.40" x="608.2" y="196.2" fill="#333"><tspan x="608.1999999999999" y="196.22000000000003">Population index</tspan></text></g><g class="legendMark"><rect x="593.1999999999999" y="397.90000000000003" width="241.80000000000004" height="14.4" fill="#fff" opacity="0"></rect><rect x="593.1999999999999" y="403.85" width="10" height="2.5" fill="#a85a4a"></rect><text font-size="14.40" x="608.2" y="409.4" fill="#333"><tspan x="608.1999999999999" y="409.42">Land under cereal production index</tspan></text></g></g><g class="Lines"><rect x="47" y="124" width="536" height="411" fill="rgba(255,255,255,0)" opacity="0"></rect><g class="key-India_0"><path stroke="#674c98" stroke-linecap="round" d="M47 414L57 416L67 411L78 408L88 426L98 425L108 408L118 403L128 400L138 389L148 389L159 393L169 387L179 398L189 374L199 381L209 364L219 359L229 378L239 361L250 355L260 363L270 335L280 335L290 331L300 332L310 332L320 308L330 290L341 292L351 288L361 275L371 268L381 264L391 264L401 255L411 249L421 247L432 238L442 241L452 224L462 254L472 227L482 234L492 225L502 221L512 203L523 197L533 204L543 191L553 168L563 154L573 154L583 152" fill="none" stroke-width="1.5"></path><g fill="#674c98"><circle cx="47" cy="414" r="2"></circle><circle cx="57" cy="416" r="2"></circle><circle cx="67" cy="411" r="2"></circle><circle cx="78" cy="408" r="2"></circle><circle cx="88" cy="426" r="2"></circle><circle cx="98" cy="425" r="2"></circle><circle cx="108" cy="408" r="2"></circle><circle cx="118" cy="403" r="2"></circle><circle cx="128" cy="400" r="2"></circle><circle cx="138" cy="389" r="2"></circle><circle cx="148" cy="389" r="2"></circle><circle cx="159" cy="393" r="2"></circle><circle cx="169" cy="387" r="2"></circle><circle cx="179" cy="398" r="2"></circle><circle cx="189" cy="374" r="2"></circle><circle cx="199" cy="381" r="2"></circle><circle cx="209" cy="364" r="2"></circle><circle cx="219" cy="359" r="2"></circle><circle cx="229" cy="378" r="2"></circle><circle cx="239" cy="361" r="2"></circle><circle cx="250" cy="355" r="2"></circle><circle cx="260" cy="363" r="2"></circle><circle cx="270" cy="335" r="2"></circle><circle cx="280" cy="335" r="2"></circle><circle cx="290" cy="331" r="2"></circle><circle cx="300" cy="332" r="2"></circle><circle cx="310" cy="332" r="2"></circle><circle cx="320" cy="308" r="2"></circle><circle cx="330" cy="290" r="2"></circle><circle cx="341" cy="292" r="2"></circle><circle cx="351" cy="288" r="2"></circle><circle cx="361" cy="275" r="2"></circle><circle cx="371" cy="268" r="2"></circle><circle cx="381" cy="264" r="2"></circle><circle cx="391" cy="264" r="2"></circle><circle cx="401" cy="255" r="2"></circle><circle cx="411" cy="249" r="2"></circle><circle cx="421" cy="247" r="2"></circle><circle cx="432" cy="238" r="2"></circle><circle cx="442" cy="241" r="2"></circle><circle cx="452" cy="224" r="2"></circle><circle cx="462" cy="254" r="2"></circle><circle cx="472" cy="227" r="2"></circle><circle cx="482" cy="234" r="2"></circle><circle cx="492" cy="225" r="2"></circle><circle cx="502" cy="221" r="2"></circle><circle cx="512" cy="203" r="2"></circle><circle cx="523" cy="197" r="2"></circle><circle cx="533" cy="204" r="2"></circle><circle cx="543" cy="191" r="2"></circle><circle cx="553" cy="168" r="2"></circle><circle cx="563" cy="154" r="2"></circle><circle cx="573" cy="154" r="2"></circle><circle cx="583" cy="152" r="2"></circle></g></g><g class="key-India_1"><path stroke="#c8c8c8" stroke-linecap="round" d="M47 414L57 411L67 409L78 406L88 403L98 400L108 398L118 395L128 392L138 388L148 385L159 382L169 378L179 374L189 370L199 367L209 363L219 359L229 355L239 350L250 346L260 342L270 337L280 333L290 328L300 323L310 319L320 314L330 309L341 304L351 300L361 295L371 290L381 285L391 280L401 276L411 271L421 266L432 261L442 256L452 251L462 246L472 241L482 236L492 232L502 227L512 222L523 218L533 213L543 209L553 204L563 200L573 196L583 192" fill="none" stroke-width="1.5"></path><g fill="#c8c8c8"><circle cx="47" cy="414" r="2"></circle><circle cx="57" cy="411" r="2"></circle><circle cx="67" cy="409" r="2"></circle><circle cx="78" cy="406" r="2"></circle><circle cx="88" cy="403" r="2"></circle><circle cx="98" cy="400" r="2"></circle><circle cx="108" cy="398" r="2"></circle><circle cx="118" cy="395" r="2"></circle><circle cx="128" cy="392" r="2"></circle><circle cx="138" cy="388" r="2"></circle><circle cx="148" cy="385" r="2"></circle><circle cx="159" cy="382" r="2"></circle><circle cx="169" cy="378" r="2"></circle><circle cx="179" cy="374" r="2"></circle><circle cx="189" cy="370" r="2"></circle><circle cx="199" cy="367" r="2"></circle><circle cx="209" cy="363" r="2"></circle><circle cx="219" cy="359" r="2"></circle><circle cx="229" cy="355" r="2"></circle><circle cx="239" cy="350" r="2"></circle><circle cx="250" cy="346" r="2"></circle><circle cx="260" cy="342" r="2"></circle><circle cx="270" cy="337" r="2"></circle><circle cx="280" cy="333" r="2"></circle><circle cx="290" cy="328" r="2"></circle><circle cx="300" cy="323" r="2"></circle><circle cx="310" cy="319" r="2"></circle><circle cx="320" cy="314" r="2"></circle><circle cx="330" cy="309" r="2"></circle><circle cx="341" cy="304" r="2"></circle><circle cx="351" cy="300" r="2"></circle><circle cx="361" cy="295" r="2"></circle><circle cx="371" cy="290" r="2"></circle><circle cx="381" cy="285" r="2"></circle><circle cx="391" cy="280" r="2"></circle><circle cx="401" cy="276" r="2"></circle><circle cx="411" cy="271" r="2"></circle><circle cx="421" cy="266" r="2"></circle><circle cx="432" cy="261" r="2"></circle><circle cx="442" cy="256" r="2"></circle><circle cx="452" cy="251" r="2"></circle><circle cx="462" cy="246" r="2"></circle><circle cx="472" cy="241" r="2"></circle><circle cx="482" cy="236" r="2"></circle><circle cx="492" cy="232" r="2"></circle><circle cx="502" cy="227" r="2"></circle><circle cx="512" cy="222" r="2"></circle><circle cx="523" cy="218" r="2"></circle><circle cx="533" cy="213" r="2"></circle><circle cx="543" cy="209" r="2"></circle><circle cx="553" cy="204" r="2"></circle><circle cx="563" cy="200" r="2"></circle><circle cx="573" cy="196" r="2"></circle><circle cx="583" cy="192" r="2"></circle></g></g><g class="key-India_2"><path stroke="#e6332e" stroke-linecap="round" d="M47 414L57 414L67 410L78 405L88 425L98 423L108 403L118 393L128 387L138 377L148 377L159 384L169 369L179 387L189 358L199 366L209 343L219 336L229 359L239 339L250 330L260 346L270 303L280 307L290 304L300 305L310 318L320 280L330 258L341 265L351 266L361 254L371 245L381 240L391 243L401 231L411 225L421 219L432 207L442 208L452 197L462 248L472 206L482 215L492 201L502 197L512 173L523 164L533 186L543 162L553 135L563 126L573 126L583 124" fill="none" stroke-width="1.5"></path><g fill="#e6332e"><circle cx="47" cy="414" r="2"></circle><circle cx="57" cy="414" r="2"></circle><circle cx="67" cy="410" r="2"></circle><circle cx="78" cy="405" r="2"></circle><circle cx="88" cy="425" r="2"></circle><circle cx="98" cy="423" r="2"></circle><circle cx="108" cy="403" r="2"></circle><circle cx="118" cy="393" r="2"></circle><circle cx="128" cy="387" r="2"></circle><circle cx="138" cy="377" r="2"></circle><circle cx="148" cy="377" r="2"></circle><circle cx="159" cy="384" r="2"></circle><circle cx="169" cy="369" r="2"></circle><circle cx="179" cy="387" r="2"></circle><circle cx="189" cy="358" r="2"></circle><circle cx="199" cy="366" r="2"></circle><circle cx="209" cy="343" r="2"></circle><circle cx="219" cy="336" r="2"></circle><circle cx="229" cy="359" r="2"></circle><circle cx="239" cy="339" r="2"></circle><circle cx="250" cy="330" r="2"></circle><circle cx="260" cy="346" r="2"></circle><circle cx="270" cy="303" r="2"></circle><circle cx="280" cy="307" r="2"></circle><circle cx="290" cy="304" r="2"></circle><circle cx="300" cy="305" r="2"></circle><circle cx="310" cy="318" r="2"></circle><circle cx="320" cy="280" r="2"></circle><circle cx="330" cy="258" r="2"></circle><circle cx="341" cy="265" r="2"></circle><circle cx="351" cy="266" r="2"></circle><circle cx="361" cy="254" r="2"></circle><circle cx="371" cy="245" r="2"></circle><circle cx="381" cy="240" r="2"></circle><circle cx="391" cy="243" r="2"></circle><circle cx="401" cy="231" r="2"></circle><circle cx="411" cy="225" r="2"></circle><circle cx="421" cy="219" r="2"></circle><circle cx="432" cy="207" r="2"></circle><circle cx="442" cy="208" r="2"></circle><circle cx="452" cy="197" r="2"></circle><circle cx="462" cy="248" r="2"></circle><circle cx="472" cy="206" r="2"></circle><circle cx="482" cy="215" r="2"></circle><circle cx="492" cy="201" r="2"></circle><circle cx="502" cy="197" r="2"></circle><circle cx="512" cy="173" r="2"></circle><circle cx="523" cy="164" r="2"></circle><circle cx="533" cy="186" r="2"></circle><circle cx="543" cy="162" r="2"></circle><circle cx="553" cy="135" r="2"></circle><circle cx="563" cy="126" r="2"></circle><circle cx="573" cy="126" r="2"></circle><circle cx="583" cy="124" r="2"></circle></g></g><g class="key-India_3"><path stroke="#a85a4a" stroke-linecap="round" d="M47 414L57 411L67 412L78 411L88 412L98 412L108 409L118 405L128 403L138 403L148 404L159 406L169 398L179 404L189 401L199 401L209 399L219 398L229 399L239 398L250 397L260 401L270 394L280 397L290 398L300 398L310 405L320 399L330 398L341 400L351 403L361 404L371 404L381 403L391 404L401 403L411 403L421 403L432 400L442 400L452 403L462 411L472 405L482 406L492 404L502 404L512 403L523 401L533 408L543 404L553 403L563 405L573 404L583 405" fill="none" stroke-width="1.5"></path><g fill="#a85a4a"><circle cx="47" cy="414" r="2"></circle><circle cx="57" cy="411" r="2"></circle><circle cx="67" cy="412" r="2"></circle><circle cx="78" cy="411" r="2"></circle><circle cx="88" cy="412" r="2"></circle><circle cx="98" cy="412" r="2"></circle><circle cx="108" cy="409" r="2"></circle><circle cx="118" cy="405" r="2"></circle><circle cx="128" cy="403" r="2"></circle><circle cx="138" cy="403" r="2"></circle><circle cx="148" cy="404" r="2"></circle><circle cx="159" cy="406" r="2"></circle><circle cx="169" cy="398" r="2"></circle><circle cx="179" cy="404" r="2"></circle><circle cx="189" cy="401" r="2"></circle><circle cx="199" cy="401" r="2"></circle><circle cx="209" cy="399" r="2"></circle><circle cx="219" cy="398" r="2"></circle><circle cx="229" cy="399" r="2"></circle><circle cx="239" cy="398" r="2"></circle><circle cx="250" cy="397" r="2"></circle><circle cx="260" cy="401" r="2"></circle><circle cx="270" cy="394" r="2"></circle><circle cx="280" cy="397" r="2"></circle><circle cx="290" cy="398" r="2"></circle><circle cx="300" cy="398" r="2"></circle><circle cx="310" cy="405" r="2"></circle><circle cx="320" cy="399" r="2"></circle><circle cx="330" cy="398" r="2"></circle><circle cx="341" cy="400" r="2"></circle><circle cx="351" cy="403" r="2"></circle><circle cx="361" cy="404" r="2"></circle><circle cx="371" cy="404" r="2"></circle><circle cx="381" cy="403" r="2"></circle><circle cx="391" cy="404" r="2"></circle><circle cx="401" cy="403" r="2"></circle><circle cx="411" cy="403" r="2"></circle><circle cx="421" cy="403" r="2"></circle><circle cx="432" cy="400" r="2"></circle><circle cx="442" cy="400" r="2"></circle><circle cx="452" cy="403" r="2"></circle><circle cx="462" cy="411" r="2"></circle><circle cx="472" cy="405" r="2"></circle><circle cx="482" cy="406" r="2"></circle><circle cx="492" cy="404" r="2"></circle><circle cx="502" cy="404" r="2"></circle><circle cx="512" cy="403" r="2"></circle><circle cx="523" cy="401" r="2"></circle><circle cx="533" cy="408" r="2"></circle><circle cx="543" cy="404" r="2"></circle><circle cx="553" cy="403" r="2"></circle><circle cx="563" cy="405" r="2"></circle><circle cx="573" cy="404" r="2"></circle><circle cx="583" cy="405" r="2"></circle></g></g></g></g></g><g style="fill: #777;" class="SourcesFooter"><g style="fill: #777;" class="clickable"><text font-size="12.60" x="15.0" y="581.6"><tspan x="15" y="581.58">Source: OWID based on World Bank, World Development Indicators (WDI)</tspan></text></g><text font-size="12.60" x="454.6" y="581.6"><tspan x="454.606" y="581.58"><a target='_blank' style='fill: #777;' href='https://ourworldindata.org/yields-and-land-use-in-agriculture/'>OurWorldInData.org/yields-and-land-use-in-agriculture/</a> • <a style="fill: #777;" href="http://creativecommons.org/licenses/by-sa/4.0/deed.en_US" target="_blank">CC BY-SA</a></tspan></text></g></g></svg>