<svg xmlns="http://www.w3.org/2000/svg" version="1.1" style="font-family: 'Helvetica Neue', Helvetica, Arial, sans-serif; font-size: 18px; background-color: white; text-rendering: optimizeLegibility; -webkit-font-smoothing: antialiased;" width="850" height="600"><g class="ChartTab"><g class="HeaderView"><g opacity="0.8" transform="translate(770, 15) scale(0.31)"><a xmlns:xlink="http://www.w3.org/1999/xlink" xlink:href="https://ourworldindata.org" target="_blank"><g><rect x="0" y="0" fill="#1B2543" width="211.2" height="130.1"/><rect x="0" y="112.2" fill="#E63912" width="211.2" height="17.9"/><g><rect x="1.2" y="12.3" fill="none" width="210.2" height="99.2"/><path fill="#FFFFFF" d="M37.8,32.2c0,12.7-7.7,19.4-17.1,19.4c-9.7,0-16.6-7.5-16.6-18.7c0-11.7,7.3-19.3,17.1-19.3 C31.3,13.7,37.8,21.3,37.8,32.2z M9.2,32.8c0,7.9,4.3,14.9,11.8,14.9c7.5,0,11.8-6.9,11.8-15.3c0-7.3-3.8-14.9-11.8-14.9 C13.1,17.5,9.2,24.8,9.2,32.8z"/><path fill="#FFFFFF" d="M62.7,43.8c0,2.7,0.1,5.1,0.2,7.2h-4.3l-0.3-4.3h-0.1c-1.3,2.1-4,4.9-8.8,4.9c-4.2,0-9.1-2.3-9.1-11.6 V24.6h4.8v14.6c0,5,1.5,8.4,5.9,8.4c3.2,0,5.5-2.2,6.3-4.4c0.3-0.7,0.4-1.6,0.4-2.5V24.6h4.8V43.8z"/><path fill="#FFFFFF" d="M67.3,32.8c0-3.1-0.1-5.8-0.2-8.2h4.2l0.2,5.2h0.2c1.2-3.5,4.1-5.8,7.3-5.8c0.5,0,0.9,0.1,1.4,0.2v4.5 c-0.5-0.1-1-0.2-1.6-0.2c-3.4,0-5.8,2.6-6.5,6.2c-0.1,0.7-0.2,1.4-0.2,2.2V51h-4.8V32.8z"/><path fill="#FFFFFF" d="M95.4,51l-9.4-36.8h5l4.4,18.6c1.1,4.6,2.1,9.2,2.7,12.7h0.1c0.6-3.7,1.8-8,3-12.8l4.9-18.5h5l4.5,18.7 c1,4.4,2,8.7,2.6,12.6h0.1c0.8-4,1.8-8.1,3-12.7l4.9-18.5h4.9L120.6,51h-5L111,31.9c-1.1-4.7-1.9-8.3-2.4-12h-0.1 c-0.7,3.7-1.5,7.3-2.8,12L100.4,51H95.4z"/><path fill="#FFFFFF" d="M154.9,37.6c0,9.8-6.8,14-13.2,14c-7.2,0-12.7-5.2-12.7-13.6c0-8.8,5.8-14,13.1-14 C149.8,24,154.9,29.5,154.9,37.6z M133.9,37.9c0,5.8,3.3,10.1,8,10.1c4.6,0,8-4.3,8-10.3c0-4.5-2.2-10.1-7.9-10.1 C136.3,27.6,133.9,32.8,133.9,37.9z"/><path fill="#FFFFFF" d="M158.2,32.8c0-3.1-0.1-5.8-0.2-8.2h4.2l0.2,5.2h0.2c1.2-3.5,4.1-5.8,7.3-5.8c0.5,0,0.9,0.1,1.4,0.2v4.5 c-0.5-0.1-1-0.2-1.6-0.2c-3.4,0-5.8,2.6-6.5,6.2c-0.1,0.7-0.2,1.4-0.2,2.2V51h-4.8V32.8z"/><path fill="#FFFFFF" d="M173.5,12.3h4.8V51h-4.8V12.3z"/><path fill="#FFFFFF" d="M206.5,12.3v31.9c0,2.3,0.1,5,0.2,6.8h-4.3l-0.2-4.6H202c-1.5,2.9-4.7,5.2-9,5.2 c-6.4,0-11.3-5.4-11.3-13.4c-0.1-8.8,5.4-14.2,11.9-14.2c4,0,6.8,1.9,8,4h0.1V12.3H206.5z M201.7,35.4c0-0.6-0.1-1.4-0.2-2 c-0.7-3.1-3.3-5.6-6.9-5.6c-5,0-7.9,4.4-7.9,10.2c0,5.3,2.6,9.8,7.8,9.8c3.2,0,6.2-2.1,7.1-5.7c0.2-0.7,0.2-1.3,0.2-2.1V35.4z"/><path fill="#FFFFFF" d="M42.8,64c0.1,1.6-1.1,2.9-3.1,2.9c-1.7,0-2.9-1.3-2.9-2.9c0-1.7,1.3-3,3-3C41.7,61,42.8,62.3,42.8,64z M37.4,97.8V71.4h4.8v26.4H37.4z"/><path fill="#FFFFFF" d="M47.5,78.6c0-2.7-0.1-5-0.2-7.1h4.3l0.3,4.4h0.1c1.3-2.5,4.4-5,8.8-5c3.7,0,9.4,2.2,9.4,11.2v15.8h-4.8 V82.6c0-4.3-1.6-7.8-6.1-7.8c-3.2,0-5.6,2.2-6.5,4.9c-0.2,0.6-0.3,1.4-0.3,2.2v15.9h-4.8V78.6z"/><path fill="#FFFFFF" d="M84,61.6c2.9-0.4,6.3-0.8,10.1-0.8c6.8,0,11.7,1.6,14.9,4.6c3.3,3,5.2,7.3,5.2,13.2c0,6-1.9,10.9-5.3,14.3 c-3.4,3.4-9.1,5.3-16.3,5.3c-3.4,0-6.2-0.2-8.6-0.4V61.6z M88.8,94.1c1.2,0.2,3,0.3,4.8,0.3c10.2,0,15.7-5.7,15.7-15.6 c0.1-8.7-4.9-14.2-14.9-14.2c-2.5,0-4.3,0.2-5.6,0.5V94.1z"/><path fill="#FFFFFF" d="M132.1,97.8l-0.4-3.3h-0.2c-1.5,2.1-4.3,3.9-8.1,3.9c-5.4,0-8.1-3.8-8.1-7.6c0-6.4,5.7-9.9,15.9-9.8v-0.5 c0-2.2-0.6-6.1-6-6.1c-2.5,0-5,0.8-6.9,2l-1.1-3.2c2.2-1.4,5.4-2.3,8.7-2.3c8.1,0,10.1,5.5,10.1,10.8v9.9c0,2.3,0.1,4.5,0.4,6.3 H132.1z M131.4,84.4c-5.3-0.1-11.2,0.8-11.2,5.9c0,3.1,2.1,4.6,4.5,4.6c3.4,0,5.6-2.2,6.4-4.4c0.2-0.5,0.3-1,0.3-1.5V84.4z"/><path fill="#FFFFFF" d="M146.6,63.9v7.6h6.9v3.7h-6.9v14.2c0,3.3,0.9,5.1,3.6,5.1c1.3,0,2.2-0.2,2.8-0.3l0.2,3.6 c-0.9,0.4-2.4,0.7-4.3,0.7c-2.2,0-4-0.7-5.2-2c-1.4-1.4-1.9-3.8-1.9-6.9V75.1h-4.1v-3.7h4.1v-6.3L146.6,63.9z"/><path fill="#FFFFFF" d="M171.4,97.8l-0.4-3.3h-0.2c-1.5,2.1-4.3,3.9-8.1,3.9c-5.4,0-8.1-3.8-8.1-7.6c0-6.4,5.7-9.9,15.9-9.8v-0.5 c0-2.2-0.6-6.1-6-6.1c-2.5,0-5,0.8-6.9,2l-1.1-3.2c2.2-1.4,5.4-2.3,8.7-2.3c8.1,0,10.1,5.5,10.1,10.8v9.9c0,2.3,0.1,4.5,0.4,6.3 H171.4z M170.7,84.4c-5.3-0.1-11.2,0.8-11.2,5.9c0,3.1,2.1,4.6,4.5,4.6c3.4,0,5.6-2.2,6.4-4.4c0.2-0.5,0.3-1,0.3-1.5V84.4z"/></g></g></a></g><a href="https://ourworldindata.org/grapher/index-of-cereal-production-yield-and-land-use-1961-2014?country=MEX" target="_blank"><text font-size="25.20" x="15.0" y="35.2" fill="#555"><tspan x="15" y="35.160000000000004">Index of cereal production, yield and land use, 1961-2014, Mexico</tspan></text></a><text font-size="14.40" x="15.0" y="53.7" fill="#666"><tspan x="15" y="53.72">The index of total cereal production (measured in metric tonnes), cereal yield (kilograms per hectare), and land used</tspan><tspan x="15" y="69.56">for cereal production (hectares). The index is calculated as the production, yield and land use in any given year</tspan><tspan x="15" y="85.4">divided by that in the year 1961 (i.e. 1961 = 100). The index of total population (all ages and genders) relative to</tspan><tspan x="15" y="101.24000000000001">1961 is also shown. Trends for individual countries can be viewed using the &quot;change country&quot; wheel.</tspan></text></g><g class="LineChart"><defs><clipPath id="boundsClip-600"><rect x="37.216" y="0" width="830" height="866.8"></rect></clipPath></defs><g class="AxisBoxView"><g class="HorizontalAxis"><text x="47.2" y="556.5" fill="#666" text-anchor="middle" font-size="16.2">1961</text><text x="138.2" y="556.5" fill="#666" text-anchor="middle" font-size="16.2">1970</text><text x="239.4" y="556.5" fill="#666" text-anchor="middle" font-size="16.2">1980</text><text x="340.5" y="556.5" fill="#666" text-anchor="middle" font-size="16.2">1990</text><text x="441.6" y="556.5" fill="#666" text-anchor="middle" font-size="16.2">2000</text><text x="583.2" y="556.5" fill="#666" text-anchor="middle" font-size="16.2">2014</text></g><g class="VerticalAxis"><text x="42.22" y="535.3" fill="#666" dominant-baseline="middle" text-anchor="end" font-size="16.2">0</text><text x="42.22" y="439.2" fill="#666" dominant-baseline="middle" text-anchor="end" font-size="16.2">100</text><text x="42.22" y="343.1" fill="#666" dominant-baseline="middle" text-anchor="end" font-size="16.2">200</text><text x="42.22" y="247" fill="#666" dominant-baseline="middle" text-anchor="end" font-size="16.2">300</text><text x="42.22" y="151" fill="#666" dominant-baseline="middle" text-anchor="end" font-size="16.2">400</text></g><g class="AxisGridLines"><line x1="47.22" y1="535.3" x2="583.20" y2="535.3" stroke="#ccc"></line><line x1="47.22" y1="439.2" x2="583.20" y2="439.2" stroke="#ddd" stroke-dasharray="3,2"></line><line x1="47.22" y1="343.1" x2="583.20" y2="343.1" stroke="#ddd" stroke-dasharray="3,2"></line><line x1="47.22" y1="247" x2="583.20" y2="247" stroke="#ddd" stroke-dasharray="3,2"></line><line x1="47.22" y1="151" x2="583.20" y2="151" stroke="#ddd" stroke-dasharray="3,2"></line></g><g class="AxisGridLines"><line x1="138.2" y1="535.30" x2="138.2" y2="123.10" stroke="#ddd" stroke-dasharray="3,2"></line><line x1="239.4" y1="535.30" x2="239.4" y2="123.10" stroke="#ddd" stroke-dasharray="3,2"></line><line x1="340.5" y1="535.30" x2="340.5" y2="123.10" stroke="#ddd" stroke-dasharray="3,2"></line><line x1="441.6" y1="535.30" x2="441.6" y2="123.10" stroke="#ddd" stroke-dasharray="3,2"></line><line x1="542.7" y1="535.30" x2="542.7" y2="123.10" stroke="#ddd" stroke-dasharray="3,2"></line></g></g><g clip-path="url(#boundsClip-600)"><g class="HeightedLegend clickable"><g class="legendMark"><rect x="593.1999999999999" y="115.89999999999999" width="167.64000000000001" height="14.4" fill="#fff" opacity="0"></rect><rect x="593.1999999999999" y="121.85" width="10" height="2.5" fill="#e6332e"></rect><text font-size="14.40" x="608.2" y="127.4" fill="#333"><tspan x="608.1999999999999" y="127.41999999999999">Cereal production index</tspan></text></g><g class="legendMark"><rect x="593.1999999999999" y="216.8" width="129.76800000000003" height="14.4" fill="#fff" opacity="0"></rect><rect x="593.1999999999999" y="222.75" width="10" height="2.5" fill="#674c98"></rect><text font-size="14.40" x="608.2" y="228.3" fill="#333"><tspan x="608.1999999999999" y="228.32000000000002">Cereal yield index</tspan></text></g><g class="legendMark"><rect x="593.1999999999999" y="231.20000000000002" width="121.99200000000002" height="14.4" fill="#fff" opacity="0"></rect><rect x="593.1999999999999" y="237.15" width="10" height="2.5" fill="#c8c8c8"></rect><text font-size="14.40" x="608.2" y="242.7" fill="#333"><tspan x="608.1999999999999" y="242.72000000000003">Population index</tspan></text></g><g class="legendMark"><rect x="593.1999999999999" y="401.3" width="241.80000000000004" height="14.4" fill="#fff" opacity="0"></rect><rect x="593.1999999999999" y="407.25" width="10" height="2.5" fill="#a85a4a"></rect><text font-size="14.40" x="608.2" y="412.8" fill="#333"><tspan x="608.1999999999999" y="412.82">Land under cereal production index</tspan></text></g></g><g class="Lines"><rect x="47" y="123" width="536" height="412" fill="rgba(255,255,255,0)" opacity="0"></rect><g class="key-Mexico_0"><path stroke="#674c98" stroke-linecap="round" d="M47 439L57 437L67 437L78 422L88 419L98 423L108 416L118 411L128 406L138 402L148 403L159 404L169 405L179 395L189 384L199 384L209 381L219 368L229 360L239 345L250 336L260 325L270 345L280 332L290 324L300 333L310 334L320 346L330 344L341 325L351 324L361 300L371 306L381 316L391 316L401 313L411 303L421 306L432 300L442 295L452 287L462 282L472 278L482 267L492 263L502 256L512 244L523 236L533 237L543 231L553 254L563 235L573 240L583 224" fill="none" stroke-width="1.5"></path><g fill="#674c98"><circle cx="47" cy="439" r="2"></circle><circle cx="57" cy="437" r="2"></circle><circle cx="67" cy="437" r="2"></circle><circle cx="78" cy="422" r="2"></circle><circle cx="88" cy="419" r="2"></circle><circle cx="98" cy="423" r="2"></circle><circle cx="108" cy="416" r="2"></circle><circle cx="118" cy="411" r="2"></circle><circle cx="128" cy="406" r="2"></circle><circle cx="138" cy="402" r="2"></circle><circle cx="148" cy="403" r="2"></circle><circle cx="159" cy="404" r="2"></circle><circle cx="169" cy="405" r="2"></circle><circle cx="179" cy="395" r="2"></circle><circle cx="189" cy="384" r="2"></circle><circle cx="199" cy="384" r="2"></circle><circle cx="209" cy="381" r="2"></circle><circle cx="219" cy="368" r="2"></circle><circle cx="229" cy="360" r="2"></circle><circle cx="239" cy="345" r="2"></circle><circle cx="250" cy="336" r="2"></circle><circle cx="260" cy="325" r="2"></circle><circle cx="270" cy="345" r="2"></circle><circle cx="280" cy="332" r="2"></circle><circle cx="290" cy="324" r="2"></circle><circle cx="300" cy="333" r="2"></circle><circle cx="310" cy="334" r="2"></circle><circle cx="320" cy="346" r="2"></circle><circle cx="330" cy="344" r="2"></circle><circle cx="341" cy="325" r="2"></circle><circle cx="351" cy="324" r="2"></circle><circle cx="361" cy="300" r="2"></circle><circle cx="371" cy="306" r="2"></circle><circle cx="381" cy="316" r="2"></circle><circle cx="391" cy="316" r="2"></circle><circle cx="401" cy="313" r="2"></circle><circle cx="411" cy="303" r="2"></circle><circle cx="421" cy="306" r="2"></circle><circle cx="432" cy="300" r="2"></circle><circle cx="442" cy="295" r="2"></circle><circle cx="452" cy="287" r="2"></circle><circle cx="462" cy="282" r="2"></circle><circle cx="472" cy="278" r="2"></circle><circle cx="482" cy="267" r="2"></circle><circle cx="492" cy="263" r="2"></circle><circle cx="502" cy="256" r="2"></circle><circle cx="512" cy="244" r="2"></circle><circle cx="523" cy="236" r="2"></circle><circle cx="533" cy="237" r="2"></circle><circle cx="543" cy="231" r="2"></circle><circle cx="553" cy="254" r="2"></circle><circle cx="563" cy="235" r="2"></circle><circle cx="573" cy="240" r="2"></circle><circle cx="583" cy="224" r="2"></circle></g></g><g class="key-Mexico_1"><path stroke="#c8c8c8" stroke-linecap="round" d="M47 439L57 436L67 433L78 430L88 427L98 423L108 420L118 416L128 412L138 408L148 404L159 400L169 396L179 391L189 387L199 383L209 378L219 374L229 370L239 366L250 362L260 358L270 354L280 351L290 347L300 343L310 339L320 335L330 331L341 327L351 323L361 319L371 314L381 310L391 306L401 302L411 298L421 294L432 291L442 287L452 284L462 281L472 278L482 274L492 271L502 267L512 263L523 258L533 254L543 249L553 245L563 241L573 236L583 232" fill="none" stroke-width="1.5"></path><g fill="#c8c8c8"><circle cx="47" cy="439" r="2"></circle><circle cx="57" cy="436" r="2"></circle><circle cx="67" cy="433" r="2"></circle><circle cx="78" cy="430" r="2"></circle><circle cx="88" cy="427" r="2"></circle><circle cx="98" cy="423" r="2"></circle><circle cx="108" cy="420" r="2"></circle><circle cx="118" cy="416" r="2"></circle><circle cx="128" cy="412" r="2"></circle><circle cx="138" cy="408" r="2"></circle><circle cx="148" cy="404" r="2"></circle><circle cx="159" cy="400" r="2"></circle><circle cx="169" cy="396" r="2"></circle><circle cx="179" cy="391" r="2"></circle><circle cx="189" cy="387" r="2"></circle><circle cx="199" cy="383" r="2"></circle><circle cx="209" cy="378" r="2"></circle><circle cx="219" cy="374" r="2"></circle><circle cx="229" cy="370" r="2"></circle><circle cx="239" cy="366" r="2"></circle><circle cx="250" cy="362" r="2"></circle><circle cx="260" cy="358" r="2"></circle><circle cx="270" cy="354" r="2"></circle><circle cx="280" cy="351" r="2"></circle><circle cx="290" cy="347" r="2"></circle><circle cx="300" cy="343" r="2"></circle><circle cx="310" cy="339" r="2"></circle><circle cx="320" cy="335" r="2"></circle><circle cx="330" cy="331" r="2"></circle><circle cx="341" cy="327" r="2"></circle><circle cx="351" cy="323" r="2"></circle><circle cx="361" cy="319" r="2"></circle><circle cx="371" cy="314" r="2"></circle><circle cx="381" cy="310" r="2"></circle><circle cx="391" cy="306" r="2"></circle><circle cx="401" cy="302" r="2"></circle><circle cx="411" cy="298" r="2"></circle><circle cx="421" cy="294" r="2"></circle><circle cx="432" cy="291" r="2"></circle><circle cx="442" cy="287" r="2"></circle><circle cx="452" cy="284" r="2"></circle><circle cx="462" cy="281" r="2"></circle><circle cx="472" cy="278" r="2"></circle><circle cx="482" cy="274" r="2"></circle><circle cx="492" cy="271" r="2"></circle><circle cx="502" cy="267" r="2"></circle><circle cx="512" cy="263" r="2"></circle><circle cx="523" cy="258" r="2"></circle><circle cx="533" cy="254" r="2"></circle><circle cx="543" cy="249" r="2"></circle><circle cx="553" cy="245" r="2"></circle><circle cx="563" cy="241" r="2"></circle><circle cx="573" cy="236" r="2"></circle><circle cx="583" cy="232" r="2"></circle></g></g><g class="key-Mexico_2"><path stroke="#e6332e" stroke-linecap="round" d="M47 439L57 438L67 428L78 403L88 394L98 389L108 388L118 378L128 379L138 366L148 368L159 373L169 367L179 370L189 348L199 350L209 333L219 322L229 359L239 300L250 258L260 307L270 280L280 268L290 226L300 279L310 268L320 297L330 293L341 247L351 268L361 232L371 251L381 233L391 232L401 205L411 218L421 207L432 226L442 219L452 185L462 211L472 182L482 171L492 208L502 172L512 148L523 128L533 183L543 141L553 214L563 156L573 161L583 123" fill="none" stroke-width="1.5"></path><g fill="#e6332e"><circle cx="47" cy="439" r="2"></circle><circle cx="57" cy="438" r="2"></circle><circle cx="67" cy="428" r="2"></circle><circle cx="78" cy="403" r="2"></circle><circle cx="88" cy="394" r="2"></circle><circle cx="98" cy="389" r="2"></circle><circle cx="108" cy="388" r="2"></circle><circle cx="118" cy="378" r="2"></circle><circle cx="128" cy="379" r="2"></circle><circle cx="138" cy="366" r="2"></circle><circle cx="148" cy="368" r="2"></circle><circle cx="159" cy="373" r="2"></circle><circle cx="169" cy="367" r="2"></circle><circle cx="179" cy="370" r="2"></circle><circle cx="189" cy="348" r="2"></circle><circle cx="199" cy="350" r="2"></circle><circle cx="209" cy="333" r="2"></circle><circle cx="219" cy="322" r="2"></circle><circle cx="229" cy="359" r="2"></circle><circle cx="239" cy="300" r="2"></circle><circle cx="250" cy="258" r="2"></circle><circle cx="260" cy="307" r="2"></circle><circle cx="270" cy="280" r="2"></circle><circle cx="280" cy="268" r="2"></circle><circle cx="290" cy="226" r="2"></circle><circle cx="300" cy="279" r="2"></circle><circle cx="310" cy="268" r="2"></circle><circle cx="320" cy="297" r="2"></circle><circle cx="330" cy="293" r="2"></circle><circle cx="341" cy="247" r="2"></circle><circle cx="351" cy="268" r="2"></circle><circle cx="361" cy="232" r="2"></circle><circle cx="371" cy="251" r="2"></circle><circle cx="381" cy="233" r="2"></circle><circle cx="391" cy="232" r="2"></circle><circle cx="401" cy="205" r="2"></circle><circle cx="411" cy="218" r="2"></circle><circle cx="421" cy="207" r="2"></circle><circle cx="432" cy="226" r="2"></circle><circle cx="442" cy="219" r="2"></circle><circle cx="452" cy="185" r="2"></circle><circle cx="462" cy="211" r="2"></circle><circle cx="472" cy="182" r="2"></circle><circle cx="482" cy="171" r="2"></circle><circle cx="492" cy="208" r="2"></circle><circle cx="502" cy="172" r="2"></circle><circle cx="512" cy="148" r="2"></circle><circle cx="523" cy="128" r="2"></circle><circle cx="533" cy="183" r="2"></circle><circle cx="543" cy="141" r="2"></circle><circle cx="553" cy="214" r="2"></circle><circle cx="563" cy="156" r="2"></circle><circle cx="573" cy="161" r="2"></circle><circle cx="583" cy="123" r="2"></circle></g></g><g class="key-Mexico_3"><path stroke="#a85a4a" stroke-linecap="round" d="M47 439L57 440L67 430L78 423L88 419L98 409L108 416L118 414L128 420L138 414L148 414L159 417L169 412L179 422L189 416L199 416L209 409L219 412L229 438L239 416L250 402L260 431L270 406L280 409L290 395L300 414L310 409L320 414L330 414L341 404L351 413L361 411L371 416L381 403L391 403L401 392L411 405L421 398L432 409L442 409L452 400L462 412L472 404L482 405L492 420L502 410L512 408L523 405L533 422L543 411L553 426L563 414L573 413L583 409" fill="none" stroke-width="1.5"></path><g fill="#a85a4a"><circle cx="47" cy="439" r="2"></circle><circle cx="57" cy="440" r="2"></circle><circle cx="67" cy="430" r="2"></circle><circle cx="78" cy="423" r="2"></circle><circle cx="88" cy="419" r="2"></circle><circle cx="98" cy="409" r="2"></circle><circle cx="108" cy="416" r="2"></circle><circle cx="118" cy="414" r="2"></circle><circle cx="128" cy="420" r="2"></circle><circle cx="138" cy="414" r="2"></circle><circle cx="148" cy="414" r="2"></circle><circle cx="159" cy="417" r="2"></circle><circle cx="169" cy="412" r="2"></circle><circle cx="179" cy="422" r="2"></circle><circle cx="189" cy="416" r="2"></circle><circle cx="199" cy="416" r="2"></circle><circle cx="209" cy="409" r="2"></circle><circle cx="219" cy="412" r="2"></circle><circle cx="229" cy="438" r="2"></circle><circle cx="239" cy="416" r="2"></circle><circle cx="250" cy="402" r="2"></circle><circle cx="260" cy="431" r="2"></circle><circle cx="270" cy="406" r="2"></circle><circle cx="280" cy="409" r="2"></circle><circle cx="290" cy="395" r="2"></circle><circle cx="300" cy="414" r="2"></circle><circle cx="310" cy="409" r="2"></circle><circle cx="320" cy="414" r="2"></circle><circle cx="330" cy="414" r="2"></circle><circle cx="341" cy="404" r="2"></circle><circle cx="351" cy="413" r="2"></circle><circle cx="361" cy="411" r="2"></circle><circle cx="371" cy="416" r="2"></circle><circle cx="381" cy="403" r="2"></circle><circle cx="391" cy="403" r="2"></circle><circle cx="401" cy="392" r="2"></circle><circle cx="411" cy="405" r="2"></circle><circle cx="421" cy="398" r="2"></circle><circle cx="432" cy="409" r="2"></circle><circle cx="442" cy="409" r="2"></circle><circle cx="452" cy="400" r="2"></circle><circle cx="462" cy="412" r="2"></circle><circle cx="472" cy="404" r="2"></circle><circle cx="482" cy="405" r="2"></circle><circle cx="492" cy="420" r="2"></circle><circle cx="502" cy="410" r="2"></circle><circle cx="512" cy="408" r="2"></circle><circle cx="523" cy="405" r="2"></circle><circle cx="533" cy="422" r="2"></circle><circle cx="543" cy="411" r="2"></circle><circle cx="553" cy="426" r="2"></circle><circle cx="563" cy="414" r="2"></circle><circle cx="573" cy="413" r="2"></circle><circle cx="583" cy="409" r="2"></circle></g></g></g></g></g><g style="fill: #777;" class="SourcesFooter"><g style="fill: #777;" class="clickable"><text font-size="12.60" x="15.0" y="581.6"><tspan x="15" y="581.58">Source: OWID based on World Bank, World Development Indicators (WDI)</tspan></text></g><text font-size="12.60" x="454.6" y="581.6"><tspan x="454.606" y="581.58"><a target='_blank' style='fill: #777;' href='https://ourworldindata.org/yields-and-land-use-in-agriculture/'>OurWorldInData.org/yields-and-land-use-in-agriculture/</a> • <a style="fill: #777;" href="http://creativecommons.org/licenses/by-sa/4.0/deed.en_US" target="_blank">CC BY-SA</a></tspan></text></g></g></svg>