<svg xmlns="http://www.w3.org/2000/svg" version="1.1" style="font-family: 'Helvetica Neue', Helvetica, Arial, sans-serif; font-size: 18px; background-color: white; text-rendering: optimizeLegibility; -webkit-font-smoothing: antialiased;" width="850" height="600"><g class="ChartTab"><g class="HeaderView"><g opacity="0.8" transform="translate(770, 15) scale(0.31)"><a xmlns:xlink="http://www.w3.org/1999/xlink" xlink:href="https://ourworldindata.org" target="_blank"><g><rect x="0" y="0" fill="#1B2543" width="211.2" height="130.1"/><rect x="0" y="112.2" fill="#E63912" width="211.2" height="17.9"/><g><rect x="1.2" y="12.3" fill="none" width="210.2" height="99.2"/><path fill="#FFFFFF" d="M37.8,32.2c0,12.7-7.7,19.4-17.1,19.4c-9.7,0-16.6-7.5-16.6-18.7c0-11.7,7.3-19.3,17.1-19.3 C31.3,13.7,37.8,21.3,37.8,32.2z M9.2,32.8c0,7.9,4.3,14.9,11.8,14.9c7.5,0,11.8-6.9,11.8-15.3c0-7.3-3.8-14.9-11.8-14.9 C13.1,17.5,9.2,24.8,9.2,32.8z"/><path fill="#FFFFFF" d="M62.7,43.8c0,2.7,0.1,5.1,0.2,7.2h-4.3l-0.3-4.3h-0.1c-1.3,2.1-4,4.9-8.8,4.9c-4.2,0-9.1-2.3-9.1-11.6 V24.6h4.8v14.6c0,5,1.5,8.4,5.9,8.4c3.2,0,5.5-2.2,6.3-4.4c0.3-0.7,0.4-1.6,0.4-2.5V24.6h4.8V43.8z"/><path fill="#FFFFFF" d="M67.3,32.8c0-3.1-0.1-5.8-0.2-8.2h4.2l0.2,5.2h0.2c1.2-3.5,4.1-5.8,7.3-5.8c0.5,0,0.9,0.1,1.4,0.2v4.5 c-0.5-0.1-1-0.2-1.6-0.2c-3.4,0-5.8,2.6-6.5,6.2c-0.1,0.7-0.2,1.4-0.2,2.2V51h-4.8V32.8z"/><path fill="#FFFFFF" d="M95.4,51l-9.4-36.8h5l4.4,18.6c1.1,4.6,2.1,9.2,2.7,12.7h0.1c0.6-3.7,1.8-8,3-12.8l4.9-18.5h5l4.5,18.7 c1,4.4,2,8.7,2.6,12.6h0.1c0.8-4,1.8-8.1,3-12.7l4.9-18.5h4.9L120.6,51h-5L111,31.9c-1.1-4.7-1.9-8.3-2.4-12h-0.1 c-0.7,3.7-1.5,7.3-2.8,12L100.4,51H95.4z"/><path fill="#FFFFFF" d="M154.9,37.6c0,9.8-6.8,14-13.2,14c-7.2,0-12.7-5.2-12.7-13.6c0-8.8,5.8-14,13.1-14 C149.8,24,154.9,29.5,154.9,37.6z M133.9,37.9c0,5.8,3.3,10.1,8,10.1c4.6,0,8-4.3,8-10.3c0-4.5-2.2-10.1-7.9-10.1 C136.3,27.6,133.9,32.8,133.9,37.9z"/><path fill="#FFFFFF" d="M158.2,32.8c0-3.1-0.1-5.8-0.2-8.2h4.2l0.2,5.2h0.2c1.2-3.5,4.1-5.8,7.3-5.8c0.5,0,0.9,0.1,1.4,0.2v4.5 c-0.5-0.1-1-0.2-1.6-0.2c-3.4,0-5.8,2.6-6.5,6.2c-0.1,0.7-0.2,1.4-0.2,2.2V51h-4.8V32.8z"/><path fill="#FFFFFF" d="M173.5,12.3h4.8V51h-4.8V12.3z"/><path fill="#FFFFFF" d="M206.5,12.3v31.9c0,2.3,0.1,5,0.2,6.8h-4.3l-0.2-4.6H202c-1.5,2.9-4.7,5.2-9,5.2 c-6.4,0-11.3-5.4-11.3-13.4c-0.1-8.8,5.4-14.2,11.9-14.2c4,0,6.8,1.9,8,4h0.1V12.3H206.5z M201.7,35.4c0-0.6-0.1-1.4-0.2-2 c-0.7-3.1-3.3-5.6-6.9-5.6c-5,0-7.9,4.4-7.9,10.2c0,5.3,2.6,9.8,7.8,9.8c3.2,0,6.2-2.1,7.1-5.7c0.2-0.7,0.2-1.3,0.2-2.1V35.4z"/><path fill="#FFFFFF" d="M42.8,64c0.1,1.6-1.1,2.9-3.1,2.9c-1.7,0-2.9-1.3-2.9-2.9c0-1.7,1.3-3,3-3C41.7,61,42.8,62.3,42.8,64z M37.4,97.8V71.4h4.8v26.4H37.4z"/><path fill="#FFFFFF" d="M47.5,78.6c0-2.7-0.1-5-0.2-7.1h4.3l0.3,4.4h0.1c1.3-2.5,4.4-5,8.8-5c3.7,0,9.4,2.2,9.4,11.2v15.8h-4.8 V82.6c0-4.3-1.6-7.8-6.1-7.8c-3.2,0-5.6,2.2-6.5,4.9c-0.2,0.6-0.3,1.4-0.3,2.2v15.9h-4.8V78.6z"/><path fill="#FFFFFF" d="M84,61.6c2.9-0.4,6.3-0.8,10.1-0.8c6.8,0,11.7,1.6,14.9,4.6c3.3,3,5.2,7.3,5.2,13.2c0,6-1.9,10.9-5.3,14.3 c-3.4,3.4-9.1,5.3-16.3,5.3c-3.4,0-6.2-0.2-8.6-0.4V61.6z M88.8,94.1c1.2,0.2,3,0.3,4.8,0.3c10.2,0,15.7-5.7,15.7-15.6 c0.1-8.7-4.9-14.2-14.9-14.2c-2.5,0-4.3,0.2-5.6,0.5V94.1z"/><path fill="#FFFFFF" d="M132.1,97.8l-0.4-3.3h-0.2c-1.5,2.1-4.3,3.9-8.1,3.9c-5.4,0-8.1-3.8-8.1-7.6c0-6.4,5.7-9.9,15.9-9.8v-0.5 c0-2.2-0.6-6.1-6-6.1c-2.5,0-5,0.8-6.9,2l-1.1-3.2c2.2-1.4,5.4-2.3,8.7-2.3c8.1,0,10.1,5.5,10.1,10.8v9.9c0,2.3,0.1,4.5,0.4,6.3 H132.1z M131.4,84.4c-5.3-0.1-11.2,0.8-11.2,5.9c0,3.1,2.1,4.6,4.5,4.6c3.4,0,5.6-2.2,6.4-4.4c0.2-0.5,0.3-1,0.3-1.5V84.4z"/><path fill="#FFFFFF" d="M146.6,63.9v7.6h6.9v3.7h-6.9v14.2c0,3.3,0.9,5.1,3.6,5.1c1.3,0,2.2-0.2,2.8-0.3l0.2,3.6 c-0.9,0.4-2.4,0.7-4.3,0.7c-2.2,0-4-0.7-5.2-2c-1.4-1.4-1.9-3.8-1.9-6.9V75.1h-4.1v-3.7h4.1v-6.3L146.6,63.9z"/><path fill="#FFFFFF" d="M171.4,97.8l-0.4-3.3h-0.2c-1.5,2.1-4.3,3.9-8.1,3.9c-5.4,0-8.1-3.8-8.1-7.6c0-6.4,5.7-9.9,15.9-9.8v-0.5 c0-2.2-0.6-6.1-6-6.1c-2.5,0-5,0.8-6.9,2l-1.1-3.2c2.2-1.4,5.4-2.3,8.7-2.3c8.1,0,10.1,5.5,10.1,10.8v9.9c0,2.3,0.1,4.5,0.4,6.3 H171.4z M170.7,84.4c-5.3-0.1-11.2,0.8-11.2,5.9c0,3.1,2.1,4.6,4.5,4.6c3.4,0,5.6-2.2,6.4-4.4c0.2-0.5,0.3-1,0.3-1.5V84.4z"/></g></g></a></g><a href="https://ourworldindata.org/grapher/index-of-cereal-production-yield-and-land-use-1961-2014?country=Sub-Saharan%20Africa" target="_blank"><text font-size="21.60" x="15.0" y="32.3" fill="#555"><tspan x="15" y="32.279999999999994">Index of cereal production, yield and land use, 1961-2014, Sub-Saharan</tspan><tspan x="15" y="53.87999999999999">Africa</tspan></text></a><text font-size="14.40" x="15.0" y="72.7" fill="#666"><tspan x="15" y="72.72">The index of total cereal production (measured in metric tonnes), cereal yield (kilograms per hectare), and land used for cereal</tspan><tspan x="15" y="88.56">production (hectares). The index is calculated as the production, yield and land use in any given year divided by that in the year</tspan><tspan x="15" y="104.4">1961 (i.e. 1961 = 100). The index of total population (all ages and genders) relative to 1961 is also shown. Trends for individual</tspan><tspan x="15" y="120.24000000000001">countries can be viewed using the &quot;change country&quot; wheel.</tspan></text></g><g class="LineChart"><defs><clipPath id="boundsClip-604"><rect x="37.216" y="0" width="830" height="828.8"></rect></clipPath></defs><g class="AxisBoxView"><g class="HorizontalAxis"><text x="47.2" y="556.5" fill="#666" text-anchor="middle" font-size="16.2">1961</text><text x="138.2" y="556.5" fill="#666" text-anchor="middle" font-size="16.2">1970</text><text x="239.4" y="556.5" fill="#666" text-anchor="middle" font-size="16.2">1980</text><text x="340.5" y="556.5" fill="#666" text-anchor="middle" font-size="16.2">1990</text><text x="441.6" y="556.5" fill="#666" text-anchor="middle" font-size="16.2">2000</text><text x="583.2" y="556.5" fill="#666" text-anchor="middle" font-size="16.2">2014</text></g><g class="VerticalAxis"><text x="42.22" y="535.3" fill="#666" dominant-baseline="middle" text-anchor="end" font-size="16.2">0</text><text x="42.22" y="446.3" fill="#666" dominant-baseline="middle" text-anchor="end" font-size="16.2">100</text><text x="42.22" y="357.2" fill="#666" dominant-baseline="middle" text-anchor="end" font-size="16.2">200</text><text x="42.22" y="268.2" fill="#666" dominant-baseline="middle" text-anchor="end" font-size="16.2">300</text><text x="42.22" y="179.2" fill="#666" dominant-baseline="middle" text-anchor="end" font-size="16.2">400</text></g><g class="AxisGridLines"><line x1="47.22" y1="535.3" x2="583.20" y2="535.3" stroke="#ccc"></line><line x1="47.22" y1="446.3" x2="583.20" y2="446.3" stroke="#ddd" stroke-dasharray="3,2"></line><line x1="47.22" y1="357.2" x2="583.20" y2="357.2" stroke="#ddd" stroke-dasharray="3,2"></line><line x1="47.22" y1="268.2" x2="583.20" y2="268.2" stroke="#ddd" stroke-dasharray="3,2"></line><line x1="47.22" y1="179.2" x2="583.20" y2="179.2" stroke="#ddd" stroke-dasharray="3,2"></line></g><g class="AxisGridLines"><line x1="138.2" y1="535.30" x2="138.2" y2="142.10" stroke="#ddd" stroke-dasharray="3,2"></line><line x1="239.4" y1="535.30" x2="239.4" y2="142.10" stroke="#ddd" stroke-dasharray="3,2"></line><line x1="340.5" y1="535.30" x2="340.5" y2="142.10" stroke="#ddd" stroke-dasharray="3,2"></line><line x1="441.6" y1="535.30" x2="441.6" y2="142.10" stroke="#ddd" stroke-dasharray="3,2"></line><line x1="542.7" y1="535.30" x2="542.7" y2="142.10" stroke="#ddd" stroke-dasharray="3,2"></line></g></g><g clip-path="url(#boundsClip-604)"><g class="HeightedLegend clickable"><g class="legendMark"><rect x="593.1999999999999" y="155.60000000000002" width="121.99200000000002" height="14.4" fill="#fff" opacity="0"></rect><rect x="593.1999999999999" y="161.55" width="10" height="2.5" fill="#c8c8c8"></rect><text font-size="14.40" x="608.2" y="167.1" fill="#333"><tspan x="608.1999999999999" y="167.12000000000003">Population index</tspan></text></g><g class="legendMark"><rect x="593.1999999999999" y="173.70000000000002" width="167.64000000000001" height="14.4" fill="#fff" opacity="0"></rect><rect x="593.1999999999999" y="179.65" width="10" height="2.5" fill="#e6332e"></rect><text font-size="14.40" x="608.2" y="185.2" fill="#333"><tspan x="608.1999999999999" y="185.22000000000003">Cereal production index</tspan></text></g><g class="legendMark"><rect x="593.1999999999999" y="331.3" width="241.80000000000004" height="14.4" fill="#fff" opacity="0"></rect><rect x="593.1999999999999" y="337.25" width="10" height="2.5" fill="#a85a4a"></rect><text font-size="14.40" x="608.2" y="342.8" fill="#333"><tspan x="608.1999999999999" y="342.82">Land under cereal production index</tspan></text></g><g class="legendMark"><rect x="593.1999999999999" y="367.8" width="129.76800000000003" height="14.4" fill="#fff" opacity="0"></rect><rect x="593.1999999999999" y="373.75" width="10" height="2.5" fill="#674c98"></rect><text font-size="14.40" x="608.2" y="379.3" fill="#333"><tspan x="608.1999999999999" y="379.32">Cereal yield index</tspan></text></g></g><g class="Lines"><rect x="47" y="142" width="536" height="393" fill="rgba(255,255,255,0)" opacity="0"></rect><g class="key-Sub__002dSaharan-Africa_0"><path stroke="#674c98" stroke-linecap="round" d="M47 446L57 445L67 445L78 448L88 451L98 450L108 434L118 447L128 446L138 444L148 436L159 434L169 447L179 422L189 424L199 430L209 423L219 421L229 424L239 418L250 398L260 416L270 429L280 433L290 419L300 420L310 421L320 414L330 411L341 419L351 418L361 436L371 418L381 420L391 426L401 410L411 419L421 417L432 412L442 411L452 411L462 410L472 412L482 405L492 406L502 399L512 401L523 392L533 391L543 382L553 393L563 380L573 387L583 375" fill="none" stroke-width="1.5"></path><g fill="#674c98"><circle cx="47" cy="446" r="2"></circle><circle cx="57" cy="445" r="2"></circle><circle cx="67" cy="445" r="2"></circle><circle cx="78" cy="448" r="2"></circle><circle cx="88" cy="451" r="2"></circle><circle cx="98" cy="450" r="2"></circle><circle cx="108" cy="434" r="2"></circle><circle cx="118" cy="447" r="2"></circle><circle cx="128" cy="446" r="2"></circle><circle cx="138" cy="444" r="2"></circle><circle cx="148" cy="436" r="2"></circle><circle cx="159" cy="434" r="2"></circle><circle cx="169" cy="447" r="2"></circle><circle cx="179" cy="422" r="2"></circle><circle cx="189" cy="424" r="2"></circle><circle cx="199" cy="430" r="2"></circle><circle cx="209" cy="423" r="2"></circle><circle cx="219" cy="421" r="2"></circle><circle cx="229" cy="424" r="2"></circle><circle cx="239" cy="418" r="2"></circle><circle cx="250" cy="398" r="2"></circle><circle cx="260" cy="416" r="2"></circle><circle cx="270" cy="429" r="2"></circle><circle cx="280" cy="433" r="2"></circle><circle cx="290" cy="419" r="2"></circle><circle cx="300" cy="420" r="2"></circle><circle cx="310" cy="421" r="2"></circle><circle cx="320" cy="414" r="2"></circle><circle cx="330" cy="411" r="2"></circle><circle cx="341" cy="419" r="2"></circle><circle cx="351" cy="418" r="2"></circle><circle cx="361" cy="436" r="2"></circle><circle cx="371" cy="418" r="2"></circle><circle cx="381" cy="420" r="2"></circle><circle cx="391" cy="426" r="2"></circle><circle cx="401" cy="410" r="2"></circle><circle cx="411" cy="419" r="2"></circle><circle cx="421" cy="417" r="2"></circle><circle cx="432" cy="412" r="2"></circle><circle cx="442" cy="411" r="2"></circle><circle cx="452" cy="411" r="2"></circle><circle cx="462" cy="410" r="2"></circle><circle cx="472" cy="412" r="2"></circle><circle cx="482" cy="405" r="2"></circle><circle cx="492" cy="406" r="2"></circle><circle cx="502" cy="399" r="2"></circle><circle cx="512" cy="401" r="2"></circle><circle cx="523" cy="392" r="2"></circle><circle cx="533" cy="391" r="2"></circle><circle cx="543" cy="382" r="2"></circle><circle cx="553" cy="393" r="2"></circle><circle cx="563" cy="380" r="2"></circle><circle cx="573" cy="387" r="2"></circle><circle cx="583" cy="375" r="2"></circle></g></g><g class="key-Sub__002dSaharan-Africa_1"><path stroke="#c8c8c8" stroke-linecap="round" d="M47 446L57 444L67 442L78 440L88 437L98 435L108 432L118 430L128 427L138 424L148 421L159 418L169 415L179 411L189 408L199 404L209 401L219 397L229 393L239 389L250 384L260 380L270 376L280 371L290 366L300 361L310 356L320 351L330 346L341 341L351 335L361 330L371 324L381 318L391 312L401 306L411 300L421 294L432 287L442 280L452 274L462 267L472 259L482 252L492 244L502 236L512 228L523 219L533 211L543 202L553 192L563 183L573 173L583 163" fill="none" stroke-width="1.5"></path><g fill="#c8c8c8"><circle cx="47" cy="446" r="2"></circle><circle cx="57" cy="444" r="2"></circle><circle cx="67" cy="442" r="2"></circle><circle cx="78" cy="440" r="2"></circle><circle cx="88" cy="437" r="2"></circle><circle cx="98" cy="435" r="2"></circle><circle cx="108" cy="432" r="2"></circle><circle cx="118" cy="430" r="2"></circle><circle cx="128" cy="427" r="2"></circle><circle cx="138" cy="424" r="2"></circle><circle cx="148" cy="421" r="2"></circle><circle cx="159" cy="418" r="2"></circle><circle cx="169" cy="415" r="2"></circle><circle cx="179" cy="411" r="2"></circle><circle cx="189" cy="408" r="2"></circle><circle cx="199" cy="404" r="2"></circle><circle cx="209" cy="401" r="2"></circle><circle cx="219" cy="397" r="2"></circle><circle cx="229" cy="393" r="2"></circle><circle cx="239" cy="389" r="2"></circle><circle cx="250" cy="384" r="2"></circle><circle cx="260" cy="380" r="2"></circle><circle cx="270" cy="376" r="2"></circle><circle cx="280" cy="371" r="2"></circle><circle cx="290" cy="366" r="2"></circle><circle cx="300" cy="361" r="2"></circle><circle cx="310" cy="356" r="2"></circle><circle cx="320" cy="351" r="2"></circle><circle cx="330" cy="346" r="2"></circle><circle cx="341" cy="341" r="2"></circle><circle cx="351" cy="335" r="2"></circle><circle cx="361" cy="330" r="2"></circle><circle cx="371" cy="324" r="2"></circle><circle cx="381" cy="318" r="2"></circle><circle cx="391" cy="312" r="2"></circle><circle cx="401" cy="306" r="2"></circle><circle cx="411" cy="300" r="2"></circle><circle cx="421" cy="294" r="2"></circle><circle cx="432" cy="287" r="2"></circle><circle cx="442" cy="280" r="2"></circle><circle cx="452" cy="274" r="2"></circle><circle cx="462" cy="267" r="2"></circle><circle cx="472" cy="259" r="2"></circle><circle cx="482" cy="252" r="2"></circle><circle cx="492" cy="244" r="2"></circle><circle cx="502" cy="236" r="2"></circle><circle cx="512" cy="228" r="2"></circle><circle cx="523" cy="219" r="2"></circle><circle cx="533" cy="211" r="2"></circle><circle cx="543" cy="202" r="2"></circle><circle cx="553" cy="192" r="2"></circle><circle cx="563" cy="183" r="2"></circle><circle cx="573" cy="173" r="2"></circle><circle cx="583" cy="163" r="2"></circle></g></g><g class="key-Sub__002dSaharan-Africa_2"><path stroke="#e6332e" stroke-linecap="round" d="M47 446L57 443L67 441L78 444L88 444L98 446L108 422L118 439L128 428L138 429L148 419L159 423L169 434L179 404L189 412L199 412L209 409L219 410L229 417L239 404L250 387L260 406L270 417L280 416L290 386L300 375L310 381L320 357L330 354L341 371L351 358L361 381L371 352L381 339L391 355L401 324L411 335L421 334L432 334L442 331L452 328L462 323L472 308L482 309L492 282L502 275L512 280L523 246L533 259L543 221L553 242L563 224L573 221L583 181" fill="none" stroke-width="1.5"></path><g fill="#e6332e"><circle cx="47" cy="446" r="2"></circle><circle cx="57" cy="443" r="2"></circle><circle cx="67" cy="441" r="2"></circle><circle cx="78" cy="444" r="2"></circle><circle cx="88" cy="444" r="2"></circle><circle cx="98" cy="446" r="2"></circle><circle cx="108" cy="422" r="2"></circle><circle cx="118" cy="439" r="2"></circle><circle cx="128" cy="428" r="2"></circle><circle cx="138" cy="429" r="2"></circle><circle cx="148" cy="419" r="2"></circle><circle cx="159" cy="423" r="2"></circle><circle cx="169" cy="434" r="2"></circle><circle cx="179" cy="404" r="2"></circle><circle cx="189" cy="412" r="2"></circle><circle cx="199" cy="412" r="2"></circle><circle cx="209" cy="409" r="2"></circle><circle cx="219" cy="410" r="2"></circle><circle cx="229" cy="417" r="2"></circle><circle cx="239" cy="404" r="2"></circle><circle cx="250" cy="387" r="2"></circle><circle cx="260" cy="406" r="2"></circle><circle cx="270" cy="417" r="2"></circle><circle cx="280" cy="416" r="2"></circle><circle cx="290" cy="386" r="2"></circle><circle cx="300" cy="375" r="2"></circle><circle cx="310" cy="381" r="2"></circle><circle cx="320" cy="357" r="2"></circle><circle cx="330" cy="354" r="2"></circle><circle cx="341" cy="371" r="2"></circle><circle cx="351" cy="358" r="2"></circle><circle cx="361" cy="381" r="2"></circle><circle cx="371" cy="352" r="2"></circle><circle cx="381" cy="339" r="2"></circle><circle cx="391" cy="355" r="2"></circle><circle cx="401" cy="324" r="2"></circle><circle cx="411" cy="335" r="2"></circle><circle cx="421" cy="334" r="2"></circle><circle cx="432" cy="334" r="2"></circle><circle cx="442" cy="331" r="2"></circle><circle cx="452" cy="328" r="2"></circle><circle cx="462" cy="323" r="2"></circle><circle cx="472" cy="308" r="2"></circle><circle cx="482" cy="309" r="2"></circle><circle cx="492" cy="282" r="2"></circle><circle cx="502" cy="275" r="2"></circle><circle cx="512" cy="280" r="2"></circle><circle cx="523" cy="246" r="2"></circle><circle cx="533" cy="259" r="2"></circle><circle cx="543" cy="221" r="2"></circle><circle cx="553" cy="242" r="2"></circle><circle cx="563" cy="224" r="2"></circle><circle cx="573" cy="221" r="2"></circle><circle cx="583" cy="181" r="2"></circle></g></g><g class="key-Sub__002dSaharan-Africa_3"><path stroke="#a85a4a" stroke-linecap="round" d="M47 446L57 445L67 443L78 442L88 439L98 442L108 436L118 438L128 428L138 431L148 430L159 437L169 433L179 432L189 437L199 430L209 436L219 437L229 440L239 437L250 438L260 438L270 436L280 431L290 421L300 412L310 416L320 404L330 405L341 409L351 402L361 397L371 396L381 384L391 389L401 386L411 382L421 384L432 389L442 390L452 388L462 385L472 371L482 380L492 360L502 366L512 366L523 356L533 365L543 352L553 352L563 357L573 347L583 339" fill="none" stroke-width="1.5"></path><g fill="#a85a4a"><circle cx="47" cy="446" r="2"></circle><circle cx="57" cy="445" r="2"></circle><circle cx="67" cy="443" r="2"></circle><circle cx="78" cy="442" r="2"></circle><circle cx="88" cy="439" r="2"></circle><circle cx="98" cy="442" r="2"></circle><circle cx="108" cy="436" r="2"></circle><circle cx="118" cy="438" r="2"></circle><circle cx="128" cy="428" r="2"></circle><circle cx="138" cy="431" r="2"></circle><circle cx="148" cy="430" r="2"></circle><circle cx="159" cy="437" r="2"></circle><circle cx="169" cy="433" r="2"></circle><circle cx="179" cy="432" r="2"></circle><circle cx="189" cy="437" r="2"></circle><circle cx="199" cy="430" r="2"></circle><circle cx="209" cy="436" r="2"></circle><circle cx="219" cy="437" r="2"></circle><circle cx="229" cy="440" r="2"></circle><circle cx="239" cy="437" r="2"></circle><circle cx="250" cy="438" r="2"></circle><circle cx="260" cy="438" r="2"></circle><circle cx="270" cy="436" r="2"></circle><circle cx="280" cy="431" r="2"></circle><circle cx="290" cy="421" r="2"></circle><circle cx="300" cy="412" r="2"></circle><circle cx="310" cy="416" r="2"></circle><circle cx="320" cy="404" r="2"></circle><circle cx="330" cy="405" r="2"></circle><circle cx="341" cy="409" r="2"></circle><circle cx="351" cy="402" r="2"></circle><circle cx="361" cy="397" r="2"></circle><circle cx="371" cy="396" r="2"></circle><circle cx="381" cy="384" r="2"></circle><circle cx="391" cy="389" r="2"></circle><circle cx="401" cy="386" r="2"></circle><circle cx="411" cy="382" r="2"></circle><circle cx="421" cy="384" r="2"></circle><circle cx="432" cy="389" r="2"></circle><circle cx="442" cy="390" r="2"></circle><circle cx="452" cy="388" r="2"></circle><circle cx="462" cy="385" r="2"></circle><circle cx="472" cy="371" r="2"></circle><circle cx="482" cy="380" r="2"></circle><circle cx="492" cy="360" r="2"></circle><circle cx="502" cy="366" r="2"></circle><circle cx="512" cy="366" r="2"></circle><circle cx="523" cy="356" r="2"></circle><circle cx="533" cy="365" r="2"></circle><circle cx="543" cy="352" r="2"></circle><circle cx="553" cy="352" r="2"></circle><circle cx="563" cy="357" r="2"></circle><circle cx="573" cy="347" r="2"></circle><circle cx="583" cy="339" r="2"></circle></g></g></g></g></g><g style="fill: #777;" class="SourcesFooter"><g style="fill: #777;" class="clickable"><text font-size="12.60" x="15.0" y="581.6"><tspan x="15" y="581.58">Source: OWID based on World Bank, World Development Indicators (WDI)</tspan></text></g><text font-size="12.60" x="454.6" y="581.6"><tspan x="454.606" y="581.58"><a target='_blank' style='fill: #777;' href='https://ourworldindata.org/yields-and-land-use-in-agriculture/'>OurWorldInData.org/yields-and-land-use-in-agriculture/</a> • <a style="fill: #777;" href="http://creativecommons.org/licenses/by-sa/4.0/deed.en_US" target="_blank">CC BY-SA</a></tspan></text></g></g></svg>