<svg xmlns="http://www.w3.org/2000/svg" version="1.1" style="font-family: 'Helvetica Neue', Helvetica, Arial, sans-serif; font-size: 18px; background-color: white; text-rendering: optimizeLegibility; -webkit-font-smoothing: antialiased;" width="850" height="600"><g class="ChartTab"><g class="HeaderView"><g opacity="0.8" transform="translate(770, 15) scale(0.31)"><a xmlns:xlink="http://www.w3.org/1999/xlink" xlink:href="https://ourworldindata.org" target="_blank"><g><rect x="0" y="0" fill="#1B2543" width="211.2" height="130.1"/><rect x="0" y="112.2" fill="#E63912" width="211.2" height="17.9"/><g><rect x="1.2" y="12.3" fill="none" width="210.2" height="99.2"/><path fill="#FFFFFF" d="M37.8,32.2c0,12.7-7.7,19.4-17.1,19.4c-9.7,0-16.6-7.5-16.6-18.7c0-11.7,7.3-19.3,17.1-19.3 C31.3,13.7,37.8,21.3,37.8,32.2z M9.2,32.8c0,7.9,4.3,14.9,11.8,14.9c7.5,0,11.8-6.9,11.8-15.3c0-7.3-3.8-14.9-11.8-14.9 C13.1,17.5,9.2,24.8,9.2,32.8z"/><path fill="#FFFFFF" d="M62.7,43.8c0,2.7,0.1,5.1,0.2,7.2h-4.3l-0.3-4.3h-0.1c-1.3,2.1-4,4.9-8.8,4.9c-4.2,0-9.1-2.3-9.1-11.6 V24.6h4.8v14.6c0,5,1.5,8.4,5.9,8.4c3.2,0,5.5-2.2,6.3-4.4c0.3-0.7,0.4-1.6,0.4-2.5V24.6h4.8V43.8z"/><path fill="#FFFFFF" d="M67.3,32.8c0-3.1-0.1-5.8-0.2-8.2h4.2l0.2,5.2h0.2c1.2-3.5,4.1-5.8,7.3-5.8c0.5,0,0.9,0.1,1.4,0.2v4.5 c-0.5-0.1-1-0.2-1.6-0.2c-3.4,0-5.8,2.6-6.5,6.2c-0.1,0.7-0.2,1.4-0.2,2.2V51h-4.8V32.8z"/><path fill="#FFFFFF" d="M95.4,51l-9.4-36.8h5l4.4,18.6c1.1,4.6,2.1,9.2,2.7,12.7h0.1c0.6-3.7,1.8-8,3-12.8l4.9-18.5h5l4.5,18.7 c1,4.4,2,8.7,2.6,12.6h0.1c0.8-4,1.8-8.1,3-12.7l4.9-18.5h4.9L120.6,51h-5L111,31.9c-1.1-4.7-1.9-8.3-2.4-12h-0.1 c-0.7,3.7-1.5,7.3-2.8,12L100.4,51H95.4z"/><path fill="#FFFFFF" d="M154.9,37.6c0,9.8-6.8,14-13.2,14c-7.2,0-12.7-5.2-12.7-13.6c0-8.8,5.8-14,13.1-14 C149.8,24,154.9,29.5,154.9,37.6z M133.9,37.9c0,5.8,3.3,10.1,8,10.1c4.6,0,8-4.3,8-10.3c0-4.5-2.2-10.1-7.9-10.1 C136.3,27.6,133.9,32.8,133.9,37.9z"/><path fill="#FFFFFF" d="M158.2,32.8c0-3.1-0.1-5.8-0.2-8.2h4.2l0.2,5.2h0.2c1.2-3.5,4.1-5.8,7.3-5.8c0.5,0,0.9,0.1,1.4,0.2v4.5 c-0.5-0.1-1-0.2-1.6-0.2c-3.4,0-5.8,2.6-6.5,6.2c-0.1,0.7-0.2,1.4-0.2,2.2V51h-4.8V32.8z"/><path fill="#FFFFFF" d="M173.5,12.3h4.8V51h-4.8V12.3z"/><path fill="#FFFFFF" d="M206.5,12.3v31.9c0,2.3,0.1,5,0.2,6.8h-4.3l-0.2-4.6H202c-1.5,2.9-4.7,5.2-9,5.2 c-6.4,0-11.3-5.4-11.3-13.4c-0.1-8.8,5.4-14.2,11.9-14.2c4,0,6.8,1.9,8,4h0.1V12.3H206.5z M201.7,35.4c0-0.6-0.1-1.4-0.2-2 c-0.7-3.1-3.3-5.6-6.9-5.6c-5,0-7.9,4.4-7.9,10.2c0,5.3,2.6,9.8,7.8,9.8c3.2,0,6.2-2.1,7.1-5.7c0.2-0.7,0.2-1.3,0.2-2.1V35.4z"/><path fill="#FFFFFF" d="M42.8,64c0.1,1.6-1.1,2.9-3.1,2.9c-1.7,0-2.9-1.3-2.9-2.9c0-1.7,1.3-3,3-3C41.7,61,42.8,62.3,42.8,64z M37.4,97.8V71.4h4.8v26.4H37.4z"/><path fill="#FFFFFF" d="M47.5,78.6c0-2.7-0.1-5-0.2-7.1h4.3l0.3,4.4h0.1c1.3-2.5,4.4-5,8.8-5c3.7,0,9.4,2.2,9.4,11.2v15.8h-4.8 V82.6c0-4.3-1.6-7.8-6.1-7.8c-3.2,0-5.6,2.2-6.5,4.9c-0.2,0.6-0.3,1.4-0.3,2.2v15.9h-4.8V78.6z"/><path fill="#FFFFFF" d="M84,61.6c2.9-0.4,6.3-0.8,10.1-0.8c6.8,0,11.7,1.6,14.9,4.6c3.3,3,5.2,7.3,5.2,13.2c0,6-1.9,10.9-5.3,14.3 c-3.4,3.4-9.1,5.3-16.3,5.3c-3.4,0-6.2-0.2-8.6-0.4V61.6z M88.8,94.1c1.2,0.2,3,0.3,4.8,0.3c10.2,0,15.7-5.7,15.7-15.6 c0.1-8.7-4.9-14.2-14.9-14.2c-2.5,0-4.3,0.2-5.6,0.5V94.1z"/><path fill="#FFFFFF" d="M132.1,97.8l-0.4-3.3h-0.2c-1.5,2.1-4.3,3.9-8.1,3.9c-5.4,0-8.1-3.8-8.1-7.6c0-6.4,5.7-9.9,15.9-9.8v-0.5 c0-2.2-0.6-6.1-6-6.1c-2.5,0-5,0.8-6.9,2l-1.1-3.2c2.2-1.4,5.4-2.3,8.7-2.3c8.1,0,10.1,5.5,10.1,10.8v9.9c0,2.3,0.1,4.5,0.4,6.3 H132.1z M131.4,84.4c-5.3-0.1-11.2,0.8-11.2,5.9c0,3.1,2.1,4.6,4.5,4.6c3.4,0,5.6-2.2,6.4-4.4c0.2-0.5,0.3-1,0.3-1.5V84.4z"/><path fill="#FFFFFF" d="M146.6,63.9v7.6h6.9v3.7h-6.9v14.2c0,3.3,0.9,5.1,3.6,5.1c1.3,0,2.2-0.2,2.8-0.3l0.2,3.6 c-0.9,0.4-2.4,0.7-4.3,0.7c-2.2,0-4-0.7-5.2-2c-1.4-1.4-1.9-3.8-1.9-6.9V75.1h-4.1v-3.7h4.1v-6.3L146.6,63.9z"/><path fill="#FFFFFF" d="M171.4,97.8l-0.4-3.3h-0.2c-1.5,2.1-4.3,3.9-8.1,3.9c-5.4,0-8.1-3.8-8.1-7.6c0-6.4,5.7-9.9,15.9-9.8v-0.5 c0-2.2-0.6-6.1-6-6.1c-2.5,0-5,0.8-6.9,2l-1.1-3.2c2.2-1.4,5.4-2.3,8.7-2.3c8.1,0,10.1,5.5,10.1,10.8v9.9c0,2.3,0.1,4.5,0.4,6.3 H171.4z M170.7,84.4c-5.3-0.1-11.2,0.8-11.2,5.9c0,3.1,2.1,4.6,4.5,4.6c3.4,0,5.6-2.2,6.4-4.4c0.2-0.5,0.3-1,0.3-1.5V84.4z"/></g></g></a></g><a href="https://ourworldindata.org/grapher/index-of-cereal-production-yield-and-land-use-1961-2014?country=DEU" target="_blank"><text font-size="24.30" x="15.0" y="34.4" fill="#555"><tspan x="15" y="34.44">Index of cereal production, yield and land use, 1961-2014, Germany</tspan></text></a><text font-size="14.40" x="15.0" y="52.8" fill="#666"><tspan x="15" y="52.81999999999999">The index of total cereal production (measured in metric tonnes), cereal yield (kilograms per hectare), and land used</tspan><tspan x="15" y="68.66">for cereal production (hectares). The index is calculated as the production, yield and land use in any given year</tspan><tspan x="15" y="84.5">divided by that in the year 1961 (i.e. 1961 = 100). The index of total population (all ages and genders) relative to</tspan><tspan x="15" y="100.34">1961 is also shown. Trends for individual countries can be viewed using the &quot;change country&quot; wheel.</tspan></text></g><g class="LineChart"><defs><clipPath id="boundsClip-606"><rect x="37.216" y="0" width="830" height="868.6"></rect></clipPath></defs><g class="AxisBoxView"><g class="HorizontalAxis"><text x="47.2" y="556.5" fill="#666" text-anchor="middle" font-size="16.2">1961</text><text x="138.2" y="556.5" fill="#666" text-anchor="middle" font-size="16.2">1970</text><text x="239.4" y="556.5" fill="#666" text-anchor="middle" font-size="16.2">1980</text><text x="340.5" y="556.5" fill="#666" text-anchor="middle" font-size="16.2">1990</text><text x="441.6" y="556.5" fill="#666" text-anchor="middle" font-size="16.2">2000</text><text x="583.2" y="556.5" fill="#666" text-anchor="middle" font-size="16.2">2014</text></g><g class="VerticalAxis"><text x="42.22" y="535.3" fill="#666" dominant-baseline="middle" text-anchor="end" font-size="16.2">0</text><text x="42.22" y="473.3" fill="#666" dominant-baseline="middle" text-anchor="end" font-size="16.2">50</text><text x="42.22" y="411.2" fill="#666" dominant-baseline="middle" text-anchor="end" font-size="16.2">100</text><text x="42.22" y="349.2" fill="#666" dominant-baseline="middle" text-anchor="end" font-size="16.2">150</text><text x="42.22" y="287.2" fill="#666" dominant-baseline="middle" text-anchor="end" font-size="16.2">200</text><text x="42.22" y="225.2" fill="#666" dominant-baseline="middle" text-anchor="end" font-size="16.2">250</text><text x="42.22" y="163.1" fill="#666" dominant-baseline="middle" text-anchor="end" font-size="16.2">300</text></g><g class="AxisGridLines"><line x1="47.22" y1="535.3" x2="583.20" y2="535.3" stroke="#ccc"></line><line x1="47.22" y1="473.3" x2="583.20" y2="473.3" stroke="#ddd" stroke-dasharray="3,2"></line><line x1="47.22" y1="411.2" x2="583.20" y2="411.2" stroke="#ddd" stroke-dasharray="3,2"></line><line x1="47.22" y1="349.2" x2="583.20" y2="349.2" stroke="#ddd" stroke-dasharray="3,2"></line><line x1="47.22" y1="287.2" x2="583.20" y2="287.2" stroke="#ddd" stroke-dasharray="3,2"></line><line x1="47.22" y1="225.2" x2="583.20" y2="225.2" stroke="#ddd" stroke-dasharray="3,2"></line><line x1="47.22" y1="163.1" x2="583.20" y2="163.1" stroke="#ddd" stroke-dasharray="3,2"></line></g><g class="AxisGridLines"><line x1="138.2" y1="535.30" x2="138.2" y2="122.20" stroke="#ddd" stroke-dasharray="3,2"></line><line x1="239.4" y1="535.30" x2="239.4" y2="122.20" stroke="#ddd" stroke-dasharray="3,2"></line><line x1="340.5" y1="535.30" x2="340.5" y2="122.20" stroke="#ddd" stroke-dasharray="3,2"></line><line x1="441.6" y1="535.30" x2="441.6" y2="122.20" stroke="#ddd" stroke-dasharray="3,2"></line><line x1="542.7" y1="535.30" x2="542.7" y2="122.20" stroke="#ddd" stroke-dasharray="3,2"></line></g></g><g clip-path="url(#boundsClip-606)"><g class="HeightedLegend clickable"><g class="legendMark"><rect x="593.1999999999999" y="115" width="129.76800000000003" height="14.4" fill="#fff" opacity="0"></rect><rect x="593.1999999999999" y="120.95" width="10" height="2.5" fill="#674c98"></rect><text font-size="14.40" x="608.2" y="126.5" fill="#333"><tspan x="608.1999999999999" y="126.52000000000001">Cereal yield index</tspan></text></g><g class="legendMark"><rect x="593.1999999999999" y="154.70000000000002" width="167.64000000000001" height="14.4" fill="#fff" opacity="0"></rect><rect x="593.1999999999999" y="160.65" width="10" height="2.5" fill="#e6332e"></rect><text font-size="14.40" x="608.2" y="166.2" fill="#333"><tspan x="608.1999999999999" y="166.22000000000003">Cereal production index</tspan></text></g><g class="legendMark"><rect x="593.1999999999999" y="391.2" width="121.99200000000002" height="14.4" fill="#fff" opacity="0"></rect><rect x="593.1999999999999" y="397.15" width="10" height="2.5" fill="#c8c8c8"></rect><text font-size="14.40" x="608.2" y="402.7" fill="#333"><tspan x="608.1999999999999" y="402.71999999999997">Population index</tspan></text></g><g class="legendMark"><rect x="593.1999999999999" y="416.5" width="241.80000000000004" height="14.4" fill="#fff" opacity="0"></rect><rect x="593.1999999999999" y="422.45" width="10" height="2.5" fill="#a85a4a"></rect><text font-size="14.40" x="608.2" y="428.0" fill="#333"><tspan x="608.1999999999999" y="428.02">Land under cereal production index</tspan></text></g></g><g class="Lines"><rect x="47" y="122" width="536" height="413" fill="rgba(255,255,255,0)" opacity="0"></rect><g class="key-Germany_0"><path stroke="#674c98" stroke-linecap="round" d="M47 411L57 383L67 385L78 375L88 389L98 388L108 357L118 349L128 358L138 372L148 341L159 342L169 337L179 321L189 337L199 355L209 336L219 316L229 324L239 318L250 322L260 301L270 312L280 277L290 275L300 275L310 284L320 270L330 269L341 257L351 228L361 261L371 243L381 236L391 221L401 213L411 203L421 210L432 192L442 204L452 173L462 214L472 240L482 158L492 190L502 203L512 218L523 171L533 166L543 190L553 204L563 178L573 159L583 122" fill="none" stroke-width="1.5"></path><g fill="#674c98"><circle cx="47" cy="411" r="2"></circle><circle cx="57" cy="383" r="2"></circle><circle cx="67" cy="385" r="2"></circle><circle cx="78" cy="375" r="2"></circle><circle cx="88" cy="389" r="2"></circle><circle cx="98" cy="388" r="2"></circle><circle cx="108" cy="357" r="2"></circle><circle cx="118" cy="349" r="2"></circle><circle cx="128" cy="358" r="2"></circle><circle cx="138" cy="372" r="2"></circle><circle cx="148" cy="341" r="2"></circle><circle cx="159" cy="342" r="2"></circle><circle cx="169" cy="337" r="2"></circle><circle cx="179" cy="321" r="2"></circle><circle cx="189" cy="337" r="2"></circle><circle cx="199" cy="355" r="2"></circle><circle cx="209" cy="336" r="2"></circle><circle cx="219" cy="316" r="2"></circle><circle cx="229" cy="324" r="2"></circle><circle cx="239" cy="318" r="2"></circle><circle cx="250" cy="322" r="2"></circle><circle cx="260" cy="301" r="2"></circle><circle cx="270" cy="312" r="2"></circle><circle cx="280" cy="277" r="2"></circle><circle cx="290" cy="275" r="2"></circle><circle cx="300" cy="275" r="2"></circle><circle cx="310" cy="284" r="2"></circle><circle cx="320" cy="270" r="2"></circle><circle cx="330" cy="269" r="2"></circle><circle cx="341" cy="257" r="2"></circle><circle cx="351" cy="228" r="2"></circle><circle cx="361" cy="261" r="2"></circle><circle cx="371" cy="243" r="2"></circle><circle cx="381" cy="236" r="2"></circle><circle cx="391" cy="221" r="2"></circle><circle cx="401" cy="213" r="2"></circle><circle cx="411" cy="203" r="2"></circle><circle cx="421" cy="210" r="2"></circle><circle cx="432" cy="192" r="2"></circle><circle cx="442" cy="204" r="2"></circle><circle cx="452" cy="173" r="2"></circle><circle cx="462" cy="214" r="2"></circle><circle cx="472" cy="240" r="2"></circle><circle cx="482" cy="158" r="2"></circle><circle cx="492" cy="190" r="2"></circle><circle cx="502" cy="203" r="2"></circle><circle cx="512" cy="218" r="2"></circle><circle cx="523" cy="171" r="2"></circle><circle cx="533" cy="166" r="2"></circle><circle cx="543" cy="190" r="2"></circle><circle cx="553" cy="204" r="2"></circle><circle cx="563" cy="178" r="2"></circle><circle cx="573" cy="159" r="2"></circle><circle cx="583" cy="122" r="2"></circle></g></g><g class="key-Germany_1"><path stroke="#c8c8c8" stroke-linecap="round" d="M47 411L57 410L67 409L78 408L88 407L98 406L108 405L118 405L128 404L138 403L148 403L159 402L169 402L179 402L189 402L199 403L209 403L219 403L229 403L239 403L250 403L260 403L270 403L280 404L290 404L300 404L310 404L320 403L330 402L341 401L351 400L361 399L371 398L381 398L391 397L401 397L411 397L421 397L432 397L442 396L452 396L462 396L472 396L482 396L492 396L502 396L512 396L523 397L533 397L543 397L553 400L563 399L573 399L583 398" fill="none" stroke-width="1.5"></path><g fill="#c8c8c8"><circle cx="47" cy="411" r="2"></circle><circle cx="57" cy="410" r="2"></circle><circle cx="67" cy="409" r="2"></circle><circle cx="78" cy="408" r="2"></circle><circle cx="88" cy="407" r="2"></circle><circle cx="98" cy="406" r="2"></circle><circle cx="108" cy="405" r="2"></circle><circle cx="118" cy="405" r="2"></circle><circle cx="128" cy="404" r="2"></circle><circle cx="138" cy="403" r="2"></circle><circle cx="148" cy="403" r="2"></circle><circle cx="159" cy="402" r="2"></circle><circle cx="169" cy="402" r="2"></circle><circle cx="179" cy="402" r="2"></circle><circle cx="189" cy="402" r="2"></circle><circle cx="199" cy="403" r="2"></circle><circle cx="209" cy="403" r="2"></circle><circle cx="219" cy="403" r="2"></circle><circle cx="229" cy="403" r="2"></circle><circle cx="239" cy="403" r="2"></circle><circle cx="250" cy="403" r="2"></circle><circle cx="260" cy="403" r="2"></circle><circle cx="270" cy="403" r="2"></circle><circle cx="280" cy="404" r="2"></circle><circle cx="290" cy="404" r="2"></circle><circle cx="300" cy="404" r="2"></circle><circle cx="310" cy="404" r="2"></circle><circle cx="320" cy="403" r="2"></circle><circle cx="330" cy="402" r="2"></circle><circle cx="341" cy="401" r="2"></circle><circle cx="351" cy="400" r="2"></circle><circle cx="361" cy="399" r="2"></circle><circle cx="371" cy="398" r="2"></circle><circle cx="381" cy="398" r="2"></circle><circle cx="391" cy="397" r="2"></circle><circle cx="401" cy="397" r="2"></circle><circle cx="411" cy="397" r="2"></circle><circle cx="421" cy="397" r="2"></circle><circle cx="432" cy="397" r="2"></circle><circle cx="442" cy="396" r="2"></circle><circle cx="452" cy="396" r="2"></circle><circle cx="462" cy="396" r="2"></circle><circle cx="472" cy="396" r="2"></circle><circle cx="482" cy="396" r="2"></circle><circle cx="492" cy="396" r="2"></circle><circle cx="502" cy="396" r="2"></circle><circle cx="512" cy="396" r="2"></circle><circle cx="523" cy="397" r="2"></circle><circle cx="533" cy="397" r="2"></circle><circle cx="543" cy="397" r="2"></circle><circle cx="553" cy="400" r="2"></circle><circle cx="563" cy="399" r="2"></circle><circle cx="573" cy="399" r="2"></circle><circle cx="583" cy="398" r="2"></circle></g></g><g class="key-Germany_2"><path stroke="#e6332e" stroke-linecap="round" d="M47 411L57 383L67 384L78 372L88 388L98 386L108 353L118 342L128 349L138 364L148 329L159 328L169 322L179 303L189 318L199 339L209 317L219 292L229 307L239 300L250 307L260 286L270 297L280 264L290 265L300 267L310 284L320 270L330 270L341 265L351 253L361 286L371 280L381 274L391 249L401 233L411 208L421 215L432 215L442 210L452 178L462 224L472 253L482 168L492 205L502 223L512 244L523 176L533 177L543 217L553 234L563 209L573 192L583 162" fill="none" stroke-width="1.5"></path><g fill="#e6332e"><circle cx="47" cy="411" r="2"></circle><circle cx="57" cy="383" r="2"></circle><circle cx="67" cy="384" r="2"></circle><circle cx="78" cy="372" r="2"></circle><circle cx="88" cy="388" r="2"></circle><circle cx="98" cy="386" r="2"></circle><circle cx="108" cy="353" r="2"></circle><circle cx="118" cy="342" r="2"></circle><circle cx="128" cy="349" r="2"></circle><circle cx="138" cy="364" r="2"></circle><circle cx="148" cy="329" r="2"></circle><circle cx="159" cy="328" r="2"></circle><circle cx="169" cy="322" r="2"></circle><circle cx="179" cy="303" r="2"></circle><circle cx="189" cy="318" r="2"></circle><circle cx="199" cy="339" r="2"></circle><circle cx="209" cy="317" r="2"></circle><circle cx="219" cy="292" r="2"></circle><circle cx="229" cy="307" r="2"></circle><circle cx="239" cy="300" r="2"></circle><circle cx="250" cy="307" r="2"></circle><circle cx="260" cy="286" r="2"></circle><circle cx="270" cy="297" r="2"></circle><circle cx="280" cy="264" r="2"></circle><circle cx="290" cy="265" r="2"></circle><circle cx="300" cy="267" r="2"></circle><circle cx="310" cy="284" r="2"></circle><circle cx="320" cy="270" r="2"></circle><circle cx="330" cy="270" r="2"></circle><circle cx="341" cy="265" r="2"></circle><circle cx="351" cy="253" r="2"></circle><circle cx="361" cy="286" r="2"></circle><circle cx="371" cy="280" r="2"></circle><circle cx="381" cy="274" r="2"></circle><circle cx="391" cy="249" r="2"></circle><circle cx="401" cy="233" r="2"></circle><circle cx="411" cy="208" r="2"></circle><circle cx="421" cy="215" r="2"></circle><circle cx="432" cy="215" r="2"></circle><circle cx="442" cy="210" r="2"></circle><circle cx="452" cy="178" r="2"></circle><circle cx="462" cy="224" r="2"></circle><circle cx="472" cy="253" r="2"></circle><circle cx="482" cy="168" r="2"></circle><circle cx="492" cy="205" r="2"></circle><circle cx="502" cy="223" r="2"></circle><circle cx="512" cy="244" r="2"></circle><circle cx="523" cy="176" r="2"></circle><circle cx="533" cy="177" r="2"></circle><circle cx="543" cy="217" r="2"></circle><circle cx="553" cy="234" r="2"></circle><circle cx="563" cy="209" r="2"></circle><circle cx="573" cy="192" r="2"></circle><circle cx="583" cy="162" r="2"></circle></g></g><g class="key-Germany_3"><path stroke="#a85a4a" stroke-linecap="round" d="M47 411L57 411L67 411L78 409L88 410L98 410L108 409L118 406L128 405L138 405L148 404L159 403L169 403L179 401L189 400L199 400L209 400L219 399L229 401L239 401L250 403L260 404L270 404L280 405L290 406L300 408L310 411L320 411L330 413L341 415L351 421L361 422L371 427L381 427L391 422L401 419L411 414L421 414L432 420L442 414L452 413L462 415L472 416L482 415L492 416L502 419L512 421L523 413L533 415L543 421L553 422L563 422L573 422L583 424" fill="none" stroke-width="1.5"></path><g fill="#a85a4a"><circle cx="47" cy="411" r="2"></circle><circle cx="57" cy="411" r="2"></circle><circle cx="67" cy="411" r="2"></circle><circle cx="78" cy="409" r="2"></circle><circle cx="88" cy="410" r="2"></circle><circle cx="98" cy="410" r="2"></circle><circle cx="108" cy="409" r="2"></circle><circle cx="118" cy="406" r="2"></circle><circle cx="128" cy="405" r="2"></circle><circle cx="138" cy="405" r="2"></circle><circle cx="148" cy="404" r="2"></circle><circle cx="159" cy="403" r="2"></circle><circle cx="169" cy="403" r="2"></circle><circle cx="179" cy="401" r="2"></circle><circle cx="189" cy="400" r="2"></circle><circle cx="199" cy="400" r="2"></circle><circle cx="209" cy="400" r="2"></circle><circle cx="219" cy="399" r="2"></circle><circle cx="229" cy="401" r="2"></circle><circle cx="239" cy="401" r="2"></circle><circle cx="250" cy="403" r="2"></circle><circle cx="260" cy="404" r="2"></circle><circle cx="270" cy="404" r="2"></circle><circle cx="280" cy="405" r="2"></circle><circle cx="290" cy="406" r="2"></circle><circle cx="300" cy="408" r="2"></circle><circle cx="310" cy="411" r="2"></circle><circle cx="320" cy="411" r="2"></circle><circle cx="330" cy="413" r="2"></circle><circle cx="341" cy="415" r="2"></circle><circle cx="351" cy="421" r="2"></circle><circle cx="361" cy="422" r="2"></circle><circle cx="371" cy="427" r="2"></circle><circle cx="381" cy="427" r="2"></circle><circle cx="391" cy="422" r="2"></circle><circle cx="401" cy="419" r="2"></circle><circle cx="411" cy="414" r="2"></circle><circle cx="421" cy="414" r="2"></circle><circle cx="432" cy="420" r="2"></circle><circle cx="442" cy="414" r="2"></circle><circle cx="452" cy="413" r="2"></circle><circle cx="462" cy="415" r="2"></circle><circle cx="472" cy="416" r="2"></circle><circle cx="482" cy="415" r="2"></circle><circle cx="492" cy="416" r="2"></circle><circle cx="502" cy="419" r="2"></circle><circle cx="512" cy="421" r="2"></circle><circle cx="523" cy="413" r="2"></circle><circle cx="533" cy="415" r="2"></circle><circle cx="543" cy="421" r="2"></circle><circle cx="553" cy="422" r="2"></circle><circle cx="563" cy="422" r="2"></circle><circle cx="573" cy="422" r="2"></circle><circle cx="583" cy="424" r="2"></circle></g></g></g></g></g><g style="fill: #777;" class="SourcesFooter"><g style="fill: #777;" class="clickable"><text font-size="12.60" x="15.0" y="581.6"><tspan x="15" y="581.58">Source: OWID based on World Bank, World Development Indicators (WDI)</tspan></text></g><text font-size="12.60" x="454.6" y="581.6"><tspan x="454.606" y="581.58"><a target='_blank' style='fill: #777;' href='https://ourworldindata.org/yields-and-land-use-in-agriculture/'>OurWorldInData.org/yields-and-land-use-in-agriculture/</a> • <a style="fill: #777;" href="http://creativecommons.org/licenses/by-sa/4.0/deed.en_US" target="_blank">CC BY-SA</a></tspan></text></g></g></svg>