<svg xmlns="http://www.w3.org/2000/svg" version="1.1" style="font-family: 'Helvetica Neue', Helvetica, Arial, sans-serif; font-size: 18px; background-color: white; text-rendering: optimizeLegibility; -webkit-font-smoothing: antialiased;" width="850" height="600"><g class="ChartTab"><g class="HeaderView"><g opacity="0.8" transform="translate(770, 15) scale(0.31)"><a xmlns:xlink="http://www.w3.org/1999/xlink" xlink:href="https://ourworldindata.org" target="_blank"><g><rect x="0" y="0" fill="#1B2543" width="211.2" height="130.1"/><rect x="0" y="112.2" fill="#E63912" width="211.2" height="17.9"/><g><rect x="1.2" y="12.3" fill="none" width="210.2" height="99.2"/><path fill="#FFFFFF" d="M37.8,32.2c0,12.7-7.7,19.4-17.1,19.4c-9.7,0-16.6-7.5-16.6-18.7c0-11.7,7.3-19.3,17.1-19.3 C31.3,13.7,37.8,21.3,37.8,32.2z M9.2,32.8c0,7.9,4.3,14.9,11.8,14.9c7.5,0,11.8-6.9,11.8-15.3c0-7.3-3.8-14.9-11.8-14.9 C13.1,17.5,9.2,24.8,9.2,32.8z"/><path fill="#FFFFFF" d="M62.7,43.8c0,2.7,0.1,5.1,0.2,7.2h-4.3l-0.3-4.3h-0.1c-1.3,2.1-4,4.9-8.8,4.9c-4.2,0-9.1-2.3-9.1-11.6 V24.6h4.8v14.6c0,5,1.5,8.4,5.9,8.4c3.2,0,5.5-2.2,6.3-4.4c0.3-0.7,0.4-1.6,0.4-2.5V24.6h4.8V43.8z"/><path fill="#FFFFFF" d="M67.3,32.8c0-3.1-0.1-5.8-0.2-8.2h4.2l0.2,5.2h0.2c1.2-3.5,4.1-5.8,7.3-5.8c0.5,0,0.9,0.1,1.4,0.2v4.5 c-0.5-0.1-1-0.2-1.6-0.2c-3.4,0-5.8,2.6-6.5,6.2c-0.1,0.7-0.2,1.4-0.2,2.2V51h-4.8V32.8z"/><path fill="#FFFFFF" d="M95.4,51l-9.4-36.8h5l4.4,18.6c1.1,4.6,2.1,9.2,2.7,12.7h0.1c0.6-3.7,1.8-8,3-12.8l4.9-18.5h5l4.5,18.7 c1,4.4,2,8.7,2.6,12.6h0.1c0.8-4,1.8-8.1,3-12.7l4.9-18.5h4.9L120.6,51h-5L111,31.9c-1.1-4.7-1.9-8.3-2.4-12h-0.1 c-0.7,3.7-1.5,7.3-2.8,12L100.4,51H95.4z"/><path fill="#FFFFFF" d="M154.9,37.6c0,9.8-6.8,14-13.2,14c-7.2,0-12.7-5.2-12.7-13.6c0-8.8,5.8-14,13.1-14 C149.8,24,154.9,29.5,154.9,37.6z M133.9,37.9c0,5.8,3.3,10.1,8,10.1c4.6,0,8-4.3,8-10.3c0-4.5-2.2-10.1-7.9-10.1 C136.3,27.6,133.9,32.8,133.9,37.9z"/><path fill="#FFFFFF" d="M158.2,32.8c0-3.1-0.1-5.8-0.2-8.2h4.2l0.2,5.2h0.2c1.2-3.5,4.1-5.8,7.3-5.8c0.5,0,0.9,0.1,1.4,0.2v4.5 c-0.5-0.1-1-0.2-1.6-0.2c-3.4,0-5.8,2.6-6.5,6.2c-0.1,0.7-0.2,1.4-0.2,2.2V51h-4.8V32.8z"/><path fill="#FFFFFF" d="M173.5,12.3h4.8V51h-4.8V12.3z"/><path fill="#FFFFFF" d="M206.5,12.3v31.9c0,2.3,0.1,5,0.2,6.8h-4.3l-0.2-4.6H202c-1.5,2.9-4.7,5.2-9,5.2 c-6.4,0-11.3-5.4-11.3-13.4c-0.1-8.8,5.4-14.2,11.9-14.2c4,0,6.8,1.9,8,4h0.1V12.3H206.5z M201.7,35.4c0-0.6-0.1-1.4-0.2-2 c-0.7-3.1-3.3-5.6-6.9-5.6c-5,0-7.9,4.4-7.9,10.2c0,5.3,2.6,9.8,7.8,9.8c3.2,0,6.2-2.1,7.1-5.7c0.2-0.7,0.2-1.3,0.2-2.1V35.4z"/><path fill="#FFFFFF" d="M42.8,64c0.1,1.6-1.1,2.9-3.1,2.9c-1.7,0-2.9-1.3-2.9-2.9c0-1.7,1.3-3,3-3C41.7,61,42.8,62.3,42.8,64z M37.4,97.8V71.4h4.8v26.4H37.4z"/><path fill="#FFFFFF" d="M47.5,78.6c0-2.7-0.1-5-0.2-7.1h4.3l0.3,4.4h0.1c1.3-2.5,4.4-5,8.8-5c3.7,0,9.4,2.2,9.4,11.2v15.8h-4.8 V82.6c0-4.3-1.6-7.8-6.1-7.8c-3.2,0-5.6,2.2-6.5,4.9c-0.2,0.6-0.3,1.4-0.3,2.2v15.9h-4.8V78.6z"/><path fill="#FFFFFF" d="M84,61.6c2.9-0.4,6.3-0.8,10.1-0.8c6.8,0,11.7,1.6,14.9,4.6c3.3,3,5.2,7.3,5.2,13.2c0,6-1.9,10.9-5.3,14.3 c-3.4,3.4-9.1,5.3-16.3,5.3c-3.4,0-6.2-0.2-8.6-0.4V61.6z M88.8,94.1c1.2,0.2,3,0.3,4.8,0.3c10.2,0,15.7-5.7,15.7-15.6 c0.1-8.7-4.9-14.2-14.9-14.2c-2.5,0-4.3,0.2-5.6,0.5V94.1z"/><path fill="#FFFFFF" d="M132.1,97.8l-0.4-3.3h-0.2c-1.5,2.1-4.3,3.9-8.1,3.9c-5.4,0-8.1-3.8-8.1-7.6c0-6.4,5.7-9.9,15.9-9.8v-0.5 c0-2.2-0.6-6.1-6-6.1c-2.5,0-5,0.8-6.9,2l-1.1-3.2c2.2-1.4,5.4-2.3,8.7-2.3c8.1,0,10.1,5.5,10.1,10.8v9.9c0,2.3,0.1,4.5,0.4,6.3 H132.1z M131.4,84.4c-5.3-0.1-11.2,0.8-11.2,5.9c0,3.1,2.1,4.6,4.5,4.6c3.4,0,5.6-2.2,6.4-4.4c0.2-0.5,0.3-1,0.3-1.5V84.4z"/><path fill="#FFFFFF" d="M146.6,63.9v7.6h6.9v3.7h-6.9v14.2c0,3.3,0.9,5.1,3.6,5.1c1.3,0,2.2-0.2,2.8-0.3l0.2,3.6 c-0.9,0.4-2.4,0.7-4.3,0.7c-2.2,0-4-0.7-5.2-2c-1.4-1.4-1.9-3.8-1.9-6.9V75.1h-4.1v-3.7h4.1v-6.3L146.6,63.9z"/><path fill="#FFFFFF" d="M171.4,97.8l-0.4-3.3h-0.2c-1.5,2.1-4.3,3.9-8.1,3.9c-5.4,0-8.1-3.8-8.1-7.6c0-6.4,5.7-9.9,15.9-9.8v-0.5 c0-2.2-0.6-6.1-6-6.1c-2.5,0-5,0.8-6.9,2l-1.1-3.2c2.2-1.4,5.4-2.3,8.7-2.3c8.1,0,10.1,5.5,10.1,10.8v9.9c0,2.3,0.1,4.5,0.4,6.3 H171.4z M170.7,84.4c-5.3-0.1-11.2,0.8-11.2,5.9c0,3.1,2.1,4.6,4.5,4.6c3.4,0,5.6-2.2,6.4-4.4c0.2-0.5,0.3-1,0.3-1.5V84.4z"/></g></g></a></g><a href="https://ourworldindata.org/grapher/index-of-cereal-production-yield-and-land-use-1961-2014?country=BRA" target="_blank"><text font-size="25.20" x="15.0" y="35.2" fill="#555"><tspan x="15" y="35.160000000000004">Index of cereal production, yield and land use, 1961-2014, Brazil</tspan></text></a><text font-size="14.40" x="15.0" y="53.7" fill="#666"><tspan x="15" y="53.72">The index of total cereal production (measured in metric tonnes), cereal yield (kilograms per hectare), and land used</tspan><tspan x="15" y="69.56">for cereal production (hectares). The index is calculated as the production, yield and land use in any given year</tspan><tspan x="15" y="85.4">divided by that in the year 1961 (i.e. 1961 = 100). The index of total population (all ages and genders) relative to</tspan><tspan x="15" y="101.24000000000001">1961 is also shown. Trends for individual countries can be viewed using the &quot;change country&quot; wheel.</tspan></text></g><g class="LineChart"><defs><clipPath id="boundsClip-603"><rect x="37.216" y="0" width="830" height="866.8"></rect></clipPath></defs><g class="AxisBoxView"><g class="HorizontalAxis"><text x="47.2" y="556.5" fill="#666" text-anchor="middle" font-size="16.2">1961</text><text x="138.2" y="556.5" fill="#666" text-anchor="middle" font-size="16.2">1970</text><text x="239.4" y="556.5" fill="#666" text-anchor="middle" font-size="16.2">1980</text><text x="340.5" y="556.5" fill="#666" text-anchor="middle" font-size="16.2">1990</text><text x="441.6" y="556.5" fill="#666" text-anchor="middle" font-size="16.2">2000</text><text x="583.2" y="556.5" fill="#666" text-anchor="middle" font-size="16.2">2014</text></g><g class="VerticalAxis"><text x="42.22" y="535.3" fill="#666" dominant-baseline="middle" text-anchor="end" font-size="16.2">0</text><text x="42.22" y="474.1" fill="#666" dominant-baseline="middle" text-anchor="end" font-size="16.2">100</text><text x="42.22" y="413" fill="#666" dominant-baseline="middle" text-anchor="end" font-size="16.2">200</text><text x="42.22" y="351.8" fill="#666" dominant-baseline="middle" text-anchor="end" font-size="16.2">300</text><text x="42.22" y="290.7" fill="#666" dominant-baseline="middle" text-anchor="end" font-size="16.2">400</text><text x="42.22" y="229.5" fill="#666" dominant-baseline="middle" text-anchor="end" font-size="16.2">500</text><text x="42.22" y="168.4" fill="#666" dominant-baseline="middle" text-anchor="end" font-size="16.2">600</text></g><g class="AxisGridLines"><line x1="47.22" y1="535.3" x2="583.20" y2="535.3" stroke="#ccc"></line><line x1="47.22" y1="474.1" x2="583.20" y2="474.1" stroke="#ddd" stroke-dasharray="3,2"></line><line x1="47.22" y1="413" x2="583.20" y2="413" stroke="#ddd" stroke-dasharray="3,2"></line><line x1="47.22" y1="351.8" x2="583.20" y2="351.8" stroke="#ddd" stroke-dasharray="3,2"></line><line x1="47.22" y1="290.7" x2="583.20" y2="290.7" stroke="#ddd" stroke-dasharray="3,2"></line><line x1="47.22" y1="229.5" x2="583.20" y2="229.5" stroke="#ddd" stroke-dasharray="3,2"></line><line x1="47.22" y1="168.4" x2="583.20" y2="168.4" stroke="#ddd" stroke-dasharray="3,2"></line></g><g class="AxisGridLines"><line x1="138.2" y1="535.30" x2="138.2" y2="123.10" stroke="#ddd" stroke-dasharray="3,2"></line><line x1="239.4" y1="535.30" x2="239.4" y2="123.10" stroke="#ddd" stroke-dasharray="3,2"></line><line x1="340.5" y1="535.30" x2="340.5" y2="123.10" stroke="#ddd" stroke-dasharray="3,2"></line><line x1="441.6" y1="535.30" x2="441.6" y2="123.10" stroke="#ddd" stroke-dasharray="3,2"></line><line x1="542.7" y1="535.30" x2="542.7" y2="123.10" stroke="#ddd" stroke-dasharray="3,2"></line></g></g><g clip-path="url(#boundsClip-603)"><g class="HeightedLegend clickable"><g class="legendMark"><rect x="593.1999999999999" y="115.89999999999999" width="167.64000000000001" height="14.4" fill="#fff" opacity="0"></rect><rect x="593.1999999999999" y="121.85" width="10" height="2.5" fill="#e6332e"></rect><text font-size="14.40" x="608.2" y="127.4" fill="#333"><tspan x="608.1999999999999" y="127.41999999999999">Cereal production index</tspan></text></g><g class="legendMark"><rect x="593.1999999999999" y="317.1" width="129.76800000000003" height="14.4" fill="#fff" opacity="0"></rect><rect x="593.1999999999999" y="323.05" width="10" height="2.5" fill="#674c98"></rect><text font-size="14.40" x="608.2" y="328.6" fill="#333"><tspan x="608.1999999999999" y="328.62">Cereal yield index</tspan></text></g><g class="legendMark"><rect x="593.1999999999999" y="360.1" width="121.99200000000002" height="14.4" fill="#fff" opacity="0"></rect><rect x="593.1999999999999" y="366.05" width="10" height="2.5" fill="#c8c8c8"></rect><text font-size="14.40" x="608.2" y="371.6" fill="#333"><tspan x="608.1999999999999" y="371.62">Population index</tspan></text></g><g class="legendMark"><rect x="593.1999999999999" y="408.2" width="241.80000000000004" height="14.4" fill="#fff" opacity="0"></rect><rect x="593.1999999999999" y="414.15" width="10" height="2.5" fill="#a85a4a"></rect><text font-size="14.40" x="608.2" y="419.7" fill="#333"><tspan x="608.1999999999999" y="419.71999999999997">Land under cereal production index</tspan></text></g></g><g class="Lines"><rect x="47" y="123" width="536" height="412" fill="rgba(255,255,255,0)" opacity="0"></rect><g class="key-Brazil_0"><path stroke="#674c98" stroke-linecap="round" d="M47 474L57 472L67 475L78 478L88 471L98 475L108 472L118 474L128 476L138 471L148 477L159 476L169 471L179 469L189 474L199 470L209 469L219 480L229 476L239 464L250 462L260 465L270 462L280 459L290 452L300 460L310 450L320 451L330 444L341 456L351 452L361 438L371 428L381 431L391 421L401 419L411 421L421 418L432 412L442 414L452 392L462 406L472 382L482 393L492 404L502 390L512 374L523 361L533 375L543 352L553 352L563 327L573 316L583 324" fill="none" stroke-width="1.5"></path><g fill="#674c98"><circle cx="47" cy="474" r="2"></circle><circle cx="57" cy="472" r="2"></circle><circle cx="67" cy="475" r="2"></circle><circle cx="78" cy="478" r="2"></circle><circle cx="88" cy="471" r="2"></circle><circle cx="98" cy="475" r="2"></circle><circle cx="108" cy="472" r="2"></circle><circle cx="118" cy="474" r="2"></circle><circle cx="128" cy="476" r="2"></circle><circle cx="138" cy="471" r="2"></circle><circle cx="148" cy="477" r="2"></circle><circle cx="159" cy="476" r="2"></circle><circle cx="169" cy="471" r="2"></circle><circle cx="179" cy="469" r="2"></circle><circle cx="189" cy="474" r="2"></circle><circle cx="199" cy="470" r="2"></circle><circle cx="209" cy="469" r="2"></circle><circle cx="219" cy="480" r="2"></circle><circle cx="229" cy="476" r="2"></circle><circle cx="239" cy="464" r="2"></circle><circle cx="250" cy="462" r="2"></circle><circle cx="260" cy="465" r="2"></circle><circle cx="270" cy="462" r="2"></circle><circle cx="280" cy="459" r="2"></circle><circle cx="290" cy="452" r="2"></circle><circle cx="300" cy="460" r="2"></circle><circle cx="310" cy="450" r="2"></circle><circle cx="320" cy="451" r="2"></circle><circle cx="330" cy="444" r="2"></circle><circle cx="341" cy="456" r="2"></circle><circle cx="351" cy="452" r="2"></circle><circle cx="361" cy="438" r="2"></circle><circle cx="371" cy="428" r="2"></circle><circle cx="381" cy="431" r="2"></circle><circle cx="391" cy="421" r="2"></circle><circle cx="401" cy="419" r="2"></circle><circle cx="411" cy="421" r="2"></circle><circle cx="421" cy="418" r="2"></circle><circle cx="432" cy="412" r="2"></circle><circle cx="442" cy="414" r="2"></circle><circle cx="452" cy="392" r="2"></circle><circle cx="462" cy="406" r="2"></circle><circle cx="472" cy="382" r="2"></circle><circle cx="482" cy="393" r="2"></circle><circle cx="492" cy="404" r="2"></circle><circle cx="502" cy="390" r="2"></circle><circle cx="512" cy="374" r="2"></circle><circle cx="523" cy="361" r="2"></circle><circle cx="533" cy="375" r="2"></circle><circle cx="543" cy="352" r="2"></circle><circle cx="553" cy="352" r="2"></circle><circle cx="563" cy="327" r="2"></circle><circle cx="573" cy="316" r="2"></circle><circle cx="583" cy="324" r="2"></circle></g></g><g class="key-Brazil_1"><path stroke="#c8c8c8" stroke-linecap="round" d="M47 474L57 472L67 470L78 469L88 467L98 465L108 463L118 461L128 459L138 457L148 455L159 453L169 451L179 449L189 447L199 445L209 443L219 440L229 438L239 436L250 433L260 431L270 429L280 426L290 424L300 421L310 419L320 417L330 415L341 413L351 410L361 408L371 406L381 404L391 402L401 400L411 398L421 395L432 393L442 391L452 389L462 387L472 385L482 383L492 382L502 380L512 378L523 377L533 375L543 373L553 372L563 370L573 369L583 367" fill="none" stroke-width="1.5"></path><g fill="#c8c8c8"><circle cx="47" cy="474" r="2"></circle><circle cx="57" cy="472" r="2"></circle><circle cx="67" cy="470" r="2"></circle><circle cx="78" cy="469" r="2"></circle><circle cx="88" cy="467" r="2"></circle><circle cx="98" cy="465" r="2"></circle><circle cx="108" cy="463" r="2"></circle><circle cx="118" cy="461" r="2"></circle><circle cx="128" cy="459" r="2"></circle><circle cx="138" cy="457" r="2"></circle><circle cx="148" cy="455" r="2"></circle><circle cx="159" cy="453" r="2"></circle><circle cx="169" cy="451" r="2"></circle><circle cx="179" cy="449" r="2"></circle><circle cx="189" cy="447" r="2"></circle><circle cx="199" cy="445" r="2"></circle><circle cx="209" cy="443" r="2"></circle><circle cx="219" cy="440" r="2"></circle><circle cx="229" cy="438" r="2"></circle><circle cx="239" cy="436" r="2"></circle><circle cx="250" cy="433" r="2"></circle><circle cx="260" cy="431" r="2"></circle><circle cx="270" cy="429" r="2"></circle><circle cx="280" cy="426" r="2"></circle><circle cx="290" cy="424" r="2"></circle><circle cx="300" cy="421" r="2"></circle><circle cx="310" cy="419" r="2"></circle><circle cx="320" cy="417" r="2"></circle><circle cx="330" cy="415" r="2"></circle><circle cx="341" cy="413" r="2"></circle><circle cx="351" cy="410" r="2"></circle><circle cx="361" cy="408" r="2"></circle><circle cx="371" cy="406" r="2"></circle><circle cx="381" cy="404" r="2"></circle><circle cx="391" cy="402" r="2"></circle><circle cx="401" cy="400" r="2"></circle><circle cx="411" cy="398" r="2"></circle><circle cx="421" cy="395" r="2"></circle><circle cx="432" cy="393" r="2"></circle><circle cx="442" cy="391" r="2"></circle><circle cx="452" cy="389" r="2"></circle><circle cx="462" cy="387" r="2"></circle><circle cx="472" cy="385" r="2"></circle><circle cx="482" cy="383" r="2"></circle><circle cx="492" cy="382" r="2"></circle><circle cx="502" cy="380" r="2"></circle><circle cx="512" cy="378" r="2"></circle><circle cx="523" cy="377" r="2"></circle><circle cx="533" cy="375" r="2"></circle><circle cx="543" cy="373" r="2"></circle><circle cx="553" cy="372" r="2"></circle><circle cx="563" cy="370" r="2"></circle><circle cx="573" cy="369" r="2"></circle><circle cx="583" cy="367" r="2"></circle></g></g><g class="key-Brazil_2"><path stroke="#e6332e" stroke-linecap="round" d="M47 474L57 471L67 467L78 468L88 453L98 463L108 453L118 452L128 452L138 439L148 442L159 443L169 439L179 428L189 429L199 409L209 409L219 437L229 425L239 400L250 405L260 398L270 417L280 402L290 389L300 384L310 356L320 361L330 357L341 403L351 386L361 356L371 360L381 349L391 334L401 352L411 353L421 370L432 343L442 349L452 303L462 329L472 261L482 275L492 309L502 295L512 253L523 211L533 247L543 230L553 220L563 170L573 125L583 123" fill="none" stroke-width="1.5"></path><g fill="#e6332e"><circle cx="47" cy="474" r="2"></circle><circle cx="57" cy="471" r="2"></circle><circle cx="67" cy="467" r="2"></circle><circle cx="78" cy="468" r="2"></circle><circle cx="88" cy="453" r="2"></circle><circle cx="98" cy="463" r="2"></circle><circle cx="108" cy="453" r="2"></circle><circle cx="118" cy="452" r="2"></circle><circle cx="128" cy="452" r="2"></circle><circle cx="138" cy="439" r="2"></circle><circle cx="148" cy="442" r="2"></circle><circle cx="159" cy="443" r="2"></circle><circle cx="169" cy="439" r="2"></circle><circle cx="179" cy="428" r="2"></circle><circle cx="189" cy="429" r="2"></circle><circle cx="199" cy="409" r="2"></circle><circle cx="209" cy="409" r="2"></circle><circle cx="219" cy="437" r="2"></circle><circle cx="229" cy="425" r="2"></circle><circle cx="239" cy="400" r="2"></circle><circle cx="250" cy="405" r="2"></circle><circle cx="260" cy="398" r="2"></circle><circle cx="270" cy="417" r="2"></circle><circle cx="280" cy="402" r="2"></circle><circle cx="290" cy="389" r="2"></circle><circle cx="300" cy="384" r="2"></circle><circle cx="310" cy="356" r="2"></circle><circle cx="320" cy="361" r="2"></circle><circle cx="330" cy="357" r="2"></circle><circle cx="341" cy="403" r="2"></circle><circle cx="351" cy="386" r="2"></circle><circle cx="361" cy="356" r="2"></circle><circle cx="371" cy="360" r="2"></circle><circle cx="381" cy="349" r="2"></circle><circle cx="391" cy="334" r="2"></circle><circle cx="401" cy="352" r="2"></circle><circle cx="411" cy="353" r="2"></circle><circle cx="421" cy="370" r="2"></circle><circle cx="432" cy="343" r="2"></circle><circle cx="442" cy="349" r="2"></circle><circle cx="452" cy="303" r="2"></circle><circle cx="462" cy="329" r="2"></circle><circle cx="472" cy="261" r="2"></circle><circle cx="482" cy="275" r="2"></circle><circle cx="492" cy="309" r="2"></circle><circle cx="502" cy="295" r="2"></circle><circle cx="512" cy="253" r="2"></circle><circle cx="523" cy="211" r="2"></circle><circle cx="533" cy="247" r="2"></circle><circle cx="543" cy="230" r="2"></circle><circle cx="553" cy="220" r="2"></circle><circle cx="563" cy="170" r="2"></circle><circle cx="573" cy="125" r="2"></circle><circle cx="583" cy="123" r="2"></circle></g></g><g class="key-Brazil_3"><path stroke="#a85a4a" stroke-linecap="round" d="M47 474L57 472L67 466L78 464L88 457L98 461L108 456L118 453L128 449L138 443L148 439L159 440L169 444L179 437L189 430L199 417L209 419L219 426L229 421L239 420L250 426L260 415L270 436L280 428L290 428L300 412L310 407L320 409L330 415L341 434L351 427L361 423L371 435L381 425L391 427L401 440L411 438L421 449L432 440L442 441L452 436L462 437L472 426L482 423L492 430L502 434L512 428L523 422L533 425L543 433L553 430L563 428L573 421L583 415" fill="none" stroke-width="1.5"></path><g fill="#a85a4a"><circle cx="47" cy="474" r="2"></circle><circle cx="57" cy="472" r="2"></circle><circle cx="67" cy="466" r="2"></circle><circle cx="78" cy="464" r="2"></circle><circle cx="88" cy="457" r="2"></circle><circle cx="98" cy="461" r="2"></circle><circle cx="108" cy="456" r="2"></circle><circle cx="118" cy="453" r="2"></circle><circle cx="128" cy="449" r="2"></circle><circle cx="138" cy="443" r="2"></circle><circle cx="148" cy="439" r="2"></circle><circle cx="159" cy="440" r="2"></circle><circle cx="169" cy="444" r="2"></circle><circle cx="179" cy="437" r="2"></circle><circle cx="189" cy="430" r="2"></circle><circle cx="199" cy="417" r="2"></circle><circle cx="209" cy="419" r="2"></circle><circle cx="219" cy="426" r="2"></circle><circle cx="229" cy="421" r="2"></circle><circle cx="239" cy="420" r="2"></circle><circle cx="250" cy="426" r="2"></circle><circle cx="260" cy="415" r="2"></circle><circle cx="270" cy="436" r="2"></circle><circle cx="280" cy="428" r="2"></circle><circle cx="290" cy="428" r="2"></circle><circle cx="300" cy="412" r="2"></circle><circle cx="310" cy="407" r="2"></circle><circle cx="320" cy="409" r="2"></circle><circle cx="330" cy="415" r="2"></circle><circle cx="341" cy="434" r="2"></circle><circle cx="351" cy="427" r="2"></circle><circle cx="361" cy="423" r="2"></circle><circle cx="371" cy="435" r="2"></circle><circle cx="381" cy="425" r="2"></circle><circle cx="391" cy="427" r="2"></circle><circle cx="401" cy="440" r="2"></circle><circle cx="411" cy="438" r="2"></circle><circle cx="421" cy="449" r="2"></circle><circle cx="432" cy="440" r="2"></circle><circle cx="442" cy="441" r="2"></circle><circle cx="452" cy="436" r="2"></circle><circle cx="462" cy="437" r="2"></circle><circle cx="472" cy="426" r="2"></circle><circle cx="482" cy="423" r="2"></circle><circle cx="492" cy="430" r="2"></circle><circle cx="502" cy="434" r="2"></circle><circle cx="512" cy="428" r="2"></circle><circle cx="523" cy="422" r="2"></circle><circle cx="533" cy="425" r="2"></circle><circle cx="543" cy="433" r="2"></circle><circle cx="553" cy="430" r="2"></circle><circle cx="563" cy="428" r="2"></circle><circle cx="573" cy="421" r="2"></circle><circle cx="583" cy="415" r="2"></circle></g></g></g></g></g><g style="fill: #777;" class="SourcesFooter"><g style="fill: #777;" class="clickable"><text font-size="12.60" x="15.0" y="581.6"><tspan x="15" y="581.58">Source: OWID based on World Bank, World Development Indicators (WDI)</tspan></text></g><text font-size="12.60" x="454.6" y="581.6"><tspan x="454.606" y="581.58"><a target='_blank' style='fill: #777;' href='https://ourworldindata.org/yields-and-land-use-in-agriculture/'>OurWorldInData.org/yields-and-land-use-in-agriculture/</a> • <a style="fill: #777;" href="http://creativecommons.org/licenses/by-sa/4.0/deed.en_US" target="_blank">CC BY-SA</a></tspan></text></g></g></svg>