<svg xmlns="http://www.w3.org/2000/svg" version="1.1" style="font-family: 'Helvetica Neue', Helvetica, Arial, sans-serif; font-size: 18px; background-color: white; text-rendering: optimizeLegibility; -webkit-font-smoothing: antialiased;" width="850" height="600"><g class="ChartTab"><g class="HeaderView"><g opacity="0.8" transform="translate(770, 15) scale(0.31)"><a xmlns:xlink="http://www.w3.org/1999/xlink" xlink:href="https://ourworldindata.org" target="_blank"><g><rect x="0" y="0" fill="#1B2543" width="211.2" height="130.1"/><rect x="0" y="112.2" fill="#E63912" width="211.2" height="17.9"/><g><rect x="1.2" y="12.3" fill="none" width="210.2" height="99.2"/><path fill="#FFFFFF" d="M37.8,32.2c0,12.7-7.7,19.4-17.1,19.4c-9.7,0-16.6-7.5-16.6-18.7c0-11.7,7.3-19.3,17.1-19.3 C31.3,13.7,37.8,21.3,37.8,32.2z M9.2,32.8c0,7.9,4.3,14.9,11.8,14.9c7.5,0,11.8-6.9,11.8-15.3c0-7.3-3.8-14.9-11.8-14.9 C13.1,17.5,9.2,24.8,9.2,32.8z"/><path fill="#FFFFFF" d="M62.7,43.8c0,2.7,0.1,5.1,0.2,7.2h-4.3l-0.3-4.3h-0.1c-1.3,2.1-4,4.9-8.8,4.9c-4.2,0-9.1-2.3-9.1-11.6 V24.6h4.8v14.6c0,5,1.5,8.4,5.9,8.4c3.2,0,5.5-2.2,6.3-4.4c0.3-0.7,0.4-1.6,0.4-2.5V24.6h4.8V43.8z"/><path fill="#FFFFFF" d="M67.3,32.8c0-3.1-0.1-5.8-0.2-8.2h4.2l0.2,5.2h0.2c1.2-3.5,4.1-5.8,7.3-5.8c0.5,0,0.9,0.1,1.4,0.2v4.5 c-0.5-0.1-1-0.2-1.6-0.2c-3.4,0-5.8,2.6-6.5,6.2c-0.1,0.7-0.2,1.4-0.2,2.2V51h-4.8V32.8z"/><path fill="#FFFFFF" d="M95.4,51l-9.4-36.8h5l4.4,18.6c1.1,4.6,2.1,9.2,2.7,12.7h0.1c0.6-3.7,1.8-8,3-12.8l4.9-18.5h5l4.5,18.7 c1,4.4,2,8.7,2.6,12.6h0.1c0.8-4,1.8-8.1,3-12.7l4.9-18.5h4.9L120.6,51h-5L111,31.9c-1.1-4.7-1.9-8.3-2.4-12h-0.1 c-0.7,3.7-1.5,7.3-2.8,12L100.4,51H95.4z"/><path fill="#FFFFFF" d="M154.9,37.6c0,9.8-6.8,14-13.2,14c-7.2,0-12.7-5.2-12.7-13.6c0-8.8,5.8-14,13.1-14 C149.8,24,154.9,29.5,154.9,37.6z M133.9,37.9c0,5.8,3.3,10.1,8,10.1c4.6,0,8-4.3,8-10.3c0-4.5-2.2-10.1-7.9-10.1 C136.3,27.6,133.9,32.8,133.9,37.9z"/><path fill="#FFFFFF" d="M158.2,32.8c0-3.1-0.1-5.8-0.2-8.2h4.2l0.2,5.2h0.2c1.2-3.5,4.1-5.8,7.3-5.8c0.5,0,0.9,0.1,1.4,0.2v4.5 c-0.5-0.1-1-0.2-1.6-0.2c-3.4,0-5.8,2.6-6.5,6.2c-0.1,0.7-0.2,1.4-0.2,2.2V51h-4.8V32.8z"/><path fill="#FFFFFF" d="M173.5,12.3h4.8V51h-4.8V12.3z"/><path fill="#FFFFFF" d="M206.5,12.3v31.9c0,2.3,0.1,5,0.2,6.8h-4.3l-0.2-4.6H202c-1.5,2.9-4.7,5.2-9,5.2 c-6.4,0-11.3-5.4-11.3-13.4c-0.1-8.8,5.4-14.2,11.9-14.2c4,0,6.8,1.9,8,4h0.1V12.3H206.5z M201.7,35.4c0-0.6-0.1-1.4-0.2-2 c-0.7-3.1-3.3-5.6-6.9-5.6c-5,0-7.9,4.4-7.9,10.2c0,5.3,2.6,9.8,7.8,9.8c3.2,0,6.2-2.1,7.1-5.7c0.2-0.7,0.2-1.3,0.2-2.1V35.4z"/><path fill="#FFFFFF" d="M42.8,64c0.1,1.6-1.1,2.9-3.1,2.9c-1.7,0-2.9-1.3-2.9-2.9c0-1.7,1.3-3,3-3C41.7,61,42.8,62.3,42.8,64z M37.4,97.8V71.4h4.8v26.4H37.4z"/><path fill="#FFFFFF" d="M47.5,78.6c0-2.7-0.1-5-0.2-7.1h4.3l0.3,4.4h0.1c1.3-2.5,4.4-5,8.8-5c3.7,0,9.4,2.2,9.4,11.2v15.8h-4.8 V82.6c0-4.3-1.6-7.8-6.1-7.8c-3.2,0-5.6,2.2-6.5,4.9c-0.2,0.6-0.3,1.4-0.3,2.2v15.9h-4.8V78.6z"/><path fill="#FFFFFF" d="M84,61.6c2.9-0.4,6.3-0.8,10.1-0.8c6.8,0,11.7,1.6,14.9,4.6c3.3,3,5.2,7.3,5.2,13.2c0,6-1.9,10.9-5.3,14.3 c-3.4,3.4-9.1,5.3-16.3,5.3c-3.4,0-6.2-0.2-8.6-0.4V61.6z M88.8,94.1c1.2,0.2,3,0.3,4.8,0.3c10.2,0,15.7-5.7,15.7-15.6 c0.1-8.7-4.9-14.2-14.9-14.2c-2.5,0-4.3,0.2-5.6,0.5V94.1z"/><path fill="#FFFFFF" d="M132.1,97.8l-0.4-3.3h-0.2c-1.5,2.1-4.3,3.9-8.1,3.9c-5.4,0-8.1-3.8-8.1-7.6c0-6.4,5.7-9.9,15.9-9.8v-0.5 c0-2.2-0.6-6.1-6-6.1c-2.5,0-5,0.8-6.9,2l-1.1-3.2c2.2-1.4,5.4-2.3,8.7-2.3c8.1,0,10.1,5.5,10.1,10.8v9.9c0,2.3,0.1,4.5,0.4,6.3 H132.1z M131.4,84.4c-5.3-0.1-11.2,0.8-11.2,5.9c0,3.1,2.1,4.6,4.5,4.6c3.4,0,5.6-2.2,6.4-4.4c0.2-0.5,0.3-1,0.3-1.5V84.4z"/><path fill="#FFFFFF" d="M146.6,63.9v7.6h6.9v3.7h-6.9v14.2c0,3.3,0.9,5.1,3.6,5.1c1.3,0,2.2-0.2,2.8-0.3l0.2,3.6 c-0.9,0.4-2.4,0.7-4.3,0.7c-2.2,0-4-0.7-5.2-2c-1.4-1.4-1.9-3.8-1.9-6.9V75.1h-4.1v-3.7h4.1v-6.3L146.6,63.9z"/><path fill="#FFFFFF" d="M171.4,97.8l-0.4-3.3h-0.2c-1.5,2.1-4.3,3.9-8.1,3.9c-5.4,0-8.1-3.8-8.1-7.6c0-6.4,5.7-9.9,15.9-9.8v-0.5 c0-2.2-0.6-6.1-6-6.1c-2.5,0-5,0.8-6.9,2l-1.1-3.2c2.2-1.4,5.4-2.3,8.7-2.3c8.1,0,10.1,5.5,10.1,10.8v9.9c0,2.3,0.1,4.5,0.4,6.3 H171.4z M170.7,84.4c-5.3-0.1-11.2,0.8-11.2,5.9c0,3.1,2.1,4.6,4.5,4.6c3.4,0,5.6-2.2,6.4-4.4c0.2-0.5,0.3-1,0.3-1.5V84.4z"/></g></g></a></g><a href="https://ourworldindata.org/grapher/index-of-cereal-production-yield-and-land-use-1961-2014?country=USA" target="_blank"><text font-size="22.50" x="15.0" y="33.0" fill="#555"><tspan x="15" y="33">Index of cereal production, yield and land use, 1961-2014, United States</tspan></text></a><text font-size="14.40" x="15.0" y="51.0" fill="#666"><tspan x="15" y="51.019999999999996">The index of total cereal production (measured in metric tonnes), cereal yield (kilograms per hectare), and land used</tspan><tspan x="15" y="66.86">for cereal production (hectares). The index is calculated as the production, yield and land use in any given year</tspan><tspan x="15" y="82.7">divided by that in the year 1961 (i.e. 1961 = 100). The index of total population (all ages and genders) relative to</tspan><tspan x="15" y="98.53999999999999">1961 is also shown. Trends for individual countries can be viewed using the &quot;change country&quot; wheel.</tspan></text></g><g class="LineChart"><defs><clipPath id="boundsClip-605"><rect x="37.216" y="0" width="830" height="872.2"></rect></clipPath></defs><g class="AxisBoxView"><g class="HorizontalAxis"><text x="47.2" y="556.5" fill="#666" text-anchor="middle" font-size="16.2">1961</text><text x="138.2" y="556.5" fill="#666" text-anchor="middle" font-size="16.2">1970</text><text x="239.4" y="556.5" fill="#666" text-anchor="middle" font-size="16.2">1980</text><text x="340.5" y="556.5" fill="#666" text-anchor="middle" font-size="16.2">1990</text><text x="441.6" y="556.5" fill="#666" text-anchor="middle" font-size="16.2">2000</text><text x="583.2" y="556.5" fill="#666" text-anchor="middle" font-size="16.2">2014</text></g><g class="VerticalAxis"><text x="42.22" y="535.3" fill="#666" dominant-baseline="middle" text-anchor="end" font-size="16.2">0</text><text x="42.22" y="466.8" fill="#666" dominant-baseline="middle" text-anchor="end" font-size="16.2">50</text><text x="42.22" y="398.4" fill="#666" dominant-baseline="middle" text-anchor="end" font-size="16.2">100</text><text x="42.22" y="329.9" fill="#666" dominant-baseline="middle" text-anchor="end" font-size="16.2">150</text><text x="42.22" y="261.4" fill="#666" dominant-baseline="middle" text-anchor="end" font-size="16.2">200</text><text x="42.22" y="193" fill="#666" dominant-baseline="middle" text-anchor="end" font-size="16.2">250</text><text x="42.22" y="124.5" fill="#666" dominant-baseline="middle" text-anchor="end" font-size="16.2">300</text></g><g class="AxisGridLines"><line x1="47.22" y1="535.3" x2="583.20" y2="535.3" stroke="#ccc"></line><line x1="47.22" y1="466.8" x2="583.20" y2="466.8" stroke="#ddd" stroke-dasharray="3,2"></line><line x1="47.22" y1="398.4" x2="583.20" y2="398.4" stroke="#ddd" stroke-dasharray="3,2"></line><line x1="47.22" y1="329.9" x2="583.20" y2="329.9" stroke="#ddd" stroke-dasharray="3,2"></line><line x1="47.22" y1="261.4" x2="583.20" y2="261.4" stroke="#ddd" stroke-dasharray="3,2"></line><line x1="47.22" y1="193" x2="583.20" y2="193" stroke="#ddd" stroke-dasharray="3,2"></line><line x1="47.22" y1="124.5" x2="583.20" y2="124.5" stroke="#ddd" stroke-dasharray="3,2"></line></g><g class="AxisGridLines"><line x1="138.2" y1="535.30" x2="138.2" y2="120.40" stroke="#ddd" stroke-dasharray="3,2"></line><line x1="239.4" y1="535.30" x2="239.4" y2="120.40" stroke="#ddd" stroke-dasharray="3,2"></line><line x1="340.5" y1="535.30" x2="340.5" y2="120.40" stroke="#ddd" stroke-dasharray="3,2"></line><line x1="441.6" y1="535.30" x2="441.6" y2="120.40" stroke="#ddd" stroke-dasharray="3,2"></line><line x1="542.7" y1="535.30" x2="542.7" y2="120.40" stroke="#ddd" stroke-dasharray="3,2"></line></g></g><g clip-path="url(#boundsClip-605)"><g class="HeightedLegend clickable"><g class="legendMark"><rect x="593.1999999999999" y="113.2" width="129.76800000000003" height="14.4" fill="#fff" opacity="0"></rect><rect x="593.1999999999999" y="119.15" width="10" height="2.5" fill="#674c98"></rect><text font-size="14.40" x="608.2" y="124.7" fill="#333"><tspan x="608.1999999999999" y="124.72000000000001">Cereal yield index</tspan></text></g><g class="legendMark"><rect x="593.1999999999999" y="157" width="167.64000000000001" height="14.4" fill="#fff" opacity="0"></rect><rect x="593.1999999999999" y="162.95" width="10" height="2.5" fill="#e6332e"></rect><text font-size="14.40" x="608.2" y="168.5" fill="#333"><tspan x="608.1999999999999" y="168.52">Cereal production index</tspan></text></g><g class="legendMark"><rect x="593.1999999999999" y="290.6" width="121.99200000000002" height="14.4" fill="#fff" opacity="0"></rect><rect x="593.1999999999999" y="296.55" width="10" height="2.5" fill="#c8c8c8"></rect><text font-size="14.40" x="608.2" y="302.1" fill="#333"><tspan x="608.1999999999999" y="302.12">Population index</tspan></text></g><g class="legendMark"><rect x="593.1999999999999" y="406.2" width="241.80000000000004" height="14.4" fill="#fff" opacity="0"></rect><rect x="593.1999999999999" y="412.15" width="10" height="2.5" fill="#a85a4a"></rect><text font-size="14.40" x="608.2" y="417.7" fill="#333"><tspan x="608.1999999999999" y="417.71999999999997">Land under cereal production index</tspan></text></g></g><g class="Lines"><rect x="47" y="120" width="536" height="415" fill="rgba(255,255,255,0)" opacity="0"></rect><g class="key-United-States_0"><path stroke="#674c98" stroke-linecap="round" d="M47 398L57 390L67 383L78 392L88 370L98 371L108 364L118 361L128 348L138 364L148 333L159 323L169 335L179 372L189 348L199 344L209 335L219 312L229 296L239 330L250 304L260 298L270 344L280 298L290 277L300 281L310 278L320 334L330 293L341 277L351 290L361 245L371 303L381 234L391 283L401 255L411 249L421 227L432 225L442 218L452 215L462 234L472 208L482 163L492 185L502 188L512 171L523 177L533 142L543 156L553 166L563 214L573 138L583 120" fill="none" stroke-width="1.5"></path><g fill="#674c98"><circle cx="47" cy="398" r="2"></circle><circle cx="57" cy="390" r="2"></circle><circle cx="67" cy="383" r="2"></circle><circle cx="78" cy="392" r="2"></circle><circle cx="88" cy="370" r="2"></circle><circle cx="98" cy="371" r="2"></circle><circle cx="108" cy="364" r="2"></circle><circle cx="118" cy="361" r="2"></circle><circle cx="128" cy="348" r="2"></circle><circle cx="138" cy="364" r="2"></circle><circle cx="148" cy="333" r="2"></circle><circle cx="159" cy="323" r="2"></circle><circle cx="169" cy="335" r="2"></circle><circle cx="179" cy="372" r="2"></circle><circle cx="189" cy="348" r="2"></circle><circle cx="199" cy="344" r="2"></circle><circle cx="209" cy="335" r="2"></circle><circle cx="219" cy="312" r="2"></circle><circle cx="229" cy="296" r="2"></circle><circle cx="239" cy="330" r="2"></circle><circle cx="250" cy="304" r="2"></circle><circle cx="260" cy="298" r="2"></circle><circle cx="270" cy="344" r="2"></circle><circle cx="280" cy="298" r="2"></circle><circle cx="290" cy="277" r="2"></circle><circle cx="300" cy="281" r="2"></circle><circle cx="310" cy="278" r="2"></circle><circle cx="320" cy="334" r="2"></circle><circle cx="330" cy="293" r="2"></circle><circle cx="341" cy="277" r="2"></circle><circle cx="351" cy="290" r="2"></circle><circle cx="361" cy="245" r="2"></circle><circle cx="371" cy="303" r="2"></circle><circle cx="381" cy="234" r="2"></circle><circle cx="391" cy="283" r="2"></circle><circle cx="401" cy="255" r="2"></circle><circle cx="411" cy="249" r="2"></circle><circle cx="421" cy="227" r="2"></circle><circle cx="432" cy="225" r="2"></circle><circle cx="442" cy="218" r="2"></circle><circle cx="452" cy="215" r="2"></circle><circle cx="462" cy="234" r="2"></circle><circle cx="472" cy="208" r="2"></circle><circle cx="482" cy="163" r="2"></circle><circle cx="492" cy="185" r="2"></circle><circle cx="502" cy="188" r="2"></circle><circle cx="512" cy="171" r="2"></circle><circle cx="523" cy="177" r="2"></circle><circle cx="533" cy="142" r="2"></circle><circle cx="543" cy="156" r="2"></circle><circle cx="553" cy="166" r="2"></circle><circle cx="563" cy="214" r="2"></circle><circle cx="573" cy="138" r="2"></circle><circle cx="583" cy="120" r="2"></circle></g></g><g class="key-United-States_1"><path stroke="#c8c8c8" stroke-linecap="round" d="M47 398L57 396L67 394L78 392L88 391L98 389L108 387L118 386L128 384L138 382L148 381L159 379L169 377L179 376L189 374L199 373L209 371L219 369L229 368L239 366L250 364L260 363L270 361L280 360L290 358L300 356L310 355L320 353L330 351L341 349L351 347L361 344L371 342L381 339L391 337L401 335L411 332L421 330L432 327L442 325L452 323L462 321L472 319L482 317L492 315L502 313L512 311L523 309L533 307L543 305L553 303L563 301L573 300L583 298" fill="none" stroke-width="1.5"></path><g fill="#c8c8c8"><circle cx="47" cy="398" r="2"></circle><circle cx="57" cy="396" r="2"></circle><circle cx="67" cy="394" r="2"></circle><circle cx="78" cy="392" r="2"></circle><circle cx="88" cy="391" r="2"></circle><circle cx="98" cy="389" r="2"></circle><circle cx="108" cy="387" r="2"></circle><circle cx="118" cy="386" r="2"></circle><circle cx="128" cy="384" r="2"></circle><circle cx="138" cy="382" r="2"></circle><circle cx="148" cy="381" r="2"></circle><circle cx="159" cy="379" r="2"></circle><circle cx="169" cy="377" r="2"></circle><circle cx="179" cy="376" r="2"></circle><circle cx="189" cy="374" r="2"></circle><circle cx="199" cy="373" r="2"></circle><circle cx="209" cy="371" r="2"></circle><circle cx="219" cy="369" r="2"></circle><circle cx="229" cy="368" r="2"></circle><circle cx="239" cy="366" r="2"></circle><circle cx="250" cy="364" r="2"></circle><circle cx="260" cy="363" r="2"></circle><circle cx="270" cy="361" r="2"></circle><circle cx="280" cy="360" r="2"></circle><circle cx="290" cy="358" r="2"></circle><circle cx="300" cy="356" r="2"></circle><circle cx="310" cy="355" r="2"></circle><circle cx="320" cy="353" r="2"></circle><circle cx="330" cy="351" r="2"></circle><circle cx="341" cy="349" r="2"></circle><circle cx="351" cy="347" r="2"></circle><circle cx="361" cy="344" r="2"></circle><circle cx="371" cy="342" r="2"></circle><circle cx="381" cy="339" r="2"></circle><circle cx="391" cy="337" r="2"></circle><circle cx="401" cy="335" r="2"></circle><circle cx="411" cy="332" r="2"></circle><circle cx="421" cy="330" r="2"></circle><circle cx="432" cy="327" r="2"></circle><circle cx="442" cy="325" r="2"></circle><circle cx="452" cy="323" r="2"></circle><circle cx="462" cy="321" r="2"></circle><circle cx="472" cy="319" r="2"></circle><circle cx="482" cy="317" r="2"></circle><circle cx="492" cy="315" r="2"></circle><circle cx="502" cy="313" r="2"></circle><circle cx="512" cy="311" r="2"></circle><circle cx="523" cy="309" r="2"></circle><circle cx="533" cy="307" r="2"></circle><circle cx="543" cy="305" r="2"></circle><circle cx="553" cy="303" r="2"></circle><circle cx="563" cy="301" r="2"></circle><circle cx="573" cy="300" r="2"></circle><circle cx="583" cy="298" r="2"></circle></g></g><g class="key-United-States_2"><path stroke="#e6332e" stroke-linecap="round" d="M47 398L57 400L67 389L78 401L88 382L98 381L108 361L118 366L128 364L138 379L148 337L159 345L169 337L179 364L189 327L199 319L209 312L219 304L229 282L239 309L250 259L260 256L270 361L280 272L290 245L300 271L310 301L320 363L330 297L341 274L351 301L361 240L371 319L381 237L391 303L401 255L411 253L421 242L432 255L442 249L452 263L462 286L472 244L482 209L492 229L502 252L512 188L523 197L533 185L543 200L553 212L563 237L573 172L583 164" fill="none" stroke-width="1.5"></path><g fill="#e6332e"><circle cx="47" cy="398" r="2"></circle><circle cx="57" cy="400" r="2"></circle><circle cx="67" cy="389" r="2"></circle><circle cx="78" cy="401" r="2"></circle><circle cx="88" cy="382" r="2"></circle><circle cx="98" cy="381" r="2"></circle><circle cx="108" cy="361" r="2"></circle><circle cx="118" cy="366" r="2"></circle><circle cx="128" cy="364" r="2"></circle><circle cx="138" cy="379" r="2"></circle><circle cx="148" cy="337" r="2"></circle><circle cx="159" cy="345" r="2"></circle><circle cx="169" cy="337" r="2"></circle><circle cx="179" cy="364" r="2"></circle><circle cx="189" cy="327" r="2"></circle><circle cx="199" cy="319" r="2"></circle><circle cx="209" cy="312" r="2"></circle><circle cx="219" cy="304" r="2"></circle><circle cx="229" cy="282" r="2"></circle><circle cx="239" cy="309" r="2"></circle><circle cx="250" cy="259" r="2"></circle><circle cx="260" cy="256" r="2"></circle><circle cx="270" cy="361" r="2"></circle><circle cx="280" cy="272" r="2"></circle><circle cx="290" cy="245" r="2"></circle><circle cx="300" cy="271" r="2"></circle><circle cx="310" cy="301" r="2"></circle><circle cx="320" cy="363" r="2"></circle><circle cx="330" cy="297" r="2"></circle><circle cx="341" cy="274" r="2"></circle><circle cx="351" cy="301" r="2"></circle><circle cx="361" cy="240" r="2"></circle><circle cx="371" cy="319" r="2"></circle><circle cx="381" cy="237" r="2"></circle><circle cx="391" cy="303" r="2"></circle><circle cx="401" cy="255" r="2"></circle><circle cx="411" cy="253" r="2"></circle><circle cx="421" cy="242" r="2"></circle><circle cx="432" cy="255" r="2"></circle><circle cx="442" cy="249" r="2"></circle><circle cx="452" cy="263" r="2"></circle><circle cx="462" cy="286" r="2"></circle><circle cx="472" cy="244" r="2"></circle><circle cx="482" cy="209" r="2"></circle><circle cx="492" cy="229" r="2"></circle><circle cx="502" cy="252" r="2"></circle><circle cx="512" cy="188" r="2"></circle><circle cx="523" cy="197" r="2"></circle><circle cx="533" cy="185" r="2"></circle><circle cx="543" cy="200" r="2"></circle><circle cx="553" cy="212" r="2"></circle><circle cx="563" cy="237" r="2"></circle><circle cx="573" cy="172" r="2"></circle><circle cx="583" cy="164" r="2"></circle></g></g><g class="key-United-States_3"><path stroke="#a85a4a" stroke-linecap="round" d="M47 398L57 408L67 404L78 407L88 408L98 407L108 396L118 403L128 411L138 411L148 401L159 412L169 400L179 392L189 383L199 381L209 383L219 393L229 392L239 385L250 371L260 375L270 411L280 383L290 382L300 394L310 411L320 418L330 401L341 397L351 404L361 396L371 408L381 400L391 409L401 398L411 401L421 405L432 412L442 412L452 419L462 422L472 413L482 415L492 415L502 424L512 405L523 407L533 413L543 413L553 416L563 408L573 409L583 413" fill="none" stroke-width="1.5"></path><g fill="#a85a4a"><circle cx="47" cy="398" r="2"></circle><circle cx="57" cy="408" r="2"></circle><circle cx="67" cy="404" r="2"></circle><circle cx="78" cy="407" r="2"></circle><circle cx="88" cy="408" r="2"></circle><circle cx="98" cy="407" r="2"></circle><circle cx="108" cy="396" r="2"></circle><circle cx="118" cy="403" r="2"></circle><circle cx="128" cy="411" r="2"></circle><circle cx="138" cy="411" r="2"></circle><circle cx="148" cy="401" r="2"></circle><circle cx="159" cy="412" r="2"></circle><circle cx="169" cy="400" r="2"></circle><circle cx="179" cy="392" r="2"></circle><circle cx="189" cy="383" r="2"></circle><circle cx="199" cy="381" r="2"></circle><circle cx="209" cy="383" r="2"></circle><circle cx="219" cy="393" r="2"></circle><circle cx="229" cy="392" r="2"></circle><circle cx="239" cy="385" r="2"></circle><circle cx="250" cy="371" r="2"></circle><circle cx="260" cy="375" r="2"></circle><circle cx="270" cy="411" r="2"></circle><circle cx="280" cy="383" r="2"></circle><circle cx="290" cy="382" r="2"></circle><circle cx="300" cy="394" r="2"></circle><circle cx="310" cy="411" r="2"></circle><circle cx="320" cy="418" r="2"></circle><circle cx="330" cy="401" r="2"></circle><circle cx="341" cy="397" r="2"></circle><circle cx="351" cy="404" r="2"></circle><circle cx="361" cy="396" r="2"></circle><circle cx="371" cy="408" r="2"></circle><circle cx="381" cy="400" r="2"></circle><circle cx="391" cy="409" r="2"></circle><circle cx="401" cy="398" r="2"></circle><circle cx="411" cy="401" r="2"></circle><circle cx="421" cy="405" r="2"></circle><circle cx="432" cy="412" r="2"></circle><circle cx="442" cy="412" r="2"></circle><circle cx="452" cy="419" r="2"></circle><circle cx="462" cy="422" r="2"></circle><circle cx="472" cy="413" r="2"></circle><circle cx="482" cy="415" r="2"></circle><circle cx="492" cy="415" r="2"></circle><circle cx="502" cy="424" r="2"></circle><circle cx="512" cy="405" r="2"></circle><circle cx="523" cy="407" r="2"></circle><circle cx="533" cy="413" r="2"></circle><circle cx="543" cy="413" r="2"></circle><circle cx="553" cy="416" r="2"></circle><circle cx="563" cy="408" r="2"></circle><circle cx="573" cy="409" r="2"></circle><circle cx="583" cy="413" r="2"></circle></g></g></g></g></g><g style="fill: #777;" class="SourcesFooter"><g style="fill: #777;" class="clickable"><text font-size="12.60" x="15.0" y="581.6"><tspan x="15" y="581.58">Source: OWID based on World Bank, World Development Indicators (WDI)</tspan></text></g><text font-size="12.60" x="454.6" y="581.6"><tspan x="454.606" y="581.58"><a target='_blank' style='fill: #777;' href='https://ourworldindata.org/yields-and-land-use-in-agriculture/'>OurWorldInData.org/yields-and-land-use-in-agriculture/</a> • <a style="fill: #777;" href="http://creativecommons.org/licenses/by-sa/4.0/deed.en_US" target="_blank">CC BY-SA</a></tspan></text></g></g></svg>