<svg xmlns="http://www.w3.org/2000/svg" version="1.1" style="font-family: 'Helvetica Neue', Helvetica, Arial, sans-serif; font-size: 18px; background-color: white; text-rendering: optimizeLegibility; -webkit-font-smoothing: antialiased;" width="850" height="600"><g class="ChartTab"><g class="HeaderView"><g opacity="0.8" transform="translate(770, 15) scale(0.31)"><a xmlns:xlink="http://www.w3.org/1999/xlink" xlink:href="https://ourworldindata.org" target="_blank"><g><rect x="0" y="0" fill="#1B2543" width="211.2" height="130.1"/><rect x="0" y="112.2" fill="#E63912" width="211.2" height="17.9"/><g><rect x="1.2" y="12.3" fill="none" width="210.2" height="99.2"/><path fill="#FFFFFF" d="M37.8,32.2c0,12.7-7.7,19.4-17.1,19.4c-9.7,0-16.6-7.5-16.6-18.7c0-11.7,7.3-19.3,17.1-19.3 C31.3,13.7,37.8,21.3,37.8,32.2z M9.2,32.8c0,7.9,4.3,14.9,11.8,14.9c7.5,0,11.8-6.9,11.8-15.3c0-7.3-3.8-14.9-11.8-14.9 C13.1,17.5,9.2,24.8,9.2,32.8z"/><path fill="#FFFFFF" d="M62.7,43.8c0,2.7,0.1,5.1,0.2,7.2h-4.3l-0.3-4.3h-0.1c-1.3,2.1-4,4.9-8.8,4.9c-4.2,0-9.1-2.3-9.1-11.6 V24.6h4.8v14.6c0,5,1.5,8.4,5.9,8.4c3.2,0,5.5-2.2,6.3-4.4c0.3-0.7,0.4-1.6,0.4-2.5V24.6h4.8V43.8z"/><path fill="#FFFFFF" d="M67.3,32.8c0-3.1-0.1-5.8-0.2-8.2h4.2l0.2,5.2h0.2c1.2-3.5,4.1-5.8,7.3-5.8c0.5,0,0.9,0.1,1.4,0.2v4.5 c-0.5-0.1-1-0.2-1.6-0.2c-3.4,0-5.8,2.6-6.5,6.2c-0.1,0.7-0.2,1.4-0.2,2.2V51h-4.8V32.8z"/><path fill="#FFFFFF" d="M95.4,51l-9.4-36.8h5l4.4,18.6c1.1,4.6,2.1,9.2,2.7,12.7h0.1c0.6-3.7,1.8-8,3-12.8l4.9-18.5h5l4.5,18.7 c1,4.4,2,8.7,2.6,12.6h0.1c0.8-4,1.8-8.1,3-12.7l4.9-18.5h4.9L120.6,51h-5L111,31.9c-1.1-4.7-1.9-8.3-2.4-12h-0.1 c-0.7,3.7-1.5,7.3-2.8,12L100.4,51H95.4z"/><path fill="#FFFFFF" d="M154.9,37.6c0,9.8-6.8,14-13.2,14c-7.2,0-12.7-5.2-12.7-13.6c0-8.8,5.8-14,13.1-14 C149.8,24,154.9,29.5,154.9,37.6z M133.9,37.9c0,5.8,3.3,10.1,8,10.1c4.6,0,8-4.3,8-10.3c0-4.5-2.2-10.1-7.9-10.1 C136.3,27.6,133.9,32.8,133.9,37.9z"/><path fill="#FFFFFF" d="M158.2,32.8c0-3.1-0.1-5.8-0.2-8.2h4.2l0.2,5.2h0.2c1.2-3.5,4.1-5.8,7.3-5.8c0.5,0,0.9,0.1,1.4,0.2v4.5 c-0.5-0.1-1-0.2-1.6-0.2c-3.4,0-5.8,2.6-6.5,6.2c-0.1,0.7-0.2,1.4-0.2,2.2V51h-4.8V32.8z"/><path fill="#FFFFFF" d="M173.5,12.3h4.8V51h-4.8V12.3z"/><path fill="#FFFFFF" d="M206.5,12.3v31.9c0,2.3,0.1,5,0.2,6.8h-4.3l-0.2-4.6H202c-1.5,2.9-4.7,5.2-9,5.2 c-6.4,0-11.3-5.4-11.3-13.4c-0.1-8.8,5.4-14.2,11.9-14.2c4,0,6.8,1.9,8,4h0.1V12.3H206.5z M201.7,35.4c0-0.6-0.1-1.4-0.2-2 c-0.7-3.1-3.3-5.6-6.9-5.6c-5,0-7.9,4.4-7.9,10.2c0,5.3,2.6,9.8,7.8,9.8c3.2,0,6.2-2.1,7.1-5.7c0.2-0.7,0.2-1.3,0.2-2.1V35.4z"/><path fill="#FFFFFF" d="M42.8,64c0.1,1.6-1.1,2.9-3.1,2.9c-1.7,0-2.9-1.3-2.9-2.9c0-1.7,1.3-3,3-3C41.7,61,42.8,62.3,42.8,64z M37.4,97.8V71.4h4.8v26.4H37.4z"/><path fill="#FFFFFF" d="M47.5,78.6c0-2.7-0.1-5-0.2-7.1h4.3l0.3,4.4h0.1c1.3-2.5,4.4-5,8.8-5c3.7,0,9.4,2.2,9.4,11.2v15.8h-4.8 V82.6c0-4.3-1.6-7.8-6.1-7.8c-3.2,0-5.6,2.2-6.5,4.9c-0.2,0.6-0.3,1.4-0.3,2.2v15.9h-4.8V78.6z"/><path fill="#FFFFFF" d="M84,61.6c2.9-0.4,6.3-0.8,10.1-0.8c6.8,0,11.7,1.6,14.9,4.6c3.3,3,5.2,7.3,5.2,13.2c0,6-1.9,10.9-5.3,14.3 c-3.4,3.4-9.1,5.3-16.3,5.3c-3.4,0-6.2-0.2-8.6-0.4V61.6z M88.8,94.1c1.2,0.2,3,0.3,4.8,0.3c10.2,0,15.7-5.7,15.7-15.6 c0.1-8.7-4.9-14.2-14.9-14.2c-2.5,0-4.3,0.2-5.6,0.5V94.1z"/><path fill="#FFFFFF" d="M132.1,97.8l-0.4-3.3h-0.2c-1.5,2.1-4.3,3.9-8.1,3.9c-5.4,0-8.1-3.8-8.1-7.6c0-6.4,5.7-9.9,15.9-9.8v-0.5 c0-2.2-0.6-6.1-6-6.1c-2.5,0-5,0.8-6.9,2l-1.1-3.2c2.2-1.4,5.4-2.3,8.7-2.3c8.1,0,10.1,5.5,10.1,10.8v9.9c0,2.3,0.1,4.5,0.4,6.3 H132.1z M131.4,84.4c-5.3-0.1-11.2,0.8-11.2,5.9c0,3.1,2.1,4.6,4.5,4.6c3.4,0,5.6-2.2,6.4-4.4c0.2-0.5,0.3-1,0.3-1.5V84.4z"/><path fill="#FFFFFF" d="M146.6,63.9v7.6h6.9v3.7h-6.9v14.2c0,3.3,0.9,5.1,3.6,5.1c1.3,0,2.2-0.2,2.8-0.3l0.2,3.6 c-0.9,0.4-2.4,0.7-4.3,0.7c-2.2,0-4-0.7-5.2-2c-1.4-1.4-1.9-3.8-1.9-6.9V75.1h-4.1v-3.7h4.1v-6.3L146.6,63.9z"/><path fill="#FFFFFF" d="M171.4,97.8l-0.4-3.3h-0.2c-1.5,2.1-4.3,3.9-8.1,3.9c-5.4,0-8.1-3.8-8.1-7.6c0-6.4,5.7-9.9,15.9-9.8v-0.5 c0-2.2-0.6-6.1-6-6.1c-2.5,0-5,0.8-6.9,2l-1.1-3.2c2.2-1.4,5.4-2.3,8.7-2.3c8.1,0,10.1,5.5,10.1,10.8v9.9c0,2.3,0.1,4.5,0.4,6.3 H171.4z M170.7,84.4c-5.3-0.1-11.2,0.8-11.2,5.9c0,3.1,2.1,4.6,4.5,4.6c3.4,0,5.6-2.2,6.4-4.4c0.2-0.5,0.3-1,0.3-1.5V84.4z"/></g></g></a></g><a href="https://ourworldindata.org/grapher/inequality-of-life-as-measured-by-mortality-gini-coefficient-1742-2002?country=England%20and%20Wales+DEU+SWE+USA" target="_blank"><text font-size="23.40" x="15.0" y="33.7" fill="#555"><tspan x="15" y="33.72">Inequality of life as measured by mortality Gini coefficient, 1742-2002</tspan></text></a></g><g class="LineChart"><defs><clipPath id="boundsClip-1"><rect x="32.68" y="0" width="830" height="963"></rect></clipPath></defs><g class="AxisBoxView"><g class="HorizontalAxis"><text x="42.7" y="556.5" fill="#666" text-anchor="middle" font-size="16.2">1742</text><text x="185.9" y="556.5" fill="#666" text-anchor="middle" font-size="16.2">1800</text><text x="309.3" y="556.5" fill="#666" text-anchor="middle" font-size="16.2">1850</text><text x="432.8" y="556.5" fill="#666" text-anchor="middle" font-size="16.2">1900</text><text x="556.2" y="556.5" fill="#666" text-anchor="middle" font-size="16.2">1950</text><text x="684.6" y="556.5" fill="#666" text-anchor="middle" font-size="16.2">2002</text></g><g class="VerticalAxis"><text x="37.68" y="535.3" fill="#666" dominant-baseline="middle" text-anchor="end" font-size="16.2">0</text><text x="37.68" y="452.6" fill="#666" dominant-baseline="middle" text-anchor="end" font-size="16.2">0.1</text><text x="37.68" y="369.8" fill="#666" dominant-baseline="middle" text-anchor="end" font-size="16.2">0.2</text><text x="37.68" y="287.1" fill="#666" dominant-baseline="middle" text-anchor="end" font-size="16.2">0.3</text><text x="37.68" y="204.4" fill="#666" dominant-baseline="middle" text-anchor="end" font-size="16.2">0.4</text><text x="37.68" y="121.7" fill="#666" dominant-baseline="middle" text-anchor="end" font-size="16.2">0.5</text></g><g class="AxisGridLines"><line x1="42.68" y1="535.3" x2="684.58" y2="535.3" stroke="#ccc"></line><line x1="42.68" y1="452.6" x2="684.58" y2="452.6" stroke="#ddd" stroke-dasharray="3,2"></line><line x1="42.68" y1="369.8" x2="684.58" y2="369.8" stroke="#ddd" stroke-dasharray="3,2"></line><line x1="42.68" y1="287.1" x2="684.58" y2="287.1" stroke="#ddd" stroke-dasharray="3,2"></line><line x1="42.68" y1="204.4" x2="684.58" y2="204.4" stroke="#ddd" stroke-dasharray="3,2"></line><line x1="42.68" y1="121.7" x2="684.58" y2="121.7" stroke="#ddd" stroke-dasharray="3,2"></line></g><g class="AxisGridLines"><line x1="62.4" y1="535.30" x2="62.4" y2="75.00" stroke="#ddd" stroke-dasharray="3,2"></line><line x1="185.9" y1="535.30" x2="185.9" y2="75.00" stroke="#ddd" stroke-dasharray="3,2"></line><line x1="309.3" y1="535.30" x2="309.3" y2="75.00" stroke="#ddd" stroke-dasharray="3,2"></line><line x1="432.8" y1="535.30" x2="432.8" y2="75.00" stroke="#ddd" stroke-dasharray="3,2"></line><line x1="556.2" y1="535.30" x2="556.2" y2="75.00" stroke="#ddd" stroke-dasharray="3,2"></line><line x1="679.6" y1="535.30" x2="679.6" y2="75.00" stroke="#ddd" stroke-dasharray="3,2"></line></g></g><g clip-path="url(#boundsClip-1)"><g class="HeightedLegend clickable"><g class="legendMark"><rect x="694.576" y="438.40000000000003" width="101.83200000000001" height="14.4" fill="#fff" opacity="0"></rect><rect x="694.576" y="444.35" width="10" height="2.5" fill="#f6a324"></rect><text font-size="14.40" x="709.6" y="449.9" fill="#333"><tspan x="709.576" y="449.92">United States</tspan></text></g><g class="legendMark"><rect x="694.576" y="452.8" width="74.328" height="14.4" fill="#fff" opacity="0"></rect><rect x="694.576" y="458.75" width="10" height="2.5" fill="#34983f"></rect><text font-size="14.40" x="709.6" y="464.3" fill="#333"><tspan x="709.576" y="464.32">Germany</tspan></text></g><g class="legendMark"><rect x="694.576" y="467.2" width="140.42400000000004" height="14.4" fill="#fff" opacity="0"></rect><rect x="694.576" y="473.15" width="10" height="2.5" fill="#DC143C"></rect><text font-size="14.40" x="709.6" y="478.7" fill="#333"><tspan x="709.576" y="478.71999999999997">England and Wales</tspan></text></g><g class="legendMark"><rect x="694.576" y="481.59999999999997" width="67.272" height="14.4" fill="#fff" opacity="0"></rect><rect x="694.576" y="487.54999999999995" width="10" height="2.5" fill="#66CD00"></rect><text font-size="14.40" x="709.6" y="493.1" fill="#333"><tspan x="709.576" y="493.11999999999995">Sweden</tspan></text></g></g><g class="Lines"><rect x="43" y="75" width="642" height="460" fill="rgba(255,255,255,0)" opacity="0"></rect><g class="key-England-and-Wales_0"><path stroke="#DC143C" stroke-linecap="round" d="M290 175L302 159L314 169L327 172L339 176L351 176L364 185L376 201L388 212L401 222L413 221L425 223L438 243L450 271L462 285L475 242L487 330L499 343L512 358L524 374L536 364L549 397L561 426L574 433L586 435L598 438L611 439L623 443L635 447L648 450L660 453L672 456L685 458" fill="none" stroke-width="1.5"></path><g fill="#DC143C"><circle cx="290" cy="175" r="2"></circle><circle cx="302" cy="159" r="2"></circle><circle cx="314" cy="169" r="2"></circle><circle cx="327" cy="172" r="2"></circle><circle cx="339" cy="176" r="2"></circle><circle cx="351" cy="176" r="2"></circle><circle cx="364" cy="185" r="2"></circle><circle cx="376" cy="201" r="2"></circle><circle cx="388" cy="212" r="2"></circle><circle cx="401" cy="222" r="2"></circle><circle cx="413" cy="221" r="2"></circle><circle cx="425" cy="223" r="2"></circle><circle cx="438" cy="243" r="2"></circle><circle cx="450" cy="271" r="2"></circle><circle cx="462" cy="285" r="2"></circle><circle cx="475" cy="242" r="2"></circle><circle cx="487" cy="330" r="2"></circle><circle cx="499" cy="343" r="2"></circle><circle cx="512" cy="358" r="2"></circle><circle cx="524" cy="374" r="2"></circle><circle cx="536" cy="364" r="2"></circle><circle cx="549" cy="397" r="2"></circle><circle cx="561" cy="426" r="2"></circle><circle cx="574" cy="433" r="2"></circle><circle cx="586" cy="435" r="2"></circle><circle cx="598" cy="438" r="2"></circle><circle cx="611" cy="439" r="2"></circle><circle cx="623" cy="443" r="2"></circle><circle cx="635" cy="447" r="2"></circle><circle cx="648" cy="450" r="2"></circle><circle cx="660" cy="453" r="2"></circle><circle cx="672" cy="456" r="2"></circle><circle cx="685" cy="458" r="2"></circle></g></g><g class="key-Germany_0"><path stroke="#34983f" stroke-linecap="round" d="M43 143L70 143L80 136L92 129L104 139L117 149L129 148L141 146L154 135L166 124L179 147L191 169L203 168L216 167L228 180L240 192L253 181L265 170L277 178L290 187L302 176L314 164L327 130L339 158L351 148L364 123L376 123L388 137L401 137L413 170L425 170L438 215L450 215L462 242L475 195L487 302L499 321L512 358L524 367L536 322L549 370L561 405L574 413L586 425L598 435L611 441L623 443L635 445L648 448L660 445L672 451L685 458" fill="none" stroke-width="1.5"></path><g fill="#34983f"><circle cx="43" cy="143" r="2"></circle><circle cx="70" cy="143" r="2"></circle><circle cx="80" cy="136" r="2"></circle><circle cx="92" cy="129" r="2"></circle><circle cx="104" cy="139" r="2"></circle><circle cx="117" cy="149" r="2"></circle><circle cx="129" cy="148" r="2"></circle><circle cx="141" cy="146" r="2"></circle><circle cx="154" cy="135" r="2"></circle><circle cx="166" cy="124" r="2"></circle><circle cx="179" cy="147" r="2"></circle><circle cx="191" cy="169" r="2"></circle><circle cx="203" cy="168" r="2"></circle><circle cx="216" cy="167" r="2"></circle><circle cx="228" cy="180" r="2"></circle><circle cx="240" cy="192" r="2"></circle><circle cx="253" cy="181" r="2"></circle><circle cx="265" cy="170" r="2"></circle><circle cx="277" cy="178" r="2"></circle><circle cx="290" cy="187" r="2"></circle><circle cx="302" cy="176" r="2"></circle><circle cx="314" cy="164" r="2"></circle><circle cx="327" cy="130" r="2"></circle><circle cx="339" cy="158" r="2"></circle><circle cx="351" cy="148" r="2"></circle><circle cx="364" cy="123" r="2"></circle><circle cx="376" cy="123" r="2"></circle><circle cx="388" cy="137" r="2"></circle><circle cx="401" cy="137" r="2"></circle><circle cx="413" cy="170" r="2"></circle><circle cx="425" cy="170" r="2"></circle><circle cx="438" cy="215" r="2"></circle><circle cx="450" cy="215" r="2"></circle><circle cx="462" cy="242" r="2"></circle><circle cx="475" cy="195" r="2"></circle><circle cx="487" cy="302" r="2"></circle><circle cx="499" cy="321" r="2"></circle><circle cx="512" cy="358" r="2"></circle><circle cx="524" cy="367" r="2"></circle><circle cx="536" cy="322" r="2"></circle><circle cx="549" cy="370" r="2"></circle><circle cx="561" cy="405" r="2"></circle><circle cx="574" cy="413" r="2"></circle><circle cx="586" cy="425" r="2"></circle><circle cx="598" cy="435" r="2"></circle><circle cx="611" cy="441" r="2"></circle><circle cx="623" cy="443" r="2"></circle><circle cx="635" cy="445" r="2"></circle><circle cx="648" cy="448" r="2"></circle><circle cx="660" cy="445" r="2"></circle><circle cx="672" cy="451" r="2"></circle><circle cx="685" cy="458" r="2"></circle></g></g><g class="key-Sweden_0"><path stroke="#66CD00" stroke-linecap="round" d="M70 120L80 111L92 106L104 115L117 75L129 122L141 122L154 122L166 143L179 151L191 140L203 116L216 126L228 164L240 188L253 181L265 178L277 194L290 205L302 203L314 198L327 176L339 211L351 202L364 230L376 210L388 233L401 255L413 258L425 275L438 283L450 306L462 321L475 305L487 346L499 358L512 373L524 387L536 405L549 422L561 437L574 442L586 445L598 447L611 448L623 450L635 453L648 455L660 459L672 463L685 465" fill="none" stroke-width="1.5"></path><g fill="#66CD00"><circle cx="70" cy="120" r="2"></circle><circle cx="80" cy="111" r="2"></circle><circle cx="92" cy="106" r="2"></circle><circle cx="104" cy="115" r="2"></circle><circle cx="117" cy="75" r="2"></circle><circle cx="129" cy="122" r="2"></circle><circle cx="141" cy="122" r="2"></circle><circle cx="154" cy="122" r="2"></circle><circle cx="166" cy="143" r="2"></circle><circle cx="179" cy="151" r="2"></circle><circle cx="191" cy="140" r="2"></circle><circle cx="203" cy="116" r="2"></circle><circle cx="216" cy="126" r="2"></circle><circle cx="228" cy="164" r="2"></circle><circle cx="240" cy="188" r="2"></circle><circle cx="253" cy="181" r="2"></circle><circle cx="265" cy="178" r="2"></circle><circle cx="277" cy="194" r="2"></circle><circle cx="290" cy="205" r="2"></circle><circle cx="302" cy="203" r="2"></circle><circle cx="314" cy="198" r="2"></circle><circle cx="327" cy="176" r="2"></circle><circle cx="339" cy="211" r="2"></circle><circle cx="351" cy="202" r="2"></circle><circle cx="364" cy="230" r="2"></circle><circle cx="376" cy="210" r="2"></circle><circle cx="388" cy="233" r="2"></circle><circle cx="401" cy="255" r="2"></circle><circle cx="413" cy="258" r="2"></circle><circle cx="425" cy="275" r="2"></circle><circle cx="438" cy="283" r="2"></circle><circle cx="450" cy="306" r="2"></circle><circle cx="462" cy="321" r="2"></circle><circle cx="475" cy="305" r="2"></circle><circle cx="487" cy="346" r="2"></circle><circle cx="499" cy="358" r="2"></circle><circle cx="512" cy="373" r="2"></circle><circle cx="524" cy="387" r="2"></circle><circle cx="536" cy="405" r="2"></circle><circle cx="549" cy="422" r="2"></circle><circle cx="561" cy="437" r="2"></circle><circle cx="574" cy="442" r="2"></circle><circle cx="586" cy="445" r="2"></circle><circle cx="598" cy="447" r="2"></circle><circle cx="611" cy="448" r="2"></circle><circle cx="623" cy="450" r="2"></circle><circle cx="635" cy="453" r="2"></circle><circle cx="648" cy="455" r="2"></circle><circle cx="660" cy="459" r="2"></circle><circle cx="672" cy="463" r="2"></circle><circle cx="685" cy="465" r="2"></circle></g></g><g class="key-United-States_0"><path stroke="#f6a324" stroke-linecap="round" d="M314 141L327 160L339 178L351 187L364 197L376 173L388 149L401 184L413 218L425 238L438 258L450 269L462 293L475 293L487 331L499 344L512 358L524 370L536 388L549 403L561 414L574 419L586 421L598 422L611 425L623 431L635 437L648 438L660 440L672 444L685 446" fill="none" stroke-width="1.5"></path><g fill="#f6a324"><circle cx="314" cy="141" r="2"></circle><circle cx="327" cy="160" r="2"></circle><circle cx="339" cy="178" r="2"></circle><circle cx="351" cy="187" r="2"></circle><circle cx="364" cy="197" r="2"></circle><circle cx="376" cy="173" r="2"></circle><circle cx="388" cy="149" r="2"></circle><circle cx="401" cy="184" r="2"></circle><circle cx="413" cy="218" r="2"></circle><circle cx="425" cy="238" r="2"></circle><circle cx="438" cy="258" r="2"></circle><circle cx="450" cy="269" r="2"></circle><circle cx="462" cy="293" r="2"></circle><circle cx="475" cy="293" r="2"></circle><circle cx="487" cy="331" r="2"></circle><circle cx="499" cy="344" r="2"></circle><circle cx="512" cy="358" r="2"></circle><circle cx="524" cy="370" r="2"></circle><circle cx="536" cy="388" r="2"></circle><circle cx="549" cy="403" r="2"></circle><circle cx="561" cy="414" r="2"></circle><circle cx="574" cy="419" r="2"></circle><circle cx="586" cy="421" r="2"></circle><circle cx="598" cy="422" r="2"></circle><circle cx="611" cy="425" r="2"></circle><circle cx="623" cy="431" r="2"></circle><circle cx="635" cy="437" r="2"></circle><circle cx="648" cy="438" r="2"></circle><circle cx="660" cy="440" r="2"></circle><circle cx="672" cy="444" r="2"></circle><circle cx="685" cy="446" r="2"></circle></g></g></g></g></g><g style="fill: #777;" class="SourcesFooter"><g style="fill: #777;" class="clickable"><text font-size="12.60" x="15.0" y="581.6"><tspan x="15" y="581.58">Source: Sam Peltzman (2009)</tspan></text></g><text font-size="12.60" x="575.2" y="581.6"><tspan x="575.188" y="581.58"><a target='_blank' style='fill: #777;' href='https://ourworldindata.org/health-meta/'>OurWorldInData.org/health-meta/</a> • <a style="fill: #777;" href="http://creativecommons.org/licenses/by-sa/4.0/deed.en_US" target="_blank">CC BY-SA</a></tspan></text></g></g></svg>