<svg xmlns="http://www.w3.org/2000/svg" version="1.1" style="font-family: 'Helvetica Neue', Helvetica, Arial, sans-serif; font-size: 18px; background-color: white; text-rendering: optimizeLegibility; -webkit-font-smoothing: antialiased;" width="850" height="600"><g class="ChartTab"><g class="HeaderView"><g opacity="0.8" transform="translate(770, 15) scale(0.31)"><a xmlns:xlink="http://www.w3.org/1999/xlink" xlink:href="https://ourworldindata.org" target="_blank"><g><rect x="0" y="0" fill="#1B2543" width="211.2" height="130.1"/><rect x="0" y="112.2" fill="#E63912" width="211.2" height="17.9"/><g><rect x="1.2" y="12.3" fill="none" width="210.2" height="99.2"/><path fill="#FFFFFF" d="M37.8,32.2c0,12.7-7.7,19.4-17.1,19.4c-9.7,0-16.6-7.5-16.6-18.7c0-11.7,7.3-19.3,17.1-19.3 C31.3,13.7,37.8,21.3,37.8,32.2z M9.2,32.8c0,7.9,4.3,14.9,11.8,14.9c7.5,0,11.8-6.9,11.8-15.3c0-7.3-3.8-14.9-11.8-14.9 C13.1,17.5,9.2,24.8,9.2,32.8z"/><path fill="#FFFFFF" d="M62.7,43.8c0,2.7,0.1,5.1,0.2,7.2h-4.3l-0.3-4.3h-0.1c-1.3,2.1-4,4.9-8.8,4.9c-4.2,0-9.1-2.3-9.1-11.6 V24.6h4.8v14.6c0,5,1.5,8.4,5.9,8.4c3.2,0,5.5-2.2,6.3-4.4c0.3-0.7,0.4-1.6,0.4-2.5V24.6h4.8V43.8z"/><path fill="#FFFFFF" d="M67.3,32.8c0-3.1-0.1-5.8-0.2-8.2h4.2l0.2,5.2h0.2c1.2-3.5,4.1-5.8,7.3-5.8c0.5,0,0.9,0.1,1.4,0.2v4.5 c-0.5-0.1-1-0.2-1.6-0.2c-3.4,0-5.8,2.6-6.5,6.2c-0.1,0.7-0.2,1.4-0.2,2.2V51h-4.8V32.8z"/><path fill="#FFFFFF" d="M95.4,51l-9.4-36.8h5l4.4,18.6c1.1,4.6,2.1,9.2,2.7,12.7h0.1c0.6-3.7,1.8-8,3-12.8l4.9-18.5h5l4.5,18.7 c1,4.4,2,8.7,2.6,12.6h0.1c0.8-4,1.8-8.1,3-12.7l4.9-18.5h4.9L120.6,51h-5L111,31.9c-1.1-4.7-1.9-8.3-2.4-12h-0.1 c-0.7,3.7-1.5,7.3-2.8,12L100.4,51H95.4z"/><path fill="#FFFFFF" d="M154.9,37.6c0,9.8-6.8,14-13.2,14c-7.2,0-12.7-5.2-12.7-13.6c0-8.8,5.8-14,13.1-14 C149.8,24,154.9,29.5,154.9,37.6z M133.9,37.9c0,5.8,3.3,10.1,8,10.1c4.6,0,8-4.3,8-10.3c0-4.5-2.2-10.1-7.9-10.1 C136.3,27.6,133.9,32.8,133.9,37.9z"/><path fill="#FFFFFF" d="M158.2,32.8c0-3.1-0.1-5.8-0.2-8.2h4.2l0.2,5.2h0.2c1.2-3.5,4.1-5.8,7.3-5.8c0.5,0,0.9,0.1,1.4,0.2v4.5 c-0.5-0.1-1-0.2-1.6-0.2c-3.4,0-5.8,2.6-6.5,6.2c-0.1,0.7-0.2,1.4-0.2,2.2V51h-4.8V32.8z"/><path fill="#FFFFFF" d="M173.5,12.3h4.8V51h-4.8V12.3z"/><path fill="#FFFFFF" d="M206.5,12.3v31.9c0,2.3,0.1,5,0.2,6.8h-4.3l-0.2-4.6H202c-1.5,2.9-4.7,5.2-9,5.2 c-6.4,0-11.3-5.4-11.3-13.4c-0.1-8.8,5.4-14.2,11.9-14.2c4,0,6.8,1.9,8,4h0.1V12.3H206.5z M201.7,35.4c0-0.6-0.1-1.4-0.2-2 c-0.7-3.1-3.3-5.6-6.9-5.6c-5,0-7.9,4.4-7.9,10.2c0,5.3,2.6,9.8,7.8,9.8c3.2,0,6.2-2.1,7.1-5.7c0.2-0.7,0.2-1.3,0.2-2.1V35.4z"/><path fill="#FFFFFF" d="M42.8,64c0.1,1.6-1.1,2.9-3.1,2.9c-1.7,0-2.9-1.3-2.9-2.9c0-1.7,1.3-3,3-3C41.7,61,42.8,62.3,42.8,64z M37.4,97.8V71.4h4.8v26.4H37.4z"/><path fill="#FFFFFF" d="M47.5,78.6c0-2.7-0.1-5-0.2-7.1h4.3l0.3,4.4h0.1c1.3-2.5,4.4-5,8.8-5c3.7,0,9.4,2.2,9.4,11.2v15.8h-4.8 V82.6c0-4.3-1.6-7.8-6.1-7.8c-3.2,0-5.6,2.2-6.5,4.9c-0.2,0.6-0.3,1.4-0.3,2.2v15.9h-4.8V78.6z"/><path fill="#FFFFFF" d="M84,61.6c2.9-0.4,6.3-0.8,10.1-0.8c6.8,0,11.7,1.6,14.9,4.6c3.3,3,5.2,7.3,5.2,13.2c0,6-1.9,10.9-5.3,14.3 c-3.4,3.4-9.1,5.3-16.3,5.3c-3.4,0-6.2-0.2-8.6-0.4V61.6z M88.8,94.1c1.2,0.2,3,0.3,4.8,0.3c10.2,0,15.7-5.7,15.7-15.6 c0.1-8.7-4.9-14.2-14.9-14.2c-2.5,0-4.3,0.2-5.6,0.5V94.1z"/><path fill="#FFFFFF" d="M132.1,97.8l-0.4-3.3h-0.2c-1.5,2.1-4.3,3.9-8.1,3.9c-5.4,0-8.1-3.8-8.1-7.6c0-6.4,5.7-9.9,15.9-9.8v-0.5 c0-2.2-0.6-6.1-6-6.1c-2.5,0-5,0.8-6.9,2l-1.1-3.2c2.2-1.4,5.4-2.3,8.7-2.3c8.1,0,10.1,5.5,10.1,10.8v9.9c0,2.3,0.1,4.5,0.4,6.3 H132.1z M131.4,84.4c-5.3-0.1-11.2,0.8-11.2,5.9c0,3.1,2.1,4.6,4.5,4.6c3.4,0,5.6-2.2,6.4-4.4c0.2-0.5,0.3-1,0.3-1.5V84.4z"/><path fill="#FFFFFF" d="M146.6,63.9v7.6h6.9v3.7h-6.9v14.2c0,3.3,0.9,5.1,3.6,5.1c1.3,0,2.2-0.2,2.8-0.3l0.2,3.6 c-0.9,0.4-2.4,0.7-4.3,0.7c-2.2,0-4-0.7-5.2-2c-1.4-1.4-1.9-3.8-1.9-6.9V75.1h-4.1v-3.7h4.1v-6.3L146.6,63.9z"/><path fill="#FFFFFF" d="M171.4,97.8l-0.4-3.3h-0.2c-1.5,2.1-4.3,3.9-8.1,3.9c-5.4,0-8.1-3.8-8.1-7.6c0-6.4,5.7-9.9,15.9-9.8v-0.5 c0-2.2-0.6-6.1-6-6.1c-2.5,0-5,0.8-6.9,2l-1.1-3.2c2.2-1.4,5.4-2.3,8.7-2.3c8.1,0,10.1,5.5,10.1,10.8v9.9c0,2.3,0.1,4.5,0.4,6.3 H171.4z M170.7,84.4c-5.3-0.1-11.2,0.8-11.2,5.9c0,3.1,2.1,4.6,4.5,4.6c3.4,0,5.6-2.2,6.4-4.4c0.2-0.5,0.3-1,0.3-1.5V84.4z"/></g></g></a></g><a href="https://ourworldindata.org/grapher/international-tourist-arrivals-by-world-region?stackMode=relative" target="_blank"><text font-size="27.00" x="15.0" y="36.6" fill="#555"><tspan x="15" y="36.6">International tourist arrivals by world region</tspan></text></a></g><g class="StackedArea"><defs><clipPath id="boundsClip-368"><rect x="61.634" y="0" width="820" height="963"></rect></clipPath></defs><g class="AxisBoxView"><g class="HorizontalAxis"><text x="61.6" y="556.5" fill="#666" text-anchor="middle" font-size="16.2">1950</text><text x="162.4" y="556.5" fill="#666" text-anchor="middle" font-size="16.2">1960</text><text x="263.2" y="556.5" fill="#666" text-anchor="middle" font-size="16.2">1970</text><text x="363.9" y="556.5" fill="#666" text-anchor="middle" font-size="16.2">1980</text><text x="464.7" y="556.5" fill="#666" text-anchor="middle" font-size="16.2">1990</text><text x="565.5" y="556.5" fill="#666" text-anchor="middle" font-size="16.2">2000</text><text x="666.3" y="556.5" fill="#666" text-anchor="middle" font-size="16.2">2010</text><text x="726.7" y="556.5" fill="#666" text-anchor="middle" font-size="16.2">2016</text></g><g class="VerticalAxis"><text x="56.63" y="535.3" fill="#666" dominant-baseline="middle" text-anchor="end" font-size="16.2">0%</text><text x="56.63" y="443.2" fill="#666" dominant-baseline="middle" text-anchor="end" font-size="16.2">20%</text><text x="56.63" y="351.2" fill="#666" dominant-baseline="middle" text-anchor="end" font-size="16.2">40%</text><text x="56.63" y="259.1" fill="#666" dominant-baseline="middle" text-anchor="end" font-size="16.2">60%</text><text x="56.63" y="167.1" fill="#666" dominant-baseline="middle" text-anchor="end" font-size="16.2">80%</text><text x="56.63" y="75" fill="#666" dominant-baseline="middle" text-anchor="end" font-size="16.2">100%</text></g><g class="AxisGridLines"><line x1="61.63" y1="535.3" x2="726.73" y2="535.3" stroke="#ccc"></line><line x1="61.63" y1="443.2" x2="726.73" y2="443.2" stroke="#ddd" stroke-dasharray="3,2"></line><line x1="61.63" y1="351.2" x2="726.73" y2="351.2" stroke="#ddd" stroke-dasharray="3,2"></line><line x1="61.63" y1="259.1" x2="726.73" y2="259.1" stroke="#ddd" stroke-dasharray="3,2"></line><line x1="61.63" y1="167.1" x2="726.73" y2="167.1" stroke="#ddd" stroke-dasharray="3,2"></line><line x1="61.63" y1="75" x2="726.73" y2="75" stroke="#ddd" stroke-dasharray="3,2"></line></g><g class="AxisGridLines"><line x1="61.6" y1="535.30" x2="61.6" y2="75.00" stroke="#ddd" stroke-dasharray="3,2"></line><line x1="162.4" y1="535.30" x2="162.4" y2="75.00" stroke="#ddd" stroke-dasharray="3,2"></line><line x1="263.2" y1="535.30" x2="263.2" y2="75.00" stroke="#ddd" stroke-dasharray="3,2"></line><line x1="363.9" y1="535.30" x2="363.9" y2="75.00" stroke="#ddd" stroke-dasharray="3,2"></line><line x1="464.7" y1="535.30" x2="464.7" y2="75.00" stroke="#ddd" stroke-dasharray="3,2"></line><line x1="565.5" y1="535.30" x2="565.5" y2="75.00" stroke="#ddd" stroke-dasharray="3,2"></line><line x1="666.3" y1="535.30" x2="666.3" y2="75.00" stroke="#ddd" stroke-dasharray="3,2"></line></g></g><g clip-path="url(#boundsClip-368)"><g class="HeightedLegend clickable"><g class="legendMark"><rect x="731.728" y="124.2" width="103.272" height="14.4" fill="#fff" opacity="0"></rect><rect x="731.728" y="130.15" width="10" height="2.5" fill="#932834"></rect><text font-size="14.40" x="746.7" y="135.7" fill="#333"><tspan x="746.728" y="135.72">Asia &amp; Pacific</tspan></text></g><g class="legendMark"><rect x="731.728" y="190.70000000000002" width="90.456" height="14.4" fill="#fff" opacity="0"></rect><rect x="731.728" y="196.65" width="10" height="2.5" fill="#f07f59"></rect><text font-size="14.40" x="746.7" y="202.2" fill="#333"><tspan x="746.728" y="202.22000000000003">Middle East</tspan></text></g><g class="legendMark"><rect x="731.728" y="238.10000000000002" width="75.048" height="14.4" fill="#fff" opacity="0"></rect><rect x="731.728" y="244.05" width="10" height="2.5" fill="#9ecc8a"></rect><text font-size="14.40" x="746.7" y="249.6" fill="#333"><tspan x="746.728" y="249.62000000000003">Americas</tspan></text></g><g class="legendMark"><rect x="731.728" y="391" width="61.656000000000006" height="14.4" fill="#fff" opacity="0"></rect><rect x="731.728" y="396.95" width="10" height="2.5" fill="#fceb8c"></rect><text font-size="14.40" x="746.7" y="402.5" fill="#333"><tspan x="746.728" y="402.52">Europe</tspan></text></g><g class="legendMark"><rect x="731.728" y="517.3" width="51.864000000000004" height="14.4" fill="#fff" opacity="0"></rect><rect x="731.728" y="523.25" width="10" height="2.5" fill="#3360a9"></rect><text font-size="14.40" x="746.7" y="528.8" fill="#333"><tspan x="746.728" y="528.8199999999999">Africa</tspan></text></g></g><g class="Areas"><rect x="61.634" y="75" width="665.0939999999999" height="460.29999999999995" opacity="0" fill="rgba(255,255,255,0)"></rect><path stroke-linecap="round" d="M61.6 526.2L162.4 530L212.8 529.6L263.2 528.6L313.6 525.6L363.9 523.4L374 521.9L384.1 522.7L394.2 521.9L404.3 522L414.3 521.4L424.4 522.2L434.5 522.6L444.6 520.2L454.6 519.7L464.7 519.4L474.8 518.3L484.9 517.7L495 517.7L505 518.2L515.1 517.9L525.2 517.5L535.3 517.5L545.3 516.2L555.4 515.9L565.5 516.5L575.6 515.8L585.6 515.8L595.7 514.4L605.8 514.5L615.9 514L626 512.8L636 512.7L646.1 513L656.2 511.4L666.3 510.9L706.6 513L716.7 514.5L726.7 513.6L726.728 535.3L61.634 535.3" fill="#3360a9" fill-opacity="0.7" class="Africa_0-area"></path><path stroke-linecap="round" d="M61.6 219.3L162.4 195.7L212.8 188L263.2 214.9L313.6 206.9L363.9 227.9L374 232L384.1 231.3L394.2 228.5L404.3 231.9L414.3 227.6L424.4 234.8L434.5 236.1L444.6 243.3L454.6 238.3L464.7 241.1L474.8 243.8L484.9 247L495 247.7L505 249.7L515.1 249.7L525.2 251.7L535.3 246.1L545.3 244.1L555.4 249.2L565.5 252.6L575.6 250.8L585.6 250.8L595.7 244.6L605.8 259.2L615.9 262.1L626 261.8L636 265.6L646.1 269.4L656.2 270.8L666.3 274L706.6 278.1L716.7 279.3L726.7 282.7L726.7 513.6L716.7 514.5L706.6 513L666.3 510.9L656.2 511.4L646.1 513L636 512.7L626 512.8L615.9 514L605.8 514.5L595.7 514.4L585.6 515.8L575.6 515.8L565.5 516.5L555.4 515.9L545.3 516.2L535.3 517.5L525.2 517.5L515.1 517.9L505 518.2L495 517.7L484.9 517.7L474.8 518.3L464.7 519.4L454.6 519.7L444.6 520.2L434.5 522.6L424.4 522.2L414.3 521.4L404.3 522L394.2 521.9L384.1 522.7L374 521.9L363.9 523.4L313.6 525.6L263.2 528.6L212.8 529.6L162.4 530L61.6 526.2" fill="#fceb8c" fill-opacity="0.7" class="Europe_0-area"></path><path stroke-linecap="round" d="M61.6 82.3L162.4 84.9L212.8 93.4L263.2 97.5L313.6 103.4L363.9 124.8L374 128.7L384.1 132L394.2 130.7L404.3 130.8L414.3 134L424.4 135.9L434.5 138.1L444.6 144.1L454.6 140.8L464.7 143.9L474.8 144.6L484.9 149L495 152.7L505 156.7L515.1 156.8L525.2 160L535.3 156.8L545.3 155.2L555.4 161.5L565.5 166.1L575.6 169L585.6 174.9L595.7 169.6L605.8 183.6L615.9 185.9L626 188.1L636 193L646.1 195.2L656.2 196.9L666.3 201.3L706.6 204.5L716.7 204.7L726.7 207.8L726.7 282.7L716.7 279.3L706.6 278.1L666.3 274L656.2 270.8L646.1 269.4L636 265.6L626 261.8L615.9 262.1L605.8 259.2L595.7 244.6L585.6 250.8L575.6 250.8L565.5 252.6L555.4 249.2L545.3 244.1L535.3 246.1L525.2 251.7L515.1 249.7L505 249.7L495 247.7L484.9 247L474.8 243.8L464.7 241.1L454.6 238.3L444.6 243.3L434.5 236.1L424.4 234.8L414.3 227.6L404.3 231.9L394.2 228.5L384.1 231.3L374 232L363.9 227.9L313.6 206.9L263.2 214.9L212.8 188L162.4 195.7L61.6 219.3" fill="#9ecc8a" fill-opacity="0.7" class="Americas_0-area"></path><path stroke-linecap="round" d="M61.6 78.7L162.4 81L212.8 83.6L263.2 92.2L313.6 96.1L363.9 113.1L374 116.1L384.1 118.2L394.2 118.4L404.3 119.2L414.3 122.3L424.4 126.3L434.5 128.9L444.6 133.2L454.6 130.4L464.7 133.9L474.8 135.3L484.9 138.1L495 142.2L505 145.9L515.1 145.2L525.2 147.4L535.3 144L545.3 141.7L555.4 146L565.5 149.6L575.6 152.6L585.6 156.3L595.7 150.1L605.8 161.8L615.9 163.7L626 165.6L636 168.9L646.1 167.4L656.2 169.4L666.3 174.5L706.6 182L716.7 183.1L726.7 187.9L726.7 207.8L716.7 204.7L706.6 204.5L666.3 201.3L656.2 196.9L646.1 195.2L636 193L626 188.1L615.9 185.9L605.8 183.6L595.7 169.6L585.6 174.9L575.6 169L565.5 166.1L555.4 161.5L545.3 155.2L535.3 156.8L525.2 160L515.1 156.8L505 156.7L495 152.7L484.9 149L474.8 144.6L464.7 143.9L454.6 140.8L444.6 144.1L434.5 138.1L424.4 135.9L414.3 134L404.3 130.8L394.2 130.7L384.1 132L374 128.7L363.9 124.8L313.6 103.4L263.2 97.5L212.8 93.4L162.4 84.9L61.6 82.3" fill="#f07f59" fill-opacity="0.7" class="Middle-East_0-area"></path><path stroke-linecap="round" d="M61.6 75L162.4 75L212.8 75L263.2 75L313.6 75L363.9 75L374 75L384.1 75L394.2 75L404.3 75L414.3 75L424.4 75L434.5 75L444.6 75L454.6 75L464.7 75L474.8 75L484.9 75L495 75L505 75L515.1 75L525.2 75L535.3 75L545.3 75L555.4 75L565.5 75L575.6 75L585.6 75L595.7 75L605.8 75L615.9 75L626 75L636 75L646.1 75L656.2 75L666.3 75L706.6 75L716.7 75L726.7 75L726.7 187.9L716.7 183.1L706.6 182L666.3 174.5L656.2 169.4L646.1 167.4L636 168.9L626 165.6L615.9 163.7L605.8 161.8L595.7 150.1L585.6 156.3L575.6 152.6L565.5 149.6L555.4 146L545.3 141.7L535.3 144L525.2 147.4L515.1 145.2L505 145.9L495 142.2L484.9 138.1L474.8 135.3L464.7 133.9L454.6 130.4L444.6 133.2L434.5 128.9L424.4 126.3L414.3 122.3L404.3 119.2L394.2 118.4L384.1 118.2L374 116.1L363.9 113.1L313.6 96.1L263.2 92.2L212.8 83.6L162.4 81L61.6 78.7" fill="#932834" fill-opacity="0.7" class="Asia-__0026-Pacific_0-area"></path><path stroke-linecap="round" d="M61.6 526.2L162.4 530L212.8 529.6L263.2 528.6L313.6 525.6L363.9 523.4L374 521.9L384.1 522.7L394.2 521.9L404.3 522L414.3 521.4L424.4 522.2L434.5 522.6L444.6 520.2L454.6 519.7L464.7 519.4L474.8 518.3L484.9 517.7L495 517.7L505 518.2L515.1 517.9L525.2 517.5L535.3 517.5L545.3 516.2L555.4 515.9L565.5 516.5L575.6 515.8L585.6 515.8L595.7 514.4L605.8 514.5L615.9 514L626 512.8L636 512.7L646.1 513L656.2 511.4L666.3 510.9L706.6 513L716.7 514.5L726.7 513.6" stroke="rgb(43, 80, 141)" stroke-opacity="0.7" stroke-width="0.5" fill="none" class="Africa_0-border"></path><path stroke-linecap="round" d="M61.6 219.3L162.4 195.7L212.8 188L263.2 214.9L313.6 206.9L363.9 227.9L374 232L384.1 231.3L394.2 228.5L404.3 231.9L414.3 227.6L424.4 234.8L434.5 236.1L444.6 243.3L454.6 238.3L464.7 241.1L474.8 243.8L484.9 247L495 247.7L505 249.7L515.1 249.7L525.2 251.7L535.3 246.1L545.3 244.1L555.4 249.2L565.5 252.6L575.6 250.8L585.6 250.8L595.7 244.6L605.8 259.2L615.9 262.1L626 261.8L636 265.6L646.1 269.4L656.2 270.8L666.3 274L706.6 278.1L716.7 279.3L726.7 282.7" stroke="rgb(211, 197, 117)" stroke-opacity="0.7" stroke-width="0.5" fill="none" class="Europe_0-border"></path><path stroke-linecap="round" d="M61.6 82.3L162.4 84.9L212.8 93.4L263.2 97.5L313.6 103.4L363.9 124.8L374 128.7L384.1 132L394.2 130.7L404.3 130.8L414.3 134L424.4 135.9L434.5 138.1L444.6 144.1L454.6 140.8L464.7 143.9L474.8 144.6L484.9 149L495 152.7L505 156.7L515.1 156.8L525.2 160L535.3 156.8L545.3 155.2L555.4 161.5L565.5 166.1L575.6 169L585.6 174.9L595.7 169.6L605.8 183.6L615.9 185.9L626 188.1L636 193L646.1 195.2L656.2 196.9L666.3 201.3L706.6 204.5L716.7 204.7L726.7 207.8" stroke="rgb(132, 171, 115)" stroke-opacity="0.7" stroke-width="0.5" fill="none" class="Americas_0-border"></path><path stroke-linecap="round" d="M61.6 78.7L162.4 81L212.8 83.6L263.2 92.2L313.6 96.1L363.9 113.1L374 116.1L384.1 118.2L394.2 118.4L404.3 119.2L414.3 122.3L424.4 126.3L434.5 128.9L444.6 133.2L454.6 130.4L464.7 133.9L474.8 135.3L484.9 138.1L495 142.2L505 145.9L515.1 145.2L525.2 147.4L535.3 144L545.3 141.7L555.4 146L565.5 149.6L575.6 152.6L585.6 156.3L595.7 150.1L605.8 161.8L615.9 163.7L626 165.6L636 168.9L646.1 167.4L656.2 169.4L666.3 174.5L706.6 182L716.7 183.1L726.7 187.9" stroke="rgb(201, 106, 74)" stroke-opacity="0.7" stroke-width="0.5" fill="none" class="Middle-East_0-border"></path><path stroke-linecap="round" d="M61.6 75L162.4 75L212.8 75L263.2 75L313.6 75L363.9 75L374 75L384.1 75L394.2 75L404.3 75L414.3 75L424.4 75L434.5 75L444.6 75L454.6 75L464.7 75L474.8 75L484.9 75L495 75L505 75L515.1 75L525.2 75L535.3 75L545.3 75L555.4 75L565.5 75L575.6 75L585.6 75L595.7 75L605.8 75L615.9 75L626 75L636 75L646.1 75L656.2 75L666.3 75L706.6 75L716.7 75L726.7 75" stroke="rgb(123, 33, 44)" stroke-opacity="0.7" stroke-width="0.5" fill="none" class="Asia-__0026-Pacific_0-border"></path></g></g></g><g style="fill: #777;" class="SourcesFooter"><g style="fill: #777;" class="clickable"><text font-size="12.60" x="15.0" y="581.6"><tspan x="15" y="581.58">Source: United Nations World Tourism Organization (UNWTO) (2017)</tspan></text></g><text font-size="12.60" x="600.6" y="581.6"><tspan x="600.64" y="581.58"><a target='_blank' style='fill: #777;' href='https://ourworldindata.org/tourism/'>OurWorldInData.org/tourism/</a> • <a style="fill: #777;" href="http://creativecommons.org/licenses/by-sa/4.0/deed.en_US" target="_blank">CC BY-SA</a></tspan></text></g></g></svg>