<svg xmlns="http://www.w3.org/2000/svg" version="1.1" style="font-family:&#x27;Helvetica Neue&#x27;, Helvetica, Arial, sans-serif;font-size:18px;background-color:white;text-rendering:optimizeLegibility;-webkit-font-smoothing:antialiased" width="850" height="600"><g class="ChartTab"><g class="HeaderView"><g opacity="0.8" transform="translate(778, 15) scale(0.27)"><a xmlns:xlink="http://www.w3.org/1999/xlink" xlink:href="https://ourworldindata.org" target="_blank"><g><rect x="0" y="0" fill="#1B2543" width="211.2" height="130.1"/><rect x="0" y="112.2" fill="#E63912" width="211.2" height="17.9"/><g><rect x="1.2" y="12.3" fill="none" width="210.2" height="99.2"/><path fill="#FFFFFF" d="M37.8,32.2c0,12.7-7.7,19.4-17.1,19.4c-9.7,0-16.6-7.5-16.6-18.7c0-11.7,7.3-19.3,17.1-19.3 C31.3,13.7,37.8,21.3,37.8,32.2z M9.2,32.8c0,7.9,4.3,14.9,11.8,14.9c7.5,0,11.8-6.9,11.8-15.3c0-7.3-3.8-14.9-11.8-14.9 C13.1,17.5,9.2,24.8,9.2,32.8z"/><path fill="#FFFFFF" d="M62.7,43.8c0,2.7,0.1,5.1,0.2,7.2h-4.3l-0.3-4.3h-0.1c-1.3,2.1-4,4.9-8.8,4.9c-4.2,0-9.1-2.3-9.1-11.6 V24.6h4.8v14.6c0,5,1.5,8.4,5.9,8.4c3.2,0,5.5-2.2,6.3-4.4c0.3-0.7,0.4-1.6,0.4-2.5V24.6h4.8V43.8z"/><path fill="#FFFFFF" d="M67.3,32.8c0-3.1-0.1-5.8-0.2-8.2h4.2l0.2,5.2h0.2c1.2-3.5,4.1-5.8,7.3-5.8c0.5,0,0.9,0.1,1.4,0.2v4.5 c-0.5-0.1-1-0.2-1.6-0.2c-3.4,0-5.8,2.6-6.5,6.2c-0.1,0.7-0.2,1.4-0.2,2.2V51h-4.8V32.8z"/><path fill="#FFFFFF" d="M95.4,51l-9.4-36.8h5l4.4,18.6c1.1,4.6,2.1,9.2,2.7,12.7h0.1c0.6-3.7,1.8-8,3-12.8l4.9-18.5h5l4.5,18.7 c1,4.4,2,8.7,2.6,12.6h0.1c0.8-4,1.8-8.1,3-12.7l4.9-18.5h4.9L120.6,51h-5L111,31.9c-1.1-4.7-1.9-8.3-2.4-12h-0.1 c-0.7,3.7-1.5,7.3-2.8,12L100.4,51H95.4z"/><path fill="#FFFFFF" d="M154.9,37.6c0,9.8-6.8,14-13.2,14c-7.2,0-12.7-5.2-12.7-13.6c0-8.8,5.8-14,13.1-14 C149.8,24,154.9,29.5,154.9,37.6z M133.9,37.9c0,5.8,3.3,10.1,8,10.1c4.6,0,8-4.3,8-10.3c0-4.5-2.2-10.1-7.9-10.1 C136.3,27.6,133.9,32.8,133.9,37.9z"/><path fill="#FFFFFF" d="M158.2,32.8c0-3.1-0.1-5.8-0.2-8.2h4.2l0.2,5.2h0.2c1.2-3.5,4.1-5.8,7.3-5.8c0.5,0,0.9,0.1,1.4,0.2v4.5 c-0.5-0.1-1-0.2-1.6-0.2c-3.4,0-5.8,2.6-6.5,6.2c-0.1,0.7-0.2,1.4-0.2,2.2V51h-4.8V32.8z"/><path fill="#FFFFFF" d="M173.5,12.3h4.8V51h-4.8V12.3z"/><path fill="#FFFFFF" d="M206.5,12.3v31.9c0,2.3,0.1,5,0.2,6.8h-4.3l-0.2-4.6H202c-1.5,2.9-4.7,5.2-9,5.2 c-6.4,0-11.3-5.4-11.3-13.4c-0.1-8.8,5.4-14.2,11.9-14.2c4,0,6.8,1.9,8,4h0.1V12.3H206.5z M201.7,35.4c0-0.6-0.1-1.4-0.2-2 c-0.7-3.1-3.3-5.6-6.9-5.6c-5,0-7.9,4.4-7.9,10.2c0,5.3,2.6,9.8,7.8,9.8c3.2,0,6.2-2.1,7.1-5.7c0.2-0.7,0.2-1.3,0.2-2.1V35.4z"/><path fill="#FFFFFF" d="M42.8,64c0.1,1.6-1.1,2.9-3.1,2.9c-1.7,0-2.9-1.3-2.9-2.9c0-1.7,1.3-3,3-3C41.7,61,42.8,62.3,42.8,64z M37.4,97.8V71.4h4.8v26.4H37.4z"/><path fill="#FFFFFF" d="M47.5,78.6c0-2.7-0.1-5-0.2-7.1h4.3l0.3,4.4h0.1c1.3-2.5,4.4-5,8.8-5c3.7,0,9.4,2.2,9.4,11.2v15.8h-4.8 V82.6c0-4.3-1.6-7.8-6.1-7.8c-3.2,0-5.6,2.2-6.5,4.9c-0.2,0.6-0.3,1.4-0.3,2.2v15.9h-4.8V78.6z"/><path fill="#FFFFFF" d="M84,61.6c2.9-0.4,6.3-0.8,10.1-0.8c6.8,0,11.7,1.6,14.9,4.6c3.3,3,5.2,7.3,5.2,13.2c0,6-1.9,10.9-5.3,14.3 c-3.4,3.4-9.1,5.3-16.3,5.3c-3.4,0-6.2-0.2-8.6-0.4V61.6z M88.8,94.1c1.2,0.2,3,0.3,4.8,0.3c10.2,0,15.7-5.7,15.7-15.6 c0.1-8.7-4.9-14.2-14.9-14.2c-2.5,0-4.3,0.2-5.6,0.5V94.1z"/><path fill="#FFFFFF" d="M132.1,97.8l-0.4-3.3h-0.2c-1.5,2.1-4.3,3.9-8.1,3.9c-5.4,0-8.1-3.8-8.1-7.6c0-6.4,5.7-9.9,15.9-9.8v-0.5 c0-2.2-0.6-6.1-6-6.1c-2.5,0-5,0.8-6.9,2l-1.1-3.2c2.2-1.4,5.4-2.3,8.7-2.3c8.1,0,10.1,5.5,10.1,10.8v9.9c0,2.3,0.1,4.5,0.4,6.3 H132.1z M131.4,84.4c-5.3-0.1-11.2,0.8-11.2,5.9c0,3.1,2.1,4.6,4.5,4.6c3.4,0,5.6-2.2,6.4-4.4c0.2-0.5,0.3-1,0.3-1.5V84.4z"/><path fill="#FFFFFF" d="M146.6,63.9v7.6h6.9v3.7h-6.9v14.2c0,3.3,0.9,5.1,3.6,5.1c1.3,0,2.2-0.2,2.8-0.3l0.2,3.6 c-0.9,0.4-2.4,0.7-4.3,0.7c-2.2,0-4-0.7-5.2-2c-1.4-1.4-1.9-3.8-1.9-6.9V75.1h-4.1v-3.7h4.1v-6.3L146.6,63.9z"/><path fill="#FFFFFF" d="M171.4,97.8l-0.4-3.3h-0.2c-1.5,2.1-4.3,3.9-8.1,3.9c-5.4,0-8.1-3.8-8.1-7.6c0-6.4,5.7-9.9,15.9-9.8v-0.5 c0-2.2-0.6-6.1-6-6.1c-2.5,0-5,0.8-6.9,2l-1.1-3.2c2.2-1.4,5.4-2.3,8.7-2.3c8.1,0,10.1,5.5,10.1,10.8v9.9c0,2.3,0.1,4.5,0.4,6.3 H171.4z M170.7,84.4c-5.3-0.1-11.2,0.8-11.2,5.9c0,3.1,2.1,4.6,4.5,4.6c3.4,0,5.6-2.2,6.4-4.4c0.2-0.5,0.3-1,0.3-1.5V84.4z"/></g></g></a></g><a href="https://ourworldindata.org/grapher/international-tourist-arrivals-by-world-region" target="_blank"><text font-size="25.20" x="15.0" y="35.2" fill="#555"><tspan x="15" y="35.160000000000004">International tourist arrivals by world region</tspan></text></a></g><g class="StackedArea"><defs><clipPath id="boundsClip-6"><rect x="97.598" y="0" width="820" height="973"></rect></clipPath></defs><g class="AxisBoxView"><g class="HorizontalAxis"><text x="97.6" y="556.5" fill="#666" text-anchor="middle" font-size="16.2">1950</text><text x="191.5" y="556.5" fill="#666" text-anchor="middle" font-size="16.2">1960</text><text x="285.4" y="556.5" fill="#666" text-anchor="middle" font-size="16.2">1970</text><text x="379.3" y="556.5" fill="#666" text-anchor="middle" font-size="16.2">1980</text><text x="473.1" y="556.5" fill="#666" text-anchor="middle" font-size="16.2">1990</text><text x="567" y="556.5" fill="#666" text-anchor="middle" font-size="16.2">2000</text><text x="660.9" y="556.5" fill="#666" text-anchor="middle" font-size="16.2">2010</text><text x="717.2" y="556.5" fill="#666" text-anchor="middle" font-size="16.2">2016</text></g><g class="VerticalAxis"><text x="92.60" y="535.3" fill="#666" dominant-baseline="middle" text-anchor="end" font-size="16.2">0</text><text x="92.60" y="460" fill="#666" dominant-baseline="middle" text-anchor="end" font-size="16.2">200 million</text><text x="92.60" y="384.6" fill="#666" dominant-baseline="middle" text-anchor="end" font-size="16.2">400 million</text><text x="92.60" y="309.3" fill="#666" dominant-baseline="middle" text-anchor="end" font-size="16.2">600 million</text><text x="92.60" y="234" fill="#666" dominant-baseline="middle" text-anchor="end" font-size="16.2">800 million</text><text x="92.60" y="158.6" fill="#666" dominant-baseline="middle" text-anchor="end" font-size="16.2">1 billion</text><text x="92.60" y="83.3" fill="#666" dominant-baseline="middle" text-anchor="end" font-size="16.2">1.2 billion</text></g><g class="AxisGridLines"><line x1="97.60" y1="535.3" x2="717.25" y2="535.3" stroke="#ccc"></line><line x1="97.60" y1="460" x2="717.25" y2="460" stroke="#ddd" stroke-dasharray="3,2"></line><line x1="97.60" y1="384.6" x2="717.25" y2="384.6" stroke="#ddd" stroke-dasharray="3,2"></line><line x1="97.60" y1="309.3" x2="717.25" y2="309.3" stroke="#ddd" stroke-dasharray="3,2"></line><line x1="97.60" y1="234" x2="717.25" y2="234" stroke="#ddd" stroke-dasharray="3,2"></line><line x1="97.60" y1="158.6" x2="717.25" y2="158.6" stroke="#ddd" stroke-dasharray="3,2"></line><line x1="97.60" y1="83.3" x2="717.25" y2="83.3" stroke="#ddd" stroke-dasharray="3,2"></line></g></g><g clip-path="url(#boundsClip-6)"><g class="HeightedLegend clickable"><g class="legendMark"><rect x="717.245" y="74.25" width="69.56" height="13.5" fill="#fff" opacity="0"></rect><text font-size="13.50" x="722.2" y="85.0" fill="#3360a9"><tspan x="722.245" y="85.05">Africa</tspan></text></g><g class="legendMark"><rect x="717.245" y="95.25" width="105.74000000000001" height="13.5" fill="#fff" opacity="0"></rect><text font-size="13.50" x="722.2" y="106.0" fill="#f07f59"><tspan x="722.245" y="106.05">Middle East</tspan></text></g><g class="legendMark"><rect x="717.245" y="162.45" width="117.75500000000001" height="13.5" fill="#fff" opacity="0"></rect><text font-size="13.50" x="722.2" y="173.3" fill="#932834"><tspan x="722.245" y="173.25">Asia &amp; Pacific</tspan></text></g><g class="legendMark"><rect x="717.245" y="257.25" width="91.295" height="13.5" fill="#fff" opacity="0"></rect><text font-size="13.50" x="722.2" y="268.1" fill="#9ecc8a"><tspan x="722.245" y="268.05">Americas</tspan></text></g><g class="legendMark"><rect x="717.245" y="411.85" width="78.74000000000001" height="13.5" fill="#fff" opacity="0"></rect><text font-size="13.50" x="722.2" y="422.7" fill="#ffd53e"><tspan x="722.245" y="422.65000000000003">Europe</tspan></text></g></g><g class="Areas"><rect x="97.598" y="70" width="619.647" height="465.29999999999995" opacity="0" fill="rgba(255,255,255,0)"></rect><path class="Europe_0-area" stroke-linecap="round" d="M97.6 529L191.5 516.3L238.4 503.8L285.4 492.7L332.3 477.3L379.3 468.1L388.6 469.2L398 469.3L407.4 467.7L416.8 462.5L426.2 458.3L435.6 457.6L445 451L454.4 448.1L463.8 440.9L473.1 435.3L482.5 435.9L491.9 429L501.3 425.8L510.7 421.1L520.1 416.6L529.5 410.2L538.9 402.4L548.3 398L557.6 395.7L567 388L576.4 386.4L585.8 382L595.2 382L604.6 375.4L614 369L623.4 361.2L632.7 352.7L642.1 352.5L651.5 361.4L660.9 351L698.5 316.8L707.9 306.5L717.2 301.9L717.245 535.3L97.598 535.3" fill="#ffd53e" fill-opacity="0.7"></path><path class="Americas_0-area" stroke-linecap="round" d="M97.6 526.1L191.5 510L238.4 495L285.4 476.8L332.3 458.5L379.3 444.6L388.6 445.7L398 446.8L407.4 445.1L416.8 437.1L426.2 433.8L435.6 430.9L445 422.1L454.4 416.8L463.8 408.1L473.1 400.3L482.5 400L491.9 390.5L501.3 387.3L510.7 381.5L520.1 375.6L529.5 367.1L538.9 358.6L548.3 353.1L557.6 349.8L567 339.7L576.4 340.4L585.8 338L595.2 339.4L604.6 328.1L614 318.7L623.4 310.1L632.7 299L642.1 296.9L651.5 308L660.9 294.4L698.5 248.2L707.9 233.9L717.2 226.2L717.2 301.9L707.9 306.5L698.5 316.8L660.9 351L651.5 361.4L642.1 352.5L632.7 352.7L623.4 361.2L614 369L604.6 375.4L595.2 382L585.8 382L576.4 386.4L567 388L557.6 395.7L548.3 398L538.9 402.4L529.5 410.2L520.1 416.6L510.7 421.1L501.3 425.8L491.9 429L482.5 435.9L473.1 435.3L463.8 440.9L454.4 448.1L445 451L435.6 457.6L426.2 458.3L416.8 462.5L407.4 467.7L398 469.3L388.6 469.2L379.3 468.1L332.3 477.3L285.4 492.7L238.4 503.8L191.5 516.3L97.6 529" fill="#9ecc8a" fill-opacity="0.7"></path><path class="Asia-__0026-Pacific_0-area" stroke-linecap="round" d="M97.6 526.1L191.5 509.7L238.4 494.2L285.4 474.5L332.3 454.7L379.3 435.9L388.6 436.3L398 437L407.4 435.1L416.8 426L426.2 421.4L435.6 417.1L445 406.3L454.4 398.5L463.8 389.5L473.1 379.1L482.5 378.2L491.9 365.7L501.3 360L510.7 351.4L520.1 344.6L529.5 333L538.9 324.8L548.3 319.4L557.6 312.7L567 298.1L576.4 296.9L585.8 291L595.2 296.7L604.6 273.8L614 260.2L623.4 247.3L632.7 229.6L642.1 227.5L651.5 239.8L660.9 217L698.5 148.6L707.9 128.7L717.2 112.1L717.2 226.2L707.9 233.9L698.5 248.2L660.9 294.4L651.5 308L642.1 296.9L632.7 299L623.4 310.1L614 318.7L604.6 328.1L595.2 339.4L585.8 338L576.4 340.4L567 339.7L557.6 349.8L548.3 353.1L538.9 358.6L529.5 367.1L520.1 375.6L510.7 381.5L501.3 387.3L491.9 390.5L482.5 400L473.1 400.3L463.8 408.1L454.4 416.8L445 422.1L435.6 430.9L426.2 433.8L416.8 437.1L407.4 445.1L398 446.8L388.6 445.7L379.3 444.6L332.3 458.5L285.4 476.8L238.4 495L191.5 510L97.6 526.1" fill="#932834" fill-opacity="0.7"></path><path class="Middle-East_0-area" stroke-linecap="round" d="M97.6 526L191.5 509.5L238.4 493.3L285.4 473.8L332.3 453.3L379.3 433.3L388.6 433.4L398 433.9L407.4 432.2L416.8 423.1L426.2 418.4L435.6 414.5L445 403.5L454.4 395L463.8 386.1L473.1 375.5L482.5 374.8L491.9 361.5L501.3 355.7L510.7 346.8L520.1 339.4L529.5 327.1L538.9 318.5L548.3 312.7L557.6 304.6L567 288.9L576.4 287.6L585.8 280.3L595.2 285.6L604.6 260.1L614 245.5L623.4 231.7L632.7 211.7L642.1 206.7L651.5 219.9L660.9 196.1L698.5 127.8L707.9 107.6L717.2 91.9L717.2 112.1L707.9 128.7L698.5 148.6L660.9 217L651.5 239.8L642.1 227.5L632.7 229.6L623.4 247.3L614 260.2L604.6 273.8L595.2 296.7L585.8 291L576.4 296.9L567 298.1L557.6 312.7L548.3 319.4L538.9 324.8L529.5 333L520.1 344.6L510.7 351.4L501.3 360L491.9 365.7L482.5 378.2L473.1 379.1L463.8 389.5L454.4 398.5L445 406.3L435.6 417.1L426.2 421.4L416.8 426L407.4 435.1L398 437L388.6 436.3L379.3 435.9L332.3 454.7L285.4 474.5L238.4 494.2L191.5 509.7L97.6 526.1" fill="#f07f59" fill-opacity="0.7"></path><path class="Africa_0-area" stroke-linecap="round" d="M97.6 525.8L191.5 509.2L238.4 492.8L285.4 472.8L332.3 451.6L379.3 430.5L388.6 430.4L398 431L407.4 429.2L416.8 419.7L426.2 414.7L435.6 410.9L445 399.8L454.4 390.3L463.8 380.8L473.1 369.8L482.5 368.7L491.9 354.6L501.3 348.6L510.7 339.5L520.1 331.7L529.5 318.7L538.9 309.8L548.3 303L557.6 294.4L567 278.4L576.4 276.7L585.8 269L595.2 273.7L604.6 247.1L614 231.4L623.4 216.1L632.7 195.1L642.1 190L651.5 202.6L660.9 177.2L698.5 107L707.9 87.4L717.2 70L717.2 91.9L707.9 107.6L698.5 127.8L660.9 196.1L651.5 219.9L642.1 206.7L632.7 211.7L623.4 231.7L614 245.5L604.6 260.1L595.2 285.6L585.8 280.3L576.4 287.6L567 288.9L557.6 304.6L548.3 312.7L538.9 318.5L529.5 327.1L520.1 339.4L510.7 346.8L501.3 355.7L491.9 361.5L482.5 374.8L473.1 375.5L463.8 386.1L454.4 395L445 403.5L435.6 414.5L426.2 418.4L416.8 423.1L407.4 432.2L398 433.9L388.6 433.4L379.3 433.3L332.3 453.3L285.4 473.8L238.4 493.3L191.5 509.5L97.6 526" fill="#3360a9" fill-opacity="0.7"></path><path class="Europe_0-border" stroke-linecap="round" d="M97.6 529L191.5 516.3L238.4 503.8L285.4 492.7L332.3 477.3L379.3 468.1L388.6 469.2L398 469.3L407.4 467.7L416.8 462.5L426.2 458.3L435.6 457.6L445 451L454.4 448.1L463.8 440.9L473.1 435.3L482.5 435.9L491.9 429L501.3 425.8L510.7 421.1L520.1 416.6L529.5 410.2L538.9 402.4L548.3 398L557.6 395.7L567 388L576.4 386.4L585.8 382L595.2 382L604.6 375.4L614 369L623.4 361.2L632.7 352.7L642.1 352.5L651.5 361.4L660.9 351L698.5 316.8L707.9 306.5L717.2 301.9" stroke="rgb(213, 178, 52)" stroke-opacity="0.7" stroke-width="0.5" fill="none"></path><path class="Americas_0-border" stroke-linecap="round" d="M97.6 526.1L191.5 510L238.4 495L285.4 476.8L332.3 458.5L379.3 444.6L388.6 445.7L398 446.8L407.4 445.1L416.8 437.1L426.2 433.8L435.6 430.9L445 422.1L454.4 416.8L463.8 408.1L473.1 400.3L482.5 400L491.9 390.5L501.3 387.3L510.7 381.5L520.1 375.6L529.5 367.1L538.9 358.6L548.3 353.1L557.6 349.8L567 339.7L576.4 340.4L585.8 338L595.2 339.4L604.6 328.1L614 318.7L623.4 310.1L632.7 299L642.1 296.9L651.5 308L660.9 294.4L698.5 248.2L707.9 233.9L717.2 226.2" stroke="rgb(132, 171, 115)" stroke-opacity="0.7" stroke-width="0.5" fill="none"></path><path class="Asia-__0026-Pacific_0-border" stroke-linecap="round" d="M97.6 526.1L191.5 509.7L238.4 494.2L285.4 474.5L332.3 454.7L379.3 435.9L388.6 436.3L398 437L407.4 435.1L416.8 426L426.2 421.4L435.6 417.1L445 406.3L454.4 398.5L463.8 389.5L473.1 379.1L482.5 378.2L491.9 365.7L501.3 360L510.7 351.4L520.1 344.6L529.5 333L538.9 324.8L548.3 319.4L557.6 312.7L567 298.1L576.4 296.9L585.8 291L595.2 296.7L604.6 273.8L614 260.2L623.4 247.3L632.7 229.6L642.1 227.5L651.5 239.8L660.9 217L698.5 148.6L707.9 128.7L717.2 112.1" stroke="rgb(123, 33, 44)" stroke-opacity="0.7" stroke-width="0.5" fill="none"></path><path class="Middle-East_0-border" stroke-linecap="round" d="M97.6 526L191.5 509.5L238.4 493.3L285.4 473.8L332.3 453.3L379.3 433.3L388.6 433.4L398 433.9L407.4 432.2L416.8 423.1L426.2 418.4L435.6 414.5L445 403.5L454.4 395L463.8 386.1L473.1 375.5L482.5 374.8L491.9 361.5L501.3 355.7L510.7 346.8L520.1 339.4L529.5 327.1L538.9 318.5L548.3 312.7L557.6 304.6L567 288.9L576.4 287.6L585.8 280.3L595.2 285.6L604.6 260.1L614 245.5L623.4 231.7L632.7 211.7L642.1 206.7L651.5 219.9L660.9 196.1L698.5 127.8L707.9 107.6L717.2 91.9" stroke="rgb(201, 106, 74)" stroke-opacity="0.7" stroke-width="0.5" fill="none"></path><path class="Africa_0-border" stroke-linecap="round" d="M97.6 525.8L191.5 509.2L238.4 492.8L285.4 472.8L332.3 451.6L379.3 430.5L388.6 430.4L398 431L407.4 429.2L416.8 419.7L426.2 414.7L435.6 410.9L445 399.8L454.4 390.3L463.8 380.8L473.1 369.8L482.5 368.7L491.9 354.6L501.3 348.6L510.7 339.5L520.1 331.7L529.5 318.7L538.9 309.8L548.3 303L557.6 294.4L567 278.4L576.4 276.7L585.8 269L595.2 273.7L604.6 247.1L614 231.4L623.4 216.1L632.7 195.1L642.1 190L651.5 202.6L660.9 177.2L698.5 107L707.9 87.4L717.2 70" stroke="rgb(43, 80, 141)" stroke-opacity="0.7" stroke-width="0.5" fill="none"></path></g></g></g><g class="SourcesFooter" style="fill:#777"><g class="clickable" style="fill:#777"><text font-size="12.60" x="15.0" y="581.6"><tspan x="15" y="581.58">Source: United Nations World Tourism Organization (UNWTO) (2017)</tspan></text></g><text font-size="12.60" x="600.6" y="581.6"><tspan x="600.64" y="581.58"><a target='_blank' style='fill: #777;' href='https://ourworldindata.org/tourism/'>OurWorldInData.org/tourism/</a> • <a style="fill: #777;" class="cclogo" href="http://creativecommons.org/licenses/by-sa/4.0/deed.en_US" target="_blank">CC BY-SA</a></tspan></text></g></g></svg>