<svg xmlns="http://www.w3.org/2000/svg" version="1.1" style="font-family:&#x27;Helvetica Neue&#x27;, Helvetica, Arial, sans-serif;font-size:18px;background-color:white;text-rendering:optimizeLegibility;-webkit-font-smoothing:antialiased" width="850" height="600"><g class="ChartTab"><g class="HeaderView"><g opacity="0.8" transform="translate(778, 15) scale(0.27)"><a xmlns:xlink="http://www.w3.org/1999/xlink" xlink:href="https://ourworldindata.org" target="_blank"><g><rect x="0" y="0" fill="#1B2543" width="211.2" height="130.1"/><rect x="0" y="112.2" fill="#E63912" width="211.2" height="17.9"/><g><rect x="1.2" y="12.3" fill="none" width="210.2" height="99.2"/><path fill="#FFFFFF" d="M37.8,32.2c0,12.7-7.7,19.4-17.1,19.4c-9.7,0-16.6-7.5-16.6-18.7c0-11.7,7.3-19.3,17.1-19.3 C31.3,13.7,37.8,21.3,37.8,32.2z M9.2,32.8c0,7.9,4.3,14.9,11.8,14.9c7.5,0,11.8-6.9,11.8-15.3c0-7.3-3.8-14.9-11.8-14.9 C13.1,17.5,9.2,24.8,9.2,32.8z"/><path fill="#FFFFFF" d="M62.7,43.8c0,2.7,0.1,5.1,0.2,7.2h-4.3l-0.3-4.3h-0.1c-1.3,2.1-4,4.9-8.8,4.9c-4.2,0-9.1-2.3-9.1-11.6 V24.6h4.8v14.6c0,5,1.5,8.4,5.9,8.4c3.2,0,5.5-2.2,6.3-4.4c0.3-0.7,0.4-1.6,0.4-2.5V24.6h4.8V43.8z"/><path fill="#FFFFFF" d="M67.3,32.8c0-3.1-0.1-5.8-0.2-8.2h4.2l0.2,5.2h0.2c1.2-3.5,4.1-5.8,7.3-5.8c0.5,0,0.9,0.1,1.4,0.2v4.5 c-0.5-0.1-1-0.2-1.6-0.2c-3.4,0-5.8,2.6-6.5,6.2c-0.1,0.7-0.2,1.4-0.2,2.2V51h-4.8V32.8z"/><path fill="#FFFFFF" d="M95.4,51l-9.4-36.8h5l4.4,18.6c1.1,4.6,2.1,9.2,2.7,12.7h0.1c0.6-3.7,1.8-8,3-12.8l4.9-18.5h5l4.5,18.7 c1,4.4,2,8.7,2.6,12.6h0.1c0.8-4,1.8-8.1,3-12.7l4.9-18.5h4.9L120.6,51h-5L111,31.9c-1.1-4.7-1.9-8.3-2.4-12h-0.1 c-0.7,3.7-1.5,7.3-2.8,12L100.4,51H95.4z"/><path fill="#FFFFFF" d="M154.9,37.6c0,9.8-6.8,14-13.2,14c-7.2,0-12.7-5.2-12.7-13.6c0-8.8,5.8-14,13.1-14 C149.8,24,154.9,29.5,154.9,37.6z M133.9,37.9c0,5.8,3.3,10.1,8,10.1c4.6,0,8-4.3,8-10.3c0-4.5-2.2-10.1-7.9-10.1 C136.3,27.6,133.9,32.8,133.9,37.9z"/><path fill="#FFFFFF" d="M158.2,32.8c0-3.1-0.1-5.8-0.2-8.2h4.2l0.2,5.2h0.2c1.2-3.5,4.1-5.8,7.3-5.8c0.5,0,0.9,0.1,1.4,0.2v4.5 c-0.5-0.1-1-0.2-1.6-0.2c-3.4,0-5.8,2.6-6.5,6.2c-0.1,0.7-0.2,1.4-0.2,2.2V51h-4.8V32.8z"/><path fill="#FFFFFF" d="M173.5,12.3h4.8V51h-4.8V12.3z"/><path fill="#FFFFFF" d="M206.5,12.3v31.9c0,2.3,0.1,5,0.2,6.8h-4.3l-0.2-4.6H202c-1.5,2.9-4.7,5.2-9,5.2 c-6.4,0-11.3-5.4-11.3-13.4c-0.1-8.8,5.4-14.2,11.9-14.2c4,0,6.8,1.9,8,4h0.1V12.3H206.5z M201.7,35.4c0-0.6-0.1-1.4-0.2-2 c-0.7-3.1-3.3-5.6-6.9-5.6c-5,0-7.9,4.4-7.9,10.2c0,5.3,2.6,9.8,7.8,9.8c3.2,0,6.2-2.1,7.1-5.7c0.2-0.7,0.2-1.3,0.2-2.1V35.4z"/><path fill="#FFFFFF" d="M42.8,64c0.1,1.6-1.1,2.9-3.1,2.9c-1.7,0-2.9-1.3-2.9-2.9c0-1.7,1.3-3,3-3C41.7,61,42.8,62.3,42.8,64z M37.4,97.8V71.4h4.8v26.4H37.4z"/><path fill="#FFFFFF" d="M47.5,78.6c0-2.7-0.1-5-0.2-7.1h4.3l0.3,4.4h0.1c1.3-2.5,4.4-5,8.8-5c3.7,0,9.4,2.2,9.4,11.2v15.8h-4.8 V82.6c0-4.3-1.6-7.8-6.1-7.8c-3.2,0-5.6,2.2-6.5,4.9c-0.2,0.6-0.3,1.4-0.3,2.2v15.9h-4.8V78.6z"/><path fill="#FFFFFF" d="M84,61.6c2.9-0.4,6.3-0.8,10.1-0.8c6.8,0,11.7,1.6,14.9,4.6c3.3,3,5.2,7.3,5.2,13.2c0,6-1.9,10.9-5.3,14.3 c-3.4,3.4-9.1,5.3-16.3,5.3c-3.4,0-6.2-0.2-8.6-0.4V61.6z M88.8,94.1c1.2,0.2,3,0.3,4.8,0.3c10.2,0,15.7-5.7,15.7-15.6 c0.1-8.7-4.9-14.2-14.9-14.2c-2.5,0-4.3,0.2-5.6,0.5V94.1z"/><path fill="#FFFFFF" d="M132.1,97.8l-0.4-3.3h-0.2c-1.5,2.1-4.3,3.9-8.1,3.9c-5.4,0-8.1-3.8-8.1-7.6c0-6.4,5.7-9.9,15.9-9.8v-0.5 c0-2.2-0.6-6.1-6-6.1c-2.5,0-5,0.8-6.9,2l-1.1-3.2c2.2-1.4,5.4-2.3,8.7-2.3c8.1,0,10.1,5.5,10.1,10.8v9.9c0,2.3,0.1,4.5,0.4,6.3 H132.1z M131.4,84.4c-5.3-0.1-11.2,0.8-11.2,5.9c0,3.1,2.1,4.6,4.5,4.6c3.4,0,5.6-2.2,6.4-4.4c0.2-0.5,0.3-1,0.3-1.5V84.4z"/><path fill="#FFFFFF" d="M146.6,63.9v7.6h6.9v3.7h-6.9v14.2c0,3.3,0.9,5.1,3.6,5.1c1.3,0,2.2-0.2,2.8-0.3l0.2,3.6 c-0.9,0.4-2.4,0.7-4.3,0.7c-2.2,0-4-0.7-5.2-2c-1.4-1.4-1.9-3.8-1.9-6.9V75.1h-4.1v-3.7h4.1v-6.3L146.6,63.9z"/><path fill="#FFFFFF" d="M171.4,97.8l-0.4-3.3h-0.2c-1.5,2.1-4.3,3.9-8.1,3.9c-5.4,0-8.1-3.8-8.1-7.6c0-6.4,5.7-9.9,15.9-9.8v-0.5 c0-2.2-0.6-6.1-6-6.1c-2.5,0-5,0.8-6.9,2l-1.1-3.2c2.2-1.4,5.4-2.3,8.7-2.3c8.1,0,10.1,5.5,10.1,10.8v9.9c0,2.3,0.1,4.5,0.4,6.3 H171.4z M170.7,84.4c-5.3-0.1-11.2,0.8-11.2,5.9c0,3.1,2.1,4.6,4.5,4.6c3.4,0,5.6-2.2,6.4-4.4c0.2-0.5,0.3-1,0.3-1.5V84.4z"/></g></g></a></g><a href="https://ourworldindata.org/grapher/investment-in-renewable-energy-by-technology" target="_blank"><text font-size="25.20" x="15.0" y="35.2" fill="#555"><tspan x="15" y="35.160000000000004">Investment in renewable energy, by technology</tspan></text></a><text font-size="14.40" x="15.0" y="53.7" fill="#666"><tspan x="15" y="53.72">Global investment in renewable energy technologies, measured in USD per year. Note investment figures exclude</tspan><tspan x="15" y="69.56">large-scale hydropower schemes.</tspan></text></g><g class="StackedBarChart"><defs><clipPath id="boundsClip-167"><rect x="102.296" y="92.1" width="548.704" height="443.2"></rect></clipPath></defs><rect x="15" y="92.1" width="820" height="464.4" opacity="0" fill="rgba(255,255,255,0)"></rect><g class="VerticalAxis"><text x="97.30" y="535.3" fill="#666" dominant-baseline="middle" text-anchor="end" font-size="16.2">$0</text><text x="97.30" y="464.3" fill="#666" dominant-baseline="middle" text-anchor="end" font-size="16.2">$50 billion</text><text x="97.30" y="393.3" fill="#666" dominant-baseline="middle" text-anchor="end" font-size="16.2">$100 billion</text><text x="97.30" y="322.3" fill="#666" dominant-baseline="middle" text-anchor="end" font-size="16.2">$150 billion</text><text x="97.30" y="251.3" fill="#666" dominant-baseline="middle" text-anchor="end" font-size="16.2">$200 billion</text><text x="97.30" y="180.3" fill="#666" dominant-baseline="middle" text-anchor="end" font-size="16.2">$250 billion</text><text x="97.30" y="109.3" fill="#666" dominant-baseline="middle" text-anchor="end" font-size="16.2">$300 billion</text></g><g class="AxisGridLines"><line x1="102.30" y1="535.3" x2="651.00" y2="535.3" stroke="#ccc"></line><line x1="102.30" y1="464.3" x2="651.00" y2="464.3" stroke="#ddd" stroke-dasharray="3,2"></line><line x1="102.30" y1="393.3" x2="651.00" y2="393.3" stroke="#ddd" stroke-dasharray="3,2"></line><line x1="102.30" y1="322.3" x2="651.00" y2="322.3" stroke="#ddd" stroke-dasharray="3,2"></line><line x1="102.30" y1="251.3" x2="651.00" y2="251.3" stroke="#ddd" stroke-dasharray="3,2"></line><line x1="102.30" y1="180.3" x2="651.00" y2="180.3" stroke="#ddd" stroke-dasharray="3,2"></line><line x1="102.30" y1="109.3" x2="651.00" y2="109.3" stroke="#ddd" stroke-dasharray="3,2"></line></g><g><text x="109.47680000000001" y="553.26" fill="#666" font-size="16.2">2004</text><text x="151.6848" y="553.26" fill="#666" font-size="16.2">2005</text><text x="193.8928" y="553.26" fill="#666" font-size="16.2">2006</text><text x="236.1008" y="553.26" fill="#666" font-size="16.2">2007</text><text x="278.3088" y="553.26" fill="#666" font-size="16.2">2008</text><text x="320.5168" y="553.26" fill="#666" font-size="16.2">2009</text><text x="362.72479999999996" y="553.26" fill="#666" font-size="16.2">2010</text><text x="404.93279999999993" y="553.26" fill="#666" font-size="16.2">2011</text><text x="447.1407999999999" y="553.26" fill="#666" font-size="16.2">2012</text><text x="489.34879999999987" y="553.26" fill="#666" font-size="16.2">2013</text><text x="531.5567999999998" y="553.26" fill="#666" font-size="16.2">2014</text><text x="573.7647999999998" y="553.26" fill="#666" font-size="16.2">2015</text><text x="615.9727999999998" y="553.26" fill="#666" font-size="16.2">2016</text></g><g clip-path="url(#boundsClip-167)"><g class="World_6-segments"><rect x="110.73760000000001" y="519.4" width="33.7664" height="15.899999999999977" fill="#ffd53e" opacity="0.8"></rect><rect x="152.9456" y="512.7" width="33.7664" height="22.59999999999991" fill="#ffd53e" opacity="0.8"></rect><rect x="195.1536" y="504.2" width="33.7664" height="31.099999999999966" fill="#ffd53e" opacity="0.8"></rect><rect x="237.3616" y="480.1" width="33.7664" height="55.19999999999993" fill="#ffd53e" opacity="0.8"></rect><rect x="279.56960000000004" y="448.3" width="33.7664" height="86.99999999999994" fill="#ffd53e" opacity="0.8"></rect><rect x="321.7776" y="444.4" width="33.7664" height="90.89999999999998" fill="#ffd53e" opacity="0.8"></rect><rect x="363.9856" y="388.2" width="33.7664" height="147.09999999999997" fill="#ffd53e" opacity="0.8"></rect><rect x="406.19359999999995" y="315.3" width="33.7664" height="219.99999999999994" fill="#ffd53e" opacity="0.8"></rect><rect x="448.4015999999999" y="335.6" width="33.7664" height="199.69999999999993" fill="#ffd53e" opacity="0.8"></rect><rect x="490.6095999999999" y="366.2" width="33.7664" height="169.09999999999997" fill="#ffd53e" opacity="0.8"></rect><rect x="532.8175999999999" y="331" width="33.7664" height="204.29999999999995" fill="#ffd53e" opacity="0.8"></rect><rect x="575.0255999999998" y="291.5" width="33.7664" height="243.79999999999995" fill="#ffd53e" opacity="0.8"></rect><rect x="617.2335999999998" y="373.8" width="33.7664" height="161.49999999999994" fill="#ffd53e" opacity="0.8"></rect></g><g class="World_5-segments"><rect x="110.73760000000001" y="491.6" width="33.7664" height="27.799999999999955" fill="#7ec7ce" opacity="0.8"></rect><rect x="152.9456" y="472.2" width="33.7664" height="40.50000000000006" fill="#7ec7ce" opacity="0.8"></rect><rect x="195.1536" y="447.8" width="33.7664" height="56.39999999999998" fill="#7ec7ce" opacity="0.8"></rect><rect x="237.3616" y="393.3" width="33.7664" height="86.80000000000001" fill="#7ec7ce" opacity="0.8"></rect><rect x="279.56960000000004" y="342" width="33.7664" height="106.30000000000001" fill="#7ec7ce" opacity="0.8"></rect><rect x="321.7776" y="331.2" width="33.7664" height="113.19999999999999" fill="#7ec7ce" opacity="0.8"></rect><rect x="363.9856" y="243.9" width="33.7664" height="144.29999999999998" fill="#7ec7ce" opacity="0.8"></rect><rect x="406.19359999999995" y="195.8" width="33.7664" height="119.5" fill="#7ec7ce" opacity="0.8"></rect><rect x="448.4015999999999" y="215.8" width="33.7664" height="119.80000000000001" fill="#7ec7ce" opacity="0.8"></rect><rect x="490.6095999999999" y="239.8" width="33.7664" height="126.39999999999998" fill="#7ec7ce" opacity="0.8"></rect><rect x="532.8175999999999" y="176.9" width="33.7664" height="154.1" fill="#7ec7ce" opacity="0.8"></rect><rect x="575.0255999999998" y="115.1" width="33.7664" height="176.4" fill="#7ec7ce" opacity="0.8"></rect><rect x="617.2335999999998" y="214.1" width="33.7664" height="159.70000000000002" fill="#7ec7ce" opacity="0.8"></rect></g><g class="World_4-segments"><rect x="110.73760000000001" y="479.8" width="33.7664" height="11.800000000000011" fill="#6bb537" opacity="0.8"></rect><rect x="152.9456" y="458.3" width="33.7664" height="13.899999999999977" fill="#6bb537" opacity="0.8"></rect><rect x="195.1536" y="429.6" width="33.7664" height="18.19999999999999" fill="#6bb537" opacity="0.8"></rect><rect x="237.3616" y="360.6" width="33.7664" height="32.69999999999999" fill="#6bb537" opacity="0.8"></rect><rect x="279.56960000000004" y="317.2" width="33.7664" height="24.80000000000001" fill="#6bb537" opacity="0.8"></rect><rect x="321.7776" y="309.9" width="33.7664" height="21.30000000000001" fill="#6bb537" opacity="0.8"></rect><rect x="363.9856" y="220.3" width="33.7664" height="23.599999999999994" fill="#6bb537" opacity="0.8"></rect><rect x="406.19359999999995" y="167.5" width="33.7664" height="28.30000000000001" fill="#6bb537" opacity="0.8"></rect><rect x="448.4015999999999" y="194.6" width="33.7664" height="21.200000000000017" fill="#6bb537" opacity="0.8"></rect><rect x="490.6095999999999" y="222.2" width="33.7664" height="17.600000000000023" fill="#6bb537" opacity="0.8"></rect><rect x="532.8175999999999" y="161.5" width="33.7664" height="15.400000000000006" fill="#6bb537" opacity="0.8"></rect><rect x="575.0255999999998" y="105.6" width="33.7664" height="9.5" fill="#6bb537" opacity="0.8"></rect><rect x="617.2335999999998" y="204.4" width="33.7664" height="9.699999999999989" fill="#6bb537" opacity="0.8"></rect></g><g class="World_3-segments"><rect x="110.73760000000001" y="474.1" width="33.7664" height="5.699999999999989" fill="#34983f" opacity="0.8"></rect><rect x="152.9456" y="444.3" width="33.7664" height="14" fill="#34983f" opacity="0.8"></rect><rect x="195.1536" y="389" width="33.7664" height="40.60000000000002" fill="#34983f" opacity="0.8"></rect><rect x="237.3616" y="321.7" width="33.7664" height="38.900000000000034" fill="#34983f" opacity="0.8"></rect><rect x="279.56960000000004" y="291.1" width="33.7664" height="26.099999999999966" fill="#34983f" opacity="0.8"></rect><rect x="321.7776" y="295.5" width="33.7664" height="14.399999999999977" fill="#34983f" opacity="0.8"></rect><rect x="363.9856" y="205.4" width="33.7664" height="14.900000000000006" fill="#34983f" opacity="0.8"></rect><rect x="406.19359999999995" y="152.5" width="33.7664" height="15" fill="#34983f" opacity="0.8"></rect><rect x="448.4015999999999" y="184.4" width="33.7664" height="10.199999999999989" fill="#34983f" opacity="0.8"></rect><rect x="490.6095999999999" y="214.8" width="33.7664" height="7.399999999999977" fill="#34983f" opacity="0.8"></rect><rect x="532.8175999999999" y="154" width="33.7664" height="7.5" fill="#34983f" opacity="0.8"></rect><rect x="575.0255999999998" y="100.6" width="33.7664" height="5" fill="#34983f" opacity="0.8"></rect><rect x="617.2335999999998" y="201.3" width="33.7664" height="3.0999999999999943" fill="#34983f" opacity="0.8"></rect></g><g class="World_2-segments"><rect x="110.73760000000001" y="470.3" width="33.7664" height="3.8000000000000114" fill="#3360a9" opacity="0.8"></rect><rect x="152.9456" y="433.8" width="33.7664" height="10.5" fill="#3360a9" opacity="0.8"></rect><rect x="195.1536" y="378.4" width="33.7664" height="10.600000000000023" fill="#3360a9" opacity="0.8"></rect><rect x="237.3616" y="312.6" width="33.7664" height="9.099999999999966" fill="#3360a9" opacity="0.8"></rect><rect x="279.56960000000004" y="280.3" width="33.7664" height="10.800000000000011" fill="#3360a9" opacity="0.8"></rect><rect x="321.7776" y="286.6" width="33.7664" height="8.899999999999977" fill="#3360a9" opacity="0.8"></rect><rect x="363.9856" y="193.9" width="33.7664" height="11.5" fill="#3360a9" opacity="0.8"></rect><rect x="406.19359999999995" y="141.8" width="33.7664" height="10.699999999999989" fill="#3360a9" opacity="0.8"></rect><rect x="448.4015999999999" y="175.3" width="33.7664" height="9.099999999999994" fill="#3360a9" opacity="0.8"></rect><rect x="490.6095999999999" y="206.8" width="33.7664" height="8" fill="#3360a9" opacity="0.8"></rect><rect x="532.8175999999999" y="144.9" width="33.7664" height="9.099999999999994" fill="#3360a9" opacity="0.8"></rect><rect x="575.0255999999998" y="95.7" width="33.7664" height="4.8999999999999915" fill="#3360a9" opacity="0.8"></rect><rect x="617.2335999999998" y="196.3" width="33.7664" height="5" fill="#3360a9" opacity="0.8"></rect></g><g class="World_1-segments"><rect x="110.73760000000001" y="468.6" width="33.7664" height="1.6999999999999886" fill="#e6332e" opacity="0.8"></rect><rect x="152.9456" y="432.1" width="33.7664" height="1.6999999999999886" fill="#e6332e" opacity="0.8"></rect><rect x="195.1536" y="376.4" width="33.7664" height="2" fill="#e6332e" opacity="0.8"></rect><rect x="237.3616" y="310.2" width="33.7664" height="2.400000000000034" fill="#e6332e" opacity="0.8"></rect><rect x="279.56960000000004" y="277.8" width="33.7664" height="2.5" fill="#e6332e" opacity="0.8"></rect><rect x="321.7776" y="282.7" width="33.7664" height="3.900000000000034" fill="#e6332e" opacity="0.8"></rect><rect x="363.9856" y="189.8" width="33.7664" height="4.099999999999994" fill="#e6332e" opacity="0.8"></rect><rect x="406.19359999999995" y="136.3" width="33.7664" height="5.5" fill="#e6332e" opacity="0.8"></rect><rect x="448.4015999999999" y="173" width="33.7664" height="2.3000000000000114" fill="#e6332e" opacity="0.8"></rect><rect x="490.6095999999999" y="202.7" width="33.7664" height="4.100000000000023" fill="#e6332e" opacity="0.8"></rect><rect x="532.8175999999999" y="140.8" width="33.7664" height="4.099999999999994" fill="#e6332e" opacity="0.8"></rect><rect x="575.0255999999998" y="92.4" width="33.7664" height="3.299999999999997" fill="#e6332e" opacity="0.8"></rect><rect x="617.2335999999998" y="192.5" width="33.7664" height="3.8000000000000114" fill="#e6332e" opacity="0.8"></rect></g><g class="World_0-segments"><rect x="110.73760000000001" y="468.6" width="33.7664" height="0" fill="#674c98" opacity="0.8"></rect><rect x="152.9456" y="431.9" width="33.7664" height="0.20000000000004547" fill="#674c98" opacity="0.8"></rect><rect x="195.1536" y="375.3" width="33.7664" height="1.099999999999966" fill="#674c98" opacity="0.8"></rect><rect x="237.3616" y="309.1" width="33.7664" height="1.099999999999966" fill="#674c98" opacity="0.8"></rect><rect x="279.56960000000004" y="277.6" width="33.7664" height="0.19999999999998863" fill="#674c98" opacity="0.8"></rect><rect x="321.7776" y="282.2" width="33.7664" height="0.5" fill="#674c98" opacity="0.8"></rect><rect x="363.9856" y="189.5" width="33.7664" height="0.30000000000001137" fill="#674c98" opacity="0.8"></rect><rect x="406.19359999999995" y="136" width="33.7664" height="0.30000000000001137" fill="#674c98" opacity="0.8"></rect><rect x="448.4015999999999" y="172.6" width="33.7664" height="0.4000000000000057" fill="#674c98" opacity="0.8"></rect><rect x="490.6095999999999" y="202.4" width="33.7664" height="0.29999999999998295" fill="#674c98" opacity="0.8"></rect><rect x="532.8175999999999" y="140.4" width="33.7664" height="0.4000000000000057" fill="#674c98" opacity="0.8"></rect><rect x="575.0255999999998" y="92.1" width="33.7664" height="0.30000000000001137" fill="#674c98" opacity="0.8"></rect><rect x="617.2335999999998" y="192.2" width="33.7664" height="0.30000000000001137" fill="#674c98" opacity="0.8"></rect></g></g><g class="ScatterColorLegend clickable" style="cursor:pointer"><g class="legendMark"><rect x="671" y="89.6" width="93.152" height="17.6" fill="#fff" opacity="0"></rect>,<rect x="671" y="95.1" width="6" height="6" fill="#674c98"></rect>,<text font-size="12.60" x="682.0" y="102.2"><tspan x="682" y="102.17999999999999">Marine Energy</tspan></text></g><g class="legendMark"><rect x="671" y="107.19999999999999" width="120.62" height="17.6" fill="#fff" opacity="0"></rect>,<rect x="671" y="112.69999999999999" width="6" height="6" fill="#e6332e"></rect>,<text font-size="12.60" x="682.0" y="119.8"><tspan x="682" y="119.77999999999999">Geothermal Energy</tspan></text></g><g class="legendMark"><rect x="671" y="124.8" width="114.068" height="17.6" fill="#fff" opacity="0"></rect>,<rect x="671" y="130.3" width="6" height="6" fill="#3360a9"></rect>,<text font-size="12.60" x="682.0" y="137.4"><tspan x="682" y="137.38">Small Hydropower</tspan></text></g><g class="legendMark"><rect x="671" y="142.4" width="93.278" height="17.6" fill="#fff" opacity="0"></rect>,<rect x="671" y="147.9" width="6" height="6" fill="#34983f"></rect>,<text font-size="12.60" x="682.0" y="155.0"><tspan x="682" y="154.98">Liquid Biofuels</tspan></text></g><g class="legendMark"><rect x="671" y="160" width="169.63400000000001" height="17.6" fill="#fff" opacity="0"></rect>,<rect x="671" y="165.5" width="6" height="6" fill="#6bb537"></rect>,<text font-size="12.60" x="682.0" y="172.6"><tspan x="682" y="172.57999999999998">Biomass &amp; Waste-to-Energy</tspan></text></g><g class="legendMark"><rect x="671" y="177.6" width="83.324" height="17.6" fill="#fff" opacity="0"></rect>,<rect x="671" y="183.1" width="6" height="6" fill="#7ec7ce"></rect>,<text font-size="12.60" x="682.0" y="190.2"><tspan x="682" y="190.17999999999998">Wind Energy</tspan></text></g><g class="legendMark"><rect x="671" y="195.2" width="84.08" height="17.6" fill="#fff" opacity="0"></rect>,<rect x="671" y="200.7" width="6" height="6" fill="#ffd53e"></rect>,<text font-size="12.60" x="682.0" y="207.8"><tspan x="682" y="207.77999999999997">Solar Energy</tspan></text></g></g></g><g class="SourcesFooter" style="fill:#777"><g class="clickable" style="fill:#777"><text font-size="12.60" x="15.0" y="581.6"><tspan x="15" y="581.58">Source: International Renewable Energy Agency (IRENA)</tspan></text></g><text font-size="12.60" x="367.9" y="581.6"><tspan x="367.918" y="581.58"><a target='_blank' style='fill: #777;' href='https://ourworldindata.org/energy-production-and-changing-energy-sources/'>OurWorldInData.org/energy-production-and-changing-energy-sources/</a> • <a style="fill: #777;" class="cclogo" href="http://creativecommons.org/licenses/by-sa/4.0/deed.en_US" target="_blank">CC BY-SA</a></tspan></text></g></g></svg>