<svg xmlns="http://www.w3.org/2000/svg" version="1.1" style="font-family:&#x27;Helvetica Neue&#x27;, Helvetica, Arial, sans-serif;font-size:18px;background-color:white;text-rendering:optimizeLegibility;-webkit-font-smoothing:antialiased" width="850" height="600"><g class="ChartTab"><g class="HeaderView"><g opacity="0.8" transform="translate(778, 15) scale(0.27)"><a xmlns:xlink="http://www.w3.org/1999/xlink" xlink:href="https://ourworldindata.org" target="_blank"><g><rect x="0" y="0" fill="#1B2543" width="211.2" height="130.1"/><rect x="0" y="112.2" fill="#E63912" width="211.2" height="17.9"/><g><rect x="1.2" y="12.3" fill="none" width="210.2" height="99.2"/><path fill="#FFFFFF" d="M37.8,32.2c0,12.7-7.7,19.4-17.1,19.4c-9.7,0-16.6-7.5-16.6-18.7c0-11.7,7.3-19.3,17.1-19.3 C31.3,13.7,37.8,21.3,37.8,32.2z M9.2,32.8c0,7.9,4.3,14.9,11.8,14.9c7.5,0,11.8-6.9,11.8-15.3c0-7.3-3.8-14.9-11.8-14.9 C13.1,17.5,9.2,24.8,9.2,32.8z"/><path fill="#FFFFFF" d="M62.7,43.8c0,2.7,0.1,5.1,0.2,7.2h-4.3l-0.3-4.3h-0.1c-1.3,2.1-4,4.9-8.8,4.9c-4.2,0-9.1-2.3-9.1-11.6 V24.6h4.8v14.6c0,5,1.5,8.4,5.9,8.4c3.2,0,5.5-2.2,6.3-4.4c0.3-0.7,0.4-1.6,0.4-2.5V24.6h4.8V43.8z"/><path fill="#FFFFFF" d="M67.3,32.8c0-3.1-0.1-5.8-0.2-8.2h4.2l0.2,5.2h0.2c1.2-3.5,4.1-5.8,7.3-5.8c0.5,0,0.9,0.1,1.4,0.2v4.5 c-0.5-0.1-1-0.2-1.6-0.2c-3.4,0-5.8,2.6-6.5,6.2c-0.1,0.7-0.2,1.4-0.2,2.2V51h-4.8V32.8z"/><path fill="#FFFFFF" d="M95.4,51l-9.4-36.8h5l4.4,18.6c1.1,4.6,2.1,9.2,2.7,12.7h0.1c0.6-3.7,1.8-8,3-12.8l4.9-18.5h5l4.5,18.7 c1,4.4,2,8.7,2.6,12.6h0.1c0.8-4,1.8-8.1,3-12.7l4.9-18.5h4.9L120.6,51h-5L111,31.9c-1.1-4.7-1.9-8.3-2.4-12h-0.1 c-0.7,3.7-1.5,7.3-2.8,12L100.4,51H95.4z"/><path fill="#FFFFFF" d="M154.9,37.6c0,9.8-6.8,14-13.2,14c-7.2,0-12.7-5.2-12.7-13.6c0-8.8,5.8-14,13.1-14 C149.8,24,154.9,29.5,154.9,37.6z M133.9,37.9c0,5.8,3.3,10.1,8,10.1c4.6,0,8-4.3,8-10.3c0-4.5-2.2-10.1-7.9-10.1 C136.3,27.6,133.9,32.8,133.9,37.9z"/><path fill="#FFFFFF" d="M158.2,32.8c0-3.1-0.1-5.8-0.2-8.2h4.2l0.2,5.2h0.2c1.2-3.5,4.1-5.8,7.3-5.8c0.5,0,0.9,0.1,1.4,0.2v4.5 c-0.5-0.1-1-0.2-1.6-0.2c-3.4,0-5.8,2.6-6.5,6.2c-0.1,0.7-0.2,1.4-0.2,2.2V51h-4.8V32.8z"/><path fill="#FFFFFF" d="M173.5,12.3h4.8V51h-4.8V12.3z"/><path fill="#FFFFFF" d="M206.5,12.3v31.9c0,2.3,0.1,5,0.2,6.8h-4.3l-0.2-4.6H202c-1.5,2.9-4.7,5.2-9,5.2 c-6.4,0-11.3-5.4-11.3-13.4c-0.1-8.8,5.4-14.2,11.9-14.2c4,0,6.8,1.9,8,4h0.1V12.3H206.5z M201.7,35.4c0-0.6-0.1-1.4-0.2-2 c-0.7-3.1-3.3-5.6-6.9-5.6c-5,0-7.9,4.4-7.9,10.2c0,5.3,2.6,9.8,7.8,9.8c3.2,0,6.2-2.1,7.1-5.7c0.2-0.7,0.2-1.3,0.2-2.1V35.4z"/><path fill="#FFFFFF" d="M42.8,64c0.1,1.6-1.1,2.9-3.1,2.9c-1.7,0-2.9-1.3-2.9-2.9c0-1.7,1.3-3,3-3C41.7,61,42.8,62.3,42.8,64z M37.4,97.8V71.4h4.8v26.4H37.4z"/><path fill="#FFFFFF" d="M47.5,78.6c0-2.7-0.1-5-0.2-7.1h4.3l0.3,4.4h0.1c1.3-2.5,4.4-5,8.8-5c3.7,0,9.4,2.2,9.4,11.2v15.8h-4.8 V82.6c0-4.3-1.6-7.8-6.1-7.8c-3.2,0-5.6,2.2-6.5,4.9c-0.2,0.6-0.3,1.4-0.3,2.2v15.9h-4.8V78.6z"/><path fill="#FFFFFF" d="M84,61.6c2.9-0.4,6.3-0.8,10.1-0.8c6.8,0,11.7,1.6,14.9,4.6c3.3,3,5.2,7.3,5.2,13.2c0,6-1.9,10.9-5.3,14.3 c-3.4,3.4-9.1,5.3-16.3,5.3c-3.4,0-6.2-0.2-8.6-0.4V61.6z M88.8,94.1c1.2,0.2,3,0.3,4.8,0.3c10.2,0,15.7-5.7,15.7-15.6 c0.1-8.7-4.9-14.2-14.9-14.2c-2.5,0-4.3,0.2-5.6,0.5V94.1z"/><path fill="#FFFFFF" d="M132.1,97.8l-0.4-3.3h-0.2c-1.5,2.1-4.3,3.9-8.1,3.9c-5.4,0-8.1-3.8-8.1-7.6c0-6.4,5.7-9.9,15.9-9.8v-0.5 c0-2.2-0.6-6.1-6-6.1c-2.5,0-5,0.8-6.9,2l-1.1-3.2c2.2-1.4,5.4-2.3,8.7-2.3c8.1,0,10.1,5.5,10.1,10.8v9.9c0,2.3,0.1,4.5,0.4,6.3 H132.1z M131.4,84.4c-5.3-0.1-11.2,0.8-11.2,5.9c0,3.1,2.1,4.6,4.5,4.6c3.4,0,5.6-2.2,6.4-4.4c0.2-0.5,0.3-1,0.3-1.5V84.4z"/><path fill="#FFFFFF" d="M146.6,63.9v7.6h6.9v3.7h-6.9v14.2c0,3.3,0.9,5.1,3.6,5.1c1.3,0,2.2-0.2,2.8-0.3l0.2,3.6 c-0.9,0.4-2.4,0.7-4.3,0.7c-2.2,0-4-0.7-5.2-2c-1.4-1.4-1.9-3.8-1.9-6.9V75.1h-4.1v-3.7h4.1v-6.3L146.6,63.9z"/><path fill="#FFFFFF" d="M171.4,97.8l-0.4-3.3h-0.2c-1.5,2.1-4.3,3.9-8.1,3.9c-5.4,0-8.1-3.8-8.1-7.6c0-6.4,5.7-9.9,15.9-9.8v-0.5 c0-2.2-0.6-6.1-6-6.1c-2.5,0-5,0.8-6.9,2l-1.1-3.2c2.2-1.4,5.4-2.3,8.7-2.3c8.1,0,10.1,5.5,10.1,10.8v9.9c0,2.3,0.1,4.5,0.4,6.3 H171.4z M170.7,84.4c-5.3-0.1-11.2,0.8-11.2,5.9c0,3.1,2.1,4.6,4.5,4.6c3.4,0,5.6-2.2,6.4-4.4c0.2-0.5,0.3-1,0.3-1.5V84.4z"/></g></g></a></g><a href="https://ourworldindata.org/grapher/labor-force-participation-rates-for-women-ages-15-24-2016-vs-1980" target="_blank"><text font-size="24.30" x="15.0" y="34.4" fill="#555"><tspan x="15" y="34.44">Labor force participation rates for women ages 15-24, 2016 vs 1980</tspan></text></a><text font-size="14.40" x="15.0" y="52.8" fill="#666"><tspan x="15" y="52.81999999999999">Shown is the labor force participation rate for women in 2016 (horizontal axis) and in 1980 (vertical axis). The female</tspan><tspan x="15" y="68.66">labor force participation rate corresponds to the proportion of the female population ages 15-24 that is economically</tspan><tspan x="15" y="84.5">active. All figures correspond to national estimates, without ILO corrections (see limitations and exceptions in the</tspan><tspan x="15" y="100.34">sources)</tspan></text></g><g><g class="AxisBoxView"><g class="HorizontalAxis"><text font-size="12.60" x="196.9" y="554.0"><tspan x="196.853" y="553.98">Labor force participation rate for ages 15-24, female in 2016</tspan></text><text x="110.3" y="533.9" fill="#666" text-anchor="middle" font-size="16.2">10%</text><text x="192.6" y="533.9" fill="#666" text-anchor="middle" font-size="16.2">20%</text><text x="274.9" y="533.9" fill="#666" text-anchor="middle" font-size="16.2">30%</text><text x="357.2" y="533.9" fill="#666" text-anchor="middle" font-size="16.2">40%</text><text x="439.5" y="533.9" fill="#666" text-anchor="middle" font-size="16.2">50%</text><text x="521.8" y="533.9" fill="#666" text-anchor="middle" font-size="16.2">60%</text><text x="604.2" y="533.9" fill="#666" text-anchor="middle" font-size="16.2">70%</text><text x="686.5" y="533.9" fill="#666" text-anchor="middle" font-size="16.2">80%</text></g><g class="VerticalAxis"><text font-size="12.60" x="-507.5" y="25.1" transform="rotate(-90)"><tspan x="-507.497" y="25.080000000000002">Labor force participation rate for ages 15-24, female in 1980</tspan></text><text x="70.16" y="512.7" fill="#666" dominant-baseline="middle" text-anchor="end" font-size="16.2">0%</text><text x="70.16" y="428.8" fill="#666" dominant-baseline="middle" text-anchor="end" font-size="16.2">20%</text><text x="70.16" y="344.8" fill="#666" dominant-baseline="middle" text-anchor="end" font-size="16.2">40%</text><text x="70.16" y="260.9" fill="#666" dominant-baseline="middle" text-anchor="end" font-size="16.2">60%</text><text x="70.16" y="177" fill="#666" dominant-baseline="middle" text-anchor="end" font-size="16.2">80%</text></g><g class="AxisGridLines"><line x1="75.16" y1="512.7" x2="715.00" y2="512.7" stroke="#ccc"></line><line x1="75.16" y1="428.8" x2="715.00" y2="428.8" stroke="#ddd" stroke-dasharray="3,2"></line><line x1="75.16" y1="344.8" x2="715.00" y2="344.8" stroke="#ddd" stroke-dasharray="3,2"></line><line x1="75.16" y1="260.9" x2="715.00" y2="260.9" stroke="#ddd" stroke-dasharray="3,2"></line><line x1="75.16" y1="177" x2="715.00" y2="177" stroke="#ddd" stroke-dasharray="3,2"></line></g><g class="AxisGridLines"><line x1="110.3" y1="512.70" x2="110.3" y2="122.20" stroke="#ddd" stroke-dasharray="3,2"></line><line x1="192.6" y1="512.70" x2="192.6" y2="122.20" stroke="#ddd" stroke-dasharray="3,2"></line><line x1="274.9" y1="512.70" x2="274.9" y2="122.20" stroke="#ddd" stroke-dasharray="3,2"></line><line x1="357.2" y1="512.70" x2="357.2" y2="122.20" stroke="#ddd" stroke-dasharray="3,2"></line><line x1="439.5" y1="512.70" x2="439.5" y2="122.20" stroke="#ddd" stroke-dasharray="3,2"></line><line x1="521.8" y1="512.70" x2="521.8" y2="122.20" stroke="#ddd" stroke-dasharray="3,2"></line><line x1="604.2" y1="512.70" x2="604.2" y2="122.20" stroke="#ddd" stroke-dasharray="3,2"></line><line x1="686.5" y1="512.70" x2="686.5" y2="122.20" stroke="#ddd" stroke-dasharray="3,2"></line></g></g><g class="ComparisonLine"><defs><clipPath id="axisBounds-499"><rect x="75.162" y="122.19999999999999" width="639.838" height="390.5"></rect></clipPath></defs><path d="M75.2,488.7L81.6,485.4L88,482.1L94.4,478.9L100.8,475.6L107.2,472.3L113.6,469.1L120,465.8L126.3,462.6L132.7,459.3L139.1,456L145.5,452.8L151.9,449.5L158.3,446.2L164.7,443L171.1,439.7L177.5,436.5L183.9,433.2L190.3,429.9L196.7,426.7L203.1,423.4L209.5,420.1L215.9,416.9L222.3,413.6L228.7,410.4L235.1,407.1L241.5,403.8L247.9,400.6L254.3,397.3L260.7,394L267.1,390.8L273.5,387.5L279.9,384.3L286.3,381L292.7,377.7L299.1,374.5L305.5,371.2L311.9,367.9L318.3,364.7L324.7,361.4L331.1,358.2L337.5,354.9L343.9,351.6L350.3,348.4L356.7,345.1L363.1,341.8L369.5,338.6L375.9,335.3L382.3,332.1L388.7,328.8L395.1,325.5L401.5,322.3L407.9,319L414.3,315.7L420.7,312.5L427.1,309.2L433.5,306L439.9,302.7L446.3,299.4L452.7,296.2L459.1,292.9L465.5,289.6L471.9,286.4L478.3,283.1L484.7,279.9L491.1,276.6L497.5,273.3L503.9,270.1L510.3,266.8L516.7,263.5L523,260.3L529.4,257L535.8,253.8L542.2,250.5L548.6,247.2L555,244L561.4,240.7L567.8,237.4L574.2,234.2L580.6,230.9L587,227.7L593.4,224.4L599.8,221.1L606.2,217.9L612.6,214.6L619,211.3L625.4,208.1L631.8,204.8L638.2,201.6L644.6,198.3L651,195L657.4,191.8L663.8,188.5L670.2,185.3L676.6,182L683,178.7L689.4,175.5L695.8,172.2L702.2,168.9L708.6,165.7" clip-path="url(#axisBounds-499)" fill="none" stroke="#ccc"></path></g><g class="PointsWithLabels clickable" clip-path="url(#scatterBounds-500)" font-family="Arial Narrow, Arial, sans-serif"><rect x="75.162" y="122.19999999999999" width="639.838" height="390.5" fill="rgba(255,255,255,0)"></rect><defs><clipPath id="scatterBounds-500"><rect x="65.162" y="112.19999999999999" width="659.838" height="410.5"></rect></clipPath></defs><g class="key-India_0"><circle cx="149.00" cy="370.00" r="13.27" fill="#d14e5b" opacity="0.8" stroke="#333" stroke-width="0.7"></circle></g><g class="key-United-States_0"><circle cx="470.00" cy="252.00" r="7.74" fill="#4d824b" opacity="0.8" stroke="#333" stroke-width="0.7"></circle></g><g class="key-Indonesia_0"><circle cx="331.00" cy="375.00" r="6.36" fill="#d14e5b" opacity="0.8" stroke="#333" stroke-width="0.7"></circle></g><g class="key-Brazil_0"><circle cx="418.00" cy="366.00" r="5.77" fill="#69c487" opacity="0.8" stroke="#333" stroke-width="0.7"></circle></g><g class="key-Japan_0"><circle cx="397.00" cy="328.00" r="5.64" fill="#d14e5b" opacity="0.8" stroke="#333" stroke-width="0.7"></circle></g><g class="key-Bangladesh_0"><circle cx="222.00" cy="494.00" r="4.81" fill="#d14e5b" opacity="0.8" stroke="#333" stroke-width="0.7"></circle></g><g class="key-Pakistan_0"><circle cx="197.00" cy="487.00" r="4.80" fill="#d14e5b" opacity="0.8" stroke="#fff" stroke-width="0.7"></circle></g><g class="key-Germany_0"><circle cx="417.00" cy="315.00" r="4.75" fill="#ffd336" opacity="0.8" stroke="#333" stroke-width="0.7"></circle></g><g class="key-Nigeria_0"><circle cx="201.00" cy="433.00" r="4.67" fill="#5675c1" opacity="0.8" stroke="#333" stroke-width="0.7"></circle></g><g class="key-Mexico_0"><circle cx="284.00" cy="380.00" r="4.49" fill="#4d824b" opacity="0.8" stroke="#333" stroke-width="0.7"></circle></g><g class="key-United-Kingdom_0"><circle cx="501.00" cy="276.00" r="4.13" fill="#ffd336" opacity="0.8" stroke="#333" stroke-width="0.7"></circle></g><g class="key-Italy_0"><circle cx="215.00" cy="339.00" r="4.13" fill="#ffd336" opacity="0.8" stroke="#333" stroke-width="0.7"></circle></g><g class="key-France_0"><circle cx="308.00" cy="338.00" r="4.06" fill="#ffd336" opacity="0.8" stroke="#333" stroke-width="0.7"></circle></g><g class="key-Ukraine_0"><circle cx="283.00" cy="354.00" r="3.94" fill="#ffd336" opacity="0.8" stroke="#333" stroke-width="0.7"></circle></g><g class="key-Thailand_0"><circle cx="310.00" cy="198.00" r="3.86" fill="#d14e5b" opacity="0.8" stroke="#333" stroke-width="0.7"></circle></g><g class="key-Philippines_0"><circle cx="276.00" cy="336.00" r="3.85" fill="#d14e5b" opacity="0.8" stroke="#fff" stroke-width="0.7"></circle></g><g class="key-Egypt_0"><circle cx="195.00" cy="478.00" r="3.78" fill="#5675c1" opacity="0.8" stroke="#333" stroke-width="0.7"></circle></g><g class="key-Turkey_0"><circle cx="277.00" cy="299.00" r="3.75" fill="#d14e5b" opacity="0.8" stroke="#333" stroke-width="0.7"></circle></g><g class="key-Iran_0"><circle cx="118.00" cy="453.00" r="3.57" fill="#d14e5b" opacity="0.8" stroke="#333" stroke-width="0.7"></circle></g><g class="key-Spain_0"><circle cx="285.00" cy="311.00" r="3.53" fill="#ffd336" opacity="0.8" stroke="#333" stroke-width="0.7"></circle></g><g class="key-South-Korea_0"><circle cx="311.00" cy="328.00" r="3.53" fill="#d14e5b" opacity="0.8" stroke="#fff" stroke-width="0.7"></circle></g><g class="key-Poland_0"><circle cx="266.00" cy="316.00" r="3.46" fill="#ffd336" opacity="0.8" stroke="#fff" stroke-width="0.7"></circle></g><g class="key-Myanmar_0"><circle cx="462.00" cy="354.00" r="3.36" fill="#d14e5b" opacity="0.8" stroke="#333" stroke-width="0.7"></circle></g><g class="key-South-Africa_0"><circle cx="222.00" cy="462.00" r="3.22" fill="#5675c1" opacity="0.8" stroke="#333" stroke-width="0.7"></circle></g><g class="key-Argentina_0"><circle cx="283.00" cy="366.00" r="3.18" fill="#69c487" opacity="0.8" stroke="#333" stroke-width="0.7"></circle></g><g class="key-Colombia_0"><circle cx="403.00" cy="406.00" r="3.13" fill="#69c487" opacity="0.8" stroke="#333" stroke-width="0.7"></circle></g><g class="key-Canada_0"><circle cx="555.00" cy="244.00" r="3.04" fill="#4d824b" opacity="0.8" stroke="#333" stroke-width="0.7"></circle></g><g class="key-Romania_0"><circle cx="207.00" cy="283.00" r="2.94" fill="#ffd336" opacity="0.8" stroke="#333" stroke-width="0.7"></circle></g><g class="key-Morocco_0"><circle cx="157.00" cy="430.00" r="2.83" fill="#5675c1" opacity="0.8" stroke="#333" stroke-width="0.7"></circle></g><g class="key-Algeria_0"><circle cx="93.00" cy="493.00" r="2.80" fill="#5675c1" opacity="0.8" stroke="#333" stroke-width="0.7"></circle></g><g class="key-Tanzania_0"><circle cx="607.00" cy="226.00" r="2.79" fill="#5675c1" opacity="0.8" stroke="#333" stroke-width="0.7"></circle></g><g class="key-Peru_0"><circle cx="440.00" cy="394.00" r="2.73" fill="#69c487" opacity="0.8" stroke="#333" stroke-width="0.7"></circle></g><g class="key-Sri-Lanka_0"><circle cx="220.00" cy="396.00" r="2.63" fill="#d14e5b" opacity="0.8" stroke="#333" stroke-width="0.7"></circle></g><g class="key-Venezuela_0"><circle cx="275.00" cy="405.00" r="2.63" fill="#69c487" opacity="0.8" stroke="#333" stroke-width="0.7"></circle></g><g class="key-Australia_0"><circle cx="574.00" cy="235.00" r="2.61" fill="#a652ba" opacity="0.8" stroke="#fff" stroke-width="0.7"></circle></g><g class="key-Afghanistan_0"><circle cx="151.00" cy="472.00" r="2.59" fill="#d14e5b" opacity="0.8" stroke="#fff" stroke-width="0.7"></circle></g><g class="key-Netherlands_0"><circle cx="597.00" cy="309.00" r="2.58" fill="#ffd336" opacity="0.8" stroke="#333" stroke-width="0.7"></circle></g><g class="key-Malaysia_0"><circle cx="318.00" cy="333.00" r="2.57" fill="#d14e5b" opacity="0.8" stroke="#fff" stroke-width="0.7"></circle></g><g class="key-Iraq_0"><circle cx="75.00" cy="457.00" r="2.56" fill="#d14e5b" opacity="0.8" stroke="#333" stroke-width="0.7"></circle></g><g class="key-Mozambique_0"><circle cx="547.00" cy="185.00" r="2.49" fill="#5675c1" opacity="0.8" stroke="#333" stroke-width="0.7"></circle></g><g class="key-Chile_0"><circle cx="269.00" cy="406.00" r="2.44" fill="#69c487" opacity="0.8" stroke="#fff" stroke-width="0.7"></circle></g><g class="key-Hungary_0"><circle cx="260.00" cy="297.00" r="2.41" fill="#ffd336" opacity="0.8" stroke="#fff" stroke-width="0.7"></circle></g><g class="key-Belgium_0"><circle cx="243.00" cy="423.00" r="2.37" fill="#ffd336" opacity="0.8" stroke="#333" stroke-width="0.7"></circle></g><g class="key-Portugal_0"><circle cx="285.00" cy="252.00" r="2.37" fill="#ffd336" opacity="0.8" stroke="#333" stroke-width="0.7"></circle></g><g class="key-Greece_0"><circle cx="216.00" cy="388.00" r="2.36" fill="#ffd336" opacity="0.8" stroke="#fff" stroke-width="0.7"></circle></g><g class="key-Cameroon_0"><circle cx="396.00" cy="304.00" r="2.33" fill="#5675c1" opacity="0.8" stroke="#fff" stroke-width="0.7"></circle></g><g class="key-Bulgaria_0"><circle cx="189.00" cy="274.00" r="2.32" fill="#ffd336" opacity="0.8" stroke="#fff" stroke-width="0.7"></circle></g><g class="key-Madagascar_0"><circle cx="628.00" cy="247.00" r="2.30" fill="#5675c1" opacity="0.8" stroke="#333" stroke-width="0.7"></circle></g><g class="key-Sweden_0"><circle cx="485.00" cy="233.00" r="2.29" fill="#ffd336" opacity="0.8" stroke="#333" stroke-width="0.7"></circle></g><g class="key-Ecuador_0"><circle cx="317.00" cy="377.00" r="2.27" fill="#69c487" opacity="0.8" stroke="#fff" stroke-width="0.7"></circle></g><g class="key-Austria_0"><circle cx="477.00" cy="296.00" r="2.25" fill="#ffd336" opacity="0.8" stroke="#333" stroke-width="0.7"></circle></g><g class="key-Zimbabwe_0"><circle cx="389.00" cy="308.00" r="2.23" fill="#5675c1" opacity="0.8" stroke="#fff" stroke-width="0.7"></circle></g><g class="key-Mali_0"><circle cx="485.00" cy="436.00" r="2.23" fill="#5675c1" opacity="0.8" stroke="#333" stroke-width="0.7"></circle></g><g class="key-Burkina-Faso_0"><circle cx="401.00" cy="191.00" r="2.23" fill="#5675c1" opacity="0.8" stroke="#333" stroke-width="0.7"></circle></g><g class="key-Guatemala_0"><circle cx="308.00" cy="444.00" r="2.22" fill="#4d824b" opacity="0.8" stroke="#333" stroke-width="0.7"></circle></g><g class="key-Tunisia_0"><circle cx="203.00" cy="410.00" r="2.19" fill="#5675c1" opacity="0.8" stroke="#333" stroke-width="0.7"></circle></g><g class="key-Switzerland_0"><circle cx="595.00" cy="246.00" r="2.18" fill="#ffd336" opacity="0.8" stroke="#fff" stroke-width="0.7"></circle></g><g class="key-Malawi_0"><circle cx="550.00" cy="169.00" r="2.17" fill="#5675c1" opacity="0.8" stroke="#333" stroke-width="0.7"></circle></g><g class="key-Niger_0"><circle cx="515.00" cy="485.00" r="2.15" fill="#5675c1" opacity="0.8" stroke="#333" stroke-width="0.7"></circle></g><g class="key-Dominican-Republic_0"><circle cx="283.00" cy="422.00" r="2.15" fill="#4d824b" opacity="0.8" stroke="#333" stroke-width="0.7"></circle></g><g class="key-Senegal_0"><circle cx="217.00" cy="278.00" r="2.13" fill="#5675c1" opacity="0.8" stroke="#fff" stroke-width="0.7"></circle></g><g class="key-Bolivia_0"><circle cx="383.00" cy="411.00" r="2.12" fill="#69c487" opacity="0.8" stroke="#fff" stroke-width="0.7"></circle></g><g class="key-Rwanda_0"><circle cx="322.00" cy="127.00" r="2.11" fill="#5675c1" opacity="0.8" stroke="#333" stroke-width="0.7"></circle></g><g class="key-Denmark_0"><circle cx="582.00" cy="274.00" r="2.11" fill="#ffd336" opacity="0.8" stroke="#333" stroke-width="0.7"></circle></g><g class="key-Hong-Kong_0"><circle cx="373.00" cy="258.00" r="2.10" fill="#d14e5b" opacity="0.8" stroke="#333" stroke-width="0.7"></circle></g><g class="key-Finland_0"><circle cx="465.00" cy="423.00" r="2.09" fill="#ffd336" opacity="0.8" stroke="#333" stroke-width="0.7"></circle></g><g class="key-El-Salvador_0"><circle cx="293.00" cy="360.00" r="2.08" fill="#4d824b" opacity="0.8" stroke="#fff" stroke-width="0.7"></circle></g><g class="key-Burundi_0"><circle cx="502.00" cy="122.00" r="2.05" fill="#5675c1" opacity="0.8" stroke="#333" stroke-width="0.7"></circle></g><g class="key-Norway_0"><circle cx="482.00" cy="281.00" r="2.05" fill="#ffd336" opacity="0.8" stroke="#fff" stroke-width="0.7"></circle></g><g class="key-Israel_0"><circle cx="422.00" cy="390.00" r="2.03" fill="#d14e5b" opacity="0.8" stroke="#fff" stroke-width="0.7"></circle></g><g class="key-Honduras_0"><circle cx="306.00" cy="435.00" r="2.02" fill="#4d824b" opacity="0.8" stroke="#fff" stroke-width="0.7"></circle></g><g class="key-Benin_0"><circle cx="417.00" cy="362.00" r="2.02" fill="#5675c1" opacity="0.8" stroke="#fff" stroke-width="0.7"></circle></g><g class="key-Ireland_0"><circle cx="426.00" cy="288.00" r="2.01" fill="#ffd336" opacity="0.8" stroke="#333" stroke-width="0.7"></circle></g><g class="key-Nicaragua_0"><circle cx="295.00" cy="396.00" r="2.00" fill="#4d824b" opacity="0.8" stroke="#fff" stroke-width="0.7"></circle></g><g class="key-Puerto-Rico_0"><circle cx="207.00" cy="417.00" r="1.99" fill="#4d824b" opacity="0.8" stroke="#fff" stroke-width="0.7"></circle></g><g class="key-Paraguay_0"><circle cx="479.00" cy="401.00" r="1.99" fill="#69c487" opacity="0.8" stroke="#333" stroke-width="0.7"></circle></g><g class="key-New-Zealand_0"><circle cx="521.00" cy="277.00" r="1.99" fill="#a652ba" opacity="0.8" stroke="#fff" stroke-width="0.7"></circle></g><g class="key-Uruguay_0"><circle cx="381.00" cy="329.00" r="1.98" fill="#69c487" opacity="0.8" stroke="#fff" stroke-width="0.7"></circle></g><g class="key-Togo_0"><circle cx="556.00" cy="292.00" r="1.96" fill="#5675c1" opacity="0.8" stroke="#333" stroke-width="0.7"></circle></g><g class="key-Singapore_0"><circle cx="338.00" cy="246.00" r="1.94" fill="#d14e5b" opacity="0.8" stroke="#333" stroke-width="0.7"></circle></g><g class="key-Costa-Rica_0"><circle cx="321.00" cy="420.00" r="1.94" fill="#4d824b" opacity="0.8" stroke="#fff" stroke-width="0.7"></circle></g><g class="key-Jamaica_0"><circle cx="302.00" cy="438.00" r="1.93" fill="#4d824b" opacity="0.8" stroke="#fff" stroke-width="0.7"></circle></g><g class="key-Panama_0"><circle cx="270.00" cy="401.00" r="1.91" fill="#4d824b" opacity="0.8" stroke="#fff" stroke-width="0.7"></circle></g><g class="key-Mauritania_0"><circle cx="167.00" cy="498.00" r="1.89" fill="#5675c1" opacity="0.8" stroke="#333" stroke-width="0.7"></circle></g><g class="key-Kuwait_0"><circle cx="164.00" cy="458.00" r="1.88" fill="#d14e5b" opacity="0.8" stroke="#333" stroke-width="0.7"></circle></g><g class="key-Trinidad-and-Tobago_0"><circle cx="315.00" cy="390.00" r="1.86" fill="#4d824b" opacity="0.8" stroke="#333" stroke-width="0.7"></circle></g><g class="key-United-Arab-Emirates_0"><circle cx="284.00" cy="478.00" r="1.85" fill="#d14e5b" opacity="0.8" stroke="#333" stroke-width="0.7"></circle></g><g class="key-Botswana_0"><circle cx="379.00" cy="295.00" r="1.85" fill="#5675c1" opacity="0.8" stroke="#fff" stroke-width="0.7"></circle></g><g class="key-Mauritius_0"><circle cx="349.00" cy="389.00" r="1.85" fill="#5675c1" opacity="0.8" stroke="#fff" stroke-width="0.7"></circle></g><g class="key-Cyprus_0"><circle cx="344.00" cy="363.00" r="1.83" fill="#ffd336" opacity="0.8" stroke="#fff" stroke-width="0.7"></circle></g><g class="key-Fiji_0"><circle cx="249.00" cy="415.00" r="1.83" fill="#a652ba" opacity="0.8" stroke="#fff" stroke-width="0.7"></circle></g><g class="key-Gambia_0"><circle cx="334.00" cy="240.00" r="1.83" fill="#5675c1" opacity="0.8" stroke="#fff" stroke-width="0.7"></circle></g><g class="key-Swaziland_0"><circle cx="230.00" cy="410.00" r="1.82" fill="#5675c1" opacity="0.8" stroke="#fff" stroke-width="0.7"></circle></g><g class="key-Suriname_0"><circle cx="206.00" cy="458.00" r="1.81" fill="#69c487" opacity="0.8" stroke="#fff" stroke-width="0.7"></circle></g><g class="key-Luxembourg_0"><circle cx="283.00" cy="262.00" r="1.81" fill="#ffd336" opacity="0.8" stroke="#fff" stroke-width="0.7"></circle></g><g class="key-Bahrain_0"><circle cx="257.00" cy="430.00" r="1.81" fill="#d14e5b" opacity="0.8" stroke="#fff" stroke-width="0.7"></circle></g><g class="key-Cape-Verde_0"><circle cx="436.00" cy="423.00" r="1.80" fill="#5675c1" opacity="0.8" stroke="#fff" stroke-width="0.7"></circle></g><g class="key-Barbados_0"><circle cx="396.00" cy="266.00" r="1.80" fill="#4d824b" opacity="0.8" stroke="#fff" stroke-width="0.7"></circle></g><g class="key-Iceland_0"><circle cx="715.00" cy="221.00" r="1.80" fill="#ffd336" opacity="0.8" stroke="#333" stroke-width="0.7"></circle></g><g class="key-Brunei_0"><circle cx="319.00" cy="376.00" r="1.80" fill="#d14e5b" opacity="0.8" stroke="#fff" stroke-width="0.7"></circle></g><g class="key-Maldives_0"><circle cx="370.00" cy="276.00" r="1.79" fill="#d14e5b" opacity="0.8" stroke="#333" stroke-width="0.7"></circle></g><g class="key-Samoa_0"><circle cx="161.00" cy="452.00" r="1.79" fill="#a652ba" opacity="0.8" stroke="#fff" stroke-width="0.7"></circle></g><g class="key-French-Polynesia_0"><circle cx="318.00" cy="433.00" r="1.79" fill="#a652ba" opacity="0.8" stroke="#fff" stroke-width="0.7"></circle></g><g class="key-Belize_0"><circle cx="325.00" cy="349.00" r="1.79" fill="#4d824b" opacity="0.8" stroke="#333" stroke-width="0.7"></circle></g><g class="key-Guam_0"><circle cx="395.00" cy="321.00" r="1.79" fill="#a652ba" opacity="0.8" stroke="#fff" stroke-width="0.7"></circle></g><g class="key-Isle-of-Man_0"><circle cx="465.00" cy="261.00" r="1.79" fill="#ffd336" opacity="0.8" stroke="#333" stroke-width="0.7"></circle></g><g class="key-Seychelles_0"><circle cx="448.00" cy="354.00" r="1.79" fill="#5675c1" opacity="0.8" stroke="#fff" stroke-width="0.7"></circle></g><g class="key-Liechtenstein_0"><circle cx="412.00" cy="207.00" r="1.79" fill="#ffd336" opacity="0.8" stroke="#333" stroke-width="0.7"></circle></g><g class="key-San-Marino_0"><circle cx="242.00" cy="263.00" r="1.79" fill="#ffd336" opacity="0.8" stroke="#333" stroke-width="0.7"></circle></g><g class="key-Latin-America-__0026-Caribbean_0"><circle cx="363.00" cy="377.00" r="1.78" fill="#000" opacity="0.8" stroke="#fff" stroke-width="0.7"></circle></g><g class="key-Latin-America-__0026-Caribbean-__0028IDA-__0026-IBRD__0029_0"><circle cx="363.00" cy="377.00" r="1.78" fill="#000" opacity="0.8" stroke="#fff" stroke-width="0.7"></circle></g><g class="key-North-America_0"><circle cx="478.00" cy="252.00" r="1.78" fill="#000" opacity="0.8" stroke="#fff" stroke-width="0.7"></circle></g><g class="key-Caribbean-small-states_0"><circle cx="319.00" cy="404.00" r="1.78" fill="#000" opacity="0.8" stroke="#fff" stroke-width="0.7"></circle></g><g class="key-South-Asia_0"><circle cx="150.00" cy="389.00" r="1.78" fill="#000" opacity="0.8" stroke="#333" stroke-width="0.7"></circle></g><g class="key-South-Asia-__0028IDA-__0026-IBRD__0029_0"><circle cx="150.00" cy="389.00" r="1.78" fill="#000" opacity="0.8" stroke="#fff" stroke-width="0.7"></circle></g><g class="key-Post__002ddemographic-dividend_0"><circle cx="413.00" cy="290.00" r="1.78" fill="#000" opacity="0.8" stroke="#fff" stroke-width="0.7"></circle></g><g class="key-High-income_0"><circle cx="394.00" cy="297.00" r="1.78" fill="#000" opacity="0.8" stroke="#fff" stroke-width="0.7"></circle></g><g class="key-Latin-America-__0026-Caribbean-__0028excluding-high-income__0029_0"><circle cx="366.00" cy="376.00" r="1.78" fill="#000" opacity="0.8" stroke="#fff" stroke-width="0.7"></circle></g><g class="key-OECD-members_0"><circle cx="383.00" cy="303.00" r="1.78" fill="#000" opacity="0.8" stroke="#fff" stroke-width="0.7"></circle></g><g class="key-Euro-area_0"><circle cx="335.00" cy="320.00" r="1.78" fill="#000" opacity="0.8" stroke="#333" stroke-width="0.7"></circle></g><g class="key-European-Union_0"><circle cx="349.00" cy="306.00" r="1.78" fill="#000" opacity="0.8" stroke="#fff" stroke-width="0.7"></circle></g><g class="key-IDA-blend_0"><circle cx="194.00" cy="450.00" r="1.78" fill="#000" opacity="0.8" stroke="#fff" stroke-width="0.7"></circle></g><g class="backgroundLabels" fill="#333"><text x="149.00" y="355.73" font-size="12.81">India</text><text x="470.00" y="243.26" font-size="11.59">United States</text><text x="331.00" y="367.64" font-size="11.39">Indonesia</text><text x="418.00" y="359.23" font-size="11.31">Brazil</text><text x="397.00" y="321.36" font-size="11.30">Japan</text><text x="222.00" y="488.19" font-size="11.21">Bangladesh</text><text x="417.00" y="309.25" font-size="11.20">Germany</text><text x="201.00" y="427.33" font-size="11.20">Nigeria</text><text x="284.00" y="374.51" font-size="11.18">Mexico</text><text x="501.00" y="270.87" font-size="11.15">United Kingdom</text><text x="215.00" y="333.87" font-size="11.15">Italy</text><text x="308.00" y="332.94" font-size="11.14">France</text><text x="283.00" y="349.06" font-size="11.13">Ukraine</text><text x="310.00" y="193.14" font-size="11.12">Thailand</text><text x="195.00" y="473.22" font-size="11.12">Egypt</text><text x="277.00" y="294.25" font-size="11.11">Turkey</text><text x="118.00" y="448.43" font-size="11.10">Iran</text><text x="285.00" y="306.47" font-size="11.10">Spain</text><text x="462.00" y="349.64" font-size="11.09">Myanmar</text><text x="222.00" y="457.78" font-size="11.08">South Africa</text><text x="283.00" y="361.82" font-size="11.07">Argentina</text><text x="403.00" y="401.87" font-size="11.07">Colombia</text><text x="555.00" y="239.96" font-size="11.06">Canada</text><text x="207.00" y="279.06" font-size="11.06">Romania</text><text x="157.00" y="426.17" font-size="11.05">Morocco</text><text x="93.00" y="489.20" font-size="11.05">Algeria</text><text x="607.00" y="222.21" font-size="11.05">Tanzania</text><text x="440.00" y="390.27" font-size="11.04">Peru</text><text x="220.00" y="392.37" font-size="11.04">Sri Lanka</text><text x="275.00" y="401.37" font-size="11.04">Venezuela</text><text x="597.00" y="305.42" font-size="11.04">Netherlands</text><text x="75.00" y="453.44" font-size="11.04">Iraq</text><text x="547.00" y="181.51" font-size="11.03">Mozambique</text><text x="243.00" y="419.63" font-size="11.03">Belgium</text><text x="285.00" y="248.63" font-size="11.03">Portugal</text><text x="628.00" y="243.70" font-size="11.02">Madagascar</text><text x="485.00" y="229.71" font-size="11.02">Sweden</text><text x="477.00" y="292.75" font-size="11.02">Austria</text><text x="485.00" y="432.77" font-size="11.02">Mali</text><text x="401.00" y="187.77" font-size="11.02">Burkina Faso</text><text x="308.00" y="440.78" font-size="11.02">Guatemala</text><text x="203.00" y="406.81" font-size="11.02">Tunisia</text><text x="550.00" y="165.83" font-size="11.02">Malawi</text><text x="515.00" y="481.85" font-size="11.02">Niger</text><text x="283.00" y="418.85" font-size="11.01">Dominican Republic</text><text x="322.00" y="133.21" font-size="11.01">Rwanda</text><text x="582.00" y="270.89" font-size="11.01">Denmark</text><text x="373.00" y="254.90" font-size="11.01">Hong Kong</text><text x="465.00" y="419.91" font-size="11.01">Finland</text><text x="502.00" y="133.21" font-size="11.01">Burundi</text><text x="426.00" y="284.99" font-size="11.01">Ireland</text><text x="479.00" y="398.01" font-size="11.01">Paraguay</text><text x="556.00" y="289.04" font-size="11.01">Togo</text><text x="338.00" y="243.06" font-size="11.01">Singapore</text><text x="167.00" y="495.11" font-size="11.00">Mauritania</text><text x="164.00" y="455.12" font-size="11.00">Kuwait</text><text x="315.00" y="387.14" font-size="11.00">Trinidad and Tobago</text><text x="284.00" y="475.15" font-size="11.00">United Arab Emirates</text><text x="679.36" y="218.20" font-size="11.00">Iceland</text><text x="370.00" y="273.21" font-size="11.00">Maldives</text><text x="325.00" y="346.21" font-size="11.00">Belize</text><text x="465.00" y="258.21" font-size="11.00">Isle of Man</text><text x="412.00" y="204.21" font-size="11.00">Liechtenstein</text><text x="242.00" y="260.21" font-size="11.00">San Marino</text><text x="150.00" y="386.22" font-size="11.00">South Asia</text><text x="335.00" y="317.22" font-size="11.00">Euro area</text></g></g><g class="ScatterColorLegend clickable" style="cursor:pointer"><g class="legendMark"><rect x="735" y="119.69999999999999" width="43.256" height="17.6" fill="#fff" opacity="0"></rect>,<rect x="735" y="125.19999999999999" width="6" height="6" fill="#5675c1"></rect>,<text font-size="12.60" x="746.0" y="132.3"><tspan x="746" y="132.27999999999997">Africa</tspan></text></g><g class="legendMark"><rect x="735" y="137.29999999999998" width="35.57" height="17.6" fill="#fff" opacity="0"></rect>,<rect x="735" y="142.79999999999998" width="6" height="6" fill="#d14e5b"></rect>,<text font-size="12.60" x="746.0" y="149.9"><tspan x="746" y="149.87999999999997">Asia</tspan></text></g><g class="legendMark"><rect x="735" y="154.89999999999998" width="51.824" height="17.6" fill="#fff" opacity="0"></rect>,<rect x="735" y="160.39999999999998" width="6" height="6" fill="#ffd336"></rect>,<text font-size="12.60" x="746.0" y="167.5"><tspan x="746" y="167.47999999999996">Europe</tspan></text></g><g class="legendMark"><rect x="735" y="172.5" width="91.64" height="17.6" fill="#fff" opacity="0"></rect>,<rect x="735" y="178" width="6" height="6" fill="#4d824b"></rect>,<text font-size="12.60" x="746.0" y="185.1"><tspan x="746" y="185.07999999999998">North America</tspan></text></g><g class="legendMark"><rect x="735" y="190.1" width="58.124" height="17.6" fill="#fff" opacity="0"></rect>,<rect x="735" y="195.6" width="6" height="6" fill="#a652ba"></rect>,<text font-size="12.60" x="746.0" y="202.7"><tspan x="746" y="202.67999999999998">Oceania</tspan></text></g><g class="legendMark"><rect x="735" y="207.7" width="93.908" height="17.6" fill="#fff" opacity="0"></rect>,<rect x="735" y="213.2" width="6" height="6" fill="#69c487"></rect>,<text font-size="12.60" x="746.0" y="220.3"><tspan x="746" y="220.27999999999997">South America</tspan></text></g></g></g><g class="SourcesFooter" style="fill:#777"><g class="clickable" style="fill:#777"><text font-size="12.60" x="15.0" y="581.6"><tspan x="15" y="581.58">Source: World Bank</tspan></text></g><text font-size="12.60" x="775.4" y="581.6"><tspan x="775.402" y="581.58"><a style="fill: #777;" class="cclogo" href="http://creativecommons.org/licenses/by-sa/4.0/deed.en_US" target="_blank">CC BY-SA</a></tspan></text></g></g></svg>