<svg xmlns="http://www.w3.org/2000/svg" version="1.1" style="font-family:&#x27;Helvetica Neue&#x27;, Helvetica, Arial, sans-serif;font-size:18px;background-color:white;text-rendering:optimizeLegibility;-webkit-font-smoothing:antialiased" width="850" height="600"><g class="ChartTab"><g class="HeaderView"><g opacity="0.8" transform="translate(778, 15) scale(0.27)"><a xmlns:xlink="http://www.w3.org/1999/xlink" xlink:href="https://ourworldindata.org" target="_blank"><g><rect x="0" y="0" fill="#1B2543" width="211.2" height="130.1"/><rect x="0" y="112.2" fill="#E63912" width="211.2" height="17.9"/><g><rect x="1.2" y="12.3" fill="none" width="210.2" height="99.2"/><path fill="#FFFFFF" d="M37.8,32.2c0,12.7-7.7,19.4-17.1,19.4c-9.7,0-16.6-7.5-16.6-18.7c0-11.7,7.3-19.3,17.1-19.3 C31.3,13.7,37.8,21.3,37.8,32.2z M9.2,32.8c0,7.9,4.3,14.9,11.8,14.9c7.5,0,11.8-6.9,11.8-15.3c0-7.3-3.8-14.9-11.8-14.9 C13.1,17.5,9.2,24.8,9.2,32.8z"/><path fill="#FFFFFF" d="M62.7,43.8c0,2.7,0.1,5.1,0.2,7.2h-4.3l-0.3-4.3h-0.1c-1.3,2.1-4,4.9-8.8,4.9c-4.2,0-9.1-2.3-9.1-11.6 V24.6h4.8v14.6c0,5,1.5,8.4,5.9,8.4c3.2,0,5.5-2.2,6.3-4.4c0.3-0.7,0.4-1.6,0.4-2.5V24.6h4.8V43.8z"/><path fill="#FFFFFF" d="M67.3,32.8c0-3.1-0.1-5.8-0.2-8.2h4.2l0.2,5.2h0.2c1.2-3.5,4.1-5.8,7.3-5.8c0.5,0,0.9,0.1,1.4,0.2v4.5 c-0.5-0.1-1-0.2-1.6-0.2c-3.4,0-5.8,2.6-6.5,6.2c-0.1,0.7-0.2,1.4-0.2,2.2V51h-4.8V32.8z"/><path fill="#FFFFFF" d="M95.4,51l-9.4-36.8h5l4.4,18.6c1.1,4.6,2.1,9.2,2.7,12.7h0.1c0.6-3.7,1.8-8,3-12.8l4.9-18.5h5l4.5,18.7 c1,4.4,2,8.7,2.6,12.6h0.1c0.8-4,1.8-8.1,3-12.7l4.9-18.5h4.9L120.6,51h-5L111,31.9c-1.1-4.7-1.9-8.3-2.4-12h-0.1 c-0.7,3.7-1.5,7.3-2.8,12L100.4,51H95.4z"/><path fill="#FFFFFF" d="M154.9,37.6c0,9.8-6.8,14-13.2,14c-7.2,0-12.7-5.2-12.7-13.6c0-8.8,5.8-14,13.1-14 C149.8,24,154.9,29.5,154.9,37.6z M133.9,37.9c0,5.8,3.3,10.1,8,10.1c4.6,0,8-4.3,8-10.3c0-4.5-2.2-10.1-7.9-10.1 C136.3,27.6,133.9,32.8,133.9,37.9z"/><path fill="#FFFFFF" d="M158.2,32.8c0-3.1-0.1-5.8-0.2-8.2h4.2l0.2,5.2h0.2c1.2-3.5,4.1-5.8,7.3-5.8c0.5,0,0.9,0.1,1.4,0.2v4.5 c-0.5-0.1-1-0.2-1.6-0.2c-3.4,0-5.8,2.6-6.5,6.2c-0.1,0.7-0.2,1.4-0.2,2.2V51h-4.8V32.8z"/><path fill="#FFFFFF" d="M173.5,12.3h4.8V51h-4.8V12.3z"/><path fill="#FFFFFF" d="M206.5,12.3v31.9c0,2.3,0.1,5,0.2,6.8h-4.3l-0.2-4.6H202c-1.5,2.9-4.7,5.2-9,5.2 c-6.4,0-11.3-5.4-11.3-13.4c-0.1-8.8,5.4-14.2,11.9-14.2c4,0,6.8,1.9,8,4h0.1V12.3H206.5z M201.7,35.4c0-0.6-0.1-1.4-0.2-2 c-0.7-3.1-3.3-5.6-6.9-5.6c-5,0-7.9,4.4-7.9,10.2c0,5.3,2.6,9.8,7.8,9.8c3.2,0,6.2-2.1,7.1-5.7c0.2-0.7,0.2-1.3,0.2-2.1V35.4z"/><path fill="#FFFFFF" d="M42.8,64c0.1,1.6-1.1,2.9-3.1,2.9c-1.7,0-2.9-1.3-2.9-2.9c0-1.7,1.3-3,3-3C41.7,61,42.8,62.3,42.8,64z M37.4,97.8V71.4h4.8v26.4H37.4z"/><path fill="#FFFFFF" d="M47.5,78.6c0-2.7-0.1-5-0.2-7.1h4.3l0.3,4.4h0.1c1.3-2.5,4.4-5,8.8-5c3.7,0,9.4,2.2,9.4,11.2v15.8h-4.8 V82.6c0-4.3-1.6-7.8-6.1-7.8c-3.2,0-5.6,2.2-6.5,4.9c-0.2,0.6-0.3,1.4-0.3,2.2v15.9h-4.8V78.6z"/><path fill="#FFFFFF" d="M84,61.6c2.9-0.4,6.3-0.8,10.1-0.8c6.8,0,11.7,1.6,14.9,4.6c3.3,3,5.2,7.3,5.2,13.2c0,6-1.9,10.9-5.3,14.3 c-3.4,3.4-9.1,5.3-16.3,5.3c-3.4,0-6.2-0.2-8.6-0.4V61.6z M88.8,94.1c1.2,0.2,3,0.3,4.8,0.3c10.2,0,15.7-5.7,15.7-15.6 c0.1-8.7-4.9-14.2-14.9-14.2c-2.5,0-4.3,0.2-5.6,0.5V94.1z"/><path fill="#FFFFFF" d="M132.1,97.8l-0.4-3.3h-0.2c-1.5,2.1-4.3,3.9-8.1,3.9c-5.4,0-8.1-3.8-8.1-7.6c0-6.4,5.7-9.9,15.9-9.8v-0.5 c0-2.2-0.6-6.1-6-6.1c-2.5,0-5,0.8-6.9,2l-1.1-3.2c2.2-1.4,5.4-2.3,8.7-2.3c8.1,0,10.1,5.5,10.1,10.8v9.9c0,2.3,0.1,4.5,0.4,6.3 H132.1z M131.4,84.4c-5.3-0.1-11.2,0.8-11.2,5.9c0,3.1,2.1,4.6,4.5,4.6c3.4,0,5.6-2.2,6.4-4.4c0.2-0.5,0.3-1,0.3-1.5V84.4z"/><path fill="#FFFFFF" d="M146.6,63.9v7.6h6.9v3.7h-6.9v14.2c0,3.3,0.9,5.1,3.6,5.1c1.3,0,2.2-0.2,2.8-0.3l0.2,3.6 c-0.9,0.4-2.4,0.7-4.3,0.7c-2.2,0-4-0.7-5.2-2c-1.4-1.4-1.9-3.8-1.9-6.9V75.1h-4.1v-3.7h4.1v-6.3L146.6,63.9z"/><path fill="#FFFFFF" d="M171.4,97.8l-0.4-3.3h-0.2c-1.5,2.1-4.3,3.9-8.1,3.9c-5.4,0-8.1-3.8-8.1-7.6c0-6.4,5.7-9.9,15.9-9.8v-0.5 c0-2.2-0.6-6.1-6-6.1c-2.5,0-5,0.8-6.9,2l-1.1-3.2c2.2-1.4,5.4-2.3,8.7-2.3c8.1,0,10.1,5.5,10.1,10.8v9.9c0,2.3,0.1,4.5,0.4,6.3 H171.4z M170.7,84.4c-5.3-0.1-11.2,0.8-11.2,5.9c0,3.1,2.1,4.6,4.5,4.6c3.4,0,5.6-2.2,6.4-4.4c0.2-0.5,0.3-1,0.3-1.5V84.4z"/></g></g></a></g><a href="https://ourworldindata.org/grapher/labour-force-participation-younger-vs-older-women" target="_blank"><text font-size="25.20" x="15.0" y="35.2" fill="#555"><tspan x="15" y="35.160000000000004">Labour force participation, younger vs older women, 2017</tspan></text></a><text font-size="14.40" x="15.0" y="53.7" fill="#666"><tspan x="15" y="53.72">The labor force participation rate corresponds to the proportion of the population that is economically active in the</tspan><tspan x="15" y="69.56">corresponding age bracket. All figures correspond to &#x27;modelled ILO estimates&#x27; (see source for details).</tspan></text></g><g><g class="AxisBoxView"><g class="HorizontalAxis"><text font-size="12.60" x="223.6" y="554.0"><tspan x="223.628" y="553.98">Labour force participation rate, women ages 45-54</tspan></text><text x="144.2" y="533.9" fill="#666" text-anchor="middle" font-size="16.2">20%</text><text x="290.7" y="533.9" fill="#666" text-anchor="middle" font-size="16.2">40%</text><text x="437.2" y="533.9" fill="#666" text-anchor="middle" font-size="16.2">60%</text><text x="583.8" y="533.9" fill="#666" text-anchor="middle" font-size="16.2">80%</text></g><g class="VerticalAxis"><text font-size="12.60" x="-465.7" y="25.1" transform="rotate(-90)"><tspan x="-465.67199999999997" y="25.080000000000002">Labour force participation rate, women ages 25-34</tspan></text><text x="70.16" y="512.7" fill="#666" dominant-baseline="middle" text-anchor="end" font-size="16.2">0%</text><text x="70.16" y="425.9" fill="#666" dominant-baseline="middle" text-anchor="end" font-size="16.2">20%</text><text x="70.16" y="339.1" fill="#666" dominant-baseline="middle" text-anchor="end" font-size="16.2">40%</text><text x="70.16" y="252.4" fill="#666" dominant-baseline="middle" text-anchor="end" font-size="16.2">60%</text><text x="70.16" y="165.6" fill="#666" dominant-baseline="middle" text-anchor="end" font-size="16.2">80%</text></g><g class="AxisGridLines"><line x1="75.16" y1="512.7" x2="715.00" y2="512.7" stroke="#ccc"></line><line x1="75.16" y1="425.9" x2="715.00" y2="425.9" stroke="#ddd" stroke-dasharray="3,2"></line><line x1="75.16" y1="339.1" x2="715.00" y2="339.1" stroke="#ddd" stroke-dasharray="3,2"></line><line x1="75.16" y1="252.4" x2="715.00" y2="252.4" stroke="#ddd" stroke-dasharray="3,2"></line><line x1="75.16" y1="165.6" x2="715.00" y2="165.6" stroke="#ddd" stroke-dasharray="3,2"></line></g><g class="AxisGridLines"><line x1="144.2" y1="512.70" x2="144.2" y2="92.10" stroke="#ddd" stroke-dasharray="3,2"></line><line x1="290.7" y1="512.70" x2="290.7" y2="92.10" stroke="#ddd" stroke-dasharray="3,2"></line><line x1="437.2" y1="512.70" x2="437.2" y2="92.10" stroke="#ddd" stroke-dasharray="3,2"></line><line x1="583.8" y1="512.70" x2="583.8" y2="92.10" stroke="#ddd" stroke-dasharray="3,2"></line></g></g><g class="ComparisonLine"><defs><clipPath id="axisBounds-496"><rect x="75.162" y="92.1" width="639.838" height="420.59999999999997"></rect></clipPath></defs><path d="M75.2,466.8L81.6,463L88,459.2L94.4,455.4L100.8,451.6L107.2,447.9L113.6,444.1L120,440.3L126.3,436.5L132.7,432.7L139.1,428.9L145.5,425.1L151.9,421.3L158.3,417.5L164.7,413.7L171.1,410L177.5,406.2L183.9,402.4L190.3,398.6L196.7,394.8L203.1,391L209.5,387.2L215.9,383.4L222.3,379.6L228.7,375.9L235.1,372.1L241.5,368.3L247.9,364.5L254.3,360.7L260.7,356.9L267.1,353.1L273.5,349.3L279.9,345.5L286.3,341.7L292.7,338L299.1,334.2L305.5,330.4L311.9,326.6L318.3,322.8L324.7,319L331.1,315.2L337.5,311.4L343.9,307.6L350.3,303.9L356.7,300.1L363.1,296.3L369.5,292.5L375.9,288.7L382.3,284.9L388.7,281.1L395.1,277.3L401.5,273.5L407.9,269.8L414.3,266L420.7,262.2L427.1,258.4L433.5,254.6L439.9,250.8L446.3,247L452.7,243.2L459.1,239.4L465.5,235.6L471.9,231.9L478.3,228.1L484.7,224.3L491.1,220.5L497.5,216.7L503.9,212.9L510.3,209.1L516.7,205.3L523,201.5L529.4,197.8L535.8,194L542.2,190.2L548.6,186.4L555,182.6L561.4,178.8L567.8,175L574.2,171.2L580.6,167.4L587,163.6L593.4,159.9L599.8,156.1L606.2,152.3L612.6,148.5L619,144.7L625.4,140.9L631.8,137.1L638.2,133.3L644.6,129.5L651,125.8L657.4,122L663.8,118.2L670.2,114.4L676.6,110.6L683,106.8L689.4,103L695.8,99.2L702.2,95.4L708.6,91.7" clip-path="url(#axisBounds-496)" fill="none" stroke="#ccc"></path></g><g class="PointsWithLabels clickable" clip-path="url(#scatterBounds-497)" font-family="Arial Narrow, Arial, sans-serif"><rect x="75.162" y="92.1" width="639.838" height="420.59999999999997" fill="rgba(255,255,255,0)"></rect><defs><clipPath id="scatterBounds-497"><rect x="65.162" y="82.1" width="659.838" height="440.59999999999997"></rect></clipPath></defs><g class="key-China_0"><circle cx="533.00" cy="151.00" r="17.84" fill="#d14e5b" opacity="0.8" stroke="#333" stroke-width="0.7"></circle></g><g class="key-India_0"><circle cx="257.00" cy="380.00" r="17.29" fill="#d14e5b" opacity="0.8" stroke="#333" stroke-width="0.7"></circle></g><g class="key-United-States_0"><circle cx="540.00" cy="191.00" r="8.77" fill="#4d824b" opacity="0.8" stroke="#333" stroke-width="0.7"></circle></g><g class="key-Indonesia_0"><circle cx="461.00" cy="274.00" r="7.78" fill="#d14e5b" opacity="0.8" stroke="#333" stroke-width="0.7"></circle></g><g class="key-Brazil_0"><circle cx="476.00" cy="193.00" r="7.04" fill="#69c487" opacity="0.8" stroke="#333" stroke-width="0.7"></circle></g><g class="key-Pakistan_0"><circle cx="220.00" cy="396.00" r="6.76" fill="#d14e5b" opacity="0.8" stroke="#333" stroke-width="0.7"></circle></g><g class="key-Nigeria_0"><circle cx="469.00" cy="297.00" r="6.54" fill="#5675c1" opacity="0.8" stroke="#333" stroke-width="0.7"></circle></g><g class="key-Bangladesh_0"><circle cx="416.00" cy="308.00" r="6.24" fill="#d14e5b" opacity="0.8" stroke="#fff" stroke-width="0.7"></circle></g><g class="key-Russia_0"><circle cx="636.00" cy="156.00" r="6.02" fill="#ffd336" opacity="0.8" stroke="#333" stroke-width="0.7"></circle></g><g class="key-Japan_0"><circle cx="557.00" cy="186.00" r="5.70" fill="#d14e5b" opacity="0.8" stroke="#fff" stroke-width="0.7"></circle></g><g class="key-Mexico_0"><circle cx="397.00" cy="263.00" r="5.51" fill="#4d824b" opacity="0.8" stroke="#333" stroke-width="0.7"></circle></g><g class="key-Philippines_0"><circle cx="479.00" cy="272.00" r="5.09" fill="#d14e5b" opacity="0.8" stroke="#fff" stroke-width="0.7"></circle></g><g class="key-Vietnam_0"><circle cx="645.00" cy="118.00" r="4.92" fill="#d14e5b" opacity="0.8" stroke="#333" stroke-width="0.7"></circle></g><g class="key-Ethiopia_0"><circle cx="594.00" cy="134.00" r="4.86" fill="#5675c1" opacity="0.8" stroke="#333" stroke-width="0.7"></circle></g><g class="key-Egypt_0"><circle cx="200.00" cy="370.00" r="4.79" fill="#5675c1" opacity="0.8" stroke="#333" stroke-width="0.7"></circle></g><g class="key-Germany_0"><circle cx="617.00" cy="166.00" r="4.70" fill="#ffd336" opacity="0.8" stroke="#333" stroke-width="0.7"></circle></g><g class="key-Iran_0"><circle cx="96.00" cy="411.00" r="4.57" fill="#d14e5b" opacity="0.8" stroke="#333" stroke-width="0.7"></circle></g><g class="key-Turkey_0"><circle cx="222.00" cy="326.00" r="4.54" fill="#d14e5b" opacity="0.8" stroke="#333" stroke-width="0.7"></circle></g><g class="key-Democratic-Republic-of-Congo_0"><circle cx="638.00" cy="153.00" r="4.44" fill="#5675c1" opacity="0.8" stroke="#fff" stroke-width="0.7"></circle></g><g class="key-Thailand_0"><circle cx="581.00" cy="161.00" r="4.41" fill="#d14e5b" opacity="0.8" stroke="#fff" stroke-width="0.7"></circle></g><g class="key-France_0"><circle cx="614.00" cy="160.00" r="4.24" fill="#ffd336" opacity="0.8" stroke="#fff" stroke-width="0.7"></circle></g><g class="key-United-Kingdom_0"><circle cx="599.00" cy="173.00" r="4.22" fill="#ffd336" opacity="0.8" stroke="#fff" stroke-width="0.7"></circle></g><g class="key-Italy_0"><circle cx="470.00" cy="230.00" r="4.16" fill="#ffd336" opacity="0.8" stroke="#333" stroke-width="0.7"></circle></g><g class="key-South-Africa_0"><circle cx="449.00" cy="229.00" r="3.87" fill="#5675c1" opacity="0.8" stroke="#fff" stroke-width="0.7"></circle></g><g class="key-Tanzania_0"><circle cx="650.00" cy="155.00" r="3.82" fill="#5675c1" opacity="0.8" stroke="#fff" stroke-width="0.7"></circle></g><g class="key-Myanmar_0"><circle cx="642.00" cy="110.00" r="3.81" fill="#d14e5b" opacity="0.8" stroke="#fff" stroke-width="0.7"></circle></g><g class="key-South-Korea_0"><circle cx="485.00" cy="227.00" r="3.80" fill="#d14e5b" opacity="0.8" stroke="#fff" stroke-width="0.7"></circle></g><g class="key-Colombia_0"><circle cx="503.00" cy="183.00" r="3.79" fill="#69c487" opacity="0.8" stroke="#fff" stroke-width="0.7"></circle></g><g class="key-Spain_0"><circle cx="560.00" cy="139.00" r="3.75" fill="#ffd336" opacity="0.8" stroke="#fff" stroke-width="0.7"></circle></g><g class="key-Ukraine_0"><circle cx="583.00" cy="193.00" r="3.68" fill="#ffd336" opacity="0.8" stroke="#fff" stroke-width="0.7"></circle></g><g class="key-Kenya_0"><circle cx="599.00" cy="195.00" r="3.65" fill="#5675c1" opacity="0.8" stroke="#fff" stroke-width="0.7"></circle></g><g class="key-Argentina_0"><circle cx="500.00" cy="221.00" r="3.57" fill="#69c487" opacity="0.8" stroke="#333" stroke-width="0.7"></circle></g><g class="key-Poland_0"><circle cx="573.00" cy="174.00" r="3.47" fill="#ffd336" opacity="0.8" stroke="#fff" stroke-width="0.7"></circle></g><g class="key-Algeria_0"><circle cx="112.00" cy="387.00" r="3.43" fill="#5675c1" opacity="0.8" stroke="#333" stroke-width="0.7"></circle></g><g class="key-Uganda_0"><circle cx="687.00" cy="133.00" r="3.42" fill="#5675c1" opacity="0.8" stroke="#333" stroke-width="0.7"></circle></g><g class="key-Sudan_0"><circle cx="223.00" cy="384.00" r="3.39" fill="#5675c1" opacity="0.8" stroke="#fff" stroke-width="0.7"></circle></g><g class="key-Canada_0"><circle cx="598.00" cy="159.00" r="3.36" fill="#4d824b" opacity="0.8" stroke="#fff" stroke-width="0.7"></circle></g><g class="key-Iraq_0"><circle cx="136.00" cy="420.00" r="3.35" fill="#d14e5b" opacity="0.8" stroke="#333" stroke-width="0.7"></circle></g><g class="key-Afghanistan_0"><circle cx="149.00" cy="418.00" r="3.34" fill="#d14e5b" opacity="0.8" stroke="#fff" stroke-width="0.7"></circle></g><g class="key-Morocco_0"><circle cx="224.00" cy="376.00" r="3.29" fill="#5675c1" opacity="0.8" stroke="#fff" stroke-width="0.7"></circle></g><g class="key-Nepal_0"><circle cx="644.00" cy="132.00" r="3.24" fill="#d14e5b" opacity="0.8" stroke="#fff" stroke-width="0.7"></circle></g><g class="key-Venezuela_0"><circle cx="477.00" cy="215.00" r="3.19" fill="#69c487" opacity="0.8" stroke="#fff" stroke-width="0.7"></circle></g><g class="key-Peru_0"><circle cx="575.00" cy="177.00" r="3.18" fill="#69c487" opacity="0.8" stroke="#fff" stroke-width="0.7"></circle></g><g class="key-Malaysia_0"><circle cx="420.00" cy="208.00" r="3.17" fill="#d14e5b" opacity="0.8" stroke="#333" stroke-width="0.7"></circle></g><g class="key-Saudi-Arabia_0"><circle cx="95.00" cy="364.00" r="3.16" fill="#d14e5b" opacity="0.8" stroke="#333" stroke-width="0.7"></circle></g><g class="key-Uzbekistan_0"><circle cx="461.00" cy="255.00" r="3.12" fill="#d14e5b" opacity="0.8" stroke="#333" stroke-width="0.7"></circle></g><g class="key-Ghana_0"><circle cx="659.00" cy="138.00" r="3.04" fill="#5675c1" opacity="0.8" stroke="#fff" stroke-width="0.7"></circle></g><g class="key-Mozambique_0"><circle cx="648.00" cy="126.00" r="2.99" fill="#5675c1" opacity="0.8" stroke="#fff" stroke-width="0.7"></circle></g><g class="key-North-Korea_0"><circle cx="623.00" cy="151.00" r="2.98" fill="#d14e5b" opacity="0.8" stroke="#fff" stroke-width="0.7"></circle></g><g class="key-Australia_0"><circle cx="573.00" cy="187.00" r="2.92" fill="#a652ba" opacity="0.8" stroke="#fff" stroke-width="0.7"></circle></g><g class="key-Taiwan_0"><circle cx="432.00" cy="221.00" r="2.92" fill="#d14e5b" opacity="0.8" stroke="#333" stroke-width="0.7"></circle></g><g class="key-Madagascar_0"><circle cx="675.00" cy="112.00" r="2.90" fill="#5675c1" opacity="0.8" stroke="#fff" stroke-width="0.7"></circle></g><g class="key-Syria_0"><circle cx="103.00" cy="433.00" r="2.85" fill="#d14e5b" opacity="0.8" stroke="#333" stroke-width="0.7"></circle></g><g class="key-Sri-Lanka_0"><circle cx="263.00" cy="351.00" r="2.85" fill="#d14e5b" opacity="0.8" stroke="#333" stroke-width="0.7"></circle></g><g class="key-Romania_0"><circle cx="520.00" cy="196.00" r="2.85" fill="#ffd336" opacity="0.8" stroke="#fff" stroke-width="0.7"></circle></g><g class="key-Cote-d__0027Ivoire_0"><circle cx="469.00" cy="259.00" r="2.84" fill="#5675c1" opacity="0.8" stroke="#fff" stroke-width="0.7"></circle></g><g class="key-Cameroon_0"><circle cx="648.00" cy="163.00" r="2.83" fill="#5675c1" opacity="0.8" stroke="#fff" stroke-width="0.7"></circle></g><g class="key-Angola_0"><circle cx="512.00" cy="207.00" r="2.82" fill="#5675c1" opacity="0.8" stroke="#333" stroke-width="0.7"></circle></g><g class="key-Burkina-Faso_0"><circle cx="622.00" cy="150.00" r="2.71" fill="#5675c1" opacity="0.8" stroke="#fff" stroke-width="0.7"></circle></g><g class="key-Chile_0"><circle cx="483.00" cy="203.00" r="2.69" fill="#69c487" opacity="0.8" stroke="#333" stroke-width="0.7"></circle></g><g class="key-Niger_0"><circle cx="360.00" cy="335.00" r="2.68" fill="#5675c1" opacity="0.8" stroke="#333" stroke-width="0.7"></circle></g><g class="key-Mali_0"><circle cx="426.00" cy="287.00" r="2.66" fill="#5675c1" opacity="0.8" stroke="#333" stroke-width="0.7"></circle></g><g class="key-Netherlands_0"><circle cx="583.00" cy="145.00" r="2.65" fill="#ffd336" opacity="0.8" stroke="#fff" stroke-width="0.7"></circle></g><g class="key-Kazakhstan_0"><circle cx="670.00" cy="121.00" r="2.65" fill="#d14e5b" opacity="0.8" stroke="#fff" stroke-width="0.7"></circle></g><g class="key-Malawi_0"><circle cx="715.00" cy="114.00" r="2.64" fill="#5675c1" opacity="0.8" stroke="#fff" stroke-width="0.7"></circle></g><g class="key-Guatemala_0"><circle cx="345.00" cy="296.00" r="2.60" fill="#4d824b" opacity="0.8" stroke="#333" stroke-width="0.7"></circle></g><g class="key-Ecuador_0"><circle cx="452.00" cy="251.00" r="2.58" fill="#69c487" opacity="0.8" stroke="#fff" stroke-width="0.7"></circle></g><g class="key-Cambodia_0"><circle cx="592.00" cy="142.00" r="2.56" fill="#d14e5b" opacity="0.8" stroke="#fff" stroke-width="0.7"></circle></g><g class="key-Zambia_0"><circle cx="615.00" cy="172.00" r="2.55" fill="#5675c1" opacity="0.8" stroke="#fff" stroke-width="0.7"></circle></g><g class="key-Senegal_0"><circle cx="449.00" cy="290.00" r="2.51" fill="#5675c1" opacity="0.8" stroke="#fff" stroke-width="0.7"></circle></g><g class="key-Zimbabwe_0"><circle cx="652.00" cy="150.00" r="2.50" fill="#5675c1" opacity="0.8" stroke="#fff" stroke-width="0.7"></circle></g><g class="key-Chad_0"><circle cx="540.00" cy="219.00" r="2.44" fill="#5675c1" opacity="0.8" stroke="#fff" stroke-width="0.7"></circle></g><g class="key-Rwanda_0"><circle cx="709.00" cy="92.00" r="2.42" fill="#5675c1" opacity="0.8" stroke="#fff" stroke-width="0.7"></circle></g><g class="key-Greece_0"><circle cx="497.00" cy="156.00" r="2.41" fill="#ffd336" opacity="0.8" stroke="#333" stroke-width="0.7"></circle></g><g class="key-Cuba_0"><circle cx="443.00" cy="239.00" r="2.40" fill="#4d824b" opacity="0.8" stroke="#333" stroke-width="0.7"></circle></g><g class="key-Belgium_0"><circle cx="563.00" cy="153.00" r="2.38" fill="#ffd336" opacity="0.8" stroke="#333" stroke-width="0.7"></circle></g><g class="key-Tunisia_0"><circle cx="152.00" cy="320.00" r="2.38" fill="#5675c1" opacity="0.8" stroke="#333" stroke-width="0.7"></circle></g><g class="key-Guinea_0"><circle cx="635.00" cy="126.00" r="2.38" fill="#5675c1" opacity="0.8" stroke="#fff" stroke-width="0.7"></circle></g><g class="key-Portugal_0"><circle cx="588.00" cy="126.00" r="2.38" fill="#ffd336" opacity="0.8" stroke="#fff" stroke-width="0.7"></circle></g><g class="key-Czech-Republic_0"><circle cx="672.00" cy="216.00" r="2.37" fill="#ffd336" opacity="0.8" stroke="#333" stroke-width="0.7"></circle></g><g class="key-Bolivia_0"><circle cx="588.00" cy="200.00" r="2.36" fill="#69c487" opacity="0.8" stroke="#333" stroke-width="0.7"></circle></g><g class="key-Haiti_0"><circle cx="605.00" cy="185.00" r="2.36" fill="#4d824b" opacity="0.8" stroke="#fff" stroke-width="0.7"></circle></g><g class="key-Dominican-Republic_0"><circle cx="457.00" cy="202.00" r="2.36" fill="#4d824b" opacity="0.8" stroke="#fff" stroke-width="0.7"></circle></g><g class="key-Somalia_0"><circle cx="269.00" cy="332.00" r="2.34" fill="#5675c1" opacity="0.8" stroke="#333" stroke-width="0.7"></circle></g><g class="key-Hungary_0"><circle cx="618.00" cy="206.00" r="2.34" fill="#ffd336" opacity="0.8" stroke="#fff" stroke-width="0.7"></circle></g><g class="key-Serbia_0"><circle cx="521.00" cy="205.00" r="2.33" fill="#ffd336" opacity="0.8" stroke="#fff" stroke-width="0.7"></circle></g><g class="key-Benin_0"><circle cx="654.00" cy="148.00" r="2.32" fill="#5675c1" opacity="0.8" stroke="#fff" stroke-width="0.7"></circle></g><g class="key-Sweden_0"><circle cx="648.00" cy="144.00" r="2.32" fill="#ffd336" opacity="0.8" stroke="#fff" stroke-width="0.7"></circle></g><g class="key-Azerbaijan_0"><circle cx="675.00" cy="196.00" r="2.32" fill="#d14e5b" opacity="0.8" stroke="#333" stroke-width="0.7"></circle></g><g class="key-Belarus_0"><circle cx="643.00" cy="150.00" r="2.32" fill="#ffd336" opacity="0.8" stroke="#fff" stroke-width="0.7"></circle></g><g class="key-Burundi_0"><circle cx="702.00" cy="100.00" r="2.29" fill="#5675c1" opacity="0.8" stroke="#fff" stroke-width="0.7"></circle></g><g class="key-Austria_0"><circle cx="617.00" cy="148.00" r="2.26" fill="#ffd336" opacity="0.8" stroke="#fff" stroke-width="0.7"></circle></g><g class="key-United-Arab-Emirates_0"><circle cx="199.00" cy="260.00" r="2.25" fill="#d14e5b" opacity="0.8" stroke="#333" stroke-width="0.7"></circle></g><g class="key-Honduras_0"><circle cx="426.00" cy="269.00" r="2.24" fill="#4d824b" opacity="0.8" stroke="#fff" stroke-width="0.7"></circle></g><g class="key-Israel_0"><circle cx="555.00" cy="166.00" r="2.23" fill="#d14e5b" opacity="0.8" stroke="#333" stroke-width="0.7"></circle></g><g class="key-Switzerland_0"><circle cx="633.00" cy="137.00" r="2.23" fill="#ffd336" opacity="0.8" stroke="#fff" stroke-width="0.7"></circle></g><g class="key-Bulgaria_0"><circle cx="610.00" cy="201.00" r="2.21" fill="#ffd336" opacity="0.8" stroke="#fff" stroke-width="0.7"></circle></g><g class="key-Papua-New-Guinea_0"><circle cx="583.00" cy="180.00" r="2.20" fill="#a652ba" opacity="0.8" stroke="#fff" stroke-width="0.7"></circle></g><g class="key-Hong-Kong_0"><circle cx="502.00" cy="147.00" r="2.20" fill="#d14e5b" opacity="0.8" stroke="#fff" stroke-width="0.7"></circle></g><g class="key-Tajikistan_0"><circle cx="566.00" cy="186.00" r="2.20" fill="#d14e5b" opacity="0.8" stroke="#fff" stroke-width="0.7"></circle></g><g class="key-Paraguay_0"><circle cx="496.00" cy="211.00" r="2.18" fill="#69c487" opacity="0.8" stroke="#fff" stroke-width="0.7"></circle></g><g class="key-Jordan_0"><circle cx="75.00" cy="401.00" r="2.16" fill="#d14e5b" opacity="0.8" stroke="#fff" stroke-width="0.7"></circle></g><g class="key-Libya_0"><circle cx="195.00" cy="341.00" r="2.16" fill="#5675c1" opacity="0.8" stroke="#333" stroke-width="0.7"></circle></g><g class="key-Laos_0"><circle cx="626.00" cy="113.00" r="2.16" fill="#d14e5b" opacity="0.8" stroke="#fff" stroke-width="0.7"></circle></g><g class="key-Togo_0"><circle cx="680.00" cy="122.00" r="2.16" fill="#5675c1" opacity="0.8" stroke="#fff" stroke-width="0.7"></circle></g><g class="key-El-Salvador_0"><circle cx="453.00" cy="243.00" r="2.15" fill="#4d824b" opacity="0.8" stroke="#fff" stroke-width="0.7"></circle></g><g class="key-Sierra-Leone_0"><circle cx="586.00" cy="170.00" r="2.15" fill="#5675c1" opacity="0.8" stroke="#fff" stroke-width="0.7"></circle></g><g class="key-Nicaragua_0"><circle cx="473.00" cy="244.00" r="2.14" fill="#4d824b" opacity="0.8" stroke="#fff" stroke-width="0.7"></circle></g><g class="key-Eritrea_0"><circle cx="593.00" cy="134.00" r="2.12" fill="#5675c1" opacity="0.8" stroke="#fff" stroke-width="0.7"></circle></g><g class="key-Denmark_0"><circle cx="623.00" cy="167.00" r="2.11" fill="#ffd336" opacity="0.8" stroke="#fff" stroke-width="0.7"></circle></g><g class="key-Kyrgyzstan_0"><circle cx="493.00" cy="256.00" r="2.11" fill="#d14e5b" opacity="0.8" stroke="#fff" stroke-width="0.7"></circle></g><g class="key-Slovakia_0"><circle cx="642.00" cy="215.00" r="2.11" fill="#ffd336" opacity="0.8" stroke="#fff" stroke-width="0.7"></circle></g><g class="key-Finland_0"><circle cx="652.00" cy="180.00" r="2.10" fill="#ffd336" opacity="0.8" stroke="#333" stroke-width="0.7"></circle></g><g class="key-Singapore_0"><circle cx="516.00" cy="138.00" r="2.10" fill="#d14e5b" opacity="0.8" stroke="#fff" stroke-width="0.7"></circle></g><g class="key-Turkmenistan_0"><circle cx="446.00" cy="263.00" r="2.09" fill="#d14e5b" opacity="0.8" stroke="#fff" stroke-width="0.7"></circle></g><g class="key-Norway_0"><circle cx="611.00" cy="155.00" r="2.08" fill="#ffd336" opacity="0.8" stroke="#fff" stroke-width="0.7"></circle></g><g class="key-Costa-Rica_0"><circle cx="426.00" cy="220.00" r="2.07" fill="#4d824b" opacity="0.8" stroke="#fff" stroke-width="0.7"></circle></g><g class="key-Central-African-Republic_0"><circle cx="641.00" cy="177.00" r="2.06" fill="#5675c1" opacity="0.8" stroke="#fff" stroke-width="0.7"></circle></g><g class="key-Ireland_0"><circle cx="496.00" cy="179.00" r="2.06" fill="#ffd336" opacity="0.8" stroke="#fff" stroke-width="0.7"></circle></g><g class="key-New-Zealand_0"><circle cx="612.00" cy="188.00" r="2.05" fill="#a652ba" opacity="0.8" stroke="#fff" stroke-width="0.7"></circle></g><g class="key-Croatia_0"><circle cx="551.00" cy="150.00" r="2.04" fill="#ffd336" opacity="0.8" stroke="#fff" stroke-width="0.7"></circle></g><g class="key-Liberia_0"><circle cx="555.00" cy="209.00" r="2.04" fill="#5675c1" opacity="0.8" stroke="#fff" stroke-width="0.7"></circle></g><g class="key-Congo_0"><circle cx="615.00" cy="168.00" r="2.04" fill="#5675c1" opacity="0.8" stroke="#fff" stroke-width="0.7"></circle></g><g class="key-Lebanon_0"><circle cx="162.00" cy="335.00" r="2.04" fill="#d14e5b" opacity="0.8" stroke="#fff" stroke-width="0.7"></circle></g><g class="key-Georgia_0"><circle cx="569.00" cy="247.00" r="2.04" fill="#d14e5b" opacity="0.8" stroke="#333" stroke-width="0.7"></circle></g><g class="key-Puerto-Rico_0"><circle cx="361.00" cy="275.00" r="2.01" fill="#4d824b" opacity="0.8" stroke="#333" stroke-width="0.7"></circle></g><g class="key-Bosnia-and-Herzegovina_0"><circle cx="383.00" cy="261.00" r="2.01" fill="#ffd336" opacity="0.8" stroke="#fff" stroke-width="0.7"></circle></g><g class="key-Mauritania_0"><circle cx="277.00" cy="361.00" r="2.00" fill="#5675c1" opacity="0.8" stroke="#fff" stroke-width="0.7"></circle></g><g class="key-Panama_0"><circle cx="479.00" cy="223.00" r="2.00" fill="#4d824b" opacity="0.8" stroke="#fff" stroke-width="0.7"></circle></g><g class="key-Moldova_0"><circle cx="456.00" cy="314.00" r="1.99" fill="#ffd336" opacity="0.8" stroke="#333" stroke-width="0.7"></circle></g><g class="key-Uruguay_0"><circle cx="563.00" cy="164.00" r="1.99" fill="#69c487" opacity="0.8" stroke="#fff" stroke-width="0.7"></circle></g><g class="key-Lithuania_0"><circle cx="652.00" cy="139.00" r="1.98" fill="#ffd336" opacity="0.8" stroke="#fff" stroke-width="0.7"></circle></g><g class="key-Albania_0"><circle cx="471.00" cy="261.00" r="1.98" fill="#ffd336" opacity="0.8" stroke="#fff" stroke-width="0.7"></circle></g><g class="key-Armenia_0"><circle cx="541.00" cy="266.00" r="1.97" fill="#d14e5b" opacity="0.8" stroke="#333" stroke-width="0.7"></circle></g><g class="key-Kuwait_0"><circle cx="247.00" cy="216.00" r="1.96" fill="#d14e5b" opacity="0.8" stroke="#333" stroke-width="0.7"></circle></g><g class="key-Oman_0"><circle cx="127.00" cy="328.00" r="1.96" fill="#d14e5b" opacity="0.8" stroke="#fff" stroke-width="0.7"></circle></g><g class="key-Mongolia_0"><circle cx="548.00" cy="202.00" r="1.96" fill="#d14e5b" opacity="0.8" stroke="#fff" stroke-width="0.7"></circle></g><g class="key-Jamaica_0"><circle cx="567.00" cy="179.00" r="1.95" fill="#4d824b" opacity="0.8" stroke="#fff" stroke-width="0.7"></circle></g><g class="key-Namibia_0"><circle cx="528.00" cy="187.00" r="1.93" fill="#5675c1" opacity="0.8" stroke="#fff" stroke-width="0.7"></circle></g><g class="key-Lesotho_0"><circle cx="555.00" cy="183.00" r="1.92" fill="#5675c1" opacity="0.8" stroke="#fff" stroke-width="0.7"></circle></g><g class="key-Latvia_0"><circle cx="633.00" cy="164.00" r="1.92" fill="#ffd336" opacity="0.8" stroke="#fff" stroke-width="0.7"></circle></g><g class="key-Botswana_0"><circle cx="599.00" cy="121.00" r="1.91" fill="#5675c1" opacity="0.8" stroke="#fff" stroke-width="0.7"></circle></g><g class="key-Macedonia_0"><circle cx="451.00" cy="210.00" r="1.91" fill="#ffd336" opacity="0.8" stroke="#fff" stroke-width="0.7"></circle></g><g class="key-Slovenia_0"><circle cx="640.00" cy="148.00" r="1.91" fill="#ffd336" opacity="0.8" stroke="#fff" stroke-width="0.7"></circle></g><g class="key-Qatar_0"><circle cx="352.00" cy="221.00" r="1.90" fill="#d14e5b" opacity="0.8" stroke="#333" stroke-width="0.7"></circle></g><g class="key-Gambia_0"><circle cx="582.00" cy="175.00" r="1.90" fill="#5675c1" opacity="0.8" stroke="#fff" stroke-width="0.7"></circle></g><g class="key-Guinea__002dBissau_0"><circle cx="590.00" cy="174.00" r="1.88" fill="#5675c1" opacity="0.8" stroke="#fff" stroke-width="0.7"></circle></g><g class="key-Gabon_0"><circle cx="442.00" cy="270.00" r="1.88" fill="#5675c1" opacity="0.8" stroke="#fff" stroke-width="0.7"></circle></g><g class="key-Bahrain_0"><circle cx="203.00" cy="248.00" r="1.87" fill="#d14e5b" opacity="0.8" stroke="#333" stroke-width="0.7"></circle></g><g class="key-Trinidad-and-Tobago_0"><circle cx="468.00" cy="197.00" r="1.86" fill="#4d824b" opacity="0.8" stroke="#fff" stroke-width="0.7"></circle></g><g class="key-Estonia_0"><circle cx="642.00" cy="186.00" r="1.86" fill="#ffd336" opacity="0.8" stroke="#fff" stroke-width="0.7"></circle></g><g class="key-Mauritius_0"><circle cx="380.00" cy="205.00" r="1.86" fill="#5675c1" opacity="0.8" stroke="#fff" stroke-width="0.7"></circle></g><g class="key-Swaziland_0"><circle cx="369.00" cy="271.00" r="1.86" fill="#5675c1" opacity="0.8" stroke="#fff" stroke-width="0.7"></circle></g><g class="key-Cyprus_0"><circle cx="561.00" cy="126.00" r="1.85" fill="#ffd336" opacity="0.8" stroke="#fff" stroke-width="0.7"></circle></g><g class="key-Djibouti_0"><circle cx="298.00" cy="325.00" r="1.84" fill="#5675c1" opacity="0.8" stroke="#fff" stroke-width="0.7"></circle></g><g class="key-Fiji_0"><circle cx="281.00" cy="300.00" r="1.83" fill="#a652ba" opacity="0.8" stroke="#333" stroke-width="0.7"></circle></g><g class="key-Comoros_0"><circle cx="332.00" cy="340.00" r="1.83" fill="#5675c1" opacity="0.8" stroke="#fff" stroke-width="0.7"></circle></g><g class="key-Bhutan_0"><circle cx="574.00" cy="193.00" r="1.83" fill="#d14e5b" opacity="0.8" stroke="#fff" stroke-width="0.7"></circle></g><g class="key-Equatorial-Guinea_0"><circle cx="609.00" cy="151.00" r="1.83" fill="#5675c1" opacity="0.8" stroke="#fff" stroke-width="0.7"></circle></g><g class="key-Guyana_0"><circle cx="380.00" cy="294.00" r="1.83" fill="#69c487" opacity="0.8" stroke="#fff" stroke-width="0.7"></circle></g><g class="key-Montenegro_0"><circle cx="462.00" cy="212.00" r="1.82" fill="#ffd336" opacity="0.8" stroke="#fff" stroke-width="0.7"></circle></g><g class="key-Western-Sahara_0"><circle cx="220.00" cy="367.00" r="1.82" fill="#5675c1" opacity="0.8" stroke="#fff" stroke-width="0.7"></circle></g><g class="key-Solomon-Islands_0"><circle cx="518.00" cy="185.00" r="1.82" fill="#a652ba" opacity="0.8" stroke="#fff" stroke-width="0.7"></circle></g><g class="key-Suriname_0"><circle cx="394.00" cy="240.00" r="1.81" fill="#69c487" opacity="0.8" stroke="#333" stroke-width="0.7"></circle></g><g class="key-Luxembourg_0"><circle cx="545.00" cy="143.00" r="1.81" fill="#ffd336" opacity="0.8" stroke="#fff" stroke-width="0.7"></circle></g><g class="key-Cape-Verde_0"><circle cx="405.00" cy="214.00" r="1.81" fill="#5675c1" opacity="0.8" stroke="#fff" stroke-width="0.7"></circle></g><g class="key-Malta_0"><circle cx="360.00" cy="186.00" r="1.81" fill="#ffd336" opacity="0.8" stroke="#333" stroke-width="0.7"></circle></g><g class="key-Brunei_0"><circle cx="404.00" cy="198.00" r="1.81" fill="#d14e5b" opacity="0.8" stroke="#fff" stroke-width="0.7"></circle></g><g class="key-Bahamas_0"><circle cx="622.00" cy="128.00" r="1.80" fill="#4d824b" opacity="0.8" stroke="#fff" stroke-width="0.7"></circle></g><g class="key-Iceland_0"><circle cx="641.00" cy="156.00" r="1.80" fill="#ffd336" opacity="0.8" stroke="#fff" stroke-width="0.7"></circle></g><g class="key-Belize_0"><circle cx="450.00" cy="214.00" r="1.80" fill="#4d824b" opacity="0.8" stroke="#fff" stroke-width="0.7"></circle></g><g class="key-Maldives_0"><circle cx="463.00" cy="227.00" r="1.80" fill="#d14e5b" opacity="0.8" stroke="#fff" stroke-width="0.7"></circle></g><g class="key-French-Polynesia_0"><circle cx="412.00" cy="208.00" r="1.80" fill="#a652ba" opacity="0.8" stroke="#fff" stroke-width="0.7"></circle></g><g class="key-Barbados_0"><circle cx="615.00" cy="123.00" r="1.80" fill="#4d824b" opacity="0.8" stroke="#fff" stroke-width="0.7"></circle></g><g class="key-New-Caledonia_0"><circle cx="367.00" cy="220.00" r="1.79" fill="#a652ba" opacity="0.8" stroke="#fff" stroke-width="0.7"></circle></g><g class="key-Vanuatu_0"><circle cx="511.00" cy="224.00" r="1.79" fill="#a652ba" opacity="0.8" stroke="#fff" stroke-width="0.7"></circle></g><g class="key-Guam_0"><circle cx="514.00" cy="217.00" r="1.79" fill="#a652ba" opacity="0.8" stroke="#fff" stroke-width="0.7"></circle></g><g class="key-Samoa_0"><circle cx="208.00" cy="368.00" r="1.79" fill="#a652ba" opacity="0.8" stroke="#fff" stroke-width="0.7"></circle></g><g class="key-Saint-Lucia_0"><circle cx="543.00" cy="159.00" r="1.79" fill="#4d824b" opacity="0.8" stroke="#fff" stroke-width="0.7"></circle></g><g class="key-Sao-Tome-and-Principe_0"><circle cx="423.00" cy="235.00" r="1.79" fill="#5675c1" opacity="0.8" stroke="#fff" stroke-width="0.7"></circle></g><g class="key-Saint-Vincent-and-the-Grenadines_0"><circle cx="495.00" cy="181.00" r="1.79" fill="#4d824b" opacity="0.8" stroke="#fff" stroke-width="0.7"></circle></g><g class="key-Tonga_0"><circle cx="514.00" cy="224.00" r="1.78" fill="#a652ba" opacity="0.8" stroke="#fff" stroke-width="0.7"></circle></g><g class="key-Channel-Islands_0"><circle cx="533.00" cy="172.00" r="1.78" fill="#ffd336" opacity="0.8" stroke="#fff" stroke-width="0.7"></circle></g><g class="key-Palestine_0"><circle cx="147.00" cy="383.00" r="1.78" fill="#d14e5b" opacity="0.8" stroke="#333" stroke-width="0.7"></circle></g><g class="key-Timor_0"><circle cx="326.00" cy="369.00" r="1.78" fill="#d14e5b" opacity="0.8" stroke="#333" stroke-width="0.7"></circle></g><g class="key-United-States-Virgin-Islands_0"><circle cx="534.00" cy="170.00" r="1.78" fill="#4d824b" opacity="0.8" stroke="#fff" stroke-width="0.7"></circle></g><g class="key-Yemen_0"><circle cx="217.00" cy="378.00" r="1.78" fill="#d14e5b" opacity="0.8" stroke="#333" stroke-width="0.7"></circle></g><g class="backgroundLabels" fill="#333"><text x="533.00" y="132.16" font-size="14.30">China</text><text x="257.00" y="361.71" font-size="14.10">India</text><text x="540.00" y="181.23" font-size="11.77">United States</text><text x="461.00" y="265.22" font-size="11.60">Indonesia</text><text x="476.00" y="184.96" font-size="11.49">Brazil</text><text x="220.00" y="388.24" font-size="11.44">Pakistan</text><text x="469.00" y="289.46" font-size="11.41">Nigeria</text><text x="636.00" y="148.98" font-size="11.35">Russia</text><text x="397.00" y="256.49" font-size="11.28">Mexico</text><text x="645.00" y="112.08" font-size="11.22">Vietnam</text><text x="594.00" y="128.14" font-size="11.21">Ethiopia</text><text x="200.00" y="364.21" font-size="11.21">Egypt</text><text x="617.00" y="160.30" font-size="11.20">Germany</text><text x="96.00" y="405.43" font-size="11.19">Iran</text><text x="222.00" y="320.46" font-size="11.18">Turkey</text><text x="470.00" y="224.84" font-size="11.15">Italy</text><text x="500.00" y="216.43" font-size="11.10">Argentina</text><text x="112.00" y="382.57" font-size="11.09">Algeria</text><text x="647.97" y="128.58" font-size="11.09">Uganda</text><text x="136.00" y="415.65" font-size="11.08">Iraq</text><text x="420.00" y="203.83" font-size="11.07">Malaysia</text><text x="95.00" y="359.84" font-size="11.07">Saudi Arabia</text><text x="461.00" y="250.88" font-size="11.07">Uzbekistan</text><text x="432.00" y="217.08" font-size="11.06">Taiwan</text><text x="103.00" y="429.15" font-size="11.05">Syria</text><text x="263.00" y="347.15" font-size="11.05">Sri Lanka</text><text x="512.00" y="203.18" font-size="11.05">Angola</text><text x="483.00" y="199.31" font-size="11.04">Chile</text><text x="360.00" y="331.32" font-size="11.04">Niger</text><text x="426.00" y="283.34" font-size="11.04">Mali</text><text x="345.00" y="292.40" font-size="11.04">Guatemala</text><text x="497.00" y="152.59" font-size="11.03">Greece</text><text x="443.00" y="235.60" font-size="11.03">Cuba</text><text x="563.00" y="149.62" font-size="11.03">Belgium</text><text x="152.00" y="316.62" font-size="11.03">Tunisia</text><text x="594.60" y="212.63" font-size="11.03">Czech Republic</text><text x="588.00" y="196.64" font-size="11.03">Bolivia</text><text x="269.00" y="328.66" font-size="11.02">Somalia</text><text x="622.75" y="192.68" font-size="11.02">Azerbaijan</text><text x="199.00" y="256.75" font-size="11.02">United Arab Emirates</text><text x="555.00" y="162.77" font-size="11.02">Israel</text><text x="195.00" y="337.84" font-size="11.02">Libya</text><text x="652.00" y="176.90" font-size="11.01">Finland</text><text x="569.00" y="243.96" font-size="11.01">Georgia</text><text x="361.00" y="271.99" font-size="11.01">Puerto Rico</text><text x="456.00" y="311.01" font-size="11.01">Moldova</text><text x="541.00" y="263.03" font-size="11.01">Armenia</text><text x="247.00" y="213.04" font-size="11.01">Kuwait</text><text x="352.00" y="218.10" font-size="11.00">Qatar</text><text x="203.00" y="245.13" font-size="11.00">Bahrain</text><text x="281.00" y="297.17" font-size="11.00">Fiji</text><text x="394.00" y="237.19" font-size="11.00">Suriname</text><text x="360.00" y="183.19" font-size="11.00">Malta</text><text x="147.00" y="380.22" font-size="11.00">Palestine</text><text x="326.00" y="366.22" font-size="11.00">Timor</text><text x="217.00" y="375.22" font-size="11.00">Yemen</text></g></g><g class="ScatterColorLegend clickable" style="cursor:pointer"><g class="legendMark"><rect x="735" y="89.6" width="43.256" height="17.6" fill="#fff" opacity="0"></rect>,<rect x="735" y="95.1" width="6" height="6" fill="#5675c1"></rect>,<text font-size="12.60" x="746.0" y="102.2"><tspan x="746" y="102.17999999999999">Africa</tspan></text></g><g class="legendMark"><rect x="735" y="107.19999999999999" width="35.57" height="17.6" fill="#fff" opacity="0"></rect>,<rect x="735" y="112.69999999999999" width="6" height="6" fill="#d14e5b"></rect>,<text font-size="12.60" x="746.0" y="119.8"><tspan x="746" y="119.77999999999999">Asia</tspan></text></g><g class="legendMark"><rect x="735" y="124.8" width="51.824" height="17.6" fill="#fff" opacity="0"></rect>,<rect x="735" y="130.3" width="6" height="6" fill="#ffd336"></rect>,<text font-size="12.60" x="746.0" y="137.4"><tspan x="746" y="137.38">Europe</tspan></text></g><g class="legendMark"><rect x="735" y="142.4" width="91.64" height="17.6" fill="#fff" opacity="0"></rect>,<rect x="735" y="147.9" width="6" height="6" fill="#4d824b"></rect>,<text font-size="12.60" x="746.0" y="155.0"><tspan x="746" y="154.98">North America</tspan></text></g><g class="legendMark"><rect x="735" y="160" width="58.124" height="17.6" fill="#fff" opacity="0"></rect>,<rect x="735" y="165.5" width="6" height="6" fill="#a652ba"></rect>,<text font-size="12.60" x="746.0" y="172.6"><tspan x="746" y="172.57999999999998">Oceania</tspan></text></g><g class="legendMark"><rect x="735" y="177.6" width="93.908" height="17.6" fill="#fff" opacity="0"></rect>,<rect x="735" y="183.1" width="6" height="6" fill="#69c487"></rect>,<text font-size="12.60" x="746.0" y="190.2"><tspan x="746" y="190.17999999999998">South America</tspan></text></g></g></g><g class="SourcesFooter" style="fill:#777"><g class="clickable" style="fill:#777"><text font-size="12.60" x="15.0" y="581.6"><tspan x="15" y="581.58">Source: ILOSTAT</tspan></text></g><text font-size="12.60" x="775.4" y="581.6"><tspan x="775.402" y="581.58"><a style="fill: #777;" class="cclogo" href="http://creativecommons.org/licenses/by-sa/4.0/deed.en_US" target="_blank">CC BY-SA</a></tspan></text></g></g></svg>