<svg xmlns="http://www.w3.org/2000/svg" version="1.1" style="font-family:&#x27;Helvetica Neue&#x27;, Helvetica, Arial, sans-serif;font-size:18px;background-color:white;text-rendering:optimizeLegibility;-webkit-font-smoothing:antialiased" width="850" height="600"><g class="ChartTab"><g class="HeaderView"><g opacity="0.8" transform="translate(778, 15) scale(0.27)"><a xmlns:xlink="http://www.w3.org/1999/xlink" xlink:href="https://ourworldindata.org" target="_blank"><g><rect x="0" y="0" fill="#1B2543" width="211.2" height="130.1"/><rect x="0" y="112.2" fill="#E63912" width="211.2" height="17.9"/><g><rect x="1.2" y="12.3" fill="none" width="210.2" height="99.2"/><path fill="#FFFFFF" d="M37.8,32.2c0,12.7-7.7,19.4-17.1,19.4c-9.7,0-16.6-7.5-16.6-18.7c0-11.7,7.3-19.3,17.1-19.3 C31.3,13.7,37.8,21.3,37.8,32.2z M9.2,32.8c0,7.9,4.3,14.9,11.8,14.9c7.5,0,11.8-6.9,11.8-15.3c0-7.3-3.8-14.9-11.8-14.9 C13.1,17.5,9.2,24.8,9.2,32.8z"/><path fill="#FFFFFF" d="M62.7,43.8c0,2.7,0.1,5.1,0.2,7.2h-4.3l-0.3-4.3h-0.1c-1.3,2.1-4,4.9-8.8,4.9c-4.2,0-9.1-2.3-9.1-11.6 V24.6h4.8v14.6c0,5,1.5,8.4,5.9,8.4c3.2,0,5.5-2.2,6.3-4.4c0.3-0.7,0.4-1.6,0.4-2.5V24.6h4.8V43.8z"/><path fill="#FFFFFF" d="M67.3,32.8c0-3.1-0.1-5.8-0.2-8.2h4.2l0.2,5.2h0.2c1.2-3.5,4.1-5.8,7.3-5.8c0.5,0,0.9,0.1,1.4,0.2v4.5 c-0.5-0.1-1-0.2-1.6-0.2c-3.4,0-5.8,2.6-6.5,6.2c-0.1,0.7-0.2,1.4-0.2,2.2V51h-4.8V32.8z"/><path fill="#FFFFFF" d="M95.4,51l-9.4-36.8h5l4.4,18.6c1.1,4.6,2.1,9.2,2.7,12.7h0.1c0.6-3.7,1.8-8,3-12.8l4.9-18.5h5l4.5,18.7 c1,4.4,2,8.7,2.6,12.6h0.1c0.8-4,1.8-8.1,3-12.7l4.9-18.5h4.9L120.6,51h-5L111,31.9c-1.1-4.7-1.9-8.3-2.4-12h-0.1 c-0.7,3.7-1.5,7.3-2.8,12L100.4,51H95.4z"/><path fill="#FFFFFF" d="M154.9,37.6c0,9.8-6.8,14-13.2,14c-7.2,0-12.7-5.2-12.7-13.6c0-8.8,5.8-14,13.1-14 C149.8,24,154.9,29.5,154.9,37.6z M133.9,37.9c0,5.8,3.3,10.1,8,10.1c4.6,0,8-4.3,8-10.3c0-4.5-2.2-10.1-7.9-10.1 C136.3,27.6,133.9,32.8,133.9,37.9z"/><path fill="#FFFFFF" d="M158.2,32.8c0-3.1-0.1-5.8-0.2-8.2h4.2l0.2,5.2h0.2c1.2-3.5,4.1-5.8,7.3-5.8c0.5,0,0.9,0.1,1.4,0.2v4.5 c-0.5-0.1-1-0.2-1.6-0.2c-3.4,0-5.8,2.6-6.5,6.2c-0.1,0.7-0.2,1.4-0.2,2.2V51h-4.8V32.8z"/><path fill="#FFFFFF" d="M173.5,12.3h4.8V51h-4.8V12.3z"/><path fill="#FFFFFF" d="M206.5,12.3v31.9c0,2.3,0.1,5,0.2,6.8h-4.3l-0.2-4.6H202c-1.5,2.9-4.7,5.2-9,5.2 c-6.4,0-11.3-5.4-11.3-13.4c-0.1-8.8,5.4-14.2,11.9-14.2c4,0,6.8,1.9,8,4h0.1V12.3H206.5z M201.7,35.4c0-0.6-0.1-1.4-0.2-2 c-0.7-3.1-3.3-5.6-6.9-5.6c-5,0-7.9,4.4-7.9,10.2c0,5.3,2.6,9.8,7.8,9.8c3.2,0,6.2-2.1,7.1-5.7c0.2-0.7,0.2-1.3,0.2-2.1V35.4z"/><path fill="#FFFFFF" d="M42.8,64c0.1,1.6-1.1,2.9-3.1,2.9c-1.7,0-2.9-1.3-2.9-2.9c0-1.7,1.3-3,3-3C41.7,61,42.8,62.3,42.8,64z M37.4,97.8V71.4h4.8v26.4H37.4z"/><path fill="#FFFFFF" d="M47.5,78.6c0-2.7-0.1-5-0.2-7.1h4.3l0.3,4.4h0.1c1.3-2.5,4.4-5,8.8-5c3.7,0,9.4,2.2,9.4,11.2v15.8h-4.8 V82.6c0-4.3-1.6-7.8-6.1-7.8c-3.2,0-5.6,2.2-6.5,4.9c-0.2,0.6-0.3,1.4-0.3,2.2v15.9h-4.8V78.6z"/><path fill="#FFFFFF" d="M84,61.6c2.9-0.4,6.3-0.8,10.1-0.8c6.8,0,11.7,1.6,14.9,4.6c3.3,3,5.2,7.3,5.2,13.2c0,6-1.9,10.9-5.3,14.3 c-3.4,3.4-9.1,5.3-16.3,5.3c-3.4,0-6.2-0.2-8.6-0.4V61.6z M88.8,94.1c1.2,0.2,3,0.3,4.8,0.3c10.2,0,15.7-5.7,15.7-15.6 c0.1-8.7-4.9-14.2-14.9-14.2c-2.5,0-4.3,0.2-5.6,0.5V94.1z"/><path fill="#FFFFFF" d="M132.1,97.8l-0.4-3.3h-0.2c-1.5,2.1-4.3,3.9-8.1,3.9c-5.4,0-8.1-3.8-8.1-7.6c0-6.4,5.7-9.9,15.9-9.8v-0.5 c0-2.2-0.6-6.1-6-6.1c-2.5,0-5,0.8-6.9,2l-1.1-3.2c2.2-1.4,5.4-2.3,8.7-2.3c8.1,0,10.1,5.5,10.1,10.8v9.9c0,2.3,0.1,4.5,0.4,6.3 H132.1z M131.4,84.4c-5.3-0.1-11.2,0.8-11.2,5.9c0,3.1,2.1,4.6,4.5,4.6c3.4,0,5.6-2.2,6.4-4.4c0.2-0.5,0.3-1,0.3-1.5V84.4z"/><path fill="#FFFFFF" d="M146.6,63.9v7.6h6.9v3.7h-6.9v14.2c0,3.3,0.9,5.1,3.6,5.1c1.3,0,2.2-0.2,2.8-0.3l0.2,3.6 c-0.9,0.4-2.4,0.7-4.3,0.7c-2.2,0-4-0.7-5.2-2c-1.4-1.4-1.9-3.8-1.9-6.9V75.1h-4.1v-3.7h4.1v-6.3L146.6,63.9z"/><path fill="#FFFFFF" d="M171.4,97.8l-0.4-3.3h-0.2c-1.5,2.1-4.3,3.9-8.1,3.9c-5.4,0-8.1-3.8-8.1-7.6c0-6.4,5.7-9.9,15.9-9.8v-0.5 c0-2.2-0.6-6.1-6-6.1c-2.5,0-5,0.8-6.9,2l-1.1-3.2c2.2-1.4,5.4-2.3,8.7-2.3c8.1,0,10.1,5.5,10.1,10.8v9.9c0,2.3,0.1,4.5,0.4,6.3 H171.4z M170.7,84.4c-5.3-0.1-11.2,0.8-11.2,5.9c0,3.1,2.1,4.6,4.5,4.6c3.4,0,5.6-2.2,6.4-4.4c0.2-0.5,0.3-1,0.3-1.5V84.4z"/></g></g></a></g><a href="https://ourworldindata.org/grapher/life-expectancy-at-birth-oecd" target="_blank"><text font-size="25.20" x="15.0" y="35.2" fill="#555"><tspan x="15" y="35.160000000000004">Life Expectancy at birth</tspan></text></a><text font-size="14.40" x="15.0" y="53.7" fill="#666"><tspan x="15" y="53.72">Life expectancy at birth in years, measured across both sexes.</tspan></text></g><g class="LineChart"><defs><clipPath id="boundsClip-14"><rect x="72.37" y="0" width="830" height="959.8"></rect></clipPath></defs><g class="AxisBoxView"><g class="HorizontalAxis"><text x="82.4" y="556.5" fill="#666" text-anchor="middle" font-size="16.2">1960</text><text x="195.3" y="556.5" fill="#666" text-anchor="middle" font-size="16.2">1970</text><text x="308.3" y="556.5" fill="#666" text-anchor="middle" font-size="16.2">1980</text><text x="421.2" y="556.5" fill="#666" text-anchor="middle" font-size="16.2">1990</text><text x="534.2" y="556.5" fill="#666" text-anchor="middle" font-size="16.2">2000</text><text x="647.1" y="556.5" fill="#666" text-anchor="middle" font-size="16.2">2010</text><text x="703.6" y="556.5" fill="#666" text-anchor="middle" font-size="16.2">2015</text></g><g class="VerticalAxis"><text x="77.37" y="535.3" fill="#666" dominant-baseline="middle" text-anchor="end" font-size="16.2">60 years</text><text x="77.37" y="436.9" fill="#666" dominant-baseline="middle" text-anchor="end" font-size="16.2">65 years</text><text x="77.37" y="338.4" fill="#666" dominant-baseline="middle" text-anchor="end" font-size="16.2">70 years</text><text x="77.37" y="240" fill="#666" dominant-baseline="middle" text-anchor="end" font-size="16.2">75 years</text><text x="77.37" y="141.6" fill="#666" dominant-baseline="middle" text-anchor="end" font-size="16.2">80 years</text></g><g class="AxisGridLines"><line x1="82.37" y1="535.3" x2="703.61" y2="535.3" stroke="#ddd" stroke-dasharray="3,2"></line><line x1="82.37" y1="436.9" x2="703.61" y2="436.9" stroke="#ddd" stroke-dasharray="3,2"></line><line x1="82.37" y1="338.4" x2="703.61" y2="338.4" stroke="#ddd" stroke-dasharray="3,2"></line><line x1="82.37" y1="240" x2="703.61" y2="240" stroke="#ddd" stroke-dasharray="3,2"></line><line x1="82.37" y1="141.6" x2="703.61" y2="141.6" stroke="#ddd" stroke-dasharray="3,2"></line></g></g><g clip-path="url(#boundsClip-14)"><g class="HeightedLegend clickable"><g class="legendMark"><g class="indicator"><line x1="708.61" y1="82.5" x2="731.11" y2="82.5" stroke="#666" stroke-width="0.5"></line><line x1="731.11" y1="82.5" x2="731.11" y2="82.5" stroke="#666" stroke-width="0.5"></line><line x1="731.11" y1="82.5" x2="733.61" y2="82.5" stroke="#666" stroke-width="0.5"></line></g><rect x="703.61" y="75.75" width="104.93" height="13.5" fill="#fff" opacity="0"></rect><text font-size="13.50" x="738.6" y="86.5" fill="#9ecc8a"><tspan x="738.61" y="86.55">Switzerland</tspan></text></g><g class="legendMark"><g class="indicator"><line x1="708.61" y1="94.3" x2="721.11" y2="94.3" stroke="#666" stroke-width="0.5"></line><line x1="721.11" y1="94.3" x2="721.11" y2="98" stroke="#666" stroke-width="0.5"></line><line x1="721.11" y1="98" x2="733.61" y2="98" stroke="#666" stroke-width="0.5"></line></g><rect x="703.61" y="91.25" width="77.12" height="13.5" fill="#fff" opacity="0"></rect><text font-size="13.50" x="738.6" y="102.0" fill="#e6332e"><tspan x="738.61" y="102.05">France</tspan></text></g><g class="legendMark"><g class="indicator"><line x1="708.61" y1="116" x2="731.11" y2="116" stroke="#666" stroke-width="0.5"></line><line x1="731.11" y1="116" x2="731.11" y2="116" stroke="#666" stroke-width="0.5"></line><line x1="731.11" y1="116" x2="733.61" y2="116" stroke="#666" stroke-width="0.5"></line></g><rect x="703.61" y="109.25" width="77.12" height="13.5" fill="#fff" opacity="0"></rect><text font-size="13.50" x="738.6" y="120.0" fill="#2a939b"><tspan x="738.61" y="120.05">Austria</tspan></text></g><g class="legendMark"><g class="indicator"><line x1="708.61" y1="117.9" x2="727.7766666666666" y2="117.9" stroke="#666" stroke-width="0.5"></line><line x1="727.7766666666666" y1="117.9" x2="727.7766666666666" y2="131.5" stroke="#666" stroke-width="0.5"></line><line x1="727.7766666666666" y1="131.5" x2="733.61" y2="131.5" stroke="#666" stroke-width="0.5"></line></g><rect x="703.61" y="124.75" width="85.49000000000001" height="13.5" fill="#fff" opacity="0"></rect><text font-size="13.50" x="738.6" y="135.6" fill="#a652ba"><tspan x="738.61" y="135.55">Portugal</tspan></text></g><g class="legendMark"><g class="indicator"><line x1="708.61" y1="119.9" x2="724.4433333333334" y2="119.9" stroke="#666" stroke-width="0.5"></line><line x1="724.4433333333334" y1="119.9" x2="724.4433333333334" y2="147" stroke="#666" stroke-width="0.5"></line><line x1="724.4433333333334" y1="147" x2="733.61" y2="147" stroke="#666" stroke-width="0.5"></line></g><rect x="703.61" y="140.25" width="83.87" height="13.5" fill="#fff" opacity="0"></rect><text font-size="13.50" x="738.6" y="151.1" fill="#f6a324"><tspan x="738.61" y="151.05">Belgium</tspan></text></g><g class="legendMark"><g class="indicator"><line x1="708.61" y1="121.9" x2="721.11" y2="121.9" stroke="#666" stroke-width="0.5"></line><line x1="721.11" y1="121.9" x2="721.11" y2="162.5" stroke="#666" stroke-width="0.5"></line><line x1="721.11" y1="162.5" x2="733.61" y2="162.5" stroke="#666" stroke-width="0.5"></line></g><rect x="703.61" y="155.75" width="131.39" height="13.5" fill="#fff" opacity="0"></rect><text font-size="13.50" x="738.6" y="166.6" fill="#34983f"><tspan x="738.61" y="166.55">United Kingdom</tspan></text></g><g class="legendMark"><g class="indicator"><line x1="708.61" y1="127.8" x2="717.7766666666666" y2="127.8" stroke="#666" stroke-width="0.5"></line><line x1="717.7766666666666" y1="127.8" x2="717.7766666666666" y2="178" stroke="#666" stroke-width="0.5"></line><line x1="717.7766666666666" y1="178" x2="733.61" y2="178" stroke="#666" stroke-width="0.5"></line></g><rect x="703.61" y="171.25" width="90.62" height="13.5" fill="#fff" opacity="0"></rect><text font-size="13.50" x="738.6" y="182.1" fill="#ca2628"><tspan x="738.61" y="182.05">Germany</tspan></text></g><g class="legendMark"><g class="indicator"><line x1="708.61" y1="165.2" x2="714.4433333333334" y2="165.2" stroke="#666" stroke-width="0.5"></line><line x1="714.4433333333334" y1="165.2" x2="714.4433333333334" y2="193.5" stroke="#666" stroke-width="0.5"></line><line x1="714.4433333333334" y1="193.5" x2="733.61" y2="193.5" stroke="#666" stroke-width="0.5"></line></g><rect x="703.61" y="186.75" width="116.405" height="13.5" fill="#fff" opacity="0"></rect><text font-size="13.50" x="738.6" y="197.6" fill="#3360a9"><tspan x="738.61" y="197.55">United States</tspan></text></g></g><g class="Lines"><rect x="82" y="77" width="621" height="459" fill="rgba(255,255,255,0)" opacity="0"></rect><g class="key-Belgium_0"><path stroke="#f6a324" stroke-linecap="round" d="M82 342L94 327L105 333L116 337L128 321L139 325L150 323L161 317L173 323L184 321L195 317L207 315L218 309L229 305L241 297L252 297L263 295L274 281L286 283L297 274L308 274L320 266L331 260L342 260L354 250L365 248L376 244L387 230L399 226L410 226L421 218L433 214L444 211L455 211L466 205L478 201L489 195L500 191L512 189L523 187L534 185L546 179L557 177L568 177L579 161L591 159L602 151L613 144L625 146L636 140L647 136L658 128L670 132L681 128L692 114L704 120" fill="none" stroke-width="1.5"></path><g fill="#f6a324"><circle cx="82" cy="342" r="2"></circle><circle cx="94" cy="327" r="2"></circle><circle cx="105" cy="333" r="2"></circle><circle cx="116" cy="337" r="2"></circle><circle cx="128" cy="321" r="2"></circle><circle cx="139" cy="325" r="2"></circle><circle cx="150" cy="323" r="2"></circle><circle cx="161" cy="317" r="2"></circle><circle cx="173" cy="323" r="2"></circle><circle cx="184" cy="321" r="2"></circle><circle cx="195" cy="317" r="2"></circle><circle cx="207" cy="315" r="2"></circle><circle cx="218" cy="309" r="2"></circle><circle cx="229" cy="305" r="2"></circle><circle cx="241" cy="297" r="2"></circle><circle cx="252" cy="297" r="2"></circle><circle cx="263" cy="295" r="2"></circle><circle cx="274" cy="281" r="2"></circle><circle cx="286" cy="283" r="2"></circle><circle cx="297" cy="274" r="2"></circle><circle cx="308" cy="274" r="2"></circle><circle cx="320" cy="266" r="2"></circle><circle cx="331" cy="260" r="2"></circle><circle cx="342" cy="260" r="2"></circle><circle cx="354" cy="250" r="2"></circle><circle cx="365" cy="248" r="2"></circle><circle cx="376" cy="244" r="2"></circle><circle cx="387" cy="230" r="2"></circle><circle cx="399" cy="226" r="2"></circle><circle cx="410" cy="226" r="2"></circle><circle cx="421" cy="218" r="2"></circle><circle cx="433" cy="214" r="2"></circle><circle cx="444" cy="211" r="2"></circle><circle cx="455" cy="211" r="2"></circle><circle cx="466" cy="205" r="2"></circle><circle cx="478" cy="201" r="2"></circle><circle cx="489" cy="195" r="2"></circle><circle cx="500" cy="191" r="2"></circle><circle cx="512" cy="189" r="2"></circle><circle cx="523" cy="187" r="2"></circle><circle cx="534" cy="185" r="2"></circle><circle cx="546" cy="179" r="2"></circle><circle cx="557" cy="177" r="2"></circle><circle cx="568" cy="177" r="2"></circle><circle cx="579" cy="161" r="2"></circle><circle cx="591" cy="159" r="2"></circle><circle cx="602" cy="151" r="2"></circle><circle cx="613" cy="144" r="2"></circle><circle cx="625" cy="146" r="2"></circle><circle cx="636" cy="140" r="2"></circle><circle cx="647" cy="136" r="2"></circle><circle cx="658" cy="128" r="2"></circle><circle cx="670" cy="132" r="2"></circle><circle cx="681" cy="128" r="2"></circle><circle cx="692" cy="114" r="2"></circle><circle cx="704" cy="120" r="2"></circle></g></g><g class="key-France_0"><path stroke="#e6332e" stroke-linecap="round" d="M82 333L94 319L105 329L116 329L128 311L139 313L150 309L161 309L173 309L184 313L195 295L207 297L218 291L229 289L241 283L252 279L263 275L274 264L286 262L297 256L308 254L320 250L331 244L342 244L354 234L365 232L376 226L387 214L399 209L410 207L421 201L433 197L444 191L455 189L466 181L478 179L489 175L500 169L512 165L523 163L534 157L546 155L557 153L568 155L579 136L591 134L602 122L613 118L625 114L636 112L647 106L658 96L670 100L681 96L692 86L704 94" fill="none" stroke-width="1.5"></path><g fill="#e6332e"><circle cx="82" cy="333" r="2"></circle><circle cx="94" cy="319" r="2"></circle><circle cx="105" cy="329" r="2"></circle><circle cx="116" cy="329" r="2"></circle><circle cx="128" cy="311" r="2"></circle><circle cx="139" cy="313" r="2"></circle><circle cx="150" cy="309" r="2"></circle><circle cx="161" cy="309" r="2"></circle><circle cx="173" cy="309" r="2"></circle><circle cx="184" cy="313" r="2"></circle><circle cx="195" cy="295" r="2"></circle><circle cx="207" cy="297" r="2"></circle><circle cx="218" cy="291" r="2"></circle><circle cx="229" cy="289" r="2"></circle><circle cx="241" cy="283" r="2"></circle><circle cx="252" cy="279" r="2"></circle><circle cx="263" cy="275" r="2"></circle><circle cx="274" cy="264" r="2"></circle><circle cx="286" cy="262" r="2"></circle><circle cx="297" cy="256" r="2"></circle><circle cx="308" cy="254" r="2"></circle><circle cx="320" cy="250" r="2"></circle><circle cx="331" cy="244" r="2"></circle><circle cx="342" cy="244" r="2"></circle><circle cx="354" cy="234" r="2"></circle><circle cx="365" cy="232" r="2"></circle><circle cx="376" cy="226" r="2"></circle><circle cx="387" cy="214" r="2"></circle><circle cx="399" cy="209" r="2"></circle><circle cx="410" cy="207" r="2"></circle><circle cx="421" cy="201" r="2"></circle><circle cx="433" cy="197" r="2"></circle><circle cx="444" cy="191" r="2"></circle><circle cx="455" cy="189" r="2"></circle><circle cx="466" cy="181" r="2"></circle><circle cx="478" cy="179" r="2"></circle><circle cx="489" cy="175" r="2"></circle><circle cx="500" cy="169" r="2"></circle><circle cx="512" cy="165" r="2"></circle><circle cx="523" cy="163" r="2"></circle><circle cx="534" cy="157" r="2"></circle><circle cx="546" cy="155" r="2"></circle><circle cx="557" cy="153" r="2"></circle><circle cx="568" cy="155" r="2"></circle><circle cx="579" cy="136" r="2"></circle><circle cx="591" cy="134" r="2"></circle><circle cx="602" cy="122" r="2"></circle><circle cx="613" cy="118" r="2"></circle><circle cx="625" cy="114" r="2"></circle><circle cx="636" cy="112" r="2"></circle><circle cx="647" cy="106" r="2"></circle><circle cx="658" cy="96" r="2"></circle><circle cx="670" cy="100" r="2"></circle><circle cx="681" cy="96" r="2"></circle><circle cx="692" cy="86" r="2"></circle><circle cx="704" cy="94" r="2"></circle></g></g><g class="key-Austria_0"><path stroke="#2a939b" stroke-linecap="round" d="M82 364L94 344L105 350L116 346L128 338L139 342L150 335L161 338L173 335L184 340L195 338L207 335L218 327L229 317L241 317L252 315L263 305L274 299L286 297L297 291L308 287L320 281L331 277L342 277L354 266L365 262L376 252L387 242L399 234L410 232L421 226L433 226L444 222L455 216L466 211L478 205L489 201L500 193L512 185L523 181L534 177L546 167L557 165L568 167L579 155L591 153L602 142L613 136L625 132L636 134L647 128L658 120L670 122L681 118L692 110L704 116" fill="none" stroke-width="1.5"></path><g fill="#2a939b"><circle cx="82" cy="364" r="2"></circle><circle cx="94" cy="344" r="2"></circle><circle cx="105" cy="350" r="2"></circle><circle cx="116" cy="346" r="2"></circle><circle cx="128" cy="338" r="2"></circle><circle cx="139" cy="342" r="2"></circle><circle cx="150" cy="335" r="2"></circle><circle cx="161" cy="338" r="2"></circle><circle cx="173" cy="335" r="2"></circle><circle cx="184" cy="340" r="2"></circle><circle cx="195" cy="338" r="2"></circle><circle cx="207" cy="335" r="2"></circle><circle cx="218" cy="327" r="2"></circle><circle cx="229" cy="317" r="2"></circle><circle cx="241" cy="317" r="2"></circle><circle cx="252" cy="315" r="2"></circle><circle cx="263" cy="305" r="2"></circle><circle cx="274" cy="299" r="2"></circle><circle cx="286" cy="297" r="2"></circle><circle cx="297" cy="291" r="2"></circle><circle cx="308" cy="287" r="2"></circle><circle cx="320" cy="281" r="2"></circle><circle cx="331" cy="277" r="2"></circle><circle cx="342" cy="277" r="2"></circle><circle cx="354" cy="266" r="2"></circle><circle cx="365" cy="262" r="2"></circle><circle cx="376" cy="252" r="2"></circle><circle cx="387" cy="242" r="2"></circle><circle cx="399" cy="234" r="2"></circle><circle cx="410" cy="232" r="2"></circle><circle cx="421" cy="226" r="2"></circle><circle cx="433" cy="226" r="2"></circle><circle cx="444" cy="222" r="2"></circle><circle cx="455" cy="216" r="2"></circle><circle cx="466" cy="211" r="2"></circle><circle cx="478" cy="205" r="2"></circle><circle cx="489" cy="201" r="2"></circle><circle cx="500" cy="193" r="2"></circle><circle cx="512" cy="185" r="2"></circle><circle cx="523" cy="181" r="2"></circle><circle cx="534" cy="177" r="2"></circle><circle cx="546" cy="167" r="2"></circle><circle cx="557" cy="165" r="2"></circle><circle cx="568" cy="167" r="2"></circle><circle cx="579" cy="155" r="2"></circle><circle cx="591" cy="153" r="2"></circle><circle cx="602" cy="142" r="2"></circle><circle cx="613" cy="136" r="2"></circle><circle cx="625" cy="132" r="2"></circle><circle cx="636" cy="134" r="2"></circle><circle cx="647" cy="128" r="2"></circle><circle cx="658" cy="120" r="2"></circle><circle cx="670" cy="122" r="2"></circle><circle cx="681" cy="118" r="2"></circle><circle cx="692" cy="110" r="2"></circle><circle cx="704" cy="116" r="2"></circle></g></g><g class="key-United-Kingdom_0"><path stroke="#34983f" stroke-linecap="round" d="M82 323L94 325L195 301L207 301L308 275L320 264L331 258L342 254L354 250L365 246L376 244L387 236L399 234L410 232L421 226L433 222L444 214L455 216L466 205L478 207L489 203L500 197L512 195L523 191L534 183L546 177L557 175L568 173L579 161L591 157L602 151L613 148L625 146L636 134L647 130L658 122L670 122L681 120L692 114L704 122" fill="none" stroke-width="1.5"></path><g fill="#34983f"><circle cx="82" cy="323" r="2"></circle><circle cx="94" cy="325" r="2"></circle><circle cx="195" cy="301" r="2"></circle><circle cx="207" cy="301" r="2"></circle><circle cx="308" cy="275" r="2"></circle><circle cx="320" cy="264" r="2"></circle><circle cx="331" cy="258" r="2"></circle><circle cx="342" cy="254" r="2"></circle><circle cx="354" cy="250" r="2"></circle><circle cx="365" cy="246" r="2"></circle><circle cx="376" cy="244" r="2"></circle><circle cx="387" cy="236" r="2"></circle><circle cx="399" cy="234" r="2"></circle><circle cx="410" cy="232" r="2"></circle><circle cx="421" cy="226" r="2"></circle><circle cx="433" cy="222" r="2"></circle><circle cx="444" cy="214" r="2"></circle><circle cx="455" cy="216" r="2"></circle><circle cx="466" cy="205" r="2"></circle><circle cx="478" cy="207" r="2"></circle><circle cx="489" cy="203" r="2"></circle><circle cx="500" cy="197" r="2"></circle><circle cx="512" cy="195" r="2"></circle><circle cx="523" cy="191" r="2"></circle><circle cx="534" cy="183" r="2"></circle><circle cx="546" cy="177" r="2"></circle><circle cx="557" cy="175" r="2"></circle><circle cx="568" cy="173" r="2"></circle><circle cx="579" cy="161" r="2"></circle><circle cx="591" cy="157" r="2"></circle><circle cx="602" cy="151" r="2"></circle><circle cx="613" cy="148" r="2"></circle><circle cx="625" cy="146" r="2"></circle><circle cx="636" cy="134" r="2"></circle><circle cx="647" cy="130" r="2"></circle><circle cx="658" cy="122" r="2"></circle><circle cx="670" cy="122" r="2"></circle><circle cx="681" cy="120" r="2"></circle><circle cx="692" cy="114" r="2"></circle><circle cx="704" cy="122" r="2"></circle></g></g><g class="key-Germany_0"><path stroke="#ca2628" stroke-linecap="round" d="M82 356L94 344L105 340L116 338L128 327L139 329L150 327L161 321L173 329L184 333L195 327L207 323L218 319L229 313L241 309L252 311L263 303L274 289L286 291L297 283L308 281L320 275L331 270L342 264L354 254L365 252L376 248L387 240L399 236L410 232L421 234L433 230L444 220L455 218L466 212L478 209L489 203L500 195L512 187L523 183L534 177L546 171L557 171L568 169L579 157L591 153L602 146L613 140L625 138L636 136L647 132L658 132L670 130L681 130L692 118L704 128" fill="none" stroke-width="1.5"></path><g fill="#ca2628"><circle cx="82" cy="356" r="2"></circle><circle cx="94" cy="344" r="2"></circle><circle cx="105" cy="340" r="2"></circle><circle cx="116" cy="338" r="2"></circle><circle cx="128" cy="327" r="2"></circle><circle cx="139" cy="329" r="2"></circle><circle cx="150" cy="327" r="2"></circle><circle cx="161" cy="321" r="2"></circle><circle cx="173" cy="329" r="2"></circle><circle cx="184" cy="333" r="2"></circle><circle cx="195" cy="327" r="2"></circle><circle cx="207" cy="323" r="2"></circle><circle cx="218" cy="319" r="2"></circle><circle cx="229" cy="313" r="2"></circle><circle cx="241" cy="309" r="2"></circle><circle cx="252" cy="311" r="2"></circle><circle cx="263" cy="303" r="2"></circle><circle cx="274" cy="289" r="2"></circle><circle cx="286" cy="291" r="2"></circle><circle cx="297" cy="283" r="2"></circle><circle cx="308" cy="281" r="2"></circle><circle cx="320" cy="275" r="2"></circle><circle cx="331" cy="270" r="2"></circle><circle cx="342" cy="264" r="2"></circle><circle cx="354" cy="254" r="2"></circle><circle cx="365" cy="252" r="2"></circle><circle cx="376" cy="248" r="2"></circle><circle cx="387" cy="240" r="2"></circle><circle cx="399" cy="236" r="2"></circle><circle cx="410" cy="232" r="2"></circle><circle cx="421" cy="234" r="2"></circle><circle cx="433" cy="230" r="2"></circle><circle cx="444" cy="220" r="2"></circle><circle cx="455" cy="218" r="2"></circle><circle cx="466" cy="212" r="2"></circle><circle cx="478" cy="209" r="2"></circle><circle cx="489" cy="203" r="2"></circle><circle cx="500" cy="195" r="2"></circle><circle cx="512" cy="187" r="2"></circle><circle cx="523" cy="183" r="2"></circle><circle cx="534" cy="177" r="2"></circle><circle cx="546" cy="171" r="2"></circle><circle cx="557" cy="171" r="2"></circle><circle cx="568" cy="169" r="2"></circle><circle cx="579" cy="157" r="2"></circle><circle cx="591" cy="153" r="2"></circle><circle cx="602" cy="146" r="2"></circle><circle cx="613" cy="140" r="2"></circle><circle cx="625" cy="138" r="2"></circle><circle cx="636" cy="136" r="2"></circle><circle cx="647" cy="132" r="2"></circle><circle cx="658" cy="132" r="2"></circle><circle cx="670" cy="130" r="2"></circle><circle cx="681" cy="130" r="2"></circle><circle cx="692" cy="118" r="2"></circle><circle cx="704" cy="128" r="2"></circle></g></g><g class="key-Switzerland_0"><path stroke="#9ecc8a" stroke-linecap="round" d="M82 311L94 303L105 313L116 313L128 295L139 293L150 289L161 283L173 285L184 285L195 277L207 274L218 264L229 258L241 252L252 244L263 242L274 232L286 232L297 226L308 226L320 222L331 216L342 216L354 203L365 201L376 199L387 191L399 191L410 187L421 191L433 185L444 181L455 173L466 169L478 167L489 159L500 155L512 149L523 146L534 144L546 134L557 130L568 130L579 118L591 114L602 108L613 102L625 98L636 96L647 90L658 86L670 86L681 85L692 77L704 83" fill="none" stroke-width="1.5"></path><g fill="#9ecc8a"><circle cx="82" cy="311" r="2"></circle><circle cx="94" cy="303" r="2"></circle><circle cx="105" cy="313" r="2"></circle><circle cx="116" cy="313" r="2"></circle><circle cx="128" cy="295" r="2"></circle><circle cx="139" cy="293" r="2"></circle><circle cx="150" cy="289" r="2"></circle><circle cx="161" cy="283" r="2"></circle><circle cx="173" cy="285" r="2"></circle><circle cx="184" cy="285" r="2"></circle><circle cx="195" cy="277" r="2"></circle><circle cx="207" cy="274" r="2"></circle><circle cx="218" cy="264" r="2"></circle><circle cx="229" cy="258" r="2"></circle><circle cx="241" cy="252" r="2"></circle><circle cx="252" cy="244" r="2"></circle><circle cx="263" cy="242" r="2"></circle><circle cx="274" cy="232" r="2"></circle><circle cx="286" cy="232" r="2"></circle><circle cx="297" cy="226" r="2"></circle><circle cx="308" cy="226" r="2"></circle><circle cx="320" cy="222" r="2"></circle><circle cx="331" cy="216" r="2"></circle><circle cx="342" cy="216" r="2"></circle><circle cx="354" cy="203" r="2"></circle><circle cx="365" cy="201" r="2"></circle><circle cx="376" cy="199" r="2"></circle><circle cx="387" cy="191" r="2"></circle><circle cx="399" cy="191" r="2"></circle><circle cx="410" cy="187" r="2"></circle><circle cx="421" cy="191" r="2"></circle><circle cx="433" cy="185" r="2"></circle><circle cx="444" cy="181" r="2"></circle><circle cx="455" cy="173" r="2"></circle><circle cx="466" cy="169" r="2"></circle><circle cx="478" cy="167" r="2"></circle><circle cx="489" cy="159" r="2"></circle><circle cx="500" cy="155" r="2"></circle><circle cx="512" cy="149" r="2"></circle><circle cx="523" cy="146" r="2"></circle><circle cx="534" cy="144" r="2"></circle><circle cx="546" cy="134" r="2"></circle><circle cx="557" cy="130" r="2"></circle><circle cx="568" cy="130" r="2"></circle><circle cx="579" cy="118" r="2"></circle><circle cx="591" cy="114" r="2"></circle><circle cx="602" cy="108" r="2"></circle><circle cx="613" cy="102" r="2"></circle><circle cx="625" cy="98" r="2"></circle><circle cx="636" cy="96" r="2"></circle><circle cx="647" cy="90" r="2"></circle><circle cx="658" cy="86" r="2"></circle><circle cx="670" cy="86" r="2"></circle><circle cx="681" cy="85" r="2"></circle><circle cx="692" cy="77" r="2"></circle><circle cx="704" cy="83" r="2"></circle></g></g><g class="key-Portugal_0"><path stroke="#a652ba" stroke-linecap="round" d="M82 459L94 482L105 455L116 443L128 439L139 421L150 433L161 417L173 409L184 419L195 403L207 409L218 370L229 388L241 376L252 370L263 358L274 337L286 329L297 313L308 311L320 305L331 289L342 291L354 285L365 279L376 272L387 264L399 264L410 252L421 258L433 258L444 246L455 248L466 230L478 232L489 234L500 224L512 220L523 214L534 203L546 197L557 193L568 191L579 173L591 177L602 161L613 157L625 151L636 148L647 142L658 130L670 132L681 126L692 118L704 118" fill="none" stroke-width="1.5"></path><g fill="#a652ba"><circle cx="82" cy="459" r="2"></circle><circle cx="94" cy="482" r="2"></circle><circle cx="105" cy="455" r="2"></circle><circle cx="116" cy="443" r="2"></circle><circle cx="128" cy="439" r="2"></circle><circle cx="139" cy="421" r="2"></circle><circle cx="150" cy="433" r="2"></circle><circle cx="161" cy="417" r="2"></circle><circle cx="173" cy="409" r="2"></circle><circle cx="184" cy="419" r="2"></circle><circle cx="195" cy="403" r="2"></circle><circle cx="207" cy="409" r="2"></circle><circle cx="218" cy="370" r="2"></circle><circle cx="229" cy="388" r="2"></circle><circle cx="241" cy="376" r="2"></circle><circle cx="252" cy="370" r="2"></circle><circle cx="263" cy="358" r="2"></circle><circle cx="274" cy="337" r="2"></circle><circle cx="286" cy="329" r="2"></circle><circle cx="297" cy="313" r="2"></circle><circle cx="308" cy="311" r="2"></circle><circle cx="320" cy="305" r="2"></circle><circle cx="331" cy="289" r="2"></circle><circle cx="342" cy="291" r="2"></circle><circle cx="354" cy="285" r="2"></circle><circle cx="365" cy="279" r="2"></circle><circle cx="376" cy="272" r="2"></circle><circle cx="387" cy="264" r="2"></circle><circle cx="399" cy="264" r="2"></circle><circle cx="410" cy="252" r="2"></circle><circle cx="421" cy="258" r="2"></circle><circle cx="433" cy="258" r="2"></circle><circle cx="444" cy="246" r="2"></circle><circle cx="455" cy="248" r="2"></circle><circle cx="466" cy="230" r="2"></circle><circle cx="478" cy="232" r="2"></circle><circle cx="489" cy="234" r="2"></circle><circle cx="500" cy="224" r="2"></circle><circle cx="512" cy="220" r="2"></circle><circle cx="523" cy="214" r="2"></circle><circle cx="534" cy="203" r="2"></circle><circle cx="546" cy="197" r="2"></circle><circle cx="557" cy="193" r="2"></circle><circle cx="568" cy="191" r="2"></circle><circle cx="579" cy="173" r="2"></circle><circle cx="591" cy="177" r="2"></circle><circle cx="602" cy="161" r="2"></circle><circle cx="613" cy="157" r="2"></circle><circle cx="625" cy="151" r="2"></circle><circle cx="636" cy="148" r="2"></circle><circle cx="647" cy="142" r="2"></circle><circle cx="658" cy="130" r="2"></circle><circle cx="670" cy="132" r="2"></circle><circle cx="681" cy="126" r="2"></circle><circle cx="692" cy="118" r="2"></circle><circle cx="704" cy="118" r="2"></circle></g></g><g class="key-United-States_0"><path stroke="#3360a9" stroke-linecap="round" d="M82 340L94 331L105 335L116 338L128 333L139 333L150 333L161 325L173 331L184 327L195 321L207 315L218 313L229 309L241 297L252 285L263 279L274 272L286 270L297 262L308 266L320 258L331 250L342 248L354 246L365 246L376 246L387 242L399 242L410 238L421 234L433 230L444 226L455 230L466 226L478 226L489 218L500 211L512 207L523 207L534 207L546 203L557 201L568 199L579 189L591 189L602 185L613 179L625 179L636 171L647 169L658 167L670 165L681 165L692 163L704 165" fill="none" stroke-width="1.5"></path><g fill="#3360a9"><circle cx="82" cy="340" r="2"></circle><circle cx="94" cy="331" r="2"></circle><circle cx="105" cy="335" r="2"></circle><circle cx="116" cy="338" r="2"></circle><circle cx="128" cy="333" r="2"></circle><circle cx="139" cy="333" r="2"></circle><circle cx="150" cy="333" r="2"></circle><circle cx="161" cy="325" r="2"></circle><circle cx="173" cy="331" r="2"></circle><circle cx="184" cy="327" r="2"></circle><circle cx="195" cy="321" r="2"></circle><circle cx="207" cy="315" r="2"></circle><circle cx="218" cy="313" r="2"></circle><circle cx="229" cy="309" r="2"></circle><circle cx="241" cy="297" r="2"></circle><circle cx="252" cy="285" r="2"></circle><circle cx="263" cy="279" r="2"></circle><circle cx="274" cy="272" r="2"></circle><circle cx="286" cy="270" r="2"></circle><circle cx="297" cy="262" r="2"></circle><circle cx="308" cy="266" r="2"></circle><circle cx="320" cy="258" r="2"></circle><circle cx="331" cy="250" r="2"></circle><circle cx="342" cy="248" r="2"></circle><circle cx="354" cy="246" r="2"></circle><circle cx="365" cy="246" r="2"></circle><circle cx="376" cy="246" r="2"></circle><circle cx="387" cy="242" r="2"></circle><circle cx="399" cy="242" r="2"></circle><circle cx="410" cy="238" r="2"></circle><circle cx="421" cy="234" r="2"></circle><circle cx="433" cy="230" r="2"></circle><circle cx="444" cy="226" r="2"></circle><circle cx="455" cy="230" r="2"></circle><circle cx="466" cy="226" r="2"></circle><circle cx="478" cy="226" r="2"></circle><circle cx="489" cy="218" r="2"></circle><circle cx="500" cy="211" r="2"></circle><circle cx="512" cy="207" r="2"></circle><circle cx="523" cy="207" r="2"></circle><circle cx="534" cy="207" r="2"></circle><circle cx="546" cy="203" r="2"></circle><circle cx="557" cy="201" r="2"></circle><circle cx="568" cy="199" r="2"></circle><circle cx="579" cy="189" r="2"></circle><circle cx="591" cy="189" r="2"></circle><circle cx="602" cy="185" r="2"></circle><circle cx="613" cy="179" r="2"></circle><circle cx="625" cy="179" r="2"></circle><circle cx="636" cy="171" r="2"></circle><circle cx="647" cy="169" r="2"></circle><circle cx="658" cy="167" r="2"></circle><circle cx="670" cy="165" r="2"></circle><circle cx="681" cy="165" r="2"></circle><circle cx="692" cy="163" r="2"></circle><circle cx="704" cy="165" r="2"></circle></g></g></g></g></g><g class="SourcesFooter" style="fill:#777"><g class="clickable" style="fill:#777"><text font-size="12.60" x="15.0" y="581.6"><tspan x="15" y="581.58">Source: OECD (2018)</tspan></text></g><text font-size="12.60" x="775.4" y="581.6"><tspan x="775.402" y="581.58"><a style="fill: #777;" class="cclogo" href="http://creativecommons.org/licenses/by-sa/4.0/deed.en_US" target="_blank">CC BY-SA</a></tspan></text></g></g></svg>