<svg xmlns="http://www.w3.org/2000/svg" version="1.1" style="font-family: 'Helvetica Neue', Helvetica, Arial, sans-serif; font-size: 18px; background-color: white; text-rendering: optimizeLegibility; -webkit-font-smoothing: antialiased;" width="850" height="600"><g class="ChartTab"><g class="HeaderView"><g opacity="0.8" transform="translate(770, 15) scale(0.31)"><a xmlns:xlink="http://www.w3.org/1999/xlink" xlink:href="https://ourworldindata.org" target="_blank"><g><rect x="0" y="0" fill="#1B2543" width="211.2" height="130.1"/><rect x="0" y="112.2" fill="#E63912" width="211.2" height="17.9"/><g><rect x="1.2" y="12.3" fill="none" width="210.2" height="99.2"/><path fill="#FFFFFF" d="M37.8,32.2c0,12.7-7.7,19.4-17.1,19.4c-9.7,0-16.6-7.5-16.6-18.7c0-11.7,7.3-19.3,17.1-19.3 C31.3,13.7,37.8,21.3,37.8,32.2z M9.2,32.8c0,7.9,4.3,14.9,11.8,14.9c7.5,0,11.8-6.9,11.8-15.3c0-7.3-3.8-14.9-11.8-14.9 C13.1,17.5,9.2,24.8,9.2,32.8z"/><path fill="#FFFFFF" d="M62.7,43.8c0,2.7,0.1,5.1,0.2,7.2h-4.3l-0.3-4.3h-0.1c-1.3,2.1-4,4.9-8.8,4.9c-4.2,0-9.1-2.3-9.1-11.6 V24.6h4.8v14.6c0,5,1.5,8.4,5.9,8.4c3.2,0,5.5-2.2,6.3-4.4c0.3-0.7,0.4-1.6,0.4-2.5V24.6h4.8V43.8z"/><path fill="#FFFFFF" d="M67.3,32.8c0-3.1-0.1-5.8-0.2-8.2h4.2l0.2,5.2h0.2c1.2-3.5,4.1-5.8,7.3-5.8c0.5,0,0.9,0.1,1.4,0.2v4.5 c-0.5-0.1-1-0.2-1.6-0.2c-3.4,0-5.8,2.6-6.5,6.2c-0.1,0.7-0.2,1.4-0.2,2.2V51h-4.8V32.8z"/><path fill="#FFFFFF" d="M95.4,51l-9.4-36.8h5l4.4,18.6c1.1,4.6,2.1,9.2,2.7,12.7h0.1c0.6-3.7,1.8-8,3-12.8l4.9-18.5h5l4.5,18.7 c1,4.4,2,8.7,2.6,12.6h0.1c0.8-4,1.8-8.1,3-12.7l4.9-18.5h4.9L120.6,51h-5L111,31.9c-1.1-4.7-1.9-8.3-2.4-12h-0.1 c-0.7,3.7-1.5,7.3-2.8,12L100.4,51H95.4z"/><path fill="#FFFFFF" d="M154.9,37.6c0,9.8-6.8,14-13.2,14c-7.2,0-12.7-5.2-12.7-13.6c0-8.8,5.8-14,13.1-14 C149.8,24,154.9,29.5,154.9,37.6z M133.9,37.9c0,5.8,3.3,10.1,8,10.1c4.6,0,8-4.3,8-10.3c0-4.5-2.2-10.1-7.9-10.1 C136.3,27.6,133.9,32.8,133.9,37.9z"/><path fill="#FFFFFF" d="M158.2,32.8c0-3.1-0.1-5.8-0.2-8.2h4.2l0.2,5.2h0.2c1.2-3.5,4.1-5.8,7.3-5.8c0.5,0,0.9,0.1,1.4,0.2v4.5 c-0.5-0.1-1-0.2-1.6-0.2c-3.4,0-5.8,2.6-6.5,6.2c-0.1,0.7-0.2,1.4-0.2,2.2V51h-4.8V32.8z"/><path fill="#FFFFFF" d="M173.5,12.3h4.8V51h-4.8V12.3z"/><path fill="#FFFFFF" d="M206.5,12.3v31.9c0,2.3,0.1,5,0.2,6.8h-4.3l-0.2-4.6H202c-1.5,2.9-4.7,5.2-9,5.2 c-6.4,0-11.3-5.4-11.3-13.4c-0.1-8.8,5.4-14.2,11.9-14.2c4,0,6.8,1.9,8,4h0.1V12.3H206.5z M201.7,35.4c0-0.6-0.1-1.4-0.2-2 c-0.7-3.1-3.3-5.6-6.9-5.6c-5,0-7.9,4.4-7.9,10.2c0,5.3,2.6,9.8,7.8,9.8c3.2,0,6.2-2.1,7.1-5.7c0.2-0.7,0.2-1.3,0.2-2.1V35.4z"/><path fill="#FFFFFF" d="M42.8,64c0.1,1.6-1.1,2.9-3.1,2.9c-1.7,0-2.9-1.3-2.9-2.9c0-1.7,1.3-3,3-3C41.7,61,42.8,62.3,42.8,64z M37.4,97.8V71.4h4.8v26.4H37.4z"/><path fill="#FFFFFF" d="M47.5,78.6c0-2.7-0.1-5-0.2-7.1h4.3l0.3,4.4h0.1c1.3-2.5,4.4-5,8.8-5c3.7,0,9.4,2.2,9.4,11.2v15.8h-4.8 V82.6c0-4.3-1.6-7.8-6.1-7.8c-3.2,0-5.6,2.2-6.5,4.9c-0.2,0.6-0.3,1.4-0.3,2.2v15.9h-4.8V78.6z"/><path fill="#FFFFFF" d="M84,61.6c2.9-0.4,6.3-0.8,10.1-0.8c6.8,0,11.7,1.6,14.9,4.6c3.3,3,5.2,7.3,5.2,13.2c0,6-1.9,10.9-5.3,14.3 c-3.4,3.4-9.1,5.3-16.3,5.3c-3.4,0-6.2-0.2-8.6-0.4V61.6z M88.8,94.1c1.2,0.2,3,0.3,4.8,0.3c10.2,0,15.7-5.7,15.7-15.6 c0.1-8.7-4.9-14.2-14.9-14.2c-2.5,0-4.3,0.2-5.6,0.5V94.1z"/><path fill="#FFFFFF" d="M132.1,97.8l-0.4-3.3h-0.2c-1.5,2.1-4.3,3.9-8.1,3.9c-5.4,0-8.1-3.8-8.1-7.6c0-6.4,5.7-9.9,15.9-9.8v-0.5 c0-2.2-0.6-6.1-6-6.1c-2.5,0-5,0.8-6.9,2l-1.1-3.2c2.2-1.4,5.4-2.3,8.7-2.3c8.1,0,10.1,5.5,10.1,10.8v9.9c0,2.3,0.1,4.5,0.4,6.3 H132.1z M131.4,84.4c-5.3-0.1-11.2,0.8-11.2,5.9c0,3.1,2.1,4.6,4.5,4.6c3.4,0,5.6-2.2,6.4-4.4c0.2-0.5,0.3-1,0.3-1.5V84.4z"/><path fill="#FFFFFF" d="M146.6,63.9v7.6h6.9v3.7h-6.9v14.2c0,3.3,0.9,5.1,3.6,5.1c1.3,0,2.2-0.2,2.8-0.3l0.2,3.6 c-0.9,0.4-2.4,0.7-4.3,0.7c-2.2,0-4-0.7-5.2-2c-1.4-1.4-1.9-3.8-1.9-6.9V75.1h-4.1v-3.7h4.1v-6.3L146.6,63.9z"/><path fill="#FFFFFF" d="M171.4,97.8l-0.4-3.3h-0.2c-1.5,2.1-4.3,3.9-8.1,3.9c-5.4,0-8.1-3.8-8.1-7.6c0-6.4,5.7-9.9,15.9-9.8v-0.5 c0-2.2-0.6-6.1-6-6.1c-2.5,0-5,0.8-6.9,2l-1.1-3.2c2.2-1.4,5.4-2.3,8.7-2.3c8.1,0,10.1,5.5,10.1,10.8v9.9c0,2.3,0.1,4.5,0.4,6.3 H171.4z M170.7,84.4c-5.3-0.1-11.2,0.8-11.2,5.9c0,3.1,2.1,4.6,4.5,4.6c3.4,0,5.6-2.2,6.4-4.4c0.2-0.5,0.3-1,0.3-1.5V84.4z"/></g></g></a></g><a href="https://ourworldindata.org/grapher/life-expectancy-vs-health-expenditure" target="_blank"><text font-size="27.00" x="15.0" y="36.6" fill="#555"><tspan x="15" y="36.6">Life expectancy vs. health expenditure, 1970 to 2015</tspan></text></a><text font-size="14.40" x="15.0" y="55.5" fill="#666"><tspan x="15" y="55.519999999999996">Health financing is reported as the annual per capita health expenditure and is adjusted for inflation and price level</tspan><tspan x="15" y="71.36">differences between countries (measured in 2010 international dollars).</tspan></text></g><g><g class="AxisBoxView"><g class="HorizontalAxis"><text font-size="12.60" x="276.0" y="539.4"><tspan x="276.044" y="539.38">Health expenditure (2010 int.-$)</tspan></text><text x="237.9" y="519.3" fill="#666" text-anchor="middle" font-size="16.2">$2,000</text><text x="380" y="519.3" fill="#666" text-anchor="middle" font-size="16.2">$4,000</text><text x="522.1" y="519.3" fill="#666" text-anchor="middle" font-size="16.2">$6,000</text><text x="664.2" y="519.3" fill="#666" text-anchor="middle" font-size="16.2">$8,000</text></g><g class="VerticalAxis"><text font-size="12.60" x="-419.8" y="25.1" transform="rotate(-90)"><tspan x="-419.83399999999995" y="25.080000000000002">Life expectancy at birth, total (years)</tspan></text><text x="99.97" y="463.1" fill="#666" dominant-baseline="middle" text-anchor="end" font-size="16.2">55 years</text><text x="99.97" y="399.1" fill="#666" dominant-baseline="middle" text-anchor="end" font-size="16.2">60 years</text><text x="99.97" y="335.1" fill="#666" dominant-baseline="middle" text-anchor="end" font-size="16.2">65 years</text><text x="99.97" y="271.1" fill="#666" dominant-baseline="middle" text-anchor="end" font-size="16.2">70 years</text><text x="99.97" y="207.1" fill="#666" dominant-baseline="middle" text-anchor="end" font-size="16.2">75 years</text><text x="99.97" y="143.1" fill="#666" dominant-baseline="middle" text-anchor="end" font-size="16.2">80 years</text></g><g class="AxisGridLines"><line x1="104.97" y1="463.1" x2="715.00" y2="463.1" stroke="#ddd" stroke-dasharray="3,2"></line><line x1="104.97" y1="399.1" x2="715.00" y2="399.1" stroke="#ddd" stroke-dasharray="3,2"></line><line x1="104.97" y1="335.1" x2="715.00" y2="335.1" stroke="#ddd" stroke-dasharray="3,2"></line><line x1="104.97" y1="271.1" x2="715.00" y2="271.1" stroke="#ddd" stroke-dasharray="3,2"></line><line x1="104.97" y1="207.1" x2="715.00" y2="207.1" stroke="#ddd" stroke-dasharray="3,2"></line><line x1="104.97" y1="143.1" x2="715.00" y2="143.1" stroke="#ddd" stroke-dasharray="3,2"></line></g><g class="AxisGridLines"><line x1="237.9" y1="498.10" x2="237.9" y2="93.90" stroke="#ddd" stroke-dasharray="3,2"></line><line x1="380" y1="498.10" x2="380" y2="93.90" stroke="#ddd" stroke-dasharray="3,2"></line><line x1="522.1" y1="498.10" x2="522.1" y2="93.90" stroke="#ddd" stroke-dasharray="3,2"></line><line x1="664.2" y1="498.10" x2="664.2" y2="93.90" stroke="#ddd" stroke-dasharray="3,2"></line></g></g><g clip-path="url(#scatterBounds-1)" class="PointsWithLabels clickable"><rect x="104.97" y="93.9" width="610.03" height="404.2" fill="rgba(255,255,255,0)"></rect><defs><clipPath id="scatterBounds-1"><rect x="94.97" y="83.9" width="630.03" height="424.2"></rect></clipPath></defs><g class="key-United-States_0"><circle cx="199" cy="260" r="1.9064890020925043" fill="#4d824b" stroke="#ccc" opacity="0.6"></circle><polyline stroke-linecap="round" stroke="#4d824b" points="199,260 203,256 210,256 215,253 219,246 224,237 234,234 244,229 250,228 256,222 263,224 272,219 281,215 290,214 302,212 313,212 323,212 334,210 352,210 368,206 386,204 399,202 413,199 424,201 431,199 439,199 447,193 455,188 468,186 481,186 496,186 517,183 546,182 571,181 587,175 599,175 612,172 625,168 633,168 648,163 659,161 664,160 671,159 675,159 692,159 715,159" fill="none" stroke-width="1.415077572595482" opacity="0.6"></polyline><polygon points="712.8849224274045,164.88492242740452 715,156.88492242740452 717.1150775725955,161.11507757259548" transform="rotate(90.0000007648485, 715, 159)" cx="715" cy="159" r="2.115077572595482" fill="#4d824b" stroke="#ccc" stroke-width="0.2" opacity="0.6"></polygon></g><g class="key-Japan_0"><circle cx="140" cy="246" r="1.6424425102515516" fill="#d14e5b" stroke="#ccc" opacity="0.6"></circle><polyline stroke-linecap="round" stroke="#d14e5b" points="140,246 142,234 147,226 149,223 152,214 159,206 161,201 165,195 171,193 176,190 183,193 187,189 192,182 196,182 196,176 203,173 205,167 209,162 211,163 212,158 215,158 219,154 225,153 231,152 238,147 235,149 235,140 243,137 246,136 253,135 261,129 266,125 269,123 275,120 280,117 287,118 290,113 296,111 302,110 311,105 323,106 360,109 369,103 376,100 377,97 375,93" fill="none" stroke-width="1.0072980031924086" opacity="0.6"></polyline><polygon points="373.2927019968076,99.2927019968076 375,91.2927019968076 376.7072980031924,94.7072980031924" transform="rotate(-26.565051402836207, 375, 93)" cx="375" cy="93" r="1.7072980031924088" fill="#d14e5b" stroke="#ccc" stroke-width="0.2" opacity="0.6"></polygon></g><g class="key-Mexico_0"><circle cx="131" cy="260" r="1.5811117230678482" fill="#4d824b" stroke="#ccc" opacity="0.6"></circle><polyline stroke-linecap="round" stroke="#4d824b" points="131,260 135,255 139,250 140,245 142,240 137,236 135,231 138,227 140,223 142,219 144,216 148,213 149,210 154,207 157,205 157,203 157,201 159,199 159,197 159,195 160,193 159,191 163,189 164,187 161,185 163,182" fill="none" stroke-width="0.9826264553416333" opacity="0.6"></polyline><polygon points="161.31737354465838,188.31737354465838 163,180.31737354465838 164.68262645534165,183.68262645534165" transform="rotate(33.690067812288646, 163, 182)" cx="163" cy="182" r="1.6826264553416332" fill="#4d824b" stroke="#ccc" stroke-width="0.2" opacity="0.6"></polygon></g><g class="key-Germany_0"><circle cx="182" cy="262" r="1.560317291480057" fill="#ffd336" stroke="#ccc" opacity="0.6"></circle><polyline stroke-linecap="round" stroke="#ffd336" points="182,262 192,261 201,260 210,258 220,255 231,253 239,250 242,247 248,243 252,240 257,236 264,233 260,229 263,226 271,222 279,219 280,215 285,212 295,209 286,207 292,204 302,196 298,195 308,190 317,188 326,185 327,180 332,175 338,172 347,169 351,164 357,165 361,163 359,160 364,156 371,154 376,149 385,146 396,145 405,143 408,137 416,136 421,136 428,129 434,129" fill="none" stroke-width="0.8727243559712088" opacity="0.6"></polyline><polygon points="432.4272756440288,135.42727564402878 434,127.4272756440288 435.5727243559712,130.57272435597122" transform="rotate(90.0000007648485, 434, 129)" cx="434" cy="129" r="1.572724355971209" fill="#ffd336" stroke="#ccc" stroke-width="0.2" opacity="0.6"></polygon></g><g class="key-Turkey_0"><circle cx="107" cy="498" r="1.3857439383873322" fill="#d14e5b" stroke="#ccc" opacity="0.6"></circle><polyline stroke-linecap="round" stroke="#d14e5b" points="107,498 105,449 107,441 109,432 109,424 108,415 110,407 108,399 108,392 108,384 105,377 107,370 108,363 110,356 111,350 113,344 115,337 116,331 117,324 115,317 114,309 118,302 121,294 126,286 132,278 136,271 137,264 140,257 142,250 145,245 149,239 154,234 158,230 157,226 157,222 156,218 157,215 156,211 160,208 161,205 165,201" fill="none" stroke-width="0.8505334918292047" opacity="0.6"></polyline><polygon points="163.4494665081708,207.4494665081708 165,199.4494665081708 166.55053349182919,202.55053349182919" transform="rotate(45.000000382424254, 165, 201)" cx="165" cy="201" r="1.5505334918292046" fill="#d14e5b" stroke="#ccc" stroke-width="0.2" opacity="0.6"></polygon></g><g class="key-France_0"><circle cx="161" cy="249" r="1.4560324439129038" fill="#ffd336" stroke="#ccc" opacity="0.6"></circle><polyline stroke-linecap="round" stroke="#ffd336" points="161,249 185,234 209,219 232,203 259,186 264,183 271,180 277,177 281,173 306,171 308,169 310,164 314,160 321,159 326,155 332,153 341,152 342,154 350,141 353,141 354,132 357,128 359,127 368,125 370,121 374,116 375,117 379,114 382,108 382,108" fill="none" stroke-width="0.8082499342953244" opacity="0.6"></polyline><polygon points="380.49175006570465,114.49175006570468 382,106.49175006570468 383.5082499342953,109.50824993429532" transform="rotate(90.0000007648485, 382, 108)" cx="382" cy="108" r="1.5082499342953244" fill="#ffd336" stroke="#ccc" stroke-width="0.2" opacity="0.6"></polygon></g><g class="key-United-Kingdom_0"><circle cx="142" cy="245" r="1.476284429620324" fill="#ffd336" stroke="#ccc" opacity="0.6"></circle><polyline stroke-linecap="round" stroke="#ffd336" points="142,245 144,242 147,243 149,241 156,238 159,236 161,235 161,229 163,230 165,229 168,224 170,219 169,217 175,215 176,209 177,211 180,208 185,203 188,202 190,199 191,195 197,193 205,188 209,189 215,183 217,183 219,180 220,178 226,179 235,176 241,172 252,168 261,166 272,163 280,159 288,155 295,152 301,150 305,148 315,142 311,137 313,130 316,131 356,130 360,126 362,122" fill="none" stroke-width="0.8059407800370038" opacity="0.6"></polyline><polygon points="360.494059219963,128.494059219963 362,120.49405921996299 363.505940780037,123.505940780037" transform="rotate(26.565051402836207, 362, 122)" cx="362" cy="122" r="1.5059407800370037" fill="#ffd336" stroke="#ccc" stroke-width="0.2" opacity="0.6"></polygon></g><g class="key-Italy_0"><circle cx="230" cy="189" r="1.4810485476128323" fill="#ffd336" stroke="#ccc" opacity="0.6"></circle><polyline stroke-linecap="round" stroke="#ffd336" points="230,189 234,183 244,181 251,181 250,176 248,172 248,169 251,166 255,162 264,158 267,156 271,150 284,145 292,141 295,140 294,143 304,133 310,133 316,126 310,124 317,124 314,122 316,117 314,115 308,114 300,108 304,103 305,98" fill="none" stroke-width="0.7978887356935569" opacity="0.6"></polyline><polygon points="303.50211126430645,104.50211126430645 305,96.50211126430645 306.49788873569355,99.49788873569356" transform="rotate(11.309932570135583, 305, 98)" cx="305" cy="98" r="1.4978887356935568" fill="#ffd336" stroke="#ccc" stroke-width="0.2" opacity="0.6"></polygon></g><g class="key-Spain_0"><circle cx="127" cy="245" r="1.3772670591284344" fill="#ffd336" stroke="#ccc" opacity="0.6"></circle><polyline stroke-linecap="round" stroke="#ffd336" points="127,245 133,250 138,235 140,237 146,233 148,228 155,224 159,218 160,216 158,209 160,202 161,200 163,192 166,195 164,190 164,191 166,187 170,185 183,184 189,183 198,183 204,181 211,176 214,174 216,170 221,168 225,167 227,161 231,160 237,159 241,156 244,151 246,148 265,148 269,144 274,140 280,132 286,131 296,128 303,124 303,122 302,111 296,112 291,103 296,101 301,99" fill="none" stroke-width="0.73997335600995" opacity="0.6"></polyline><polygon points="299.56002664399006,105.56002664399006 301,97.56002664399006 302.43997335600994,100.43997335600996" transform="rotate(68.19859109322141, 301, 99)" cx="301" cy="99" r="1.43997335600995" fill="#ffd336" stroke="#ccc" stroke-width="0.2" opacity="0.6"></polygon></g><g class="key-Poland_0"><circle cx="126" cy="259" r="1.3985254898285475" fill="#ffd336" stroke="#ccc" opacity="0.6"></circle><polyline stroke-linecap="round" stroke="#ffd336" points="126,259 126,263 129,257 131,250 131,249 133,246 138,242 140,237 141,232 147,232 149,223 153,217 159,213 160,212 162,209 164,207 168,205 174,204 185,200 190,198 191,191 192,185 193,184 199,181 202,173 204,166" fill="none" stroke-width="0.6998606380276153" opacity="0.6"></polyline><polygon points="202.6001393619724,172.6001393619724 204,164.6001393619724 205.39986063802763,167.39986063802763" transform="rotate(15.94539603643188, 204, 166)" cx="204" cy="166" r="1.3998606380276153" fill="#ffd336" stroke="#ccc" stroke-width="0.2" opacity="0.6"></polygon></g><g class="key-Canada_0"><circle cx="187" cy="236" r="1.3092444156994427" fill="#4d824b" stroke="#ccc" opacity="0.6"></circle><polyline stroke-linecap="round" stroke="#4d824b" points="187,236 194,232 197,233 197,230 198,229 206,226 211,221 213,217 216,213 217,208 221,206 228,201 236,198 241,193 246,190 252,190 259,188 262,184 267,183 273,180 280,176 288,174 293,177 293,172 292,170 289,169 285,165 291,162 302,160 306,157 313,152 324,149 335,148 341,145 348,141 353,139 361,139 367,136 372,134 391,131 397,127 394,124 395,123 396,120 394,118 400,115" fill="none" stroke-width="0.6833783744753441" opacity="0.6"></polyline><polygon points="398.61662162552466,121.61662162552466 400,113.61662162552466 401.38337837447534,116.38337837447534" transform="rotate(63.43494936201229, 400, 115)" cx="400" cy="115" r="1.383378374475344" fill="#4d824b" stroke="#ccc" stroke-width="0.2" opacity="0.6"></polygon></g><g class="key-Australia_0"><circle cx="165" cy="258" r="1.2467187356751377" fill="#a652ba" stroke="#ccc" opacity="0.6"></circle><polyline stroke-linecap="round" stroke="#a652ba" points="165,258 166,252 167,247 176,242 188,237 190,232 195,228 196,224 196,219 198,215 200,211 200,208 202,205 206,202 210,199 215,195 217,192 219,188 222,185 227,181 232,178 237,176 242,170 247,170 252,170 259,167 265,162 276,160 283,156 292,152 299,147 308,143 315,140 326,136 326,132 331,129 338,126 344,125 353,123 352,121 361,118 368,116 373,115 380,113 391,111" fill="none" stroke-width="0.6184680989260177" opacity="0.6"></polyline><polygon points="389.681531901074,117.68153190107398 391,109.68153190107398 392.318468098926,112.31846809892602" transform="rotate(79.69515420850863, 391, 111)" cx="391" cy="111" r="1.3184680989260178" fill="#a652ba" stroke="#ccc" stroke-width="0.2" opacity="0.6"></polygon></g><g class="key-Chile_0"><circle cx="132" cy="209" r="1.2595600501507436" fill="#69c487" stroke="#ccc" opacity="0.6"></circle><polyline stroke-linecap="round" stroke="#69c487" points="132,209 136,204 138,198 141,193 141,188 143,183 145,178 147,174 156,169 159,165 163,160 165,156 170,151 172,147 177,143 182,139 186,135 192,131 199,127 206,123 209,120" fill="none" stroke-width="0.5821557773728545" opacity="0.6"></polyline><polygon points="207.71784422262715,126.71784422262715 209,118.71784422262715 210.28215577737285,121.28215577737286" transform="rotate(45.00000038242425, 209, 120)" cx="209" cy="120" r="1.2821557773728545" fill="#69c487" stroke="#ccc" stroke-width="0.2" opacity="0.6"></polygon></g><g class="key-Netherlands_0"><circle cx="185" cy="225" r="1.24851792890035" fill="#ffd336" stroke="#ccc" opacity="0.6"></circle><polyline stroke-linecap="round" stroke="#ffd336" points="185,225 190,218 197,213 202,213 205,211 208,204 212,205 217,199 221,197 221,195 223,194 225,192 223,191 225,190 230,190 234,185 236,182 245,184 254,183 261,181 267,178 270,182 272,176 274,176 278,175 280,171 289,170 298,170 301,168 315,166 329,164 343,162 350,154 381,151 388,147 398,141 409,139 419,136 427,134 433,127 440,129 440,126 442,121 442,121" fill="none" stroke-width="0.5765285483005695" opacity="0.6"></polyline><polygon points="440.7234714516994,127.72347145169942 442,119.72347145169942 443.2765285483006,122.27652854830056" transform="rotate(90.0000007648485, 442, 121)" cx="442" cy="121" r="1.2765285483005697" fill="#ffd336" stroke="#ccc" stroke-width="0.2" opacity="0.6"></polygon></g><g class="key-Greece_0"><circle cx="175" cy="195" r="1.2247056176791837" fill="#ffd336" stroke="#ccc" opacity="0.6"></circle><polyline stroke-linecap="round" stroke="#ffd336" points="175,195 185,185 185,182 185,179 193,176 203,176 215,173 217,174 218,172 220,166 222,170 229,168 224,170 243,163 253,160 261,157 263,155 286,152 295,150 304,150 318,143 308,140 298,138 273,133 252,135 244,126 238,124 237,122" fill="none" stroke-width="0.5364520043534609" opacity="0.6"></polyline><polygon points="235.76354799564655,128.76354799564655 237,120.76354799564653 238.23645200435348,123.23645200435345" transform="rotate(-26.565051402836207, 237, 122)" cx="237" cy="122" r="1.2364520043534608" fill="#ffd336" stroke="#ccc" stroke-width="0.2" opacity="0.6"></polygon></g><g class="key-Belgium_0"><circle cx="144" cy="258" r="1.221060804418872" fill="#ffd336" stroke="#ccc" opacity="0.6"></circle><polyline stroke-linecap="round" stroke="#ffd336" points="144,258 147,257 151,253 159,250 162,245 177,245 185,243 193,235 199,236 201,230 201,230 208,224 213,221 216,221 216,214 219,213 225,210 229,202 235,199 239,199 243,193 252,191 258,189 258,189 259,185 261,183 270,179 272,176 278,175 289,173 296,172 301,169 308,167 330,167 338,157 340,156 342,151 349,145 360,147 372,143 373,140 379,135 380,138 384,135 386,126 388,126" fill="none" stroke-width="0.5312417376572096" opacity="0.6"></polyline><polygon points="386.76875826234277,132.76875826234277 388,124.76875826234279 389.2312417376572,127.2312417376572" transform="rotate(90.0000007648485, 388, 126)" cx="388" cy="126" r="1.2312417376572096" fill="#ffd336" stroke="#ccc" stroke-width="0.2" opacity="0.6"></polygon></g><g class="key-Portugal_0"><circle cx="112" cy="308" r="1.2126733203120899" fill="#ffd336" stroke="#ccc" opacity="0.6"></circle><polyline stroke-linecap="round" stroke="#ffd336" points="112,308 115,312 121,292 126,302 128,296 137,292 137,285 134,270 136,267 137,256 146,255 149,250 150,240 147,242 147,238 153,235 161,229 164,224 172,223 171,216 173,220 185,219 188,215 190,213 190,208 206,203 213,203 217,201 222,198 230,194 248,190 251,183 254,180 258,178 268,172 272,167 268,163 271,164 277,162 281,159 283,155 275,137 265,138 259,133 260,128 260,123" fill="none" stroke-width="0.5303111156293905" opacity="0.6"></polyline><polygon points="258.7696888843706,129.76968888437062 260,121.76968888437061 261.2303111156294,124.23031111562939" transform="rotate(0, 260, 123)" cx="260" cy="123" r="1.2303111156293904" fill="#ffd336" stroke="#ccc" stroke-width="0.2" opacity="0.6"></polygon></g><g class="key-Czech-Republic_0"><circle cx="146" cy="253" r="1.2269123890728724" fill="#ffd336" stroke="#ccc" opacity="0.6"></circle><polyline stroke-linecap="round" stroke="#ffd336" points="146,253 142,246 143,242 160,235 163,233 171,231 172,223 172,222 172,213 175,211 178,207 183,204 189,204 198,204 201,197 207,195 211,187 213,185 222,181 233,180 229,176 232,170 232,167 245,166 245,158 249,149" fill="none" stroke-width="0.5293458360084213" opacity="0.6"></polyline><polygon points="247.77065416399157,155.77065416399157 249,147.77065416399157 250.2293458360084,150.2293458360084" transform="rotate(23.962489178218984, 249, 149)" cx="249" cy="149" r="1.2293458360084213" fill="#ffd336" stroke="#ccc" stroke-width="0.2" opacity="0.6"></polygon></g><g class="key-Hungary_0"><circle cx="161" cy="279" r="1.2274070749362815" fill="#ffd336" stroke="#ccc" opacity="0.6"></circle><polyline stroke-linecap="round" stroke="#ffd336" points="161,279 164,282 165,282 172,277 166,273 165,266 164,262 171,263 176,262 179,255 183,242 191,241 209,241 210,237 219,237 221,231 212,230 211,223 206,221 211,217 214,208 211,206 211,199 213,197 214,194" fill="none" stroke-width="0.5237464292061764" opacity="0.6"></polyline><polygon points="212.7762535707938,200.7762535707938 214,192.7762535707938 215.22374642920616,195.22374642920616" transform="rotate(18.43494897958805, 214, 194)" cx="214" cy="194" r="1.2237464292061764" fill="#ffd336" stroke="#ccc" stroke-width="0.2" opacity="0.6"></polygon></g><g class="key-Sweden_0"><circle cx="178" cy="211" r="1.206759298160311" fill="#ffd336" stroke="#ccc" opacity="0.6"></circle><polyline stroke-linecap="round" stroke="#ffd336" points="178,211 185,211 189,210 192,208 198,207 205,207 211,207 221,202 224,201 227,200 234,197 236,194 240,190 241,187 243,183 238,185 237,182 243,180 244,181 249,172 250,174 247,173 251,168 251,167 248,160 252,159 258,156 259,153 268,151 276,150 284,147 303,145 315,145 322,141 325,136 331,136 337,133 341,131 345,129 348,125 347,124 418,120 423,121 429,118 435,114 444,110" fill="none" stroke-width="0.5203679355302537" opacity="0.6"></polyline><polygon points="442.77963206446975,116.77963206446975 444,108.77963206446975 445.22036793553025,111.22036793553026" transform="rotate(66.03751158662949, 444, 110)" cx="444" cy="110" r="1.2203679355302537" fill="#ffd336" stroke="#ccc" stroke-width="0.2" opacity="0.6"></polygon></g><g class="key-Austria_0"><circle cx="156" cy="272" r="1.2012913122004492" fill="#ffd336" stroke="#ccc" opacity="0.6"></circle><polyline stroke-linecap="round" stroke="#ffd336" points="156,272 158,269 161,265 165,258 171,258 192,256 201,251 205,246 209,245 215,241 219,239 201,235 202,233 203,232 204,224 209,222 213,215 221,210 224,204 232,203 262,199 268,199 276,196 287,193 300,188 303,185 307,183 314,177 326,172 337,170 342,167 346,161 353,160 358,160 365,153 367,151 372,144 381,140 389,137 392,138 396,135 398,130 405,131 405,128 407,124 412,119" fill="none" stroke-width="0.5104525287786503" opacity="0.6"></polyline><polygon points="410.78954747122134,125.78954747122135 412,117.78954747122135 413.21045252877866,120.21045252877866" transform="rotate(45.000000382424254, 412, 119)" cx="412" cy="119" r="1.2104525287786503" fill="#ffd336" stroke="#ccc" stroke-width="0.2" opacity="0.6"></polygon></g><g class="key-Israel_0"><circle cx="144" cy="255" r="1.1505486336729729" fill="#d14e5b" stroke="#ccc" opacity="0.6"></circle><polyline stroke-linecap="round" stroke="#d14e5b" points="144,255 150,233 157,233 165,230 173,226 174,221 174,216 175,218 182,214 199,209 175,204 171,207 176,203 180,214 186,190 184,186 181,184 188,187 192,179 204,176 205,175 210,167 214,168 215,166 211,160 218,156 223,150 219,150 218,147 221,141 225,141 227,136 232,136 235,130 235,125 239,122 243,121 247,121 256,116 260,115 258,116" fill="none" stroke-width="0.5046538396269464" opacity="0.6"></polyline><polygon points="256.7953461603731,122.79534616037306 258,114.79534616037306 259.204653839627,117.20465383962696" transform="rotate(-116.56505216768471, 258, 116)" cx="258" cy="116" r="1.2046538396269464" fill="#d14e5b" stroke="#ccc" stroke-width="0.2" opacity="0.6"></polygon></g><g class="key-Switzerland_0"><circle cx="214" cy="232" r="1.1884224715236067" fill="#ffd336" stroke="#ccc" opacity="0.6"></circle><polyline stroke-linecap="round" stroke="#ffd336" points="214,232 224,231 226,224 231,220 242,216 250,211 254,209 258,204 259,204 265,201 273,201 277,198 277,193 287,193 286,186 292,184 299,182 307,179 314,178 322,176 326,178 340,174 348,171 348,167 351,164 362,163 373,157 378,154 390,151 397,148 404,147 418,140 430,138 437,136 445,129 448,127 444,124 449,120 458,117 467,116 477,114 485,108 499,108 509,107 520,102 526,102" fill="none" stroke-width="0.5041141797209735" opacity="0.6"></polyline><polygon points="524.7958858202791,108.79588582027903 526,100.79588582027903 527.204114179721,103.20411417972097" transform="rotate(90.0000007648485, 526, 102)" cx="526" cy="102" r="1.2041141797209736" fill="#ffd336" stroke="#ccc" stroke-width="0.2" opacity="0.6"></polygon></g><g class="key-Denmark_0"><circle cx="220" cy="228" r="1.1752308321630094" fill="#ffd336" stroke="#ccc" opacity="0.6"></circle><polyline stroke-linecap="round" stroke="#ffd336" points="220,228 226,227 226,223 236,222 238,218 244,223 243,211 248,214 256,217 254,218 256,216 263,212 264,214 261,212 268,214 270,212 278,211 281,210 279,209 280,209 280,205 283,204 291,205 295,202 292,204 299,199 302,195 300,192 328,189 329,186 340,184 348,182 354,179 363,175 371,170 383,167 389,166 392,163 410,161 406,154 402,145 402,142 401,139 410,134 414,129" fill="none" stroke-width="0.48260687254553203" opacity="0.6"></polyline><polygon points="412.81739312745447,135.81739312745447 414,127.81739312745447 415.18260687254553,130.18260687254553" transform="rotate(38.659808582633374, 414, 129)" cx="414" cy="129" r="1.182606872545532" fill="#ffd336" stroke="#ccc" stroke-width="0.2" opacity="0.6"></polygon></g><g class="key-Finland_0"><circle cx="149" cy="268" r="1.1716327934805975" fill="#ffd336" stroke="#ccc" opacity="0.6"></circle><polyline stroke-linecap="round" stroke="#ffd336" points="149,268 154,270 159,262 161,255 162,256 169,249 174,247 177,241 178,234 181,230 185,227 187,223 191,216 195,217 198,213 208,217 213,212 219,212 221,212 228,209 238,209 249,204 247,201 233,198 228,189 234,189 241,185 243,183 243,180 249,177 259,175 266,169 278,167 289,164 300,159 310,158 318,153 323,152 331,148 331,146 337,144 344,137 349,135 351,130 349,128 353,125" fill="none" stroke-width="0.4805577247636781" opacity="0.6"></polyline><polygon points="351.8194422752363,131.81944227523633 353,123.81944227523633 354.1805577247637,126.18055772476369" transform="rotate(53.130102805672415, 353, 125)" cx="353" cy="125" r="1.180557724763678" fill="#ffd336" stroke="#ccc" stroke-width="0.2" opacity="0.6"></polygon></g><g class="key-Norway_0"><circle cx="155" cy="218" r="1.163217585375496" fill="#ffd336" stroke="#ccc" opacity="0.6"></circle><polyline stroke-linecap="round" stroke="#ffd336" points="155,218 163,217 171,215 177,214 180,210 189,209 195,206 202,202 216,201 213,201 219,198 222,196 226,194 234,193 233,191 239,195 243,191 247,193 246,191 245,187 274,187 284,181 290,179 292,179 294,172 299,172 311,166 339,166 354,164 367,165 380,160 389,158 415,156 425,150 432,145 438,142 440,138 448,138 461,135 469,132 468,130 478,126 486,124 490,120 502,116 516,116" fill="none" stroke-width="0.4759278915282019" opacity="0.6"></polyline><polygon points="514.8240721084718,122.8240721084718 516,114.8240721084718 517.1759278915282,117.1759278915282" transform="rotate(90.0000007648485, 516, 116)" cx="516" cy="116" r="1.1759278915282019" fill="#ffd336" stroke="#ccc" stroke-width="0.2" opacity="0.6"></polygon></g><g class="key-Ireland_0"><circle cx="133" cy="258" r="1.1519992937323953" fill="#ffd336" stroke="#ccc" opacity="0.6"></circle><polyline stroke-linecap="round" stroke="#ffd336" points="133,258 141,257 144,256 146,254 152,253 155,251 153,249 154,246 161,244 166,241 175,238 172,235 171,232 171,229 172,227 174,224 173,221 173,219 173,216 173,213 177,210 185,207 192,205 194,203 198,201 204,199 210,196 220,194 225,192 236,193 257,187 278,179 294,173 308,166 320,161 343,156 347,152 364,147 396,141 419,140 421,133 406,133 413,132 428,130 432,125 431,123" fill="none" stroke-width="0.4719186445288507" opacity="0.6"></polyline><polygon points="429.82808135547117,129.82808135547117 431,121.82808135547116 432.1719186445289,124.17191864452886" transform="rotate(-26.565051402836207, 431, 123)" cx="431" cy="123" r="1.1719186445288508" fill="#ffd336" stroke="#ccc" stroke-width="0.2" opacity="0.6"></polygon></g><g class="key-New-Zealand_0"><circle cx="164" cy="254" r="1.1501636212904442" fill="#a652ba" stroke="#ccc" opacity="0.6"></circle><polyline stroke-linecap="round" stroke="#a652ba" points="164,254 164,248 167,247 174,249 187,246 191,242 184,240 184,243 191,232 186,231 179,234 181,224 183,223 183,222 182,215 176,222 179,218 184,217 194,214 197,209 203,202 204,193 207,192 208,188 212,183 216,184 217,184 223,177 230,167 234,170 238,160 245,159 256,157 256,154 263,148 275,145 285,142 283,141 297,138 311,134 310,134 312,131 319,128 315,125 318,125 322,124" fill="none" stroke-width="0.4705270115487266" opacity="0.6"></polyline><polygon points="320.8294729884513,130.82947298845127 322,122.82947298845127 323.17052701154876,125.17052701154873" transform="rotate(75.96375717763759, 322, 124)" cx="322" cy="124" r="1.1705270115487267" fill="#a652ba" stroke="#ccc" stroke-width="0.2" opacity="0.6"></polygon></g><g class="key-Latvia_0"><circle cx="125" cy="317" r="1.1458853537271172" fill="#ffd336" stroke="#ccc" opacity="0.6"></circle><polyline stroke-linecap="round" stroke="#ffd336" points="125,317 129,286 133,279 136,283 140,274 140,267 145,261 149,258 152,254 161,245 165,253 172,260 181,258 177,240 173,231 171,226 170,225 172,222 175,220 179,218 183,218" fill="none" stroke-width="0.44231812889477895" opacity="0.6"></polyline><polygon points="181.85768187110523,224.85768187110523 183,216.85768187110523 184.1423181288948,219.1423181288948" transform="rotate(90.0000007648485, 183, 218)" cx="183" cy="218" r="1.142318128894779" fill="#ffd336" stroke="#ccc" stroke-width="0.2" opacity="0.6"></polygon></g><g class="key-Slovenia_0"><circle cx="188" cy="220" r="1.1387397444302758" fill="#ffd336" stroke="#ccc" opacity="0.6"></circle><polyline stroke-linecap="round" stroke="#ffd336" points="188,220 194,214 200,210 205,209 210,207 221,201 230,197 228,194 233,183 236,178 242,173 247,167 250,161 263,158 262,156 263,150 264,143 262,141 261,139 262,129 263,129" fill="none" stroke-width="0.43983040590173306" opacity="0.6"></polyline><polygon points="261.8601695940983,135.86016959409827 263,127.86016959409827 264.13983040590176,130.13983040590173" transform="rotate(90.0000007648485, 263, 129)" cx="263" cy="129" r="1.139830405901733" fill="#ffd336" stroke="#ccc" stroke-width="0.2" opacity="0.6"></polygon></g><g class="key-Estonia_0"><circle cx="149" cy="270" r="1.1303130406965685" fill="#ffd336" stroke="#ccc" opacity="0.6"></circle><polyline stroke-linecap="round" stroke="#ffd336" points="149,270 149,265 148,267 151,259 158,254 165,246 170,238 177,236 186,235 193,222 191,209 190,201 189,191 194,190 199,179 205,181 210,179" fill="none" stroke-width="0.4297012836471171" opacity="0.6"></polyline><polygon points="208.8702987163529,185.8702987163529 210,177.8702987163529 211.12970128364714,180.12970128364714" transform="rotate(68.19859109322141, 210, 179)" cx="210" cy="179" r="1.1297012836471172" fill="#ffd336" stroke="#ccc" stroke-width="0.2" opacity="0.6"></polygon></g><g class="key-Luxembourg_0"><circle cx="331" cy="187" r="1.1149812484908417" fill="#ffd336" stroke="#ccc" opacity="0.6"></circle><polyline stroke-linecap="round" stroke="#ffd336" points="331,187 335,187 343,183 359,181 383,171 423,170 459,170 489,169 503,172 536,154 535,150 523,152 520,151 531,136 554,134 550,135 495,130 508,125 507,120 506,114 576,114" fill="none" stroke-width="0.41702318936366667" opacity="0.6"></polyline><polygon points="574.8829768106364,120.88297681063634 576,112.88297681063634 577.1170231893637,115.11702318936366" transform="rotate(90.0000007648485, 576, 114)" cx="576" cy="114" r="1.1170231893636666" fill="#ffd336" stroke="#ccc" stroke-width="0.2" opacity="0.6"></polygon></g><g class="key-Iceland_0"><circle cx="143" cy="220" r="1.1115077572595482" fill="#ffd336" stroke="#ccc" opacity="0.6"></circle><polyline stroke-linecap="round" stroke="#ffd336" points="143,220 154,225 156,214 154,214 165,213 170,199 169,181 174,189 184,186 200,184 196,183 202,187 208,181 214,183 211,174 218,173 233,168 247,177 256,180 251,166 245,168 246,168 243,159 245,156 246,152 248,168 255,158 259,157 285,148 300,151 310,147 312,134 328,136 344,130 349,130 349,123 346,128 357,124 358,122 353,120 337,118 337,112 340,105 348,116 353,106 359,106" fill="none" stroke-width="0.41370399857380985" opacity="0.6"></polyline><polygon points="357.8862960014262,112.88629600142619 359,104.88629600142619 360.11370399857384,107.11370399857381" transform="rotate(90.0000007648485, 359, 106)" cx="359" cy="106" r="1.1137039985738098" fill="#ffd336" stroke="#ccc" stroke-width="0.2" opacity="0.6"></polygon></g><text x="633.771" y="159" font-size="14.3" font-family="Arial Narrow, Arial, sans-serif" fill="#666">United States</text><text x="339.0405474114106" y="106.20780460258746" font-size="12.307804602587446" font-family="Arial Narrow, Arial, sans-serif" fill="#666">Japan</text><text x="165.77350098112615" y="177.8397485283108" font-size="12.2158748316872" font-family="Arial Narrow, Arial, sans-serif" fill="#666">Mexico</text><text x="439" y="129" font-size="11.846012860977769" font-family="Arial Narrow, Arial, sans-serif" fill="#666">Germany</text><text x="168.53553390593274" y="197.46446609406726" font-size="11.779190431797941" font-family="Arial Narrow, Arial, sans-serif" fill="#666">Turkey</text><text x="382" y="108" font-size="11.659172196365953" font-family="Arial Narrow, Arial, sans-serif" fill="#666">France</text><text x="305.98058067569093" y="105.53122511736643" font-size="11.63122511736643" font-family="Arial Narrow, Arial, sans-serif" fill="#666">Italy</text><text x="205.3736056394869" y="161.19238026179588" font-size="11.395299951573946" font-family="Arial Narrow, Arial, sans-serif" fill="#666">Poland</text><text x="212.53553390593274" y="116.46446609406726" font-size="11.180092250320303" font-family="Arial Narrow, Arial, sans-serif" fill="#666">Chile</text><text x="393" y="126" font-size="11.11001776727921" font-family="Arial Narrow, Arial, sans-serif" fill="#666">Belgium</text><text x="260" y="118" font-size="11.108866268845825" font-family="Arial Narrow, Arial, sans-serif" fill="#666">Portugal</text><text x="251.03069233026724" y="144.4309422568987" font-size="11.107676793203044" font-family="Arial Narrow, Arial, sans-serif" fill="#666">Czech Republic</text><text x="215.5811388300842" y="189.25658350974743" font-size="11.100875409879917" font-family="Arial Narrow, Arial, sans-serif" fill="#666">Hungary</text><text x="448.56905774310127" y="107.96930766973276" font-size="11.096852998227307" font-family="Arial Narrow, Arial, sans-serif" fill="#666">Sweden</text><text x="531" y="104.9783568323816" font-size="11.0783568323816" font-family="Arial Narrow, Arial, sans-serif" fill="#666">Switzerland</text><text x="326.8507125007267" y="122.78732187481833" font-size="11.044623635751012" font-family="Arial Narrow, Arial, sans-serif" fill="#666">New Zealand</text><text x="188" y="218" font-size="11.020965316891505" font-family="Arial Narrow, Arial, sans-serif" fill="#666">Latvia</text><text x="214.6423834544263" y="177.14304661822948" font-size="11.011764651049505" font-family="Arial Narrow, Arial, sans-serif" fill="#666">Estonia</text></g><g style="cursor: pointer;" class="ScatterColorLegend clickable"><g class="legendMark"><rect x="735" y="91.4" width="35.57" height="17.6" fill="#fff" opacity="0"></rect>,<rect x="735" y="96.9" width="6" height="6" fill="#d14e5b"></rect>,<text font-size="12.60" x="746.0" y="104.0"><tspan x="746" y="103.98">Asia</tspan></text></g><g class="legendMark"><rect x="735" y="109" width="51.824" height="17.6" fill="#fff" opacity="0"></rect>,<rect x="735" y="114.5" width="6" height="6" fill="#ffd336"></rect>,<text font-size="12.60" x="746.0" y="121.6"><tspan x="746" y="121.58">Europe</tspan></text></g><g class="legendMark"><rect x="735" y="126.60000000000002" width="91.64" height="17.6" fill="#fff" opacity="0"></rect>,<rect x="735" y="132.10000000000002" width="6" height="6" fill="#4d824b"></rect>,<text font-size="12.60" x="746.0" y="139.2"><tspan x="746" y="139.18">North America</tspan></text></g><g class="legendMark"><rect x="735" y="144.20000000000002" width="58.124" height="17.6" fill="#fff" opacity="0"></rect>,<rect x="735" y="149.70000000000002" width="6" height="6" fill="#a652ba"></rect>,<text font-size="12.60" x="746.0" y="156.8"><tspan x="746" y="156.78">Oceania</tspan></text></g><g class="legendMark"><rect x="735" y="161.8" width="93.908" height="17.6" fill="#fff" opacity="0"></rect>,<rect x="735" y="167.3" width="6" height="6" fill="#69c487"></rect>,<text font-size="12.60" x="746.0" y="174.4"><tspan x="746" y="174.38">South America</tspan></text></g></g><line x1="735" y1="183.9" x2="830" y2="183.9" stroke="#ccc"></line><g class="clickable"><g class="ConnectedScatterLegend"><rect x="735" y="192.9" width="100" height="12.6" fill="#fff" opacity="0"></rect><text font-size="12.60" x="735.0" y="203.0" fill="#333"><tspan x="735" y="202.98">1970</tspan></text><text font-size="12.60" x="806.8" y="203.0" fill="#333"><tspan x="806.776" y="202.98">2015</tspan></text><line x1="768.224" y1="198.70000000000002" x2="801.776" y2="198.70000000000002" stroke="#666" stroke-width="1"></line><circle cx="768.224" cy="198.70000000000002" r="2" fill="#666" stroke="#ccc" stroke-width="0.2"></circle><circle cx="779.408" cy="198.70000000000002" r="2" fill="#666" stroke="#ccc" stroke-width="0.2"></circle><circle cx="790.592" cy="198.70000000000002" r="2" fill="#666" stroke="#ccc" stroke-width="0.2"></circle><polygon points="798.776,203.70000000000002 801.776,195.70000000000002 804.776,201.70000000000002" cx="801.776" cy="198.70000000000002" r="3" fill="#666" stroke="#ccc" stroke-width="0.2" transform="rotate(90, 801.776, 198.70000000000002)"></polygon></g></g></g><g style="fill: #777;" class="SourcesFooter"><g style="fill: #777;" class="clickable"><text font-size="12.60" x="15.0" y="567.0"><tspan x="15" y="566.98">Source: World Bank – WDI, Health Expenditure and Financing - OECDstat (2017)</tspan></text></g><text font-size="12.60" x="15.0" y="582.5"><tspan x="15" y="582.48"><a target='_blank' style='fill: #777;' href='https://ourworldindata.org/the-link-between-life-expectancy-and-health-spending-us-focus'>OurWorldInData.org/the-link-between-life-expectancy-and-health-spending-us-focus</a> • <a style="fill: #777;" href="http://creativecommons.org/licenses/by-sa/4.0/deed.en_US" target="_blank">CC BY-SA</a></tspan></text></g></g></svg>