<svg xmlns="http://www.w3.org/2000/svg" version="1.1" style="font-family:&#x27;Helvetica Neue&#x27;, Helvetica, Arial, sans-serif;font-size:18px;background-color:white;text-rendering:optimizeLegibility;-webkit-font-smoothing:antialiased" width="850" height="600"><g class="ChartTab"><g class="HeaderView"><g opacity="0.8" transform="translate(778, 15) scale(0.27)"><a xmlns:xlink="http://www.w3.org/1999/xlink" xlink:href="https://ourworldindata.org" target="_blank"><g><rect x="0" y="0" fill="#1B2543" width="211.2" height="130.1"/><rect x="0" y="112.2" fill="#E63912" width="211.2" height="17.9"/><g><rect x="1.2" y="12.3" fill="none" width="210.2" height="99.2"/><path fill="#FFFFFF" d="M37.8,32.2c0,12.7-7.7,19.4-17.1,19.4c-9.7,0-16.6-7.5-16.6-18.7c0-11.7,7.3-19.3,17.1-19.3 C31.3,13.7,37.8,21.3,37.8,32.2z M9.2,32.8c0,7.9,4.3,14.9,11.8,14.9c7.5,0,11.8-6.9,11.8-15.3c0-7.3-3.8-14.9-11.8-14.9 C13.1,17.5,9.2,24.8,9.2,32.8z"/><path fill="#FFFFFF" d="M62.7,43.8c0,2.7,0.1,5.1,0.2,7.2h-4.3l-0.3-4.3h-0.1c-1.3,2.1-4,4.9-8.8,4.9c-4.2,0-9.1-2.3-9.1-11.6 V24.6h4.8v14.6c0,5,1.5,8.4,5.9,8.4c3.2,0,5.5-2.2,6.3-4.4c0.3-0.7,0.4-1.6,0.4-2.5V24.6h4.8V43.8z"/><path fill="#FFFFFF" d="M67.3,32.8c0-3.1-0.1-5.8-0.2-8.2h4.2l0.2,5.2h0.2c1.2-3.5,4.1-5.8,7.3-5.8c0.5,0,0.9,0.1,1.4,0.2v4.5 c-0.5-0.1-1-0.2-1.6-0.2c-3.4,0-5.8,2.6-6.5,6.2c-0.1,0.7-0.2,1.4-0.2,2.2V51h-4.8V32.8z"/><path fill="#FFFFFF" d="M95.4,51l-9.4-36.8h5l4.4,18.6c1.1,4.6,2.1,9.2,2.7,12.7h0.1c0.6-3.7,1.8-8,3-12.8l4.9-18.5h5l4.5,18.7 c1,4.4,2,8.7,2.6,12.6h0.1c0.8-4,1.8-8.1,3-12.7l4.9-18.5h4.9L120.6,51h-5L111,31.9c-1.1-4.7-1.9-8.3-2.4-12h-0.1 c-0.7,3.7-1.5,7.3-2.8,12L100.4,51H95.4z"/><path fill="#FFFFFF" d="M154.9,37.6c0,9.8-6.8,14-13.2,14c-7.2,0-12.7-5.2-12.7-13.6c0-8.8,5.8-14,13.1-14 C149.8,24,154.9,29.5,154.9,37.6z M133.9,37.9c0,5.8,3.3,10.1,8,10.1c4.6,0,8-4.3,8-10.3c0-4.5-2.2-10.1-7.9-10.1 C136.3,27.6,133.9,32.8,133.9,37.9z"/><path fill="#FFFFFF" d="M158.2,32.8c0-3.1-0.1-5.8-0.2-8.2h4.2l0.2,5.2h0.2c1.2-3.5,4.1-5.8,7.3-5.8c0.5,0,0.9,0.1,1.4,0.2v4.5 c-0.5-0.1-1-0.2-1.6-0.2c-3.4,0-5.8,2.6-6.5,6.2c-0.1,0.7-0.2,1.4-0.2,2.2V51h-4.8V32.8z"/><path fill="#FFFFFF" d="M173.5,12.3h4.8V51h-4.8V12.3z"/><path fill="#FFFFFF" d="M206.5,12.3v31.9c0,2.3,0.1,5,0.2,6.8h-4.3l-0.2-4.6H202c-1.5,2.9-4.7,5.2-9,5.2 c-6.4,0-11.3-5.4-11.3-13.4c-0.1-8.8,5.4-14.2,11.9-14.2c4,0,6.8,1.9,8,4h0.1V12.3H206.5z M201.7,35.4c0-0.6-0.1-1.4-0.2-2 c-0.7-3.1-3.3-5.6-6.9-5.6c-5,0-7.9,4.4-7.9,10.2c0,5.3,2.6,9.8,7.8,9.8c3.2,0,6.2-2.1,7.1-5.7c0.2-0.7,0.2-1.3,0.2-2.1V35.4z"/><path fill="#FFFFFF" d="M42.8,64c0.1,1.6-1.1,2.9-3.1,2.9c-1.7,0-2.9-1.3-2.9-2.9c0-1.7,1.3-3,3-3C41.7,61,42.8,62.3,42.8,64z M37.4,97.8V71.4h4.8v26.4H37.4z"/><path fill="#FFFFFF" d="M47.5,78.6c0-2.7-0.1-5-0.2-7.1h4.3l0.3,4.4h0.1c1.3-2.5,4.4-5,8.8-5c3.7,0,9.4,2.2,9.4,11.2v15.8h-4.8 V82.6c0-4.3-1.6-7.8-6.1-7.8c-3.2,0-5.6,2.2-6.5,4.9c-0.2,0.6-0.3,1.4-0.3,2.2v15.9h-4.8V78.6z"/><path fill="#FFFFFF" d="M84,61.6c2.9-0.4,6.3-0.8,10.1-0.8c6.8,0,11.7,1.6,14.9,4.6c3.3,3,5.2,7.3,5.2,13.2c0,6-1.9,10.9-5.3,14.3 c-3.4,3.4-9.1,5.3-16.3,5.3c-3.4,0-6.2-0.2-8.6-0.4V61.6z M88.8,94.1c1.2,0.2,3,0.3,4.8,0.3c10.2,0,15.7-5.7,15.7-15.6 c0.1-8.7-4.9-14.2-14.9-14.2c-2.5,0-4.3,0.2-5.6,0.5V94.1z"/><path fill="#FFFFFF" d="M132.1,97.8l-0.4-3.3h-0.2c-1.5,2.1-4.3,3.9-8.1,3.9c-5.4,0-8.1-3.8-8.1-7.6c0-6.4,5.7-9.9,15.9-9.8v-0.5 c0-2.2-0.6-6.1-6-6.1c-2.5,0-5,0.8-6.9,2l-1.1-3.2c2.2-1.4,5.4-2.3,8.7-2.3c8.1,0,10.1,5.5,10.1,10.8v9.9c0,2.3,0.1,4.5,0.4,6.3 H132.1z M131.4,84.4c-5.3-0.1-11.2,0.8-11.2,5.9c0,3.1,2.1,4.6,4.5,4.6c3.4,0,5.6-2.2,6.4-4.4c0.2-0.5,0.3-1,0.3-1.5V84.4z"/><path fill="#FFFFFF" d="M146.6,63.9v7.6h6.9v3.7h-6.9v14.2c0,3.3,0.9,5.1,3.6,5.1c1.3,0,2.2-0.2,2.8-0.3l0.2,3.6 c-0.9,0.4-2.4,0.7-4.3,0.7c-2.2,0-4-0.7-5.2-2c-1.4-1.4-1.9-3.8-1.9-6.9V75.1h-4.1v-3.7h4.1v-6.3L146.6,63.9z"/><path fill="#FFFFFF" d="M171.4,97.8l-0.4-3.3h-0.2c-1.5,2.1-4.3,3.9-8.1,3.9c-5.4,0-8.1-3.8-8.1-7.6c0-6.4,5.7-9.9,15.9-9.8v-0.5 c0-2.2-0.6-6.1-6-6.1c-2.5,0-5,0.8-6.9,2l-1.1-3.2c2.2-1.4,5.4-2.3,8.7-2.3c8.1,0,10.1,5.5,10.1,10.8v9.9c0,2.3,0.1,4.5,0.4,6.3 H171.4z M170.7,84.4c-5.3-0.1-11.2,0.8-11.2,5.9c0,3.1,2.1,4.6,4.5,4.6c3.4,0,5.6-2.2,6.4-4.4c0.2-0.5,0.3-1,0.3-1.5V84.4z"/></g></g></a></g><a href="https://ourworldindata.org/grapher/life-expectancy-at-birth-oecd" target="_blank"><text font-size="25.20" x="15.0" y="35.2" fill="#555"><tspan x="15" y="35.160000000000004">Life Expectancy at birth</tspan></text></a><text font-size="14.40" x="15.0" y="53.7" fill="#666"><tspan x="15" y="53.72">Life expectancy at birth in years, measured across both sexes.</tspan></text></g><g class="LineChart"><defs><clipPath id="boundsClip-707"><rect x="72.37" y="0" width="830" height="959.8"></rect></clipPath></defs><g class="AxisBoxView"><g class="HorizontalAxis"><text x="82.4" y="556.5" fill="#666" text-anchor="middle" font-size="16.2">1960</text><text x="195.3" y="556.5" fill="#666" text-anchor="middle" font-size="16.2">1970</text><text x="308.3" y="556.5" fill="#666" text-anchor="middle" font-size="16.2">1980</text><text x="421.2" y="556.5" fill="#666" text-anchor="middle" font-size="16.2">1990</text><text x="534.2" y="556.5" fill="#666" text-anchor="middle" font-size="16.2">2000</text><text x="647.1" y="556.5" fill="#666" text-anchor="middle" font-size="16.2">2010</text><text x="703.6" y="556.5" fill="#666" text-anchor="middle" font-size="16.2">2015</text></g><g class="VerticalAxis"><text x="77.37" y="535.3" fill="#666" dominant-baseline="middle" text-anchor="end" font-size="16.2">0 years</text><text x="77.37" y="480.2" fill="#666" dominant-baseline="middle" text-anchor="end" font-size="16.2">10 years</text><text x="77.37" y="425.2" fill="#666" dominant-baseline="middle" text-anchor="end" font-size="16.2">20 years</text><text x="77.37" y="370.1" fill="#666" dominant-baseline="middle" text-anchor="end" font-size="16.2">30 years</text><text x="77.37" y="315" fill="#666" dominant-baseline="middle" text-anchor="end" font-size="16.2">40 years</text><text x="77.37" y="260" fill="#666" dominant-baseline="middle" text-anchor="end" font-size="16.2">50 years</text><text x="77.37" y="204.9" fill="#666" dominant-baseline="middle" text-anchor="end" font-size="16.2">60 years</text><text x="77.37" y="149.8" fill="#666" dominant-baseline="middle" text-anchor="end" font-size="16.2">70 years</text><text x="77.37" y="94.8" fill="#666" dominant-baseline="middle" text-anchor="end" font-size="16.2">80 years</text></g><g class="AxisGridLines"><line x1="82.37" y1="535.3" x2="703.61" y2="535.3" stroke="#ccc"></line><line x1="82.37" y1="480.2" x2="703.61" y2="480.2" stroke="#ddd" stroke-dasharray="3,2"></line><line x1="82.37" y1="425.2" x2="703.61" y2="425.2" stroke="#ddd" stroke-dasharray="3,2"></line><line x1="82.37" y1="370.1" x2="703.61" y2="370.1" stroke="#ddd" stroke-dasharray="3,2"></line><line x1="82.37" y1="315" x2="703.61" y2="315" stroke="#ddd" stroke-dasharray="3,2"></line><line x1="82.37" y1="260" x2="703.61" y2="260" stroke="#ddd" stroke-dasharray="3,2"></line><line x1="82.37" y1="204.9" x2="703.61" y2="204.9" stroke="#ddd" stroke-dasharray="3,2"></line><line x1="82.37" y1="149.8" x2="703.61" y2="149.8" stroke="#ddd" stroke-dasharray="3,2"></line><line x1="82.37" y1="94.8" x2="703.61" y2="94.8" stroke="#ddd" stroke-dasharray="3,2"></line></g></g><g clip-path="url(#boundsClip-707)"><g class="HeightedLegend clickable"><g class="legendMark"><g class="indicator"><line x1="708.61" y1="78.3" x2="729.6814285714286" y2="78.3" stroke="#666" stroke-width="0.5"></line><line x1="729.6814285714286" y1="78.3" x2="729.6814285714286" y2="78.3" stroke="#666" stroke-width="0.5"></line><line x1="729.6814285714286" y1="78.3" x2="733.61" y2="78.3" stroke="#666" stroke-width="0.5"></line></g><rect x="703.61" y="71.55" width="104.93" height="13.5" fill="#fff" opacity="0"></rect><text font-size="13.50" x="738.6" y="82.3" fill="#e6332e"><tspan x="738.61" y="82.35">Switzerland</tspan></text></g><g class="legendMark"><g class="indicator"><line x1="708.61" y1="81.6" x2="726.8242857142857" y2="81.6" stroke="#666" stroke-width="0.5"></line><line x1="726.8242857142857" y1="81.6" x2="726.8242857142857" y2="93.8" stroke="#666" stroke-width="0.5"></line><line x1="726.8242857142857" y1="93.8" x2="733.61" y2="93.8" stroke="#666" stroke-width="0.5"></line></g><rect x="703.61" y="87.05" width="77.12" height="13.5" fill="#fff" opacity="0"></rect><text font-size="13.50" x="738.6" y="97.8" fill="#2a939b"><tspan x="738.61" y="97.85">France</tspan></text></g><g class="legendMark"><g class="indicator"><line x1="708.61" y1="87.6" x2="723.9671428571429" y2="87.6" stroke="#666" stroke-width="0.5"></line><line x1="723.9671428571429" y1="87.6" x2="723.9671428571429" y2="109.3" stroke="#666" stroke-width="0.5"></line><line x1="723.9671428571429" y1="109.3" x2="733.61" y2="109.3" stroke="#666" stroke-width="0.5"></line></g><rect x="703.61" y="102.55" width="77.12" height="13.5" fill="#fff" opacity="0"></rect><text font-size="13.50" x="738.6" y="113.3" fill="#a652ba"><tspan x="738.61" y="113.35">Austria</tspan></text></g><g class="legendMark"><g class="indicator"><line x1="708.61" y1="88.2" x2="721.11" y2="88.2" stroke="#666" stroke-width="0.5"></line><line x1="721.11" y1="88.2" x2="721.11" y2="124.8" stroke="#666" stroke-width="0.5"></line><line x1="721.11" y1="124.8" x2="733.61" y2="124.8" stroke="#666" stroke-width="0.5"></line></g><rect x="703.61" y="118.05" width="85.49000000000001" height="13.5" fill="#fff" opacity="0"></rect><text font-size="13.50" x="738.6" y="128.9" fill="#f6a324"><tspan x="738.61" y="128.85000000000002">Portugal</tspan></text></g><g class="legendMark"><g class="indicator"><line x1="708.61" y1="88.7" x2="718.2528571428571" y2="88.7" stroke="#666" stroke-width="0.5"></line><line x1="718.2528571428571" y1="88.7" x2="718.2528571428571" y2="140.3" stroke="#666" stroke-width="0.5"></line><line x1="718.2528571428571" y1="140.3" x2="733.61" y2="140.3" stroke="#666" stroke-width="0.5"></line></g><rect x="703.61" y="133.55" width="83.87" height="13.5" fill="#fff" opacity="0"></rect><text font-size="13.50" x="738.6" y="144.4" fill="#34983f"><tspan x="738.61" y="144.35000000000002">Belgium</tspan></text></g><g class="legendMark"><g class="indicator"><line x1="708.61" y1="89.3" x2="715.3957142857143" y2="89.3" stroke="#666" stroke-width="0.5"></line><line x1="715.3957142857143" y1="89.3" x2="715.3957142857143" y2="155.8" stroke="#666" stroke-width="0.5"></line><line x1="715.3957142857143" y1="155.8" x2="733.61" y2="155.8" stroke="#666" stroke-width="0.5"></line></g><rect x="703.61" y="149.05" width="131.39" height="13.5" fill="#fff" opacity="0"></rect><text font-size="13.50" x="738.6" y="159.9" fill="#ca2628"><tspan x="738.61" y="159.85000000000002">United Kingdom</tspan></text></g><g class="legendMark"><g class="indicator"><line x1="708.61" y1="90.9" x2="712.5385714285715" y2="90.9" stroke="#666" stroke-width="0.5"></line><line x1="712.5385714285715" y1="90.9" x2="712.5385714285715" y2="171.3" stroke="#666" stroke-width="0.5"></line><line x1="712.5385714285715" y1="171.3" x2="733.61" y2="171.3" stroke="#666" stroke-width="0.5"></line></g><rect x="703.61" y="164.55" width="90.62" height="13.5" fill="#fff" opacity="0"></rect><text font-size="13.50" x="738.6" y="175.4" fill="#3360a9"><tspan x="738.61" y="175.35000000000002">Germany</tspan></text></g></g><g class="Lines"><rect x="82" y="77" width="621" height="459" fill="rgba(255,255,255,0)" opacity="0"></rect><g class="key-Belgium_0"><path stroke="#34983f" stroke-linecap="round" d="M82 151L94 147L105 148L116 149L128 145L139 146L150 145L161 144L173 145L184 145L195 144L207 143L218 142L229 141L241 138L252 138L263 138L274 134L286 134L297 132L308 132L320 130L331 128L342 128L354 125L365 125L376 123L387 120L399 119L410 119L421 116L433 115L444 114L455 114L466 112L478 111L489 110L500 109L512 108L523 107L534 107L546 105L557 105L568 105L579 100L591 100L602 98L613 95L625 96L636 94L647 93L658 91L670 92L681 91L692 87L704 89" fill="none" stroke-width="1.5"></path><g fill="#34983f"><circle cx="82" cy="151" r="2"></circle><circle cx="94" cy="147" r="2"></circle><circle cx="105" cy="148" r="2"></circle><circle cx="116" cy="149" r="2"></circle><circle cx="128" cy="145" r="2"></circle><circle cx="139" cy="146" r="2"></circle><circle cx="150" cy="145" r="2"></circle><circle cx="161" cy="144" r="2"></circle><circle cx="173" cy="145" r="2"></circle><circle cx="184" cy="145" r="2"></circle><circle cx="195" cy="144" r="2"></circle><circle cx="207" cy="143" r="2"></circle><circle cx="218" cy="142" r="2"></circle><circle cx="229" cy="141" r="2"></circle><circle cx="241" cy="138" r="2"></circle><circle cx="252" cy="138" r="2"></circle><circle cx="263" cy="138" r="2"></circle><circle cx="274" cy="134" r="2"></circle><circle cx="286" cy="134" r="2"></circle><circle cx="297" cy="132" r="2"></circle><circle cx="308" cy="132" r="2"></circle><circle cx="320" cy="130" r="2"></circle><circle cx="331" cy="128" r="2"></circle><circle cx="342" cy="128" r="2"></circle><circle cx="354" cy="125" r="2"></circle><circle cx="365" cy="125" r="2"></circle><circle cx="376" cy="123" r="2"></circle><circle cx="387" cy="120" r="2"></circle><circle cx="399" cy="119" r="2"></circle><circle cx="410" cy="119" r="2"></circle><circle cx="421" cy="116" r="2"></circle><circle cx="433" cy="115" r="2"></circle><circle cx="444" cy="114" r="2"></circle><circle cx="455" cy="114" r="2"></circle><circle cx="466" cy="112" r="2"></circle><circle cx="478" cy="111" r="2"></circle><circle cx="489" cy="110" r="2"></circle><circle cx="500" cy="109" r="2"></circle><circle cx="512" cy="108" r="2"></circle><circle cx="523" cy="107" r="2"></circle><circle cx="534" cy="107" r="2"></circle><circle cx="546" cy="105" r="2"></circle><circle cx="557" cy="105" r="2"></circle><circle cx="568" cy="105" r="2"></circle><circle cx="579" cy="100" r="2"></circle><circle cx="591" cy="100" r="2"></circle><circle cx="602" cy="98" r="2"></circle><circle cx="613" cy="95" r="2"></circle><circle cx="625" cy="96" r="2"></circle><circle cx="636" cy="94" r="2"></circle><circle cx="647" cy="93" r="2"></circle><circle cx="658" cy="91" r="2"></circle><circle cx="670" cy="92" r="2"></circle><circle cx="681" cy="91" r="2"></circle><circle cx="692" cy="87" r="2"></circle><circle cx="704" cy="89" r="2"></circle></g></g><g class="key-France_0"><path stroke="#2a939b" stroke-linecap="round" d="M82 148L94 144L105 147L116 147L128 142L139 143L150 142L161 142L173 142L184 143L195 138L207 138L218 137L229 136L241 134L252 133L263 132L274 129L286 128L297 127L308 126L320 125L331 123L342 123L354 121L365 120L376 119L387 115L399 114L410 113L421 111L433 110L444 109L455 108L466 106L478 105L489 104L500 103L512 101L523 101L534 99L546 99L557 98L568 99L579 93L591 93L602 89L613 88L625 87L636 87L647 85L658 82L670 83L681 82L692 79L704 82" fill="none" stroke-width="1.5"></path><g fill="#2a939b"><circle cx="82" cy="148" r="2"></circle><circle cx="94" cy="144" r="2"></circle><circle cx="105" cy="147" r="2"></circle><circle cx="116" cy="147" r="2"></circle><circle cx="128" cy="142" r="2"></circle><circle cx="139" cy="143" r="2"></circle><circle cx="150" cy="142" r="2"></circle><circle cx="161" cy="142" r="2"></circle><circle cx="173" cy="142" r="2"></circle><circle cx="184" cy="143" r="2"></circle><circle cx="195" cy="138" r="2"></circle><circle cx="207" cy="138" r="2"></circle><circle cx="218" cy="137" r="2"></circle><circle cx="229" cy="136" r="2"></circle><circle cx="241" cy="134" r="2"></circle><circle cx="252" cy="133" r="2"></circle><circle cx="263" cy="132" r="2"></circle><circle cx="274" cy="129" r="2"></circle><circle cx="286" cy="128" r="2"></circle><circle cx="297" cy="127" r="2"></circle><circle cx="308" cy="126" r="2"></circle><circle cx="320" cy="125" r="2"></circle><circle cx="331" cy="123" r="2"></circle><circle cx="342" cy="123" r="2"></circle><circle cx="354" cy="121" r="2"></circle><circle cx="365" cy="120" r="2"></circle><circle cx="376" cy="119" r="2"></circle><circle cx="387" cy="115" r="2"></circle><circle cx="399" cy="114" r="2"></circle><circle cx="410" cy="113" r="2"></circle><circle cx="421" cy="111" r="2"></circle><circle cx="433" cy="110" r="2"></circle><circle cx="444" cy="109" r="2"></circle><circle cx="455" cy="108" r="2"></circle><circle cx="466" cy="106" r="2"></circle><circle cx="478" cy="105" r="2"></circle><circle cx="489" cy="104" r="2"></circle><circle cx="500" cy="103" r="2"></circle><circle cx="512" cy="101" r="2"></circle><circle cx="523" cy="101" r="2"></circle><circle cx="534" cy="99" r="2"></circle><circle cx="546" cy="99" r="2"></circle><circle cx="557" cy="98" r="2"></circle><circle cx="568" cy="99" r="2"></circle><circle cx="579" cy="93" r="2"></circle><circle cx="591" cy="93" r="2"></circle><circle cx="602" cy="89" r="2"></circle><circle cx="613" cy="88" r="2"></circle><circle cx="625" cy="87" r="2"></circle><circle cx="636" cy="87" r="2"></circle><circle cx="647" cy="85" r="2"></circle><circle cx="658" cy="82" r="2"></circle><circle cx="670" cy="83" r="2"></circle><circle cx="681" cy="82" r="2"></circle><circle cx="692" cy="79" r="2"></circle><circle cx="704" cy="82" r="2"></circle></g></g><g class="key-Austria_0"><path stroke="#a652ba" stroke-linecap="round" d="M82 157L94 152L105 153L116 152L128 150L139 151L150 149L161 150L173 149L184 150L195 150L207 149L218 147L229 144L241 144L252 143L263 141L274 139L286 138L297 137L308 136L320 134L331 133L342 133L354 130L365 128L376 126L387 123L399 121L410 120L421 119L433 119L444 117L455 116L466 114L478 112L489 111L500 109L512 107L523 106L534 105L546 102L557 101L568 102L579 99L591 98L602 95L613 93L625 92L636 93L647 91L658 89L670 89L681 88L692 86L704 88" fill="none" stroke-width="1.5"></path><g fill="#a652ba"><circle cx="82" cy="157" r="2"></circle><circle cx="94" cy="152" r="2"></circle><circle cx="105" cy="153" r="2"></circle><circle cx="116" cy="152" r="2"></circle><circle cx="128" cy="150" r="2"></circle><circle cx="139" cy="151" r="2"></circle><circle cx="150" cy="149" r="2"></circle><circle cx="161" cy="150" r="2"></circle><circle cx="173" cy="149" r="2"></circle><circle cx="184" cy="150" r="2"></circle><circle cx="195" cy="150" r="2"></circle><circle cx="207" cy="149" r="2"></circle><circle cx="218" cy="147" r="2"></circle><circle cx="229" cy="144" r="2"></circle><circle cx="241" cy="144" r="2"></circle><circle cx="252" cy="143" r="2"></circle><circle cx="263" cy="141" r="2"></circle><circle cx="274" cy="139" r="2"></circle><circle cx="286" cy="138" r="2"></circle><circle cx="297" cy="137" r="2"></circle><circle cx="308" cy="136" r="2"></circle><circle cx="320" cy="134" r="2"></circle><circle cx="331" cy="133" r="2"></circle><circle cx="342" cy="133" r="2"></circle><circle cx="354" cy="130" r="2"></circle><circle cx="365" cy="128" r="2"></circle><circle cx="376" cy="126" r="2"></circle><circle cx="387" cy="123" r="2"></circle><circle cx="399" cy="121" r="2"></circle><circle cx="410" cy="120" r="2"></circle><circle cx="421" cy="119" r="2"></circle><circle cx="433" cy="119" r="2"></circle><circle cx="444" cy="117" r="2"></circle><circle cx="455" cy="116" r="2"></circle><circle cx="466" cy="114" r="2"></circle><circle cx="478" cy="112" r="2"></circle><circle cx="489" cy="111" r="2"></circle><circle cx="500" cy="109" r="2"></circle><circle cx="512" cy="107" r="2"></circle><circle cx="523" cy="106" r="2"></circle><circle cx="534" cy="105" r="2"></circle><circle cx="546" cy="102" r="2"></circle><circle cx="557" cy="101" r="2"></circle><circle cx="568" cy="102" r="2"></circle><circle cx="579" cy="99" r="2"></circle><circle cx="591" cy="98" r="2"></circle><circle cx="602" cy="95" r="2"></circle><circle cx="613" cy="93" r="2"></circle><circle cx="625" cy="92" r="2"></circle><circle cx="636" cy="93" r="2"></circle><circle cx="647" cy="91" r="2"></circle><circle cx="658" cy="89" r="2"></circle><circle cx="670" cy="89" r="2"></circle><circle cx="681" cy="88" r="2"></circle><circle cx="692" cy="86" r="2"></circle><circle cx="704" cy="88" r="2"></circle></g></g><g class="key-United-Kingdom_0"><path stroke="#ca2628" stroke-linecap="round" d="M82 145L94 146L195 139L207 139L308 132L320 129L331 127L342 126L354 125L365 124L376 123L387 121L399 121L410 120L421 119L433 117L444 115L455 116L466 112L478 113L489 112L500 110L512 110L523 109L534 106L546 105L557 104L568 104L579 100L591 99L602 98L613 96L625 96L636 93L647 92L658 89L670 89L681 89L692 87L704 89" fill="none" stroke-width="1.5"></path><g fill="#ca2628"><circle cx="82" cy="145" r="2"></circle><circle cx="94" cy="146" r="2"></circle><circle cx="195" cy="139" r="2"></circle><circle cx="207" cy="139" r="2"></circle><circle cx="308" cy="132" r="2"></circle><circle cx="320" cy="129" r="2"></circle><circle cx="331" cy="127" r="2"></circle><circle cx="342" cy="126" r="2"></circle><circle cx="354" cy="125" r="2"></circle><circle cx="365" cy="124" r="2"></circle><circle cx="376" cy="123" r="2"></circle><circle cx="387" cy="121" r="2"></circle><circle cx="399" cy="121" r="2"></circle><circle cx="410" cy="120" r="2"></circle><circle cx="421" cy="119" r="2"></circle><circle cx="433" cy="117" r="2"></circle><circle cx="444" cy="115" r="2"></circle><circle cx="455" cy="116" r="2"></circle><circle cx="466" cy="112" r="2"></circle><circle cx="478" cy="113" r="2"></circle><circle cx="489" cy="112" r="2"></circle><circle cx="500" cy="110" r="2"></circle><circle cx="512" cy="110" r="2"></circle><circle cx="523" cy="109" r="2"></circle><circle cx="534" cy="106" r="2"></circle><circle cx="546" cy="105" r="2"></circle><circle cx="557" cy="104" r="2"></circle><circle cx="568" cy="104" r="2"></circle><circle cx="579" cy="100" r="2"></circle><circle cx="591" cy="99" r="2"></circle><circle cx="602" cy="98" r="2"></circle><circle cx="613" cy="96" r="2"></circle><circle cx="625" cy="96" r="2"></circle><circle cx="636" cy="93" r="2"></circle><circle cx="647" cy="92" r="2"></circle><circle cx="658" cy="89" r="2"></circle><circle cx="670" cy="89" r="2"></circle><circle cx="681" cy="89" r="2"></circle><circle cx="692" cy="87" r="2"></circle><circle cx="704" cy="89" r="2"></circle></g></g><g class="key-Germany_0"><path stroke="#3360a9" stroke-linecap="round" d="M82 155L94 152L105 150L116 150L128 147L139 147L150 147L161 145L173 147L184 148L195 147L207 145L218 144L229 143L241 142L252 142L263 140L274 136L286 137L297 134L308 134L320 132L331 131L342 129L354 126L365 126L376 125L387 122L399 121L410 120L421 121L433 120L444 117L455 116L466 115L478 114L489 112L500 110L512 107L523 106L534 105L546 103L557 103L568 103L579 99L591 98L602 96L613 94L625 94L636 93L647 92L658 92L670 92L681 92L692 88L704 91" fill="none" stroke-width="1.5"></path><g fill="#3360a9"><circle cx="82" cy="155" r="2"></circle><circle cx="94" cy="152" r="2"></circle><circle cx="105" cy="150" r="2"></circle><circle cx="116" cy="150" r="2"></circle><circle cx="128" cy="147" r="2"></circle><circle cx="139" cy="147" r="2"></circle><circle cx="150" cy="147" r="2"></circle><circle cx="161" cy="145" r="2"></circle><circle cx="173" cy="147" r="2"></circle><circle cx="184" cy="148" r="2"></circle><circle cx="195" cy="147" r="2"></circle><circle cx="207" cy="145" r="2"></circle><circle cx="218" cy="144" r="2"></circle><circle cx="229" cy="143" r="2"></circle><circle cx="241" cy="142" r="2"></circle><circle cx="252" cy="142" r="2"></circle><circle cx="263" cy="140" r="2"></circle><circle cx="274" cy="136" r="2"></circle><circle cx="286" cy="137" r="2"></circle><circle cx="297" cy="134" r="2"></circle><circle cx="308" cy="134" r="2"></circle><circle cx="320" cy="132" r="2"></circle><circle cx="331" cy="131" r="2"></circle><circle cx="342" cy="129" r="2"></circle><circle cx="354" cy="126" r="2"></circle><circle cx="365" cy="126" r="2"></circle><circle cx="376" cy="125" r="2"></circle><circle cx="387" cy="122" r="2"></circle><circle cx="399" cy="121" r="2"></circle><circle cx="410" cy="120" r="2"></circle><circle cx="421" cy="121" r="2"></circle><circle cx="433" cy="120" r="2"></circle><circle cx="444" cy="117" r="2"></circle><circle cx="455" cy="116" r="2"></circle><circle cx="466" cy="115" r="2"></circle><circle cx="478" cy="114" r="2"></circle><circle cx="489" cy="112" r="2"></circle><circle cx="500" cy="110" r="2"></circle><circle cx="512" cy="107" r="2"></circle><circle cx="523" cy="106" r="2"></circle><circle cx="534" cy="105" r="2"></circle><circle cx="546" cy="103" r="2"></circle><circle cx="557" cy="103" r="2"></circle><circle cx="568" cy="103" r="2"></circle><circle cx="579" cy="99" r="2"></circle><circle cx="591" cy="98" r="2"></circle><circle cx="602" cy="96" r="2"></circle><circle cx="613" cy="94" r="2"></circle><circle cx="625" cy="94" r="2"></circle><circle cx="636" cy="93" r="2"></circle><circle cx="647" cy="92" r="2"></circle><circle cx="658" cy="92" r="2"></circle><circle cx="670" cy="92" r="2"></circle><circle cx="681" cy="92" r="2"></circle><circle cx="692" cy="88" r="2"></circle><circle cx="704" cy="91" r="2"></circle></g></g><g class="key-Switzerland_0"><path stroke="#e6332e" stroke-linecap="round" d="M82 142L94 140L105 143L116 143L128 138L139 137L150 136L161 134L173 135L184 135L195 133L207 132L218 129L229 127L241 126L252 123L263 123L274 120L286 120L297 119L308 119L320 117L331 116L342 116L354 112L365 111L376 111L387 109L399 109L410 107L421 109L433 107L444 106L455 104L466 103L478 102L489 100L500 99L512 97L523 96L534 95L546 93L557 92L568 92L579 88L591 87L602 85L613 84L625 83L636 82L647 81L658 79L670 79L681 79L692 77L704 78" fill="none" stroke-width="1.5"></path><g fill="#e6332e"><circle cx="82" cy="142" r="2"></circle><circle cx="94" cy="140" r="2"></circle><circle cx="105" cy="143" r="2"></circle><circle cx="116" cy="143" r="2"></circle><circle cx="128" cy="138" r="2"></circle><circle cx="139" cy="137" r="2"></circle><circle cx="150" cy="136" r="2"></circle><circle cx="161" cy="134" r="2"></circle><circle cx="173" cy="135" r="2"></circle><circle cx="184" cy="135" r="2"></circle><circle cx="195" cy="133" r="2"></circle><circle cx="207" cy="132" r="2"></circle><circle cx="218" cy="129" r="2"></circle><circle cx="229" cy="127" r="2"></circle><circle cx="241" cy="126" r="2"></circle><circle cx="252" cy="123" r="2"></circle><circle cx="263" cy="123" r="2"></circle><circle cx="274" cy="120" r="2"></circle><circle cx="286" cy="120" r="2"></circle><circle cx="297" cy="119" r="2"></circle><circle cx="308" cy="119" r="2"></circle><circle cx="320" cy="117" r="2"></circle><circle cx="331" cy="116" r="2"></circle><circle cx="342" cy="116" r="2"></circle><circle cx="354" cy="112" r="2"></circle><circle cx="365" cy="111" r="2"></circle><circle cx="376" cy="111" r="2"></circle><circle cx="387" cy="109" r="2"></circle><circle cx="399" cy="109" r="2"></circle><circle cx="410" cy="107" r="2"></circle><circle cx="421" cy="109" r="2"></circle><circle cx="433" cy="107" r="2"></circle><circle cx="444" cy="106" r="2"></circle><circle cx="455" cy="104" r="2"></circle><circle cx="466" cy="103" r="2"></circle><circle cx="478" cy="102" r="2"></circle><circle cx="489" cy="100" r="2"></circle><circle cx="500" cy="99" r="2"></circle><circle cx="512" cy="97" r="2"></circle><circle cx="523" cy="96" r="2"></circle><circle cx="534" cy="95" r="2"></circle><circle cx="546" cy="93" r="2"></circle><circle cx="557" cy="92" r="2"></circle><circle cx="568" cy="92" r="2"></circle><circle cx="579" cy="88" r="2"></circle><circle cx="591" cy="87" r="2"></circle><circle cx="602" cy="85" r="2"></circle><circle cx="613" cy="84" r="2"></circle><circle cx="625" cy="83" r="2"></circle><circle cx="636" cy="82" r="2"></circle><circle cx="647" cy="81" r="2"></circle><circle cx="658" cy="79" r="2"></circle><circle cx="670" cy="79" r="2"></circle><circle cx="681" cy="79" r="2"></circle><circle cx="692" cy="77" r="2"></circle><circle cx="704" cy="78" r="2"></circle></g></g><g class="key-Portugal_0"><path stroke="#f6a324" stroke-linecap="round" d="M82 183L94 190L105 182L116 179L128 178L139 173L150 176L161 172L173 170L184 172L195 168L207 170L218 159L229 164L241 160L252 159L263 155L274 149L286 147L297 143L308 142L320 141L331 136L342 137L354 135L365 133L376 131L387 129L399 129L410 126L421 127L433 127L444 124L455 125L466 120L478 120L489 121L500 118L512 117L523 115L534 112L546 110L557 109L568 109L579 104L591 105L602 100L613 99L625 98L636 96L647 95L658 92L670 92L681 90L692 88L704 88" fill="none" stroke-width="1.5"></path><g fill="#f6a324"><circle cx="82" cy="183" r="2"></circle><circle cx="94" cy="190" r="2"></circle><circle cx="105" cy="182" r="2"></circle><circle cx="116" cy="179" r="2"></circle><circle cx="128" cy="178" r="2"></circle><circle cx="139" cy="173" r="2"></circle><circle cx="150" cy="176" r="2"></circle><circle cx="161" cy="172" r="2"></circle><circle cx="173" cy="170" r="2"></circle><circle cx="184" cy="172" r="2"></circle><circle cx="195" cy="168" r="2"></circle><circle cx="207" cy="170" r="2"></circle><circle cx="218" cy="159" r="2"></circle><circle cx="229" cy="164" r="2"></circle><circle cx="241" cy="160" r="2"></circle><circle cx="252" cy="159" r="2"></circle><circle cx="263" cy="155" r="2"></circle><circle cx="274" cy="149" r="2"></circle><circle cx="286" cy="147" r="2"></circle><circle cx="297" cy="143" r="2"></circle><circle cx="308" cy="142" r="2"></circle><circle cx="320" cy="141" r="2"></circle><circle cx="331" cy="136" r="2"></circle><circle cx="342" cy="137" r="2"></circle><circle cx="354" cy="135" r="2"></circle><circle cx="365" cy="133" r="2"></circle><circle cx="376" cy="131" r="2"></circle><circle cx="387" cy="129" r="2"></circle><circle cx="399" cy="129" r="2"></circle><circle cx="410" cy="126" r="2"></circle><circle cx="421" cy="127" r="2"></circle><circle cx="433" cy="127" r="2"></circle><circle cx="444" cy="124" r="2"></circle><circle cx="455" cy="125" r="2"></circle><circle cx="466" cy="120" r="2"></circle><circle cx="478" cy="120" r="2"></circle><circle cx="489" cy="121" r="2"></circle><circle cx="500" cy="118" r="2"></circle><circle cx="512" cy="117" r="2"></circle><circle cx="523" cy="115" r="2"></circle><circle cx="534" cy="112" r="2"></circle><circle cx="546" cy="110" r="2"></circle><circle cx="557" cy="109" r="2"></circle><circle cx="568" cy="109" r="2"></circle><circle cx="579" cy="104" r="2"></circle><circle cx="591" cy="105" r="2"></circle><circle cx="602" cy="100" r="2"></circle><circle cx="613" cy="99" r="2"></circle><circle cx="625" cy="98" r="2"></circle><circle cx="636" cy="96" r="2"></circle><circle cx="647" cy="95" r="2"></circle><circle cx="658" cy="92" r="2"></circle><circle cx="670" cy="92" r="2"></circle><circle cx="681" cy="90" r="2"></circle><circle cx="692" cy="88" r="2"></circle><circle cx="704" cy="88" r="2"></circle></g></g></g></g></g><g class="SourcesFooter" style="fill:#777"><g class="clickable" style="fill:#777"><text font-size="12.60" x="15.0" y="581.6"><tspan x="15" y="581.58">Source: OECD (2018)</tspan></text></g><text font-size="12.60" x="775.4" y="581.6"><tspan x="775.402" y="581.58"><a style="fill: #777;" class="cclogo" href="http://creativecommons.org/licenses/by-sa/4.0/deed.en_US" target="_blank">CC BY-SA</a></tspan></text></g></g></svg>