<svg xmlns="http://www.w3.org/2000/svg" version="1.1" style="font-family:&#x27;Helvetica Neue&#x27;, Helvetica, Arial, sans-serif;font-size:18px;background-color:white;text-rendering:optimizeLegibility;-webkit-font-smoothing:antialiased" width="850" height="600"><g class="ChartTab"><g class="HeaderView"><g opacity="0.8" transform="translate(778, 15) scale(0.27)"><a xmlns:xlink="http://www.w3.org/1999/xlink" xlink:href="https://ourworldindata.org" target="_blank"><g><rect x="0" y="0" fill="#1B2543" width="211.2" height="130.1"/><rect x="0" y="112.2" fill="#E63912" width="211.2" height="17.9"/><g><rect x="1.2" y="12.3" fill="none" width="210.2" height="99.2"/><path fill="#FFFFFF" d="M37.8,32.2c0,12.7-7.7,19.4-17.1,19.4c-9.7,0-16.6-7.5-16.6-18.7c0-11.7,7.3-19.3,17.1-19.3 C31.3,13.7,37.8,21.3,37.8,32.2z M9.2,32.8c0,7.9,4.3,14.9,11.8,14.9c7.5,0,11.8-6.9,11.8-15.3c0-7.3-3.8-14.9-11.8-14.9 C13.1,17.5,9.2,24.8,9.2,32.8z"/><path fill="#FFFFFF" d="M62.7,43.8c0,2.7,0.1,5.1,0.2,7.2h-4.3l-0.3-4.3h-0.1c-1.3,2.1-4,4.9-8.8,4.9c-4.2,0-9.1-2.3-9.1-11.6 V24.6h4.8v14.6c0,5,1.5,8.4,5.9,8.4c3.2,0,5.5-2.2,6.3-4.4c0.3-0.7,0.4-1.6,0.4-2.5V24.6h4.8V43.8z"/><path fill="#FFFFFF" d="M67.3,32.8c0-3.1-0.1-5.8-0.2-8.2h4.2l0.2,5.2h0.2c1.2-3.5,4.1-5.8,7.3-5.8c0.5,0,0.9,0.1,1.4,0.2v4.5 c-0.5-0.1-1-0.2-1.6-0.2c-3.4,0-5.8,2.6-6.5,6.2c-0.1,0.7-0.2,1.4-0.2,2.2V51h-4.8V32.8z"/><path fill="#FFFFFF" d="M95.4,51l-9.4-36.8h5l4.4,18.6c1.1,4.6,2.1,9.2,2.7,12.7h0.1c0.6-3.7,1.8-8,3-12.8l4.9-18.5h5l4.5,18.7 c1,4.4,2,8.7,2.6,12.6h0.1c0.8-4,1.8-8.1,3-12.7l4.9-18.5h4.9L120.6,51h-5L111,31.9c-1.1-4.7-1.9-8.3-2.4-12h-0.1 c-0.7,3.7-1.5,7.3-2.8,12L100.4,51H95.4z"/><path fill="#FFFFFF" d="M154.9,37.6c0,9.8-6.8,14-13.2,14c-7.2,0-12.7-5.2-12.7-13.6c0-8.8,5.8-14,13.1-14 C149.8,24,154.9,29.5,154.9,37.6z M133.9,37.9c0,5.8,3.3,10.1,8,10.1c4.6,0,8-4.3,8-10.3c0-4.5-2.2-10.1-7.9-10.1 C136.3,27.6,133.9,32.8,133.9,37.9z"/><path fill="#FFFFFF" d="M158.2,32.8c0-3.1-0.1-5.8-0.2-8.2h4.2l0.2,5.2h0.2c1.2-3.5,4.1-5.8,7.3-5.8c0.5,0,0.9,0.1,1.4,0.2v4.5 c-0.5-0.1-1-0.2-1.6-0.2c-3.4,0-5.8,2.6-6.5,6.2c-0.1,0.7-0.2,1.4-0.2,2.2V51h-4.8V32.8z"/><path fill="#FFFFFF" d="M173.5,12.3h4.8V51h-4.8V12.3z"/><path fill="#FFFFFF" d="M206.5,12.3v31.9c0,2.3,0.1,5,0.2,6.8h-4.3l-0.2-4.6H202c-1.5,2.9-4.7,5.2-9,5.2 c-6.4,0-11.3-5.4-11.3-13.4c-0.1-8.8,5.4-14.2,11.9-14.2c4,0,6.8,1.9,8,4h0.1V12.3H206.5z M201.7,35.4c0-0.6-0.1-1.4-0.2-2 c-0.7-3.1-3.3-5.6-6.9-5.6c-5,0-7.9,4.4-7.9,10.2c0,5.3,2.6,9.8,7.8,9.8c3.2,0,6.2-2.1,7.1-5.7c0.2-0.7,0.2-1.3,0.2-2.1V35.4z"/><path fill="#FFFFFF" d="M42.8,64c0.1,1.6-1.1,2.9-3.1,2.9c-1.7,0-2.9-1.3-2.9-2.9c0-1.7,1.3-3,3-3C41.7,61,42.8,62.3,42.8,64z M37.4,97.8V71.4h4.8v26.4H37.4z"/><path fill="#FFFFFF" d="M47.5,78.6c0-2.7-0.1-5-0.2-7.1h4.3l0.3,4.4h0.1c1.3-2.5,4.4-5,8.8-5c3.7,0,9.4,2.2,9.4,11.2v15.8h-4.8 V82.6c0-4.3-1.6-7.8-6.1-7.8c-3.2,0-5.6,2.2-6.5,4.9c-0.2,0.6-0.3,1.4-0.3,2.2v15.9h-4.8V78.6z"/><path fill="#FFFFFF" d="M84,61.6c2.9-0.4,6.3-0.8,10.1-0.8c6.8,0,11.7,1.6,14.9,4.6c3.3,3,5.2,7.3,5.2,13.2c0,6-1.9,10.9-5.3,14.3 c-3.4,3.4-9.1,5.3-16.3,5.3c-3.4,0-6.2-0.2-8.6-0.4V61.6z M88.8,94.1c1.2,0.2,3,0.3,4.8,0.3c10.2,0,15.7-5.7,15.7-15.6 c0.1-8.7-4.9-14.2-14.9-14.2c-2.5,0-4.3,0.2-5.6,0.5V94.1z"/><path fill="#FFFFFF" d="M132.1,97.8l-0.4-3.3h-0.2c-1.5,2.1-4.3,3.9-8.1,3.9c-5.4,0-8.1-3.8-8.1-7.6c0-6.4,5.7-9.9,15.9-9.8v-0.5 c0-2.2-0.6-6.1-6-6.1c-2.5,0-5,0.8-6.9,2l-1.1-3.2c2.2-1.4,5.4-2.3,8.7-2.3c8.1,0,10.1,5.5,10.1,10.8v9.9c0,2.3,0.1,4.5,0.4,6.3 H132.1z M131.4,84.4c-5.3-0.1-11.2,0.8-11.2,5.9c0,3.1,2.1,4.6,4.5,4.6c3.4,0,5.6-2.2,6.4-4.4c0.2-0.5,0.3-1,0.3-1.5V84.4z"/><path fill="#FFFFFF" d="M146.6,63.9v7.6h6.9v3.7h-6.9v14.2c0,3.3,0.9,5.1,3.6,5.1c1.3,0,2.2-0.2,2.8-0.3l0.2,3.6 c-0.9,0.4-2.4,0.7-4.3,0.7c-2.2,0-4-0.7-5.2-2c-1.4-1.4-1.9-3.8-1.9-6.9V75.1h-4.1v-3.7h4.1v-6.3L146.6,63.9z"/><path fill="#FFFFFF" d="M171.4,97.8l-0.4-3.3h-0.2c-1.5,2.1-4.3,3.9-8.1,3.9c-5.4,0-8.1-3.8-8.1-7.6c0-6.4,5.7-9.9,15.9-9.8v-0.5 c0-2.2-0.6-6.1-6-6.1c-2.5,0-5,0.8-6.9,2l-1.1-3.2c2.2-1.4,5.4-2.3,8.7-2.3c8.1,0,10.1,5.5,10.1,10.8v9.9c0,2.3,0.1,4.5,0.4,6.3 H171.4z M170.7,84.4c-5.3-0.1-11.2,0.8-11.2,5.9c0,3.1,2.1,4.6,4.5,4.6c3.4,0,5.6-2.2,6.4-4.4c0.2-0.5,0.3-1,0.3-1.5V84.4z"/></g></g></a></g><a href="https://ourworldindata.org/grapher/literacy-rate-adult-total-dhs-surveys-vs-unesco" target="_blank"><text font-size="24.30" x="15.0" y="34.4" fill="#555"><tspan x="15" y="34.44">Literacy rates, one-sentence test  vs official estimate, 2015</tspan></text></a><text font-size="14.40" x="15.0" y="52.8" fill="#666"><tspan x="15" y="52.81999999999999">The one-sentence test corresponds to data from DHS surveys. Specifically, the percentage of survey respondents,</tspan><tspan x="15" y="68.66">aged 15 and above, who can read a whole or part of a sentence showed to them. The official estimate corresponds to</tspan><tspan x="15" y="84.5">the UNESCO literacy rate. In most countries this correspond to the percentage of people, aged 15 and above, who</tspan><tspan x="15" y="100.34">say they can read and write with understanding a short simple statement about their everyday life. </tspan></text></g><g><g class="AxisBoxView"><g class="HorizontalAxis"><text font-size="12.60" x="171.6" y="554.0"><tspan x="171.59" y="553.98">Literacy rate, adult total (% of people ages 15 and above) - UNESCO</tspan></text><text x="75.2" y="533.9" fill="#666" text-anchor="middle" font-size="16.2">0%</text><text x="206.8" y="533.9" fill="#666" text-anchor="middle" font-size="16.2">20%</text><text x="338.3" y="533.9" fill="#666" text-anchor="middle" font-size="16.2">40%</text><text x="469.9" y="533.9" fill="#666" text-anchor="middle" font-size="16.2">60%</text><text x="601.5" y="533.9" fill="#666" text-anchor="middle" font-size="16.2">80%</text></g><g class="VerticalAxis"><text font-size="12.60" x="-516.4" y="25.1" transform="rotate(-90)"><tspan x="-516.443" y="25.080000000000002">Literacy rate, adult total (% of total respondents) - DHS surveys</tspan></text><text x="70.16" y="512.7" fill="#666" dominant-baseline="middle" text-anchor="end" font-size="16.2">0%</text><text x="70.16" y="433.3" fill="#666" dominant-baseline="middle" text-anchor="end" font-size="16.2">20%</text><text x="70.16" y="354" fill="#666" dominant-baseline="middle" text-anchor="end" font-size="16.2">40%</text><text x="70.16" y="274.6" fill="#666" dominant-baseline="middle" text-anchor="end" font-size="16.2">60%</text><text x="70.16" y="195.3" fill="#666" dominant-baseline="middle" text-anchor="end" font-size="16.2">80%</text></g><g class="AxisGridLines"><line x1="75.16" y1="512.7" x2="715.00" y2="512.7" stroke="#ccc"></line><line x1="75.16" y1="433.3" x2="715.00" y2="433.3" stroke="#ddd" stroke-dasharray="3,2"></line><line x1="75.16" y1="354" x2="715.00" y2="354" stroke="#ddd" stroke-dasharray="3,2"></line><line x1="75.16" y1="274.6" x2="715.00" y2="274.6" stroke="#ddd" stroke-dasharray="3,2"></line><line x1="75.16" y1="195.3" x2="715.00" y2="195.3" stroke="#ddd" stroke-dasharray="3,2"></line></g><g class="AxisGridLines"><line x1="75.2" y1="512.70" x2="75.2" y2="122.20" stroke="#ccc"></line><line x1="206.8" y1="512.70" x2="206.8" y2="122.20" stroke="#ddd" stroke-dasharray="3,2"></line><line x1="338.3" y1="512.70" x2="338.3" y2="122.20" stroke="#ddd" stroke-dasharray="3,2"></line><line x1="469.9" y1="512.70" x2="469.9" y2="122.20" stroke="#ddd" stroke-dasharray="3,2"></line><line x1="601.5" y1="512.70" x2="601.5" y2="122.20" stroke="#ddd" stroke-dasharray="3,2"></line></g></g><g class="ComparisonLine"><defs><clipPath id="axisBounds-261"><rect x="75.162" y="122.19999999999999" width="639.838" height="390.5"></rect></clipPath></defs><path d="M75.2,512.7L81.6,508.8L88,505L94.4,501.1L100.8,497.3L107.2,493.4L113.6,489.6L120,485.7L126.3,481.8L132.7,478L139.1,474.1L145.5,470.3L151.9,466.4L158.3,462.5L164.7,458.7L171.1,454.8L177.5,451L183.9,447.1L190.3,443.3L196.7,439.4L203.1,435.5L209.5,431.7L215.9,427.8L222.3,424L228.7,420.1L235.1,416.2L241.5,412.4L247.9,408.5L254.3,404.7L260.7,400.8L267.1,397L273.5,393.1L279.9,389.2L286.3,385.4L292.7,381.5L299.1,377.7L305.5,373.8L311.9,369.9L318.3,366.1L324.7,362.2L331.1,358.4L337.5,354.5L343.9,350.7L350.3,346.8L356.7,342.9L363.1,339.1L369.5,335.2L375.9,331.4L382.3,327.5L388.7,323.6L395.1,319.8L401.5,315.9L407.9,312.1L414.3,308.2L420.7,304.4L427.1,300.5L433.5,296.6L439.9,292.8L446.3,288.9L452.7,285.1L459.1,281.2L465.5,277.3L471.9,273.5L478.3,269.6L484.7,265.8L491.1,261.9L497.5,258.1L503.9,254.2L510.3,250.3L516.7,246.5L523,242.6L529.4,238.8L535.8,234.9L542.2,231L548.6,227.2L555,223.3L561.4,219.5L567.8,215.6L574.2,211.8L580.6,207.9L587,204L593.4,200.2L599.8,196.3L606.2,192.5L612.6,188.6L619,184.7L625.4,180.9L631.8,177L638.2,173.2L644.6,169.3L651,165.5L657.4,161.6L663.8,157.7L670.2,153.9L676.6,150L683,146.2L689.4,142.3L695.8,138.4L702.2,134.6L708.6,130.7" clip-path="url(#axisBounds-261)" fill="none" stroke="#ccc"></path></g><g class="PointsWithLabels clickable" clip-path="url(#scatterBounds-262)" font-family="Arial Narrow, Arial, sans-serif"><rect x="75.162" y="122.19999999999999" width="639.838" height="390.5" fill="rgba(255,255,255,0)"></rect><defs><clipPath id="scatterBounds-262"><rect x="65.162" y="112.19999999999999" width="659.838" height="410.5"></rect></clipPath></defs><g class="key-India_0"><circle cx="531.00" cy="232.00" r="17.84" fill="#d14e5b" opacity="0.8" stroke="#333" stroke-width="0.7"></circle></g><g class="key-Indonesia_0"><circle cx="701.00" cy="143.00" r="8.02" fill="#d14e5b" opacity="0.8" stroke="#333" stroke-width="0.7"></circle></g><g class="key-Pakistan_0"><circle cx="450.00" cy="318.00" r="6.96" fill="#d14e5b" opacity="0.8" stroke="#333" stroke-width="0.7"></circle></g><g class="key-Nigeria_0"><circle cx="411.00" cy="274.00" r="6.74" fill="#5675c1" opacity="0.8" stroke="#333" stroke-width="0.7"></circle></g><g class="key-Bangladesh_0"><circle cx="553.00" cy="251.00" r="6.43" fill="#d14e5b" opacity="0.8" stroke="#333" stroke-width="0.7"></circle></g><g class="key-Philippines_0"><circle cx="709.00" cy="128.00" r="5.23" fill="#d14e5b" opacity="0.8" stroke="#fff" stroke-width="0.7"></circle></g><g class="key-Ethiopia_0"><circle cx="331.00" cy="287.00" r="5.00" fill="#5675c1" opacity="0.8" stroke="#333" stroke-width="0.7"></circle></g><g class="key-Egypt_0"><circle cx="569.00" cy="213.00" r="4.92" fill="#5675c1" opacity="0.8" stroke="#333" stroke-width="0.7"></circle></g><g class="key-Democratic-Republic-of-Congo_0"><circle cx="582.00" cy="241.00" r="4.56" fill="#5675c1" opacity="0.8" stroke="#fff" stroke-width="0.7"></circle></g><g class="key-Tanzania_0"><circle cx="587.00" cy="203.00" r="3.91" fill="#5675c1" opacity="0.8" stroke="#fff" stroke-width="0.7"></circle></g><g class="key-Myanmar_0"><circle cx="572.00" cy="170.00" r="3.91" fill="#d14e5b" opacity="0.8" stroke="#333" stroke-width="0.7"></circle></g><g class="key-Kenya_0"><circle cx="593.00" cy="180.00" r="3.74" fill="#5675c1" opacity="0.8" stroke="#fff" stroke-width="0.7"></circle></g><g class="key-Uganda_0"><circle cx="537.00" cy="240.00" r="3.50" fill="#5675c1" opacity="0.8" stroke="#fff" stroke-width="0.7"></circle></g><g class="key-Afghanistan_0"><circle cx="284.00" cy="420.00" r="3.42" fill="#d14e5b" opacity="0.8" stroke="#333" stroke-width="0.7"></circle></g><g class="key-Nepal_0"><circle cx="467.00" cy="215.00" r="3.31" fill="#d14e5b" opacity="0.8" stroke="#333" stroke-width="0.7"></circle></g><g class="key-Peru_0"><circle cx="694.00" cy="143.00" r="3.25" fill="#69c487" opacity="0.8" stroke="#fff" stroke-width="0.7"></circle></g><g class="key-Ghana_0"><circle cx="545.00" cy="310.00" r="3.10" fill="#5675c1" opacity="0.8" stroke="#333" stroke-width="0.7"></circle></g><g class="key-Mozambique_0"><circle cx="408.00" cy="301.00" r="3.06" fill="#5675c1" opacity="0.8" stroke="#333" stroke-width="0.7"></circle></g><g class="key-Madagascar_0"><circle cx="546.00" cy="230.00" r="2.95" fill="#5675c1" opacity="0.8" stroke="#333" stroke-width="0.7"></circle></g><g class="key-Cote-d__0027Ivoire_0"><circle cx="364.00" cy="346.00" r="2.89" fill="#5675c1" opacity="0.8" stroke="#333" stroke-width="0.7"></circle></g><g class="key-Cameroon_0"><circle cx="544.00" cy="213.00" r="2.88" fill="#5675c1" opacity="0.8" stroke="#fff" stroke-width="0.7"></circle></g><g class="key-Angola_0"><circle cx="509.00" cy="270.00" r="2.88" fill="#5675c1" opacity="0.8" stroke="#333" stroke-width="0.7"></circle></g><g class="key-Burkina-Faso_0"><circle cx="302.00" cy="403.00" r="2.76" fill="#5675c1" opacity="0.8" stroke="#333" stroke-width="0.7"></circle></g><g class="key-Niger_0"><circle cx="176.00" cy="413.00" r="2.72" fill="#5675c1" opacity="0.8" stroke="#333" stroke-width="0.7"></circle></g><g class="key-Mali_0"><circle cx="292.00" cy="409.00" r="2.70" fill="#5675c1" opacity="0.8" stroke="#fff" stroke-width="0.7"></circle></g><g class="key-Malawi_0"><circle cx="484.00" cy="208.00" r="2.68" fill="#5675c1" opacity="0.8" stroke="#fff" stroke-width="0.7"></circle></g><g class="key-Guatemala_0"><circle cx="610.00" cy="169.00" r="2.64" fill="#4d824b" opacity="0.8" stroke="#fff" stroke-width="0.7"></circle></g><g class="key-Cambodia_0"><circle cx="561.00" cy="199.00" r="2.60" fill="#d14e5b" opacity="0.8" stroke="#333" stroke-width="0.7"></circle></g><g class="key-Zambia_0"><circle cx="621.00" cy="215.00" r="2.59" fill="#5675c1" opacity="0.8" stroke="#333" stroke-width="0.7"></circle></g><g class="key-Senegal_0"><circle cx="356.00" cy="352.00" r="2.54" fill="#5675c1" opacity="0.8" stroke="#fff" stroke-width="0.7"></circle></g><g class="key-Zimbabwe_0"><circle cx="658.00" cy="137.00" r="2.54" fill="#5675c1" opacity="0.8" stroke="#fff" stroke-width="0.7"></circle></g><g class="key-Chad_0"><circle cx="246.00" cy="410.00" r="2.48" fill="#5675c1" opacity="0.8" stroke="#333" stroke-width="0.7"></circle></g><g class="key-Rwanda_0"><circle cx="524.00" cy="193.00" r="2.45" fill="#5675c1" opacity="0.8" stroke="#fff" stroke-width="0.7"></circle></g><g class="key-Guinea_0"><circle cx="285.00" cy="385.00" r="2.41" fill="#5675c1" opacity="0.8" stroke="#333" stroke-width="0.7"></circle></g><g class="key-Bolivia_0"><circle cx="683.00" cy="138.00" r="2.39" fill="#69c487" opacity="0.8" stroke="#fff" stroke-width="0.7"></circle></g><g class="key-Haiti_0"><circle cx="395.00" cy="226.00" r="2.39" fill="#4d824b" opacity="0.8" stroke="#333" stroke-width="0.7"></circle></g><g class="key-Dominican-Republic_0"><circle cx="680.00" cy="159.00" r="2.39" fill="#4d824b" opacity="0.8" stroke="#fff" stroke-width="0.7"></circle></g><g class="key-Benin_0"><circle cx="291.00" cy="364.00" r="2.35" fill="#5675c1" opacity="0.8" stroke="#333" stroke-width="0.7"></circle></g><g class="key-Burundi_0"><circle cx="480.00" cy="225.00" r="2.31" fill="#5675c1" opacity="0.8" stroke="#fff" stroke-width="0.7"></circle></g><g class="key-Honduras_0"><circle cx="653.00" cy="154.00" r="2.27" fill="#4d824b" opacity="0.8" stroke="#333" stroke-width="0.7"></circle></g><g class="key-Togo_0"><circle cx="494.00" cy="284.00" r="2.18" fill="#5675c1" opacity="0.8" stroke="#333" stroke-width="0.7"></circle></g><g class="key-Sierra-Leone_0"><circle cx="288.00" cy="373.00" r="2.17" fill="#5675c1" opacity="0.8" stroke="#fff" stroke-width="0.7"></circle></g><g class="key-Liberia_0"><circle cx="357.00" cy="328.00" r="2.06" fill="#5675c1" opacity="0.8" stroke="#333" stroke-width="0.7"></circle></g><g class="key-Congo_0"><circle cx="597.00" cy="200.00" r="2.05" fill="#5675c1" opacity="0.8" stroke="#fff" stroke-width="0.7"></circle></g><g class="key-Albania_0"><circle cx="715.00" cy="122.00" r="1.99" fill="#ffd336" opacity="0.8" stroke="#fff" stroke-width="0.7"></circle></g><g class="key-Namibia_0"><circle cx="656.00" cy="153.00" r="1.93" fill="#5675c1" opacity="0.8" stroke="#fff" stroke-width="0.7"></circle></g><g class="key-Lesotho_0"><circle cx="579.00" cy="146.00" r="1.92" fill="#5675c1" opacity="0.8" stroke="#333" stroke-width="0.7"></circle></g><g class="key-Gambia_0"><circle cx="351.00" cy="323.00" r="1.90" fill="#5675c1" opacity="0.8" stroke="#fff" stroke-width="0.7"></circle></g><g class="key-Gabon_0"><circle cx="616.00" cy="169.00" r="1.88" fill="#5675c1" opacity="0.8" stroke="#fff" stroke-width="0.7"></circle></g><g class="key-Swaziland_0"><circle cx="621.00" cy="151.00" r="1.86" fill="#5675c1" opacity="0.8" stroke="#fff" stroke-width="0.7"></circle></g><g class="key-Comoros_0"><circle cx="398.00" cy="237.00" r="1.83" fill="#5675c1" opacity="0.8" stroke="#333" stroke-width="0.7"></circle></g><g class="key-Guyana_0"><circle cx="638.00" cy="141.00" r="1.83" fill="#69c487" opacity="0.8" stroke="#fff" stroke-width="0.7"></circle></g><g class="key-Sao-Tome-and-Principe_0"><circle cx="668.00" cy="166.00" r="1.79" fill="#5675c1" opacity="0.8" stroke="#fff" stroke-width="0.7"></circle></g><g class="key-Timor_0"><circle cx="458.00" cy="210.00" r="1.77" fill="#d14e5b" opacity="0.8" stroke="#fff" stroke-width="0.7"></circle></g><g class="backgroundLabels" fill="#333"><text x="531.00" y="213.16" font-size="14.30">India</text><text x="650.25" y="133.98" font-size="11.64">Indonesia</text><text x="450.00" y="310.04" font-size="11.47">Pakistan</text><text x="411.00" y="266.26" font-size="11.44">Nigeria</text><text x="553.00" y="243.57" font-size="11.40">Bangladesh</text><text x="331.00" y="281.00" font-size="11.23">Ethiopia</text><text x="569.00" y="207.08" font-size="11.22">Egypt</text><text x="572.00" y="165.09" font-size="11.13">Myanmar</text><text x="284.00" y="415.58" font-size="11.09">Afghanistan</text><text x="467.00" y="210.69" font-size="11.08">Nepal</text><text x="545.00" y="305.90" font-size="11.07">Ghana</text><text x="408.00" y="296.94" font-size="11.06">Mozambique</text><text x="546.00" y="226.05" font-size="11.06">Madagascar</text><text x="364.00" y="342.11" font-size="11.05">Cote d&#x27;Ivoire</text><text x="509.00" y="266.12" font-size="11.05">Angola</text><text x="302.00" y="399.24" font-size="11.05">Burkina Faso</text><text x="176.00" y="409.28" font-size="11.04">Niger</text><text x="561.00" y="195.40" font-size="11.04">Cambodia</text><text x="621.00" y="211.41" font-size="11.04">Zambia</text><text x="246.00" y="406.52" font-size="11.03">Chad</text><text x="285.00" y="381.59" font-size="11.03">Guinea</text><text x="395.00" y="222.61" font-size="11.03">Haiti</text><text x="291.00" y="360.65" font-size="11.02">Benin</text><text x="653.00" y="150.73" font-size="11.02">Honduras</text><text x="494.00" y="280.82" font-size="11.02">Togo</text><text x="357.00" y="324.94" font-size="11.01">Liberia</text><text x="579.00" y="143.08" font-size="11.01">Lesotho</text><text x="398.00" y="234.17" font-size="11.00">Comoros</text></g></g><g class="ScatterColorLegend clickable" style="cursor:pointer"><g class="legendMark"><rect x="735" y="119.69999999999999" width="43.256" height="17.6" fill="#fff" opacity="0"></rect>,<rect x="735" y="125.19999999999999" width="6" height="6" fill="#5675c1"></rect>,<text font-size="12.60" x="746.0" y="132.3"><tspan x="746" y="132.27999999999997">Africa</tspan></text></g><g class="legendMark"><rect x="735" y="137.29999999999998" width="35.57" height="17.6" fill="#fff" opacity="0"></rect>,<rect x="735" y="142.79999999999998" width="6" height="6" fill="#d14e5b"></rect>,<text font-size="12.60" x="746.0" y="149.9"><tspan x="746" y="149.87999999999997">Asia</tspan></text></g><g class="legendMark"><rect x="735" y="154.89999999999998" width="51.824" height="17.6" fill="#fff" opacity="0"></rect>,<rect x="735" y="160.39999999999998" width="6" height="6" fill="#ffd336"></rect>,<text font-size="12.60" x="746.0" y="167.5"><tspan x="746" y="167.47999999999996">Europe</tspan></text></g><g class="legendMark"><rect x="735" y="172.5" width="91.64" height="17.6" fill="#fff" opacity="0"></rect>,<rect x="735" y="178" width="6" height="6" fill="#4d824b"></rect>,<text font-size="12.60" x="746.0" y="185.1"><tspan x="746" y="185.07999999999998">North America</tspan></text></g><g class="legendMark"><rect x="735" y="190.1" width="93.908" height="17.6" fill="#fff" opacity="0"></rect>,<rect x="735" y="195.6" width="6" height="6" fill="#69c487"></rect>,<text font-size="12.60" x="746.0" y="202.7"><tspan x="746" y="202.67999999999998">South America</tspan></text></g></g></g><g class="SourcesFooter" style="fill:#777"><g class="clickable" style="fill:#777"><text font-size="12.60" x="15.0" y="581.6"><tspan x="15" y="581.58">Source: DHS Surveys, World Bank</tspan></text></g><text font-size="12.60" x="775.4" y="581.6"><tspan x="775.402" y="581.58"><a style="fill: #777;" class="cclogo" href="http://creativecommons.org/licenses/by-sa/4.0/deed.en_US" target="_blank">CC BY-SA</a></tspan></text></g></g></svg>