<svg xmlns="http://www.w3.org/2000/svg" version="1.1" style="font-family: 'Helvetica Neue', Helvetica, Arial, sans-serif; font-size: 16px; background-color: white; text-rendering: optimizeLegibility; -webkit-font-smoothing: antialiased;" width="850" height="600"><g class="ChartTab"><g class="HeaderView"><g opacity="0.8" transform="translate(770, 15) scale(0.31)"><a xmlns:xlink="http://www.w3.org/1999/xlink" xlink:href="https://ourworldindata.org" target="_blank"><g><rect x="0" y="0" fill="#1B2543" width="211.2" height="130.1"/><rect x="0" y="112.2" fill="#E63912" width="211.2" height="17.9"/><g><rect x="1.2" y="12.3" fill="none" width="210.2" height="99.2"/><path fill="#FFFFFF" d="M37.8,32.2c0,12.7-7.7,19.4-17.1,19.4c-9.7,0-16.6-7.5-16.6-18.7c0-11.7,7.3-19.3,17.1-19.3 C31.3,13.7,37.8,21.3,37.8,32.2z M9.2,32.8c0,7.9,4.3,14.9,11.8,14.9c7.5,0,11.8-6.9,11.8-15.3c0-7.3-3.8-14.9-11.8-14.9 C13.1,17.5,9.2,24.8,9.2,32.8z"/><path fill="#FFFFFF" d="M62.7,43.8c0,2.7,0.1,5.1,0.2,7.2h-4.3l-0.3-4.3h-0.1c-1.3,2.1-4,4.9-8.8,4.9c-4.2,0-9.1-2.3-9.1-11.6 V24.6h4.8v14.6c0,5,1.5,8.4,5.9,8.4c3.2,0,5.5-2.2,6.3-4.4c0.3-0.7,0.4-1.6,0.4-2.5V24.6h4.8V43.8z"/><path fill="#FFFFFF" d="M67.3,32.8c0-3.1-0.1-5.8-0.2-8.2h4.2l0.2,5.2h0.2c1.2-3.5,4.1-5.8,7.3-5.8c0.5,0,0.9,0.1,1.4,0.2v4.5 c-0.5-0.1-1-0.2-1.6-0.2c-3.4,0-5.8,2.6-6.5,6.2c-0.1,0.7-0.2,1.4-0.2,2.2V51h-4.8V32.8z"/><path fill="#FFFFFF" d="M95.4,51l-9.4-36.8h5l4.4,18.6c1.1,4.6,2.1,9.2,2.7,12.7h0.1c0.6-3.7,1.8-8,3-12.8l4.9-18.5h5l4.5,18.7 c1,4.4,2,8.7,2.6,12.6h0.1c0.8-4,1.8-8.1,3-12.7l4.9-18.5h4.9L120.6,51h-5L111,31.9c-1.1-4.7-1.9-8.3-2.4-12h-0.1 c-0.7,3.7-1.5,7.3-2.8,12L100.4,51H95.4z"/><path fill="#FFFFFF" d="M154.9,37.6c0,9.8-6.8,14-13.2,14c-7.2,0-12.7-5.2-12.7-13.6c0-8.8,5.8-14,13.1-14 C149.8,24,154.9,29.5,154.9,37.6z M133.9,37.9c0,5.8,3.3,10.1,8,10.1c4.6,0,8-4.3,8-10.3c0-4.5-2.2-10.1-7.9-10.1 C136.3,27.6,133.9,32.8,133.9,37.9z"/><path fill="#FFFFFF" d="M158.2,32.8c0-3.1-0.1-5.8-0.2-8.2h4.2l0.2,5.2h0.2c1.2-3.5,4.1-5.8,7.3-5.8c0.5,0,0.9,0.1,1.4,0.2v4.5 c-0.5-0.1-1-0.2-1.6-0.2c-3.4,0-5.8,2.6-6.5,6.2c-0.1,0.7-0.2,1.4-0.2,2.2V51h-4.8V32.8z"/><path fill="#FFFFFF" d="M173.5,12.3h4.8V51h-4.8V12.3z"/><path fill="#FFFFFF" d="M206.5,12.3v31.9c0,2.3,0.1,5,0.2,6.8h-4.3l-0.2-4.6H202c-1.5,2.9-4.7,5.2-9,5.2 c-6.4,0-11.3-5.4-11.3-13.4c-0.1-8.8,5.4-14.2,11.9-14.2c4,0,6.8,1.9,8,4h0.1V12.3H206.5z M201.7,35.4c0-0.6-0.1-1.4-0.2-2 c-0.7-3.1-3.3-5.6-6.9-5.6c-5,0-7.9,4.4-7.9,10.2c0,5.3,2.6,9.8,7.8,9.8c3.2,0,6.2-2.1,7.1-5.7c0.2-0.7,0.2-1.3,0.2-2.1V35.4z"/><path fill="#FFFFFF" d="M42.8,64c0.1,1.6-1.1,2.9-3.1,2.9c-1.7,0-2.9-1.3-2.9-2.9c0-1.7,1.3-3,3-3C41.7,61,42.8,62.3,42.8,64z M37.4,97.8V71.4h4.8v26.4H37.4z"/><path fill="#FFFFFF" d="M47.5,78.6c0-2.7-0.1-5-0.2-7.1h4.3l0.3,4.4h0.1c1.3-2.5,4.4-5,8.8-5c3.7,0,9.4,2.2,9.4,11.2v15.8h-4.8 V82.6c0-4.3-1.6-7.8-6.1-7.8c-3.2,0-5.6,2.2-6.5,4.9c-0.2,0.6-0.3,1.4-0.3,2.2v15.9h-4.8V78.6z"/><path fill="#FFFFFF" d="M84,61.6c2.9-0.4,6.3-0.8,10.1-0.8c6.8,0,11.7,1.6,14.9,4.6c3.3,3,5.2,7.3,5.2,13.2c0,6-1.9,10.9-5.3,14.3 c-3.4,3.4-9.1,5.3-16.3,5.3c-3.4,0-6.2-0.2-8.6-0.4V61.6z M88.8,94.1c1.2,0.2,3,0.3,4.8,0.3c10.2,0,15.7-5.7,15.7-15.6 c0.1-8.7-4.9-14.2-14.9-14.2c-2.5,0-4.3,0.2-5.6,0.5V94.1z"/><path fill="#FFFFFF" d="M132.1,97.8l-0.4-3.3h-0.2c-1.5,2.1-4.3,3.9-8.1,3.9c-5.4,0-8.1-3.8-8.1-7.6c0-6.4,5.7-9.9,15.9-9.8v-0.5 c0-2.2-0.6-6.1-6-6.1c-2.5,0-5,0.8-6.9,2l-1.1-3.2c2.2-1.4,5.4-2.3,8.7-2.3c8.1,0,10.1,5.5,10.1,10.8v9.9c0,2.3,0.1,4.5,0.4,6.3 H132.1z M131.4,84.4c-5.3-0.1-11.2,0.8-11.2,5.9c0,3.1,2.1,4.6,4.5,4.6c3.4,0,5.6-2.2,6.4-4.4c0.2-0.5,0.3-1,0.3-1.5V84.4z"/><path fill="#FFFFFF" d="M146.6,63.9v7.6h6.9v3.7h-6.9v14.2c0,3.3,0.9,5.1,3.6,5.1c1.3,0,2.2-0.2,2.8-0.3l0.2,3.6 c-0.9,0.4-2.4,0.7-4.3,0.7c-2.2,0-4-0.7-5.2-2c-1.4-1.4-1.9-3.8-1.9-6.9V75.1h-4.1v-3.7h4.1v-6.3L146.6,63.9z"/><path fill="#FFFFFF" d="M171.4,97.8l-0.4-3.3h-0.2c-1.5,2.1-4.3,3.9-8.1,3.9c-5.4,0-8.1-3.8-8.1-7.6c0-6.4,5.7-9.9,15.9-9.8v-0.5 c0-2.2-0.6-6.1-6-6.1c-2.5,0-5,0.8-6.9,2l-1.1-3.2c2.2-1.4,5.4-2.3,8.7-2.3c8.1,0,10.1,5.5,10.1,10.8v9.9c0,2.3,0.1,4.5,0.4,6.3 H171.4z M170.7,84.4c-5.3-0.1-11.2,0.8-11.2,5.9c0,3.1,2.1,4.6,4.5,4.6c3.4,0,5.6-2.2,6.4-4.4c0.2-0.5,0.3-1,0.3-1.5V84.4z"/></g></g></a></g><a href="https://ourworldindata.org/grapher/livestock-counts" target="_blank"><text font-size="24.00" x="15.0" y="34.2" fill="#555"><tspan x="15" y="34.2">Livestock counts, World</tspan></text></a><text font-size="12.80" x="15.0" y="51.2" fill="#666"><tspan x="15" y="51.239999999999995">Total number of livestock animals, measured as the number of live animals in any given year. All figures are given as the number</tspan><tspan x="15" y="65.32">of heads, with exception to chicken and turkey figures which are reported in thousand heads.</tspan></text></g><g class="LineChart"><defs><clipPath id="boundsClip-6"><rect x="78.97600000000001" y="0" width="830" height="940.3999999999999"></rect></clipPath></defs><g class="AxisBoxView"><g class="HorizontalAxis"><text x="89" y="557.9" fill="#666" text-anchor="middle" font-size="14.4">1890</text><text x="137.1" y="557.9" fill="#666" text-anchor="middle" font-size="14.4">1900</text><text x="233.4" y="557.9" fill="#666" text-anchor="middle" font-size="14.4">1920</text><text x="329.6" y="557.9" fill="#666" text-anchor="middle" font-size="14.4">1940</text><text x="425.9" y="557.9" fill="#666" text-anchor="middle" font-size="14.4">1960</text><text x="522.2" y="557.9" fill="#666" text-anchor="middle" font-size="14.4">1980</text><text x="618.5" y="557.9" fill="#666" text-anchor="middle" font-size="14.4">2000</text><text x="685.8" y="557.9" fill="#666" text-anchor="middle" font-size="14.4">2014</text></g><g class="VerticalAxis"><text x="83.98" y="538.5" fill="#666" dominant-baseline="middle" text-anchor="end" font-size="14.4">0</text><text x="83.98" y="477.4" fill="#666" dominant-baseline="middle" text-anchor="end" font-size="14.4">200 million</text><text x="83.98" y="416.2" fill="#666" dominant-baseline="middle" text-anchor="end" font-size="14.4">400 million</text><text x="83.98" y="355.1" fill="#666" dominant-baseline="middle" text-anchor="end" font-size="14.4">600 million</text><text x="83.98" y="293.9" fill="#666" dominant-baseline="middle" text-anchor="end" font-size="14.4">800 million</text><text x="83.98" y="232.8" fill="#666" dominant-baseline="middle" text-anchor="end" font-size="14.4">1 billion</text><text x="83.98" y="171.6" fill="#666" dominant-baseline="middle" text-anchor="end" font-size="14.4">1.2 billion</text><text x="83.98" y="110.5" fill="#666" dominant-baseline="middle" text-anchor="end" font-size="14.4">1.4 billion</text></g><g class="AxisGridLines"><line x1="88.98" y1="538.5" x2="685.84" y2="538.5" stroke="#ccc"></line><line x1="88.98" y1="477.4" x2="685.84" y2="477.4" stroke="#ddd" stroke-dasharray="3,2"></line><line x1="88.98" y1="416.2" x2="685.84" y2="416.2" stroke="#ddd" stroke-dasharray="3,2"></line><line x1="88.98" y1="355.1" x2="685.84" y2="355.1" stroke="#ddd" stroke-dasharray="3,2"></line><line x1="88.98" y1="293.9" x2="685.84" y2="293.9" stroke="#ddd" stroke-dasharray="3,2"></line><line x1="88.98" y1="232.8" x2="685.84" y2="232.8" stroke="#ddd" stroke-dasharray="3,2"></line><line x1="88.98" y1="171.6" x2="685.84" y2="171.6" stroke="#ddd" stroke-dasharray="3,2"></line><line x1="88.98" y1="110.5" x2="685.84" y2="110.5" stroke="#ddd" stroke-dasharray="3,2"></line></g><g class="AxisGridLines"><line x1="137.1" y1="538.50" x2="137.1" y2="87.70" stroke="#ddd" stroke-dasharray="3,2"></line><line x1="233.4" y1="538.50" x2="233.4" y2="87.70" stroke="#ddd" stroke-dasharray="3,2"></line><line x1="329.6" y1="538.50" x2="329.6" y2="87.70" stroke="#ddd" stroke-dasharray="3,2"></line><line x1="425.9" y1="538.50" x2="425.9" y2="87.70" stroke="#ddd" stroke-dasharray="3,2"></line><line x1="522.2" y1="538.50" x2="522.2" y2="87.70" stroke="#ddd" stroke-dasharray="3,2"></line><line x1="618.5" y1="538.50" x2="618.5" y2="87.70" stroke="#ddd" stroke-dasharray="3,2"></line></g></g><g clip-path="url(#boundsClip-6)"><g class="HeightedLegend clickable"><g class="legendMark"><rect x="695.84" y="525.7" width="131.99200000000002" height="12.8" fill="#fff" opacity="0"></rect><rect x="695.84" y="530.85" width="10" height="2.5" fill="#3360a9"></rect><text font-size="12.80" x="710.8" y="535.9" fill="#333"><tspan x="710.84" y="535.94">Turkeys (thousands)</tspan></text></g><g class="legendMark"><rect x="695.84" y="512.9000000000001" width="49.176" height="12.8" fill="#fff" opacity="0"></rect><rect x="695.84" y="518.0500000000001" width="10" height="2.5" fill="#ca2628"></rect><text font-size="12.80" x="710.8" y="523.1" fill="#333"><tspan x="710.84" y="523.1400000000001">Mules</tspan></text></g><g class="legendMark"><rect x="695.84" y="500.10000000000014" width="139.16" height="12.8" fill="#fff" opacity="0"></rect><rect x="695.84" y="505.2500000000001" width="10" height="2.5" fill="#34983f"></rect><text font-size="12.80" x="710.8" y="510.3" fill="#333"><tspan x="710.84" y="510.3400000000001">Chickens (thousands)</tspan></text></g><g class="legendMark"><rect x="695.84" y="487.3000000000002" width="49.944" height="12.8" fill="#fff" opacity="0"></rect><rect x="695.84" y="492.45000000000016" width="10" height="2.5" fill="#f6a324"></rect><text font-size="12.80" x="710.8" y="497.5" fill="#333"><tspan x="710.84" y="497.5400000000002">Asses</tspan></text></g><g class="legendMark"><rect x="695.84" y="474.50000000000017" width="55.576" height="12.8" fill="#fff" opacity="0"></rect><rect x="695.84" y="479.65000000000015" width="10" height="2.5" fill="#a652ba"></rect><text font-size="12.80" x="710.8" y="484.7" fill="#333"><tspan x="710.84" y="484.7400000000002">Horses</tspan></text></g><g class="legendMark"><rect x="695.84" y="461.70000000000016" width="55.064" height="12.8" fill="#fff" opacity="0"></rect><rect x="695.84" y="466.85000000000014" width="10" height="2.5" fill="#2a939b"></rect><text font-size="12.80" x="710.8" y="471.9" fill="#333"><tspan x="710.84" y="471.94000000000017">Buffalo</tspan></text></g><g class="legendMark"><rect x="695.84" y="230.79999999999998" width="39.96" height="12.8" fill="#fff" opacity="0"></rect><rect x="695.84" y="235.95" width="10" height="2.5" fill="#e6332e"></rect><text font-size="12.80" x="710.8" y="241.0" fill="#333"><tspan x="710.84" y="241.04">Pigs</tspan></text></g><g class="legendMark"><rect x="695.84" y="217.99999999999997" width="49.304" height="12.8" fill="#fff" opacity="0"></rect><rect x="695.84" y="223.14999999999998" width="10" height="2.5" fill="#9ecc8a"></rect><text font-size="12.80" x="710.8" y="228.2" fill="#333"><tspan x="710.84" y="228.23999999999998">Goats</tspan></text></g><g class="legendMark"><rect x="695.84" y="166.6" width="52.248" height="12.8" fill="#fff" opacity="0"></rect><rect x="695.84" y="171.75" width="10" height="2.5" fill="#ffd53e"></rect><text font-size="12.80" x="710.8" y="176.8" fill="#333"><tspan x="710.84" y="176.84">Sheep</tspan></text></g><g class="legendMark"><rect x="695.84" y="81.3" width="48.536" height="12.8" fill="#fff" opacity="0"></rect><rect x="695.84" y="86.45" width="10" height="2.5" fill="#b077b1"></rect><text font-size="12.80" x="710.8" y="91.5" fill="#333"><tspan x="710.84" y="91.53999999999999">Cattle</tspan></text></g></g><g class="Lines"><rect x="89" y="88" width="597" height="451" fill="rgba(255,255,255,0)" opacity="0"></rect><g class="key-World_0"><path stroke="#f6a324" stroke-linecap="round" d="M89 536L137 535L185 534L233 533L282 531L330 531L378 529L431 527L436 528L440 528L445 528L450 527L455 527L460 527L464 527L469 527L474 527L479 526L484 526L489 527L493 526L498 526L503 526L508 527L513 527L517 527L522 527L527 527L532 526L537 526L541 526L546 526L551 526L556 526L561 525L566 525L570 525L575 525L580 525L585 526L590 526L594 525L599 526L604 526L609 526L614 526L619 526L623 526L628 526L633 526L638 526L643 526L647 526L652 525L657 526L662 525L667 525L671 525L676 525L681 526L686 525" fill="none" stroke-width="1.5"></path></g><g class="key-World_1"><path stroke="#2a939b" stroke-linecap="round" d="M89 525L137 524L185 522L233 521L282 519L330 517L378 514L431 512L436 511L440 511L445 510L450 510L455 508L460 508L464 507L469 506L474 506L479 505L484 505L489 505L493 504L498 504L503 504L508 503L513 503L517 502L522 501L527 501L532 500L537 499L541 498L546 497L551 495L556 495L561 495L566 494L570 493L575 493L580 492L585 491L590 491L594 490L599 490L604 490L609 489L614 489L619 488L623 488L628 487L633 486L638 485L643 484L647 483L652 482L657 482L662 481L667 481L671 480L676 480L681 480L686 479" fill="none" stroke-width="1.5"></path></g><g class="key-World_2"><path stroke="#b077b1" stroke-linecap="round" d="M89 413L137 401L185 380L233 357L282 335L330 327L378 303L431 251L436 246L440 242L445 237L450 230L455 224L460 218L464 213L469 211L474 208L479 203L484 196L489 190L493 182L498 175L503 172L508 170L513 170L517 168L522 166L527 163L532 159L537 157L541 155L546 153L551 151L556 151L561 150L566 144L570 142L575 142L580 141L585 141L590 138L594 137L599 139L604 139L609 141L614 141L619 140L623 138L628 132L633 127L638 120L643 114L647 108L652 102L657 98L662 96L667 94L671 95L676 91L681 91L686 88" fill="none" stroke-width="1.5"></path></g><g class="key-World_3"><path stroke="#9ecc8a" stroke-linecap="round" d="M89 497L137 493L185 485L233 482L282 468L330 466L378 457L431 432L436 427L440 425L445 426L450 426L455 426L460 425L464 423L469 423L474 423L479 422L484 421L489 421L493 418L498 415L503 411L508 409L513 404L517 399L522 397L527 394L532 391L537 388L541 391L546 390L551 386L556 379L561 372L566 363L570 358L575 357L580 354L585 352L590 343L594 334L599 331L604 326L609 320L614 314L619 309L623 303L628 297L633 289L638 279L643 269L647 266L652 255L657 250L662 248L667 246L671 245L676 240L681 236L686 229" fill="none" stroke-width="1.5"></path></g><g class="key-World_4"><path stroke="#a652ba" stroke-linecap="round" d="M89 509L137 507L185 505L233 505L282 506L330 513L378 516L431 520L436 520L440 521L445 521L450 521L455 520L460 520L464 520L469 520L474 520L479 520L484 520L489 520L493 520L498 520L503 520L508 520L513 520L517 520L522 520L527 520L532 520L537 520L541 520L546 520L551 520L556 520L561 520L566 520L570 520L575 520L580 520L585 520L590 520L594 520L599 520L604 521L609 521L614 521L619 521L623 521L628 521L633 521L638 521L643 520L647 520L652 520L657 520L662 520L667 520L671 520L676 521L681 521L686 521" fill="none" stroke-width="1.5"></path></g><g class="key-World_5"><path stroke="#ca2628" stroke-linecap="round" d="M89 538L137 538L185 538L233 538L282 537L330 537L378 537L431 535L436 535L440 535L445 535L450 535L455 535L460 535L464 535L469 535L474 535L479 535L484 535L489 535L493 535L498 534L503 534L508 534L513 534L517 534L522 535L527 535L532 534L537 534L541 534L546 534L551 534L556 534L561 534L566 534L570 534L575 534L580 534L585 534L590 534L594 534L599 534L604 535L609 535L614 535L619 535L623 535L628 535L633 535L638 535L643 535L647 535L652 535L657 535L662 535L667 535L671 535L676 535L681 535L686 535" fill="none" stroke-width="1.5"></path></g><g class="key-World_6"><path stroke="#e6332e" stroke-linecap="round" d="M89 484L137 479L185 473L233 475L282 463L330 460L378 462L431 414L436 409L440 402L445 398L450 387L455 382L460 371L464 371L469 374L474 371L479 349L484 334L489 329L493 328L498 329L503 330L508 321L513 313L517 305L522 295L527 300L532 303L537 301L541 298L546 296L551 286L556 283L561 285L566 280L570 279L575 277L580 277L585 279L590 279L594 280L599 283L604 285L609 283L614 278L619 277L623 277L628 274L633 272L638 272L643 268L647 262L652 258L657 256L662 251L667 241L671 242L676 242L681 240L686 237" fill="none" stroke-width="1.5"></path></g><g class="key-World_7"><path stroke="#ffd53e" stroke-linecap="round" d="M89 347L137 354L185 329L233 331L282 300L330 303L378 300L431 235L436 234L440 233L445 229L450 223L455 220L460 215L464 210L469 208L474 213L479 212L484 221L489 227L493 224L498 218L503 218L508 221L513 217L517 212L522 203L527 198L532 193L537 194L541 196L546 197L551 194L556 189L561 183L566 173L570 170L575 177L580 184L585 197L590 200L594 211L599 217L604 220L609 218L614 216L619 215L623 221L628 222L633 219L638 208L643 197L647 195L652 191L657 195L662 198L667 197L671 190L676 184L681 177L686 173" fill="none" stroke-width="1.5"></path></g><g class="key-World_9"><path stroke="#34983f" stroke-linecap="round" d="M431 537L436 537L440 537L445 537L450 537L455 537L460 537L464 537L469 537L474 537L479 537L484 537L489 537L493 537L498 537L503 537L508 537L513 537L517 536L522 536L527 536L532 536L537 536L541 536L546 536L551 536L556 536L561 536L566 535L570 535L575 535L580 535L585 535L590 535L594 535L599 534L604 534L609 535L614 534L619 534L623 534L628 534L633 534L638 533L643 533L647 533L652 533L657 533L662 533L667 532L671 532L676 532L681 532L686 532" fill="none" stroke-width="1.5"></path></g><g class="key-World_8"><path stroke="#3360a9" stroke-linecap="round" d="M431 538L436 538L440 539L445 539L450 539L455 538L460 538L464 539L469 539L474 538L479 538L484 538L489 538L493 538L498 538L503 538L508 538L513 538L517 538L522 538L527 538L532 538L537 538L541 538L546 538L551 538L556 538L561 538L566 538L570 538L575 538L580 538L585 538L590 538L594 538L599 538L604 538L609 538L614 538L619 538L623 538L628 538L633 538L638 538L643 538L647 538L652 538L657 538L662 538L667 538L671 538L676 538L681 538L686 538" fill="none" stroke-width="1.5"></path></g></g></g></g><g style="fill: #777;" class="SourcesFooter"><g style="fill: #777;" class="clickable"><text font-size="11.20" x="15.0" y="581.9"><tspan x="15" y="581.86">Source: HYDE Database and UN FAO Statistics</tspan></text></g><text font-size="11.20" x="448.5" y="581.9"><tspan x="448.48800000000006" y="581.86"><a target='_blank' style='fill: #777;' href='https://ourworldindata.org/meat-and-seafood-production-consumption/'>OurWorldInData.org/meat-and-seafood-production-consumption/</a> • <a style="fill: #777;" href="http://creativecommons.org/licenses/by-sa/4.0/deed.en_US" target="_blank">CC BY-SA</a></tspan></text></g></g></svg>