<svg xmlns="http://www.w3.org/2000/svg" version="1.1" style="font-family:&#x27;Helvetica Neue&#x27;, Helvetica, Arial, sans-serif;font-size:18px;background-color:white;text-rendering:optimizeLegibility;-webkit-font-smoothing:antialiased" width="850" height="600"><g class="ChartTab"><g class="HeaderView"><g opacity="0.8" transform="translate(778, 15) scale(0.27)"><a xmlns:xlink="http://www.w3.org/1999/xlink" xlink:href="https://ourworldindata.org" target="_blank"><g><rect x="0" y="0" fill="#1B2543" width="211.2" height="130.1"/><rect x="0" y="112.2" fill="#E63912" width="211.2" height="17.9"/><g><rect x="1.2" y="12.3" fill="none" width="210.2" height="99.2"/><path fill="#FFFFFF" d="M37.8,32.2c0,12.7-7.7,19.4-17.1,19.4c-9.7,0-16.6-7.5-16.6-18.7c0-11.7,7.3-19.3,17.1-19.3 C31.3,13.7,37.8,21.3,37.8,32.2z M9.2,32.8c0,7.9,4.3,14.9,11.8,14.9c7.5,0,11.8-6.9,11.8-15.3c0-7.3-3.8-14.9-11.8-14.9 C13.1,17.5,9.2,24.8,9.2,32.8z"/><path fill="#FFFFFF" d="M62.7,43.8c0,2.7,0.1,5.1,0.2,7.2h-4.3l-0.3-4.3h-0.1c-1.3,2.1-4,4.9-8.8,4.9c-4.2,0-9.1-2.3-9.1-11.6 V24.6h4.8v14.6c0,5,1.5,8.4,5.9,8.4c3.2,0,5.5-2.2,6.3-4.4c0.3-0.7,0.4-1.6,0.4-2.5V24.6h4.8V43.8z"/><path fill="#FFFFFF" d="M67.3,32.8c0-3.1-0.1-5.8-0.2-8.2h4.2l0.2,5.2h0.2c1.2-3.5,4.1-5.8,7.3-5.8c0.5,0,0.9,0.1,1.4,0.2v4.5 c-0.5-0.1-1-0.2-1.6-0.2c-3.4,0-5.8,2.6-6.5,6.2c-0.1,0.7-0.2,1.4-0.2,2.2V51h-4.8V32.8z"/><path fill="#FFFFFF" d="M95.4,51l-9.4-36.8h5l4.4,18.6c1.1,4.6,2.1,9.2,2.7,12.7h0.1c0.6-3.7,1.8-8,3-12.8l4.9-18.5h5l4.5,18.7 c1,4.4,2,8.7,2.6,12.6h0.1c0.8-4,1.8-8.1,3-12.7l4.9-18.5h4.9L120.6,51h-5L111,31.9c-1.1-4.7-1.9-8.3-2.4-12h-0.1 c-0.7,3.7-1.5,7.3-2.8,12L100.4,51H95.4z"/><path fill="#FFFFFF" d="M154.9,37.6c0,9.8-6.8,14-13.2,14c-7.2,0-12.7-5.2-12.7-13.6c0-8.8,5.8-14,13.1-14 C149.8,24,154.9,29.5,154.9,37.6z M133.9,37.9c0,5.8,3.3,10.1,8,10.1c4.6,0,8-4.3,8-10.3c0-4.5-2.2-10.1-7.9-10.1 C136.3,27.6,133.9,32.8,133.9,37.9z"/><path fill="#FFFFFF" d="M158.2,32.8c0-3.1-0.1-5.8-0.2-8.2h4.2l0.2,5.2h0.2c1.2-3.5,4.1-5.8,7.3-5.8c0.5,0,0.9,0.1,1.4,0.2v4.5 c-0.5-0.1-1-0.2-1.6-0.2c-3.4,0-5.8,2.6-6.5,6.2c-0.1,0.7-0.2,1.4-0.2,2.2V51h-4.8V32.8z"/><path fill="#FFFFFF" d="M173.5,12.3h4.8V51h-4.8V12.3z"/><path fill="#FFFFFF" d="M206.5,12.3v31.9c0,2.3,0.1,5,0.2,6.8h-4.3l-0.2-4.6H202c-1.5,2.9-4.7,5.2-9,5.2 c-6.4,0-11.3-5.4-11.3-13.4c-0.1-8.8,5.4-14.2,11.9-14.2c4,0,6.8,1.9,8,4h0.1V12.3H206.5z M201.7,35.4c0-0.6-0.1-1.4-0.2-2 c-0.7-3.1-3.3-5.6-6.9-5.6c-5,0-7.9,4.4-7.9,10.2c0,5.3,2.6,9.8,7.8,9.8c3.2,0,6.2-2.1,7.1-5.7c0.2-0.7,0.2-1.3,0.2-2.1V35.4z"/><path fill="#FFFFFF" d="M42.8,64c0.1,1.6-1.1,2.9-3.1,2.9c-1.7,0-2.9-1.3-2.9-2.9c0-1.7,1.3-3,3-3C41.7,61,42.8,62.3,42.8,64z M37.4,97.8V71.4h4.8v26.4H37.4z"/><path fill="#FFFFFF" d="M47.5,78.6c0-2.7-0.1-5-0.2-7.1h4.3l0.3,4.4h0.1c1.3-2.5,4.4-5,8.8-5c3.7,0,9.4,2.2,9.4,11.2v15.8h-4.8 V82.6c0-4.3-1.6-7.8-6.1-7.8c-3.2,0-5.6,2.2-6.5,4.9c-0.2,0.6-0.3,1.4-0.3,2.2v15.9h-4.8V78.6z"/><path fill="#FFFFFF" d="M84,61.6c2.9-0.4,6.3-0.8,10.1-0.8c6.8,0,11.7,1.6,14.9,4.6c3.3,3,5.2,7.3,5.2,13.2c0,6-1.9,10.9-5.3,14.3 c-3.4,3.4-9.1,5.3-16.3,5.3c-3.4,0-6.2-0.2-8.6-0.4V61.6z M88.8,94.1c1.2,0.2,3,0.3,4.8,0.3c10.2,0,15.7-5.7,15.7-15.6 c0.1-8.7-4.9-14.2-14.9-14.2c-2.5,0-4.3,0.2-5.6,0.5V94.1z"/><path fill="#FFFFFF" d="M132.1,97.8l-0.4-3.3h-0.2c-1.5,2.1-4.3,3.9-8.1,3.9c-5.4,0-8.1-3.8-8.1-7.6c0-6.4,5.7-9.9,15.9-9.8v-0.5 c0-2.2-0.6-6.1-6-6.1c-2.5,0-5,0.8-6.9,2l-1.1-3.2c2.2-1.4,5.4-2.3,8.7-2.3c8.1,0,10.1,5.5,10.1,10.8v9.9c0,2.3,0.1,4.5,0.4,6.3 H132.1z M131.4,84.4c-5.3-0.1-11.2,0.8-11.2,5.9c0,3.1,2.1,4.6,4.5,4.6c3.4,0,5.6-2.2,6.4-4.4c0.2-0.5,0.3-1,0.3-1.5V84.4z"/><path fill="#FFFFFF" d="M146.6,63.9v7.6h6.9v3.7h-6.9v14.2c0,3.3,0.9,5.1,3.6,5.1c1.3,0,2.2-0.2,2.8-0.3l0.2,3.6 c-0.9,0.4-2.4,0.7-4.3,0.7c-2.2,0-4-0.7-5.2-2c-1.4-1.4-1.9-3.8-1.9-6.9V75.1h-4.1v-3.7h4.1v-6.3L146.6,63.9z"/><path fill="#FFFFFF" d="M171.4,97.8l-0.4-3.3h-0.2c-1.5,2.1-4.3,3.9-8.1,3.9c-5.4,0-8.1-3.8-8.1-7.6c0-6.4,5.7-9.9,15.9-9.8v-0.5 c0-2.2-0.6-6.1-6-6.1c-2.5,0-5,0.8-6.9,2l-1.1-3.2c2.2-1.4,5.4-2.3,8.7-2.3c8.1,0,10.1,5.5,10.1,10.8v9.9c0,2.3,0.1,4.5,0.4,6.3 H171.4z M170.7,84.4c-5.3-0.1-11.2,0.8-11.2,5.9c0,3.1,2.1,4.6,4.5,4.6c3.4,0,5.6-2.2,6.4-4.4c0.2-0.5,0.3-1,0.3-1.5V84.4z"/></g></g></a></g><a href="https://ourworldindata.org/grapher/livestock-counts" target="_blank"><text font-size="25.20" x="15.0" y="35.2" fill="#555"><tspan x="15" y="35.160000000000004">Livestock counts, World</tspan></text></a><text font-size="14.40" x="15.0" y="53.7" fill="#666"><tspan x="15" y="53.72">Total number of livestock animals, measured as the number of live animals at a single point in any given year. All</tspan><tspan x="15" y="69.56">figures are given as the number of heads, with exception to chicken and turkey figures which are reported in</tspan><tspan x="15" y="85.4">thousand heads.</tspan></text></g><g class="LineChart"><defs><clipPath id="boundsClip-337"><rect x="87.598" y="0" width="830" height="897.8"></rect></clipPath></defs><g class="AxisBoxView"><g class="HorizontalAxis"><text x="97.6" y="556.5" fill="#666" text-anchor="middle" font-size="16.2">1890</text><text x="143.7" y="556.5" fill="#666" text-anchor="middle" font-size="16.2">1900</text><text x="235.9" y="556.5" fill="#666" text-anchor="middle" font-size="16.2">1920</text><text x="328" y="556.5" fill="#666" text-anchor="middle" font-size="16.2">1940</text><text x="420.2" y="556.5" fill="#666" text-anchor="middle" font-size="16.2">1960</text><text x="512.4" y="556.5" fill="#666" text-anchor="middle" font-size="16.2">1980</text><text x="604.5" y="556.5" fill="#666" text-anchor="middle" font-size="16.2">2000</text><text x="669" y="556.5" fill="#666" text-anchor="middle" font-size="16.2">2014</text></g><g class="VerticalAxis"><text x="92.60" y="535.3" fill="#666" dominant-baseline="middle" text-anchor="end" font-size="16.2">0</text><text x="92.60" y="477.3" fill="#666" dominant-baseline="middle" text-anchor="end" font-size="16.2">200 million</text><text x="92.60" y="419.3" fill="#666" dominant-baseline="middle" text-anchor="end" font-size="16.2">400 million</text><text x="92.60" y="361.3" fill="#666" dominant-baseline="middle" text-anchor="end" font-size="16.2">600 million</text><text x="92.60" y="303.3" fill="#666" dominant-baseline="middle" text-anchor="end" font-size="16.2">800 million</text><text x="92.60" y="245.2" fill="#666" dominant-baseline="middle" text-anchor="end" font-size="16.2">1 billion</text><text x="92.60" y="187.2" fill="#666" dominant-baseline="middle" text-anchor="end" font-size="16.2">1.2 billion</text><text x="92.60" y="129.2" fill="#666" dominant-baseline="middle" text-anchor="end" font-size="16.2">1.4 billion</text></g><g class="AxisGridLines"><line x1="97.60" y1="535.3" x2="669.05" y2="535.3" stroke="#ccc"></line><line x1="97.60" y1="477.3" x2="669.05" y2="477.3" stroke="#ddd" stroke-dasharray="3,2"></line><line x1="97.60" y1="419.3" x2="669.05" y2="419.3" stroke="#ddd" stroke-dasharray="3,2"></line><line x1="97.60" y1="361.3" x2="669.05" y2="361.3" stroke="#ddd" stroke-dasharray="3,2"></line><line x1="97.60" y1="303.3" x2="669.05" y2="303.3" stroke="#ddd" stroke-dasharray="3,2"></line><line x1="97.60" y1="245.2" x2="669.05" y2="245.2" stroke="#ddd" stroke-dasharray="3,2"></line><line x1="97.60" y1="187.2" x2="669.05" y2="187.2" stroke="#ddd" stroke-dasharray="3,2"></line><line x1="97.60" y1="129.2" x2="669.05" y2="129.2" stroke="#ddd" stroke-dasharray="3,2"></line></g></g><g clip-path="url(#boundsClip-337)"><g class="HeightedLegend clickable"><g class="legendMark"><g class="indicator"><line x1="674.05" y1="535.2" x2="696.55" y2="535.2" stroke="#666" stroke-width="0.5"></line><line x1="696.55" y1="535.2" x2="696.55" y2="528.55" stroke="#666" stroke-width="0.5"></line><line x1="696.55" y1="528.55" x2="699.05" y2="528.55" stroke="#666" stroke-width="0.5"></line></g><rect x="669.05" y="521.8" width="158.39000000000001" height="13.5" fill="#fff" opacity="0"></rect><text font-size="13.50" x="704.0" y="532.6" fill="#3360a9"><tspan x="704.05" y="532.5999999999999">Turkeys (thousands)</tspan></text></g><g class="legendMark"><g class="indicator"><line x1="674.05" y1="532.4" x2="693.2166666666666" y2="532.4" stroke="#666" stroke-width="0.5"></line><line x1="693.2166666666666" y1="532.4" x2="693.2166666666666" y2="513.05" stroke="#666" stroke-width="0.5"></line><line x1="693.2166666666666" y1="513.05" x2="699.05" y2="513.05" stroke="#666" stroke-width="0.5"></line></g><rect x="669.05" y="506.29999999999995" width="71.045" height="13.5" fill="#fff" opacity="0"></rect><text font-size="13.50" x="704.0" y="517.1" fill="#ca2628"><tspan x="704.05" y="517.0999999999999">Mules</tspan></text></g><g class="legendMark"><g class="indicator"><line x1="674.05" y1="529.1" x2="689.8833333333333" y2="529.1" stroke="#666" stroke-width="0.5"></line><line x1="689.8833333333333" y1="529.1" x2="689.8833333333333" y2="497.54999999999995" stroke="#666" stroke-width="0.5"></line><line x1="689.8833333333333" y1="497.54999999999995" x2="699.05" y2="497.54999999999995" stroke="#666" stroke-width="0.5"></line></g><rect x="669.05" y="490.79999999999995" width="165.95000000000002" height="13.5" fill="#fff" opacity="0"></rect><text font-size="13.50" x="704.0" y="501.6" fill="#34983f"><tspan x="704.05" y="501.59999999999997">Chickens (thousands)</tspan></text></g><g class="legendMark"><g class="indicator"><line x1="674.05" y1="522.9" x2="686.55" y2="522.9" stroke="#666" stroke-width="0.5"></line><line x1="686.55" y1="522.9" x2="686.55" y2="482.04999999999995" stroke="#666" stroke-width="0.5"></line><line x1="686.55" y1="482.04999999999995" x2="699.05" y2="482.04999999999995" stroke="#666" stroke-width="0.5"></line></g><rect x="669.05" y="475.29999999999995" width="71.855" height="13.5" fill="#fff" opacity="0"></rect><text font-size="13.50" x="704.0" y="486.1" fill="#f6a324"><tspan x="704.05" y="486.09999999999997">Asses</tspan></text></g><g class="legendMark"><g class="indicator"><line x1="674.05" y1="518.2" x2="683.2166666666666" y2="518.2" stroke="#666" stroke-width="0.5"></line><line x1="683.2166666666666" y1="518.2" x2="683.2166666666666" y2="466.54999999999995" stroke="#666" stroke-width="0.5"></line><line x1="683.2166666666666" y1="466.54999999999995" x2="699.05" y2="466.54999999999995" stroke="#666" stroke-width="0.5"></line></g><rect x="669.05" y="459.79999999999995" width="77.795" height="13.5" fill="#fff" opacity="0"></rect><text font-size="13.50" x="704.0" y="470.6" fill="#a652ba"><tspan x="704.05" y="470.59999999999997">Horses</tspan></text></g><g class="legendMark"><g class="indicator"><line x1="674.05" y1="478.9" x2="679.8833333333333" y2="478.9" stroke="#666" stroke-width="0.5"></line><line x1="679.8833333333333" y1="478.9" x2="679.8833333333333" y2="451.04999999999995" stroke="#666" stroke-width="0.5"></line><line x1="679.8833333333333" y1="451.04999999999995" x2="699.05" y2="451.04999999999995" stroke="#666" stroke-width="0.5"></line></g><rect x="669.05" y="444.29999999999995" width="77.255" height="13.5" fill="#fff" opacity="0"></rect><text font-size="13.50" x="704.0" y="455.1" fill="#2a939b"><tspan x="704.05" y="455.09999999999997">Buffalo</tspan></text></g><g class="legendMark"><g class="indicator"><line x1="674.05" y1="249.4" x2="696.55" y2="249.4" stroke="#666" stroke-width="0.5"></line><line x1="696.55" y1="249.4" x2="696.55" y2="249.4" stroke="#666" stroke-width="0.5"></line><line x1="696.55" y1="249.4" x2="699.05" y2="249.4" stroke="#666" stroke-width="0.5"></line></g><rect x="669.05" y="242.65" width="61.325" height="13.5" fill="#fff" opacity="0"></rect><text font-size="13.50" x="704.0" y="253.4" fill="#e6332e"><tspan x="704.05" y="253.45">Pigs</tspan></text></g><g class="legendMark"><g class="indicator"><line x1="674.05" y1="242" x2="686.55" y2="242" stroke="#666" stroke-width="0.5"></line><line x1="686.55" y1="242" x2="686.55" y2="233.9" stroke="#666" stroke-width="0.5"></line><line x1="686.55" y1="233.9" x2="699.05" y2="233.9" stroke="#666" stroke-width="0.5"></line></g><rect x="669.05" y="227.15" width="71.18" height="13.5" fill="#fff" opacity="0"></rect><text font-size="13.50" x="704.0" y="238.0" fill="#9ecc8a"><tspan x="704.05" y="237.95000000000002">Goats</tspan></text></g><g class="legendMark"><g class="indicator"><line x1="674.05" y1="188.5" x2="686.55" y2="188.5" stroke="#666" stroke-width="0.5"></line><line x1="686.55" y1="188.5" x2="686.55" y2="188.5" stroke="#666" stroke-width="0.5"></line><line x1="686.55" y1="188.5" x2="699.05" y2="188.5" stroke="#666" stroke-width="0.5"></line></g><rect x="669.05" y="181.75" width="74.285" height="13.5" fill="#fff" opacity="0"></rect><text font-size="13.50" x="704.0" y="192.6" fill="#ffd53e"><tspan x="704.05" y="192.55">Sheep</tspan></text></g><g class="legendMark"><g class="indicator"><line x1="674.05" y1="107.6" x2="686.55" y2="107.6" stroke="#666" stroke-width="0.5"></line><line x1="686.55" y1="107.6" x2="686.55" y2="107.6" stroke="#666" stroke-width="0.5"></line><line x1="686.55" y1="107.6" x2="699.05" y2="107.6" stroke="#666" stroke-width="0.5"></line></g><rect x="669.05" y="100.85" width="70.37" height="13.5" fill="#fff" opacity="0"></rect><text font-size="13.50" x="704.0" y="111.6" fill="#b077b1"><tspan x="704.05" y="111.64999999999999">Cattle</tspan></text></g></g><g class="Lines"><rect x="98" y="108" width="571" height="428" fill="rgba(255,255,255,0)" opacity="0"></rect><g class="key-World_0"><path stroke="#f6a324" stroke-linecap="round" d="M98 533L144 532L190 531L236 530L282 529L328 528L374 526L425 525L429 525L434 525L439 525L443 525L448 525L453 524L457 524L462 524L466 524L471 524L476 524L480 524L485 524L489 524L494 524L499 524L503 524L508 524L512 524L517 524L522 524L526 524L531 524L535 523L540 523L545 523L549 523L554 523L558 523L563 523L568 522L572 523L577 523L582 523L586 523L591 523L595 523L600 523L605 523L609 523L614 523L618 523L623 523L628 523L632 523L637 523L641 523L646 523L651 523L655 523L660 522L664 523L669 523" fill="none" stroke-width="1.5"></path></g><g class="key-World_1"><path stroke="#2a939b" stroke-linecap="round" d="M98 523L144 521L190 520L236 518L282 517L328 515L374 512L425 510L429 509L434 509L439 508L443 508L448 507L453 506L457 505L462 505L466 504L471 504L476 504L480 503L485 503L489 503L494 502L499 502L503 502L508 501L512 500L517 499L522 498L526 498L531 497L535 496L540 494L545 494L549 494L554 493L558 492L563 492L568 491L572 490L577 490L582 489L586 489L591 489L595 489L600 488L605 488L609 487L614 486L618 486L623 485L628 484L632 483L637 482L641 481L646 481L651 481L655 480L660 480L664 479L669 479" fill="none" stroke-width="1.5"></path></g><g class="key-World_2"><path stroke="#b077b1" stroke-linecap="round" d="M98 416L144 405L190 385L236 364L282 342L328 335L374 312L425 262L429 258L434 254L439 249L443 243L448 237L453 231L457 227L462 225L466 222L471 217L476 211L480 205L485 197L489 191L494 187L499 186L503 185L508 184L512 182L517 179L522 175L526 173L531 171L535 170L540 168L545 168L549 166L554 161L558 159L563 159L568 158L572 158L577 156L582 155L586 156L591 156L595 158L600 158L605 157L609 155L614 150L618 145L623 139L628 133L632 127L637 121L641 117L646 115L651 114L655 115L660 111L664 111L669 108" fill="none" stroke-width="1.5"></path></g><g class="key-World_3"><path stroke="#9ecc8a" stroke-linecap="round" d="M98 495L144 492L190 485L236 481L282 469L328 467L374 458L425 434L429 430L434 428L439 429L443 429L448 428L453 428L457 426L462 426L466 426L471 425L476 424L480 424L485 421L489 418L494 415L499 413L503 408L508 403L512 401L517 398L522 396L526 393L531 395L535 394L540 390L545 384L549 377L554 369L558 365L563 363L568 360L572 358L577 350L582 341L586 338L591 334L595 328L600 323L605 317L609 312L614 306L618 299L623 289L628 279L632 276L637 266L641 262L646 259L651 258L655 257L660 252L664 248L669 242" fill="none" stroke-width="1.5"></path></g><g class="key-World_4"><path stroke="#a652ba" stroke-linecap="round" d="M98 507L144 506L190 504L236 504L282 505L328 511L374 514L425 517L429 518L434 518L439 519L443 518L448 518L453 518L457 518L462 518L466 518L471 518L476 518L480 518L485 518L489 517L494 517L499 518L503 518L508 518L512 518L517 518L522 518L526 518L531 518L535 518L540 518L545 518L549 518L554 518L558 518L563 518L568 518L572 518L577 518L582 518L586 518L591 519L595 519L600 519L605 519L609 519L614 519L618 519L623 518L628 518L632 518L637 518L641 518L646 518L651 518L655 518L660 518L664 518L669 518" fill="none" stroke-width="1.5"></path></g><g class="key-World_5"><path stroke="#ca2628" stroke-linecap="round" d="M98 535L144 535L190 535L236 534L282 534L328 534L374 534L425 532L429 532L434 532L439 532L443 532L448 532L453 532L457 532L462 532L466 532L471 532L476 532L480 532L485 532L489 531L494 531L499 531L503 531L508 531L512 532L517 532L522 531L526 531L531 531L535 531L540 531L545 531L549 531L554 531L558 531L563 531L568 531L572 531L577 531L582 531L586 531L591 532L595 532L600 532L605 532L609 532L614 532L618 532L623 532L628 532L632 532L637 532L641 532L646 532L651 532L655 532L660 532L664 532L669 532" fill="none" stroke-width="1.5"></path></g><g class="key-World_6"><path stroke="#e6332e" stroke-linecap="round" d="M98 484L144 479L190 473L236 475L282 464L328 461L374 463L425 418L429 413L434 405L439 402L443 391L448 387L453 377L457 377L462 379L466 377L471 356L476 341L480 337L485 336L489 336L494 337L499 329L503 321L508 313L512 304L517 309L522 312L526 310L531 307L535 305L540 296L545 293L549 295L554 290L558 289L563 287L568 287L572 289L577 289L582 290L586 293L591 294L595 293L600 288L605 287L609 287L614 285L618 282L623 282L628 279L632 273L637 269L641 267L646 262L651 253L655 254L660 254L664 252L669 249" fill="none" stroke-width="1.5"></path></g><g class="key-World_7"><path stroke="#ffd53e" stroke-linecap="round" d="M98 354L144 360L190 337L236 339L282 309L328 312L374 309L425 247L429 246L434 245L439 241L443 236L448 233L453 228L457 224L462 222L466 227L471 226L476 234L480 240L485 237L489 231L494 231L499 234L503 231L508 225L512 217L517 213L522 207L526 208L531 211L535 211L540 209L545 204L549 198L554 188L558 186L563 192L568 199L572 211L577 214L582 224L586 231L591 233L595 232L600 229L605 228L609 234L614 235L618 232L623 222L628 212L632 210L637 205L641 209L646 212L651 211L655 205L660 199L664 192L669 189" fill="none" stroke-width="1.5"></path></g><g class="key-World_9"><path stroke="#34983f" stroke-linecap="round" d="M425 534L429 534L434 534L439 534L443 534L448 534L453 534L457 534L462 534L466 534L471 534L476 534L480 534L485 534L489 534L494 534L499 534L503 533L508 533L512 533L517 533L522 533L526 533L531 533L535 533L540 533L545 533L549 532L554 532L558 532L563 532L568 532L572 532L577 532L582 532L586 531L591 531L595 532L600 531L605 531L609 531L614 531L618 531L623 531L628 530L632 530L637 530L641 530L646 530L651 530L655 530L660 529L664 529L669 529" fill="none" stroke-width="1.5"></path></g><g class="key-World_8"><path stroke="#3360a9" stroke-linecap="round" d="M425 535L429 535L434 535L439 535L443 535L448 535L453 535L457 535L462 535L466 535L471 535L476 535L480 535L485 535L489 535L494 535L499 535L503 535L508 535L512 535L517 535L522 535L526 535L531 535L535 535L540 535L545 535L549 535L554 535L558 535L563 535L568 535L572 535L577 535L582 535L586 535L591 535L595 535L600 535L605 535L609 535L614 535L618 535L623 535L628 535L632 535L637 535L641 535L646 535L651 535L655 535L660 535L664 535L669 535" fill="none" stroke-width="1.5"></path></g></g></g></g><g class="SourcesFooter" style="fill:#777"><g class="clickable" style="fill:#777"><text font-size="12.60" x="15.0" y="581.6"><tspan x="15" y="581.58">Source: HYDE Database and UN FAO Statistics</tspan></text></g><text font-size="12.60" x="400.2" y="581.6"><tspan x="400.174" y="581.58"><a target='_blank' style='fill: #777;' href='https://ourworldindata.org/meat-and-seafood-production-consumption/'>OurWorldInData.org/meat-and-seafood-production-consumption/</a> • <a style="fill: #777;" class="cclogo" href="http://creativecommons.org/licenses/by-sa/4.0/deed.en_US" target="_blank">CC BY-SA</a></tspan></text></g></g></svg>