<svg xmlns="http://www.w3.org/2000/svg" version="1.1" style="font-family:&#x27;Helvetica Neue&#x27;, Helvetica, Arial, sans-serif;font-size:18px;background-color:white;text-rendering:optimizeLegibility;-webkit-font-smoothing:antialiased" width="850" height="600"><g class="ChartTab"><g class="HeaderView"><g opacity="0.8" transform="translate(778, 15) scale(0.27)"><a xmlns:xlink="http://www.w3.org/1999/xlink" xlink:href="https://ourworldindata.org" target="_blank"><g><rect x="0" y="0" fill="#1B2543" width="211.2" height="130.1"/><rect x="0" y="112.2" fill="#E63912" width="211.2" height="17.9"/><g><rect x="1.2" y="12.3" fill="none" width="210.2" height="99.2"/><path fill="#FFFFFF" d="M37.8,32.2c0,12.7-7.7,19.4-17.1,19.4c-9.7,0-16.6-7.5-16.6-18.7c0-11.7,7.3-19.3,17.1-19.3 C31.3,13.7,37.8,21.3,37.8,32.2z M9.2,32.8c0,7.9,4.3,14.9,11.8,14.9c7.5,0,11.8-6.9,11.8-15.3c0-7.3-3.8-14.9-11.8-14.9 C13.1,17.5,9.2,24.8,9.2,32.8z"/><path fill="#FFFFFF" d="M62.7,43.8c0,2.7,0.1,5.1,0.2,7.2h-4.3l-0.3-4.3h-0.1c-1.3,2.1-4,4.9-8.8,4.9c-4.2,0-9.1-2.3-9.1-11.6 V24.6h4.8v14.6c0,5,1.5,8.4,5.9,8.4c3.2,0,5.5-2.2,6.3-4.4c0.3-0.7,0.4-1.6,0.4-2.5V24.6h4.8V43.8z"/><path fill="#FFFFFF" d="M67.3,32.8c0-3.1-0.1-5.8-0.2-8.2h4.2l0.2,5.2h0.2c1.2-3.5,4.1-5.8,7.3-5.8c0.5,0,0.9,0.1,1.4,0.2v4.5 c-0.5-0.1-1-0.2-1.6-0.2c-3.4,0-5.8,2.6-6.5,6.2c-0.1,0.7-0.2,1.4-0.2,2.2V51h-4.8V32.8z"/><path fill="#FFFFFF" d="M95.4,51l-9.4-36.8h5l4.4,18.6c1.1,4.6,2.1,9.2,2.7,12.7h0.1c0.6-3.7,1.8-8,3-12.8l4.9-18.5h5l4.5,18.7 c1,4.4,2,8.7,2.6,12.6h0.1c0.8-4,1.8-8.1,3-12.7l4.9-18.5h4.9L120.6,51h-5L111,31.9c-1.1-4.7-1.9-8.3-2.4-12h-0.1 c-0.7,3.7-1.5,7.3-2.8,12L100.4,51H95.4z"/><path fill="#FFFFFF" d="M154.9,37.6c0,9.8-6.8,14-13.2,14c-7.2,0-12.7-5.2-12.7-13.6c0-8.8,5.8-14,13.1-14 C149.8,24,154.9,29.5,154.9,37.6z M133.9,37.9c0,5.8,3.3,10.1,8,10.1c4.6,0,8-4.3,8-10.3c0-4.5-2.2-10.1-7.9-10.1 C136.3,27.6,133.9,32.8,133.9,37.9z"/><path fill="#FFFFFF" d="M158.2,32.8c0-3.1-0.1-5.8-0.2-8.2h4.2l0.2,5.2h0.2c1.2-3.5,4.1-5.8,7.3-5.8c0.5,0,0.9,0.1,1.4,0.2v4.5 c-0.5-0.1-1-0.2-1.6-0.2c-3.4,0-5.8,2.6-6.5,6.2c-0.1,0.7-0.2,1.4-0.2,2.2V51h-4.8V32.8z"/><path fill="#FFFFFF" d="M173.5,12.3h4.8V51h-4.8V12.3z"/><path fill="#FFFFFF" d="M206.5,12.3v31.9c0,2.3,0.1,5,0.2,6.8h-4.3l-0.2-4.6H202c-1.5,2.9-4.7,5.2-9,5.2 c-6.4,0-11.3-5.4-11.3-13.4c-0.1-8.8,5.4-14.2,11.9-14.2c4,0,6.8,1.9,8,4h0.1V12.3H206.5z M201.7,35.4c0-0.6-0.1-1.4-0.2-2 c-0.7-3.1-3.3-5.6-6.9-5.6c-5,0-7.9,4.4-7.9,10.2c0,5.3,2.6,9.8,7.8,9.8c3.2,0,6.2-2.1,7.1-5.7c0.2-0.7,0.2-1.3,0.2-2.1V35.4z"/><path fill="#FFFFFF" d="M42.8,64c0.1,1.6-1.1,2.9-3.1,2.9c-1.7,0-2.9-1.3-2.9-2.9c0-1.7,1.3-3,3-3C41.7,61,42.8,62.3,42.8,64z M37.4,97.8V71.4h4.8v26.4H37.4z"/><path fill="#FFFFFF" d="M47.5,78.6c0-2.7-0.1-5-0.2-7.1h4.3l0.3,4.4h0.1c1.3-2.5,4.4-5,8.8-5c3.7,0,9.4,2.2,9.4,11.2v15.8h-4.8 V82.6c0-4.3-1.6-7.8-6.1-7.8c-3.2,0-5.6,2.2-6.5,4.9c-0.2,0.6-0.3,1.4-0.3,2.2v15.9h-4.8V78.6z"/><path fill="#FFFFFF" d="M84,61.6c2.9-0.4,6.3-0.8,10.1-0.8c6.8,0,11.7,1.6,14.9,4.6c3.3,3,5.2,7.3,5.2,13.2c0,6-1.9,10.9-5.3,14.3 c-3.4,3.4-9.1,5.3-16.3,5.3c-3.4,0-6.2-0.2-8.6-0.4V61.6z M88.8,94.1c1.2,0.2,3,0.3,4.8,0.3c10.2,0,15.7-5.7,15.7-15.6 c0.1-8.7-4.9-14.2-14.9-14.2c-2.5,0-4.3,0.2-5.6,0.5V94.1z"/><path fill="#FFFFFF" d="M132.1,97.8l-0.4-3.3h-0.2c-1.5,2.1-4.3,3.9-8.1,3.9c-5.4,0-8.1-3.8-8.1-7.6c0-6.4,5.7-9.9,15.9-9.8v-0.5 c0-2.2-0.6-6.1-6-6.1c-2.5,0-5,0.8-6.9,2l-1.1-3.2c2.2-1.4,5.4-2.3,8.7-2.3c8.1,0,10.1,5.5,10.1,10.8v9.9c0,2.3,0.1,4.5,0.4,6.3 H132.1z M131.4,84.4c-5.3-0.1-11.2,0.8-11.2,5.9c0,3.1,2.1,4.6,4.5,4.6c3.4,0,5.6-2.2,6.4-4.4c0.2-0.5,0.3-1,0.3-1.5V84.4z"/><path fill="#FFFFFF" d="M146.6,63.9v7.6h6.9v3.7h-6.9v14.2c0,3.3,0.9,5.1,3.6,5.1c1.3,0,2.2-0.2,2.8-0.3l0.2,3.6 c-0.9,0.4-2.4,0.7-4.3,0.7c-2.2,0-4-0.7-5.2-2c-1.4-1.4-1.9-3.8-1.9-6.9V75.1h-4.1v-3.7h4.1v-6.3L146.6,63.9z"/><path fill="#FFFFFF" d="M171.4,97.8l-0.4-3.3h-0.2c-1.5,2.1-4.3,3.9-8.1,3.9c-5.4,0-8.1-3.8-8.1-7.6c0-6.4,5.7-9.9,15.9-9.8v-0.5 c0-2.2-0.6-6.1-6-6.1c-2.5,0-5,0.8-6.9,2l-1.1-3.2c2.2-1.4,5.4-2.3,8.7-2.3c8.1,0,10.1,5.5,10.1,10.8v9.9c0,2.3,0.1,4.5,0.4,6.3 H171.4z M170.7,84.4c-5.3-0.1-11.2,0.8-11.2,5.9c0,3.1,2.1,4.6,4.5,4.6c3.4,0,5.6-2.2,6.4-4.4c0.2-0.5,0.3-1,0.3-1.5V84.4z"/></g></g></a></g><a href="https://ourworldindata.org/grapher/long-term-price-index-in-food-commodities-1850-2015" target="_blank"><text font-size="25.20" x="15.0" y="35.2" fill="#555"><tspan x="15" y="35.160000000000004">Long-term price index in food commodities, 1850-2015, World</tspan></text></a><text font-size="14.40" x="15.0" y="53.7" fill="#666"><tspan x="15" y="53.72">Commodity price index in food items dating 1850-2015, measured relative to real prices in 1900 (i.e. 1900 = 100).</tspan></text></g><g class="LineChart"><defs><clipPath id="boundsClip-114"><rect x="37.216" y="0" width="830" height="959.8"></rect></clipPath></defs><g class="AxisBoxView"><g class="HorizontalAxis"><text x="47.2" y="556.5" fill="#666" text-anchor="middle" font-size="16.2">1850</text><text x="89.8" y="556.5" fill="#666" text-anchor="middle" font-size="16.2">1860</text><text x="175" y="556.5" fill="#666" text-anchor="middle" font-size="16.2">1880</text><text x="260.2" y="556.5" fill="#666" text-anchor="middle" font-size="16.2">1900</text><text x="345.4" y="556.5" fill="#666" text-anchor="middle" font-size="16.2">1920</text><text x="430.7" y="556.5" fill="#666" text-anchor="middle" font-size="16.2">1940</text><text x="515.9" y="556.5" fill="#666" text-anchor="middle" font-size="16.2">1960</text><text x="601.1" y="556.5" fill="#666" text-anchor="middle" font-size="16.2">1980</text><text x="686.3" y="556.5" fill="#666" text-anchor="middle" font-size="16.2">2000</text><text x="750.2" y="556.5" fill="#666" text-anchor="middle" font-size="16.2">2015</text></g><g class="VerticalAxis"><text x="42.22" y="535.3" fill="#666" dominant-baseline="middle" text-anchor="end" font-size="16.2">0</text><text x="42.22" y="442.2" fill="#666" dominant-baseline="middle" text-anchor="end" font-size="16.2">100</text><text x="42.22" y="349.1" fill="#666" dominant-baseline="middle" text-anchor="end" font-size="16.2">200</text><text x="42.22" y="256" fill="#666" dominant-baseline="middle" text-anchor="end" font-size="16.2">300</text><text x="42.22" y="162.9" fill="#666" dominant-baseline="middle" text-anchor="end" font-size="16.2">400</text></g><g class="AxisGridLines"><line x1="47.22" y1="535.3" x2="750.18" y2="535.3" stroke="#ccc"></line><line x1="47.22" y1="442.2" x2="750.18" y2="442.2" stroke="#ddd" stroke-dasharray="3,2"></line><line x1="47.22" y1="349.1" x2="750.18" y2="349.1" stroke="#ddd" stroke-dasharray="3,2"></line><line x1="47.22" y1="256" x2="750.18" y2="256" stroke="#ddd" stroke-dasharray="3,2"></line><line x1="47.22" y1="162.9" x2="750.18" y2="162.9" stroke="#ddd" stroke-dasharray="3,2"></line></g></g><g clip-path="url(#boundsClip-114)"><g class="HeightedLegend clickable"><g class="legendMark"><g class="indicator"><line x1="755.185" y1="522.5" x2="777.685" y2="522.5" stroke="#666" stroke-width="0.5"></line><line x1="777.685" y1="522.5" x2="777.685" y2="522.5" stroke="#666" stroke-width="0.5"></line><line x1="777.685" y1="522.5" x2="780.185" y2="522.5" stroke="#666" stroke-width="0.5"></line></g><rect x="750.185" y="515.75" width="62.81" height="13.5" fill="#fff" opacity="0"></rect><text font-size="13.50" x="785.2" y="526.5" fill="#3360a9"><tspan x="785.185" y="526.55">Pork</tspan></text></g><g class="legendMark"><g class="indicator"><line x1="755.185" y1="519.4" x2="776.2564285714285" y2="519.4" stroke="#666" stroke-width="0.5"></line><line x1="776.2564285714285" y1="519.4" x2="776.2564285714285" y2="507" stroke="#666" stroke-width="0.5"></line><line x1="776.2564285714285" y1="507" x2="780.185" y2="507" stroke="#666" stroke-width="0.5"></line></g><rect x="750.185" y="500.25" width="71.18" height="13.5" fill="#fff" opacity="0"></rect><text font-size="13.50" x="785.2" y="511.1" fill="#ca2628"><tspan x="785.185" y="511.05">Sugar</tspan></text></g><g class="legendMark"><g class="indicator"><line x1="755.185" y1="518.8" x2="774.827857142857" y2="518.8" stroke="#666" stroke-width="0.5"></line><line x1="774.827857142857" y1="518.8" x2="774.827857142857" y2="491.5" stroke="#666" stroke-width="0.5"></line><line x1="774.827857142857" y1="491.5" x2="780.185" y2="491.5" stroke="#666" stroke-width="0.5"></line></g><rect x="750.185" y="484.75" width="62" height="13.5" fill="#fff" opacity="0"></rect><text font-size="13.50" x="785.2" y="495.6" fill="#34983f"><tspan x="785.185" y="495.55">Rice</tspan></text></g><g class="legendMark"><g class="indicator"><line x1="755.185" y1="514.8" x2="773.3992857142856" y2="514.8" stroke="#666" stroke-width="0.5"></line><line x1="773.3992857142856" y1="514.8" x2="773.3992857142856" y2="476" stroke="#666" stroke-width="0.5"></line><line x1="773.3992857142856" y1="476" x2="780.185" y2="476" stroke="#666" stroke-width="0.5"></line></g><rect x="750.185" y="469.25" width="74.15" height="13.5" fill="#fff" opacity="0"></rect><text font-size="13.50" x="785.2" y="480.1" fill="#f6a324"><tspan x="785.185" y="480.05">Wheat</tspan></text></g><g class="legendMark"><g class="indicator"><line x1="755.185" y1="513.1" x2="771.9707142857143" y2="513.1" stroke="#666" stroke-width="0.5"></line><line x1="771.9707142857143" y1="513.1" x2="771.9707142857143" y2="460.5" stroke="#666" stroke-width="0.5"></line><line x1="771.9707142857143" y1="460.5" x2="780.185" y2="460.5" stroke="#666" stroke-width="0.5"></line></g><rect x="750.185" y="453.75" width="83.06" height="13.5" fill="#fff" opacity="0"></rect><text font-size="13.50" x="785.2" y="464.6" fill="#a652ba"><tspan x="785.185" y="464.55">Palm oil</tspan></text></g><g class="legendMark"><g class="indicator"><line x1="755.185" y1="509.1" x2="770.5421428571428" y2="509.1" stroke="#666" stroke-width="0.5"></line><line x1="770.5421428571428" y1="509.1" x2="770.5421428571428" y2="445" stroke="#666" stroke-width="0.5"></line><line x1="770.5421428571428" y1="445" x2="780.185" y2="445" stroke="#666" stroke-width="0.5"></line></g><rect x="750.185" y="438.25" width="84.815" height="13.5" fill="#fff" opacity="0"></rect><text font-size="13.50" x="785.2" y="449.1" fill="#2a939b"><tspan x="785.185" y="449.05">Peanuts</tspan></text></g><g class="legendMark"><g class="indicator"><line x1="755.185" y1="508.1" x2="769.1135714285714" y2="508.1" stroke="#666" stroke-width="0.5"></line><line x1="769.1135714285714" y1="508.1" x2="769.1135714285714" y2="429.5" stroke="#666" stroke-width="0.5"></line><line x1="769.1135714285714" y1="429.5" x2="780.185" y2="429.5" stroke="#666" stroke-width="0.5"></line></g><rect x="750.185" y="422.75" width="58.355000000000004" height="13.5" fill="#fff" opacity="0"></rect><text font-size="13.50" x="785.2" y="433.6" fill="#e6332e"><tspan x="785.185" y="433.55">Tea</tspan></text></g><g class="legendMark"><g class="indicator"><line x1="755.185" y1="506.5" x2="767.685" y2="506.5" stroke="#666" stroke-width="0.5"></line><line x1="767.685" y1="506.5" x2="767.685" y2="414" stroke="#666" stroke-width="0.5"></line><line x1="767.685" y1="414" x2="780.185" y2="414" stroke="#666" stroke-width="0.5"></line></g><rect x="750.185" y="407.25" width="74.15" height="13.5" fill="#fff" opacity="0"></rect><text font-size="13.50" x="785.2" y="418.1" fill="#9ecc8a"><tspan x="785.185" y="418.05">Cocoa</tspan></text></g><g class="legendMark"><g class="indicator"><line x1="755.185" y1="504.7" x2="766.2564285714285" y2="504.7" stroke="#666" stroke-width="0.5"></line><line x1="766.2564285714285" y1="504.7" x2="766.2564285714285" y2="398.5" stroke="#666" stroke-width="0.5"></line><line x1="766.2564285714285" y1="398.5" x2="780.185" y2="398.5" stroke="#666" stroke-width="0.5"></line></g><rect x="750.185" y="391.75" width="64.295" height="13.5" fill="#fff" opacity="0"></rect><text font-size="13.50" x="785.2" y="402.6" fill="#ffd53e"><tspan x="785.185" y="402.55">Corn</tspan></text></g><g class="legendMark"><g class="indicator"><line x1="755.185" y1="487.3" x2="764.827857142857" y2="487.3" stroke="#666" stroke-width="0.5"></line><line x1="764.827857142857" y1="487.3" x2="764.827857142857" y2="383" stroke="#666" stroke-width="0.5"></line><line x1="764.827857142857" y1="383" x2="780.185" y2="383" stroke="#666" stroke-width="0.5"></line></g><rect x="750.185" y="376.25" width="59.03" height="13.5" fill="#fff" opacity="0"></rect><text font-size="13.50" x="785.2" y="387.1" fill="#b077b1"><tspan x="785.185" y="387.05">Rye</tspan></text></g><g class="legendMark"><g class="indicator"><line x1="755.185" y1="480.6" x2="763.3992857142856" y2="480.6" stroke="#666" stroke-width="0.5"></line><line x1="763.3992857142856" y1="480.6" x2="763.3992857142856" y2="367.5" stroke="#666" stroke-width="0.5"></line><line x1="763.3992857142856" y1="367.5" x2="780.185" y2="367.5" stroke="#666" stroke-width="0.5"></line></g><rect x="750.185" y="360.75" width="74.96000000000001" height="13.5" fill="#fff" opacity="0"></rect><text font-size="13.50" x="785.2" y="371.6" fill="#7ec7ce"><tspan x="785.185" y="371.55">Coffee</tspan></text></g><g class="legendMark"><g class="indicator"><line x1="755.185" y1="471.5" x2="761.9707142857143" y2="471.5" stroke="#666" stroke-width="0.5"></line><line x1="761.9707142857143" y1="471.5" x2="761.9707142857143" y2="352" stroke="#666" stroke-width="0.5"></line><line x1="761.9707142857143" y1="352" x2="780.185" y2="352" stroke="#666" stroke-width="0.5"></line></g><rect x="750.185" y="345.25" width="73.34" height="13.5" fill="#fff" opacity="0"></rect><text font-size="13.50" x="785.2" y="356.1" fill="#e6332e"><tspan x="785.185" y="356.05">Barley</tspan></text></g><g class="legendMark"><g class="indicator"><line x1="755.185" y1="395.9" x2="760.5421428571428" y2="395.9" stroke="#666" stroke-width="0.5"></line><line x1="760.5421428571428" y1="395.9" x2="760.5421428571428" y2="336.5" stroke="#666" stroke-width="0.5"></line><line x1="760.5421428571428" y1="336.5" x2="780.185" y2="336.5" stroke="#666" stroke-width="0.5"></line></g><rect x="750.185" y="329.75" width="68.885" height="13.5" fill="#fff" opacity="0"></rect><text font-size="13.50" x="785.2" y="340.6" fill="#6bb537"><tspan x="785.185" y="340.55">Lamb</tspan></text></g><g class="legendMark"><g class="indicator"><line x1="755.185" y1="345.7" x2="759.1135714285714" y2="345.7" stroke="#666" stroke-width="0.5"></line><line x1="759.1135714285714" y1="345.7" x2="759.1135714285714" y2="321" stroke="#666" stroke-width="0.5"></line><line x1="759.1135714285714" y1="321" x2="780.185" y2="321" stroke="#666" stroke-width="0.5"></line></g><rect x="750.185" y="314.25" width="62.945" height="13.5" fill="#fff" opacity="0"></rect><text font-size="13.50" x="785.2" y="325.1" fill="#f07f59"><tspan x="785.185" y="325.05">Beef</tspan></text></g></g><g class="Lines"><rect x="47" y="77" width="703" height="459" fill="rgba(255,255,255,0)" opacity="0"></rect><g class="key-World_0"><path stroke="#e6332e" stroke-linecap="round" d="M47 357L52 365L56 391L60 355L64 367L69 377L73 378L77 354L81 352L86 332L90 331L94 359L98 362L103 400L107 430L111 424L115 425L120 419L124 412L128 416L132 415L137 413L141 410L145 408L150 399L154 396L158 396L162 396L167 396L171 401L175 415L179 421L184 423L188 422L192 426L196 421L201 421L205 434L209 430L213 428L218 429L222 428L226 434L230 436L235 434L239 431L243 432L248 433L252 435L256 438L260 442L265 447L269 443L273 467L277 454L282 455L286 467L290 471L294 475L299 468L303 469L307 469L311 469L316 470L320 470L324 473L328 478L333 475L337 475L341 485L345 500L350 501L354 485L358 472L363 470L367 472L371 468L375 468L380 475L384 476L388 479L392 489L397 505L401 487L405 472L409 477L414 475L418 469L422 472L426 479L431 479L435 466L439 454L443 466L448 469L452 471L456 479L461 467L465 468L469 463L473 471L478 461L482 474L486 463L490 431L495 436L499 441L503 452L507 451L512 452L516 453L520 460L524 459L529 461L533 464L537 460L541 471L546 476L550 484L554 488L559 484L563 486L567 491L571 493L576 483L580 485L584 486L588 459L593 484L597 486L601 488L605 497L610 497L614 485L618 473L622 497L627 499L631 501L635 504L639 500L644 498L648 506L652 508L657 509L661 511L665 512L669 510L674 505L678 506L682 509L686 509L691 514L695 515L699 516L703 514L708 515L712 513L716 512L720 509L725 505L729 504L733 505L737 505L742 506L746 508L750 508" fill="none" stroke-width="1.5"></path></g><g class="key-World_1"><path stroke="#ca2628" stroke-linecap="round" d="M47 339L52 327L56 353L60 329L64 353L69 330L73 297L77 247L81 290L86 307L90 299L94 333L98 365L103 403L107 410L111 434L115 435L120 419L124 415L128 400L132 394L137 380L141 385L145 392L150 393L154 396L158 387L162 360L167 382L171 388L175 382L179 376L184 382L188 385L192 426L196 424L201 441L205 442L209 432L213 409L218 433L222 431L226 428L230 434L235 437L239 448L243 444L248 454L252 448L256 445L260 442L265 461L269 477L273 474L277 454L282 448L286 470L290 470L294 458L299 459L303 456L307 448L311 461L316 481L320 462L324 444L328 425L333 439L337 460L341 457L345 376L350 489L354 491L358 456L363 476L367 501L371 502L375 495L380 501L384 508L388 516L392 516L397 521L401 515L405 512L409 505L414 502L418 503L422 508L426 506L431 509L435 505L439 494L443 498L448 498L452 492L456 487L461 478L465 488L469 489L473 480L478 477L482 493L486 501L490 503L495 503L499 501L503 486L507 503L512 508L516 507L520 510L524 509L529 459L533 484L537 518L541 520L546 519L550 520L554 511L559 508L563 504L567 487L571 476L576 367L580 429L584 479L588 498L593 502L597 498L601 438L605 483L610 511L614 512L618 521L622 525L627 520L631 519L635 511L639 506L644 508L648 517L652 517L657 516L661 512L665 511L669 514L674 516L678 520L682 525L686 522L691 522L695 525L699 525L703 525L708 521L712 515L716 522L720 519L725 512L729 508L733 503L737 509L742 514L746 515L750 519" fill="none" stroke-width="1.5"></path></g><g class="key-World_2"><path stroke="#2a939b" stroke-linecap="round" d="M132 346L137 329L141 360L145 369L150 321L154 352L158 375L162 393L167 386L171 411L175 412L179 400L184 358L188 336L192 373L196 430L201 417L205 429L209 413L213 374L218 377L222 430L226 441L230 440L235 456L239 445L243 433L248 450L252 447L256 432L260 442L265 449L269 436L273 432L277 405L282 421L286 426L290 417L294 434L299 422L303 429L307 424L311 421L316 421L320 429L324 432L328 425L333 402L337 430L341 403L345 478L350 483L354 457L358 444L363 452L367 475L371 466L375 462L380 465L384 483L388 484L392 510L397 509L401 483L405 475L409 480L414 470L418 479L422 478L426 476L431 478L435 457L439 444L443 435L448 424L452 423L456 421L461 425L465 429L469 429L473 425L478 437L482 435L486 434L490 424L495 429L499 435L503 445L507 446L512 455L516 453L520 446L524 446L529 446L533 447L537 447L541 450L546 452L550 452L554 453L559 455L563 453L567 451L571 446L576 447L580 446L584 449L588 451L593 456L597 466L601 461L605 467L610 493L614 487L618 495L622 504L627 490L631 502L635 496L639 503L644 485L648 490L652 507L657 498L661 503L665 506L669 505L674 505L678 505L682 510L686 511L691 512L695 515L699 509L703 510L708 513L712 513L716 505L720 498L725 509L729 506L733 489L737 488L742 506L746 508L750 509" fill="none" stroke-width="1.5"></path></g><g class="key-World_3"><path stroke="#a652ba" stroke-linecap="round" d="M47 426L52 431L56 429L60 399L64 373L69 391L73 395L77 389L81 401L86 381L90 378L94 390L98 414L103 452L107 474L111 471L115 460L120 457L124 455L128 450L132 450L137 447L141 445L145 445L150 445L154 442L158 435L162 427L167 427L171 438L175 446L179 446L184 438L188 419L192 431L196 447L201 463L205 470L209 470L213 458L218 451L222 454L226 460L230 459L235 454L239 457L243 461L248 460L252 457L256 450L260 442L265 448L269 444L273 445L277 448L282 448L286 439L290 436L294 450L299 445L303 430L307 431L311 438L316 433L320 424L324 419L328 383L333 350L337 391L341 397L345 452L350 483L354 477L358 476L363 472L367 465L371 471L375 474L380 472L384 472L388 484L392 493L397 498L401 496L405 482L409 461L414 461L418 456L422 471L426 468L431 467L435 448L439 438L443 469L448 470L452 472L456 477L461 429L465 415L469 446L473 455L478 417L482 466L486 475L490 474L495 471L499 462L503 464L507 469L512 469L516 472L520 471L524 475L529 474L533 470L537 463L541 474L546 479L550 495L554 494L559 479L563 481L567 492L571 464L576 421L580 468L584 475L588 462L593 458L597 460L601 476L605 483L610 497L614 493L618 476L622 496L627 516L631 510L635 504L639 512L644 517L648 514L652 512L657 513L661 505L665 501L669 507L674 507L678 501L682 513L686 520L691 522L695 517L699 515L703 514L708 517L712 515L716 504L720 498L725 509L729 501L733 493L737 499L742 504L746 506L750 513" fill="none" stroke-width="1.5"></path></g><g class="key-World_4"><path stroke="#7ec7ce" stroke-linecap="round" d="M47 406L52 423L56 431L60 428L64 421L69 427L73 415L77 415L81 415L86 407L90 398L94 387L98 327L103 307L107 438L111 442L115 452L120 457L124 465L128 462L132 453L137 434L141 405L145 374L150 361L154 372L158 364L162 351L167 378L171 396L175 400L179 425L184 439L188 437L192 433L196 450L201 435L205 355L209 376L213 345L218 336L222 348L226 358L230 335L235 331L239 344L243 362L248 446L252 464L256 465L260 442L265 463L269 471L273 474L277 451L282 446L286 450L290 469L294 470L299 453L303 438L307 401L311 392L316 430L320 458L324 465L328 454L333 469L337 476L341 440L345 480L350 498L354 479L358 473L363 445L367 428L371 441L375 439L380 411L384 415L388 463L392 483L397 463L401 470L405 459L409 476L414 472L418 465L422 485L426 486L431 488L435 464L439 460L443 464L448 465L452 466L456 447L461 429L465 432L469 408L473 340L478 343L482 348L486 334L490 268L495 341L499 337L503 351L507 382L512 418L516 421L520 426L524 434L529 439L533 416L537 419L541 430L546 440L550 444L554 448L559 427L563 446L567 438L571 422L576 427L580 437L584 333L588 223L593 333L597 342L601 381L605 420L610 418L614 428L618 423L622 425L627 392L631 454L635 441L639 465L644 480L648 485L652 498L657 496L661 454L665 455L669 472L674 440L678 468L682 485L686 494L691 507L695 508L699 507L703 501L708 488L712 489L716 487L720 483L725 481L729 463L733 438L737 470L742 487L746 466L750 481" fill="none" stroke-width="1.5"></path></g><g class="key-World_5"><path stroke="#9ecc8a" stroke-linecap="round" d="M47 461L52 462L56 477L60 449L64 447L69 450L73 448L77 455L81 452L86 464L90 468L94 471L98 420L103 410L107 426L111 412L115 448L120 464L124 468L128 472L132 462L137 473L141 469L145 474L150 470L154 471L158 460L162 454L167 446L171 434L175 445L179 453L184 454L188 447L192 454L196 454L201 449L205 453L209 453L213 457L218 460L222 465L226 466L230 459L235 465L239 467L243 473L248 468L252 445L256 454L260 442L265 449L269 449L273 451L277 450L282 450L286 450L290 436L294 465L299 474L303 480L307 478L311 475L316 470L320 478L324 458L328 475L333 496L337 497L341 487L345 505L350 516L354 511L358 515L363 515L367 511L371 506L375 494L380 502L384 508L388 513L392 520L397 521L401 520L405 518L409 519L414 513L418 509L422 519L426 520L431 519L435 512L439 511L443 512L448 513L452 513L456 509L461 465L465 461L469 494L473 475L478 474L482 475L486 473L490 438L495 472L499 490L503 486L507 466L512 479L516 492L520 501L524 502L529 496L533 500L537 510L541 501L546 496L550 490L554 482L559 498L563 506L567 502L571 480L576 467L580 485L584 457L588 399L593 422L597 437L601 467L605 486L610 496L614 489L618 485L622 490L627 494L631 497L635 506L639 514L644 514L648 516L652 518L657 519L661 515L665 515L669 515L674 513L678 513L682 521L686 524L691 522L695 514L699 515L703 518L708 518L712 518L716 515L720 509L725 506L729 504L733 507L737 513L742 513L746 507L750 507" fill="none" stroke-width="1.5"></path></g><g class="key-World_6"><path stroke="#f6a324" stroke-linecap="round" d="M47 444L52 470L56 472L60 431L64 393L69 369L73 401L77 420L81 448L86 419L90 412L94 445L98 451L103 448L107 427L111 458L115 444L120 387L124 402L128 445L132 453L137 425L141 422L145 427L150 430L154 433L158 429L162 401L167 428L171 425L175 421L179 411L184 409L188 423L192 442L196 439L201 446L205 448L209 430L213 433L218 427L222 418L226 439L230 452L235 462L239 455L243 447L248 421L252 416L256 440L260 442L265 442L269 440L273 436L277 407L282 409L286 438L290 428L294 418L299 389L303 408L307 421L311 416L316 429L320 423L324 391L328 396L333 337L337 377L341 379L345 399L350 447L354 448L358 462L363 444L367 427L371 437L375 449L380 435L384 452L388 472L392 487L397 491L401 471L405 457L409 455L414 447L418 443L422 474L426 476L431 462L435 460L439 451L443 440L448 434L452 432L456 427L461 406L465 424L469 438L473 436L478 434L482 441L486 453L490 450L495 451L499 447L503 451L507 459L512 463L516 463L520 460L524 461L529 465L533 476L537 481L541 478L546 487L550 494L554 495L559 492L563 493L567 488L571 437L576 433L580 466L584 477L588 489L593 482L597 475L601 479L605 491L610 499L614 498L618 499L622 503L627 507L631 507L635 503L639 501L644 510L648 510L652 508L657 511L661 510L665 504L669 504L674 513L678 518L682 521L686 522L691 521L695 518L699 518L703 518L708 520L712 517L716 510L720 501L725 513L729 514L733 505L737 505L742 507L746 511L750 515" fill="none" stroke-width="1.5"></path></g><g class="key-World_7"><path stroke="#b077b1" stroke-linecap="round" d="M47 359L52 344L56 327L60 348L64 399L69 424L73 361L77 370L81 330L86 365L90 355L94 324L98 372L103 443L107 485L111 471L115 463L120 481L124 485L128 465L132 439L137 437L141 440L145 437L150 418L154 427L158 436L162 445L167 450L171 430L175 422L179 395L184 439L188 444L192 450L196 441L201 447L205 448L209 438L213 464L218 428L222 403L226 443L230 449L235 447L239 460L243 467L248 455L252 452L256 442L260 442L265 434L269 445L273 440L277 414L282 428L286 434L290 415L294 412L299 412L303 416L307 403L311 433L316 442L320 409L324 406L328 376L333 331L337 386L341 409L345 425L350 465L354 479L358 484L363 452L367 468L371 465L375 464L380 463L384 460L388 495L392 501L397 504L401 462L405 454L409 491L414 447L418 463L422 494L426 488L431 490L435 480L439 479L443 449L448 442L452 421L456 385L461 381L465 446L469 459L473 453L478 447L482 437L486 462L490 467L495 475L499 471L503 477L507 482L512 483L516 490L520 484L524 488L529 482L533 485L537 489L541 486L546 487L550 492L554 494L559 497L563 502L567 501L571 470L576 458L580 469L584 470L588 484L593 489L597 492L601 487L605 485L610 498L614 502L618 509L622 507L627 515L631 514L635 503L639 510L644 511L648 511L652 510L657 509L661 508L665 507L669 500L674 500L678 512L682 515L686 513L691 511L695 507L699 511L703 510L708 510L712 510L716 499L720 491L725 501L729 500L733 483L737 485L742 483L746 485L750 487" fill="none" stroke-width="1.5"></path></g><g class="key-World_8"><path stroke="#34983f" stroke-linecap="round" d="M47 419L52 425L56 412L60 386L64 381L69 376L73 411L77 411L81 438L86 426L90 404L94 408L98 424L103 443L107 471L111 465L115 455L120 450L124 454L128 461L132 458L137 457L141 449L145 451L150 443L154 455L158 447L162 434L167 429L171 433L175 441L179 449L184 458L188 450L192 451L196 458L201 460L205 468L209 456L213 452L218 451L222 453L226 445L230 460L235 473L239 465L243 457L248 447L252 444L256 444L260 442L265 453L269 456L273 438L277 455L282 444L286 430L290 427L294 421L299 444L303 448L307 421L311 406L316 436L320 443L324 442L328 457L333 479L337 481L341 484L345 483L350 469L354 457L358 462L363 456L367 457L371 452L375 457L380 463L384 463L388 477L392 500L397 500L401 504L405 496L409 485L414 486L418 485L422 488L426 489L431 481L435 477L439 477L443 478L448 479L452 481L456 477L461 454L465 455L469 465L473 477L478 478L482 475L486 468L490 475L495 481L499 484L503 485L507 484L512 489L516 492L520 489L524 484L529 487L533 490L537 491L541 483L546 468L550 475L554 484L559 498L563 502L567 499L571 467L576 423L580 466L584 490L588 489L593 477L597 488L601 481L605 481L610 504L614 507L618 510L622 515L627 517L631 516L635 511L639 511L644 514L648 513L652 516L657 519L661 517L665 514L669 513L674 516L678 516L682 520L686 523L691 525L695 524L699 524L703 522L708 520L712 520L716 519L720 502L725 507L729 511L733 510L737 509L742 513L746 517L750 519" fill="none" stroke-width="1.5"></path></g><g class="key-World_9"><path stroke="#ffd53e" stroke-linecap="round" d="M47 443L52 443L56 436L60 434L64 425L69 409L73 445L77 436L81 432L86 420L90 435L94 476L98 478L103 439L107 394L111 455L115 465L120 415L124 415L128 433L132 422L137 453L141 471L145 473L150 417L154 418L158 450L162 447L167 459L171 462L175 460L179 435L184 401L188 426L192 427L196 445L201 455L205 450L209 435L213 460L218 448L222 404L226 432L230 445L235 433L239 440L243 472L248 472L252 457L256 453L260 442L265 415L269 393L273 428L277 419L282 419L286 430L290 421L294 384L299 386L303 410L307 408L311 389L316 407L320 393L324 387L328 381L333 280L337 325L341 351L345 393L350 471L354 462L358 440L363 424L367 419L371 452L375 437L380 422L384 427L388 438L392 468L397 491L401 474L405 439L409 418L414 416L418 393L422 458L426 464L431 446L435 439L439 433L443 415L448 408L452 406L456 386L461 348L465 368L469 424L473 410L478 397L482 402L486 417L490 418L495 432L499 429L503 446L507 450L512 452L516 458L520 460L524 461L529 454L533 455L537 454L541 452L546 459L550 471L554 469L559 465L563 469L567 473L571 436L576 403L580 430L584 442L588 463L593 464L597 463L601 461L605 468L610 486L614 473L618 477L622 489L627 501L631 507L635 496L639 497L644 498L648 500L652 503L657 504L661 504L665 500L669 488L674 503L678 509L682 513L686 514L691 514L695 512L699 511L703 510L708 515L712 513L716 504L720 493L725 502L729 502L733 483L737 479L742 484L746 501L750 505" fill="none" stroke-width="1.5"></path></g><g class="key-World_10"><path stroke="#e6332e" stroke-linecap="round" d="M47 427L52 418L56 402L60 380L64 380L69 389L73 360L77 361L81 383L86 389L90 376L94 387L98 409L103 440L107 468L111 469L115 450L120 438L124 426L128 431L132 439L137 414L141 419L145 381L150 373L154 386L158 413L162 419L167 423L171 420L175 411L179 381L184 417L188 422L192 441L196 424L201 427L205 430L209 416L213 449L218 404L222 425L226 437L230 449L235 438L239 460L243 468L248 456L252 445L256 445L260 442L265 433L269 434L273 438L277 446L282 449L286 446L290 399L294 417L299 417L303 413L307 369L311 435L316 434L320 432L324 436L328 395L333 357L337 418L341 402L345 456L350 486L354 480L358 476L363 455L367 470L371 474L375 461L380 474L384 477L388 490L392 495L397 505L401 473L405 440L409 484L414 430L418 465L422 487L426 481L431 483L435 468L439 463L443 429L448 428L452 431L456 404L461 391L465 446L469 453L473 443L478 445L482 439L486 454L490 460L495 471L499 468L503 477L507 477L512 480L516 483L520 482L524 477L529 475L533 472L537 475L541 473L546 474L550 479L554 481L559 483L563 481L567 480L571 446L576 433L580 450L584 459L588 474L593 470L597 466L601 462L605 467L610 484L614 480L618 477L622 493L627 502L631 498L635 489L639 488L644 488L648 491L652 492L657 497L661 497L665 482L669 476L674 488L678 495L682 500L686 501L691 494L695 488L699 491L703 495L708 498L712 490L716 471L720 463L725 489L729 479L733 464L737 454L742 468L746 489L750 472" fill="none" stroke-width="1.5"></path></g><g class="key-World_11"><path stroke="#3360a9" stroke-linecap="round" d="M47 484L52 464L56 449L60 457L64 473L69 457L73 455L77 442L81 460L86 453L90 441L94 473L98 492L103 484L107 457L111 438L115 450L120 470L124 448L128 428L132 435L137 472L141 481L145 477L150 454L154 430L158 437L162 457L167 479L171 478L175 465L179 443L184 424L188 442L192 449L196 468L201 467L205 456L209 442L213 462L218 469L222 461L226 449L230 423L235 445L239 456L243 473L248 467L252 463L256 460L260 442L265 428L269 411L273 430L277 446L282 443L286 428L290 436L294 439L299 408L303 390L307 427L311 415L316 407L320 408L324 427L328 400L333 352L337 360L341 379L345 434L350 468L354 457L358 472L363 464L367 437L371 438L375 453L380 455L384 450L388 456L392 480L397 497L401 494L405 484L409 436L414 433L418 431L422 452L426 467L431 477L435 453L439 443L443 463L448 474L452 472L456 480L461 485L465 490L469 482L473 487L478 494L482 499L486 486L490 486L495 497L499 500L503 488L507 483L512 497L516 491L520 488L524 489L529 497L533 498L537 486L541 485L546 493L550 493L554 482L559 484L563 494L567 477L571 452L576 470L580 453L584 467L588 474L593 468L597 484L601 491L605 487L610 469L614 483L618 487L622 489L627 485L631 489L635 506L639 512L644 501L648 506L652 517L657 515L661 518L665 517L669 509L674 515L678 523L682 523L686 520L691 520L695 524L699 522L703 519L708 520L712 521L716 522L720 522L725 524L729 520L733 518L737 519L742 519L746 516L750 523" fill="none" stroke-width="1.5"></path></g><g class="key-World_12"><path stroke="#f07f59" stroke-linecap="round" d="M47 464L52 462L56 461L60 441L64 440L69 441L73 445L77 446L81 443L86 444L90 441L94 447L98 463L103 475L107 483L111 483L115 480L120 479L124 479L128 473L132 467L137 455L141 456L145 448L150 452L154 442L158 445L162 448L167 444L171 451L175 446L179 448L184 442L188 441L192 442L196 450L201 456L205 465L209 459L213 456L218 458L222 454L226 458L230 458L235 455L239 453L243 460L248 455L252 455L256 446L260 442L265 443L269 444L273 451L277 448L282 447L286 448L290 454L294 450L299 449L303 453L307 454L311 455L316 458L320 460L324 375L328 376L333 403L337 384L341 372L345 444L350 457L354 486L358 482L363 482L367 470L371 474L375 479L380 464L384 460L388 466L392 408L397 432L401 434L405 456L409 453L414 451L418 420L422 431L426 434L431 409L435 395L439 372L443 372L448 377L452 381L456 371L461 397L465 429L469 450L473 477L478 482L482 480L486 473L490 476L495 465L499 415L503 433L507 429L512 293L516 283L520 304L524 296L529 315L533 261L537 252L541 216L546 219L550 219L554 197L559 195L563 198L567 177L571 77L576 210L580 285L584 254L588 283L593 203L597 132L601 196L605 259L610 284L614 287L618 314L622 332L627 342L631 322L635 320L639 325L644 336L648 337L652 358L657 352L661 376L665 408L669 420L674 418L678 428L682 423L686 422L691 413L695 417L699 426L703 400L708 399L712 407L716 408L720 388L725 411L729 380L733 353L737 352L742 358L746 322L750 346" fill="none" stroke-width="1.5"></path></g><g class="key-World_13"><path stroke="#6bb537" stroke-linecap="round" d="M47 462L52 459L56 460L60 443L64 450L69 454L73 453L77 453L81 453L86 451L90 446L94 453L98 466L103 478L107 489L111 483L115 484L120 486L124 488L128 479L132 476L137 467L141 463L145 457L150 463L154 450L158 446L162 448L167 445L171 450L175 450L179 446L184 442L188 439L192 449L196 458L201 448L205 463L209 455L213 445L218 449L222 458L226 458L230 456L235 451L239 444L243 452L248 447L252 452L256 449L260 442L265 451L269 451L273 448L277 448L282 446L286 447L290 451L294 452L299 460L303 454L307 459L311 455L316 452L320 451L324 436L328 441L333 449L337 442L341 438L345 470L350 480L354 504L358 487L363 475L367 467L371 490L375 487L380 476L384 481L388 485L392 443L397 456L401 441L405 439L409 381L414 359L418 348L422 370L426 398L431 397L435 399L439 408L443 407L448 406L452 413L456 413L461 434L465 467L469 475L473 504L478 501L482 503L486 493L490 501L495 492L499 456L503 461L507 463L512 418L516 375L520 406L524 414L529 389L533 376L537 415L541 416L546 412L550 400L554 400L559 401L563 411L567 374L571 338L576 353L580 362L584 362L588 358L593 323L597 329L601 315L605 345L610 380L614 413L618 419L622 427L627 411L631 415L635 407L639 417L644 407L648 427L652 416L657 408L661 409L665 427L669 403L674 402L678 429L682 436L686 439L691 432L695 419L699 402L703 382L708 392L712 409L716 410L720 401L725 409L729 381L733 349L737 368L742 382L746 364L750 396" fill="none" stroke-width="1.5"></path></g></g></g></g><g class="SourcesFooter" style="fill:#777"><g class="clickable" style="fill:#777"><text font-size="12.60" x="15.0" y="581.6"><tspan x="15" y="581.58">Source: Commodity Prices since 1850 - Jacks (2016)</tspan></text></g><text font-size="12.60" x="579.5" y="581.6"><tspan x="579.472" y="581.58"><a target='_blank' style='fill: #777;' href='https://ourworldindata.org/food-prices/'>OurWorldInData.org/food-prices/</a> • <a style="fill: #777;" class="cclogo" href="http://creativecommons.org/licenses/by-sa/4.0/deed.en_US" target="_blank">CC BY-SA</a></tspan></text></g></g></svg>