<svg xmlns="http://www.w3.org/2000/svg" version="1.1" style="font-family: 'Helvetica Neue', Helvetica, Arial, sans-serif; font-size: 18px; background-color: white; text-rendering: optimizeLegibility; -webkit-font-smoothing: antialiased;" width="850" height="600"><g class="ChartTab"><g class="HeaderView"><g opacity="0.8" transform="translate(778, 15) scale(0.27)"><a xmlns:xlink="http://www.w3.org/1999/xlink" xlink:href="https://ourworldindata.org" target="_blank"><g><rect x="0" y="0" fill="#1B2543" width="211.2" height="130.1"/><rect x="0" y="112.2" fill="#E63912" width="211.2" height="17.9"/><g><rect x="1.2" y="12.3" fill="none" width="210.2" height="99.2"/><path fill="#FFFFFF" d="M37.8,32.2c0,12.7-7.7,19.4-17.1,19.4c-9.7,0-16.6-7.5-16.6-18.7c0-11.7,7.3-19.3,17.1-19.3 C31.3,13.7,37.8,21.3,37.8,32.2z M9.2,32.8c0,7.9,4.3,14.9,11.8,14.9c7.5,0,11.8-6.9,11.8-15.3c0-7.3-3.8-14.9-11.8-14.9 C13.1,17.5,9.2,24.8,9.2,32.8z"/><path fill="#FFFFFF" d="M62.7,43.8c0,2.7,0.1,5.1,0.2,7.2h-4.3l-0.3-4.3h-0.1c-1.3,2.1-4,4.9-8.8,4.9c-4.2,0-9.1-2.3-9.1-11.6 V24.6h4.8v14.6c0,5,1.5,8.4,5.9,8.4c3.2,0,5.5-2.2,6.3-4.4c0.3-0.7,0.4-1.6,0.4-2.5V24.6h4.8V43.8z"/><path fill="#FFFFFF" d="M67.3,32.8c0-3.1-0.1-5.8-0.2-8.2h4.2l0.2,5.2h0.2c1.2-3.5,4.1-5.8,7.3-5.8c0.5,0,0.9,0.1,1.4,0.2v4.5 c-0.5-0.1-1-0.2-1.6-0.2c-3.4,0-5.8,2.6-6.5,6.2c-0.1,0.7-0.2,1.4-0.2,2.2V51h-4.8V32.8z"/><path fill="#FFFFFF" d="M95.4,51l-9.4-36.8h5l4.4,18.6c1.1,4.6,2.1,9.2,2.7,12.7h0.1c0.6-3.7,1.8-8,3-12.8l4.9-18.5h5l4.5,18.7 c1,4.4,2,8.7,2.6,12.6h0.1c0.8-4,1.8-8.1,3-12.7l4.9-18.5h4.9L120.6,51h-5L111,31.9c-1.1-4.7-1.9-8.3-2.4-12h-0.1 c-0.7,3.7-1.5,7.3-2.8,12L100.4,51H95.4z"/><path fill="#FFFFFF" d="M154.9,37.6c0,9.8-6.8,14-13.2,14c-7.2,0-12.7-5.2-12.7-13.6c0-8.8,5.8-14,13.1-14 C149.8,24,154.9,29.5,154.9,37.6z M133.9,37.9c0,5.8,3.3,10.1,8,10.1c4.6,0,8-4.3,8-10.3c0-4.5-2.2-10.1-7.9-10.1 C136.3,27.6,133.9,32.8,133.9,37.9z"/><path fill="#FFFFFF" d="M158.2,32.8c0-3.1-0.1-5.8-0.2-8.2h4.2l0.2,5.2h0.2c1.2-3.5,4.1-5.8,7.3-5.8c0.5,0,0.9,0.1,1.4,0.2v4.5 c-0.5-0.1-1-0.2-1.6-0.2c-3.4,0-5.8,2.6-6.5,6.2c-0.1,0.7-0.2,1.4-0.2,2.2V51h-4.8V32.8z"/><path fill="#FFFFFF" d="M173.5,12.3h4.8V51h-4.8V12.3z"/><path fill="#FFFFFF" d="M206.5,12.3v31.9c0,2.3,0.1,5,0.2,6.8h-4.3l-0.2-4.6H202c-1.5,2.9-4.7,5.2-9,5.2 c-6.4,0-11.3-5.4-11.3-13.4c-0.1-8.8,5.4-14.2,11.9-14.2c4,0,6.8,1.9,8,4h0.1V12.3H206.5z M201.7,35.4c0-0.6-0.1-1.4-0.2-2 c-0.7-3.1-3.3-5.6-6.9-5.6c-5,0-7.9,4.4-7.9,10.2c0,5.3,2.6,9.8,7.8,9.8c3.2,0,6.2-2.1,7.1-5.7c0.2-0.7,0.2-1.3,0.2-2.1V35.4z"/><path fill="#FFFFFF" d="M42.8,64c0.1,1.6-1.1,2.9-3.1,2.9c-1.7,0-2.9-1.3-2.9-2.9c0-1.7,1.3-3,3-3C41.7,61,42.8,62.3,42.8,64z M37.4,97.8V71.4h4.8v26.4H37.4z"/><path fill="#FFFFFF" d="M47.5,78.6c0-2.7-0.1-5-0.2-7.1h4.3l0.3,4.4h0.1c1.3-2.5,4.4-5,8.8-5c3.7,0,9.4,2.2,9.4,11.2v15.8h-4.8 V82.6c0-4.3-1.6-7.8-6.1-7.8c-3.2,0-5.6,2.2-6.5,4.9c-0.2,0.6-0.3,1.4-0.3,2.2v15.9h-4.8V78.6z"/><path fill="#FFFFFF" d="M84,61.6c2.9-0.4,6.3-0.8,10.1-0.8c6.8,0,11.7,1.6,14.9,4.6c3.3,3,5.2,7.3,5.2,13.2c0,6-1.9,10.9-5.3,14.3 c-3.4,3.4-9.1,5.3-16.3,5.3c-3.4,0-6.2-0.2-8.6-0.4V61.6z M88.8,94.1c1.2,0.2,3,0.3,4.8,0.3c10.2,0,15.7-5.7,15.7-15.6 c0.1-8.7-4.9-14.2-14.9-14.2c-2.5,0-4.3,0.2-5.6,0.5V94.1z"/><path fill="#FFFFFF" d="M132.1,97.8l-0.4-3.3h-0.2c-1.5,2.1-4.3,3.9-8.1,3.9c-5.4,0-8.1-3.8-8.1-7.6c0-6.4,5.7-9.9,15.9-9.8v-0.5 c0-2.2-0.6-6.1-6-6.1c-2.5,0-5,0.8-6.9,2l-1.1-3.2c2.2-1.4,5.4-2.3,8.7-2.3c8.1,0,10.1,5.5,10.1,10.8v9.9c0,2.3,0.1,4.5,0.4,6.3 H132.1z M131.4,84.4c-5.3-0.1-11.2,0.8-11.2,5.9c0,3.1,2.1,4.6,4.5,4.6c3.4,0,5.6-2.2,6.4-4.4c0.2-0.5,0.3-1,0.3-1.5V84.4z"/><path fill="#FFFFFF" d="M146.6,63.9v7.6h6.9v3.7h-6.9v14.2c0,3.3,0.9,5.1,3.6,5.1c1.3,0,2.2-0.2,2.8-0.3l0.2,3.6 c-0.9,0.4-2.4,0.7-4.3,0.7c-2.2,0-4-0.7-5.2-2c-1.4-1.4-1.9-3.8-1.9-6.9V75.1h-4.1v-3.7h4.1v-6.3L146.6,63.9z"/><path fill="#FFFFFF" d="M171.4,97.8l-0.4-3.3h-0.2c-1.5,2.1-4.3,3.9-8.1,3.9c-5.4,0-8.1-3.8-8.1-7.6c0-6.4,5.7-9.9,15.9-9.8v-0.5 c0-2.2-0.6-6.1-6-6.1c-2.5,0-5,0.8-6.9,2l-1.1-3.2c2.2-1.4,5.4-2.3,8.7-2.3c8.1,0,10.1,5.5,10.1,10.8v9.9c0,2.3,0.1,4.5,0.4,6.3 H171.4z M170.7,84.4c-5.3-0.1-11.2,0.8-11.2,5.9c0,3.1,2.1,4.6,4.5,4.6c3.4,0,5.6-2.2,6.4-4.4c0.2-0.5,0.3-1,0.3-1.5V84.4z"/></g></g></a></g><a href="https://ourworldindata.org/grapher/lung-cancer-deaths-per-100000-by-sex-1950-2002" target="_blank"><text font-size="25.20" x="15.0" y="35.2" fill="#555"><tspan x="15" y="35.160000000000004">Lung cancer deaths per 100,000 by sex, 1950-2002</tspan></text></a><text font-size="14.40" x="15.0" y="53.7" fill="#666"><tspan x="15" y="53.72">Number of lung cancer deaths per 100,000 people. </tspan></text></g><g class="LineChart"><defs><clipPath id="boundsClip-12"><rect x="28.144000000000005" y="0" width="830" height="959.8"></rect></clipPath></defs><g class="AxisBoxView"><g class="HorizontalAxis"><text x="38.1" y="556.5" fill="#666" text-anchor="middle" font-size="16.2">1950</text><text x="155.1" y="556.5" fill="#666" text-anchor="middle" font-size="16.2">1960</text><text x="272.1" y="556.5" fill="#666" text-anchor="middle" font-size="16.2">1970</text><text x="389.1" y="556.5" fill="#666" text-anchor="middle" font-size="16.2">1980</text><text x="506.1" y="556.5" fill="#666" text-anchor="middle" font-size="16.2">1990</text><text x="646.5" y="556.5" fill="#666" text-anchor="middle" font-size="16.2">2002</text></g><g class="VerticalAxis"><text x="33.14" y="535.3" fill="#666" dominant-baseline="middle" text-anchor="end" font-size="16.2">0</text><text x="33.14" y="473.8" fill="#666" dominant-baseline="middle" text-anchor="end" font-size="16.2">10</text><text x="33.14" y="412.3" fill="#666" dominant-baseline="middle" text-anchor="end" font-size="16.2">20</text><text x="33.14" y="350.8" fill="#666" dominant-baseline="middle" text-anchor="end" font-size="16.2">30</text><text x="33.14" y="289.3" fill="#666" dominant-baseline="middle" text-anchor="end" font-size="16.2">40</text><text x="33.14" y="227.8" fill="#666" dominant-baseline="middle" text-anchor="end" font-size="16.2">50</text><text x="33.14" y="166.3" fill="#666" dominant-baseline="middle" text-anchor="end" font-size="16.2">60</text><text x="33.14" y="104.8" fill="#666" dominant-baseline="middle" text-anchor="end" font-size="16.2">70</text></g><g class="AxisGridLines"><line x1="38.14" y1="535.3" x2="646.50" y2="535.3" stroke="#ccc"></line><line x1="38.14" y1="473.8" x2="646.50" y2="473.8" stroke="#ddd" stroke-dasharray="3,2"></line><line x1="38.14" y1="412.3" x2="646.50" y2="412.3" stroke="#ddd" stroke-dasharray="3,2"></line><line x1="38.14" y1="350.8" x2="646.50" y2="350.8" stroke="#ddd" stroke-dasharray="3,2"></line><line x1="38.14" y1="289.3" x2="646.50" y2="289.3" stroke="#ddd" stroke-dasharray="3,2"></line><line x1="38.14" y1="227.8" x2="646.50" y2="227.8" stroke="#ddd" stroke-dasharray="3,2"></line><line x1="38.14" y1="166.3" x2="646.50" y2="166.3" stroke="#ddd" stroke-dasharray="3,2"></line><line x1="38.14" y1="104.8" x2="646.50" y2="104.8" stroke="#ddd" stroke-dasharray="3,2"></line></g></g><g clip-path="url(#boundsClip-12)"><g class="HeightedLegend clickable"><g class="legendMark"><g class="indicator"><line x1="651.505" y1="263.3" x2="674.005" y2="263.3" stroke="#666" stroke-width="0.5"></line><line x1="674.005" y1="263.3" x2="674.005" y2="263.3" stroke="#666" stroke-width="0.5"></line><line x1="674.005" y1="263.3" x2="676.505" y2="263.3" stroke="#666" stroke-width="0.5"></line></g><rect x="646.505" y="256.55" width="101.15" height="13.5" fill="#fff" opacity="0"></rect><text font-size="13.50" x="681.5" y="267.4" fill="#2E8B57"><tspan x="681.505" y="267.35">Italy - Male</tspan></text></g><g class="legendMark"><g class="indicator"><line x1="651.505" y1="264" x2="664.005" y2="264" stroke="#666" stroke-width="0.5"></line><line x1="664.005" y1="264" x2="664.005" y2="278.8" stroke="#666" stroke-width="0.5"></line><line x1="664.005" y1="278.8" x2="676.505" y2="278.8" stroke="#666" stroke-width="0.5"></line></g><rect x="646.505" y="272.05" width="157.715" height="13.5" fill="#fff" opacity="0"></rect><text font-size="13.50" x="681.5" y="282.9" fill="#DC143C"><tspan x="681.505" y="282.85">United States - Male</tspan></text></g><g class="legendMark"><g class="indicator"><line x1="651.505" y1="304.2" x2="664.005" y2="304.2" stroke="#666" stroke-width="0.5"></line><line x1="664.005" y1="304.2" x2="664.005" y2="304.2" stroke="#666" stroke-width="0.5"></line><line x1="664.005" y1="304.2" x2="676.505" y2="304.2" stroke="#666" stroke-width="0.5"></line></g><rect x="646.505" y="297.45" width="172.70000000000002" height="13.5" fill="#fff" opacity="0"></rect><text font-size="13.50" x="681.5" y="308.3" fill="#436EEE"><tspan x="681.505" y="308.25">United Kingdom - Male</tspan></text></g><g class="legendMark"><g class="indicator"><line x1="651.505" y1="374.5" x2="664.005" y2="374.5" stroke="#666" stroke-width="0.5"></line><line x1="664.005" y1="374.5" x2="664.005" y2="374.5" stroke="#666" stroke-width="0.5"></line><line x1="664.005" y1="374.5" x2="676.505" y2="374.5" stroke="#666" stroke-width="0.5"></line></g><rect x="646.505" y="367.75" width="173.51000000000002" height="13.5" fill="#fff" opacity="0"></rect><text font-size="13.50" x="681.5" y="378.6" fill="#DC143C"><tspan x="681.505" y="378.55">United States - Female</tspan></text></g><g class="legendMark"><g class="indicator"><line x1="651.505" y1="414.3" x2="664.005" y2="414.3" stroke="#666" stroke-width="0.5"></line><line x1="664.005" y1="414.3" x2="664.005" y2="414.3" stroke="#666" stroke-width="0.5"></line><line x1="664.005" y1="414.3" x2="676.505" y2="414.3" stroke="#666" stroke-width="0.5"></line></g><rect x="646.505" y="407.55" width="188.495" height="13.5" fill="#fff" opacity="0"></rect><text font-size="13.50" x="681.5" y="418.4" fill="#436EEE"><tspan x="681.505" y="418.35">United Kingdom - Female</tspan></text></g><g class="legendMark"><g class="indicator"><line x1="651.505" y1="481.5" x2="664.005" y2="481.5" stroke="#666" stroke-width="0.5"></line><line x1="664.005" y1="481.5" x2="664.005" y2="481.5" stroke="#666" stroke-width="0.5"></line><line x1="664.005" y1="481.5" x2="676.505" y2="481.5" stroke="#666" stroke-width="0.5"></line></g><rect x="646.505" y="474.75" width="116.94500000000001" height="13.5" fill="#fff" opacity="0"></rect><text font-size="13.50" x="681.5" y="485.6" fill="#2E8B57"><tspan x="681.505" y="485.55">Italy - Female</tspan></text></g></g><g class="Lines"><rect x="38" y="77" width="608" height="459" fill="rgba(255,255,255,0)" opacity="0"></rect><g class="key-United-States_0"><path stroke="#DC143C" stroke-linecap="round" d="M38 513L50 513L62 512L73 512L85 512L97 511L108 511L120 511L132 509L143 509L155 508L167 506L179 505L190 502L202 502L214 499L225 496L237 493L249 487L260 484L272 480L284 475L296 471L307 468L319 463L331 458L342 452L354 447L366 441L377 437L389 430L401 426L413 419L424 413L436 410L448 403L459 401L471 396L483 390L494 385L506 381L518 380L530 375L541 374L553 373L565 372L576 373L588 372L600 372L611 377L623 374L635 376L647 375" fill="none" stroke-width="1.5"></path><g fill="#DC143C"><circle cx="38" cy="513" r="2"></circle><circle cx="50" cy="513" r="2"></circle><circle cx="62" cy="512" r="2"></circle><circle cx="73" cy="512" r="2"></circle><circle cx="85" cy="512" r="2"></circle><circle cx="97" cy="511" r="2"></circle><circle cx="108" cy="511" r="2"></circle><circle cx="120" cy="511" r="2"></circle><circle cx="132" cy="509" r="2"></circle><circle cx="143" cy="509" r="2"></circle><circle cx="155" cy="508" r="2"></circle><circle cx="167" cy="506" r="2"></circle><circle cx="179" cy="505" r="2"></circle><circle cx="190" cy="502" r="2"></circle><circle cx="202" cy="502" r="2"></circle><circle cx="214" cy="499" r="2"></circle><circle cx="225" cy="496" r="2"></circle><circle cx="237" cy="493" r="2"></circle><circle cx="249" cy="487" r="2"></circle><circle cx="260" cy="484" r="2"></circle><circle cx="272" cy="480" r="2"></circle><circle cx="284" cy="475" r="2"></circle><circle cx="296" cy="471" r="2"></circle><circle cx="307" cy="468" r="2"></circle><circle cx="319" cy="463" r="2"></circle><circle cx="331" cy="458" r="2"></circle><circle cx="342" cy="452" r="2"></circle><circle cx="354" cy="447" r="2"></circle><circle cx="366" cy="441" r="2"></circle><circle cx="377" cy="437" r="2"></circle><circle cx="389" cy="430" r="2"></circle><circle cx="401" cy="426" r="2"></circle><circle cx="413" cy="419" r="2"></circle><circle cx="424" cy="413" r="2"></circle><circle cx="436" cy="410" r="2"></circle><circle cx="448" cy="403" r="2"></circle><circle cx="459" cy="401" r="2"></circle><circle cx="471" cy="396" r="2"></circle><circle cx="483" cy="390" r="2"></circle><circle cx="494" cy="385" r="2"></circle><circle cx="506" cy="381" r="2"></circle><circle cx="518" cy="380" r="2"></circle><circle cx="530" cy="375" r="2"></circle><circle cx="541" cy="374" r="2"></circle><circle cx="553" cy="373" r="2"></circle><circle cx="565" cy="372" r="2"></circle><circle cx="576" cy="373" r="2"></circle><circle cx="588" cy="372" r="2"></circle><circle cx="600" cy="372" r="2"></circle><circle cx="611" cy="377" r="2"></circle><circle cx="623" cy="374" r="2"></circle><circle cx="635" cy="376" r="2"></circle><circle cx="647" cy="375" r="2"></circle></g></g><g class="key-United-States_1"><path stroke="#DC143C" stroke-linecap="round" d="M38 429L50 422L62 413L73 402L85 396L97 387L108 376L120 369L132 364L143 355L155 346L167 337L179 327L190 321L202 312L214 304L225 295L237 286L249 270L260 265L272 257L284 250L296 239L307 235L319 228L331 224L342 217L354 210L366 204L377 202L389 196L401 196L413 192L424 194L436 190L448 191L459 192L471 189L483 192L494 194L506 191L518 195L530 202L541 203L553 211L565 218L576 224L588 232L600 237L611 249L623 252L635 258L647 264" fill="none" stroke-width="1.5"></path><g fill="#DC143C"><circle cx="38" cy="429" r="2"></circle><circle cx="50" cy="422" r="2"></circle><circle cx="62" cy="413" r="2"></circle><circle cx="73" cy="402" r="2"></circle><circle cx="85" cy="396" r="2"></circle><circle cx="97" cy="387" r="2"></circle><circle cx="108" cy="376" r="2"></circle><circle cx="120" cy="369" r="2"></circle><circle cx="132" cy="364" r="2"></circle><circle cx="143" cy="355" r="2"></circle><circle cx="155" cy="346" r="2"></circle><circle cx="167" cy="337" r="2"></circle><circle cx="179" cy="327" r="2"></circle><circle cx="190" cy="321" r="2"></circle><circle cx="202" cy="312" r="2"></circle><circle cx="214" cy="304" r="2"></circle><circle cx="225" cy="295" r="2"></circle><circle cx="237" cy="286" r="2"></circle><circle cx="249" cy="270" r="2"></circle><circle cx="260" cy="265" r="2"></circle><circle cx="272" cy="257" r="2"></circle><circle cx="284" cy="250" r="2"></circle><circle cx="296" cy="239" r="2"></circle><circle cx="307" cy="235" r="2"></circle><circle cx="319" cy="228" r="2"></circle><circle cx="331" cy="224" r="2"></circle><circle cx="342" cy="217" r="2"></circle><circle cx="354" cy="210" r="2"></circle><circle cx="366" cy="204" r="2"></circle><circle cx="377" cy="202" r="2"></circle><circle cx="389" cy="196" r="2"></circle><circle cx="401" cy="196" r="2"></circle><circle cx="413" cy="192" r="2"></circle><circle cx="424" cy="194" r="2"></circle><circle cx="436" cy="190" r="2"></circle><circle cx="448" cy="191" r="2"></circle><circle cx="459" cy="192" r="2"></circle><circle cx="471" cy="189" r="2"></circle><circle cx="483" cy="192" r="2"></circle><circle cx="494" cy="194" r="2"></circle><circle cx="506" cy="191" r="2"></circle><circle cx="518" cy="195" r="2"></circle><circle cx="530" cy="202" r="2"></circle><circle cx="541" cy="203" r="2"></circle><circle cx="553" cy="211" r="2"></circle><circle cx="565" cy="218" r="2"></circle><circle cx="576" cy="224" r="2"></circle><circle cx="588" cy="232" r="2"></circle><circle cx="600" cy="237" r="2"></circle><circle cx="611" cy="249" r="2"></circle><circle cx="623" cy="252" r="2"></circle><circle cx="635" cy="258" r="2"></circle><circle cx="647" cy="264" r="2"></circle></g></g><g class="key-Italy_0"><path stroke="#2E8B57" stroke-linecap="round" d="M50 520L62 519L73 517L85 517L97 515L108 514L120 514L132 513L143 514L155 511L167 511L179 511L190 509L202 508L214 508L225 506L237 507L249 507L260 506L272 507L284 507L296 505L307 504L319 503L331 502L342 501L354 499L366 501L377 499L389 498L401 497L413 496L424 495L436 493L448 493L459 491L471 491L483 490L494 490L506 491L518 491L530 487L541 488L553 488L565 487L576 486L588 487L600 486L611 487L623 484L635 484L647 482" fill="none" stroke-width="1.5"></path><g fill="#2E8B57"><circle cx="50" cy="520" r="2"></circle><circle cx="62" cy="519" r="2"></circle><circle cx="73" cy="517" r="2"></circle><circle cx="85" cy="517" r="2"></circle><circle cx="97" cy="515" r="2"></circle><circle cx="108" cy="514" r="2"></circle><circle cx="120" cy="514" r="2"></circle><circle cx="132" cy="513" r="2"></circle><circle cx="143" cy="514" r="2"></circle><circle cx="155" cy="511" r="2"></circle><circle cx="167" cy="511" r="2"></circle><circle cx="179" cy="511" r="2"></circle><circle cx="190" cy="509" r="2"></circle><circle cx="202" cy="508" r="2"></circle><circle cx="214" cy="508" r="2"></circle><circle cx="225" cy="506" r="2"></circle><circle cx="237" cy="507" r="2"></circle><circle cx="249" cy="507" r="2"></circle><circle cx="260" cy="506" r="2"></circle><circle cx="272" cy="507" r="2"></circle><circle cx="284" cy="507" r="2"></circle><circle cx="296" cy="505" r="2"></circle><circle cx="307" cy="504" r="2"></circle><circle cx="319" cy="503" r="2"></circle><circle cx="331" cy="502" r="2"></circle><circle cx="342" cy="501" r="2"></circle><circle cx="354" cy="499" r="2"></circle><circle cx="366" cy="501" r="2"></circle><circle cx="377" cy="499" r="2"></circle><circle cx="389" cy="498" r="2"></circle><circle cx="401" cy="497" r="2"></circle><circle cx="413" cy="496" r="2"></circle><circle cx="424" cy="495" r="2"></circle><circle cx="436" cy="493" r="2"></circle><circle cx="448" cy="493" r="2"></circle><circle cx="459" cy="491" r="2"></circle><circle cx="471" cy="491" r="2"></circle><circle cx="483" cy="490" r="2"></circle><circle cx="494" cy="490" r="2"></circle><circle cx="506" cy="491" r="2"></circle><circle cx="518" cy="491" r="2"></circle><circle cx="530" cy="487" r="2"></circle><circle cx="541" cy="488" r="2"></circle><circle cx="553" cy="488" r="2"></circle><circle cx="565" cy="487" r="2"></circle><circle cx="576" cy="486" r="2"></circle><circle cx="588" cy="487" r="2"></circle><circle cx="600" cy="486" r="2"></circle><circle cx="611" cy="487" r="2"></circle><circle cx="623" cy="484" r="2"></circle><circle cx="635" cy="484" r="2"></circle><circle cx="647" cy="482" r="2"></circle></g></g><g class="key-Italy_1"><path stroke="#2E8B57" stroke-linecap="round" d="M50 477L62 469L73 461L85 450L97 445L108 433L120 426L132 422L143 414L155 402L167 395L179 386L190 381L202 363L214 356L225 347L237 337L249 323L260 313L272 314L284 298L296 291L307 283L319 270L331 260L342 246L354 237L366 225L377 213L389 196L401 199L413 186L424 177L436 177L448 170L459 178L471 168L483 170L494 183L506 190L518 192L530 194L541 197L553 203L565 214L576 221L588 227L600 233L611 239L623 252L635 256L647 263" fill="none" stroke-width="1.5"></path><g fill="#2E8B57"><circle cx="50" cy="477" r="2"></circle><circle cx="62" cy="469" r="2"></circle><circle cx="73" cy="461" r="2"></circle><circle cx="85" cy="450" r="2"></circle><circle cx="97" cy="445" r="2"></circle><circle cx="108" cy="433" r="2"></circle><circle cx="120" cy="426" r="2"></circle><circle cx="132" cy="422" r="2"></circle><circle cx="143" cy="414" r="2"></circle><circle cx="155" cy="402" r="2"></circle><circle cx="167" cy="395" r="2"></circle><circle cx="179" cy="386" r="2"></circle><circle cx="190" cy="381" r="2"></circle><circle cx="202" cy="363" r="2"></circle><circle cx="214" cy="356" r="2"></circle><circle cx="225" cy="347" r="2"></circle><circle cx="237" cy="337" r="2"></circle><circle cx="249" cy="323" r="2"></circle><circle cx="260" cy="313" r="2"></circle><circle cx="272" cy="314" r="2"></circle><circle cx="284" cy="298" r="2"></circle><circle cx="296" cy="291" r="2"></circle><circle cx="307" cy="283" r="2"></circle><circle cx="319" cy="270" r="2"></circle><circle cx="331" cy="260" r="2"></circle><circle cx="342" cy="246" r="2"></circle><circle cx="354" cy="237" r="2"></circle><circle cx="366" cy="225" r="2"></circle><circle cx="377" cy="213" r="2"></circle><circle cx="389" cy="196" r="2"></circle><circle cx="401" cy="199" r="2"></circle><circle cx="413" cy="186" r="2"></circle><circle cx="424" cy="177" r="2"></circle><circle cx="436" cy="177" r="2"></circle><circle cx="448" cy="170" r="2"></circle><circle cx="459" cy="178" r="2"></circle><circle cx="471" cy="168" r="2"></circle><circle cx="483" cy="170" r="2"></circle><circle cx="494" cy="183" r="2"></circle><circle cx="506" cy="190" r="2"></circle><circle cx="518" cy="192" r="2"></circle><circle cx="530" cy="194" r="2"></circle><circle cx="541" cy="197" r="2"></circle><circle cx="553" cy="203" r="2"></circle><circle cx="565" cy="214" r="2"></circle><circle cx="576" cy="221" r="2"></circle><circle cx="588" cy="227" r="2"></circle><circle cx="600" cy="233" r="2"></circle><circle cx="611" cy="239" r="2"></circle><circle cx="623" cy="252" r="2"></circle><circle cx="635" cy="256" r="2"></circle><circle cx="647" cy="263" r="2"></circle></g></g><g class="key-United-Kingdom_0"><path stroke="#436EEE" stroke-linecap="round" d="M38 498L50 498L62 496L73 496L85 495L97 494L108 492L120 491L132 490L143 488L155 486L167 483L179 481L190 479L202 476L214 472L225 470L237 466L249 463L260 462L272 459L284 455L296 452L307 450L319 444L331 443L342 440L354 436L366 433L377 429L389 426L401 425L413 419L424 420L436 413L448 413L459 412L471 409L483 405L494 406L506 406L518 406L530 406L541 407L553 407L565 408L576 409L588 413L600 411L611 412L623 413L635 415L647 414" fill="none" stroke-width="1.5"></path><g fill="#436EEE"><circle cx="38" cy="498" r="2"></circle><circle cx="50" cy="498" r="2"></circle><circle cx="62" cy="496" r="2"></circle><circle cx="73" cy="496" r="2"></circle><circle cx="85" cy="495" r="2"></circle><circle cx="97" cy="494" r="2"></circle><circle cx="108" cy="492" r="2"></circle><circle cx="120" cy="491" r="2"></circle><circle cx="132" cy="490" r="2"></circle><circle cx="143" cy="488" r="2"></circle><circle cx="155" cy="486" r="2"></circle><circle cx="167" cy="483" r="2"></circle><circle cx="179" cy="481" r="2"></circle><circle cx="190" cy="479" r="2"></circle><circle cx="202" cy="476" r="2"></circle><circle cx="214" cy="472" r="2"></circle><circle cx="225" cy="470" r="2"></circle><circle cx="237" cy="466" r="2"></circle><circle cx="249" cy="463" r="2"></circle><circle cx="260" cy="462" r="2"></circle><circle cx="272" cy="459" r="2"></circle><circle cx="284" cy="455" r="2"></circle><circle cx="296" cy="452" r="2"></circle><circle cx="307" cy="450" r="2"></circle><circle cx="319" cy="444" r="2"></circle><circle cx="331" cy="443" r="2"></circle><circle cx="342" cy="440" r="2"></circle><circle cx="354" cy="436" r="2"></circle><circle cx="366" cy="433" r="2"></circle><circle cx="377" cy="429" r="2"></circle><circle cx="389" cy="426" r="2"></circle><circle cx="401" cy="425" r="2"></circle><circle cx="413" cy="419" r="2"></circle><circle cx="424" cy="420" r="2"></circle><circle cx="436" cy="413" r="2"></circle><circle cx="448" cy="413" r="2"></circle><circle cx="459" cy="412" r="2"></circle><circle cx="471" cy="409" r="2"></circle><circle cx="483" cy="405" r="2"></circle><circle cx="494" cy="406" r="2"></circle><circle cx="506" cy="406" r="2"></circle><circle cx="518" cy="406" r="2"></circle><circle cx="530" cy="406" r="2"></circle><circle cx="541" cy="407" r="2"></circle><circle cx="553" cy="407" r="2"></circle><circle cx="565" cy="408" r="2"></circle><circle cx="576" cy="409" r="2"></circle><circle cx="588" cy="413" r="2"></circle><circle cx="600" cy="411" r="2"></circle><circle cx="611" cy="412" r="2"></circle><circle cx="623" cy="413" r="2"></circle><circle cx="635" cy="415" r="2"></circle><circle cx="647" cy="414" r="2"></circle></g></g><g class="key-United-Kingdom_1"><path stroke="#436EEE" stroke-linecap="round" d="M38 300L50 283L62 266L73 247L85 226L97 213L108 197L120 182L132 173L143 154L155 143L167 136L179 124L190 116L202 109L214 100L225 98L237 88L249 88L260 81L272 82L284 84L296 79L307 79L319 77L331 88L342 83L354 90L366 91L377 93L389 100L401 111L413 120L424 116L436 126L448 130L459 145L471 156L483 160L494 175L506 182L518 189L530 201L541 217L553 228L565 242L576 255L588 269L600 273L611 286L623 294L635 301L647 304" fill="none" stroke-width="1.5"></path><g fill="#436EEE"><circle cx="38" cy="300" r="2"></circle><circle cx="50" cy="283" r="2"></circle><circle cx="62" cy="266" r="2"></circle><circle cx="73" cy="247" r="2"></circle><circle cx="85" cy="226" r="2"></circle><circle cx="97" cy="213" r="2"></circle><circle cx="108" cy="197" r="2"></circle><circle cx="120" cy="182" r="2"></circle><circle cx="132" cy="173" r="2"></circle><circle cx="143" cy="154" r="2"></circle><circle cx="155" cy="143" r="2"></circle><circle cx="167" cy="136" r="2"></circle><circle cx="179" cy="124" r="2"></circle><circle cx="190" cy="116" r="2"></circle><circle cx="202" cy="109" r="2"></circle><circle cx="214" cy="100" r="2"></circle><circle cx="225" cy="98" r="2"></circle><circle cx="237" cy="88" r="2"></circle><circle cx="249" cy="88" r="2"></circle><circle cx="260" cy="81" r="2"></circle><circle cx="272" cy="82" r="2"></circle><circle cx="284" cy="84" r="2"></circle><circle cx="296" cy="79" r="2"></circle><circle cx="307" cy="79" r="2"></circle><circle cx="319" cy="77" r="2"></circle><circle cx="331" cy="88" r="2"></circle><circle cx="342" cy="83" r="2"></circle><circle cx="354" cy="90" r="2"></circle><circle cx="366" cy="91" r="2"></circle><circle cx="377" cy="93" r="2"></circle><circle cx="389" cy="100" r="2"></circle><circle cx="401" cy="111" r="2"></circle><circle cx="413" cy="120" r="2"></circle><circle cx="424" cy="116" r="2"></circle><circle cx="436" cy="126" r="2"></circle><circle cx="448" cy="130" r="2"></circle><circle cx="459" cy="145" r="2"></circle><circle cx="471" cy="156" r="2"></circle><circle cx="483" cy="160" r="2"></circle><circle cx="494" cy="175" r="2"></circle><circle cx="506" cy="182" r="2"></circle><circle cx="518" cy="189" r="2"></circle><circle cx="530" cy="201" r="2"></circle><circle cx="541" cy="217" r="2"></circle><circle cx="553" cy="228" r="2"></circle><circle cx="565" cy="242" r="2"></circle><circle cx="576" cy="255" r="2"></circle><circle cx="588" cy="269" r="2"></circle><circle cx="600" cy="273" r="2"></circle><circle cx="611" cy="286" r="2"></circle><circle cx="623" cy="294" r="2"></circle><circle cx="635" cy="301" r="2"></circle><circle cx="647" cy="304" r="2"></circle></g></g></g></g></g><g style="fill: #777;" class="SourcesFooter"><g style="fill: #777;" class="clickable"><text font-size="12.60" x="15.0" y="581.6"><tspan x="15" y="581.58">Source: WHO - International Agency for Research on Cancer (IARC) (2016)</tspan></text></g><text font-size="12.60" x="775.4" y="581.6"><tspan x="775.402" y="581.58"><a style="fill: #777;" class="cclogo" href="http://creativecommons.org/licenses/by-sa/4.0/deed.en_US" target="_blank">CC BY-SA</a></tspan></text></g></g></svg>