<svg xmlns="http://www.w3.org/2000/svg" version="1.1" style="font-family:&#x27;Helvetica Neue&#x27;, Helvetica, Arial, sans-serif;font-size:18px;background-color:white;text-rendering:optimizeLegibility;-webkit-font-smoothing:antialiased" width="850" height="600"><g class="ChartTab"><g class="HeaderView"><g opacity="0.8" transform="translate(778, 15) scale(0.27)"><a xmlns:xlink="http://www.w3.org/1999/xlink" xlink:href="https://ourworldindata.org" target="_blank"><g><rect x="0" y="0" fill="#1B2543" width="211.2" height="130.1"/><rect x="0" y="112.2" fill="#E63912" width="211.2" height="17.9"/><g><rect x="1.2" y="12.3" fill="none" width="210.2" height="99.2"/><path fill="#FFFFFF" d="M37.8,32.2c0,12.7-7.7,19.4-17.1,19.4c-9.7,0-16.6-7.5-16.6-18.7c0-11.7,7.3-19.3,17.1-19.3 C31.3,13.7,37.8,21.3,37.8,32.2z M9.2,32.8c0,7.9,4.3,14.9,11.8,14.9c7.5,0,11.8-6.9,11.8-15.3c0-7.3-3.8-14.9-11.8-14.9 C13.1,17.5,9.2,24.8,9.2,32.8z"/><path fill="#FFFFFF" d="M62.7,43.8c0,2.7,0.1,5.1,0.2,7.2h-4.3l-0.3-4.3h-0.1c-1.3,2.1-4,4.9-8.8,4.9c-4.2,0-9.1-2.3-9.1-11.6 V24.6h4.8v14.6c0,5,1.5,8.4,5.9,8.4c3.2,0,5.5-2.2,6.3-4.4c0.3-0.7,0.4-1.6,0.4-2.5V24.6h4.8V43.8z"/><path fill="#FFFFFF" d="M67.3,32.8c0-3.1-0.1-5.8-0.2-8.2h4.2l0.2,5.2h0.2c1.2-3.5,4.1-5.8,7.3-5.8c0.5,0,0.9,0.1,1.4,0.2v4.5 c-0.5-0.1-1-0.2-1.6-0.2c-3.4,0-5.8,2.6-6.5,6.2c-0.1,0.7-0.2,1.4-0.2,2.2V51h-4.8V32.8z"/><path fill="#FFFFFF" d="M95.4,51l-9.4-36.8h5l4.4,18.6c1.1,4.6,2.1,9.2,2.7,12.7h0.1c0.6-3.7,1.8-8,3-12.8l4.9-18.5h5l4.5,18.7 c1,4.4,2,8.7,2.6,12.6h0.1c0.8-4,1.8-8.1,3-12.7l4.9-18.5h4.9L120.6,51h-5L111,31.9c-1.1-4.7-1.9-8.3-2.4-12h-0.1 c-0.7,3.7-1.5,7.3-2.8,12L100.4,51H95.4z"/><path fill="#FFFFFF" d="M154.9,37.6c0,9.8-6.8,14-13.2,14c-7.2,0-12.7-5.2-12.7-13.6c0-8.8,5.8-14,13.1-14 C149.8,24,154.9,29.5,154.9,37.6z M133.9,37.9c0,5.8,3.3,10.1,8,10.1c4.6,0,8-4.3,8-10.3c0-4.5-2.2-10.1-7.9-10.1 C136.3,27.6,133.9,32.8,133.9,37.9z"/><path fill="#FFFFFF" d="M158.2,32.8c0-3.1-0.1-5.8-0.2-8.2h4.2l0.2,5.2h0.2c1.2-3.5,4.1-5.8,7.3-5.8c0.5,0,0.9,0.1,1.4,0.2v4.5 c-0.5-0.1-1-0.2-1.6-0.2c-3.4,0-5.8,2.6-6.5,6.2c-0.1,0.7-0.2,1.4-0.2,2.2V51h-4.8V32.8z"/><path fill="#FFFFFF" d="M173.5,12.3h4.8V51h-4.8V12.3z"/><path fill="#FFFFFF" d="M206.5,12.3v31.9c0,2.3,0.1,5,0.2,6.8h-4.3l-0.2-4.6H202c-1.5,2.9-4.7,5.2-9,5.2 c-6.4,0-11.3-5.4-11.3-13.4c-0.1-8.8,5.4-14.2,11.9-14.2c4,0,6.8,1.9,8,4h0.1V12.3H206.5z M201.7,35.4c0-0.6-0.1-1.4-0.2-2 c-0.7-3.1-3.3-5.6-6.9-5.6c-5,0-7.9,4.4-7.9,10.2c0,5.3,2.6,9.8,7.8,9.8c3.2,0,6.2-2.1,7.1-5.7c0.2-0.7,0.2-1.3,0.2-2.1V35.4z"/><path fill="#FFFFFF" d="M42.8,64c0.1,1.6-1.1,2.9-3.1,2.9c-1.7,0-2.9-1.3-2.9-2.9c0-1.7,1.3-3,3-3C41.7,61,42.8,62.3,42.8,64z M37.4,97.8V71.4h4.8v26.4H37.4z"/><path fill="#FFFFFF" d="M47.5,78.6c0-2.7-0.1-5-0.2-7.1h4.3l0.3,4.4h0.1c1.3-2.5,4.4-5,8.8-5c3.7,0,9.4,2.2,9.4,11.2v15.8h-4.8 V82.6c0-4.3-1.6-7.8-6.1-7.8c-3.2,0-5.6,2.2-6.5,4.9c-0.2,0.6-0.3,1.4-0.3,2.2v15.9h-4.8V78.6z"/><path fill="#FFFFFF" d="M84,61.6c2.9-0.4,6.3-0.8,10.1-0.8c6.8,0,11.7,1.6,14.9,4.6c3.3,3,5.2,7.3,5.2,13.2c0,6-1.9,10.9-5.3,14.3 c-3.4,3.4-9.1,5.3-16.3,5.3c-3.4,0-6.2-0.2-8.6-0.4V61.6z M88.8,94.1c1.2,0.2,3,0.3,4.8,0.3c10.2,0,15.7-5.7,15.7-15.6 c0.1-8.7-4.9-14.2-14.9-14.2c-2.5,0-4.3,0.2-5.6,0.5V94.1z"/><path fill="#FFFFFF" d="M132.1,97.8l-0.4-3.3h-0.2c-1.5,2.1-4.3,3.9-8.1,3.9c-5.4,0-8.1-3.8-8.1-7.6c0-6.4,5.7-9.9,15.9-9.8v-0.5 c0-2.2-0.6-6.1-6-6.1c-2.5,0-5,0.8-6.9,2l-1.1-3.2c2.2-1.4,5.4-2.3,8.7-2.3c8.1,0,10.1,5.5,10.1,10.8v9.9c0,2.3,0.1,4.5,0.4,6.3 H132.1z M131.4,84.4c-5.3-0.1-11.2,0.8-11.2,5.9c0,3.1,2.1,4.6,4.5,4.6c3.4,0,5.6-2.2,6.4-4.4c0.2-0.5,0.3-1,0.3-1.5V84.4z"/><path fill="#FFFFFF" d="M146.6,63.9v7.6h6.9v3.7h-6.9v14.2c0,3.3,0.9,5.1,3.6,5.1c1.3,0,2.2-0.2,2.8-0.3l0.2,3.6 c-0.9,0.4-2.4,0.7-4.3,0.7c-2.2,0-4-0.7-5.2-2c-1.4-1.4-1.9-3.8-1.9-6.9V75.1h-4.1v-3.7h4.1v-6.3L146.6,63.9z"/><path fill="#FFFFFF" d="M171.4,97.8l-0.4-3.3h-0.2c-1.5,2.1-4.3,3.9-8.1,3.9c-5.4,0-8.1-3.8-8.1-7.6c0-6.4,5.7-9.9,15.9-9.8v-0.5 c0-2.2-0.6-6.1-6-6.1c-2.5,0-5,0.8-6.9,2l-1.1-3.2c2.2-1.4,5.4-2.3,8.7-2.3c8.1,0,10.1,5.5,10.1,10.8v9.9c0,2.3,0.1,4.5,0.4,6.3 H171.4z M170.7,84.4c-5.3-0.1-11.2,0.8-11.2,5.9c0,3.1,2.1,4.6,4.5,4.6c3.4,0,5.6-2.2,6.4-4.4c0.2-0.5,0.3-1,0.3-1.5V84.4z"/></g></g></a></g><a href="https://ourworldindata.org/grapher/male-vs-female-informal-employment-as-share-of-total-employment" target="_blank"><text font-size="22.50" x="15.0" y="33.0" fill="#555"><tspan x="15" y="33">Male vs Female informal employment as share of total employment, 2011</tspan></text></a><text font-size="14.40" x="15.0" y="51.0" fill="#666"><tspan x="15" y="51.019999999999996">Male vs female employment in the informal economy as a percentage of total non-agricultural employment. It</tspan><tspan x="15" y="66.86">basically includes all jobs in unregistered or small-scale private enterprises that produce goods or services for sale.</tspan><tspan x="15" y="82.7">Self-employed street vendors, taxi drivers and home-base workers, regardless of size, are all considered.</tspan></text></g><g><g class="AxisBoxView"><g class="HorizontalAxis"><text font-size="12.60" x="169.8" y="554.0"><tspan x="169.763" y="553.98">Informal employment, female (% of total non-agricultural employment)</tspan></text><text x="169.5" y="533.9" fill="#666" text-anchor="middle" font-size="16.2">20%</text><text x="306.8" y="533.9" fill="#666" text-anchor="middle" font-size="16.2">40%</text><text x="444.2" y="533.9" fill="#666" text-anchor="middle" font-size="16.2">60%</text><text x="581.5" y="533.9" fill="#666" text-anchor="middle" font-size="16.2">80%</text></g><g class="VerticalAxis"><text font-size="12.60" x="-520.6" y="25.1" transform="rotate(-90)"><tspan x="-520.645" y="25.080000000000002">Informal employment, male (% of total non-agricultural employment)</tspan></text><text x="70.16" y="512.7" fill="#666" dominant-baseline="middle" text-anchor="end" font-size="16.2">0%</text><text x="70.16" y="430.2" fill="#666" dominant-baseline="middle" text-anchor="end" font-size="16.2">20%</text><text x="70.16" y="347.6" fill="#666" dominant-baseline="middle" text-anchor="end" font-size="16.2">40%</text><text x="70.16" y="265.1" fill="#666" dominant-baseline="middle" text-anchor="end" font-size="16.2">60%</text><text x="70.16" y="182.6" fill="#666" dominant-baseline="middle" text-anchor="end" font-size="16.2">80%</text></g><g class="AxisGridLines"><line x1="75.16" y1="512.7" x2="715.00" y2="512.7" stroke="#ccc"></line><line x1="75.16" y1="430.2" x2="715.00" y2="430.2" stroke="#ddd" stroke-dasharray="3,2"></line><line x1="75.16" y1="347.6" x2="715.00" y2="347.6" stroke="#ddd" stroke-dasharray="3,2"></line><line x1="75.16" y1="265.1" x2="715.00" y2="265.1" stroke="#ddd" stroke-dasharray="3,2"></line><line x1="75.16" y1="182.6" x2="715.00" y2="182.6" stroke="#ddd" stroke-dasharray="3,2"></line></g><g class="AxisGridLines"><line x1="169.5" y1="512.70" x2="169.5" y2="104.90" stroke="#ddd" stroke-dasharray="3,2"></line><line x1="306.8" y1="512.70" x2="306.8" y2="104.90" stroke="#ddd" stroke-dasharray="3,2"></line><line x1="444.2" y1="512.70" x2="444.2" y2="104.90" stroke="#ddd" stroke-dasharray="3,2"></line><line x1="581.5" y1="512.70" x2="581.5" y2="104.90" stroke="#ddd" stroke-dasharray="3,2"></line></g></g><g class="ComparisonLine"><defs><clipPath id="axisBounds-509"><rect x="75.162" y="104.9" width="639.838" height="407.8"></rect></clipPath></defs><path d="M75.2,486.9L81.6,483L88,479.2L94.4,475.3L100.8,471.5L107.2,467.6L113.6,463.8L120,460L126.3,456.1L132.7,452.3L139.1,448.4L145.5,444.6L151.9,440.7L158.3,436.9L164.7,433L171.1,429.2L177.5,425.3L183.9,421.5L190.3,417.7L196.7,413.8L203.1,410L209.5,406.1L215.9,402.3L222.3,398.4L228.7,394.6L235.1,390.7L241.5,386.9L247.9,383L254.3,379.2L260.7,375.4L267.1,371.5L273.5,367.7L279.9,363.8L286.3,360L292.7,356.1L299.1,352.3L305.5,348.4L311.9,344.6L318.3,340.7L324.7,336.9L331.1,333.1L337.5,329.2L343.9,325.4L350.3,321.5L356.7,317.7L363.1,313.8L369.5,310L375.9,306.1L382.3,302.3L388.7,298.4L395.1,294.6L401.5,290.8L407.9,286.9L414.3,283.1L420.7,279.2L427.1,275.4L433.5,271.5L439.9,267.7L446.3,263.8L452.7,260L459.1,256.2L465.5,252.3L471.9,248.5L478.3,244.6L484.7,240.8L491.1,236.9L497.5,233.1L503.9,229.2L510.3,225.4L516.7,221.5L523,217.7L529.4,213.9L535.8,210L542.2,206.2L548.6,202.3L555,198.5L561.4,194.6L567.8,190.8L574.2,186.9L580.6,183.1L587,179.2L593.4,175.4L599.8,171.6L606.2,167.7L612.6,163.9L619,160L625.4,156.2L631.8,152.3L638.2,148.5L644.6,144.6L651,140.8L657.4,136.9L663.8,133.1L670.2,129.3L676.6,125.4L683,121.6L689.4,117.7L695.8,113.9L702.2,110L708.6,106.2" clip-path="url(#axisBounds-509)" fill="none" stroke="#ccc"></path></g><g class="PointsWithLabels clickable" clip-path="url(#scatterBounds-510)" font-family="Arial Narrow, Arial, sans-serif"><rect x="75.162" y="104.9" width="639.838" height="407.8" fill="rgba(255,255,255,0)"></rect><defs><clipPath id="scatterBounds-510"><rect x="65.162" y="94.9" width="659.838" height="427.8"></rect></clipPath></defs><g class="key-India_0"><circle cx="524.00" cy="199.00" r="17.61" fill="#d14e5b" opacity="0.8" stroke="#333" stroke-width="0.7"></circle></g><g class="key-Indonesia_0"><circle cx="508.00" cy="219.00" r="7.94" fill="#d14e5b" opacity="0.8" stroke="#333" stroke-width="0.7"></circle></g><g class="key-Brazil_0"><circle cx="297.00" cy="353.00" r="7.19" fill="#69c487" opacity="0.8" stroke="#333" stroke-width="0.7"></circle></g><g class="key-Pakistan_0"><circle cx="487.00" cy="225.00" r="6.84" fill="#d14e5b" opacity="0.8" stroke="#fff" stroke-width="0.7"></circle></g><g class="key-Bangladesh_0"><circle cx="644.00" cy="180.00" r="6.35" fill="#d14e5b" opacity="0.8" stroke="#333" stroke-width="0.7"></circle></g><g class="key-Vietnam_0"><circle cx="695.00" cy="112.00" r="5.01" fill="#d14e5b" opacity="0.8" stroke="#333" stroke-width="0.7"></circle></g><g class="key-Egypt_0"><circle cx="188.00" cy="315.00" r="4.85" fill="#5675c1" opacity="0.8" stroke="#333" stroke-width="0.7"></circle></g><g class="key-Democratic-Republic-of-Congo_0"><circle cx="704.00" cy="119.00" r="4.46" fill="#5675c1" opacity="0.8" stroke="#fff" stroke-width="0.7"></circle></g><g class="key-South-Africa_0"><circle cx="276.00" cy="387.00" r="3.95" fill="#5675c1" opacity="0.8" stroke="#333" stroke-width="0.7"></circle></g><g class="key-Myanmar_0"><circle cx="599.00" cy="172.00" r="3.88" fill="#d14e5b" opacity="0.8" stroke="#fff" stroke-width="0.7"></circle></g><g class="key-Colombia_0"><circle cx="476.00" cy="269.00" r="3.84" fill="#69c487" opacity="0.8" stroke="#333" stroke-width="0.7"></circle></g><g class="key-Tanzania_0"><circle cx="554.00" cy="231.00" r="3.82" fill="#5675c1" opacity="0.8" stroke="#333" stroke-width="0.7"></circle></g><g class="key-Argentina_0"><circle cx="366.00" cy="319.00" r="3.64" fill="#69c487" opacity="0.8" stroke="#333" stroke-width="0.7"></circle></g><g class="key-Uganda_0"><circle cx="623.00" cy="177.00" r="3.42" fill="#5675c1" opacity="0.8" stroke="#fff" stroke-width="0.7"></circle></g><g class="key-Nepal_0"><circle cx="715.00" cy="104.00" r="3.27" fill="#d14e5b" opacity="0.8" stroke="#fff" stroke-width="0.7"></circle></g><g class="key-Peru_0"><circle cx="550.00" cy="256.00" r="3.23" fill="#69c487" opacity="0.8" stroke="#333" stroke-width="0.7"></circle></g><g class="key-Ghana_0"><circle cx="662.00" cy="187.00" r="3.05" fill="#5675c1" opacity="0.8" stroke="#fff" stroke-width="0.7"></circle></g><g class="key-Mozambique_0"><circle cx="665.00" cy="166.00" r="3.01" fill="#5675c1" opacity="0.8" stroke="#fff" stroke-width="0.7"></circle></g><g class="key-Cote-d__0027Ivoire_0"><circle cx="684.00" cy="143.00" r="2.85" fill="#5675c1" opacity="0.8" stroke="#333" stroke-width="0.7"></circle></g><g class="key-Cameroon_0"><circle cx="627.00" cy="207.00" r="2.84" fill="#5675c1" opacity="0.8" stroke="#333" stroke-width="0.7"></circle></g><g class="key-Angola_0"><circle cx="578.00" cy="268.00" r="2.83" fill="#5675c1" opacity="0.8" stroke="#333" stroke-width="0.7"></circle></g><g class="key-Chile_0"><circle cx="337.00" cy="354.00" r="2.72" fill="#69c487" opacity="0.8" stroke="#333" stroke-width="0.7"></circle></g><g class="key-Niger_0"><circle cx="685.00" cy="197.00" r="2.67" fill="#5675c1" opacity="0.8" stroke="#333" stroke-width="0.7"></circle></g><g class="key-Mali_0"><circle cx="689.00" cy="162.00" r="2.66" fill="#5675c1" opacity="0.8" stroke="#333" stroke-width="0.7"></circle></g><g class="key-Guatemala_0"><circle cx="583.00" cy="221.00" r="2.61" fill="#4d824b" opacity="0.8" stroke="#fff" stroke-width="0.7"></circle></g><g class="key-Ecuador_0"><circle cx="481.00" cy="248.00" r="2.60" fill="#69c487" opacity="0.8" stroke="#333" stroke-width="0.7"></circle></g><g class="key-Cambodia_0"><circle cx="676.00" cy="154.00" r="2.58" fill="#d14e5b" opacity="0.8" stroke="#333" stroke-width="0.7"></circle></g><g class="key-Senegal_0"><circle cx="674.00" cy="148.00" r="2.51" fill="#5675c1" opacity="0.8" stroke="#fff" stroke-width="0.7"></circle></g><g class="key-Zimbabwe_0"><circle cx="532.00" cy="285.00" r="2.51" fill="#5675c1" opacity="0.8" stroke="#333" stroke-width="0.7"></circle></g><g class="key-Bolivia_0"><circle cx="576.00" cy="205.00" r="2.37" fill="#69c487" opacity="0.8" stroke="#333" stroke-width="0.7"></circle></g><g class="key-Dominican-Republic_0"><circle cx="393.00" cy="302.00" r="2.37" fill="#4d824b" opacity="0.8" stroke="#333" stroke-width="0.7"></circle></g><g class="key-Serbia_0"><circle cx="75.00" cy="471.00" r="2.36" fill="#ffd336" opacity="0.8" stroke="#333" stroke-width="0.7"></circle></g><g class="key-Benin_0"><circle cx="703.00" cy="140.00" r="2.32" fill="#5675c1" opacity="0.8" stroke="#fff" stroke-width="0.7"></circle></g><g class="key-Honduras_0"><circle cx="549.00" cy="219.00" r="2.25" fill="#4d824b" opacity="0.8" stroke="#fff" stroke-width="0.7"></circle></g><g class="key-Paraguay_0"><circle cx="506.00" cy="252.00" r="2.18" fill="#69c487" opacity="0.8" stroke="#fff" stroke-width="0.7"></circle></g><g class="key-El-Salvador_0"><circle cx="524.00" cy="266.00" r="2.16" fill="#4d824b" opacity="0.8" stroke="#fff" stroke-width="0.7"></circle></g><g class="key-Nicaragua_0"><circle cx="572.00" cy="221.00" r="2.14" fill="#4d824b" opacity="0.8" stroke="#fff" stroke-width="0.7"></circle></g><g class="key-Costa-Rica_0"><circle cx="287.00" cy="389.00" r="2.08" fill="#4d824b" opacity="0.8" stroke="#fff" stroke-width="0.7"></circle></g><g class="key-Liberia_0"><circle cx="625.00" cy="228.00" r="2.04" fill="#5675c1" opacity="0.8" stroke="#333" stroke-width="0.7"></circle></g><g class="key-Panama_0"><circle cx="292.00" cy="349.00" r="2.01" fill="#4d824b" opacity="0.8" stroke="#fff" stroke-width="0.7"></circle></g><g class="key-Uruguay_0"><circle cx="280.00" cy="366.00" r="1.99" fill="#69c487" opacity="0.8" stroke="#333" stroke-width="0.7"></circle></g><g class="key-Albania_0"><circle cx="262.00" cy="334.00" r="1.98" fill="#ffd336" opacity="0.8" stroke="#333" stroke-width="0.7"></circle></g><g class="key-Armenia_0"><circle cx="238.00" cy="333.00" r="1.98" fill="#d14e5b" opacity="0.8" stroke="#fff" stroke-width="0.7"></circle></g><g class="key-Mongolia_0"><circle cx="253.00" cy="352.00" r="1.96" fill="#d14e5b" opacity="0.8" stroke="#fff" stroke-width="0.7"></circle></g><g class="key-Namibia_0"><circle cx="339.00" cy="354.00" r="1.93" fill="#5675c1" opacity="0.8" stroke="#fff" stroke-width="0.7"></circle></g><g class="key-Gambia_0"><circle cx="565.00" cy="256.00" r="1.89" fill="#5675c1" opacity="0.8" stroke="#fff" stroke-width="0.7"></circle></g><g class="key-Mauritius_0"><circle cx="360.00" cy="302.00" r="1.86" fill="#5675c1" opacity="0.8" stroke="#fff" stroke-width="0.7"></circle></g><g class="key-Swaziland_0"><circle cx="422.00" cy="306.00" r="1.85" fill="#5675c1" opacity="0.8" stroke="#fff" stroke-width="0.7"></circle></g><g class="key-Brunei_0"><circle cx="239.00" cy="368.00" r="1.80" fill="#d14e5b" opacity="0.8" stroke="#333" stroke-width="0.7"></circle></g><g class="key-Maldives_0"><circle cx="376.00" cy="328.00" r="1.79" fill="#d14e5b" opacity="0.8" stroke="#fff" stroke-width="0.7"></circle></g><g class="key-Samoa_0"><circle cx="361.00" cy="300.00" r="1.78" fill="#a652ba" opacity="0.8" stroke="#fff" stroke-width="0.7"></circle></g><g class="key-Timor_0"><circle cx="511.00" cy="269.00" r="1.77" fill="#d14e5b" opacity="0.8" stroke="#fff" stroke-width="0.7"></circle></g><g class="key-Palestine_0"><circle cx="311.00" cy="297.00" r="1.77" fill="#d14e5b" opacity="0.8" stroke="#333" stroke-width="0.7"></circle></g><g class="key-Yemen_0"><circle cx="467.00" cy="229.00" r="1.77" fill="#d14e5b" opacity="0.8" stroke="#333" stroke-width="0.7"></circle></g><g class="backgroundLabels" fill="#333"><text x="524.00" y="180.39" font-size="14.21">India</text><text x="508.00" y="210.06" font-size="11.63">Indonesia</text><text x="297.00" y="344.81" font-size="11.51">Brazil</text><text x="644.00" y="172.65" font-size="11.39">Bangladesh</text><text x="653.68" y="116.13" font-size="11.23">Vietnam</text><text x="188.00" y="309.15" font-size="11.21">Egypt</text><text x="276.00" y="382.05" font-size="11.13">South Africa</text><text x="476.00" y="264.16" font-size="11.12">Colombia</text><text x="554.00" y="226.18" font-size="11.12">Tanzania</text><text x="366.00" y="314.36" font-size="11.11">Argentina</text><text x="550.00" y="251.77" font-size="11.08">Peru</text><text x="622.11" y="139.15" font-size="11.05">Cote d&#x27;Ivoire</text><text x="627.00" y="203.16" font-size="11.05">Cameroon</text><text x="578.00" y="264.17" font-size="11.05">Angola</text><text x="337.00" y="350.28" font-size="11.04">Chile</text><text x="685.00" y="193.33" font-size="11.04">Niger</text><text x="689.00" y="158.34" font-size="11.04">Mali</text><text x="481.00" y="244.40" font-size="11.04">Ecuador</text><text x="625.56" y="150.42" font-size="11.04">Cambodia</text><text x="532.00" y="281.49" font-size="11.03">Zimbabwe</text><text x="576.00" y="201.63" font-size="11.03">Bolivia</text><text x="393.00" y="298.63" font-size="11.03">Dominican Republic</text><text x="75.00" y="467.64" font-size="11.03">Serbia</text><text x="625.00" y="224.96" font-size="11.01">Liberia</text><text x="280.00" y="363.01" font-size="11.01">Uruguay</text><text x="262.00" y="331.02" font-size="11.01">Albania</text><text x="239.00" y="365.20" font-size="11.00">Brunei</text><text x="311.00" y="294.23" font-size="11.00">Palestine</text><text x="467.00" y="226.23" font-size="11.00">Yemen</text></g></g><g class="ScatterColorLegend clickable" style="cursor:pointer"><g class="legendMark"><rect x="735" y="102.4" width="43.256" height="17.6" fill="#fff" opacity="0"></rect>,<rect x="735" y="107.9" width="6" height="6" fill="#5675c1"></rect>,<text font-size="12.60" x="746.0" y="115.0"><tspan x="746" y="114.98">Africa</tspan></text></g><g class="legendMark"><rect x="735" y="120" width="35.57" height="17.6" fill="#fff" opacity="0"></rect>,<rect x="735" y="125.5" width="6" height="6" fill="#d14e5b"></rect>,<text font-size="12.60" x="746.0" y="132.6"><tspan x="746" y="132.57999999999998">Asia</tspan></text></g><g class="legendMark"><rect x="735" y="137.60000000000002" width="51.824" height="17.6" fill="#fff" opacity="0"></rect>,<rect x="735" y="143.10000000000002" width="6" height="6" fill="#ffd336"></rect>,<text font-size="12.60" x="746.0" y="150.2"><tspan x="746" y="150.18">Europe</tspan></text></g><g class="legendMark"><rect x="735" y="155.20000000000002" width="91.64" height="17.6" fill="#fff" opacity="0"></rect>,<rect x="735" y="160.70000000000002" width="6" height="6" fill="#4d824b"></rect>,<text font-size="12.60" x="746.0" y="167.8"><tspan x="746" y="167.78">North America</tspan></text></g><g class="legendMark"><rect x="735" y="172.8" width="58.124" height="17.6" fill="#fff" opacity="0"></rect>,<rect x="735" y="178.3" width="6" height="6" fill="#a652ba"></rect>,<text font-size="12.60" x="746.0" y="185.4"><tspan x="746" y="185.38">Oceania</tspan></text></g><g class="legendMark"><rect x="735" y="190.4" width="93.908" height="17.6" fill="#fff" opacity="0"></rect>,<rect x="735" y="195.9" width="6" height="6" fill="#69c487"></rect>,<text font-size="12.60" x="746.0" y="203.0"><tspan x="746" y="202.98">South America</tspan></text></g></g></g><g class="SourcesFooter" style="fill:#777"><g class="clickable" style="fill:#777"><text font-size="12.60" x="15.0" y="581.6"><tspan x="15" y="581.58">Source: World Bank</tspan></text></g><text font-size="12.60" x="775.4" y="581.6"><tspan x="775.402" y="581.58"><a style="fill: #777;" class="cclogo" href="http://creativecommons.org/licenses/by-sa/4.0/deed.en_US" target="_blank">CC BY-SA</a></tspan></text></g></g></svg>