<svg xmlns="http://www.w3.org/2000/svg" version="1.1" style="font-family: 'Helvetica Neue', Helvetica, Arial, sans-serif; font-size: 18px; background-color: white; text-rendering: optimizeLegibility; -webkit-font-smoothing: antialiased;" width="850" height="600"><g class="ChartTab"><g class="HeaderView"><g opacity="0.8" transform="translate(770, 15) scale(0.31)"><a xmlns:xlink="http://www.w3.org/1999/xlink" xlink:href="https://ourworldindata.org" target="_blank"><g><rect x="0" y="0" fill="#1B2543" width="211.2" height="130.1"/><rect x="0" y="112.2" fill="#E63912" width="211.2" height="17.9"/><g><rect x="1.2" y="12.3" fill="none" width="210.2" height="99.2"/><path fill="#FFFFFF" d="M37.8,32.2c0,12.7-7.7,19.4-17.1,19.4c-9.7,0-16.6-7.5-16.6-18.7c0-11.7,7.3-19.3,17.1-19.3 C31.3,13.7,37.8,21.3,37.8,32.2z M9.2,32.8c0,7.9,4.3,14.9,11.8,14.9c7.5,0,11.8-6.9,11.8-15.3c0-7.3-3.8-14.9-11.8-14.9 C13.1,17.5,9.2,24.8,9.2,32.8z"/><path fill="#FFFFFF" d="M62.7,43.8c0,2.7,0.1,5.1,0.2,7.2h-4.3l-0.3-4.3h-0.1c-1.3,2.1-4,4.9-8.8,4.9c-4.2,0-9.1-2.3-9.1-11.6 V24.6h4.8v14.6c0,5,1.5,8.4,5.9,8.4c3.2,0,5.5-2.2,6.3-4.4c0.3-0.7,0.4-1.6,0.4-2.5V24.6h4.8V43.8z"/><path fill="#FFFFFF" d="M67.3,32.8c0-3.1-0.1-5.8-0.2-8.2h4.2l0.2,5.2h0.2c1.2-3.5,4.1-5.8,7.3-5.8c0.5,0,0.9,0.1,1.4,0.2v4.5 c-0.5-0.1-1-0.2-1.6-0.2c-3.4,0-5.8,2.6-6.5,6.2c-0.1,0.7-0.2,1.4-0.2,2.2V51h-4.8V32.8z"/><path fill="#FFFFFF" d="M95.4,51l-9.4-36.8h5l4.4,18.6c1.1,4.6,2.1,9.2,2.7,12.7h0.1c0.6-3.7,1.8-8,3-12.8l4.9-18.5h5l4.5,18.7 c1,4.4,2,8.7,2.6,12.6h0.1c0.8-4,1.8-8.1,3-12.7l4.9-18.5h4.9L120.6,51h-5L111,31.9c-1.1-4.7-1.9-8.3-2.4-12h-0.1 c-0.7,3.7-1.5,7.3-2.8,12L100.4,51H95.4z"/><path fill="#FFFFFF" d="M154.9,37.6c0,9.8-6.8,14-13.2,14c-7.2,0-12.7-5.2-12.7-13.6c0-8.8,5.8-14,13.1-14 C149.8,24,154.9,29.5,154.9,37.6z M133.9,37.9c0,5.8,3.3,10.1,8,10.1c4.6,0,8-4.3,8-10.3c0-4.5-2.2-10.1-7.9-10.1 C136.3,27.6,133.9,32.8,133.9,37.9z"/><path fill="#FFFFFF" d="M158.2,32.8c0-3.1-0.1-5.8-0.2-8.2h4.2l0.2,5.2h0.2c1.2-3.5,4.1-5.8,7.3-5.8c0.5,0,0.9,0.1,1.4,0.2v4.5 c-0.5-0.1-1-0.2-1.6-0.2c-3.4,0-5.8,2.6-6.5,6.2c-0.1,0.7-0.2,1.4-0.2,2.2V51h-4.8V32.8z"/><path fill="#FFFFFF" d="M173.5,12.3h4.8V51h-4.8V12.3z"/><path fill="#FFFFFF" d="M206.5,12.3v31.9c0,2.3,0.1,5,0.2,6.8h-4.3l-0.2-4.6H202c-1.5,2.9-4.7,5.2-9,5.2 c-6.4,0-11.3-5.4-11.3-13.4c-0.1-8.8,5.4-14.2,11.9-14.2c4,0,6.8,1.9,8,4h0.1V12.3H206.5z M201.7,35.4c0-0.6-0.1-1.4-0.2-2 c-0.7-3.1-3.3-5.6-6.9-5.6c-5,0-7.9,4.4-7.9,10.2c0,5.3,2.6,9.8,7.8,9.8c3.2,0,6.2-2.1,7.1-5.7c0.2-0.7,0.2-1.3,0.2-2.1V35.4z"/><path fill="#FFFFFF" d="M42.8,64c0.1,1.6-1.1,2.9-3.1,2.9c-1.7,0-2.9-1.3-2.9-2.9c0-1.7,1.3-3,3-3C41.7,61,42.8,62.3,42.8,64z M37.4,97.8V71.4h4.8v26.4H37.4z"/><path fill="#FFFFFF" d="M47.5,78.6c0-2.7-0.1-5-0.2-7.1h4.3l0.3,4.4h0.1c1.3-2.5,4.4-5,8.8-5c3.7,0,9.4,2.2,9.4,11.2v15.8h-4.8 V82.6c0-4.3-1.6-7.8-6.1-7.8c-3.2,0-5.6,2.2-6.5,4.9c-0.2,0.6-0.3,1.4-0.3,2.2v15.9h-4.8V78.6z"/><path fill="#FFFFFF" d="M84,61.6c2.9-0.4,6.3-0.8,10.1-0.8c6.8,0,11.7,1.6,14.9,4.6c3.3,3,5.2,7.3,5.2,13.2c0,6-1.9,10.9-5.3,14.3 c-3.4,3.4-9.1,5.3-16.3,5.3c-3.4,0-6.2-0.2-8.6-0.4V61.6z M88.8,94.1c1.2,0.2,3,0.3,4.8,0.3c10.2,0,15.7-5.7,15.7-15.6 c0.1-8.7-4.9-14.2-14.9-14.2c-2.5,0-4.3,0.2-5.6,0.5V94.1z"/><path fill="#FFFFFF" d="M132.1,97.8l-0.4-3.3h-0.2c-1.5,2.1-4.3,3.9-8.1,3.9c-5.4,0-8.1-3.8-8.1-7.6c0-6.4,5.7-9.9,15.9-9.8v-0.5 c0-2.2-0.6-6.1-6-6.1c-2.5,0-5,0.8-6.9,2l-1.1-3.2c2.2-1.4,5.4-2.3,8.7-2.3c8.1,0,10.1,5.5,10.1,10.8v9.9c0,2.3,0.1,4.5,0.4,6.3 H132.1z M131.4,84.4c-5.3-0.1-11.2,0.8-11.2,5.9c0,3.1,2.1,4.6,4.5,4.6c3.4,0,5.6-2.2,6.4-4.4c0.2-0.5,0.3-1,0.3-1.5V84.4z"/><path fill="#FFFFFF" d="M146.6,63.9v7.6h6.9v3.7h-6.9v14.2c0,3.3,0.9,5.1,3.6,5.1c1.3,0,2.2-0.2,2.8-0.3l0.2,3.6 c-0.9,0.4-2.4,0.7-4.3,0.7c-2.2,0-4-0.7-5.2-2c-1.4-1.4-1.9-3.8-1.9-6.9V75.1h-4.1v-3.7h4.1v-6.3L146.6,63.9z"/><path fill="#FFFFFF" d="M171.4,97.8l-0.4-3.3h-0.2c-1.5,2.1-4.3,3.9-8.1,3.9c-5.4,0-8.1-3.8-8.1-7.6c0-6.4,5.7-9.9,15.9-9.8v-0.5 c0-2.2-0.6-6.1-6-6.1c-2.5,0-5,0.8-6.9,2l-1.1-3.2c2.2-1.4,5.4-2.3,8.7-2.3c8.1,0,10.1,5.5,10.1,10.8v9.9c0,2.3,0.1,4.5,0.4,6.3 H171.4z M170.7,84.4c-5.3-0.1-11.2,0.8-11.2,5.9c0,3.1,2.1,4.6,4.5,4.6c3.4,0,5.6-2.2,6.4-4.4c0.2-0.5,0.3-1,0.3-1.5V84.4z"/></g></g></a></g><a href="https://ourworldindata.org/grapher/maternal-mortality?country=ARM+BRA+ISL+IND+UGA+OWID_WRL" target="_blank"><text font-size="27.00" x="15.0" y="36.6" fill="#555"><tspan x="15" y="36.6">Maternal Mortality</tspan></text></a><text font-size="14.40" x="15.0" y="55.5" fill="#666"><tspan x="15" y="55.519999999999996">Maternal mortality ratio is the number of women who die from pregnancy-related causes while pregnant or within 42</tspan><tspan x="15" y="71.36">days of pregnancy termination per 100,000 live births. </tspan></text></g><g class="LineChart"><defs><clipPath id="boundsClip-214"><rect x="37.216" y="0" width="830" height="925.2"></rect></clipPath></defs><g class="AxisBoxView"><g class="HorizontalAxis"><text x="47.2" y="556.5" fill="#666" text-anchor="middle" font-size="16.2">1990</text><text x="189" y="556.5" fill="#666" text-anchor="middle" font-size="16.2">1995</text><text x="330.8" y="556.5" fill="#666" text-anchor="middle" font-size="16.2">2000</text><text x="472.7" y="556.5" fill="#666" text-anchor="middle" font-size="16.2">2005</text><text x="614.5" y="556.5" fill="#666" text-anchor="middle" font-size="16.2">2010</text><text x="756.3" y="556.5" fill="#666" text-anchor="middle" font-size="16.2">2015</text></g><g class="VerticalAxis"><text x="42.22" y="535.3" fill="#666" dominant-baseline="middle" text-anchor="end" font-size="16.2">0</text><text x="42.22" y="471.6" fill="#666" dominant-baseline="middle" text-anchor="end" font-size="16.2">100</text><text x="42.22" y="407.9" fill="#666" dominant-baseline="middle" text-anchor="end" font-size="16.2">200</text><text x="42.22" y="344.2" fill="#666" dominant-baseline="middle" text-anchor="end" font-size="16.2">300</text><text x="42.22" y="280.5" fill="#666" dominant-baseline="middle" text-anchor="end" font-size="16.2">400</text><text x="42.22" y="216.8" fill="#666" dominant-baseline="middle" text-anchor="end" font-size="16.2">500</text><text x="42.22" y="153.1" fill="#666" dominant-baseline="middle" text-anchor="end" font-size="16.2">600</text></g><g class="AxisGridLines"><line x1="47.22" y1="535.3" x2="756.29" y2="535.3" stroke="#ccc"></line><line x1="47.22" y1="471.6" x2="756.29" y2="471.6" stroke="#ddd" stroke-dasharray="3,2"></line><line x1="47.22" y1="407.9" x2="756.29" y2="407.9" stroke="#ddd" stroke-dasharray="3,2"></line><line x1="47.22" y1="344.2" x2="756.29" y2="344.2" stroke="#ddd" stroke-dasharray="3,2"></line><line x1="47.22" y1="280.5" x2="756.29" y2="280.5" stroke="#ddd" stroke-dasharray="3,2"></line><line x1="47.22" y1="216.8" x2="756.29" y2="216.8" stroke="#ddd" stroke-dasharray="3,2"></line><line x1="47.22" y1="153.1" x2="756.29" y2="153.1" stroke="#ddd" stroke-dasharray="3,2"></line></g><g class="AxisGridLines"><line x1="47.2" y1="535.30" x2="47.2" y2="93.90" stroke="#ddd" stroke-dasharray="3,2"></line><line x1="189" y1="535.30" x2="189" y2="93.90" stroke="#ddd" stroke-dasharray="3,2"></line><line x1="330.8" y1="535.30" x2="330.8" y2="93.90" stroke="#ddd" stroke-dasharray="3,2"></line><line x1="472.7" y1="535.30" x2="472.7" y2="93.90" stroke="#ddd" stroke-dasharray="3,2"></line><line x1="614.5" y1="535.30" x2="614.5" y2="93.90" stroke="#ddd" stroke-dasharray="3,2"></line><line x1="756.3" y1="535.30" x2="756.3" y2="93.90" stroke="#ddd" stroke-dasharray="3,2"></line></g></g><g clip-path="url(#boundsClip-214)"><g class="HeightedLegend clickable"><g class="legendMark"><rect x="766.288" y="520.9000000000001" width="61.656000000000006" height="14.4" fill="#fff" opacity="0"></rect><rect x="766.288" y="526.8500000000001" width="10" height="2.5" fill="#3360a9"></rect><text font-size="14.40" x="781.3" y="532.4" fill="#333"><tspan x="781.288" y="532.4200000000001">Iceland</tspan></text></g><g class="legendMark"><rect x="766.288" y="506.5000000000001" width="68.712" height="14.4" fill="#fff" opacity="0"></rect><rect x="766.288" y="512.4500000000002" width="10" height="2.5" fill="#ca2628"></rect><text font-size="14.40" x="781.3" y="518.0" fill="#333"><tspan x="781.288" y="518.0200000000001">Armenia</tspan></text></g><g class="legendMark"><rect x="766.288" y="492.10000000000014" width="51.00000000000001" height="14.4" fill="#fff" opacity="0"></rect><rect x="766.288" y="498.0500000000001" width="10" height="2.5" fill="#34983f"></rect><text font-size="14.40" x="781.3" y="503.6" fill="#333"><tspan x="781.288" y="503.6200000000001">Brazil</tspan></text></g><g class="legendMark"><rect x="766.288" y="417.3" width="46.392" height="14.4" fill="#fff" opacity="0"></rect><rect x="766.288" y="423.25" width="10" height="2.5" fill="#f6a324"></rect><text font-size="14.40" x="781.3" y="428.8" fill="#333"><tspan x="781.288" y="428.82">India</tspan></text></g><g class="legendMark"><rect x="766.288" y="390.5" width="52.584" height="14.4" fill="#fff" opacity="0"></rect><rect x="766.288" y="396.45" width="10" height="2.5" fill="#b077b1"></rect><text font-size="14.40" x="781.3" y="402.0" fill="#333"><tspan x="781.288" y="402.02">World</tspan></text></g><g class="legendMark"><rect x="766.288" y="309.6" width="65.688" height="14.4" fill="#fff" opacity="0"></rect><rect x="766.288" y="315.55" width="10" height="2.5" fill="#2a939b"></rect><text font-size="14.40" x="781.3" y="321.1" fill="#333"><tspan x="781.288" y="321.12">Uganda</tspan></text></g></g><g class="Lines"><rect x="47" y="94" width="709" height="441" fill="rgba(255,255,255,0)" opacity="0"></rect><g class="key-Armenia_0"><path stroke="#ca2628" stroke-linecap="round" d="M47 498L76 505L104 500L132 499L161 504L189 504L217 503L246 506L274 506L303 510L331 510L359 511L388 507L416 508L444 509L473 510L501 510L529 513L558 511L586 512L615 514L643 516L671 516L700 518L728 519L756 519" fill="none" stroke-width="1.5"></path><g fill="#ca2628"><circle cx="47" cy="498" r="2"></circle><circle cx="76" cy="505" r="2"></circle><circle cx="104" cy="500" r="2"></circle><circle cx="132" cy="499" r="2"></circle><circle cx="161" cy="504" r="2"></circle><circle cx="189" cy="504" r="2"></circle><circle cx="217" cy="503" r="2"></circle><circle cx="246" cy="506" r="2"></circle><circle cx="274" cy="506" r="2"></circle><circle cx="303" cy="510" r="2"></circle><circle cx="331" cy="510" r="2"></circle><circle cx="359" cy="511" r="2"></circle><circle cx="388" cy="507" r="2"></circle><circle cx="416" cy="508" r="2"></circle><circle cx="444" cy="509" r="2"></circle><circle cx="473" cy="510" r="2"></circle><circle cx="501" cy="510" r="2"></circle><circle cx="529" cy="513" r="2"></circle><circle cx="558" cy="511" r="2"></circle><circle cx="586" cy="512" r="2"></circle><circle cx="615" cy="514" r="2"></circle><circle cx="643" cy="516" r="2"></circle><circle cx="671" cy="516" r="2"></circle><circle cx="700" cy="518" r="2"></circle><circle cx="728" cy="519" r="2"></circle><circle cx="756" cy="519" r="2"></circle></g></g><g class="key-Brazil_0"><path stroke="#34983f" stroke-linecap="round" d="M47 469L76 472L104 475L132 476L161 479L189 482L217 481L246 478L274 475L303 484L331 493L359 496L388 496L416 495L444 493L473 493L501 492L529 493L558 493L586 494L615 494L643 498L671 497L700 505L728 506L756 507" fill="none" stroke-width="1.5"></path><g fill="#34983f"><circle cx="47" cy="469" r="2"></circle><circle cx="76" cy="472" r="2"></circle><circle cx="104" cy="475" r="2"></circle><circle cx="132" cy="476" r="2"></circle><circle cx="161" cy="479" r="2"></circle><circle cx="189" cy="482" r="2"></circle><circle cx="217" cy="481" r="2"></circle><circle cx="246" cy="478" r="2"></circle><circle cx="274" cy="475" r="2"></circle><circle cx="303" cy="484" r="2"></circle><circle cx="331" cy="493" r="2"></circle><circle cx="359" cy="496" r="2"></circle><circle cx="388" cy="496" r="2"></circle><circle cx="416" cy="495" r="2"></circle><circle cx="444" cy="493" r="2"></circle><circle cx="473" cy="493" r="2"></circle><circle cx="501" cy="492" r="2"></circle><circle cx="529" cy="493" r="2"></circle><circle cx="558" cy="493" r="2"></circle><circle cx="586" cy="494" r="2"></circle><circle cx="615" cy="494" r="2"></circle><circle cx="643" cy="498" r="2"></circle><circle cx="671" cy="497" r="2"></circle><circle cx="700" cy="505" r="2"></circle><circle cx="728" cy="506" r="2"></circle><circle cx="756" cy="507" r="2"></circle></g></g><g class="key-Iceland_0"><path stroke="#3360a9" stroke-linecap="round" d="M47 531L76 532L104 532L132 532L161 532L189 532L217 532L246 532L274 532L303 532L331 532L359 532L388 532L416 532L444 533L473 533L501 533L529 533L558 533L586 533L615 533L643 533L671 533L700 533L728 533L756 533" fill="none" stroke-width="1.5"></path><g fill="#3360a9"><circle cx="47" cy="531" r="2"></circle><circle cx="76" cy="532" r="2"></circle><circle cx="104" cy="532" r="2"></circle><circle cx="132" cy="532" r="2"></circle><circle cx="161" cy="532" r="2"></circle><circle cx="189" cy="532" r="2"></circle><circle cx="217" cy="532" r="2"></circle><circle cx="246" cy="532" r="2"></circle><circle cx="274" cy="532" r="2"></circle><circle cx="303" cy="532" r="2"></circle><circle cx="331" cy="532" r="2"></circle><circle cx="359" cy="532" r="2"></circle><circle cx="388" cy="532" r="2"></circle><circle cx="416" cy="532" r="2"></circle><circle cx="444" cy="533" r="2"></circle><circle cx="473" cy="533" r="2"></circle><circle cx="501" cy="533" r="2"></circle><circle cx="529" cy="533" r="2"></circle><circle cx="558" cy="533" r="2"></circle><circle cx="586" cy="533" r="2"></circle><circle cx="615" cy="533" r="2"></circle><circle cx="643" cy="533" r="2"></circle><circle cx="671" cy="533" r="2"></circle><circle cx="700" cy="533" r="2"></circle><circle cx="728" cy="533" r="2"></circle><circle cx="756" cy="533" r="2"></circle></g></g><g class="key-India_0"><path stroke="#f6a324" stroke-linecap="round" d="M47 181L76 193L104 204L132 214L161 225L189 235L217 247L246 259L274 272L303 284L331 297L359 310L388 322L416 334L444 346L473 357L501 367L529 376L558 384L586 392L615 398L643 404L671 410L700 415L728 420L756 425" fill="none" stroke-width="1.5"></path><g fill="#f6a324"><circle cx="47" cy="181" r="2"></circle><circle cx="76" cy="193" r="2"></circle><circle cx="104" cy="204" r="2"></circle><circle cx="132" cy="214" r="2"></circle><circle cx="161" cy="225" r="2"></circle><circle cx="189" cy="235" r="2"></circle><circle cx="217" cy="247" r="2"></circle><circle cx="246" cy="259" r="2"></circle><circle cx="274" cy="272" r="2"></circle><circle cx="303" cy="284" r="2"></circle><circle cx="331" cy="297" r="2"></circle><circle cx="359" cy="310" r="2"></circle><circle cx="388" cy="322" r="2"></circle><circle cx="416" cy="334" r="2"></circle><circle cx="444" cy="346" r="2"></circle><circle cx="473" cy="357" r="2"></circle><circle cx="501" cy="367" r="2"></circle><circle cx="529" cy="376" r="2"></circle><circle cx="558" cy="384" r="2"></circle><circle cx="586" cy="392" r="2"></circle><circle cx="615" cy="398" r="2"></circle><circle cx="643" cy="404" r="2"></circle><circle cx="671" cy="410" r="2"></circle><circle cx="700" cy="415" r="2"></circle><circle cx="728" cy="420" r="2"></circle><circle cx="756" cy="425" r="2"></circle></g></g><g class="key-Uganda_0"><path stroke="#2a939b" stroke-linecap="round" d="M47 98L76 97L104 95L132 94L161 95L189 100L217 104L246 110L274 116L303 128L331 140L359 153L388 168L416 180L444 194L473 214L501 229L529 237L558 248L586 260L615 268L643 275L671 284L700 298L728 309L756 317" fill="none" stroke-width="1.5"></path><g fill="#2a939b"><circle cx="47" cy="98" r="2"></circle><circle cx="76" cy="97" r="2"></circle><circle cx="104" cy="95" r="2"></circle><circle cx="132" cy="94" r="2"></circle><circle cx="161" cy="95" r="2"></circle><circle cx="189" cy="100" r="2"></circle><circle cx="217" cy="104" r="2"></circle><circle cx="246" cy="110" r="2"></circle><circle cx="274" cy="116" r="2"></circle><circle cx="303" cy="128" r="2"></circle><circle cx="331" cy="140" r="2"></circle><circle cx="359" cy="153" r="2"></circle><circle cx="388" cy="168" r="2"></circle><circle cx="416" cy="180" r="2"></circle><circle cx="444" cy="194" r="2"></circle><circle cx="473" cy="214" r="2"></circle><circle cx="501" cy="229" r="2"></circle><circle cx="529" cy="237" r="2"></circle><circle cx="558" cy="248" r="2"></circle><circle cx="586" cy="260" r="2"></circle><circle cx="615" cy="268" r="2"></circle><circle cx="643" cy="275" r="2"></circle><circle cx="671" cy="284" r="2"></circle><circle cx="700" cy="298" r="2"></circle><circle cx="728" cy="309" r="2"></circle><circle cx="756" cy="317" r="2"></circle></g></g><g class="key-World_0"><path stroke="#b077b1" stroke-linecap="round" d="M47 290L76 293L104 295L132 296L161 298L189 300L217 302L246 305L274 309L303 313L331 318L359 324L388 330L416 338L444 345L473 352L501 359L529 365L558 371L586 374L615 379L643 384L671 388L700 391L728 395L756 398" fill="none" stroke-width="1.5"></path><g fill="#b077b1"><circle cx="47" cy="290" r="2"></circle><circle cx="76" cy="293" r="2"></circle><circle cx="104" cy="295" r="2"></circle><circle cx="132" cy="296" r="2"></circle><circle cx="161" cy="298" r="2"></circle><circle cx="189" cy="300" r="2"></circle><circle cx="217" cy="302" r="2"></circle><circle cx="246" cy="305" r="2"></circle><circle cx="274" cy="309" r="2"></circle><circle cx="303" cy="313" r="2"></circle><circle cx="331" cy="318" r="2"></circle><circle cx="359" cy="324" r="2"></circle><circle cx="388" cy="330" r="2"></circle><circle cx="416" cy="338" r="2"></circle><circle cx="444" cy="345" r="2"></circle><circle cx="473" cy="352" r="2"></circle><circle cx="501" cy="359" r="2"></circle><circle cx="529" cy="365" r="2"></circle><circle cx="558" cy="371" r="2"></circle><circle cx="586" cy="374" r="2"></circle><circle cx="615" cy="379" r="2"></circle><circle cx="643" cy="384" r="2"></circle><circle cx="671" cy="388" r="2"></circle><circle cx="700" cy="391" r="2"></circle><circle cx="728" cy="395" r="2"></circle><circle cx="756" cy="398" r="2"></circle></g></g></g></g></g><g style="fill: #777;" class="SourcesFooter"><g style="fill: #777;" class="clickable"><text font-size="12.60" x="15.0" y="581.6"><tspan x="15" y="581.58">Source: Gapminder (2010) and World Bank (2015)</tspan></text></g><text font-size="12.60" x="575.2" y="581.6"><tspan x="575.188" y="581.58"><a target='_blank' style='fill: #777;' href='https://ourworldindata.org/health-meta/'>OurWorldInData.org/health-meta/</a> • <a style="fill: #777;" href="http://creativecommons.org/licenses/by-sa/4.0/deed.en_US" target="_blank">CC BY-SA</a></tspan></text></g></g></svg>