<svg xmlns="http://www.w3.org/2000/svg" version="1.1" style="font-family: 'Helvetica Neue', Helvetica, Arial, sans-serif; font-size: 18px; background-color: white; text-rendering: optimizeLegibility; -webkit-font-smoothing: antialiased;" width="850" height="600"><g class="ChartTab"><g class="HeaderView"><g opacity="0.8" transform="translate(770, 15) scale(0.31)"><a xmlns:xlink="http://www.w3.org/1999/xlink" xlink:href="https://ourworldindata.org" target="_blank"><g><rect x="0" y="0" fill="#1B2543" width="211.2" height="130.1"/><rect x="0" y="112.2" fill="#E63912" width="211.2" height="17.9"/><g><rect x="1.2" y="12.3" fill="none" width="210.2" height="99.2"/><path fill="#FFFFFF" d="M37.8,32.2c0,12.7-7.7,19.4-17.1,19.4c-9.7,0-16.6-7.5-16.6-18.7c0-11.7,7.3-19.3,17.1-19.3 C31.3,13.7,37.8,21.3,37.8,32.2z M9.2,32.8c0,7.9,4.3,14.9,11.8,14.9c7.5,0,11.8-6.9,11.8-15.3c0-7.3-3.8-14.9-11.8-14.9 C13.1,17.5,9.2,24.8,9.2,32.8z"/><path fill="#FFFFFF" d="M62.7,43.8c0,2.7,0.1,5.1,0.2,7.2h-4.3l-0.3-4.3h-0.1c-1.3,2.1-4,4.9-8.8,4.9c-4.2,0-9.1-2.3-9.1-11.6 V24.6h4.8v14.6c0,5,1.5,8.4,5.9,8.4c3.2,0,5.5-2.2,6.3-4.4c0.3-0.7,0.4-1.6,0.4-2.5V24.6h4.8V43.8z"/><path fill="#FFFFFF" d="M67.3,32.8c0-3.1-0.1-5.8-0.2-8.2h4.2l0.2,5.2h0.2c1.2-3.5,4.1-5.8,7.3-5.8c0.5,0,0.9,0.1,1.4,0.2v4.5 c-0.5-0.1-1-0.2-1.6-0.2c-3.4,0-5.8,2.6-6.5,6.2c-0.1,0.7-0.2,1.4-0.2,2.2V51h-4.8V32.8z"/><path fill="#FFFFFF" d="M95.4,51l-9.4-36.8h5l4.4,18.6c1.1,4.6,2.1,9.2,2.7,12.7h0.1c0.6-3.7,1.8-8,3-12.8l4.9-18.5h5l4.5,18.7 c1,4.4,2,8.7,2.6,12.6h0.1c0.8-4,1.8-8.1,3-12.7l4.9-18.5h4.9L120.6,51h-5L111,31.9c-1.1-4.7-1.9-8.3-2.4-12h-0.1 c-0.7,3.7-1.5,7.3-2.8,12L100.4,51H95.4z"/><path fill="#FFFFFF" d="M154.9,37.6c0,9.8-6.8,14-13.2,14c-7.2,0-12.7-5.2-12.7-13.6c0-8.8,5.8-14,13.1-14 C149.8,24,154.9,29.5,154.9,37.6z M133.9,37.9c0,5.8,3.3,10.1,8,10.1c4.6,0,8-4.3,8-10.3c0-4.5-2.2-10.1-7.9-10.1 C136.3,27.6,133.9,32.8,133.9,37.9z"/><path fill="#FFFFFF" d="M158.2,32.8c0-3.1-0.1-5.8-0.2-8.2h4.2l0.2,5.2h0.2c1.2-3.5,4.1-5.8,7.3-5.8c0.5,0,0.9,0.1,1.4,0.2v4.5 c-0.5-0.1-1-0.2-1.6-0.2c-3.4,0-5.8,2.6-6.5,6.2c-0.1,0.7-0.2,1.4-0.2,2.2V51h-4.8V32.8z"/><path fill="#FFFFFF" d="M173.5,12.3h4.8V51h-4.8V12.3z"/><path fill="#FFFFFF" d="M206.5,12.3v31.9c0,2.3,0.1,5,0.2,6.8h-4.3l-0.2-4.6H202c-1.5,2.9-4.7,5.2-9,5.2 c-6.4,0-11.3-5.4-11.3-13.4c-0.1-8.8,5.4-14.2,11.9-14.2c4,0,6.8,1.9,8,4h0.1V12.3H206.5z M201.7,35.4c0-0.6-0.1-1.4-0.2-2 c-0.7-3.1-3.3-5.6-6.9-5.6c-5,0-7.9,4.4-7.9,10.2c0,5.3,2.6,9.8,7.8,9.8c3.2,0,6.2-2.1,7.1-5.7c0.2-0.7,0.2-1.3,0.2-2.1V35.4z"/><path fill="#FFFFFF" d="M42.8,64c0.1,1.6-1.1,2.9-3.1,2.9c-1.7,0-2.9-1.3-2.9-2.9c0-1.7,1.3-3,3-3C41.7,61,42.8,62.3,42.8,64z M37.4,97.8V71.4h4.8v26.4H37.4z"/><path fill="#FFFFFF" d="M47.5,78.6c0-2.7-0.1-5-0.2-7.1h4.3l0.3,4.4h0.1c1.3-2.5,4.4-5,8.8-5c3.7,0,9.4,2.2,9.4,11.2v15.8h-4.8 V82.6c0-4.3-1.6-7.8-6.1-7.8c-3.2,0-5.6,2.2-6.5,4.9c-0.2,0.6-0.3,1.4-0.3,2.2v15.9h-4.8V78.6z"/><path fill="#FFFFFF" d="M84,61.6c2.9-0.4,6.3-0.8,10.1-0.8c6.8,0,11.7,1.6,14.9,4.6c3.3,3,5.2,7.3,5.2,13.2c0,6-1.9,10.9-5.3,14.3 c-3.4,3.4-9.1,5.3-16.3,5.3c-3.4,0-6.2-0.2-8.6-0.4V61.6z M88.8,94.1c1.2,0.2,3,0.3,4.8,0.3c10.2,0,15.7-5.7,15.7-15.6 c0.1-8.7-4.9-14.2-14.9-14.2c-2.5,0-4.3,0.2-5.6,0.5V94.1z"/><path fill="#FFFFFF" d="M132.1,97.8l-0.4-3.3h-0.2c-1.5,2.1-4.3,3.9-8.1,3.9c-5.4,0-8.1-3.8-8.1-7.6c0-6.4,5.7-9.9,15.9-9.8v-0.5 c0-2.2-0.6-6.1-6-6.1c-2.5,0-5,0.8-6.9,2l-1.1-3.2c2.2-1.4,5.4-2.3,8.7-2.3c8.1,0,10.1,5.5,10.1,10.8v9.9c0,2.3,0.1,4.5,0.4,6.3 H132.1z M131.4,84.4c-5.3-0.1-11.2,0.8-11.2,5.9c0,3.1,2.1,4.6,4.5,4.6c3.4,0,5.6-2.2,6.4-4.4c0.2-0.5,0.3-1,0.3-1.5V84.4z"/><path fill="#FFFFFF" d="M146.6,63.9v7.6h6.9v3.7h-6.9v14.2c0,3.3,0.9,5.1,3.6,5.1c1.3,0,2.2-0.2,2.8-0.3l0.2,3.6 c-0.9,0.4-2.4,0.7-4.3,0.7c-2.2,0-4-0.7-5.2-2c-1.4-1.4-1.9-3.8-1.9-6.9V75.1h-4.1v-3.7h4.1v-6.3L146.6,63.9z"/><path fill="#FFFFFF" d="M171.4,97.8l-0.4-3.3h-0.2c-1.5,2.1-4.3,3.9-8.1,3.9c-5.4,0-8.1-3.8-8.1-7.6c0-6.4,5.7-9.9,15.9-9.8v-0.5 c0-2.2-0.6-6.1-6-6.1c-2.5,0-5,0.8-6.9,2l-1.1-3.2c2.2-1.4,5.4-2.3,8.7-2.3c8.1,0,10.1,5.5,10.1,10.8v9.9c0,2.3,0.1,4.5,0.4,6.3 H171.4z M170.7,84.4c-5.3-0.1-11.2,0.8-11.2,5.9c0,3.1,2.1,4.6,4.5,4.6c3.4,0,5.6-2.2,6.4-4.4c0.2-0.5,0.3-1,0.3-1.5V84.4z"/></g></g></a></g><a href="https://ourworldindata.org/grapher/maternal-mortality?country=FIN+DEU+IRL+JPN+MYS+NLD" target="_blank"><text font-size="27.00" x="15.0" y="36.6" fill="#555"><tspan x="15" y="36.6">Maternal Mortality</tspan></text></a><text font-size="14.40" x="15.0" y="55.5" fill="#666"><tspan x="15" y="55.519999999999996">Maternal mortality ratio is the number of women who die from pregnancy-related causes while pregnant or within 42</tspan><tspan x="15" y="71.36">days of pregnancy termination per 100,000 live births. </tspan></text></g><g class="LineChart"><defs><clipPath id="boundsClip-5"><rect x="50.824" y="0" width="830" height="925.2"></rect></clipPath></defs><g class="AxisBoxView"><g class="HorizontalAxis"><text x="60.8" y="556.5" fill="#666" text-anchor="middle" font-size="16.2">1800</text><text x="216.9" y="556.5" fill="#666" text-anchor="middle" font-size="16.2">1850</text><text x="373" y="556.5" fill="#666" text-anchor="middle" font-size="16.2">1900</text><text x="529.2" y="556.5" fill="#666" text-anchor="middle" font-size="16.2">1950</text><text x="685.3" y="556.5" fill="#666" text-anchor="middle" font-size="16.2">2000</text><text x="732.1" y="556.5" fill="#666" text-anchor="middle" font-size="16.2">2015</text></g><g class="VerticalAxis"><text x="55.82" y="535.3" fill="#666" dominant-baseline="middle" text-anchor="end" font-size="16.2">0</text><text x="55.82" y="473.9" fill="#666" dominant-baseline="middle" text-anchor="end" font-size="16.2">200</text><text x="55.82" y="412.5" fill="#666" dominant-baseline="middle" text-anchor="end" font-size="16.2">400</text><text x="55.82" y="351.1" fill="#666" dominant-baseline="middle" text-anchor="end" font-size="16.2">600</text><text x="55.82" y="289.7" fill="#666" dominant-baseline="middle" text-anchor="end" font-size="16.2">800</text><text x="55.82" y="228.2" fill="#666" dominant-baseline="middle" text-anchor="end" font-size="16.2">1,000</text><text x="55.82" y="166.8" fill="#666" dominant-baseline="middle" text-anchor="end" font-size="16.2">1,200</text><text x="55.82" y="105.4" fill="#666" dominant-baseline="middle" text-anchor="end" font-size="16.2">1,400</text></g><g class="AxisGridLines"><line x1="60.82" y1="535.3" x2="732.10" y2="535.3" stroke="#ccc"></line><line x1="60.82" y1="473.9" x2="732.10" y2="473.9" stroke="#ddd" stroke-dasharray="3,2"></line><line x1="60.82" y1="412.5" x2="732.10" y2="412.5" stroke="#ddd" stroke-dasharray="3,2"></line><line x1="60.82" y1="351.1" x2="732.10" y2="351.1" stroke="#ddd" stroke-dasharray="3,2"></line><line x1="60.82" y1="289.7" x2="732.10" y2="289.7" stroke="#ddd" stroke-dasharray="3,2"></line><line x1="60.82" y1="228.2" x2="732.10" y2="228.2" stroke="#ddd" stroke-dasharray="3,2"></line><line x1="60.82" y1="166.8" x2="732.10" y2="166.8" stroke="#ddd" stroke-dasharray="3,2"></line><line x1="60.82" y1="105.4" x2="732.10" y2="105.4" stroke="#ddd" stroke-dasharray="3,2"></line></g><g class="AxisGridLines"><line x1="60.8" y1="535.30" x2="60.8" y2="93.90" stroke="#ddd" stroke-dasharray="3,2"></line><line x1="216.9" y1="535.30" x2="216.9" y2="93.90" stroke="#ddd" stroke-dasharray="3,2"></line><line x1="373" y1="535.30" x2="373" y2="93.90" stroke="#ddd" stroke-dasharray="3,2"></line><line x1="529.2" y1="535.30" x2="529.2" y2="93.90" stroke="#ddd" stroke-dasharray="3,2"></line><line x1="685.3" y1="535.30" x2="685.3" y2="93.90" stroke="#ddd" stroke-dasharray="3,2"></line></g></g><g clip-path="url(#boundsClip-5)"><g class="HeightedLegend clickable"><g class="legendMark"><rect x="742.096" y="520.9000000000001" width="62.376000000000005" height="14.4" fill="#fff" opacity="0"></rect><rect x="742.096" y="526.8500000000001" width="10" height="2.5" fill="#3360a9"></rect><text font-size="14.40" x="757.1" y="532.4" fill="#333"><tspan x="757.096" y="532.4200000000001">Finland</tspan></text></g><g class="legendMark"><rect x="742.096" y="506.5000000000001" width="54.456" height="14.4" fill="#fff" opacity="0"></rect><rect x="742.096" y="512.4500000000002" width="10" height="2.5" fill="#ca2628"></rect><text font-size="14.40" x="757.1" y="518.0" fill="#333"><tspan x="757.096" y="518.0200000000001">Japan</tspan></text></g><g class="legendMark"><rect x="742.096" y="492.10000000000014" width="74.328" height="14.4" fill="#fff" opacity="0"></rect><rect x="742.096" y="498.0500000000001" width="10" height="2.5" fill="#34983f"></rect><text font-size="14.40" x="757.1" y="503.6" fill="#333"><tspan x="757.096" y="503.6200000000001">Germany</tspan></text></g><g class="legendMark"><rect x="742.096" y="477.70000000000016" width="92.90400000000001" height="14.4" fill="#fff" opacity="0"></rect><rect x="742.096" y="483.65000000000015" width="10" height="2.5" fill="#f6a324"></rect><text font-size="14.40" x="757.1" y="489.2" fill="#333"><tspan x="757.096" y="489.22000000000014">Netherlands</tspan></text></g><g class="legendMark"><rect x="742.096" y="463.3000000000002" width="59.208000000000006" height="14.4" fill="#fff" opacity="0"></rect><rect x="742.096" y="469.25000000000017" width="10" height="2.5" fill="#a652ba"></rect><text font-size="14.40" x="757.1" y="474.8" fill="#333"><tspan x="757.096" y="474.82000000000016">Ireland</tspan></text></g><g class="legendMark"><rect x="742.096" y="448.9000000000002" width="71.88000000000001" height="14.4" fill="#fff" opacity="0"></rect><rect x="742.096" y="454.8500000000002" width="10" height="2.5" fill="#34983f"></rect><text font-size="14.40" x="757.1" y="460.4" fill="#333"><tspan x="757.096" y="460.4200000000002">Malaysia</tspan></text></g></g><g class="Lines"><rect x="61" y="94" width="671" height="441" fill="rgba(255,255,255,0)" opacity="0"></rect><g class="key-Finland_0"><path stroke="#3360a9" stroke-linecap="round" d="M61 282L64 279L67 269L70 288L73 293L76 277L80 303L86 225L89 188L92 255L95 252L98 239L101 288L108 296L111 258L114 251L120 266L123 269L126 270L130 286L133 264L136 266L139 294L142 294L145 257L148 256L151 276L155 276L158 264L161 289L164 179L167 276L170 252L173 255L176 228L180 255L183 244L186 260L189 273L192 300L195 268L198 304L201 298L204 266L208 270L211 295L214 320L217 290L220 303L223 267L226 259L229 272L233 222L236 219L239 244L242 200L245 232L248 249L251 274L254 246L258 272L261 271L264 277L267 240L270 240L273 94L276 240L279 283L283 283L289 303L292 292L298 208L301 258L304 284L308 296L311 267L314 277L317 323L320 319L323 332L326 316L329 277L333 287L336 303L339 333L342 354L345 350L348 363L351 343L354 385L357 365L361 382L364 389L367 405L370 380L373 383L376 394L379 387L382 407L386 397L389 412L392 418L395 412L398 416L401 408L404 421L407 405L411 422L414 415L417 409L420 431L423 424L426 419L429 399L432 412L436 425L439 434L442 442L445 441L448 429L451 445L454 437L457 444L461 443L464 425L467 435L470 443L473 445L476 458L479 463L482 461L485 369L489 381L492 403L495 412L498 389L501 430L504 404L507 409L510 399L514 412L517 453L520 469L523 482L526 488L529 491L532 498L535 497L539 494L542 503L545 503L548 501L551 508L554 505L557 515L560 513L564 518L567 520L570 520L573 522L576 527L579 526L582 529L585 527L589 531L592 532L595 532L598 532L601 533L604 533L607 533L610 533L614 533L617 534L620 534L654 534L657 534L660 534L663 534L667 534L670 534L673 534L676 534L679 534L682 534L685 534L688 534L692 534L695 534L698 534L701 534L704 534L707 534L710 534L713 534L717 534L720 534L723 534L726 534L729 534L732 534" fill="none" stroke-width="1.5"></path></g><g class="key-Germany_0"><path stroke="#34983f" stroke-linecap="round" d="M535 479L539 485L542 490L545 488L548 493L551 496L554 499L557 502L560 503L564 505L567 509L570 510L573 514L576 514L579 515L582 517L585 520L589 519L592 519L595 520L598 521L601 523L604 523L607 524L610 524L614 526L617 527L620 527L654 532L657 532L660 532L663 532L667 533L670 533L673 533L676 533L679 533L682 533L685 533L688 533L692 533L695 533L698 533L701 533L704 533L707 533L710 533L713 533L717 533L720 533L723 533L726 534L729 534L732 534" fill="none" stroke-width="1.5"></path></g><g class="key-Ireland_0"><path stroke="#a652ba" stroke-linecap="round" d="M295 333L326 317L357 333L376 346L379 344L382 362L386 363L389 364L392 355L395 383L398 376L401 368L404 372L407 380L411 369L414 371L417 375L420 373L423 359L426 386L429 387L432 391L436 386L439 383L442 362L445 387L448 389L451 391L454 385L457 397L461 384L464 409L467 389L470 403L473 396L476 399L479 392L482 392L485 391L489 425L492 409L495 431L498 423L501 437L504 460L507 466L510 462L514 463L517 474L520 478L523 487L526 480L529 487L532 485L535 492L539 495L542 501L545 500L548 509L551 495L554 504L557 515L560 518L564 522L567 522L570 525L573 521L576 527L579 526L582 528L585 524L589 526L592 526L595 525L598 527L601 528L604 531L607 531L610 532L614 531L617 531L620 531L654 532L657 532L660 532L663 533L667 533L670 532L673 533L676 533L679 533L682 533L685 533L688 533L692 533L695 533L698 533L701 533L704 533L707 533L710 533L713 533L717 533L720 533L723 533L726 533L729 533L732 533" fill="none" stroke-width="1.5"></path></g><g class="key-Japan_0"><path stroke="#ca2628" stroke-linecap="round" d="M482 456L498 462L520 484L529 481L532 482L535 483L539 480L542 479L545 480L548 483L551 483L554 488L557 491L560 495L564 499L567 501L570 504L573 505L576 508L579 507L582 514L585 514L589 518L592 519L595 521L598 523L601 524L604 525L607 526L610 527L614 528L617 529L620 529L654 531L657 531L660 532L663 532L667 532L670 532L673 532L676 532L679 532L682 532L685 532L688 533L692 533L695 533L698 533L701 533L704 533L707 534L710 534L713 534L717 534L720 534L723 534L726 534L729 534L732 534" fill="none" stroke-width="1.5"></path></g><g class="key-Malaysia_0"><path stroke="#34983f" stroke-linecap="round" d="M476 202L479 236L482 242L485 226L489 258L492 273L495 279L498 300L517 330L520 320L523 356L526 371L529 371L532 360L535 376L539 391L542 389L545 407L548 414L551 449L554 450L557 471L560 461L564 474L567 465L570 467L573 472L576 473L579 480L582 484L585 483L589 487L592 491L595 497L598 501L601 504L604 506L607 509L610 511L614 511L617 512L620 512L654 511L657 511L660 512L663 513L667 515L670 514L673 515L676 516L679 517L682 516L685 518L688 518L692 519L695 518L698 519L701 519L704 520L707 521L710 521L713 521L717 521L720 521L723 522L726 522L729 523L732 523" fill="none" stroke-width="1.5"></path></g><g class="key-Netherlands_0"><path stroke="#f6a324" stroke-linecap="round" d="M304 409L320 413L336 425L351 443L367 459L382 462L389 462L392 459L395 465L398 459L401 468L404 459L407 462L411 462L414 471L417 471L420 459L423 456L426 459L429 443L432 431L436 462L439 464L442 459L445 464L448 462L451 454L454 448L457 446L461 433L464 433L467 433L470 437L473 443L476 438L479 438L482 445L485 443L489 456L492 453L495 460L498 463L501 476L504 475L507 475L510 465L514 476L517 490L520 492L523 498L526 502L529 503L532 509L535 512L539 511L542 514L545 517L548 515L551 517L554 522L557 520L560 524L564 524L567 525L570 525L573 525L576 528L579 529L582 527L585 529L589 529L592 530L595 532L598 532L601 532L604 532L607 532L610 532L614 532L617 532L620 532L654 532L657 532L660 532L663 532L667 531L670 531L673 531L676 531L679 531L682 531L685 531L688 531L692 531L695 531L698 532L701 532L704 532L707 533L710 533L713 533L717 533L720 533L723 533L726 533L729 533L732 533" fill="none" stroke-width="1.5"></path></g></g></g></g><g style="fill: #777;" class="SourcesFooter"><g style="fill: #777;" class="clickable"><text font-size="12.60" x="15.0" y="581.6"><tspan x="15" y="581.58">Source: Gapminder (2010) and World Bank (2015)</tspan></text></g><text font-size="12.60" x="575.2" y="581.6"><tspan x="575.188" y="581.58"><a target='_blank' style='fill: #777;' href='https://ourworldindata.org/health-meta/'>OurWorldInData.org/health-meta/</a> • <a style="fill: #777;" href="http://creativecommons.org/licenses/by-sa/4.0/deed.en_US" target="_blank">CC BY-SA</a></tspan></text></g></g></svg>