<svg xmlns="http://www.w3.org/2000/svg" version="1.1" style="font-family: 'Helvetica Neue', Helvetica, Arial, sans-serif; font-size: 18px; background-color: white; text-rendering: optimizeLegibility; -webkit-font-smoothing: antialiased;" width="850" height="600"><g class="ChartTab"><g class="HeaderView"><g opacity="0.8" transform="translate(770, 15) scale(0.31)"><a xmlns:xlink="http://www.w3.org/1999/xlink" xlink:href="https://ourworldindata.org" target="_blank"><g><rect x="0" y="0" fill="#1B2543" width="211.2" height="130.1"/><rect x="0" y="112.2" fill="#E63912" width="211.2" height="17.9"/><g><rect x="1.2" y="12.3" fill="none" width="210.2" height="99.2"/><path fill="#FFFFFF" d="M37.8,32.2c0,12.7-7.7,19.4-17.1,19.4c-9.7,0-16.6-7.5-16.6-18.7c0-11.7,7.3-19.3,17.1-19.3 C31.3,13.7,37.8,21.3,37.8,32.2z M9.2,32.8c0,7.9,4.3,14.9,11.8,14.9c7.5,0,11.8-6.9,11.8-15.3c0-7.3-3.8-14.9-11.8-14.9 C13.1,17.5,9.2,24.8,9.2,32.8z"/><path fill="#FFFFFF" d="M62.7,43.8c0,2.7,0.1,5.1,0.2,7.2h-4.3l-0.3-4.3h-0.1c-1.3,2.1-4,4.9-8.8,4.9c-4.2,0-9.1-2.3-9.1-11.6 V24.6h4.8v14.6c0,5,1.5,8.4,5.9,8.4c3.2,0,5.5-2.2,6.3-4.4c0.3-0.7,0.4-1.6,0.4-2.5V24.6h4.8V43.8z"/><path fill="#FFFFFF" d="M67.3,32.8c0-3.1-0.1-5.8-0.2-8.2h4.2l0.2,5.2h0.2c1.2-3.5,4.1-5.8,7.3-5.8c0.5,0,0.9,0.1,1.4,0.2v4.5 c-0.5-0.1-1-0.2-1.6-0.2c-3.4,0-5.8,2.6-6.5,6.2c-0.1,0.7-0.2,1.4-0.2,2.2V51h-4.8V32.8z"/><path fill="#FFFFFF" d="M95.4,51l-9.4-36.8h5l4.4,18.6c1.1,4.6,2.1,9.2,2.7,12.7h0.1c0.6-3.7,1.8-8,3-12.8l4.9-18.5h5l4.5,18.7 c1,4.4,2,8.7,2.6,12.6h0.1c0.8-4,1.8-8.1,3-12.7l4.9-18.5h4.9L120.6,51h-5L111,31.9c-1.1-4.7-1.9-8.3-2.4-12h-0.1 c-0.7,3.7-1.5,7.3-2.8,12L100.4,51H95.4z"/><path fill="#FFFFFF" d="M154.9,37.6c0,9.8-6.8,14-13.2,14c-7.2,0-12.7-5.2-12.7-13.6c0-8.8,5.8-14,13.1-14 C149.8,24,154.9,29.5,154.9,37.6z M133.9,37.9c0,5.8,3.3,10.1,8,10.1c4.6,0,8-4.3,8-10.3c0-4.5-2.2-10.1-7.9-10.1 C136.3,27.6,133.9,32.8,133.9,37.9z"/><path fill="#FFFFFF" d="M158.2,32.8c0-3.1-0.1-5.8-0.2-8.2h4.2l0.2,5.2h0.2c1.2-3.5,4.1-5.8,7.3-5.8c0.5,0,0.9,0.1,1.4,0.2v4.5 c-0.5-0.1-1-0.2-1.6-0.2c-3.4,0-5.8,2.6-6.5,6.2c-0.1,0.7-0.2,1.4-0.2,2.2V51h-4.8V32.8z"/><path fill="#FFFFFF" d="M173.5,12.3h4.8V51h-4.8V12.3z"/><path fill="#FFFFFF" d="M206.5,12.3v31.9c0,2.3,0.1,5,0.2,6.8h-4.3l-0.2-4.6H202c-1.5,2.9-4.7,5.2-9,5.2 c-6.4,0-11.3-5.4-11.3-13.4c-0.1-8.8,5.4-14.2,11.9-14.2c4,0,6.8,1.9,8,4h0.1V12.3H206.5z M201.7,35.4c0-0.6-0.1-1.4-0.2-2 c-0.7-3.1-3.3-5.6-6.9-5.6c-5,0-7.9,4.4-7.9,10.2c0,5.3,2.6,9.8,7.8,9.8c3.2,0,6.2-2.1,7.1-5.7c0.2-0.7,0.2-1.3,0.2-2.1V35.4z"/><path fill="#FFFFFF" d="M42.8,64c0.1,1.6-1.1,2.9-3.1,2.9c-1.7,0-2.9-1.3-2.9-2.9c0-1.7,1.3-3,3-3C41.7,61,42.8,62.3,42.8,64z M37.4,97.8V71.4h4.8v26.4H37.4z"/><path fill="#FFFFFF" d="M47.5,78.6c0-2.7-0.1-5-0.2-7.1h4.3l0.3,4.4h0.1c1.3-2.5,4.4-5,8.8-5c3.7,0,9.4,2.2,9.4,11.2v15.8h-4.8 V82.6c0-4.3-1.6-7.8-6.1-7.8c-3.2,0-5.6,2.2-6.5,4.9c-0.2,0.6-0.3,1.4-0.3,2.2v15.9h-4.8V78.6z"/><path fill="#FFFFFF" d="M84,61.6c2.9-0.4,6.3-0.8,10.1-0.8c6.8,0,11.7,1.6,14.9,4.6c3.3,3,5.2,7.3,5.2,13.2c0,6-1.9,10.9-5.3,14.3 c-3.4,3.4-9.1,5.3-16.3,5.3c-3.4,0-6.2-0.2-8.6-0.4V61.6z M88.8,94.1c1.2,0.2,3,0.3,4.8,0.3c10.2,0,15.7-5.7,15.7-15.6 c0.1-8.7-4.9-14.2-14.9-14.2c-2.5,0-4.3,0.2-5.6,0.5V94.1z"/><path fill="#FFFFFF" d="M132.1,97.8l-0.4-3.3h-0.2c-1.5,2.1-4.3,3.9-8.1,3.9c-5.4,0-8.1-3.8-8.1-7.6c0-6.4,5.7-9.9,15.9-9.8v-0.5 c0-2.2-0.6-6.1-6-6.1c-2.5,0-5,0.8-6.9,2l-1.1-3.2c2.2-1.4,5.4-2.3,8.7-2.3c8.1,0,10.1,5.5,10.1,10.8v9.9c0,2.3,0.1,4.5,0.4,6.3 H132.1z M131.4,84.4c-5.3-0.1-11.2,0.8-11.2,5.9c0,3.1,2.1,4.6,4.5,4.6c3.4,0,5.6-2.2,6.4-4.4c0.2-0.5,0.3-1,0.3-1.5V84.4z"/><path fill="#FFFFFF" d="M146.6,63.9v7.6h6.9v3.7h-6.9v14.2c0,3.3,0.9,5.1,3.6,5.1c1.3,0,2.2-0.2,2.8-0.3l0.2,3.6 c-0.9,0.4-2.4,0.7-4.3,0.7c-2.2,0-4-0.7-5.2-2c-1.4-1.4-1.9-3.8-1.9-6.9V75.1h-4.1v-3.7h4.1v-6.3L146.6,63.9z"/><path fill="#FFFFFF" d="M171.4,97.8l-0.4-3.3h-0.2c-1.5,2.1-4.3,3.9-8.1,3.9c-5.4,0-8.1-3.8-8.1-7.6c0-6.4,5.7-9.9,15.9-9.8v-0.5 c0-2.2-0.6-6.1-6-6.1c-2.5,0-5,0.8-6.9,2l-1.1-3.2c2.2-1.4,5.4-2.3,8.7-2.3c8.1,0,10.1,5.5,10.1,10.8v9.9c0,2.3,0.1,4.5,0.4,6.3 H171.4z M170.7,84.4c-5.3-0.1-11.2,0.8-11.2,5.9c0,3.1,2.1,4.6,4.5,4.6c3.4,0,5.6-2.2,6.4-4.4c0.2-0.5,0.3-1,0.3-1.5V84.4z"/></g></g></a></g><a href="https://ourworldindata.org/grapher/maternal-mortality?country=FIN+USA+OWID_WRL" target="_blank"><text font-size="27.00" x="15.0" y="36.6" fill="#555"><tspan x="15" y="36.6">Maternal Mortality</tspan></text></a><text font-size="14.40" x="15.0" y="55.5" fill="#666"><tspan x="15" y="55.519999999999996">Maternal mortality ratio is the number of women who die from pregnancy-related causes while pregnant or within 42</tspan><tspan x="15" y="71.36">days of pregnancy termination per 100,000 live births. </tspan></text></g><g class="LineChart"><defs><clipPath id="boundsClip-626"><rect x="50.824" y="0" width="830" height="925.2"></rect></clipPath></defs><g class="AxisBoxView"><g class="HorizontalAxis"><text x="60.8" y="556.5" fill="#666" text-anchor="middle" font-size="16.2">1800</text><text x="214.9" y="556.5" fill="#666" text-anchor="middle" font-size="16.2">1850</text><text x="368.9" y="556.5" fill="#666" text-anchor="middle" font-size="16.2">1900</text><text x="522.9" y="556.5" fill="#666" text-anchor="middle" font-size="16.2">1950</text><text x="677" y="556.5" fill="#666" text-anchor="middle" font-size="16.2">2000</text><text x="723.2" y="556.5" fill="#666" text-anchor="middle" font-size="16.2">2015</text></g><g class="VerticalAxis"><text x="55.82" y="535.3" fill="#666" dominant-baseline="middle" text-anchor="end" font-size="16.2">0</text><text x="55.82" y="473.9" fill="#666" dominant-baseline="middle" text-anchor="end" font-size="16.2">200</text><text x="55.82" y="412.5" fill="#666" dominant-baseline="middle" text-anchor="end" font-size="16.2">400</text><text x="55.82" y="351.1" fill="#666" dominant-baseline="middle" text-anchor="end" font-size="16.2">600</text><text x="55.82" y="289.7" fill="#666" dominant-baseline="middle" text-anchor="end" font-size="16.2">800</text><text x="55.82" y="228.2" fill="#666" dominant-baseline="middle" text-anchor="end" font-size="16.2">1,000</text><text x="55.82" y="166.8" fill="#666" dominant-baseline="middle" text-anchor="end" font-size="16.2">1,200</text><text x="55.82" y="105.4" fill="#666" dominant-baseline="middle" text-anchor="end" font-size="16.2">1,400</text></g><g class="AxisGridLines"><line x1="60.82" y1="535.3" x2="723.17" y2="535.3" stroke="#ccc"></line><line x1="60.82" y1="473.9" x2="723.17" y2="473.9" stroke="#ddd" stroke-dasharray="3,2"></line><line x1="60.82" y1="412.5" x2="723.17" y2="412.5" stroke="#ddd" stroke-dasharray="3,2"></line><line x1="60.82" y1="351.1" x2="723.17" y2="351.1" stroke="#ddd" stroke-dasharray="3,2"></line><line x1="60.82" y1="289.7" x2="723.17" y2="289.7" stroke="#ddd" stroke-dasharray="3,2"></line><line x1="60.82" y1="228.2" x2="723.17" y2="228.2" stroke="#ddd" stroke-dasharray="3,2"></line><line x1="60.82" y1="166.8" x2="723.17" y2="166.8" stroke="#ddd" stroke-dasharray="3,2"></line><line x1="60.82" y1="105.4" x2="723.17" y2="105.4" stroke="#ddd" stroke-dasharray="3,2"></line></g><g class="AxisGridLines"><line x1="60.8" y1="535.30" x2="60.8" y2="93.90" stroke="#ddd" stroke-dasharray="3,2"></line><line x1="214.9" y1="535.30" x2="214.9" y2="93.90" stroke="#ddd" stroke-dasharray="3,2"></line><line x1="368.9" y1="535.30" x2="368.9" y2="93.90" stroke="#ddd" stroke-dasharray="3,2"></line><line x1="522.9" y1="535.30" x2="522.9" y2="93.90" stroke="#ddd" stroke-dasharray="3,2"></line><line x1="677" y1="535.30" x2="677" y2="93.90" stroke="#ddd" stroke-dasharray="3,2"></line></g></g><g clip-path="url(#boundsClip-626)"><g class="HeightedLegend clickable"><g class="legendMark"><rect x="733.168" y="520.9000000000001" width="62.376000000000005" height="14.4" fill="#fff" opacity="0"></rect><rect x="733.168" y="526.8500000000001" width="10" height="2.5" fill="#3360a9"></rect><text font-size="14.40" x="748.2" y="532.4" fill="#333"><tspan x="748.168" y="532.4200000000001">Finland</tspan></text></g><g class="legendMark"><rect x="733.168" y="506.5000000000001" width="101.83200000000001" height="14.4" fill="#fff" opacity="0"></rect><rect x="733.168" y="512.4500000000002" width="10" height="2.5" fill="#df3c64"></rect><text font-size="14.40" x="748.2" y="518.0" fill="#333"><tspan x="748.168" y="518.0200000000001">United States</tspan></text></g><g class="legendMark"><rect x="733.168" y="461.8" width="52.584" height="14.4" fill="#fff" opacity="0"></rect><rect x="733.168" y="467.75" width="10" height="2.5" fill="#b077b1"></rect><text font-size="14.40" x="748.2" y="473.3" fill="#333"><tspan x="748.168" y="473.32">World</tspan></text></g></g><g class="Lines"><rect x="61" y="94" width="662" height="441" fill="rgba(255,255,255,0)" opacity="0"></rect><g class="key-Finland_0"><path stroke="#3360a9" stroke-linecap="round" d="M61 282L64 279L67 269L70 288L73 293L76 277L79 303L86 225L89 188L92 255L95 252L98 239L101 288L107 296L110 258L113 251L119 266L122 269L126 270L129 286L132 264L135 266L138 294L141 294L144 257L147 256L150 276L153 276L156 264L159 289L163 179L166 276L169 252L172 255L175 228L178 255L181 244L184 260L187 273L190 300L193 268L196 304L200 298L203 266L206 270L209 295L212 320L215 290L218 303L221 267L224 259L227 272L230 222L233 219L236 244L240 200L243 232L246 249L249 274L252 246L255 272L258 271L261 277L264 240L267 240L270 94L273 240L277 283L280 283L286 303L289 292L295 208L298 258L301 284L304 296L307 267L310 277L313 323L317 319L320 332L323 316L326 277L329 287L332 303L335 333L338 354L341 350L344 363L347 343L350 385L354 365L357 382L360 389L363 405L366 380L369 383L372 394L375 387L378 407L381 397L384 412L387 418L391 412L394 416L397 408L400 421L403 405L406 422L409 415L412 409L415 431L418 424L421 419L424 399L427 412L431 425L434 434L437 442L440 441L443 429L446 445L449 437L452 444L455 443L458 425L461 435L464 443L468 445L471 458L474 463L477 461L480 369L483 381L486 403L489 412L492 389L495 430L498 404L501 409L504 399L508 412L511 453L514 469L517 482L520 488L523 491L526 498L529 497L532 494L535 503L538 503L541 501L545 508L548 505L551 515L554 513L557 518L560 520L563 520L566 522L569 527L572 526L575 529L578 527L582 531L585 532L588 532L591 532L594 533L597 533L600 533L603 533L606 533L609 534L612 534L646 534L649 534L652 534L655 534L659 534L662 534L665 534L668 534L671 534L674 534L677 534L680 534L683 534L686 534L689 534L692 534L695 534L699 534L702 534L705 534L708 534L711 534L714 534L717 534L720 534L723 534" fill="none" stroke-width="1.5"></path><g fill="#3360a9"><circle cx="61" cy="282" r="2"></circle><circle cx="64" cy="279" r="2"></circle><circle cx="67" cy="269" r="2"></circle><circle cx="70" cy="288" r="2"></circle><circle cx="73" cy="293" r="2"></circle><circle cx="76" cy="277" r="2"></circle><circle cx="79" cy="303" r="2"></circle><circle cx="86" cy="225" r="2"></circle><circle cx="89" cy="188" r="2"></circle><circle cx="92" cy="255" r="2"></circle><circle cx="95" cy="252" r="2"></circle><circle cx="98" cy="239" r="2"></circle><circle cx="101" cy="288" r="2"></circle><circle cx="107" cy="296" r="2"></circle><circle cx="110" cy="258" r="2"></circle><circle cx="113" cy="251" r="2"></circle><circle cx="119" cy="266" r="2"></circle><circle cx="122" cy="269" r="2"></circle><circle cx="126" cy="270" r="2"></circle><circle cx="129" cy="286" r="2"></circle><circle cx="132" cy="264" r="2"></circle><circle cx="135" cy="266" r="2"></circle><circle cx="138" cy="294" r="2"></circle><circle cx="141" cy="294" r="2"></circle><circle cx="144" cy="257" r="2"></circle><circle cx="147" cy="256" r="2"></circle><circle cx="150" cy="276" r="2"></circle><circle cx="153" cy="276" r="2"></circle><circle cx="156" cy="264" r="2"></circle><circle cx="159" cy="289" r="2"></circle><circle cx="163" cy="179" r="2"></circle><circle cx="166" cy="276" r="2"></circle><circle cx="169" cy="252" r="2"></circle><circle cx="172" cy="255" r="2"></circle><circle cx="175" cy="228" r="2"></circle><circle cx="178" cy="255" r="2"></circle><circle cx="181" cy="244" r="2"></circle><circle cx="184" cy="260" r="2"></circle><circle cx="187" cy="273" r="2"></circle><circle cx="190" cy="300" r="2"></circle><circle cx="193" cy="268" r="2"></circle><circle cx="196" cy="304" r="2"></circle><circle cx="200" cy="298" r="2"></circle><circle cx="203" cy="266" r="2"></circle><circle cx="206" cy="270" r="2"></circle><circle cx="209" cy="295" r="2"></circle><circle cx="212" cy="320" r="2"></circle><circle cx="215" cy="290" r="2"></circle><circle cx="218" cy="303" r="2"></circle><circle cx="221" cy="267" r="2"></circle><circle cx="224" cy="259" r="2"></circle><circle cx="227" cy="272" r="2"></circle><circle cx="230" cy="222" r="2"></circle><circle cx="233" cy="219" r="2"></circle><circle cx="236" cy="244" r="2"></circle><circle cx="240" cy="200" r="2"></circle><circle cx="243" cy="232" r="2"></circle><circle cx="246" cy="249" r="2"></circle><circle cx="249" cy="274" r="2"></circle><circle cx="252" cy="246" r="2"></circle><circle cx="255" cy="272" r="2"></circle><circle cx="258" cy="271" r="2"></circle><circle cx="261" cy="277" r="2"></circle><circle cx="264" cy="240" r="2"></circle><circle cx="267" cy="240" r="2"></circle><circle cx="270" cy="94" r="2"></circle><circle cx="273" cy="240" r="2"></circle><circle cx="277" cy="283" r="2"></circle><circle cx="280" cy="283" r="2"></circle><circle cx="286" cy="303" r="2"></circle><circle cx="289" cy="292" r="2"></circle><circle cx="295" cy="208" r="2"></circle><circle cx="298" cy="258" r="2"></circle><circle cx="301" cy="284" r="2"></circle><circle cx="304" cy="296" r="2"></circle><circle cx="307" cy="267" r="2"></circle><circle cx="310" cy="277" r="2"></circle><circle cx="313" cy="323" r="2"></circle><circle cx="317" cy="319" r="2"></circle><circle cx="320" cy="332" r="2"></circle><circle cx="323" cy="316" r="2"></circle><circle cx="326" cy="277" r="2"></circle><circle cx="329" cy="287" r="2"></circle><circle cx="332" cy="303" r="2"></circle><circle cx="335" cy="333" r="2"></circle><circle cx="338" cy="354" r="2"></circle><circle cx="341" cy="350" r="2"></circle><circle cx="344" cy="363" r="2"></circle><circle cx="347" cy="343" r="2"></circle><circle cx="350" cy="385" r="2"></circle><circle cx="354" cy="365" r="2"></circle><circle cx="357" cy="382" r="2"></circle><circle cx="360" cy="389" r="2"></circle><circle cx="363" cy="405" r="2"></circle><circle cx="366" cy="380" r="2"></circle><circle cx="369" cy="383" r="2"></circle><circle cx="372" cy="394" r="2"></circle><circle cx="375" cy="387" r="2"></circle><circle cx="378" cy="407" r="2"></circle><circle cx="381" cy="397" r="2"></circle><circle cx="384" cy="412" r="2"></circle><circle cx="387" cy="418" r="2"></circle><circle cx="391" cy="412" r="2"></circle><circle cx="394" cy="416" r="2"></circle><circle cx="397" cy="408" r="2"></circle><circle cx="400" cy="421" r="2"></circle><circle cx="403" cy="405" r="2"></circle><circle cx="406" cy="422" r="2"></circle><circle cx="409" cy="415" r="2"></circle><circle cx="412" cy="409" r="2"></circle><circle cx="415" cy="431" r="2"></circle><circle cx="418" cy="424" r="2"></circle><circle cx="421" cy="419" r="2"></circle><circle cx="424" cy="399" r="2"></circle><circle cx="427" cy="412" r="2"></circle><circle cx="431" cy="425" r="2"></circle><circle cx="434" cy="434" r="2"></circle><circle cx="437" cy="442" r="2"></circle><circle cx="440" cy="441" r="2"></circle><circle cx="443" cy="429" r="2"></circle><circle cx="446" cy="445" r="2"></circle><circle cx="449" cy="437" r="2"></circle><circle cx="452" cy="444" r="2"></circle><circle cx="455" cy="443" r="2"></circle><circle cx="458" cy="425" r="2"></circle><circle cx="461" cy="435" r="2"></circle><circle cx="464" cy="443" r="2"></circle><circle cx="468" cy="445" r="2"></circle><circle cx="471" cy="458" r="2"></circle><circle cx="474" cy="463" r="2"></circle><circle cx="477" cy="461" r="2"></circle><circle cx="480" cy="369" r="2"></circle><circle cx="483" cy="381" r="2"></circle><circle cx="486" cy="403" r="2"></circle><circle cx="489" cy="412" r="2"></circle><circle cx="492" cy="389" r="2"></circle><circle cx="495" cy="430" r="2"></circle><circle cx="498" cy="404" r="2"></circle><circle cx="501" cy="409" r="2"></circle><circle cx="504" cy="399" r="2"></circle><circle cx="508" cy="412" r="2"></circle><circle cx="511" cy="453" r="2"></circle><circle cx="514" cy="469" r="2"></circle><circle cx="517" cy="482" r="2"></circle><circle cx="520" cy="488" r="2"></circle><circle cx="523" cy="491" r="2"></circle><circle cx="526" cy="498" r="2"></circle><circle cx="529" cy="497" r="2"></circle><circle cx="532" cy="494" r="2"></circle><circle cx="535" cy="503" r="2"></circle><circle cx="538" cy="503" r="2"></circle><circle cx="541" cy="501" r="2"></circle><circle cx="545" cy="508" r="2"></circle><circle cx="548" cy="505" r="2"></circle><circle cx="551" cy="515" r="2"></circle><circle cx="554" cy="513" r="2"></circle><circle cx="557" cy="518" r="2"></circle><circle cx="560" cy="520" r="2"></circle><circle cx="563" cy="520" r="2"></circle><circle cx="566" cy="522" r="2"></circle><circle cx="569" cy="527" r="2"></circle><circle cx="572" cy="526" r="2"></circle><circle cx="575" cy="529" r="2"></circle><circle cx="578" cy="527" r="2"></circle><circle cx="582" cy="531" r="2"></circle><circle cx="585" cy="532" r="2"></circle><circle cx="588" cy="532" r="2"></circle><circle cx="591" cy="532" r="2"></circle><circle cx="594" cy="533" r="2"></circle><circle cx="597" cy="533" r="2"></circle><circle cx="600" cy="533" r="2"></circle><circle cx="603" cy="533" r="2"></circle><circle cx="606" cy="533" r="2"></circle><circle cx="609" cy="534" r="2"></circle><circle cx="612" cy="534" r="2"></circle><circle cx="646" cy="534" r="2"></circle><circle cx="649" cy="534" r="2"></circle><circle cx="652" cy="534" r="2"></circle><circle cx="655" cy="534" r="2"></circle><circle cx="659" cy="534" r="2"></circle><circle cx="662" cy="534" r="2"></circle><circle cx="665" cy="534" r="2"></circle><circle cx="668" cy="534" r="2"></circle><circle cx="671" cy="534" r="2"></circle><circle cx="674" cy="534" r="2"></circle><circle cx="677" cy="534" r="2"></circle><circle cx="680" cy="534" r="2"></circle><circle cx="683" cy="534" r="2"></circle><circle cx="686" cy="534" r="2"></circle><circle cx="689" cy="534" r="2"></circle><circle cx="692" cy="534" r="2"></circle><circle cx="695" cy="534" r="2"></circle><circle cx="699" cy="534" r="2"></circle><circle cx="702" cy="534" r="2"></circle><circle cx="705" cy="534" r="2"></circle><circle cx="708" cy="534" r="2"></circle><circle cx="711" cy="534" r="2"></circle><circle cx="714" cy="534" r="2"></circle><circle cx="717" cy="534" r="2"></circle><circle cx="720" cy="534" r="2"></circle><circle cx="723" cy="534" r="2"></circle></g></g><g class="key-United-States_0"><path stroke="#df3c64" stroke-linecap="round" d="M369 274L372 290L375 308L378 320L381 293L384 290L387 317L391 314L394 330L397 320L400 323L403 320L406 336L409 327L412 317L415 349L418 344L421 332L424 254L427 309L431 290L434 326L437 331L440 331L443 334L446 337L449 334L452 337L455 323L458 322L461 329L464 332L468 341L471 345L474 353L477 357L480 361L483 385L486 402L489 411L492 420L495 438L498 456L501 460L504 465L508 472L511 487L514 494L517 499L520 508L523 510L526 512L529 514L532 517L535 519L538 521L541 523L545 523L548 524L551 524L554 524L557 524L560 525L563 524L566 525L569 526L572 526L575 527L578 528L582 529L585 529L588 529L591 530L594 530L597 531L600 531L603 532L606 532L609 532L612 532L646 532L649 532L652 532L655 532L659 532L662 532L665 532L668 532L671 532L674 532L677 532L680 531L683 531L686 531L689 531L692 531L695 531L699 531L702 531L705 531L708 531L711 531L714 531L717 531L720 531L723 531" fill="none" stroke-width="1.5"></path><g fill="#df3c64"><circle cx="369" cy="274" r="2"></circle><circle cx="372" cy="290" r="2"></circle><circle cx="375" cy="308" r="2"></circle><circle cx="378" cy="320" r="2"></circle><circle cx="381" cy="293" r="2"></circle><circle cx="384" cy="290" r="2"></circle><circle cx="387" cy="317" r="2"></circle><circle cx="391" cy="314" r="2"></circle><circle cx="394" cy="330" r="2"></circle><circle cx="397" cy="320" r="2"></circle><circle cx="400" cy="323" r="2"></circle><circle cx="403" cy="320" r="2"></circle><circle cx="406" cy="336" r="2"></circle><circle cx="409" cy="327" r="2"></circle><circle cx="412" cy="317" r="2"></circle><circle cx="415" cy="349" r="2"></circle><circle cx="418" cy="344" r="2"></circle><circle cx="421" cy="332" r="2"></circle><circle cx="424" cy="254" r="2"></circle><circle cx="427" cy="309" r="2"></circle><circle cx="431" cy="290" r="2"></circle><circle cx="434" cy="326" r="2"></circle><circle cx="437" cy="331" r="2"></circle><circle cx="440" cy="331" r="2"></circle><circle cx="443" cy="334" r="2"></circle><circle cx="446" cy="337" r="2"></circle><circle cx="449" cy="334" r="2"></circle><circle cx="452" cy="337" r="2"></circle><circle cx="455" cy="323" r="2"></circle><circle cx="458" cy="322" r="2"></circle><circle cx="461" cy="329" r="2"></circle><circle cx="464" cy="332" r="2"></circle><circle cx="468" cy="341" r="2"></circle><circle cx="471" cy="345" r="2"></circle><circle cx="474" cy="353" r="2"></circle><circle cx="477" cy="357" r="2"></circle><circle cx="480" cy="361" r="2"></circle><circle cx="483" cy="385" r="2"></circle><circle cx="486" cy="402" r="2"></circle><circle cx="489" cy="411" r="2"></circle><circle cx="492" cy="420" r="2"></circle><circle cx="495" cy="438" r="2"></circle><circle cx="498" cy="456" r="2"></circle><circle cx="501" cy="460" r="2"></circle><circle cx="504" cy="465" r="2"></circle><circle cx="508" cy="472" r="2"></circle><circle cx="511" cy="487" r="2"></circle><circle cx="514" cy="494" r="2"></circle><circle cx="517" cy="499" r="2"></circle><circle cx="520" cy="508" r="2"></circle><circle cx="523" cy="510" r="2"></circle><circle cx="526" cy="512" r="2"></circle><circle cx="529" cy="514" r="2"></circle><circle cx="532" cy="517" r="2"></circle><circle cx="535" cy="519" r="2"></circle><circle cx="538" cy="521" r="2"></circle><circle cx="541" cy="523" r="2"></circle><circle cx="545" cy="523" r="2"></circle><circle cx="548" cy="524" r="2"></circle><circle cx="551" cy="524" r="2"></circle><circle cx="554" cy="524" r="2"></circle><circle cx="557" cy="524" r="2"></circle><circle cx="560" cy="525" r="2"></circle><circle cx="563" cy="524" r="2"></circle><circle cx="566" cy="525" r="2"></circle><circle cx="569" cy="526" r="2"></circle><circle cx="572" cy="526" r="2"></circle><circle cx="575" cy="527" r="2"></circle><circle cx="578" cy="528" r="2"></circle><circle cx="582" cy="529" r="2"></circle><circle cx="585" cy="529" r="2"></circle><circle cx="588" cy="529" r="2"></circle><circle cx="591" cy="530" r="2"></circle><circle cx="594" cy="530" r="2"></circle><circle cx="597" cy="531" r="2"></circle><circle cx="600" cy="531" r="2"></circle><circle cx="603" cy="532" r="2"></circle><circle cx="606" cy="532" r="2"></circle><circle cx="609" cy="532" r="2"></circle><circle cx="612" cy="532" r="2"></circle><circle cx="646" cy="532" r="2"></circle><circle cx="649" cy="532" r="2"></circle><circle cx="652" cy="532" r="2"></circle><circle cx="655" cy="532" r="2"></circle><circle cx="659" cy="532" r="2"></circle><circle cx="662" cy="532" r="2"></circle><circle cx="665" cy="532" r="2"></circle><circle cx="668" cy="532" r="2"></circle><circle cx="671" cy="532" r="2"></circle><circle cx="674" cy="532" r="2"></circle><circle cx="677" cy="532" r="2"></circle><circle cx="680" cy="531" r="2"></circle><circle cx="683" cy="531" r="2"></circle><circle cx="686" cy="531" r="2"></circle><circle cx="689" cy="531" r="2"></circle><circle cx="692" cy="531" r="2"></circle><circle cx="695" cy="531" r="2"></circle><circle cx="699" cy="531" r="2"></circle><circle cx="702" cy="531" r="2"></circle><circle cx="705" cy="531" r="2"></circle><circle cx="708" cy="531" r="2"></circle><circle cx="711" cy="531" r="2"></circle><circle cx="714" cy="531" r="2"></circle><circle cx="717" cy="531" r="2"></circle><circle cx="720" cy="531" r="2"></circle><circle cx="723" cy="531" r="2"></circle></g></g><g class="key-World_0"><path stroke="#b077b1" stroke-linecap="round" d="M646 417L649 418L652 419L655 420L659 421L662 422L665 423L668 425L671 426L674 428L677 431L680 433L683 436L686 440L689 444L692 447L695 450L699 453L702 456L705 457L708 460L711 463L714 464L717 466L720 467L723 469" fill="none" stroke-width="1.5"></path><g fill="#b077b1"><circle cx="646" cy="417" r="2"></circle><circle cx="649" cy="418" r="2"></circle><circle cx="652" cy="419" r="2"></circle><circle cx="655" cy="420" r="2"></circle><circle cx="659" cy="421" r="2"></circle><circle cx="662" cy="422" r="2"></circle><circle cx="665" cy="423" r="2"></circle><circle cx="668" cy="425" r="2"></circle><circle cx="671" cy="426" r="2"></circle><circle cx="674" cy="428" r="2"></circle><circle cx="677" cy="431" r="2"></circle><circle cx="680" cy="433" r="2"></circle><circle cx="683" cy="436" r="2"></circle><circle cx="686" cy="440" r="2"></circle><circle cx="689" cy="444" r="2"></circle><circle cx="692" cy="447" r="2"></circle><circle cx="695" cy="450" r="2"></circle><circle cx="699" cy="453" r="2"></circle><circle cx="702" cy="456" r="2"></circle><circle cx="705" cy="457" r="2"></circle><circle cx="708" cy="460" r="2"></circle><circle cx="711" cy="463" r="2"></circle><circle cx="714" cy="464" r="2"></circle><circle cx="717" cy="466" r="2"></circle><circle cx="720" cy="467" r="2"></circle><circle cx="723" cy="469" r="2"></circle></g></g></g></g></g><g style="fill: #777;" class="SourcesFooter"><g style="fill: #777;" class="clickable"><text font-size="12.60" x="15.0" y="581.6"><tspan x="15" y="581.58">Source: Gapminder (2010) and World Bank (2015)</tspan></text></g><text font-size="12.60" x="575.2" y="581.6"><tspan x="575.188" y="581.58"><a target='_blank' style='fill: #777;' href='https://ourworldindata.org/health-meta/'>OurWorldInData.org/health-meta/</a> • <a style="fill: #777;" href="http://creativecommons.org/licenses/by-sa/4.0/deed.en_US" target="_blank">CC BY-SA</a></tspan></text></g></g></svg>