<svg xmlns="http://www.w3.org/2000/svg" version="1.1" style="font-family:&#x27;Helvetica Neue&#x27;, Helvetica, Arial, sans-serif;font-size:18px;background-color:white;text-rendering:optimizeLegibility;-webkit-font-smoothing:antialiased" width="850" height="600"><g class="ChartTab"><g class="HeaderView"><g opacity="0.8" transform="translate(778, 15) scale(0.27)"><a xmlns:xlink="http://www.w3.org/1999/xlink" xlink:href="https://ourworldindata.org" target="_blank"><g><rect x="0" y="0" fill="#1B2543" width="211.2" height="130.1"/><rect x="0" y="112.2" fill="#E63912" width="211.2" height="17.9"/><g><rect x="1.2" y="12.3" fill="none" width="210.2" height="99.2"/><path fill="#FFFFFF" d="M37.8,32.2c0,12.7-7.7,19.4-17.1,19.4c-9.7,0-16.6-7.5-16.6-18.7c0-11.7,7.3-19.3,17.1-19.3 C31.3,13.7,37.8,21.3,37.8,32.2z M9.2,32.8c0,7.9,4.3,14.9,11.8,14.9c7.5,0,11.8-6.9,11.8-15.3c0-7.3-3.8-14.9-11.8-14.9 C13.1,17.5,9.2,24.8,9.2,32.8z"/><path fill="#FFFFFF" d="M62.7,43.8c0,2.7,0.1,5.1,0.2,7.2h-4.3l-0.3-4.3h-0.1c-1.3,2.1-4,4.9-8.8,4.9c-4.2,0-9.1-2.3-9.1-11.6 V24.6h4.8v14.6c0,5,1.5,8.4,5.9,8.4c3.2,0,5.5-2.2,6.3-4.4c0.3-0.7,0.4-1.6,0.4-2.5V24.6h4.8V43.8z"/><path fill="#FFFFFF" d="M67.3,32.8c0-3.1-0.1-5.8-0.2-8.2h4.2l0.2,5.2h0.2c1.2-3.5,4.1-5.8,7.3-5.8c0.5,0,0.9,0.1,1.4,0.2v4.5 c-0.5-0.1-1-0.2-1.6-0.2c-3.4,0-5.8,2.6-6.5,6.2c-0.1,0.7-0.2,1.4-0.2,2.2V51h-4.8V32.8z"/><path fill="#FFFFFF" d="M95.4,51l-9.4-36.8h5l4.4,18.6c1.1,4.6,2.1,9.2,2.7,12.7h0.1c0.6-3.7,1.8-8,3-12.8l4.9-18.5h5l4.5,18.7 c1,4.4,2,8.7,2.6,12.6h0.1c0.8-4,1.8-8.1,3-12.7l4.9-18.5h4.9L120.6,51h-5L111,31.9c-1.1-4.7-1.9-8.3-2.4-12h-0.1 c-0.7,3.7-1.5,7.3-2.8,12L100.4,51H95.4z"/><path fill="#FFFFFF" d="M154.9,37.6c0,9.8-6.8,14-13.2,14c-7.2,0-12.7-5.2-12.7-13.6c0-8.8,5.8-14,13.1-14 C149.8,24,154.9,29.5,154.9,37.6z M133.9,37.9c0,5.8,3.3,10.1,8,10.1c4.6,0,8-4.3,8-10.3c0-4.5-2.2-10.1-7.9-10.1 C136.3,27.6,133.9,32.8,133.9,37.9z"/><path fill="#FFFFFF" d="M158.2,32.8c0-3.1-0.1-5.8-0.2-8.2h4.2l0.2,5.2h0.2c1.2-3.5,4.1-5.8,7.3-5.8c0.5,0,0.9,0.1,1.4,0.2v4.5 c-0.5-0.1-1-0.2-1.6-0.2c-3.4,0-5.8,2.6-6.5,6.2c-0.1,0.7-0.2,1.4-0.2,2.2V51h-4.8V32.8z"/><path fill="#FFFFFF" d="M173.5,12.3h4.8V51h-4.8V12.3z"/><path fill="#FFFFFF" d="M206.5,12.3v31.9c0,2.3,0.1,5,0.2,6.8h-4.3l-0.2-4.6H202c-1.5,2.9-4.7,5.2-9,5.2 c-6.4,0-11.3-5.4-11.3-13.4c-0.1-8.8,5.4-14.2,11.9-14.2c4,0,6.8,1.9,8,4h0.1V12.3H206.5z M201.7,35.4c0-0.6-0.1-1.4-0.2-2 c-0.7-3.1-3.3-5.6-6.9-5.6c-5,0-7.9,4.4-7.9,10.2c0,5.3,2.6,9.8,7.8,9.8c3.2,0,6.2-2.1,7.1-5.7c0.2-0.7,0.2-1.3,0.2-2.1V35.4z"/><path fill="#FFFFFF" d="M42.8,64c0.1,1.6-1.1,2.9-3.1,2.9c-1.7,0-2.9-1.3-2.9-2.9c0-1.7,1.3-3,3-3C41.7,61,42.8,62.3,42.8,64z M37.4,97.8V71.4h4.8v26.4H37.4z"/><path fill="#FFFFFF" d="M47.5,78.6c0-2.7-0.1-5-0.2-7.1h4.3l0.3,4.4h0.1c1.3-2.5,4.4-5,8.8-5c3.7,0,9.4,2.2,9.4,11.2v15.8h-4.8 V82.6c0-4.3-1.6-7.8-6.1-7.8c-3.2,0-5.6,2.2-6.5,4.9c-0.2,0.6-0.3,1.4-0.3,2.2v15.9h-4.8V78.6z"/><path fill="#FFFFFF" d="M84,61.6c2.9-0.4,6.3-0.8,10.1-0.8c6.8,0,11.7,1.6,14.9,4.6c3.3,3,5.2,7.3,5.2,13.2c0,6-1.9,10.9-5.3,14.3 c-3.4,3.4-9.1,5.3-16.3,5.3c-3.4,0-6.2-0.2-8.6-0.4V61.6z M88.8,94.1c1.2,0.2,3,0.3,4.8,0.3c10.2,0,15.7-5.7,15.7-15.6 c0.1-8.7-4.9-14.2-14.9-14.2c-2.5,0-4.3,0.2-5.6,0.5V94.1z"/><path fill="#FFFFFF" d="M132.1,97.8l-0.4-3.3h-0.2c-1.5,2.1-4.3,3.9-8.1,3.9c-5.4,0-8.1-3.8-8.1-7.6c0-6.4,5.7-9.9,15.9-9.8v-0.5 c0-2.2-0.6-6.1-6-6.1c-2.5,0-5,0.8-6.9,2l-1.1-3.2c2.2-1.4,5.4-2.3,8.7-2.3c8.1,0,10.1,5.5,10.1,10.8v9.9c0,2.3,0.1,4.5,0.4,6.3 H132.1z M131.4,84.4c-5.3-0.1-11.2,0.8-11.2,5.9c0,3.1,2.1,4.6,4.5,4.6c3.4,0,5.6-2.2,6.4-4.4c0.2-0.5,0.3-1,0.3-1.5V84.4z"/><path fill="#FFFFFF" d="M146.6,63.9v7.6h6.9v3.7h-6.9v14.2c0,3.3,0.9,5.1,3.6,5.1c1.3,0,2.2-0.2,2.8-0.3l0.2,3.6 c-0.9,0.4-2.4,0.7-4.3,0.7c-2.2,0-4-0.7-5.2-2c-1.4-1.4-1.9-3.8-1.9-6.9V75.1h-4.1v-3.7h4.1v-6.3L146.6,63.9z"/><path fill="#FFFFFF" d="M171.4,97.8l-0.4-3.3h-0.2c-1.5,2.1-4.3,3.9-8.1,3.9c-5.4,0-8.1-3.8-8.1-7.6c0-6.4,5.7-9.9,15.9-9.8v-0.5 c0-2.2-0.6-6.1-6-6.1c-2.5,0-5,0.8-6.9,2l-1.1-3.2c2.2-1.4,5.4-2.3,8.7-2.3c8.1,0,10.1,5.5,10.1,10.8v9.9c0,2.3,0.1,4.5,0.4,6.3 H171.4z M170.7,84.4c-5.3-0.1-11.2,0.8-11.2,5.9c0,3.1,2.1,4.6,4.5,4.6c3.4,0,5.6-2.2,6.4-4.4c0.2-0.5,0.3-1,0.3-1.5V84.4z"/></g></g></a></g><a href="https://ourworldindata.org/grapher/meat-production-tonnes?tab=chart" target="_blank"><text font-size="25.20" x="15.0" y="35.2" fill="#555"><tspan x="15" y="35.160000000000004">Meat production, tonnes</tspan></text></a><text font-size="14.40" x="15.0" y="53.7" fill="#666"><tspan x="15" y="53.72">Total meat production, measured in tonnes. Meat includes cattle, poultry, sheep/mutton, goat, pigmeat, and wild</tspan><tspan x="15" y="69.56">game. Figures are given in terms of dressed carcass weight, excluding offal and slaughter fats. </tspan></text></g><g class="StackedArea"><defs><clipPath id="boundsClip-335"><rect x="106.67" y="0" width="820" height="928.8"></rect></clipPath></defs><g class="AxisBoxView"><g class="HorizontalAxis"><text x="106.7" y="556.5" fill="#666" text-anchor="middle" font-size="16.2">1961</text><text x="206.4" y="556.5" fill="#666" text-anchor="middle" font-size="16.2">1970</text><text x="317.2" y="556.5" fill="#666" text-anchor="middle" font-size="16.2">1980</text><text x="428.1" y="556.5" fill="#666" text-anchor="middle" font-size="16.2">1990</text><text x="538.9" y="556.5" fill="#666" text-anchor="middle" font-size="16.2">2000</text><text x="649.7" y="556.5" fill="#666" text-anchor="middle" font-size="16.2">2010</text><text x="694" y="556.5" fill="#666" text-anchor="middle" font-size="16.2">2014</text></g><g class="VerticalAxis"><text x="101.67" y="535.3" fill="#666" dominant-baseline="middle" text-anchor="end" font-size="16.2">0 t</text><text x="101.67" y="465.6" fill="#666" dominant-baseline="middle" text-anchor="end" font-size="16.2">50 million t</text><text x="101.67" y="395.9" fill="#666" dominant-baseline="middle" text-anchor="end" font-size="16.2">100 million t</text><text x="101.67" y="326.1" fill="#666" dominant-baseline="middle" text-anchor="end" font-size="16.2">150 million t</text><text x="101.67" y="256.4" fill="#666" dominant-baseline="middle" text-anchor="end" font-size="16.2">200 million t</text><text x="101.67" y="186.7" fill="#666" dominant-baseline="middle" text-anchor="end" font-size="16.2">250 million t</text><text x="101.67" y="117" fill="#666" dominant-baseline="middle" text-anchor="end" font-size="16.2">300 million t</text></g><g class="AxisGridLines"><line x1="106.67" y1="535.3" x2="694.02" y2="535.3" stroke="#ccc"></line><line x1="106.67" y1="465.6" x2="694.02" y2="465.6" stroke="#ddd" stroke-dasharray="3,2"></line><line x1="106.67" y1="395.9" x2="694.02" y2="395.9" stroke="#ddd" stroke-dasharray="3,2"></line><line x1="106.67" y1="326.1" x2="694.02" y2="326.1" stroke="#ddd" stroke-dasharray="3,2"></line><line x1="106.67" y1="256.4" x2="694.02" y2="256.4" stroke="#ddd" stroke-dasharray="3,2"></line><line x1="106.67" y1="186.7" x2="694.02" y2="186.7" stroke="#ddd" stroke-dasharray="3,2"></line><line x1="106.67" y1="117" x2="694.02" y2="117" stroke="#ddd" stroke-dasharray="3,2"></line></g></g><g clip-path="url(#boundsClip-335)"><g class="HeightedLegend clickable"><g class="legendMark"><g class="indicator"><line x1="699.025" y1="92.9" x2="721.525" y2="92.9" stroke="#666" stroke-width="0.5"></line><line x1="721.525" y1="92.9" x2="721.525" y2="92.9" stroke="#666" stroke-width="0.5"></line><line x1="721.525" y1="92.9" x2="724.025" y2="92.9" stroke="#666" stroke-width="0.5"></line></g><rect x="694.025" y="86.15" width="97.505" height="13.5" fill="#fff" opacity="0"></rect><text font-size="13.50" x="729.0" y="97.0" fill="#c8c8c8"><tspan x="729.025" y="96.95">Caribbean</tspan></text></g><g class="legendMark"><g class="indicator"><line x1="699.025" y1="98.5" x2="716.525" y2="98.5" stroke="#666" stroke-width="0.5"></line><line x1="716.525" y1="98.5" x2="716.525" y2="108.4" stroke="#666" stroke-width="0.5"></line><line x1="716.525" y1="108.4" x2="724.025" y2="108.4" stroke="#666" stroke-width="0.5"></line></g><rect x="694.025" y="101.65" width="85.49000000000001" height="13.5" fill="#fff" opacity="0"></rect><text font-size="13.50" x="729.0" y="112.5" fill="#ed6c2d"><tspan x="729.025" y="112.45">Oceania</tspan></text></g><g class="legendMark"><g class="indicator"><line x1="699.025" y1="116.2" x2="711.525" y2="116.2" stroke="#666" stroke-width="0.5"></line><line x1="711.525" y1="116.2" x2="711.525" y2="123.9" stroke="#666" stroke-width="0.5"></line><line x1="711.525" y1="123.9" x2="724.025" y2="123.9" stroke="#666" stroke-width="0.5"></line></g><rect x="694.025" y="117.15" width="69.56" height="13.5" fill="#fff" opacity="0"></rect><text font-size="13.50" x="729.0" y="128.0" fill="#3360a9"><tspan x="729.025" y="127.95">Africa</tspan></text></g><g class="legendMark"><g class="indicator"><line x1="699.025" y1="134.6" x2="706.525" y2="134.6" stroke="#666" stroke-width="0.5"></line><line x1="706.525" y1="134.6" x2="706.525" y2="139.4" stroke="#666" stroke-width="0.5"></line><line x1="706.525" y1="139.4" x2="724.025" y2="139.4" stroke="#666" stroke-width="0.5"></line></g><rect x="694.025" y="132.65" width="131.93" height="13.5" fill="#fff" opacity="0"></rect><text font-size="13.50" x="729.0" y="143.5" fill="#34983f"><tspan x="729.025" y="143.45000000000002">Central America</tspan></text></g><g class="legendMark"><g class="indicator"><line x1="699.025" y1="168.9" x2="711.525" y2="168.9" stroke="#666" stroke-width="0.5"></line><line x1="711.525" y1="168.9" x2="711.525" y2="168.9" stroke="#666" stroke-width="0.5"></line><line x1="711.525" y1="168.9" x2="724.025" y2="168.9" stroke="#666" stroke-width="0.5"></line></g><rect x="694.025" y="162.15" width="123.83000000000001" height="13.5" fill="#fff" opacity="0"></rect><text font-size="13.50" x="729.0" y="173.0" fill="#9ecc8a"><tspan x="729.025" y="172.95000000000002">South America</tspan></text></g><g class="legendMark"><g class="indicator"><line x1="699.025" y1="230.6" x2="711.525" y2="230.6" stroke="#666" stroke-width="0.5"></line><line x1="711.525" y1="230.6" x2="711.525" y2="230.6" stroke="#666" stroke-width="0.5"></line><line x1="711.525" y1="230.6" x2="724.025" y2="230.6" stroke="#666" stroke-width="0.5"></line></g><rect x="694.025" y="223.85" width="140.97500000000002" height="13.5" fill="#fff" opacity="0"></rect><text font-size="13.50" x="729.0" y="234.7" fill="#6bb537"><tspan x="729.025" y="234.65">Northern America</tspan></text></g><g class="legendMark"><g class="indicator"><line x1="699.025" y1="304.7" x2="711.525" y2="304.7" stroke="#666" stroke-width="0.5"></line><line x1="711.525" y1="304.7" x2="711.525" y2="304.7" stroke="#666" stroke-width="0.5"></line><line x1="711.525" y1="304.7" x2="724.025" y2="304.7" stroke="#666" stroke-width="0.5"></line></g><rect x="694.025" y="297.95" width="78.74000000000001" height="13.5" fill="#fff" opacity="0"></rect><text font-size="13.50" x="729.0" y="308.8" fill="#ffd53e"><tspan x="729.025" y="308.75">Europe</tspan></text></g><g class="legendMark"><g class="indicator"><line x1="699.025" y1="440.7" x2="711.525" y2="440.7" stroke="#666" stroke-width="0.5"></line><line x1="711.525" y1="440.7" x2="711.525" y2="440.7" stroke="#666" stroke-width="0.5"></line><line x1="711.525" y1="440.7" x2="724.025" y2="440.7" stroke="#666" stroke-width="0.5"></line></g><rect x="694.025" y="433.95" width="61.325" height="13.5" fill="#fff" opacity="0"></rect><text font-size="13.50" x="729.0" y="444.8" fill="#e6332e"><tspan x="729.025" y="444.75">Asia</tspan></text></g></g><g class="Areas"><rect x="106.67" y="92.1" width="587.355" height="443.19999999999993" opacity="0" fill="rgba(255,255,255,0)"></rect><path class="Asia_0-area" stroke-linecap="round" d="M106.7 522.7L117.8 521.5L128.8 519L139.9 516.8L151 515.2L162.1 513.9L173.2 513L184.2 512.7L195.3 512.3L206.4 511.6L217.5 509.7L228.6 508L239.7 507.3L250.7 506.4L261.8 505.9L272.9 505.5L284 504.5L295.1 502.1L306.1 497.9L317.2 495.4L328.3 493.6L339.4 491L350.5 489.2L361.6 485.8L372.6 481.7L383.7 479L394.8 475.2L405.9 471L417 468.2L428.1 464.3L439.1 459.5L450.2 450.6L461.3 445L472.4 439.4L483.5 434.6L494.5 433.5L505.6 427.6L516.7 422.4L527.8 419.9L538.9 413.6L550 412.2L561 408L572.1 402.1L583.2 399.7L594.3 394.4L605.4 388.5L616.4 383.6L627.5 378.6L638.6 371.3L649.7 365.8L660.8 363.6L671.9 355.3L682.9 349.6L694 346.1L694.025 535.3L106.67 535.3" fill="#e6332e" fill-opacity="0.7"></path><path class="Europe_0-area" stroke-linecap="round" d="M106.7 480.9L117.8 477.4L128.8 473.7L139.9 473.2L151 467.8L162.1 464.6L173.2 460.9L184.2 458.7L195.3 457.9L206.4 454.5L217.5 449.4L228.6 446.6L239.7 444.6L250.7 438.6L261.8 437L272.9 438.5L284 434.4L295.1 429.1L306.1 422.6L317.2 419.3L328.3 417.6L339.4 415.1L350.5 410.9L361.6 405.2L372.6 400.2L383.7 395.5L394.8 389L405.9 383.4L417 380.8L428.1 375.2L439.1 373.2L450.2 371.7L461.3 368.8L472.4 365.3L483.5 361.9L494.5 360.5L505.6 356.1L516.7 349.1L527.8 346.8L538.9 342L550 340.6L561 334.9L572.1 329.2L583.2 327.2L594.3 322.3L605.4 316.7L616.4 308.6L627.5 303L638.6 294.9L649.7 286.7L660.8 283.2L671.9 274.1L682.9 268.3L694 263.3L694 346.1L682.9 349.6L671.9 355.3L660.8 363.6L649.7 365.8L638.6 371.3L627.5 378.6L616.4 383.6L605.4 388.5L594.3 394.4L583.2 399.7L572.1 402.1L561 408L550 412.2L538.9 413.6L527.8 419.9L516.7 422.4L505.6 427.6L494.5 433.5L483.5 434.6L472.4 439.4L461.3 445L450.2 450.6L439.1 459.5L428.1 464.3L417 468.2L405.9 471L394.8 475.2L383.7 479L372.6 481.7L361.6 485.8L350.5 489.2L339.4 491L328.3 493.6L317.2 495.4L306.1 497.9L295.1 502.1L284 504.5L272.9 505.5L261.8 505.9L250.7 506.4L239.7 507.3L228.6 508L217.5 509.7L206.4 511.6L195.3 512.3L184.2 512.7L173.2 513L162.1 513.9L151 515.2L139.9 516.8L128.8 519L117.8 521.5L106.7 522.7" fill="#ffd53e" fill-opacity="0.7"></path><path class="Northern-America_0-area" stroke-linecap="round" d="M106.7 455.8L117.8 452.2L128.8 447.2L139.9 445L151 439.9L162.1 435.5L173.2 430.4L184.2 427.6L195.3 426.5L206.4 421.9L217.5 415.6L228.6 413L239.7 412.4L250.7 404.4L261.8 403.7L272.9 402.4L284 398.2L295.1 393.1L306.1 386.3L317.2 381.7L328.3 379.3L339.4 377.7L350.5 372.2L361.6 366.1L372.6 360.4L383.7 354.9L394.8 347.7L405.9 340.7L417 337.4L428.1 331.4L439.1 328.2L450.2 324.7L461.3 321.3L472.4 315.3L483.5 310.3L494.5 308.1L505.6 302.8L516.7 293.9L527.8 289.4L538.9 283.9L550 282L561 274.8L572.1 269.3L583.2 266.7L594.3 260.8L605.4 253.8L616.4 244.3L627.5 236.7L638.6 230.7L649.7 221.7L660.8 217.9L671.9 208.8L682.9 202.7L694 197.8L694 263.3L682.9 268.3L671.9 274.1L660.8 283.2L649.7 286.7L638.6 294.9L627.5 303L616.4 308.6L605.4 316.7L594.3 322.3L583.2 327.2L572.1 329.2L561 334.9L550 340.6L538.9 342L527.8 346.8L516.7 349.1L505.6 356.1L494.5 360.5L483.5 361.9L472.4 365.3L461.3 368.8L450.2 371.7L439.1 373.2L428.1 375.2L417 380.8L405.9 383.4L394.8 389L383.7 395.5L372.6 400.2L361.6 405.2L350.5 410.9L339.4 415.1L328.3 417.6L317.2 419.3L306.1 422.6L295.1 429.1L284 434.4L272.9 438.5L261.8 437L250.7 438.6L239.7 444.6L228.6 446.6L217.5 449.4L206.4 454.5L195.3 457.9L184.2 458.7L173.2 460.9L162.1 464.6L151 467.8L139.9 473.2L128.8 473.7L117.8 477.4L106.7 480.9" fill="#6bb537" fill-opacity="0.7"></path><path class="South-America_0-area" stroke-linecap="round" d="M106.7 446.7L117.8 442.6L128.8 437.2L139.9 435.5L151 430.1L162.1 425.2L173.2 419.6L184.2 416.2L195.3 414.2L206.4 409.6L217.5 404.2L228.6 400.9L239.7 400.2L250.7 392L261.8 390.4L272.9 388L284 383.4L295.1 377.4L306.1 370.2L317.2 364.7L328.3 361.5L339.4 360.2L350.5 354.6L361.6 348.8L372.6 342.2L383.7 335.9L394.8 328.5L405.9 320.2L417 316.6L428.1 309.6L439.1 304.9L450.2 300.5L461.3 295.7L472.4 288.2L483.5 281.1L494.5 277.9L505.6 271.8L516.7 262.1L527.8 254.9L538.9 247.8L550 245.3L561 236.4L572.1 229.3L583.2 223.5L594.3 216.7L605.4 207.5L616.4 195.2L627.5 185.5L638.6 179.4L649.7 169.2L660.8 164L671.9 153.7L682.9 146L694 140L694 197.8L682.9 202.7L671.9 208.8L660.8 217.9L649.7 221.7L638.6 230.7L627.5 236.7L616.4 244.3L605.4 253.8L594.3 260.8L583.2 266.7L572.1 269.3L561 274.8L550 282L538.9 283.9L527.8 289.4L516.7 293.9L505.6 302.8L494.5 308.1L483.5 310.3L472.4 315.3L461.3 321.3L450.2 324.7L439.1 328.2L428.1 331.4L417 337.4L405.9 340.7L394.8 347.7L383.7 354.9L372.6 360.4L361.6 366.1L350.5 372.2L339.4 377.7L328.3 379.3L317.2 381.7L306.1 386.3L295.1 393.1L284 398.2L272.9 402.4L261.8 403.7L250.7 404.4L239.7 412.4L228.6 413L217.5 415.6L206.4 421.9L195.3 426.5L184.2 427.6L173.2 430.4L162.1 435.5L151 439.9L139.9 445L128.8 447.2L117.8 452.2L106.7 455.8" fill="#9ecc8a" fill-opacity="0.7"></path><path class="Central-America_0-area" stroke-linecap="round" d="M106.7 445L117.8 440.8L128.8 435.3L139.9 433.5L151 428.1L162.1 423.2L173.2 417.5L184.2 414.1L195.3 412L206.4 407.3L217.5 401.8L228.6 398.4L239.7 397.6L250.7 389.3L261.8 387.4L272.9 384.5L284 379.6L295.1 373.5L306.1 366.2L317.2 360.5L328.3 357L339.4 355.6L350.5 349.6L361.6 343.8L372.6 337.3L383.7 330.9L394.8 323.6L405.9 315.4L417 312L428.1 304.7L439.1 299.8L450.2 295.2L461.3 290.1L472.4 282.1L483.5 274.7L494.5 271.6L505.6 265.2L516.7 255.1L527.8 247.7L538.9 240.3L550 237.5L561 228.1L572.1 221L583.2 214.8L594.3 207.6L605.4 198.2L616.4 185.6L627.5 175.7L638.6 169.5L649.7 159.1L660.8 153.6L671.9 143.2L682.9 135.4L694 129.2L694 140L682.9 146L671.9 153.7L660.8 164L649.7 169.2L638.6 179.4L627.5 185.5L616.4 195.2L605.4 207.5L594.3 216.7L583.2 223.5L572.1 229.3L561 236.4L550 245.3L538.9 247.8L527.8 254.9L516.7 262.1L505.6 271.8L494.5 277.9L483.5 281.1L472.4 288.2L461.3 295.7L450.2 300.5L439.1 304.9L428.1 309.6L417 316.6L405.9 320.2L394.8 328.5L383.7 335.9L372.6 342.2L361.6 348.8L350.5 354.6L339.4 360.2L328.3 361.5L317.2 364.7L306.1 370.2L295.1 377.4L284 383.4L272.9 388L261.8 390.4L250.7 392L239.7 400.2L228.6 400.9L217.5 404.2L206.4 409.6L195.3 414.2L184.2 416.2L173.2 419.6L162.1 425.2L151 430.1L139.9 435.5L128.8 437.2L117.8 442.6L106.7 446.7" fill="#34983f" fill-opacity="0.7"></path><path class="Africa_0-area" stroke-linecap="round" d="M106.7 439.5L117.8 435.3L128.8 429.7L139.9 427.6L151 422L162.1 416.9L173.2 411.1L184.2 407.4L195.3 405.1L206.4 400.2L217.5 394.7L228.6 391L239.7 390.1L250.7 381.7L261.8 379.7L272.9 376.5L284 371.2L295.1 364.7L306.1 357.2L317.2 351.2L328.3 347.5L339.4 345.8L350.5 339.5L361.6 333.3L372.6 326.6L383.7 320.2L394.8 312.6L405.9 304.1L417 300.4L428.1 292.5L439.1 287.2L450.2 282.5L461.3 277.3L472.4 269.1L483.5 261.3L494.5 257.7L505.6 250.7L516.7 240.2L527.8 232.2L538.9 224.2L550 221.2L561 211.2L572.1 203.6L583.2 196.9L594.3 188.9L605.4 178.9L616.4 165.3L627.5 154.2L638.6 147.4L649.7 136.2L660.8 130.1L671.9 119L682.9 110.1L694 103.2L694 129.2L682.9 135.4L671.9 143.2L660.8 153.6L649.7 159.1L638.6 169.5L627.5 175.7L616.4 185.6L605.4 198.2L594.3 207.6L583.2 214.8L572.1 221L561 228.1L550 237.5L538.9 240.3L527.8 247.7L516.7 255.1L505.6 265.2L494.5 271.6L483.5 274.7L472.4 282.1L461.3 290.1L450.2 295.2L439.1 299.8L428.1 304.7L417 312L405.9 315.4L394.8 323.6L383.7 330.9L372.6 337.3L361.6 343.8L350.5 349.6L339.4 355.6L328.3 357L317.2 360.5L306.1 366.2L295.1 373.5L284 379.6L272.9 384.5L261.8 387.4L250.7 389.3L239.7 397.6L228.6 398.4L217.5 401.8L206.4 407.3L195.3 412L184.2 414.1L173.2 417.5L162.1 423.2L151 428.1L139.9 433.5L128.8 435.3L117.8 440.8L106.7 445" fill="#3360a9" fill-opacity="0.7"></path><path class="Oceania_0-area" stroke-linecap="round" d="M106.7 436.3L117.8 431.7L128.8 425.9L139.9 423.8L151 418.1L162.1 413L173.2 407.3L184.2 403.3L195.3 400.8L206.4 395.7L217.5 389.9L228.6 385.8L239.7 384.7L250.7 377L261.8 374.5L272.9 370.6L284 365.2L295.1 358.4L306.1 351.1L317.2 345.5L328.3 341.9L339.4 340.1L350.5 333.6L361.6 327.9L372.6 320.9L383.7 314.5L394.8 306.5L405.9 297.9L417 294.3L428.1 286.2L439.1 280.6L450.2 275.7L461.3 270.5L472.4 262.3L483.5 254.3L494.5 251L505.6 243.6L516.7 232.8L527.8 224.8L538.9 216.7L550 213.3L561 203.5L572.1 195.7L583.2 189L594.3 180.7L605.4 170.8L616.4 156.7L627.5 145.8L638.6 139.2L649.7 128.1L660.8 121.8L671.9 110.7L682.9 101.2L694 93.8L694 103.2L682.9 110.1L671.9 119L660.8 130.1L649.7 136.2L638.6 147.4L627.5 154.2L616.4 165.3L605.4 178.9L594.3 188.9L583.2 196.9L572.1 203.6L561 211.2L550 221.2L538.9 224.2L527.8 232.2L516.7 240.2L505.6 250.7L494.5 257.7L483.5 261.3L472.4 269.1L461.3 277.3L450.2 282.5L439.1 287.2L428.1 292.5L417 300.4L405.9 304.1L394.8 312.6L383.7 320.2L372.6 326.6L361.6 333.3L350.5 339.5L339.4 345.8L328.3 347.5L317.2 351.2L306.1 357.2L295.1 364.7L284 371.2L272.9 376.5L261.8 379.7L250.7 381.7L239.7 390.1L228.6 391L217.5 394.7L206.4 400.2L195.3 405.1L184.2 407.4L173.2 411.1L162.1 416.9L151 422L139.9 427.6L128.8 429.7L117.8 435.3L106.7 439.5" fill="#ed6c2d" fill-opacity="0.7"></path><path class="Caribbean_0-area" stroke-linecap="round" d="M106.7 435.8L117.8 431.2L128.8 425.4L139.9 423.2L151 417.5L162.1 412.4L173.2 406.6L184.2 402.5L195.3 400.1L206.4 394.9L217.5 389.1L228.6 385L239.7 384L250.7 376.3L261.8 373.8L272.9 369.8L284 364.3L295.1 357.5L306.1 350.2L317.2 344.6L328.3 341L339.4 339.2L350.5 332.7L361.6 326.9L372.6 319.9L383.7 313.4L394.8 305.4L405.9 296.7L417 293.1L428.1 285L439.1 279.5L450.2 274.6L461.3 269.4L472.4 261.2L483.5 253.2L494.5 249.8L505.6 242.4L516.7 231.6L527.8 223.6L538.9 215.3L550 212L561 202.2L572.1 194.5L583.2 187.7L594.3 179.3L605.4 169.3L616.4 155L627.5 144.2L638.6 137.5L649.7 126.4L660.8 120.2L671.9 109.1L682.9 99.6L694 92.1L694 93.8L682.9 101.2L671.9 110.7L660.8 121.8L649.7 128.1L638.6 139.2L627.5 145.8L616.4 156.7L605.4 170.8L594.3 180.7L583.2 189L572.1 195.7L561 203.5L550 213.3L538.9 216.7L527.8 224.8L516.7 232.8L505.6 243.6L494.5 251L483.5 254.3L472.4 262.3L461.3 270.5L450.2 275.7L439.1 280.6L428.1 286.2L417 294.3L405.9 297.9L394.8 306.5L383.7 314.5L372.6 320.9L361.6 327.9L350.5 333.6L339.4 340.1L328.3 341.9L317.2 345.5L306.1 351.1L295.1 358.4L284 365.2L272.9 370.6L261.8 374.5L250.7 377L239.7 384.7L228.6 385.8L217.5 389.9L206.4 395.7L195.3 400.8L184.2 403.3L173.2 407.3L162.1 413L151 418.1L139.9 423.8L128.8 425.9L117.8 431.7L106.7 436.3" fill="#c8c8c8" fill-opacity="0.7"></path><path class="Asia_0-border" stroke-linecap="round" d="M106.7 522.7L117.8 521.5L128.8 519L139.9 516.8L151 515.2L162.1 513.9L173.2 513L184.2 512.7L195.3 512.3L206.4 511.6L217.5 509.7L228.6 508L239.7 507.3L250.7 506.4L261.8 505.9L272.9 505.5L284 504.5L295.1 502.1L306.1 497.9L317.2 495.4L328.3 493.6L339.4 491L350.5 489.2L361.6 485.8L372.6 481.7L383.7 479L394.8 475.2L405.9 471L417 468.2L428.1 464.3L439.1 459.5L450.2 450.6L461.3 445L472.4 439.4L483.5 434.6L494.5 433.5L505.6 427.6L516.7 422.4L527.8 419.9L538.9 413.6L550 412.2L561 408L572.1 402.1L583.2 399.7L594.3 394.4L605.4 388.5L616.4 383.6L627.5 378.6L638.6 371.3L649.7 365.8L660.8 363.6L671.9 355.3L682.9 349.6L694 346.1" stroke="rgb(192, 43, 38)" stroke-opacity="0.7" stroke-width="0.5" fill="none"></path><path class="Europe_0-border" stroke-linecap="round" d="M106.7 480.9L117.8 477.4L128.8 473.7L139.9 473.2L151 467.8L162.1 464.6L173.2 460.9L184.2 458.7L195.3 457.9L206.4 454.5L217.5 449.4L228.6 446.6L239.7 444.6L250.7 438.6L261.8 437L272.9 438.5L284 434.4L295.1 429.1L306.1 422.6L317.2 419.3L328.3 417.6L339.4 415.1L350.5 410.9L361.6 405.2L372.6 400.2L383.7 395.5L394.8 389L405.9 383.4L417 380.8L428.1 375.2L439.1 373.2L450.2 371.7L461.3 368.8L472.4 365.3L483.5 361.9L494.5 360.5L505.6 356.1L516.7 349.1L527.8 346.8L538.9 342L550 340.6L561 334.9L572.1 329.2L583.2 327.2L594.3 322.3L605.4 316.7L616.4 308.6L627.5 303L638.6 294.9L649.7 286.7L660.8 283.2L671.9 274.1L682.9 268.3L694 263.3" stroke="rgb(213, 178, 52)" stroke-opacity="0.7" stroke-width="0.5" fill="none"></path><path class="Northern-America_0-border" stroke-linecap="round" d="M106.7 455.8L117.8 452.2L128.8 447.2L139.9 445L151 439.9L162.1 435.5L173.2 430.4L184.2 427.6L195.3 426.5L206.4 421.9L217.5 415.6L228.6 413L239.7 412.4L250.7 404.4L261.8 403.7L272.9 402.4L284 398.2L295.1 393.1L306.1 386.3L317.2 381.7L328.3 379.3L339.4 377.7L350.5 372.2L361.6 366.1L372.6 360.4L383.7 354.9L394.8 347.7L405.9 340.7L417 337.4L428.1 331.4L439.1 328.2L450.2 324.7L461.3 321.3L472.4 315.3L483.5 310.3L494.5 308.1L505.6 302.8L516.7 293.9L527.8 289.4L538.9 283.9L550 282L561 274.8L572.1 269.3L583.2 266.7L594.3 260.8L605.4 253.8L616.4 244.3L627.5 236.7L638.6 230.7L649.7 221.7L660.8 217.9L671.9 208.8L682.9 202.7L694 197.8" stroke="rgb(90, 151, 46)" stroke-opacity="0.7" stroke-width="0.5" fill="none"></path><path class="South-America_0-border" stroke-linecap="round" d="M106.7 446.7L117.8 442.6L128.8 437.2L139.9 435.5L151 430.1L162.1 425.2L173.2 419.6L184.2 416.2L195.3 414.2L206.4 409.6L217.5 404.2L228.6 400.9L239.7 400.2L250.7 392L261.8 390.4L272.9 388L284 383.4L295.1 377.4L306.1 370.2L317.2 364.7L328.3 361.5L339.4 360.2L350.5 354.6L361.6 348.8L372.6 342.2L383.7 335.9L394.8 328.5L405.9 320.2L417 316.6L428.1 309.6L439.1 304.9L450.2 300.5L461.3 295.7L472.4 288.2L483.5 281.1L494.5 277.9L505.6 271.8L516.7 262.1L527.8 254.9L538.9 247.8L550 245.3L561 236.4L572.1 229.3L583.2 223.5L594.3 216.7L605.4 207.5L616.4 195.2L627.5 185.5L638.6 179.4L649.7 169.2L660.8 164L671.9 153.7L682.9 146L694 140" stroke="rgb(132, 171, 115)" stroke-opacity="0.7" stroke-width="0.5" fill="none"></path><path class="Central-America_0-border" stroke-linecap="round" d="M106.7 445L117.8 440.8L128.8 435.3L139.9 433.5L151 428.1L162.1 423.2L173.2 417.5L184.2 414.1L195.3 412L206.4 407.3L217.5 401.8L228.6 398.4L239.7 397.6L250.7 389.3L261.8 387.4L272.9 384.5L284 379.6L295.1 373.5L306.1 366.2L317.2 360.5L328.3 357L339.4 355.6L350.5 349.6L361.6 343.8L372.6 337.3L383.7 330.9L394.8 323.6L405.9 315.4L417 312L428.1 304.7L439.1 299.8L450.2 295.2L461.3 290.1L472.4 282.1L483.5 274.7L494.5 271.6L505.6 265.2L516.7 255.1L527.8 247.7L538.9 240.3L550 237.5L561 228.1L572.1 221L583.2 214.8L594.3 207.6L605.4 198.2L616.4 185.6L627.5 175.7L638.6 169.5L649.7 159.1L660.8 153.6L671.9 143.2L682.9 135.4L694 129.2" stroke="rgb(44, 127, 53)" stroke-opacity="0.7" stroke-width="0.5" fill="none"></path><path class="Africa_0-border" stroke-linecap="round" d="M106.7 439.5L117.8 435.3L128.8 429.7L139.9 427.6L151 422L162.1 416.9L173.2 411.1L184.2 407.4L195.3 405.1L206.4 400.2L217.5 394.7L228.6 391L239.7 390.1L250.7 381.7L261.8 379.7L272.9 376.5L284 371.2L295.1 364.7L306.1 357.2L317.2 351.2L328.3 347.5L339.4 345.8L350.5 339.5L361.6 333.3L372.6 326.6L383.7 320.2L394.8 312.6L405.9 304.1L417 300.4L428.1 292.5L439.1 287.2L450.2 282.5L461.3 277.3L472.4 269.1L483.5 261.3L494.5 257.7L505.6 250.7L516.7 240.2L527.8 232.2L538.9 224.2L550 221.2L561 211.2L572.1 203.6L583.2 196.9L594.3 188.9L605.4 178.9L616.4 165.3L627.5 154.2L638.6 147.4L649.7 136.2L660.8 130.1L671.9 119L682.9 110.1L694 103.2" stroke="rgb(43, 80, 141)" stroke-opacity="0.7" stroke-width="0.5" fill="none"></path><path class="Oceania_0-border" stroke-linecap="round" d="M106.7 436.3L117.8 431.7L128.8 425.9L139.9 423.8L151 418.1L162.1 413L173.2 407.3L184.2 403.3L195.3 400.8L206.4 395.7L217.5 389.9L228.6 385.8L239.7 384.7L250.7 377L261.8 374.5L272.9 370.6L284 365.2L295.1 358.4L306.1 351.1L317.2 345.5L328.3 341.9L339.4 340.1L350.5 333.6L361.6 327.9L372.6 320.9L383.7 314.5L394.8 306.5L405.9 297.9L417 294.3L428.1 286.2L439.1 280.6L450.2 275.7L461.3 270.5L472.4 262.3L483.5 254.3L494.5 251L505.6 243.6L516.7 232.8L527.8 224.8L538.9 216.7L550 213.3L561 203.5L572.1 195.7L583.2 189L594.3 180.7L605.4 170.8L616.4 156.7L627.5 145.8L638.6 139.2L649.7 128.1L660.8 121.8L671.9 110.7L682.9 101.2L694 93.8" stroke="rgb(198, 90, 38)" stroke-opacity="0.7" stroke-width="0.5" fill="none"></path><path class="Caribbean_0-border" stroke-linecap="round" d="M106.7 435.8L117.8 431.2L128.8 425.4L139.9 423.2L151 417.5L162.1 412.4L173.2 406.6L184.2 402.5L195.3 400.1L206.4 394.9L217.5 389.1L228.6 385L239.7 384L250.7 376.3L261.8 373.8L272.9 369.8L284 364.3L295.1 357.5L306.1 350.2L317.2 344.6L328.3 341L339.4 339.2L350.5 332.7L361.6 326.9L372.6 319.9L383.7 313.4L394.8 305.4L405.9 296.7L417 293.1L428.1 285L439.1 279.5L450.2 274.6L461.3 269.4L472.4 261.2L483.5 253.2L494.5 249.8L505.6 242.4L516.7 231.6L527.8 223.6L538.9 215.3L550 212L561 202.2L572.1 194.5L583.2 187.7L594.3 179.3L605.4 169.3L616.4 155L627.5 144.2L638.6 137.5L649.7 126.4L660.8 120.2L671.9 109.1L682.9 99.6L694 92.1" stroke="rgb(167, 167, 167)" stroke-opacity="0.7" stroke-width="0.5" fill="none"></path></g></g></g><g class="SourcesFooter" style="fill:#777"><g class="clickable" style="fill:#777"><text font-size="12.60" x="15.0" y="581.6"><tspan x="15" y="581.58">Source: UN Food and Agricultural Organization (FAO)</tspan></text></g><text font-size="12.60" x="400.2" y="581.6"><tspan x="400.174" y="581.58"><a target='_blank' style='fill: #777;' href='https://ourworldindata.org/meat-and-seafood-production-consumption/'>OurWorldInData.org/meat-and-seafood-production-consumption/</a> • <a style="fill: #777;" class="cclogo" href="http://creativecommons.org/licenses/by-sa/4.0/deed.en_US" target="_blank">CC BY-SA</a></tspan></text></g></g></svg>