<svg xmlns="http://www.w3.org/2000/svg" version="1.1" style="font-family: 'Helvetica Neue', Helvetica, Arial, sans-serif; font-size: 16px; background-color: white; text-rendering: optimizeLegibility; -webkit-font-smoothing: antialiased;" width="850" height="600"><g class="ChartTab"><g class="HeaderView"><g opacity="0.8" transform="translate(770, 15) scale(0.31)"><a xmlns:xlink="http://www.w3.org/1999/xlink" xlink:href="https://ourworldindata.org" target="_blank"><g><rect x="0" y="0" fill="#1B2543" width="211.2" height="130.1"/><rect x="0" y="112.2" fill="#E63912" width="211.2" height="17.9"/><g><rect x="1.2" y="12.3" fill="none" width="210.2" height="99.2"/><path fill="#FFFFFF" d="M37.8,32.2c0,12.7-7.7,19.4-17.1,19.4c-9.7,0-16.6-7.5-16.6-18.7c0-11.7,7.3-19.3,17.1-19.3 C31.3,13.7,37.8,21.3,37.8,32.2z M9.2,32.8c0,7.9,4.3,14.9,11.8,14.9c7.5,0,11.8-6.9,11.8-15.3c0-7.3-3.8-14.9-11.8-14.9 C13.1,17.5,9.2,24.8,9.2,32.8z"/><path fill="#FFFFFF" d="M62.7,43.8c0,2.7,0.1,5.1,0.2,7.2h-4.3l-0.3-4.3h-0.1c-1.3,2.1-4,4.9-8.8,4.9c-4.2,0-9.1-2.3-9.1-11.6 V24.6h4.8v14.6c0,5,1.5,8.4,5.9,8.4c3.2,0,5.5-2.2,6.3-4.4c0.3-0.7,0.4-1.6,0.4-2.5V24.6h4.8V43.8z"/><path fill="#FFFFFF" d="M67.3,32.8c0-3.1-0.1-5.8-0.2-8.2h4.2l0.2,5.2h0.2c1.2-3.5,4.1-5.8,7.3-5.8c0.5,0,0.9,0.1,1.4,0.2v4.5 c-0.5-0.1-1-0.2-1.6-0.2c-3.4,0-5.8,2.6-6.5,6.2c-0.1,0.7-0.2,1.4-0.2,2.2V51h-4.8V32.8z"/><path fill="#FFFFFF" d="M95.4,51l-9.4-36.8h5l4.4,18.6c1.1,4.6,2.1,9.2,2.7,12.7h0.1c0.6-3.7,1.8-8,3-12.8l4.9-18.5h5l4.5,18.7 c1,4.4,2,8.7,2.6,12.6h0.1c0.8-4,1.8-8.1,3-12.7l4.9-18.5h4.9L120.6,51h-5L111,31.9c-1.1-4.7-1.9-8.3-2.4-12h-0.1 c-0.7,3.7-1.5,7.3-2.8,12L100.4,51H95.4z"/><path fill="#FFFFFF" d="M154.9,37.6c0,9.8-6.8,14-13.2,14c-7.2,0-12.7-5.2-12.7-13.6c0-8.8,5.8-14,13.1-14 C149.8,24,154.9,29.5,154.9,37.6z M133.9,37.9c0,5.8,3.3,10.1,8,10.1c4.6,0,8-4.3,8-10.3c0-4.5-2.2-10.1-7.9-10.1 C136.3,27.6,133.9,32.8,133.9,37.9z"/><path fill="#FFFFFF" d="M158.2,32.8c0-3.1-0.1-5.8-0.2-8.2h4.2l0.2,5.2h0.2c1.2-3.5,4.1-5.8,7.3-5.8c0.5,0,0.9,0.1,1.4,0.2v4.5 c-0.5-0.1-1-0.2-1.6-0.2c-3.4,0-5.8,2.6-6.5,6.2c-0.1,0.7-0.2,1.4-0.2,2.2V51h-4.8V32.8z"/><path fill="#FFFFFF" d="M173.5,12.3h4.8V51h-4.8V12.3z"/><path fill="#FFFFFF" d="M206.5,12.3v31.9c0,2.3,0.1,5,0.2,6.8h-4.3l-0.2-4.6H202c-1.5,2.9-4.7,5.2-9,5.2 c-6.4,0-11.3-5.4-11.3-13.4c-0.1-8.8,5.4-14.2,11.9-14.2c4,0,6.8,1.9,8,4h0.1V12.3H206.5z M201.7,35.4c0-0.6-0.1-1.4-0.2-2 c-0.7-3.1-3.3-5.6-6.9-5.6c-5,0-7.9,4.4-7.9,10.2c0,5.3,2.6,9.8,7.8,9.8c3.2,0,6.2-2.1,7.1-5.7c0.2-0.7,0.2-1.3,0.2-2.1V35.4z"/><path fill="#FFFFFF" d="M42.8,64c0.1,1.6-1.1,2.9-3.1,2.9c-1.7,0-2.9-1.3-2.9-2.9c0-1.7,1.3-3,3-3C41.7,61,42.8,62.3,42.8,64z M37.4,97.8V71.4h4.8v26.4H37.4z"/><path fill="#FFFFFF" d="M47.5,78.6c0-2.7-0.1-5-0.2-7.1h4.3l0.3,4.4h0.1c1.3-2.5,4.4-5,8.8-5c3.7,0,9.4,2.2,9.4,11.2v15.8h-4.8 V82.6c0-4.3-1.6-7.8-6.1-7.8c-3.2,0-5.6,2.2-6.5,4.9c-0.2,0.6-0.3,1.4-0.3,2.2v15.9h-4.8V78.6z"/><path fill="#FFFFFF" d="M84,61.6c2.9-0.4,6.3-0.8,10.1-0.8c6.8,0,11.7,1.6,14.9,4.6c3.3,3,5.2,7.3,5.2,13.2c0,6-1.9,10.9-5.3,14.3 c-3.4,3.4-9.1,5.3-16.3,5.3c-3.4,0-6.2-0.2-8.6-0.4V61.6z M88.8,94.1c1.2,0.2,3,0.3,4.8,0.3c10.2,0,15.7-5.7,15.7-15.6 c0.1-8.7-4.9-14.2-14.9-14.2c-2.5,0-4.3,0.2-5.6,0.5V94.1z"/><path fill="#FFFFFF" d="M132.1,97.8l-0.4-3.3h-0.2c-1.5,2.1-4.3,3.9-8.1,3.9c-5.4,0-8.1-3.8-8.1-7.6c0-6.4,5.7-9.9,15.9-9.8v-0.5 c0-2.2-0.6-6.1-6-6.1c-2.5,0-5,0.8-6.9,2l-1.1-3.2c2.2-1.4,5.4-2.3,8.7-2.3c8.1,0,10.1,5.5,10.1,10.8v9.9c0,2.3,0.1,4.5,0.4,6.3 H132.1z M131.4,84.4c-5.3-0.1-11.2,0.8-11.2,5.9c0,3.1,2.1,4.6,4.5,4.6c3.4,0,5.6-2.2,6.4-4.4c0.2-0.5,0.3-1,0.3-1.5V84.4z"/><path fill="#FFFFFF" d="M146.6,63.9v7.6h6.9v3.7h-6.9v14.2c0,3.3,0.9,5.1,3.6,5.1c1.3,0,2.2-0.2,2.8-0.3l0.2,3.6 c-0.9,0.4-2.4,0.7-4.3,0.7c-2.2,0-4-0.7-5.2-2c-1.4-1.4-1.9-3.8-1.9-6.9V75.1h-4.1v-3.7h4.1v-6.3L146.6,63.9z"/><path fill="#FFFFFF" d="M171.4,97.8l-0.4-3.3h-0.2c-1.5,2.1-4.3,3.9-8.1,3.9c-5.4,0-8.1-3.8-8.1-7.6c0-6.4,5.7-9.9,15.9-9.8v-0.5 c0-2.2-0.6-6.1-6-6.1c-2.5,0-5,0.8-6.9,2l-1.1-3.2c2.2-1.4,5.4-2.3,8.7-2.3c8.1,0,10.1,5.5,10.1,10.8v9.9c0,2.3,0.1,4.5,0.4,6.3 H171.4z M170.7,84.4c-5.3-0.1-11.2,0.8-11.2,5.9c0,3.1,2.1,4.6,4.5,4.6c3.4,0,5.6-2.2,6.4-4.4c0.2-0.5,0.3-1,0.3-1.5V84.4z"/></g></g></a></g><a href="https://ourworldindata.org/grapher/milk-production-tonnes" target="_blank"><text font-size="24.00" x="15.0" y="34.2" fill="#555"><tspan x="15" y="34.2">Milk production, tonnes</tspan></text></a><text font-size="12.80" x="15.0" y="51.2" fill="#666"><tspan x="15" y="51.239999999999995">Total milk production, measured in tonnes per year. Data on milk production relate to total production of whole fresh milk, excluding</tspan><tspan x="15" y="65.32">the milk sucked by young animals but including amounts fed to livestock.  </tspan></text></g><g class="StackedArea"><defs><clipPath id="boundsClip-12"><rect x="97.04" y="0" width="820" height="940.3999999999999"></rect></clipPath></defs><g class="AxisBoxView"><g class="HorizontalAxis"><text x="97" y="557.9" fill="#666" text-anchor="middle" font-size="14.4">1961</text><text x="201.9" y="557.9" fill="#666" text-anchor="middle" font-size="14.4">1970</text><text x="318.4" y="557.9" fill="#666" text-anchor="middle" font-size="14.4">1980</text><text x="434.9" y="557.9" fill="#666" text-anchor="middle" font-size="14.4">1990</text><text x="551.4" y="557.9" fill="#666" text-anchor="middle" font-size="14.4">2000</text><text x="667.9" y="557.9" fill="#666" text-anchor="middle" font-size="14.4">2010</text><text x="714.5" y="557.9" fill="#666" text-anchor="middle" font-size="14.4">2014</text></g><g class="VerticalAxis"><text x="92.04" y="538.5" fill="#666" dominant-baseline="middle" text-anchor="end" font-size="14.4">0 t</text><text x="92.04" y="481.6" fill="#666" dominant-baseline="middle" text-anchor="end" font-size="14.4">100 million t</text><text x="92.04" y="424.6" fill="#666" dominant-baseline="middle" text-anchor="end" font-size="14.4">200 million t</text><text x="92.04" y="367.7" fill="#666" dominant-baseline="middle" text-anchor="end" font-size="14.4">300 million t</text><text x="92.04" y="310.8" fill="#666" dominant-baseline="middle" text-anchor="end" font-size="14.4">400 million t</text><text x="92.04" y="253.8" fill="#666" dominant-baseline="middle" text-anchor="end" font-size="14.4">500 million t</text><text x="92.04" y="196.9" fill="#666" dominant-baseline="middle" text-anchor="end" font-size="14.4">600 million t</text><text x="92.04" y="140" fill="#666" dominant-baseline="middle" text-anchor="end" font-size="14.4">700 million t</text></g><g class="AxisGridLines"><line x1="97.04" y1="538.5" x2="714.52" y2="538.5" stroke="#ccc"></line><line x1="97.04" y1="481.6" x2="714.52" y2="481.6" stroke="#ddd" stroke-dasharray="3,2"></line><line x1="97.04" y1="424.6" x2="714.52" y2="424.6" stroke="#ddd" stroke-dasharray="3,2"></line><line x1="97.04" y1="367.7" x2="714.52" y2="367.7" stroke="#ddd" stroke-dasharray="3,2"></line><line x1="97.04" y1="310.8" x2="714.52" y2="310.8" stroke="#ddd" stroke-dasharray="3,2"></line><line x1="97.04" y1="253.8" x2="714.52" y2="253.8" stroke="#ddd" stroke-dasharray="3,2"></line><line x1="97.04" y1="196.9" x2="714.52" y2="196.9" stroke="#ddd" stroke-dasharray="3,2"></line><line x1="97.04" y1="140" x2="714.52" y2="140" stroke="#ddd" stroke-dasharray="3,2"></line></g><g class="AxisGridLines"><line x1="201.9" y1="538.50" x2="201.9" y2="87.70" stroke="#ddd" stroke-dasharray="3,2"></line><line x1="318.4" y1="538.50" x2="318.4" y2="87.70" stroke="#ddd" stroke-dasharray="3,2"></line><line x1="434.9" y1="538.50" x2="434.9" y2="87.70" stroke="#ddd" stroke-dasharray="3,2"></line><line x1="551.4" y1="538.50" x2="551.4" y2="87.70" stroke="#ddd" stroke-dasharray="3,2"></line><line x1="667.9" y1="538.50" x2="667.9" y2="87.70" stroke="#ddd" stroke-dasharray="3,2"></line></g></g><g clip-path="url(#boundsClip-12)"><g class="HeightedLegend clickable"><g class="legendMark"><rect x="719.52" y="85.6" width="106.904" height="12.8" fill="#fff" opacity="0"></rect><rect x="719.52" y="90.75" width="10" height="2.5" fill="#34983f"></rect><text font-size="12.80" x="734.5" y="95.8" fill="#333"><tspan x="734.52" y="95.83999999999999">Central America</tspan></text></g><g class="legendMark"><rect x="719.52" y="118.89999999999999" width="115.48" height="12.8" fill="#fff" opacity="0"></rect><rect x="719.52" y="124.05" width="10" height="2.5" fill="#6bb537"></rect><text font-size="12.80" x="734.5" y="129.1" fill="#333"><tspan x="734.52" y="129.14">Northern America</tspan></text></g><g class="legendMark"><rect x="719.52" y="148.4" width="74.26400000000001" height="12.8" fill="#fff" opacity="0"></rect><rect x="719.52" y="153.55" width="10" height="2.5" fill="#5eb77e"></rect><text font-size="12.80" x="734.5" y="158.6" fill="#333"><tspan x="734.52" y="158.64000000000001">Caribbean</tspan></text></g><g class="legendMark"><rect x="719.52" y="167.4" width="99.224" height="12.8" fill="#fff" opacity="0"></rect><rect x="719.52" y="172.55" width="10" height="2.5" fill="#9ecc8a"></rect><text font-size="12.80" x="734.5" y="177.6" fill="#333"><tspan x="734.52" y="177.64000000000001">South America</tspan></text></g><g class="legendMark"><rect x="719.52" y="194.7" width="62.872" height="12.8" fill="#fff" opacity="0"></rect><rect x="719.52" y="199.85" width="10" height="2.5" fill="#ce8ebd"></rect><text font-size="12.80" x="734.5" y="204.9" fill="#333"><tspan x="734.52" y="204.94">Oceania</tspan></text></g><g class="legendMark"><rect x="719.52" y="267" width="56.472" height="12.8" fill="#fff" opacity="0"></rect><rect x="719.52" y="272.15" width="10" height="2.5" fill="#ffd53e"></rect><text font-size="12.80" x="734.5" y="277.2" fill="#333"><tspan x="734.52" y="277.24">Europe</tspan></text></g><g class="legendMark"><rect x="719.52" y="417.90000000000003" width="39.96" height="12.8" fill="#fff" opacity="0"></rect><rect x="719.52" y="423.05" width="10" height="2.5" fill="#e6332e"></rect><text font-size="12.80" x="734.5" y="428.1" fill="#333"><tspan x="734.52" y="428.14000000000004">Asia</tspan></text></g><g class="legendMark"><rect x="719.52" y="518.7" width="47.768" height="12.8" fill="#fff" opacity="0"></rect><rect x="719.52" y="523.85" width="10" height="2.5" fill="#3360a9"></rect><text font-size="12.80" x="734.5" y="528.9" fill="#333"><tspan x="734.52" y="528.94">Africa</tspan></text></g></g><g class="Areas"><rect x="97.04" y="87.7" width="617.48" height="450.8" opacity="0" fill="rgba(255,255,255,0)"></rect><path stroke-linecap="round" d="M97 532.2L108.7 532.2L120.3 532.2L132 532.2L143.6 531.8L155.3 531.6L166.9 531.4L178.6 530.9L190.2 530.8L201.9 530.6L213.5 530.6L225.2 530.4L236.8 530.5L248.5 530.7L260.1 530.3L271.8 530.1L283.4 529.7L295.1 529.4L306.8 529L318.4 528.8L330.1 528.4L341.7 528.1L353.4 527.8L365 528.5L376.7 528.1L388.3 527.6L400 527.3L411.6 526.8L423.3 526.5L434.9 526.3L446.6 526.5L458.2 526.3L469.9 526L481.5 525.5L493.2 524.9L504.8 524.6L516.5 523.9L528.1 523.5L539.8 522.8L551.4 522.4L563.1 521.5L574.7 519.9L586.4 518.5L598 518.1L609.7 517.4L621.3 516.8L633 515.8L644.6 514.8L656.3 514.5L667.9 513.1L679.6 513L691.2 512.1L702.9 512.2L714.5 511.8L714.52 538.5L97.04 538.5" fill="#3360a9" fill-opacity="0.7" class="Africa_0-area"></path><path stroke-linecap="round" d="M97 507.9L108.7 507.5L120.3 507.1L132 506.9L143.6 506.2L155.3 505.6L166.9 504.7L178.6 503.1L190.2 502.4L201.9 502.4L213.5 501.2L225.2 500.4L236.8 499.8L248.5 498.8L260.1 497.3L271.8 495.3L283.4 493.6L295.1 492L306.8 490.2L318.4 489L330.1 486.4L341.7 484.9L353.4 482.3L365 480.3L376.7 477.3L388.3 474.7L400 473L411.6 470.2L423.3 467.4L434.9 464.5L446.6 463.2L458.2 453.5L469.9 450.7L481.5 447.6L493.2 443.5L504.8 438.8L516.5 436.5L528.1 433.2L539.8 428.6L551.4 425.9L563.1 421.3L574.7 416.1L586.4 408.9L598 401.4L609.7 393.6L621.3 385.7L633 376.9L644.6 372.4L656.3 367.6L667.9 361.6L679.6 355.5L691.2 348.7L702.9 345.1L714.5 336.8L714.5 511.8L702.9 512.2L691.2 512.1L679.6 513L667.9 513.1L656.3 514.5L644.6 514.8L633 515.8L621.3 516.8L609.7 517.4L598 518.1L586.4 518.5L574.7 519.9L563.1 521.5L551.4 522.4L539.8 522.8L528.1 523.5L516.5 523.9L504.8 524.6L493.2 524.9L481.5 525.5L469.9 526L458.2 526.3L446.6 526.5L434.9 526.3L423.3 526.5L411.6 526.8L400 527.3L388.3 527.6L376.7 528.1L365 528.5L353.4 527.8L341.7 528.1L330.1 528.4L318.4 528.8L306.8 529L295.1 529.4L283.4 529.7L271.8 530.1L260.1 530.3L248.5 530.7L236.8 530.5L225.2 530.4L213.5 530.6L201.9 530.6L190.2 530.8L178.6 530.9L166.9 531.4L155.3 531.6L143.6 531.8L132 532.2L120.3 532.2L108.7 532.2L97 532.2" fill="#e6332e" fill-opacity="0.7" class="Asia_0-area"></path><path stroke-linecap="round" d="M97 396.9L108.7 396L120.3 397.6L132 396L143.6 387.2L155.3 382.4L166.9 377.5L178.6 372.8L190.2 372.6L201.9 372.5L213.5 371.3L225.2 367L236.8 361.7L248.5 357.7L260.1 356.4L271.8 353.5L283.4 346.2L295.1 341.8L306.8 338.8L318.4 337.8L330.1 336.9L341.7 332.3L353.4 322.7L365 319.9L376.7 317.7L388.3 312.5L400 313.1L411.6 310.2L423.3 305.9L434.9 303.9L446.6 310.2L458.2 316.4L469.9 316.7L481.5 316.7L493.2 314L504.8 312.3L516.5 312.3L528.1 308.9L539.8 305.2L551.4 303.4L563.1 298.2L574.7 292.2L586.4 285.2L598 279.2L609.7 271L621.3 263.1L633 254.8L644.6 250L656.3 246.1L667.9 240.2L679.6 233.2L691.2 225.9L702.9 222.1L714.5 209.9L714.5 336.8L702.9 345.1L691.2 348.7L679.6 355.5L667.9 361.6L656.3 367.6L644.6 372.4L633 376.9L621.3 385.7L609.7 393.6L598 401.4L586.4 408.9L574.7 416.1L563.1 421.3L551.4 425.9L539.8 428.6L528.1 433.2L516.5 436.5L504.8 438.8L493.2 443.5L481.5 447.6L469.9 450.7L458.2 453.5L446.6 463.2L434.9 464.5L423.3 467.4L411.6 470.2L400 473L388.3 474.7L376.7 477.3L365 480.3L353.4 482.3L341.7 484.9L330.1 486.4L318.4 489L306.8 490.2L295.1 492L283.4 493.6L271.8 495.3L260.1 497.3L248.5 498.8L236.8 499.8L225.2 500.4L213.5 501.2L201.9 502.4L190.2 502.4L178.6 503.1L166.9 504.7L155.3 505.6L143.6 506.2L132 506.9L120.3 507.1L108.7 507.5L97 507.9" fill="#ffd53e" fill-opacity="0.7" class="Europe_0-area"></path><path stroke-linecap="round" d="M97 390.3L108.7 389.1L120.3 390.6L132 388.9L143.6 379.8L155.3 374.7L166.9 369.7L178.6 365.2L190.2 364.8L201.9 364.7L213.5 363.6L225.2 359.2L236.8 354.2L248.5 350.4L260.1 349.1L271.8 346.1L283.4 339L295.1 335.1L306.8 331.9L318.4 330.8L330.1 330L341.7 325.3L353.4 315.5L365 312.1L376.7 309.7L388.3 304.3L400 305.2L411.6 302.1L423.3 298.1L434.9 296L446.6 301.9L458.2 307.8L469.9 307.2L481.5 306.3L493.2 303.9L504.8 301.5L516.5 300.6L528.1 297L539.8 293.2L551.4 290.2L563.1 284.7L574.7 277.8L586.4 271.1L598 264.9L609.7 256.8L621.3 248.7L633 240.4L644.6 236L656.3 231.3L667.9 225.3L679.6 218.1L691.2 209.5L702.9 205.6L714.5 192.3L714.5 209.9L702.9 222.1L691.2 225.9L679.6 233.2L667.9 240.2L656.3 246.1L644.6 250L633 254.8L621.3 263.1L609.7 271L598 279.2L586.4 285.2L574.7 292.2L563.1 298.2L551.4 303.4L539.8 305.2L528.1 308.9L516.5 312.3L504.8 312.3L493.2 314L481.5 316.7L469.9 316.7L458.2 316.4L446.6 310.2L434.9 303.9L423.3 305.9L411.6 310.2L400 313.1L388.3 312.5L376.7 317.7L365 319.9L353.4 322.7L341.7 332.3L330.1 336.9L318.4 337.8L306.8 338.8L295.1 341.8L283.4 346.2L271.8 353.5L260.1 356.4L248.5 357.7L236.8 361.7L225.2 367L213.5 371.3L201.9 372.5L190.2 372.6L178.6 372.8L166.9 377.5L155.3 382.4L143.6 387.2L132 396L120.3 397.6L108.7 396L97 396.9" fill="#ce8ebd" fill-opacity="0.7" class="Oceania_0-area"></path><path stroke-linecap="round" d="M97 382.1L108.7 380.8L120.3 382L132 379.6L143.6 370.2L155.3 364.7L166.9 359.9L178.6 354.9L190.2 354.3L201.9 354.2L213.5 352.7L225.2 348L236.8 342.9L248.5 338.5L260.1 336.2L271.8 332.5L283.4 326.2L295.1 322.4L306.8 318.7L318.4 316.7L330.1 315.7L341.7 309.8L353.4 300.2L365 296.4L376.7 293.8L388.3 288.1L400 288L411.6 284.4L423.3 279.3L434.9 278L446.6 283.5L458.2 288.4L469.9 287.3L481.5 285.7L493.2 282L504.8 277.9L516.5 276.4L528.1 272.2L539.8 267.8L551.4 264.5L563.1 258.5L574.7 251.3L586.4 244.7L598 237.7L609.7 227.9L621.3 218.4L633 210.3L644.6 203.4L656.3 198.9L667.9 191.5L679.6 182.5L691.2 173.9L702.9 169.2L714.5 155.4L714.5 192.3L702.9 205.6L691.2 209.5L679.6 218.1L667.9 225.3L656.3 231.3L644.6 236L633 240.4L621.3 248.7L609.7 256.8L598 264.9L586.4 271.1L574.7 277.8L563.1 284.7L551.4 290.2L539.8 293.2L528.1 297L516.5 300.6L504.8 301.5L493.2 303.9L481.5 306.3L469.9 307.2L458.2 307.8L446.6 301.9L434.9 296L423.3 298.1L411.6 302.1L400 305.2L388.3 304.3L376.7 309.7L365 312.1L353.4 315.5L341.7 325.3L330.1 330L318.4 330.8L306.8 331.9L295.1 335.1L283.4 339L271.8 346.1L260.1 349.1L248.5 350.4L236.8 354.2L225.2 359.2L213.5 363.6L201.9 364.7L190.2 364.8L178.6 365.2L166.9 369.7L155.3 374.7L143.6 379.8L132 388.9L120.3 390.6L108.7 389.1L97 390.3" fill="#9ecc8a" fill-opacity="0.7" class="South-America_0-area"></path><path stroke-linecap="round" d="M97 381.6L108.7 380.2L120.3 381.5L132 379L143.6 369.6L155.3 364.1L166.9 359.2L178.6 354.2L190.2 353.5L201.9 353.4L213.5 351.9L225.2 347.1L236.8 342L248.5 337.5L260.1 335.3L271.8 331.6L283.4 325.1L295.1 321.3L306.8 317.6L318.4 315.6L330.1 314.5L341.7 308.6L353.4 299L365 295.2L376.7 292.7L388.3 287L400 286.9L411.6 283.3L423.3 278.2L434.9 276.8L446.6 282.4L458.2 287.5L469.9 286.4L481.5 284.7L493.2 281L504.8 277L516.5 275.5L528.1 271.3L539.8 266.8L551.4 263.5L563.1 257.5L574.7 250.3L586.4 243.8L598 236.9L609.7 227.1L621.3 217.5L633 209.3L644.6 202.4L656.3 197.9L667.9 190.4L679.6 181.4L691.2 172.8L702.9 168.1L714.5 154.3L714.5 155.4L702.9 169.2L691.2 173.9L679.6 182.5L667.9 191.5L656.3 198.9L644.6 203.4L633 210.3L621.3 218.4L609.7 227.9L598 237.7L586.4 244.7L574.7 251.3L563.1 258.5L551.4 264.5L539.8 267.8L528.1 272.2L516.5 276.4L504.8 277.9L493.2 282L481.5 285.7L469.9 287.3L458.2 288.4L446.6 283.5L434.9 278L423.3 279.3L411.6 284.4L400 288L388.3 288.1L376.7 293.8L365 296.4L353.4 300.2L341.7 309.8L330.1 315.7L318.4 316.7L306.8 318.7L295.1 322.4L283.4 326.2L271.8 332.5L260.1 336.2L248.5 338.5L236.8 342.9L225.2 348L213.5 352.7L201.9 354.2L190.2 354.3L178.6 354.9L166.9 359.9L155.3 364.7L143.6 370.2L132 379.6L120.3 382L108.7 380.8L97 382.1" fill="#5eb77e" fill-opacity="0.7" class="Caribbean_0-area"></path><path stroke-linecap="round" d="M97 344.4L108.7 342.9L120.3 344.4L132 341.4L143.6 332.8L155.3 328.4L166.9 323.8L178.6 319.2L190.2 318.7L201.9 318.4L213.5 316.8L225.2 311.5L236.8 307.8L248.5 303.3L260.1 301.1L271.8 296.2L283.4 289.1L295.1 285.6L306.8 281.7L318.4 278.2L330.1 275.9L341.7 269.2L353.4 258.7L365 255.9L376.7 251.5L388.3 245.7L400 245.8L411.6 241.4L423.3 236.5L434.9 234.1L446.6 239.8L458.2 244.2L469.9 243.2L481.5 240.7L493.2 236.4L504.8 232.7L516.5 230.6L528.1 225.9L539.8 220.2L551.4 215.6L563.1 210.2L574.7 201.8L586.4 195.3L598 188.2L609.7 176.9L621.3 165.9L633 156.7L644.6 148.7L656.3 144.3L667.9 135.9L679.6 126L691.2 116.1L702.9 111.4L714.5 96.3L714.5 154.3L702.9 168.1L691.2 172.8L679.6 181.4L667.9 190.4L656.3 197.9L644.6 202.4L633 209.3L621.3 217.5L609.7 227.1L598 236.9L586.4 243.8L574.7 250.3L563.1 257.5L551.4 263.5L539.8 266.8L528.1 271.3L516.5 275.5L504.8 277L493.2 281L481.5 284.7L469.9 286.4L458.2 287.5L446.6 282.4L434.9 276.8L423.3 278.2L411.6 283.3L400 286.9L388.3 287L376.7 292.7L365 295.2L353.4 299L341.7 308.6L330.1 314.5L318.4 315.6L306.8 317.6L295.1 321.3L283.4 325.1L271.8 331.6L260.1 335.3L248.5 337.5L236.8 342L225.2 347.1L213.5 351.9L201.9 353.4L190.2 353.5L178.6 354.2L166.9 359.2L155.3 364.1L143.6 369.6L132 379L120.3 381.5L108.7 380.2L97 381.6" fill="#6bb537" fill-opacity="0.7" class="Northern-America_0-area"></path><path stroke-linecap="round" d="M97 342.5L108.7 341L120.3 342.5L132 339.5L143.6 330.8L155.3 325.9L166.9 321.1L178.6 316.4L190.2 315.8L201.9 315.3L213.5 313.6L225.2 307.8L236.8 303.8L248.5 299.1L260.1 296.7L271.8 291.7L283.4 284.4L295.1 280.7L306.8 276.7L318.4 273.3L330.1 271L341.7 264.2L353.4 253.8L365 251L376.7 246.4L388.3 241L400 241.2L411.6 236.8L423.3 232.2L434.9 229.7L446.6 234.9L458.2 239.1L469.9 237.8L481.5 235.3L493.2 231L504.8 227.1L516.5 224.8L528.1 219.8L539.8 213.6L551.4 208.7L563.1 203.1L574.7 194.6L586.4 188L598 180.8L609.7 169.4L621.3 158.2L633 148.8L644.6 140.6L656.3 136.2L667.9 127.7L679.6 117.8L691.2 107.7L702.9 102.9L714.5 87.7L714.5 96.3L702.9 111.4L691.2 116.1L679.6 126L667.9 135.9L656.3 144.3L644.6 148.7L633 156.7L621.3 165.9L609.7 176.9L598 188.2L586.4 195.3L574.7 201.8L563.1 210.2L551.4 215.6L539.8 220.2L528.1 225.9L516.5 230.6L504.8 232.7L493.2 236.4L481.5 240.7L469.9 243.2L458.2 244.2L446.6 239.8L434.9 234.1L423.3 236.5L411.6 241.4L400 245.8L388.3 245.7L376.7 251.5L365 255.9L353.4 258.7L341.7 269.2L330.1 275.9L318.4 278.2L306.8 281.7L295.1 285.6L283.4 289.1L271.8 296.2L260.1 301.1L248.5 303.3L236.8 307.8L225.2 311.5L213.5 316.8L201.9 318.4L190.2 318.7L178.6 319.2L166.9 323.8L155.3 328.4L143.6 332.8L132 341.4L120.3 344.4L108.7 342.9L97 344.4" fill="#34983f" fill-opacity="0.7" class="Central-America_0-area"></path><path stroke-linecap="round" d="M97 532.2L108.7 532.2L120.3 532.2L132 532.2L143.6 531.8L155.3 531.6L166.9 531.4L178.6 530.9L190.2 530.8L201.9 530.6L213.5 530.6L225.2 530.4L236.8 530.5L248.5 530.7L260.1 530.3L271.8 530.1L283.4 529.7L295.1 529.4L306.8 529L318.4 528.8L330.1 528.4L341.7 528.1L353.4 527.8L365 528.5L376.7 528.1L388.3 527.6L400 527.3L411.6 526.8L423.3 526.5L434.9 526.3L446.6 526.5L458.2 526.3L469.9 526L481.5 525.5L493.2 524.9L504.8 524.6L516.5 523.9L528.1 523.5L539.8 522.8L551.4 522.4L563.1 521.5L574.7 519.9L586.4 518.5L598 518.1L609.7 517.4L621.3 516.8L633 515.8L644.6 514.8L656.3 514.5L667.9 513.1L679.6 513L691.2 512.1L702.9 512.2L714.5 511.8" stroke="rgb(43, 80, 141)" stroke-opacity="0.7" stroke-width="0.5" fill="none" class="Africa_0-border"></path><path stroke-linecap="round" d="M97 507.9L108.7 507.5L120.3 507.1L132 506.9L143.6 506.2L155.3 505.6L166.9 504.7L178.6 503.1L190.2 502.4L201.9 502.4L213.5 501.2L225.2 500.4L236.8 499.8L248.5 498.8L260.1 497.3L271.8 495.3L283.4 493.6L295.1 492L306.8 490.2L318.4 489L330.1 486.4L341.7 484.9L353.4 482.3L365 480.3L376.7 477.3L388.3 474.7L400 473L411.6 470.2L423.3 467.4L434.9 464.5L446.6 463.2L458.2 453.5L469.9 450.7L481.5 447.6L493.2 443.5L504.8 438.8L516.5 436.5L528.1 433.2L539.8 428.6L551.4 425.9L563.1 421.3L574.7 416.1L586.4 408.9L598 401.4L609.7 393.6L621.3 385.7L633 376.9L644.6 372.4L656.3 367.6L667.9 361.6L679.6 355.5L691.2 348.7L702.9 345.1L714.5 336.8" stroke="rgb(192, 43, 38)" stroke-opacity="0.7" stroke-width="0.5" fill="none" class="Asia_0-border"></path><path stroke-linecap="round" d="M97 396.9L108.7 396L120.3 397.6L132 396L143.6 387.2L155.3 382.4L166.9 377.5L178.6 372.8L190.2 372.6L201.9 372.5L213.5 371.3L225.2 367L236.8 361.7L248.5 357.7L260.1 356.4L271.8 353.5L283.4 346.2L295.1 341.8L306.8 338.8L318.4 337.8L330.1 336.9L341.7 332.3L353.4 322.7L365 319.9L376.7 317.7L388.3 312.5L400 313.1L411.6 310.2L423.3 305.9L434.9 303.9L446.6 310.2L458.2 316.4L469.9 316.7L481.5 316.7L493.2 314L504.8 312.3L516.5 312.3L528.1 308.9L539.8 305.2L551.4 303.4L563.1 298.2L574.7 292.2L586.4 285.2L598 279.2L609.7 271L621.3 263.1L633 254.8L644.6 250L656.3 246.1L667.9 240.2L679.6 233.2L691.2 225.9L702.9 222.1L714.5 209.9" stroke="rgb(213, 178, 52)" stroke-opacity="0.7" stroke-width="0.5" fill="none" class="Europe_0-border"></path><path stroke-linecap="round" d="M97 390.3L108.7 389.1L120.3 390.6L132 388.9L143.6 379.8L155.3 374.7L166.9 369.7L178.6 365.2L190.2 364.8L201.9 364.7L213.5 363.6L225.2 359.2L236.8 354.2L248.5 350.4L260.1 349.1L271.8 346.1L283.4 339L295.1 335.1L306.8 331.9L318.4 330.8L330.1 330L341.7 325.3L353.4 315.5L365 312.1L376.7 309.7L388.3 304.3L400 305.2L411.6 302.1L423.3 298.1L434.9 296L446.6 301.9L458.2 307.8L469.9 307.2L481.5 306.3L493.2 303.9L504.8 301.5L516.5 300.6L528.1 297L539.8 293.2L551.4 290.2L563.1 284.7L574.7 277.8L586.4 271.1L598 264.9L609.7 256.8L621.3 248.7L633 240.4L644.6 236L656.3 231.3L667.9 225.3L679.6 218.1L691.2 209.5L702.9 205.6L714.5 192.3" stroke="rgb(172, 119, 158)" stroke-opacity="0.7" stroke-width="0.5" fill="none" class="Oceania_0-border"></path><path stroke-linecap="round" d="M97 382.1L108.7 380.8L120.3 382L132 379.6L143.6 370.2L155.3 364.7L166.9 359.9L178.6 354.9L190.2 354.3L201.9 354.2L213.5 352.7L225.2 348L236.8 342.9L248.5 338.5L260.1 336.2L271.8 332.5L283.4 326.2L295.1 322.4L306.8 318.7L318.4 316.7L330.1 315.7L341.7 309.8L353.4 300.2L365 296.4L376.7 293.8L388.3 288.1L400 288L411.6 284.4L423.3 279.3L434.9 278L446.6 283.5L458.2 288.4L469.9 287.3L481.5 285.7L493.2 282L504.8 277.9L516.5 276.4L528.1 272.2L539.8 267.8L551.4 264.5L563.1 258.5L574.7 251.3L586.4 244.7L598 237.7L609.7 227.9L621.3 218.4L633 210.3L644.6 203.4L656.3 198.9L667.9 191.5L679.6 182.5L691.2 173.9L702.9 169.2L714.5 155.4" stroke="rgb(132, 171, 115)" stroke-opacity="0.7" stroke-width="0.5" fill="none" class="South-America_0-border"></path><path stroke-linecap="round" d="M97 381.6L108.7 380.2L120.3 381.5L132 379L143.6 369.6L155.3 364.1L166.9 359.2L178.6 354.2L190.2 353.5L201.9 353.4L213.5 351.9L225.2 347.1L236.8 342L248.5 337.5L260.1 335.3L271.8 331.6L283.4 325.1L295.1 321.3L306.8 317.6L318.4 315.6L330.1 314.5L341.7 308.6L353.4 299L365 295.2L376.7 292.7L388.3 287L400 286.9L411.6 283.3L423.3 278.2L434.9 276.8L446.6 282.4L458.2 287.5L469.9 286.4L481.5 284.7L493.2 281L504.8 277L516.5 275.5L528.1 271.3L539.8 266.8L551.4 263.5L563.1 257.5L574.7 250.3L586.4 243.8L598 236.9L609.7 227.1L621.3 217.5L633 209.3L644.6 202.4L656.3 197.9L667.9 190.4L679.6 181.4L691.2 172.8L702.9 168.1L714.5 154.3" stroke="rgb(79, 153, 105)" stroke-opacity="0.7" stroke-width="0.5" fill="none" class="Caribbean_0-border"></path><path stroke-linecap="round" d="M97 344.4L108.7 342.9L120.3 344.4L132 341.4L143.6 332.8L155.3 328.4L166.9 323.8L178.6 319.2L190.2 318.7L201.9 318.4L213.5 316.8L225.2 311.5L236.8 307.8L248.5 303.3L260.1 301.1L271.8 296.2L283.4 289.1L295.1 285.6L306.8 281.7L318.4 278.2L330.1 275.9L341.7 269.2L353.4 258.7L365 255.9L376.7 251.5L388.3 245.7L400 245.8L411.6 241.4L423.3 236.5L434.9 234.1L446.6 239.8L458.2 244.2L469.9 243.2L481.5 240.7L493.2 236.4L504.8 232.7L516.5 230.6L528.1 225.9L539.8 220.2L551.4 215.6L563.1 210.2L574.7 201.8L586.4 195.3L598 188.2L609.7 176.9L621.3 165.9L633 156.7L644.6 148.7L656.3 144.3L667.9 135.9L679.6 126L691.2 116.1L702.9 111.4L714.5 96.3" stroke="rgb(90, 151, 46)" stroke-opacity="0.7" stroke-width="0.5" fill="none" class="Northern-America_0-border"></path><path stroke-linecap="round" d="M97 342.5L108.7 341L120.3 342.5L132 339.5L143.6 330.8L155.3 325.9L166.9 321.1L178.6 316.4L190.2 315.8L201.9 315.3L213.5 313.6L225.2 307.8L236.8 303.8L248.5 299.1L260.1 296.7L271.8 291.7L283.4 284.4L295.1 280.7L306.8 276.7L318.4 273.3L330.1 271L341.7 264.2L353.4 253.8L365 251L376.7 246.4L388.3 241L400 241.2L411.6 236.8L423.3 232.2L434.9 229.7L446.6 234.9L458.2 239.1L469.9 237.8L481.5 235.3L493.2 231L504.8 227.1L516.5 224.8L528.1 219.8L539.8 213.6L551.4 208.7L563.1 203.1L574.7 194.6L586.4 188L598 180.8L609.7 169.4L621.3 158.2L633 148.8L644.6 140.6L656.3 136.2L667.9 127.7L679.6 117.8L691.2 107.7L702.9 102.9L714.5 87.7" stroke="rgb(44, 127, 53)" stroke-opacity="0.7" stroke-width="0.5" fill="none" class="Central-America_0-border"></path></g></g></g><g style="fill: #777;" class="SourcesFooter"><g style="fill: #777;" class="clickable"><text font-size="11.20" x="15.0" y="581.9"><tspan x="15" y="581.86">Source: UN Food and Agricultural Organization (FAO)</tspan></text></g><text font-size="11.20" x="448.5" y="581.9"><tspan x="448.48800000000006" y="581.86"><a target='_blank' style='fill: #777;' href='https://ourworldindata.org/meat-and-seafood-production-consumption/'>OurWorldInData.org/meat-and-seafood-production-consumption/</a> • <a style="fill: #777;" href="http://creativecommons.org/licenses/by-sa/4.0/deed.en_US" target="_blank">CC BY-SA</a></tspan></text></g></g></svg>