<svg xmlns="http://www.w3.org/2000/svg" version="1.1" style="font-family:&#x27;Helvetica Neue&#x27;, Helvetica, Arial, sans-serif;font-size:18px;background-color:white;text-rendering:optimizeLegibility;-webkit-font-smoothing:antialiased" width="850" height="600"><g class="ChartTab"><g class="HeaderView"><g opacity="0.8" transform="translate(778, 15) scale(0.27)"><a xmlns:xlink="http://www.w3.org/1999/xlink" xlink:href="https://ourworldindata.org" target="_blank"><g><rect x="0" y="0" fill="#1B2543" width="211.2" height="130.1"/><rect x="0" y="112.2" fill="#E63912" width="211.2" height="17.9"/><g><rect x="1.2" y="12.3" fill="none" width="210.2" height="99.2"/><path fill="#FFFFFF" d="M37.8,32.2c0,12.7-7.7,19.4-17.1,19.4c-9.7,0-16.6-7.5-16.6-18.7c0-11.7,7.3-19.3,17.1-19.3 C31.3,13.7,37.8,21.3,37.8,32.2z M9.2,32.8c0,7.9,4.3,14.9,11.8,14.9c7.5,0,11.8-6.9,11.8-15.3c0-7.3-3.8-14.9-11.8-14.9 C13.1,17.5,9.2,24.8,9.2,32.8z"/><path fill="#FFFFFF" d="M62.7,43.8c0,2.7,0.1,5.1,0.2,7.2h-4.3l-0.3-4.3h-0.1c-1.3,2.1-4,4.9-8.8,4.9c-4.2,0-9.1-2.3-9.1-11.6 V24.6h4.8v14.6c0,5,1.5,8.4,5.9,8.4c3.2,0,5.5-2.2,6.3-4.4c0.3-0.7,0.4-1.6,0.4-2.5V24.6h4.8V43.8z"/><path fill="#FFFFFF" d="M67.3,32.8c0-3.1-0.1-5.8-0.2-8.2h4.2l0.2,5.2h0.2c1.2-3.5,4.1-5.8,7.3-5.8c0.5,0,0.9,0.1,1.4,0.2v4.5 c-0.5-0.1-1-0.2-1.6-0.2c-3.4,0-5.8,2.6-6.5,6.2c-0.1,0.7-0.2,1.4-0.2,2.2V51h-4.8V32.8z"/><path fill="#FFFFFF" d="M95.4,51l-9.4-36.8h5l4.4,18.6c1.1,4.6,2.1,9.2,2.7,12.7h0.1c0.6-3.7,1.8-8,3-12.8l4.9-18.5h5l4.5,18.7 c1,4.4,2,8.7,2.6,12.6h0.1c0.8-4,1.8-8.1,3-12.7l4.9-18.5h4.9L120.6,51h-5L111,31.9c-1.1-4.7-1.9-8.3-2.4-12h-0.1 c-0.7,3.7-1.5,7.3-2.8,12L100.4,51H95.4z"/><path fill="#FFFFFF" d="M154.9,37.6c0,9.8-6.8,14-13.2,14c-7.2,0-12.7-5.2-12.7-13.6c0-8.8,5.8-14,13.1-14 C149.8,24,154.9,29.5,154.9,37.6z M133.9,37.9c0,5.8,3.3,10.1,8,10.1c4.6,0,8-4.3,8-10.3c0-4.5-2.2-10.1-7.9-10.1 C136.3,27.6,133.9,32.8,133.9,37.9z"/><path fill="#FFFFFF" d="M158.2,32.8c0-3.1-0.1-5.8-0.2-8.2h4.2l0.2,5.2h0.2c1.2-3.5,4.1-5.8,7.3-5.8c0.5,0,0.9,0.1,1.4,0.2v4.5 c-0.5-0.1-1-0.2-1.6-0.2c-3.4,0-5.8,2.6-6.5,6.2c-0.1,0.7-0.2,1.4-0.2,2.2V51h-4.8V32.8z"/><path fill="#FFFFFF" d="M173.5,12.3h4.8V51h-4.8V12.3z"/><path fill="#FFFFFF" d="M206.5,12.3v31.9c0,2.3,0.1,5,0.2,6.8h-4.3l-0.2-4.6H202c-1.5,2.9-4.7,5.2-9,5.2 c-6.4,0-11.3-5.4-11.3-13.4c-0.1-8.8,5.4-14.2,11.9-14.2c4,0,6.8,1.9,8,4h0.1V12.3H206.5z M201.7,35.4c0-0.6-0.1-1.4-0.2-2 c-0.7-3.1-3.3-5.6-6.9-5.6c-5,0-7.9,4.4-7.9,10.2c0,5.3,2.6,9.8,7.8,9.8c3.2,0,6.2-2.1,7.1-5.7c0.2-0.7,0.2-1.3,0.2-2.1V35.4z"/><path fill="#FFFFFF" d="M42.8,64c0.1,1.6-1.1,2.9-3.1,2.9c-1.7,0-2.9-1.3-2.9-2.9c0-1.7,1.3-3,3-3C41.7,61,42.8,62.3,42.8,64z M37.4,97.8V71.4h4.8v26.4H37.4z"/><path fill="#FFFFFF" d="M47.5,78.6c0-2.7-0.1-5-0.2-7.1h4.3l0.3,4.4h0.1c1.3-2.5,4.4-5,8.8-5c3.7,0,9.4,2.2,9.4,11.2v15.8h-4.8 V82.6c0-4.3-1.6-7.8-6.1-7.8c-3.2,0-5.6,2.2-6.5,4.9c-0.2,0.6-0.3,1.4-0.3,2.2v15.9h-4.8V78.6z"/><path fill="#FFFFFF" d="M84,61.6c2.9-0.4,6.3-0.8,10.1-0.8c6.8,0,11.7,1.6,14.9,4.6c3.3,3,5.2,7.3,5.2,13.2c0,6-1.9,10.9-5.3,14.3 c-3.4,3.4-9.1,5.3-16.3,5.3c-3.4,0-6.2-0.2-8.6-0.4V61.6z M88.8,94.1c1.2,0.2,3,0.3,4.8,0.3c10.2,0,15.7-5.7,15.7-15.6 c0.1-8.7-4.9-14.2-14.9-14.2c-2.5,0-4.3,0.2-5.6,0.5V94.1z"/><path fill="#FFFFFF" d="M132.1,97.8l-0.4-3.3h-0.2c-1.5,2.1-4.3,3.9-8.1,3.9c-5.4,0-8.1-3.8-8.1-7.6c0-6.4,5.7-9.9,15.9-9.8v-0.5 c0-2.2-0.6-6.1-6-6.1c-2.5,0-5,0.8-6.9,2l-1.1-3.2c2.2-1.4,5.4-2.3,8.7-2.3c8.1,0,10.1,5.5,10.1,10.8v9.9c0,2.3,0.1,4.5,0.4,6.3 H132.1z M131.4,84.4c-5.3-0.1-11.2,0.8-11.2,5.9c0,3.1,2.1,4.6,4.5,4.6c3.4,0,5.6-2.2,6.4-4.4c0.2-0.5,0.3-1,0.3-1.5V84.4z"/><path fill="#FFFFFF" d="M146.6,63.9v7.6h6.9v3.7h-6.9v14.2c0,3.3,0.9,5.1,3.6,5.1c1.3,0,2.2-0.2,2.8-0.3l0.2,3.6 c-0.9,0.4-2.4,0.7-4.3,0.7c-2.2,0-4-0.7-5.2-2c-1.4-1.4-1.9-3.8-1.9-6.9V75.1h-4.1v-3.7h4.1v-6.3L146.6,63.9z"/><path fill="#FFFFFF" d="M171.4,97.8l-0.4-3.3h-0.2c-1.5,2.1-4.3,3.9-8.1,3.9c-5.4,0-8.1-3.8-8.1-7.6c0-6.4,5.7-9.9,15.9-9.8v-0.5 c0-2.2-0.6-6.1-6-6.1c-2.5,0-5,0.8-6.9,2l-1.1-3.2c2.2-1.4,5.4-2.3,8.7-2.3c8.1,0,10.1,5.5,10.1,10.8v9.9c0,2.3,0.1,4.5,0.4,6.3 H171.4z M170.7,84.4c-5.3-0.1-11.2,0.8-11.2,5.9c0,3.1,2.1,4.6,4.5,4.6c3.4,0,5.6-2.2,6.4-4.4c0.2-0.5,0.3-1,0.3-1.5V84.4z"/></g></g></a></g><a href="https://ourworldindata.org/grapher/milk-production-tonnes" target="_blank"><text font-size="25.20" x="15.0" y="35.2" fill="#555"><tspan x="15" y="35.160000000000004">Milk production, tonnes</tspan></text></a><text font-size="14.40" x="15.0" y="53.7" fill="#666"><tspan x="15" y="53.72">Total milk production, measured in tonnes per year. Data on milk production relate to total production of whole fresh</tspan><tspan x="15" y="69.56">milk, excluding the milk sucked by young animals but including amounts fed to livestock.  </tspan></text></g><g class="StackedArea"><defs><clipPath id="boundsClip-341"><rect x="106.67" y="0" width="820" height="928.8"></rect></clipPath></defs><g class="AxisBoxView"><g class="HorizontalAxis"><text x="106.7" y="556.5" fill="#666" text-anchor="middle" font-size="16.2">1961</text><text x="206.4" y="556.5" fill="#666" text-anchor="middle" font-size="16.2">1970</text><text x="317.2" y="556.5" fill="#666" text-anchor="middle" font-size="16.2">1980</text><text x="428.1" y="556.5" fill="#666" text-anchor="middle" font-size="16.2">1990</text><text x="538.9" y="556.5" fill="#666" text-anchor="middle" font-size="16.2">2000</text><text x="649.7" y="556.5" fill="#666" text-anchor="middle" font-size="16.2">2010</text><text x="694" y="556.5" fill="#666" text-anchor="middle" font-size="16.2">2014</text></g><g class="VerticalAxis"><text x="101.67" y="535.3" fill="#666" dominant-baseline="middle" text-anchor="end" font-size="16.2">0 t</text><text x="101.67" y="479.3" fill="#666" dominant-baseline="middle" text-anchor="end" font-size="16.2">100 million t</text><text x="101.67" y="423.4" fill="#666" dominant-baseline="middle" text-anchor="end" font-size="16.2">200 million t</text><text x="101.67" y="367.4" fill="#666" dominant-baseline="middle" text-anchor="end" font-size="16.2">300 million t</text><text x="101.67" y="311.4" fill="#666" dominant-baseline="middle" text-anchor="end" font-size="16.2">400 million t</text><text x="101.67" y="255.4" fill="#666" dominant-baseline="middle" text-anchor="end" font-size="16.2">500 million t</text><text x="101.67" y="199.5" fill="#666" dominant-baseline="middle" text-anchor="end" font-size="16.2">600 million t</text><text x="101.67" y="143.5" fill="#666" dominant-baseline="middle" text-anchor="end" font-size="16.2">700 million t</text></g><g class="AxisGridLines"><line x1="106.67" y1="535.3" x2="694.02" y2="535.3" stroke="#ccc"></line><line x1="106.67" y1="479.3" x2="694.02" y2="479.3" stroke="#ddd" stroke-dasharray="3,2"></line><line x1="106.67" y1="423.4" x2="694.02" y2="423.4" stroke="#ddd" stroke-dasharray="3,2"></line><line x1="106.67" y1="367.4" x2="694.02" y2="367.4" stroke="#ddd" stroke-dasharray="3,2"></line><line x1="106.67" y1="311.4" x2="694.02" y2="311.4" stroke="#ddd" stroke-dasharray="3,2"></line><line x1="106.67" y1="255.4" x2="694.02" y2="255.4" stroke="#ddd" stroke-dasharray="3,2"></line><line x1="106.67" y1="199.5" x2="694.02" y2="199.5" stroke="#ddd" stroke-dasharray="3,2"></line><line x1="106.67" y1="143.5" x2="694.02" y2="143.5" stroke="#ddd" stroke-dasharray="3,2"></line></g></g><g clip-path="url(#boundsClip-341)"><g class="HeightedLegend clickable"><g class="legendMark"><g class="indicator"><line x1="699.025" y1="100.8" x2="711.525" y2="100.8" stroke="#666" stroke-width="0.5"></line><line x1="711.525" y1="100.8" x2="711.525" y2="100.8" stroke="#666" stroke-width="0.5"></line><line x1="711.525" y1="100.8" x2="724.025" y2="100.8" stroke="#666" stroke-width="0.5"></line></g><rect x="694.025" y="94.05" width="85.49000000000001" height="13.5" fill="#fff" opacity="0"></rect><text font-size="13.50" x="729.0" y="104.8" fill="#ce8ebd"><tspan x="729.025" y="104.85">Oceania</tspan></text></g><g class="legendMark"><g class="indicator"><line x1="699.025" y1="122.5" x2="711.525" y2="122.5" stroke="#666" stroke-width="0.5"></line><line x1="711.525" y1="122.5" x2="711.525" y2="122.5" stroke="#666" stroke-width="0.5"></line><line x1="711.525" y1="122.5" x2="724.025" y2="122.5" stroke="#666" stroke-width="0.5"></line></g><rect x="694.025" y="115.75" width="69.56" height="13.5" fill="#fff" opacity="0"></rect><text font-size="13.50" x="729.0" y="126.5" fill="#3360a9"><tspan x="729.025" y="126.55">Africa</tspan></text></g><g class="legendMark"><g class="indicator"><line x1="699.025" y1="136.2" x2="718.1916666666666" y2="136.2" stroke="#666" stroke-width="0.5"></line><line x1="718.1916666666666" y1="136.2" x2="718.1916666666666" y2="136.2" stroke="#666" stroke-width="0.5"></line><line x1="718.1916666666666" y1="136.2" x2="724.025" y2="136.2" stroke="#666" stroke-width="0.5"></line></g><rect x="694.025" y="129.45" width="97.505" height="13.5" fill="#fff" opacity="0"></rect><text font-size="13.50" x="729.0" y="140.3" fill="#5eb77e"><tspan x="729.025" y="140.25">Caribbean</tspan></text></g><g class="legendMark"><g class="indicator"><line x1="699.025" y1="141" x2="711.525" y2="141" stroke="#666" stroke-width="0.5"></line><line x1="711.525" y1="141" x2="711.525" y2="151.7" stroke="#666" stroke-width="0.5"></line><line x1="711.525" y1="151.7" x2="724.025" y2="151.7" stroke="#666" stroke-width="0.5"></line></g><rect x="694.025" y="144.95" width="131.93" height="13.5" fill="#fff" opacity="0"></rect><text font-size="13.50" x="729.0" y="155.8" fill="#34983f"><tspan x="729.025" y="155.75">Central America</tspan></text></g><g class="legendMark"><g class="indicator"><line x1="699.025" y1="163.3" x2="704.8583333333333" y2="163.3" stroke="#666" stroke-width="0.5"></line><line x1="704.8583333333333" y1="163.3" x2="704.8583333333333" y2="167.2" stroke="#666" stroke-width="0.5"></line><line x1="704.8583333333333" y1="167.2" x2="724.025" y2="167.2" stroke="#666" stroke-width="0.5"></line></g><rect x="694.025" y="160.45" width="123.83000000000001" height="13.5" fill="#fff" opacity="0"></rect><text font-size="13.50" x="729.0" y="171.3" fill="#9ecc8a"><tspan x="729.025" y="171.25">South America</tspan></text></g><g class="legendMark"><g class="indicator"><line x1="699.025" y1="210" x2="711.525" y2="210" stroke="#666" stroke-width="0.5"></line><line x1="711.525" y1="210" x2="711.525" y2="210" stroke="#666" stroke-width="0.5"></line><line x1="711.525" y1="210" x2="724.025" y2="210" stroke="#666" stroke-width="0.5"></line></g><rect x="694.025" y="203.25" width="140.97500000000002" height="13.5" fill="#fff" opacity="0"></rect><text font-size="13.50" x="729.0" y="214.1" fill="#6bb537"><tspan x="729.025" y="214.05">Northern America</tspan></text></g><g class="legendMark"><g class="indicator"><line x1="699.025" y1="300.9" x2="711.525" y2="300.9" stroke="#666" stroke-width="0.5"></line><line x1="711.525" y1="300.9" x2="711.525" y2="300.9" stroke="#666" stroke-width="0.5"></line><line x1="711.525" y1="300.9" x2="724.025" y2="300.9" stroke="#666" stroke-width="0.5"></line></g><rect x="694.025" y="294.15" width="78.74000000000001" height="13.5" fill="#fff" opacity="0"></rect><text font-size="13.50" x="729.0" y="304.9" fill="#ffd53e"><tspan x="729.025" y="304.95">Europe</tspan></text></g><g class="legendMark"><g class="indicator"><line x1="699.025" y1="449.3" x2="711.525" y2="449.3" stroke="#666" stroke-width="0.5"></line><line x1="711.525" y1="449.3" x2="711.525" y2="449.3" stroke="#666" stroke-width="0.5"></line><line x1="711.525" y1="449.3" x2="724.025" y2="449.3" stroke="#666" stroke-width="0.5"></line></g><rect x="694.025" y="442.55" width="61.325" height="13.5" fill="#fff" opacity="0"></rect><text font-size="13.50" x="729.0" y="453.4" fill="#e6332e"><tspan x="729.025" y="453.35">Asia</tspan></text></g></g><g class="Areas"><rect x="106.67" y="92.1" width="587.355" height="443.19999999999993" opacity="0" fill="rgba(255,255,255,0)"></rect><path class="Asia_0-area" stroke-linecap="round" d="M106.7 511.4L117.8 511L128.8 510.6L139.9 510.4L151 510.1L162.1 509.7L173.2 509.1L184.2 508L195.3 507.3L206.4 507.5L217.5 506.4L228.6 505.8L239.7 505.1L250.7 503.9L261.8 502.8L272.9 501.1L284 499.8L295.1 498.6L306.1 497.2L317.2 496.2L328.3 494L339.4 492.8L350.5 490.5L361.6 487.9L372.6 485.4L383.7 483.2L394.8 481.9L405.9 479.7L417 477.2L428.1 474.6L439.1 473.1L450.2 463.7L461.3 461.3L472.4 458.7L483.5 455.3L494.5 451L505.6 449.4L516.7 446.6L527.8 442.6L538.9 440.5L550 436.8L561 433.3L572.1 427.5L583.2 420.6L594.3 413.6L605.4 406.4L616.4 398.7L627.5 395.3L638.6 390.9L649.7 386.4L660.8 380.4L671.9 374.7L682.9 370.9L694 363.3L694.025 535.3L106.67 535.3" fill="#e6332e" fill-opacity="0.7"></path><path class="Europe_0-area" stroke-linecap="round" d="M106.7 402.2L117.8 401.4L128.8 403L139.9 401.4L151 393.1L162.1 388.6L173.2 384.1L184.2 379.8L195.3 379.7L206.4 379.9L217.5 378.7L228.6 374.6L239.7 369.3L250.7 365.2L261.8 364.3L272.9 361.7L284 354.9L295.1 350.9L306.1 348.4L317.2 347.6L328.3 347L339.4 342.8L350.5 333.7L361.6 330.2L372.6 328.5L383.7 323.8L394.8 324.7L405.9 322.3L417 318.5L428.1 316.7L439.1 322.6L450.2 328.9L461.3 329.5L472.4 330L483.5 328L494.5 326.6L505.6 327.2L516.7 324.3L527.8 321.3L538.9 320L550 315.8L561 311.4L572.1 306L583.2 300.5L594.3 293.1L605.4 285.9L616.4 278.7L627.5 274.9L638.6 271.4L649.7 267L660.8 260.1L671.9 253.9L682.9 250.1L694 238.5L694 363.3L682.9 370.9L671.9 374.7L660.8 380.4L649.7 386.4L638.6 390.9L627.5 395.3L616.4 398.7L605.4 406.4L594.3 413.6L583.2 420.6L572.1 427.5L561 433.3L550 436.8L538.9 440.5L527.8 442.6L516.7 446.6L505.6 449.4L494.5 451L483.5 455.3L472.4 458.7L461.3 461.3L450.2 463.7L439.1 473.1L428.1 474.6L417 477.2L405.9 479.7L394.8 481.9L383.7 483.2L372.6 485.4L361.6 487.9L350.5 490.5L339.4 492.8L328.3 494L317.2 496.2L306.1 497.2L295.1 498.6L284 499.8L272.9 501.1L261.8 502.8L250.7 503.9L239.7 505.1L228.6 505.8L217.5 506.4L206.4 507.5L195.3 507.3L184.2 508L173.2 509.1L162.1 509.7L151 510.1L139.9 510.4L128.8 510.6L117.8 511L106.7 511.4" fill="#ffd53e" fill-opacity="0.7"></path><path class="Northern-America_0-area" stroke-linecap="round" d="M106.7 365.6L117.8 364.6L128.8 366.5L139.9 364.5L151 356.9L162.1 353.5L173.2 349.3L184.2 345.4L195.3 345.5L206.4 345.5L217.5 344.1L228.6 339.6L239.7 335.7L250.7 331.6L261.8 330.7L272.9 326.9L284 319.4L295.1 315.8L306.1 313.1L317.2 310.8L328.3 309L339.4 304L350.5 294.1L361.6 291.5L372.6 288L383.7 283.3L394.8 284.2L405.9 281.1L417 277.5L428.1 274.8L439.1 280.8L450.2 286.4L461.3 287.1L472.4 286.7L483.5 284.1L494.5 283.1L505.6 283L516.7 279.8L527.8 275.4L538.9 272.9L550 269.2L561 263.8L572.1 258.4L583.2 252.7L594.3 243.8L605.4 235.3L616.4 227L627.5 222.1L638.6 218.7L649.7 213.4L660.8 205.6L671.9 198.2L682.9 194.3L694 181.5L694 238.5L682.9 250.1L671.9 253.9L660.8 260.1L649.7 267L638.6 271.4L627.5 274.9L616.4 278.7L605.4 285.9L594.3 293.1L583.2 300.5L572.1 306L561 311.4L550 315.8L538.9 320L527.8 321.3L516.7 324.3L505.6 327.2L494.5 326.6L483.5 328L472.4 330L461.3 329.5L450.2 328.9L439.1 322.6L428.1 316.7L417 318.5L405.9 322.3L394.8 324.7L383.7 323.8L372.6 328.5L361.6 330.2L350.5 333.7L339.4 342.8L328.3 347L317.2 347.6L306.1 348.4L295.1 350.9L284 354.9L272.9 361.7L261.8 364.3L250.7 365.2L239.7 369.3L228.6 374.6L217.5 378.7L206.4 379.9L195.3 379.7L184.2 379.8L173.2 384.1L162.1 388.6L151 393.1L139.9 401.4L128.8 403L117.8 401.4L106.7 402.2" fill="#6bb537" fill-opacity="0.7"></path><path class="South-America_0-area" stroke-linecap="round" d="M106.7 357.6L117.8 356.4L128.8 358L139.9 355.4L151 347.5L162.1 343.6L173.2 339.7L184.2 335.3L195.3 335.2L206.4 335.2L217.5 333.4L228.6 328.6L239.7 324.7L250.7 319.8L261.8 318L272.9 313.6L284 306.8L295.1 303.3L306.1 300.2L317.2 296.9L328.3 295L339.4 288.8L350.5 279L361.6 276.1L372.6 272.4L383.7 267.3L394.8 267.3L405.9 263.6L417 259L428.1 257.1L439.1 262.7L450.2 267.2L461.3 267.5L472.4 266.4L483.5 262.6L494.5 259.9L505.6 259.2L516.7 255.4L527.8 250.5L538.9 247.6L550 243.5L561 237.8L572.1 232.4L583.2 226L594.3 215.3L605.4 205.4L616.4 197.4L627.5 190.1L638.6 186.9L649.7 180.2L660.8 170.6L671.9 163.1L682.9 158.5L694 145.2L694 181.5L682.9 194.3L671.9 198.2L660.8 205.6L649.7 213.4L638.6 218.7L627.5 222.1L616.4 227L605.4 235.3L594.3 243.8L583.2 252.7L572.1 258.4L561 263.8L550 269.2L538.9 272.9L527.8 275.4L516.7 279.8L505.6 283L494.5 283.1L483.5 284.1L472.4 286.7L461.3 287.1L450.2 286.4L439.1 280.8L428.1 274.8L417 277.5L405.9 281.1L394.8 284.2L383.7 283.3L372.6 288L361.6 291.5L350.5 294.1L339.4 304L328.3 309L317.2 310.8L306.1 313.1L295.1 315.8L284 319.4L272.9 326.9L261.8 330.7L250.7 331.6L239.7 335.7L228.6 339.6L217.5 344.1L206.4 345.5L195.3 345.5L184.2 345.4L173.2 349.3L162.1 353.5L151 356.9L139.9 364.5L128.8 366.5L117.8 364.6L106.7 365.6" fill="#9ecc8a" fill-opacity="0.7"></path><path class="Central-America_0-area" stroke-linecap="round" d="M106.7 355.8L117.8 354.6L128.8 356.2L139.9 353.5L151 345.6L162.1 341.2L173.2 337L184.2 332.6L195.3 332.3L206.4 332.2L217.5 330.3L228.6 324.9L239.7 320.8L250.7 315.7L261.8 313.7L272.9 309.2L284 302.2L295.1 298.5L306.1 295.3L317.2 292.1L328.3 290.2L339.4 283.9L350.5 274.2L361.6 271.3L372.6 267.4L383.7 262.7L394.8 262.8L405.9 259.2L417 254.9L428.1 252.7L439.1 257.9L450.2 262.2L461.3 262.2L472.4 261.1L483.5 257.3L494.5 254.4L505.6 253.6L516.7 249.4L527.8 244L538.9 240.8L550 236.5L561 230.7L572.1 225.2L583.2 218.7L594.3 207.9L605.4 197.9L616.4 189.6L627.5 182.1L638.6 178.9L649.7 172.1L660.8 162.5L671.9 154.9L682.9 150.2L694 136.8L694 145.2L682.9 158.5L671.9 163.1L660.8 170.6L649.7 180.2L638.6 186.9L627.5 190.1L616.4 197.4L605.4 205.4L594.3 215.3L583.2 226L572.1 232.4L561 237.8L550 243.5L538.9 247.6L527.8 250.5L516.7 255.4L505.6 259.2L494.5 259.9L483.5 262.6L472.4 266.4L461.3 267.5L450.2 267.2L439.1 262.7L428.1 257.1L417 259L405.9 263.6L394.8 267.3L383.7 267.3L372.6 272.4L361.6 276.1L350.5 279L339.4 288.8L328.3 295L317.2 296.9L306.1 300.2L295.1 303.3L284 306.8L272.9 313.6L261.8 318L250.7 319.8L239.7 324.7L228.6 328.6L217.5 333.4L206.4 335.2L195.3 335.2L184.2 335.3L173.2 339.7L162.1 343.6L151 347.5L139.9 355.4L128.8 358L117.8 356.4L106.7 357.6" fill="#34983f" fill-opacity="0.7"></path><path class="Caribbean_0-area" stroke-linecap="round" d="M106.7 355.3L117.8 354.1L128.8 355.6L139.9 352.9L151 345L162.1 340.5L173.2 336.3L184.2 331.8L195.3 331.6L206.4 331.4L217.5 329.5L228.6 324L239.7 319.9L250.7 314.8L261.8 312.8L272.9 308.2L284 301.2L295.1 297.5L306.1 294.2L317.2 291L328.3 289L339.4 282.8L350.5 273L361.6 270.2L372.6 266.3L383.7 261.6L394.8 261.7L405.9 258.1L417 253.7L428.1 251.6L439.1 256.8L450.2 261.3L461.3 261.3L472.4 260.2L483.5 256.4L494.5 253.5L505.6 252.6L516.7 248.5L527.8 243.1L538.9 239.9L550 235.6L561 229.7L572.1 224.2L583.2 217.8L594.3 207.1L605.4 197L616.4 188.6L627.5 181.1L638.6 177.9L649.7 171.1L660.8 161.5L671.9 153.8L682.9 149.2L694 135.7L694 136.8L682.9 150.2L671.9 154.9L660.8 162.5L649.7 172.1L638.6 178.9L627.5 182.1L616.4 189.6L605.4 197.9L594.3 207.9L583.2 218.7L572.1 225.2L561 230.7L550 236.5L538.9 240.8L527.8 244L516.7 249.4L505.6 253.6L494.5 254.4L483.5 257.3L472.4 261.1L461.3 262.2L450.2 262.2L439.1 257.9L428.1 252.7L417 254.9L405.9 259.2L394.8 262.8L383.7 262.7L372.6 267.4L361.6 271.3L350.5 274.2L339.4 283.9L328.3 290.2L317.2 292.1L306.1 295.3L295.1 298.5L284 302.2L272.9 309.2L261.8 313.7L250.7 315.7L239.7 320.8L228.6 324.9L217.5 330.3L206.4 332.2L195.3 332.3L184.2 332.6L173.2 337L162.1 341.2L151 345.6L139.9 353.5L128.8 356.2L117.8 354.6L106.7 355.8" fill="#5eb77e" fill-opacity="0.7"></path><path class="Africa_0-area" stroke-linecap="round" d="M106.7 349.1L117.8 347.9L128.8 349.4L139.9 346.7L151 338.4L162.1 333.8L173.2 329.3L184.2 324.4L195.3 324L206.4 323.6L217.5 321.7L228.6 316.1L239.7 312L250.7 307.1L261.8 304.8L272.9 299.9L284 292.6L295.1 288.5L306.1 284.8L317.2 281.5L328.3 279.1L339.4 272.5L350.5 262.5L361.6 260.4L372.6 256.1L383.7 250.9L394.8 250.7L405.9 246.6L417 241.9L428.1 239.5L439.1 245L450.2 249.3L461.3 249L472.4 247.4L483.5 243L494.5 239.9L505.6 238.3L516.7 233.7L527.8 227.7L538.9 224L550 218.9L561 211.4L572.1 204.6L583.2 197.7L594.3 186.4L605.4 175.6L616.4 166.3L627.5 157.8L638.6 154.3L649.7 146.1L660.8 136.5L671.9 127.9L682.9 123.3L694 109.4L694 135.7L682.9 149.2L671.9 153.8L660.8 161.5L649.7 171.1L638.6 177.9L627.5 181.1L616.4 188.6L605.4 197L594.3 207.1L583.2 217.8L572.1 224.2L561 229.7L550 235.6L538.9 239.9L527.8 243.1L516.7 248.5L505.6 252.6L494.5 253.5L483.5 256.4L472.4 260.2L461.3 261.3L450.2 261.3L439.1 256.8L428.1 251.6L417 253.7L405.9 258.1L394.8 261.7L383.7 261.6L372.6 266.3L361.6 270.2L350.5 273L339.4 282.8L328.3 289L317.2 291L306.1 294.2L295.1 297.5L284 301.2L272.9 308.2L261.8 312.8L250.7 314.8L239.7 319.9L228.6 324L217.5 329.5L206.4 331.4L195.3 331.6L184.2 331.8L173.2 336.3L162.1 340.5L151 345L139.9 352.9L128.8 355.6L117.8 354.1L106.7 355.3" fill="#3360a9" fill-opacity="0.7"></path><path class="Oceania_0-area" stroke-linecap="round" d="M106.7 342.6L117.8 341.2L128.8 342.6L139.9 339.7L151 331.1L162.1 326.3L173.2 321.6L184.2 317L195.3 316.4L206.4 315.9L217.5 314.2L228.6 308.5L239.7 304.6L250.7 300L261.8 297.6L272.9 292.6L284 285.5L295.1 281.9L306.1 278L317.2 274.6L328.3 272.3L339.4 265.7L350.5 255.4L361.6 252.7L372.6 248.2L383.7 242.8L394.8 243L405.9 238.7L417 234.2L428.1 231.7L439.1 236.8L450.2 240.9L461.3 239.7L472.4 237.2L483.5 233L494.5 229.2L505.6 226.9L516.7 222L527.8 215.9L538.9 211L550 205.6L561 197.2L572.1 190.7L583.2 183.7L594.3 172.5L605.4 161.5L616.4 152.2L627.5 144.1L638.6 139.7L649.7 131.5L660.8 121.7L671.9 111.8L682.9 107.1L694 92.1L694 109.4L682.9 123.3L671.9 127.9L660.8 136.5L649.7 146.1L638.6 154.3L627.5 157.8L616.4 166.3L605.4 175.6L594.3 186.4L583.2 197.7L572.1 204.6L561 211.4L550 218.9L538.9 224L527.8 227.7L516.7 233.7L505.6 238.3L494.5 239.9L483.5 243L472.4 247.4L461.3 249L450.2 249.3L439.1 245L428.1 239.5L417 241.9L405.9 246.6L394.8 250.7L383.7 250.9L372.6 256.1L361.6 260.4L350.5 262.5L339.4 272.5L328.3 279.1L317.2 281.5L306.1 284.8L295.1 288.5L284 292.6L272.9 299.9L261.8 304.8L250.7 307.1L239.7 312L228.6 316.1L217.5 321.7L206.4 323.6L195.3 324L184.2 324.4L173.2 329.3L162.1 333.8L151 338.4L139.9 346.7L128.8 349.4L117.8 347.9L106.7 349.1" fill="#ce8ebd" fill-opacity="0.7"></path><path class="Asia_0-border" stroke-linecap="round" d="M106.7 511.4L117.8 511L128.8 510.6L139.9 510.4L151 510.1L162.1 509.7L173.2 509.1L184.2 508L195.3 507.3L206.4 507.5L217.5 506.4L228.6 505.8L239.7 505.1L250.7 503.9L261.8 502.8L272.9 501.1L284 499.8L295.1 498.6L306.1 497.2L317.2 496.2L328.3 494L339.4 492.8L350.5 490.5L361.6 487.9L372.6 485.4L383.7 483.2L394.8 481.9L405.9 479.7L417 477.2L428.1 474.6L439.1 473.1L450.2 463.7L461.3 461.3L472.4 458.7L483.5 455.3L494.5 451L505.6 449.4L516.7 446.6L527.8 442.6L538.9 440.5L550 436.8L561 433.3L572.1 427.5L583.2 420.6L594.3 413.6L605.4 406.4L616.4 398.7L627.5 395.3L638.6 390.9L649.7 386.4L660.8 380.4L671.9 374.7L682.9 370.9L694 363.3" stroke="rgb(192, 43, 38)" stroke-opacity="0.7" stroke-width="0.5" fill="none"></path><path class="Europe_0-border" stroke-linecap="round" d="M106.7 402.2L117.8 401.4L128.8 403L139.9 401.4L151 393.1L162.1 388.6L173.2 384.1L184.2 379.8L195.3 379.7L206.4 379.9L217.5 378.7L228.6 374.6L239.7 369.3L250.7 365.2L261.8 364.3L272.9 361.7L284 354.9L295.1 350.9L306.1 348.4L317.2 347.6L328.3 347L339.4 342.8L350.5 333.7L361.6 330.2L372.6 328.5L383.7 323.8L394.8 324.7L405.9 322.3L417 318.5L428.1 316.7L439.1 322.6L450.2 328.9L461.3 329.5L472.4 330L483.5 328L494.5 326.6L505.6 327.2L516.7 324.3L527.8 321.3L538.9 320L550 315.8L561 311.4L572.1 306L583.2 300.5L594.3 293.1L605.4 285.9L616.4 278.7L627.5 274.9L638.6 271.4L649.7 267L660.8 260.1L671.9 253.9L682.9 250.1L694 238.5" stroke="rgb(213, 178, 52)" stroke-opacity="0.7" stroke-width="0.5" fill="none"></path><path class="Northern-America_0-border" stroke-linecap="round" d="M106.7 365.6L117.8 364.6L128.8 366.5L139.9 364.5L151 356.9L162.1 353.5L173.2 349.3L184.2 345.4L195.3 345.5L206.4 345.5L217.5 344.1L228.6 339.6L239.7 335.7L250.7 331.6L261.8 330.7L272.9 326.9L284 319.4L295.1 315.8L306.1 313.1L317.2 310.8L328.3 309L339.4 304L350.5 294.1L361.6 291.5L372.6 288L383.7 283.3L394.8 284.2L405.9 281.1L417 277.5L428.1 274.8L439.1 280.8L450.2 286.4L461.3 287.1L472.4 286.7L483.5 284.1L494.5 283.1L505.6 283L516.7 279.8L527.8 275.4L538.9 272.9L550 269.2L561 263.8L572.1 258.4L583.2 252.7L594.3 243.8L605.4 235.3L616.4 227L627.5 222.1L638.6 218.7L649.7 213.4L660.8 205.6L671.9 198.2L682.9 194.3L694 181.5" stroke="rgb(90, 151, 46)" stroke-opacity="0.7" stroke-width="0.5" fill="none"></path><path class="South-America_0-border" stroke-linecap="round" d="M106.7 357.6L117.8 356.4L128.8 358L139.9 355.4L151 347.5L162.1 343.6L173.2 339.7L184.2 335.3L195.3 335.2L206.4 335.2L217.5 333.4L228.6 328.6L239.7 324.7L250.7 319.8L261.8 318L272.9 313.6L284 306.8L295.1 303.3L306.1 300.2L317.2 296.9L328.3 295L339.4 288.8L350.5 279L361.6 276.1L372.6 272.4L383.7 267.3L394.8 267.3L405.9 263.6L417 259L428.1 257.1L439.1 262.7L450.2 267.2L461.3 267.5L472.4 266.4L483.5 262.6L494.5 259.9L505.6 259.2L516.7 255.4L527.8 250.5L538.9 247.6L550 243.5L561 237.8L572.1 232.4L583.2 226L594.3 215.3L605.4 205.4L616.4 197.4L627.5 190.1L638.6 186.9L649.7 180.2L660.8 170.6L671.9 163.1L682.9 158.5L694 145.2" stroke="rgb(132, 171, 115)" stroke-opacity="0.7" stroke-width="0.5" fill="none"></path><path class="Central-America_0-border" stroke-linecap="round" d="M106.7 355.8L117.8 354.6L128.8 356.2L139.9 353.5L151 345.6L162.1 341.2L173.2 337L184.2 332.6L195.3 332.3L206.4 332.2L217.5 330.3L228.6 324.9L239.7 320.8L250.7 315.7L261.8 313.7L272.9 309.2L284 302.2L295.1 298.5L306.1 295.3L317.2 292.1L328.3 290.2L339.4 283.9L350.5 274.2L361.6 271.3L372.6 267.4L383.7 262.7L394.8 262.8L405.9 259.2L417 254.9L428.1 252.7L439.1 257.9L450.2 262.2L461.3 262.2L472.4 261.1L483.5 257.3L494.5 254.4L505.6 253.6L516.7 249.4L527.8 244L538.9 240.8L550 236.5L561 230.7L572.1 225.2L583.2 218.7L594.3 207.9L605.4 197.9L616.4 189.6L627.5 182.1L638.6 178.9L649.7 172.1L660.8 162.5L671.9 154.9L682.9 150.2L694 136.8" stroke="rgb(44, 127, 53)" stroke-opacity="0.7" stroke-width="0.5" fill="none"></path><path class="Caribbean_0-border" stroke-linecap="round" d="M106.7 355.3L117.8 354.1L128.8 355.6L139.9 352.9L151 345L162.1 340.5L173.2 336.3L184.2 331.8L195.3 331.6L206.4 331.4L217.5 329.5L228.6 324L239.7 319.9L250.7 314.8L261.8 312.8L272.9 308.2L284 301.2L295.1 297.5L306.1 294.2L317.2 291L328.3 289L339.4 282.8L350.5 273L361.6 270.2L372.6 266.3L383.7 261.6L394.8 261.7L405.9 258.1L417 253.7L428.1 251.6L439.1 256.8L450.2 261.3L461.3 261.3L472.4 260.2L483.5 256.4L494.5 253.5L505.6 252.6L516.7 248.5L527.8 243.1L538.9 239.9L550 235.6L561 229.7L572.1 224.2L583.2 217.8L594.3 207.1L605.4 197L616.4 188.6L627.5 181.1L638.6 177.9L649.7 171.1L660.8 161.5L671.9 153.8L682.9 149.2L694 135.7" stroke="rgb(79, 153, 105)" stroke-opacity="0.7" stroke-width="0.5" fill="none"></path><path class="Africa_0-border" stroke-linecap="round" d="M106.7 349.1L117.8 347.9L128.8 349.4L139.9 346.7L151 338.4L162.1 333.8L173.2 329.3L184.2 324.4L195.3 324L206.4 323.6L217.5 321.7L228.6 316.1L239.7 312L250.7 307.1L261.8 304.8L272.9 299.9L284 292.6L295.1 288.5L306.1 284.8L317.2 281.5L328.3 279.1L339.4 272.5L350.5 262.5L361.6 260.4L372.6 256.1L383.7 250.9L394.8 250.7L405.9 246.6L417 241.9L428.1 239.5L439.1 245L450.2 249.3L461.3 249L472.4 247.4L483.5 243L494.5 239.9L505.6 238.3L516.7 233.7L527.8 227.7L538.9 224L550 218.9L561 211.4L572.1 204.6L583.2 197.7L594.3 186.4L605.4 175.6L616.4 166.3L627.5 157.8L638.6 154.3L649.7 146.1L660.8 136.5L671.9 127.9L682.9 123.3L694 109.4" stroke="rgb(43, 80, 141)" stroke-opacity="0.7" stroke-width="0.5" fill="none"></path><path class="Oceania_0-border" stroke-linecap="round" d="M106.7 342.6L117.8 341.2L128.8 342.6L139.9 339.7L151 331.1L162.1 326.3L173.2 321.6L184.2 317L195.3 316.4L206.4 315.9L217.5 314.2L228.6 308.5L239.7 304.6L250.7 300L261.8 297.6L272.9 292.6L284 285.5L295.1 281.9L306.1 278L317.2 274.6L328.3 272.3L339.4 265.7L350.5 255.4L361.6 252.7L372.6 248.2L383.7 242.8L394.8 243L405.9 238.7L417 234.2L428.1 231.7L439.1 236.8L450.2 240.9L461.3 239.7L472.4 237.2L483.5 233L494.5 229.2L505.6 226.9L516.7 222L527.8 215.9L538.9 211L550 205.6L561 197.2L572.1 190.7L583.2 183.7L594.3 172.5L605.4 161.5L616.4 152.2L627.5 144.1L638.6 139.7L649.7 131.5L660.8 121.7L671.9 111.8L682.9 107.1L694 92.1" stroke="rgb(172, 119, 158)" stroke-opacity="0.7" stroke-width="0.5" fill="none"></path></g></g></g><g class="SourcesFooter" style="fill:#777"><g class="clickable" style="fill:#777"><text font-size="12.60" x="15.0" y="581.6"><tspan x="15" y="581.58">Source: UN Food and Agricultural Organization (FAO)</tspan></text></g><text font-size="12.60" x="400.2" y="581.6"><tspan x="400.174" y="581.58"><a target='_blank' style='fill: #777;' href='https://ourworldindata.org/meat-and-seafood-production-consumption/'>OurWorldInData.org/meat-and-seafood-production-consumption/</a> • <a style="fill: #777;" class="cclogo" href="http://creativecommons.org/licenses/by-sa/4.0/deed.en_US" target="_blank">CC BY-SA</a></tspan></text></g></g></svg>