<svg xmlns="http://www.w3.org/2000/svg" version="1.1" style="font-family:&#x27;Helvetica Neue&#x27;, Helvetica, Arial, sans-serif;font-size:18px;background-color:white;text-rendering:optimizeLegibility;-webkit-font-smoothing:antialiased" width="850" height="600"><g class="ChartTab"><g class="HeaderView"><g opacity="0.8" transform="translate(778, 15) scale(0.27)"><a xmlns:xlink="http://www.w3.org/1999/xlink" xlink:href="https://ourworldindata.org" target="_blank"><g><rect x="0" y="0" fill="#1B2543" width="211.2" height="130.1"/><rect x="0" y="112.2" fill="#E63912" width="211.2" height="17.9"/><g><rect x="1.2" y="12.3" fill="none" width="210.2" height="99.2"/><path fill="#FFFFFF" d="M37.8,32.2c0,12.7-7.7,19.4-17.1,19.4c-9.7,0-16.6-7.5-16.6-18.7c0-11.7,7.3-19.3,17.1-19.3 C31.3,13.7,37.8,21.3,37.8,32.2z M9.2,32.8c0,7.9,4.3,14.9,11.8,14.9c7.5,0,11.8-6.9,11.8-15.3c0-7.3-3.8-14.9-11.8-14.9 C13.1,17.5,9.2,24.8,9.2,32.8z"/><path fill="#FFFFFF" d="M62.7,43.8c0,2.7,0.1,5.1,0.2,7.2h-4.3l-0.3-4.3h-0.1c-1.3,2.1-4,4.9-8.8,4.9c-4.2,0-9.1-2.3-9.1-11.6 V24.6h4.8v14.6c0,5,1.5,8.4,5.9,8.4c3.2,0,5.5-2.2,6.3-4.4c0.3-0.7,0.4-1.6,0.4-2.5V24.6h4.8V43.8z"/><path fill="#FFFFFF" d="M67.3,32.8c0-3.1-0.1-5.8-0.2-8.2h4.2l0.2,5.2h0.2c1.2-3.5,4.1-5.8,7.3-5.8c0.5,0,0.9,0.1,1.4,0.2v4.5 c-0.5-0.1-1-0.2-1.6-0.2c-3.4,0-5.8,2.6-6.5,6.2c-0.1,0.7-0.2,1.4-0.2,2.2V51h-4.8V32.8z"/><path fill="#FFFFFF" d="M95.4,51l-9.4-36.8h5l4.4,18.6c1.1,4.6,2.1,9.2,2.7,12.7h0.1c0.6-3.7,1.8-8,3-12.8l4.9-18.5h5l4.5,18.7 c1,4.4,2,8.7,2.6,12.6h0.1c0.8-4,1.8-8.1,3-12.7l4.9-18.5h4.9L120.6,51h-5L111,31.9c-1.1-4.7-1.9-8.3-2.4-12h-0.1 c-0.7,3.7-1.5,7.3-2.8,12L100.4,51H95.4z"/><path fill="#FFFFFF" d="M154.9,37.6c0,9.8-6.8,14-13.2,14c-7.2,0-12.7-5.2-12.7-13.6c0-8.8,5.8-14,13.1-14 C149.8,24,154.9,29.5,154.9,37.6z M133.9,37.9c0,5.8,3.3,10.1,8,10.1c4.6,0,8-4.3,8-10.3c0-4.5-2.2-10.1-7.9-10.1 C136.3,27.6,133.9,32.8,133.9,37.9z"/><path fill="#FFFFFF" d="M158.2,32.8c0-3.1-0.1-5.8-0.2-8.2h4.2l0.2,5.2h0.2c1.2-3.5,4.1-5.8,7.3-5.8c0.5,0,0.9,0.1,1.4,0.2v4.5 c-0.5-0.1-1-0.2-1.6-0.2c-3.4,0-5.8,2.6-6.5,6.2c-0.1,0.7-0.2,1.4-0.2,2.2V51h-4.8V32.8z"/><path fill="#FFFFFF" d="M173.5,12.3h4.8V51h-4.8V12.3z"/><path fill="#FFFFFF" d="M206.5,12.3v31.9c0,2.3,0.1,5,0.2,6.8h-4.3l-0.2-4.6H202c-1.5,2.9-4.7,5.2-9,5.2 c-6.4,0-11.3-5.4-11.3-13.4c-0.1-8.8,5.4-14.2,11.9-14.2c4,0,6.8,1.9,8,4h0.1V12.3H206.5z M201.7,35.4c0-0.6-0.1-1.4-0.2-2 c-0.7-3.1-3.3-5.6-6.9-5.6c-5,0-7.9,4.4-7.9,10.2c0,5.3,2.6,9.8,7.8,9.8c3.2,0,6.2-2.1,7.1-5.7c0.2-0.7,0.2-1.3,0.2-2.1V35.4z"/><path fill="#FFFFFF" d="M42.8,64c0.1,1.6-1.1,2.9-3.1,2.9c-1.7,0-2.9-1.3-2.9-2.9c0-1.7,1.3-3,3-3C41.7,61,42.8,62.3,42.8,64z M37.4,97.8V71.4h4.8v26.4H37.4z"/><path fill="#FFFFFF" d="M47.5,78.6c0-2.7-0.1-5-0.2-7.1h4.3l0.3,4.4h0.1c1.3-2.5,4.4-5,8.8-5c3.7,0,9.4,2.2,9.4,11.2v15.8h-4.8 V82.6c0-4.3-1.6-7.8-6.1-7.8c-3.2,0-5.6,2.2-6.5,4.9c-0.2,0.6-0.3,1.4-0.3,2.2v15.9h-4.8V78.6z"/><path fill="#FFFFFF" d="M84,61.6c2.9-0.4,6.3-0.8,10.1-0.8c6.8,0,11.7,1.6,14.9,4.6c3.3,3,5.2,7.3,5.2,13.2c0,6-1.9,10.9-5.3,14.3 c-3.4,3.4-9.1,5.3-16.3,5.3c-3.4,0-6.2-0.2-8.6-0.4V61.6z M88.8,94.1c1.2,0.2,3,0.3,4.8,0.3c10.2,0,15.7-5.7,15.7-15.6 c0.1-8.7-4.9-14.2-14.9-14.2c-2.5,0-4.3,0.2-5.6,0.5V94.1z"/><path fill="#FFFFFF" d="M132.1,97.8l-0.4-3.3h-0.2c-1.5,2.1-4.3,3.9-8.1,3.9c-5.4,0-8.1-3.8-8.1-7.6c0-6.4,5.7-9.9,15.9-9.8v-0.5 c0-2.2-0.6-6.1-6-6.1c-2.5,0-5,0.8-6.9,2l-1.1-3.2c2.2-1.4,5.4-2.3,8.7-2.3c8.1,0,10.1,5.5,10.1,10.8v9.9c0,2.3,0.1,4.5,0.4,6.3 H132.1z M131.4,84.4c-5.3-0.1-11.2,0.8-11.2,5.9c0,3.1,2.1,4.6,4.5,4.6c3.4,0,5.6-2.2,6.4-4.4c0.2-0.5,0.3-1,0.3-1.5V84.4z"/><path fill="#FFFFFF" d="M146.6,63.9v7.6h6.9v3.7h-6.9v14.2c0,3.3,0.9,5.1,3.6,5.1c1.3,0,2.2-0.2,2.8-0.3l0.2,3.6 c-0.9,0.4-2.4,0.7-4.3,0.7c-2.2,0-4-0.7-5.2-2c-1.4-1.4-1.9-3.8-1.9-6.9V75.1h-4.1v-3.7h4.1v-6.3L146.6,63.9z"/><path fill="#FFFFFF" d="M171.4,97.8l-0.4-3.3h-0.2c-1.5,2.1-4.3,3.9-8.1,3.9c-5.4,0-8.1-3.8-8.1-7.6c0-6.4,5.7-9.9,15.9-9.8v-0.5 c0-2.2-0.6-6.1-6-6.1c-2.5,0-5,0.8-6.9,2l-1.1-3.2c2.2-1.4,5.4-2.3,8.7-2.3c8.1,0,10.1,5.5,10.1,10.8v9.9c0,2.3,0.1,4.5,0.4,6.3 H171.4z M170.7,84.4c-5.3-0.1-11.2,0.8-11.2,5.9c0,3.1,2.1,4.6,4.5,4.6c3.4,0,5.6-2.2,6.4-4.4c0.2-0.5,0.3-1,0.3-1.5V84.4z"/></g></g></a></g><a href="https://ourworldindata.org/grapher/modeled-female-employment-to-population-ratio" target="_blank"><text font-size="25.20" x="15.0" y="35.2" fill="#555"><tspan x="15" y="35.160000000000004">Female employment-to-population ratio</tspan></text></a><text font-size="14.40" x="15.0" y="53.7" fill="#666"><tspan x="15" y="53.72">The female employment- to-population ratio corresponds to the proportion of a country&#x27;s female population 15+ that is</tspan><tspan x="15" y="69.56">employed. All figures correspond to &#x27;modeled ILO estimates&#x27; (see source for details).</tspan></text></g><g class="LineChart"><defs><clipPath id="boundsClip-501"><rect x="42.562" y="0" width="830" height="928.8"></rect></clipPath></defs><g class="AxisBoxView"><g class="HorizontalAxis"><text x="52.6" y="556.5" fill="#666" text-anchor="middle" font-size="16.2">1991</text><text x="155" y="556.5" fill="#666" text-anchor="middle" font-size="16.2">1995</text><text x="283.1" y="556.5" fill="#666" text-anchor="middle" font-size="16.2">2000</text><text x="411.2" y="556.5" fill="#666" text-anchor="middle" font-size="16.2">2005</text><text x="539.3" y="556.5" fill="#666" text-anchor="middle" font-size="16.2">2010</text><text x="667.4" y="556.5" fill="#666" text-anchor="middle" font-size="16.2">2015</text><text x="718.6" y="556.5" fill="#666" text-anchor="middle" font-size="16.2">2017</text></g><g class="VerticalAxis"><text x="47.56" y="535.3" fill="#666" dominant-baseline="middle" text-anchor="end" font-size="16.2">0%</text><text x="47.56" y="472" fill="#666" dominant-baseline="middle" text-anchor="end" font-size="16.2">10%</text><text x="47.56" y="408.7" fill="#666" dominant-baseline="middle" text-anchor="end" font-size="16.2">20%</text><text x="47.56" y="345.4" fill="#666" dominant-baseline="middle" text-anchor="end" font-size="16.2">30%</text><text x="47.56" y="282.1" fill="#666" dominant-baseline="middle" text-anchor="end" font-size="16.2">40%</text><text x="47.56" y="218.8" fill="#666" dominant-baseline="middle" text-anchor="end" font-size="16.2">50%</text><text x="47.56" y="155.5" fill="#666" dominant-baseline="middle" text-anchor="end" font-size="16.2">60%</text><text x="47.56" y="92.2" fill="#666" dominant-baseline="middle" text-anchor="end" font-size="16.2">70%</text></g><g class="AxisGridLines"><line x1="52.56" y1="535.3" x2="718.60" y2="535.3" stroke="#ccc"></line><line x1="52.56" y1="472" x2="718.60" y2="472" stroke="#ddd" stroke-dasharray="3,2"></line><line x1="52.56" y1="408.7" x2="718.60" y2="408.7" stroke="#ddd" stroke-dasharray="3,2"></line><line x1="52.56" y1="345.4" x2="718.60" y2="345.4" stroke="#ddd" stroke-dasharray="3,2"></line><line x1="52.56" y1="282.1" x2="718.60" y2="282.1" stroke="#ddd" stroke-dasharray="3,2"></line><line x1="52.56" y1="218.8" x2="718.60" y2="218.8" stroke="#ddd" stroke-dasharray="3,2"></line><line x1="52.56" y1="155.5" x2="718.60" y2="155.5" stroke="#ddd" stroke-dasharray="3,2"></line><line x1="52.56" y1="92.2" x2="718.60" y2="92.2" stroke="#ddd" stroke-dasharray="3,2"></line></g></g><g clip-path="url(#boundsClip-501)"><g class="HeightedLegend clickable"><g class="legendMark"><g class="indicator"><line x1="723.595" y1="162.6" x2="736.095" y2="162.6" stroke="#666" stroke-width="0.5"></line><line x1="736.095" y1="162.6" x2="736.095" y2="162.6" stroke="#666" stroke-width="0.5"></line><line x1="736.095" y1="162.6" x2="748.595" y2="162.6" stroke="#666" stroke-width="0.5"></line></g><rect x="718.595" y="155.85" width="70.37" height="13.5" fill="#fff" opacity="0"></rect><text font-size="13.50" x="753.6" y="166.7" fill="#2a939b"><tspan x="753.595" y="166.65">China</tspan></text></g><g class="legendMark"><g class="indicator"><line x1="723.595" y1="197.7" x2="746.095" y2="197.7" stroke="#666" stroke-width="0.5"></line><line x1="746.095" y1="197.7" x2="746.095" y2="197.7" stroke="#666" stroke-width="0.5"></line><line x1="746.095" y1="197.7" x2="748.595" y2="197.7" stroke="#666" stroke-width="0.5"></line></g><rect x="718.595" y="190.95" width="116.405" height="13.5" fill="#fff" opacity="0"></rect><text font-size="13.50" x="753.6" y="201.8" fill="#a652ba"><tspan x="753.595" y="201.75">United States</tspan></text></g><g class="legendMark"><g class="indicator"><line x1="723.595" y1="198.6" x2="736.095" y2="198.6" stroke="#666" stroke-width="0.5"></line><line x1="736.095" y1="198.6" x2="736.095" y2="213.2" stroke="#666" stroke-width="0.5"></line><line x1="736.095" y1="213.2" x2="748.595" y2="213.2" stroke="#666" stroke-width="0.5"></line></g><rect x="718.595" y="206.45" width="90.62" height="13.5" fill="#fff" opacity="0"></rect><text font-size="13.50" x="753.6" y="217.3" fill="#f6a324"><tspan x="753.595" y="217.25">Germany</tspan></text></g><g class="legendMark"><g class="indicator"><line x1="723.595" y1="239" x2="736.095" y2="239" stroke="#666" stroke-width="0.5"></line><line x1="736.095" y1="239" x2="736.095" y2="239" stroke="#666" stroke-width="0.5"></line><line x1="736.095" y1="239" x2="748.595" y2="239" stroke="#666" stroke-width="0.5"></line></g><rect x="718.595" y="232.25" width="65.78" height="13.5" fill="#fff" opacity="0"></rect><text font-size="13.50" x="753.6" y="243.1" fill="#34983f"><tspan x="753.595" y="243.05">Chile</tspan></text></g><g class="legendMark"><g class="indicator"><line x1="723.595" y1="370.2" x2="736.095" y2="370.2" stroke="#666" stroke-width="0.5"></line><line x1="736.095" y1="370.2" x2="736.095" y2="370.2" stroke="#666" stroke-width="0.5"></line><line x1="736.095" y1="370.2" x2="748.595" y2="370.2" stroke="#666" stroke-width="0.5"></line></g><rect x="718.595" y="363.45" width="64.43" height="13.5" fill="#fff" opacity="0"></rect><text font-size="13.50" x="753.6" y="374.3" fill="#ca2628"><tspan x="753.595" y="374.25">India</tspan></text></g><g class="legendMark"><g class="indicator"><line x1="723.595" y1="403.9" x2="736.095" y2="403.9" stroke="#666" stroke-width="0.5"></line><line x1="736.095" y1="403.9" x2="736.095" y2="403.9" stroke="#666" stroke-width="0.5"></line><line x1="736.095" y1="403.9" x2="748.595" y2="403.9" stroke="#666" stroke-width="0.5"></line></g><rect x="718.595" y="397.15" width="87.92" height="13.5" fill="#fff" opacity="0"></rect><text font-size="13.50" x="753.6" y="407.9" fill="#3360a9"><tspan x="753.595" y="407.95">Lebanon</tspan></text></g></g><g class="Lines"><rect x="53" y="92" width="666" height="443" fill="rgba(255,255,255,0)" opacity="0"></rect><g class="key-China_0"><path stroke="#2a939b" stroke-linecap="round" d="M53 94L78 92L104 92L129 93L155 95L181 97L206 98L232 101L258 102L283 104L309 109L334 114L360 119L386 124L411 128L437 132L462 135L488 140L514 143L539 147L565 148L591 150L616 152L642 154L667 156L693 159L719 163" fill="none" stroke-width="1.5"></path><g fill="#2a939b"><circle cx="53" cy="94" r="2"></circle><circle cx="78" cy="92" r="2"></circle><circle cx="104" cy="92" r="2"></circle><circle cx="129" cy="93" r="2"></circle><circle cx="155" cy="95" r="2"></circle><circle cx="181" cy="97" r="2"></circle><circle cx="206" cy="98" r="2"></circle><circle cx="232" cy="101" r="2"></circle><circle cx="258" cy="102" r="2"></circle><circle cx="283" cy="104" r="2"></circle><circle cx="309" cy="109" r="2"></circle><circle cx="334" cy="114" r="2"></circle><circle cx="360" cy="119" r="2"></circle><circle cx="386" cy="124" r="2"></circle><circle cx="411" cy="128" r="2"></circle><circle cx="437" cy="132" r="2"></circle><circle cx="462" cy="135" r="2"></circle><circle cx="488" cy="140" r="2"></circle><circle cx="514" cy="143" r="2"></circle><circle cx="539" cy="147" r="2"></circle><circle cx="565" cy="148" r="2"></circle><circle cx="591" cy="150" r="2"></circle><circle cx="616" cy="152" r="2"></circle><circle cx="642" cy="154" r="2"></circle><circle cx="667" cy="156" r="2"></circle><circle cx="693" cy="159" r="2"></circle><circle cx="719" cy="163" r="2"></circle></g></g><g class="key-India_0"><path stroke="#ca2628" stroke-linecap="round" d="M53 322L78 321L104 320L129 318L155 320L181 322L206 324L232 326L258 328L283 330L309 327L334 323L360 320L386 317L411 314L437 324L462 334L488 344L514 353L539 363L565 368L591 373L616 372L642 371L667 370L693 369L719 370" fill="none" stroke-width="1.5"></path><g fill="#ca2628"><circle cx="53" cy="322" r="2"></circle><circle cx="78" cy="321" r="2"></circle><circle cx="104" cy="320" r="2"></circle><circle cx="129" cy="318" r="2"></circle><circle cx="155" cy="320" r="2"></circle><circle cx="181" cy="322" r="2"></circle><circle cx="206" cy="324" r="2"></circle><circle cx="232" cy="326" r="2"></circle><circle cx="258" cy="328" r="2"></circle><circle cx="283" cy="330" r="2"></circle><circle cx="309" cy="327" r="2"></circle><circle cx="334" cy="323" r="2"></circle><circle cx="360" cy="320" r="2"></circle><circle cx="386" cy="317" r="2"></circle><circle cx="411" cy="314" r="2"></circle><circle cx="437" cy="324" r="2"></circle><circle cx="462" cy="334" r="2"></circle><circle cx="488" cy="344" r="2"></circle><circle cx="514" cy="353" r="2"></circle><circle cx="539" cy="363" r="2"></circle><circle cx="565" cy="368" r="2"></circle><circle cx="591" cy="373" r="2"></circle><circle cx="616" cy="372" r="2"></circle><circle cx="642" cy="371" r="2"></circle><circle cx="667" cy="370" r="2"></circle><circle cx="693" cy="369" r="2"></circle><circle cx="719" cy="370" r="2"></circle></g></g><g class="key-United-States_0"><path stroke="#a652ba" stroke-linecap="round" d="M53 203L78 203L104 201L129 193L155 190L181 188L206 183L232 181L258 179L283 177L309 180L334 185L360 186L386 187L411 186L437 183L462 183L488 185L514 197L539 203L565 206L591 205L616 204L642 202L667 200L693 198L719 198" fill="none" stroke-width="1.5"></path><g fill="#a652ba"><circle cx="53" cy="203" r="2"></circle><circle cx="78" cy="203" r="2"></circle><circle cx="104" cy="201" r="2"></circle><circle cx="129" cy="193" r="2"></circle><circle cx="155" cy="190" r="2"></circle><circle cx="181" cy="188" r="2"></circle><circle cx="206" cy="183" r="2"></circle><circle cx="232" cy="181" r="2"></circle><circle cx="258" cy="179" r="2"></circle><circle cx="283" cy="177" r="2"></circle><circle cx="309" cy="180" r="2"></circle><circle cx="334" cy="185" r="2"></circle><circle cx="360" cy="186" r="2"></circle><circle cx="386" cy="187" r="2"></circle><circle cx="411" cy="186" r="2"></circle><circle cx="437" cy="183" r="2"></circle><circle cx="462" cy="183" r="2"></circle><circle cx="488" cy="185" r="2"></circle><circle cx="514" cy="197" r="2"></circle><circle cx="539" cy="203" r="2"></circle><circle cx="565" cy="206" r="2"></circle><circle cx="591" cy="205" r="2"></circle><circle cx="616" cy="204" r="2"></circle><circle cx="642" cy="202" r="2"></circle><circle cx="667" cy="200" r="2"></circle><circle cx="693" cy="198" r="2"></circle><circle cx="719" cy="198" r="2"></circle></g></g><g class="key-Germany_0"><path stroke="#f6a324" stroke-linecap="round" d="M53 252L78 258L104 264L129 263L155 262L181 261L206 262L232 260L258 253L283 250L309 247L334 247L360 248L386 252L411 249L437 243L462 235L488 231L514 227L539 223L565 215L591 213L616 209L642 206L667 204L693 200L719 199" fill="none" stroke-width="1.5"></path><g fill="#f6a324"><circle cx="53" cy="252" r="2"></circle><circle cx="78" cy="258" r="2"></circle><circle cx="104" cy="264" r="2"></circle><circle cx="129" cy="263" r="2"></circle><circle cx="155" cy="262" r="2"></circle><circle cx="181" cy="261" r="2"></circle><circle cx="206" cy="262" r="2"></circle><circle cx="232" cy="260" r="2"></circle><circle cx="258" cy="253" r="2"></circle><circle cx="283" cy="250" r="2"></circle><circle cx="309" cy="247" r="2"></circle><circle cx="334" cy="247" r="2"></circle><circle cx="360" cy="248" r="2"></circle><circle cx="386" cy="252" r="2"></circle><circle cx="411" cy="249" r="2"></circle><circle cx="437" cy="243" r="2"></circle><circle cx="462" cy="235" r="2"></circle><circle cx="488" cy="231" r="2"></circle><circle cx="514" cy="227" r="2"></circle><circle cx="539" cy="223" r="2"></circle><circle cx="565" cy="215" r="2"></circle><circle cx="591" cy="213" r="2"></circle><circle cx="616" cy="209" r="2"></circle><circle cx="642" cy="206" r="2"></circle><circle cx="667" cy="204" r="2"></circle><circle cx="693" cy="200" r="2"></circle><circle cx="719" cy="199" r="2"></circle></g></g><g class="key-Chile_0"><path stroke="#34983f" stroke-linecap="round" d="M53 345L78 333L104 322L129 326L155 329L181 333L206 328L232 323L258 329L283 333L309 333L334 332L360 326L386 315L411 316L437 310L462 296L488 288L514 290L539 267L565 253L591 250L616 244L642 241L667 241L693 240L719 239" fill="none" stroke-width="1.5"></path><g fill="#34983f"><circle cx="53" cy="345" r="2"></circle><circle cx="78" cy="333" r="2"></circle><circle cx="104" cy="322" r="2"></circle><circle cx="129" cy="326" r="2"></circle><circle cx="155" cy="329" r="2"></circle><circle cx="181" cy="333" r="2"></circle><circle cx="206" cy="328" r="2"></circle><circle cx="232" cy="323" r="2"></circle><circle cx="258" cy="329" r="2"></circle><circle cx="283" cy="333" r="2"></circle><circle cx="309" cy="333" r="2"></circle><circle cx="334" cy="332" r="2"></circle><circle cx="360" cy="326" r="2"></circle><circle cx="386" cy="315" r="2"></circle><circle cx="411" cy="316" r="2"></circle><circle cx="437" cy="310" r="2"></circle><circle cx="462" cy="296" r="2"></circle><circle cx="488" cy="288" r="2"></circle><circle cx="514" cy="290" r="2"></circle><circle cx="539" cy="267" r="2"></circle><circle cx="565" cy="253" r="2"></circle><circle cx="591" cy="250" r="2"></circle><circle cx="616" cy="244" r="2"></circle><circle cx="642" cy="241" r="2"></circle><circle cx="667" cy="241" r="2"></circle><circle cx="693" cy="240" r="2"></circle><circle cx="719" cy="239" r="2"></circle></g></g><g class="key-Lebanon_0"><path stroke="#3360a9" stroke-linecap="round" d="M53 428L78 428L104 427L129 426L155 425L181 424L206 423L232 422L258 421L283 419L309 420L334 421L360 421L386 421L411 419L437 417L462 415L488 413L514 411L539 409L565 408L591 407L616 407L642 407L667 406L693 405L719 404" fill="none" stroke-width="1.5"></path><g fill="#3360a9"><circle cx="53" cy="428" r="2"></circle><circle cx="78" cy="428" r="2"></circle><circle cx="104" cy="427" r="2"></circle><circle cx="129" cy="426" r="2"></circle><circle cx="155" cy="425" r="2"></circle><circle cx="181" cy="424" r="2"></circle><circle cx="206" cy="423" r="2"></circle><circle cx="232" cy="422" r="2"></circle><circle cx="258" cy="421" r="2"></circle><circle cx="283" cy="419" r="2"></circle><circle cx="309" cy="420" r="2"></circle><circle cx="334" cy="421" r="2"></circle><circle cx="360" cy="421" r="2"></circle><circle cx="386" cy="421" r="2"></circle><circle cx="411" cy="419" r="2"></circle><circle cx="437" cy="417" r="2"></circle><circle cx="462" cy="415" r="2"></circle><circle cx="488" cy="413" r="2"></circle><circle cx="514" cy="411" r="2"></circle><circle cx="539" cy="409" r="2"></circle><circle cx="565" cy="408" r="2"></circle><circle cx="591" cy="407" r="2"></circle><circle cx="616" cy="407" r="2"></circle><circle cx="642" cy="407" r="2"></circle><circle cx="667" cy="406" r="2"></circle><circle cx="693" cy="405" r="2"></circle><circle cx="719" cy="404" r="2"></circle></g></g></g></g></g><g class="SourcesFooter" style="fill:#777"><g class="clickable" style="fill:#777"><text font-size="12.60" x="15.0" y="581.6"><tspan x="15" y="581.58">Source: World Bank</tspan></text></g><text font-size="12.60" x="775.4" y="581.6"><tspan x="775.402" y="581.58"><a style="fill: #777;" class="cclogo" href="http://creativecommons.org/licenses/by-sa/4.0/deed.en_US" target="_blank">CC BY-SA</a></tspan></text></g></g></svg>