<svg xmlns="http://www.w3.org/2000/svg" version="1.1" style="font-family:&#x27;Helvetica Neue&#x27;, Helvetica, Arial, sans-serif;font-size:18px;background-color:white;text-rendering:optimizeLegibility;-webkit-font-smoothing:antialiased" width="850" height="600"><g class="ChartTab"><g class="HeaderView"><g opacity="0.8" transform="translate(778, 15) scale(0.27)"><a xmlns:xlink="http://www.w3.org/1999/xlink" xlink:href="https://ourworldindata.org" target="_blank"><g><rect x="0" y="0" fill="#1B2543" width="211.2" height="130.1"/><rect x="0" y="112.2" fill="#E63912" width="211.2" height="17.9"/><g><rect x="1.2" y="12.3" fill="none" width="210.2" height="99.2"/><path fill="#FFFFFF" d="M37.8,32.2c0,12.7-7.7,19.4-17.1,19.4c-9.7,0-16.6-7.5-16.6-18.7c0-11.7,7.3-19.3,17.1-19.3 C31.3,13.7,37.8,21.3,37.8,32.2z M9.2,32.8c0,7.9,4.3,14.9,11.8,14.9c7.5,0,11.8-6.9,11.8-15.3c0-7.3-3.8-14.9-11.8-14.9 C13.1,17.5,9.2,24.8,9.2,32.8z"/><path fill="#FFFFFF" d="M62.7,43.8c0,2.7,0.1,5.1,0.2,7.2h-4.3l-0.3-4.3h-0.1c-1.3,2.1-4,4.9-8.8,4.9c-4.2,0-9.1-2.3-9.1-11.6 V24.6h4.8v14.6c0,5,1.5,8.4,5.9,8.4c3.2,0,5.5-2.2,6.3-4.4c0.3-0.7,0.4-1.6,0.4-2.5V24.6h4.8V43.8z"/><path fill="#FFFFFF" d="M67.3,32.8c0-3.1-0.1-5.8-0.2-8.2h4.2l0.2,5.2h0.2c1.2-3.5,4.1-5.8,7.3-5.8c0.5,0,0.9,0.1,1.4,0.2v4.5 c-0.5-0.1-1-0.2-1.6-0.2c-3.4,0-5.8,2.6-6.5,6.2c-0.1,0.7-0.2,1.4-0.2,2.2V51h-4.8V32.8z"/><path fill="#FFFFFF" d="M95.4,51l-9.4-36.8h5l4.4,18.6c1.1,4.6,2.1,9.2,2.7,12.7h0.1c0.6-3.7,1.8-8,3-12.8l4.9-18.5h5l4.5,18.7 c1,4.4,2,8.7,2.6,12.6h0.1c0.8-4,1.8-8.1,3-12.7l4.9-18.5h4.9L120.6,51h-5L111,31.9c-1.1-4.7-1.9-8.3-2.4-12h-0.1 c-0.7,3.7-1.5,7.3-2.8,12L100.4,51H95.4z"/><path fill="#FFFFFF" d="M154.9,37.6c0,9.8-6.8,14-13.2,14c-7.2,0-12.7-5.2-12.7-13.6c0-8.8,5.8-14,13.1-14 C149.8,24,154.9,29.5,154.9,37.6z M133.9,37.9c0,5.8,3.3,10.1,8,10.1c4.6,0,8-4.3,8-10.3c0-4.5-2.2-10.1-7.9-10.1 C136.3,27.6,133.9,32.8,133.9,37.9z"/><path fill="#FFFFFF" d="M158.2,32.8c0-3.1-0.1-5.8-0.2-8.2h4.2l0.2,5.2h0.2c1.2-3.5,4.1-5.8,7.3-5.8c0.5,0,0.9,0.1,1.4,0.2v4.5 c-0.5-0.1-1-0.2-1.6-0.2c-3.4,0-5.8,2.6-6.5,6.2c-0.1,0.7-0.2,1.4-0.2,2.2V51h-4.8V32.8z"/><path fill="#FFFFFF" d="M173.5,12.3h4.8V51h-4.8V12.3z"/><path fill="#FFFFFF" d="M206.5,12.3v31.9c0,2.3,0.1,5,0.2,6.8h-4.3l-0.2-4.6H202c-1.5,2.9-4.7,5.2-9,5.2 c-6.4,0-11.3-5.4-11.3-13.4c-0.1-8.8,5.4-14.2,11.9-14.2c4,0,6.8,1.9,8,4h0.1V12.3H206.5z M201.7,35.4c0-0.6-0.1-1.4-0.2-2 c-0.7-3.1-3.3-5.6-6.9-5.6c-5,0-7.9,4.4-7.9,10.2c0,5.3,2.6,9.8,7.8,9.8c3.2,0,6.2-2.1,7.1-5.7c0.2-0.7,0.2-1.3,0.2-2.1V35.4z"/><path fill="#FFFFFF" d="M42.8,64c0.1,1.6-1.1,2.9-3.1,2.9c-1.7,0-2.9-1.3-2.9-2.9c0-1.7,1.3-3,3-3C41.7,61,42.8,62.3,42.8,64z M37.4,97.8V71.4h4.8v26.4H37.4z"/><path fill="#FFFFFF" d="M47.5,78.6c0-2.7-0.1-5-0.2-7.1h4.3l0.3,4.4h0.1c1.3-2.5,4.4-5,8.8-5c3.7,0,9.4,2.2,9.4,11.2v15.8h-4.8 V82.6c0-4.3-1.6-7.8-6.1-7.8c-3.2,0-5.6,2.2-6.5,4.9c-0.2,0.6-0.3,1.4-0.3,2.2v15.9h-4.8V78.6z"/><path fill="#FFFFFF" d="M84,61.6c2.9-0.4,6.3-0.8,10.1-0.8c6.8,0,11.7,1.6,14.9,4.6c3.3,3,5.2,7.3,5.2,13.2c0,6-1.9,10.9-5.3,14.3 c-3.4,3.4-9.1,5.3-16.3,5.3c-3.4,0-6.2-0.2-8.6-0.4V61.6z M88.8,94.1c1.2,0.2,3,0.3,4.8,0.3c10.2,0,15.7-5.7,15.7-15.6 c0.1-8.7-4.9-14.2-14.9-14.2c-2.5,0-4.3,0.2-5.6,0.5V94.1z"/><path fill="#FFFFFF" d="M132.1,97.8l-0.4-3.3h-0.2c-1.5,2.1-4.3,3.9-8.1,3.9c-5.4,0-8.1-3.8-8.1-7.6c0-6.4,5.7-9.9,15.9-9.8v-0.5 c0-2.2-0.6-6.1-6-6.1c-2.5,0-5,0.8-6.9,2l-1.1-3.2c2.2-1.4,5.4-2.3,8.7-2.3c8.1,0,10.1,5.5,10.1,10.8v9.9c0,2.3,0.1,4.5,0.4,6.3 H132.1z M131.4,84.4c-5.3-0.1-11.2,0.8-11.2,5.9c0,3.1,2.1,4.6,4.5,4.6c3.4,0,5.6-2.2,6.4-4.4c0.2-0.5,0.3-1,0.3-1.5V84.4z"/><path fill="#FFFFFF" d="M146.6,63.9v7.6h6.9v3.7h-6.9v14.2c0,3.3,0.9,5.1,3.6,5.1c1.3,0,2.2-0.2,2.8-0.3l0.2,3.6 c-0.9,0.4-2.4,0.7-4.3,0.7c-2.2,0-4-0.7-5.2-2c-1.4-1.4-1.9-3.8-1.9-6.9V75.1h-4.1v-3.7h4.1v-6.3L146.6,63.9z"/><path fill="#FFFFFF" d="M171.4,97.8l-0.4-3.3h-0.2c-1.5,2.1-4.3,3.9-8.1,3.9c-5.4,0-8.1-3.8-8.1-7.6c0-6.4,5.7-9.9,15.9-9.8v-0.5 c0-2.2-0.6-6.1-6-6.1c-2.5,0-5,0.8-6.9,2l-1.1-3.2c2.2-1.4,5.4-2.3,8.7-2.3c8.1,0,10.1,5.5,10.1,10.8v9.9c0,2.3,0.1,4.5,0.4,6.3 H171.4z M170.7,84.4c-5.3-0.1-11.2,0.8-11.2,5.9c0,3.1,2.1,4.6,4.5,4.6c3.4,0,5.6-2.2,6.4-4.4c0.2-0.5,0.3-1,0.3-1.5V84.4z"/></g></g></a></g><a href="https://ourworldindata.org/grapher/natural-disasters-by-type" target="_blank"><text font-size="25.20" x="15.0" y="35.2" fill="#555"><tspan x="15" y="35.160000000000004">Global reported natural disasters by type</tspan></text></a><text font-size="14.40" x="15.0" y="53.7" fill="#666"><tspan x="15" y="53.72">The annual reported number of natural disasters, categorised by type. This includes both weather and non-weather</tspan><tspan x="15" y="69.56">related disasters.</tspan></text></g><g class="StackedBarChart"><defs><clipPath id="boundsClip-172"><rect x="47.216" y="92.1" width="634.8159999999999" height="443.2"></rect></clipPath></defs><rect x="15" y="92.1" width="820" height="464.4" opacity="0" fill="rgba(255,255,255,0)"></rect><g class="VerticalAxis"><text x="42.22" y="535.3" fill="#666" dominant-baseline="middle" text-anchor="end" font-size="16.2">0</text><text x="42.22" y="450.7" fill="#666" dominant-baseline="middle" text-anchor="end" font-size="16.2">100</text><text x="42.22" y="366.1" fill="#666" dominant-baseline="middle" text-anchor="end" font-size="16.2">200</text><text x="42.22" y="281.6" fill="#666" dominant-baseline="middle" text-anchor="end" font-size="16.2">300</text><text x="42.22" y="197" fill="#666" dominant-baseline="middle" text-anchor="end" font-size="16.2">400</text><text x="42.22" y="112.4" fill="#666" dominant-baseline="middle" text-anchor="end" font-size="16.2">500</text></g><g class="AxisGridLines"><line x1="47.22" y1="535.3" x2="682.03" y2="535.3" stroke="#ccc"></line><line x1="47.22" y1="450.7" x2="682.03" y2="450.7" stroke="#ddd" stroke-dasharray="3,2"></line><line x1="47.22" y1="366.1" x2="682.03" y2="366.1" stroke="#ddd" stroke-dasharray="3,2"></line><line x1="47.22" y1="281.6" x2="682.03" y2="281.6" stroke="#ddd" stroke-dasharray="3,2"></line><line x1="47.22" y1="197" x2="682.03" y2="197" stroke="#ddd" stroke-dasharray="3,2"></line><line x1="47.22" y1="112.4" x2="682.03" y2="112.4" stroke="#ddd" stroke-dasharray="3,2"></line></g><g><text x="37.0072" y="553.26" fill="#666" font-size="16.2">1970</text><text x="89.90853333333334" y="553.26" fill="#666" font-size="16.2">1974</text><text x="142.8098666666667" y="553.26" fill="#666" font-size="16.2">1978</text><text x="195.71120000000005" y="553.26" fill="#666" font-size="16.2">1982</text><text x="248.61253333333343" y="553.26" fill="#666" font-size="16.2">1986</text><text x="301.5138666666667" y="553.26" fill="#666" font-size="16.2">1990</text><text x="354.4151999999999" y="553.26" fill="#666" font-size="16.2">1994</text><text x="407.31653333333315" y="553.26" fill="#666" font-size="16.2">1998</text><text x="460.2178666666664" y="553.26" fill="#666" font-size="16.2">2002</text><text x="513.1191999999996" y="553.26" fill="#666" font-size="16.2">2006</text><text x="566.0205333333329" y="553.26" fill="#666" font-size="16.2">2010</text><text x="658.597866666666" y="553.26" fill="#666" font-size="16.2">2017</text></g><g clip-path="url(#boundsClip-172)"><g class="Epidemic_0-segments"><rect x="49.861066666666666" y="531.9" width="10.580266666666665" height="3.3999999999999773" fill="#3360a9" opacity="0.8"></rect><rect x="63.0864" y="533.6" width="10.580266666666665" height="1.6999999999999318" fill="#3360a9" opacity="0.8"></rect><rect x="76.31173333333334" y="534.5" width="10.580266666666665" height="0.7999999999999545" fill="#3360a9" opacity="0.8"></rect><rect x="89.53706666666668" y="535.3" width="10.580266666666665" height="0" fill="#3360a9" opacity="0.8"></rect><rect x="102.76240000000001" y="533.6" width="10.580266666666665" height="1.6999999999999318" fill="#3360a9" opacity="0.8"></rect><rect x="115.98773333333335" y="534.5" width="10.580266666666665" height="0.7999999999999545" fill="#3360a9" opacity="0.8"></rect><rect x="129.2130666666667" y="532.8" width="10.580266666666665" height="2.5" fill="#3360a9" opacity="0.8"></rect><rect x="142.43840000000003" y="516.7" width="10.580266666666665" height="18.59999999999991" fill="#3360a9" opacity="0.8"></rect><rect x="155.66373333333337" y="517.5" width="10.580266666666665" height="17.799999999999955" fill="#3360a9" opacity="0.8"></rect><rect x="168.8890666666667" y="532.8" width="10.580266666666665" height="2.5" fill="#3360a9" opacity="0.8"></rect><rect x="182.11440000000005" y="528.5" width="10.580266666666665" height="6.7999999999999545" fill="#3360a9" opacity="0.8"></rect><rect x="195.33973333333338" y="531.1" width="10.580266666666665" height="4.199999999999932" fill="#3360a9" opacity="0.8"></rect><rect x="208.56506666666672" y="529.4" width="10.580266666666665" height="5.899999999999977" fill="#3360a9" opacity="0.8"></rect><rect x="221.79040000000006" y="529.4" width="10.580266666666665" height="5.899999999999977" fill="#3360a9" opacity="0.8"></rect><rect x="235.0157333333334" y="525.2" width="10.580266666666665" height="10.099999999999909" fill="#3360a9" opacity="0.8"></rect><rect x="248.24106666666674" y="524.3" width="10.580266666666665" height="11" fill="#3360a9" opacity="0.8"></rect><rect x="261.4664000000001" y="526" width="10.580266666666665" height="9.299999999999955" fill="#3360a9" opacity="0.8"></rect><rect x="274.6917333333334" y="514.2" width="10.580266666666665" height="21.09999999999991" fill="#3360a9" opacity="0.8"></rect><rect x="287.9170666666667" y="518.4" width="10.580266666666665" height="16.899999999999977" fill="#3360a9" opacity="0.8"></rect><rect x="301.1424" y="521.8" width="10.580266666666665" height="13.5" fill="#3360a9" opacity="0.8"></rect><rect x="314.3677333333333" y="520.1" width="10.580266666666665" height="15.199999999999932" fill="#3360a9" opacity="0.8"></rect><rect x="327.59306666666663" y="498.9" width="10.580266666666665" height="36.39999999999998" fill="#3360a9" opacity="0.8"></rect><rect x="340.81839999999994" y="511.6" width="10.580266666666665" height="23.699999999999932" fill="#3360a9" opacity="0.8"></rect><rect x="354.04373333333325" y="531.9" width="10.580266666666665" height="3.3999999999999773" fill="#3360a9" opacity="0.8"></rect><rect x="367.26906666666656" y="526.8" width="10.580266666666665" height="8.5" fill="#3360a9" opacity="0.8"></rect><rect x="380.49439999999987" y="514.2" width="10.580266666666665" height="21.09999999999991" fill="#3360a9" opacity="0.8"></rect><rect x="393.7197333333332" y="497.2" width="10.580266666666665" height="38.099999999999966" fill="#3360a9" opacity="0.8"></rect><rect x="406.9450666666665" y="482.9" width="10.580266666666665" height="52.39999999999998" fill="#3360a9" opacity="0.8"></rect><rect x="420.1703999999998" y="473.6" width="10.580266666666665" height="61.69999999999993" fill="#3360a9" opacity="0.8"></rect><rect x="433.3957333333331" y="470.2" width="10.580266666666665" height="65.09999999999997" fill="#3360a9" opacity="0.8"></rect><rect x="446.6210666666664" y="439.7" width="10.580266666666665" height="95.59999999999997" fill="#3360a9" opacity="0.8"></rect><rect x="459.84639999999973" y="476.9" width="10.580266666666665" height="58.39999999999998" fill="#3360a9" opacity="0.8"></rect><rect x="473.07173333333304" y="464.3" width="10.580266666666665" height="70.99999999999994" fill="#3360a9" opacity="0.8"></rect><rect x="486.29706666666635" y="484.6" width="10.580266666666665" height="50.69999999999993" fill="#3360a9" opacity="0.8"></rect><rect x="499.52239999999966" y="504.9" width="10.580266666666665" height="30.399999999999977" fill="#3360a9" opacity="0.8"></rect><rect x="512.747733333333" y="487.9" width="10.580266666666665" height="47.39999999999998" fill="#3360a9" opacity="0.8"></rect><rect x="525.9730666666663" y="484.6" width="10.580266666666665" height="50.69999999999993" fill="#3360a9" opacity="0.8"></rect><rect x="539.1983999999997" y="504.9" width="10.580266666666665" height="30.399999999999977" fill="#3360a9" opacity="0.8"></rect><rect x="552.423733333333" y="499.8" width="10.580266666666665" height="35.49999999999994" fill="#3360a9" opacity="0.8"></rect><rect x="565.6490666666663" y="498.1" width="10.580266666666665" height="37.19999999999993" fill="#3360a9" opacity="0.8"></rect><rect x="578.8743999999996" y="500.6" width="10.580266666666665" height="34.69999999999993" fill="#3360a9" opacity="0.8"></rect><rect x="592.0997333333329" y="512.5" width="10.580266666666665" height="22.799999999999955" fill="#3360a9" opacity="0.8"></rect><rect x="605.3250666666662" y="514.2" width="10.580266666666665" height="21.09999999999991" fill="#3360a9" opacity="0.8"></rect><rect x="618.5503999999995" y="515.8" width="10.580266666666665" height="19.5" fill="#3360a9" opacity="0.8"></rect><rect x="631.7757333333328" y="517.5" width="10.580266666666665" height="17.799999999999955" fill="#3360a9" opacity="0.8"></rect><rect x="645.0010666666661" y="521.8" width="10.580266666666665" height="13.5" fill="#3360a9" opacity="0.8"></rect><rect x="658.2263999999994" y="515.8" width="10.580266666666665" height="19.5" fill="#3360a9" opacity="0.8"></rect><rect x="671.4517333333328" y="522.6" width="10.580266666666665" height="12.699999999999932" fill="#3360a9" opacity="0.8"></rect></g><g class="Flood_0-segments"><rect x="49.861066666666666" y="505.7" width="10.580266666666665" height="26.19999999999999" fill="#2a939b" opacity="0.8"></rect><rect x="63.0864" y="520.9" width="10.580266666666665" height="12.700000000000045" fill="#2a939b" opacity="0.8"></rect><rect x="76.31173333333334" y="521.8" width="10.580266666666665" height="12.700000000000045" fill="#2a939b" opacity="0.8"></rect><rect x="89.53706666666668" y="518.4" width="10.580266666666665" height="16.899999999999977" fill="#2a939b" opacity="0.8"></rect><rect x="102.76240000000001" y="517.5" width="10.580266666666665" height="16.100000000000023" fill="#2a939b" opacity="0.8"></rect><rect x="115.98773333333335" y="520.1" width="10.580266666666665" height="14.399999999999977" fill="#2a939b" opacity="0.8"></rect><rect x="129.2130666666667" y="518.4" width="10.580266666666665" height="14.399999999999977" fill="#2a939b" opacity="0.8"></rect><rect x="142.43840000000003" y="476.1" width="10.580266666666665" height="40.60000000000002" fill="#2a939b" opacity="0.8"></rect><rect x="155.66373333333337" y="477.8" width="10.580266666666665" height="39.69999999999999" fill="#2a939b" opacity="0.8"></rect><rect x="168.8890666666667" y="504" width="10.580266666666665" height="28.799999999999955" fill="#2a939b" opacity="0.8"></rect><rect x="182.11440000000005" y="495.5" width="10.580266666666665" height="33" fill="#2a939b" opacity="0.8"></rect><rect x="195.33973333333338" y="494.7" width="10.580266666666665" height="36.400000000000034" fill="#2a939b" opacity="0.8"></rect><rect x="208.56506666666672" y="488.8" width="10.580266666666665" height="40.599999999999966" fill="#2a939b" opacity="0.8"></rect><rect x="221.79040000000006" y="487.9" width="10.580266666666665" height="41.5" fill="#2a939b" opacity="0.8"></rect><rect x="235.0157333333334" y="485.4" width="10.580266666666665" height="39.80000000000007" fill="#2a939b" opacity="0.8"></rect><rect x="248.24106666666674" y="475.2" width="10.580266666666665" height="49.099999999999966" fill="#2a939b" opacity="0.8"></rect><rect x="261.4664000000001" y="483.7" width="10.580266666666665" height="42.30000000000001" fill="#2a939b" opacity="0.8"></rect><rect x="274.6917333333334" y="456.6" width="10.580266666666665" height="57.60000000000002" fill="#2a939b" opacity="0.8"></rect><rect x="287.9170666666667" y="454.1" width="10.580266666666665" height="64.29999999999995" fill="#2a939b" opacity="0.8"></rect><rect x="301.1424" y="482.9" width="10.580266666666665" height="38.89999999999998" fill="#2a939b" opacity="0.8"></rect><rect x="314.3677333333333" y="469.3" width="10.580266666666665" height="50.80000000000001" fill="#2a939b" opacity="0.8"></rect><rect x="327.59306666666663" y="433.8" width="10.580266666666665" height="65.09999999999997" fill="#2a939b" opacity="0.8"></rect><rect x="340.81839999999994" y="461.7" width="10.580266666666665" height="49.900000000000034" fill="#2a939b" opacity="0.8"></rect><rect x="354.04373333333325" y="460.9" width="10.580266666666665" height="71" fill="#2a939b" opacity="0.8"></rect><rect x="367.26906666666656" y="452.4" width="10.580266666666665" height="74.39999999999998" fill="#2a939b" opacity="0.8"></rect><rect x="380.49439999999987" y="434.6" width="10.580266666666665" height="79.60000000000002" fill="#2a939b" opacity="0.8"></rect><rect x="393.7197333333332" y="419.4" width="10.580266666666665" height="77.80000000000001" fill="#2a939b" opacity="0.8"></rect><rect x="406.9450666666665" y="402.5" width="10.580266666666665" height="80.39999999999998" fill="#2a939b" opacity="0.8"></rect><rect x="420.1703999999998" y="394.1" width="10.580266666666665" height="79.5" fill="#2a939b" opacity="0.8"></rect><rect x="433.3957333333331" y="367" width="10.580266666666665" height="103.19999999999999" fill="#2a939b" opacity="0.8"></rect><rect x="446.6210666666664" y="306.9" width="10.580266666666665" height="132.8" fill="#2a939b" opacity="0.8"></rect><rect x="459.84639999999973" y="344.1" width="10.580266666666665" height="132.79999999999995" fill="#2a939b" opacity="0.8"></rect><rect x="473.07173333333304" y="318.8" width="10.580266666666665" height="145.5" fill="#2a939b" opacity="0.8"></rect><rect x="486.29706666666635" y="350.9" width="10.580266666666665" height="133.70000000000005" fill="#2a939b" opacity="0.8"></rect><rect x="499.52239999999966" y="396.6" width="10.580266666666665" height="108.29999999999995" fill="#2a939b" opacity="0.8"></rect><rect x="512.747733333333" y="324.7" width="10.580266666666665" height="163.2" fill="#2a939b" opacity="0.8"></rect><rect x="525.9730666666663" y="293.4" width="10.580266666666665" height="191.20000000000005" fill="#2a939b" opacity="0.8"></rect><rect x="539.1983999999997" y="320.5" width="10.580266666666665" height="184.39999999999998" fill="#2a939b" opacity="0.8"></rect><rect x="552.423733333333" y="360.2" width="10.580266666666665" height="139.60000000000002" fill="#2a939b" opacity="0.8"></rect><rect x="565.6490666666663" y="370.4" width="10.580266666666665" height="127.70000000000005" fill="#2a939b" opacity="0.8"></rect><rect x="578.8743999999996" y="345" width="10.580266666666665" height="155.60000000000002" fill="#2a939b" opacity="0.8"></rect><rect x="592.0997333333329" y="380.5" width="10.580266666666665" height="132" fill="#2a939b" opacity="0.8"></rect><rect x="605.3250666666662" y="399.1" width="10.580266666666665" height="115.10000000000002" fill="#2a939b" opacity="0.8"></rect><rect x="618.5503999999995" y="389.8" width="10.580266666666665" height="125.99999999999994" fill="#2a939b" opacity="0.8"></rect><rect x="631.7757333333328" y="403.4" width="10.580266666666665" height="114.10000000000002" fill="#2a939b" opacity="0.8"></rect><rect x="645.0010666666661" y="386.4" width="10.580266666666665" height="135.39999999999998" fill="#2a939b" opacity="0.8"></rect><rect x="658.2263999999994" y="379.7" width="10.580266666666665" height="136.09999999999997" fill="#2a939b" opacity="0.8"></rect><rect x="671.4517333333328" y="426.2" width="10.580266666666665" height="96.40000000000003" fill="#2a939b" opacity="0.8"></rect></g><g class="Extreme-weather_0-segments"><rect x="49.861066666666666" y="485.4" width="10.580266666666665" height="20.30000000000001" fill="#e6332e" opacity="0.8"></rect><rect x="63.0864" y="502.3" width="10.580266666666665" height="18.599999999999966" fill="#e6332e" opacity="0.8"></rect><rect x="76.31173333333334" y="499.8" width="10.580266666666665" height="21.999999999999943" fill="#e6332e" opacity="0.8"></rect><rect x="89.53706666666668" y="499.8" width="10.580266666666665" height="18.599999999999966" fill="#e6332e" opacity="0.8"></rect><rect x="102.76240000000001" y="493.9" width="10.580266666666665" height="23.600000000000023" fill="#e6332e" opacity="0.8"></rect><rect x="115.98773333333335" y="496.4" width="10.580266666666665" height="23.700000000000045" fill="#e6332e" opacity="0.8"></rect><rect x="129.2130666666667" y="487.9" width="10.580266666666665" height="30.5" fill="#e6332e" opacity="0.8"></rect><rect x="142.43840000000003" y="449" width="10.580266666666665" height="27.100000000000023" fill="#e6332e" opacity="0.8"></rect><rect x="155.66373333333337" y="442.3" width="10.580266666666665" height="35.5" fill="#e6332e" opacity="0.8"></rect><rect x="168.8890666666667" y="477.8" width="10.580266666666665" height="26.19999999999999" fill="#e6332e" opacity="0.8"></rect><rect x="182.11440000000005" y="460" width="10.580266666666665" height="35.5" fill="#e6332e" opacity="0.8"></rect><rect x="195.33973333333338" y="452.4" width="10.580266666666665" height="42.30000000000001" fill="#e6332e" opacity="0.8"></rect><rect x="208.56506666666672" y="444.8" width="10.580266666666665" height="44" fill="#e6332e" opacity="0.8"></rect><rect x="221.79040000000006" y="438" width="10.580266666666665" height="49.89999999999998" fill="#e6332e" opacity="0.8"></rect><rect x="235.0157333333334" y="437.2" width="10.580266666666665" height="48.19999999999999" fill="#e6332e" opacity="0.8"></rect><rect x="248.24106666666674" y="432.1" width="10.580266666666665" height="43.099999999999966" fill="#e6332e" opacity="0.8"></rect><rect x="261.4664000000001" y="436.3" width="10.580266666666665" height="47.39999999999998" fill="#e6332e" opacity="0.8"></rect><rect x="274.6917333333334" y="407.6" width="10.580266666666665" height="49" fill="#e6332e" opacity="0.8"></rect><rect x="287.9170666666667" y="403.4" width="10.580266666666665" height="50.700000000000045" fill="#e6332e" opacity="0.8"></rect><rect x="301.1424" y="421.1" width="10.580266666666665" height="61.799999999999955" fill="#e6332e" opacity="0.8"></rect><rect x="314.3677333333333" y="353.5" width="10.580266666666665" height="115.80000000000001" fill="#e6332e" opacity="0.8"></rect><rect x="327.59306666666663" y="378" width="10.580266666666665" height="55.80000000000001" fill="#e6332e" opacity="0.8"></rect><rect x="340.81839999999994" y="397.4" width="10.580266666666665" height="64.30000000000001" fill="#e6332e" opacity="0.8"></rect><rect x="354.04373333333325" y="369.5" width="10.580266666666665" height="91.39999999999998" fill="#e6332e" opacity="0.8"></rect><rect x="367.26906666666656" y="383.9" width="10.580266666666665" height="68.5" fill="#e6332e" opacity="0.8"></rect><rect x="380.49439999999987" y="366.1" width="10.580266666666665" height="68.5" fill="#e6332e" opacity="0.8"></rect><rect x="393.7197333333332" y="354.3" width="10.580266666666665" height="65.09999999999997" fill="#e6332e" opacity="0.8"></rect><rect x="406.9450666666665" y="335.7" width="10.580266666666665" height="66.80000000000001" fill="#e6332e" opacity="0.8"></rect><rect x="420.1703999999998" y="319.6" width="10.580266666666665" height="74.5" fill="#e6332e" opacity="0.8"></rect><rect x="433.3957333333331" y="277.3" width="10.580266666666665" height="89.69999999999999" fill="#e6332e" opacity="0.8"></rect><rect x="446.6210666666664" y="220.7" width="10.580266666666665" height="86.19999999999999" fill="#e6332e" opacity="0.8"></rect><rect x="459.84639999999973" y="255.3" width="10.580266666666665" height="88.80000000000001" fill="#e6332e" opacity="0.8"></rect><rect x="473.07173333333304" y="215.6" width="10.580266666666665" height="103.20000000000002" fill="#e6332e" opacity="0.8"></rect><rect x="486.29706666666635" y="278.2" width="10.580266666666665" height="72.69999999999999" fill="#e6332e" opacity="0.8"></rect><rect x="499.52239999999966" y="291.7" width="10.580266666666665" height="104.90000000000003" fill="#e6332e" opacity="0.8"></rect><rect x="512.747733333333" y="214.7" width="10.580266666666665" height="110" fill="#e6332e" opacity="0.8"></rect><rect x="525.9730666666663" y="229.1" width="10.580266666666665" height="64.29999999999998" fill="#e6332e" opacity="0.8"></rect><rect x="539.1983999999997" y="231.7" width="10.580266666666665" height="88.80000000000001" fill="#e6332e" opacity="0.8"></rect><rect x="552.423733333333" y="266.3" width="10.580266666666665" height="93.89999999999998" fill="#e6332e" opacity="0.8"></rect><rect x="565.6490666666663" y="296.8" width="10.580266666666665" height="73.59999999999997" fill="#e6332e" opacity="0.8"></rect><rect x="578.8743999999996" y="265.5" width="10.580266666666665" height="79.5" fill="#e6332e" opacity="0.8"></rect><rect x="592.0997333333329" y="309.5" width="10.580266666666665" height="71" fill="#e6332e" opacity="0.8"></rect><rect x="605.3250666666662" y="323" width="10.580266666666665" height="76.10000000000002" fill="#e6332e" opacity="0.8"></rect><rect x="618.5503999999995" y="301" width="10.580266666666665" height="88.80000000000001" fill="#e6332e" opacity="0.8"></rect><rect x="631.7757333333328" y="319.6" width="10.580266666666665" height="83.79999999999995" fill="#e6332e" opacity="0.8"></rect><rect x="645.0010666666661" y="286.6" width="10.580266666666665" height="99.79999999999995" fill="#e6332e" opacity="0.8"></rect><rect x="658.2263999999994" y="308.6" width="10.580266666666665" height="71.09999999999997" fill="#e6332e" opacity="0.8"></rect><rect x="671.4517333333328" y="354.3" width="10.580266666666665" height="71.89999999999998" fill="#e6332e" opacity="0.8"></rect></g><g class="Drought_0-segments"><rect x="49.861066666666666" y="483.7" width="10.580266666666665" height="1.6999999999999886" fill="#ca2628" opacity="0.8"></rect><rect x="63.0864" y="496.4" width="10.580266666666665" height="5.900000000000034" fill="#ca2628" opacity="0.8"></rect><rect x="76.31173333333334" y="493.9" width="10.580266666666665" height="5.900000000000034" fill="#ca2628" opacity="0.8"></rect><rect x="89.53706666666668" y="498.1" width="10.580266666666665" height="1.6999999999999886" fill="#ca2628" opacity="0.8"></rect><rect x="102.76240000000001" y="490.5" width="10.580266666666665" height="3.3999999999999773" fill="#ca2628" opacity="0.8"></rect><rect x="115.98773333333335" y="495.5" width="10.580266666666665" height="0.8999999999999773" fill="#ca2628" opacity="0.8"></rect><rect x="129.2130666666667" y="482.9" width="10.580266666666665" height="5" fill="#ca2628" opacity="0.8"></rect><rect x="142.43840000000003" y="435.5" width="10.580266666666665" height="13.5" fill="#ca2628" opacity="0.8"></rect><rect x="155.66373333333337" y="434.6" width="10.580266666666665" height="7.699999999999989" fill="#ca2628" opacity="0.8"></rect><rect x="168.8890666666667" y="468.5" width="10.580266666666665" height="9.300000000000011" fill="#ca2628" opacity="0.8"></rect><rect x="182.11440000000005" y="448.2" width="10.580266666666665" height="11.800000000000011" fill="#ca2628" opacity="0.8"></rect><rect x="195.33973333333338" y="441.4" width="10.580266666666665" height="11" fill="#ca2628" opacity="0.8"></rect><rect x="208.56506666666672" y="433.8" width="10.580266666666665" height="11" fill="#ca2628" opacity="0.8"></rect><rect x="221.79040000000006" y="411" width="10.580266666666665" height="27" fill="#ca2628" opacity="0.8"></rect><rect x="235.0157333333334" y="430.4" width="10.580266666666665" height="6.800000000000011" fill="#ca2628" opacity="0.8"></rect><rect x="248.24106666666674" y="429.6" width="10.580266666666665" height="2.5" fill="#ca2628" opacity="0.8"></rect><rect x="261.4664000000001" y="433" width="10.580266666666665" height="3.3000000000000114" fill="#ca2628" opacity="0.8"></rect><rect x="274.6917333333334" y="394.9" width="10.580266666666665" height="12.700000000000045" fill="#ca2628" opacity="0.8"></rect><rect x="287.9170666666667" y="389" width="10.580266666666665" height="14.399999999999977" fill="#ca2628" opacity="0.8"></rect><rect x="301.1424" y="415.2" width="10.580266666666665" height="5.900000000000034" fill="#ca2628" opacity="0.8"></rect><rect x="314.3677333333333" y="343.3" width="10.580266666666665" height="10.199999999999989" fill="#ca2628" opacity="0.8"></rect><rect x="327.59306666666663" y="362.8" width="10.580266666666665" height="15.199999999999989" fill="#ca2628" opacity="0.8"></rect><rect x="340.81839999999994" y="387.3" width="10.580266666666665" height="10.099999999999966" fill="#ca2628" opacity="0.8"></rect><rect x="354.04373333333325" y="361.9" width="10.580266666666665" height="7.600000000000023" fill="#ca2628" opacity="0.8"></rect><rect x="367.26906666666656" y="372.9" width="10.580266666666665" height="11" fill="#ca2628" opacity="0.8"></rect><rect x="380.49439999999987" y="361.1" width="10.580266666666665" height="5" fill="#ca2628" opacity="0.8"></rect><rect x="393.7197333333332" y="349.2" width="10.580266666666665" height="5.100000000000023" fill="#ca2628" opacity="0.8"></rect><rect x="406.9450666666665" y="320.5" width="10.580266666666665" height="15.199999999999989" fill="#ca2628" opacity="0.8"></rect><rect x="420.1703999999998" y="302.7" width="10.580266666666665" height="16.900000000000034" fill="#ca2628" opacity="0.8"></rect><rect x="433.3957333333331" y="257.9" width="10.580266666666665" height="19.400000000000034" fill="#ca2628" opacity="0.8"></rect><rect x="446.6210666666664" y="197.8" width="10.580266666666665" height="22.899999999999977" fill="#ca2628" opacity="0.8"></rect><rect x="459.84639999999973" y="236.7" width="10.580266666666665" height="18.600000000000023" fill="#ca2628" opacity="0.8"></rect><rect x="473.07173333333304" y="194.4" width="10.580266666666665" height="21.19999999999999" fill="#ca2628" opacity="0.8"></rect><rect x="486.29706666666635" y="266.3" width="10.580266666666665" height="11.899999999999977" fill="#ca2628" opacity="0.8"></rect><rect x="499.52239999999966" y="282.4" width="10.580266666666665" height="9.300000000000011" fill="#ca2628" opacity="0.8"></rect><rect x="512.747733333333" y="197.8" width="10.580266666666665" height="16.899999999999977" fill="#ca2628" opacity="0.8"></rect><rect x="525.9730666666663" y="221.5" width="10.580266666666665" height="7.599999999999994" fill="#ca2628" opacity="0.8"></rect><rect x="539.1983999999997" y="222.4" width="10.580266666666665" height="9.299999999999983" fill="#ca2628" opacity="0.8"></rect><rect x="552.423733333333" y="252.8" width="10.580266666666665" height="13.5" fill="#ca2628" opacity="0.8"></rect><rect x="565.6490666666663" y="281.6" width="10.580266666666665" height="15.199999999999989" fill="#ca2628" opacity="0.8"></rect><rect x="578.8743999999996" y="251.1" width="10.580266666666665" height="14.400000000000006" fill="#ca2628" opacity="0.8"></rect><rect x="592.0997333333329" y="295.1" width="10.580266666666665" height="14.399999999999977" fill="#ca2628" opacity="0.8"></rect><rect x="605.3250666666662" y="305.2" width="10.580266666666665" height="17.80000000000001" fill="#ca2628" opacity="0.8"></rect><rect x="618.5503999999995" y="293.4" width="10.580266666666665" height="7.600000000000023" fill="#ca2628" opacity="0.8"></rect><rect x="631.7757333333328" y="304.4" width="10.580266666666665" height="15.200000000000045" fill="#ca2628" opacity="0.8"></rect><rect x="645.0010666666661" y="263" width="10.580266666666665" height="23.600000000000023" fill="#ca2628" opacity="0.8"></rect><rect x="658.2263999999994" y="295.9" width="10.580266666666665" height="12.700000000000045" fill="#ca2628" opacity="0.8"></rect><rect x="671.4517333333328" y="348.4" width="10.580266666666665" height="5.900000000000034" fill="#ca2628" opacity="0.8"></rect></g><g class="Extreme-temperature_0-segments"><rect x="49.861066666666666" y="483.7" width="10.580266666666665" height="0" fill="rgb(229, 126, 51)" opacity="0.8"></rect><rect x="63.0864" y="495.5" width="10.580266666666665" height="0.8999999999999773" fill="rgb(229, 126, 51)" opacity="0.8"></rect><rect x="76.31173333333334" y="492.2" width="10.580266666666665" height="1.6999999999999886" fill="rgb(229, 126, 51)" opacity="0.8"></rect><rect x="89.53706666666668" y="495.5" width="10.580266666666665" height="2.6000000000000227" fill="rgb(229, 126, 51)" opacity="0.8"></rect><rect x="102.76240000000001" y="490.5" width="10.580266666666665" height="0" fill="rgb(229, 126, 51)" opacity="0.8"></rect><rect x="115.98773333333335" y="493" width="10.580266666666665" height="2.5" fill="rgb(229, 126, 51)" opacity="0.8"></rect><rect x="129.2130666666667" y="482.9" width="10.580266666666665" height="0" fill="rgb(229, 126, 51)" opacity="0.8"></rect><rect x="142.43840000000003" y="434.6" width="10.580266666666665" height="0.8999999999999773" fill="rgb(229, 126, 51)" opacity="0.8"></rect><rect x="155.66373333333337" y="433.8" width="10.580266666666665" height="0.8000000000000114" fill="rgb(229, 126, 51)" opacity="0.8"></rect><rect x="168.8890666666667" y="465.1" width="10.580266666666665" height="3.3999999999999773" fill="rgb(229, 126, 51)" opacity="0.8"></rect><rect x="182.11440000000005" y="445.6" width="10.580266666666665" height="2.599999999999966" fill="rgb(229, 126, 51)" opacity="0.8"></rect><rect x="195.33973333333338" y="439.7" width="10.580266666666665" height="1.6999999999999886" fill="rgb(229, 126, 51)" opacity="0.8"></rect><rect x="208.56506666666672" y="431.3" width="10.580266666666665" height="2.5" fill="rgb(229, 126, 51)" opacity="0.8"></rect><rect x="221.79040000000006" y="409.3" width="10.580266666666665" height="1.6999999999999886" fill="rgb(229, 126, 51)" opacity="0.8"></rect><rect x="235.0157333333334" y="429.6" width="10.580266666666665" height="0.7999999999999545" fill="rgb(229, 126, 51)" opacity="0.8"></rect><rect x="248.24106666666674" y="422.8" width="10.580266666666665" height="6.800000000000011" fill="rgb(229, 126, 51)" opacity="0.8"></rect><rect x="261.4664000000001" y="431.3" width="10.580266666666665" height="1.6999999999999886" fill="rgb(229, 126, 51)" opacity="0.8"></rect><rect x="274.6917333333334" y="389.8" width="10.580266666666665" height="5.099999999999966" fill="rgb(229, 126, 51)" opacity="0.8"></rect><rect x="287.9170666666667" y="383.9" width="10.580266666666665" height="5.100000000000023" fill="rgb(229, 126, 51)" opacity="0.8"></rect><rect x="301.1424" y="411" width="10.580266666666665" height="4.199999999999989" fill="rgb(229, 126, 51)" opacity="0.8"></rect><rect x="314.3677333333333" y="332.3" width="10.580266666666665" height="11" fill="rgb(229, 126, 51)" opacity="0.8"></rect><rect x="327.59306666666663" y="356" width="10.580266666666665" height="6.800000000000011" fill="rgb(229, 126, 51)" opacity="0.8"></rect><rect x="340.81839999999994" y="381.4" width="10.580266666666665" height="5.900000000000034" fill="rgb(229, 126, 51)" opacity="0.8"></rect><rect x="354.04373333333325" y="358.5" width="10.580266666666665" height="3.3999999999999773" fill="rgb(229, 126, 51)" opacity="0.8"></rect><rect x="367.26906666666656" y="365.3" width="10.580266666666665" height="7.599999999999966" fill="rgb(229, 126, 51)" opacity="0.8"></rect><rect x="380.49439999999987" y="350.1" width="10.580266666666665" height="11" fill="rgb(229, 126, 51)" opacity="0.8"></rect><rect x="393.7197333333332" y="345" width="10.580266666666665" height="4.199999999999989" fill="rgb(229, 126, 51)" opacity="0.8"></rect><rect x="406.9450666666665" y="309.5" width="10.580266666666665" height="11" fill="rgb(229, 126, 51)" opacity="0.8"></rect><rect x="420.1703999999998" y="292.6" width="10.580266666666665" height="10.099999999999966" fill="rgb(229, 126, 51)" opacity="0.8"></rect><rect x="433.3957333333331" y="251.1" width="10.580266666666665" height="6.799999999999983" fill="rgb(229, 126, 51)" opacity="0.8"></rect><rect x="446.6210666666664" y="171.6" width="10.580266666666665" height="26.200000000000017" fill="rgb(229, 126, 51)" opacity="0.8"></rect><rect x="459.84639999999973" y="217.3" width="10.580266666666665" height="19.399999999999977" fill="rgb(229, 126, 51)" opacity="0.8"></rect><rect x="473.07173333333304" y="181.8" width="10.580266666666665" height="12.599999999999994" fill="rgb(229, 126, 51)" opacity="0.8"></rect><rect x="486.29706666666635" y="245.2" width="10.580266666666665" height="21.100000000000023" fill="rgb(229, 126, 51)" opacity="0.8"></rect><rect x="499.52239999999966" y="268.9" width="10.580266666666665" height="13.5" fill="rgb(229, 126, 51)" opacity="0.8"></rect><rect x="512.747733333333" y="172.5" width="10.580266666666665" height="25.30000000000001" fill="rgb(229, 126, 51)" opacity="0.8"></rect><rect x="525.9730666666663" y="201.2" width="10.580266666666665" height="20.30000000000001" fill="rgb(229, 126, 51)" opacity="0.8"></rect><rect x="539.1983999999997" y="201.2" width="10.580266666666665" height="21.200000000000017" fill="rgb(229, 126, 51)" opacity="0.8"></rect><rect x="552.423733333333" y="244.3" width="10.580266666666665" height="8.5" fill="rgb(229, 126, 51)" opacity="0.8"></rect><rect x="565.6490666666663" y="260.4" width="10.580266666666665" height="21.200000000000045" fill="rgb(229, 126, 51)" opacity="0.8"></rect><rect x="578.8743999999996" y="226.6" width="10.580266666666665" height="24.5" fill="rgb(229, 126, 51)" opacity="0.8"></rect><rect x="592.0997333333329" y="281.6" width="10.580266666666665" height="13.5" fill="rgb(229, 126, 51)" opacity="0.8"></rect><rect x="605.3250666666662" y="262.1" width="10.580266666666665" height="43.099999999999966" fill="rgb(229, 126, 51)" opacity="0.8"></rect><rect x="618.5503999999995" y="281.6" width="10.580266666666665" height="11.799999999999955" fill="rgb(229, 126, 51)" opacity="0.8"></rect><rect x="631.7757333333328" y="290" width="10.580266666666665" height="14.399999999999977" fill="rgb(229, 126, 51)" opacity="0.8"></rect><rect x="645.0010666666661" y="252.8" width="10.580266666666665" height="10.199999999999989" fill="rgb(229, 126, 51)" opacity="0.8"></rect><rect x="658.2263999999994" y="285.8" width="10.580266666666665" height="10.099999999999966" fill="rgb(229, 126, 51)" opacity="0.8"></rect><rect x="671.4517333333328" y="339.1" width="10.580266666666665" height="9.299999999999955" fill="rgb(229, 126, 51)" opacity="0.8"></rect></g><g class="Earthquake_0-segments"><rect x="49.861066666666666" y="474.4" width="10.580266666666665" height="9.300000000000011" fill="#ffd53e" opacity="0.8"></rect><rect x="63.0864" y="491.3" width="10.580266666666665" height="4.199999999999989" fill="#ffd53e" opacity="0.8"></rect><rect x="76.31173333333334" y="487.9" width="10.580266666666665" height="4.300000000000011" fill="#ffd53e" opacity="0.8"></rect><rect x="89.53706666666668" y="492.2" width="10.580266666666665" height="3.3000000000000114" fill="#ffd53e" opacity="0.8"></rect><rect x="102.76240000000001" y="487.1" width="10.580266666666665" height="3.3999999999999773" fill="#ffd53e" opacity="0.8"></rect><rect x="115.98773333333335" y="489.6" width="10.580266666666665" height="3.3999999999999773" fill="#ffd53e" opacity="0.8"></rect><rect x="129.2130666666667" y="465.9" width="10.580266666666665" height="17" fill="#ffd53e" opacity="0.8"></rect><rect x="142.43840000000003" y="422.8" width="10.580266666666665" height="11.800000000000011" fill="#ffd53e" opacity="0.8"></rect><rect x="155.66373333333337" y="426.2" width="10.580266666666665" height="7.600000000000023" fill="#ffd53e" opacity="0.8"></rect><rect x="168.8890666666667" y="444" width="10.580266666666665" height="21.100000000000023" fill="#ffd53e" opacity="0.8"></rect><rect x="182.11440000000005" y="425.3" width="10.580266666666665" height="20.30000000000001" fill="#ffd53e" opacity="0.8"></rect><rect x="195.33973333333338" y="425.3" width="10.580266666666665" height="14.399999999999977" fill="#ffd53e" opacity="0.8"></rect><rect x="208.56506666666672" y="416" width="10.580266666666665" height="15.300000000000011" fill="#ffd53e" opacity="0.8"></rect><rect x="221.79040000000006" y="388.1" width="10.580266666666665" height="21.19999999999999" fill="#ffd53e" opacity="0.8"></rect><rect x="235.0157333333334" y="418.6" width="10.580266666666665" height="11" fill="#ffd53e" opacity="0.8"></rect><rect x="248.24106666666674" y="404.2" width="10.580266666666665" height="18.600000000000023" fill="#ffd53e" opacity="0.8"></rect><rect x="261.4664000000001" y="413.5" width="10.580266666666665" height="17.80000000000001" fill="#ffd53e" opacity="0.8"></rect><rect x="274.6917333333334" y="373.8" width="10.580266666666665" height="16" fill="#ffd53e" opacity="0.8"></rect><rect x="287.9170666666667" y="368.7" width="10.580266666666665" height="15.199999999999989" fill="#ffd53e" opacity="0.8"></rect><rect x="301.1424" y="394.9" width="10.580266666666665" height="16.100000000000023" fill="#ffd53e" opacity="0.8"></rect><rect x="314.3677333333333" y="295.9" width="10.580266666666665" height="36.400000000000034" fill="#ffd53e" opacity="0.8"></rect><rect x="327.59306666666663" y="331.5" width="10.580266666666665" height="24.5" fill="#ffd53e" opacity="0.8"></rect><rect x="340.81839999999994" y="360.2" width="10.580266666666665" height="21.19999999999999" fill="#ffd53e" opacity="0.8"></rect><rect x="354.04373333333325" y="341.6" width="10.580266666666665" height="16.899999999999977" fill="#ffd53e" opacity="0.8"></rect><rect x="367.26906666666656" y="344.1" width="10.580266666666665" height="21.19999999999999" fill="#ffd53e" opacity="0.8"></rect><rect x="380.49439999999987" y="328.1" width="10.580266666666665" height="22" fill="#ffd53e" opacity="0.8"></rect><rect x="393.7197333333332" y="334" width="10.580266666666665" height="11" fill="#ffd53e" opacity="0.8"></rect><rect x="406.9450666666665" y="290" width="10.580266666666665" height="19.5" fill="#ffd53e" opacity="0.8"></rect><rect x="420.1703999999998" y="267.2" width="10.580266666666665" height="25.400000000000034" fill="#ffd53e" opacity="0.8"></rect><rect x="433.3957333333331" y="223.2" width="10.580266666666665" height="27.900000000000006" fill="#ffd53e" opacity="0.8"></rect><rect x="446.6210666666664" y="146.2" width="10.580266666666665" height="25.400000000000006" fill="#ffd53e" opacity="0.8"></rect><rect x="459.84639999999973" y="196.1" width="10.580266666666665" height="21.200000000000017" fill="#ffd53e" opacity="0.8"></rect><rect x="473.07173333333304" y="150.5" width="10.580266666666665" height="31.30000000000001" fill="#ffd53e" opacity="0.8"></rect><rect x="486.29706666666635" y="211.4" width="10.580266666666665" height="33.79999999999998" fill="#ffd53e" opacity="0.8"></rect><rect x="499.52239999999966" y="233.3" width="10.580266666666665" height="35.599999999999966" fill="#ffd53e" opacity="0.8"></rect><rect x="512.747733333333" y="151.3" width="10.580266666666665" height="21.19999999999999" fill="#ffd53e" opacity="0.8"></rect><rect x="525.9730666666663" y="180.9" width="10.580266666666665" height="20.299999999999983" fill="#ffd53e" opacity="0.8"></rect><rect x="539.1983999999997" y="183.4" width="10.580266666666665" height="17.799999999999983" fill="#ffd53e" opacity="0.8"></rect><rect x="552.423733333333" y="224.9" width="10.580266666666665" height="19.400000000000006" fill="#ffd53e" opacity="0.8"></rect><rect x="565.6490666666663" y="241.8" width="10.580266666666665" height="18.599999999999966" fill="#ffd53e" opacity="0.8"></rect><rect x="578.8743999999996" y="206.3" width="10.580266666666665" height="20.299999999999983" fill="#ffd53e" opacity="0.8"></rect><rect x="592.0997333333329" y="256.2" width="10.580266666666665" height="25.400000000000034" fill="#ffd53e" opacity="0.8"></rect><rect x="605.3250666666662" y="239.3" width="10.580266666666665" height="22.80000000000001" fill="#ffd53e" opacity="0.8"></rect><rect x="618.5503999999995" y="257" width="10.580266666666665" height="24.600000000000023" fill="#ffd53e" opacity="0.8"></rect><rect x="631.7757333333328" y="268" width="10.580266666666665" height="22" fill="#ffd53e" opacity="0.8"></rect><rect x="645.0010666666661" y="233.3" width="10.580266666666665" height="19.5" fill="#ffd53e" opacity="0.8"></rect><rect x="658.2263999999994" y="260.4" width="10.580266666666665" height="25.400000000000034" fill="#ffd53e" opacity="0.8"></rect><rect x="671.4517333333328" y="323" width="10.580266666666665" height="16.100000000000023" fill="#ffd53e" opacity="0.8"></rect></g><g class="Landslide_0-segments"><rect x="49.861066666666666" y="470.2" width="10.580266666666665" height="4.199999999999989" fill="rgb(207, 209, 100)" opacity="0.8"></rect><rect x="63.0864" y="487.1" width="10.580266666666665" height="4.199999999999989" fill="rgb(207, 209, 100)" opacity="0.8"></rect><rect x="76.31173333333334" y="483.7" width="10.580266666666665" height="4.199999999999989" fill="rgb(207, 209, 100)" opacity="0.8"></rect><rect x="89.53706666666668" y="487.9" width="10.580266666666665" height="4.300000000000011" fill="rgb(207, 209, 100)" opacity="0.8"></rect><rect x="102.76240000000001" y="478.6" width="10.580266666666665" height="8.5" fill="rgb(207, 209, 100)" opacity="0.8"></rect><rect x="115.98773333333335" y="485.4" width="10.580266666666665" height="4.2000000000000455" fill="rgb(207, 209, 100)" opacity="0.8"></rect><rect x="129.2130666666667" y="460.9" width="10.580266666666665" height="5" fill="rgb(207, 209, 100)" opacity="0.8"></rect><rect x="142.43840000000003" y="420.3" width="10.580266666666665" height="2.5" fill="rgb(207, 209, 100)" opacity="0.8"></rect><rect x="155.66373333333337" y="424.5" width="10.580266666666665" height="1.6999999999999886" fill="rgb(207, 209, 100)" opacity="0.8"></rect><rect x="168.8890666666667" y="438" width="10.580266666666665" height="6" fill="rgb(207, 209, 100)" opacity="0.8"></rect><rect x="182.11440000000005" y="422" width="10.580266666666665" height="3.3000000000000114" fill="rgb(207, 209, 100)" opacity="0.8"></rect><rect x="195.33973333333338" y="418.6" width="10.580266666666665" height="6.699999999999989" fill="rgb(207, 209, 100)" opacity="0.8"></rect><rect x="208.56506666666672" y="406.7" width="10.580266666666665" height="9.300000000000011" fill="rgb(207, 209, 100)" opacity="0.8"></rect><rect x="221.79040000000006" y="375.4" width="10.580266666666665" height="12.700000000000045" fill="rgb(207, 209, 100)" opacity="0.8"></rect><rect x="235.0157333333334" y="413.5" width="10.580266666666665" height="5.100000000000023" fill="rgb(207, 209, 100)" opacity="0.8"></rect><rect x="248.24106666666674" y="399.1" width="10.580266666666665" height="5.099999999999966" fill="rgb(207, 209, 100)" opacity="0.8"></rect><rect x="261.4664000000001" y="405.9" width="10.580266666666665" height="7.600000000000023" fill="rgb(207, 209, 100)" opacity="0.8"></rect><rect x="274.6917333333334" y="362.8" width="10.580266666666665" height="11" fill="rgb(207, 209, 100)" opacity="0.8"></rect><rect x="287.9170666666667" y="356" width="10.580266666666665" height="12.699999999999989" fill="rgb(207, 209, 100)" opacity="0.8"></rect><rect x="301.1424" y="382.2" width="10.580266666666665" height="12.699999999999989" fill="rgb(207, 209, 100)" opacity="0.8"></rect><rect x="314.3677333333333" y="292.6" width="10.580266666666665" height="3.2999999999999545" fill="rgb(207, 209, 100)" opacity="0.8"></rect><rect x="327.59306666666663" y="323.8" width="10.580266666666665" height="7.699999999999989" fill="rgb(207, 209, 100)" opacity="0.8"></rect><rect x="340.81839999999994" y="354.3" width="10.580266666666665" height="5.899999999999977" fill="rgb(207, 209, 100)" opacity="0.8"></rect><rect x="354.04373333333325" y="323" width="10.580266666666665" height="18.600000000000023" fill="rgb(207, 209, 100)" opacity="0.8"></rect><rect x="367.26906666666656" y="334.8" width="10.580266666666665" height="9.300000000000011" fill="rgb(207, 209, 100)" opacity="0.8"></rect><rect x="380.49439999999987" y="314.5" width="10.580266666666665" height="13.600000000000023" fill="rgb(207, 209, 100)" opacity="0.8"></rect><rect x="393.7197333333332" y="313.7" width="10.580266666666665" height="20.30000000000001" fill="rgb(207, 209, 100)" opacity="0.8"></rect><rect x="406.9450666666665" y="279" width="10.580266666666665" height="11" fill="rgb(207, 209, 100)" opacity="0.8"></rect><rect x="420.1703999999998" y="248.6" width="10.580266666666665" height="18.599999999999994" fill="rgb(207, 209, 100)" opacity="0.8"></rect><rect x="433.3957333333331" y="208" width="10.580266666666665" height="15.199999999999989" fill="rgb(207, 209, 100)" opacity="0.8"></rect><rect x="446.6210666666664" y="122.5" width="10.580266666666665" height="23.69999999999999" fill="rgb(207, 209, 100)" opacity="0.8"></rect><rect x="459.84639999999973" y="175.8" width="10.580266666666665" height="20.299999999999983" fill="rgb(207, 209, 100)" opacity="0.8"></rect><rect x="473.07173333333304" y="133.5" width="10.580266666666665" height="17" fill="rgb(207, 209, 100)" opacity="0.8"></rect><rect x="486.29706666666635" y="193.6" width="10.580266666666665" height="17.80000000000001" fill="rgb(207, 209, 100)" opacity="0.8"></rect><rect x="499.52239999999966" y="220.7" width="10.580266666666665" height="12.600000000000023" fill="rgb(207, 209, 100)" opacity="0.8"></rect><rect x="512.747733333333" y="140.3" width="10.580266666666665" height="11" fill="rgb(207, 209, 100)" opacity="0.8"></rect><rect x="525.9730666666663" y="164" width="10.580266666666665" height="16.900000000000006" fill="rgb(207, 209, 100)" opacity="0.8"></rect><rect x="539.1983999999997" y="175" width="10.580266666666665" height="8.400000000000006" fill="rgb(207, 209, 100)" opacity="0.8"></rect><rect x="552.423733333333" y="214.7" width="10.580266666666665" height="10.200000000000017" fill="rgb(207, 209, 100)" opacity="0.8"></rect><rect x="565.6490666666663" y="217.3" width="10.580266666666665" height="24.5" fill="rgb(207, 209, 100)" opacity="0.8"></rect><rect x="578.8743999999996" y="179.2" width="10.580266666666665" height="27.100000000000023" fill="rgb(207, 209, 100)" opacity="0.8"></rect><rect x="592.0997333333329" y="241.8" width="10.580266666666665" height="14.399999999999977" fill="rgb(207, 209, 100)" opacity="0.8"></rect><rect x="605.3250666666662" y="228.3" width="10.580266666666665" height="11" fill="rgb(207, 209, 100)" opacity="0.8"></rect><rect x="618.5503999999995" y="247.7" width="10.580266666666665" height="9.300000000000011" fill="rgb(207, 209, 100)" opacity="0.8"></rect><rect x="631.7757333333328" y="255.3" width="10.580266666666665" height="12.699999999999989" fill="rgb(207, 209, 100)" opacity="0.8"></rect><rect x="645.0010666666661" y="216.4" width="10.580266666666665" height="16.900000000000006" fill="rgb(207, 209, 100)" opacity="0.8"></rect><rect x="658.2263999999994" y="249.4" width="10.580266666666665" height="10.999999999999972" fill="rgb(207, 209, 100)" opacity="0.8"></rect><rect x="671.4517333333328" y="301.9" width="10.580266666666665" height="21.100000000000023" fill="rgb(207, 209, 100)" opacity="0.8"></rect></g><g class="Wildfire_0-segments"><rect x="49.861066666666666" y="467.6" width="10.580266666666665" height="2.599999999999966" fill="#9ecc8a" opacity="0.8"></rect><rect x="63.0864" y="485.4" width="10.580266666666665" height="1.7000000000000455" fill="#9ecc8a" opacity="0.8"></rect><rect x="76.31173333333334" y="481.2" width="10.580266666666665" height="2.5" fill="#9ecc8a" opacity="0.8"></rect><rect x="89.53706666666668" y="485.4" width="10.580266666666665" height="2.5" fill="#9ecc8a" opacity="0.8"></rect><rect x="102.76240000000001" y="476.1" width="10.580266666666665" height="2.5" fill="#9ecc8a" opacity="0.8"></rect><rect x="115.98773333333335" y="483.7" width="10.580266666666665" height="1.6999999999999886" fill="#9ecc8a" opacity="0.8"></rect><rect x="129.2130666666667" y="460" width="10.580266666666665" height="0.8999999999999773" fill="#9ecc8a" opacity="0.8"></rect><rect x="142.43840000000003" y="418.6" width="10.580266666666665" height="1.6999999999999886" fill="#9ecc8a" opacity="0.8"></rect><rect x="155.66373333333337" y="422" width="10.580266666666665" height="2.5" fill="#9ecc8a" opacity="0.8"></rect><rect x="168.8890666666667" y="434.6" width="10.580266666666665" height="3.3999999999999773" fill="#9ecc8a" opacity="0.8"></rect><rect x="182.11440000000005" y="418.6" width="10.580266666666665" height="3.3999999999999773" fill="#9ecc8a" opacity="0.8"></rect><rect x="195.33973333333338" y="415.2" width="10.580266666666665" height="3.400000000000034" fill="#9ecc8a" opacity="0.8"></rect><rect x="208.56506666666672" y="404.2" width="10.580266666666665" height="2.5" fill="#9ecc8a" opacity="0.8"></rect><rect x="221.79040000000006" y="365.3" width="10.580266666666665" height="10.099999999999966" fill="#9ecc8a" opacity="0.8"></rect><rect x="235.0157333333334" y="407.6" width="10.580266666666665" height="5.899999999999977" fill="#9ecc8a" opacity="0.8"></rect><rect x="248.24106666666674" y="388.1" width="10.580266666666665" height="11" fill="#9ecc8a" opacity="0.8"></rect><rect x="261.4664000000001" y="400.8" width="10.580266666666665" height="5.099999999999966" fill="#9ecc8a" opacity="0.8"></rect><rect x="274.6917333333334" y="356" width="10.580266666666665" height="6.800000000000011" fill="#9ecc8a" opacity="0.8"></rect><rect x="287.9170666666667" y="356" width="10.580266666666665" height="0" fill="#9ecc8a" opacity="0.8"></rect><rect x="301.1424" y="379.7" width="10.580266666666665" height="2.5" fill="#9ecc8a" opacity="0.8"></rect><rect x="314.3677333333333" y="289.2" width="10.580266666666665" height="3.400000000000034" fill="#9ecc8a" opacity="0.8"></rect><rect x="327.59306666666663" y="317.1" width="10.580266666666665" height="6.699999999999989" fill="#9ecc8a" opacity="0.8"></rect><rect x="340.81839999999994" y="347.5" width="10.580266666666665" height="6.800000000000011" fill="#9ecc8a" opacity="0.8"></rect><rect x="354.04373333333325" y="321.3" width="10.580266666666665" height="1.6999999999999886" fill="#9ecc8a" opacity="0.8"></rect><rect x="367.26906666666656" y="323.8" width="10.580266666666665" height="11" fill="#9ecc8a" opacity="0.8"></rect><rect x="380.49439999999987" y="308.6" width="10.580266666666665" height="5.899999999999977" fill="#9ecc8a" opacity="0.8"></rect><rect x="393.7197333333332" y="309.5" width="10.580266666666665" height="4.199999999999989" fill="#9ecc8a" opacity="0.8"></rect><rect x="406.9450666666665" y="265.5" width="10.580266666666665" height="13.5" fill="#9ecc8a" opacity="0.8"></rect><rect x="420.1703999999998" y="233.3" width="10.580266666666665" height="15.299999999999983" fill="#9ecc8a" opacity="0.8"></rect><rect x="433.3957333333331" y="189.4" width="10.580266666666665" height="18.599999999999994" fill="#9ecc8a" opacity="0.8"></rect><rect x="446.6210666666664" y="97.2" width="10.580266666666665" height="25.299999999999997" fill="#9ecc8a" opacity="0.8"></rect><rect x="459.84639999999973" y="164" width="10.580266666666665" height="11.800000000000011" fill="#9ecc8a" opacity="0.8"></rect><rect x="473.07173333333304" y="114.9" width="10.580266666666665" height="18.599999999999994" fill="#9ecc8a" opacity="0.8"></rect><rect x="486.29706666666635" y="181.8" width="10.580266666666665" height="11.799999999999983" fill="#9ecc8a" opacity="0.8"></rect><rect x="499.52239999999966" y="213.9" width="10.580266666666665" height="6.799999999999983" fill="#9ecc8a" opacity="0.8"></rect><rect x="512.747733333333" y="129.3" width="10.580266666666665" height="11" fill="#9ecc8a" opacity="0.8"></rect><rect x="525.9730666666663" y="156.4" width="10.580266666666665" height="7.599999999999994" fill="#9ecc8a" opacity="0.8"></rect><rect x="539.1983999999997" y="159.8" width="10.580266666666665" height="15.199999999999989" fill="#9ecc8a" opacity="0.8"></rect><rect x="552.423733333333" y="210.5" width="10.580266666666665" height="4.199999999999989" fill="#9ecc8a" opacity="0.8"></rect><rect x="565.6490666666663" y="209.7" width="10.580266666666665" height="7.600000000000023" fill="#9ecc8a" opacity="0.8"></rect><rect x="578.8743999999996" y="173.3" width="10.580266666666665" height="5.899999999999977" fill="#9ecc8a" opacity="0.8"></rect><rect x="592.0997333333329" y="235" width="10.580266666666665" height="6.800000000000011" fill="#9ecc8a" opacity="0.8"></rect><rect x="605.3250666666662" y="223.2" width="10.580266666666665" height="5.100000000000023" fill="#9ecc8a" opacity="0.8"></rect><rect x="618.5503999999995" y="239.3" width="10.580266666666665" height="8.399999999999977" fill="#9ecc8a" opacity="0.8"></rect><rect x="631.7757333333328" y="252" width="10.580266666666665" height="3.3000000000000114" fill="#9ecc8a" opacity="0.8"></rect><rect x="645.0010666666661" y="206.3" width="10.580266666666665" height="10.099999999999994" fill="#9ecc8a" opacity="0.8"></rect><rect x="658.2263999999994" y="241" width="10.580266666666665" height="8.400000000000006" fill="#9ecc8a" opacity="0.8"></rect><rect x="671.4517333333328" y="290.9" width="10.580266666666665" height="11" fill="#9ecc8a" opacity="0.8"></rect></g><g class="Volcanic-activity_0-segments"><rect x="49.861066666666666" y="467.6" width="10.580266666666665" height="0" fill="rgb(105, 178, 101)" opacity="0.8"></rect><rect x="63.0864" y="482.9" width="10.580266666666665" height="2.5" fill="rgb(105, 178, 101)" opacity="0.8"></rect><rect x="76.31173333333334" y="481.2" width="10.580266666666665" height="0" fill="rgb(105, 178, 101)" opacity="0.8"></rect><rect x="89.53706666666668" y="484.6" width="10.580266666666665" height="0.7999999999999545" fill="rgb(105, 178, 101)" opacity="0.8"></rect><rect x="102.76240000000001" y="476.1" width="10.580266666666665" height="0" fill="rgb(105, 178, 101)" opacity="0.8"></rect><rect x="115.98773333333335" y="481.2" width="10.580266666666665" height="2.5" fill="rgb(105, 178, 101)" opacity="0.8"></rect><rect x="129.2130666666667" y="455.8" width="10.580266666666665" height="4.199999999999989" fill="rgb(105, 178, 101)" opacity="0.8"></rect><rect x="142.43840000000003" y="414.4" width="10.580266666666665" height="4.2000000000000455" fill="rgb(105, 178, 101)" opacity="0.8"></rect><rect x="155.66373333333337" y="420.3" width="10.580266666666665" height="1.6999999999999886" fill="rgb(105, 178, 101)" opacity="0.8"></rect><rect x="168.8890666666667" y="431.3" width="10.580266666666665" height="3.3000000000000114" fill="rgb(105, 178, 101)" opacity="0.8"></rect><rect x="182.11440000000005" y="416.9" width="10.580266666666665" height="1.7000000000000455" fill="rgb(105, 178, 101)" opacity="0.8"></rect><rect x="195.33973333333338" y="414.4" width="10.580266666666665" height="0.8000000000000114" fill="rgb(105, 178, 101)" opacity="0.8"></rect><rect x="208.56506666666672" y="401.7" width="10.580266666666665" height="2.5" fill="rgb(105, 178, 101)" opacity="0.8"></rect><rect x="221.79040000000006" y="359.4" width="10.580266666666665" height="5.900000000000034" fill="rgb(105, 178, 101)" opacity="0.8"></rect><rect x="235.0157333333334" y="401.7" width="10.580266666666665" height="5.900000000000034" fill="rgb(105, 178, 101)" opacity="0.8"></rect><rect x="248.24106666666674" y="386.4" width="10.580266666666665" height="1.7000000000000455" fill="rgb(105, 178, 101)" opacity="0.8"></rect><rect x="261.4664000000001" y="399.1" width="10.580266666666665" height="1.6999999999999886" fill="rgb(105, 178, 101)" opacity="0.8"></rect><rect x="274.6917333333334" y="354.3" width="10.580266666666665" height="1.6999999999999886" fill="rgb(105, 178, 101)" opacity="0.8"></rect><rect x="287.9170666666667" y="351.8" width="10.580266666666665" height="4.199999999999989" fill="rgb(105, 178, 101)" opacity="0.8"></rect><rect x="301.1424" y="378.8" width="10.580266666666665" height="0.8999999999999773" fill="rgb(105, 178, 101)" opacity="0.8"></rect><rect x="314.3677333333333" y="287.5" width="10.580266666666665" height="1.6999999999999886" fill="rgb(105, 178, 101)" opacity="0.8"></rect><rect x="327.59306666666663" y="308.6" width="10.580266666666665" height="8.5" fill="rgb(105, 178, 101)" opacity="0.8"></rect><rect x="340.81839999999994" y="343.3" width="10.580266666666665" height="4.199999999999989" fill="rgb(105, 178, 101)" opacity="0.8"></rect><rect x="354.04373333333325" y="316.2" width="10.580266666666665" height="5.100000000000023" fill="rgb(105, 178, 101)" opacity="0.8"></rect><rect x="367.26906666666656" y="318.8" width="10.580266666666665" height="5" fill="rgb(105, 178, 101)" opacity="0.8"></rect><rect x="380.49439999999987" y="304.4" width="10.580266666666665" height="4.2000000000000455" fill="rgb(105, 178, 101)" opacity="0.8"></rect><rect x="393.7197333333332" y="305.2" width="10.580266666666665" height="4.300000000000011" fill="rgb(105, 178, 101)" opacity="0.8"></rect><rect x="406.9450666666665" y="262.1" width="10.580266666666665" height="3.3999999999999773" fill="rgb(105, 178, 101)" opacity="0.8"></rect><rect x="420.1703999999998" y="230" width="10.580266666666665" height="3.3000000000000114" fill="rgb(105, 178, 101)" opacity="0.8"></rect><rect x="433.3957333333331" y="185.1" width="10.580266666666665" height="4.300000000000011" fill="rgb(105, 178, 101)" opacity="0.8"></rect><rect x="446.6210666666664" y="92.9" width="10.580266666666665" height="4.299999999999997" fill="rgb(105, 178, 101)" opacity="0.8"></rect><rect x="459.84639999999973" y="158.9" width="10.580266666666665" height="5.099999999999994" fill="rgb(105, 178, 101)" opacity="0.8"></rect><rect x="473.07173333333304" y="109" width="10.580266666666665" height="5.900000000000006" fill="rgb(105, 178, 101)" opacity="0.8"></rect><rect x="486.29706666666635" y="180.1" width="10.580266666666665" height="1.700000000000017" fill="rgb(105, 178, 101)" opacity="0.8"></rect><rect x="499.52239999999966" y="209.7" width="10.580266666666665" height="4.200000000000017" fill="rgb(105, 178, 101)" opacity="0.8"></rect><rect x="512.747733333333" y="122.5" width="10.580266666666665" height="6.800000000000011" fill="rgb(105, 178, 101)" opacity="0.8"></rect><rect x="525.9730666666663" y="146.2" width="10.580266666666665" height="10.200000000000017" fill="rgb(105, 178, 101)" opacity="0.8"></rect><rect x="539.1983999999997" y="154.7" width="10.580266666666665" height="5.100000000000023" fill="rgb(105, 178, 101)" opacity="0.8"></rect><rect x="552.423733333333" y="204.6" width="10.580266666666665" height="5.900000000000006" fill="rgb(105, 178, 101)" opacity="0.8"></rect><rect x="565.6490666666663" y="208" width="10.580266666666665" height="1.6999999999999886" fill="rgb(105, 178, 101)" opacity="0.8"></rect><rect x="578.8743999999996" y="168.2" width="10.580266666666665" height="5.100000000000023" fill="rgb(105, 178, 101)" opacity="0.8"></rect><rect x="592.0997333333329" y="230" width="10.580266666666665" height="5" fill="rgb(105, 178, 101)" opacity="0.8"></rect><rect x="605.3250666666662" y="222.4" width="10.580266666666665" height="0.799999999999983" fill="rgb(105, 178, 101)" opacity="0.8"></rect><rect x="618.5503999999995" y="236.7" width="10.580266666666665" height="2.6000000000000227" fill="rgb(105, 178, 101)" opacity="0.8"></rect><rect x="631.7757333333328" y="246.9" width="10.580266666666665" height="5.099999999999994" fill="rgb(105, 178, 101)" opacity="0.8"></rect><rect x="645.0010666666661" y="201.2" width="10.580266666666665" height="5.100000000000023" fill="rgb(105, 178, 101)" opacity="0.8"></rect><rect x="658.2263999999994" y="241" width="10.580266666666665" height="0" fill="rgb(105, 178, 101)" opacity="0.8"></rect><rect x="671.4517333333328" y="289.2" width="10.580266666666665" height="1.6999999999999886" fill="rgb(105, 178, 101)" opacity="0.8"></rect></g><g class="Mass-movement-__0028dry__0029_0-segments"><rect x="49.861066666666666" y="466.8" width="10.580266666666665" height="0.8000000000000114" fill="#34983f" opacity="0.8"></rect><rect x="63.0864" y="482" width="10.580266666666665" height="0.8999999999999773" fill="#34983f" opacity="0.8"></rect><rect x="76.31173333333334" y="481.2" width="10.580266666666665" height="0" fill="#34983f" opacity="0.8"></rect><rect x="89.53706666666668" y="484.6" width="10.580266666666665" height="0" fill="#34983f" opacity="0.8"></rect><rect x="102.76240000000001" y="476.1" width="10.580266666666665" height="0" fill="#34983f" opacity="0.8"></rect><rect x="115.98773333333335" y="481.2" width="10.580266666666665" height="0" fill="#34983f" opacity="0.8"></rect><rect x="129.2130666666667" y="455.8" width="10.580266666666665" height="0" fill="#34983f" opacity="0.8"></rect><rect x="142.43840000000003" y="414.4" width="10.580266666666665" height="0" fill="#34983f" opacity="0.8"></rect><rect x="155.66373333333337" y="420.3" width="10.580266666666665" height="0" fill="#34983f" opacity="0.8"></rect><rect x="168.8890666666667" y="431.3" width="10.580266666666665" height="0" fill="#34983f" opacity="0.8"></rect><rect x="182.11440000000005" y="416" width="10.580266666666665" height="0.8999999999999773" fill="#34983f" opacity="0.8"></rect><rect x="195.33973333333338" y="414.4" width="10.580266666666665" height="0" fill="#34983f" opacity="0.8"></rect><rect x="208.56506666666672" y="400" width="10.580266666666665" height="1.6999999999999886" fill="#34983f" opacity="0.8"></rect><rect x="221.79040000000006" y="356" width="10.580266666666665" height="3.3999999999999773" fill="#34983f" opacity="0.8"></rect><rect x="235.0157333333334" y="401.7" width="10.580266666666665" height="0" fill="#34983f" opacity="0.8"></rect><rect x="248.24106666666674" y="384.7" width="10.580266666666665" height="1.6999999999999886" fill="#34983f" opacity="0.8"></rect><rect x="261.4664000000001" y="399.1" width="10.580266666666665" height="0" fill="#34983f" opacity="0.8"></rect><rect x="274.6917333333334" y="352.6" width="10.580266666666665" height="1.6999999999999886" fill="#34983f" opacity="0.8"></rect><rect x="287.9170666666667" y="349.2" width="10.580266666666665" height="2.6000000000000227" fill="#34983f" opacity="0.8"></rect><rect x="301.1424" y="376.3" width="10.580266666666665" height="2.5" fill="#34983f" opacity="0.8"></rect><rect x="314.3677333333333" y="284.9" width="10.580266666666665" height="2.6000000000000227" fill="#34983f" opacity="0.8"></rect><rect x="327.59306666666663" y="306.1" width="10.580266666666665" height="2.5" fill="#34983f" opacity="0.8"></rect><rect x="340.81839999999994" y="339.1" width="10.580266666666665" height="4.199999999999989" fill="#34983f" opacity="0.8"></rect><rect x="354.04373333333325" y="312" width="10.580266666666665" height="4.199999999999989" fill="#34983f" opacity="0.8"></rect><rect x="367.26906666666656" y="318.8" width="10.580266666666665" height="0" fill="#34983f" opacity="0.8"></rect><rect x="380.49439999999987" y="304.4" width="10.580266666666665" height="0" fill="#34983f" opacity="0.8"></rect><rect x="393.7197333333332" y="305.2" width="10.580266666666665" height="0" fill="#34983f" opacity="0.8"></rect><rect x="406.9450666666665" y="262.1" width="10.580266666666665" height="0" fill="#34983f" opacity="0.8"></rect><rect x="420.1703999999998" y="230" width="10.580266666666665" height="0" fill="#34983f" opacity="0.8"></rect><rect x="433.3957333333331" y="185.1" width="10.580266666666665" height="0" fill="#34983f" opacity="0.8"></rect><rect x="446.6210666666664" y="92.1" width="10.580266666666665" height="0.8000000000000114" fill="#34983f" opacity="0.8"></rect><rect x="459.84639999999973" y="158.9" width="10.580266666666665" height="0" fill="#34983f" opacity="0.8"></rect><rect x="473.07173333333304" y="108.2" width="10.580266666666665" height="0.7999999999999972" fill="#34983f" opacity="0.8"></rect><rect x="486.29706666666635" y="180.1" width="10.580266666666665" height="0" fill="#34983f" opacity="0.8"></rect><rect x="499.52239999999966" y="208.8" width="10.580266666666665" height="0.8999999999999773" fill="#34983f" opacity="0.8"></rect><rect x="512.747733333333" y="122.5" width="10.580266666666665" height="0" fill="#34983f" opacity="0.8"></rect><rect x="525.9730666666663" y="145.4" width="10.580266666666665" height="0.799999999999983" fill="#34983f" opacity="0.8"></rect><rect x="539.1983999999997" y="154.7" width="10.580266666666665" height="0" fill="#34983f" opacity="0.8"></rect><rect x="552.423733333333" y="202.1" width="10.580266666666665" height="2.5" fill="#34983f" opacity="0.8"></rect><rect x="565.6490666666663" y="207.1" width="10.580266666666665" height="0.9000000000000057" fill="#34983f" opacity="0.8"></rect><rect x="578.8743999999996" y="168.2" width="10.580266666666665" height="0" fill="#34983f" opacity="0.8"></rect><rect x="592.0997333333329" y="230" width="10.580266666666665" height="0" fill="#34983f" opacity="0.8"></rect><rect x="605.3250666666662" y="221.5" width="10.580266666666665" height="0.9000000000000057" fill="#34983f" opacity="0.8"></rect><rect x="618.5503999999995" y="235.9" width="10.580266666666665" height="0.799999999999983" fill="#34983f" opacity="0.8"></rect><rect x="631.7757333333328" y="246.9" width="10.580266666666665" height="0" fill="#34983f" opacity="0.8"></rect><rect x="645.0010666666661" y="200.4" width="10.580266666666665" height="0.799999999999983" fill="#34983f" opacity="0.8"></rect><rect x="658.2263999999994" y="241" width="10.580266666666665" height="0" fill="#34983f" opacity="0.8"></rect><rect x="671.4517333333328" y="289.2" width="10.580266666666665" height="0" fill="#34983f" opacity="0.8"></rect></g></g><g class="ScatterColorLegend clickable" style="cursor:pointer"><g class="legendMark"><rect x="702.0319999999999" y="89.6" width="132.96800000000002" height="17.6" fill="#fff" opacity="0"></rect>,<rect x="702.0319999999999" y="95.1" width="6" height="6" fill="#34983f"></rect>,<text font-size="12.60" x="713.0" y="102.2"><tspan x="713.0319999999999" y="102.17999999999999">Mass movement (dry)</tspan></text></g><g class="legendMark"><rect x="702.0319999999999" y="107.19999999999999" width="100.838" height="17.6" fill="#fff" opacity="0"></rect>,<rect x="702.0319999999999" y="112.69999999999999" width="6" height="6" fill="rgb(105, 178, 101)"></rect>,<text font-size="12.60" x="713.0" y="119.8"><tspan x="713.0319999999999" y="119.77999999999999">Volcanic activity</tspan></text></g><g class="legendMark"><rect x="702.0319999999999" y="124.8" width="52.958" height="17.6" fill="#fff" opacity="0"></rect>,<rect x="702.0319999999999" y="130.3" width="6" height="6" fill="#9ecc8a"></rect>,<text font-size="12.60" x="713.0" y="137.4"><tspan x="713.0319999999999" y="137.38">Wildfire</tspan></text></g><g class="legendMark"><rect x="702.0319999999999" y="142.4" width="65.18" height="17.6" fill="#fff" opacity="0"></rect>,<rect x="702.0319999999999" y="147.9" width="6" height="6" fill="rgb(207, 209, 100)"></rect>,<text font-size="12.60" x="713.0" y="155.0"><tspan x="713.0319999999999" y="154.98">Landslide</tspan></text></g><g class="legendMark"><rect x="702.0319999999999" y="160" width="75.764" height="17.6" fill="#fff" opacity="0"></rect>,<rect x="702.0319999999999" y="165.5" width="6" height="6" fill="#ffd53e"></rect>,<text font-size="12.60" x="713.0" y="172.6"><tspan x="713.0319999999999" y="172.57999999999998">Earthquake</tspan></text></g><g class="legendMark"><rect x="702.0319999999999" y="177.6" width="129.692" height="17.6" fill="#fff" opacity="0"></rect>,<rect x="702.0319999999999" y="183.1" width="6" height="6" fill="rgb(229, 126, 51)"></rect>,<text font-size="12.60" x="713.0" y="190.2"><tspan x="713.0319999999999" y="190.17999999999998">Extreme temperature</tspan></text></g><g class="legendMark"><rect x="702.0319999999999" y="195.2" width="55.982" height="17.6" fill="#fff" opacity="0"></rect>,<rect x="702.0319999999999" y="200.7" width="6" height="6" fill="#ca2628"></rect>,<text font-size="12.60" x="713.0" y="207.8"><tspan x="713.0319999999999" y="207.77999999999997">Drought</tspan></text></g><g class="legendMark"><rect x="702.0319999999999" y="212.79999999999998" width="106.508" height="17.6" fill="#fff" opacity="0"></rect>,<rect x="702.0319999999999" y="218.29999999999998" width="6" height="6" fill="#e6332e"></rect>,<text font-size="12.60" x="713.0" y="225.4"><tspan x="713.0319999999999" y="225.37999999999997">Extreme weather</tspan></text></g><g class="legendMark"><rect x="702.0319999999999" y="230.39999999999998" width="42.626000000000005" height="17.6" fill="#fff" opacity="0"></rect>,<rect x="702.0319999999999" y="235.89999999999998" width="6" height="6" fill="#2a939b"></rect>,<text font-size="12.60" x="713.0" y="243.0"><tspan x="713.0319999999999" y="242.97999999999996">Flood</tspan></text></g><g class="legendMark"><rect x="702.0319999999999" y="247.99999999999997" width="62.912" height="17.6" fill="#fff" opacity="0"></rect>,<rect x="702.0319999999999" y="253.49999999999997" width="6" height="6" fill="#3360a9"></rect>,<text font-size="12.60" x="713.0" y="260.6"><tspan x="713.0319999999999" y="260.58">Epidemic</tspan></text></g></g></g><g class="SourcesFooter" style="fill:#777"><g class="clickable" style="fill:#777"><text font-size="12.60" x="15.0" y="581.6"><tspan x="15" y="581.58">Source: EMDAT (2017): OFDA/CRED International Disaster Database, Universit catholique de Louvain  Brussels  Belgium</tspan></text></g><text font-size="12.60" x="775.4" y="581.6"><tspan x="775.402" y="581.58"><a style="fill: #777;" class="cclogo" href="http://creativecommons.org/licenses/by-sa/4.0/deed.en_US" target="_blank">CC BY-SA</a></tspan></text></g></g></svg>