<svg xmlns="http://www.w3.org/2000/svg" version="1.1" style="font-family:&#x27;Helvetica Neue&#x27;, Helvetica, Arial, sans-serif;font-size:18px;background-color:white;text-rendering:optimizeLegibility;-webkit-font-smoothing:antialiased" width="850" height="600"><g class="ChartTab"><g class="HeaderView"><g opacity="0.8" transform="translate(778, 15) scale(0.27)"><a xmlns:xlink="http://www.w3.org/1999/xlink" xlink:href="https://ourworldindata.org" target="_blank"><g><rect x="0" y="0" fill="#1B2543" width="211.2" height="130.1"/><rect x="0" y="112.2" fill="#E63912" width="211.2" height="17.9"/><g><rect x="1.2" y="12.3" fill="none" width="210.2" height="99.2"/><path fill="#FFFFFF" d="M37.8,32.2c0,12.7-7.7,19.4-17.1,19.4c-9.7,0-16.6-7.5-16.6-18.7c0-11.7,7.3-19.3,17.1-19.3 C31.3,13.7,37.8,21.3,37.8,32.2z M9.2,32.8c0,7.9,4.3,14.9,11.8,14.9c7.5,0,11.8-6.9,11.8-15.3c0-7.3-3.8-14.9-11.8-14.9 C13.1,17.5,9.2,24.8,9.2,32.8z"/><path fill="#FFFFFF" d="M62.7,43.8c0,2.7,0.1,5.1,0.2,7.2h-4.3l-0.3-4.3h-0.1c-1.3,2.1-4,4.9-8.8,4.9c-4.2,0-9.1-2.3-9.1-11.6 V24.6h4.8v14.6c0,5,1.5,8.4,5.9,8.4c3.2,0,5.5-2.2,6.3-4.4c0.3-0.7,0.4-1.6,0.4-2.5V24.6h4.8V43.8z"/><path fill="#FFFFFF" d="M67.3,32.8c0-3.1-0.1-5.8-0.2-8.2h4.2l0.2,5.2h0.2c1.2-3.5,4.1-5.8,7.3-5.8c0.5,0,0.9,0.1,1.4,0.2v4.5 c-0.5-0.1-1-0.2-1.6-0.2c-3.4,0-5.8,2.6-6.5,6.2c-0.1,0.7-0.2,1.4-0.2,2.2V51h-4.8V32.8z"/><path fill="#FFFFFF" d="M95.4,51l-9.4-36.8h5l4.4,18.6c1.1,4.6,2.1,9.2,2.7,12.7h0.1c0.6-3.7,1.8-8,3-12.8l4.9-18.5h5l4.5,18.7 c1,4.4,2,8.7,2.6,12.6h0.1c0.8-4,1.8-8.1,3-12.7l4.9-18.5h4.9L120.6,51h-5L111,31.9c-1.1-4.7-1.9-8.3-2.4-12h-0.1 c-0.7,3.7-1.5,7.3-2.8,12L100.4,51H95.4z"/><path fill="#FFFFFF" d="M154.9,37.6c0,9.8-6.8,14-13.2,14c-7.2,0-12.7-5.2-12.7-13.6c0-8.8,5.8-14,13.1-14 C149.8,24,154.9,29.5,154.9,37.6z M133.9,37.9c0,5.8,3.3,10.1,8,10.1c4.6,0,8-4.3,8-10.3c0-4.5-2.2-10.1-7.9-10.1 C136.3,27.6,133.9,32.8,133.9,37.9z"/><path fill="#FFFFFF" d="M158.2,32.8c0-3.1-0.1-5.8-0.2-8.2h4.2l0.2,5.2h0.2c1.2-3.5,4.1-5.8,7.3-5.8c0.5,0,0.9,0.1,1.4,0.2v4.5 c-0.5-0.1-1-0.2-1.6-0.2c-3.4,0-5.8,2.6-6.5,6.2c-0.1,0.7-0.2,1.4-0.2,2.2V51h-4.8V32.8z"/><path fill="#FFFFFF" d="M173.5,12.3h4.8V51h-4.8V12.3z"/><path fill="#FFFFFF" d="M206.5,12.3v31.9c0,2.3,0.1,5,0.2,6.8h-4.3l-0.2-4.6H202c-1.5,2.9-4.7,5.2-9,5.2 c-6.4,0-11.3-5.4-11.3-13.4c-0.1-8.8,5.4-14.2,11.9-14.2c4,0,6.8,1.9,8,4h0.1V12.3H206.5z M201.7,35.4c0-0.6-0.1-1.4-0.2-2 c-0.7-3.1-3.3-5.6-6.9-5.6c-5,0-7.9,4.4-7.9,10.2c0,5.3,2.6,9.8,7.8,9.8c3.2,0,6.2-2.1,7.1-5.7c0.2-0.7,0.2-1.3,0.2-2.1V35.4z"/><path fill="#FFFFFF" d="M42.8,64c0.1,1.6-1.1,2.9-3.1,2.9c-1.7,0-2.9-1.3-2.9-2.9c0-1.7,1.3-3,3-3C41.7,61,42.8,62.3,42.8,64z M37.4,97.8V71.4h4.8v26.4H37.4z"/><path fill="#FFFFFF" d="M47.5,78.6c0-2.7-0.1-5-0.2-7.1h4.3l0.3,4.4h0.1c1.3-2.5,4.4-5,8.8-5c3.7,0,9.4,2.2,9.4,11.2v15.8h-4.8 V82.6c0-4.3-1.6-7.8-6.1-7.8c-3.2,0-5.6,2.2-6.5,4.9c-0.2,0.6-0.3,1.4-0.3,2.2v15.9h-4.8V78.6z"/><path fill="#FFFFFF" d="M84,61.6c2.9-0.4,6.3-0.8,10.1-0.8c6.8,0,11.7,1.6,14.9,4.6c3.3,3,5.2,7.3,5.2,13.2c0,6-1.9,10.9-5.3,14.3 c-3.4,3.4-9.1,5.3-16.3,5.3c-3.4,0-6.2-0.2-8.6-0.4V61.6z M88.8,94.1c1.2,0.2,3,0.3,4.8,0.3c10.2,0,15.7-5.7,15.7-15.6 c0.1-8.7-4.9-14.2-14.9-14.2c-2.5,0-4.3,0.2-5.6,0.5V94.1z"/><path fill="#FFFFFF" d="M132.1,97.8l-0.4-3.3h-0.2c-1.5,2.1-4.3,3.9-8.1,3.9c-5.4,0-8.1-3.8-8.1-7.6c0-6.4,5.7-9.9,15.9-9.8v-0.5 c0-2.2-0.6-6.1-6-6.1c-2.5,0-5,0.8-6.9,2l-1.1-3.2c2.2-1.4,5.4-2.3,8.7-2.3c8.1,0,10.1,5.5,10.1,10.8v9.9c0,2.3,0.1,4.5,0.4,6.3 H132.1z M131.4,84.4c-5.3-0.1-11.2,0.8-11.2,5.9c0,3.1,2.1,4.6,4.5,4.6c3.4,0,5.6-2.2,6.4-4.4c0.2-0.5,0.3-1,0.3-1.5V84.4z"/><path fill="#FFFFFF" d="M146.6,63.9v7.6h6.9v3.7h-6.9v14.2c0,3.3,0.9,5.1,3.6,5.1c1.3,0,2.2-0.2,2.8-0.3l0.2,3.6 c-0.9,0.4-2.4,0.7-4.3,0.7c-2.2,0-4-0.7-5.2-2c-1.4-1.4-1.9-3.8-1.9-6.9V75.1h-4.1v-3.7h4.1v-6.3L146.6,63.9z"/><path fill="#FFFFFF" d="M171.4,97.8l-0.4-3.3h-0.2c-1.5,2.1-4.3,3.9-8.1,3.9c-5.4,0-8.1-3.8-8.1-7.6c0-6.4,5.7-9.9,15.9-9.8v-0.5 c0-2.2-0.6-6.1-6-6.1c-2.5,0-5,0.8-6.9,2l-1.1-3.2c2.2-1.4,5.4-2.3,8.7-2.3c8.1,0,10.1,5.5,10.1,10.8v9.9c0,2.3,0.1,4.5,0.4,6.3 H171.4z M170.7,84.4c-5.3-0.1-11.2,0.8-11.2,5.9c0,3.1,2.1,4.6,4.5,4.6c3.4,0,5.6-2.2,6.4-4.4c0.2-0.5,0.3-1,0.3-1.5V84.4z"/></g></g></a></g><a href="https://ourworldindata.org/grapher/number-of-deaths-by-age-group" target="_blank"><text font-size="25.20" x="15.0" y="35.2" fill="#555"><tspan x="15" y="35.160000000000004">Number of deaths by age group, World</tspan></text></a><text font-size="14.40" x="15.0" y="53.7" fill="#666"><tspan x="15" y="53.72">Total annual number of deaths from all causes, broken down by broad age categories.</tspan></text></g><g class="StackedArea"><defs><clipPath id="boundsClip-401"><rect x="88.526" y="0" width="820" height="959.8"></rect></clipPath></defs><g class="AxisBoxView"><g class="HorizontalAxis"><text x="88.5" y="556.5" fill="#666" text-anchor="middle" font-size="16.2">1990</text><text x="207.4" y="556.5" fill="#666" text-anchor="middle" font-size="16.2">1995</text><text x="326.2" y="556.5" fill="#666" text-anchor="middle" font-size="16.2">2000</text><text x="445.1" y="556.5" fill="#666" text-anchor="middle" font-size="16.2">2005</text><text x="564" y="556.5" fill="#666" text-anchor="middle" font-size="16.2">2010</text><text x="706.6" y="556.5" fill="#666" text-anchor="middle" font-size="16.2">2016</text></g><g class="VerticalAxis"><text x="83.53" y="535.3" fill="#666" dominant-baseline="middle" text-anchor="end" font-size="16.2">0</text><text x="83.53" y="451.4" fill="#666" dominant-baseline="middle" text-anchor="end" font-size="16.2">10 million</text><text x="83.53" y="367.6" fill="#666" dominant-baseline="middle" text-anchor="end" font-size="16.2">20 million</text><text x="83.53" y="283.7" fill="#666" dominant-baseline="middle" text-anchor="end" font-size="16.2">30 million</text><text x="83.53" y="199.9" fill="#666" dominant-baseline="middle" text-anchor="end" font-size="16.2">40 million</text><text x="83.53" y="116" fill="#666" dominant-baseline="middle" text-anchor="end" font-size="16.2">50 million</text></g><g class="AxisGridLines"><line x1="88.53" y1="535.3" x2="706.58" y2="535.3" stroke="#ccc"></line><line x1="88.53" y1="451.4" x2="706.58" y2="451.4" stroke="#ddd" stroke-dasharray="3,2"></line><line x1="88.53" y1="367.6" x2="706.58" y2="367.6" stroke="#ddd" stroke-dasharray="3,2"></line><line x1="88.53" y1="283.7" x2="706.58" y2="283.7" stroke="#ddd" stroke-dasharray="3,2"></line><line x1="88.53" y1="199.9" x2="706.58" y2="199.9" stroke="#ddd" stroke-dasharray="3,2"></line><line x1="88.53" y1="116" x2="706.58" y2="116" stroke="#ddd" stroke-dasharray="3,2"></line></g></g><g clip-path="url(#boundsClip-401)"><g class="HeightedLegend clickable"><g class="legendMark"><rect x="706.5799999999999" y="178.25" width="116.67500000000001" height="13.5" fill="#fff" opacity="0"></rect><text font-size="13.50" x="711.6" y="189.1" fill="#ca2628"><tspan x="711.5799999999999" y="189.05">70+ years old</tspan></text></g><g class="legendMark"><rect x="706.5799999999999" y="348.75" width="128.42000000000002" height="13.5" fill="#fff" opacity="0"></rect><text font-size="13.50" x="711.6" y="359.6" fill="#ffd53e"><tspan x="711.5799999999999" y="359.55">50-69 years old</tspan></text></g><g class="legendMark"><rect x="706.5799999999999" y="445.45" width="128.42000000000002" height="13.5" fill="#fff" opacity="0"></rect><text font-size="13.50" x="711.6" y="456.3" fill="#34983f"><tspan x="711.5799999999999" y="456.25">15-49 years old</tspan></text></g><g class="legendMark"><rect x="706.5799999999999" y="483.35" width="120.86" height="13.5" fill="#fff" opacity="0"></rect><text font-size="13.50" x="711.6" y="494.2" fill="#c8c8c8"><tspan x="711.5799999999999" y="494.15000000000003">5-14 years old</tspan></text></g><g class="legendMark"><rect x="706.5799999999999" y="507.54999999999995" width="90.62" height="13.5" fill="#fff" opacity="0"></rect><text font-size="13.50" x="711.6" y="518.3" fill="#3360a9"><tspan x="711.5799999999999" y="518.3499999999999">Under-5s</tspan></text></g></g><g class="Areas"><rect x="88.526" y="76.6" width="618.054" height="458.69999999999993" opacity="0" fill="rgba(255,255,255,0)"></rect><path class="World_0-area" stroke-linecap="round" d="M88.5 442.6L112.3 444.4L136.1 446.9L159.8 448.9L183.6 450.1L207.4 452.5L231.2 454.4L254.9 456.5L278.7 458.3L302.5 460.1L326.2 462L350 463.7L373.8 465.5L397.6 467.5L421.3 469.1L445.1 470.9L468.9 472.7L492.6 474.5L516.4 476.2L540.2 478.1L564 479.7L587.7 481.9L611.5 484.2L635.3 486.4L659 488.8L682.8 491.3L706.6 493.4L706.5799999999999 535.3L88.526 535.3" fill="#3360a9" fill-opacity="0.7"></path><path class="World_3-area" stroke-linecap="round" d="M88.5 431.8L112.3 433.6L136.1 436.3L159.8 438.3L183.6 439L207.4 441.9L231.2 443.7L254.9 445.9L278.7 447.9L302.5 449.9L326.2 452L350 454L373.8 456L397.6 458.3L421.3 459.9L445.1 462.2L468.9 464.3L492.6 466.3L516.4 467.9L540.2 470.2L564 471.6L587.7 474.4L611.5 476.8L635.3 479.3L659 481.8L682.8 484.5L706.6 486.9L706.6 493.4L682.8 491.3L659 488.8L635.3 486.4L611.5 484.2L587.7 481.9L564 479.7L540.2 478.1L516.4 476.2L492.6 474.5L468.9 472.7L445.1 470.9L421.3 469.1L397.6 467.5L373.8 465.5L350 463.7L326.2 462L302.5 460.1L278.7 458.3L254.9 456.5L231.2 454.4L207.4 452.5L183.6 450.1L159.8 448.9L136.1 446.9L112.3 444.4L88.5 442.6" fill="#c8c8c8" fill-opacity="0.7"></path><path class="World_4-area" stroke-linecap="round" d="M88.5 371.3L112.3 370.9L136.1 372.4L159.8 371.8L183.6 367.6L207.4 371.1L231.2 371.6L254.9 372.8L278.7 373.4L302.5 373.7L326.2 374.8L350 376.2L373.8 377.3L397.6 379L421.3 379.9L445.1 382.9L468.9 385.9L492.6 388.7L516.4 390.2L540.2 394.6L564 396.1L587.7 400.9L611.5 404.5L635.3 407.9L659 410.9L682.8 414.5L706.6 417.6L706.6 486.9L682.8 484.5L659 481.8L635.3 479.3L611.5 476.8L587.7 474.4L564 471.6L540.2 470.2L516.4 467.9L492.6 466.3L468.9 464.3L445.1 462.2L421.3 459.9L397.6 458.3L373.8 456L350 454L326.2 452L302.5 449.9L278.7 447.9L254.9 445.9L231.2 443.7L207.4 441.9L183.6 439L159.8 438.3L136.1 436.3L112.3 433.6L88.5 431.8" fill="#34983f" fill-opacity="0.7"></path><path class="World_2-area" stroke-linecap="round" d="M88.5 277.4L112.3 276L136.1 275.7L159.8 272.6L183.6 266.3L207.4 269.1L231.2 269.8L254.9 270.7L278.7 271L302.5 269.7L326.2 269.4L350 269.9L373.8 270L397.6 270.7L421.3 270.4L445.1 272.7L468.9 276.3L492.6 279L516.4 279.5L540.2 283.8L564 283.7L587.7 287.7L611.5 289.6L635.3 290.6L659 290.9L682.8 292.1L706.6 293.3L706.6 417.6L682.8 414.5L659 410.9L635.3 407.9L611.5 404.5L587.7 400.9L564 396.1L540.2 394.6L516.4 390.2L492.6 388.7L468.9 385.9L445.1 382.9L421.3 379.9L397.6 379L373.8 377.3L350 376.2L326.2 374.8L302.5 373.7L278.7 373.4L254.9 372.8L231.2 371.6L207.4 371.1L183.6 367.6L159.8 371.8L136.1 372.4L112.3 370.9L88.5 371.3" fill="#ffd53e" fill-opacity="0.7"></path><path class="World_1-area" stroke-linecap="round" d="M88.5 145L112.3 141L136.1 137.3L159.8 129.6L183.6 119.5L207.4 119.2L231.2 117.5L254.9 116L278.7 112.9L302.5 107.5L326.2 103.7L350 100.6L373.8 96.4L397.6 95.7L421.3 93.8L445.1 92.6L468.9 94.8L492.6 94.8L516.4 91.5L540.2 92.5L564 88.3L587.7 90.1L611.5 88.9L635.3 87.1L659 83.9L682.8 81.2L706.6 76.6L706.6 293.3L682.8 292.1L659 290.9L635.3 290.6L611.5 289.6L587.7 287.7L564 283.7L540.2 283.8L516.4 279.5L492.6 279L468.9 276.3L445.1 272.7L421.3 270.4L397.6 270.7L373.8 270L350 269.9L326.2 269.4L302.5 269.7L278.7 271L254.9 270.7L231.2 269.8L207.4 269.1L183.6 266.3L159.8 272.6L136.1 275.7L112.3 276L88.5 277.4" fill="#ca2628" fill-opacity="0.7"></path><path class="World_0-border" stroke-linecap="round" d="M88.5 442.6L112.3 444.4L136.1 446.9L159.8 448.9L183.6 450.1L207.4 452.5L231.2 454.4L254.9 456.5L278.7 458.3L302.5 460.1L326.2 462L350 463.7L373.8 465.5L397.6 467.5L421.3 469.1L445.1 470.9L468.9 472.7L492.6 474.5L516.4 476.2L540.2 478.1L564 479.7L587.7 481.9L611.5 484.2L635.3 486.4L659 488.8L682.8 491.3L706.6 493.4" stroke="rgb(43, 80, 141)" stroke-opacity="0.7" stroke-width="0.5" fill="none"></path><path class="World_3-border" stroke-linecap="round" d="M88.5 431.8L112.3 433.6L136.1 436.3L159.8 438.3L183.6 439L207.4 441.9L231.2 443.7L254.9 445.9L278.7 447.9L302.5 449.9L326.2 452L350 454L373.8 456L397.6 458.3L421.3 459.9L445.1 462.2L468.9 464.3L492.6 466.3L516.4 467.9L540.2 470.2L564 471.6L587.7 474.4L611.5 476.8L635.3 479.3L659 481.8L682.8 484.5L706.6 486.9" stroke="rgb(167, 167, 167)" stroke-opacity="0.7" stroke-width="0.5" fill="none"></path><path class="World_4-border" stroke-linecap="round" d="M88.5 371.3L112.3 370.9L136.1 372.4L159.8 371.8L183.6 367.6L207.4 371.1L231.2 371.6L254.9 372.8L278.7 373.4L302.5 373.7L326.2 374.8L350 376.2L373.8 377.3L397.6 379L421.3 379.9L445.1 382.9L468.9 385.9L492.6 388.7L516.4 390.2L540.2 394.6L564 396.1L587.7 400.9L611.5 404.5L635.3 407.9L659 410.9L682.8 414.5L706.6 417.6" stroke="rgb(44, 127, 53)" stroke-opacity="0.7" stroke-width="0.5" fill="none"></path><path class="World_2-border" stroke-linecap="round" d="M88.5 277.4L112.3 276L136.1 275.7L159.8 272.6L183.6 266.3L207.4 269.1L231.2 269.8L254.9 270.7L278.7 271L302.5 269.7L326.2 269.4L350 269.9L373.8 270L397.6 270.7L421.3 270.4L445.1 272.7L468.9 276.3L492.6 279L516.4 279.5L540.2 283.8L564 283.7L587.7 287.7L611.5 289.6L635.3 290.6L659 290.9L682.8 292.1L706.6 293.3" stroke="rgb(213, 178, 52)" stroke-opacity="0.7" stroke-width="0.5" fill="none"></path><path class="World_1-border" stroke-linecap="round" d="M88.5 145L112.3 141L136.1 137.3L159.8 129.6L183.6 119.5L207.4 119.2L231.2 117.5L254.9 116L278.7 112.9L302.5 107.5L326.2 103.7L350 100.6L373.8 96.4L397.6 95.7L421.3 93.8L445.1 92.6L468.9 94.8L492.6 94.8L516.4 91.5L540.2 92.5L564 88.3L587.7 90.1L611.5 88.9L635.3 87.1L659 83.9L682.8 81.2L706.6 76.6" stroke="rgb(169, 32, 33)" stroke-opacity="0.7" stroke-width="0.5" fill="none"></path></g></g></g><g class="SourcesFooter" style="fill:#777"><g class="clickable" style="fill:#777"><text font-size="12.60" x="15.0" y="581.6"><tspan x="15" y="581.58">Source: IHME, Global Burden of Disease (GBD)</tspan></text></g><text font-size="12.60" x="649.0" y="581.6"><tspan x="649.024" y="581.58"><a target='_blank' style='fill: #777;' href='https://ourworldindata.org'>OurWorldInData.org</a> • <a style="fill: #777;" class="cclogo" href="http://creativecommons.org/licenses/by-sa/4.0/deed.en_US" target="_blank">CC BY-SA</a></tspan></text></g></g></svg>