<svg xmlns="http://www.w3.org/2000/svg" version="1.1" style="font-family:&#x27;Helvetica Neue&#x27;, Helvetica, Arial, sans-serif;font-size:18px;background-color:white;text-rendering:optimizeLegibility;-webkit-font-smoothing:antialiased" width="850" height="600"><g class="ChartTab"><g class="HeaderView"><g opacity="0.8" transform="translate(778, 15) scale(0.27)"><a xmlns:xlink="http://www.w3.org/1999/xlink" xlink:href="https://ourworldindata.org" target="_blank"><g><rect x="0" y="0" fill="#1B2543" width="211.2" height="130.1"/><rect x="0" y="112.2" fill="#E63912" width="211.2" height="17.9"/><g><rect x="1.2" y="12.3" fill="none" width="210.2" height="99.2"/><path fill="#FFFFFF" d="M37.8,32.2c0,12.7-7.7,19.4-17.1,19.4c-9.7,0-16.6-7.5-16.6-18.7c0-11.7,7.3-19.3,17.1-19.3 C31.3,13.7,37.8,21.3,37.8,32.2z M9.2,32.8c0,7.9,4.3,14.9,11.8,14.9c7.5,0,11.8-6.9,11.8-15.3c0-7.3-3.8-14.9-11.8-14.9 C13.1,17.5,9.2,24.8,9.2,32.8z"/><path fill="#FFFFFF" d="M62.7,43.8c0,2.7,0.1,5.1,0.2,7.2h-4.3l-0.3-4.3h-0.1c-1.3,2.1-4,4.9-8.8,4.9c-4.2,0-9.1-2.3-9.1-11.6 V24.6h4.8v14.6c0,5,1.5,8.4,5.9,8.4c3.2,0,5.5-2.2,6.3-4.4c0.3-0.7,0.4-1.6,0.4-2.5V24.6h4.8V43.8z"/><path fill="#FFFFFF" d="M67.3,32.8c0-3.1-0.1-5.8-0.2-8.2h4.2l0.2,5.2h0.2c1.2-3.5,4.1-5.8,7.3-5.8c0.5,0,0.9,0.1,1.4,0.2v4.5 c-0.5-0.1-1-0.2-1.6-0.2c-3.4,0-5.8,2.6-6.5,6.2c-0.1,0.7-0.2,1.4-0.2,2.2V51h-4.8V32.8z"/><path fill="#FFFFFF" d="M95.4,51l-9.4-36.8h5l4.4,18.6c1.1,4.6,2.1,9.2,2.7,12.7h0.1c0.6-3.7,1.8-8,3-12.8l4.9-18.5h5l4.5,18.7 c1,4.4,2,8.7,2.6,12.6h0.1c0.8-4,1.8-8.1,3-12.7l4.9-18.5h4.9L120.6,51h-5L111,31.9c-1.1-4.7-1.9-8.3-2.4-12h-0.1 c-0.7,3.7-1.5,7.3-2.8,12L100.4,51H95.4z"/><path fill="#FFFFFF" d="M154.9,37.6c0,9.8-6.8,14-13.2,14c-7.2,0-12.7-5.2-12.7-13.6c0-8.8,5.8-14,13.1-14 C149.8,24,154.9,29.5,154.9,37.6z M133.9,37.9c0,5.8,3.3,10.1,8,10.1c4.6,0,8-4.3,8-10.3c0-4.5-2.2-10.1-7.9-10.1 C136.3,27.6,133.9,32.8,133.9,37.9z"/><path fill="#FFFFFF" d="M158.2,32.8c0-3.1-0.1-5.8-0.2-8.2h4.2l0.2,5.2h0.2c1.2-3.5,4.1-5.8,7.3-5.8c0.5,0,0.9,0.1,1.4,0.2v4.5 c-0.5-0.1-1-0.2-1.6-0.2c-3.4,0-5.8,2.6-6.5,6.2c-0.1,0.7-0.2,1.4-0.2,2.2V51h-4.8V32.8z"/><path fill="#FFFFFF" d="M173.5,12.3h4.8V51h-4.8V12.3z"/><path fill="#FFFFFF" d="M206.5,12.3v31.9c0,2.3,0.1,5,0.2,6.8h-4.3l-0.2-4.6H202c-1.5,2.9-4.7,5.2-9,5.2 c-6.4,0-11.3-5.4-11.3-13.4c-0.1-8.8,5.4-14.2,11.9-14.2c4,0,6.8,1.9,8,4h0.1V12.3H206.5z M201.7,35.4c0-0.6-0.1-1.4-0.2-2 c-0.7-3.1-3.3-5.6-6.9-5.6c-5,0-7.9,4.4-7.9,10.2c0,5.3,2.6,9.8,7.8,9.8c3.2,0,6.2-2.1,7.1-5.7c0.2-0.7,0.2-1.3,0.2-2.1V35.4z"/><path fill="#FFFFFF" d="M42.8,64c0.1,1.6-1.1,2.9-3.1,2.9c-1.7,0-2.9-1.3-2.9-2.9c0-1.7,1.3-3,3-3C41.7,61,42.8,62.3,42.8,64z M37.4,97.8V71.4h4.8v26.4H37.4z"/><path fill="#FFFFFF" d="M47.5,78.6c0-2.7-0.1-5-0.2-7.1h4.3l0.3,4.4h0.1c1.3-2.5,4.4-5,8.8-5c3.7,0,9.4,2.2,9.4,11.2v15.8h-4.8 V82.6c0-4.3-1.6-7.8-6.1-7.8c-3.2,0-5.6,2.2-6.5,4.9c-0.2,0.6-0.3,1.4-0.3,2.2v15.9h-4.8V78.6z"/><path fill="#FFFFFF" d="M84,61.6c2.9-0.4,6.3-0.8,10.1-0.8c6.8,0,11.7,1.6,14.9,4.6c3.3,3,5.2,7.3,5.2,13.2c0,6-1.9,10.9-5.3,14.3 c-3.4,3.4-9.1,5.3-16.3,5.3c-3.4,0-6.2-0.2-8.6-0.4V61.6z M88.8,94.1c1.2,0.2,3,0.3,4.8,0.3c10.2,0,15.7-5.7,15.7-15.6 c0.1-8.7-4.9-14.2-14.9-14.2c-2.5,0-4.3,0.2-5.6,0.5V94.1z"/><path fill="#FFFFFF" d="M132.1,97.8l-0.4-3.3h-0.2c-1.5,2.1-4.3,3.9-8.1,3.9c-5.4,0-8.1-3.8-8.1-7.6c0-6.4,5.7-9.9,15.9-9.8v-0.5 c0-2.2-0.6-6.1-6-6.1c-2.5,0-5,0.8-6.9,2l-1.1-3.2c2.2-1.4,5.4-2.3,8.7-2.3c8.1,0,10.1,5.5,10.1,10.8v9.9c0,2.3,0.1,4.5,0.4,6.3 H132.1z M131.4,84.4c-5.3-0.1-11.2,0.8-11.2,5.9c0,3.1,2.1,4.6,4.5,4.6c3.4,0,5.6-2.2,6.4-4.4c0.2-0.5,0.3-1,0.3-1.5V84.4z"/><path fill="#FFFFFF" d="M146.6,63.9v7.6h6.9v3.7h-6.9v14.2c0,3.3,0.9,5.1,3.6,5.1c1.3,0,2.2-0.2,2.8-0.3l0.2,3.6 c-0.9,0.4-2.4,0.7-4.3,0.7c-2.2,0-4-0.7-5.2-2c-1.4-1.4-1.9-3.8-1.9-6.9V75.1h-4.1v-3.7h4.1v-6.3L146.6,63.9z"/><path fill="#FFFFFF" d="M171.4,97.8l-0.4-3.3h-0.2c-1.5,2.1-4.3,3.9-8.1,3.9c-5.4,0-8.1-3.8-8.1-7.6c0-6.4,5.7-9.9,15.9-9.8v-0.5 c0-2.2-0.6-6.1-6-6.1c-2.5,0-5,0.8-6.9,2l-1.1-3.2c2.2-1.4,5.4-2.3,8.7-2.3c8.1,0,10.1,5.5,10.1,10.8v9.9c0,2.3,0.1,4.5,0.4,6.3 H171.4z M170.7,84.4c-5.3-0.1-11.2,0.8-11.2,5.9c0,3.1,2.1,4.6,4.5,4.6c3.4,0,5.6-2.2,6.4-4.4c0.2-0.5,0.3-1,0.3-1.5V84.4z"/></g></g></a></g><a href="https://ourworldindata.org/grapher/number-of-daily-smokers-gender" target="_blank"><text font-size="25.20" x="15.0" y="35.2" fill="#555"><tspan x="15" y="35.160000000000004">Number of daily smokers, men and women, China</tspan></text></a><text font-size="14.40" x="15.0" y="53.7" fill="#666"><tspan x="15" y="53.72">Estimates of the number of men and women who smoke cigarettes at least daily (all ages).</tspan></text></g><g class="LineChart"><defs><clipPath id="boundsClip-67"><rect x="87.598" y="0" width="830" height="959.8"></rect></clipPath></defs><g class="AxisBoxView"><g class="HorizontalAxis"><text x="97.6" y="556.5" fill="#666" text-anchor="middle" font-size="16.2">1980</text><text x="187.2" y="556.5" fill="#666" text-anchor="middle" font-size="16.2">1985</text><text x="276.7" y="556.5" fill="#666" text-anchor="middle" font-size="16.2">1990</text><text x="366.3" y="556.5" fill="#666" text-anchor="middle" font-size="16.2">1995</text><text x="455.9" y="556.5" fill="#666" text-anchor="middle" font-size="16.2">2000</text><text x="545.4" y="556.5" fill="#666" text-anchor="middle" font-size="16.2">2005</text><text x="670.8" y="556.5" fill="#666" text-anchor="middle" font-size="16.2">2012</text></g><g class="VerticalAxis"><text x="92.60" y="535.3" fill="#666" dominant-baseline="middle" text-anchor="end" font-size="16.2">0</text><text x="92.60" y="450.2" fill="#666" dominant-baseline="middle" text-anchor="end" font-size="16.2">50 million</text><text x="92.60" y="365.1" fill="#666" dominant-baseline="middle" text-anchor="end" font-size="16.2">100 million</text><text x="92.60" y="280.1" fill="#666" dominant-baseline="middle" text-anchor="end" font-size="16.2">150 million</text><text x="92.60" y="195" fill="#666" dominant-baseline="middle" text-anchor="end" font-size="16.2">200 million</text><text x="92.60" y="109.9" fill="#666" dominant-baseline="middle" text-anchor="end" font-size="16.2">250 million</text></g><g class="AxisGridLines"><line x1="97.60" y1="535.3" x2="670.80" y2="535.3" stroke="#ccc"></line><line x1="97.60" y1="450.2" x2="670.80" y2="450.2" stroke="#ddd" stroke-dasharray="3,2"></line><line x1="97.60" y1="365.1" x2="670.80" y2="365.1" stroke="#ddd" stroke-dasharray="3,2"></line><line x1="97.60" y1="280.1" x2="670.80" y2="280.1" stroke="#ddd" stroke-dasharray="3,2"></line><line x1="97.60" y1="195" x2="670.80" y2="195" stroke="#ddd" stroke-dasharray="3,2"></line><line x1="97.60" y1="109.9" x2="670.80" y2="109.9" stroke="#ddd" stroke-dasharray="3,2"></line></g></g><g clip-path="url(#boundsClip-67)"><g class="HeightedLegend clickable"><g class="legendMark"><rect x="670.805" y="69.85" width="152.85500000000002" height="13.5" fill="#fff" opacity="0"></rect><text font-size="13.50" x="675.8" y="80.6" fill="#34983f"><tspan x="675.805" y="80.64999999999999">Daily male smokers</tspan></text></g><g class="legendMark"><rect x="670.805" y="507.85" width="164.19500000000002" height="13.5" fill="#fff" opacity="0"></rect><text font-size="13.50" x="675.8" y="518.6" fill="#3360a9"><tspan x="675.805" y="518.65">Daily female smokers</tspan></text></g></g><g class="Lines"><rect x="98" y="77" width="573" height="459" fill="rgba(255,255,255,0)" opacity="0"></rect><g class="key-China_0"><path stroke="#34983f" stroke-linecap="round" d="M98 252L116 241L133 229L151 217L169 206L187 196L205 187L223 179L241 171L259 163L277 156L295 149L313 142L331 134L348 126L366 118L384 111L402 110L420 110L438 112L456 118L474 123L492 127L510 127L528 124L545 122L563 120L581 117L599 112L617 104L635 96L653 86L671 77" fill="none" stroke-width="1.5"></path><g fill="#34983f"><circle cx="98" cy="252" r="2"></circle><circle cx="116" cy="241" r="2"></circle><circle cx="133" cy="229" r="2"></circle><circle cx="151" cy="217" r="2"></circle><circle cx="169" cy="206" r="2"></circle><circle cx="187" cy="196" r="2"></circle><circle cx="205" cy="187" r="2"></circle><circle cx="223" cy="179" r="2"></circle><circle cx="241" cy="171" r="2"></circle><circle cx="259" cy="163" r="2"></circle><circle cx="277" cy="156" r="2"></circle><circle cx="295" cy="149" r="2"></circle><circle cx="313" cy="142" r="2"></circle><circle cx="331" cy="134" r="2"></circle><circle cx="348" cy="126" r="2"></circle><circle cx="366" cy="118" r="2"></circle><circle cx="384" cy="111" r="2"></circle><circle cx="402" cy="110" r="2"></circle><circle cx="420" cy="110" r="2"></circle><circle cx="438" cy="112" r="2"></circle><circle cx="456" cy="118" r="2"></circle><circle cx="474" cy="123" r="2"></circle><circle cx="492" cy="127" r="2"></circle><circle cx="510" cy="127" r="2"></circle><circle cx="528" cy="124" r="2"></circle><circle cx="545" cy="122" r="2"></circle><circle cx="563" cy="120" r="2"></circle><circle cx="581" cy="117" r="2"></circle><circle cx="599" cy="112" r="2"></circle><circle cx="617" cy="104" r="2"></circle><circle cx="635" cy="96" r="2"></circle><circle cx="653" cy="86" r="2"></circle><circle cx="671" cy="77" r="2"></circle></g></g><g class="key-China_1"><path stroke="#3360a9" stroke-linecap="round" d="M98 508L116 507L133 506L151 505L169 503L187 503L205 504L223 504L241 505L259 505L277 506L295 506L313 507L331 507L348 508L366 508L384 508L402 509L420 509L438 509L456 510L474 512L492 513L510 514L528 515L545 516L563 517L581 517L599 517L617 517L635 516L653 516L671 515" fill="none" stroke-width="1.5"></path><g fill="#3360a9"><circle cx="98" cy="508" r="2"></circle><circle cx="116" cy="507" r="2"></circle><circle cx="133" cy="506" r="2"></circle><circle cx="151" cy="505" r="2"></circle><circle cx="169" cy="503" r="2"></circle><circle cx="187" cy="503" r="2"></circle><circle cx="205" cy="504" r="2"></circle><circle cx="223" cy="504" r="2"></circle><circle cx="241" cy="505" r="2"></circle><circle cx="259" cy="505" r="2"></circle><circle cx="277" cy="506" r="2"></circle><circle cx="295" cy="506" r="2"></circle><circle cx="313" cy="507" r="2"></circle><circle cx="331" cy="507" r="2"></circle><circle cx="348" cy="508" r="2"></circle><circle cx="366" cy="508" r="2"></circle><circle cx="384" cy="508" r="2"></circle><circle cx="402" cy="509" r="2"></circle><circle cx="420" cy="509" r="2"></circle><circle cx="438" cy="509" r="2"></circle><circle cx="456" cy="510" r="2"></circle><circle cx="474" cy="512" r="2"></circle><circle cx="492" cy="513" r="2"></circle><circle cx="510" cy="514" r="2"></circle><circle cx="528" cy="515" r="2"></circle><circle cx="545" cy="516" r="2"></circle><circle cx="563" cy="517" r="2"></circle><circle cx="581" cy="517" r="2"></circle><circle cx="599" cy="517" r="2"></circle><circle cx="617" cy="517" r="2"></circle><circle cx="635" cy="516" r="2"></circle><circle cx="653" cy="516" r="2"></circle><circle cx="671" cy="515" r="2"></circle></g></g></g></g></g><g class="SourcesFooter" style="fill:#777"><g class="clickable" style="fill:#777"><text font-size="12.60" x="15.0" y="581.6"><tspan x="15" y="581.58">Source: Institute for Health Metrics and Evaluation (IHME) (2012)</tspan></text></g><text font-size="12.60" x="775.4" y="581.6"><tspan x="775.402" y="581.58"><a style="fill: #777;" class="cclogo" href="http://creativecommons.org/licenses/by-sa/4.0/deed.en_US" target="_blank">CC BY-SA</a></tspan></text></g></g></svg>