<svg xmlns="http://www.w3.org/2000/svg" version="1.1" style="font-family:&#x27;Helvetica Neue&#x27;, Helvetica, Arial, sans-serif;font-size:18px;background-color:white;text-rendering:optimizeLegibility;-webkit-font-smoothing:antialiased" width="850" height="600"><g class="ChartTab"><g class="HeaderView"><g opacity="0.8" transform="translate(778, 15) scale(0.27)"><a xmlns:xlink="http://www.w3.org/1999/xlink" xlink:href="https://ourworldindata.org" target="_blank"><g><rect x="0" y="0" fill="#1B2543" width="211.2" height="130.1"/><rect x="0" y="112.2" fill="#E63912" width="211.2" height="17.9"/><g><rect x="1.2" y="12.3" fill="none" width="210.2" height="99.2"/><path fill="#FFFFFF" d="M37.8,32.2c0,12.7-7.7,19.4-17.1,19.4c-9.7,0-16.6-7.5-16.6-18.7c0-11.7,7.3-19.3,17.1-19.3 C31.3,13.7,37.8,21.3,37.8,32.2z M9.2,32.8c0,7.9,4.3,14.9,11.8,14.9c7.5,0,11.8-6.9,11.8-15.3c0-7.3-3.8-14.9-11.8-14.9 C13.1,17.5,9.2,24.8,9.2,32.8z"/><path fill="#FFFFFF" d="M62.7,43.8c0,2.7,0.1,5.1,0.2,7.2h-4.3l-0.3-4.3h-0.1c-1.3,2.1-4,4.9-8.8,4.9c-4.2,0-9.1-2.3-9.1-11.6 V24.6h4.8v14.6c0,5,1.5,8.4,5.9,8.4c3.2,0,5.5-2.2,6.3-4.4c0.3-0.7,0.4-1.6,0.4-2.5V24.6h4.8V43.8z"/><path fill="#FFFFFF" d="M67.3,32.8c0-3.1-0.1-5.8-0.2-8.2h4.2l0.2,5.2h0.2c1.2-3.5,4.1-5.8,7.3-5.8c0.5,0,0.9,0.1,1.4,0.2v4.5 c-0.5-0.1-1-0.2-1.6-0.2c-3.4,0-5.8,2.6-6.5,6.2c-0.1,0.7-0.2,1.4-0.2,2.2V51h-4.8V32.8z"/><path fill="#FFFFFF" d="M95.4,51l-9.4-36.8h5l4.4,18.6c1.1,4.6,2.1,9.2,2.7,12.7h0.1c0.6-3.7,1.8-8,3-12.8l4.9-18.5h5l4.5,18.7 c1,4.4,2,8.7,2.6,12.6h0.1c0.8-4,1.8-8.1,3-12.7l4.9-18.5h4.9L120.6,51h-5L111,31.9c-1.1-4.7-1.9-8.3-2.4-12h-0.1 c-0.7,3.7-1.5,7.3-2.8,12L100.4,51H95.4z"/><path fill="#FFFFFF" d="M154.9,37.6c0,9.8-6.8,14-13.2,14c-7.2,0-12.7-5.2-12.7-13.6c0-8.8,5.8-14,13.1-14 C149.8,24,154.9,29.5,154.9,37.6z M133.9,37.9c0,5.8,3.3,10.1,8,10.1c4.6,0,8-4.3,8-10.3c0-4.5-2.2-10.1-7.9-10.1 C136.3,27.6,133.9,32.8,133.9,37.9z"/><path fill="#FFFFFF" d="M158.2,32.8c0-3.1-0.1-5.8-0.2-8.2h4.2l0.2,5.2h0.2c1.2-3.5,4.1-5.8,7.3-5.8c0.5,0,0.9,0.1,1.4,0.2v4.5 c-0.5-0.1-1-0.2-1.6-0.2c-3.4,0-5.8,2.6-6.5,6.2c-0.1,0.7-0.2,1.4-0.2,2.2V51h-4.8V32.8z"/><path fill="#FFFFFF" d="M173.5,12.3h4.8V51h-4.8V12.3z"/><path fill="#FFFFFF" d="M206.5,12.3v31.9c0,2.3,0.1,5,0.2,6.8h-4.3l-0.2-4.6H202c-1.5,2.9-4.7,5.2-9,5.2 c-6.4,0-11.3-5.4-11.3-13.4c-0.1-8.8,5.4-14.2,11.9-14.2c4,0,6.8,1.9,8,4h0.1V12.3H206.5z M201.7,35.4c0-0.6-0.1-1.4-0.2-2 c-0.7-3.1-3.3-5.6-6.9-5.6c-5,0-7.9,4.4-7.9,10.2c0,5.3,2.6,9.8,7.8,9.8c3.2,0,6.2-2.1,7.1-5.7c0.2-0.7,0.2-1.3,0.2-2.1V35.4z"/><path fill="#FFFFFF" d="M42.8,64c0.1,1.6-1.1,2.9-3.1,2.9c-1.7,0-2.9-1.3-2.9-2.9c0-1.7,1.3-3,3-3C41.7,61,42.8,62.3,42.8,64z M37.4,97.8V71.4h4.8v26.4H37.4z"/><path fill="#FFFFFF" d="M47.5,78.6c0-2.7-0.1-5-0.2-7.1h4.3l0.3,4.4h0.1c1.3-2.5,4.4-5,8.8-5c3.7,0,9.4,2.2,9.4,11.2v15.8h-4.8 V82.6c0-4.3-1.6-7.8-6.1-7.8c-3.2,0-5.6,2.2-6.5,4.9c-0.2,0.6-0.3,1.4-0.3,2.2v15.9h-4.8V78.6z"/><path fill="#FFFFFF" d="M84,61.6c2.9-0.4,6.3-0.8,10.1-0.8c6.8,0,11.7,1.6,14.9,4.6c3.3,3,5.2,7.3,5.2,13.2c0,6-1.9,10.9-5.3,14.3 c-3.4,3.4-9.1,5.3-16.3,5.3c-3.4,0-6.2-0.2-8.6-0.4V61.6z M88.8,94.1c1.2,0.2,3,0.3,4.8,0.3c10.2,0,15.7-5.7,15.7-15.6 c0.1-8.7-4.9-14.2-14.9-14.2c-2.5,0-4.3,0.2-5.6,0.5V94.1z"/><path fill="#FFFFFF" d="M132.1,97.8l-0.4-3.3h-0.2c-1.5,2.1-4.3,3.9-8.1,3.9c-5.4,0-8.1-3.8-8.1-7.6c0-6.4,5.7-9.9,15.9-9.8v-0.5 c0-2.2-0.6-6.1-6-6.1c-2.5,0-5,0.8-6.9,2l-1.1-3.2c2.2-1.4,5.4-2.3,8.7-2.3c8.1,0,10.1,5.5,10.1,10.8v9.9c0,2.3,0.1,4.5,0.4,6.3 H132.1z M131.4,84.4c-5.3-0.1-11.2,0.8-11.2,5.9c0,3.1,2.1,4.6,4.5,4.6c3.4,0,5.6-2.2,6.4-4.4c0.2-0.5,0.3-1,0.3-1.5V84.4z"/><path fill="#FFFFFF" d="M146.6,63.9v7.6h6.9v3.7h-6.9v14.2c0,3.3,0.9,5.1,3.6,5.1c1.3,0,2.2-0.2,2.8-0.3l0.2,3.6 c-0.9,0.4-2.4,0.7-4.3,0.7c-2.2,0-4-0.7-5.2-2c-1.4-1.4-1.9-3.8-1.9-6.9V75.1h-4.1v-3.7h4.1v-6.3L146.6,63.9z"/><path fill="#FFFFFF" d="M171.4,97.8l-0.4-3.3h-0.2c-1.5,2.1-4.3,3.9-8.1,3.9c-5.4,0-8.1-3.8-8.1-7.6c0-6.4,5.7-9.9,15.9-9.8v-0.5 c0-2.2-0.6-6.1-6-6.1c-2.5,0-5,0.8-6.9,2l-1.1-3.2c2.2-1.4,5.4-2.3,8.7-2.3c8.1,0,10.1,5.5,10.1,10.8v9.9c0,2.3,0.1,4.5,0.4,6.3 H171.4z M170.7,84.4c-5.3-0.1-11.2,0.8-11.2,5.9c0,3.1,2.1,4.6,4.5,4.6c3.4,0,5.6-2.2,6.4-4.4c0.2-0.5,0.3-1,0.3-1.5V84.4z"/></g></g></a></g><a href="https://ourworldindata.org/grapher/number-of-reported-road-incidents" target="_blank"><text font-size="25.20" x="15.0" y="35.2" fill="#555"><tspan x="15" y="35.160000000000004">Number of reported road incidents, Germany</tspan></text></a><text font-size="14.40" x="15.0" y="53.7" fill="#666"><tspan x="15" y="53.72">Total number of road incidents reported to the police. This is differentiated by those with any form of casualty, and</tspan><tspan x="15" y="69.56">those with material damage only.</tspan></text></g><g class="StackedArea"><defs><clipPath id="boundsClip-413"><rect x="93.062" y="0" width="820" height="928.8"></rect></clipPath></defs><g class="AxisBoxView"><g class="HorizontalAxis"><text x="93.1" y="556.5" fill="#666" text-anchor="middle" font-size="16.2">1953</text><text x="159.1" y="556.5" fill="#666" text-anchor="middle" font-size="16.2">1960</text><text x="253.3" y="556.5" fill="#666" text-anchor="middle" font-size="16.2">1970</text><text x="347.6" y="556.5" fill="#666" text-anchor="middle" font-size="16.2">1980</text><text x="441.9" y="556.5" fill="#666" text-anchor="middle" font-size="16.2">1990</text><text x="536.2" y="556.5" fill="#666" text-anchor="middle" font-size="16.2">2000</text><text x="630.4" y="556.5" fill="#666" text-anchor="middle" font-size="16.2">2010</text><text x="687" y="556.5" fill="#666" text-anchor="middle" font-size="16.2">2016</text></g><g class="VerticalAxis"><text x="88.06" y="535.3" fill="#666" dominant-baseline="middle" text-anchor="end" font-size="16.2">0</text><text x="88.06" y="449.6" fill="#666" dominant-baseline="middle" text-anchor="end" font-size="16.2">500,000</text><text x="88.06" y="363.9" fill="#666" dominant-baseline="middle" text-anchor="end" font-size="16.2">1 million</text><text x="88.06" y="278.2" fill="#666" dominant-baseline="middle" text-anchor="end" font-size="16.2">1.5 million</text><text x="88.06" y="192.4" fill="#666" dominant-baseline="middle" text-anchor="end" font-size="16.2">2 million</text><text x="88.06" y="106.7" fill="#666" dominant-baseline="middle" text-anchor="end" font-size="16.2">2.5 million</text></g><g class="AxisGridLines"><line x1="93.06" y1="535.3" x2="687.00" y2="535.3" stroke="#ccc"></line><line x1="93.06" y1="449.6" x2="687.00" y2="449.6" stroke="#ddd" stroke-dasharray="3,2"></line><line x1="93.06" y1="363.9" x2="687.00" y2="363.9" stroke="#ddd" stroke-dasharray="3,2"></line><line x1="93.06" y1="278.2" x2="687.00" y2="278.2" stroke="#ddd" stroke-dasharray="3,2"></line><line x1="93.06" y1="192.4" x2="687.00" y2="192.4" stroke="#ddd" stroke-dasharray="3,2"></line><line x1="93.06" y1="106.7" x2="687.00" y2="106.7" stroke="#ddd" stroke-dasharray="3,2"></line></g></g><g clip-path="url(#boundsClip-413)"><g class="HeightedLegend clickable"><g class="legendMark"><rect x="687.005" y="265.95" width="147.995" height="42.7" fill="#fff" opacity="0"></rect><text font-size="13.50" x="692.0" y="276.8" fill="#818282"><tspan x="692.005" y="276.75">Accidents reported</tspan><tspan x="692.005" y="291.6">with material</tspan><tspan x="692.005" y="306.45">damage</tspan></text></g><g class="legendMark"><rect x="687.005" y="494.84999999999997" width="147.995" height="28.1" fill="#fff" opacity="0"></rect><text font-size="13.50" x="692.0" y="505.6" fill="#3360a9"><tspan x="692.005" y="505.65">Accidents reported</tspan><tspan x="692.005" y="520.5">with injury</tspan></text></g></g><g class="Areas"><rect x="93.062" y="92.1" width="593.943" height="443.19999999999993" opacity="0" fill="rgba(255,255,255,0)"></rect><path class="Germany_0-area" stroke-linecap="round" d="M93.1 492.2L102.5 489.4L111.9 484.5L121.3 482.7L130.8 483.9L140.2 484.4L149.6 479.1L159.1 475.4L168.5 477.1L177.9 480.2L187.3 481.4L196.8 479L206.2 481.1L215.6 478.3L225 477.8L234.5 477.1L243.9 477.2L253.3 470.6L262.8 472L272.2 470.4L281.6 474.7L291 478.6L300.5 477.4L309.9 473.6L319.3 470.3L328.8 470.1L338.2 472.3L347.6 470.3L357 473.1L366.5 473.8L375.9 471.2L385.3 473.7L394.7 479.1L404.2 476.7L413.6 479.5L423 476.6L432.5 476.4L441.9 477L451.3 469.3L460.7 467.5L470.2 469.2L479.6 468L489 468.8L498.5 471.3L507.9 470L517.3 470.6L526.7 467.5L536.2 469.7L545.6 471L555 473.2L564.4 474.5L573.9 477.1L583.3 477.6L592.7 479.1L602.2 477.7L611.6 480.3L621 482L630.4 485.9L639.9 482.8L649.3 483.9L658.7 485.4L668.1 483.5L677.6 482.9L687 482.5L687.005 535.3L93.062 535.3" fill="#3360a9" fill-opacity="0.7"></path><path class="Germany_1-area" stroke-linecap="round" d="M93.1 454.2L102.5 445.5L111.9 431.9L121.3 421.5L130.8 418.9L140.2 406.4L149.6 390.7L159.1 365.6L168.5 358.8L177.9 350.3L187.3 347.3L196.8 348.6L206.2 346.8L215.6 335.1L225 339.1L234.5 332.8L243.9 327.3L253.3 296.7L262.8 305.9L272.2 298.5L281.6 308.2L291 324.6L300.5 318.5L309.9 292.1L319.3 274.1L328.8 257.7L338.2 250.6L347.6 246.5L357 247.6L366.5 256L375.9 245.1L385.3 230L394.7 219.8L404.2 203.5L413.6 196.3L423 188.6L432.5 192.8L441.9 190.6L451.3 139L460.7 126.5L470.2 133.2L479.6 146L489 151.6L498.5 146.2L507.9 152.6L517.3 148.3L526.7 121.6L536.2 132.4L545.6 128.4L555 142.8L564.4 147.9L573.9 147.6L583.3 148.9L592.7 152.1L602.2 135L611.6 142.1L621 138.7L630.4 121.9L639.9 130.5L649.3 123.6L658.7 121.5L668.1 122.7L677.6 103.8L687 92.1L687 482.5L677.6 482.9L668.1 483.5L658.7 485.4L649.3 483.9L639.9 482.8L630.4 485.9L621 482L611.6 480.3L602.2 477.7L592.7 479.1L583.3 477.6L573.9 477.1L564.4 474.5L555 473.2L545.6 471L536.2 469.7L526.7 467.5L517.3 470.6L507.9 470L498.5 471.3L489 468.8L479.6 468L470.2 469.2L460.7 467.5L451.3 469.3L441.9 477L432.5 476.4L423 476.6L413.6 479.5L404.2 476.7L394.7 479.1L385.3 473.7L375.9 471.2L366.5 473.8L357 473.1L347.6 470.3L338.2 472.3L328.8 470.1L319.3 470.3L309.9 473.6L300.5 477.4L291 478.6L281.6 474.7L272.2 470.4L262.8 472L253.3 470.6L243.9 477.2L234.5 477.1L225 477.8L215.6 478.3L206.2 481.1L196.8 479L187.3 481.4L177.9 480.2L168.5 477.1L159.1 475.4L149.6 479.1L140.2 484.4L130.8 483.9L121.3 482.7L111.9 484.5L102.5 489.4L93.1 492.2" fill="#818282" fill-opacity="0.7"></path><path class="Germany_0-border" stroke-linecap="round" d="M93.1 492.2L102.5 489.4L111.9 484.5L121.3 482.7L130.8 483.9L140.2 484.4L149.6 479.1L159.1 475.4L168.5 477.1L177.9 480.2L187.3 481.4L196.8 479L206.2 481.1L215.6 478.3L225 477.8L234.5 477.1L243.9 477.2L253.3 470.6L262.8 472L272.2 470.4L281.6 474.7L291 478.6L300.5 477.4L309.9 473.6L319.3 470.3L328.8 470.1L338.2 472.3L347.6 470.3L357 473.1L366.5 473.8L375.9 471.2L385.3 473.7L394.7 479.1L404.2 476.7L413.6 479.5L423 476.6L432.5 476.4L441.9 477L451.3 469.3L460.7 467.5L470.2 469.2L479.6 468L489 468.8L498.5 471.3L507.9 470L517.3 470.6L526.7 467.5L536.2 469.7L545.6 471L555 473.2L564.4 474.5L573.9 477.1L583.3 477.6L592.7 479.1L602.2 477.7L611.6 480.3L621 482L630.4 485.9L639.9 482.8L649.3 483.9L658.7 485.4L668.1 483.5L677.6 482.9L687 482.5" stroke="rgb(43, 80, 141)" stroke-opacity="0.7" stroke-width="0.5" fill="none"></path><path class="Germany_1-border" stroke-linecap="round" d="M93.1 454.2L102.5 445.5L111.9 431.9L121.3 421.5L130.8 418.9L140.2 406.4L149.6 390.7L159.1 365.6L168.5 358.8L177.9 350.3L187.3 347.3L196.8 348.6L206.2 346.8L215.6 335.1L225 339.1L234.5 332.8L243.9 327.3L253.3 296.7L262.8 305.9L272.2 298.5L281.6 308.2L291 324.6L300.5 318.5L309.9 292.1L319.3 274.1L328.8 257.7L338.2 250.6L347.6 246.5L357 247.6L366.5 256L375.9 245.1L385.3 230L394.7 219.8L404.2 203.5L413.6 196.3L423 188.6L432.5 192.8L441.9 190.6L451.3 139L460.7 126.5L470.2 133.2L479.6 146L489 151.6L498.5 146.2L507.9 152.6L517.3 148.3L526.7 121.6L536.2 132.4L545.6 128.4L555 142.8L564.4 147.9L573.9 147.6L583.3 148.9L592.7 152.1L602.2 135L611.6 142.1L621 138.7L630.4 121.9L639.9 130.5L649.3 123.6L658.7 121.5L668.1 122.7L677.6 103.8L687 92.1" stroke="rgb(108, 109, 109)" stroke-opacity="0.7" stroke-width="0.5" fill="none"></path></g></g></g><g class="SourcesFooter" style="fill:#777"><g class="clickable" style="fill:#777"><text font-size="12.60" x="15.0" y="581.6"><tspan x="15" y="581.58">Source: Statistisches Bundesamt</tspan></text></g><text font-size="12.60" x="775.4" y="581.6"><tspan x="775.402" y="581.58"><a style="fill: #777;" class="cclogo" href="http://creativecommons.org/licenses/by-sa/4.0/deed.en_US" target="_blank">CC BY-SA</a></tspan></text></g></g></svg>