<svg xmlns="http://www.w3.org/2000/svg" version="1.1" style="font-family:&#x27;Helvetica Neue&#x27;, Helvetica, Arial, sans-serif;font-size:18px;background-color:white;text-rendering:optimizeLegibility;-webkit-font-smoothing:antialiased" width="850" height="600"><g class="ChartTab"><g class="HeaderView"><g opacity="0.8" transform="translate(778, 15) scale(0.27)"><a xmlns:xlink="http://www.w3.org/1999/xlink" xlink:href="https://ourworldindata.org" target="_blank"><g><rect x="0" y="0" fill="#1B2543" width="211.2" height="130.1"/><rect x="0" y="112.2" fill="#E63912" width="211.2" height="17.9"/><g><rect x="1.2" y="12.3" fill="none" width="210.2" height="99.2"/><path fill="#FFFFFF" d="M37.8,32.2c0,12.7-7.7,19.4-17.1,19.4c-9.7,0-16.6-7.5-16.6-18.7c0-11.7,7.3-19.3,17.1-19.3 C31.3,13.7,37.8,21.3,37.8,32.2z M9.2,32.8c0,7.9,4.3,14.9,11.8,14.9c7.5,0,11.8-6.9,11.8-15.3c0-7.3-3.8-14.9-11.8-14.9 C13.1,17.5,9.2,24.8,9.2,32.8z"/><path fill="#FFFFFF" d="M62.7,43.8c0,2.7,0.1,5.1,0.2,7.2h-4.3l-0.3-4.3h-0.1c-1.3,2.1-4,4.9-8.8,4.9c-4.2,0-9.1-2.3-9.1-11.6 V24.6h4.8v14.6c0,5,1.5,8.4,5.9,8.4c3.2,0,5.5-2.2,6.3-4.4c0.3-0.7,0.4-1.6,0.4-2.5V24.6h4.8V43.8z"/><path fill="#FFFFFF" d="M67.3,32.8c0-3.1-0.1-5.8-0.2-8.2h4.2l0.2,5.2h0.2c1.2-3.5,4.1-5.8,7.3-5.8c0.5,0,0.9,0.1,1.4,0.2v4.5 c-0.5-0.1-1-0.2-1.6-0.2c-3.4,0-5.8,2.6-6.5,6.2c-0.1,0.7-0.2,1.4-0.2,2.2V51h-4.8V32.8z"/><path fill="#FFFFFF" d="M95.4,51l-9.4-36.8h5l4.4,18.6c1.1,4.6,2.1,9.2,2.7,12.7h0.1c0.6-3.7,1.8-8,3-12.8l4.9-18.5h5l4.5,18.7 c1,4.4,2,8.7,2.6,12.6h0.1c0.8-4,1.8-8.1,3-12.7l4.9-18.5h4.9L120.6,51h-5L111,31.9c-1.1-4.7-1.9-8.3-2.4-12h-0.1 c-0.7,3.7-1.5,7.3-2.8,12L100.4,51H95.4z"/><path fill="#FFFFFF" d="M154.9,37.6c0,9.8-6.8,14-13.2,14c-7.2,0-12.7-5.2-12.7-13.6c0-8.8,5.8-14,13.1-14 C149.8,24,154.9,29.5,154.9,37.6z M133.9,37.9c0,5.8,3.3,10.1,8,10.1c4.6,0,8-4.3,8-10.3c0-4.5-2.2-10.1-7.9-10.1 C136.3,27.6,133.9,32.8,133.9,37.9z"/><path fill="#FFFFFF" d="M158.2,32.8c0-3.1-0.1-5.8-0.2-8.2h4.2l0.2,5.2h0.2c1.2-3.5,4.1-5.8,7.3-5.8c0.5,0,0.9,0.1,1.4,0.2v4.5 c-0.5-0.1-1-0.2-1.6-0.2c-3.4,0-5.8,2.6-6.5,6.2c-0.1,0.7-0.2,1.4-0.2,2.2V51h-4.8V32.8z"/><path fill="#FFFFFF" d="M173.5,12.3h4.8V51h-4.8V12.3z"/><path fill="#FFFFFF" d="M206.5,12.3v31.9c0,2.3,0.1,5,0.2,6.8h-4.3l-0.2-4.6H202c-1.5,2.9-4.7,5.2-9,5.2 c-6.4,0-11.3-5.4-11.3-13.4c-0.1-8.8,5.4-14.2,11.9-14.2c4,0,6.8,1.9,8,4h0.1V12.3H206.5z M201.7,35.4c0-0.6-0.1-1.4-0.2-2 c-0.7-3.1-3.3-5.6-6.9-5.6c-5,0-7.9,4.4-7.9,10.2c0,5.3,2.6,9.8,7.8,9.8c3.2,0,6.2-2.1,7.1-5.7c0.2-0.7,0.2-1.3,0.2-2.1V35.4z"/><path fill="#FFFFFF" d="M42.8,64c0.1,1.6-1.1,2.9-3.1,2.9c-1.7,0-2.9-1.3-2.9-2.9c0-1.7,1.3-3,3-3C41.7,61,42.8,62.3,42.8,64z M37.4,97.8V71.4h4.8v26.4H37.4z"/><path fill="#FFFFFF" d="M47.5,78.6c0-2.7-0.1-5-0.2-7.1h4.3l0.3,4.4h0.1c1.3-2.5,4.4-5,8.8-5c3.7,0,9.4,2.2,9.4,11.2v15.8h-4.8 V82.6c0-4.3-1.6-7.8-6.1-7.8c-3.2,0-5.6,2.2-6.5,4.9c-0.2,0.6-0.3,1.4-0.3,2.2v15.9h-4.8V78.6z"/><path fill="#FFFFFF" d="M84,61.6c2.9-0.4,6.3-0.8,10.1-0.8c6.8,0,11.7,1.6,14.9,4.6c3.3,3,5.2,7.3,5.2,13.2c0,6-1.9,10.9-5.3,14.3 c-3.4,3.4-9.1,5.3-16.3,5.3c-3.4,0-6.2-0.2-8.6-0.4V61.6z M88.8,94.1c1.2,0.2,3,0.3,4.8,0.3c10.2,0,15.7-5.7,15.7-15.6 c0.1-8.7-4.9-14.2-14.9-14.2c-2.5,0-4.3,0.2-5.6,0.5V94.1z"/><path fill="#FFFFFF" d="M132.1,97.8l-0.4-3.3h-0.2c-1.5,2.1-4.3,3.9-8.1,3.9c-5.4,0-8.1-3.8-8.1-7.6c0-6.4,5.7-9.9,15.9-9.8v-0.5 c0-2.2-0.6-6.1-6-6.1c-2.5,0-5,0.8-6.9,2l-1.1-3.2c2.2-1.4,5.4-2.3,8.7-2.3c8.1,0,10.1,5.5,10.1,10.8v9.9c0,2.3,0.1,4.5,0.4,6.3 H132.1z M131.4,84.4c-5.3-0.1-11.2,0.8-11.2,5.9c0,3.1,2.1,4.6,4.5,4.6c3.4,0,5.6-2.2,6.4-4.4c0.2-0.5,0.3-1,0.3-1.5V84.4z"/><path fill="#FFFFFF" d="M146.6,63.9v7.6h6.9v3.7h-6.9v14.2c0,3.3,0.9,5.1,3.6,5.1c1.3,0,2.2-0.2,2.8-0.3l0.2,3.6 c-0.9,0.4-2.4,0.7-4.3,0.7c-2.2,0-4-0.7-5.2-2c-1.4-1.4-1.9-3.8-1.9-6.9V75.1h-4.1v-3.7h4.1v-6.3L146.6,63.9z"/><path fill="#FFFFFF" d="M171.4,97.8l-0.4-3.3h-0.2c-1.5,2.1-4.3,3.9-8.1,3.9c-5.4,0-8.1-3.8-8.1-7.6c0-6.4,5.7-9.9,15.9-9.8v-0.5 c0-2.2-0.6-6.1-6-6.1c-2.5,0-5,0.8-6.9,2l-1.1-3.2c2.2-1.4,5.4-2.3,8.7-2.3c8.1,0,10.1,5.5,10.1,10.8v9.9c0,2.3,0.1,4.5,0.4,6.3 H171.4z M170.7,84.4c-5.3-0.1-11.2,0.8-11.2,5.9c0,3.1,2.1,4.6,4.5,4.6c3.4,0,5.6-2.2,6.4-4.4c0.2-0.5,0.3-1,0.3-1.5V84.4z"/></g></g></a></g><a href="https://ourworldindata.org/grapher/number-of-terrorism-fatalities-by-region" target="_blank"><text font-size="25.20" x="15.0" y="35.2" fill="#555"><tspan x="15" y="35.160000000000004">Number of terrorism fatalities by region</tspan></text></a><text font-size="14.40" x="15.0" y="53.7" fill="#666"><tspan x="15" y="53.72">Total number of fatalities from terrorism-related attacks by region. This represents the number of total confirmed</tspan><tspan x="15" y="69.56">fatalities, and includes all victims and attackers who died as a direct result of the incident.</tspan></text></g><g class="StackedArea"><defs><clipPath id="boundsClip-98"><rect x="69.896" y="0" width="820" height="928.8"></rect></clipPath></defs><g class="AxisBoxView"><g class="HorizontalAxis"><text x="69.9" y="556.5" fill="#666" text-anchor="middle" font-size="16.2">1970</text><text x="201.9" y="556.5" fill="#666" text-anchor="middle" font-size="16.2">1980</text><text x="333.9" y="556.5" fill="#666" text-anchor="middle" font-size="16.2">1990</text><text x="465.9" y="556.5" fill="#666" text-anchor="middle" font-size="16.2">2000</text><text x="597.9" y="556.5" fill="#666" text-anchor="middle" font-size="16.2">2010</text><text x="690.2" y="556.5" fill="#666" text-anchor="middle" font-size="16.2">2017</text></g><g class="VerticalAxis"><text x="64.90" y="535.3" fill="#666" dominant-baseline="middle" text-anchor="end" font-size="16.2">0</text><text x="64.90" y="435.7" fill="#666" dominant-baseline="middle" text-anchor="end" font-size="16.2">10,000</text><text x="64.90" y="336" fill="#666" dominant-baseline="middle" text-anchor="end" font-size="16.2">20,000</text><text x="64.90" y="236.4" fill="#666" dominant-baseline="middle" text-anchor="end" font-size="16.2">30,000</text><text x="64.90" y="136.8" fill="#666" dominant-baseline="middle" text-anchor="end" font-size="16.2">40,000</text></g><g class="AxisGridLines"><line x1="69.90" y1="535.3" x2="690.25" y2="535.3" stroke="#ccc"></line><line x1="69.90" y1="435.7" x2="690.25" y2="435.7" stroke="#ddd" stroke-dasharray="3,2"></line><line x1="69.90" y1="336" x2="690.25" y2="336" stroke="#ddd" stroke-dasharray="3,2"></line><line x1="69.90" y1="236.4" x2="690.25" y2="236.4" stroke="#ddd" stroke-dasharray="3,2"></line><line x1="69.90" y1="136.8" x2="690.25" y2="136.8" stroke="#ddd" stroke-dasharray="3,2"></line></g></g><g clip-path="url(#boundsClip-98)"><g class="HeightedLegend clickable"><g class="legendMark"><g class="indicator"><line x1="695.245" y1="271.9" x2="717.745" y2="271.9" stroke="#666" stroke-width="0.5"></line><line x1="717.745" y1="271.9" x2="717.745" y2="271.9" stroke="#666" stroke-width="0.5"></line><line x1="717.745" y1="271.9" x2="720.245" y2="271.9" stroke="#666" stroke-width="0.5"></line></g><rect x="690.245" y="257.84999999999997" width="144.755" height="28.1" fill="#fff" opacity="0"></rect><text font-size="13.50" x="725.2" y="268.6" fill="#6bb537"><tspan x="725.245" y="268.65">Central America &amp;</tspan><tspan x="725.245" y="283.5">Caribbean</tspan></text></g><g class="legendMark"><g class="indicator"><line x1="695.245" y1="272.4" x2="715.745" y2="272.4" stroke="#666" stroke-width="0.5"></line><line x1="715.745" y1="272.4" x2="715.745" y2="294.7" stroke="#666" stroke-width="0.5"></line><line x1="715.745" y1="294.7" x2="720.245" y2="294.7" stroke="#666" stroke-width="0.5"></line></g><rect x="690.245" y="287.95" width="123.83000000000001" height="13.5" fill="#fff" opacity="0"></rect><text font-size="13.50" x="725.2" y="298.8" fill="#5eb77e"><tspan x="725.245" y="298.75">South America</tspan></text></g><g class="legendMark"><g class="indicator"><line x1="695.245" y1="273.5" x2="713.745" y2="273.5" stroke="#666" stroke-width="0.5"></line><line x1="713.745" y1="273.5" x2="713.745" y2="310.2" stroke="#666" stroke-width="0.5"></line><line x1="713.745" y1="310.2" x2="720.245" y2="310.2" stroke="#666" stroke-width="0.5"></line></g><rect x="690.245" y="303.45" width="121.4" height="13.5" fill="#fff" opacity="0"></rect><text font-size="13.50" x="725.2" y="314.3" fill="#34983f"><tspan x="725.245" y="314.25">North America</tspan></text></g><g class="legendMark"><g class="indicator"><line x1="695.245" y1="274.7" x2="711.745" y2="274.7" stroke="#666" stroke-width="0.5"></line><line x1="711.745" y1="274.7" x2="711.745" y2="325.7" stroke="#666" stroke-width="0.5"></line><line x1="711.745" y1="325.7" x2="720.245" y2="325.7" stroke="#666" stroke-width="0.5"></line></g><rect x="690.245" y="318.95" width="129.23000000000002" height="13.5" fill="#fff" opacity="0"></rect><text font-size="13.50" x="725.2" y="329.8" fill="#fceb8c"><tspan x="725.245" y="329.75">Eastern Europe</tspan></text></g><g class="legendMark"><g class="indicator"><line x1="695.245" y1="275.6" x2="709.745" y2="275.6" stroke="#666" stroke-width="0.5"></line><line x1="709.745" y1="275.6" x2="709.745" y2="341.2" stroke="#666" stroke-width="0.5"></line><line x1="709.745" y1="341.2" x2="720.245" y2="341.2" stroke="#666" stroke-width="0.5"></line></g><rect x="690.245" y="334.45" width="132.875" height="13.5" fill="#fff" opacity="0"></rect><text font-size="13.50" x="725.2" y="345.3" fill="#ffd53e"><tspan x="725.245" y="345.25">Western Europe</tspan></text></g><g class="legendMark"><g class="indicator"><line x1="695.245" y1="276" x2="707.745" y2="276" stroke="#666" stroke-width="0.5"></line><line x1="707.745" y1="276" x2="707.745" y2="356.7" stroke="#666" stroke-width="0.5"></line><line x1="707.745" y1="356.7" x2="720.245" y2="356.7" stroke="#666" stroke-width="0.5"></line></g><rect x="690.245" y="349.95" width="108.71000000000001" height="13.5" fill="#fff" opacity="0"></rect><text font-size="13.50" x="725.2" y="360.8" fill="#f07f59"><tspan x="725.245" y="360.75">Central Asia</tspan></text></g><g class="legendMark"><g class="indicator"><line x1="695.245" y1="276.1" x2="705.745" y2="276.1" stroke="#666" stroke-width="0.5"></line><line x1="705.745" y1="276.1" x2="705.745" y2="372.2" stroke="#666" stroke-width="0.5"></line><line x1="705.745" y1="372.2" x2="720.245" y2="372.2" stroke="#666" stroke-width="0.5"></line></g><rect x="690.245" y="365.45" width="92.24000000000001" height="13.5" fill="#fff" opacity="0"></rect><text font-size="13.50" x="725.2" y="376.3" fill="#d26e66"><tspan x="725.245" y="376.25">East Asia</tspan></text></g><g class="legendMark"><g class="indicator"><line x1="695.245" y1="280.3" x2="703.745" y2="280.3" stroke="#666" stroke-width="0.5"></line><line x1="703.745" y1="280.3" x2="703.745" y2="387.7" stroke="#666" stroke-width="0.5"></line><line x1="703.745" y1="387.7" x2="720.245" y2="387.7" stroke="#666" stroke-width="0.5"></line></g><rect x="690.245" y="380.95" width="126.26" height="13.5" fill="#fff" opacity="0"></rect><text font-size="13.50" x="725.2" y="391.8" fill="#e6332e"><tspan x="725.245" y="391.75">Southeast Asia</tspan></text></g><g class="legendMark"><g class="indicator"><line x1="695.245" y1="322.5" x2="701.745" y2="322.5" stroke="#666" stroke-width="0.5"></line><line x1="701.745" y1="322.5" x2="701.745" y2="403.2" stroke="#666" stroke-width="0.5"></line><line x1="701.745" y1="403.2" x2="720.245" y2="403.2" stroke="#666" stroke-width="0.5"></line></g><rect x="690.245" y="396.45" width="100.61" height="13.5" fill="#fff" opacity="0"></rect><text font-size="13.50" x="725.2" y="407.3" fill="#ca2628"><tspan x="725.245" y="407.25">South Asia</tspan></text></g><g class="legendMark"><g class="indicator"><line x1="695.245" y1="394.1" x2="699.745" y2="394.1" stroke="#666" stroke-width="0.5"></line><line x1="699.745" y1="394.1" x2="699.745" y2="426" stroke="#666" stroke-width="0.5"></line><line x1="699.745" y1="426" x2="720.245" y2="426" stroke="#666" stroke-width="0.5"></line></g><rect x="690.245" y="411.95" width="114.92" height="28.1" fill="#fff" opacity="0"></rect><text font-size="13.50" x="725.2" y="422.8" fill="#2a939b"><tspan x="725.245" y="422.75">Sub-Saharan</tspan><tspan x="725.245" y="437.6">Africa</tspan></text></g><g class="legendMark"><g class="indicator"><line x1="695.245" y1="481.4" x2="707.745" y2="481.4" stroke="#666" stroke-width="0.5"></line><line x1="707.745" y1="481.4" x2="707.745" y2="481.4" stroke="#666" stroke-width="0.5"></line><line x1="707.745" y1="481.4" x2="720.245" y2="481.4" stroke="#666" stroke-width="0.5"></line></g><rect x="690.245" y="467.34999999999997" width="118.56500000000001" height="28.1" fill="#fff" opacity="0"></rect><text font-size="13.50" x="725.2" y="478.1" fill="#3360a9"><tspan x="725.245" y="478.15">Middle East &amp;</tspan><tspan x="725.245" y="493">North Africa</tspan></text></g></g><g class="Areas"><rect x="69.896" y="92.1" width="620.349" height="443.19999999999993" opacity="0" fill="rgba(255,255,255,0)"></rect><path class="Middle-East-__0026-North-Africa_0-area" stroke-linecap="round" d="M69.9 535.3L83.1 535.2L96.3 535L109.5 535.2L122.7 534.5L135.9 534.7L149.1 534.9L162.3 534.9L175.5 528.6L188.7 531.7L201.9 530.9L215.1 527.6L228.3 529.5L241.5 527.8L254.7 533.8L267.9 528.1L281.1 531.2L294.3 529.5L307.5 531.7L320.7 530.5L333.9 527.5L347.1 529.9L360.3 516.6L386.7 514.7L399.9 525.1L413.1 525.7L426.3 488.6L439.5 524.6L452.7 528.6L465.9 529.1L479.1 526.3L492.3 523.6L505.5 524.7L518.7 509.8L531.9 496.3L545.1 485.2L558.3 463.8L571.5 500.8L584.7 505.6L597.9 508.8L611.1 508.9L624.3 485.2L637.4 434L650.6 335.2L663.8 357.4L677 344L690.2 427.5L690.245 535.3L69.896 535.3" fill="#3360a9" fill-opacity="0.7"></path><path class="Sub__002dSaharan-Africa_0-area" stroke-linecap="round" d="M69.9 535.3L83.1 535.2L96.3 535L109.5 535.2L122.7 534.5L135.9 534.4L149.1 534.8L162.3 534.7L175.5 527.5L188.7 528.3L201.9 530.1L215.1 526.6L228.3 528.8L241.5 523L254.7 523.5L267.9 526L281.1 523.3L294.3 523.1L307.5 524.3L320.7 518.5L333.9 521L347.1 516.5L360.3 492.3L386.7 482.5L399.9 512L413.1 500.2L426.3 466.8L439.5 510.2L452.7 519.8L465.9 518.9L479.1 514.6L492.3 513.2L505.5 519.2L518.7 506.7L531.9 492.5L545.1 475.5L558.3 450L571.5 486.1L584.7 488.3L597.9 500.5L611.1 496.6L624.3 455.3L637.4 395.6L650.6 202.2L663.8 250.2L677 277.7L690.2 360.6L690.2 427.5L677 344L663.8 357.4L650.6 335.2L637.4 434L624.3 485.2L611.1 508.9L597.9 508.8L584.7 505.6L571.5 500.8L558.3 463.8L545.1 485.2L531.9 496.3L518.7 509.8L505.5 524.7L492.3 523.6L479.1 526.3L465.9 529.1L452.7 528.6L439.5 524.6L426.3 488.6L413.1 525.7L399.9 525.1L386.7 514.7L360.3 516.6L347.1 529.9L333.9 527.5L320.7 530.5L307.5 531.7L294.3 529.5L281.1 531.2L267.9 528.1L254.7 533.8L241.5 527.8L228.3 529.5L215.1 527.6L201.9 530.9L188.7 531.7L175.5 528.6L162.3 534.9L149.1 534.9L135.9 534.7L122.7 534.5L109.5 535.2L96.3 535L83.1 535.2L69.9 535.3" fill="#2a939b" fill-opacity="0.7"></path><path class="South-Asia_0-area" stroke-linecap="round" d="M69.9 535.2L83.1 535.2L96.3 535L109.5 535.2L122.7 534.5L135.9 534.4L149.1 534.8L162.3 534.7L175.5 527.4L188.7 527.4L201.9 529.7L215.1 526.2L228.3 528L241.5 522.2L254.7 516.6L267.9 519.3L281.1 511.9L294.3 503.2L307.5 502.2L320.7 489.7L333.9 494.3L347.1 491.4L360.3 467.9L386.7 472.7L399.9 490.7L413.1 480.9L426.3 448.7L439.5 497.9L452.7 510.8L465.9 505.1L479.1 501L492.3 500.4L505.5 511.2L518.7 490.6L531.9 478.9L545.1 446.2L558.3 413.3L571.5 451L584.7 452.8L597.9 463.7L611.1 459.5L624.3 389.7L637.4 325.2L650.6 119L663.8 167.5L677 200L690.2 284.3L690.2 360.6L677 277.7L663.8 250.2L650.6 202.2L637.4 395.6L624.3 455.3L611.1 496.6L597.9 500.5L584.7 488.3L571.5 486.1L558.3 450L545.1 475.5L531.9 492.5L518.7 506.7L505.5 519.2L492.3 513.2L479.1 514.6L465.9 518.9L452.7 519.8L439.5 510.2L426.3 466.8L413.1 500.2L399.9 512L386.7 482.5L360.3 492.3L347.1 516.5L333.9 521L320.7 518.5L307.5 524.3L294.3 523.1L281.1 523.3L267.9 526L254.7 523.5L241.5 523L228.3 528.8L215.1 526.6L201.9 530.1L188.7 528.3L175.5 527.5L162.3 534.7L149.1 534.8L135.9 534.4L122.7 534.5L109.5 535.2L96.3 535L83.1 535.2L69.9 535.3" fill="#ca2628" fill-opacity="0.7"></path><path class="Southeast-Asia_0-area" stroke-linecap="round" d="M69.9 534.8L83.1 535.2L96.3 534.1L109.5 535.2L122.7 534.4L135.9 534.3L149.1 534.3L162.3 533.7L175.5 525.9L188.7 524.8L201.9 527.3L215.1 524.2L228.3 526.6L241.5 521L254.7 514L267.9 514.8L281.1 508.5L294.3 499.2L307.5 495.6L320.7 483.7L333.9 488.7L347.1 485.7L360.3 461.2L386.7 468.8L399.9 487.6L413.1 478.2L426.3 445.3L439.5 497.4L452.7 509.6L465.9 500.6L479.1 497.9L492.3 496.4L505.5 507.7L518.7 487.8L531.9 476.2L545.1 443.6L558.3 409.4L571.5 447L584.7 448L597.9 460.5L611.1 456.5L624.3 385.2L637.4 318L650.6 112L663.8 161.1L677 193.6L690.2 276.2L690.2 284.3L677 200L663.8 167.5L650.6 119L637.4 325.2L624.3 389.7L611.1 459.5L597.9 463.7L584.7 452.8L571.5 451L558.3 413.3L545.1 446.2L531.9 478.9L518.7 490.6L505.5 511.2L492.3 500.4L479.1 501L465.9 505.1L452.7 510.8L439.5 497.9L426.3 448.7L413.1 480.9L399.9 490.7L386.7 472.7L360.3 467.9L347.1 491.4L333.9 494.3L320.7 489.7L307.5 502.2L294.3 503.2L281.1 511.9L267.9 519.3L254.7 516.6L241.5 522.2L228.3 528L215.1 526.2L201.9 529.7L188.7 527.4L175.5 527.4L162.3 534.7L149.1 534.8L135.9 534.4L122.7 534.5L109.5 535.2L96.3 535L83.1 535.2L69.9 535.2" fill="#e6332e" fill-opacity="0.7"></path><path class="East-Asia_0-area" stroke-linecap="round" d="M69.9 534.8L83.1 535L96.3 534.1L109.5 535.2L122.7 534.4L135.9 534.3L149.1 534.3L162.3 533.7L175.5 525.8L188.7 524.8L201.9 527.3L215.1 524.2L228.3 526.6L241.5 521L254.7 514L267.9 514.7L281.1 508.4L294.3 499.2L307.5 495.6L320.7 483.5L333.9 488.7L347.1 485.6L360.3 460.9L386.7 468.5L399.9 487.4L413.1 477.9L426.3 445L439.5 496.9L452.7 509.5L465.9 500.6L479.1 497.8L492.3 496.4L505.5 507.7L518.7 487.7L531.9 476.1L545.1 443.6L558.3 409.4L571.5 446.6L584.7 446.2L597.9 460.4L611.1 456.3L624.3 384.9L637.4 317.4L650.6 108.8L663.8 159.8L677 193.3L690.2 276.1L690.2 276.2L677 193.6L663.8 161.1L650.6 112L637.4 318L624.3 385.2L611.1 456.5L597.9 460.5L584.7 448L571.5 447L558.3 409.4L545.1 443.6L531.9 476.2L518.7 487.8L505.5 507.7L492.3 496.4L479.1 497.9L465.9 500.6L452.7 509.6L439.5 497.4L426.3 445.3L413.1 478.2L399.9 487.6L386.7 468.8L360.3 461.2L347.1 485.7L333.9 488.7L320.7 483.7L307.5 495.6L294.3 499.2L281.1 508.5L267.9 514.8L254.7 514L241.5 521L228.3 526.6L215.1 524.2L201.9 527.3L188.7 524.8L175.5 525.9L162.3 533.7L149.1 534.3L135.9 534.3L122.7 534.4L109.5 535.2L96.3 534.1L83.1 535.2L69.9 534.8" fill="#d26e66" fill-opacity="0.7"></path><path class="Central-Asia_0-area" stroke-linecap="round" d="M69.9 534.8L83.1 535L96.3 534.1L109.5 535.2L122.7 534.4L135.9 534.3L149.1 534.3L162.3 533.7L175.5 525.8L188.7 524.8L201.9 527.3L215.1 524.2L228.3 526.6L241.5 521L254.7 514L267.9 514.7L281.1 508.4L294.3 499.2L307.5 495.6L320.7 483.5L333.9 488.7L347.1 485.3L360.3 457.7L386.7 467.3L399.9 486.5L413.1 477.3L426.3 444.2L439.5 496.3L452.7 509.2L465.9 500.4L479.1 497.7L492.3 496.4L505.5 507.6L518.7 487.4L531.9 475.9L545.1 443.6L558.3 409.4L571.5 446.4L584.7 446.1L597.9 460.3L611.1 456.2L624.3 384.9L637.4 317.4L650.6 108.7L663.8 159.7L677 193.1L690.2 276L690.2 276.1L677 193.3L663.8 159.8L650.6 108.8L637.4 317.4L624.3 384.9L611.1 456.3L597.9 460.4L584.7 446.2L571.5 446.6L558.3 409.4L545.1 443.6L531.9 476.1L518.7 487.7L505.5 507.7L492.3 496.4L479.1 497.8L465.9 500.6L452.7 509.5L439.5 496.9L426.3 445L413.1 477.9L399.9 487.4L386.7 468.5L360.3 460.9L347.1 485.6L333.9 488.7L320.7 483.5L307.5 495.6L294.3 499.2L281.1 508.4L267.9 514.7L254.7 514L241.5 521L228.3 526.6L215.1 524.2L201.9 527.3L188.7 524.8L175.5 525.8L162.3 533.7L149.1 534.3L135.9 534.3L122.7 534.4L109.5 535.2L96.3 534.1L83.1 535L69.9 534.8" fill="#f07f59" fill-opacity="0.7"></path><path class="Western-Europe_0-area" stroke-linecap="round" d="M69.9 534L83.1 533.8L96.3 530.1L109.5 532.2L122.7 530.3L135.9 531.4L149.1 531.1L162.3 531.7L175.5 523.5L188.7 521.8L201.9 523.4L215.1 522.5L228.3 524.8L241.5 519.3L254.7 512.3L267.9 512.1L281.1 506.7L294.3 497.3L307.5 491.3L320.7 482.3L333.9 487.5L347.1 483.6L360.3 455.9L386.7 466.2L399.9 485.8L413.1 476.9L426.3 443.8L439.5 495.7L452.7 509.1L465.9 500L479.1 497.3L492.3 496.3L505.5 507.6L518.7 485.4L531.9 475.3L545.1 443.5L558.3 409.2L571.5 446.4L584.7 445.9L597.9 460.3L611.1 455.3L624.3 384.7L637.4 317.3L650.6 108.7L663.8 158L677 190.7L690.2 275.2L690.2 276L677 193.1L663.8 159.7L650.6 108.7L637.4 317.4L624.3 384.9L611.1 456.2L597.9 460.3L584.7 446.1L571.5 446.4L558.3 409.4L545.1 443.6L531.9 475.9L518.7 487.4L505.5 507.6L492.3 496.4L479.1 497.7L465.9 500.4L452.7 509.2L439.5 496.3L426.3 444.2L413.1 477.3L399.9 486.5L386.7 467.3L360.3 457.7L347.1 485.3L333.9 488.7L320.7 483.5L307.5 495.6L294.3 499.2L281.1 508.4L267.9 514.7L254.7 514L241.5 521L228.3 526.6L215.1 524.2L201.9 527.3L188.7 524.8L175.5 525.8L162.3 533.7L149.1 534.3L135.9 534.3L122.7 534.4L109.5 535.2L96.3 534.1L83.1 535L69.9 534.8" fill="#ffd53e" fill-opacity="0.7"></path><path class="Eastern-Europe_0-area" stroke-linecap="round" d="M69.9 534L83.1 533.8L96.3 529.8L109.5 532.2L122.7 530.3L135.9 531.4L149.1 531.1L162.3 531.7L175.5 523.5L188.7 521.8L201.9 523.4L215.1 522.5L228.3 524.8L241.5 519.3L254.7 512.2L267.9 512.1L281.1 506.7L294.3 497.3L307.5 491.3L320.7 482.2L333.9 486.9L347.1 480.9L360.3 454.8L386.7 465.7L399.9 484.2L413.1 475.2L426.3 442.6L439.5 494.6L452.7 504.7L465.9 495.9L479.1 494.3L492.3 491.2L505.5 504.2L518.7 479.3L531.9 473.8L545.1 442.9L558.3 408.6L571.5 445.4L584.7 444.5L597.9 457.9L611.1 453.6L624.3 383L637.4 315.8L650.6 94.1L663.8 150.1L677 189.6L690.2 274.2L690.2 275.2L677 190.7L663.8 158L650.6 108.7L637.4 317.3L624.3 384.7L611.1 455.3L597.9 460.3L584.7 445.9L571.5 446.4L558.3 409.2L545.1 443.5L531.9 475.3L518.7 485.4L505.5 507.6L492.3 496.3L479.1 497.3L465.9 500L452.7 509.1L439.5 495.7L426.3 443.8L413.1 476.9L399.9 485.8L386.7 466.2L360.3 455.9L347.1 483.6L333.9 487.5L320.7 482.3L307.5 491.3L294.3 497.3L281.1 506.7L267.9 512.1L254.7 512.3L241.5 519.3L228.3 524.8L215.1 522.5L201.9 523.4L188.7 521.8L175.5 523.5L162.3 531.7L149.1 531.1L135.9 531.4L122.7 530.3L109.5 532.2L96.3 530.1L83.1 533.8L69.9 534" fill="#fceb8c" fill-opacity="0.7"></path><path class="North-America_0-area" stroke-linecap="round" d="M69.9 533.7L83.1 533.6L96.3 529.7L109.5 531.8L122.7 530.1L135.9 530.8L149.1 530.8L162.3 531.6L175.5 523.3L188.7 521.5L201.9 523.2L215.1 522.4L228.3 524.7L241.5 519.3L254.7 512.1L267.9 508.8L281.1 506.7L294.3 497.3L307.5 491.2L320.7 482L333.9 486.8L347.1 480.8L360.3 454.8L386.7 464.8L399.9 481.8L413.1 474.2L426.3 440.3L439.5 494.6L452.7 504.5L465.9 495.9L479.1 464.2L492.3 491.1L505.5 504.2L518.7 479.3L531.9 473.8L545.1 442.8L558.3 408.4L571.5 445.2L584.7 444.3L597.9 457.9L611.1 453.6L624.3 382.7L637.4 315.1L650.6 93.7L663.8 149.5L677 188.8L690.2 272.9L690.2 274.2L677 189.6L663.8 150.1L650.6 94.1L637.4 315.8L624.3 383L611.1 453.6L597.9 457.9L584.7 444.5L571.5 445.4L558.3 408.6L545.1 442.9L531.9 473.8L518.7 479.3L505.5 504.2L492.3 491.2L479.1 494.3L465.9 495.9L452.7 504.7L439.5 494.6L426.3 442.6L413.1 475.2L399.9 484.2L386.7 465.7L360.3 454.8L347.1 480.9L333.9 486.9L320.7 482.2L307.5 491.3L294.3 497.3L281.1 506.7L267.9 512.1L254.7 512.2L241.5 519.3L228.3 524.8L215.1 522.5L201.9 523.4L188.7 521.8L175.5 523.5L162.3 531.7L149.1 531.1L135.9 531.4L122.7 530.3L109.5 532.2L96.3 529.8L83.1 533.8L69.9 534" fill="#34983f" fill-opacity="0.7"></path><path class="South-America_0-area" stroke-linecap="round" d="M69.9 533.6L83.1 533.6L96.3 529.7L109.5 531.6L122.7 529.9L135.9 529.5L149.1 529.4L162.3 531.1L175.5 522.4L188.7 519.7L201.9 521.1L215.1 518.4L228.3 518L241.5 496.5L254.7 482.2L267.9 491.9L281.1 493.3L294.3 482.8L307.5 471.1L320.7 458.7L333.9 468.3L347.1 458.5L360.3 439.4L386.7 460.7L399.9 475.4L413.1 467L426.3 427.2L439.5 488.6L452.7 501.6L465.9 491.6L479.1 458.3L492.3 487.4L505.5 502.3L518.7 478.5L531.9 472.2L545.1 441.9L558.3 407.6L571.5 444.1L584.7 442.9L597.9 457.3L611.1 453.2L624.3 380.9L637.4 313.5L650.6 92.1L663.8 148.2L677 188L690.2 271.9L690.2 272.9L677 188.8L663.8 149.5L650.6 93.7L637.4 315.1L624.3 382.7L611.1 453.6L597.9 457.9L584.7 444.3L571.5 445.2L558.3 408.4L545.1 442.8L531.9 473.8L518.7 479.3L505.5 504.2L492.3 491.1L479.1 464.2L465.9 495.9L452.7 504.5L439.5 494.6L426.3 440.3L413.1 474.2L399.9 481.8L386.7 464.8L360.3 454.8L347.1 480.8L333.9 486.8L320.7 482L307.5 491.2L294.3 497.3L281.1 506.7L267.9 508.8L254.7 512.1L241.5 519.3L228.3 524.7L215.1 522.4L201.9 523.2L188.7 521.5L175.5 523.3L162.3 531.6L149.1 530.8L135.9 530.8L122.7 530.1L109.5 531.8L96.3 529.7L83.1 533.6L69.9 533.7" fill="#5eb77e" fill-opacity="0.7"></path><path class="Central-America-__0026-Caribbean_0-area" stroke-linecap="round" d="M69.9 533.6L83.1 533.6L96.3 529.7L109.5 531.6L122.7 529.9L135.9 529.2L149.1 528.6L162.3 530.8L175.5 520.8L188.7 514.4L201.9 491.5L215.1 487L228.3 484.1L241.5 441.2L254.7 431.3L267.9 464.6L281.1 485.7L294.3 470.7L307.5 463.7L320.7 454.2L333.9 464.2L347.1 451.4L360.3 438.3L386.7 458.9L399.9 474.6L413.1 466.1L426.3 426.5L439.5 488.6L452.7 501.5L465.9 491.5L479.1 458.3L492.3 487.4L505.5 502.3L518.7 478.1L531.9 472.2L545.1 441.9L558.3 407.5L571.5 444.1L584.7 442.9L597.9 457.3L611.1 453.1L624.3 380.9L637.4 313.4L650.6 92.1L663.8 148.2L677 187.9L690.2 271.9L690.2 271.9L677 188L663.8 148.2L650.6 92.1L637.4 313.5L624.3 380.9L611.1 453.2L597.9 457.3L584.7 442.9L571.5 444.1L558.3 407.6L545.1 441.9L531.9 472.2L518.7 478.5L505.5 502.3L492.3 487.4L479.1 458.3L465.9 491.6L452.7 501.6L439.5 488.6L426.3 427.2L413.1 467L399.9 475.4L386.7 460.7L360.3 439.4L347.1 458.5L333.9 468.3L320.7 458.7L307.5 471.1L294.3 482.8L281.1 493.3L267.9 491.9L254.7 482.2L241.5 496.5L228.3 518L215.1 518.4L201.9 521.1L188.7 519.7L175.5 522.4L162.3 531.1L149.1 529.4L135.9 529.5L122.7 529.9L109.5 531.6L96.3 529.7L83.1 533.6L69.9 533.6" fill="#6bb537" fill-opacity="0.7"></path><path class="Middle-East-__0026-North-Africa_0-border" stroke-linecap="round" d="M69.9 535.3L83.1 535.2L96.3 535L109.5 535.2L122.7 534.5L135.9 534.7L149.1 534.9L162.3 534.9L175.5 528.6L188.7 531.7L201.9 530.9L215.1 527.6L228.3 529.5L241.5 527.8L254.7 533.8L267.9 528.1L281.1 531.2L294.3 529.5L307.5 531.7L320.7 530.5L333.9 527.5L347.1 529.9L360.3 516.6L386.7 514.7L399.9 525.1L413.1 525.7L426.3 488.6L439.5 524.6L452.7 528.6L465.9 529.1L479.1 526.3L492.3 523.6L505.5 524.7L518.7 509.8L531.9 496.3L545.1 485.2L558.3 463.8L571.5 500.8L584.7 505.6L597.9 508.8L611.1 508.9L624.3 485.2L637.4 434L650.6 335.2L663.8 357.4L677 344L690.2 427.5" stroke="rgb(43, 80, 141)" stroke-opacity="0.7" stroke-width="0.5" fill="none"></path><path class="Sub__002dSaharan-Africa_0-border" stroke-linecap="round" d="M69.9 535.3L83.1 535.2L96.3 535L109.5 535.2L122.7 534.5L135.9 534.4L149.1 534.8L162.3 534.7L175.5 527.5L188.7 528.3L201.9 530.1L215.1 526.6L228.3 528.8L241.5 523L254.7 523.5L267.9 526L281.1 523.3L294.3 523.1L307.5 524.3L320.7 518.5L333.9 521L347.1 516.5L360.3 492.3L386.7 482.5L399.9 512L413.1 500.2L426.3 466.8L439.5 510.2L452.7 519.8L465.9 518.9L479.1 514.6L492.3 513.2L505.5 519.2L518.7 506.7L531.9 492.5L545.1 475.5L558.3 450L571.5 486.1L584.7 488.3L597.9 500.5L611.1 496.6L624.3 455.3L637.4 395.6L650.6 202.2L663.8 250.2L677 277.7L690.2 360.6" stroke="rgb(35, 123, 130)" stroke-opacity="0.7" stroke-width="0.5" fill="none"></path><path class="South-Asia_0-border" stroke-linecap="round" d="M69.9 535.2L83.1 535.2L96.3 535L109.5 535.2L122.7 534.5L135.9 534.4L149.1 534.8L162.3 534.7L175.5 527.4L188.7 527.4L201.9 529.7L215.1 526.2L228.3 528L241.5 522.2L254.7 516.6L267.9 519.3L281.1 511.9L294.3 503.2L307.5 502.2L320.7 489.7L333.9 494.3L347.1 491.4L360.3 467.9L386.7 472.7L399.9 490.7L413.1 480.9L426.3 448.7L439.5 497.9L452.7 510.8L465.9 505.1L479.1 501L492.3 500.4L505.5 511.2L518.7 490.6L531.9 478.9L545.1 446.2L558.3 413.3L571.5 451L584.7 452.8L597.9 463.7L611.1 459.5L624.3 389.7L637.4 325.2L650.6 119L663.8 167.5L677 200L690.2 284.3" stroke="rgb(169, 32, 33)" stroke-opacity="0.7" stroke-width="0.5" fill="none"></path><path class="Southeast-Asia_0-border" stroke-linecap="round" d="M69.9 534.8L83.1 535.2L96.3 534.1L109.5 535.2L122.7 534.4L135.9 534.3L149.1 534.3L162.3 533.7L175.5 525.9L188.7 524.8L201.9 527.3L215.1 524.2L228.3 526.6L241.5 521L254.7 514L267.9 514.8L281.1 508.5L294.3 499.2L307.5 495.6L320.7 483.7L333.9 488.7L347.1 485.7L360.3 461.2L386.7 468.8L399.9 487.6L413.1 478.2L426.3 445.3L439.5 497.4L452.7 509.6L465.9 500.6L479.1 497.9L492.3 496.4L505.5 507.7L518.7 487.8L531.9 476.2L545.1 443.6L558.3 409.4L571.5 447L584.7 448L597.9 460.5L611.1 456.5L624.3 385.2L637.4 318L650.6 112L663.8 161.1L677 193.6L690.2 276.2" stroke="rgb(192, 43, 38)" stroke-opacity="0.7" stroke-width="0.5" fill="none"></path><path class="East-Asia_0-border" stroke-linecap="round" d="M69.9 534.8L83.1 535L96.3 534.1L109.5 535.2L122.7 534.4L135.9 534.3L149.1 534.3L162.3 533.7L175.5 525.8L188.7 524.8L201.9 527.3L215.1 524.2L228.3 526.6L241.5 521L254.7 514L267.9 514.7L281.1 508.4L294.3 499.2L307.5 495.6L320.7 483.5L333.9 488.7L347.1 485.6L360.3 460.9L386.7 468.5L399.9 487.4L413.1 477.9L426.3 445L439.5 496.9L452.7 509.5L465.9 500.6L479.1 497.8L492.3 496.4L505.5 507.7L518.7 487.7L531.9 476.1L545.1 443.6L558.3 409.4L571.5 446.6L584.7 446.2L597.9 460.4L611.1 456.3L624.3 384.9L637.4 317.4L650.6 108.8L663.8 159.8L677 193.3L690.2 276.1" stroke="rgb(176, 92, 85)" stroke-opacity="0.7" stroke-width="0.5" fill="none"></path><path class="Central-Asia_0-border" stroke-linecap="round" d="M69.9 534.8L83.1 535L96.3 534.1L109.5 535.2L122.7 534.4L135.9 534.3L149.1 534.3L162.3 533.7L175.5 525.8L188.7 524.8L201.9 527.3L215.1 524.2L228.3 526.6L241.5 521L254.7 514L267.9 514.7L281.1 508.4L294.3 499.2L307.5 495.6L320.7 483.5L333.9 488.7L347.1 485.3L360.3 457.7L386.7 467.3L399.9 486.5L413.1 477.3L426.3 444.2L439.5 496.3L452.7 509.2L465.9 500.4L479.1 497.7L492.3 496.4L505.5 507.6L518.7 487.4L531.9 475.9L545.1 443.6L558.3 409.4L571.5 446.4L584.7 446.1L597.9 460.3L611.1 456.2L624.3 384.9L637.4 317.4L650.6 108.7L663.8 159.7L677 193.1L690.2 276" stroke="rgb(201, 106, 74)" stroke-opacity="0.7" stroke-width="0.5" fill="none"></path><path class="Western-Europe_0-border" stroke-linecap="round" d="M69.9 534L83.1 533.8L96.3 530.1L109.5 532.2L122.7 530.3L135.9 531.4L149.1 531.1L162.3 531.7L175.5 523.5L188.7 521.8L201.9 523.4L215.1 522.5L228.3 524.8L241.5 519.3L254.7 512.3L267.9 512.1L281.1 506.7L294.3 497.3L307.5 491.3L320.7 482.3L333.9 487.5L347.1 483.6L360.3 455.9L386.7 466.2L399.9 485.8L413.1 476.9L426.3 443.8L439.5 495.7L452.7 509.1L465.9 500L479.1 497.3L492.3 496.3L505.5 507.6L518.7 485.4L531.9 475.3L545.1 443.5L558.3 409.2L571.5 446.4L584.7 445.9L597.9 460.3L611.1 455.3L624.3 384.7L637.4 317.3L650.6 108.7L663.8 158L677 190.7L690.2 275.2" stroke="rgb(213, 178, 52)" stroke-opacity="0.7" stroke-width="0.5" fill="none"></path><path class="Eastern-Europe_0-border" stroke-linecap="round" d="M69.9 534L83.1 533.8L96.3 529.8L109.5 532.2L122.7 530.3L135.9 531.4L149.1 531.1L162.3 531.7L175.5 523.5L188.7 521.8L201.9 523.4L215.1 522.5L228.3 524.8L241.5 519.3L254.7 512.2L267.9 512.1L281.1 506.7L294.3 497.3L307.5 491.3L320.7 482.2L333.9 486.9L347.1 480.9L360.3 454.8L386.7 465.7L399.9 484.2L413.1 475.2L426.3 442.6L439.5 494.6L452.7 504.7L465.9 495.9L479.1 494.3L492.3 491.2L505.5 504.2L518.7 479.3L531.9 473.8L545.1 442.9L558.3 408.6L571.5 445.4L584.7 444.5L597.9 457.9L611.1 453.6L624.3 383L637.4 315.8L650.6 94.1L663.8 150.1L677 189.6L690.2 274.2" stroke="rgb(211, 197, 117)" stroke-opacity="0.7" stroke-width="0.5" fill="none"></path><path class="North-America_0-border" stroke-linecap="round" d="M69.9 533.7L83.1 533.6L96.3 529.7L109.5 531.8L122.7 530.1L135.9 530.8L149.1 530.8L162.3 531.6L175.5 523.3L188.7 521.5L201.9 523.2L215.1 522.4L228.3 524.7L241.5 519.3L254.7 512.1L267.9 508.8L281.1 506.7L294.3 497.3L307.5 491.2L320.7 482L333.9 486.8L347.1 480.8L360.3 454.8L386.7 464.8L399.9 481.8L413.1 474.2L426.3 440.3L439.5 494.6L452.7 504.5L465.9 495.9L479.1 464.2L492.3 491.1L505.5 504.2L518.7 479.3L531.9 473.8L545.1 442.8L558.3 408.4L571.5 445.2L584.7 444.3L597.9 457.9L611.1 453.6L624.3 382.7L637.4 315.1L650.6 93.7L663.8 149.5L677 188.8L690.2 272.9" stroke="rgb(44, 127, 53)" stroke-opacity="0.7" stroke-width="0.5" fill="none"></path><path class="South-America_0-border" stroke-linecap="round" d="M69.9 533.6L83.1 533.6L96.3 529.7L109.5 531.6L122.7 529.9L135.9 529.5L149.1 529.4L162.3 531.1L175.5 522.4L188.7 519.7L201.9 521.1L215.1 518.4L228.3 518L241.5 496.5L254.7 482.2L267.9 491.9L281.1 493.3L294.3 482.8L307.5 471.1L320.7 458.7L333.9 468.3L347.1 458.5L360.3 439.4L386.7 460.7L399.9 475.4L413.1 467L426.3 427.2L439.5 488.6L452.7 501.6L465.9 491.6L479.1 458.3L492.3 487.4L505.5 502.3L518.7 478.5L531.9 472.2L545.1 441.9L558.3 407.6L571.5 444.1L584.7 442.9L597.9 457.3L611.1 453.2L624.3 380.9L637.4 313.5L650.6 92.1L663.8 148.2L677 188L690.2 271.9" stroke="rgb(79, 153, 105)" stroke-opacity="0.7" stroke-width="0.5" fill="none"></path><path class="Central-America-__0026-Caribbean_0-border" stroke-linecap="round" d="M69.9 533.6L83.1 533.6L96.3 529.7L109.5 531.6L122.7 529.9L135.9 529.2L149.1 528.6L162.3 530.8L175.5 520.8L188.7 514.4L201.9 491.5L215.1 487L228.3 484.1L241.5 441.2L254.7 431.3L267.9 464.6L281.1 485.7L294.3 470.7L307.5 463.7L320.7 454.2L333.9 464.2L347.1 451.4L360.3 438.3L386.7 458.9L399.9 474.6L413.1 466.1L426.3 426.5L439.5 488.6L452.7 501.5L465.9 491.5L479.1 458.3L492.3 487.4L505.5 502.3L518.7 478.1L531.9 472.2L545.1 441.9L558.3 407.5L571.5 444.1L584.7 442.9L597.9 457.3L611.1 453.1L624.3 380.9L637.4 313.4L650.6 92.1L663.8 148.2L677 187.9L690.2 271.9" stroke="rgb(90, 151, 46)" stroke-opacity="0.7" stroke-width="0.5" fill="none"></path></g></g></g><g class="SourcesFooter" style="fill:#777"><g class="clickable" style="fill:#777"><text font-size="12.60" x="15.0" y="581.6"><tspan x="15" y="581.58">Source: Global Terrorism Database (2018)</tspan></text></g><text font-size="12.60" x="592.3" y="581.6"><tspan x="592.3240000000001" y="581.58"><a target='_blank' style='fill: #777;' href='https://ourworldindata.org/terrorism/'>OurWorldInData.org/terrorism/</a> • <a style="fill: #777;" class="cclogo" href="http://creativecommons.org/licenses/by-sa/4.0/deed.en_US" target="_blank">CC BY-SA</a></tspan></text></g></g></svg>