<svg xmlns="http://www.w3.org/2000/svg" version="1.1" style="font-family:&#x27;Helvetica Neue&#x27;, Helvetica, Arial, sans-serif;font-size:18px;background-color:white;text-rendering:optimizeLegibility;-webkit-font-smoothing:antialiased" width="850" height="600"><g class="ChartTab"><g class="HeaderView"><g opacity="0.8" transform="translate(778, 15) scale(0.27)"><a xmlns:xlink="http://www.w3.org/1999/xlink" xlink:href="https://ourworldindata.org" target="_blank"><g><rect x="0" y="0" fill="#1B2543" width="211.2" height="130.1"/><rect x="0" y="112.2" fill="#E63912" width="211.2" height="17.9"/><g><rect x="1.2" y="12.3" fill="none" width="210.2" height="99.2"/><path fill="#FFFFFF" d="M37.8,32.2c0,12.7-7.7,19.4-17.1,19.4c-9.7,0-16.6-7.5-16.6-18.7c0-11.7,7.3-19.3,17.1-19.3 C31.3,13.7,37.8,21.3,37.8,32.2z M9.2,32.8c0,7.9,4.3,14.9,11.8,14.9c7.5,0,11.8-6.9,11.8-15.3c0-7.3-3.8-14.9-11.8-14.9 C13.1,17.5,9.2,24.8,9.2,32.8z"/><path fill="#FFFFFF" d="M62.7,43.8c0,2.7,0.1,5.1,0.2,7.2h-4.3l-0.3-4.3h-0.1c-1.3,2.1-4,4.9-8.8,4.9c-4.2,0-9.1-2.3-9.1-11.6 V24.6h4.8v14.6c0,5,1.5,8.4,5.9,8.4c3.2,0,5.5-2.2,6.3-4.4c0.3-0.7,0.4-1.6,0.4-2.5V24.6h4.8V43.8z"/><path fill="#FFFFFF" d="M67.3,32.8c0-3.1-0.1-5.8-0.2-8.2h4.2l0.2,5.2h0.2c1.2-3.5,4.1-5.8,7.3-5.8c0.5,0,0.9,0.1,1.4,0.2v4.5 c-0.5-0.1-1-0.2-1.6-0.2c-3.4,0-5.8,2.6-6.5,6.2c-0.1,0.7-0.2,1.4-0.2,2.2V51h-4.8V32.8z"/><path fill="#FFFFFF" d="M95.4,51l-9.4-36.8h5l4.4,18.6c1.1,4.6,2.1,9.2,2.7,12.7h0.1c0.6-3.7,1.8-8,3-12.8l4.9-18.5h5l4.5,18.7 c1,4.4,2,8.7,2.6,12.6h0.1c0.8-4,1.8-8.1,3-12.7l4.9-18.5h4.9L120.6,51h-5L111,31.9c-1.1-4.7-1.9-8.3-2.4-12h-0.1 c-0.7,3.7-1.5,7.3-2.8,12L100.4,51H95.4z"/><path fill="#FFFFFF" d="M154.9,37.6c0,9.8-6.8,14-13.2,14c-7.2,0-12.7-5.2-12.7-13.6c0-8.8,5.8-14,13.1-14 C149.8,24,154.9,29.5,154.9,37.6z M133.9,37.9c0,5.8,3.3,10.1,8,10.1c4.6,0,8-4.3,8-10.3c0-4.5-2.2-10.1-7.9-10.1 C136.3,27.6,133.9,32.8,133.9,37.9z"/><path fill="#FFFFFF" d="M158.2,32.8c0-3.1-0.1-5.8-0.2-8.2h4.2l0.2,5.2h0.2c1.2-3.5,4.1-5.8,7.3-5.8c0.5,0,0.9,0.1,1.4,0.2v4.5 c-0.5-0.1-1-0.2-1.6-0.2c-3.4,0-5.8,2.6-6.5,6.2c-0.1,0.7-0.2,1.4-0.2,2.2V51h-4.8V32.8z"/><path fill="#FFFFFF" d="M173.5,12.3h4.8V51h-4.8V12.3z"/><path fill="#FFFFFF" d="M206.5,12.3v31.9c0,2.3,0.1,5,0.2,6.8h-4.3l-0.2-4.6H202c-1.5,2.9-4.7,5.2-9,5.2 c-6.4,0-11.3-5.4-11.3-13.4c-0.1-8.8,5.4-14.2,11.9-14.2c4,0,6.8,1.9,8,4h0.1V12.3H206.5z M201.7,35.4c0-0.6-0.1-1.4-0.2-2 c-0.7-3.1-3.3-5.6-6.9-5.6c-5,0-7.9,4.4-7.9,10.2c0,5.3,2.6,9.8,7.8,9.8c3.2,0,6.2-2.1,7.1-5.7c0.2-0.7,0.2-1.3,0.2-2.1V35.4z"/><path fill="#FFFFFF" d="M42.8,64c0.1,1.6-1.1,2.9-3.1,2.9c-1.7,0-2.9-1.3-2.9-2.9c0-1.7,1.3-3,3-3C41.7,61,42.8,62.3,42.8,64z M37.4,97.8V71.4h4.8v26.4H37.4z"/><path fill="#FFFFFF" d="M47.5,78.6c0-2.7-0.1-5-0.2-7.1h4.3l0.3,4.4h0.1c1.3-2.5,4.4-5,8.8-5c3.7,0,9.4,2.2,9.4,11.2v15.8h-4.8 V82.6c0-4.3-1.6-7.8-6.1-7.8c-3.2,0-5.6,2.2-6.5,4.9c-0.2,0.6-0.3,1.4-0.3,2.2v15.9h-4.8V78.6z"/><path fill="#FFFFFF" d="M84,61.6c2.9-0.4,6.3-0.8,10.1-0.8c6.8,0,11.7,1.6,14.9,4.6c3.3,3,5.2,7.3,5.2,13.2c0,6-1.9,10.9-5.3,14.3 c-3.4,3.4-9.1,5.3-16.3,5.3c-3.4,0-6.2-0.2-8.6-0.4V61.6z M88.8,94.1c1.2,0.2,3,0.3,4.8,0.3c10.2,0,15.7-5.7,15.7-15.6 c0.1-8.7-4.9-14.2-14.9-14.2c-2.5,0-4.3,0.2-5.6,0.5V94.1z"/><path fill="#FFFFFF" d="M132.1,97.8l-0.4-3.3h-0.2c-1.5,2.1-4.3,3.9-8.1,3.9c-5.4,0-8.1-3.8-8.1-7.6c0-6.4,5.7-9.9,15.9-9.8v-0.5 c0-2.2-0.6-6.1-6-6.1c-2.5,0-5,0.8-6.9,2l-1.1-3.2c2.2-1.4,5.4-2.3,8.7-2.3c8.1,0,10.1,5.5,10.1,10.8v9.9c0,2.3,0.1,4.5,0.4,6.3 H132.1z M131.4,84.4c-5.3-0.1-11.2,0.8-11.2,5.9c0,3.1,2.1,4.6,4.5,4.6c3.4,0,5.6-2.2,6.4-4.4c0.2-0.5,0.3-1,0.3-1.5V84.4z"/><path fill="#FFFFFF" d="M146.6,63.9v7.6h6.9v3.7h-6.9v14.2c0,3.3,0.9,5.1,3.6,5.1c1.3,0,2.2-0.2,2.8-0.3l0.2,3.6 c-0.9,0.4-2.4,0.7-4.3,0.7c-2.2,0-4-0.7-5.2-2c-1.4-1.4-1.9-3.8-1.9-6.9V75.1h-4.1v-3.7h4.1v-6.3L146.6,63.9z"/><path fill="#FFFFFF" d="M171.4,97.8l-0.4-3.3h-0.2c-1.5,2.1-4.3,3.9-8.1,3.9c-5.4,0-8.1-3.8-8.1-7.6c0-6.4,5.7-9.9,15.9-9.8v-0.5 c0-2.2-0.6-6.1-6-6.1c-2.5,0-5,0.8-6.9,2l-1.1-3.2c2.2-1.4,5.4-2.3,8.7-2.3c8.1,0,10.1,5.5,10.1,10.8v9.9c0,2.3,0.1,4.5,0.4,6.3 H171.4z M170.7,84.4c-5.3-0.1-11.2,0.8-11.2,5.9c0,3.1,2.1,4.6,4.5,4.6c3.4,0,5.6-2.2,6.4-4.4c0.2-0.5,0.3-1,0.3-1.5V84.4z"/></g></g></a></g><a href="https://ourworldindata.org/grapher/number-of-out-of-school-children" target="_blank"><text font-size="25.20" x="15.0" y="35.2" fill="#555"><tspan x="15" y="35.160000000000004">Number of out-of-school children, World</tspan></text></a></g><g class="StackedArea"><defs><clipPath id="boundsClip-266"><rect x="97.598" y="0" width="820" height="973"></rect></clipPath></defs><g class="AxisBoxView"><g class="HorizontalAxis"><text x="97.6" y="556.5" fill="#666" text-anchor="middle" font-size="16.2">1998</text><text x="171.2" y="556.5" fill="#666" text-anchor="middle" font-size="16.2">2000</text><text x="244.7" y="556.5" fill="#666" text-anchor="middle" font-size="16.2">2002</text><text x="318.3" y="556.5" fill="#666" text-anchor="middle" font-size="16.2">2004</text><text x="391.9" y="556.5" fill="#666" text-anchor="middle" font-size="16.2">2006</text><text x="465.5" y="556.5" fill="#666" text-anchor="middle" font-size="16.2">2008</text><text x="539" y="556.5" fill="#666" text-anchor="middle" font-size="16.2">2010</text><text x="612.6" y="556.5" fill="#666" text-anchor="middle" font-size="16.2">2012</text><text x="686.2" y="556.5" fill="#666" text-anchor="middle" font-size="16.2">2014</text></g><g class="VerticalAxis"><text x="92.60" y="535.3" fill="#666" dominant-baseline="middle" text-anchor="end" font-size="16.2">0</text><text x="92.60" y="474.2" fill="#666" dominant-baseline="middle" text-anchor="end" font-size="16.2">50 million</text><text x="92.60" y="413.1" fill="#666" dominant-baseline="middle" text-anchor="end" font-size="16.2">100 million</text><text x="92.60" y="352" fill="#666" dominant-baseline="middle" text-anchor="end" font-size="16.2">150 million</text><text x="92.60" y="290.8" fill="#666" dominant-baseline="middle" text-anchor="end" font-size="16.2">200 million</text><text x="92.60" y="229.7" fill="#666" dominant-baseline="middle" text-anchor="end" font-size="16.2">250 million</text><text x="92.60" y="168.6" fill="#666" dominant-baseline="middle" text-anchor="end" font-size="16.2">300 million</text><text x="92.60" y="107.5" fill="#666" dominant-baseline="middle" text-anchor="end" font-size="16.2">350 million</text></g><g class="AxisGridLines"><line x1="97.60" y1="535.3" x2="686.19" y2="535.3" stroke="#ccc"></line><line x1="97.60" y1="474.2" x2="686.19" y2="474.2" stroke="#ddd" stroke-dasharray="3,2"></line><line x1="97.60" y1="413.1" x2="686.19" y2="413.1" stroke="#ddd" stroke-dasharray="3,2"></line><line x1="97.60" y1="352" x2="686.19" y2="352" stroke="#ddd" stroke-dasharray="3,2"></line><line x1="97.60" y1="290.8" x2="686.19" y2="290.8" stroke="#ddd" stroke-dasharray="3,2"></line><line x1="97.60" y1="229.7" x2="686.19" y2="229.7" stroke="#ddd" stroke-dasharray="3,2"></line><line x1="97.60" y1="168.6" x2="686.19" y2="168.6" stroke="#ddd" stroke-dasharray="3,2"></line><line x1="97.60" y1="107.5" x2="686.19" y2="107.5" stroke="#ddd" stroke-dasharray="3,2"></line></g></g><g clip-path="url(#boundsClip-266)"><g class="HeightedLegend clickable"><g class="legendMark"><rect x="686.1949999999999" y="242.05" width="148.805" height="28.1" fill="#fff" opacity="0"></rect><text font-size="13.50" x="691.2" y="252.9" fill="#a6cee3"><tspan x="691.1949999999999" y="252.85000000000002">Upper secondary</tspan><tspan x="691.1949999999999" y="267.70000000000005">school age, female</tspan></text></g><g class="legendMark"><rect x="686.1949999999999" y="328.65" width="138.14" height="28.1" fill="#fff" opacity="0"></rect><text font-size="13.50" x="691.2" y="339.4" fill="#1f78b4"><tspan x="691.1949999999999" y="339.45">Upper secondary</tspan><tspan x="691.1949999999999" y="354.3">school age, male</tspan></text></g><g class="legendMark"><rect x="686.1949999999999" y="390.95" width="148.805" height="28.1" fill="#fff" opacity="0"></rect><text font-size="13.50" x="691.2" y="401.8" fill="#b2df8a"><tspan x="691.1949999999999" y="401.75">Lower secondary</tspan><tspan x="691.1949999999999" y="416.6">school age, female</tspan></text></g><g class="legendMark"><rect x="686.1949999999999" y="427.75" width="138.14" height="28.1" fill="#fff" opacity="0"></rect><text font-size="13.50" x="691.2" y="438.6" fill="#33a02c"><tspan x="691.1949999999999" y="438.55">Lower secondary</tspan><tspan x="691.1949999999999" y="453.40000000000003">school age, male</tspan></text></g><g class="legendMark"><rect x="686.1949999999999" y="466.34999999999997" width="124.37" height="28.1" fill="#fff" opacity="0"></rect><text font-size="13.50" x="691.2" y="477.1" fill="#fb9a99"><tspan x="691.1949999999999" y="477.15">Primary school</tspan><tspan x="691.1949999999999" y="492">age, female</tspan></text></g><g class="legendMark"><rect x="686.1949999999999" y="503.65000000000003" width="124.37" height="28.1" fill="#fff" opacity="0"></rect><text font-size="13.50" x="691.2" y="514.5" fill="#e31a1c"><tspan x="691.1949999999999" y="514.45">Primary school</tspan><tspan x="691.1949999999999" y="529.3000000000001">age, male</tspan></text></g></g><g class="Areas"><rect x="97.598" y="70" width="588.597" height="465.29999999999995" opacity="0" fill="rgba(255,255,255,0)"></rect><path class="World_5-area" stroke-linecap="round" d="M97.6 478.8L134.4 480.7L171.2 483.6L208 485.4L244.7 489.4L281.5 491L318.3 492.3L355.1 493.8L391.9 495.1L428.7 500.1L465.5 500.1L502.3 498.3L539 498.9L575.8 498.6L612.6 500.1L649.4 499.8L686.2 500L686.1949999999999 535.3L97.598 535.3" fill="#e31a1c" fill-opacity="0.7"></path><path class="World_4-area" stroke-linecap="round" d="M97.6 399.6L134.4 405.7L171.2 413L208 418L244.7 426.9L281.5 436.9L318.3 441.6L355.1 444L391.9 447.9L428.7 457.5L465.5 459.4L502.3 458.2L539 459.2L575.8 459.7L612.6 461.6L649.4 460.6L686.2 460.8L686.2 500L649.4 499.8L612.6 500.1L575.8 498.6L539 498.9L502.3 498.3L465.5 500.1L428.7 500.1L391.9 495.1L355.1 493.8L318.3 492.3L281.5 491L244.7 489.4L208 485.4L171.2 483.6L134.4 480.7L97.6 478.8" fill="#fb9a99" fill-opacity="0.7"></path><path class="World_3-area" stroke-linecap="round" d="M97.6 345.6L134.4 350L171.2 358.1L208 363.5L244.7 374.3L281.5 388.8L318.3 393.9L355.1 397.9L391.9 403.6L428.7 416.2L465.5 418.8L502.3 418.3L539 420.7L575.8 421.1L612.6 424.2L649.4 422.3L686.2 422.7L686.2 460.8L649.4 460.6L612.6 461.6L575.8 459.7L539 459.2L502.3 458.2L465.5 459.4L428.7 457.5L391.9 447.9L355.1 444L318.3 441.6L281.5 436.9L244.7 426.9L208 418L171.2 413L134.4 405.7L97.6 399.6" fill="#33a02c" fill-opacity="0.7"></path><path class="World_2-area" stroke-linecap="round" d="M97.6 281.2L134.4 283.6L171.2 292.9L208 299.8L244.7 314.1L281.5 334.7L318.3 341.5L355.1 346.8L391.9 355.3L428.7 370.9L465.5 375.3L502.3 376.6L539 382L575.8 383.1L612.6 387.5L649.4 385.9L686.2 387.2L686.2 422.7L649.4 422.3L612.6 424.2L575.8 421.1L539 420.7L502.3 418.3L465.5 418.8L428.7 416.2L391.9 403.6L355.1 397.9L318.3 393.9L281.5 388.8L244.7 374.3L208 363.5L171.2 358.1L134.4 350L97.6 345.6" fill="#b2df8a" fill-opacity="0.7"></path><path class="World_1-area" stroke-linecap="round" d="M97.6 181.2L134.4 182.8L171.2 190.2L208 195L244.7 208.3L281.5 227.5L318.3 233.2L355.1 237.3L391.9 246.8L428.7 266.1L465.5 274.6L502.3 277.2L539 286L575.8 290.2L612.6 296.5L649.4 296.6L686.2 298.3L686.2 387.2L649.4 385.9L612.6 387.5L575.8 383.1L539 382L502.3 376.6L465.5 375.3L428.7 370.9L391.9 355.3L355.1 346.8L318.3 341.5L281.5 334.7L244.7 314.1L208 299.8L171.2 292.9L134.4 283.6L97.6 281.2" fill="#1f78b4" fill-opacity="0.7"></path><path class="World_0-area" stroke-linecap="round" d="M97.6 70L134.4 70.7L171.2 77.3L208 81.7L244.7 95.1L281.5 115.5L318.3 122.1L355.1 127.1L391.9 138.3L428.7 161.3L465.5 174.2L502.3 179.1L539 191.7L575.8 199.7L612.6 209.1L649.4 211L686.2 213.9L686.2 298.3L649.4 296.6L612.6 296.5L575.8 290.2L539 286L502.3 277.2L465.5 274.6L428.7 266.1L391.9 246.8L355.1 237.3L318.3 233.2L281.5 227.5L244.7 208.3L208 195L171.2 190.2L134.4 182.8L97.6 181.2" fill="#a6cee3" fill-opacity="0.7"></path><path class="World_5-border" stroke-linecap="round" d="M97.6 478.8L134.4 480.7L171.2 483.6L208 485.4L244.7 489.4L281.5 491L318.3 492.3L355.1 493.8L391.9 495.1L428.7 500.1L465.5 500.1L502.3 498.3L539 498.9L575.8 498.6L612.6 500.1L649.4 499.8L686.2 500" stroke="rgb(190, 22, 23)" stroke-opacity="0.7" stroke-width="0.5" fill="none"></path><path class="World_4-border" stroke-linecap="round" d="M97.6 399.6L134.4 405.7L171.2 413L208 418L244.7 426.9L281.5 436.9L318.3 441.6L355.1 444L391.9 447.9L428.7 457.5L465.5 459.4L502.3 458.2L539 459.2L575.8 459.7L612.6 461.6L649.4 460.6L686.2 460.8" stroke="rgb(210, 129, 128)" stroke-opacity="0.7" stroke-width="0.5" fill="none"></path><path class="World_3-border" stroke-linecap="round" d="M97.6 345.6L134.4 350L171.2 358.1L208 363.5L244.7 374.3L281.5 388.8L318.3 393.9L355.1 397.9L391.9 403.6L428.7 416.2L465.5 418.8L502.3 418.3L539 420.7L575.8 421.1L612.6 424.2L649.4 422.3L686.2 422.7" stroke="rgb(43, 134, 37)" stroke-opacity="0.7" stroke-width="0.5" fill="none"></path><path class="World_2-border" stroke-linecap="round" d="M97.6 281.2L134.4 283.6L171.2 292.9L208 299.8L244.7 314.1L281.5 334.7L318.3 341.5L355.1 346.8L391.9 355.3L428.7 370.9L465.5 375.3L502.3 376.6L539 382L575.8 383.1L612.6 387.5L649.4 385.9L686.2 387.2" stroke="rgb(149, 187, 115)" stroke-opacity="0.7" stroke-width="0.5" fill="none"></path><path class="World_1-border" stroke-linecap="round" d="M97.6 181.2L134.4 182.8L171.2 190.2L208 195L244.7 208.3L281.5 227.5L318.3 233.2L355.1 237.3L391.9 246.8L428.7 266.1L465.5 274.6L502.3 277.2L539 286L575.8 290.2L612.6 296.5L649.4 296.6L686.2 298.3" stroke="rgb(26, 100, 151)" stroke-opacity="0.7" stroke-width="0.5" fill="none"></path><path class="World_0-border" stroke-linecap="round" d="M97.6 70L134.4 70.7L171.2 77.3L208 81.7L244.7 95.1L281.5 115.5L318.3 122.1L355.1 127.1L391.9 138.3L428.7 161.3L465.5 174.2L502.3 179.1L539 191.7L575.8 199.7L612.6 209.1L649.4 211L686.2 213.9" stroke="rgb(139, 172, 190)" stroke-opacity="0.7" stroke-width="0.5" fill="none"></path></g></g></g><g class="SourcesFooter" style="fill:#777"><g class="clickable" style="fill:#777"><text font-size="12.60" x="15.0" y="581.6"><tspan x="15" y="581.58">Source: World Bank</tspan></text></g><text font-size="12.60" x="775.4" y="581.6"><tspan x="775.402" y="581.58"><a style="fill: #777;" class="cclogo" href="http://creativecommons.org/licenses/by-sa/4.0/deed.en_US" target="_blank">CC BY-SA</a></tspan></text></g></g></svg>