<svg xmlns="http://www.w3.org/2000/svg" version="1.1" style="font-family:&#x27;Helvetica Neue&#x27;, Helvetica, Arial, sans-serif;font-size:18px;background-color:white;text-rendering:optimizeLegibility;-webkit-font-smoothing:antialiased" width="850" height="600"><g class="ChartTab"><g class="HeaderView"><g opacity="0.8" transform="translate(778, 15) scale(0.27)"><a xmlns:xlink="http://www.w3.org/1999/xlink" xlink:href="https://ourworldindata.org" target="_blank"><g><rect x="0" y="0" fill="#1B2543" width="211.2" height="130.1"/><rect x="0" y="112.2" fill="#E63912" width="211.2" height="17.9"/><g><rect x="1.2" y="12.3" fill="none" width="210.2" height="99.2"/><path fill="#FFFFFF" d="M37.8,32.2c0,12.7-7.7,19.4-17.1,19.4c-9.7,0-16.6-7.5-16.6-18.7c0-11.7,7.3-19.3,17.1-19.3 C31.3,13.7,37.8,21.3,37.8,32.2z M9.2,32.8c0,7.9,4.3,14.9,11.8,14.9c7.5,0,11.8-6.9,11.8-15.3c0-7.3-3.8-14.9-11.8-14.9 C13.1,17.5,9.2,24.8,9.2,32.8z"/><path fill="#FFFFFF" d="M62.7,43.8c0,2.7,0.1,5.1,0.2,7.2h-4.3l-0.3-4.3h-0.1c-1.3,2.1-4,4.9-8.8,4.9c-4.2,0-9.1-2.3-9.1-11.6 V24.6h4.8v14.6c0,5,1.5,8.4,5.9,8.4c3.2,0,5.5-2.2,6.3-4.4c0.3-0.7,0.4-1.6,0.4-2.5V24.6h4.8V43.8z"/><path fill="#FFFFFF" d="M67.3,32.8c0-3.1-0.1-5.8-0.2-8.2h4.2l0.2,5.2h0.2c1.2-3.5,4.1-5.8,7.3-5.8c0.5,0,0.9,0.1,1.4,0.2v4.5 c-0.5-0.1-1-0.2-1.6-0.2c-3.4,0-5.8,2.6-6.5,6.2c-0.1,0.7-0.2,1.4-0.2,2.2V51h-4.8V32.8z"/><path fill="#FFFFFF" d="M95.4,51l-9.4-36.8h5l4.4,18.6c1.1,4.6,2.1,9.2,2.7,12.7h0.1c0.6-3.7,1.8-8,3-12.8l4.9-18.5h5l4.5,18.7 c1,4.4,2,8.7,2.6,12.6h0.1c0.8-4,1.8-8.1,3-12.7l4.9-18.5h4.9L120.6,51h-5L111,31.9c-1.1-4.7-1.9-8.3-2.4-12h-0.1 c-0.7,3.7-1.5,7.3-2.8,12L100.4,51H95.4z"/><path fill="#FFFFFF" d="M154.9,37.6c0,9.8-6.8,14-13.2,14c-7.2,0-12.7-5.2-12.7-13.6c0-8.8,5.8-14,13.1-14 C149.8,24,154.9,29.5,154.9,37.6z M133.9,37.9c0,5.8,3.3,10.1,8,10.1c4.6,0,8-4.3,8-10.3c0-4.5-2.2-10.1-7.9-10.1 C136.3,27.6,133.9,32.8,133.9,37.9z"/><path fill="#FFFFFF" d="M158.2,32.8c0-3.1-0.1-5.8-0.2-8.2h4.2l0.2,5.2h0.2c1.2-3.5,4.1-5.8,7.3-5.8c0.5,0,0.9,0.1,1.4,0.2v4.5 c-0.5-0.1-1-0.2-1.6-0.2c-3.4,0-5.8,2.6-6.5,6.2c-0.1,0.7-0.2,1.4-0.2,2.2V51h-4.8V32.8z"/><path fill="#FFFFFF" d="M173.5,12.3h4.8V51h-4.8V12.3z"/><path fill="#FFFFFF" d="M206.5,12.3v31.9c0,2.3,0.1,5,0.2,6.8h-4.3l-0.2-4.6H202c-1.5,2.9-4.7,5.2-9,5.2 c-6.4,0-11.3-5.4-11.3-13.4c-0.1-8.8,5.4-14.2,11.9-14.2c4,0,6.8,1.9,8,4h0.1V12.3H206.5z M201.7,35.4c0-0.6-0.1-1.4-0.2-2 c-0.7-3.1-3.3-5.6-6.9-5.6c-5,0-7.9,4.4-7.9,10.2c0,5.3,2.6,9.8,7.8,9.8c3.2,0,6.2-2.1,7.1-5.7c0.2-0.7,0.2-1.3,0.2-2.1V35.4z"/><path fill="#FFFFFF" d="M42.8,64c0.1,1.6-1.1,2.9-3.1,2.9c-1.7,0-2.9-1.3-2.9-2.9c0-1.7,1.3-3,3-3C41.7,61,42.8,62.3,42.8,64z M37.4,97.8V71.4h4.8v26.4H37.4z"/><path fill="#FFFFFF" d="M47.5,78.6c0-2.7-0.1-5-0.2-7.1h4.3l0.3,4.4h0.1c1.3-2.5,4.4-5,8.8-5c3.7,0,9.4,2.2,9.4,11.2v15.8h-4.8 V82.6c0-4.3-1.6-7.8-6.1-7.8c-3.2,0-5.6,2.2-6.5,4.9c-0.2,0.6-0.3,1.4-0.3,2.2v15.9h-4.8V78.6z"/><path fill="#FFFFFF" d="M84,61.6c2.9-0.4,6.3-0.8,10.1-0.8c6.8,0,11.7,1.6,14.9,4.6c3.3,3,5.2,7.3,5.2,13.2c0,6-1.9,10.9-5.3,14.3 c-3.4,3.4-9.1,5.3-16.3,5.3c-3.4,0-6.2-0.2-8.6-0.4V61.6z M88.8,94.1c1.2,0.2,3,0.3,4.8,0.3c10.2,0,15.7-5.7,15.7-15.6 c0.1-8.7-4.9-14.2-14.9-14.2c-2.5,0-4.3,0.2-5.6,0.5V94.1z"/><path fill="#FFFFFF" d="M132.1,97.8l-0.4-3.3h-0.2c-1.5,2.1-4.3,3.9-8.1,3.9c-5.4,0-8.1-3.8-8.1-7.6c0-6.4,5.7-9.9,15.9-9.8v-0.5 c0-2.2-0.6-6.1-6-6.1c-2.5,0-5,0.8-6.9,2l-1.1-3.2c2.2-1.4,5.4-2.3,8.7-2.3c8.1,0,10.1,5.5,10.1,10.8v9.9c0,2.3,0.1,4.5,0.4,6.3 H132.1z M131.4,84.4c-5.3-0.1-11.2,0.8-11.2,5.9c0,3.1,2.1,4.6,4.5,4.6c3.4,0,5.6-2.2,6.4-4.4c0.2-0.5,0.3-1,0.3-1.5V84.4z"/><path fill="#FFFFFF" d="M146.6,63.9v7.6h6.9v3.7h-6.9v14.2c0,3.3,0.9,5.1,3.6,5.1c1.3,0,2.2-0.2,2.8-0.3l0.2,3.6 c-0.9,0.4-2.4,0.7-4.3,0.7c-2.2,0-4-0.7-5.2-2c-1.4-1.4-1.9-3.8-1.9-6.9V75.1h-4.1v-3.7h4.1v-6.3L146.6,63.9z"/><path fill="#FFFFFF" d="M171.4,97.8l-0.4-3.3h-0.2c-1.5,2.1-4.3,3.9-8.1,3.9c-5.4,0-8.1-3.8-8.1-7.6c0-6.4,5.7-9.9,15.9-9.8v-0.5 c0-2.2-0.6-6.1-6-6.1c-2.5,0-5,0.8-6.9,2l-1.1-3.2c2.2-1.4,5.4-2.3,8.7-2.3c8.1,0,10.1,5.5,10.1,10.8v9.9c0,2.3,0.1,4.5,0.4,6.3 H171.4z M170.7,84.4c-5.3-0.1-11.2,0.8-11.2,5.9c0,3.1,2.1,4.6,4.5,4.6c3.4,0,5.6-2.2,6.4-4.4c0.2-0.5,0.3-1,0.3-1.5V84.4z"/></g></g></a></g><a href="https://ourworldindata.org/grapher/number-of-severely-food-insecure-people-by-region" target="_blank"><text font-size="25.20" x="15.0" y="35.2" fill="#555"><tspan x="15" y="35.160000000000004">Number of severely food insecure people by region</tspan></text></a><text font-size="14.40" x="15.0" y="53.7" fill="#666"><tspan x="15" y="53.72">Food insecurity is defined by the UN FAO based on the use of Food Insecurity Experience Scale (FIES) global</tspan><tspan x="15" y="69.56">reference scale. Data at the individual or household level is collected by applying an experience-based food security</tspan><tspan x="15" y="85.4">scale questionnaire within a survey related to the occurrence of several typical experiences and conditions associated</tspan><tspan x="15" y="101.24000000000001">with food insecurity. </tspan></text></g><g class="StackedArea"><defs><clipPath id="boundsClip-111"><rect x="97.598" y="0" width="820" height="866.8"></rect></clipPath></defs><g class="AxisBoxView"><g class="HorizontalAxis"><text x="97.6" y="556.5" fill="#666" text-anchor="middle" font-size="16.2">2014</text><text x="392.4" y="556.5" fill="#666" text-anchor="middle" font-size="16.2">2015</text><text x="687.1" y="556.5" fill="#666" text-anchor="middle" font-size="16.2">2016</text></g><g class="VerticalAxis"><text x="92.60" y="535.3" fill="#666" dominant-baseline="middle" text-anchor="end" font-size="16.2">0</text><text x="92.60" y="475.9" fill="#666" dominant-baseline="middle" text-anchor="end" font-size="16.2">100 million</text><text x="92.60" y="416.6" fill="#666" dominant-baseline="middle" text-anchor="end" font-size="16.2">200 million</text><text x="92.60" y="357.2" fill="#666" dominant-baseline="middle" text-anchor="end" font-size="16.2">300 million</text><text x="92.60" y="297.9" fill="#666" dominant-baseline="middle" text-anchor="end" font-size="16.2">400 million</text><text x="92.60" y="238.5" fill="#666" dominant-baseline="middle" text-anchor="end" font-size="16.2">500 million</text><text x="92.60" y="179.1" fill="#666" dominant-baseline="middle" text-anchor="end" font-size="16.2">600 million</text></g><g class="AxisGridLines"><line x1="97.60" y1="535.3" x2="687.14" y2="535.3" stroke="#ccc"></line><line x1="97.60" y1="475.9" x2="687.14" y2="475.9" stroke="#ddd" stroke-dasharray="3,2"></line><line x1="97.60" y1="416.6" x2="687.14" y2="416.6" stroke="#ddd" stroke-dasharray="3,2"></line><line x1="97.60" y1="357.2" x2="687.14" y2="357.2" stroke="#ddd" stroke-dasharray="3,2"></line><line x1="97.60" y1="297.9" x2="687.14" y2="297.9" stroke="#ddd" stroke-dasharray="3,2"></line><line x1="97.60" y1="238.5" x2="687.14" y2="238.5" stroke="#ddd" stroke-dasharray="3,2"></line><line x1="97.60" y1="179.1" x2="687.14" y2="179.1" stroke="#ddd" stroke-dasharray="3,2"></line></g></g><g clip-path="url(#boundsClip-111)"><g class="HeightedLegend clickable"><g class="legendMark"><g class="indicator"><line x1="692.14" y1="127" x2="714.64" y2="127" stroke="#666" stroke-width="0.5"></line><line x1="714.64" y1="127" x2="714.64" y2="127" stroke="#666" stroke-width="0.5"></line><line x1="714.64" y1="127" x2="717.14" y2="127" stroke="#666" stroke-width="0.5"></line></g><rect x="687.14" y="112.95" width="147.86" height="28.1" fill="#fff" opacity="0"></rect><text font-size="13.50" x="722.1" y="123.8" fill="#34983f"><tspan x="722.14" y="123.75">North America and</tspan><tspan x="722.14" y="138.6">Europe</tspan></text></g><g class="legendMark"><g class="indicator"><line x1="692.14" y1="142.2" x2="704.64" y2="142.2" stroke="#666" stroke-width="0.5"></line><line x1="704.64" y1="142.2" x2="704.64" y2="149.8" stroke="#666" stroke-width="0.5"></line><line x1="704.64" y1="149.8" x2="717.14" y2="149.8" stroke="#666" stroke-width="0.5"></line></g><rect x="687.14" y="143.05" width="117.75500000000001" height="13.5" fill="#fff" opacity="0"></rect><text font-size="13.50" x="722.1" y="153.9" fill="#ffd53e"><tspan x="722.14" y="153.85000000000002">Latin America</tspan></text></g><g class="legendMark"><g class="indicator"><line x1="692.14" y1="245.5" x2="704.64" y2="245.5" stroke="#666" stroke-width="0.5"></line><line x1="704.64" y1="245.5" x2="704.64" y2="245.5" stroke="#666" stroke-width="0.5"></line><line x1="704.64" y1="245.5" x2="717.14" y2="245.5" stroke="#666" stroke-width="0.5"></line></g><rect x="687.14" y="238.75" width="61.325" height="13.5" fill="#fff" opacity="0"></rect><text font-size="13.50" x="722.1" y="249.6" fill="#ca2628"><tspan x="722.14" y="249.55">Asia</tspan></text></g><g class="legendMark"><g class="indicator"><line x1="692.14" y1="436.4" x2="704.64" y2="436.4" stroke="#666" stroke-width="0.5"></line><line x1="704.64" y1="436.4" x2="704.64" y2="436.4" stroke="#666" stroke-width="0.5"></line><line x1="704.64" y1="436.4" x2="717.14" y2="436.4" stroke="#666" stroke-width="0.5"></line></g><rect x="687.14" y="429.65" width="69.56" height="13.5" fill="#fff" opacity="0"></rect><text font-size="13.50" x="722.1" y="440.4" fill="#3360a9"><tspan x="722.14" y="440.45">Africa</tspan></text></g></g><g class="Areas"><rect x="97.598" y="123.1" width="589.542" height="412.19999999999993" opacity="0" fill="rgba(255,255,255,0)"></rect><path class="Africa_0-area" stroke-linecap="round" d="M97.6 363.5L392.4 358.4L687.1 337.5L687.14 535.3L97.598 535.3" fill="#3360a9" fill-opacity="0.7"></path><path class="Asia_0-area" stroke-linecap="round" d="M97.6 163.4L392.4 176.3L687.1 153.6L687.1 337.5L392.4 358.4L97.6 363.5" fill="#ca2628" fill-opacity="0.7"></path><path class="Latin-America_0-area" stroke-linecap="round" d="M97.6 147L392.4 159.7L687.1 130.8L687.1 153.6L392.4 176.3L97.6 163.4" fill="#ffd53e" fill-opacity="0.7"></path><path class="North-America-and-Europe_0-area" stroke-linecap="round" d="M97.6 137.7L392.4 149.5L687.1 123.1L687.1 130.8L392.4 159.7L97.6 147" fill="#34983f" fill-opacity="0.7"></path><path class="Africa_0-border" stroke-linecap="round" d="M97.6 363.5L392.4 358.4L687.1 337.5" stroke="rgb(43, 80, 141)" stroke-opacity="0.7" stroke-width="0.5" fill="none"></path><path class="Asia_0-border" stroke-linecap="round" d="M97.6 163.4L392.4 176.3L687.1 153.6" stroke="rgb(169, 32, 33)" stroke-opacity="0.7" stroke-width="0.5" fill="none"></path><path class="Latin-America_0-border" stroke-linecap="round" d="M97.6 147L392.4 159.7L687.1 130.8" stroke="rgb(213, 178, 52)" stroke-opacity="0.7" stroke-width="0.5" fill="none"></path><path class="North-America-and-Europe_0-border" stroke-linecap="round" d="M97.6 137.7L392.4 149.5L687.1 123.1" stroke="rgb(44, 127, 53)" stroke-opacity="0.7" stroke-width="0.5" fill="none"></path></g></g></g><g class="SourcesFooter" style="fill:#777"><g class="clickable" style="fill:#777"><text font-size="12.60" x="15.0" y="581.6"><tspan x="15" y="581.58">Source: UN Food and Agriculture Organization (FAO)</tspan></text></g><text font-size="12.60" x="775.4" y="581.6"><tspan x="775.402" y="581.58"><a style="fill: #777;" class="cclogo" href="http://creativecommons.org/licenses/by-sa/4.0/deed.en_US" target="_blank">CC BY-SA</a></tspan></text></g></g></svg>