<svg xmlns="http://www.w3.org/2000/svg" version="1.1" style="font-family:&#x27;Helvetica Neue&#x27;, Helvetica, Arial, sans-serif;font-size:18px;background-color:white;text-rendering:optimizeLegibility;-webkit-font-smoothing:antialiased" width="850" height="600"><g class="ChartTab"><g class="HeaderView"><g opacity="0.8" transform="translate(778, 15) scale(0.27)"><a xmlns:xlink="http://www.w3.org/1999/xlink" xlink:href="https://ourworldindata.org" target="_blank"><g><rect x="0" y="0" fill="#1B2543" width="211.2" height="130.1"/><rect x="0" y="112.2" fill="#E63912" width="211.2" height="17.9"/><g><rect x="1.2" y="12.3" fill="none" width="210.2" height="99.2"/><path fill="#FFFFFF" d="M37.8,32.2c0,12.7-7.7,19.4-17.1,19.4c-9.7,0-16.6-7.5-16.6-18.7c0-11.7,7.3-19.3,17.1-19.3 C31.3,13.7,37.8,21.3,37.8,32.2z M9.2,32.8c0,7.9,4.3,14.9,11.8,14.9c7.5,0,11.8-6.9,11.8-15.3c0-7.3-3.8-14.9-11.8-14.9 C13.1,17.5,9.2,24.8,9.2,32.8z"/><path fill="#FFFFFF" d="M62.7,43.8c0,2.7,0.1,5.1,0.2,7.2h-4.3l-0.3-4.3h-0.1c-1.3,2.1-4,4.9-8.8,4.9c-4.2,0-9.1-2.3-9.1-11.6 V24.6h4.8v14.6c0,5,1.5,8.4,5.9,8.4c3.2,0,5.5-2.2,6.3-4.4c0.3-0.7,0.4-1.6,0.4-2.5V24.6h4.8V43.8z"/><path fill="#FFFFFF" d="M67.3,32.8c0-3.1-0.1-5.8-0.2-8.2h4.2l0.2,5.2h0.2c1.2-3.5,4.1-5.8,7.3-5.8c0.5,0,0.9,0.1,1.4,0.2v4.5 c-0.5-0.1-1-0.2-1.6-0.2c-3.4,0-5.8,2.6-6.5,6.2c-0.1,0.7-0.2,1.4-0.2,2.2V51h-4.8V32.8z"/><path fill="#FFFFFF" d="M95.4,51l-9.4-36.8h5l4.4,18.6c1.1,4.6,2.1,9.2,2.7,12.7h0.1c0.6-3.7,1.8-8,3-12.8l4.9-18.5h5l4.5,18.7 c1,4.4,2,8.7,2.6,12.6h0.1c0.8-4,1.8-8.1,3-12.7l4.9-18.5h4.9L120.6,51h-5L111,31.9c-1.1-4.7-1.9-8.3-2.4-12h-0.1 c-0.7,3.7-1.5,7.3-2.8,12L100.4,51H95.4z"/><path fill="#FFFFFF" d="M154.9,37.6c0,9.8-6.8,14-13.2,14c-7.2,0-12.7-5.2-12.7-13.6c0-8.8,5.8-14,13.1-14 C149.8,24,154.9,29.5,154.9,37.6z M133.9,37.9c0,5.8,3.3,10.1,8,10.1c4.6,0,8-4.3,8-10.3c0-4.5-2.2-10.1-7.9-10.1 C136.3,27.6,133.9,32.8,133.9,37.9z"/><path fill="#FFFFFF" d="M158.2,32.8c0-3.1-0.1-5.8-0.2-8.2h4.2l0.2,5.2h0.2c1.2-3.5,4.1-5.8,7.3-5.8c0.5,0,0.9,0.1,1.4,0.2v4.5 c-0.5-0.1-1-0.2-1.6-0.2c-3.4,0-5.8,2.6-6.5,6.2c-0.1,0.7-0.2,1.4-0.2,2.2V51h-4.8V32.8z"/><path fill="#FFFFFF" d="M173.5,12.3h4.8V51h-4.8V12.3z"/><path fill="#FFFFFF" d="M206.5,12.3v31.9c0,2.3,0.1,5,0.2,6.8h-4.3l-0.2-4.6H202c-1.5,2.9-4.7,5.2-9,5.2 c-6.4,0-11.3-5.4-11.3-13.4c-0.1-8.8,5.4-14.2,11.9-14.2c4,0,6.8,1.9,8,4h0.1V12.3H206.5z M201.7,35.4c0-0.6-0.1-1.4-0.2-2 c-0.7-3.1-3.3-5.6-6.9-5.6c-5,0-7.9,4.4-7.9,10.2c0,5.3,2.6,9.8,7.8,9.8c3.2,0,6.2-2.1,7.1-5.7c0.2-0.7,0.2-1.3,0.2-2.1V35.4z"/><path fill="#FFFFFF" d="M42.8,64c0.1,1.6-1.1,2.9-3.1,2.9c-1.7,0-2.9-1.3-2.9-2.9c0-1.7,1.3-3,3-3C41.7,61,42.8,62.3,42.8,64z M37.4,97.8V71.4h4.8v26.4H37.4z"/><path fill="#FFFFFF" d="M47.5,78.6c0-2.7-0.1-5-0.2-7.1h4.3l0.3,4.4h0.1c1.3-2.5,4.4-5,8.8-5c3.7,0,9.4,2.2,9.4,11.2v15.8h-4.8 V82.6c0-4.3-1.6-7.8-6.1-7.8c-3.2,0-5.6,2.2-6.5,4.9c-0.2,0.6-0.3,1.4-0.3,2.2v15.9h-4.8V78.6z"/><path fill="#FFFFFF" d="M84,61.6c2.9-0.4,6.3-0.8,10.1-0.8c6.8,0,11.7,1.6,14.9,4.6c3.3,3,5.2,7.3,5.2,13.2c0,6-1.9,10.9-5.3,14.3 c-3.4,3.4-9.1,5.3-16.3,5.3c-3.4,0-6.2-0.2-8.6-0.4V61.6z M88.8,94.1c1.2,0.2,3,0.3,4.8,0.3c10.2,0,15.7-5.7,15.7-15.6 c0.1-8.7-4.9-14.2-14.9-14.2c-2.5,0-4.3,0.2-5.6,0.5V94.1z"/><path fill="#FFFFFF" d="M132.1,97.8l-0.4-3.3h-0.2c-1.5,2.1-4.3,3.9-8.1,3.9c-5.4,0-8.1-3.8-8.1-7.6c0-6.4,5.7-9.9,15.9-9.8v-0.5 c0-2.2-0.6-6.1-6-6.1c-2.5,0-5,0.8-6.9,2l-1.1-3.2c2.2-1.4,5.4-2.3,8.7-2.3c8.1,0,10.1,5.5,10.1,10.8v9.9c0,2.3,0.1,4.5,0.4,6.3 H132.1z M131.4,84.4c-5.3-0.1-11.2,0.8-11.2,5.9c0,3.1,2.1,4.6,4.5,4.6c3.4,0,5.6-2.2,6.4-4.4c0.2-0.5,0.3-1,0.3-1.5V84.4z"/><path fill="#FFFFFF" d="M146.6,63.9v7.6h6.9v3.7h-6.9v14.2c0,3.3,0.9,5.1,3.6,5.1c1.3,0,2.2-0.2,2.8-0.3l0.2,3.6 c-0.9,0.4-2.4,0.7-4.3,0.7c-2.2,0-4-0.7-5.2-2c-1.4-1.4-1.9-3.8-1.9-6.9V75.1h-4.1v-3.7h4.1v-6.3L146.6,63.9z"/><path fill="#FFFFFF" d="M171.4,97.8l-0.4-3.3h-0.2c-1.5,2.1-4.3,3.9-8.1,3.9c-5.4,0-8.1-3.8-8.1-7.6c0-6.4,5.7-9.9,15.9-9.8v-0.5 c0-2.2-0.6-6.1-6-6.1c-2.5,0-5,0.8-6.9,2l-1.1-3.2c2.2-1.4,5.4-2.3,8.7-2.3c8.1,0,10.1,5.5,10.1,10.8v9.9c0,2.3,0.1,4.5,0.4,6.3 H171.4z M170.7,84.4c-5.3-0.1-11.2,0.8-11.2,5.9c0,3.1,2.1,4.6,4.5,4.6c3.4,0,5.6-2.2,6.4-4.4c0.2-0.5,0.3-1,0.3-1.5V84.4z"/></g></g></a></g><a href="https://ourworldindata.org/grapher/number-of-deaths-by-risk-factor" target="_blank"><text font-size="25.20" x="15.0" y="35.2" fill="#555"><tspan x="15" y="35.160000000000004">Number of deaths by risk factor, World, 2016</tspan></text></a><text font-size="14.40" x="15.0" y="53.7" fill="#666"><tspan x="15" y="53.72">Total annual number of deaths by risk factor, measured across all age groups and both sexes.</tspan></text></g><g class="DiscreteBarChart"><rect x="15" y="76.6" width="810" height="479.9" opacity="0" fill="rgba(255,255,255,0)"></rect><g class="HorizontalAxis"><text x="245.4" y="556.5" fill="#666" text-anchor="middle" font-size="16.2">0</text><text x="341.7" y="556.5" fill="#666" text-anchor="middle" font-size="16.2">2 million</text><text x="438.1" y="556.5" fill="#666" text-anchor="middle" font-size="16.2">4 million</text><text x="534.4" y="556.5" fill="#666" text-anchor="middle" font-size="16.2">6 million</text><text x="630.7" y="556.5" fill="#666" text-anchor="middle" font-size="16.2">8 million</text><text x="727" y="556.5" fill="#666" text-anchor="middle" font-size="16.2">10 million</text></g><g class="AxisGridLines"><line x1="245.4" y1="535.30" x2="245.4" y2="76.60" stroke="#ccc"></line><line x1="341.7" y1="535.30" x2="341.7" y2="76.60" stroke="#ddd" stroke-dasharray="3,2"></line><line x1="438.1" y1="535.30" x2="438.1" y2="76.60" stroke="#ddd" stroke-dasharray="3,2"></line><line x1="534.4" y1="535.30" x2="534.4" y2="76.60" stroke="#ddd" stroke-dasharray="3,2"></line><line x1="630.7" y1="535.30" x2="630.7" y2="76.60" stroke="#ddd" stroke-dasharray="3,2"></line><line x1="727" y1="535.30" x2="727" y2="76.60" stroke="#ddd" stroke-dasharray="3,2"></line></g><g class="bar"><text x="240.418" y="83.65692307692308" fill="#666" dominant-baseline="middle" text-anchor="end" font-size="13.5">High blood pressure</text><rect x="245.4" y="76.6" width="503.6" height="14.113846153846156" fill="#800026" opacity="0.85"></rect><text x="754" y="83.65692307692308" fill="#666" dominant-baseline="middle" text-anchor="start" font-size="13.5">10.46 million</text></g><g class="bar"><text x="240.418" y="101.29923076923077" fill="#666" dominant-baseline="middle" text-anchor="end" font-size="13.5">Smoking</text><rect x="245.4" y="94.24230769230769" width="304.5" height="14.113846153846156" fill="rgb(144, 0, 38)" opacity="0.85"></rect><text x="554.9" y="101.29923076923077" fill="#666" dominant-baseline="middle" text-anchor="start" font-size="13.5">6.32 million</text></g><g class="bar"><text x="240.418" y="118.94153846153847" fill="#666" dominant-baseline="middle" text-anchor="end" font-size="13.5">High blood sugar</text><rect x="245.4" y="111.88461538461539" width="270.30000000000007" height="14.113846153846156" fill="rgb(159, 0, 38)" opacity="0.85"></rect><text x="520.7" y="118.94153846153847" fill="#666" dominant-baseline="middle" text-anchor="start" font-size="13.5">5.61 million</text></g><g class="bar"><text x="240.418" y="136.58384615384617" fill="#666" dominant-baseline="middle" text-anchor="end" font-size="13.5">High body-mass index (obesity)</text><rect x="245.4" y="129.52692307692308" width="217.99999999999997" height="14.113846153846156" fill="rgb(174, 0, 38)" opacity="0.85"></rect><text x="468.4" y="136.58384615384617" fill="#666" dominant-baseline="middle" text-anchor="start" font-size="13.5">4.53 million</text></g><g class="bar"><text x="240.418" y="154.22615384615386" fill="#666" dominant-baseline="middle" text-anchor="end" font-size="13.5">High cholesterol</text><rect x="245.4" y="147.16923076923078" width="211.6" height="14.113846153846156" fill="#bd0026" opacity="0.85"></rect><text x="462" y="154.22615384615386" fill="#666" dominant-baseline="middle" text-anchor="start" font-size="13.5">4.39 million</text></g><g class="bar"><text x="240.418" y="171.86846153846156" fill="#666" dominant-baseline="middle" text-anchor="end" font-size="13.5">Outdoor air pollution</text><rect x="245.4" y="164.81153846153848" width="197.1" height="14.113846153846156" fill="rgb(199, 7, 36)" opacity="0.85"></rect><text x="447.5" y="171.86846153846156" fill="#666" dominant-baseline="middle" text-anchor="start" font-size="13.5">4.09 million</text></g><g class="bar"><text x="240.418" y="189.51076923076926" fill="#666" dominant-baseline="middle" text-anchor="end" font-size="13.5">Alcohol use</text><rect x="245.4" y="182.45384615384617" width="135.6" height="14.113846153846156" fill="rgb(208, 13, 33)" opacity="0.85"></rect><text x="386" y="189.51076923076926" fill="#666" dominant-baseline="middle" text-anchor="start" font-size="13.5">2.81 million</text></g><g class="bar"><text x="240.418" y="207.15307692307695" fill="#666" dominant-baseline="middle" text-anchor="end" font-size="13.5">Household air pollution</text><rect x="245.4" y="200.09615384615387" width="124.1" height="14.113846153846156" fill="rgb(218, 20, 31)" opacity="0.85"></rect><text x="374.5" y="207.15307692307695" fill="#666" dominant-baseline="middle" text-anchor="start" font-size="13.5">2.58 million</text></g><g class="bar"><text x="240.418" y="224.79538461538465" fill="#666" dominant-baseline="middle" text-anchor="end" font-size="13.5">Diet low in fruits</text><rect x="245.4" y="217.73846153846156" width="113.70000000000002" height="14.113846153846156" fill="#e31a1c" opacity="0.85"></rect><text x="364.1" y="224.79538461538465" fill="#666" dominant-baseline="middle" text-anchor="start" font-size="13.5">2.36 million</text></g><g class="bar"><text x="240.418" y="242.43769230769234" fill="#666" dominant-baseline="middle" text-anchor="end" font-size="13.5">Diet low in vegetables</text><rect x="245.4" y="235.38076923076926" width="73.20000000000002" height="14.113846153846156" fill="rgb(234, 39, 32)" opacity="0.85"></rect><text x="323.6" y="242.43769230769234" fill="#666" dominant-baseline="middle" text-anchor="start" font-size="13.5">1.52 million</text></g><g class="bar"><text x="240.418" y="260.08000000000004" fill="#666" dominant-baseline="middle" text-anchor="end" font-size="13.5">Low physical activity</text><rect x="245.4" y="253.02307692307696" width="66.20000000000002" height="14.113846153846156" fill="rgb(240, 52, 35)" opacity="0.85"></rect><text x="316.6" y="260.08000000000004" fill="#666" dominant-baseline="middle" text-anchor="start" font-size="13.5">1.37 million</text></g><g class="bar"><text x="240.418" y="277.7223076923077" fill="#666" dominant-baseline="middle" text-anchor="end" font-size="13.5">Unsafe water source</text><rect x="245.4" y="270.66538461538465" width="55.900000000000006" height="14.113846153846156" fill="rgb(246, 65, 39)" opacity="0.85"></rect><text x="306.3" y="277.7223076923077" fill="#666" dominant-baseline="middle" text-anchor="start" font-size="13.5">1.16 million</text></g><g class="bar"><text x="240.418" y="295.3646153846154" fill="#666" dominant-baseline="middle" text-anchor="end" font-size="13.5">Unsafe sex</text><rect x="245.4" y="288.3076923076923" width="52.99999999999997" height="14.113846153846156" fill="#fc4e2a" opacity="0.85"></rect><text x="303.4" y="295.3646153846154" fill="#666" dominant-baseline="middle" text-anchor="start" font-size="13.5">1.1 million</text></g><g class="bar"><text x="240.418" y="313.00692307692304" fill="#666" dominant-baseline="middle" text-anchor="end" font-size="13.5">Child wasting</text><rect x="245.4" y="305.95" width="43.70000000000002" height="14.113846153846156" fill="rgb(253, 94, 47)" opacity="0.85"></rect><text x="294.1" y="313.00692307692304" fill="#666" dominant-baseline="middle" text-anchor="start" font-size="13.5">906,386</text></g><g class="bar"><text x="240.418" y="330.6492307692307" fill="#666" dominant-baseline="middle" text-anchor="end" font-size="13.5">Poor sanitation</text><rect x="245.4" y="323.59230769230766" width="43.29999999999998" height="14.113846153846156" fill="rgb(253, 110, 51)" opacity="0.85"></rect><text x="293.7" y="330.6492307692307" fill="#666" dominant-baseline="middle" text-anchor="start" font-size="13.5">898,239</text></g><g class="bar"><text x="240.418" y="348.2915384615384" fill="#666" dominant-baseline="middle" text-anchor="end" font-size="13.5">Secondhand smoke</text><rect x="245.4" y="341.2346153846153" width="42.599999999999994" height="14.113846153846156" fill="rgb(253, 126, 56)" opacity="0.85"></rect><text x="293" y="348.2915384615384" fill="#666" dominant-baseline="middle" text-anchor="start" font-size="13.5">883,931</text></g><g class="bar"><text x="240.418" y="365.93384615384605" fill="#666" dominant-baseline="middle" text-anchor="end" font-size="13.5">Low birth weight</text><rect x="245.4" y="358.876923076923" width="37.49999999999997" height="14.113846153846156" fill="#fd8d3c" opacity="0.85"></rect><text x="287.9" y="365.93384615384605" fill="#666" dominant-baseline="middle" text-anchor="start" font-size="13.5">778,370</text></g><g class="bar"><text x="240.418" y="383.5761538461537" fill="#666" dominant-baseline="middle" text-anchor="end" font-size="13.5">No access to handwashing facility</text><rect x="245.4" y="376.51923076923066" width="36.20000000000002" height="14.113846153846156" fill="rgb(254, 151, 64)" opacity="0.85"></rect><text x="286.6" y="383.5761538461537" fill="#666" dominant-baseline="middle" text-anchor="start" font-size="13.5">750,336</text></g><g class="bar"><text x="240.418" y="401.2184615384614" fill="#666" dominant-baseline="middle" text-anchor="end" font-size="13.5">Drug use</text><rect x="245.4" y="394.1615384615383" width="21.799999999999983" height="14.113846153846156" fill="rgb(254, 160, 68)" opacity="0.85"></rect><text x="272.2" y="401.2184615384614" fill="#666" dominant-baseline="middle" text-anchor="start" font-size="13.5">451,822</text></g><g class="bar"><text x="240.418" y="418.86076923076905" fill="#666" dominant-baseline="middle" text-anchor="end" font-size="13.5">Low bone mineral density</text><rect x="245.4" y="411.803846153846" width="21.299999999999983" height="14.113846153846156" fill="#feb24c" opacity="0.85"></rect><text x="271.7" y="418.86076923076905" fill="#666" dominant-baseline="middle" text-anchor="start" font-size="13.5">441,226</text></g><g class="bar"><text x="240.418" y="436.5030769230767" fill="#666" dominant-baseline="middle" text-anchor="end" font-size="13.5">Child stunting</text><rect x="245.4" y="429.44615384615366" width="7.799999999999983" height="14.113846153846156" fill="rgb(254, 198, 97)" opacity="0.85"></rect><text x="258.2" y="436.5030769230767" fill="#666" dominant-baseline="middle" text-anchor="start" font-size="13.5">162,189</text></g><g class="bar"><text x="240.418" y="454.1453846153844" fill="#666" dominant-baseline="middle" text-anchor="end" font-size="13.5">Non-exclusive breastfeeding</text><rect x="245.4" y="447.08846153846133" width="7" height="14.113846153846156" fill="#fed976" opacity="0.85"></rect><text x="257.4" y="454.1453846153844" fill="#666" dominant-baseline="middle" text-anchor="start" font-size="13.5">144,110</text></g><g class="bar"><text x="240.418" y="471.78769230769205" fill="#666" dominant-baseline="middle" text-anchor="end" font-size="13.5">Vitamin-A deficiency</text><rect x="245.4" y="464.730769230769" width="2" height="14.113846153846156" fill="rgb(255, 227, 139)" opacity="0.85"></rect><text x="252.4" y="471.78769230769205" fill="#666" dominant-baseline="middle" text-anchor="start" font-size="13.5">42,183</text></g><g class="bar"><text x="240.418" y="489.4299999999997" fill="#666" dominant-baseline="middle" text-anchor="end" font-size="13.5">Zinc deficiency</text><rect x="245.4" y="482.37307692307667" width="1.1999999999999886" height="14.113846153846156" fill="#ffeda0" opacity="0.85"></rect><text x="251.6" y="489.4299999999997" fill="#666" dominant-baseline="middle" text-anchor="start" font-size="13.5">25,088</text></g><g class="bar"><text x="240.418" y="507.0723076923074" fill="#666" dominant-baseline="middle" text-anchor="end" font-size="13.5">Iron deficiency</text><rect x="245.4" y="500.01538461538433" width="1" height="14.113846153846156" fill="rgb(255, 246, 182)" opacity="0.85"></rect><text x="251.4" y="507.0723076923074" fill="#666" dominant-baseline="middle" text-anchor="start" font-size="13.5">20,950</text></g><g class="bar"><text x="240.418" y="524.7146153846151" fill="#666" dominant-baseline="middle" text-anchor="end" font-size="13.5">Discontinued breastfeeding</text><rect x="245.4" y="517.657692307692" width="0.5" height="14.113846153846156" fill="#ffffcc" opacity="0.85"></rect><text x="250.9" y="524.7146153846151" fill="#666" dominant-baseline="middle" text-anchor="start" font-size="13.5">10,038</text></g></g><g class="SourcesFooter" style="fill:#777"><g class="clickable" style="fill:#777"><text font-size="12.60" x="15.0" y="581.6"><tspan x="15" y="581.58">Source: IHME, Global Burden of Disease (GBD)</tspan></text></g><text font-size="12.60" x="775.4" y="581.6"><tspan x="775.402" y="581.58"><a style="fill: #777;" class="cclogo" href="http://creativecommons.org/licenses/by-sa/4.0/deed.en_US" target="_blank">CC BY-SA</a></tspan></text></g></g></svg>