<svg xmlns="http://www.w3.org/2000/svg" version="1.1" style="font-family:&#x27;Helvetica Neue&#x27;, Helvetica, Arial, sans-serif;font-size:18px;background-color:white;text-rendering:optimizeLegibility;-webkit-font-smoothing:antialiased" width="850" height="600"><g class="ChartTab"><g class="HeaderView"><g opacity="0.8" transform="translate(778, 15) scale(0.27)"><a xmlns:xlink="http://www.w3.org/1999/xlink" xlink:href="https://ourworldindata.org" target="_blank"><g><rect x="0" y="0" fill="#1B2543" width="211.2" height="130.1"/><rect x="0" y="112.2" fill="#E63912" width="211.2" height="17.9"/><g><rect x="1.2" y="12.3" fill="none" width="210.2" height="99.2"/><path fill="#FFFFFF" d="M37.8,32.2c0,12.7-7.7,19.4-17.1,19.4c-9.7,0-16.6-7.5-16.6-18.7c0-11.7,7.3-19.3,17.1-19.3 C31.3,13.7,37.8,21.3,37.8,32.2z M9.2,32.8c0,7.9,4.3,14.9,11.8,14.9c7.5,0,11.8-6.9,11.8-15.3c0-7.3-3.8-14.9-11.8-14.9 C13.1,17.5,9.2,24.8,9.2,32.8z"/><path fill="#FFFFFF" d="M62.7,43.8c0,2.7,0.1,5.1,0.2,7.2h-4.3l-0.3-4.3h-0.1c-1.3,2.1-4,4.9-8.8,4.9c-4.2,0-9.1-2.3-9.1-11.6 V24.6h4.8v14.6c0,5,1.5,8.4,5.9,8.4c3.2,0,5.5-2.2,6.3-4.4c0.3-0.7,0.4-1.6,0.4-2.5V24.6h4.8V43.8z"/><path fill="#FFFFFF" d="M67.3,32.8c0-3.1-0.1-5.8-0.2-8.2h4.2l0.2,5.2h0.2c1.2-3.5,4.1-5.8,7.3-5.8c0.5,0,0.9,0.1,1.4,0.2v4.5 c-0.5-0.1-1-0.2-1.6-0.2c-3.4,0-5.8,2.6-6.5,6.2c-0.1,0.7-0.2,1.4-0.2,2.2V51h-4.8V32.8z"/><path fill="#FFFFFF" d="M95.4,51l-9.4-36.8h5l4.4,18.6c1.1,4.6,2.1,9.2,2.7,12.7h0.1c0.6-3.7,1.8-8,3-12.8l4.9-18.5h5l4.5,18.7 c1,4.4,2,8.7,2.6,12.6h0.1c0.8-4,1.8-8.1,3-12.7l4.9-18.5h4.9L120.6,51h-5L111,31.9c-1.1-4.7-1.9-8.3-2.4-12h-0.1 c-0.7,3.7-1.5,7.3-2.8,12L100.4,51H95.4z"/><path fill="#FFFFFF" d="M154.9,37.6c0,9.8-6.8,14-13.2,14c-7.2,0-12.7-5.2-12.7-13.6c0-8.8,5.8-14,13.1-14 C149.8,24,154.9,29.5,154.9,37.6z M133.9,37.9c0,5.8,3.3,10.1,8,10.1c4.6,0,8-4.3,8-10.3c0-4.5-2.2-10.1-7.9-10.1 C136.3,27.6,133.9,32.8,133.9,37.9z"/><path fill="#FFFFFF" d="M158.2,32.8c0-3.1-0.1-5.8-0.2-8.2h4.2l0.2,5.2h0.2c1.2-3.5,4.1-5.8,7.3-5.8c0.5,0,0.9,0.1,1.4,0.2v4.5 c-0.5-0.1-1-0.2-1.6-0.2c-3.4,0-5.8,2.6-6.5,6.2c-0.1,0.7-0.2,1.4-0.2,2.2V51h-4.8V32.8z"/><path fill="#FFFFFF" d="M173.5,12.3h4.8V51h-4.8V12.3z"/><path fill="#FFFFFF" d="M206.5,12.3v31.9c0,2.3,0.1,5,0.2,6.8h-4.3l-0.2-4.6H202c-1.5,2.9-4.7,5.2-9,5.2 c-6.4,0-11.3-5.4-11.3-13.4c-0.1-8.8,5.4-14.2,11.9-14.2c4,0,6.8,1.9,8,4h0.1V12.3H206.5z M201.7,35.4c0-0.6-0.1-1.4-0.2-2 c-0.7-3.1-3.3-5.6-6.9-5.6c-5,0-7.9,4.4-7.9,10.2c0,5.3,2.6,9.8,7.8,9.8c3.2,0,6.2-2.1,7.1-5.7c0.2-0.7,0.2-1.3,0.2-2.1V35.4z"/><path fill="#FFFFFF" d="M42.8,64c0.1,1.6-1.1,2.9-3.1,2.9c-1.7,0-2.9-1.3-2.9-2.9c0-1.7,1.3-3,3-3C41.7,61,42.8,62.3,42.8,64z M37.4,97.8V71.4h4.8v26.4H37.4z"/><path fill="#FFFFFF" d="M47.5,78.6c0-2.7-0.1-5-0.2-7.1h4.3l0.3,4.4h0.1c1.3-2.5,4.4-5,8.8-5c3.7,0,9.4,2.2,9.4,11.2v15.8h-4.8 V82.6c0-4.3-1.6-7.8-6.1-7.8c-3.2,0-5.6,2.2-6.5,4.9c-0.2,0.6-0.3,1.4-0.3,2.2v15.9h-4.8V78.6z"/><path fill="#FFFFFF" d="M84,61.6c2.9-0.4,6.3-0.8,10.1-0.8c6.8,0,11.7,1.6,14.9,4.6c3.3,3,5.2,7.3,5.2,13.2c0,6-1.9,10.9-5.3,14.3 c-3.4,3.4-9.1,5.3-16.3,5.3c-3.4,0-6.2-0.2-8.6-0.4V61.6z M88.8,94.1c1.2,0.2,3,0.3,4.8,0.3c10.2,0,15.7-5.7,15.7-15.6 c0.1-8.7-4.9-14.2-14.9-14.2c-2.5,0-4.3,0.2-5.6,0.5V94.1z"/><path fill="#FFFFFF" d="M132.1,97.8l-0.4-3.3h-0.2c-1.5,2.1-4.3,3.9-8.1,3.9c-5.4,0-8.1-3.8-8.1-7.6c0-6.4,5.7-9.9,15.9-9.8v-0.5 c0-2.2-0.6-6.1-6-6.1c-2.5,0-5,0.8-6.9,2l-1.1-3.2c2.2-1.4,5.4-2.3,8.7-2.3c8.1,0,10.1,5.5,10.1,10.8v9.9c0,2.3,0.1,4.5,0.4,6.3 H132.1z M131.4,84.4c-5.3-0.1-11.2,0.8-11.2,5.9c0,3.1,2.1,4.6,4.5,4.6c3.4,0,5.6-2.2,6.4-4.4c0.2-0.5,0.3-1,0.3-1.5V84.4z"/><path fill="#FFFFFF" d="M146.6,63.9v7.6h6.9v3.7h-6.9v14.2c0,3.3,0.9,5.1,3.6,5.1c1.3,0,2.2-0.2,2.8-0.3l0.2,3.6 c-0.9,0.4-2.4,0.7-4.3,0.7c-2.2,0-4-0.7-5.2-2c-1.4-1.4-1.9-3.8-1.9-6.9V75.1h-4.1v-3.7h4.1v-6.3L146.6,63.9z"/><path fill="#FFFFFF" d="M171.4,97.8l-0.4-3.3h-0.2c-1.5,2.1-4.3,3.9-8.1,3.9c-5.4,0-8.1-3.8-8.1-7.6c0-6.4,5.7-9.9,15.9-9.8v-0.5 c0-2.2-0.6-6.1-6-6.1c-2.5,0-5,0.8-6.9,2l-1.1-3.2c2.2-1.4,5.4-2.3,8.7-2.3c8.1,0,10.1,5.5,10.1,10.8v9.9c0,2.3,0.1,4.5,0.4,6.3 H171.4z M170.7,84.4c-5.3-0.1-11.2,0.8-11.2,5.9c0,3.1,2.1,4.6,4.5,4.6c3.4,0,5.6-2.2,6.4-4.4c0.2-0.5,0.3-1,0.3-1.5V84.4z"/></g></g></a></g><a href="https://ourworldindata.org/grapher/patents-filed-for-renewables" target="_blank"><text font-size="25.20" x="15.0" y="35.2" fill="#555"><tspan x="15" y="35.160000000000004">Number of patents filed for renewable energy technologies, World</tspan></text></a><text font-size="14.40" x="15.0" y="53.7" fill="#666"><tspan x="15" y="53.72">Global number of patents filed under each renewable technology category per year. Note that figures for 2014-16</tspan><tspan x="15" y="69.56">may be subject to a time lag; processing times of patent applications vary and some patents submitted over this</tspan><tspan x="15" y="85.4">period may not yet be recorded in statistics. These figures will be updated with time if additional patent applications</tspan><tspan x="15" y="101.24000000000001">are recorded.</tspan></text></g><g class="StackedBarChart"><defs><clipPath id="boundsClip-393"><rect x="69.896" y="123.1" width="593.866" height="412.2"></rect></clipPath></defs><rect x="15" y="123.1" width="820" height="433.4" opacity="0" fill="rgba(255,255,255,0)"></rect><g class="VerticalAxis"><text x="64.90" y="535.3" fill="#666" dominant-baseline="middle" text-anchor="end" font-size="16.2">0</text><text x="64.90" y="474.8" fill="#666" dominant-baseline="middle" text-anchor="end" font-size="16.2">10,000</text><text x="64.90" y="414.3" fill="#666" dominant-baseline="middle" text-anchor="end" font-size="16.2">20,000</text><text x="64.90" y="353.8" fill="#666" dominant-baseline="middle" text-anchor="end" font-size="16.2">30,000</text><text x="64.90" y="293.3" fill="#666" dominant-baseline="middle" text-anchor="end" font-size="16.2">40,000</text><text x="64.90" y="232.8" fill="#666" dominant-baseline="middle" text-anchor="end" font-size="16.2">50,000</text><text x="64.90" y="172.3" fill="#666" dominant-baseline="middle" text-anchor="end" font-size="16.2">60,000</text></g><g class="AxisGridLines"><line x1="69.90" y1="535.3" x2="663.76" y2="535.3" stroke="#ccc"></line><line x1="69.90" y1="474.8" x2="663.76" y2="474.8" stroke="#ddd" stroke-dasharray="3,2"></line><line x1="69.90" y1="414.3" x2="663.76" y2="414.3" stroke="#ddd" stroke-dasharray="3,2"></line><line x1="69.90" y1="353.8" x2="663.76" y2="353.8" stroke="#ddd" stroke-dasharray="3,2"></line><line x1="69.90" y1="293.3" x2="663.76" y2="293.3" stroke="#ddd" stroke-dasharray="3,2"></line><line x1="69.90" y1="232.8" x2="663.76" y2="232.8" stroke="#ddd" stroke-dasharray="3,2"></line><line x1="69.90" y1="172.3" x2="663.76" y2="172.3" stroke="#ddd" stroke-dasharray="3,2"></line></g><g><text x="72.71197647058823" y="553.26" fill="#666" font-size="16.2">2000</text><text x="142.57856470588234" y="553.26" fill="#666" font-size="16.2">2002</text><text x="212.44515294117645" y="553.26" fill="#666" font-size="16.2">2004</text><text x="282.31174117647055" y="553.26" fill="#666" font-size="16.2">2006</text><text x="352.17832941176465" y="553.26" fill="#666" font-size="16.2">2008</text><text x="422.04491764705875" y="553.26" fill="#666" font-size="16.2">2010</text><text x="491.91150588235286" y="553.26" fill="#666" font-size="16.2">2012</text><text x="561.778094117647" y="553.26" fill="#666" font-size="16.2">2014</text><text x="631.6446823529411" y="553.26" fill="#666" font-size="16.2">2016</text></g><g clip-path="url(#boundsClip-393)"><g class="World_1-segments"><rect x="76.88265882352941" y="516.8" width="27.946635294117648" height="18.5" fill="#ffd53e" opacity="0.8"></rect><rect x="111.81595294117648" y="515.8" width="27.946635294117648" height="19.5" fill="#ffd53e" opacity="0.8"></rect><rect x="146.74924705882353" y="516.5" width="27.946635294117648" height="18.799999999999955" fill="#ffd53e" opacity="0.8"></rect><rect x="181.68254117647058" y="513.4" width="27.946635294117648" height="21.899999999999977" fill="#ffd53e" opacity="0.8"></rect><rect x="216.61583529411763" y="511" width="27.946635294117648" height="24.299999999999955" fill="#ffd53e" opacity="0.8"></rect><rect x="251.54912941176468" y="506.6" width="27.946635294117648" height="28.699999999999932" fill="#ffd53e" opacity="0.8"></rect><rect x="286.48242352941173" y="500.1" width="27.946635294117648" height="35.19999999999993" fill="#ffd53e" opacity="0.8"></rect><rect x="321.4157176470588" y="486.4" width="27.946635294117648" height="48.89999999999998" fill="#ffd53e" opacity="0.8"></rect><rect x="356.34901176470584" y="465.1" width="27.946635294117648" height="70.19999999999993" fill="#ffd53e" opacity="0.8"></rect><rect x="391.2823058823529" y="431.5" width="27.946635294117648" height="103.79999999999995" fill="#ffd53e" opacity="0.8"></rect><rect x="426.21559999999994" y="403.2" width="27.946635294117648" height="132.09999999999997" fill="#ffd53e" opacity="0.8"></rect><rect x="461.148894117647" y="385.5" width="27.946635294117648" height="149.79999999999995" fill="#ffd53e" opacity="0.8"></rect><rect x="496.08218823529404" y="386.2" width="27.946635294117648" height="149.09999999999997" fill="#ffd53e" opacity="0.8"></rect><rect x="531.0154823529411" y="414.5" width="27.946635294117648" height="120.79999999999995" fill="#ffd53e" opacity="0.8"></rect><rect x="565.9487764705882" y="446.6" width="27.946635294117648" height="88.69999999999993" fill="#ffd53e" opacity="0.8"></rect><rect x="600.8820705882353" y="477.5" width="27.946635294117648" height="57.799999999999955" fill="#ffd53e" opacity="0.8"></rect><rect x="635.8153647058823" y="516.9" width="27.946635294117648" height="18.399999999999977" fill="#ffd53e" opacity="0.8"></rect></g><g class="World_2-segments"><rect x="76.88265882352941" y="504.1" width="27.946635294117648" height="12.699999999999932" fill="#f6a324" opacity="0.8"></rect><rect x="111.81595294117648" y="502.4" width="27.946635294117648" height="13.399999999999977" fill="#f6a324" opacity="0.8"></rect><rect x="146.74924705882353" y="501" width="27.946635294117648" height="15.5" fill="#f6a324" opacity="0.8"></rect><rect x="181.68254117647058" y="498.8" width="27.946635294117648" height="14.599999999999966" fill="#f6a324" opacity="0.8"></rect><rect x="216.61583529411763" y="494" width="27.946635294117648" height="17" fill="#f6a324" opacity="0.8"></rect><rect x="251.54912941176468" y="488.3" width="27.946635294117648" height="18.30000000000001" fill="#f6a324" opacity="0.8"></rect><rect x="286.48242352941173" y="473.5" width="27.946635294117648" height="26.600000000000023" fill="#f6a324" opacity="0.8"></rect><rect x="321.4157176470588" y="452.3" width="27.946635294117648" height="34.099999999999966" fill="#f6a324" opacity="0.8"></rect><rect x="356.34901176470584" y="416.6" width="27.946635294117648" height="48.5" fill="#f6a324" opacity="0.8"></rect><rect x="391.2823058823529" y="367.8" width="27.946635294117648" height="63.69999999999999" fill="#f6a324" opacity="0.8"></rect><rect x="426.21559999999994" y="328.7" width="27.946635294117648" height="74.5" fill="#f6a324" opacity="0.8"></rect><rect x="461.148894117647" y="314.3" width="27.946635294117648" height="71.19999999999999" fill="#f6a324" opacity="0.8"></rect><rect x="496.08218823529404" y="316.7" width="27.946635294117648" height="69.5" fill="#f6a324" opacity="0.8"></rect><rect x="531.0154823529411" y="354.4" width="27.946635294117648" height="60.10000000000002" fill="#f6a324" opacity="0.8"></rect><rect x="565.9487764705882" y="399.2" width="27.946635294117648" height="47.400000000000034" fill="#f6a324" opacity="0.8"></rect><rect x="600.8820705882353" y="441.4" width="27.946635294117648" height="36.10000000000002" fill="#f6a324" opacity="0.8"></rect><rect x="635.8153647058823" y="505.6" width="27.946635294117648" height="11.299999999999955" fill="#f6a324" opacity="0.8"></rect></g><g class="World_3-segments"><rect x="76.88265882352941" y="500.1" width="27.946635294117648" height="4" fill="#fceb8c" opacity="0.8"></rect><rect x="111.81595294117648" y="498.2" width="27.946635294117648" height="4.199999999999989" fill="#fceb8c" opacity="0.8"></rect><rect x="146.74924705882353" y="497.3" width="27.946635294117648" height="3.6999999999999886" fill="#fceb8c" opacity="0.8"></rect><rect x="181.68254117647058" y="493.9" width="27.946635294117648" height="4.900000000000034" fill="#fceb8c" opacity="0.8"></rect><rect x="216.61583529411763" y="489.4" width="27.946635294117648" height="4.600000000000023" fill="#fceb8c" opacity="0.8"></rect><rect x="251.54912941176468" y="483" width="27.946635294117648" height="5.300000000000011" fill="#fceb8c" opacity="0.8"></rect><rect x="286.48242352941173" y="466.4" width="27.946635294117648" height="7.100000000000023" fill="#fceb8c" opacity="0.8"></rect><rect x="321.4157176470588" y="443.6" width="27.946635294117648" height="8.699999999999989" fill="#fceb8c" opacity="0.8"></rect><rect x="356.34901176470584" y="404.8" width="27.946635294117648" height="11.800000000000011" fill="#fceb8c" opacity="0.8"></rect><rect x="391.2823058823529" y="353.2" width="27.946635294117648" height="14.600000000000023" fill="#fceb8c" opacity="0.8"></rect><rect x="426.21559999999994" y="311.1" width="27.946635294117648" height="17.599999999999966" fill="#fceb8c" opacity="0.8"></rect><rect x="461.148894117647" y="296.9" width="27.946635294117648" height="17.400000000000034" fill="#fceb8c" opacity="0.8"></rect><rect x="496.08218823529404" y="298.9" width="27.946635294117648" height="17.80000000000001" fill="#fceb8c" opacity="0.8"></rect><rect x="531.0154823529411" y="337.5" width="27.946635294117648" height="16.899999999999977" fill="#fceb8c" opacity="0.8"></rect><rect x="565.9487764705882" y="381.3" width="27.946635294117648" height="17.899999999999977" fill="#fceb8c" opacity="0.8"></rect><rect x="600.8820705882353" y="425.6" width="27.946635294117648" height="15.799999999999955" fill="#fceb8c" opacity="0.8"></rect><rect x="635.8153647058823" y="499.8" width="27.946635294117648" height="5.800000000000011" fill="#fceb8c" opacity="0.8"></rect></g><g class="World_0-segments"><rect x="76.88265882352941" y="488.7" width="27.946635294117648" height="11.400000000000034" fill="#ca2628" opacity="0.8"></rect><rect x="111.81595294117648" y="484.4" width="27.946635294117648" height="13.800000000000011" fill="#ca2628" opacity="0.8"></rect><rect x="146.74924705882353" y="479.6" width="27.946635294117648" height="17.69999999999999" fill="#ca2628" opacity="0.8"></rect><rect x="181.68254117647058" y="474.6" width="27.946635294117648" height="19.299999999999955" fill="#ca2628" opacity="0.8"></rect><rect x="216.61583529411763" y="469.8" width="27.946635294117648" height="19.599999999999966" fill="#ca2628" opacity="0.8"></rect><rect x="251.54912941176468" y="460.7" width="27.946635294117648" height="22.30000000000001" fill="#ca2628" opacity="0.8"></rect><rect x="286.48242352941173" y="440.6" width="27.946635294117648" height="25.799999999999955" fill="#ca2628" opacity="0.8"></rect><rect x="321.4157176470588" y="406.2" width="27.946635294117648" height="37.400000000000034" fill="#ca2628" opacity="0.8"></rect><rect x="356.34901176470584" y="353.9" width="27.946635294117648" height="50.900000000000034" fill="#ca2628" opacity="0.8"></rect><rect x="391.2823058823529" y="285.6" width="27.946635294117648" height="67.59999999999997" fill="#ca2628" opacity="0.8"></rect><rect x="426.21559999999994" y="234" width="27.946635294117648" height="77.10000000000002" fill="#ca2628" opacity="0.8"></rect><rect x="461.148894117647" y="214.9" width="27.946635294117648" height="81.99999999999997" fill="#ca2628" opacity="0.8"></rect><rect x="496.08218823529404" y="221.8" width="27.946635294117648" height="77.09999999999997" fill="#ca2628" opacity="0.8"></rect><rect x="531.0154823529411" y="278.1" width="27.946635294117648" height="59.39999999999998" fill="#ca2628" opacity="0.8"></rect><rect x="565.9487764705882" y="328" width="27.946635294117648" height="53.30000000000001" fill="#ca2628" opacity="0.8"></rect><rect x="600.8820705882353" y="389.9" width="27.946635294117648" height="35.700000000000045" fill="#ca2628" opacity="0.8"></rect><rect x="635.8153647058823" y="488.9" width="27.946635294117648" height="10.900000000000034" fill="#ca2628" opacity="0.8"></rect></g><g class="World_8-segments"><rect x="76.88265882352941" y="477.3" width="27.946635294117648" height="11.399999999999977" fill="#34983f" opacity="0.8"></rect><rect x="111.81595294117648" y="473.4" width="27.946635294117648" height="11" fill="#34983f" opacity="0.8"></rect><rect x="146.74924705882353" y="467.4" width="27.946635294117648" height="12.200000000000045" fill="#34983f" opacity="0.8"></rect><rect x="181.68254117647058" y="462" width="27.946635294117648" height="12.600000000000023" fill="#34983f" opacity="0.8"></rect><rect x="216.61583529411763" y="455.7" width="27.946635294117648" height="14.100000000000023" fill="#34983f" opacity="0.8"></rect><rect x="251.54912941176468" y="443.5" width="27.946635294117648" height="17.19999999999999" fill="#34983f" opacity="0.8"></rect><rect x="286.48242352941173" y="416" width="27.946635294117648" height="24.600000000000023" fill="#34983f" opacity="0.8"></rect><rect x="321.4157176470588" y="370.5" width="27.946635294117648" height="35.69999999999999" fill="#34983f" opacity="0.8"></rect><rect x="356.34901176470584" y="310.8" width="27.946635294117648" height="43.099999999999966" fill="#34983f" opacity="0.8"></rect><rect x="391.2823058823529" y="237.3" width="27.946635294117648" height="48.30000000000001" fill="#34983f" opacity="0.8"></rect><rect x="426.21559999999994" y="183" width="27.946635294117648" height="51" fill="#34983f" opacity="0.8"></rect><rect x="461.148894117647" y="160.4" width="27.946635294117648" height="54.5" fill="#34983f" opacity="0.8"></rect><rect x="496.08218823529404" y="168.3" width="27.946635294117648" height="53.5" fill="#34983f" opacity="0.8"></rect><rect x="531.0154823529411" y="231.2" width="27.946635294117648" height="46.900000000000034" fill="#34983f" opacity="0.8"></rect><rect x="565.9487764705882" y="284.6" width="27.946635294117648" height="43.39999999999998" fill="#34983f" opacity="0.8"></rect><rect x="600.8820705882353" y="361.6" width="27.946635294117648" height="28.299999999999955" fill="#34983f" opacity="0.8"></rect><rect x="635.8153647058823" y="479.7" width="27.946635294117648" height="9.199999999999989" fill="#34983f" opacity="0.8"></rect></g><g class="World_5-segments"><rect x="76.88265882352941" y="471.8" width="27.946635294117648" height="5.5" fill="#3360a9" opacity="0.8"></rect><rect x="111.81595294117648" y="468.5" width="27.946635294117648" height="4.899999999999977" fill="#3360a9" opacity="0.8"></rect><rect x="146.74924705882353" y="461.5" width="27.946635294117648" height="5.899999999999977" fill="#3360a9" opacity="0.8"></rect><rect x="181.68254117647058" y="455.5" width="27.946635294117648" height="6.5" fill="#3360a9" opacity="0.8"></rect><rect x="216.61583529411763" y="448.3" width="27.946635294117648" height="7.399999999999977" fill="#3360a9" opacity="0.8"></rect><rect x="251.54912941176468" y="435.9" width="27.946635294117648" height="7.600000000000023" fill="#3360a9" opacity="0.8"></rect><rect x="286.48242352941173" y="406.3" width="27.946635294117648" height="9.699999999999989" fill="#3360a9" opacity="0.8"></rect><rect x="321.4157176470588" y="358.1" width="27.946635294117648" height="12.399999999999977" fill="#3360a9" opacity="0.8"></rect><rect x="356.34901176470584" y="295.3" width="27.946635294117648" height="15.5" fill="#3360a9" opacity="0.8"></rect><rect x="391.2823058823529" y="217.6" width="27.946635294117648" height="19.700000000000017" fill="#3360a9" opacity="0.8"></rect><rect x="426.21559999999994" y="162.4" width="27.946635294117648" height="20.599999999999994" fill="#3360a9" opacity="0.8"></rect><rect x="461.148894117647" y="137.1" width="27.946635294117648" height="23.30000000000001" fill="#3360a9" opacity="0.8"></rect><rect x="496.08218823529404" y="145" width="27.946635294117648" height="23.30000000000001" fill="#3360a9" opacity="0.8"></rect><rect x="531.0154823529411" y="211.5" width="27.946635294117648" height="19.69999999999999" fill="#3360a9" opacity="0.8"></rect><rect x="565.9487764705882" y="265.3" width="27.946635294117648" height="19.30000000000001" fill="#3360a9" opacity="0.8"></rect><rect x="600.8820705882353" y="347.5" width="27.946635294117648" height="14.100000000000023" fill="#3360a9" opacity="0.8"></rect><rect x="635.8153647058823" y="475.3" width="27.946635294117648" height="4.399999999999977" fill="#3360a9" opacity="0.8"></rect></g><g class="World_4-segments"><rect x="76.88265882352941" y="471" width="27.946635294117648" height="0.8000000000000114" fill="#e6332e" opacity="0.8"></rect><rect x="111.81595294117648" y="467.3" width="27.946635294117648" height="1.1999999999999886" fill="#e6332e" opacity="0.8"></rect><rect x="146.74924705882353" y="460.1" width="27.946635294117648" height="1.3999999999999773" fill="#e6332e" opacity="0.8"></rect><rect x="181.68254117647058" y="454" width="27.946635294117648" height="1.5" fill="#e6332e" opacity="0.8"></rect><rect x="216.61583529411763" y="446.7" width="27.946635294117648" height="1.6000000000000227" fill="#e6332e" opacity="0.8"></rect><rect x="251.54912941176468" y="434.4" width="27.946635294117648" height="1.5" fill="#e6332e" opacity="0.8"></rect><rect x="286.48242352941173" y="404.2" width="27.946635294117648" height="2.1000000000000227" fill="#e6332e" opacity="0.8"></rect><rect x="321.4157176470588" y="355.1" width="27.946635294117648" height="3" fill="#e6332e" opacity="0.8"></rect><rect x="356.34901176470584" y="291.8" width="27.946635294117648" height="3.5" fill="#e6332e" opacity="0.8"></rect><rect x="391.2823058823529" y="212.2" width="27.946635294117648" height="5.400000000000006" fill="#e6332e" opacity="0.8"></rect><rect x="426.21559999999994" y="158" width="27.946635294117648" height="4.400000000000006" fill="#e6332e" opacity="0.8"></rect><rect x="461.148894117647" y="132.1" width="27.946635294117648" height="5" fill="#e6332e" opacity="0.8"></rect><rect x="496.08218823529404" y="140" width="27.946635294117648" height="5" fill="#e6332e" opacity="0.8"></rect><rect x="531.0154823529411" y="207" width="27.946635294117648" height="4.5" fill="#e6332e" opacity="0.8"></rect><rect x="565.9487764705882" y="261.3" width="27.946635294117648" height="4" fill="#e6332e" opacity="0.8"></rect><rect x="600.8820705882353" y="345.3" width="27.946635294117648" height="2.1999999999999886" fill="#e6332e" opacity="0.8"></rect><rect x="635.8153647058823" y="474.3" width="27.946635294117648" height="1" fill="#e6332e" opacity="0.8"></rect></g><g class="World_6-segments"><rect x="76.88265882352941" y="469.6" width="27.946635294117648" height="1.3999999999999773" fill="#7ec7ce" opacity="0.8"></rect><rect x="111.81595294117648" y="465.7" width="27.946635294117648" height="1.6000000000000227" fill="#7ec7ce" opacity="0.8"></rect><rect x="146.74924705882353" y="458.6" width="27.946635294117648" height="1.5" fill="#7ec7ce" opacity="0.8"></rect><rect x="181.68254117647058" y="452.5" width="27.946635294117648" height="1.5" fill="#7ec7ce" opacity="0.8"></rect><rect x="216.61583529411763" y="443.6" width="27.946635294117648" height="3.099999999999966" fill="#7ec7ce" opacity="0.8"></rect><rect x="251.54912941176468" y="431" width="27.946635294117648" height="3.3999999999999773" fill="#7ec7ce" opacity="0.8"></rect><rect x="286.48242352941173" y="400.1" width="27.946635294117648" height="4.099999999999966" fill="#7ec7ce" opacity="0.8"></rect><rect x="321.4157176470588" y="349.5" width="27.946635294117648" height="5.600000000000023" fill="#7ec7ce" opacity="0.8"></rect><rect x="356.34901176470584" y="285.3" width="27.946635294117648" height="6.5" fill="#7ec7ce" opacity="0.8"></rect><rect x="391.2823058823529" y="203.2" width="27.946635294117648" height="9" fill="#7ec7ce" opacity="0.8"></rect><rect x="426.21559999999994" y="148.8" width="27.946635294117648" height="9.199999999999989" fill="#7ec7ce" opacity="0.8"></rect><rect x="461.148894117647" y="123.7" width="27.946635294117648" height="8.399999999999991" fill="#7ec7ce" opacity="0.8"></rect><rect x="496.08218823529404" y="131.5" width="27.946635294117648" height="8.5" fill="#7ec7ce" opacity="0.8"></rect><rect x="531.0154823529411" y="198.8" width="27.946635294117648" height="8.199999999999989" fill="#7ec7ce" opacity="0.8"></rect><rect x="565.9487764705882" y="253.4" width="27.946635294117648" height="7.900000000000006" fill="#7ec7ce" opacity="0.8"></rect><rect x="600.8820705882353" y="340.3" width="27.946635294117648" height="5" fill="#7ec7ce" opacity="0.8"></rect><rect x="635.8153647058823" y="472.7" width="27.946635294117648" height="1.6000000000000227" fill="#7ec7ce" opacity="0.8"></rect></g><g class="World_7-segments"><rect x="76.88265882352941" y="469.4" width="27.946635294117648" height="0.20000000000004547" fill="#818282" opacity="0.8"></rect><rect x="111.81595294117648" y="465.7" width="27.946635294117648" height="0" fill="#818282" opacity="0.8"></rect><rect x="146.74924705882353" y="458.5" width="27.946635294117648" height="0.10000000000002274" fill="#818282" opacity="0.8"></rect><rect x="181.68254117647058" y="452.4" width="27.946635294117648" height="0.10000000000002274" fill="#818282" opacity="0.8"></rect><rect x="216.61583529411763" y="443.4" width="27.946635294117648" height="0.20000000000004547" fill="#818282" opacity="0.8"></rect><rect x="251.54912941176468" y="431" width="27.946635294117648" height="0" fill="#818282" opacity="0.8"></rect><rect x="286.48242352941173" y="400" width="27.946635294117648" height="0.10000000000002274" fill="#818282" opacity="0.8"></rect><rect x="321.4157176470588" y="349.1" width="27.946635294117648" height="0.39999999999997726" fill="#818282" opacity="0.8"></rect><rect x="356.34901176470584" y="285" width="27.946635294117648" height="0.30000000000001137" fill="#818282" opacity="0.8"></rect><rect x="391.2823058823529" y="202.8" width="27.946635294117648" height="0.39999999999997726" fill="#818282" opacity="0.8"></rect><rect x="426.21559999999994" y="148.3" width="27.946635294117648" height="0.5" fill="#818282" opacity="0.8"></rect><rect x="461.148894117647" y="123.1" width="27.946635294117648" height="0.6000000000000085" fill="#818282" opacity="0.8"></rect><rect x="496.08218823529404" y="130.7" width="27.946635294117648" height="0.8000000000000114" fill="#818282" opacity="0.8"></rect><rect x="531.0154823529411" y="197.8" width="27.946635294117648" height="1" fill="#818282" opacity="0.8"></rect><rect x="565.9487764705882" y="252.2" width="27.946635294117648" height="1.200000000000017" fill="#818282" opacity="0.8"></rect><rect x="600.8820705882353" y="338.4" width="27.946635294117648" height="1.900000000000034" fill="#818282" opacity="0.8"></rect><rect x="635.8153647058823" y="472" width="27.946635294117648" height="0.6999999999999886" fill="#818282" opacity="0.8"></rect></g></g><g class="ScatterColorLegend clickable" style="cursor:pointer"><g class="legendMark"><rect x="683.762" y="120.6" width="42.626000000000005" height="17.6" fill="#fff" opacity="0"></rect>,<rect x="683.762" y="126.1" width="6" height="6" fill="#818282"></rect>,<text font-size="12.60" x="694.8" y="133.2"><tspan x="694.762" y="133.17999999999998">Other</tspan></text></g><g class="legendMark"><rect x="683.762" y="138.2" width="49.556" height="17.6" fill="#fff" opacity="0"></rect>,<rect x="683.762" y="143.7" width="6" height="6" fill="#7ec7ce"></rect>,<text font-size="12.60" x="694.8" y="150.8"><tspan x="694.762" y="150.77999999999997">Marine</tspan></text></g><g class="legendMark"><rect x="683.762" y="155.8" width="77.024" height="17.6" fill="#fff" opacity="0"></rect>,<rect x="683.762" y="161.3" width="6" height="6" fill="#e6332e"></rect>,<text font-size="12.60" x="694.8" y="168.4"><tspan x="694.762" y="168.38">Geothermal</tspan></text></g><g class="legendMark"><rect x="683.762" y="173.4" width="79.04" height="17.6" fill="#fff" opacity="0"></rect>,<rect x="683.762" y="178.9" width="6" height="6" fill="#3360a9"></rect>,<text font-size="12.60" x="694.8" y="186.0"><tspan x="694.762" y="185.98">Hydropower</tspan></text></g><g class="legendMark"><rect x="683.762" y="191" width="67.952" height="17.6" fill="#fff" opacity="0"></rect>,<rect x="683.762" y="196.5" width="6" height="6" fill="#34983f"></rect>,<text font-size="12.60" x="694.8" y="203.6"><tspan x="694.762" y="203.57999999999998">Bioenergy</tspan></text></g><g class="legendMark"><rect x="683.762" y="208.6" width="39.728" height="17.6" fill="#fff" opacity="0"></rect>,<rect x="683.762" y="214.1" width="6" height="6" fill="#ca2628"></rect>,<text font-size="12.60" x="694.8" y="221.2"><tspan x="694.762" y="221.17999999999998">Wind</tspan></text></g><g class="legendMark"><rect x="683.762" y="226.2" width="151.238" height="17.6" fill="#fff" opacity="0"></rect>,<rect x="683.762" y="231.7" width="6" height="6" fill="#fceb8c"></rect>,<text font-size="12.60" x="694.8" y="238.8"><tspan x="694.762" y="238.77999999999997">Solar PV-Thermal Hybrid</tspan></text></g><g class="legendMark"><rect x="683.762" y="243.79999999999998" width="90.254" height="17.6" fill="#fff" opacity="0"></rect>,<rect x="683.762" y="249.29999999999998" width="6" height="6" fill="#f6a324"></rect>,<text font-size="12.60" x="694.8" y="256.4"><tspan x="694.762" y="256.38">Solar Thermal</tspan></text></g><g class="legendMark"><rect x="683.762" y="261.4" width="60.896" height="17.6" fill="#fff" opacity="0"></rect>,<rect x="683.762" y="266.9" width="6" height="6" fill="#ffd53e"></rect>,<text font-size="12.60" x="694.8" y="274.0"><tspan x="694.762" y="273.98">Solar PV</tspan></text></g></g></g><g class="SourcesFooter" style="fill:#777"><g class="clickable" style="fill:#777"><text font-size="12.60" x="15.0" y="581.6"><tspan x="15" y="581.58">Source: IRENA (&amp; EPO PATSTAT)</tspan></text></g><text font-size="12.60" x="775.4" y="581.6"><tspan x="775.402" y="581.58"><a style="fill: #777;" class="cclogo" href="http://creativecommons.org/licenses/by-sa/4.0/deed.en_US" target="_blank">CC BY-SA</a></tspan></text></g></g></svg>