<svg xmlns="http://www.w3.org/2000/svg" version="1.1" style="font-family:&#x27;Helvetica Neue&#x27;, Helvetica, Arial, sans-serif;font-size:18px;background-color:white;text-rendering:optimizeLegibility;-webkit-font-smoothing:antialiased" width="850" height="600"><g class="ChartTab"><g class="HeaderView"><g opacity="0.8" transform="translate(778, 15) scale(0.27)"><a xmlns:xlink="http://www.w3.org/1999/xlink" xlink:href="https://ourworldindata.org" target="_blank"><g><rect x="0" y="0" fill="#1B2543" width="211.2" height="130.1"/><rect x="0" y="112.2" fill="#E63912" width="211.2" height="17.9"/><g><rect x="1.2" y="12.3" fill="none" width="210.2" height="99.2"/><path fill="#FFFFFF" d="M37.8,32.2c0,12.7-7.7,19.4-17.1,19.4c-9.7,0-16.6-7.5-16.6-18.7c0-11.7,7.3-19.3,17.1-19.3 C31.3,13.7,37.8,21.3,37.8,32.2z M9.2,32.8c0,7.9,4.3,14.9,11.8,14.9c7.5,0,11.8-6.9,11.8-15.3c0-7.3-3.8-14.9-11.8-14.9 C13.1,17.5,9.2,24.8,9.2,32.8z"/><path fill="#FFFFFF" d="M62.7,43.8c0,2.7,0.1,5.1,0.2,7.2h-4.3l-0.3-4.3h-0.1c-1.3,2.1-4,4.9-8.8,4.9c-4.2,0-9.1-2.3-9.1-11.6 V24.6h4.8v14.6c0,5,1.5,8.4,5.9,8.4c3.2,0,5.5-2.2,6.3-4.4c0.3-0.7,0.4-1.6,0.4-2.5V24.6h4.8V43.8z"/><path fill="#FFFFFF" d="M67.3,32.8c0-3.1-0.1-5.8-0.2-8.2h4.2l0.2,5.2h0.2c1.2-3.5,4.1-5.8,7.3-5.8c0.5,0,0.9,0.1,1.4,0.2v4.5 c-0.5-0.1-1-0.2-1.6-0.2c-3.4,0-5.8,2.6-6.5,6.2c-0.1,0.7-0.2,1.4-0.2,2.2V51h-4.8V32.8z"/><path fill="#FFFFFF" d="M95.4,51l-9.4-36.8h5l4.4,18.6c1.1,4.6,2.1,9.2,2.7,12.7h0.1c0.6-3.7,1.8-8,3-12.8l4.9-18.5h5l4.5,18.7 c1,4.4,2,8.7,2.6,12.6h0.1c0.8-4,1.8-8.1,3-12.7l4.9-18.5h4.9L120.6,51h-5L111,31.9c-1.1-4.7-1.9-8.3-2.4-12h-0.1 c-0.7,3.7-1.5,7.3-2.8,12L100.4,51H95.4z"/><path fill="#FFFFFF" d="M154.9,37.6c0,9.8-6.8,14-13.2,14c-7.2,0-12.7-5.2-12.7-13.6c0-8.8,5.8-14,13.1-14 C149.8,24,154.9,29.5,154.9,37.6z M133.9,37.9c0,5.8,3.3,10.1,8,10.1c4.6,0,8-4.3,8-10.3c0-4.5-2.2-10.1-7.9-10.1 C136.3,27.6,133.9,32.8,133.9,37.9z"/><path fill="#FFFFFF" d="M158.2,32.8c0-3.1-0.1-5.8-0.2-8.2h4.2l0.2,5.2h0.2c1.2-3.5,4.1-5.8,7.3-5.8c0.5,0,0.9,0.1,1.4,0.2v4.5 c-0.5-0.1-1-0.2-1.6-0.2c-3.4,0-5.8,2.6-6.5,6.2c-0.1,0.7-0.2,1.4-0.2,2.2V51h-4.8V32.8z"/><path fill="#FFFFFF" d="M173.5,12.3h4.8V51h-4.8V12.3z"/><path fill="#FFFFFF" d="M206.5,12.3v31.9c0,2.3,0.1,5,0.2,6.8h-4.3l-0.2-4.6H202c-1.5,2.9-4.7,5.2-9,5.2 c-6.4,0-11.3-5.4-11.3-13.4c-0.1-8.8,5.4-14.2,11.9-14.2c4,0,6.8,1.9,8,4h0.1V12.3H206.5z M201.7,35.4c0-0.6-0.1-1.4-0.2-2 c-0.7-3.1-3.3-5.6-6.9-5.6c-5,0-7.9,4.4-7.9,10.2c0,5.3,2.6,9.8,7.8,9.8c3.2,0,6.2-2.1,7.1-5.7c0.2-0.7,0.2-1.3,0.2-2.1V35.4z"/><path fill="#FFFFFF" d="M42.8,64c0.1,1.6-1.1,2.9-3.1,2.9c-1.7,0-2.9-1.3-2.9-2.9c0-1.7,1.3-3,3-3C41.7,61,42.8,62.3,42.8,64z M37.4,97.8V71.4h4.8v26.4H37.4z"/><path fill="#FFFFFF" d="M47.5,78.6c0-2.7-0.1-5-0.2-7.1h4.3l0.3,4.4h0.1c1.3-2.5,4.4-5,8.8-5c3.7,0,9.4,2.2,9.4,11.2v15.8h-4.8 V82.6c0-4.3-1.6-7.8-6.1-7.8c-3.2,0-5.6,2.2-6.5,4.9c-0.2,0.6-0.3,1.4-0.3,2.2v15.9h-4.8V78.6z"/><path fill="#FFFFFF" d="M84,61.6c2.9-0.4,6.3-0.8,10.1-0.8c6.8,0,11.7,1.6,14.9,4.6c3.3,3,5.2,7.3,5.2,13.2c0,6-1.9,10.9-5.3,14.3 c-3.4,3.4-9.1,5.3-16.3,5.3c-3.4,0-6.2-0.2-8.6-0.4V61.6z M88.8,94.1c1.2,0.2,3,0.3,4.8,0.3c10.2,0,15.7-5.7,15.7-15.6 c0.1-8.7-4.9-14.2-14.9-14.2c-2.5,0-4.3,0.2-5.6,0.5V94.1z"/><path fill="#FFFFFF" d="M132.1,97.8l-0.4-3.3h-0.2c-1.5,2.1-4.3,3.9-8.1,3.9c-5.4,0-8.1-3.8-8.1-7.6c0-6.4,5.7-9.9,15.9-9.8v-0.5 c0-2.2-0.6-6.1-6-6.1c-2.5,0-5,0.8-6.9,2l-1.1-3.2c2.2-1.4,5.4-2.3,8.7-2.3c8.1,0,10.1,5.5,10.1,10.8v9.9c0,2.3,0.1,4.5,0.4,6.3 H132.1z M131.4,84.4c-5.3-0.1-11.2,0.8-11.2,5.9c0,3.1,2.1,4.6,4.5,4.6c3.4,0,5.6-2.2,6.4-4.4c0.2-0.5,0.3-1,0.3-1.5V84.4z"/><path fill="#FFFFFF" d="M146.6,63.9v7.6h6.9v3.7h-6.9v14.2c0,3.3,0.9,5.1,3.6,5.1c1.3,0,2.2-0.2,2.8-0.3l0.2,3.6 c-0.9,0.4-2.4,0.7-4.3,0.7c-2.2,0-4-0.7-5.2-2c-1.4-1.4-1.9-3.8-1.9-6.9V75.1h-4.1v-3.7h4.1v-6.3L146.6,63.9z"/><path fill="#FFFFFF" d="M171.4,97.8l-0.4-3.3h-0.2c-1.5,2.1-4.3,3.9-8.1,3.9c-5.4,0-8.1-3.8-8.1-7.6c0-6.4,5.7-9.9,15.9-9.8v-0.5 c0-2.2-0.6-6.1-6-6.1c-2.5,0-5,0.8-6.9,2l-1.1-3.2c2.2-1.4,5.4-2.3,8.7-2.3c8.1,0,10.1,5.5,10.1,10.8v9.9c0,2.3,0.1,4.5,0.4,6.3 H171.4z M170.7,84.4c-5.3-0.1-11.2,0.8-11.2,5.9c0,3.1,2.1,4.6,4.5,4.6c3.4,0,5.6-2.2,6.4-4.4c0.2-0.5,0.3-1,0.3-1.5V84.4z"/></g></g></a></g><a href="https://ourworldindata.org/grapher/number-of-people-infected-with-hiv-by-region" target="_blank"><text font-size="25.20" x="15.0" y="35.2" fill="#555"><tspan x="15" y="35.160000000000004">Number of people infected with HIV by region</tspan></text></a><text font-size="14.40" x="15.0" y="53.7" fill="#666"><tspan x="15" y="53.72">Total number of people infected with HIV/AIDS, broken down by region.</tspan></text></g><g class="StackedArea"><defs><clipPath id="boundsClip-423"><rect x="88.526" y="0" width="820" height="959.8"></rect></clipPath></defs><g class="AxisBoxView"><g class="HorizontalAxis"><text x="88.5" y="556.5" fill="#666" text-anchor="middle" font-size="16.2">1990</text><text x="204.3" y="556.5" fill="#666" text-anchor="middle" font-size="16.2">1995</text><text x="320.2" y="556.5" fill="#666" text-anchor="middle" font-size="16.2">2000</text><text x="436" y="556.5" fill="#666" text-anchor="middle" font-size="16.2">2005</text><text x="551.8" y="556.5" fill="#666" text-anchor="middle" font-size="16.2">2010</text><text x="690.8" y="556.5" fill="#666" text-anchor="middle" font-size="16.2">2016</text></g><g class="VerticalAxis"><text x="83.53" y="535.3" fill="#666" dominant-baseline="middle" text-anchor="end" font-size="16.2">0</text><text x="83.53" y="471.7" fill="#666" dominant-baseline="middle" text-anchor="end" font-size="16.2">5 million</text><text x="83.53" y="408" fill="#666" dominant-baseline="middle" text-anchor="end" font-size="16.2">10 million</text><text x="83.53" y="344.4" fill="#666" dominant-baseline="middle" text-anchor="end" font-size="16.2">15 million</text><text x="83.53" y="280.7" fill="#666" dominant-baseline="middle" text-anchor="end" font-size="16.2">20 million</text><text x="83.53" y="217.1" fill="#666" dominant-baseline="middle" text-anchor="end" font-size="16.2">25 million</text><text x="83.53" y="153.5" fill="#666" dominant-baseline="middle" text-anchor="end" font-size="16.2">30 million</text><text x="83.53" y="89.8" fill="#666" dominant-baseline="middle" text-anchor="end" font-size="16.2">35 million</text></g><g class="AxisGridLines"><line x1="88.53" y1="535.3" x2="690.78" y2="535.3" stroke="#ccc"></line><line x1="88.53" y1="471.7" x2="690.78" y2="471.7" stroke="#ddd" stroke-dasharray="3,2"></line><line x1="88.53" y1="408" x2="690.78" y2="408" stroke="#ddd" stroke-dasharray="3,2"></line><line x1="88.53" y1="344.4" x2="690.78" y2="344.4" stroke="#ddd" stroke-dasharray="3,2"></line><line x1="88.53" y1="280.7" x2="690.78" y2="280.7" stroke="#ddd" stroke-dasharray="3,2"></line><line x1="88.53" y1="217.1" x2="690.78" y2="217.1" stroke="#ddd" stroke-dasharray="3,2"></line><line x1="88.53" y1="153.5" x2="690.78" y2="153.5" stroke="#ddd" stroke-dasharray="3,2"></line><line x1="88.53" y1="89.8" x2="690.78" y2="89.8" stroke="#ddd" stroke-dasharray="3,2"></line></g></g><g clip-path="url(#boundsClip-423)"><g class="HeightedLegend clickable"><g class="legendMark"><g class="indicator"><line x1="695.785" y1="76.8" x2="717.3759090909091" y2="76.8" stroke="#666" stroke-width="0.5"></line><line x1="717.3759090909091" y1="76.8" x2="717.3759090909091" y2="76.8" stroke="#666" stroke-width="0.5"></line><line x1="717.3759090909091" y1="76.8" x2="720.785" y2="76.8" stroke="#666" stroke-width="0.5"></line></g><rect x="690.785" y="70.05" width="126.125" height="13.5" fill="#fff" opacity="0"></rect><text font-size="13.50" x="725.8" y="80.8" fill="#98df8a"><tspan x="725.785" y="80.85">Central Europe</tspan></text></g><g class="legendMark"><g class="indicator"><line x1="695.785" y1="77.1" x2="715.5577272727272" y2="77.1" stroke="#666" stroke-width="0.5"></line><line x1="715.5577272727272" y1="77.1" x2="715.5577272727272" y2="92.3" stroke="#666" stroke-width="0.5"></line><line x1="715.5577272727272" y1="92.3" x2="720.785" y2="92.3" stroke="#666" stroke-width="0.5"></line></g><rect x="690.785" y="85.55" width="85.49000000000001" height="13.5" fill="#fff" opacity="0"></rect><text font-size="13.50" x="725.8" y="96.3" fill="#2ca02c"><tspan x="725.785" y="96.35">Oceania</tspan></text></g><g class="legendMark"><g class="indicator"><line x1="695.785" y1="77.6" x2="713.7395454545455" y2="77.6" stroke="#666" stroke-width="0.5"></line><line x1="713.7395454545455" y1="77.6" x2="713.7395454545455" y2="107.8" stroke="#666" stroke-width="0.5"></line><line x1="713.7395454545455" y1="107.8" x2="720.785" y2="107.8" stroke="#666" stroke-width="0.5"></line></g><rect x="690.785" y="101.05" width="108.71000000000001" height="13.5" fill="#fff" opacity="0"></rect><text font-size="13.50" x="725.8" y="111.8" fill="#ffbb78"><tspan x="725.785" y="111.85">Central Asia</tspan></text></g><g class="legendMark"><g class="indicator"><line x1="695.785" y1="78.6" x2="711.9213636363636" y2="78.6" stroke="#666" stroke-width="0.5"></line><line x1="711.9213636363636" y1="78.6" x2="711.9213636363636" y2="130.6" stroke="#666" stroke-width="0.5"></line><line x1="711.9213636363636" y1="130.6" x2="720.785" y2="130.6" stroke="#666" stroke-width="0.5"></line></g><rect x="690.785" y="116.55" width="132.875" height="28.1" fill="#fff" opacity="0"></rect><text font-size="13.50" x="725.8" y="127.4" fill="#1f77b4"><tspan x="725.785" y="127.35000000000001">North Africa and</tspan><tspan x="725.785" y="142.20000000000002">Middle East</tspan></text></g><g class="legendMark"><g class="indicator"><line x1="695.785" y1="83" x2="710.1031818181818" y2="83" stroke="#666" stroke-width="0.5"></line><line x1="710.1031818181818" y1="83" x2="710.1031818181818" y2="153.4" stroke="#666" stroke-width="0.5"></line><line x1="710.1031818181818" y1="153.4" x2="720.785" y2="153.4" stroke="#666" stroke-width="0.5"></line></g><rect x="690.785" y="146.65" width="129.23000000000002" height="13.5" fill="#fff" opacity="0"></rect><text font-size="13.50" x="725.8" y="157.5" fill="#ff7f0e"><tspan x="725.785" y="157.45000000000002">Eastern Europe</tspan></text></g><g class="legendMark"><g class="indicator"><line x1="695.785" y1="91.1" x2="708.285" y2="91.1" stroke="#666" stroke-width="0.5"></line><line x1="708.285" y1="91.1" x2="708.285" y2="168.9" stroke="#666" stroke-width="0.5"></line><line x1="708.285" y1="168.9" x2="720.785" y2="168.9" stroke="#666" stroke-width="0.5"></line></g><rect x="690.785" y="162.15" width="92.24000000000001" height="13.5" fill="#fff" opacity="0"></rect><text font-size="13.50" x="725.8" y="173.0" fill="#69c487"><tspan x="725.785" y="172.95000000000002">East Asia</tspan></text></g><g class="legendMark"><g class="indicator"><line x1="695.785" y1="103.8" x2="706.4668181818181" y2="103.8" stroke="#666" stroke-width="0.5"></line><line x1="706.4668181818181" y1="103.8" x2="706.4668181818181" y2="184.4" stroke="#666" stroke-width="0.5"></line><line x1="706.4668181818181" y1="184.4" x2="720.785" y2="184.4" stroke="#666" stroke-width="0.5"></line></g><rect x="690.785" y="177.65" width="132.875" height="13.5" fill="#fff" opacity="0"></rect><text font-size="13.50" x="725.8" y="188.5" fill="#a652ba"><tspan x="725.785" y="188.45000000000002">Western Europe</tspan></text></g><g class="legendMark"><g class="indicator"><line x1="695.785" y1="120.8" x2="704.6486363636363" y2="120.8" stroke="#666" stroke-width="0.5"></line><line x1="704.6486363636363" y1="120.8" x2="704.6486363636363" y2="207.20000000000002" stroke="#666" stroke-width="0.5"></line><line x1="704.6486363636363" y1="207.20000000000002" x2="720.785" y2="207.20000000000002" stroke="#666" stroke-width="0.5"></line></g><rect x="690.785" y="193.15" width="144.215" height="28.1" fill="#fff" opacity="0"></rect><text font-size="13.50" x="725.8" y="204.0" fill="#4d824b"><tspan x="725.785" y="203.95000000000002">Latin America and</tspan><tspan x="725.785" y="218.8">Caribbean</tspan></text></g><g class="legendMark"><g class="indicator"><line x1="695.785" y1="140.1" x2="702.8304545454545" y2="140.1" stroke="#666" stroke-width="0.5"></line><line x1="702.8304545454545" y1="140.1" x2="702.8304545454545" y2="230" stroke="#666" stroke-width="0.5"></line><line x1="702.8304545454545" y1="230" x2="720.785" y2="230" stroke="#666" stroke-width="0.5"></line></g><rect x="690.785" y="223.25" width="126.26" height="13.5" fill="#fff" opacity="0"></rect><text font-size="13.50" x="725.8" y="234.1" fill="#ffd336"><tspan x="725.785" y="234.05">Southeast Asia</tspan></text></g><g class="legendMark"><g class="indicator"><line x1="695.785" y1="162.6" x2="701.0122727272727" y2="162.6" stroke="#666" stroke-width="0.5"></line><line x1="701.0122727272727" y1="162.6" x2="701.0122727272727" y2="245.5" stroke="#666" stroke-width="0.5"></line><line x1="701.0122727272727" y1="245.5" x2="720.785" y2="245.5" stroke="#666" stroke-width="0.5"></line></g><rect x="690.785" y="238.75" width="121.4" height="13.5" fill="#fff" opacity="0"></rect><text font-size="13.50" x="725.8" y="249.6" fill="#d14e5b"><tspan x="725.785" y="249.55">North America</tspan></text></g><g class="legendMark"><g class="indicator"><line x1="695.785" y1="189.7" x2="699.1940909090908" y2="189.7" stroke="#666" stroke-width="0.5"></line><line x1="699.1940909090908" y1="189.7" x2="699.1940909090908" y2="261" stroke="#666" stroke-width="0.5"></line><line x1="699.1940909090908" y1="261" x2="720.785" y2="261" stroke="#666" stroke-width="0.5"></line></g><rect x="690.785" y="254.25" width="100.61" height="13.5" fill="#fff" opacity="0"></rect><text font-size="13.50" x="725.8" y="265.1" fill="#aec7e8"><tspan x="725.785" y="265.05">South Asia</tspan></text></g><g class="legendMark"><g class="indicator"><line x1="695.785" y1="370" x2="708.285" y2="370" stroke="#666" stroke-width="0.5"></line><line x1="708.285" y1="370" x2="708.285" y2="370" stroke="#666" stroke-width="0.5"></line><line x1="708.285" y1="370" x2="720.785" y2="370" stroke="#666" stroke-width="0.5"></line></g><rect x="690.785" y="355.95" width="114.92" height="28.1" fill="#fff" opacity="0"></rect><text font-size="13.50" x="725.8" y="366.8" fill="#5675c1"><tspan x="725.785" y="366.75">Sub-Saharan</tspan><tspan x="725.785" y="381.6">Africa</tspan></text></g></g><g class="Areas"><rect x="88.526" y="76.6" width="602.259" height="458.69999999999993" opacity="0" fill="rgba(255,255,255,0)"></rect><path class="Sub__002dSaharan-Africa_0-area" stroke-linecap="round" d="M88.5 457.5L111.7 446.4L134.9 432.3L158 414.3L181.2 390.9L204.3 357.1L227.5 347.2L250.7 334.4L273.8 318.6L297 299.1L320.2 272.3L343.3 271L366.5 268.2L389.7 264.1L412.8 258.5L436 245.5L459.1 252.4L482.3 256.7L505.5 257.4L528.6 252.9L551.8 234.6L575 243.9L598.1 247.2L621.3 245.4L644.5 238.3L667.6 225.3L690.8 204.7L690.785 535.3L88.526 535.3" fill="#5675c1" fill-opacity="0.7"></path><path class="South-Asia_0-area" stroke-linecap="round" d="M88.5 456.2L111.7 444.6L134.9 429.6L158 410L181.2 384.1L204.3 345.8L227.5 333.9L250.7 318.3L273.8 299.1L297 275.2L320.2 242.2L343.3 240.8L366.5 237.6L389.7 232.8L412.8 226.3L436 211L459.1 220.1L482.3 225.9L505.5 227.6L528.6 223.7L551.8 203.7L575 215L598.1 219.3L621.3 218L644.5 210.8L667.6 197.2L690.8 174.6L690.8 204.7L667.6 225.3L644.5 238.3L621.3 245.4L598.1 247.2L575 243.9L551.8 234.6L528.6 252.9L505.5 257.4L482.3 256.7L459.1 252.4L436 245.5L412.8 258.5L389.7 264.1L366.5 268.2L343.3 271L320.2 272.3L297 299.1L273.8 318.6L250.7 334.4L227.5 347.2L204.3 357.1L181.2 390.9L158 414.3L134.9 432.3L111.7 446.4L88.5 457.5" fill="#aec7e8" fill-opacity="0.7"></path><path class="North-America_0-area" stroke-linecap="round" d="M88.5 444.8L111.7 432.9L134.9 417.6L158 397.7L181.2 371.2L204.3 332.3L227.5 322.6L250.7 308.8L273.8 291.1L297 268.4L320.2 226.7L343.3 225L366.5 221.4L389.7 216L412.8 208.8L436 192.4L459.1 201.1L482.3 206.5L505.5 207.7L528.6 203L551.8 182.2L575 193.3L598.1 197.4L621.3 195.7L644.5 188.1L667.6 173.9L690.8 150.6L690.8 174.6L667.6 197.2L644.5 210.8L621.3 218L598.1 219.3L575 215L551.8 203.7L528.6 223.7L505.5 227.6L482.3 225.9L459.1 220.1L436 211L412.8 226.3L389.7 232.8L366.5 237.6L343.3 240.8L320.2 242.2L297 275.2L273.8 299.1L250.7 318.3L227.5 333.9L204.3 345.8L181.2 384.1L158 410L134.9 429.6L111.7 444.6L88.5 456.2" fill="#d14e5b" fill-opacity="0.7"></path><path class="Southeast-Asia_0-area" stroke-linecap="round" d="M88.5 443.6L111.7 431.5L134.9 415.5L158 394.7L181.2 366.7L204.3 325L227.5 314.9L250.7 300.7L273.8 282.4L297 259L320.2 215.4L343.3 213.9L366.5 210.3L389.7 204.8L412.8 197.2L436 177.2L459.1 185.9L482.3 191.1L505.5 191.9L528.6 186.7L551.8 164.2L575 175.5L598.1 179.5L621.3 177.6L644.5 169.5L667.6 154.6L690.8 129.5L690.8 150.6L667.6 173.9L644.5 188.1L621.3 195.7L598.1 197.4L575 193.3L551.8 182.2L528.6 203L505.5 207.7L482.3 206.5L459.1 201.1L436 192.4L412.8 208.8L389.7 216L366.5 221.4L343.3 225L320.2 226.7L297 268.4L273.8 291.1L250.7 308.8L227.5 322.6L204.3 332.3L181.2 371.2L158 397.7L134.9 417.6L111.7 432.9L88.5 444.8" fill="#ffd336" fill-opacity="0.7"></path><path class="Latin-America-and-Caribbean_0-area" stroke-linecap="round" d="M88.5 439.8L111.7 427.2L134.9 410.6L158 389.1L181.2 360.1L204.3 317.1L227.5 306.8L250.7 292.2L273.8 273.4L297 249.5L320.2 204.5L343.3 203.2L366.5 199.5L389.7 193.8L412.8 185.8L436 164.8L459.1 173.7L482.3 178.9L505.5 179.4L528.6 173.6L551.8 150.2L575 161.4L598.1 165.1L621.3 162.7L644.5 154.1L667.6 138.4L690.8 112.2L690.8 129.5L667.6 154.6L644.5 169.5L621.3 177.6L598.1 179.5L575 175.5L551.8 164.2L528.6 186.7L505.5 191.9L482.3 191.1L459.1 185.9L436 177.2L412.8 197.2L389.7 204.8L366.5 210.3L343.3 213.9L320.2 215.4L297 259L273.8 282.4L250.7 300.7L227.5 314.9L204.3 325L181.2 366.7L158 394.7L134.9 415.5L111.7 431.5L88.5 443.6" fill="#4d824b" fill-opacity="0.7"></path><path class="Western-Europe_0-area" stroke-linecap="round" d="M88.5 434.2L111.7 421.3L134.9 404.4L158 382.3L181.2 352.6L204.3 308.5L227.5 299.5L250.7 285.9L273.8 267.9L297 244.5L320.2 193.8L343.3 192.6L366.5 188.7L389.7 182.6L412.8 173.9L436 151.9L459.1 160.7L482.3 165.6L505.5 165.8L528.6 159.6L551.8 135.4L575 146.6L598.1 150.3L621.3 147.7L644.5 138.7L667.6 122.5L690.8 95.5L690.8 112.2L667.6 138.4L644.5 154.1L621.3 162.7L598.1 165.1L575 161.4L551.8 150.2L528.6 173.6L505.5 179.4L482.3 178.9L459.1 173.7L436 164.8L412.8 185.8L389.7 193.8L366.5 199.5L343.3 203.2L320.2 204.5L297 249.5L273.8 273.4L250.7 292.2L227.5 306.8L204.3 317.1L181.2 360.1L158 389.1L134.9 410.6L111.7 427.2L88.5 439.8" fill="#a652ba" fill-opacity="0.7"></path><path class="East-Asia_0-area" stroke-linecap="round" d="M88.5 433.9L111.7 420.9L134.9 403.9L158 381.6L181.2 351.8L204.3 307.5L227.5 298.3L250.7 284.4L273.8 266.1L297 242.5L320.2 191.3L343.3 189.8L366.5 185.5L389.7 179L412.8 169.8L436 146.8L459.1 155.5L482.3 160.3L505.5 160.2L528.6 153.6L551.8 128.1L575 139.2L598.1 142.7L621.3 139.9L644.5 130.7L667.6 114.2L690.8 86.7L690.8 95.5L667.6 122.5L644.5 138.7L621.3 147.7L598.1 150.3L575 146.6L551.8 135.4L528.6 159.6L505.5 165.8L482.3 165.6L459.1 160.7L436 151.9L412.8 173.9L389.7 182.6L366.5 188.7L343.3 192.6L320.2 193.8L297 244.5L273.8 267.9L250.7 285.9L227.5 299.5L204.3 308.5L181.2 352.6L158 382.3L134.9 404.4L111.7 421.3L88.5 434.2" fill="#69c487" fill-opacity="0.7"></path><path class="Eastern-Europe_0-area" stroke-linecap="round" d="M88.5 433.2L111.7 420.3L134.9 403.1L158 380.8L181.2 350.9L204.3 306.3L227.5 297L250.7 282.9L273.8 264.2L297 240.1L320.2 188.1L343.3 186.4L366.5 182L389.7 175.1L412.8 165.7L436 142.1L459.1 151.1L482.3 155.9L505.5 155.8L528.6 148.9L551.8 122.6L575 133.8L598.1 137.2L621.3 134.1L644.5 124.5L667.6 107.5L690.8 79.3L690.8 86.7L667.6 114.2L644.5 130.7L621.3 139.9L598.1 142.7L575 139.2L551.8 128.1L528.6 153.6L505.5 160.2L482.3 160.3L459.1 155.5L436 146.8L412.8 169.8L389.7 179L366.5 185.5L343.3 189.8L320.2 191.3L297 242.5L273.8 266.1L250.7 284.4L227.5 298.3L204.3 307.5L181.2 351.8L158 381.6L134.9 403.9L111.7 420.9L88.5 433.9" fill="#ff7f0e" fill-opacity="0.7"></path><path class="North-Africa-and-Middle-East_0-area" stroke-linecap="round" d="M88.5 432.9L111.7 420L134.9 402.8L158 380.4L181.2 350.4L204.3 305.8L227.5 296.4L250.7 282.3L273.8 263.6L297 239.4L320.2 187.4L343.3 185.7L366.5 181.2L389.7 174.3L412.8 164.8L436 141.2L459.1 150.2L482.3 155L505.5 154.8L528.6 147.9L551.8 121.5L575 132.7L598.1 136.1L621.3 133L644.5 123.3L667.6 106.3L690.8 77.8L690.8 79.3L667.6 107.5L644.5 124.5L621.3 134.1L598.1 137.2L575 133.8L551.8 122.6L528.6 148.9L505.5 155.8L482.3 155.9L459.1 151.1L436 142.1L412.8 165.7L389.7 175.1L366.5 182L343.3 186.4L320.2 188.1L297 240.1L273.8 264.2L250.7 282.9L227.5 297L204.3 306.3L181.2 350.9L158 380.8L134.9 403.1L111.7 420.3L88.5 433.2" fill="#1f77b4" fill-opacity="0.7"></path><path class="Central-Asia_0-area" stroke-linecap="round" d="M88.5 432.9L111.7 419.9L134.9 402.7L158 380.3L181.2 350.3L204.3 305.7L227.5 296.3L250.7 282.1L273.8 263.4L297 239.2L320.2 187.1L343.3 185.4L366.5 180.9L389.7 174L412.8 164.5L436 140.8L459.1 149.8L482.3 154.7L505.5 154.5L528.6 147.5L551.8 121.1L575 132.4L598.1 135.7L621.3 132.6L644.5 122.9L667.6 105.8L690.8 77.3L690.8 77.8L667.6 106.3L644.5 123.3L621.3 133L598.1 136.1L575 132.7L551.8 121.5L528.6 147.9L505.5 154.8L482.3 155L459.1 150.2L436 141.2L412.8 164.8L389.7 174.3L366.5 181.2L343.3 185.7L320.2 187.4L297 239.4L273.8 263.6L250.7 282.3L227.5 296.4L204.3 305.8L181.2 350.4L158 380.4L134.9 402.8L111.7 420L88.5 432.9" fill="#ffbb78" fill-opacity="0.7"></path><path class="Oceania_0-area" stroke-linecap="round" d="M88.5 432.9L111.7 419.9L134.9 402.7L158 380.3L181.2 350.3L204.3 305.6L227.5 296.2L250.7 282.1L273.8 263.3L297 239.1L320.2 187L343.3 185.3L366.5 180.8L389.7 173.9L412.8 164.3L436 140.6L459.1 149.6L482.3 154.5L505.5 154.3L528.6 147.3L551.8 120.8L575 132.1L598.1 135.4L621.3 132.3L644.5 122.6L667.6 105.5L690.8 76.9L690.8 77.3L667.6 105.8L644.5 122.9L621.3 132.6L598.1 135.7L575 132.4L551.8 121.1L528.6 147.5L505.5 154.5L482.3 154.7L459.1 149.8L436 140.8L412.8 164.5L389.7 174L366.5 180.9L343.3 185.4L320.2 187.1L297 239.2L273.8 263.4L250.7 282.1L227.5 296.3L204.3 305.7L181.2 350.3L158 380.3L134.9 402.7L111.7 419.9L88.5 432.9" fill="#2ca02c" fill-opacity="0.7"></path><path class="Central-Europe_0-area" stroke-linecap="round" d="M88.5 432.8L111.7 419.8L134.9 402.6L158 380.2L181.2 350.2L204.3 305.5L227.5 296.1L250.7 282L273.8 263.3L297 239L320.2 186.9L343.3 185.1L366.5 180.6L389.7 173.7L412.8 164.1L436 140.4L459.1 149.4L482.3 154.3L505.5 154L528.6 147.1L551.8 120.6L575 131.8L598.1 135.1L621.3 132.1L644.5 122.3L667.6 105.2L690.8 76.6L690.8 76.9L667.6 105.5L644.5 122.6L621.3 132.3L598.1 135.4L575 132.1L551.8 120.8L528.6 147.3L505.5 154.3L482.3 154.5L459.1 149.6L436 140.6L412.8 164.3L389.7 173.9L366.5 180.8L343.3 185.3L320.2 187L297 239.1L273.8 263.3L250.7 282.1L227.5 296.2L204.3 305.6L181.2 350.3L158 380.3L134.9 402.7L111.7 419.9L88.5 432.9" fill="#98df8a" fill-opacity="0.7"></path><path class="Sub__002dSaharan-Africa_0-border" stroke-linecap="round" d="M88.5 457.5L111.7 446.4L134.9 432.3L158 414.3L181.2 390.9L204.3 357.1L227.5 347.2L250.7 334.4L273.8 318.6L297 299.1L320.2 272.3L343.3 271L366.5 268.2L389.7 264.1L412.8 258.5L436 245.5L459.1 252.4L482.3 256.7L505.5 257.4L528.6 252.9L551.8 234.6L575 243.9L598.1 247.2L621.3 245.4L644.5 238.3L667.6 225.3L690.8 204.7" stroke="rgb(72, 98, 161)" stroke-opacity="0.7" stroke-width="0.5" fill="none"></path><path class="South-Asia_0-border" stroke-linecap="round" d="M88.5 456.2L111.7 444.6L134.9 429.6L158 410L181.2 384.1L204.3 345.8L227.5 333.9L250.7 318.3L273.8 299.1L297 275.2L320.2 242.2L343.3 240.8L366.5 237.6L389.7 232.8L412.8 226.3L436 211L459.1 220.1L482.3 225.9L505.5 227.6L528.6 223.7L551.8 203.7L575 215L598.1 219.3L621.3 218L644.5 210.8L667.6 197.2L690.8 174.6" stroke="rgb(146, 166, 194)" stroke-opacity="0.7" stroke-width="0.5" fill="none"></path><path class="North-America_0-border" stroke-linecap="round" d="M88.5 444.8L111.7 432.9L134.9 417.6L158 397.7L181.2 371.2L204.3 332.3L227.5 322.6L250.7 308.8L273.8 291.1L297 268.4L320.2 226.7L343.3 225L366.5 221.4L389.7 216L412.8 208.8L436 192.4L459.1 201.1L482.3 206.5L505.5 207.7L528.6 203L551.8 182.2L575 193.3L598.1 197.4L621.3 195.7L644.5 188.1L667.6 173.9L690.8 150.6" stroke="rgb(175, 65, 76)" stroke-opacity="0.7" stroke-width="0.5" fill="none"></path><path class="Southeast-Asia_0-border" stroke-linecap="round" d="M88.5 443.6L111.7 431.5L134.9 415.5L158 394.7L181.2 366.7L204.3 325L227.5 314.9L250.7 300.7L273.8 282.4L297 259L320.2 215.4L343.3 213.9L366.5 210.3L389.7 204.8L412.8 197.2L436 177.2L459.1 185.9L482.3 191.1L505.5 191.9L528.6 186.7L551.8 164.2L575 175.5L598.1 179.5L621.3 177.6L644.5 169.5L667.6 154.6L690.8 129.5" stroke="rgb(213, 177, 45)" stroke-opacity="0.7" stroke-width="0.5" fill="none"></path><path class="Latin-America-and-Caribbean_0-border" stroke-linecap="round" d="M88.5 439.8L111.7 427.2L134.9 410.6L158 389.1L181.2 360.1L204.3 317.1L227.5 306.8L250.7 292.2L273.8 273.4L297 249.5L320.2 204.5L343.3 203.2L366.5 199.5L389.7 193.8L412.8 185.8L436 164.8L459.1 173.7L482.3 178.9L505.5 179.4L528.6 173.6L551.8 150.2L575 161.4L598.1 165.1L621.3 162.7L644.5 154.1L667.6 138.4L690.8 112.2" stroke="rgb(64, 109, 63)" stroke-opacity="0.7" stroke-width="0.5" fill="none"></path><path class="Western-Europe_0-border" stroke-linecap="round" d="M88.5 434.2L111.7 421.3L134.9 404.4L158 382.3L181.2 352.6L204.3 308.5L227.5 299.5L250.7 285.9L273.8 267.9L297 244.5L320.2 193.8L343.3 192.6L366.5 188.7L389.7 182.6L412.8 173.9L436 151.9L459.1 160.7L482.3 165.6L505.5 165.8L528.6 159.6L551.8 135.4L575 146.6L598.1 150.3L621.3 147.7L644.5 138.7L667.6 122.5L690.8 95.5" stroke="rgb(139, 69, 156)" stroke-opacity="0.7" stroke-width="0.5" fill="none"></path><path class="East-Asia_0-border" stroke-linecap="round" d="M88.5 433.9L111.7 420.9L134.9 403.9L158 381.6L181.2 351.8L204.3 307.5L227.5 298.3L250.7 284.4L273.8 266.1L297 242.5L320.2 191.3L343.3 189.8L366.5 185.5L389.7 179L412.8 169.8L436 146.8L459.1 155.5L482.3 160.3L505.5 160.2L528.6 153.6L551.8 128.1L575 139.2L598.1 142.7L621.3 139.9L644.5 130.7L667.6 114.2L690.8 86.7" stroke="rgb(88, 164, 113)" stroke-opacity="0.7" stroke-width="0.5" fill="none"></path><path class="Eastern-Europe_0-border" stroke-linecap="round" d="M88.5 433.2L111.7 420.3L134.9 403.1L158 380.8L181.2 350.9L204.3 306.3L227.5 297L250.7 282.9L273.8 264.2L297 240.1L320.2 188.1L343.3 186.4L366.5 182L389.7 175.1L412.8 165.7L436 142.1L459.1 151.1L482.3 155.9L505.5 155.8L528.6 148.9L551.8 122.6L575 133.8L598.1 137.2L621.3 134.1L644.5 124.5L667.6 107.5L690.8 79.3" stroke="rgb(213, 106, 12)" stroke-opacity="0.7" stroke-width="0.5" fill="none"></path><path class="North-Africa-and-Middle-East_0-border" stroke-linecap="round" d="M88.5 432.9L111.7 420L134.9 402.8L158 380.4L181.2 350.4L204.3 305.8L227.5 296.4L250.7 282.3L273.8 263.6L297 239.4L320.2 187.4L343.3 185.7L366.5 181.2L389.7 174.3L412.8 164.8L436 141.2L459.1 150.2L482.3 155L505.5 154.8L528.6 147.9L551.8 121.5L575 132.7L598.1 136.1L621.3 133L644.5 123.3L667.6 106.3L690.8 77.8" stroke="rgb(26, 100, 151)" stroke-opacity="0.7" stroke-width="0.5" fill="none"></path><path class="Central-Asia_0-border" stroke-linecap="round" d="M88.5 432.9L111.7 419.9L134.9 402.7L158 380.3L181.2 350.3L204.3 305.7L227.5 296.3L250.7 282.1L273.8 263.4L297 239.2L320.2 187.1L343.3 185.4L366.5 180.9L389.7 174L412.8 164.5L436 140.8L459.1 149.8L482.3 154.7L505.5 154.5L528.6 147.5L551.8 121.1L575 132.4L598.1 135.7L621.3 132.6L644.5 122.9L667.6 105.8L690.8 77.3" stroke="rgb(213, 156, 100)" stroke-opacity="0.7" stroke-width="0.5" fill="none"></path><path class="Oceania_0-border" stroke-linecap="round" d="M88.5 432.9L111.7 419.9L134.9 402.7L158 380.3L181.2 350.3L204.3 305.6L227.5 296.2L250.7 282.1L273.8 263.3L297 239.1L320.2 187L343.3 185.3L366.5 180.8L389.7 173.9L412.8 164.3L436 140.6L459.1 149.6L482.3 154.5L505.5 154.3L528.6 147.3L551.8 120.8L575 132.1L598.1 135.4L621.3 132.3L644.5 122.6L667.6 105.5L690.8 76.9" stroke="rgb(37, 134, 37)" stroke-opacity="0.7" stroke-width="0.5" fill="none"></path><path class="Central-Europe_0-border" stroke-linecap="round" d="M88.5 432.8L111.7 419.8L134.9 402.6L158 380.2L181.2 350.2L204.3 305.5L227.5 296.1L250.7 282L273.8 263.3L297 239L320.2 186.9L343.3 185.1L366.5 180.6L389.7 173.7L412.8 164.1L436 140.4L459.1 149.4L482.3 154.3L505.5 154L528.6 147.1L551.8 120.6L575 131.8L598.1 135.1L621.3 132.1L644.5 122.3L667.6 105.2L690.8 76.6" stroke="rgb(127, 187, 115)" stroke-opacity="0.7" stroke-width="0.5" fill="none"></path></g></g></g><g class="SourcesFooter" style="fill:#777"><g class="clickable" style="fill:#777"><text font-size="12.60" x="15.0" y="581.6"><tspan x="15" y="581.58">Source: IHME, Global Burden of Disease</tspan></text></g><text font-size="12.60" x="775.4" y="581.6"><tspan x="775.402" y="581.58"><a style="fill: #777;" class="cclogo" href="http://creativecommons.org/licenses/by-sa/4.0/deed.en_US" target="_blank">CC BY-SA</a></tspan></text></g></g></svg>