<svg xmlns="http://www.w3.org/2000/svg" version="1.1" style="font-family:&#x27;Helvetica Neue&#x27;, Helvetica, Arial, sans-serif;font-size:18px;background-color:white;text-rendering:optimizeLegibility;-webkit-font-smoothing:antialiased" width="850" height="600"><g class="ChartTab"><g class="HeaderView"><g opacity="0.8" transform="translate(778, 15) scale(0.27)"><a xmlns:xlink="http://www.w3.org/1999/xlink" xlink:href="https://ourworldindata.org" target="_blank"><g><rect x="0" y="0" fill="#1B2543" width="211.2" height="130.1"/><rect x="0" y="112.2" fill="#E63912" width="211.2" height="17.9"/><g><rect x="1.2" y="12.3" fill="none" width="210.2" height="99.2"/><path fill="#FFFFFF" d="M37.8,32.2c0,12.7-7.7,19.4-17.1,19.4c-9.7,0-16.6-7.5-16.6-18.7c0-11.7,7.3-19.3,17.1-19.3 C31.3,13.7,37.8,21.3,37.8,32.2z M9.2,32.8c0,7.9,4.3,14.9,11.8,14.9c7.5,0,11.8-6.9,11.8-15.3c0-7.3-3.8-14.9-11.8-14.9 C13.1,17.5,9.2,24.8,9.2,32.8z"/><path fill="#FFFFFF" d="M62.7,43.8c0,2.7,0.1,5.1,0.2,7.2h-4.3l-0.3-4.3h-0.1c-1.3,2.1-4,4.9-8.8,4.9c-4.2,0-9.1-2.3-9.1-11.6 V24.6h4.8v14.6c0,5,1.5,8.4,5.9,8.4c3.2,0,5.5-2.2,6.3-4.4c0.3-0.7,0.4-1.6,0.4-2.5V24.6h4.8V43.8z"/><path fill="#FFFFFF" d="M67.3,32.8c0-3.1-0.1-5.8-0.2-8.2h4.2l0.2,5.2h0.2c1.2-3.5,4.1-5.8,7.3-5.8c0.5,0,0.9,0.1,1.4,0.2v4.5 c-0.5-0.1-1-0.2-1.6-0.2c-3.4,0-5.8,2.6-6.5,6.2c-0.1,0.7-0.2,1.4-0.2,2.2V51h-4.8V32.8z"/><path fill="#FFFFFF" d="M95.4,51l-9.4-36.8h5l4.4,18.6c1.1,4.6,2.1,9.2,2.7,12.7h0.1c0.6-3.7,1.8-8,3-12.8l4.9-18.5h5l4.5,18.7 c1,4.4,2,8.7,2.6,12.6h0.1c0.8-4,1.8-8.1,3-12.7l4.9-18.5h4.9L120.6,51h-5L111,31.9c-1.1-4.7-1.9-8.3-2.4-12h-0.1 c-0.7,3.7-1.5,7.3-2.8,12L100.4,51H95.4z"/><path fill="#FFFFFF" d="M154.9,37.6c0,9.8-6.8,14-13.2,14c-7.2,0-12.7-5.2-12.7-13.6c0-8.8,5.8-14,13.1-14 C149.8,24,154.9,29.5,154.9,37.6z M133.9,37.9c0,5.8,3.3,10.1,8,10.1c4.6,0,8-4.3,8-10.3c0-4.5-2.2-10.1-7.9-10.1 C136.3,27.6,133.9,32.8,133.9,37.9z"/><path fill="#FFFFFF" d="M158.2,32.8c0-3.1-0.1-5.8-0.2-8.2h4.2l0.2,5.2h0.2c1.2-3.5,4.1-5.8,7.3-5.8c0.5,0,0.9,0.1,1.4,0.2v4.5 c-0.5-0.1-1-0.2-1.6-0.2c-3.4,0-5.8,2.6-6.5,6.2c-0.1,0.7-0.2,1.4-0.2,2.2V51h-4.8V32.8z"/><path fill="#FFFFFF" d="M173.5,12.3h4.8V51h-4.8V12.3z"/><path fill="#FFFFFF" d="M206.5,12.3v31.9c0,2.3,0.1,5,0.2,6.8h-4.3l-0.2-4.6H202c-1.5,2.9-4.7,5.2-9,5.2 c-6.4,0-11.3-5.4-11.3-13.4c-0.1-8.8,5.4-14.2,11.9-14.2c4,0,6.8,1.9,8,4h0.1V12.3H206.5z M201.7,35.4c0-0.6-0.1-1.4-0.2-2 c-0.7-3.1-3.3-5.6-6.9-5.6c-5,0-7.9,4.4-7.9,10.2c0,5.3,2.6,9.8,7.8,9.8c3.2,0,6.2-2.1,7.1-5.7c0.2-0.7,0.2-1.3,0.2-2.1V35.4z"/><path fill="#FFFFFF" d="M42.8,64c0.1,1.6-1.1,2.9-3.1,2.9c-1.7,0-2.9-1.3-2.9-2.9c0-1.7,1.3-3,3-3C41.7,61,42.8,62.3,42.8,64z M37.4,97.8V71.4h4.8v26.4H37.4z"/><path fill="#FFFFFF" d="M47.5,78.6c0-2.7-0.1-5-0.2-7.1h4.3l0.3,4.4h0.1c1.3-2.5,4.4-5,8.8-5c3.7,0,9.4,2.2,9.4,11.2v15.8h-4.8 V82.6c0-4.3-1.6-7.8-6.1-7.8c-3.2,0-5.6,2.2-6.5,4.9c-0.2,0.6-0.3,1.4-0.3,2.2v15.9h-4.8V78.6z"/><path fill="#FFFFFF" d="M84,61.6c2.9-0.4,6.3-0.8,10.1-0.8c6.8,0,11.7,1.6,14.9,4.6c3.3,3,5.2,7.3,5.2,13.2c0,6-1.9,10.9-5.3,14.3 c-3.4,3.4-9.1,5.3-16.3,5.3c-3.4,0-6.2-0.2-8.6-0.4V61.6z M88.8,94.1c1.2,0.2,3,0.3,4.8,0.3c10.2,0,15.7-5.7,15.7-15.6 c0.1-8.7-4.9-14.2-14.9-14.2c-2.5,0-4.3,0.2-5.6,0.5V94.1z"/><path fill="#FFFFFF" d="M132.1,97.8l-0.4-3.3h-0.2c-1.5,2.1-4.3,3.9-8.1,3.9c-5.4,0-8.1-3.8-8.1-7.6c0-6.4,5.7-9.9,15.9-9.8v-0.5 c0-2.2-0.6-6.1-6-6.1c-2.5,0-5,0.8-6.9,2l-1.1-3.2c2.2-1.4,5.4-2.3,8.7-2.3c8.1,0,10.1,5.5,10.1,10.8v9.9c0,2.3,0.1,4.5,0.4,6.3 H132.1z M131.4,84.4c-5.3-0.1-11.2,0.8-11.2,5.9c0,3.1,2.1,4.6,4.5,4.6c3.4,0,5.6-2.2,6.4-4.4c0.2-0.5,0.3-1,0.3-1.5V84.4z"/><path fill="#FFFFFF" d="M146.6,63.9v7.6h6.9v3.7h-6.9v14.2c0,3.3,0.9,5.1,3.6,5.1c1.3,0,2.2-0.2,2.8-0.3l0.2,3.6 c-0.9,0.4-2.4,0.7-4.3,0.7c-2.2,0-4-0.7-5.2-2c-1.4-1.4-1.9-3.8-1.9-6.9V75.1h-4.1v-3.7h4.1v-6.3L146.6,63.9z"/><path fill="#FFFFFF" d="M171.4,97.8l-0.4-3.3h-0.2c-1.5,2.1-4.3,3.9-8.1,3.9c-5.4,0-8.1-3.8-8.1-7.6c0-6.4,5.7-9.9,15.9-9.8v-0.5 c0-2.2-0.6-6.1-6-6.1c-2.5,0-5,0.8-6.9,2l-1.1-3.2c2.2-1.4,5.4-2.3,8.7-2.3c8.1,0,10.1,5.5,10.1,10.8v9.9c0,2.3,0.1,4.5,0.4,6.3 H171.4z M170.7,84.4c-5.3-0.1-11.2,0.8-11.2,5.9c0,3.1,2.1,4.6,4.5,4.6c3.4,0,5.6-2.2,6.4-4.4c0.2-0.5,0.3-1,0.3-1.5V84.4z"/></g></g></a></g><a href="https://ourworldindata.org/grapher/ozone-depleting-substance-consumption" target="_blank"><text font-size="25.20" x="15.0" y="35.2" fill="#555"><tspan x="15" y="35.160000000000004">Ozone-depleting substance consumption, World</tspan></text></a><text font-size="14.40" x="15.0" y="53.7" fill="#666"><tspan x="15" y="53.72">Annual consumption of ozone-depleting substances (ODS). ODS consumption is measured units of ODS tonnes,</tspan><tspan x="15" y="69.56">which is the amount of ODS consumed, multiplied by their respective ozone depleting potential value.</tspan></text></g><g class="StackedArea"><defs><clipPath id="boundsClip-534"><rect x="146.522" y="0" width="820" height="928.8"></rect></clipPath></defs><g class="AxisBoxView"><g class="HorizontalAxis"><text x="146.5" y="556.5" fill="#666" text-anchor="middle" font-size="16.2">1989</text><text x="266.2" y="556.5" fill="#666" text-anchor="middle" font-size="16.2">1995</text><text x="365.9" y="556.5" fill="#666" text-anchor="middle" font-size="16.2">2000</text><text x="465.6" y="556.5" fill="#666" text-anchor="middle" font-size="16.2">2005</text><text x="565.3" y="556.5" fill="#666" text-anchor="middle" font-size="16.2">2010</text><text x="645" y="556.5" fill="#666" text-anchor="middle" font-size="16.2">2014</text></g><g class="VerticalAxis"><text x="141.52" y="535.3" fill="#666" dominant-baseline="middle" text-anchor="end" font-size="16.2">0 tonnes</text><text x="141.52" y="468" fill="#666" dominant-baseline="middle" text-anchor="end" font-size="16.2">200,000 tonnes</text><text x="141.52" y="400.6" fill="#666" dominant-baseline="middle" text-anchor="end" font-size="16.2">400,000 tonnes</text><text x="141.52" y="333.3" fill="#666" dominant-baseline="middle" text-anchor="end" font-size="16.2">600,000 tonnes</text><text x="141.52" y="265.9" fill="#666" dominant-baseline="middle" text-anchor="end" font-size="16.2">800,000 tonnes</text><text x="141.52" y="198.6" fill="#666" dominant-baseline="middle" text-anchor="end" font-size="16.2">1 million tonnes</text><text x="141.52" y="131.3" fill="#666" dominant-baseline="middle" text-anchor="end" font-size="16.2">1.2 million tonnes</text></g><g class="AxisGridLines"><line x1="146.52" y1="535.3" x2="645.02" y2="535.3" stroke="#ccc"></line><line x1="146.52" y1="468" x2="645.02" y2="468" stroke="#ddd" stroke-dasharray="3,2"></line><line x1="146.52" y1="400.6" x2="645.02" y2="400.6" stroke="#ddd" stroke-dasharray="3,2"></line><line x1="146.52" y1="333.3" x2="645.02" y2="333.3" stroke="#ddd" stroke-dasharray="3,2"></line><line x1="146.52" y1="265.9" x2="645.02" y2="265.9" stroke="#ddd" stroke-dasharray="3,2"></line><line x1="146.52" y1="198.6" x2="645.02" y2="198.6" stroke="#ddd" stroke-dasharray="3,2"></line><line x1="146.52" y1="131.3" x2="645.02" y2="131.3" stroke="#ddd" stroke-dasharray="3,2"></line></g></g><g clip-path="url(#boundsClip-534)"><g class="HeightedLegend clickable"><g class="legendMark"><g class="indicator"><line x1="650.02" y1="535.3" x2="672.52" y2="535.3" stroke="#666" stroke-width="0.5"></line><line x1="672.52" y1="535.3" x2="672.52" y2="521.2499999999999" stroke="#666" stroke-width="0.5"></line><line x1="672.52" y1="521.2499999999999" x2="675.02" y2="521.2499999999999" stroke="#666" stroke-width="0.5"></line></g><rect x="645.02" y="507.19999999999993" width="156.905" height="28.1" fill="#fff" opacity="0"></rect><text font-size="13.50" x="680.0" y="518.0" fill="#3360a9"><tspan x="680.02" y="517.9999999999999">Chlorofluorocarbons</tspan><tspan x="680.02" y="532.8499999999999">(CFCs)</tspan></text></g><g class="legendMark"><g class="indicator"><line x1="650.02" y1="535.2" x2="669.1866666666666" y2="535.2" stroke="#666" stroke-width="0.5"></line><line x1="669.1866666666666" y1="535.2" x2="669.1866666666666" y2="498.44999999999993" stroke="#666" stroke-width="0.5"></line><line x1="669.1866666666666" y1="498.44999999999993" x2="675.02" y2="498.44999999999993" stroke="#666" stroke-width="0.5"></line></g><rect x="645.02" y="491.69999999999993" width="77.12" height="13.5" fill="#fff" opacity="0"></rect><text font-size="13.50" x="680.0" y="502.5" fill="#ca2628"><tspan x="680.02" y="502.49999999999994">Halons</tspan></text></g><g class="legendMark"><g class="indicator"><line x1="650.02" y1="535.2" x2="665.8533333333334" y2="535.2" stroke="#666" stroke-width="0.5"></line><line x1="665.8533333333334" y1="535.2" x2="665.8533333333334" y2="475.6499999999999" stroke="#666" stroke-width="0.5"></line><line x1="665.8533333333334" y1="475.6499999999999" x2="675.02" y2="475.6499999999999" stroke="#666" stroke-width="0.5"></line></g><rect x="645.02" y="461.5999999999999" width="113.97500000000001" height="28.1" fill="#fff" opacity="0"></rect><text font-size="13.50" x="680.0" y="472.4" fill="#ed6c2d"><tspan x="680.02" y="472.3999999999999">Carbon</tspan><tspan x="680.02" y="487.24999999999994">Tetrachloride</tspan></text></g><g class="legendMark"><g class="indicator"><line x1="650.02" y1="534.2" x2="662.52" y2="534.2" stroke="#666" stroke-width="0.5"></line><line x1="662.52" y1="534.2" x2="662.52" y2="445.5499999999999" stroke="#666" stroke-width="0.5"></line><line x1="662.52" y1="445.5499999999999" x2="675.02" y2="445.5499999999999" stroke="#666" stroke-width="0.5"></line></g><rect x="645.02" y="431.4999999999999" width="189.98000000000002" height="28.1" fill="#fff" opacity="0"></rect><text font-size="13.50" x="680.0" y="442.3" fill="#ffd53e"><tspan x="680.02" y="442.2999999999999">Hydrochlorofluorocarbons</tspan><tspan x="680.02" y="457.1499999999999">(HCFCs)</tspan></text></g><g class="legendMark"><g class="indicator"><line x1="650.02" y1="533" x2="659.1866666666666" y2="533" stroke="#666" stroke-width="0.5"></line><line x1="659.1866666666666" y1="533" x2="659.1866666666666" y2="422.7499999999999" stroke="#666" stroke-width="0.5"></line><line x1="659.1866666666666" y1="422.7499999999999" x2="675.02" y2="422.7499999999999" stroke="#666" stroke-width="0.5"></line></g><rect x="645.02" y="415.9999999999999" width="128.96" height="13.5" fill="#fff" opacity="0"></rect><text font-size="13.50" x="680.0" y="426.8" fill="#a652ba"><tspan x="680.02" y="426.7999999999999">Methyl Bromide</tspan></text></g><g class="legendMark"><g class="indicator"><line x1="650.02" y1="533" x2="655.8533333333334" y2="533" stroke="#666" stroke-width="0.5"></line><line x1="655.8533333333334" y1="533" x2="655.8533333333334" y2="407.2499999999999" stroke="#666" stroke-width="0.5"></line><line x1="655.8533333333334" y1="407.2499999999999" x2="675.02" y2="407.2499999999999" stroke="#666" stroke-width="0.5"></line></g><rect x="645.02" y="400.4999999999999" width="145.43" height="13.5" fill="#fff" opacity="0"></rect><text font-size="13.50" x="680.0" y="411.3" fill="#818282"><tspan x="680.02" y="411.2999999999999">Methyl Chloroform</tspan></text></g></g><g class="Areas"><rect x="146.522" y="92.1" width="498.498" height="443.19999999999993" opacity="0" fill="rgba(255,255,255,0)"></rect><path class="World_3-area" stroke-linecap="round" d="M146.5 260.7L166.5 346L186.4 378.7L206.3 386.9L226.3 406.7L246.2 429.5L266.2 439.2L286.1 477.5L306 478.2L326 481.8L345.9 486.6L365.9 486.6L385.8 499L405.7 504.1L425.7 509.2L445.6 513.2L465.6 520L485.5 522.8L505.4 530.1L525.4 533.2L545.3 534.2L565.3 535.1L585.2 535.2L605.1 535.2L625.1 535.2L645 535.2L645.02 535.3L146.522 535.3" fill="#3360a9" fill-opacity="0.7"></path><path class="World_5-area" stroke-linecap="round" d="M146.5 214.6L166.5 304L186.4 339.3L206.3 353.7L226.3 384L246.2 417.6L266.2 423.7L286.1 461.9L306 461.3L326 470.2L345.9 477.2L365.9 478L385.8 492.6L405.7 499.5L425.7 506.1L445.6 511.4L465.6 517.8L485.5 522L505.4 529.5L525.4 532.6L545.3 533.5L565.3 534.7L585.2 535L605.1 535.1L625.1 535.2L645 535.2L645 535.2L625.1 535.2L605.1 535.2L585.2 535.2L565.3 535.1L545.3 534.2L525.4 533.2L505.4 530.1L485.5 522.8L465.6 520L445.6 513.2L425.7 509.2L405.7 504.1L385.8 499L365.9 486.6L345.9 486.6L326 481.8L306 478.2L286.1 477.5L266.2 439.2L246.2 429.5L226.3 406.7L206.3 386.9L186.4 378.7L166.5 346L146.5 260.7" fill="#ca2628" fill-opacity="0.7"></path><path class="World_1-area" stroke-linecap="round" d="M146.5 113.9L166.5 289L186.4 327.4L206.3 324.9L226.3 342.1L246.2 406.6L266.2 418.1L286.1 461.6L306 449.7L326 447.3L345.9 462.9L365.9 468.8L385.8 483.1L405.7 493.7L425.7 494.1L445.6 505.9L465.6 517.4L485.5 521.5L505.4 529.1L525.4 532.4L545.3 533.4L565.3 534.7L585.2 535L605.1 535.1L625.1 535.2L645 535.2L645 535.2L625.1 535.2L605.1 535.1L585.2 535L565.3 534.7L545.3 533.5L525.4 532.6L505.4 529.5L485.5 522L465.6 517.8L445.6 511.4L425.7 506.1L405.7 499.5L385.8 492.6L365.9 478L345.9 477.2L326 470.2L306 461.3L286.1 461.9L266.2 423.7L246.2 417.6L226.3 384L206.3 353.7L186.4 339.3L166.5 304L146.5 214.6" fill="#ed6c2d" fill-opacity="0.7"></path><path class="World_2-area" stroke-linecap="round" d="M146.5 109.7L166.5 288.3L186.4 325.9L206.3 321.1L226.3 336.8L246.2 400L266.2 409.5L286.1 454.2L306 442L326 438.7L345.9 452.9L365.9 458.2L385.8 472.8L405.7 482.8L425.7 484.7L445.6 496L465.6 507.1L485.5 509.2L505.4 515.3L525.4 519.3L545.3 519.8L565.3 520.9L585.2 521.2L605.1 521L625.1 524.4L645 533.1L645 535.2L625.1 535.2L605.1 535.1L585.2 535L565.3 534.7L545.3 533.4L525.4 532.4L505.4 529.1L485.5 521.5L465.6 517.4L445.6 505.9L425.7 494.1L405.7 493.7L385.8 483.1L365.9 468.8L345.9 462.9L326 447.3L306 449.7L286.1 461.6L266.2 418.1L246.2 406.6L226.3 342.1L206.3 324.9L186.4 327.4L166.5 289L146.5 113.9" fill="#ffd53e" fill-opacity="0.7"></path><path class="World_0-area" stroke-linecap="round" d="M146.5 109.6L166.5 288.2L186.4 316.8L206.3 319.9L226.3 335L246.2 392.7L266.2 400.5L286.1 446L306 432.6L326 428.7L345.9 445.7L365.9 451.1L385.8 466L405.7 478.1L425.7 480.3L445.6 491.1L465.6 503.3L485.5 506.2L505.4 512.9L525.4 517.2L545.3 518L565.3 519.3L585.2 520.2L605.1 520.2L625.1 523.9L645 533L645 533.1L625.1 524.4L605.1 521L585.2 521.2L565.3 520.9L545.3 519.8L525.4 519.3L505.4 515.3L485.5 509.2L465.6 507.1L445.6 496L425.7 484.7L405.7 482.8L385.8 472.8L365.9 458.2L345.9 452.9L326 438.7L306 442L286.1 454.2L266.2 409.5L246.2 400L226.3 336.8L206.3 321.1L186.4 325.9L166.5 288.3L146.5 109.7" fill="#a652ba" fill-opacity="0.7"></path><path class="World_4-area" stroke-linecap="round" d="M146.5 92.1L166.5 286.5L186.4 308.6L206.3 303.7L226.3 324.4L246.2 389.4L266.2 396.7L286.1 445.1L306 431.8L326 428.1L345.9 445L365.9 450.4L385.8 465.6L405.7 477.6L425.7 479.9L445.6 490.8L465.6 503.1L485.5 506L505.4 512.7L525.4 517.1L545.3 518L565.3 519.3L585.2 520.2L605.1 520.2L625.1 523.9L645 533L645 533L625.1 523.9L605.1 520.2L585.2 520.2L565.3 519.3L545.3 518L525.4 517.2L505.4 512.9L485.5 506.2L465.6 503.3L445.6 491.1L425.7 480.3L405.7 478.1L385.8 466L365.9 451.1L345.9 445.7L326 428.7L306 432.6L286.1 446L266.2 400.5L246.2 392.7L226.3 335L206.3 319.9L186.4 316.8L166.5 288.2L146.5 109.6" fill="#818282" fill-opacity="0.7"></path><path class="World_3-border" stroke-linecap="round" d="M146.5 260.7L166.5 346L186.4 378.7L206.3 386.9L226.3 406.7L246.2 429.5L266.2 439.2L286.1 477.5L306 478.2L326 481.8L345.9 486.6L365.9 486.6L385.8 499L405.7 504.1L425.7 509.2L445.6 513.2L465.6 520L485.5 522.8L505.4 530.1L525.4 533.2L545.3 534.2L565.3 535.1L585.2 535.2L605.1 535.2L625.1 535.2L645 535.2" stroke="rgb(43, 80, 141)" stroke-opacity="0.7" stroke-width="0.5" fill="none"></path><path class="World_5-border" stroke-linecap="round" d="M146.5 214.6L166.5 304L186.4 339.3L206.3 353.7L226.3 384L246.2 417.6L266.2 423.7L286.1 461.9L306 461.3L326 470.2L345.9 477.2L365.9 478L385.8 492.6L405.7 499.5L425.7 506.1L445.6 511.4L465.6 517.8L485.5 522L505.4 529.5L525.4 532.6L545.3 533.5L565.3 534.7L585.2 535L605.1 535.1L625.1 535.2L645 535.2" stroke="rgb(169, 32, 33)" stroke-opacity="0.7" stroke-width="0.5" fill="none"></path><path class="World_1-border" stroke-linecap="round" d="M146.5 113.9L166.5 289L186.4 327.4L206.3 324.9L226.3 342.1L246.2 406.6L266.2 418.1L286.1 461.6L306 449.7L326 447.3L345.9 462.9L365.9 468.8L385.8 483.1L405.7 493.7L425.7 494.1L445.6 505.9L465.6 517.4L485.5 521.5L505.4 529.1L525.4 532.4L545.3 533.4L565.3 534.7L585.2 535L605.1 535.1L625.1 535.2L645 535.2" stroke="rgb(198, 90, 38)" stroke-opacity="0.7" stroke-width="0.5" fill="none"></path><path class="World_2-border" stroke-linecap="round" d="M146.5 109.7L166.5 288.3L186.4 325.9L206.3 321.1L226.3 336.8L246.2 400L266.2 409.5L286.1 454.2L306 442L326 438.7L345.9 452.9L365.9 458.2L385.8 472.8L405.7 482.8L425.7 484.7L445.6 496L465.6 507.1L485.5 509.2L505.4 515.3L525.4 519.3L545.3 519.8L565.3 520.9L585.2 521.2L605.1 521L625.1 524.4L645 533.1" stroke="rgb(213, 178, 52)" stroke-opacity="0.7" stroke-width="0.5" fill="none"></path><path class="World_0-border" stroke-linecap="round" d="M146.5 109.6L166.5 288.2L186.4 316.8L206.3 319.9L226.3 335L246.2 392.7L266.2 400.5L286.1 446L306 432.6L326 428.7L345.9 445.7L365.9 451.1L385.8 466L405.7 478.1L425.7 480.3L445.6 491.1L465.6 503.3L485.5 506.2L505.4 512.9L525.4 517.2L545.3 518L565.3 519.3L585.2 520.2L605.1 520.2L625.1 523.9L645 533" stroke="rgb(139, 69, 156)" stroke-opacity="0.7" stroke-width="0.5" fill="none"></path><path class="World_4-border" stroke-linecap="round" d="M146.5 92.1L166.5 286.5L186.4 308.6L206.3 303.7L226.3 324.4L246.2 389.4L266.2 396.7L286.1 445.1L306 431.8L326 428.1L345.9 445L365.9 450.4L385.8 465.6L405.7 477.6L425.7 479.9L445.6 490.8L465.6 503.1L485.5 506L505.4 512.7L525.4 517.1L545.3 518L565.3 519.3L585.2 520.2L605.1 520.2L625.1 523.9L645 533" stroke="rgb(108, 109, 109)" stroke-opacity="0.7" stroke-width="0.5" fill="none"></path></g></g></g><g class="SourcesFooter" style="fill:#777"><g class="clickable" style="fill:#777"><text font-size="12.60" x="15.0" y="581.6"><tspan x="15" y="581.58">Source: UN Environment Programme</tspan></text></g><text font-size="12.60" x="775.4" y="581.6"><tspan x="775.402" y="581.58"><a style="fill: #777;" class="cclogo" href="http://creativecommons.org/licenses/by-sa/4.0/deed.en_US" target="_blank">CC BY-SA</a></tspan></text></g></g></svg>