<svg xmlns="http://www.w3.org/2000/svg" version="1.1" style="font-family:&#x27;Helvetica Neue&#x27;, Helvetica, Arial, sans-serif;font-size:18px;background-color:white;text-rendering:optimizeLegibility;-webkit-font-smoothing:antialiased" width="850" height="600"><g class="ChartTab"><g class="HeaderView"><g opacity="0.8" transform="translate(778, 15) scale(0.27)"><a xmlns:xlink="http://www.w3.org/1999/xlink" xlink:href="https://ourworldindata.org" target="_blank"><g><rect x="0" y="0" fill="#1B2543" width="211.2" height="130.1"/><rect x="0" y="112.2" fill="#E63912" width="211.2" height="17.9"/><g><rect x="1.2" y="12.3" fill="none" width="210.2" height="99.2"/><path fill="#FFFFFF" d="M37.8,32.2c0,12.7-7.7,19.4-17.1,19.4c-9.7,0-16.6-7.5-16.6-18.7c0-11.7,7.3-19.3,17.1-19.3 C31.3,13.7,37.8,21.3,37.8,32.2z M9.2,32.8c0,7.9,4.3,14.9,11.8,14.9c7.5,0,11.8-6.9,11.8-15.3c0-7.3-3.8-14.9-11.8-14.9 C13.1,17.5,9.2,24.8,9.2,32.8z"/><path fill="#FFFFFF" d="M62.7,43.8c0,2.7,0.1,5.1,0.2,7.2h-4.3l-0.3-4.3h-0.1c-1.3,2.1-4,4.9-8.8,4.9c-4.2,0-9.1-2.3-9.1-11.6 V24.6h4.8v14.6c0,5,1.5,8.4,5.9,8.4c3.2,0,5.5-2.2,6.3-4.4c0.3-0.7,0.4-1.6,0.4-2.5V24.6h4.8V43.8z"/><path fill="#FFFFFF" d="M67.3,32.8c0-3.1-0.1-5.8-0.2-8.2h4.2l0.2,5.2h0.2c1.2-3.5,4.1-5.8,7.3-5.8c0.5,0,0.9,0.1,1.4,0.2v4.5 c-0.5-0.1-1-0.2-1.6-0.2c-3.4,0-5.8,2.6-6.5,6.2c-0.1,0.7-0.2,1.4-0.2,2.2V51h-4.8V32.8z"/><path fill="#FFFFFF" d="M95.4,51l-9.4-36.8h5l4.4,18.6c1.1,4.6,2.1,9.2,2.7,12.7h0.1c0.6-3.7,1.8-8,3-12.8l4.9-18.5h5l4.5,18.7 c1,4.4,2,8.7,2.6,12.6h0.1c0.8-4,1.8-8.1,3-12.7l4.9-18.5h4.9L120.6,51h-5L111,31.9c-1.1-4.7-1.9-8.3-2.4-12h-0.1 c-0.7,3.7-1.5,7.3-2.8,12L100.4,51H95.4z"/><path fill="#FFFFFF" d="M154.9,37.6c0,9.8-6.8,14-13.2,14c-7.2,0-12.7-5.2-12.7-13.6c0-8.8,5.8-14,13.1-14 C149.8,24,154.9,29.5,154.9,37.6z M133.9,37.9c0,5.8,3.3,10.1,8,10.1c4.6,0,8-4.3,8-10.3c0-4.5-2.2-10.1-7.9-10.1 C136.3,27.6,133.9,32.8,133.9,37.9z"/><path fill="#FFFFFF" d="M158.2,32.8c0-3.1-0.1-5.8-0.2-8.2h4.2l0.2,5.2h0.2c1.2-3.5,4.1-5.8,7.3-5.8c0.5,0,0.9,0.1,1.4,0.2v4.5 c-0.5-0.1-1-0.2-1.6-0.2c-3.4,0-5.8,2.6-6.5,6.2c-0.1,0.7-0.2,1.4-0.2,2.2V51h-4.8V32.8z"/><path fill="#FFFFFF" d="M173.5,12.3h4.8V51h-4.8V12.3z"/><path fill="#FFFFFF" d="M206.5,12.3v31.9c0,2.3,0.1,5,0.2,6.8h-4.3l-0.2-4.6H202c-1.5,2.9-4.7,5.2-9,5.2 c-6.4,0-11.3-5.4-11.3-13.4c-0.1-8.8,5.4-14.2,11.9-14.2c4,0,6.8,1.9,8,4h0.1V12.3H206.5z M201.7,35.4c0-0.6-0.1-1.4-0.2-2 c-0.7-3.1-3.3-5.6-6.9-5.6c-5,0-7.9,4.4-7.9,10.2c0,5.3,2.6,9.8,7.8,9.8c3.2,0,6.2-2.1,7.1-5.7c0.2-0.7,0.2-1.3,0.2-2.1V35.4z"/><path fill="#FFFFFF" d="M42.8,64c0.1,1.6-1.1,2.9-3.1,2.9c-1.7,0-2.9-1.3-2.9-2.9c0-1.7,1.3-3,3-3C41.7,61,42.8,62.3,42.8,64z M37.4,97.8V71.4h4.8v26.4H37.4z"/><path fill="#FFFFFF" d="M47.5,78.6c0-2.7-0.1-5-0.2-7.1h4.3l0.3,4.4h0.1c1.3-2.5,4.4-5,8.8-5c3.7,0,9.4,2.2,9.4,11.2v15.8h-4.8 V82.6c0-4.3-1.6-7.8-6.1-7.8c-3.2,0-5.6,2.2-6.5,4.9c-0.2,0.6-0.3,1.4-0.3,2.2v15.9h-4.8V78.6z"/><path fill="#FFFFFF" d="M84,61.6c2.9-0.4,6.3-0.8,10.1-0.8c6.8,0,11.7,1.6,14.9,4.6c3.3,3,5.2,7.3,5.2,13.2c0,6-1.9,10.9-5.3,14.3 c-3.4,3.4-9.1,5.3-16.3,5.3c-3.4,0-6.2-0.2-8.6-0.4V61.6z M88.8,94.1c1.2,0.2,3,0.3,4.8,0.3c10.2,0,15.7-5.7,15.7-15.6 c0.1-8.7-4.9-14.2-14.9-14.2c-2.5,0-4.3,0.2-5.6,0.5V94.1z"/><path fill="#FFFFFF" d="M132.1,97.8l-0.4-3.3h-0.2c-1.5,2.1-4.3,3.9-8.1,3.9c-5.4,0-8.1-3.8-8.1-7.6c0-6.4,5.7-9.9,15.9-9.8v-0.5 c0-2.2-0.6-6.1-6-6.1c-2.5,0-5,0.8-6.9,2l-1.1-3.2c2.2-1.4,5.4-2.3,8.7-2.3c8.1,0,10.1,5.5,10.1,10.8v9.9c0,2.3,0.1,4.5,0.4,6.3 H132.1z M131.4,84.4c-5.3-0.1-11.2,0.8-11.2,5.9c0,3.1,2.1,4.6,4.5,4.6c3.4,0,5.6-2.2,6.4-4.4c0.2-0.5,0.3-1,0.3-1.5V84.4z"/><path fill="#FFFFFF" d="M146.6,63.9v7.6h6.9v3.7h-6.9v14.2c0,3.3,0.9,5.1,3.6,5.1c1.3,0,2.2-0.2,2.8-0.3l0.2,3.6 c-0.9,0.4-2.4,0.7-4.3,0.7c-2.2,0-4-0.7-5.2-2c-1.4-1.4-1.9-3.8-1.9-6.9V75.1h-4.1v-3.7h4.1v-6.3L146.6,63.9z"/><path fill="#FFFFFF" d="M171.4,97.8l-0.4-3.3h-0.2c-1.5,2.1-4.3,3.9-8.1,3.9c-5.4,0-8.1-3.8-8.1-7.6c0-6.4,5.7-9.9,15.9-9.8v-0.5 c0-2.2-0.6-6.1-6-6.1c-2.5,0-5,0.8-6.9,2l-1.1-3.2c2.2-1.4,5.4-2.3,8.7-2.3c8.1,0,10.1,5.5,10.1,10.8v9.9c0,2.3,0.1,4.5,0.4,6.3 H171.4z M170.7,84.4c-5.3-0.1-11.2,0.8-11.2,5.9c0,3.1,2.1,4.6,4.5,4.6c3.4,0,5.6-2.2,6.4-4.4c0.2-0.5,0.3-1,0.3-1.5V84.4z"/></g></g></a></g><a href="https://ourworldindata.org/grapher/parents-who-agree-with-spanking-to-discipline-a-child" target="_blank"><text font-size="24.30" x="15.0" y="34.4" fill="#555"><tspan x="15" y="34.44">Parents who agree with spanking to discipline a child, United States</tspan></text></a><text font-size="14.40" x="15.0" y="52.8" fill="#666"><tspan x="15" y="52.81999999999999">The General Social Survey in the US asks: Do you strongly agree, agree, disagree, or strongly disagree that it is</tspan><tspan x="15" y="68.66">sometimes necessary to discipline a child with a good, hard spanking? These variables show the distribution of</tspan><tspan x="15" y="84.5">survey responses</tspan></text></g><g class="StackedArea"><defs><clipPath id="boundsClip-374"><rect x="61.634" y="0" width="820" height="899.6"></rect></clipPath></defs><g class="AxisBoxView"><g class="HorizontalAxis"><text x="61.6" y="556.5" fill="#666" text-anchor="middle" font-size="16.2">1986</text><text x="146" y="556.5" fill="#666" text-anchor="middle" font-size="16.2">1990</text><text x="251.5" y="556.5" fill="#666" text-anchor="middle" font-size="16.2">1995</text><text x="357" y="556.5" fill="#666" text-anchor="middle" font-size="16.2">2000</text><text x="462.5" y="556.5" fill="#666" text-anchor="middle" font-size="16.2">2005</text><text x="568" y="556.5" fill="#666" text-anchor="middle" font-size="16.2">2010</text><text x="694.6" y="556.5" fill="#666" text-anchor="middle" font-size="16.2">2016</text></g><g class="VerticalAxis"><text x="56.63" y="535.3" fill="#666" dominant-baseline="middle" text-anchor="end" font-size="16.2">0%</text><text x="56.63" y="449.6" fill="#666" dominant-baseline="middle" text-anchor="end" font-size="16.2">20%</text><text x="56.63" y="363.9" fill="#666" dominant-baseline="middle" text-anchor="end" font-size="16.2">40%</text><text x="56.63" y="278.1" fill="#666" dominant-baseline="middle" text-anchor="end" font-size="16.2">60%</text><text x="56.63" y="192.4" fill="#666" dominant-baseline="middle" text-anchor="end" font-size="16.2">80%</text><text x="56.63" y="106.7" fill="#666" dominant-baseline="middle" text-anchor="end" font-size="16.2">100%</text></g><g class="AxisGridLines"><line x1="61.63" y1="535.3" x2="694.57" y2="535.3" stroke="#ccc"></line><line x1="61.63" y1="449.6" x2="694.57" y2="449.6" stroke="#ddd" stroke-dasharray="3,2"></line><line x1="61.63" y1="363.9" x2="694.57" y2="363.9" stroke="#ddd" stroke-dasharray="3,2"></line><line x1="61.63" y1="278.1" x2="694.57" y2="278.1" stroke="#ddd" stroke-dasharray="3,2"></line><line x1="61.63" y1="192.4" x2="694.57" y2="192.4" stroke="#ddd" stroke-dasharray="3,2"></line><line x1="61.63" y1="106.7" x2="694.57" y2="106.7" stroke="#ddd" stroke-dasharray="3,2"></line></g></g><g clip-path="url(#boundsClip-374)"><g class="HeightedLegend clickable"><g class="legendMark"><rect x="694.565" y="117.25" width="140.435" height="13.5" fill="#fff" opacity="0"></rect><text font-size="13.50" x="699.6" y="128.1" fill="#31a354"><tspan x="699.565" y="128.05">Strongly disagree</tspan></text></g><g class="legendMark"><rect x="694.565" y="184.75" width="89.135" height="13.5" fill="#fff" opacity="0"></rect><text font-size="13.50" x="699.6" y="195.6" fill="#78c679"><tspan x="699.565" y="195.55">Disagree</tspan></text></g><g class="legendMark"><rect x="694.565" y="327.95" width="71.18" height="13.5" fill="#fff" opacity="0"></rect><text font-size="13.50" x="699.6" y="338.8" fill="#c2e699"><tspan x="699.565" y="338.75">Agree</tspan></text></g><g class="legendMark"><rect x="694.565" y="473.05" width="123.155" height="13.5" fill="#fff" opacity="0"></rect><text font-size="13.50" x="699.6" y="483.9" fill="#ffffcc"><tspan x="699.565" y="483.85">Strongly agree</tspan></text></g><g class="legendMark"><rect x="694.565" y="526.85" width="101.555" height="13.5" fill="#fff" opacity="0"></rect><text font-size="13.50" x="699.6" y="537.6" fill="#c8c8c8"><tspan x="699.565" y="537.65">Don&#x27;t know</tspan></text></g></g><g class="Areas"><rect x="61.634" y="106.7" width="632.931" height="428.6000000000001" opacity="0" fill="rgba(255,255,255,0)"></rect><path class="United-States_4-area" stroke-linecap="round" d="M61.6 532.7L103.8 531.8L124.9 531.5L146 531.6L167.1 529L209.3 529.3L230.4 530.9L272.6 528.1L314.8 527.5L357 527.7L399.2 532.5L441.4 531.5L483.6 531L525.8 529.5L568 532.3L610.2 528.4L652.4 532.2L694.6 531.9L694.565 535.3000000000001L61.634 535.3000000000001" fill="#c8c8c8" fill-opacity="0.7"></path><path class="United-States_3-area" stroke-linecap="round" d="M61.6 414.8L103.8 400.5L124.9 396.8L146 410.7L167.1 418.7L209.3 432.5L230.4 417.4L272.6 415.9L314.8 416.1L357 393.2L399.2 403.6L441.4 426.4L483.6 416.4L525.8 418.9L568 431.4L610.2 428.6L652.4 435.3L694.6 427.8L694.6 531.9L652.4 532.2L610.2 528.4L568 532.3L525.8 529.5L483.6 531L441.4 531.5L399.2 532.5L357 527.7L314.8 527.5L272.6 528.1L230.4 530.9L209.3 529.3L167.1 529L146 531.6L124.9 531.5L103.8 531.8L61.6 532.7" fill="#ffffcc" fill-opacity="0.7"></path><path class="United-States_2-area" stroke-linecap="round" d="M61.6 176.7L103.8 193.6L124.9 202.4L146 194.7L167.1 215.3L209.3 218.2L230.4 219.6L272.6 220.9L314.8 214.3L357 214.7L399.2 220.4L441.4 221.3L483.6 224.1L525.8 222.4L568 237.1L610.2 231.2L652.4 236L694.6 241.6L694.6 427.8L652.4 435.3L610.2 428.6L568 431.4L525.8 418.9L483.6 416.4L441.4 426.4L399.2 403.6L357 393.2L314.8 416.1L272.6 415.9L230.4 417.4L209.3 432.5L167.1 418.7L146 410.7L124.9 396.8L103.8 400.5L61.6 414.8" fill="#c2e699" fill-opacity="0.7"></path><path class="United-States_1-area" stroke-linecap="round" d="M61.6 119.8L103.8 130.6L124.9 130.2L146 123.4L167.1 134L209.3 134.6L230.4 141.9L272.6 142.6L314.8 137.2L357 139.7L399.2 137L441.4 135.1L483.6 137.5L525.8 131.9L568 139.7L610.2 139.7L652.4 142.4L694.6 141.3L694.6 241.6L652.4 236L610.2 231.2L568 237.1L525.8 222.4L483.6 224.1L441.4 221.3L399.2 220.4L357 214.7L314.8 214.3L272.6 220.9L230.4 219.6L209.3 218.2L167.1 215.3L146 194.7L124.9 202.4L103.8 193.6L61.6 176.7" fill="#78c679" fill-opacity="0.7"></path><path class="United-States_0-area" stroke-linecap="round" d="M61.6 106.7L103.8 106.7L124.9 106.7L146 106.7L167.1 106.7L209.3 106.7L230.4 106.7L272.6 106.7L314.8 106.7L357 106.7L399.2 106.7L441.4 106.7L483.6 106.7L525.8 106.7L568 106.7L610.2 106.7L652.4 106.7L694.6 106.7L694.6 141.3L652.4 142.4L610.2 139.7L568 139.7L525.8 131.9L483.6 137.5L441.4 135.1L399.2 137L357 139.7L314.8 137.2L272.6 142.6L230.4 141.9L209.3 134.6L167.1 134L146 123.4L124.9 130.2L103.8 130.6L61.6 119.8" fill="#31a354" fill-opacity="0.7"></path><path class="United-States_4-border" stroke-linecap="round" d="M61.6 532.7L103.8 531.8L124.9 531.5L146 531.6L167.1 529L209.3 529.3L230.4 530.9L272.6 528.1L314.8 527.5L357 527.7L399.2 532.5L441.4 531.5L483.6 531L525.8 529.5L568 532.3L610.2 528.4L652.4 532.2L694.6 531.9" stroke="rgb(167, 167, 167)" stroke-opacity="0.7" stroke-width="0.5" fill="none"></path><path class="United-States_3-border" stroke-linecap="round" d="M61.6 414.8L103.8 400.5L124.9 396.8L146 410.7L167.1 418.7L209.3 432.5L230.4 417.4L272.6 415.9L314.8 416.1L357 393.2L399.2 403.6L441.4 426.4L483.6 416.4L525.8 418.9L568 431.4L610.2 428.6L652.4 435.3L694.6 427.8" stroke="rgb(213, 213, 171)" stroke-opacity="0.7" stroke-width="0.5" fill="none"></path><path class="United-States_2-border" stroke-linecap="round" d="M61.6 176.7L103.8 193.6L124.9 202.4L146 194.7L167.1 215.3L209.3 218.2L230.4 219.6L272.6 220.9L314.8 214.3L357 214.7L399.2 220.4L441.4 221.3L483.6 224.1L525.8 222.4L568 237.1L610.2 231.2L652.4 236L694.6 241.6" stroke="rgb(162, 192, 128)" stroke-opacity="0.7" stroke-width="0.5" fill="none"></path><path class="United-States_1-border" stroke-linecap="round" d="M61.6 119.8L103.8 130.6L124.9 130.2L146 123.4L167.1 134L209.3 134.6L230.4 141.9L272.6 142.6L314.8 137.2L357 139.7L399.2 137L441.4 135.1L483.6 137.5L525.8 131.9L568 139.7L610.2 139.7L652.4 142.4L694.6 141.3" stroke="rgb(100, 166, 101)" stroke-opacity="0.7" stroke-width="0.5" fill="none"></path><path class="United-States_0-border" stroke-linecap="round" d="M61.6 106.7L103.8 106.7L124.9 106.7L146 106.7L167.1 106.7L209.3 106.7L230.4 106.7L272.6 106.7L314.8 106.7L357 106.7L399.2 106.7L441.4 106.7L483.6 106.7L525.8 106.7L568 106.7L610.2 106.7L652.4 106.7L694.6 106.7" stroke="rgb(41, 136, 70)" stroke-opacity="0.7" stroke-width="0.5" fill="none"></path></g></g></g><g class="SourcesFooter" style="fill:#777"><g class="clickable" style="fill:#777"><text font-size="12.60" x="15.0" y="581.6"><tspan x="15" y="581.58">Source: US General Social Survey (2017)</tspan></text></g><text font-size="12.60" x="448.3" y="581.6"><tspan x="448.306" y="581.58"><a target='_blank' style='fill: #777;' href='https://ourworldindata.org/violence-against-rights-for-children/'>OurWorldInData.org/violence-against-rights-for-children/</a> • <a style="fill: #777;" class="cclogo" href="http://creativecommons.org/licenses/by-sa/4.0/deed.en_US" target="_blank">CC BY-SA</a></tspan></text></g></g></svg>