<svg xmlns="http://www.w3.org/2000/svg" version="1.1" style="font-family: 'Helvetica Neue', Helvetica, Arial, sans-serif; font-size: 16px; background-color: white; text-rendering: optimizeLegibility; -webkit-font-smoothing: antialiased;" width="850" height="600"><g class="ChartTab"><g class="HeaderView"><g opacity="0.8" transform="translate(770, 15) scale(0.31)"><a xmlns:xlink="http://www.w3.org/1999/xlink" xlink:href="https://ourworldindata.org" target="_blank"><g><rect x="0" y="0" fill="#1B2543" width="211.2" height="130.1"/><rect x="0" y="112.2" fill="#E63912" width="211.2" height="17.9"/><g><rect x="1.2" y="12.3" fill="none" width="210.2" height="99.2"/><path fill="#FFFFFF" d="M37.8,32.2c0,12.7-7.7,19.4-17.1,19.4c-9.7,0-16.6-7.5-16.6-18.7c0-11.7,7.3-19.3,17.1-19.3 C31.3,13.7,37.8,21.3,37.8,32.2z M9.2,32.8c0,7.9,4.3,14.9,11.8,14.9c7.5,0,11.8-6.9,11.8-15.3c0-7.3-3.8-14.9-11.8-14.9 C13.1,17.5,9.2,24.8,9.2,32.8z"/><path fill="#FFFFFF" d="M62.7,43.8c0,2.7,0.1,5.1,0.2,7.2h-4.3l-0.3-4.3h-0.1c-1.3,2.1-4,4.9-8.8,4.9c-4.2,0-9.1-2.3-9.1-11.6 V24.6h4.8v14.6c0,5,1.5,8.4,5.9,8.4c3.2,0,5.5-2.2,6.3-4.4c0.3-0.7,0.4-1.6,0.4-2.5V24.6h4.8V43.8z"/><path fill="#FFFFFF" d="M67.3,32.8c0-3.1-0.1-5.8-0.2-8.2h4.2l0.2,5.2h0.2c1.2-3.5,4.1-5.8,7.3-5.8c0.5,0,0.9,0.1,1.4,0.2v4.5 c-0.5-0.1-1-0.2-1.6-0.2c-3.4,0-5.8,2.6-6.5,6.2c-0.1,0.7-0.2,1.4-0.2,2.2V51h-4.8V32.8z"/><path fill="#FFFFFF" d="M95.4,51l-9.4-36.8h5l4.4,18.6c1.1,4.6,2.1,9.2,2.7,12.7h0.1c0.6-3.7,1.8-8,3-12.8l4.9-18.5h5l4.5,18.7 c1,4.4,2,8.7,2.6,12.6h0.1c0.8-4,1.8-8.1,3-12.7l4.9-18.5h4.9L120.6,51h-5L111,31.9c-1.1-4.7-1.9-8.3-2.4-12h-0.1 c-0.7,3.7-1.5,7.3-2.8,12L100.4,51H95.4z"/><path fill="#FFFFFF" d="M154.9,37.6c0,9.8-6.8,14-13.2,14c-7.2,0-12.7-5.2-12.7-13.6c0-8.8,5.8-14,13.1-14 C149.8,24,154.9,29.5,154.9,37.6z M133.9,37.9c0,5.8,3.3,10.1,8,10.1c4.6,0,8-4.3,8-10.3c0-4.5-2.2-10.1-7.9-10.1 C136.3,27.6,133.9,32.8,133.9,37.9z"/><path fill="#FFFFFF" d="M158.2,32.8c0-3.1-0.1-5.8-0.2-8.2h4.2l0.2,5.2h0.2c1.2-3.5,4.1-5.8,7.3-5.8c0.5,0,0.9,0.1,1.4,0.2v4.5 c-0.5-0.1-1-0.2-1.6-0.2c-3.4,0-5.8,2.6-6.5,6.2c-0.1,0.7-0.2,1.4-0.2,2.2V51h-4.8V32.8z"/><path fill="#FFFFFF" d="M173.5,12.3h4.8V51h-4.8V12.3z"/><path fill="#FFFFFF" d="M206.5,12.3v31.9c0,2.3,0.1,5,0.2,6.8h-4.3l-0.2-4.6H202c-1.5,2.9-4.7,5.2-9,5.2 c-6.4,0-11.3-5.4-11.3-13.4c-0.1-8.8,5.4-14.2,11.9-14.2c4,0,6.8,1.9,8,4h0.1V12.3H206.5z M201.7,35.4c0-0.6-0.1-1.4-0.2-2 c-0.7-3.1-3.3-5.6-6.9-5.6c-5,0-7.9,4.4-7.9,10.2c0,5.3,2.6,9.8,7.8,9.8c3.2,0,6.2-2.1,7.1-5.7c0.2-0.7,0.2-1.3,0.2-2.1V35.4z"/><path fill="#FFFFFF" d="M42.8,64c0.1,1.6-1.1,2.9-3.1,2.9c-1.7,0-2.9-1.3-2.9-2.9c0-1.7,1.3-3,3-3C41.7,61,42.8,62.3,42.8,64z M37.4,97.8V71.4h4.8v26.4H37.4z"/><path fill="#FFFFFF" d="M47.5,78.6c0-2.7-0.1-5-0.2-7.1h4.3l0.3,4.4h0.1c1.3-2.5,4.4-5,8.8-5c3.7,0,9.4,2.2,9.4,11.2v15.8h-4.8 V82.6c0-4.3-1.6-7.8-6.1-7.8c-3.2,0-5.6,2.2-6.5,4.9c-0.2,0.6-0.3,1.4-0.3,2.2v15.9h-4.8V78.6z"/><path fill="#FFFFFF" d="M84,61.6c2.9-0.4,6.3-0.8,10.1-0.8c6.8,0,11.7,1.6,14.9,4.6c3.3,3,5.2,7.3,5.2,13.2c0,6-1.9,10.9-5.3,14.3 c-3.4,3.4-9.1,5.3-16.3,5.3c-3.4,0-6.2-0.2-8.6-0.4V61.6z M88.8,94.1c1.2,0.2,3,0.3,4.8,0.3c10.2,0,15.7-5.7,15.7-15.6 c0.1-8.7-4.9-14.2-14.9-14.2c-2.5,0-4.3,0.2-5.6,0.5V94.1z"/><path fill="#FFFFFF" d="M132.1,97.8l-0.4-3.3h-0.2c-1.5,2.1-4.3,3.9-8.1,3.9c-5.4,0-8.1-3.8-8.1-7.6c0-6.4,5.7-9.9,15.9-9.8v-0.5 c0-2.2-0.6-6.1-6-6.1c-2.5,0-5,0.8-6.9,2l-1.1-3.2c2.2-1.4,5.4-2.3,8.7-2.3c8.1,0,10.1,5.5,10.1,10.8v9.9c0,2.3,0.1,4.5,0.4,6.3 H132.1z M131.4,84.4c-5.3-0.1-11.2,0.8-11.2,5.9c0,3.1,2.1,4.6,4.5,4.6c3.4,0,5.6-2.2,6.4-4.4c0.2-0.5,0.3-1,0.3-1.5V84.4z"/><path fill="#FFFFFF" d="M146.6,63.9v7.6h6.9v3.7h-6.9v14.2c0,3.3,0.9,5.1,3.6,5.1c1.3,0,2.2-0.2,2.8-0.3l0.2,3.6 c-0.9,0.4-2.4,0.7-4.3,0.7c-2.2,0-4-0.7-5.2-2c-1.4-1.4-1.9-3.8-1.9-6.9V75.1h-4.1v-3.7h4.1v-6.3L146.6,63.9z"/><path fill="#FFFFFF" d="M171.4,97.8l-0.4-3.3h-0.2c-1.5,2.1-4.3,3.9-8.1,3.9c-5.4,0-8.1-3.8-8.1-7.6c0-6.4,5.7-9.9,15.9-9.8v-0.5 c0-2.2-0.6-6.1-6-6.1c-2.5,0-5,0.8-6.9,2l-1.1-3.2c2.2-1.4,5.4-2.3,8.7-2.3c8.1,0,10.1,5.5,10.1,10.8v9.9c0,2.3,0.1,4.5,0.4,6.3 H171.4z M170.7,84.4c-5.3-0.1-11.2,0.8-11.2,5.9c0,3.1,2.1,4.6,4.5,4.6c3.4,0,5.6-2.2,6.4-4.4c0.2-0.5,0.3-1,0.3-1.5V84.4z"/></g></g></a></g><a href="https://ourworldindata.org/grapher/pig-yields-meat-per-animal-in-hectograms-100-grams" target="_blank"><text font-size="24.00" x="15.0" y="34.2" fill="#555"><tspan x="15" y="34.2">Pig meat yields, kilograms per animal</tspan></text></a><text font-size="12.80" x="15.0" y="51.2" fill="#666"><tspan x="15" y="51.239999999999995">Pigmeat yields, measured in kilograms produced per animal.</tspan></text></g><g class="LineChart"><defs><clipPath id="boundsClip-18"><rect x="45.42400000000001" y="0" width="830" height="965.8"></rect></clipPath></defs><g class="AxisBoxView"><g class="HorizontalAxis"><text x="55.4" y="557.9" fill="#666" text-anchor="middle" font-size="14.4">1961</text><text x="166.5" y="557.9" fill="#666" text-anchor="middle" font-size="14.4">1970</text><text x="289.9" y="557.9" fill="#666" text-anchor="middle" font-size="14.4">1980</text><text x="413.3" y="557.9" fill="#666" text-anchor="middle" font-size="14.4">1990</text><text x="536.7" y="557.9" fill="#666" text-anchor="middle" font-size="14.4">2000</text><text x="660.2" y="557.9" fill="#666" text-anchor="middle" font-size="14.4">2010</text><text x="709.5" y="557.9" fill="#666" text-anchor="middle" font-size="14.4">2014</text></g><g class="VerticalAxis"><text x="50.42" y="538.5" fill="#666" dominant-baseline="middle" text-anchor="end" font-size="14.4">0 kg</text><text x="50.42" y="442.7" fill="#666" dominant-baseline="middle" text-anchor="end" font-size="14.4">20 kg</text><text x="50.42" y="347" fill="#666" dominant-baseline="middle" text-anchor="end" font-size="14.4">40 kg</text><text x="50.42" y="251.2" fill="#666" dominant-baseline="middle" text-anchor="end" font-size="14.4">60 kg</text><text x="50.42" y="155.4" fill="#666" dominant-baseline="middle" text-anchor="end" font-size="14.4">80 kg</text></g><g class="AxisGridLines"><line x1="55.42" y1="538.5" x2="709.52" y2="538.5" stroke="#ccc"></line><line x1="55.42" y1="442.7" x2="709.52" y2="442.7" stroke="#ddd" stroke-dasharray="3,2"></line><line x1="55.42" y1="347" x2="709.52" y2="347" stroke="#ddd" stroke-dasharray="3,2"></line><line x1="55.42" y1="251.2" x2="709.52" y2="251.2" stroke="#ddd" stroke-dasharray="3,2"></line><line x1="55.42" y1="155.4" x2="709.52" y2="155.4" stroke="#ddd" stroke-dasharray="3,2"></line></g><g class="AxisGridLines"><line x1="166.5" y1="538.50" x2="166.5" y2="75.00" stroke="#ddd" stroke-dasharray="3,2"></line><line x1="289.9" y1="538.50" x2="289.9" y2="75.00" stroke="#ddd" stroke-dasharray="3,2"></line><line x1="413.3" y1="538.50" x2="413.3" y2="75.00" stroke="#ddd" stroke-dasharray="3,2"></line><line x1="536.7" y1="538.50" x2="536.7" y2="75.00" stroke="#ddd" stroke-dasharray="3,2"></line><line x1="660.2" y1="538.50" x2="660.2" y2="75.00" stroke="#ddd" stroke-dasharray="3,2"></line></g></g><g clip-path="url(#boundsClip-18)"><g class="HeightedLegend clickable"><g class="legendMark"><rect x="719.52" y="68.6" width="115.48" height="12.8" fill="#fff" opacity="0"></rect><rect x="719.52" y="73.75" width="10" height="2.5" fill="#2a939b"></rect><text font-size="12.80" x="734.5" y="78.8" fill="#333"><tspan x="734.52" y="78.83999999999999">Northern America</tspan></text></g><g class="legendMark"><rect x="719.52" y="111.19999999999999" width="56.472" height="12.8" fill="#fff" opacity="0"></rect><rect x="719.52" y="116.35" width="10" height="2.5" fill="#a652ba"></rect><text font-size="12.80" x="734.5" y="121.4" fill="#333"><tspan x="734.52" y="121.43999999999998">Europe</tspan></text></g><g class="legendMark"><rect x="719.52" y="132.79999999999998" width="99.224" height="12.8" fill="#fff" opacity="0"></rect><rect x="719.52" y="137.95" width="10" height="2.5" fill="#f6a324"></rect><text font-size="12.80" x="734.5" y="143.0" fill="#333"><tspan x="734.52" y="143.04">South America</tspan></text></g><g class="legendMark"><rect x="719.52" y="157.2" width="48.408" height="12.8" fill="#fff" opacity="0"></rect><rect x="719.52" y="162.35" width="10" height="2.5" fill="#34983f"></rect><text font-size="12.80" x="734.5" y="167.4" fill="#333"><tspan x="734.52" y="167.44">World</tspan></text></g><g class="legendMark"><rect x="719.52" y="182.1" width="39.96" height="12.8" fill="#fff" opacity="0"></rect><rect x="719.52" y="187.25" width="10" height="2.5" fill="#ca2628"></rect><text font-size="12.80" x="734.5" y="192.3" fill="#333"><tspan x="734.52" y="192.34">Asia</tspan></text></g><g class="legendMark"><rect x="719.52" y="292.20000000000005" width="47.768" height="12.8" fill="#fff" opacity="0"></rect><rect x="719.52" y="297.35" width="10" height="2.5" fill="#3360a9"></rect><text font-size="12.80" x="734.5" y="302.4" fill="#333"><tspan x="734.52" y="302.44000000000005">Africa</tspan></text></g></g><g class="Lines"><rect x="55" y="75" width="654" height="464" fill="rgba(255,255,255,0)" opacity="0"></rect><g class="key-Northern-America_0"><path stroke="#2a939b" stroke-linecap="round" d="M55 234L68 228L80 226L92 222L105 221L117 211L130 210L142 210L154 207L167 202L179 202L191 194L204 185L216 180L228 183L241 180L253 174L265 169L278 168L290 169L302 168L315 167L327 166L339 165L352 163L364 159L376 158L389 155L401 156L413 152L426 150L438 147L450 143L463 140L475 138L487 138L500 133L512 132L524 129L537 122L549 119L561 117L574 114L586 113L598 120L611 106L623 100L636 104L648 101L660 98L673 93L685 91L697 88L710 75" fill="none" stroke-width="1.5"></path><g fill="#2a939b"><circle cx="55" cy="234" r="2"></circle><circle cx="68" cy="228" r="2"></circle><circle cx="80" cy="226" r="2"></circle><circle cx="92" cy="222" r="2"></circle><circle cx="105" cy="221" r="2"></circle><circle cx="117" cy="211" r="2"></circle><circle cx="130" cy="210" r="2"></circle><circle cx="142" cy="210" r="2"></circle><circle cx="154" cy="207" r="2"></circle><circle cx="167" cy="202" r="2"></circle><circle cx="179" cy="202" r="2"></circle><circle cx="191" cy="194" r="2"></circle><circle cx="204" cy="185" r="2"></circle><circle cx="216" cy="180" r="2"></circle><circle cx="228" cy="183" r="2"></circle><circle cx="241" cy="180" r="2"></circle><circle cx="253" cy="174" r="2"></circle><circle cx="265" cy="169" r="2"></circle><circle cx="278" cy="168" r="2"></circle><circle cx="290" cy="169" r="2"></circle><circle cx="302" cy="168" r="2"></circle><circle cx="315" cy="167" r="2"></circle><circle cx="327" cy="166" r="2"></circle><circle cx="339" cy="165" r="2"></circle><circle cx="352" cy="163" r="2"></circle><circle cx="364" cy="159" r="2"></circle><circle cx="376" cy="158" r="2"></circle><circle cx="389" cy="155" r="2"></circle><circle cx="401" cy="156" r="2"></circle><circle cx="413" cy="152" r="2"></circle><circle cx="426" cy="150" r="2"></circle><circle cx="438" cy="147" r="2"></circle><circle cx="450" cy="143" r="2"></circle><circle cx="463" cy="140" r="2"></circle><circle cx="475" cy="138" r="2"></circle><circle cx="487" cy="138" r="2"></circle><circle cx="500" cy="133" r="2"></circle><circle cx="512" cy="132" r="2"></circle><circle cx="524" cy="129" r="2"></circle><circle cx="537" cy="122" r="2"></circle><circle cx="549" cy="119" r="2"></circle><circle cx="561" cy="117" r="2"></circle><circle cx="574" cy="114" r="2"></circle><circle cx="586" cy="113" r="2"></circle><circle cx="598" cy="120" r="2"></circle><circle cx="611" cy="106" r="2"></circle><circle cx="623" cy="100" r="2"></circle><circle cx="636" cy="104" r="2"></circle><circle cx="648" cy="101" r="2"></circle><circle cx="660" cy="98" r="2"></circle><circle cx="673" cy="93" r="2"></circle><circle cx="685" cy="91" r="2"></circle><circle cx="697" cy="88" r="2"></circle><circle cx="710" cy="75" r="2"></circle></g></g><g class="key-World_0"><path stroke="#34983f" stroke-linecap="round" d="M55 223L68 227L80 233L92 236L105 234L117 233L130 230L142 227L154 223L167 220L179 222L191 223L204 223L216 216L228 221L241 224L253 219L265 210L278 206L290 205L302 200L315 196L327 194L339 190L352 186L364 191L376 184L389 177L401 178L413 175L426 174L438 173L450 173L463 172L475 171L487 169L500 165L512 163L524 169L537 166L549 165L561 164L574 164L586 166L598 164L611 162L623 161L636 160L648 159L660 167L673 167L685 166L697 166L710 164" fill="none" stroke-width="1.5"></path><g fill="#34983f"><circle cx="55" cy="223" r="2"></circle><circle cx="68" cy="227" r="2"></circle><circle cx="80" cy="233" r="2"></circle><circle cx="92" cy="236" r="2"></circle><circle cx="105" cy="234" r="2"></circle><circle cx="117" cy="233" r="2"></circle><circle cx="130" cy="230" r="2"></circle><circle cx="142" cy="227" r="2"></circle><circle cx="154" cy="223" r="2"></circle><circle cx="167" cy="220" r="2"></circle><circle cx="179" cy="222" r="2"></circle><circle cx="191" cy="223" r="2"></circle><circle cx="204" cy="223" r="2"></circle><circle cx="216" cy="216" r="2"></circle><circle cx="228" cy="221" r="2"></circle><circle cx="241" cy="224" r="2"></circle><circle cx="253" cy="219" r="2"></circle><circle cx="265" cy="210" r="2"></circle><circle cx="278" cy="206" r="2"></circle><circle cx="290" cy="205" r="2"></circle><circle cx="302" cy="200" r="2"></circle><circle cx="315" cy="196" r="2"></circle><circle cx="327" cy="194" r="2"></circle><circle cx="339" cy="190" r="2"></circle><circle cx="352" cy="186" r="2"></circle><circle cx="364" cy="191" r="2"></circle><circle cx="376" cy="184" r="2"></circle><circle cx="389" cy="177" r="2"></circle><circle cx="401" cy="178" r="2"></circle><circle cx="413" cy="175" r="2"></circle><circle cx="426" cy="174" r="2"></circle><circle cx="438" cy="173" r="2"></circle><circle cx="450" cy="173" r="2"></circle><circle cx="463" cy="172" r="2"></circle><circle cx="475" cy="171" r="2"></circle><circle cx="487" cy="169" r="2"></circle><circle cx="500" cy="165" r="2"></circle><circle cx="512" cy="163" r="2"></circle><circle cx="524" cy="169" r="2"></circle><circle cx="537" cy="166" r="2"></circle><circle cx="549" cy="165" r="2"></circle><circle cx="561" cy="164" r="2"></circle><circle cx="574" cy="164" r="2"></circle><circle cx="586" cy="166" r="2"></circle><circle cx="598" cy="164" r="2"></circle><circle cx="611" cy="162" r="2"></circle><circle cx="623" cy="161" r="2"></circle><circle cx="636" cy="160" r="2"></circle><circle cx="648" cy="159" r="2"></circle><circle cx="660" cy="167" r="2"></circle><circle cx="673" cy="167" r="2"></circle><circle cx="685" cy="166" r="2"></circle><circle cx="697" cy="166" r="2"></circle><circle cx="710" cy="164" r="2"></circle></g></g><g class="key-South-America_0"><path stroke="#f6a324" stroke-linecap="round" d="M55 233L68 233L80 228L92 235L105 227L117 225L130 231L142 226L154 227L167 223L179 221L191 226L204 224L216 225L228 224L241 223L253 224L265 228L278 216L290 221L302 218L315 220L327 223L339 226L352 230L364 227L376 223L389 193L401 192L413 191L426 188L438 189L450 173L463 181L475 181L487 181L500 180L512 175L524 189L537 194L549 186L561 185L574 171L586 166L598 129L611 118L623 132L636 119L648 116L660 117L673 117L685 130L697 141L710 139" fill="none" stroke-width="1.5"></path><g fill="#f6a324"><circle cx="55" cy="233" r="2"></circle><circle cx="68" cy="233" r="2"></circle><circle cx="80" cy="228" r="2"></circle><circle cx="92" cy="235" r="2"></circle><circle cx="105" cy="227" r="2"></circle><circle cx="117" cy="225" r="2"></circle><circle cx="130" cy="231" r="2"></circle><circle cx="142" cy="226" r="2"></circle><circle cx="154" cy="227" r="2"></circle><circle cx="167" cy="223" r="2"></circle><circle cx="179" cy="221" r="2"></circle><circle cx="191" cy="226" r="2"></circle><circle cx="204" cy="224" r="2"></circle><circle cx="216" cy="225" r="2"></circle><circle cx="228" cy="224" r="2"></circle><circle cx="241" cy="223" r="2"></circle><circle cx="253" cy="224" r="2"></circle><circle cx="265" cy="228" r="2"></circle><circle cx="278" cy="216" r="2"></circle><circle cx="290" cy="221" r="2"></circle><circle cx="302" cy="218" r="2"></circle><circle cx="315" cy="220" r="2"></circle><circle cx="327" cy="223" r="2"></circle><circle cx="339" cy="226" r="2"></circle><circle cx="352" cy="230" r="2"></circle><circle cx="364" cy="227" r="2"></circle><circle cx="376" cy="223" r="2"></circle><circle cx="389" cy="193" r="2"></circle><circle cx="401" cy="192" r="2"></circle><circle cx="413" cy="191" r="2"></circle><circle cx="426" cy="188" r="2"></circle><circle cx="438" cy="189" r="2"></circle><circle cx="450" cy="173" r="2"></circle><circle cx="463" cy="181" r="2"></circle><circle cx="475" cy="181" r="2"></circle><circle cx="487" cy="181" r="2"></circle><circle cx="500" cy="180" r="2"></circle><circle cx="512" cy="175" r="2"></circle><circle cx="524" cy="189" r="2"></circle><circle cx="537" cy="194" r="2"></circle><circle cx="549" cy="186" r="2"></circle><circle cx="561" cy="185" r="2"></circle><circle cx="574" cy="171" r="2"></circle><circle cx="586" cy="166" r="2"></circle><circle cx="598" cy="129" r="2"></circle><circle cx="611" cy="118" r="2"></circle><circle cx="623" cy="132" r="2"></circle><circle cx="636" cy="119" r="2"></circle><circle cx="648" cy="116" r="2"></circle><circle cx="660" cy="117" r="2"></circle><circle cx="673" cy="117" r="2"></circle><circle cx="685" cy="130" r="2"></circle><circle cx="697" cy="141" r="2"></circle><circle cx="710" cy="139" r="2"></circle></g></g><g class="key-Europe_0"><path stroke="#a652ba" stroke-linecap="round" d="M55 180L68 184L80 179L92 173L105 170L117 165L130 165L142 160L154 153L167 147L179 147L191 151L204 152L216 146L228 158L241 158L253 150L265 153L278 152L290 155L302 158L315 156L327 151L339 150L352 148L364 148L376 146L389 141L401 139L413 138L426 140L438 137L450 143L463 144L475 137L487 135L500 133L512 130L524 132L537 132L549 124L561 123L574 122L586 124L598 121L611 128L623 125L636 121L648 121L660 119L673 120L685 115L697 116L710 118" fill="none" stroke-width="1.5"></path><g fill="#a652ba"><circle cx="55" cy="180" r="2"></circle><circle cx="68" cy="184" r="2"></circle><circle cx="80" cy="179" r="2"></circle><circle cx="92" cy="173" r="2"></circle><circle cx="105" cy="170" r="2"></circle><circle cx="117" cy="165" r="2"></circle><circle cx="130" cy="165" r="2"></circle><circle cx="142" cy="160" r="2"></circle><circle cx="154" cy="153" r="2"></circle><circle cx="167" cy="147" r="2"></circle><circle cx="179" cy="147" r="2"></circle><circle cx="191" cy="151" r="2"></circle><circle cx="204" cy="152" r="2"></circle><circle cx="216" cy="146" r="2"></circle><circle cx="228" cy="158" r="2"></circle><circle cx="241" cy="158" r="2"></circle><circle cx="253" cy="150" r="2"></circle><circle cx="265" cy="153" r="2"></circle><circle cx="278" cy="152" r="2"></circle><circle cx="290" cy="155" r="2"></circle><circle cx="302" cy="158" r="2"></circle><circle cx="315" cy="156" r="2"></circle><circle cx="327" cy="151" r="2"></circle><circle cx="339" cy="150" r="2"></circle><circle cx="352" cy="148" r="2"></circle><circle cx="364" cy="148" r="2"></circle><circle cx="376" cy="146" r="2"></circle><circle cx="389" cy="141" r="2"></circle><circle cx="401" cy="139" r="2"></circle><circle cx="413" cy="138" r="2"></circle><circle cx="426" cy="140" r="2"></circle><circle cx="438" cy="137" r="2"></circle><circle cx="450" cy="143" r="2"></circle><circle cx="463" cy="144" r="2"></circle><circle cx="475" cy="137" r="2"></circle><circle cx="487" cy="135" r="2"></circle><circle cx="500" cy="133" r="2"></circle><circle cx="512" cy="130" r="2"></circle><circle cx="524" cy="132" r="2"></circle><circle cx="537" cy="132" r="2"></circle><circle cx="549" cy="124" r="2"></circle><circle cx="561" cy="123" r="2"></circle><circle cx="574" cy="122" r="2"></circle><circle cx="586" cy="124" r="2"></circle><circle cx="598" cy="121" r="2"></circle><circle cx="611" cy="128" r="2"></circle><circle cx="623" cy="125" r="2"></circle><circle cx="636" cy="121" r="2"></circle><circle cx="648" cy="121" r="2"></circle><circle cx="660" cy="119" r="2"></circle><circle cx="673" cy="120" r="2"></circle><circle cx="685" cy="115" r="2"></circle><circle cx="697" cy="116" r="2"></circle><circle cx="710" cy="118" r="2"></circle></g></g><g class="key-Asia_0"><path stroke="#ca2628" stroke-linecap="round" d="M55 325L68 325L80 325L92 323L105 322L117 320L130 314L142 313L154 311L167 312L179 314L191 315L204 314L216 310L228 307L241 313L253 313L265 290L278 276L290 267L302 251L315 242L327 241L339 232L352 221L364 229L376 216L389 205L401 206L413 201L426 197L438 193L450 191L463 188L475 188L487 185L500 182L512 181L524 189L537 183L549 185L561 185L574 185L586 188L598 187L611 183L623 184L636 184L648 181L660 194L673 194L685 192L697 190L710 189" fill="none" stroke-width="1.5"></path><g fill="#ca2628"><circle cx="55" cy="325" r="2"></circle><circle cx="68" cy="325" r="2"></circle><circle cx="80" cy="325" r="2"></circle><circle cx="92" cy="323" r="2"></circle><circle cx="105" cy="322" r="2"></circle><circle cx="117" cy="320" r="2"></circle><circle cx="130" cy="314" r="2"></circle><circle cx="142" cy="313" r="2"></circle><circle cx="154" cy="311" r="2"></circle><circle cx="167" cy="312" r="2"></circle><circle cx="179" cy="314" r="2"></circle><circle cx="191" cy="315" r="2"></circle><circle cx="204" cy="314" r="2"></circle><circle cx="216" cy="310" r="2"></circle><circle cx="228" cy="307" r="2"></circle><circle cx="241" cy="313" r="2"></circle><circle cx="253" cy="313" r="2"></circle><circle cx="265" cy="290" r="2"></circle><circle cx="278" cy="276" r="2"></circle><circle cx="290" cy="267" r="2"></circle><circle cx="302" cy="251" r="2"></circle><circle cx="315" cy="242" r="2"></circle><circle cx="327" cy="241" r="2"></circle><circle cx="339" cy="232" r="2"></circle><circle cx="352" cy="221" r="2"></circle><circle cx="364" cy="229" r="2"></circle><circle cx="376" cy="216" r="2"></circle><circle cx="389" cy="205" r="2"></circle><circle cx="401" cy="206" r="2"></circle><circle cx="413" cy="201" r="2"></circle><circle cx="426" cy="197" r="2"></circle><circle cx="438" cy="193" r="2"></circle><circle cx="450" cy="191" r="2"></circle><circle cx="463" cy="188" r="2"></circle><circle cx="475" cy="188" r="2"></circle><circle cx="487" cy="185" r="2"></circle><circle cx="500" cy="182" r="2"></circle><circle cx="512" cy="181" r="2"></circle><circle cx="524" cy="189" r="2"></circle><circle cx="537" cy="183" r="2"></circle><circle cx="549" cy="185" r="2"></circle><circle cx="561" cy="185" r="2"></circle><circle cx="574" cy="185" r="2"></circle><circle cx="586" cy="188" r="2"></circle><circle cx="598" cy="187" r="2"></circle><circle cx="611" cy="183" r="2"></circle><circle cx="623" cy="184" r="2"></circle><circle cx="636" cy="184" r="2"></circle><circle cx="648" cy="181" r="2"></circle><circle cx="660" cy="194" r="2"></circle><circle cx="673" cy="194" r="2"></circle><circle cx="685" cy="192" r="2"></circle><circle cx="697" cy="190" r="2"></circle><circle cx="710" cy="189" r="2"></circle></g></g><g class="key-Africa_0"><path stroke="#3360a9" stroke-linecap="round" d="M55 308L68 309L80 309L92 309L105 314L117 318L130 307L142 317L154 317L167 317L179 316L191 318L204 317L216 320L228 322L241 324L253 322L265 322L278 321L290 320L302 319L315 317L327 314L339 312L352 315L364 318L376 315L389 316L401 314L413 307L426 309L438 302L450 301L463 299L475 297L487 295L500 294L512 297L524 299L537 302L549 303L561 304L574 298L586 298L598 296L611 298L623 284L636 274L648 270L660 297L673 300L685 300L697 302L710 299" fill="none" stroke-width="1.5"></path><g fill="#3360a9"><circle cx="55" cy="308" r="2"></circle><circle cx="68" cy="309" r="2"></circle><circle cx="80" cy="309" r="2"></circle><circle cx="92" cy="309" r="2"></circle><circle cx="105" cy="314" r="2"></circle><circle cx="117" cy="318" r="2"></circle><circle cx="130" cy="307" r="2"></circle><circle cx="142" cy="317" r="2"></circle><circle cx="154" cy="317" r="2"></circle><circle cx="167" cy="317" r="2"></circle><circle cx="179" cy="316" r="2"></circle><circle cx="191" cy="318" r="2"></circle><circle cx="204" cy="317" r="2"></circle><circle cx="216" cy="320" r="2"></circle><circle cx="228" cy="322" r="2"></circle><circle cx="241" cy="324" r="2"></circle><circle cx="253" cy="322" r="2"></circle><circle cx="265" cy="322" r="2"></circle><circle cx="278" cy="321" r="2"></circle><circle cx="290" cy="320" r="2"></circle><circle cx="302" cy="319" r="2"></circle><circle cx="315" cy="317" r="2"></circle><circle cx="327" cy="314" r="2"></circle><circle cx="339" cy="312" r="2"></circle><circle cx="352" cy="315" r="2"></circle><circle cx="364" cy="318" r="2"></circle><circle cx="376" cy="315" r="2"></circle><circle cx="389" cy="316" r="2"></circle><circle cx="401" cy="314" r="2"></circle><circle cx="413" cy="307" r="2"></circle><circle cx="426" cy="309" r="2"></circle><circle cx="438" cy="302" r="2"></circle><circle cx="450" cy="301" r="2"></circle><circle cx="463" cy="299" r="2"></circle><circle cx="475" cy="297" r="2"></circle><circle cx="487" cy="295" r="2"></circle><circle cx="500" cy="294" r="2"></circle><circle cx="512" cy="297" r="2"></circle><circle cx="524" cy="299" r="2"></circle><circle cx="537" cy="302" r="2"></circle><circle cx="549" cy="303" r="2"></circle><circle cx="561" cy="304" r="2"></circle><circle cx="574" cy="298" r="2"></circle><circle cx="586" cy="298" r="2"></circle><circle cx="598" cy="296" r="2"></circle><circle cx="611" cy="298" r="2"></circle><circle cx="623" cy="284" r="2"></circle><circle cx="636" cy="274" r="2"></circle><circle cx="648" cy="270" r="2"></circle><circle cx="660" cy="297" r="2"></circle><circle cx="673" cy="300" r="2"></circle><circle cx="685" cy="300" r="2"></circle><circle cx="697" cy="302" r="2"></circle><circle cx="710" cy="299" r="2"></circle></g></g></g></g></g><g style="fill: #777;" class="SourcesFooter"><g style="fill: #777;" class="clickable"><text font-size="11.20" x="15.0" y="581.9"><tspan x="15" y="581.86">Source: UN Food and Agricultural Organization (FAO)</tspan></text></g><text font-size="11.20" x="448.5" y="581.9"><tspan x="448.48800000000006" y="581.86"><a target='_blank' style='fill: #777;' href='https://ourworldindata.org/meat-and-seafood-production-consumption/'>OurWorldInData.org/meat-and-seafood-production-consumption/</a> • <a style="fill: #777;" href="http://creativecommons.org/licenses/by-sa/4.0/deed.en_US" target="_blank">CC BY-SA</a></tspan></text></g></g></svg>