<svg xmlns="http://www.w3.org/2000/svg" version="1.1" style="font-family:&#x27;Helvetica Neue&#x27;, Helvetica, Arial, sans-serif;font-size:18px;background-color:white;text-rendering:optimizeLegibility;-webkit-font-smoothing:antialiased" width="850" height="600"><g class="ChartTab"><g class="HeaderView"><g opacity="0.8" transform="translate(778, 15) scale(0.27)"><a xmlns:xlink="http://www.w3.org/1999/xlink" xlink:href="https://ourworldindata.org" target="_blank"><g><rect x="0" y="0" fill="#1B2543" width="211.2" height="130.1"/><rect x="0" y="112.2" fill="#E63912" width="211.2" height="17.9"/><g><rect x="1.2" y="12.3" fill="none" width="210.2" height="99.2"/><path fill="#FFFFFF" d="M37.8,32.2c0,12.7-7.7,19.4-17.1,19.4c-9.7,0-16.6-7.5-16.6-18.7c0-11.7,7.3-19.3,17.1-19.3 C31.3,13.7,37.8,21.3,37.8,32.2z M9.2,32.8c0,7.9,4.3,14.9,11.8,14.9c7.5,0,11.8-6.9,11.8-15.3c0-7.3-3.8-14.9-11.8-14.9 C13.1,17.5,9.2,24.8,9.2,32.8z"/><path fill="#FFFFFF" d="M62.7,43.8c0,2.7,0.1,5.1,0.2,7.2h-4.3l-0.3-4.3h-0.1c-1.3,2.1-4,4.9-8.8,4.9c-4.2,0-9.1-2.3-9.1-11.6 V24.6h4.8v14.6c0,5,1.5,8.4,5.9,8.4c3.2,0,5.5-2.2,6.3-4.4c0.3-0.7,0.4-1.6,0.4-2.5V24.6h4.8V43.8z"/><path fill="#FFFFFF" d="M67.3,32.8c0-3.1-0.1-5.8-0.2-8.2h4.2l0.2,5.2h0.2c1.2-3.5,4.1-5.8,7.3-5.8c0.5,0,0.9,0.1,1.4,0.2v4.5 c-0.5-0.1-1-0.2-1.6-0.2c-3.4,0-5.8,2.6-6.5,6.2c-0.1,0.7-0.2,1.4-0.2,2.2V51h-4.8V32.8z"/><path fill="#FFFFFF" d="M95.4,51l-9.4-36.8h5l4.4,18.6c1.1,4.6,2.1,9.2,2.7,12.7h0.1c0.6-3.7,1.8-8,3-12.8l4.9-18.5h5l4.5,18.7 c1,4.4,2,8.7,2.6,12.6h0.1c0.8-4,1.8-8.1,3-12.7l4.9-18.5h4.9L120.6,51h-5L111,31.9c-1.1-4.7-1.9-8.3-2.4-12h-0.1 c-0.7,3.7-1.5,7.3-2.8,12L100.4,51H95.4z"/><path fill="#FFFFFF" d="M154.9,37.6c0,9.8-6.8,14-13.2,14c-7.2,0-12.7-5.2-12.7-13.6c0-8.8,5.8-14,13.1-14 C149.8,24,154.9,29.5,154.9,37.6z M133.9,37.9c0,5.8,3.3,10.1,8,10.1c4.6,0,8-4.3,8-10.3c0-4.5-2.2-10.1-7.9-10.1 C136.3,27.6,133.9,32.8,133.9,37.9z"/><path fill="#FFFFFF" d="M158.2,32.8c0-3.1-0.1-5.8-0.2-8.2h4.2l0.2,5.2h0.2c1.2-3.5,4.1-5.8,7.3-5.8c0.5,0,0.9,0.1,1.4,0.2v4.5 c-0.5-0.1-1-0.2-1.6-0.2c-3.4,0-5.8,2.6-6.5,6.2c-0.1,0.7-0.2,1.4-0.2,2.2V51h-4.8V32.8z"/><path fill="#FFFFFF" d="M173.5,12.3h4.8V51h-4.8V12.3z"/><path fill="#FFFFFF" d="M206.5,12.3v31.9c0,2.3,0.1,5,0.2,6.8h-4.3l-0.2-4.6H202c-1.5,2.9-4.7,5.2-9,5.2 c-6.4,0-11.3-5.4-11.3-13.4c-0.1-8.8,5.4-14.2,11.9-14.2c4,0,6.8,1.9,8,4h0.1V12.3H206.5z M201.7,35.4c0-0.6-0.1-1.4-0.2-2 c-0.7-3.1-3.3-5.6-6.9-5.6c-5,0-7.9,4.4-7.9,10.2c0,5.3,2.6,9.8,7.8,9.8c3.2,0,6.2-2.1,7.1-5.7c0.2-0.7,0.2-1.3,0.2-2.1V35.4z"/><path fill="#FFFFFF" d="M42.8,64c0.1,1.6-1.1,2.9-3.1,2.9c-1.7,0-2.9-1.3-2.9-2.9c0-1.7,1.3-3,3-3C41.7,61,42.8,62.3,42.8,64z M37.4,97.8V71.4h4.8v26.4H37.4z"/><path fill="#FFFFFF" d="M47.5,78.6c0-2.7-0.1-5-0.2-7.1h4.3l0.3,4.4h0.1c1.3-2.5,4.4-5,8.8-5c3.7,0,9.4,2.2,9.4,11.2v15.8h-4.8 V82.6c0-4.3-1.6-7.8-6.1-7.8c-3.2,0-5.6,2.2-6.5,4.9c-0.2,0.6-0.3,1.4-0.3,2.2v15.9h-4.8V78.6z"/><path fill="#FFFFFF" d="M84,61.6c2.9-0.4,6.3-0.8,10.1-0.8c6.8,0,11.7,1.6,14.9,4.6c3.3,3,5.2,7.3,5.2,13.2c0,6-1.9,10.9-5.3,14.3 c-3.4,3.4-9.1,5.3-16.3,5.3c-3.4,0-6.2-0.2-8.6-0.4V61.6z M88.8,94.1c1.2,0.2,3,0.3,4.8,0.3c10.2,0,15.7-5.7,15.7-15.6 c0.1-8.7-4.9-14.2-14.9-14.2c-2.5,0-4.3,0.2-5.6,0.5V94.1z"/><path fill="#FFFFFF" d="M132.1,97.8l-0.4-3.3h-0.2c-1.5,2.1-4.3,3.9-8.1,3.9c-5.4,0-8.1-3.8-8.1-7.6c0-6.4,5.7-9.9,15.9-9.8v-0.5 c0-2.2-0.6-6.1-6-6.1c-2.5,0-5,0.8-6.9,2l-1.1-3.2c2.2-1.4,5.4-2.3,8.7-2.3c8.1,0,10.1,5.5,10.1,10.8v9.9c0,2.3,0.1,4.5,0.4,6.3 H132.1z M131.4,84.4c-5.3-0.1-11.2,0.8-11.2,5.9c0,3.1,2.1,4.6,4.5,4.6c3.4,0,5.6-2.2,6.4-4.4c0.2-0.5,0.3-1,0.3-1.5V84.4z"/><path fill="#FFFFFF" d="M146.6,63.9v7.6h6.9v3.7h-6.9v14.2c0,3.3,0.9,5.1,3.6,5.1c1.3,0,2.2-0.2,2.8-0.3l0.2,3.6 c-0.9,0.4-2.4,0.7-4.3,0.7c-2.2,0-4-0.7-5.2-2c-1.4-1.4-1.9-3.8-1.9-6.9V75.1h-4.1v-3.7h4.1v-6.3L146.6,63.9z"/><path fill="#FFFFFF" d="M171.4,97.8l-0.4-3.3h-0.2c-1.5,2.1-4.3,3.9-8.1,3.9c-5.4,0-8.1-3.8-8.1-7.6c0-6.4,5.7-9.9,15.9-9.8v-0.5 c0-2.2-0.6-6.1-6-6.1c-2.5,0-5,0.8-6.9,2l-1.1-3.2c2.2-1.4,5.4-2.3,8.7-2.3c8.1,0,10.1,5.5,10.1,10.8v9.9c0,2.3,0.1,4.5,0.4,6.3 H171.4z M170.7,84.4c-5.3-0.1-11.2,0.8-11.2,5.9c0,3.1,2.1,4.6,4.5,4.6c3.4,0,5.6-2.2,6.4-4.4c0.2-0.5,0.3-1,0.3-1.5V84.4z"/></g></g></a></g><a href="https://ourworldindata.org/grapher/population-by-per-capita-household-consumption" target="_blank"><text font-size="25.20" x="15.0" y="35.2" fill="#555"><tspan x="15" y="35.160000000000004">Distribution of people between different poverty thresholds, World</tspan></text></a><text font-size="14.40" x="15.0" y="53.7" fill="#666"><tspan x="15" y="53.72">Poverty thresholds are all in &#x27;international dollars&#x27; at constant 2011 PPP prices. This means all figures account for</tspan><tspan x="15" y="69.56">cross-country differences in price levels, as well as for inflation. Estimates rely on a combination of income and</tspan><tspan x="15" y="85.4">consumption data (see sources for details).</tspan></text></g><g class="StackedArea"><defs><clipPath id="boundsClip-685"><rect x="75.08" y="0" width="820" height="843"></rect></clipPath></defs><g class="AxisBoxView"><g class="HorizontalAxis"><text x="75.1" y="529.1" fill="#666" text-anchor="middle" font-size="16.2">1981</text><text x="151.9" y="529.1" fill="#666" text-anchor="middle" font-size="16.2">1985</text><text x="248" y="529.1" fill="#666" text-anchor="middle" font-size="16.2">1990</text><text x="344" y="529.1" fill="#666" text-anchor="middle" font-size="16.2">1995</text><text x="440.1" y="529.1" fill="#666" text-anchor="middle" font-size="16.2">2000</text><text x="536.1" y="529.1" fill="#666" text-anchor="middle" font-size="16.2">2005</text><text x="632.2" y="529.1" fill="#666" text-anchor="middle" font-size="16.2">2010</text><text x="689.8" y="529.1" fill="#666" text-anchor="middle" font-size="16.2">2013</text></g><g class="VerticalAxis"><text x="70.08" y="507.9" fill="#666" dominant-baseline="middle" text-anchor="end" font-size="16.2">0</text><text x="70.08" y="452.2" fill="#666" dominant-baseline="middle" text-anchor="end" font-size="16.2">1 billion</text><text x="70.08" y="396.4" fill="#666" dominant-baseline="middle" text-anchor="end" font-size="16.2">2 billion</text><text x="70.08" y="340.7" fill="#666" dominant-baseline="middle" text-anchor="end" font-size="16.2">3 billion</text><text x="70.08" y="285" fill="#666" dominant-baseline="middle" text-anchor="end" font-size="16.2">4 billion</text><text x="70.08" y="229.2" fill="#666" dominant-baseline="middle" text-anchor="end" font-size="16.2">5 billion</text><text x="70.08" y="173.5" fill="#666" dominant-baseline="middle" text-anchor="end" font-size="16.2">6 billion</text><text x="70.08" y="117.8" fill="#666" dominant-baseline="middle" text-anchor="end" font-size="16.2">7 billion</text></g><g class="AxisGridLines"><line x1="75.08" y1="507.9" x2="689.84" y2="507.9" stroke="#ccc"></line><line x1="75.08" y1="452.2" x2="689.84" y2="452.2" stroke="#ddd" stroke-dasharray="3,2"></line><line x1="75.08" y1="396.4" x2="689.84" y2="396.4" stroke="#ddd" stroke-dasharray="3,2"></line><line x1="75.08" y1="340.7" x2="689.84" y2="340.7" stroke="#ddd" stroke-dasharray="3,2"></line><line x1="75.08" y1="285" x2="689.84" y2="285" stroke="#ddd" stroke-dasharray="3,2"></line><line x1="75.08" y1="229.2" x2="689.84" y2="229.2" stroke="#ddd" stroke-dasharray="3,2"></line><line x1="75.08" y1="173.5" x2="689.84" y2="173.5" stroke="#ddd" stroke-dasharray="3,2"></line><line x1="75.08" y1="117.8" x2="689.84" y2="117.8" stroke="#ddd" stroke-dasharray="3,2"></line></g></g><g clip-path="url(#boundsClip-685)"><g class="HeightedLegend clickable"><g class="legendMark"><rect x="689.8399999999999" y="168.15" width="135.44" height="13.5" fill="#fff" opacity="0"></rect><text font-size="13.50" x="694.8" y="179.0" fill="#34983f"><tspan x="694.8399999999999" y="178.95000000000002">above 10$ a day</tspan></text></g><g class="legendMark"><rect x="689.8399999999999" y="314.05" width="133.145" height="13.5" fill="#fff" opacity="0"></rect><text font-size="13.50" x="694.8" y="324.9" fill="#9ecc8a"><tspan x="694.8399999999999" y="324.85">3.10 - 10$ a day</tspan></text></g><g class="legendMark"><rect x="689.8399999999999" y="425.55" width="136.925" height="13.5" fill="#fff" opacity="0"></rect><text font-size="13.50" x="694.8" y="436.4" fill="#ffd53e"><tspan x="694.8399999999999" y="436.35">1.9 - 3.10$ a day</tspan></text></g><g class="legendMark"><rect x="689.8399999999999" y="471.75" width="136.925" height="13.5" fill="#fff" opacity="0"></rect><text font-size="13.50" x="694.8" y="482.6" fill="#ca2628"><tspan x="694.8399999999999" y="482.55">1.25 - 1.9$ a day</tspan></text></g><g class="legendMark"><rect x="689.8399999999999" y="493.15" width="145.16000000000003" height="13.5" fill="#fff" opacity="0"></rect><text font-size="13.50" x="694.8" y="503.9" fill="#3360a9"><tspan x="694.8399999999999" y="503.95">below 1.25$ a day</tspan></text></g></g><g class="Areas"><rect x="75.08" y="107.60000000000001" width="614.7599999999999" height="400.3" opacity="0" fill="rgba(255,255,255,0)"></rect><path class="World_4-area" stroke-linecap="round" d="M75.1 440.7L132.7 452L190.3 459.6L248 456.6L305.6 457.2L363.2 466L420.9 465L478.5 469.1L536.1 479.3L593.8 483L632.2 486.1L651.4 488.8L670.6 490.3L689.8 492L689.8399999999999 507.90000000000003L75.08 507.90000000000003" fill="#3360a9" fill-opacity="0.7"></path><path class="World_3-area" stroke-linecap="round" d="M75.1 401.9L132.7 403.9L190.3 409.8L248 404L305.6 403L363.2 413.2L420.9 411.6L478.5 417.6L536.1 432.4L593.8 440L632.2 447.3L651.4 454.4L670.6 458.3L689.8 465.1L689.8 492L670.6 490.3L651.4 488.8L632.2 486.1L593.8 483L536.1 479.3L478.5 469.1L420.9 465L363.2 466L305.6 457.2L248 456.6L190.3 459.6L132.7 452L75.1 440.7" fill="#ca2628" fill-opacity="0.7"></path><path class="World_2-area" stroke-linecap="round" d="M75.1 366.1L132.7 359L190.3 355.8L248 348.6L305.6 342.8L363.2 344.9L420.9 341.4L478.5 346.3L536.1 359L593.8 368.4L632.2 376.4L651.4 384.4L670.6 389.9L689.8 399.4L689.8 465.1L670.6 458.3L651.4 454.4L632.2 447.3L593.8 440L536.1 432.4L478.5 417.6L420.9 411.6L363.2 413.2L305.6 403L248 404L190.3 409.8L132.7 403.9L75.1 401.9" fill="#ffd53e" fill-opacity="0.7"></path><path class="World_1-area" stroke-linecap="round" d="M75.1 316.3L132.7 304.5L190.3 293.5L248 280.8L305.6 269.9L363.2 259.2L420.9 247.9L478.5 241.3L536.1 238.8L593.8 239.4L632.2 238.8L651.4 239.5L670.6 240.7L689.8 242.2L689.8 399.4L670.6 389.9L651.4 384.4L632.2 376.4L593.8 368.4L536.1 359L478.5 346.3L420.9 341.4L363.2 344.9L305.6 342.8L248 348.6L190.3 355.8L132.7 359L75.1 366.1" fill="#9ecc8a" fill-opacity="0.7"></path><path class="World_0-area" stroke-linecap="round" d="M75.1 256.7L132.7 243L190.3 228.7L248 213.4L305.6 199.1L363.2 185.1L420.9 171.4L478.5 158.1L536.1 144.7L593.8 131L632.2 121.7L651.4 117.1L670.6 112.4L689.8 107.6L689.8 242.2L670.6 240.7L651.4 239.5L632.2 238.8L593.8 239.4L536.1 238.8L478.5 241.3L420.9 247.9L363.2 259.2L305.6 269.9L248 280.8L190.3 293.5L132.7 304.5L75.1 316.3" fill="#34983f" fill-opacity="0.7"></path><path class="World_4-border" stroke-linecap="round" d="M75.1 440.7L132.7 452L190.3 459.6L248 456.6L305.6 457.2L363.2 466L420.9 465L478.5 469.1L536.1 479.3L593.8 483L632.2 486.1L651.4 488.8L670.6 490.3L689.8 492" stroke="rgb(43, 80, 141)" stroke-opacity="0.7" stroke-width="0.5" fill="none"></path><path class="World_3-border" stroke-linecap="round" d="M75.1 401.9L132.7 403.9L190.3 409.8L248 404L305.6 403L363.2 413.2L420.9 411.6L478.5 417.6L536.1 432.4L593.8 440L632.2 447.3L651.4 454.4L670.6 458.3L689.8 465.1" stroke="rgb(169, 32, 33)" stroke-opacity="0.7" stroke-width="0.5" fill="none"></path><path class="World_2-border" stroke-linecap="round" d="M75.1 366.1L132.7 359L190.3 355.8L248 348.6L305.6 342.8L363.2 344.9L420.9 341.4L478.5 346.3L536.1 359L593.8 368.4L632.2 376.4L651.4 384.4L670.6 389.9L689.8 399.4" stroke="rgb(213, 178, 52)" stroke-opacity="0.7" stroke-width="0.5" fill="none"></path><path class="World_1-border" stroke-linecap="round" d="M75.1 316.3L132.7 304.5L190.3 293.5L248 280.8L305.6 269.9L363.2 259.2L420.9 247.9L478.5 241.3L536.1 238.8L593.8 239.4L632.2 238.8L651.4 239.5L670.6 240.7L689.8 242.2" stroke="rgb(132, 171, 115)" stroke-opacity="0.7" stroke-width="0.5" fill="none"></path><path class="World_0-border" stroke-linecap="round" d="M75.1 256.7L132.7 243L190.3 228.7L248 213.4L305.6 199.1L363.2 185.1L420.9 171.4L478.5 158.1L536.1 144.7L593.8 131L632.2 121.7L651.4 117.1L670.6 112.4L689.8 107.6" stroke="rgb(44, 127, 53)" stroke-opacity="0.7" stroke-width="0.5" fill="none"></path></g></g></g><g class="SourcesFooter" style="fill:#777"><g class="clickable" style="fill:#777"><text font-size="12.60" x="15.0" y="554.2"><tspan x="15" y="554.1800000000001">Source: World Bank</tspan></text></g><text font-size="12.60" x="15.0" y="568.8"><tspan x="15" y="568.7800000000001">Note: Estimates for high-income countries are included, but are not always comparable with those from other countries because of differences</tspan><tspan x="15" y="582.6400000000001">between income and consumption data.</tspan></text><text font-size="12.60" x="775.4" y="554.2"><tspan x="775.402" y="554.1800000000001"><a style="fill: #777;" class="cclogo" href="http://creativecommons.org/licenses/by-sa/4.0/deed.en_US" target="_blank">CC BY-SA</a></tspan></text></g></g></svg>