<svg xmlns="http://www.w3.org/2000/svg" version="1.1" style="font-family:&#x27;Helvetica Neue&#x27;, Helvetica, Arial, sans-serif;font-size:18px;background-color:white;text-rendering:optimizeLegibility;-webkit-font-smoothing:antialiased" width="850" height="600"><g class="ChartTab"><g class="HeaderView"><g opacity="0.8" transform="translate(778, 15) scale(0.27)"><a xmlns:xlink="http://www.w3.org/1999/xlink" xlink:href="https://ourworldindata.org" target="_blank"><g><rect x="0" y="0" fill="#1B2543" width="211.2" height="130.1"/><rect x="0" y="112.2" fill="#E63912" width="211.2" height="17.9"/><g><rect x="1.2" y="12.3" fill="none" width="210.2" height="99.2"/><path fill="#FFFFFF" d="M37.8,32.2c0,12.7-7.7,19.4-17.1,19.4c-9.7,0-16.6-7.5-16.6-18.7c0-11.7,7.3-19.3,17.1-19.3 C31.3,13.7,37.8,21.3,37.8,32.2z M9.2,32.8c0,7.9,4.3,14.9,11.8,14.9c7.5,0,11.8-6.9,11.8-15.3c0-7.3-3.8-14.9-11.8-14.9 C13.1,17.5,9.2,24.8,9.2,32.8z"/><path fill="#FFFFFF" d="M62.7,43.8c0,2.7,0.1,5.1,0.2,7.2h-4.3l-0.3-4.3h-0.1c-1.3,2.1-4,4.9-8.8,4.9c-4.2,0-9.1-2.3-9.1-11.6 V24.6h4.8v14.6c0,5,1.5,8.4,5.9,8.4c3.2,0,5.5-2.2,6.3-4.4c0.3-0.7,0.4-1.6,0.4-2.5V24.6h4.8V43.8z"/><path fill="#FFFFFF" d="M67.3,32.8c0-3.1-0.1-5.8-0.2-8.2h4.2l0.2,5.2h0.2c1.2-3.5,4.1-5.8,7.3-5.8c0.5,0,0.9,0.1,1.4,0.2v4.5 c-0.5-0.1-1-0.2-1.6-0.2c-3.4,0-5.8,2.6-6.5,6.2c-0.1,0.7-0.2,1.4-0.2,2.2V51h-4.8V32.8z"/><path fill="#FFFFFF" d="M95.4,51l-9.4-36.8h5l4.4,18.6c1.1,4.6,2.1,9.2,2.7,12.7h0.1c0.6-3.7,1.8-8,3-12.8l4.9-18.5h5l4.5,18.7 c1,4.4,2,8.7,2.6,12.6h0.1c0.8-4,1.8-8.1,3-12.7l4.9-18.5h4.9L120.6,51h-5L111,31.9c-1.1-4.7-1.9-8.3-2.4-12h-0.1 c-0.7,3.7-1.5,7.3-2.8,12L100.4,51H95.4z"/><path fill="#FFFFFF" d="M154.9,37.6c0,9.8-6.8,14-13.2,14c-7.2,0-12.7-5.2-12.7-13.6c0-8.8,5.8-14,13.1-14 C149.8,24,154.9,29.5,154.9,37.6z M133.9,37.9c0,5.8,3.3,10.1,8,10.1c4.6,0,8-4.3,8-10.3c0-4.5-2.2-10.1-7.9-10.1 C136.3,27.6,133.9,32.8,133.9,37.9z"/><path fill="#FFFFFF" d="M158.2,32.8c0-3.1-0.1-5.8-0.2-8.2h4.2l0.2,5.2h0.2c1.2-3.5,4.1-5.8,7.3-5.8c0.5,0,0.9,0.1,1.4,0.2v4.5 c-0.5-0.1-1-0.2-1.6-0.2c-3.4,0-5.8,2.6-6.5,6.2c-0.1,0.7-0.2,1.4-0.2,2.2V51h-4.8V32.8z"/><path fill="#FFFFFF" d="M173.5,12.3h4.8V51h-4.8V12.3z"/><path fill="#FFFFFF" d="M206.5,12.3v31.9c0,2.3,0.1,5,0.2,6.8h-4.3l-0.2-4.6H202c-1.5,2.9-4.7,5.2-9,5.2 c-6.4,0-11.3-5.4-11.3-13.4c-0.1-8.8,5.4-14.2,11.9-14.2c4,0,6.8,1.9,8,4h0.1V12.3H206.5z M201.7,35.4c0-0.6-0.1-1.4-0.2-2 c-0.7-3.1-3.3-5.6-6.9-5.6c-5,0-7.9,4.4-7.9,10.2c0,5.3,2.6,9.8,7.8,9.8c3.2,0,6.2-2.1,7.1-5.7c0.2-0.7,0.2-1.3,0.2-2.1V35.4z"/><path fill="#FFFFFF" d="M42.8,64c0.1,1.6-1.1,2.9-3.1,2.9c-1.7,0-2.9-1.3-2.9-2.9c0-1.7,1.3-3,3-3C41.7,61,42.8,62.3,42.8,64z M37.4,97.8V71.4h4.8v26.4H37.4z"/><path fill="#FFFFFF" d="M47.5,78.6c0-2.7-0.1-5-0.2-7.1h4.3l0.3,4.4h0.1c1.3-2.5,4.4-5,8.8-5c3.7,0,9.4,2.2,9.4,11.2v15.8h-4.8 V82.6c0-4.3-1.6-7.8-6.1-7.8c-3.2,0-5.6,2.2-6.5,4.9c-0.2,0.6-0.3,1.4-0.3,2.2v15.9h-4.8V78.6z"/><path fill="#FFFFFF" d="M84,61.6c2.9-0.4,6.3-0.8,10.1-0.8c6.8,0,11.7,1.6,14.9,4.6c3.3,3,5.2,7.3,5.2,13.2c0,6-1.9,10.9-5.3,14.3 c-3.4,3.4-9.1,5.3-16.3,5.3c-3.4,0-6.2-0.2-8.6-0.4V61.6z M88.8,94.1c1.2,0.2,3,0.3,4.8,0.3c10.2,0,15.7-5.7,15.7-15.6 c0.1-8.7-4.9-14.2-14.9-14.2c-2.5,0-4.3,0.2-5.6,0.5V94.1z"/><path fill="#FFFFFF" d="M132.1,97.8l-0.4-3.3h-0.2c-1.5,2.1-4.3,3.9-8.1,3.9c-5.4,0-8.1-3.8-8.1-7.6c0-6.4,5.7-9.9,15.9-9.8v-0.5 c0-2.2-0.6-6.1-6-6.1c-2.5,0-5,0.8-6.9,2l-1.1-3.2c2.2-1.4,5.4-2.3,8.7-2.3c8.1,0,10.1,5.5,10.1,10.8v9.9c0,2.3,0.1,4.5,0.4,6.3 H132.1z M131.4,84.4c-5.3-0.1-11.2,0.8-11.2,5.9c0,3.1,2.1,4.6,4.5,4.6c3.4,0,5.6-2.2,6.4-4.4c0.2-0.5,0.3-1,0.3-1.5V84.4z"/><path fill="#FFFFFF" d="M146.6,63.9v7.6h6.9v3.7h-6.9v14.2c0,3.3,0.9,5.1,3.6,5.1c1.3,0,2.2-0.2,2.8-0.3l0.2,3.6 c-0.9,0.4-2.4,0.7-4.3,0.7c-2.2,0-4-0.7-5.2-2c-1.4-1.4-1.9-3.8-1.9-6.9V75.1h-4.1v-3.7h4.1v-6.3L146.6,63.9z"/><path fill="#FFFFFF" d="M171.4,97.8l-0.4-3.3h-0.2c-1.5,2.1-4.3,3.9-8.1,3.9c-5.4,0-8.1-3.8-8.1-7.6c0-6.4,5.7-9.9,15.9-9.8v-0.5 c0-2.2-0.6-6.1-6-6.1c-2.5,0-5,0.8-6.9,2l-1.1-3.2c2.2-1.4,5.4-2.3,8.7-2.3c8.1,0,10.1,5.5,10.1,10.8v9.9c0,2.3,0.1,4.5,0.4,6.3 H171.4z M170.7,84.4c-5.3-0.1-11.2,0.8-11.2,5.9c0,3.1,2.1,4.6,4.5,4.6c3.4,0,5.6-2.2,6.4-4.4c0.2-0.5,0.3-1,0.3-1.5V84.4z"/></g></g></a></g><a href="https://ourworldindata.org/grapher/population-by-per-capita-household-consumption?country=CHN" target="_blank"><text font-size="25.20" x="15.0" y="35.2" fill="#555"><tspan x="15" y="35.160000000000004">Distribution of people between different poverty thresholds, China</tspan></text></a><text font-size="14.40" x="15.0" y="53.7" fill="#666"><tspan x="15" y="53.72">Poverty thresholds are all in &#x27;international dollars&#x27; at constant 2011 PPP prices. This means all figures account for</tspan><tspan x="15" y="69.56">cross-country differences in price levels, as well as for inflation. Estimates rely on a combination of income and</tspan><tspan x="15" y="85.4">consumption data (see sources for details).</tspan></text></g><g class="StackedArea"><defs><clipPath id="boundsClip-686"><rect x="97.598" y="0" width="820" height="843"></rect></clipPath></defs><g class="AxisBoxView"><g class="HorizontalAxis"><text x="97.6" y="529.1" fill="#666" text-anchor="middle" font-size="16.2">1984</text><text x="220.1" y="529.1" fill="#666" text-anchor="middle" font-size="16.2">1990</text><text x="322.2" y="529.1" fill="#666" text-anchor="middle" font-size="16.2">1995</text><text x="424.4" y="529.1" fill="#666" text-anchor="middle" font-size="16.2">2000</text><text x="526.5" y="529.1" fill="#666" text-anchor="middle" font-size="16.2">2005</text><text x="628.6" y="529.1" fill="#666" text-anchor="middle" font-size="16.2">2010</text><text x="689.8" y="529.1" fill="#666" text-anchor="middle" font-size="16.2">2013</text></g><g class="VerticalAxis"><text x="92.60" y="507.9" fill="#666" dominant-baseline="middle" text-anchor="end" font-size="16.2">0</text><text x="92.60" y="448.9" fill="#666" dominant-baseline="middle" text-anchor="end" font-size="16.2">200 million</text><text x="92.60" y="389.9" fill="#666" dominant-baseline="middle" text-anchor="end" font-size="16.2">400 million</text><text x="92.60" y="331" fill="#666" dominant-baseline="middle" text-anchor="end" font-size="16.2">600 million</text><text x="92.60" y="272" fill="#666" dominant-baseline="middle" text-anchor="end" font-size="16.2">800 million</text><text x="92.60" y="213" fill="#666" dominant-baseline="middle" text-anchor="end" font-size="16.2">1 billion</text><text x="92.60" y="154" fill="#666" dominant-baseline="middle" text-anchor="end" font-size="16.2">1.2 billion</text></g><g class="AxisGridLines"><line x1="97.60" y1="507.9" x2="689.84" y2="507.9" stroke="#ccc"></line><line x1="97.60" y1="448.9" x2="689.84" y2="448.9" stroke="#ddd" stroke-dasharray="3,2"></line><line x1="97.60" y1="389.9" x2="689.84" y2="389.9" stroke="#ddd" stroke-dasharray="3,2"></line><line x1="97.60" y1="331" x2="689.84" y2="331" stroke="#ddd" stroke-dasharray="3,2"></line><line x1="97.60" y1="272" x2="689.84" y2="272" stroke="#ddd" stroke-dasharray="3,2"></line><line x1="97.60" y1="213" x2="689.84" y2="213" stroke="#ddd" stroke-dasharray="3,2"></line><line x1="97.60" y1="154" x2="689.84" y2="154" stroke="#ddd" stroke-dasharray="3,2"></line></g></g><g clip-path="url(#boundsClip-686)"><g class="HeightedLegend clickable"><g class="legendMark"><g class="indicator"><line x1="694.8399999999999" y1="507.3" x2="714.0066666666665" y2="507.3" stroke="#666" stroke-width="0.5"></line><line x1="714.0066666666665" y1="507.3" x2="714.0066666666665" y2="501.15000000000003" stroke="#666" stroke-width="0.5"></line><line x1="714.0066666666665" y1="501.15000000000003" x2="719.8399999999999" y2="501.15000000000003" stroke="#666" stroke-width="0.5"></line></g><rect x="689.8399999999999" y="494.40000000000003" width="145.16000000000003" height="13.5" fill="#fff" opacity="0"></rect><text font-size="13.50" x="724.8" y="505.2" fill="#3360a9"><tspan x="724.8399999999999" y="505.20000000000005">below 1.25$ a day</tspan></text></g><g class="legendMark"><g class="indicator"><line x1="694.8399999999999" y1="503.6" x2="707.3399999999999" y2="503.6" stroke="#666" stroke-width="0.5"></line><line x1="707.3399999999999" y1="503.6" x2="707.3399999999999" y2="485.65000000000003" stroke="#666" stroke-width="0.5"></line><line x1="707.3399999999999" y1="485.65000000000003" x2="719.8399999999999" y2="485.65000000000003" stroke="#666" stroke-width="0.5"></line></g><rect x="689.8399999999999" y="478.90000000000003" width="136.925" height="13.5" fill="#fff" opacity="0"></rect><text font-size="13.50" x="724.8" y="489.7" fill="#ca2628"><tspan x="724.8399999999999" y="489.70000000000005">1.25 - 1.9$ a day</tspan></text></g><g class="legendMark"><g class="indicator"><line x1="694.8399999999999" y1="482" x2="700.6733333333333" y2="482" stroke="#666" stroke-width="0.5"></line><line x1="700.6733333333333" y1="482" x2="700.6733333333333" y2="470.15000000000003" stroke="#666" stroke-width="0.5"></line><line x1="700.6733333333333" y1="470.15000000000003" x2="719.8399999999999" y2="470.15000000000003" stroke="#666" stroke-width="0.5"></line></g><rect x="689.8399999999999" y="463.40000000000003" width="136.925" height="13.5" fill="#fff" opacity="0"></rect><text font-size="13.50" x="724.8" y="474.2" fill="#ffd53e"><tspan x="724.8399999999999" y="474.20000000000005">1.9 - 3.10$ a day</tspan></text></g><g class="legendMark"><g class="indicator"><line x1="694.8399999999999" y1="348.7" x2="707.3399999999999" y2="348.7" stroke="#666" stroke-width="0.5"></line><line x1="707.3399999999999" y1="348.7" x2="707.3399999999999" y2="348.7" stroke="#666" stroke-width="0.5"></line><line x1="707.3399999999999" y1="348.7" x2="719.8399999999999" y2="348.7" stroke="#666" stroke-width="0.5"></line></g><rect x="689.8399999999999" y="341.95" width="133.145" height="13.5" fill="#fff" opacity="0"></rect><text font-size="13.50" x="724.8" y="352.8" fill="#9ecc8a"><tspan x="724.8399999999999" y="352.75">3.10 - 10$ a day</tspan></text></g><g class="legendMark"><g class="indicator"><line x1="694.8399999999999" y1="170.8" x2="707.3399999999999" y2="170.8" stroke="#666" stroke-width="0.5"></line><line x1="707.3399999999999" y1="170.8" x2="707.3399999999999" y2="170.8" stroke="#666" stroke-width="0.5"></line><line x1="707.3399999999999" y1="170.8" x2="719.8399999999999" y2="170.8" stroke="#666" stroke-width="0.5"></line></g><rect x="689.8399999999999" y="164.05" width="135.44" height="13.5" fill="#fff" opacity="0"></rect><text font-size="13.50" x="724.8" y="174.9" fill="#34983f"><tspan x="724.8399999999999" y="174.85000000000002">above 10$ a day</tspan></text></g></g><g class="Areas"><rect x="97.598" y="107.60000000000001" width="592.242" height="400.3" opacity="0" fill="rgba(255,255,255,0)"></rect><path class="China_4-area" stroke-linecap="round" d="M97.6 373.5L158.9 409.5L220.1 387.6L281.4 403.5L342.7 442.1L403.9 437.7L465.2 452.2L526.5 484.6L587.7 489.4L628.6 496.6L649 501.1L669.4 503L689.8 506.7L689.8399999999999 507.90000000000003L97.598 507.90000000000003" fill="#3360a9" fill-opacity="0.7"></path><path class="China_3-area" stroke-linecap="round" d="M97.6 276.3L158.9 313.4L220.1 285L281.4 309.8L342.7 356.9L403.9 358.1L465.2 387.3L526.5 435.8L587.7 450.7L628.6 463.8L649 476.6L669.4 482.1L689.8 500.5L689.8 506.7L669.4 503L649 501.1L628.6 496.6L587.7 489.4L526.5 484.6L465.2 452.2L403.9 437.7L342.7 442.1L281.4 403.5L220.1 387.6L158.9 409.5L97.6 373.5" fill="#ca2628" fill-opacity="0.7"></path><path class="China_2-area" stroke-linecap="round" d="M97.6 214.8L158.9 222.9L220.1 209.3L281.4 221.8L342.7 251.2L403.9 259.7L465.2 294.9L526.5 347.3L587.7 379.1L628.6 400.4L649 419.7L669.4 432L689.8 463.5L689.8 500.5L669.4 482.1L649 476.6L628.6 463.8L587.7 450.7L526.5 435.8L465.2 387.3L403.9 358.1L342.7 356.9L281.4 309.8L220.1 285L158.9 313.4L97.6 276.3" fill="#ffd53e" fill-opacity="0.7"></path><path class="China_1-area" stroke-linecap="round" d="M97.6 202.2L158.9 188.3L220.1 174.1L281.4 162.5L342.7 153.9L403.9 147.1L465.2 148.1L526.5 158.2L587.7 176.4L628.6 193.6L649 202L669.4 216.2L689.8 234L689.8 463.5L669.4 432L649 419.7L628.6 400.4L587.7 379.1L526.5 347.3L465.2 294.9L403.9 259.7L342.7 251.2L281.4 221.8L220.1 209.3L158.9 222.9L97.6 214.8" fill="#9ecc8a" fill-opacity="0.7"></path><path class="China_0-area" stroke-linecap="round" d="M97.6 202.1L158.9 188.2L220.1 173.1L281.4 160.4L342.7 148.8L403.9 138.5L465.2 130.3L526.5 123.4L587.7 117.2L628.6 113.4L649 111.5L669.4 109.6L689.8 107.6L689.8 234L669.4 216.2L649 202L628.6 193.6L587.7 176.4L526.5 158.2L465.2 148.1L403.9 147.1L342.7 153.9L281.4 162.5L220.1 174.1L158.9 188.3L97.6 202.2" fill="#34983f" fill-opacity="0.7"></path><path class="China_4-border" stroke-linecap="round" d="M97.6 373.5L158.9 409.5L220.1 387.6L281.4 403.5L342.7 442.1L403.9 437.7L465.2 452.2L526.5 484.6L587.7 489.4L628.6 496.6L649 501.1L669.4 503L689.8 506.7" stroke="rgb(43, 80, 141)" stroke-opacity="0.7" stroke-width="0.5" fill="none"></path><path class="China_3-border" stroke-linecap="round" d="M97.6 276.3L158.9 313.4L220.1 285L281.4 309.8L342.7 356.9L403.9 358.1L465.2 387.3L526.5 435.8L587.7 450.7L628.6 463.8L649 476.6L669.4 482.1L689.8 500.5" stroke="rgb(169, 32, 33)" stroke-opacity="0.7" stroke-width="0.5" fill="none"></path><path class="China_2-border" stroke-linecap="round" d="M97.6 214.8L158.9 222.9L220.1 209.3L281.4 221.8L342.7 251.2L403.9 259.7L465.2 294.9L526.5 347.3L587.7 379.1L628.6 400.4L649 419.7L669.4 432L689.8 463.5" stroke="rgb(213, 178, 52)" stroke-opacity="0.7" stroke-width="0.5" fill="none"></path><path class="China_1-border" stroke-linecap="round" d="M97.6 202.2L158.9 188.3L220.1 174.1L281.4 162.5L342.7 153.9L403.9 147.1L465.2 148.1L526.5 158.2L587.7 176.4L628.6 193.6L649 202L669.4 216.2L689.8 234" stroke="rgb(132, 171, 115)" stroke-opacity="0.7" stroke-width="0.5" fill="none"></path><path class="China_0-border" stroke-linecap="round" d="M97.6 202.1L158.9 188.2L220.1 173.1L281.4 160.4L342.7 148.8L403.9 138.5L465.2 130.3L526.5 123.4L587.7 117.2L628.6 113.4L649 111.5L669.4 109.6L689.8 107.6" stroke="rgb(44, 127, 53)" stroke-opacity="0.7" stroke-width="0.5" fill="none"></path></g></g></g><g class="SourcesFooter" style="fill:#777"><g class="clickable" style="fill:#777"><text font-size="12.60" x="15.0" y="554.2"><tspan x="15" y="554.1800000000001">Source: World Bank</tspan></text></g><text font-size="12.60" x="15.0" y="568.8"><tspan x="15" y="568.7800000000001">Note: Estimates for high-income countries are included, but are not always comparable with those from other countries because of differences</tspan><tspan x="15" y="582.6400000000001">between income and consumption data.</tspan></text><text font-size="12.60" x="775.4" y="554.2"><tspan x="775.402" y="554.1800000000001"><a style="fill: #777;" class="cclogo" href="http://creativecommons.org/licenses/by-sa/4.0/deed.en_US" target="_blank">CC BY-SA</a></tspan></text></g></g></svg>