<svg xmlns="http://www.w3.org/2000/svg" version="1.1" style="font-family:&#x27;Helvetica Neue&#x27;, Helvetica, Arial, sans-serif;font-size:18px;background-color:white;text-rendering:optimizeLegibility;-webkit-font-smoothing:antialiased" width="850" height="600"><g class="ChartTab"><g class="HeaderView"><g opacity="0.8" transform="translate(778, 15) scale(0.27)"><a xmlns:xlink="http://www.w3.org/1999/xlink" xlink:href="https://ourworldindata.org" target="_blank"><g><rect x="0" y="0" fill="#1B2543" width="211.2" height="130.1"/><rect x="0" y="112.2" fill="#E63912" width="211.2" height="17.9"/><g><rect x="1.2" y="12.3" fill="none" width="210.2" height="99.2"/><path fill="#FFFFFF" d="M37.8,32.2c0,12.7-7.7,19.4-17.1,19.4c-9.7,0-16.6-7.5-16.6-18.7c0-11.7,7.3-19.3,17.1-19.3 C31.3,13.7,37.8,21.3,37.8,32.2z M9.2,32.8c0,7.9,4.3,14.9,11.8,14.9c7.5,0,11.8-6.9,11.8-15.3c0-7.3-3.8-14.9-11.8-14.9 C13.1,17.5,9.2,24.8,9.2,32.8z"/><path fill="#FFFFFF" d="M62.7,43.8c0,2.7,0.1,5.1,0.2,7.2h-4.3l-0.3-4.3h-0.1c-1.3,2.1-4,4.9-8.8,4.9c-4.2,0-9.1-2.3-9.1-11.6 V24.6h4.8v14.6c0,5,1.5,8.4,5.9,8.4c3.2,0,5.5-2.2,6.3-4.4c0.3-0.7,0.4-1.6,0.4-2.5V24.6h4.8V43.8z"/><path fill="#FFFFFF" d="M67.3,32.8c0-3.1-0.1-5.8-0.2-8.2h4.2l0.2,5.2h0.2c1.2-3.5,4.1-5.8,7.3-5.8c0.5,0,0.9,0.1,1.4,0.2v4.5 c-0.5-0.1-1-0.2-1.6-0.2c-3.4,0-5.8,2.6-6.5,6.2c-0.1,0.7-0.2,1.4-0.2,2.2V51h-4.8V32.8z"/><path fill="#FFFFFF" d="M95.4,51l-9.4-36.8h5l4.4,18.6c1.1,4.6,2.1,9.2,2.7,12.7h0.1c0.6-3.7,1.8-8,3-12.8l4.9-18.5h5l4.5,18.7 c1,4.4,2,8.7,2.6,12.6h0.1c0.8-4,1.8-8.1,3-12.7l4.9-18.5h4.9L120.6,51h-5L111,31.9c-1.1-4.7-1.9-8.3-2.4-12h-0.1 c-0.7,3.7-1.5,7.3-2.8,12L100.4,51H95.4z"/><path fill="#FFFFFF" d="M154.9,37.6c0,9.8-6.8,14-13.2,14c-7.2,0-12.7-5.2-12.7-13.6c0-8.8,5.8-14,13.1-14 C149.8,24,154.9,29.5,154.9,37.6z M133.9,37.9c0,5.8,3.3,10.1,8,10.1c4.6,0,8-4.3,8-10.3c0-4.5-2.2-10.1-7.9-10.1 C136.3,27.6,133.9,32.8,133.9,37.9z"/><path fill="#FFFFFF" d="M158.2,32.8c0-3.1-0.1-5.8-0.2-8.2h4.2l0.2,5.2h0.2c1.2-3.5,4.1-5.8,7.3-5.8c0.5,0,0.9,0.1,1.4,0.2v4.5 c-0.5-0.1-1-0.2-1.6-0.2c-3.4,0-5.8,2.6-6.5,6.2c-0.1,0.7-0.2,1.4-0.2,2.2V51h-4.8V32.8z"/><path fill="#FFFFFF" d="M173.5,12.3h4.8V51h-4.8V12.3z"/><path fill="#FFFFFF" d="M206.5,12.3v31.9c0,2.3,0.1,5,0.2,6.8h-4.3l-0.2-4.6H202c-1.5,2.9-4.7,5.2-9,5.2 c-6.4,0-11.3-5.4-11.3-13.4c-0.1-8.8,5.4-14.2,11.9-14.2c4,0,6.8,1.9,8,4h0.1V12.3H206.5z M201.7,35.4c0-0.6-0.1-1.4-0.2-2 c-0.7-3.1-3.3-5.6-6.9-5.6c-5,0-7.9,4.4-7.9,10.2c0,5.3,2.6,9.8,7.8,9.8c3.2,0,6.2-2.1,7.1-5.7c0.2-0.7,0.2-1.3,0.2-2.1V35.4z"/><path fill="#FFFFFF" d="M42.8,64c0.1,1.6-1.1,2.9-3.1,2.9c-1.7,0-2.9-1.3-2.9-2.9c0-1.7,1.3-3,3-3C41.7,61,42.8,62.3,42.8,64z M37.4,97.8V71.4h4.8v26.4H37.4z"/><path fill="#FFFFFF" d="M47.5,78.6c0-2.7-0.1-5-0.2-7.1h4.3l0.3,4.4h0.1c1.3-2.5,4.4-5,8.8-5c3.7,0,9.4,2.2,9.4,11.2v15.8h-4.8 V82.6c0-4.3-1.6-7.8-6.1-7.8c-3.2,0-5.6,2.2-6.5,4.9c-0.2,0.6-0.3,1.4-0.3,2.2v15.9h-4.8V78.6z"/><path fill="#FFFFFF" d="M84,61.6c2.9-0.4,6.3-0.8,10.1-0.8c6.8,0,11.7,1.6,14.9,4.6c3.3,3,5.2,7.3,5.2,13.2c0,6-1.9,10.9-5.3,14.3 c-3.4,3.4-9.1,5.3-16.3,5.3c-3.4,0-6.2-0.2-8.6-0.4V61.6z M88.8,94.1c1.2,0.2,3,0.3,4.8,0.3c10.2,0,15.7-5.7,15.7-15.6 c0.1-8.7-4.9-14.2-14.9-14.2c-2.5,0-4.3,0.2-5.6,0.5V94.1z"/><path fill="#FFFFFF" d="M132.1,97.8l-0.4-3.3h-0.2c-1.5,2.1-4.3,3.9-8.1,3.9c-5.4,0-8.1-3.8-8.1-7.6c0-6.4,5.7-9.9,15.9-9.8v-0.5 c0-2.2-0.6-6.1-6-6.1c-2.5,0-5,0.8-6.9,2l-1.1-3.2c2.2-1.4,5.4-2.3,8.7-2.3c8.1,0,10.1,5.5,10.1,10.8v9.9c0,2.3,0.1,4.5,0.4,6.3 H132.1z M131.4,84.4c-5.3-0.1-11.2,0.8-11.2,5.9c0,3.1,2.1,4.6,4.5,4.6c3.4,0,5.6-2.2,6.4-4.4c0.2-0.5,0.3-1,0.3-1.5V84.4z"/><path fill="#FFFFFF" d="M146.6,63.9v7.6h6.9v3.7h-6.9v14.2c0,3.3,0.9,5.1,3.6,5.1c1.3,0,2.2-0.2,2.8-0.3l0.2,3.6 c-0.9,0.4-2.4,0.7-4.3,0.7c-2.2,0-4-0.7-5.2-2c-1.4-1.4-1.9-3.8-1.9-6.9V75.1h-4.1v-3.7h4.1v-6.3L146.6,63.9z"/><path fill="#FFFFFF" d="M171.4,97.8l-0.4-3.3h-0.2c-1.5,2.1-4.3,3.9-8.1,3.9c-5.4,0-8.1-3.8-8.1-7.6c0-6.4,5.7-9.9,15.9-9.8v-0.5 c0-2.2-0.6-6.1-6-6.1c-2.5,0-5,0.8-6.9,2l-1.1-3.2c2.2-1.4,5.4-2.3,8.7-2.3c8.1,0,10.1,5.5,10.1,10.8v9.9c0,2.3,0.1,4.5,0.4,6.3 H171.4z M170.7,84.4c-5.3-0.1-11.2,0.8-11.2,5.9c0,3.1,2.1,4.6,4.5,4.6c3.4,0,5.6-2.2,6.4-4.4c0.2-0.5,0.3-1,0.3-1.5V84.4z"/></g></g></a></g><a href="https://ourworldindata.org/grapher/population-of-all-world-regions-including-the-un-projection-until-2100" target="_blank"><text font-size="24.30" x="15.0" y="34.4" fill="#555"><tspan x="15" y="34.44">Population of all world regions, including the UN projection until 2100</tspan></text></a></g><g class="LineChart"><defs><clipPath id="boundsClip-672"><rect x="83.224" y="0" width="830" height="973"></rect></clipPath></defs><g class="AxisBoxView"><g class="HorizontalAxis"><text x="93.2" y="556.5" fill="#666" text-anchor="middle" font-size="16.2">1950</text><text x="198.9" y="556.5" fill="#666" text-anchor="middle" font-size="16.2">1980</text><text x="269.4" y="556.5" fill="#666" text-anchor="middle" font-size="16.2">2000</text><text x="339.9" y="556.5" fill="#666" text-anchor="middle" font-size="16.2">2020</text><text x="410.4" y="556.5" fill="#666" text-anchor="middle" font-size="16.2">2040</text><text x="480.8" y="556.5" fill="#666" text-anchor="middle" font-size="16.2">2060</text><text x="551.3" y="556.5" fill="#666" text-anchor="middle" font-size="16.2">2080</text><text x="621.8" y="556.5" fill="#666" text-anchor="middle" font-size="16.2">2100</text></g><g class="VerticalAxis"><text x="88.22" y="535.3" fill="#666" dominant-baseline="middle" text-anchor="end" font-size="16.2">0  </text><text x="88.22" y="452.1" fill="#666" dominant-baseline="middle" text-anchor="end" font-size="16.2">2 billion  </text><text x="88.22" y="368.9" fill="#666" dominant-baseline="middle" text-anchor="end" font-size="16.2">4 billion  </text><text x="88.22" y="285.7" fill="#666" dominant-baseline="middle" text-anchor="end" font-size="16.2">6 billion  </text><text x="88.22" y="202.5" fill="#666" dominant-baseline="middle" text-anchor="end" font-size="16.2">8 billion  </text><text x="88.22" y="119.3" fill="#666" dominant-baseline="middle" text-anchor="end" font-size="16.2">10 billion  </text></g><g class="AxisGridLines"><line x1="93.22" y1="535.3" x2="621.80" y2="535.3" stroke="#ccc"></line><line x1="93.22" y1="452.1" x2="621.80" y2="452.1" stroke="#ddd" stroke-dasharray="3,2"></line><line x1="93.22" y1="368.9" x2="621.80" y2="368.9" stroke="#ddd" stroke-dasharray="3,2"></line><line x1="93.22" y1="285.7" x2="621.80" y2="285.7" stroke="#ddd" stroke-dasharray="3,2"></line><line x1="93.22" y1="202.5" x2="621.80" y2="202.5" stroke="#ddd" stroke-dasharray="3,2"></line><line x1="93.22" y1="119.3" x2="621.80" y2="119.3" stroke="#ddd" stroke-dasharray="3,2"></line></g></g><g clip-path="url(#boundsClip-672)"><g class="HeightedLegend clickable"><g class="legendMark"><g class="indicator"><line x1="626.8" y1="532.3" x2="649.3" y2="532.3" stroke="#666" stroke-width="0.5"></line><line x1="649.3" y1="532.3" x2="649.3" y2="528.55" stroke="#666" stroke-width="0.5"></line><line x1="649.3" y1="528.55" x2="651.8" y2="528.55" stroke="#666" stroke-width="0.5"></line></g><rect x="621.8" y="521.8" width="157.715" height="13.5" fill="#fff" opacity="0"></rect><text font-size="13.50" x="656.8" y="532.6" fill="#ca2628"><tspan x="656.8" y="532.5999999999999">Oceania - Projection</tspan></text></g><g class="legendMark"><g class="indicator"><line x1="626.8" y1="516.6" x2="644.3" y2="516.6" stroke="#666" stroke-width="0.5"></line><line x1="644.3" y1="516.6" x2="644.3" y2="513.05" stroke="#666" stroke-width="0.5"></line><line x1="644.3" y1="513.05" x2="651.8" y2="513.05" stroke="#666" stroke-width="0.5"></line></g><rect x="621.8" y="506.29999999999995" width="196.055" height="13.5" fill="#fff" opacity="0"></rect><text font-size="13.50" x="656.8" y="517.1" fill="#a652ba"><tspan x="656.8" y="517.0999999999999">South America - Projection</tspan></text></g><g class="legendMark"><g class="indicator"><line x1="626.8" y1="514.5" x2="639.3" y2="514.5" stroke="#666" stroke-width="0.5"></line><line x1="639.3" y1="514.5" x2="639.3" y2="497.54999999999995" stroke="#666" stroke-width="0.5"></line><line x1="639.3" y1="497.54999999999995" x2="651.8" y2="497.54999999999995" stroke="#666" stroke-width="0.5"></line></g><rect x="621.8" y="490.79999999999995" width="213.20000000000002" height="13.5" fill="#fff" opacity="0"></rect><text font-size="13.50" x="656.8" y="501.6" fill="#2a939b"><tspan x="656.8" y="501.59999999999997">Northern America - Projection</tspan></text></g><g class="legendMark"><g class="indicator"><line x1="626.8" y1="508.1" x2="634.3" y2="508.1" stroke="#666" stroke-width="0.5"></line><line x1="634.3" y1="508.1" x2="634.3" y2="482.04999999999995" stroke="#666" stroke-width="0.5"></line><line x1="634.3" y1="482.04999999999995" x2="651.8" y2="482.04999999999995" stroke="#666" stroke-width="0.5"></line></g><rect x="621.8" y="475.29999999999995" width="150.965" height="13.5" fill="#fff" opacity="0"></rect><text font-size="13.50" x="656.8" y="486.1" fill="#e6332e"><tspan x="656.8" y="486.09999999999997">Europe - Projection</tspan></text></g><g class="legendMark"><g class="indicator"><line x1="626.8" y1="349.4" x2="649.3" y2="349.4" stroke="#666" stroke-width="0.5"></line><line x1="649.3" y1="349.4" x2="649.3" y2="349.4" stroke="#666" stroke-width="0.5"></line><line x1="649.3" y1="349.4" x2="651.8" y2="349.4" stroke="#666" stroke-width="0.5"></line></g><rect x="621.8" y="342.65" width="141.78500000000003" height="13.5" fill="#fff" opacity="0"></rect><text font-size="13.50" x="656.8" y="353.4" fill="#7ec7ce"><tspan x="656.8" y="353.45">Africa - Projection</tspan></text></g><g class="legendMark"><g class="indicator"><line x1="626.8" y1="336.4" x2="639.3" y2="336.4" stroke="#666" stroke-width="0.5"></line><line x1="639.3" y1="336.4" x2="639.3" y2="333.9" stroke="#666" stroke-width="0.5"></line><line x1="639.3" y1="333.9" x2="651.8" y2="333.9" stroke="#666" stroke-width="0.5"></line></g><rect x="621.8" y="327.15" width="133.55" height="13.5" fill="#fff" opacity="0"></rect><text font-size="13.50" x="656.8" y="337.9" fill="#e6332e"><tspan x="656.8" y="337.95">Asia - Projection</tspan></text></g><g class="legendMark"><g class="indicator"><line x1="626.8" y1="70" x2="639.3" y2="70" stroke="#666" stroke-width="0.5"></line><line x1="639.3" y1="70" x2="639.3" y2="70" stroke="#666" stroke-width="0.5"></line><line x1="639.3" y1="70" x2="651.8" y2="70" stroke="#666" stroke-width="0.5"></line></g><rect x="621.8" y="63.25" width="142.46" height="13.5" fill="#fff" opacity="0"></rect><text font-size="13.50" x="656.8" y="74.0" fill="#f07f59"><tspan x="656.8" y="74.05">World - Projection</tspan></text></g></g><g class="Lines"><rect x="93" y="70" width="529" height="465" fill="rgba(255,255,255,0)" opacity="0"></rect><g class="key-World_0"><path stroke="#6bb537" stroke-linecap="round" d="M93 430L97 428L100 426L104 424L107 422L111 420L114 418L118 416L121 414L125 411L129 409L132 407L136 404L139 402L143 399L146 396L150 394L153 391L157 388L160 385L164 381L167 378L171 375L174 372L178 369L181 366L185 363L188 359L192 356L195 353L199 350L203 347L206 343L210 340L213 336L217 333L220 329L224 325L227 321L231 317L234 314L238 310L241 306L245 303L248 299L252 296L255 293L259 289L262 286L266 283L269 280L273 276L277 273L280 270L284 267L287 263L291 260L294 256L298 253L301 249L305 246L308 242L312 239L315 235L319 232L322 228" fill="none" stroke-width="1.5"></path></g><g class="key-World_1"><path stroke="#f07f59" stroke-linecap="round" d="M322 228L326 225L329 221L333 218L336 214L340 211L343 208L347 204L351 201L354 198L358 195L361 192L365 189L368 186L372 183L375 180L379 177L382 174L386 171L389 168L393 165L396 163L400 160L403 157L407 155L410 152L414 150L417 147L421 145L425 142L428 140L432 138L435 135L439 133L442 131L446 129L449 127L453 125L456 123L460 121L463 119L467 117L470 115L474 113L477 112L481 110L484 108L488 107L491 105L495 104L499 102L502 101L506 99L509 98L513 97L516 95L520 94L523 93L527 92L530 90L534 89L537 88L541 87L544 86L548 85L551 84L555 83L558 82L562 81L565 80L569 79L573 79L576 78L580 77L583 76L587 76L590 75L594 74L597 74L601 73L604 72L608 72L611 71L615 71L618 70L622 70" fill="none" stroke-width="1.5" stroke-dasharray="1,4"></path></g><g class="key-Oceania_0"><path stroke="#3360a9" stroke-linecap="round" d="M93 535L97 535L100 535L104 535L107 535L111 535L114 535L118 535L121 535L125 535L129 535L132 535L136 535L139 535L143 535L146 535L150 535L153 535L157 535L160 535L164 535L167 535L171 534L174 534L178 534L181 534L185 534L188 534L192 534L195 534L199 534L203 534L206 534L210 534L213 534L217 534L220 534L224 534L227 534L231 534L234 534L238 534L241 534L245 534L248 534L252 534L255 534L259 534L262 534L266 534L269 534L273 534L277 534L280 534L284 534L287 534L291 534L294 534L298 534L301 534L305 534L308 534L312 534L315 534L319 534L322 534" fill="none" stroke-width="1.5"></path></g><g class="key-Oceania_1"><path stroke="#ca2628" stroke-linecap="round" d="M322 534L326 534L329 534L333 534L336 534L340 534L343 534L347 534L351 534L354 533L358 533L361 533L365 533L368 533L372 533L375 533L379 533L382 533L386 533L389 533L393 533L396 533L400 533L403 533L407 533L410 533L414 533L417 533L421 533L425 533L428 533L432 533L435 533L439 533L442 533L446 533L449 533L453 533L456 533L460 533L463 533L467 533L470 533L474 533L477 533L481 533L484 533L488 533L491 533L495 533L499 533L502 533L506 533L509 533L513 533L516 533L520 533L523 533L527 533L530 533L534 533L537 533L541 533L544 533L548 533L551 533L555 533L558 533L562 533L565 532L569 532L573 532L576 532L580 532L583 532L587 532L590 532L594 532L597 532L601 532L604 532L608 532L611 532L615 532L618 532L622 532" fill="none" stroke-width="1.5" stroke-dasharray="1,4"></path></g><g class="key-Europe_0"><path stroke="#9ecc8a" stroke-linecap="round" d="M93 512L97 512L100 512L104 512L107 512L111 511L114 511L118 511L121 511L125 510L129 510L132 510L136 510L139 509L143 509L146 509L150 509L153 509L157 508L160 508L164 508L167 508L171 508L174 507L178 507L181 507L185 507L188 507L192 507L195 507L199 506L203 506L206 506L210 506L213 506L217 506L220 506L224 506L227 506L231 505L234 505L238 505L241 505L245 505L248 505L252 505L255 505L259 505L262 505L266 505L269 505L273 505L277 505L280 505L284 505L287 505L291 505L294 505L298 505L301 505L305 505L308 505L312 505L315 505L319 505L322 505" fill="none" stroke-width="1.5"></path></g><g class="key-Europe_1"><path stroke="#e6332e" stroke-linecap="round" d="M322 505L326 505L329 504L333 504L336 504L340 504L343 504L347 504L351 504L354 504L358 504L361 504L365 504L368 505L372 505L375 505L379 505L382 505L386 505L389 505L393 505L396 505L400 505L403 505L407 505L410 505L414 505L417 505L421 505L425 505L428 505L432 505L435 505L439 505L442 506L446 506L449 506L453 506L456 506L460 506L463 506L467 506L470 506L474 506L477 506L481 506L484 506L488 506L491 507L495 507L499 507L502 507L506 507L509 507L513 507L516 507L520 507L523 507L527 507L530 507L534 507L537 507L541 507L544 507L548 508L551 508L555 508L558 508L562 508L565 508L569 508L573 508L576 508L580 508L583 508L587 508L590 508L594 508L597 508L601 508L604 508L608 508L611 508L615 508L618 508L622 508" fill="none" stroke-width="1.5" stroke-dasharray="1,4"></path></g><g class="key-Asia_0"><path stroke="#b077b1" stroke-linecap="round" d="M93 477L97 476L100 474L104 473L107 472L111 471L114 470L118 469L121 467L125 466L129 465L132 463L136 462L139 460L143 458L146 457L150 455L153 453L157 451L160 449L164 446L167 444L171 442L174 440L178 438L181 436L185 434L188 432L192 430L195 428L199 425L203 423L206 421L210 419L213 416L217 414L220 412L224 409L227 406L231 404L234 401L238 399L241 397L245 394L248 392L252 390L255 388L259 386L262 384L266 382L269 380L273 378L277 376L280 374L284 372L287 370L291 368L294 367L298 365L301 363L305 361L308 359L312 357L315 355L319 353L322 351" fill="none" stroke-width="1.5"></path></g><g class="key-Asia_1"><path stroke="#e6332e" stroke-linecap="round" d="M322 351L326 350L329 348L333 346L336 345L340 343L343 341L347 340L351 338L354 337L358 336L361 334L365 333L368 332L372 331L375 330L379 328L382 327L386 326L389 326L393 325L396 324L400 323L403 322L407 322L410 321L414 320L417 320L421 319L425 319L428 318L432 318L435 317L439 317L442 317L446 317L449 316L453 316L456 316L460 316L463 316L467 316L470 316L474 316L477 316L481 317L484 317L488 317L491 317L495 317L499 318L502 318L506 318L509 319L513 319L516 320L520 320L523 320L527 321L530 321L534 322L537 322L541 323L544 323L548 324L551 324L555 325L558 326L562 326L565 327L569 327L573 328L576 328L580 329L583 330L587 330L590 331L594 331L597 332L601 333L604 333L608 334L611 335L615 335L618 336L622 336" fill="none" stroke-width="1.5" stroke-dasharray="1,4"></path></g><g class="key-Africa_0"><path stroke="#ffd53e" stroke-linecap="round" d="M93 526L97 526L100 525L104 525L107 525L111 525L114 525L118 524L121 524L125 524L129 523L132 523L136 523L139 523L143 522L146 522L150 522L153 521L157 521L160 520L164 520L167 520L171 519L174 519L178 518L181 518L185 517L188 517L192 516L195 516L199 515L203 515L206 514L210 514L213 513L217 512L220 512L224 511L227 510L231 510L234 509L238 508L241 508L245 507L248 506L252 505L255 505L259 504L262 503L266 502L269 501L273 500L277 500L280 499L284 498L287 497L291 496L294 495L298 494L301 493L305 492L308 491L312 489L315 488L319 487L322 486" fill="none" stroke-width="1.5"></path></g><g class="key-Africa_1"><path stroke="#7ec7ce" stroke-linecap="round" d="M322 486L326 484L329 483L333 482L336 480L340 479L343 478L347 476L351 475L354 473L358 472L361 471L365 469L368 468L372 466L375 464L379 463L382 461L386 460L389 458L393 456L396 455L400 453L403 451L407 450L410 448L414 446L417 444L421 443L425 441L428 439L432 437L435 436L439 434L442 432L446 430L449 428L453 427L456 425L460 423L463 421L467 419L470 417L474 416L477 414L481 412L484 410L488 408L491 407L495 405L499 403L502 401L506 399L509 398L513 396L516 394L520 392L523 391L527 389L530 387L534 386L537 384L541 382L544 381L548 379L551 377L555 376L558 374L562 373L565 371L569 370L573 368L576 367L580 365L583 364L587 362L590 361L594 360L597 358L601 357L604 356L608 354L611 353L615 352L618 351L622 349" fill="none" stroke-width="1.5" stroke-dasharray="1,4"></path></g><g class="key-Northern-America_0"><path stroke="#34983f" stroke-linecap="round" d="M93 528L97 528L100 528L104 528L107 528L111 528L114 527L118 527L121 527L125 527L129 527L132 527L136 527L139 526L143 526L146 526L150 526L153 526L157 526L160 526L164 526L167 526L171 526L174 525L178 525L181 525L185 525L188 525L192 525L195 525L199 525L203 525L206 525L210 524L213 524L217 524L220 524L224 524L227 524L231 524L234 524L238 524L241 523L245 523L248 523L252 523L255 523L259 523L262 523L266 522L269 522L273 522L277 522L280 522L284 522L287 522L291 522L294 521L298 521L301 521L305 521L308 521L312 521L315 521L319 521L322 521" fill="none" stroke-width="1.5"></path></g><g class="key-Northern-America_1"><path stroke="#2a939b" stroke-linecap="round" d="M322 521L326 520L329 520L333 520L336 520L340 520L343 520L347 520L351 520L354 520L358 519L361 519L365 519L368 519L372 519L375 519L379 519L382 519L386 519L389 519L393 518L396 518L400 518L403 518L407 518L410 518L414 518L417 518L421 518L425 518L428 518L432 518L435 517L439 517L442 517L446 517L449 517L453 517L456 517L460 517L463 517L467 517L470 517L474 517L477 517L481 517L484 517L488 516L491 516L495 516L499 516L502 516L506 516L509 516L513 516L516 516L520 516L523 516L527 516L530 516L534 516L537 516L541 516L544 515L548 515L551 515L555 515L558 515L562 515L565 515L569 515L573 515L576 515L580 515L583 515L587 515L590 515L594 515L597 515L601 515L604 515L608 515L611 515L615 515L618 515L622 515" fill="none" stroke-width="1.5" stroke-dasharray="1,4"></path></g><g class="key-South-America_0"><path stroke="#f6a324" stroke-linecap="round" d="M93 531L97 530L100 530L104 530L107 530L111 530L114 530L118 530L121 529L125 529L129 529L132 529L136 529L139 529L143 528L146 528L150 528L153 528L157 528L160 528L164 527L167 527L171 527L174 527L178 527L181 526L185 526L188 526L192 526L195 526L199 525L203 525L206 525L210 525L213 524L217 524L220 524L224 524L227 523L231 523L234 523L238 523L241 523L245 522L248 522L252 522L255 522L259 521L262 521L266 521L269 521L273 521L277 520L280 520L284 520L287 520L291 520L294 519L298 519L301 519L305 519L308 519L312 519L315 518L319 518L322 518" fill="none" stroke-width="1.5"></path></g><g class="key-South-America_1"><path stroke="#a652ba" stroke-linecap="round" d="M322 518L326 518L329 518L333 518L336 517L340 517L343 517L347 517L351 517L354 517L358 517L361 516L365 516L368 516L372 516L375 516L379 516L382 516L386 516L389 516L393 515L396 515L400 515L403 515L407 515L410 515L414 515L417 515L421 515L425 515L428 515L432 515L435 515L439 515L442 515L446 515L449 515L453 514L456 514L460 514L463 514L467 514L470 514L474 514L477 514L481 514L484 514L488 514L491 514L495 515L499 515L502 515L506 515L509 515L513 515L516 515L520 515L523 515L527 515L530 515L534 515L537 515L541 515L544 515L548 515L551 515L555 515L558 515L562 515L565 515L569 516L573 516L576 516L580 516L583 516L587 516L590 516L594 516L597 516L601 516L604 516L608 516L611 516L615 516L618 517L622 517" fill="none" stroke-width="1.5" stroke-dasharray="1,4"></path></g></g></g></g><g class="SourcesFooter" style="fill:#777"><g class="clickable" style="fill:#777"><text font-size="12.60" x="15.0" y="581.6"><tspan x="15" y="581.58">Source: UN Population Division (2017 Revision)</tspan></text></g><text font-size="12.60" x="422.7" y="581.6"><tspan x="422.728" y="581.58"><a target='_blank' style='fill: #777;' href='https://ourworldindata.org/world-population-future-eductation-now/'>OurWorldInData.org/world-population-future-eductation-now/</a> • <a style="fill: #777;" class="cclogo" href="http://creativecommons.org/licenses/by-sa/4.0/deed.en_US" target="_blank">CC BY-SA</a></tspan></text></g></g></svg>