<svg xmlns="http://www.w3.org/2000/svg" version="1.1" style="font-family: 'Helvetica Neue', Helvetica, Arial, sans-serif; font-size: 16px; background-color: white; text-rendering: optimizeLegibility; -webkit-font-smoothing: antialiased;" width="850" height="600"><g class="ChartTab"><g class="HeaderView"><g opacity="0.8" transform="translate(770, 15) scale(0.31)"><a xmlns:xlink="http://www.w3.org/1999/xlink" xlink:href="https://ourworldindata.org" target="_blank"><g><rect x="0" y="0" fill="#1B2543" width="211.2" height="130.1"/><rect x="0" y="112.2" fill="#E63912" width="211.2" height="17.9"/><g><rect x="1.2" y="12.3" fill="none" width="210.2" height="99.2"/><path fill="#FFFFFF" d="M37.8,32.2c0,12.7-7.7,19.4-17.1,19.4c-9.7,0-16.6-7.5-16.6-18.7c0-11.7,7.3-19.3,17.1-19.3 C31.3,13.7,37.8,21.3,37.8,32.2z M9.2,32.8c0,7.9,4.3,14.9,11.8,14.9c7.5,0,11.8-6.9,11.8-15.3c0-7.3-3.8-14.9-11.8-14.9 C13.1,17.5,9.2,24.8,9.2,32.8z"/><path fill="#FFFFFF" d="M62.7,43.8c0,2.7,0.1,5.1,0.2,7.2h-4.3l-0.3-4.3h-0.1c-1.3,2.1-4,4.9-8.8,4.9c-4.2,0-9.1-2.3-9.1-11.6 V24.6h4.8v14.6c0,5,1.5,8.4,5.9,8.4c3.2,0,5.5-2.2,6.3-4.4c0.3-0.7,0.4-1.6,0.4-2.5V24.6h4.8V43.8z"/><path fill="#FFFFFF" d="M67.3,32.8c0-3.1-0.1-5.8-0.2-8.2h4.2l0.2,5.2h0.2c1.2-3.5,4.1-5.8,7.3-5.8c0.5,0,0.9,0.1,1.4,0.2v4.5 c-0.5-0.1-1-0.2-1.6-0.2c-3.4,0-5.8,2.6-6.5,6.2c-0.1,0.7-0.2,1.4-0.2,2.2V51h-4.8V32.8z"/><path fill="#FFFFFF" d="M95.4,51l-9.4-36.8h5l4.4,18.6c1.1,4.6,2.1,9.2,2.7,12.7h0.1c0.6-3.7,1.8-8,3-12.8l4.9-18.5h5l4.5,18.7 c1,4.4,2,8.7,2.6,12.6h0.1c0.8-4,1.8-8.1,3-12.7l4.9-18.5h4.9L120.6,51h-5L111,31.9c-1.1-4.7-1.9-8.3-2.4-12h-0.1 c-0.7,3.7-1.5,7.3-2.8,12L100.4,51H95.4z"/><path fill="#FFFFFF" d="M154.9,37.6c0,9.8-6.8,14-13.2,14c-7.2,0-12.7-5.2-12.7-13.6c0-8.8,5.8-14,13.1-14 C149.8,24,154.9,29.5,154.9,37.6z M133.9,37.9c0,5.8,3.3,10.1,8,10.1c4.6,0,8-4.3,8-10.3c0-4.5-2.2-10.1-7.9-10.1 C136.3,27.6,133.9,32.8,133.9,37.9z"/><path fill="#FFFFFF" d="M158.2,32.8c0-3.1-0.1-5.8-0.2-8.2h4.2l0.2,5.2h0.2c1.2-3.5,4.1-5.8,7.3-5.8c0.5,0,0.9,0.1,1.4,0.2v4.5 c-0.5-0.1-1-0.2-1.6-0.2c-3.4,0-5.8,2.6-6.5,6.2c-0.1,0.7-0.2,1.4-0.2,2.2V51h-4.8V32.8z"/><path fill="#FFFFFF" d="M173.5,12.3h4.8V51h-4.8V12.3z"/><path fill="#FFFFFF" d="M206.5,12.3v31.9c0,2.3,0.1,5,0.2,6.8h-4.3l-0.2-4.6H202c-1.5,2.9-4.7,5.2-9,5.2 c-6.4,0-11.3-5.4-11.3-13.4c-0.1-8.8,5.4-14.2,11.9-14.2c4,0,6.8,1.9,8,4h0.1V12.3H206.5z M201.7,35.4c0-0.6-0.1-1.4-0.2-2 c-0.7-3.1-3.3-5.6-6.9-5.6c-5,0-7.9,4.4-7.9,10.2c0,5.3,2.6,9.8,7.8,9.8c3.2,0,6.2-2.1,7.1-5.7c0.2-0.7,0.2-1.3,0.2-2.1V35.4z"/><path fill="#FFFFFF" d="M42.8,64c0.1,1.6-1.1,2.9-3.1,2.9c-1.7,0-2.9-1.3-2.9-2.9c0-1.7,1.3-3,3-3C41.7,61,42.8,62.3,42.8,64z M37.4,97.8V71.4h4.8v26.4H37.4z"/><path fill="#FFFFFF" d="M47.5,78.6c0-2.7-0.1-5-0.2-7.1h4.3l0.3,4.4h0.1c1.3-2.5,4.4-5,8.8-5c3.7,0,9.4,2.2,9.4,11.2v15.8h-4.8 V82.6c0-4.3-1.6-7.8-6.1-7.8c-3.2,0-5.6,2.2-6.5,4.9c-0.2,0.6-0.3,1.4-0.3,2.2v15.9h-4.8V78.6z"/><path fill="#FFFFFF" d="M84,61.6c2.9-0.4,6.3-0.8,10.1-0.8c6.8,0,11.7,1.6,14.9,4.6c3.3,3,5.2,7.3,5.2,13.2c0,6-1.9,10.9-5.3,14.3 c-3.4,3.4-9.1,5.3-16.3,5.3c-3.4,0-6.2-0.2-8.6-0.4V61.6z M88.8,94.1c1.2,0.2,3,0.3,4.8,0.3c10.2,0,15.7-5.7,15.7-15.6 c0.1-8.7-4.9-14.2-14.9-14.2c-2.5,0-4.3,0.2-5.6,0.5V94.1z"/><path fill="#FFFFFF" d="M132.1,97.8l-0.4-3.3h-0.2c-1.5,2.1-4.3,3.9-8.1,3.9c-5.4,0-8.1-3.8-8.1-7.6c0-6.4,5.7-9.9,15.9-9.8v-0.5 c0-2.2-0.6-6.1-6-6.1c-2.5,0-5,0.8-6.9,2l-1.1-3.2c2.2-1.4,5.4-2.3,8.7-2.3c8.1,0,10.1,5.5,10.1,10.8v9.9c0,2.3,0.1,4.5,0.4,6.3 H132.1z M131.4,84.4c-5.3-0.1-11.2,0.8-11.2,5.9c0,3.1,2.1,4.6,4.5,4.6c3.4,0,5.6-2.2,6.4-4.4c0.2-0.5,0.3-1,0.3-1.5V84.4z"/><path fill="#FFFFFF" d="M146.6,63.9v7.6h6.9v3.7h-6.9v14.2c0,3.3,0.9,5.1,3.6,5.1c1.3,0,2.2-0.2,2.8-0.3l0.2,3.6 c-0.9,0.4-2.4,0.7-4.3,0.7c-2.2,0-4-0.7-5.2-2c-1.4-1.4-1.9-3.8-1.9-6.9V75.1h-4.1v-3.7h4.1v-6.3L146.6,63.9z"/><path fill="#FFFFFF" d="M171.4,97.8l-0.4-3.3h-0.2c-1.5,2.1-4.3,3.9-8.1,3.9c-5.4,0-8.1-3.8-8.1-7.6c0-6.4,5.7-9.9,15.9-9.8v-0.5 c0-2.2-0.6-6.1-6-6.1c-2.5,0-5,0.8-6.9,2l-1.1-3.2c2.2-1.4,5.4-2.3,8.7-2.3c8.1,0,10.1,5.5,10.1,10.8v9.9c0,2.3,0.1,4.5,0.4,6.3 H171.4z M170.7,84.4c-5.3-0.1-11.2,0.8-11.2,5.9c0,3.1,2.1,4.6,4.5,4.6c3.4,0,5.6-2.2,6.4-4.4c0.2-0.5,0.3-1,0.3-1.5V84.4z"/></g></g></a></g><a href="https://ourworldindata.org/grapher/poultry-yields-meat-per-animal" target="_blank"><text font-size="24.00" x="15.0" y="34.2" fill="#555"><tspan x="15" y="34.2">Poultry yields, kilograms per animal</tspan></text></a><text font-size="12.80" x="15.0" y="51.2" fill="#666"><tspan x="15" y="51.239999999999995">Yields of poultry meat, measured in kilograms per animal. </tspan></text></g><g class="LineChart"><defs><clipPath id="boundsClip-17"><rect x="49.456" y="0" width="830" height="965.8"></rect></clipPath></defs><g class="AxisBoxView"><g class="HorizontalAxis"><text x="59.5" y="557.9" fill="#666" text-anchor="middle" font-size="14.4">1961</text><text x="169.8" y="557.9" fill="#666" text-anchor="middle" font-size="14.4">1970</text><text x="292.5" y="557.9" fill="#666" text-anchor="middle" font-size="14.4">1980</text><text x="415.2" y="557.9" fill="#666" text-anchor="middle" font-size="14.4">1990</text><text x="537.8" y="557.9" fill="#666" text-anchor="middle" font-size="14.4">2000</text><text x="660.5" y="557.9" fill="#666" text-anchor="middle" font-size="14.4">2010</text><text x="709.5" y="557.9" fill="#666" text-anchor="middle" font-size="14.4">2014</text></g><g class="VerticalAxis"><text x="54.46" y="538.5" fill="#666" dominant-baseline="middle" text-anchor="end" font-size="14.4">0 kg</text><text x="54.46" y="435.5" fill="#666" dominant-baseline="middle" text-anchor="end" font-size="14.4">0.5 kg</text><text x="54.46" y="332.6" fill="#666" dominant-baseline="middle" text-anchor="end" font-size="14.4">1 kg</text><text x="54.46" y="229.6" fill="#666" dominant-baseline="middle" text-anchor="end" font-size="14.4">1.5 kg</text><text x="54.46" y="126.6" fill="#666" dominant-baseline="middle" text-anchor="end" font-size="14.4">2 kg</text></g><g class="AxisGridLines"><line x1="59.46" y1="538.5" x2="709.52" y2="538.5" stroke="#ccc"></line><line x1="59.46" y1="435.5" x2="709.52" y2="435.5" stroke="#ddd" stroke-dasharray="3,2"></line><line x1="59.46" y1="332.6" x2="709.52" y2="332.6" stroke="#ddd" stroke-dasharray="3,2"></line><line x1="59.46" y1="229.6" x2="709.52" y2="229.6" stroke="#ddd" stroke-dasharray="3,2"></line><line x1="59.46" y1="126.6" x2="709.52" y2="126.6" stroke="#ddd" stroke-dasharray="3,2"></line></g><g class="AxisGridLines"><line x1="169.8" y1="538.50" x2="169.8" y2="75.00" stroke="#ddd" stroke-dasharray="3,2"></line><line x1="292.5" y1="538.50" x2="292.5" y2="75.00" stroke="#ddd" stroke-dasharray="3,2"></line><line x1="415.2" y1="538.50" x2="415.2" y2="75.00" stroke="#ddd" stroke-dasharray="3,2"></line><line x1="537.8" y1="538.50" x2="537.8" y2="75.00" stroke="#ddd" stroke-dasharray="3,2"></line><line x1="660.5" y1="538.50" x2="660.5" y2="75.00" stroke="#ddd" stroke-dasharray="3,2"></line></g></g><g clip-path="url(#boundsClip-17)"><g class="HeightedLegend clickable"><g class="legendMark"><rect x="719.52" y="68.6" width="115.48" height="12.8" fill="#fff" opacity="0"></rect><rect x="719.52" y="73.75" width="10" height="2.5" fill="#e6332e"></rect><text font-size="12.80" x="734.5" y="78.8" fill="#333"><tspan x="734.52" y="78.83999999999999">Northern America</tspan></text></g><g class="legendMark"><rect x="719.52" y="81.39999999999999" width="99.224" height="12.8" fill="#fff" opacity="0"></rect><rect x="719.52" y="86.55" width="10" height="2.5" fill="#2a939b"></rect><text font-size="12.80" x="734.5" y="91.6" fill="#333"><tspan x="734.52" y="91.63999999999999">South America</tspan></text></g><g class="legendMark"><rect x="719.52" y="144.1" width="62.872" height="12.8" fill="#fff" opacity="0"></rect><rect x="719.52" y="149.25" width="10" height="2.5" fill="#a652ba"></rect><text font-size="12.80" x="734.5" y="154.3" fill="#333"><tspan x="734.52" y="154.34">Oceania</tspan></text></g><g class="legendMark"><rect x="719.52" y="169.6" width="56.472" height="12.8" fill="#fff" opacity="0"></rect><rect x="719.52" y="174.75" width="10" height="2.5" fill="#f6a324"></rect><text font-size="12.80" x="734.5" y="179.8" fill="#333"><tspan x="734.52" y="179.84">Europe</tspan></text></g><g class="legendMark"><rect x="719.52" y="182.4" width="48.408" height="12.8" fill="#fff" opacity="0"></rect><rect x="719.52" y="187.55" width="10" height="2.5" fill="#34983f"></rect><text font-size="12.80" x="734.5" y="192.6" fill="#333"><tspan x="734.52" y="192.64000000000001">World</tspan></text></g><g class="legendMark"><rect x="719.52" y="244.6" width="39.96" height="12.8" fill="#fff" opacity="0"></rect><rect x="719.52" y="249.75" width="10" height="2.5" fill="#ca2628"></rect><text font-size="12.80" x="734.5" y="254.8" fill="#333"><tspan x="734.52" y="254.83999999999997">Asia</tspan></text></g><g class="legendMark"><rect x="719.52" y="259.5" width="47.768" height="12.8" fill="#fff" opacity="0"></rect><rect x="719.52" y="264.65" width="10" height="2.5" fill="#3360a9"></rect><text font-size="12.80" x="734.5" y="269.7" fill="#333"><tspan x="734.52" y="269.74">Africa</tspan></text></g></g><g class="Lines"><rect x="59" y="75" width="650" height="464" fill="rgba(255,255,255,0)" opacity="0"></rect><g class="key-Northern-America_0"><path stroke="#e6332e" stroke-linecap="round" d="M60 247L72 254L84 250L96 248L109 249L121 211L133 250L145 254L158 254L170 249L182 246L194 243L207 241L219 239L231 234L243 230L256 233L268 232L280 230L293 227L305 219L317 217L329 212L342 210L354 214L366 191L378 196L391 194L403 191L415 188L427 186L440 181L452 181L464 178L477 176L489 166L501 164L513 163L526 156L538 153L550 152L562 151L575 145L587 137L599 128L611 121L624 114L636 105L648 106L661 98L673 89L685 84L697 80L710 75" fill="none" stroke-width="1.5"></path><g fill="#e6332e"><circle cx="60" cy="247" r="2"></circle><circle cx="72" cy="254" r="2"></circle><circle cx="84" cy="250" r="2"></circle><circle cx="96" cy="248" r="2"></circle><circle cx="109" cy="249" r="2"></circle><circle cx="121" cy="211" r="2"></circle><circle cx="133" cy="250" r="2"></circle><circle cx="145" cy="254" r="2"></circle><circle cx="158" cy="254" r="2"></circle><circle cx="170" cy="249" r="2"></circle><circle cx="182" cy="246" r="2"></circle><circle cx="194" cy="243" r="2"></circle><circle cx="207" cy="241" r="2"></circle><circle cx="219" cy="239" r="2"></circle><circle cx="231" cy="234" r="2"></circle><circle cx="243" cy="230" r="2"></circle><circle cx="256" cy="233" r="2"></circle><circle cx="268" cy="232" r="2"></circle><circle cx="280" cy="230" r="2"></circle><circle cx="293" cy="227" r="2"></circle><circle cx="305" cy="219" r="2"></circle><circle cx="317" cy="217" r="2"></circle><circle cx="329" cy="212" r="2"></circle><circle cx="342" cy="210" r="2"></circle><circle cx="354" cy="214" r="2"></circle><circle cx="366" cy="191" r="2"></circle><circle cx="378" cy="196" r="2"></circle><circle cx="391" cy="194" r="2"></circle><circle cx="403" cy="191" r="2"></circle><circle cx="415" cy="188" r="2"></circle><circle cx="427" cy="186" r="2"></circle><circle cx="440" cy="181" r="2"></circle><circle cx="452" cy="181" r="2"></circle><circle cx="464" cy="178" r="2"></circle><circle cx="477" cy="176" r="2"></circle><circle cx="489" cy="166" r="2"></circle><circle cx="501" cy="164" r="2"></circle><circle cx="513" cy="163" r="2"></circle><circle cx="526" cy="156" r="2"></circle><circle cx="538" cy="153" r="2"></circle><circle cx="550" cy="152" r="2"></circle><circle cx="562" cy="151" r="2"></circle><circle cx="575" cy="145" r="2"></circle><circle cx="587" cy="137" r="2"></circle><circle cx="599" cy="128" r="2"></circle><circle cx="611" cy="121" r="2"></circle><circle cx="624" cy="114" r="2"></circle><circle cx="636" cy="105" r="2"></circle><circle cx="648" cy="106" r="2"></circle><circle cx="661" cy="98" r="2"></circle><circle cx="673" cy="89" r="2"></circle><circle cx="685" cy="84" r="2"></circle><circle cx="697" cy="80" r="2"></circle><circle cx="710" cy="75" r="2"></circle></g></g><g class="key-World_0"><path stroke="#34983f" stroke-linecap="round" d="M60 276L72 278L84 277L96 277L109 277L121 265L133 276L145 276L158 275L170 272L182 270L194 269L207 268L219 268L231 266L243 264L256 265L268 264L280 263L293 262L305 260L317 260L329 259L342 259L354 258L366 254L378 252L391 250L403 247L415 245L427 242L440 238L452 236L464 232L477 232L489 232L501 225L513 219L526 220L538 216L550 216L562 214L575 213L587 207L599 212L611 208L624 207L636 206L648 208L661 201L673 198L685 194L697 189L710 187" fill="none" stroke-width="1.5"></path><g fill="#34983f"><circle cx="60" cy="276" r="2"></circle><circle cx="72" cy="278" r="2"></circle><circle cx="84" cy="277" r="2"></circle><circle cx="96" cy="277" r="2"></circle><circle cx="109" cy="277" r="2"></circle><circle cx="121" cy="265" r="2"></circle><circle cx="133" cy="276" r="2"></circle><circle cx="145" cy="276" r="2"></circle><circle cx="158" cy="275" r="2"></circle><circle cx="170" cy="272" r="2"></circle><circle cx="182" cy="270" r="2"></circle><circle cx="194" cy="269" r="2"></circle><circle cx="207" cy="268" r="2"></circle><circle cx="219" cy="268" r="2"></circle><circle cx="231" cy="266" r="2"></circle><circle cx="243" cy="264" r="2"></circle><circle cx="256" cy="265" r="2"></circle><circle cx="268" cy="264" r="2"></circle><circle cx="280" cy="263" r="2"></circle><circle cx="293" cy="262" r="2"></circle><circle cx="305" cy="260" r="2"></circle><circle cx="317" cy="260" r="2"></circle><circle cx="329" cy="259" r="2"></circle><circle cx="342" cy="259" r="2"></circle><circle cx="354" cy="258" r="2"></circle><circle cx="366" cy="254" r="2"></circle><circle cx="378" cy="252" r="2"></circle><circle cx="391" cy="250" r="2"></circle><circle cx="403" cy="247" r="2"></circle><circle cx="415" cy="245" r="2"></circle><circle cx="427" cy="242" r="2"></circle><circle cx="440" cy="238" r="2"></circle><circle cx="452" cy="236" r="2"></circle><circle cx="464" cy="232" r="2"></circle><circle cx="477" cy="232" r="2"></circle><circle cx="489" cy="232" r="2"></circle><circle cx="501" cy="225" r="2"></circle><circle cx="513" cy="219" r="2"></circle><circle cx="526" cy="220" r="2"></circle><circle cx="538" cy="216" r="2"></circle><circle cx="550" cy="216" r="2"></circle><circle cx="562" cy="214" r="2"></circle><circle cx="575" cy="213" r="2"></circle><circle cx="587" cy="207" r="2"></circle><circle cx="599" cy="212" r="2"></circle><circle cx="611" cy="208" r="2"></circle><circle cx="624" cy="207" r="2"></circle><circle cx="636" cy="206" r="2"></circle><circle cx="648" cy="208" r="2"></circle><circle cx="661" cy="201" r="2"></circle><circle cx="673" cy="198" r="2"></circle><circle cx="685" cy="194" r="2"></circle><circle cx="697" cy="189" r="2"></circle><circle cx="710" cy="187" r="2"></circle></g></g><g class="key-South-America_0"><path stroke="#2a939b" stroke-linecap="round" d="M60 294L72 290L84 288L96 285L109 287L121 286L133 288L145 287L158 276L170 276L182 276L194 278L207 280L219 277L231 274L243 279L256 277L268 283L280 287L293 283L305 271L317 265L329 267L342 264L354 266L366 270L378 267L391 249L403 245L415 250L427 243L440 245L452 236L464 234L477 237L489 242L501 212L513 193L526 188L538 173L550 176L562 170L575 151L587 145L599 190L611 172L624 174L636 157L648 167L661 126L673 121L685 85L697 84L710 84" fill="none" stroke-width="1.5"></path><g fill="#2a939b"><circle cx="60" cy="294" r="2"></circle><circle cx="72" cy="290" r="2"></circle><circle cx="84" cy="288" r="2"></circle><circle cx="96" cy="285" r="2"></circle><circle cx="109" cy="287" r="2"></circle><circle cx="121" cy="286" r="2"></circle><circle cx="133" cy="288" r="2"></circle><circle cx="145" cy="287" r="2"></circle><circle cx="158" cy="276" r="2"></circle><circle cx="170" cy="276" r="2"></circle><circle cx="182" cy="276" r="2"></circle><circle cx="194" cy="278" r="2"></circle><circle cx="207" cy="280" r="2"></circle><circle cx="219" cy="277" r="2"></circle><circle cx="231" cy="274" r="2"></circle><circle cx="243" cy="279" r="2"></circle><circle cx="256" cy="277" r="2"></circle><circle cx="268" cy="283" r="2"></circle><circle cx="280" cy="287" r="2"></circle><circle cx="293" cy="283" r="2"></circle><circle cx="305" cy="271" r="2"></circle><circle cx="317" cy="265" r="2"></circle><circle cx="329" cy="267" r="2"></circle><circle cx="342" cy="264" r="2"></circle><circle cx="354" cy="266" r="2"></circle><circle cx="366" cy="270" r="2"></circle><circle cx="378" cy="267" r="2"></circle><circle cx="391" cy="249" r="2"></circle><circle cx="403" cy="245" r="2"></circle><circle cx="415" cy="250" r="2"></circle><circle cx="427" cy="243" r="2"></circle><circle cx="440" cy="245" r="2"></circle><circle cx="452" cy="236" r="2"></circle><circle cx="464" cy="234" r="2"></circle><circle cx="477" cy="237" r="2"></circle><circle cx="489" cy="242" r="2"></circle><circle cx="501" cy="212" r="2"></circle><circle cx="513" cy="193" r="2"></circle><circle cx="526" cy="188" r="2"></circle><circle cx="538" cy="173" r="2"></circle><circle cx="550" cy="176" r="2"></circle><circle cx="562" cy="170" r="2"></circle><circle cx="575" cy="151" r="2"></circle><circle cx="587" cy="145" r="2"></circle><circle cx="599" cy="190" r="2"></circle><circle cx="611" cy="172" r="2"></circle><circle cx="624" cy="174" r="2"></circle><circle cx="636" cy="157" r="2"></circle><circle cx="648" cy="167" r="2"></circle><circle cx="661" cy="126" r="2"></circle><circle cx="673" cy="121" r="2"></circle><circle cx="685" cy="85" r="2"></circle><circle cx="697" cy="84" r="2"></circle><circle cx="710" cy="84" r="2"></circle></g></g><g class="key-Oceania_0"><path stroke="#a652ba" stroke-linecap="round" d="M60 270L72 270L84 270L96 270L109 271L121 296L133 290L145 286L158 272L170 270L182 269L194 273L207 276L219 276L231 270L243 271L256 275L268 272L280 266L293 271L305 273L317 271L329 277L342 273L354 267L366 270L378 267L391 265L403 256L415 255L427 252L440 240L452 236L464 245L477 245L489 240L501 215L513 207L526 209L538 216L550 212L562 204L575 195L587 198L599 191L611 176L624 169L636 179L648 176L661 169L673 159L685 153L697 157L710 151" fill="none" stroke-width="1.5"></path><g fill="#a652ba"><circle cx="60" cy="270" r="2"></circle><circle cx="72" cy="270" r="2"></circle><circle cx="84" cy="270" r="2"></circle><circle cx="96" cy="270" r="2"></circle><circle cx="109" cy="271" r="2"></circle><circle cx="121" cy="296" r="2"></circle><circle cx="133" cy="290" r="2"></circle><circle cx="145" cy="286" r="2"></circle><circle cx="158" cy="272" r="2"></circle><circle cx="170" cy="270" r="2"></circle><circle cx="182" cy="269" r="2"></circle><circle cx="194" cy="273" r="2"></circle><circle cx="207" cy="276" r="2"></circle><circle cx="219" cy="276" r="2"></circle><circle cx="231" cy="270" r="2"></circle><circle cx="243" cy="271" r="2"></circle><circle cx="256" cy="275" r="2"></circle><circle cx="268" cy="272" r="2"></circle><circle cx="280" cy="266" r="2"></circle><circle cx="293" cy="271" r="2"></circle><circle cx="305" cy="273" r="2"></circle><circle cx="317" cy="271" r="2"></circle><circle cx="329" cy="277" r="2"></circle><circle cx="342" cy="273" r="2"></circle><circle cx="354" cy="267" r="2"></circle><circle cx="366" cy="270" r="2"></circle><circle cx="378" cy="267" r="2"></circle><circle cx="391" cy="265" r="2"></circle><circle cx="403" cy="256" r="2"></circle><circle cx="415" cy="255" r="2"></circle><circle cx="427" cy="252" r="2"></circle><circle cx="440" cy="240" r="2"></circle><circle cx="452" cy="236" r="2"></circle><circle cx="464" cy="245" r="2"></circle><circle cx="477" cy="245" r="2"></circle><circle cx="489" cy="240" r="2"></circle><circle cx="501" cy="215" r="2"></circle><circle cx="513" cy="207" r="2"></circle><circle cx="526" cy="209" r="2"></circle><circle cx="538" cy="216" r="2"></circle><circle cx="550" cy="212" r="2"></circle><circle cx="562" cy="204" r="2"></circle><circle cx="575" cy="195" r="2"></circle><circle cx="587" cy="198" r="2"></circle><circle cx="599" cy="191" r="2"></circle><circle cx="611" cy="176" r="2"></circle><circle cx="624" cy="169" r="2"></circle><circle cx="636" cy="179" r="2"></circle><circle cx="648" cy="176" r="2"></circle><circle cx="661" cy="169" r="2"></circle><circle cx="673" cy="159" r="2"></circle><circle cx="685" cy="153" r="2"></circle><circle cx="697" cy="157" r="2"></circle><circle cx="710" cy="151" r="2"></circle></g></g><g class="key-Europe_0"><path stroke="#f6a324" stroke-linecap="round" d="M60 270L72 272L84 271L96 272L109 273L121 272L133 272L145 267L158 267L170 265L182 261L194 262L207 262L219 262L231 261L243 261L256 261L268 258L280 257L293 256L305 257L317 258L329 256L342 256L354 255L366 253L378 254L391 252L403 249L415 243L427 239L440 228L452 223L464 215L477 214L489 216L501 208L513 206L526 208L538 200L550 199L562 186L575 190L587 183L599 188L611 186L624 186L636 194L648 189L661 183L673 179L685 175L697 176L710 176" fill="none" stroke-width="1.5"></path><g fill="#f6a324"><circle cx="60" cy="270" r="2"></circle><circle cx="72" cy="272" r="2"></circle><circle cx="84" cy="271" r="2"></circle><circle cx="96" cy="272" r="2"></circle><circle cx="109" cy="273" r="2"></circle><circle cx="121" cy="272" r="2"></circle><circle cx="133" cy="272" r="2"></circle><circle cx="145" cy="267" r="2"></circle><circle cx="158" cy="267" r="2"></circle><circle cx="170" cy="265" r="2"></circle><circle cx="182" cy="261" r="2"></circle><circle cx="194" cy="262" r="2"></circle><circle cx="207" cy="262" r="2"></circle><circle cx="219" cy="262" r="2"></circle><circle cx="231" cy="261" r="2"></circle><circle cx="243" cy="261" r="2"></circle><circle cx="256" cy="261" r="2"></circle><circle cx="268" cy="258" r="2"></circle><circle cx="280" cy="257" r="2"></circle><circle cx="293" cy="256" r="2"></circle><circle cx="305" cy="257" r="2"></circle><circle cx="317" cy="258" r="2"></circle><circle cx="329" cy="256" r="2"></circle><circle cx="342" cy="256" r="2"></circle><circle cx="354" cy="255" r="2"></circle><circle cx="366" cy="253" r="2"></circle><circle cx="378" cy="254" r="2"></circle><circle cx="391" cy="252" r="2"></circle><circle cx="403" cy="249" r="2"></circle><circle cx="415" cy="243" r="2"></circle><circle cx="427" cy="239" r="2"></circle><circle cx="440" cy="228" r="2"></circle><circle cx="452" cy="223" r="2"></circle><circle cx="464" cy="215" r="2"></circle><circle cx="477" cy="214" r="2"></circle><circle cx="489" cy="216" r="2"></circle><circle cx="501" cy="208" r="2"></circle><circle cx="513" cy="206" r="2"></circle><circle cx="526" cy="208" r="2"></circle><circle cx="538" cy="200" r="2"></circle><circle cx="550" cy="199" r="2"></circle><circle cx="562" cy="186" r="2"></circle><circle cx="575" cy="190" r="2"></circle><circle cx="587" cy="183" r="2"></circle><circle cx="599" cy="188" r="2"></circle><circle cx="611" cy="186" r="2"></circle><circle cx="624" cy="186" r="2"></circle><circle cx="636" cy="194" r="2"></circle><circle cx="648" cy="189" r="2"></circle><circle cx="661" cy="183" r="2"></circle><circle cx="673" cy="179" r="2"></circle><circle cx="685" cy="175" r="2"></circle><circle cx="697" cy="176" r="2"></circle><circle cx="710" cy="176" r="2"></circle></g></g><g class="key-Asia_0"><path stroke="#ca2628" stroke-linecap="round" d="M60 314L72 310L84 310L96 309L109 309L121 308L133 306L145 303L158 302L170 299L182 297L194 295L207 294L219 293L231 290L243 288L256 286L268 285L280 283L293 283L305 284L317 285L329 286L342 289L354 285L366 282L378 280L391 278L403 278L415 278L427 274L440 270L452 268L464 267L477 265L489 266L501 265L513 256L526 263L538 260L550 261L562 263L575 265L587 262L599 261L611 258L624 259L636 261L648 259L661 261L673 259L685 260L697 250L710 251" fill="none" stroke-width="1.5"></path><g fill="#ca2628"><circle cx="60" cy="314" r="2"></circle><circle cx="72" cy="310" r="2"></circle><circle cx="84" cy="310" r="2"></circle><circle cx="96" cy="309" r="2"></circle><circle cx="109" cy="309" r="2"></circle><circle cx="121" cy="308" r="2"></circle><circle cx="133" cy="306" r="2"></circle><circle cx="145" cy="303" r="2"></circle><circle cx="158" cy="302" r="2"></circle><circle cx="170" cy="299" r="2"></circle><circle cx="182" cy="297" r="2"></circle><circle cx="194" cy="295" r="2"></circle><circle cx="207" cy="294" r="2"></circle><circle cx="219" cy="293" r="2"></circle><circle cx="231" cy="290" r="2"></circle><circle cx="243" cy="288" r="2"></circle><circle cx="256" cy="286" r="2"></circle><circle cx="268" cy="285" r="2"></circle><circle cx="280" cy="283" r="2"></circle><circle cx="293" cy="283" r="2"></circle><circle cx="305" cy="284" r="2"></circle><circle cx="317" cy="285" r="2"></circle><circle cx="329" cy="286" r="2"></circle><circle cx="342" cy="289" r="2"></circle><circle cx="354" cy="285" r="2"></circle><circle cx="366" cy="282" r="2"></circle><circle cx="378" cy="280" r="2"></circle><circle cx="391" cy="278" r="2"></circle><circle cx="403" cy="278" r="2"></circle><circle cx="415" cy="278" r="2"></circle><circle cx="427" cy="274" r="2"></circle><circle cx="440" cy="270" r="2"></circle><circle cx="452" cy="268" r="2"></circle><circle cx="464" cy="267" r="2"></circle><circle cx="477" cy="265" r="2"></circle><circle cx="489" cy="266" r="2"></circle><circle cx="501" cy="265" r="2"></circle><circle cx="513" cy="256" r="2"></circle><circle cx="526" cy="263" r="2"></circle><circle cx="538" cy="260" r="2"></circle><circle cx="550" cy="261" r="2"></circle><circle cx="562" cy="263" r="2"></circle><circle cx="575" cy="265" r="2"></circle><circle cx="587" cy="262" r="2"></circle><circle cx="599" cy="261" r="2"></circle><circle cx="611" cy="258" r="2"></circle><circle cx="624" cy="259" r="2"></circle><circle cx="636" cy="261" r="2"></circle><circle cx="648" cy="259" r="2"></circle><circle cx="661" cy="261" r="2"></circle><circle cx="673" cy="259" r="2"></circle><circle cx="685" cy="260" r="2"></circle><circle cx="697" cy="250" r="2"></circle><circle cx="710" cy="251" r="2"></circle></g></g><g class="key-Africa_0"><path stroke="#3360a9" stroke-linecap="round" d="M60 348L72 347L84 346L96 345L109 344L121 342L133 341L145 340L158 337L170 337L182 337L194 334L207 332L219 337L231 329L243 328L256 327L268 325L280 327L293 326L305 326L317 326L329 326L342 328L354 323L366 323L378 325L391 325L403 325L415 318L427 316L440 315L452 312L464 309L477 307L489 302L501 299L513 299L526 301L538 293L550 291L562 293L575 290L587 289L599 286L611 291L624 287L636 286L648 288L661 288L673 286L685 285L697 268L710 266" fill="none" stroke-width="1.5"></path><g fill="#3360a9"><circle cx="60" cy="348" r="2"></circle><circle cx="72" cy="347" r="2"></circle><circle cx="84" cy="346" r="2"></circle><circle cx="96" cy="345" r="2"></circle><circle cx="109" cy="344" r="2"></circle><circle cx="121" cy="342" r="2"></circle><circle cx="133" cy="341" r="2"></circle><circle cx="145" cy="340" r="2"></circle><circle cx="158" cy="337" r="2"></circle><circle cx="170" cy="337" r="2"></circle><circle cx="182" cy="337" r="2"></circle><circle cx="194" cy="334" r="2"></circle><circle cx="207" cy="332" r="2"></circle><circle cx="219" cy="337" r="2"></circle><circle cx="231" cy="329" r="2"></circle><circle cx="243" cy="328" r="2"></circle><circle cx="256" cy="327" r="2"></circle><circle cx="268" cy="325" r="2"></circle><circle cx="280" cy="327" r="2"></circle><circle cx="293" cy="326" r="2"></circle><circle cx="305" cy="326" r="2"></circle><circle cx="317" cy="326" r="2"></circle><circle cx="329" cy="326" r="2"></circle><circle cx="342" cy="328" r="2"></circle><circle cx="354" cy="323" r="2"></circle><circle cx="366" cy="323" r="2"></circle><circle cx="378" cy="325" r="2"></circle><circle cx="391" cy="325" r="2"></circle><circle cx="403" cy="325" r="2"></circle><circle cx="415" cy="318" r="2"></circle><circle cx="427" cy="316" r="2"></circle><circle cx="440" cy="315" r="2"></circle><circle cx="452" cy="312" r="2"></circle><circle cx="464" cy="309" r="2"></circle><circle cx="477" cy="307" r="2"></circle><circle cx="489" cy="302" r="2"></circle><circle cx="501" cy="299" r="2"></circle><circle cx="513" cy="299" r="2"></circle><circle cx="526" cy="301" r="2"></circle><circle cx="538" cy="293" r="2"></circle><circle cx="550" cy="291" r="2"></circle><circle cx="562" cy="293" r="2"></circle><circle cx="575" cy="290" r="2"></circle><circle cx="587" cy="289" r="2"></circle><circle cx="599" cy="286" r="2"></circle><circle cx="611" cy="291" r="2"></circle><circle cx="624" cy="287" r="2"></circle><circle cx="636" cy="286" r="2"></circle><circle cx="648" cy="288" r="2"></circle><circle cx="661" cy="288" r="2"></circle><circle cx="673" cy="286" r="2"></circle><circle cx="685" cy="285" r="2"></circle><circle cx="697" cy="268" r="2"></circle><circle cx="710" cy="266" r="2"></circle></g></g></g></g></g><g style="fill: #777;" class="SourcesFooter"><g style="fill: #777;" class="clickable"><text font-size="11.20" x="15.0" y="581.9"><tspan x="15" y="581.86">Source: UN Food and Agricultural Organization (FAO)</tspan></text></g><text font-size="11.20" x="448.5" y="581.9"><tspan x="448.48800000000006" y="581.86"><a target='_blank' style='fill: #777;' href='https://ourworldindata.org/meat-and-seafood-production-consumption/'>OurWorldInData.org/meat-and-seafood-production-consumption/</a> • <a style="fill: #777;" href="http://creativecommons.org/licenses/by-sa/4.0/deed.en_US" target="_blank">CC BY-SA</a></tspan></text></g></g></svg>