<svg xmlns="http://www.w3.org/2000/svg" version="1.1" style="font-family:&#x27;Helvetica Neue&#x27;, Helvetica, Arial, sans-serif;font-size:18px;background-color:white;text-rendering:optimizeLegibility;-webkit-font-smoothing:antialiased" width="850" height="600"><g class="ChartTab"><g class="HeaderView"><g opacity="0.8" transform="translate(778, 15) scale(0.27)"><a xmlns:xlink="http://www.w3.org/1999/xlink" xlink:href="https://ourworldindata.org" target="_blank"><g><rect x="0" y="0" fill="#1B2543" width="211.2" height="130.1"/><rect x="0" y="112.2" fill="#E63912" width="211.2" height="17.9"/><g><rect x="1.2" y="12.3" fill="none" width="210.2" height="99.2"/><path fill="#FFFFFF" d="M37.8,32.2c0,12.7-7.7,19.4-17.1,19.4c-9.7,0-16.6-7.5-16.6-18.7c0-11.7,7.3-19.3,17.1-19.3 C31.3,13.7,37.8,21.3,37.8,32.2z M9.2,32.8c0,7.9,4.3,14.9,11.8,14.9c7.5,0,11.8-6.9,11.8-15.3c0-7.3-3.8-14.9-11.8-14.9 C13.1,17.5,9.2,24.8,9.2,32.8z"/><path fill="#FFFFFF" d="M62.7,43.8c0,2.7,0.1,5.1,0.2,7.2h-4.3l-0.3-4.3h-0.1c-1.3,2.1-4,4.9-8.8,4.9c-4.2,0-9.1-2.3-9.1-11.6 V24.6h4.8v14.6c0,5,1.5,8.4,5.9,8.4c3.2,0,5.5-2.2,6.3-4.4c0.3-0.7,0.4-1.6,0.4-2.5V24.6h4.8V43.8z"/><path fill="#FFFFFF" d="M67.3,32.8c0-3.1-0.1-5.8-0.2-8.2h4.2l0.2,5.2h0.2c1.2-3.5,4.1-5.8,7.3-5.8c0.5,0,0.9,0.1,1.4,0.2v4.5 c-0.5-0.1-1-0.2-1.6-0.2c-3.4,0-5.8,2.6-6.5,6.2c-0.1,0.7-0.2,1.4-0.2,2.2V51h-4.8V32.8z"/><path fill="#FFFFFF" d="M95.4,51l-9.4-36.8h5l4.4,18.6c1.1,4.6,2.1,9.2,2.7,12.7h0.1c0.6-3.7,1.8-8,3-12.8l4.9-18.5h5l4.5,18.7 c1,4.4,2,8.7,2.6,12.6h0.1c0.8-4,1.8-8.1,3-12.7l4.9-18.5h4.9L120.6,51h-5L111,31.9c-1.1-4.7-1.9-8.3-2.4-12h-0.1 c-0.7,3.7-1.5,7.3-2.8,12L100.4,51H95.4z"/><path fill="#FFFFFF" d="M154.9,37.6c0,9.8-6.8,14-13.2,14c-7.2,0-12.7-5.2-12.7-13.6c0-8.8,5.8-14,13.1-14 C149.8,24,154.9,29.5,154.9,37.6z M133.9,37.9c0,5.8,3.3,10.1,8,10.1c4.6,0,8-4.3,8-10.3c0-4.5-2.2-10.1-7.9-10.1 C136.3,27.6,133.9,32.8,133.9,37.9z"/><path fill="#FFFFFF" d="M158.2,32.8c0-3.1-0.1-5.8-0.2-8.2h4.2l0.2,5.2h0.2c1.2-3.5,4.1-5.8,7.3-5.8c0.5,0,0.9,0.1,1.4,0.2v4.5 c-0.5-0.1-1-0.2-1.6-0.2c-3.4,0-5.8,2.6-6.5,6.2c-0.1,0.7-0.2,1.4-0.2,2.2V51h-4.8V32.8z"/><path fill="#FFFFFF" d="M173.5,12.3h4.8V51h-4.8V12.3z"/><path fill="#FFFFFF" d="M206.5,12.3v31.9c0,2.3,0.1,5,0.2,6.8h-4.3l-0.2-4.6H202c-1.5,2.9-4.7,5.2-9,5.2 c-6.4,0-11.3-5.4-11.3-13.4c-0.1-8.8,5.4-14.2,11.9-14.2c4,0,6.8,1.9,8,4h0.1V12.3H206.5z M201.7,35.4c0-0.6-0.1-1.4-0.2-2 c-0.7-3.1-3.3-5.6-6.9-5.6c-5,0-7.9,4.4-7.9,10.2c0,5.3,2.6,9.8,7.8,9.8c3.2,0,6.2-2.1,7.1-5.7c0.2-0.7,0.2-1.3,0.2-2.1V35.4z"/><path fill="#FFFFFF" d="M42.8,64c0.1,1.6-1.1,2.9-3.1,2.9c-1.7,0-2.9-1.3-2.9-2.9c0-1.7,1.3-3,3-3C41.7,61,42.8,62.3,42.8,64z M37.4,97.8V71.4h4.8v26.4H37.4z"/><path fill="#FFFFFF" d="M47.5,78.6c0-2.7-0.1-5-0.2-7.1h4.3l0.3,4.4h0.1c1.3-2.5,4.4-5,8.8-5c3.7,0,9.4,2.2,9.4,11.2v15.8h-4.8 V82.6c0-4.3-1.6-7.8-6.1-7.8c-3.2,0-5.6,2.2-6.5,4.9c-0.2,0.6-0.3,1.4-0.3,2.2v15.9h-4.8V78.6z"/><path fill="#FFFFFF" d="M84,61.6c2.9-0.4,6.3-0.8,10.1-0.8c6.8,0,11.7,1.6,14.9,4.6c3.3,3,5.2,7.3,5.2,13.2c0,6-1.9,10.9-5.3,14.3 c-3.4,3.4-9.1,5.3-16.3,5.3c-3.4,0-6.2-0.2-8.6-0.4V61.6z M88.8,94.1c1.2,0.2,3,0.3,4.8,0.3c10.2,0,15.7-5.7,15.7-15.6 c0.1-8.7-4.9-14.2-14.9-14.2c-2.5,0-4.3,0.2-5.6,0.5V94.1z"/><path fill="#FFFFFF" d="M132.1,97.8l-0.4-3.3h-0.2c-1.5,2.1-4.3,3.9-8.1,3.9c-5.4,0-8.1-3.8-8.1-7.6c0-6.4,5.7-9.9,15.9-9.8v-0.5 c0-2.2-0.6-6.1-6-6.1c-2.5,0-5,0.8-6.9,2l-1.1-3.2c2.2-1.4,5.4-2.3,8.7-2.3c8.1,0,10.1,5.5,10.1,10.8v9.9c0,2.3,0.1,4.5,0.4,6.3 H132.1z M131.4,84.4c-5.3-0.1-11.2,0.8-11.2,5.9c0,3.1,2.1,4.6,4.5,4.6c3.4,0,5.6-2.2,6.4-4.4c0.2-0.5,0.3-1,0.3-1.5V84.4z"/><path fill="#FFFFFF" d="M146.6,63.9v7.6h6.9v3.7h-6.9v14.2c0,3.3,0.9,5.1,3.6,5.1c1.3,0,2.2-0.2,2.8-0.3l0.2,3.6 c-0.9,0.4-2.4,0.7-4.3,0.7c-2.2,0-4-0.7-5.2-2c-1.4-1.4-1.9-3.8-1.9-6.9V75.1h-4.1v-3.7h4.1v-6.3L146.6,63.9z"/><path fill="#FFFFFF" d="M171.4,97.8l-0.4-3.3h-0.2c-1.5,2.1-4.3,3.9-8.1,3.9c-5.4,0-8.1-3.8-8.1-7.6c0-6.4,5.7-9.9,15.9-9.8v-0.5 c0-2.2-0.6-6.1-6-6.1c-2.5,0-5,0.8-6.9,2l-1.1-3.2c2.2-1.4,5.4-2.3,8.7-2.3c8.1,0,10.1,5.5,10.1,10.8v9.9c0,2.3,0.1,4.5,0.4,6.3 H171.4z M170.7,84.4c-5.3-0.1-11.2,0.8-11.2,5.9c0,3.1,2.1,4.6,4.5,4.6c3.4,0,5.6-2.2,6.4-4.4c0.2-0.5,0.3-1,0.3-1.5V84.4z"/></g></g></a></g><a href="https://ourworldindata.org/grapher/poverty-and-child-mortality" target="_blank"><text font-size="25.20" x="15.0" y="35.2" fill="#555"><tspan x="15" y="35.160000000000004">Extreme poverty and child mortality, 2017</tspan></text></a><text font-size="14.40" x="15.0" y="53.7" fill="#666"><tspan x="15" y="53.72">The child mortality rate measures the share of children that die before reaching the age of 5. </tspan></text></g><g><g class="AxisBoxView"><g class="HorizontalAxis"><text font-size="12.60" x="174.0" y="554.0"><tspan x="173.984" y="553.98">Share of the population in extreme poverty (less than 1,90$ per day)</tspan></text><text x="75.2" y="533.9" fill="#666" text-anchor="middle" font-size="16.2">0%</text><text x="157.6" y="533.9" fill="#666" text-anchor="middle" font-size="16.2">10%</text><text x="240.1" y="533.9" fill="#666" text-anchor="middle" font-size="16.2">20%</text><text x="322.5" y="533.9" fill="#666" text-anchor="middle" font-size="16.2">30%</text><text x="405" y="533.9" fill="#666" text-anchor="middle" font-size="16.2">40%</text><text x="487.4" y="533.9" fill="#666" text-anchor="middle" font-size="16.2">50%</text><text x="569.9" y="533.9" fill="#666" text-anchor="middle" font-size="16.2">60%</text><text x="652.3" y="533.9" fill="#666" text-anchor="middle" font-size="16.2">70%</text><text x="715" y="551.5" style="font-size:12px;text-transform:uppercase;cursor:pointer" class="clickable"><tspan style="font-family:FontAwesome"></tspan> linear</text></g><g class="VerticalAxis"><text font-size="12.60" x="-370.9" y="25.1" transform="rotate(-90)"><tspan x="-370.919" y="25.080000000000002">Child mortality rate </tspan></text><text x="70.16" y="335.7" fill="#666" dominant-baseline="middle" text-anchor="end" font-size="16.2">1%</text><text x="70.16" y="74.7" fill="#666" dominant-baseline="middle" text-anchor="end" font-size="16.2">10%</text><text x="15" y="68.6" style="font-size:12px;text-transform:uppercase;cursor:pointer" class="clickable"><tspan style="font-family:FontAwesome"></tspan> log</text></g><g class="AxisGridLines"><line x1="75.16" y1="335.7" x2="715.00" y2="335.7" stroke="#ddd" stroke-dasharray="3,2"></line><line x1="75.16" y1="74.7" x2="715.00" y2="74.7" stroke="#ddd" stroke-dasharray="3,2"></line></g><g class="AxisGridLines"><line x1="75.2" y1="512.70" x2="75.2" y2="76.60" stroke="#ccc"></line><line x1="157.6" y1="512.70" x2="157.6" y2="76.60" stroke="#ddd" stroke-dasharray="3,2"></line><line x1="240.1" y1="512.70" x2="240.1" y2="76.60" stroke="#ddd" stroke-dasharray="3,2"></line><line x1="322.5" y1="512.70" x2="322.5" y2="76.60" stroke="#ddd" stroke-dasharray="3,2"></line><line x1="405" y1="512.70" x2="405" y2="76.60" stroke="#ddd" stroke-dasharray="3,2"></line><line x1="487.4" y1="512.70" x2="487.4" y2="76.60" stroke="#ddd" stroke-dasharray="3,2"></line><line x1="569.9" y1="512.70" x2="569.9" y2="76.60" stroke="#ddd" stroke-dasharray="3,2"></line><line x1="652.3" y1="512.70" x2="652.3" y2="76.60" stroke="#ddd" stroke-dasharray="3,2"></line></g></g><g class="PointsWithLabels clickable" clip-path="url(#scatterBounds-36)" font-family="Arial Narrow, Arial, sans-serif"><rect x="75.162" y="76.6" width="639.838" height="436.09999999999997" fill="rgba(255,255,255,0)"></rect><defs><clipPath id="scatterBounds-36"><rect x="65.162" y="66.6" width="659.838" height="456.09999999999997"></rect></clipPath></defs><g class="key-China_0"><circle cx="80.00" cy="344.00" r="17.84" fill="#d14e5b" opacity="0.8" stroke="#333" stroke-width="0.7"></circle></g><g class="key-United-States_0"><circle cx="85.00" cy="382.00" r="8.78" fill="#4d824b" opacity="0.8" stroke="#333" stroke-width="0.7"></circle></g><g class="key-Indonesia_0"><circle cx="122.00" cy="230.00" r="7.78" fill="#d14e5b" opacity="0.8" stroke="#333" stroke-width="0.7"></circle></g><g class="key-Brazil_0"><circle cx="103.00" cy="291.00" r="7.04" fill="#69c487" opacity="0.8" stroke="#333" stroke-width="0.7"></circle></g><g class="key-Pakistan_0"><circle cx="108.00" cy="107.00" r="6.76" fill="#d14e5b" opacity="0.8" stroke="#333" stroke-width="0.7"></circle></g><g class="key-Bangladesh_0"><circle cx="197.00" cy="202.00" r="6.24" fill="#d14e5b" opacity="0.8" stroke="#333" stroke-width="0.7"></circle></g><g class="key-Russia_0"><circle cx="75.00" cy="366.00" r="6.02" fill="#ffd336" opacity="0.8" stroke="#333" stroke-width="0.7"></circle></g><g class="key-Mexico_0"><circle cx="95.00" cy="302.00" r="5.51" fill="#4d824b" opacity="0.8" stroke="#333" stroke-width="0.7"></circle></g><g class="key-Vietnam_0"><circle cx="91.00" cy="252.00" r="4.92" fill="#d14e5b" opacity="0.8" stroke="#333" stroke-width="0.7"></circle></g><g class="key-Ethiopia_0"><circle cx="295.00" cy="135.00" r="4.86" fill="#5675c1" opacity="0.8" stroke="#333" stroke-width="0.7"></circle></g><g class="key-Egypt_0"><circle cx="85.00" cy="245.00" r="4.79" fill="#5675c1" opacity="0.8" stroke="#fff" stroke-width="0.7"></circle></g><g class="key-Germany_0"><circle cx="75.00" cy="448.00" r="4.71" fill="#ffd336" opacity="0.8" stroke="#333" stroke-width="0.7"></circle></g><g class="key-Iran_0"><circle cx="76.00" cy="290.00" r="4.57" fill="#d14e5b" opacity="0.8" stroke="#fff" stroke-width="0.7"></circle></g><g class="key-Turkey_0"><circle cx="76.00" cy="318.00" r="4.54" fill="#d14e5b" opacity="0.8" stroke="#fff" stroke-width="0.7"></circle></g><g class="key-Democratic-Republic-of-Congo_0"><circle cx="710.00" cy="85.00" r="4.44" fill="#5675c1" opacity="0.8" stroke="#333" stroke-width="0.7"></circle></g><g class="key-Thailand_0"><circle cx="75.00" cy="341.00" r="4.41" fill="#d14e5b" opacity="0.8" stroke="#fff" stroke-width="0.7"></circle></g><g class="key-France_0"><circle cx="75.00" cy="434.00" r="4.24" fill="#ffd336" opacity="0.8" stroke="#333" stroke-width="0.7"></circle></g><g class="key-United-Kingdom_0"><circle cx="76.00" cy="431.00" r="4.22" fill="#ffd336" opacity="0.8" stroke="#fff" stroke-width="0.7"></circle></g><g class="key-Italy_0"><circle cx="91.00" cy="458.00" r="4.16" fill="#ffd336" opacity="0.8" stroke="#fff" stroke-width="0.7"></circle></g><g class="key-South-Africa_0"><circle cx="231.00" cy="187.00" r="3.87" fill="#5675c1" opacity="0.8" stroke="#333" stroke-width="0.7"></circle></g><g class="key-Myanmar_0"><circle cx="127.00" cy="156.00" r="3.82" fill="#d14e5b" opacity="0.8" stroke="#333" stroke-width="0.7"></circle></g><g class="key-South-Korea_0"><circle cx="76.00" cy="461.00" r="3.81" fill="#d14e5b" opacity="0.8" stroke="#333" stroke-width="0.7"></circle></g><g class="key-Colombia_0"><circle cx="112.00" cy="292.00" r="3.79" fill="#69c487" opacity="0.8" stroke="#fff" stroke-width="0.7"></circle></g><g class="key-Spain_0"><circle cx="83.00" cy="468.00" r="3.75" fill="#ffd336" opacity="0.8" stroke="#fff" stroke-width="0.7"></circle></g><g class="key-Ukraine_0"><circle cx="76.00" cy="350.00" r="3.68" fill="#ffd336" opacity="0.8" stroke="#333" stroke-width="0.7"></circle></g><g class="key-Kenya_0"><circle cx="378.00" cy="163.00" r="3.66" fill="#5675c1" opacity="0.8" stroke="#333" stroke-width="0.7"></circle></g><g class="key-Argentina_0"><circle cx="80.00" cy="331.00" r="3.58" fill="#69c487" opacity="0.8" stroke="#fff" stroke-width="0.7"></circle></g><g class="key-Uganda_0"><circle cx="418.00" cy="155.00" r="3.42" fill="#5675c1" opacity="0.8" stroke="#333" stroke-width="0.7"></circle></g><g class="key-Canada_0"><circle cx="79.00" cy="412.00" r="3.36" fill="#4d824b" opacity="0.8" stroke="#333" stroke-width="0.7"></circle></g><g class="key-Iraq_0"><circle cx="95.00" cy="209.00" r="3.35" fill="#d14e5b" opacity="0.8" stroke="#333" stroke-width="0.7"></circle></g><g class="key-Morocco_0"><circle cx="83.00" cy="239.00" r="3.29" fill="#5675c1" opacity="0.8" stroke="#333" stroke-width="0.7"></circle></g><g class="key-Peru_0"><circle cx="104.00" cy="289.00" r="3.19" fill="#69c487" opacity="0.8" stroke="#fff" stroke-width="0.7"></circle></g><g class="key-Malaysia_0"><circle cx="75.00" cy="362.00" r="3.18" fill="#d14e5b" opacity="0.8" stroke="#fff" stroke-width="0.7"></circle></g><g class="key-Ghana_0"><circle cx="174.00" cy="154.00" r="3.04" fill="#5675c1" opacity="0.8" stroke="#333" stroke-width="0.7"></circle></g><g class="key-Mozambique_0"><circle cx="593.00" cy="111.00" r="3.00" fill="#5675c1" opacity="0.8" stroke="#333" stroke-width="0.7"></circle></g><g class="key-Madagascar_0"><circle cx="715.00" cy="167.00" r="2.90" fill="#5675c1" opacity="0.8" stroke="#333" stroke-width="0.7"></circle></g><g class="key-Sri-Lanka_0"><circle cx="80.00" cy="350.00" r="2.85" fill="#d14e5b" opacity="0.8" stroke="#fff" stroke-width="0.7"></circle></g><g class="key-Romania_0"><circle cx="122.00" cy="363.00" r="2.85" fill="#ffd336" opacity="0.8" stroke="#333" stroke-width="0.7"></circle></g><g class="key-Cote-d__0027Ivoire_0"><circle cx="307.00" cy="88.00" r="2.84" fill="#5675c1" opacity="0.8" stroke="#333" stroke-width="0.7"></circle></g><g class="key-Cameroon_0"><circle cx="271.00" cy="94.00" r="2.83" fill="#5675c1" opacity="0.8" stroke="#fff" stroke-width="0.7"></circle></g><g class="key-Burkina-Faso_0"><circle cx="435.00" cy="98.00" r="2.71" fill="#5675c1" opacity="0.8" stroke="#333" stroke-width="0.7"></circle></g><g class="key-Chile_0"><circle cx="85.00" cy="369.00" r="2.69" fill="#69c487" opacity="0.8" stroke="#fff" stroke-width="0.7"></circle></g><g class="key-Niger_0"><circle cx="442.00" cy="93.00" r="2.68" fill="#5675c1" opacity="0.8" stroke="#fff" stroke-width="0.7"></circle></g><g class="key-Netherlands_0"><circle cx="75.00" cy="442.00" r="2.66" fill="#ffd336" opacity="0.8" stroke="#fff" stroke-width="0.7"></circle></g><g class="key-Kazakhstan_0"><circle cx="75.00" cy="335.00" r="2.65" fill="#d14e5b" opacity="0.8" stroke="#fff" stroke-width="0.7"></circle></g><g class="key-Guatemala_0"><circle cx="146.00" cy="220.00" r="2.60" fill="#4d824b" opacity="0.8" stroke="#fff" stroke-width="0.7"></circle></g><g class="key-Ecuador_0"><circle cx="104.00" cy="293.00" r="2.58" fill="#69c487" opacity="0.8" stroke="#fff" stroke-width="0.7"></circle></g><g class="key-Zambia_0"><circle cx="549.00" cy="132.00" r="2.55" fill="#5675c1" opacity="0.8" stroke="#333" stroke-width="0.7"></circle></g><g class="key-Rwanda_0"><circle cx="536.00" cy="184.00" r="2.42" fill="#5675c1" opacity="0.8" stroke="#333" stroke-width="0.7"></circle></g><g class="key-Greece_0"><circle cx="87.00" cy="407.00" r="2.42" fill="#ffd336" opacity="0.8" stroke="#fff" stroke-width="0.7"></circle></g><g class="key-Belgium_0"><circle cx="75.00" cy="445.00" r="2.38" fill="#ffd336" opacity="0.8" stroke="#fff" stroke-width="0.7"></circle></g><g class="key-Guinea_0"><circle cx="366.00" cy="92.00" r="2.38" fill="#5675c1" opacity="0.8" stroke="#fff" stroke-width="0.7"></circle></g><g class="key-Portugal_0"><circle cx="79.00" cy="448.00" r="2.38" fill="#ffd336" opacity="0.8" stroke="#fff" stroke-width="0.7"></circle></g><g class="key-Czech-Republic_0"><circle cx="75.00" cy="461.00" r="2.37" fill="#ffd336" opacity="0.8" stroke="#fff" stroke-width="0.7"></circle></g><g class="key-Bolivia_0"><circle cx="133.00" cy="194.00" r="2.37" fill="#69c487" opacity="0.8" stroke="#333" stroke-width="0.7"></circle></g><g class="key-Haiti_0"><circle cx="268.00" cy="112.00" r="2.36" fill="#4d824b" opacity="0.8" stroke="#333" stroke-width="0.7"></circle></g><g class="key-Dominican-Republic_0"><circle cx="88.00" cy="211.00" r="2.36" fill="#4d824b" opacity="0.8" stroke="#fff" stroke-width="0.7"></circle></g><g class="key-Hungary_0"><circle cx="79.00" cy="426.00" r="2.34" fill="#ffd336" opacity="0.8" stroke="#fff" stroke-width="0.7"></circle></g><g class="key-Benin_0"><circle cx="484.00" cy="76.00" r="2.33" fill="#5675c1" opacity="0.8" stroke="#fff" stroke-width="0.7"></circle></g><g class="key-Sweden_0"><circle cx="79.00" cy="480.00" r="2.32" fill="#ffd336" opacity="0.8" stroke="#333" stroke-width="0.7"></circle></g><g class="key-Belarus_0"><circle cx="75.00" cy="448.00" r="2.32" fill="#ffd336" opacity="0.8" stroke="#fff" stroke-width="0.7"></circle></g><g class="key-Burundi_0"><circle cx="666.00" cy="130.00" r="2.29" fill="#5675c1" opacity="0.8" stroke="#333" stroke-width="0.7"></circle></g><g class="key-Austria_0"><circle cx="80.00" cy="451.00" r="2.27" fill="#ffd336" opacity="0.8" stroke="#fff" stroke-width="0.7"></circle></g><g class="key-Honduras_0"><circle cx="207.00" cy="267.00" r="2.25" fill="#4d824b" opacity="0.8" stroke="#333" stroke-width="0.7"></circle></g><g class="key-Israel_0"><circle cx="79.00" cy="451.00" r="2.23" fill="#d14e5b" opacity="0.8" stroke="#fff" stroke-width="0.7"></circle></g><g class="key-Switzerland_0"><circle cx="75.00" cy="434.00" r="2.23" fill="#ffd336" opacity="0.8" stroke="#fff" stroke-width="0.7"></circle></g><g class="key-Bulgaria_0"><circle cx="87.00" cy="368.00" r="2.21" fill="#ffd336" opacity="0.8" stroke="#fff" stroke-width="0.7"></circle></g><g class="key-Tajikistan_0"><circle cx="114.00" cy="198.00" r="2.20" fill="#d14e5b" opacity="0.8" stroke="#fff" stroke-width="0.7"></circle></g><g class="key-Paraguay_0"><circle cx="89.00" cy="251.00" r="2.18" fill="#69c487" opacity="0.8" stroke="#fff" stroke-width="0.7"></circle></g><g class="key-Laos_0"><circle cx="262.00" cy="126.00" r="2.16" fill="#d14e5b" opacity="0.8" stroke="#333" stroke-width="0.7"></circle></g><g class="key-Togo_0"><circle cx="480.00" cy="110.00" r="2.16" fill="#5675c1" opacity="0.8" stroke="#333" stroke-width="0.7"></circle></g><g class="key-El-Salvador_0"><circle cx="93.00" cy="293.00" r="2.15" fill="#4d824b" opacity="0.8" stroke="#fff" stroke-width="0.7"></circle></g><g class="key-Nicaragua_0"><circle cx="101.00" cy="274.00" r="2.14" fill="#4d824b" opacity="0.8" stroke="#333" stroke-width="0.7"></circle></g><g class="key-Denmark_0"><circle cx="76.00" cy="431.00" r="2.12" fill="#ffd336" opacity="0.8" stroke="#fff" stroke-width="0.7"></circle></g><g class="key-Kyrgyzstan_0"><circle cx="86.00" cy="257.00" r="2.11" fill="#d14e5b" opacity="0.8" stroke="#fff" stroke-width="0.7"></circle></g><g class="key-Slovakia_0"><circle cx="80.00" cy="401.00" r="2.11" fill="#ffd336" opacity="0.8" stroke="#fff" stroke-width="0.7"></circle></g><g class="key-Finland_0"><circle cx="75.00" cy="502.00" r="2.11" fill="#ffd336" opacity="0.8" stroke="#333" stroke-width="0.7"></circle></g><g class="key-Norway_0"><circle cx="76.00" cy="488.00" r="2.08" fill="#ffd336" opacity="0.8" stroke="#fff" stroke-width="0.7"></circle></g><g class="key-Costa-Rica_0"><circle cx="85.00" cy="347.00" r="2.08" fill="#4d824b" opacity="0.8" stroke="#fff" stroke-width="0.7"></circle></g><g class="key-Ireland_0"><circle cx="76.00" cy="454.00" r="2.06" fill="#ffd336" opacity="0.8" stroke="#fff" stroke-width="0.7"></circle></g><g class="key-Croatia_0"><circle cx="80.00" cy="423.00" r="2.05" fill="#ffd336" opacity="0.8" stroke="#fff" stroke-width="0.7"></circle></g><g class="key-Liberia_0"><circle cx="393.00" cy="107.00" r="2.05" fill="#5675c1" opacity="0.8" stroke="#333" stroke-width="0.7"></circle></g><g class="key-Georgia_0"><circle cx="109.00" cy="327.00" r="2.04" fill="#d14e5b" opacity="0.8" stroke="#fff" stroke-width="0.7"></circle></g><g class="key-Bosnia-and-Herzegovina_0"><circle cx="76.00" cy="399.00" r="2.01" fill="#ffd336" opacity="0.8" stroke="#333" stroke-width="0.7"></circle></g><g class="key-Mauritania_0"><circle cx="124.00" cy="101.00" r="2.01" fill="#5675c1" opacity="0.8" stroke="#fff" stroke-width="0.7"></circle></g><g class="key-Panama_0"><circle cx="93.00" cy="281.00" r="2.01" fill="#4d824b" opacity="0.8" stroke="#fff" stroke-width="0.7"></circle></g><g class="key-Moldova_0"><circle cx="76.00" cy="286.00" r="2.00" fill="#ffd336" opacity="0.8" stroke="#fff" stroke-width="0.7"></circle></g><g class="key-Uruguay_0"><circle cx="76.00" cy="358.00" r="1.99" fill="#69c487" opacity="0.8" stroke="#fff" stroke-width="0.7"></circle></g><g class="key-Lithuania_0"><circle cx="80.00" cy="431.00" r="1.99" fill="#ffd336" opacity="0.8" stroke="#fff" stroke-width="0.7"></circle></g><g class="key-Albania_0"><circle cx="84.00" cy="350.00" r="1.98" fill="#ffd336" opacity="0.8" stroke="#fff" stroke-width="0.7"></circle></g><g class="key-Armenia_0"><circle cx="90.00" cy="309.00" r="1.98" fill="#d14e5b" opacity="0.8" stroke="#fff" stroke-width="0.7"></circle></g><g class="key-Mongolia_0"><circle cx="79.00" cy="274.00" r="1.96" fill="#d14e5b" opacity="0.8" stroke="#fff" stroke-width="0.7"></circle></g><g class="key-Namibia_0"><circle cx="185.00" cy="167.00" r="1.93" fill="#5675c1" opacity="0.8" stroke="#333" stroke-width="0.7"></circle></g><g class="key-Latvia_0"><circle cx="80.00" cy="434.00" r="1.92" fill="#ffd336" opacity="0.8" stroke="#fff" stroke-width="0.7"></circle></g><g class="key-Macedonia_0"><circle cx="116.00" cy="300.00" r="1.91" fill="#ffd336" opacity="0.8" stroke="#fff" stroke-width="0.7"></circle></g><g class="key-Slovenia_0"><circle cx="75.00" cy="512.00" r="1.91" fill="#ffd336" opacity="0.8" stroke="#fff" stroke-width="0.7"></circle></g><g class="key-Gambia_0"><circle cx="158.00" cy="126.00" r="1.90" fill="#5675c1" opacity="0.8" stroke="#333" stroke-width="0.7"></circle></g><g class="key-Gabon_0"><circle cx="103.00" cy="157.00" r="1.88" fill="#5675c1" opacity="0.8" stroke="#fff" stroke-width="0.7"></circle></g><g class="key-Estonia_0"><circle cx="79.00" cy="484.00" r="1.87" fill="#ffd336" opacity="0.8" stroke="#fff" stroke-width="0.7"></circle></g><g class="key-Mauritius_0"><circle cx="79.00" cy="305.00" r="1.87" fill="#5675c1" opacity="0.8" stroke="#fff" stroke-width="0.7"></circle></g><g class="key-Cyprus_0"><circle cx="75.00" cy="484.00" r="1.86" fill="#ffd336" opacity="0.8" stroke="#fff" stroke-width="0.7"></circle></g><g class="key-Djibouti_0"><circle cx="260.00" cy="129.00" r="1.84" fill="#5675c1" opacity="0.8" stroke="#fff" stroke-width="0.7"></circle></g><g class="key-Fiji_0"><circle cx="86.00" cy="230.00" r="1.84" fill="#a652ba" opacity="0.8" stroke="#fff" stroke-width="0.7"></circle></g><g class="key-Comoros_0"><circle cx="224.00" cy="116.00" r="1.83" fill="#5675c1" opacity="0.8" stroke="#fff" stroke-width="0.7"></circle></g><g class="key-Bhutan_0"><circle cx="87.00" cy="208.00" r="1.83" fill="#d14e5b" opacity="0.8" stroke="#fff" stroke-width="0.7"></circle></g><g class="key-Montenegro_0"><circle cx="75.00" cy="454.00" r="1.82" fill="#ffd336" opacity="0.8" stroke="#fff" stroke-width="0.7"></circle></g><g class="key-Solomon-Islands_0"><circle cx="282.00" cy="253.00" r="1.82" fill="#a652ba" opacity="0.8" stroke="#333" stroke-width="0.7"></circle></g><g class="key-Luxembourg_0"><circle cx="76.00" cy="488.00" r="1.82" fill="#ffd336" opacity="0.8" stroke="#fff" stroke-width="0.7"></circle></g><g class="key-Malta_0"><circle cx="75.00" cy="386.00" r="1.81" fill="#ffd336" opacity="0.8" stroke="#fff" stroke-width="0.7"></circle></g><g class="key-Iceland_0"><circle cx="75.00" cy="512.00" r="1.80" fill="#ffd336" opacity="0.8" stroke="#fff" stroke-width="0.7"></circle></g><g class="key-Seychelles_0"><circle cx="84.00" cy="296.00" r="1.79" fill="#5675c1" opacity="0.8" stroke="#fff" stroke-width="0.7"></circle></g><g class="key-Yemen_0"><circle cx="230.00" cy="141.00" r="1.78" fill="#d14e5b" opacity="0.8" stroke="#333" stroke-width="0.7"></circle></g><g class="key-Palestine_0"><circle cx="83.00" cy="252.00" r="1.78" fill="#d14e5b" opacity="0.8" stroke="#fff" stroke-width="0.7"></circle></g><g class="key-Micronesia-__0028country__0029_0"><circle cx="207.00" cy="203.00" r="1.78" fill="#a652ba" opacity="0.8" stroke="#fff" stroke-width="0.7"></circle></g><g class="key-Timor_0"><circle cx="325.00" cy="158.00" r="1.78" fill="#d14e5b" opacity="0.8" stroke="#333" stroke-width="0.7"></circle></g><g class="key-East-Asia-__0026-Pacific_0"><circle cx="94.00" cy="283.00" r="1.78" fill="#000" opacity="0.8" stroke="#fff" stroke-width="0.7"></circle></g><g class="key-Europe-__0026-Central-Asia_0"><circle cx="87.00" cy="347.00" r="1.78" fill="#000" opacity="0.8" stroke="#fff" stroke-width="0.7"></circle></g><g class="key-Fragile-and-conflict-affected-situations_0"><circle cx="365.00" cy="110.00" r="1.78" fill="#000" opacity="0.8" stroke="#fff" stroke-width="0.7"></circle></g><g class="key-High-income_0"><circle cx="80.00" cy="405.00" r="1.78" fill="#000" opacity="0.8" stroke="#fff" stroke-width="0.7"></circle></g><g class="key-IDA-total_0"><circle cx="329.00" cy="115.00" r="1.78" fill="#000" opacity="0.8" stroke="#333" stroke-width="0.7"></circle></g><g class="key-Latin-America-__0026-Caribbean_0"><circle cx="109.00" cy="271.00" r="1.78" fill="#000" opacity="0.8" stroke="#fff" stroke-width="0.7"></circle></g><g class="key-Low-__0026-middle-income_0"><circle cx="173.00" cy="171.00" r="1.78" fill="#000" opacity="0.8" stroke="#fff" stroke-width="0.7"></circle></g><g class="key-Low-income_0"><circle cx="437.00" cy="116.00" r="1.78" fill="#000" opacity="0.8" stroke="#fff" stroke-width="0.7"></circle></g><g class="key-Lower-middle-income_0"><circle cx="189.00" cy="156.00" r="1.78" fill="#000" opacity="0.8" stroke="#fff" stroke-width="0.7"></circle></g><g class="key-Middle-East-__0026-North-Africa_0"><circle cx="116.00" cy="240.00" r="1.78" fill="#000" opacity="0.8" stroke="#fff" stroke-width="0.7"></circle></g><g class="key-South-Asia_0"><circle cx="208.00" cy="165.00" r="1.78" fill="#000" opacity="0.8" stroke="#fff" stroke-width="0.7"></circle></g><g class="key-Sub__002dSaharan-Africa_0"><circle cx="414.00" cy="106.00" r="1.78" fill="#000" opacity="0.8" stroke="#fff" stroke-width="0.7"></circle></g><g class="key-Upper-middle-income_0"><circle cx="89.00" cy="300.00" r="1.78" fill="#000" opacity="0.8" stroke="#fff" stroke-width="0.7"></circle></g><g class="key-World_0"><circle cx="157.00" cy="181.00" r="1.78" fill="#000" opacity="0.8" stroke="#333" stroke-width="0.7"></circle></g><g class="backgroundLabels" fill="#333"><text x="80.00" y="325.16" font-size="14.30">China</text><text x="85.00" y="372.22" font-size="11.77">United States</text><text x="122.00" y="221.22" font-size="11.60">Indonesia</text><text x="103.00" y="282.96" font-size="11.49">Brazil</text><text x="108.00" y="99.24" font-size="11.44">Pakistan</text><text x="197.00" y="194.76" font-size="11.37">Bangladesh</text><text x="75.00" y="358.98" font-size="11.35">Russia</text><text x="95.00" y="295.49" font-size="11.29">Mexico</text><text x="91.00" y="246.08" font-size="11.22">Vietnam</text><text x="295.00" y="129.14" font-size="11.21">Ethiopia</text><text x="75.00" y="442.29" font-size="11.20">Germany</text><text x="558.04" y="87.77" font-size="11.17">Democratic Republic of Congo</text><text x="75.00" y="428.76" font-size="11.15">France</text><text x="231.00" y="182.13" font-size="11.12">South Africa</text><text x="127.00" y="151.18" font-size="11.12">Myanmar</text><text x="76.00" y="456.19" font-size="11.12">South Korea</text><text x="76.00" y="345.32" font-size="11.11">Ukraine</text><text x="378.00" y="158.34" font-size="11.11">Kenya</text><text x="418.00" y="150.58" font-size="11.09">Uganda</text><text x="79.00" y="407.64" font-size="11.08">Canada</text><text x="95.00" y="204.65" font-size="11.08">Iraq</text><text x="83.00" y="234.71" font-size="11.08">Morocco</text><text x="174.00" y="149.96" font-size="11.06">Ghana</text><text x="593.00" y="107.00" font-size="11.06">Mozambique</text><text x="653.98" y="163.10" font-size="11.05">Madagascar</text><text x="122.00" y="359.15" font-size="11.05">Romania</text><text x="307.00" y="87.65" font-size="11.05">Cote d&#x27;Ivoire</text><text x="435.00" y="94.29" font-size="11.04">Burkina Faso</text><text x="549.00" y="128.45" font-size="11.03">Zambia</text><text x="536.00" y="180.58" font-size="11.03">Rwanda</text><text x="133.00" y="190.63" font-size="11.03">Bolivia</text><text x="268.00" y="108.64" font-size="11.03">Haiti</text><text x="79.00" y="476.68" font-size="11.02">Sweden</text><text x="666.00" y="126.71" font-size="11.02">Burundi</text><text x="207.00" y="263.75" font-size="11.02">Honduras</text><text x="262.00" y="122.84" font-size="11.02">Laos</text><text x="480.00" y="106.84" font-size="11.02">Togo</text><text x="101.00" y="270.86" font-size="11.01">Nicaragua</text><text x="75.00" y="498.89" font-size="11.01">Finland</text><text x="393.00" y="103.95" font-size="11.01">Liberia</text><text x="76.00" y="395.99" font-size="11.01">Bosnia and Herzegovina</text><text x="185.00" y="164.07" font-size="11.01">Namibia</text><text x="158.00" y="123.10" font-size="11.00">Gambia</text><text x="282.00" y="250.18" font-size="11.00">Solomon Islands</text><text x="230.00" y="138.22" font-size="11.00">Yemen</text><text x="325.00" y="155.22" font-size="11.00">Timor</text><text x="329.00" y="112.22" font-size="11.00">IDA total</text><text x="157.00" y="178.22" font-size="11.00">World</text></g></g><g class="ScatterColorLegend clickable" style="cursor:pointer"><g class="legendMark"><rect x="735" y="74.1" width="43.256" height="17.6" fill="#fff" opacity="0"></rect>,<rect x="735" y="79.6" width="6" height="6" fill="#5675c1"></rect>,<text font-size="12.60" x="746.0" y="86.7"><tspan x="746" y="86.67999999999999">Africa</tspan></text></g><g class="legendMark"><rect x="735" y="91.69999999999999" width="35.57" height="17.6" fill="#fff" opacity="0"></rect>,<rect x="735" y="97.19999999999999" width="6" height="6" fill="#d14e5b"></rect>,<text font-size="12.60" x="746.0" y="104.3"><tspan x="746" y="104.27999999999999">Asia</tspan></text></g><g class="legendMark"><rect x="735" y="109.3" width="51.824" height="17.6" fill="#fff" opacity="0"></rect>,<rect x="735" y="114.8" width="6" height="6" fill="#ffd336"></rect>,<text font-size="12.60" x="746.0" y="121.9"><tspan x="746" y="121.88">Europe</tspan></text></g><g class="legendMark"><rect x="735" y="126.9" width="91.64" height="17.6" fill="#fff" opacity="0"></rect>,<rect x="735" y="132.4" width="6" height="6" fill="#4d824b"></rect>,<text font-size="12.60" x="746.0" y="139.5"><tspan x="746" y="139.48">North America</tspan></text></g><g class="legendMark"><rect x="735" y="144.5" width="58.124" height="17.6" fill="#fff" opacity="0"></rect>,<rect x="735" y="150" width="6" height="6" fill="#a652ba"></rect>,<text font-size="12.60" x="746.0" y="157.1"><tspan x="746" y="157.07999999999998">Oceania</tspan></text></g><g class="legendMark"><rect x="735" y="162.1" width="93.908" height="17.6" fill="#fff" opacity="0"></rect>,<rect x="735" y="167.6" width="6" height="6" fill="#69c487"></rect>,<text font-size="12.60" x="746.0" y="174.7"><tspan x="746" y="174.67999999999998">South America</tspan></text></g></g></g><g class="SourcesFooter" style="fill:#777"><g class="clickable" style="fill:#777"><text font-size="12.60" x="15.0" y="581.6"><tspan x="15" y="581.58">Source: World Bank - WDI</tspan></text></g><text font-size="12.60" x="564.2" y="581.6"><tspan x="564.226" y="581.58"><a target='_blank' style='fill: #777;' href='https://ourworldindata.org/child-mortality/'>OurWorldInData.org/child-mortality/</a> • <a style="fill: #777;" class="cclogo" href="http://creativecommons.org/licenses/by-sa/4.0/deed.en_US" target="_blank">CC BY-SA</a></tspan></text></g></g></svg>