<svg xmlns="http://www.w3.org/2000/svg" version="1.1" style="font-family: 'Helvetica Neue', Helvetica, Arial, sans-serif; font-size: 18px; background-color: white; text-rendering: optimizeLegibility; -webkit-font-smoothing: antialiased;" width="850" height="600"><g class="ChartTab"><g class="HeaderView"><g opacity="0.8" transform="translate(770, 15) scale(0.31)"><a xmlns:xlink="http://www.w3.org/1999/xlink" xlink:href="https://ourworldindata.org" target="_blank"><g><rect x="0" y="0" fill="#1B2543" width="211.2" height="130.1"/><rect x="0" y="112.2" fill="#E63912" width="211.2" height="17.9"/><g><rect x="1.2" y="12.3" fill="none" width="210.2" height="99.2"/><path fill="#FFFFFF" d="M37.8,32.2c0,12.7-7.7,19.4-17.1,19.4c-9.7,0-16.6-7.5-16.6-18.7c0-11.7,7.3-19.3,17.1-19.3 C31.3,13.7,37.8,21.3,37.8,32.2z M9.2,32.8c0,7.9,4.3,14.9,11.8,14.9c7.5,0,11.8-6.9,11.8-15.3c0-7.3-3.8-14.9-11.8-14.9 C13.1,17.5,9.2,24.8,9.2,32.8z"/><path fill="#FFFFFF" d="M62.7,43.8c0,2.7,0.1,5.1,0.2,7.2h-4.3l-0.3-4.3h-0.1c-1.3,2.1-4,4.9-8.8,4.9c-4.2,0-9.1-2.3-9.1-11.6 V24.6h4.8v14.6c0,5,1.5,8.4,5.9,8.4c3.2,0,5.5-2.2,6.3-4.4c0.3-0.7,0.4-1.6,0.4-2.5V24.6h4.8V43.8z"/><path fill="#FFFFFF" d="M67.3,32.8c0-3.1-0.1-5.8-0.2-8.2h4.2l0.2,5.2h0.2c1.2-3.5,4.1-5.8,7.3-5.8c0.5,0,0.9,0.1,1.4,0.2v4.5 c-0.5-0.1-1-0.2-1.6-0.2c-3.4,0-5.8,2.6-6.5,6.2c-0.1,0.7-0.2,1.4-0.2,2.2V51h-4.8V32.8z"/><path fill="#FFFFFF" d="M95.4,51l-9.4-36.8h5l4.4,18.6c1.1,4.6,2.1,9.2,2.7,12.7h0.1c0.6-3.7,1.8-8,3-12.8l4.9-18.5h5l4.5,18.7 c1,4.4,2,8.7,2.6,12.6h0.1c0.8-4,1.8-8.1,3-12.7l4.9-18.5h4.9L120.6,51h-5L111,31.9c-1.1-4.7-1.9-8.3-2.4-12h-0.1 c-0.7,3.7-1.5,7.3-2.8,12L100.4,51H95.4z"/><path fill="#FFFFFF" d="M154.9,37.6c0,9.8-6.8,14-13.2,14c-7.2,0-12.7-5.2-12.7-13.6c0-8.8,5.8-14,13.1-14 C149.8,24,154.9,29.5,154.9,37.6z M133.9,37.9c0,5.8,3.3,10.1,8,10.1c4.6,0,8-4.3,8-10.3c0-4.5-2.2-10.1-7.9-10.1 C136.3,27.6,133.9,32.8,133.9,37.9z"/><path fill="#FFFFFF" d="M158.2,32.8c0-3.1-0.1-5.8-0.2-8.2h4.2l0.2,5.2h0.2c1.2-3.5,4.1-5.8,7.3-5.8c0.5,0,0.9,0.1,1.4,0.2v4.5 c-0.5-0.1-1-0.2-1.6-0.2c-3.4,0-5.8,2.6-6.5,6.2c-0.1,0.7-0.2,1.4-0.2,2.2V51h-4.8V32.8z"/><path fill="#FFFFFF" d="M173.5,12.3h4.8V51h-4.8V12.3z"/><path fill="#FFFFFF" d="M206.5,12.3v31.9c0,2.3,0.1,5,0.2,6.8h-4.3l-0.2-4.6H202c-1.5,2.9-4.7,5.2-9,5.2 c-6.4,0-11.3-5.4-11.3-13.4c-0.1-8.8,5.4-14.2,11.9-14.2c4,0,6.8,1.9,8,4h0.1V12.3H206.5z M201.7,35.4c0-0.6-0.1-1.4-0.2-2 c-0.7-3.1-3.3-5.6-6.9-5.6c-5,0-7.9,4.4-7.9,10.2c0,5.3,2.6,9.8,7.8,9.8c3.2,0,6.2-2.1,7.1-5.7c0.2-0.7,0.2-1.3,0.2-2.1V35.4z"/><path fill="#FFFFFF" d="M42.8,64c0.1,1.6-1.1,2.9-3.1,2.9c-1.7,0-2.9-1.3-2.9-2.9c0-1.7,1.3-3,3-3C41.7,61,42.8,62.3,42.8,64z M37.4,97.8V71.4h4.8v26.4H37.4z"/><path fill="#FFFFFF" d="M47.5,78.6c0-2.7-0.1-5-0.2-7.1h4.3l0.3,4.4h0.1c1.3-2.5,4.4-5,8.8-5c3.7,0,9.4,2.2,9.4,11.2v15.8h-4.8 V82.6c0-4.3-1.6-7.8-6.1-7.8c-3.2,0-5.6,2.2-6.5,4.9c-0.2,0.6-0.3,1.4-0.3,2.2v15.9h-4.8V78.6z"/><path fill="#FFFFFF" d="M84,61.6c2.9-0.4,6.3-0.8,10.1-0.8c6.8,0,11.7,1.6,14.9,4.6c3.3,3,5.2,7.3,5.2,13.2c0,6-1.9,10.9-5.3,14.3 c-3.4,3.4-9.1,5.3-16.3,5.3c-3.4,0-6.2-0.2-8.6-0.4V61.6z M88.8,94.1c1.2,0.2,3,0.3,4.8,0.3c10.2,0,15.7-5.7,15.7-15.6 c0.1-8.7-4.9-14.2-14.9-14.2c-2.5,0-4.3,0.2-5.6,0.5V94.1z"/><path fill="#FFFFFF" d="M132.1,97.8l-0.4-3.3h-0.2c-1.5,2.1-4.3,3.9-8.1,3.9c-5.4,0-8.1-3.8-8.1-7.6c0-6.4,5.7-9.9,15.9-9.8v-0.5 c0-2.2-0.6-6.1-6-6.1c-2.5,0-5,0.8-6.9,2l-1.1-3.2c2.2-1.4,5.4-2.3,8.7-2.3c8.1,0,10.1,5.5,10.1,10.8v9.9c0,2.3,0.1,4.5,0.4,6.3 H132.1z M131.4,84.4c-5.3-0.1-11.2,0.8-11.2,5.9c0,3.1,2.1,4.6,4.5,4.6c3.4,0,5.6-2.2,6.4-4.4c0.2-0.5,0.3-1,0.3-1.5V84.4z"/><path fill="#FFFFFF" d="M146.6,63.9v7.6h6.9v3.7h-6.9v14.2c0,3.3,0.9,5.1,3.6,5.1c1.3,0,2.2-0.2,2.8-0.3l0.2,3.6 c-0.9,0.4-2.4,0.7-4.3,0.7c-2.2,0-4-0.7-5.2-2c-1.4-1.4-1.9-3.8-1.9-6.9V75.1h-4.1v-3.7h4.1v-6.3L146.6,63.9z"/><path fill="#FFFFFF" d="M171.4,97.8l-0.4-3.3h-0.2c-1.5,2.1-4.3,3.9-8.1,3.9c-5.4,0-8.1-3.8-8.1-7.6c0-6.4,5.7-9.9,15.9-9.8v-0.5 c0-2.2-0.6-6.1-6-6.1c-2.5,0-5,0.8-6.9,2l-1.1-3.2c2.2-1.4,5.4-2.3,8.7-2.3c8.1,0,10.1,5.5,10.1,10.8v9.9c0,2.3,0.1,4.5,0.4,6.3 H171.4z M170.7,84.4c-5.3-0.1-11.2,0.8-11.2,5.9c0,3.1,2.1,4.6,4.5,4.6c3.4,0,5.6-2.2,6.4-4.4c0.2-0.5,0.3-1,0.3-1.5V84.4z"/></g></g></a></g><a href="https://ourworldindata.org/grapher/prevalence-of-undernourishment?tab=chart" target="_blank"><text font-size="27.00" x="15.0" y="36.6" fill="#555"><tspan x="15" y="36.6">Share of the population that is undernourished</tspan></text></a><text font-size="14.40" x="15.0" y="55.5" fill="#666"><tspan x="15" y="55.519999999999996">This is the main FAO hunger indicator. It measures the share of the population that has a caloric intake which is</tspan><tspan x="15" y="71.36">insufficient to meet the minimum energy requirements necessary for a given individual.</tspan></text></g><g class="LineChart"><defs><clipPath id="boundsClip-142"><rect x="42.562" y="0" width="830" height="897.8000000000001"></rect></clipPath></defs><g class="AxisBoxView"><g class="HorizontalAxis"><text x="52.6" y="542.8000000000001" fill="#666" text-anchor="middle" font-size="16.2">1991</text><text x="150" y="542.8000000000001" fill="#666" text-anchor="middle" font-size="16.2">1995</text><text x="271.9" y="542.8000000000001" fill="#666" text-anchor="middle" font-size="16.2">2000</text><text x="393.7" y="542.8000000000001" fill="#666" text-anchor="middle" font-size="16.2">2005</text><text x="515.5" y="542.8000000000001" fill="#666" text-anchor="middle" font-size="16.2">2010</text><text x="637.3" y="542.8000000000001" fill="#666" text-anchor="middle" font-size="16.2">2015</text></g><g class="VerticalAxis"><text x="47.56" y="521.6" fill="#666" dominant-baseline="middle" text-anchor="end" font-size="16.2">0%</text><text x="47.56" y="457.5" fill="#666" dominant-baseline="middle" text-anchor="end" font-size="16.2">5%</text><text x="47.56" y="393.4" fill="#666" dominant-baseline="middle" text-anchor="end" font-size="16.2">10%</text><text x="47.56" y="329.4" fill="#666" dominant-baseline="middle" text-anchor="end" font-size="16.2">15%</text><text x="47.56" y="265.3" fill="#666" dominant-baseline="middle" text-anchor="end" font-size="16.2">20%</text><text x="47.56" y="201.2" fill="#666" dominant-baseline="middle" text-anchor="end" font-size="16.2">25%</text><text x="47.56" y="137.1" fill="#666" dominant-baseline="middle" text-anchor="end" font-size="16.2">30%</text></g><g class="AxisGridLines"><line x1="52.56" y1="521.6" x2="637.34" y2="521.6" stroke="#ccc"></line><line x1="52.56" y1="457.5" x2="637.34" y2="457.5" stroke="#ddd" stroke-dasharray="3,2"></line><line x1="52.56" y1="393.4" x2="637.34" y2="393.4" stroke="#ddd" stroke-dasharray="3,2"></line><line x1="52.56" y1="329.4" x2="637.34" y2="329.4" stroke="#ddd" stroke-dasharray="3,2"></line><line x1="52.56" y1="265.3" x2="637.34" y2="265.3" stroke="#ddd" stroke-dasharray="3,2"></line><line x1="52.56" y1="201.2" x2="637.34" y2="201.2" stroke="#ddd" stroke-dasharray="3,2"></line><line x1="52.56" y1="137.1" x2="637.34" y2="137.1" stroke="#ddd" stroke-dasharray="3,2"></line></g><g class="AxisGridLines"><line x1="150" y1="521.60" x2="150" y2="93.90" stroke="#ddd" stroke-dasharray="3,2"></line><line x1="271.9" y1="521.60" x2="271.9" y2="93.90" stroke="#ddd" stroke-dasharray="3,2"></line><line x1="393.7" y1="521.60" x2="393.7" y2="93.90" stroke="#ddd" stroke-dasharray="3,2"></line><line x1="515.5" y1="521.60" x2="515.5" y2="93.90" stroke="#ddd" stroke-dasharray="3,2"></line><line x1="637.3" y1="521.60" x2="637.3" y2="93.90" stroke="#ddd" stroke-dasharray="3,2"></line></g></g><g clip-path="url(#boundsClip-142)"><g class="HeightedLegend clickable"><g class="legendMark"><rect x="647.3439999999999" y="276.7" width="141.144" height="14.4" fill="#fff" opacity="0"></rect><rect x="647.3439999999999" y="282.65" width="10" height="2.5" fill="#2a939b"></rect><text font-size="14.40" x="662.3" y="288.2" fill="#333"><tspan x="662.3439999999999" y="288.21999999999997">Sub-Saharan Africa</tspan></text></g><g class="legendMark"><rect x="647.3439999999999" y="306.40000000000003" width="84.98400000000001" height="14.4" fill="#fff" opacity="0"></rect><rect x="647.3439999999999" y="312.35" width="10" height="2.5" fill="#a652ba"></rect><text font-size="14.40" x="662.3" y="317.9" fill="#333"><tspan x="662.3439999999999" y="317.92">South Asia</tspan></text></g><g class="legendMark"><rect x="647.3439999999999" y="376" width="52.584" height="14.4" fill="#fff" opacity="0"></rect><rect x="647.3439999999999" y="381.95" width="10" height="2.5" fill="#f6a324"></rect><text font-size="14.40" x="662.3" y="387.5" fill="#333"><tspan x="662.3439999999999" y="387.52">World</tspan></text></g><g class="legendMark"><rect x="647.3439999999999" y="390.4" width="136.24800000000002" height="14.4" fill="#fff" opacity="0"></rect><rect x="647.3439999999999" y="396.34999999999997" width="10" height="2.5" fill="#34983f"></rect><text font-size="14.40" x="662.3" y="401.9" fill="#333"><tspan x="662.3439999999999" y="401.91999999999996">East Asia &amp; Pacific</tspan></text></g><g class="legendMark"><rect x="647.3439999999999" y="409.90000000000003" width="184.34400000000002" height="14.4" fill="#fff" opacity="0"></rect><rect x="647.3439999999999" y="415.85" width="10" height="2.5" fill="#ca2628"></rect><text font-size="14.40" x="662.3" y="421.4" fill="#333"><tspan x="662.3439999999999" y="421.42">Middle East &amp; North Africa</tspan></text></g><g class="legendMark"><rect x="647.3439999999999" y="424.3" width="187.65600000000003" height="14.4" fill="#fff" opacity="0"></rect><rect x="647.3439999999999" y="430.25" width="10" height="2.5" fill="#3360a9"></rect><text font-size="14.40" x="662.3" y="435.8" fill="#333"><tspan x="662.3439999999999" y="435.82">Latin America &amp; Caribbean</tspan></text></g></g><g class="Lines"><rect x="53" y="94" width="585" height="428" fill="rgba(255,255,255,0)" opacity="0"></rect><g class="key-World_0"><path stroke="#f6a324" stroke-linecap="round" d="M53 283L77 285L101 288L126 294L150 301L174 309L199 315L223 320L248 326L272 329L296 331L321 329L345 328L369 329L394 333L418 338L442 346L467 355L491 361L516 367L540 370L564 376L589 378L613 381L637 383" fill="none" stroke-width="1.5"></path><g fill="#f6a324"><circle cx="53" cy="283" r="2"></circle><circle cx="77" cy="285" r="2"></circle><circle cx="101" cy="288" r="2"></circle><circle cx="126" cy="294" r="2"></circle><circle cx="150" cy="301" r="2"></circle><circle cx="174" cy="309" r="2"></circle><circle cx="199" cy="315" r="2"></circle><circle cx="223" cy="320" r="2"></circle><circle cx="248" cy="326" r="2"></circle><circle cx="272" cy="329" r="2"></circle><circle cx="296" cy="331" r="2"></circle><circle cx="321" cy="329" r="2"></circle><circle cx="345" cy="328" r="2"></circle><circle cx="369" cy="329" r="2"></circle><circle cx="394" cy="333" r="2"></circle><circle cx="418" cy="338" r="2"></circle><circle cx="442" cy="346" r="2"></circle><circle cx="467" cy="355" r="2"></circle><circle cx="491" cy="361" r="2"></circle><circle cx="516" cy="367" r="2"></circle><circle cx="540" cy="370" r="2"></circle><circle cx="564" cy="376" r="2"></circle><circle cx="589" cy="378" r="2"></circle><circle cx="613" cy="381" r="2"></circle><circle cx="637" cy="383" r="2"></circle></g></g><g class="key-East-Asia-__0026-Pacific_0"><path stroke="#34983f" stroke-linecap="round" d="M53 200L77 196L101 209L126 226L150 248L174 265L199 275L223 281L248 286L272 290L296 294L321 297L345 300L369 304L394 309L418 314L442 322L467 332L491 343L516 355L540 367L564 377L589 384L613 391L637 397" fill="none" stroke-width="1.5"></path><g fill="#34983f"><circle cx="53" cy="200" r="2"></circle><circle cx="77" cy="196" r="2"></circle><circle cx="101" cy="209" r="2"></circle><circle cx="126" cy="226" r="2"></circle><circle cx="150" cy="248" r="2"></circle><circle cx="174" cy="265" r="2"></circle><circle cx="199" cy="275" r="2"></circle><circle cx="223" cy="281" r="2"></circle><circle cx="248" cy="286" r="2"></circle><circle cx="272" cy="290" r="2"></circle><circle cx="296" cy="294" r="2"></circle><circle cx="321" cy="297" r="2"></circle><circle cx="345" cy="300" r="2"></circle><circle cx="369" cy="304" r="2"></circle><circle cx="394" cy="309" r="2"></circle><circle cx="418" cy="314" r="2"></circle><circle cx="442" cy="322" r="2"></circle><circle cx="467" cy="332" r="2"></circle><circle cx="491" cy="343" r="2"></circle><circle cx="516" cy="355" r="2"></circle><circle cx="540" cy="367" r="2"></circle><circle cx="564" cy="377" r="2"></circle><circle cx="589" cy="384" r="2"></circle><circle cx="613" cy="391" r="2"></circle><circle cx="637" cy="397" r="2"></circle></g></g><g class="key-Latin-America-__0026-Caribbean_0"><path stroke="#3360a9" stroke-linecap="round" d="M53 330L77 337L101 338L126 341L150 345L174 347L199 350L223 352L248 356L272 362L296 370L321 379L345 387L369 394L394 401L418 406L442 410L467 414L491 415L516 417L540 419L564 422L589 424L613 426L637 427" fill="none" stroke-width="1.5"></path><g fill="#3360a9"><circle cx="53" cy="330" r="2"></circle><circle cx="77" cy="337" r="2"></circle><circle cx="101" cy="338" r="2"></circle><circle cx="126" cy="341" r="2"></circle><circle cx="150" cy="345" r="2"></circle><circle cx="174" cy="347" r="2"></circle><circle cx="199" cy="350" r="2"></circle><circle cx="223" cy="352" r="2"></circle><circle cx="248" cy="356" r="2"></circle><circle cx="272" cy="362" r="2"></circle><circle cx="296" cy="370" r="2"></circle><circle cx="321" cy="379" r="2"></circle><circle cx="345" cy="387" r="2"></circle><circle cx="369" cy="394" r="2"></circle><circle cx="394" cy="401" r="2"></circle><circle cx="418" cy="406" r="2"></circle><circle cx="442" cy="410" r="2"></circle><circle cx="467" cy="414" r="2"></circle><circle cx="491" cy="415" r="2"></circle><circle cx="516" cy="417" r="2"></circle><circle cx="540" cy="419" r="2"></circle><circle cx="564" cy="422" r="2"></circle><circle cx="589" cy="424" r="2"></circle><circle cx="613" cy="426" r="2"></circle><circle cx="637" cy="427" r="2"></circle></g></g><g class="key-South-Asia_0"><path stroke="#a652ba" stroke-linecap="round" d="M53 203L77 216L101 213L126 214L150 219L174 231L199 246L223 262L248 274L272 281L296 277L321 267L345 254L369 247L394 247L418 256L442 274L467 292L491 303L516 308L540 309L564 311L589 311L613 312L637 314" fill="none" stroke-width="1.5"></path><g fill="#a652ba"><circle cx="53" cy="203" r="2"></circle><circle cx="77" cy="216" r="2"></circle><circle cx="101" cy="213" r="2"></circle><circle cx="126" cy="214" r="2"></circle><circle cx="150" cy="219" r="2"></circle><circle cx="174" cy="231" r="2"></circle><circle cx="199" cy="246" r="2"></circle><circle cx="223" cy="262" r="2"></circle><circle cx="248" cy="274" r="2"></circle><circle cx="272" cy="281" r="2"></circle><circle cx="296" cy="277" r="2"></circle><circle cx="321" cy="267" r="2"></circle><circle cx="345" cy="254" r="2"></circle><circle cx="369" cy="247" r="2"></circle><circle cx="394" cy="247" r="2"></circle><circle cx="418" cy="256" r="2"></circle><circle cx="442" cy="274" r="2"></circle><circle cx="467" cy="292" r="2"></circle><circle cx="491" cy="303" r="2"></circle><circle cx="516" cy="308" r="2"></circle><circle cx="540" cy="309" r="2"></circle><circle cx="564" cy="311" r="2"></circle><circle cx="589" cy="311" r="2"></circle><circle cx="613" cy="312" r="2"></circle><circle cx="637" cy="314" r="2"></circle></g></g><g class="key-Middle-East-__0026-North-Africa_0"><path stroke="#ca2628" stroke-linecap="round" d="M53 425L77 423L101 420L126 414L150 411L174 408L199 406L223 405L248 405L272 406L296 407L321 406L345 405L369 404L394 404L418 404L442 405L467 406L491 408L516 410L540 412L564 414L589 415L613 417L637 417" fill="none" stroke-width="1.5"></path><g fill="#ca2628"><circle cx="53" cy="425" r="2"></circle><circle cx="77" cy="423" r="2"></circle><circle cx="101" cy="420" r="2"></circle><circle cx="126" cy="414" r="2"></circle><circle cx="150" cy="411" r="2"></circle><circle cx="174" cy="408" r="2"></circle><circle cx="199" cy="406" r="2"></circle><circle cx="223" cy="405" r="2"></circle><circle cx="248" cy="405" r="2"></circle><circle cx="272" cy="406" r="2"></circle><circle cx="296" cy="407" r="2"></circle><circle cx="321" cy="406" r="2"></circle><circle cx="345" cy="405" r="2"></circle><circle cx="369" cy="404" r="2"></circle><circle cx="394" cy="404" r="2"></circle><circle cx="418" cy="404" r="2"></circle><circle cx="442" cy="405" r="2"></circle><circle cx="467" cy="406" r="2"></circle><circle cx="491" cy="408" r="2"></circle><circle cx="516" cy="410" r="2"></circle><circle cx="540" cy="412" r="2"></circle><circle cx="564" cy="414" r="2"></circle><circle cx="589" cy="415" r="2"></circle><circle cx="613" cy="417" r="2"></circle><circle cx="637" cy="417" r="2"></circle></g></g><g class="key-Sub__002dSaharan-Africa_0"><path stroke="#2a939b" stroke-linecap="round" d="M53 94L77 101L101 105L126 109L150 117L174 126L199 135L223 143L248 153L272 163L296 172L321 179L345 187L369 198L394 211L418 225L442 236L467 244L491 251L516 259L540 267L564 274L589 278L613 281L637 284" fill="none" stroke-width="1.5"></path><g fill="#2a939b"><circle cx="53" cy="94" r="2"></circle><circle cx="77" cy="101" r="2"></circle><circle cx="101" cy="105" r="2"></circle><circle cx="126" cy="109" r="2"></circle><circle cx="150" cy="117" r="2"></circle><circle cx="174" cy="126" r="2"></circle><circle cx="199" cy="135" r="2"></circle><circle cx="223" cy="143" r="2"></circle><circle cx="248" cy="153" r="2"></circle><circle cx="272" cy="163" r="2"></circle><circle cx="296" cy="172" r="2"></circle><circle cx="321" cy="179" r="2"></circle><circle cx="345" cy="187" r="2"></circle><circle cx="369" cy="198" r="2"></circle><circle cx="394" cy="211" r="2"></circle><circle cx="418" cy="225" r="2"></circle><circle cx="442" cy="236" r="2"></circle><circle cx="467" cy="244" r="2"></circle><circle cx="491" cy="251" r="2"></circle><circle cx="516" cy="259" r="2"></circle><circle cx="540" cy="267" r="2"></circle><circle cx="564" cy="274" r="2"></circle><circle cx="589" cy="278" r="2"></circle><circle cx="613" cy="281" r="2"></circle><circle cx="637" cy="284" r="2"></circle></g></g></g></g></g><g style="fill: #777;" class="SourcesFooter"><g style="fill: #777;" class="clickable"><text font-size="12.60" x="15.0" y="567.9"><tspan x="15" y="567.88">Source: World Bank</tspan></text></g><text font-size="12.60" x="15.0" y="582.5"><tspan x="15" y="582.48">Note: Developed countries are not included in the regional estimates since the prevalence is below 5%.</tspan></text><text font-size="12.60" x="471.1" y="567.9"><tspan x="471.112" y="567.88"><a target='_blank' style='fill: #777;' href='https://ourworldindata.org/hunger-and-undernourishment/'>OurWorldInData.org/hunger-and-undernourishment/</a> • <a style="fill: #777;" href="http://creativecommons.org/licenses/by-sa/4.0/deed.en_US" target="_blank">CC BY-SA</a></tspan></text></g></g></svg>