<svg xmlns="http://www.w3.org/2000/svg" version="1.1" style="font-family:&#x27;Helvetica Neue&#x27;, Helvetica, Arial, sans-serif;font-size:18px;background-color:white;text-rendering:optimizeLegibility;-webkit-font-smoothing:antialiased" width="850" height="600"><g class="ChartTab"><g class="HeaderView"><g opacity="0.8" transform="translate(778, 15) scale(0.27)"><a xmlns:xlink="http://www.w3.org/1999/xlink" xlink:href="https://ourworldindata.org" target="_blank"><g><rect x="0" y="0" fill="#1B2543" width="211.2" height="130.1"/><rect x="0" y="112.2" fill="#E63912" width="211.2" height="17.9"/><g><rect x="1.2" y="12.3" fill="none" width="210.2" height="99.2"/><path fill="#FFFFFF" d="M37.8,32.2c0,12.7-7.7,19.4-17.1,19.4c-9.7,0-16.6-7.5-16.6-18.7c0-11.7,7.3-19.3,17.1-19.3 C31.3,13.7,37.8,21.3,37.8,32.2z M9.2,32.8c0,7.9,4.3,14.9,11.8,14.9c7.5,0,11.8-6.9,11.8-15.3c0-7.3-3.8-14.9-11.8-14.9 C13.1,17.5,9.2,24.8,9.2,32.8z"/><path fill="#FFFFFF" d="M62.7,43.8c0,2.7,0.1,5.1,0.2,7.2h-4.3l-0.3-4.3h-0.1c-1.3,2.1-4,4.9-8.8,4.9c-4.2,0-9.1-2.3-9.1-11.6 V24.6h4.8v14.6c0,5,1.5,8.4,5.9,8.4c3.2,0,5.5-2.2,6.3-4.4c0.3-0.7,0.4-1.6,0.4-2.5V24.6h4.8V43.8z"/><path fill="#FFFFFF" d="M67.3,32.8c0-3.1-0.1-5.8-0.2-8.2h4.2l0.2,5.2h0.2c1.2-3.5,4.1-5.8,7.3-5.8c0.5,0,0.9,0.1,1.4,0.2v4.5 c-0.5-0.1-1-0.2-1.6-0.2c-3.4,0-5.8,2.6-6.5,6.2c-0.1,0.7-0.2,1.4-0.2,2.2V51h-4.8V32.8z"/><path fill="#FFFFFF" d="M95.4,51l-9.4-36.8h5l4.4,18.6c1.1,4.6,2.1,9.2,2.7,12.7h0.1c0.6-3.7,1.8-8,3-12.8l4.9-18.5h5l4.5,18.7 c1,4.4,2,8.7,2.6,12.6h0.1c0.8-4,1.8-8.1,3-12.7l4.9-18.5h4.9L120.6,51h-5L111,31.9c-1.1-4.7-1.9-8.3-2.4-12h-0.1 c-0.7,3.7-1.5,7.3-2.8,12L100.4,51H95.4z"/><path fill="#FFFFFF" d="M154.9,37.6c0,9.8-6.8,14-13.2,14c-7.2,0-12.7-5.2-12.7-13.6c0-8.8,5.8-14,13.1-14 C149.8,24,154.9,29.5,154.9,37.6z M133.9,37.9c0,5.8,3.3,10.1,8,10.1c4.6,0,8-4.3,8-10.3c0-4.5-2.2-10.1-7.9-10.1 C136.3,27.6,133.9,32.8,133.9,37.9z"/><path fill="#FFFFFF" d="M158.2,32.8c0-3.1-0.1-5.8-0.2-8.2h4.2l0.2,5.2h0.2c1.2-3.5,4.1-5.8,7.3-5.8c0.5,0,0.9,0.1,1.4,0.2v4.5 c-0.5-0.1-1-0.2-1.6-0.2c-3.4,0-5.8,2.6-6.5,6.2c-0.1,0.7-0.2,1.4-0.2,2.2V51h-4.8V32.8z"/><path fill="#FFFFFF" d="M173.5,12.3h4.8V51h-4.8V12.3z"/><path fill="#FFFFFF" d="M206.5,12.3v31.9c0,2.3,0.1,5,0.2,6.8h-4.3l-0.2-4.6H202c-1.5,2.9-4.7,5.2-9,5.2 c-6.4,0-11.3-5.4-11.3-13.4c-0.1-8.8,5.4-14.2,11.9-14.2c4,0,6.8,1.9,8,4h0.1V12.3H206.5z M201.7,35.4c0-0.6-0.1-1.4-0.2-2 c-0.7-3.1-3.3-5.6-6.9-5.6c-5,0-7.9,4.4-7.9,10.2c0,5.3,2.6,9.8,7.8,9.8c3.2,0,6.2-2.1,7.1-5.7c0.2-0.7,0.2-1.3,0.2-2.1V35.4z"/><path fill="#FFFFFF" d="M42.8,64c0.1,1.6-1.1,2.9-3.1,2.9c-1.7,0-2.9-1.3-2.9-2.9c0-1.7,1.3-3,3-3C41.7,61,42.8,62.3,42.8,64z M37.4,97.8V71.4h4.8v26.4H37.4z"/><path fill="#FFFFFF" d="M47.5,78.6c0-2.7-0.1-5-0.2-7.1h4.3l0.3,4.4h0.1c1.3-2.5,4.4-5,8.8-5c3.7,0,9.4,2.2,9.4,11.2v15.8h-4.8 V82.6c0-4.3-1.6-7.8-6.1-7.8c-3.2,0-5.6,2.2-6.5,4.9c-0.2,0.6-0.3,1.4-0.3,2.2v15.9h-4.8V78.6z"/><path fill="#FFFFFF" d="M84,61.6c2.9-0.4,6.3-0.8,10.1-0.8c6.8,0,11.7,1.6,14.9,4.6c3.3,3,5.2,7.3,5.2,13.2c0,6-1.9,10.9-5.3,14.3 c-3.4,3.4-9.1,5.3-16.3,5.3c-3.4,0-6.2-0.2-8.6-0.4V61.6z M88.8,94.1c1.2,0.2,3,0.3,4.8,0.3c10.2,0,15.7-5.7,15.7-15.6 c0.1-8.7-4.9-14.2-14.9-14.2c-2.5,0-4.3,0.2-5.6,0.5V94.1z"/><path fill="#FFFFFF" d="M132.1,97.8l-0.4-3.3h-0.2c-1.5,2.1-4.3,3.9-8.1,3.9c-5.4,0-8.1-3.8-8.1-7.6c0-6.4,5.7-9.9,15.9-9.8v-0.5 c0-2.2-0.6-6.1-6-6.1c-2.5,0-5,0.8-6.9,2l-1.1-3.2c2.2-1.4,5.4-2.3,8.7-2.3c8.1,0,10.1,5.5,10.1,10.8v9.9c0,2.3,0.1,4.5,0.4,6.3 H132.1z M131.4,84.4c-5.3-0.1-11.2,0.8-11.2,5.9c0,3.1,2.1,4.6,4.5,4.6c3.4,0,5.6-2.2,6.4-4.4c0.2-0.5,0.3-1,0.3-1.5V84.4z"/><path fill="#FFFFFF" d="M146.6,63.9v7.6h6.9v3.7h-6.9v14.2c0,3.3,0.9,5.1,3.6,5.1c1.3,0,2.2-0.2,2.8-0.3l0.2,3.6 c-0.9,0.4-2.4,0.7-4.3,0.7c-2.2,0-4-0.7-5.2-2c-1.4-1.4-1.9-3.8-1.9-6.9V75.1h-4.1v-3.7h4.1v-6.3L146.6,63.9z"/><path fill="#FFFFFF" d="M171.4,97.8l-0.4-3.3h-0.2c-1.5,2.1-4.3,3.9-8.1,3.9c-5.4,0-8.1-3.8-8.1-7.6c0-6.4,5.7-9.9,15.9-9.8v-0.5 c0-2.2-0.6-6.1-6-6.1c-2.5,0-5,0.8-6.9,2l-1.1-3.2c2.2-1.4,5.4-2.3,8.7-2.3c8.1,0,10.1,5.5,10.1,10.8v9.9c0,2.3,0.1,4.5,0.4,6.3 H171.4z M170.7,84.4c-5.3-0.1-11.2,0.8-11.2,5.9c0,3.1,2.1,4.6,4.5,4.6c3.4,0,5.6-2.2,6.4-4.4c0.2-0.5,0.3-1,0.3-1.5V84.4z"/></g></g></a></g><a href="https://ourworldindata.org/grapher/primary-energy-consumption-by-source-and-region" target="_blank"><text font-size="25.20" x="15.0" y="35.2" fill="#555"><tspan x="15" y="35.160000000000004">Primary energy consumption by source, World</tspan></text></a><text font-size="14.40" x="15.0" y="53.7" fill="#666"><tspan x="15" y="53.72">Primary energy consumption by source across the world&#x27;s regions, measured in terawatt-hours (TWh). Note that this</tspan><tspan x="15" y="69.56">data does not include energy sourced from traditional biomass, which may form a significant component of primary</tspan><tspan x="15" y="85.4">energy consumption in low to middle-income countries. &#x27;Other renewables&#x27; includes renewable sources including</tspan><tspan x="15" y="101.24000000000001">wind, geothermal, solar, biomass and waste.</tspan></text></g><g class="StackedArea"><defs><clipPath id="boundsClip-157"><rect x="117.686" y="0" width="820" height="866.8"></rect></clipPath></defs><g class="AxisBoxView"><g class="HorizontalAxis"><text x="117.7" y="556.5" fill="#666" text-anchor="middle" font-size="16.2">1965</text><text x="174.1" y="556.5" fill="#666" text-anchor="middle" font-size="16.2">1970</text><text x="286.9" y="556.5" fill="#666" text-anchor="middle" font-size="16.2">1980</text><text x="399.7" y="556.5" fill="#666" text-anchor="middle" font-size="16.2">1990</text><text x="512.6" y="556.5" fill="#666" text-anchor="middle" font-size="16.2">2000</text><text x="625.4" y="556.5" fill="#666" text-anchor="middle" font-size="16.2">2010</text><text x="693.1" y="556.5" fill="#666" text-anchor="middle" font-size="16.2">2016</text></g><g class="VerticalAxis"><text x="112.69" y="535.3" fill="#666" dominant-baseline="middle" text-anchor="end" font-size="16.2">0 TWh</text><text x="112.69" y="477.2" fill="#666" dominant-baseline="middle" text-anchor="end" font-size="16.2">20,000 TWh</text><text x="112.69" y="419.1" fill="#666" dominant-baseline="middle" text-anchor="end" font-size="16.2">40,000 TWh</text><text x="112.69" y="360.9" fill="#666" dominant-baseline="middle" text-anchor="end" font-size="16.2">60,000 TWh</text><text x="112.69" y="302.8" fill="#666" dominant-baseline="middle" text-anchor="end" font-size="16.2">80,000 TWh</text><text x="112.69" y="244.7" fill="#666" dominant-baseline="middle" text-anchor="end" font-size="16.2">100,000 TWh</text><text x="112.69" y="186.6" fill="#666" dominant-baseline="middle" text-anchor="end" font-size="16.2">120,000 TWh</text><text x="112.69" y="128.4" fill="#666" dominant-baseline="middle" text-anchor="end" font-size="16.2">140,000 TWh</text></g><g class="AxisGridLines"><line x1="117.69" y1="535.3" x2="693.08" y2="535.3" stroke="#ccc"></line><line x1="117.69" y1="477.2" x2="693.08" y2="477.2" stroke="#ddd" stroke-dasharray="3,2"></line><line x1="117.69" y1="419.1" x2="693.08" y2="419.1" stroke="#ddd" stroke-dasharray="3,2"></line><line x1="117.69" y1="360.9" x2="693.08" y2="360.9" stroke="#ddd" stroke-dasharray="3,2"></line><line x1="117.69" y1="302.8" x2="693.08" y2="302.8" stroke="#ddd" stroke-dasharray="3,2"></line><line x1="117.69" y1="244.7" x2="693.08" y2="244.7" stroke="#ddd" stroke-dasharray="3,2"></line><line x1="117.69" y1="186.6" x2="693.08" y2="186.6" stroke="#ddd" stroke-dasharray="3,2"></line><line x1="117.69" y1="128.4" x2="693.08" y2="128.4" stroke="#ddd" stroke-dasharray="3,2"></line></g></g><g clip-path="url(#boundsClip-157)"><g class="HeightedLegend clickable"><g class="legendMark"><g class="indicator"><line x1="698.0799999999999" y1="125.8" x2="718.5799999999999" y2="125.8" stroke="#666" stroke-width="0.5"></line><line x1="718.5799999999999" y1="125.8" x2="718.5799999999999" y2="125.8" stroke="#666" stroke-width="0.5"></line><line x1="718.5799999999999" y1="125.8" x2="723.0799999999999" y2="125.8" stroke="#666" stroke-width="0.5"></line></g><rect x="693.0799999999999" y="119.05" width="141.92000000000002" height="13.5" fill="#fff" opacity="0"></rect><text font-size="13.50" x="728.1" y="129.9" fill="#34983f"><tspan x="728.0799999999999" y="129.85000000000002">Other renewables</tspan></text></g><g class="legendMark"><g class="indicator"><line x1="698.0799999999999" y1="129" x2="714.5799999999999" y2="129" stroke="#666" stroke-width="0.5"></line><line x1="714.5799999999999" y1="129" x2="714.5799999999999" y2="141.3" stroke="#666" stroke-width="0.5"></line><line x1="714.5799999999999" y1="141.3" x2="723.0799999999999" y2="141.3" stroke="#666" stroke-width="0.5"></line></g><rect x="693.0799999999999" y="134.55" width="88.46000000000001" height="13.5" fill="#fff" opacity="0"></rect><text font-size="13.50" x="728.1" y="145.4" fill="#ffd53e"><tspan x="728.0799999999999" y="145.35000000000002">Solar PV</tspan></text></g><g class="legendMark"><g class="indicator"><line x1="698.0799999999999" y1="130.9" x2="710.5799999999999" y2="130.9" stroke="#666" stroke-width="0.5"></line><line x1="710.5799999999999" y1="130.9" x2="710.5799999999999" y2="156.8" stroke="#666" stroke-width="0.5"></line><line x1="710.5799999999999" y1="156.8" x2="723.0799999999999" y2="156.8" stroke="#666" stroke-width="0.5"></line></g><rect x="693.0799999999999" y="150.05" width="65.78" height="13.5" fill="#fff" opacity="0"></rect><text font-size="13.50" x="728.1" y="160.9" fill="#ed6c2d"><tspan x="728.0799999999999" y="160.85000000000002">Wind</tspan></text></g><g class="legendMark"><g class="indicator"><line x1="698.0799999999999" y1="136" x2="706.5799999999999" y2="136" stroke="#666" stroke-width="0.5"></line><line x1="706.5799999999999" y1="136" x2="706.5799999999999" y2="172.3" stroke="#666" stroke-width="0.5"></line><line x1="706.5799999999999" y1="172.3" x2="723.0799999999999" y2="172.3" stroke="#666" stroke-width="0.5"></line></g><rect x="693.0799999999999" y="165.55" width="81.575" height="13.5" fill="#fff" opacity="0"></rect><text font-size="13.50" x="728.1" y="176.4" fill="#a652ba"><tspan x="728.0799999999999" y="176.35000000000002">Nuclear</tspan></text></g><g class="legendMark"><g class="indicator"><line x1="698.0799999999999" y1="145.7" x2="702.5799999999999" y2="145.7" stroke="#666" stroke-width="0.5"></line><line x1="702.5799999999999" y1="145.7" x2="702.5799999999999" y2="187.8" stroke="#666" stroke-width="0.5"></line><line x1="702.5799999999999" y1="187.8" x2="723.0799999999999" y2="187.8" stroke="#666" stroke-width="0.5"></line></g><rect x="693.0799999999999" y="181.05" width="107.9" height="13.5" fill="#fff" opacity="0"></rect><text font-size="13.50" x="728.1" y="191.9" fill="#7ec7ce"><tspan x="728.0799999999999" y="191.85000000000002">Hydropower</tspan></text></g><g class="legendMark"><g class="indicator"><line x1="698.0799999999999" y1="205.7" x2="710.5799999999999" y2="205.7" stroke="#666" stroke-width="0.5"></line><line x1="710.5799999999999" y1="205.7" x2="710.5799999999999" y2="205.7" stroke="#666" stroke-width="0.5"></line><line x1="710.5799999999999" y1="205.7" x2="723.0799999999999" y2="205.7" stroke="#666" stroke-width="0.5"></line></g><rect x="693.0799999999999" y="198.95" width="59.84" height="13.5" fill="#fff" opacity="0"></rect><text font-size="13.50" x="728.1" y="209.8" fill="#3360a9"><tspan x="728.0799999999999" y="209.75">Gas</tspan></text></g><g class="legendMark"><g class="indicator"><line x1="698.0799999999999" y1="334.5" x2="710.5799999999999" y2="334.5" stroke="#666" stroke-width="0.5"></line><line x1="710.5799999999999" y1="334.5" x2="710.5799999999999" y2="334.5" stroke="#666" stroke-width="0.5"></line><line x1="710.5799999999999" y1="334.5" x2="723.0799999999999" y2="334.5" stroke="#666" stroke-width="0.5"></line></g><rect x="693.0799999999999" y="327.75" width="51.47" height="13.5" fill="#fff" opacity="0"></rect><text font-size="13.50" x="728.1" y="338.6" fill="#ca2628"><tspan x="728.0799999999999" y="338.55">Oil</tspan></text></g><g class="legendMark"><g class="indicator"><line x1="698.0799999999999" y1="472.2" x2="710.5799999999999" y2="472.2" stroke="#666" stroke-width="0.5"></line><line x1="710.5799999999999" y1="472.2" x2="710.5799999999999" y2="472.2" stroke="#666" stroke-width="0.5"></line><line x1="710.5799999999999" y1="472.2" x2="723.0799999999999" y2="472.2" stroke="#666" stroke-width="0.5"></line></g><rect x="693.0799999999999" y="465.45" width="62.81" height="13.5" fill="#fff" opacity="0"></rect><text font-size="13.50" x="728.1" y="476.3" fill="#818282"><tspan x="728.0799999999999" y="476.25">Coal</tspan></text></g></g><g class="Areas"><rect x="117.686" y="123.1" width="575.3939999999999" height="412.19999999999993" opacity="0" fill="rgba(255,255,255,0)"></rect><path class="World_2-area" stroke-linecap="round" d="M117.7 487.9L129 487.3L140.3 488.1L151.5 487.4L162.8 485.9L174.1 485.2L185.4 485.5L196.7 484.9L207.9 483.4L219.2 483.4L230.5 482.4L241.8 480.4L253.1 478.8L264.4 478.2L275.6 475.5L286.9 474L298.2 473.2L309.5 472.5L320.8 470.6L332 467.7L343.3 465.1L354.6 464.3L365.9 461.5L377.2 459.3L388.5 458.5L399.7 459.4L411 460.2L422.3 460.5L433.6 460.1L444.9 459.7L456.2 459.3L467.4 457.3L478.7 457.2L490 457.8L501.3 457.4L512.6 454.7L523.8 453.4L535.1 450.3L546.4 442.9L557.7 436.5L569 429.4L580.3 424L591.5 417.7L602.8 416L614.1 417.8L625.4 412.4L636.7 406.6L648 406.3L659.2 403.9L670.5 403.8L681.8 407.4L693.1 409.2L693.0799999999999 535.3L117.686 535.3" fill="#818282" fill-opacity="0.7"></path><path class="World_0-area" stroke-linecap="round" d="M117.7 436.3L129 431.8L140.3 428.6L151.5 422.8L162.8 415.7L174.1 409L185.4 404.9L196.7 398.1L207.9 389.8L219.2 391.1L230.5 391.2L241.8 383.2L253.1 378.3L264.4 374.9L275.6 370.5L286.9 373.1L298.2 376L309.5 378.4L320.8 377.1L332 372.2L343.3 369.5L354.6 365.8L365.9 361L377.2 355.4L388.5 352.9L399.7 352.6L411 353.3L422.3 351.8L433.6 352.3L444.9 349.6L456.2 347.8L467.4 343.4L478.7 340.5L490 340.1L501.3 337.3L512.6 333.4L523.8 330.9L535.1 326.7L546.4 316.4L557.7 305.2L569 296.3L580.3 289.3L591.5 281.1L602.8 280L614.1 284.1L625.4 274.3L636.7 267.2L648 265.1L659.2 261.3L670.5 260L681.8 260.7L693.1 259.8L693.1 409.2L681.8 407.4L670.5 403.8L659.2 403.9L648 406.3L636.7 406.6L625.4 412.4L614.1 417.8L602.8 416L591.5 417.7L580.3 424L569 429.4L557.7 436.5L546.4 442.9L535.1 450.3L523.8 453.4L512.6 454.7L501.3 457.4L490 457.8L478.7 457.2L467.4 457.3L456.2 459.3L444.9 459.7L433.6 460.1L422.3 460.5L411 460.2L399.7 459.4L388.5 458.5L377.2 459.3L365.9 461.5L354.6 464.3L343.3 465.1L332 467.7L320.8 470.6L309.5 472.5L298.2 473.2L286.9 474L275.6 475.5L264.4 478.2L253.1 478.8L241.8 480.4L230.5 482.4L219.2 483.4L207.9 483.4L196.7 484.9L185.4 485.5L174.1 485.2L162.8 485.9L151.5 487.4L140.3 488.1L129 487.3L117.7 487.9" fill="#ca2628" fill-opacity="0.7"></path><path class="World_1-area" stroke-linecap="round" d="M117.7 416.5L129 410.2L140.3 405.5L151.5 397.6L162.8 388.1L174.1 379L185.4 372.7L196.7 364.3L207.9 354.5L219.2 355.1L230.5 355.2L241.8 345.2L253.1 339.1L264.4 334.1L275.6 327.2L286.9 329.5L298.2 331.9L309.5 334.2L320.8 332.3L332 323.7L343.3 319.4L354.6 315.3L365.9 307.9L377.2 299.8L388.5 294.8L399.7 292.8L411 292L422.3 290.1L433.6 290.1L444.9 286.9L456.2 282.9L467.4 275.4L478.7 272.5L490 270.9L501.3 266.4L512.6 259.6L523.8 255.9L535.1 249.7L546.4 237.2L557.7 223.2L569 211.9L580.3 202.4L591.5 190.6L602.8 187.1L614.1 193.7L625.4 177.2L636.7 168.3L648 163.4L659.2 158L670.5 156.2L681.8 154.3L693.1 151.5L693.1 259.8L681.8 260.7L670.5 260L659.2 261.3L648 265.1L636.7 267.2L625.4 274.3L614.1 284.1L602.8 280L591.5 281.1L580.3 289.3L569 296.3L557.7 305.2L546.4 316.4L535.1 326.7L523.8 330.9L512.6 333.4L501.3 337.3L490 340.1L478.7 340.5L467.4 343.4L456.2 347.8L444.9 349.6L433.6 352.3L422.3 351.8L411 353.3L399.7 352.6L388.5 352.9L377.2 355.4L365.9 361L354.6 365.8L343.3 369.5L332 372.2L320.8 377.1L309.5 378.4L298.2 376L286.9 373.1L275.6 370.5L264.4 374.9L253.1 378.3L241.8 383.2L230.5 391.2L219.2 391.1L207.9 389.8L196.7 398.1L185.4 404.9L174.1 409L162.8 415.7L151.5 422.8L140.3 428.6L129 431.8L117.7 436.3" fill="#3360a9" fill-opacity="0.7"></path><path class="World_7-area" stroke-linecap="round" d="M117.7 413.8L129 407.3L140.3 402.5L151.5 394.5L162.8 384.8L174.1 375.5L185.4 369.2L196.7 360.6L207.9 350.7L219.2 350.9L230.5 351L241.8 341L253.1 334.9L264.4 329.5L275.6 322.3L286.9 324.5L298.2 326.9L309.5 329L320.8 326.8L332 318.1L343.3 313.7L354.6 309.4L365.9 301.9L377.2 293.7L388.5 288.7L399.7 286.6L411 285.5L422.3 283.7L433.6 283.3L444.9 280L456.2 275.7L467.4 268.1L478.7 265L490 263.4L501.3 258.8L512.6 251.9L523.8 248.4L535.1 242L546.4 229.5L557.7 215L569 203.4L580.3 193.5L591.5 181.6L602.8 177.6L614.1 184.2L625.4 167.2L636.7 158.1L648 152.7L659.2 147L670.5 144.9L681.8 143L693.1 139.8L693.1 151.5L681.8 154.3L670.5 156.2L659.2 158L648 163.4L636.7 168.3L625.4 177.2L614.1 193.7L602.8 187.1L591.5 190.6L580.3 202.4L569 211.9L557.7 223.2L546.4 237.2L535.1 249.7L523.8 255.9L512.6 259.6L501.3 266.4L490 270.9L478.7 272.5L467.4 275.4L456.2 282.9L444.9 286.9L433.6 290.1L422.3 290.1L411 292L399.7 292.8L388.5 294.8L377.2 299.8L365.9 307.9L354.6 315.3L343.3 319.4L332 323.7L320.8 332.3L309.5 334.2L298.2 331.9L286.9 329.5L275.6 327.2L264.4 334.1L253.1 339.1L241.8 345.2L230.5 355.2L219.2 355.1L207.9 354.5L196.7 364.3L185.4 372.7L174.1 379L162.8 388.1L151.5 397.6L140.3 405.5L129 410.2L117.7 416.5" fill="#7ec7ce" fill-opacity="0.7"></path><path class="World_6-area" stroke-linecap="round" d="M117.7 413.7L129 407.2L140.3 402.4L151.5 394.4L162.8 384.7L174.1 375.3L185.4 368.9L196.7 360.2L207.9 350.1L219.2 350.2L230.5 349.9L241.8 339.8L253.1 333.3L264.4 327.7L275.6 320.5L286.9 322.5L298.2 324.4L309.5 326.3L320.8 323.9L332 314.5L343.3 309.4L354.6 304.8L365.9 296.9L377.2 288.2L388.5 283L399.7 280.7L411 279.5L422.3 277.6L433.6 276.9L444.9 273.5L456.2 268.9L467.4 261.1L478.7 258.1L490 256.3L501.3 251.4L512.6 244.4L523.8 240.7L535.1 234.2L546.4 221.9L557.7 207L569 195.3L580.3 185.4L591.5 173.6L602.8 169.7L614.1 176.3L625.4 159.2L636.7 150.4L648 145.5L659.2 139.8L670.5 137.5L681.8 135.5L693.1 132.2L693.1 139.8L681.8 143L670.5 144.9L659.2 147L648 152.7L636.7 158.1L625.4 167.2L614.1 184.2L602.8 177.6L591.5 181.6L580.3 193.5L569 203.4L557.7 215L546.4 229.5L535.1 242L523.8 248.4L512.6 251.9L501.3 258.8L490 263.4L478.7 265L467.4 268.1L456.2 275.7L444.9 280L433.6 283.3L422.3 283.7L411 285.5L399.7 286.6L388.5 288.7L377.2 293.7L365.9 301.9L354.6 309.4L343.3 313.7L332 318.1L320.8 326.8L309.5 329L298.2 326.9L286.9 324.5L275.6 322.3L264.4 329.5L253.1 334.9L241.8 341L230.5 351L219.2 350.9L207.9 350.7L196.7 360.6L185.4 369.2L174.1 375.5L162.8 384.8L151.5 394.5L140.3 402.5L129 407.3L117.7 413.8" fill="#a652ba" fill-opacity="0.7"></path><path class="World_5-area" stroke-linecap="round" d="M117.7 413.7L129 407.2L140.3 402.4L151.5 394.4L162.8 384.7L174.1 375.3L185.4 368.9L196.7 360.2L207.9 350.1L219.2 350.2L230.5 349.9L241.8 339.8L253.1 333.3L264.4 327.7L275.6 320.5L286.9 322.5L298.2 324.4L309.5 326.3L320.8 323.9L332 314.5L343.3 309.4L354.6 304.8L365.9 296.9L377.2 288.2L388.5 283L399.7 280.7L411 279.4L422.3 277.5L433.6 276.9L444.9 273.5L456.2 268.9L467.4 261L478.7 258L490 256.3L501.3 251.4L512.6 244.3L523.8 240.6L535.1 234L546.4 221.7L557.7 206.8L569 195L580.3 185L591.5 173.1L602.8 169L614.1 175.5L625.4 158.2L636.7 149.1L648 144L659.2 137.9L670.5 135.4L681.8 133.1L693.1 129.5L693.1 132.2L681.8 135.5L670.5 137.5L659.2 139.8L648 145.5L636.7 150.4L625.4 159.2L614.1 176.3L602.8 169.7L591.5 173.6L580.3 185.4L569 195.3L557.7 207L546.4 221.9L535.1 234.2L523.8 240.7L512.6 244.4L501.3 251.4L490 256.3L478.7 258.1L467.4 261.1L456.2 268.9L444.9 273.5L433.6 276.9L422.3 277.6L411 279.5L399.7 280.7L388.5 283L377.2 288.2L365.9 296.9L354.6 304.8L343.3 309.4L332 314.5L320.8 323.9L309.5 326.3L298.2 324.4L286.9 322.5L275.6 320.5L264.4 327.7L253.1 333.3L241.8 339.8L230.5 349.9L219.2 350.2L207.9 350.1L196.7 360.2L185.4 368.9L174.1 375.3L162.8 384.7L151.5 394.4L140.3 402.4L129 407.2L117.7 413.7" fill="#ed6c2d" fill-opacity="0.7"></path><path class="World_3-area" stroke-linecap="round" d="M117.7 413.7L129 407.2L140.3 402.4L151.5 394.4L162.8 384.7L174.1 375.3L185.4 368.9L196.7 360.2L207.9 350.1L219.2 350.2L230.5 349.9L241.8 339.8L253.1 333.3L264.4 327.7L275.6 320.5L286.9 322.5L298.2 324.4L309.5 326.3L320.8 323.9L332 314.5L343.3 309.4L354.6 304.8L365.9 296.9L377.2 288.2L388.5 283L399.7 280.7L411 279.4L422.3 277.5L433.6 276.9L444.9 273.5L456.2 268.9L467.4 261L478.7 258L490 256.3L501.3 251.4L512.6 244.3L523.8 240.6L535.1 234L546.4 221.7L557.7 206.8L569 195L580.3 185L591.5 173.1L602.8 169L614.1 175.5L625.4 158.1L636.7 148.9L648 143.7L659.2 137.5L670.5 134.9L681.8 132.3L693.1 128.5L693.1 129.5L681.8 133.1L670.5 135.4L659.2 137.9L648 144L636.7 149.1L625.4 158.2L614.1 175.5L602.8 169L591.5 173.1L580.3 185L569 195L557.7 206.8L546.4 221.7L535.1 234L523.8 240.6L512.6 244.3L501.3 251.4L490 256.3L478.7 258L467.4 261L456.2 268.9L444.9 273.5L433.6 276.9L422.3 277.5L411 279.4L399.7 280.7L388.5 283L377.2 288.2L365.9 296.9L354.6 304.8L343.3 309.4L332 314.5L320.8 323.9L309.5 326.3L298.2 324.4L286.9 322.5L275.6 320.5L264.4 327.7L253.1 333.3L241.8 339.8L230.5 349.9L219.2 350.2L207.9 350.1L196.7 360.2L185.4 368.9L174.1 375.3L162.8 384.7L151.5 394.4L140.3 402.4L129 407.2L117.7 413.7" fill="#ffd53e" fill-opacity="0.7"></path><path class="World_4-area" stroke-linecap="round" d="M117.7 413.7L129 407.2L140.3 402.4L151.5 394.3L162.8 384.6L174.1 375.3L185.4 368.8L196.7 360.1L207.9 350.1L219.2 350.1L230.5 349.9L241.8 339.7L253.1 333.2L264.4 327.6L275.6 320.4L286.9 322.4L298.2 324.3L309.5 326.2L320.8 323.7L332 314.3L343.3 309.2L354.6 304.6L365.9 296.7L377.2 288L388.5 282.7L399.7 280.4L411 279.1L422.3 277.1L433.6 276.5L444.9 273.1L456.2 268.5L467.4 260.6L478.7 257.5L490 255.7L501.3 250.8L512.6 243.7L523.8 239.9L535.1 233.3L546.4 220.8L557.7 205.8L569 194L580.3 183.8L591.5 171.7L602.8 167.4L614.1 173.6L625.4 155.9L636.7 146.3L648 140.6L659.2 133.9L670.5 130.8L681.8 127.6L693.1 123.1L693.1 128.5L681.8 132.3L670.5 134.9L659.2 137.5L648 143.7L636.7 148.9L625.4 158.1L614.1 175.5L602.8 169L591.5 173.1L580.3 185L569 195L557.7 206.8L546.4 221.7L535.1 234L523.8 240.6L512.6 244.3L501.3 251.4L490 256.3L478.7 258L467.4 261L456.2 268.9L444.9 273.5L433.6 276.9L422.3 277.5L411 279.4L399.7 280.7L388.5 283L377.2 288.2L365.9 296.9L354.6 304.8L343.3 309.4L332 314.5L320.8 323.9L309.5 326.3L298.2 324.4L286.9 322.5L275.6 320.5L264.4 327.7L253.1 333.3L241.8 339.8L230.5 349.9L219.2 350.2L207.9 350.1L196.7 360.2L185.4 368.9L174.1 375.3L162.8 384.7L151.5 394.4L140.3 402.4L129 407.2L117.7 413.7" fill="#34983f" fill-opacity="0.7"></path><path class="World_2-border" stroke-linecap="round" d="M117.7 487.9L129 487.3L140.3 488.1L151.5 487.4L162.8 485.9L174.1 485.2L185.4 485.5L196.7 484.9L207.9 483.4L219.2 483.4L230.5 482.4L241.8 480.4L253.1 478.8L264.4 478.2L275.6 475.5L286.9 474L298.2 473.2L309.5 472.5L320.8 470.6L332 467.7L343.3 465.1L354.6 464.3L365.9 461.5L377.2 459.3L388.5 458.5L399.7 459.4L411 460.2L422.3 460.5L433.6 460.1L444.9 459.7L456.2 459.3L467.4 457.3L478.7 457.2L490 457.8L501.3 457.4L512.6 454.7L523.8 453.4L535.1 450.3L546.4 442.9L557.7 436.5L569 429.4L580.3 424L591.5 417.7L602.8 416L614.1 417.8L625.4 412.4L636.7 406.6L648 406.3L659.2 403.9L670.5 403.8L681.8 407.4L693.1 409.2" stroke="rgb(108, 109, 109)" stroke-opacity="0.7" stroke-width="0.5" fill="none"></path><path class="World_0-border" stroke-linecap="round" d="M117.7 436.3L129 431.8L140.3 428.6L151.5 422.8L162.8 415.7L174.1 409L185.4 404.9L196.7 398.1L207.9 389.8L219.2 391.1L230.5 391.2L241.8 383.2L253.1 378.3L264.4 374.9L275.6 370.5L286.9 373.1L298.2 376L309.5 378.4L320.8 377.1L332 372.2L343.3 369.5L354.6 365.8L365.9 361L377.2 355.4L388.5 352.9L399.7 352.6L411 353.3L422.3 351.8L433.6 352.3L444.9 349.6L456.2 347.8L467.4 343.4L478.7 340.5L490 340.1L501.3 337.3L512.6 333.4L523.8 330.9L535.1 326.7L546.4 316.4L557.7 305.2L569 296.3L580.3 289.3L591.5 281.1L602.8 280L614.1 284.1L625.4 274.3L636.7 267.2L648 265.1L659.2 261.3L670.5 260L681.8 260.7L693.1 259.8" stroke="rgb(169, 32, 33)" stroke-opacity="0.7" stroke-width="0.5" fill="none"></path><path class="World_1-border" stroke-linecap="round" d="M117.7 416.5L129 410.2L140.3 405.5L151.5 397.6L162.8 388.1L174.1 379L185.4 372.7L196.7 364.3L207.9 354.5L219.2 355.1L230.5 355.2L241.8 345.2L253.1 339.1L264.4 334.1L275.6 327.2L286.9 329.5L298.2 331.9L309.5 334.2L320.8 332.3L332 323.7L343.3 319.4L354.6 315.3L365.9 307.9L377.2 299.8L388.5 294.8L399.7 292.8L411 292L422.3 290.1L433.6 290.1L444.9 286.9L456.2 282.9L467.4 275.4L478.7 272.5L490 270.9L501.3 266.4L512.6 259.6L523.8 255.9L535.1 249.7L546.4 237.2L557.7 223.2L569 211.9L580.3 202.4L591.5 190.6L602.8 187.1L614.1 193.7L625.4 177.2L636.7 168.3L648 163.4L659.2 158L670.5 156.2L681.8 154.3L693.1 151.5" stroke="rgb(43, 80, 141)" stroke-opacity="0.7" stroke-width="0.5" fill="none"></path><path class="World_7-border" stroke-linecap="round" d="M117.7 413.8L129 407.3L140.3 402.5L151.5 394.5L162.8 384.8L174.1 375.5L185.4 369.2L196.7 360.6L207.9 350.7L219.2 350.9L230.5 351L241.8 341L253.1 334.9L264.4 329.5L275.6 322.3L286.9 324.5L298.2 326.9L309.5 329L320.8 326.8L332 318.1L343.3 313.7L354.6 309.4L365.9 301.9L377.2 293.7L388.5 288.7L399.7 286.6L411 285.5L422.3 283.7L433.6 283.3L444.9 280L456.2 275.7L467.4 268.1L478.7 265L490 263.4L501.3 258.8L512.6 251.9L523.8 248.4L535.1 242L546.4 229.5L557.7 215L569 203.4L580.3 193.5L591.5 181.6L602.8 177.6L614.1 184.2L625.4 167.2L636.7 158.1L648 152.7L659.2 147L670.5 144.9L681.8 143L693.1 139.8" stroke="rgb(105, 166, 172)" stroke-opacity="0.7" stroke-width="0.5" fill="none"></path><path class="World_6-border" stroke-linecap="round" d="M117.7 413.7L129 407.2L140.3 402.4L151.5 394.4L162.8 384.7L174.1 375.3L185.4 368.9L196.7 360.2L207.9 350.1L219.2 350.2L230.5 349.9L241.8 339.8L253.1 333.3L264.4 327.7L275.6 320.5L286.9 322.5L298.2 324.4L309.5 326.3L320.8 323.9L332 314.5L343.3 309.4L354.6 304.8L365.9 296.9L377.2 288.2L388.5 283L399.7 280.7L411 279.5L422.3 277.6L433.6 276.9L444.9 273.5L456.2 268.9L467.4 261.1L478.7 258.1L490 256.3L501.3 251.4L512.6 244.4L523.8 240.7L535.1 234.2L546.4 221.9L557.7 207L569 195.3L580.3 185.4L591.5 173.6L602.8 169.7L614.1 176.3L625.4 159.2L636.7 150.4L648 145.5L659.2 139.8L670.5 137.5L681.8 135.5L693.1 132.2" stroke="rgb(139, 69, 156)" stroke-opacity="0.7" stroke-width="0.5" fill="none"></path><path class="World_5-border" stroke-linecap="round" d="M117.7 413.7L129 407.2L140.3 402.4L151.5 394.4L162.8 384.7L174.1 375.3L185.4 368.9L196.7 360.2L207.9 350.1L219.2 350.2L230.5 349.9L241.8 339.8L253.1 333.3L264.4 327.7L275.6 320.5L286.9 322.5L298.2 324.4L309.5 326.3L320.8 323.9L332 314.5L343.3 309.4L354.6 304.8L365.9 296.9L377.2 288.2L388.5 283L399.7 280.7L411 279.4L422.3 277.5L433.6 276.9L444.9 273.5L456.2 268.9L467.4 261L478.7 258L490 256.3L501.3 251.4L512.6 244.3L523.8 240.6L535.1 234L546.4 221.7L557.7 206.8L569 195L580.3 185L591.5 173.1L602.8 169L614.1 175.5L625.4 158.2L636.7 149.1L648 144L659.2 137.9L670.5 135.4L681.8 133.1L693.1 129.5" stroke="rgb(198, 90, 38)" stroke-opacity="0.7" stroke-width="0.5" fill="none"></path><path class="World_3-border" stroke-linecap="round" d="M117.7 413.7L129 407.2L140.3 402.4L151.5 394.4L162.8 384.7L174.1 375.3L185.4 368.9L196.7 360.2L207.9 350.1L219.2 350.2L230.5 349.9L241.8 339.8L253.1 333.3L264.4 327.7L275.6 320.5L286.9 322.5L298.2 324.4L309.5 326.3L320.8 323.9L332 314.5L343.3 309.4L354.6 304.8L365.9 296.9L377.2 288.2L388.5 283L399.7 280.7L411 279.4L422.3 277.5L433.6 276.9L444.9 273.5L456.2 268.9L467.4 261L478.7 258L490 256.3L501.3 251.4L512.6 244.3L523.8 240.6L535.1 234L546.4 221.7L557.7 206.8L569 195L580.3 185L591.5 173.1L602.8 169L614.1 175.5L625.4 158.1L636.7 148.9L648 143.7L659.2 137.5L670.5 134.9L681.8 132.3L693.1 128.5" stroke="rgb(213, 178, 52)" stroke-opacity="0.7" stroke-width="0.5" fill="none"></path><path class="World_4-border" stroke-linecap="round" d="M117.7 413.7L129 407.2L140.3 402.4L151.5 394.3L162.8 384.6L174.1 375.3L185.4 368.8L196.7 360.1L207.9 350.1L219.2 350.1L230.5 349.9L241.8 339.7L253.1 333.2L264.4 327.6L275.6 320.4L286.9 322.4L298.2 324.3L309.5 326.2L320.8 323.7L332 314.3L343.3 309.2L354.6 304.6L365.9 296.7L377.2 288L388.5 282.7L399.7 280.4L411 279.1L422.3 277.1L433.6 276.5L444.9 273.1L456.2 268.5L467.4 260.6L478.7 257.5L490 255.7L501.3 250.8L512.6 243.7L523.8 239.9L535.1 233.3L546.4 220.8L557.7 205.8L569 194L580.3 183.8L591.5 171.7L602.8 167.4L614.1 173.6L625.4 155.9L636.7 146.3L648 140.6L659.2 133.9L670.5 130.8L681.8 127.6L693.1 123.1" stroke="rgb(44, 127, 53)" stroke-opacity="0.7" stroke-width="0.5" fill="none"></path></g></g></g><g class="SourcesFooter" style="fill:#777"><g class="clickable" style="fill:#777"><text font-size="12.60" x="15.0" y="581.6"><tspan x="15" y="581.58">Source: BP Statistical Review 2016</tspan></text></g><text font-size="12.60" x="367.9" y="581.6"><tspan x="367.918" y="581.58"><a target='_blank' style='fill: #777;' href='https://ourworldindata.org/energy-production-and-changing-energy-sources/'>OurWorldInData.org/energy-production-and-changing-energy-sources/</a> • <a style="fill: #777;" class="cclogo" href="http://creativecommons.org/licenses/by-sa/4.0/deed.en_US" target="_blank">CC BY-SA</a></tspan></text></g></g></svg>