<svg xmlns="http://www.w3.org/2000/svg" version="1.1" style="font-family:&#x27;Helvetica Neue&#x27;, Helvetica, Arial, sans-serif;font-size:18px;background-color:white;text-rendering:optimizeLegibility;-webkit-font-smoothing:antialiased" width="850" height="600"><g class="ChartTab"><g class="HeaderView"><g opacity="0.8" transform="translate(778, 15) scale(0.27)"><a xmlns:xlink="http://www.w3.org/1999/xlink" xlink:href="https://ourworldindata.org" target="_blank"><g><rect x="0" y="0" fill="#1B2543" width="211.2" height="130.1"/><rect x="0" y="112.2" fill="#E63912" width="211.2" height="17.9"/><g><rect x="1.2" y="12.3" fill="none" width="210.2" height="99.2"/><path fill="#FFFFFF" d="M37.8,32.2c0,12.7-7.7,19.4-17.1,19.4c-9.7,0-16.6-7.5-16.6-18.7c0-11.7,7.3-19.3,17.1-19.3 C31.3,13.7,37.8,21.3,37.8,32.2z M9.2,32.8c0,7.9,4.3,14.9,11.8,14.9c7.5,0,11.8-6.9,11.8-15.3c0-7.3-3.8-14.9-11.8-14.9 C13.1,17.5,9.2,24.8,9.2,32.8z"/><path fill="#FFFFFF" d="M62.7,43.8c0,2.7,0.1,5.1,0.2,7.2h-4.3l-0.3-4.3h-0.1c-1.3,2.1-4,4.9-8.8,4.9c-4.2,0-9.1-2.3-9.1-11.6 V24.6h4.8v14.6c0,5,1.5,8.4,5.9,8.4c3.2,0,5.5-2.2,6.3-4.4c0.3-0.7,0.4-1.6,0.4-2.5V24.6h4.8V43.8z"/><path fill="#FFFFFF" d="M67.3,32.8c0-3.1-0.1-5.8-0.2-8.2h4.2l0.2,5.2h0.2c1.2-3.5,4.1-5.8,7.3-5.8c0.5,0,0.9,0.1,1.4,0.2v4.5 c-0.5-0.1-1-0.2-1.6-0.2c-3.4,0-5.8,2.6-6.5,6.2c-0.1,0.7-0.2,1.4-0.2,2.2V51h-4.8V32.8z"/><path fill="#FFFFFF" d="M95.4,51l-9.4-36.8h5l4.4,18.6c1.1,4.6,2.1,9.2,2.7,12.7h0.1c0.6-3.7,1.8-8,3-12.8l4.9-18.5h5l4.5,18.7 c1,4.4,2,8.7,2.6,12.6h0.1c0.8-4,1.8-8.1,3-12.7l4.9-18.5h4.9L120.6,51h-5L111,31.9c-1.1-4.7-1.9-8.3-2.4-12h-0.1 c-0.7,3.7-1.5,7.3-2.8,12L100.4,51H95.4z"/><path fill="#FFFFFF" d="M154.9,37.6c0,9.8-6.8,14-13.2,14c-7.2,0-12.7-5.2-12.7-13.6c0-8.8,5.8-14,13.1-14 C149.8,24,154.9,29.5,154.9,37.6z M133.9,37.9c0,5.8,3.3,10.1,8,10.1c4.6,0,8-4.3,8-10.3c0-4.5-2.2-10.1-7.9-10.1 C136.3,27.6,133.9,32.8,133.9,37.9z"/><path fill="#FFFFFF" d="M158.2,32.8c0-3.1-0.1-5.8-0.2-8.2h4.2l0.2,5.2h0.2c1.2-3.5,4.1-5.8,7.3-5.8c0.5,0,0.9,0.1,1.4,0.2v4.5 c-0.5-0.1-1-0.2-1.6-0.2c-3.4,0-5.8,2.6-6.5,6.2c-0.1,0.7-0.2,1.4-0.2,2.2V51h-4.8V32.8z"/><path fill="#FFFFFF" d="M173.5,12.3h4.8V51h-4.8V12.3z"/><path fill="#FFFFFF" d="M206.5,12.3v31.9c0,2.3,0.1,5,0.2,6.8h-4.3l-0.2-4.6H202c-1.5,2.9-4.7,5.2-9,5.2 c-6.4,0-11.3-5.4-11.3-13.4c-0.1-8.8,5.4-14.2,11.9-14.2c4,0,6.8,1.9,8,4h0.1V12.3H206.5z M201.7,35.4c0-0.6-0.1-1.4-0.2-2 c-0.7-3.1-3.3-5.6-6.9-5.6c-5,0-7.9,4.4-7.9,10.2c0,5.3,2.6,9.8,7.8,9.8c3.2,0,6.2-2.1,7.1-5.7c0.2-0.7,0.2-1.3,0.2-2.1V35.4z"/><path fill="#FFFFFF" d="M42.8,64c0.1,1.6-1.1,2.9-3.1,2.9c-1.7,0-2.9-1.3-2.9-2.9c0-1.7,1.3-3,3-3C41.7,61,42.8,62.3,42.8,64z M37.4,97.8V71.4h4.8v26.4H37.4z"/><path fill="#FFFFFF" d="M47.5,78.6c0-2.7-0.1-5-0.2-7.1h4.3l0.3,4.4h0.1c1.3-2.5,4.4-5,8.8-5c3.7,0,9.4,2.2,9.4,11.2v15.8h-4.8 V82.6c0-4.3-1.6-7.8-6.1-7.8c-3.2,0-5.6,2.2-6.5,4.9c-0.2,0.6-0.3,1.4-0.3,2.2v15.9h-4.8V78.6z"/><path fill="#FFFFFF" d="M84,61.6c2.9-0.4,6.3-0.8,10.1-0.8c6.8,0,11.7,1.6,14.9,4.6c3.3,3,5.2,7.3,5.2,13.2c0,6-1.9,10.9-5.3,14.3 c-3.4,3.4-9.1,5.3-16.3,5.3c-3.4,0-6.2-0.2-8.6-0.4V61.6z M88.8,94.1c1.2,0.2,3,0.3,4.8,0.3c10.2,0,15.7-5.7,15.7-15.6 c0.1-8.7-4.9-14.2-14.9-14.2c-2.5,0-4.3,0.2-5.6,0.5V94.1z"/><path fill="#FFFFFF" d="M132.1,97.8l-0.4-3.3h-0.2c-1.5,2.1-4.3,3.9-8.1,3.9c-5.4,0-8.1-3.8-8.1-7.6c0-6.4,5.7-9.9,15.9-9.8v-0.5 c0-2.2-0.6-6.1-6-6.1c-2.5,0-5,0.8-6.9,2l-1.1-3.2c2.2-1.4,5.4-2.3,8.7-2.3c8.1,0,10.1,5.5,10.1,10.8v9.9c0,2.3,0.1,4.5,0.4,6.3 H132.1z M131.4,84.4c-5.3-0.1-11.2,0.8-11.2,5.9c0,3.1,2.1,4.6,4.5,4.6c3.4,0,5.6-2.2,6.4-4.4c0.2-0.5,0.3-1,0.3-1.5V84.4z"/><path fill="#FFFFFF" d="M146.6,63.9v7.6h6.9v3.7h-6.9v14.2c0,3.3,0.9,5.1,3.6,5.1c1.3,0,2.2-0.2,2.8-0.3l0.2,3.6 c-0.9,0.4-2.4,0.7-4.3,0.7c-2.2,0-4-0.7-5.2-2c-1.4-1.4-1.9-3.8-1.9-6.9V75.1h-4.1v-3.7h4.1v-6.3L146.6,63.9z"/><path fill="#FFFFFF" d="M171.4,97.8l-0.4-3.3h-0.2c-1.5,2.1-4.3,3.9-8.1,3.9c-5.4,0-8.1-3.8-8.1-7.6c0-6.4,5.7-9.9,15.9-9.8v-0.5 c0-2.2-0.6-6.1-6-6.1c-2.5,0-5,0.8-6.9,2l-1.1-3.2c2.2-1.4,5.4-2.3,8.7-2.3c8.1,0,10.1,5.5,10.1,10.8v9.9c0,2.3,0.1,4.5,0.4,6.3 H171.4z M170.7,84.4c-5.3-0.1-11.2,0.8-11.2,5.9c0,3.1,2.1,4.6,4.5,4.6c3.4,0,5.6-2.2,6.4-4.4c0.2-0.5,0.3-1,0.3-1.5V84.4z"/></g></g></a></g><a href="https://ourworldindata.org/grapher/Projections-of-the-world-population-until-2100-by-the-Wittgenstein-Centre" target="_blank"><text font-size="22.50" x="15.0" y="33.0" fill="#555"><tspan x="15" y="33">Projections of the world population until 2100 by the Wittgenstein Centre</tspan></text></a><text font-size="14.40" x="15.0" y="51.0" fill="#666"><tspan x="15" y="51.019999999999996">Shown is the SSP2 scenario which is the &#x27;most likely scenario&#x27; of the various scenarios WC-IIASA produced. It is</tspan><tspan x="15" y="66.86">based on the medium fertility and medium mortality projections combined with the continuation of educational trends</tspan><tspan x="15" y="82.7">(GET scenario).</tspan></text></g><g class="LineChart"><defs><clipPath id="boundsClip-673"><rect x="65.08" y="0" width="830" height="874"></rect></clipPath></defs><g class="AxisBoxView"><g class="HorizontalAxis"><text x="75.1" y="541.9" fill="#666" text-anchor="middle" font-size="16.2">1970</text><text x="196.6" y="541.9" fill="#666" text-anchor="middle" font-size="16.2">2000</text><text x="277.7" y="541.9" fill="#666" text-anchor="middle" font-size="16.2">2020</text><text x="358.7" y="541.9" fill="#666" text-anchor="middle" font-size="16.2">2040</text><text x="439.7" y="541.9" fill="#666" text-anchor="middle" font-size="16.2">2060</text><text x="520.8" y="541.9" fill="#666" text-anchor="middle" font-size="16.2">2080</text><text x="601.8" y="541.9" fill="#666" text-anchor="middle" font-size="16.2">2100</text></g><g class="VerticalAxis"><text x="70.08" y="520.7" fill="#666" dominant-baseline="middle" text-anchor="end" font-size="16.2">0</text><text x="70.08" y="432.2" fill="#666" dominant-baseline="middle" text-anchor="end" font-size="16.2">2 billion</text><text x="70.08" y="343.7" fill="#666" dominant-baseline="middle" text-anchor="end" font-size="16.2">4 billion</text><text x="70.08" y="255.2" fill="#666" dominant-baseline="middle" text-anchor="end" font-size="16.2">6 billion</text><text x="70.08" y="166.7" fill="#666" dominant-baseline="middle" text-anchor="end" font-size="16.2">8 billion</text></g><g class="AxisGridLines"><line x1="75.08" y1="520.7" x2="601.82" y2="520.7" stroke="#ccc"></line><line x1="75.08" y1="432.2" x2="601.82" y2="432.2" stroke="#ddd" stroke-dasharray="3,2"></line><line x1="75.08" y1="343.7" x2="601.82" y2="343.7" stroke="#ddd" stroke-dasharray="3,2"></line><line x1="75.08" y1="255.2" x2="601.82" y2="255.2" stroke="#ddd" stroke-dasharray="3,2"></line><line x1="75.08" y1="166.7" x2="601.82" y2="166.7" stroke="#ddd" stroke-dasharray="3,2"></line></g></g><g clip-path="url(#boundsClip-673)"><g class="HeightedLegend clickable"><g class="legendMark"><g class="indicator"><line x1="606.8199999999999" y1="517.8" x2="619.3199999999999" y2="517.8" stroke="#666" stroke-width="0.5"></line><line x1="619.3199999999999" y1="517.8" x2="619.3199999999999" y2="513.95" stroke="#666" stroke-width="0.5"></line><line x1="619.3199999999999" y1="513.95" x2="631.8199999999999" y2="513.95" stroke="#666" stroke-width="0.5"></line></g><rect x="601.8199999999999" y="507.20000000000005" width="85.49000000000001" height="13.5" fill="#fff" opacity="0"></rect><text font-size="13.50" x="636.8" y="518.0" fill="#3360a9"><tspan x="636.8199999999999" y="518">Oceania</tspan></text></g><g class="legendMark"><g class="indicator"><line x1="606.8199999999999" y1="497.7" x2="625.9866666666666" y2="497.7" stroke="#666" stroke-width="0.5"></line><line x1="625.9866666666666" y1="497.7" x2="625.9866666666666" y2="497.7" stroke="#666" stroke-width="0.5"></line><line x1="625.9866666666666" y1="497.7" x2="631.8199999999999" y2="497.7" stroke="#666" stroke-width="0.5"></line></g><rect x="601.8199999999999" y="490.95" width="140.97500000000002" height="13.5" fill="#fff" opacity="0"></rect><text font-size="13.50" x="636.8" y="501.8" fill="#ca2628"><tspan x="636.8199999999999" y="501.75">Northern America</tspan></text></g><g class="legendMark"><g class="indicator"><line x1="606.8199999999999" y1="490.4" x2="619.3199999999999" y2="490.4" stroke="#666" stroke-width="0.5"></line><line x1="619.3199999999999" y1="490.4" x2="619.3199999999999" y2="482.2" stroke="#666" stroke-width="0.5"></line><line x1="619.3199999999999" y1="482.2" x2="631.8199999999999" y2="482.2" stroke="#666" stroke-width="0.5"></line></g><rect x="601.8199999999999" y="475.45" width="233.18" height="13.5" fill="#fff" opacity="0"></rect><text font-size="13.50" x="636.8" y="486.3" fill="#34983f"><tspan x="636.8199999999999" y="486.25">Latin America and the Caribbean</tspan></text></g><g class="legendMark"><g class="indicator"><line x1="606.8199999999999" y1="489.6" x2="612.6533333333333" y2="489.6" stroke="#666" stroke-width="0.5"></line><line x1="612.6533333333333" y1="489.6" x2="612.6533333333333" y2="466.7" stroke="#666" stroke-width="0.5"></line><line x1="612.6533333333333" y1="466.7" x2="631.8199999999999" y2="466.7" stroke="#666" stroke-width="0.5"></line></g><rect x="601.8199999999999" y="459.95" width="78.74000000000001" height="13.5" fill="#fff" opacity="0"></rect><text font-size="13.50" x="636.8" y="470.8" fill="#f6a324"><tspan x="636.8199999999999" y="470.75">Europe</tspan></text></g><g class="legendMark"><g class="indicator"><line x1="606.8199999999999" y1="404.8" x2="619.3199999999999" y2="404.8" stroke="#666" stroke-width="0.5"></line><line x1="619.3199999999999" y1="404.8" x2="619.3199999999999" y2="404.8" stroke="#666" stroke-width="0.5"></line><line x1="619.3199999999999" y1="404.8" x2="631.8199999999999" y2="404.8" stroke="#666" stroke-width="0.5"></line></g><rect x="601.8199999999999" y="398.05" width="69.56" height="13.5" fill="#fff" opacity="0"></rect><text font-size="13.50" x="636.8" y="408.9" fill="#a652ba"><tspan x="636.8199999999999" y="408.85">Africa</tspan></text></g><g class="legendMark"><g class="indicator"><line x1="606.8199999999999" y1="328" x2="619.3199999999999" y2="328" stroke="#666" stroke-width="0.5"></line><line x1="619.3199999999999" y1="328" x2="619.3199999999999" y2="328" stroke="#666" stroke-width="0.5"></line><line x1="619.3199999999999" y1="328" x2="631.8199999999999" y2="328" stroke="#666" stroke-width="0.5"></line></g><rect x="601.8199999999999" y="321.25" width="61.325" height="13.5" fill="#fff" opacity="0"></rect><text font-size="13.50" x="636.8" y="332.1" fill="#2a939b"><tspan x="636.8199999999999" y="332.05">Asia</tspan></text></g><g class="legendMark"><g class="indicator"><line x1="606.8199999999999" y1="124.8" x2="619.3199999999999" y2="124.8" stroke="#666" stroke-width="0.5"></line><line x1="619.3199999999999" y1="124.8" x2="619.3199999999999" y2="124.8" stroke="#666" stroke-width="0.5"></line><line x1="619.3199999999999" y1="124.8" x2="631.8199999999999" y2="124.8" stroke="#666" stroke-width="0.5"></line></g><rect x="601.8199999999999" y="118.05" width="70.235" height="13.5" fill="#fff" opacity="0"></rect><text font-size="13.50" x="636.8" y="128.9" fill="#e6332e"><tspan x="636.8199999999999" y="128.85000000000002">World</tspan></text></g></g><g class="Lines"><rect x="75" y="105" width="527" height="416" fill="rgba(255,255,255,0)" opacity="0"></rect><g class="key-Africa_0"><path stroke="#a652ba" stroke-linecap="round" d="M75 504L95 502L116 499L136 496L156 493L176 489L197 485L217 480L237 476L257 470L278 465L298 459L318 453L338 448L359 442L379 437L399 431L420 427L440 423L460 419L480 416L501 413L521 410L541 408L561 407L582 406L602 405" fill="none" stroke-width="1.5"></path><g fill="#a652ba"><circle cx="75" cy="504" r="2"></circle><circle cx="95" cy="502" r="2"></circle><circle cx="116" cy="499" r="2"></circle><circle cx="136" cy="496" r="2"></circle><circle cx="156" cy="493" r="2"></circle><circle cx="176" cy="489" r="2"></circle><circle cx="197" cy="485" r="2"></circle><circle cx="217" cy="480" r="2"></circle><circle cx="237" cy="476" r="2"></circle><circle cx="257" cy="470" r="2"></circle><circle cx="278" cy="465" r="2"></circle><circle cx="298" cy="459" r="2"></circle><circle cx="318" cy="453" r="2"></circle><circle cx="338" cy="448" r="2"></circle><circle cx="359" cy="442" r="2"></circle><circle cx="379" cy="437" r="2"></circle><circle cx="399" cy="431" r="2"></circle><circle cx="420" cy="427" r="2"></circle><circle cx="440" cy="423" r="2"></circle><circle cx="460" cy="419" r="2"></circle><circle cx="480" cy="416" r="2"></circle><circle cx="501" cy="413" r="2"></circle><circle cx="521" cy="410" r="2"></circle><circle cx="541" cy="408" r="2"></circle><circle cx="561" cy="407" r="2"></circle><circle cx="582" cy="406" r="2"></circle><circle cx="602" cy="405" r="2"></circle></g></g><g class="key-Asia_0"><path stroke="#2a939b" stroke-linecap="round" d="M75 427L95 416L116 405L136 394L156 380L176 368L197 357L217 347L237 338L257 328L278 320L298 313L318 307L338 302L359 299L379 296L399 295L420 295L440 296L460 298L480 301L501 304L521 308L541 313L561 318L582 323L602 328" fill="none" stroke-width="1.5"></path><g fill="#2a939b"><circle cx="75" cy="427" r="2"></circle><circle cx="95" cy="416" r="2"></circle><circle cx="116" cy="405" r="2"></circle><circle cx="136" cy="394" r="2"></circle><circle cx="156" cy="380" r="2"></circle><circle cx="176" cy="368" r="2"></circle><circle cx="197" cy="357" r="2"></circle><circle cx="217" cy="347" r="2"></circle><circle cx="237" cy="338" r="2"></circle><circle cx="257" cy="328" r="2"></circle><circle cx="278" cy="320" r="2"></circle><circle cx="298" cy="313" r="2"></circle><circle cx="318" cy="307" r="2"></circle><circle cx="338" cy="302" r="2"></circle><circle cx="359" cy="299" r="2"></circle><circle cx="379" cy="296" r="2"></circle><circle cx="399" cy="295" r="2"></circle><circle cx="420" cy="295" r="2"></circle><circle cx="440" cy="296" r="2"></circle><circle cx="460" cy="298" r="2"></circle><circle cx="480" cy="301" r="2"></circle><circle cx="501" cy="304" r="2"></circle><circle cx="521" cy="308" r="2"></circle><circle cx="541" cy="313" r="2"></circle><circle cx="561" cy="318" r="2"></circle><circle cx="582" cy="323" r="2"></circle><circle cx="602" cy="328" r="2"></circle></g></g><g class="key-Europe_0"><path stroke="#f6a324" stroke-linecap="round" d="M75 492L95 491L116 490L136 490L156 489L176 489L197 489L217 488L237 488L257 488L278 488L298 488L318 487L338 487L359 487L379 487L399 487L420 487L440 488L460 488L480 488L501 488L521 488L541 489L561 489L582 489L602 490" fill="none" stroke-width="1.5"></path><g fill="#f6a324"><circle cx="75" cy="492" r="2"></circle><circle cx="95" cy="491" r="2"></circle><circle cx="116" cy="490" r="2"></circle><circle cx="136" cy="490" r="2"></circle><circle cx="156" cy="489" r="2"></circle><circle cx="176" cy="489" r="2"></circle><circle cx="197" cy="489" r="2"></circle><circle cx="217" cy="488" r="2"></circle><circle cx="237" cy="488" r="2"></circle><circle cx="257" cy="488" r="2"></circle><circle cx="278" cy="488" r="2"></circle><circle cx="298" cy="488" r="2"></circle><circle cx="318" cy="487" r="2"></circle><circle cx="338" cy="487" r="2"></circle><circle cx="359" cy="487" r="2"></circle><circle cx="379" cy="487" r="2"></circle><circle cx="399" cy="487" r="2"></circle><circle cx="420" cy="487" r="2"></circle><circle cx="440" cy="488" r="2"></circle><circle cx="460" cy="488" r="2"></circle><circle cx="480" cy="488" r="2"></circle><circle cx="501" cy="488" r="2"></circle><circle cx="521" cy="488" r="2"></circle><circle cx="541" cy="489" r="2"></circle><circle cx="561" cy="489" r="2"></circle><circle cx="582" cy="489" r="2"></circle><circle cx="602" cy="490" r="2"></circle></g></g><g class="key-Latin-America-and-the-Caribbean_0"><path stroke="#34983f" stroke-linecap="round" d="M75 508L95 506L116 505L136 503L156 501L176 499L197 498L217 496L237 495L257 493L278 492L298 491L318 490L338 489L359 488L379 488L399 487L420 487L440 487L460 487L480 487L501 488L521 488L541 489L561 489L582 490L602 490" fill="none" stroke-width="1.5"></path><g fill="#34983f"><circle cx="75" cy="508" r="2"></circle><circle cx="95" cy="506" r="2"></circle><circle cx="116" cy="505" r="2"></circle><circle cx="136" cy="503" r="2"></circle><circle cx="156" cy="501" r="2"></circle><circle cx="176" cy="499" r="2"></circle><circle cx="197" cy="498" r="2"></circle><circle cx="217" cy="496" r="2"></circle><circle cx="237" cy="495" r="2"></circle><circle cx="257" cy="493" r="2"></circle><circle cx="278" cy="492" r="2"></circle><circle cx="298" cy="491" r="2"></circle><circle cx="318" cy="490" r="2"></circle><circle cx="338" cy="489" r="2"></circle><circle cx="359" cy="488" r="2"></circle><circle cx="379" cy="488" r="2"></circle><circle cx="399" cy="487" r="2"></circle><circle cx="420" cy="487" r="2"></circle><circle cx="440" cy="487" r="2"></circle><circle cx="460" cy="487" r="2"></circle><circle cx="480" cy="487" r="2"></circle><circle cx="501" cy="488" r="2"></circle><circle cx="521" cy="488" r="2"></circle><circle cx="541" cy="489" r="2"></circle><circle cx="561" cy="489" r="2"></circle><circle cx="582" cy="490" r="2"></circle><circle cx="602" cy="490" r="2"></circle></g></g><g class="key-Northern-America_0"><path stroke="#ca2628" stroke-linecap="round" d="M75 511L95 510L116 509L136 509L156 508L176 508L197 507L217 506L237 506L257 505L278 504L298 504L318 503L338 502L359 502L379 501L399 501L420 500L440 500L460 499L480 499L501 499L521 498L541 498L561 498L582 498L602 498" fill="none" stroke-width="1.5"></path><g fill="#ca2628"><circle cx="75" cy="511" r="2"></circle><circle cx="95" cy="510" r="2"></circle><circle cx="116" cy="509" r="2"></circle><circle cx="136" cy="509" r="2"></circle><circle cx="156" cy="508" r="2"></circle><circle cx="176" cy="508" r="2"></circle><circle cx="197" cy="507" r="2"></circle><circle cx="217" cy="506" r="2"></circle><circle cx="237" cy="506" r="2"></circle><circle cx="257" cy="505" r="2"></circle><circle cx="278" cy="504" r="2"></circle><circle cx="298" cy="504" r="2"></circle><circle cx="318" cy="503" r="2"></circle><circle cx="338" cy="502" r="2"></circle><circle cx="359" cy="502" r="2"></circle><circle cx="379" cy="501" r="2"></circle><circle cx="399" cy="501" r="2"></circle><circle cx="420" cy="500" r="2"></circle><circle cx="440" cy="500" r="2"></circle><circle cx="460" cy="499" r="2"></circle><circle cx="480" cy="499" r="2"></circle><circle cx="501" cy="499" r="2"></circle><circle cx="521" cy="498" r="2"></circle><circle cx="541" cy="498" r="2"></circle><circle cx="561" cy="498" r="2"></circle><circle cx="582" cy="498" r="2"></circle><circle cx="602" cy="498" r="2"></circle></g></g><g class="key-Oceania_0"><path stroke="#3360a9" stroke-linecap="round" d="M75 520L95 520L116 520L136 520L156 520L176 519L197 519L217 519L237 519L257 519L278 519L298 519L318 519L338 519L359 518L379 518L399 518L420 518L440 518L460 518L480 518L501 518L521 518L541 518L561 518L582 518L602 518" fill="none" stroke-width="1.5"></path><g fill="#3360a9"><circle cx="75" cy="520" r="2"></circle><circle cx="95" cy="520" r="2"></circle><circle cx="116" cy="520" r="2"></circle><circle cx="136" cy="520" r="2"></circle><circle cx="156" cy="520" r="2"></circle><circle cx="176" cy="519" r="2"></circle><circle cx="197" cy="519" r="2"></circle><circle cx="217" cy="519" r="2"></circle><circle cx="237" cy="519" r="2"></circle><circle cx="257" cy="519" r="2"></circle><circle cx="278" cy="519" r="2"></circle><circle cx="298" cy="519" r="2"></circle><circle cx="318" cy="519" r="2"></circle><circle cx="338" cy="519" r="2"></circle><circle cx="359" cy="518" r="2"></circle><circle cx="379" cy="518" r="2"></circle><circle cx="399" cy="518" r="2"></circle><circle cx="420" cy="518" r="2"></circle><circle cx="440" cy="518" r="2"></circle><circle cx="460" cy="518" r="2"></circle><circle cx="480" cy="518" r="2"></circle><circle cx="501" cy="518" r="2"></circle><circle cx="521" cy="518" r="2"></circle><circle cx="541" cy="518" r="2"></circle><circle cx="561" cy="518" r="2"></circle><circle cx="582" cy="518" r="2"></circle><circle cx="602" cy="518" r="2"></circle></g></g><g class="key-World_0"><path stroke="#e6332e" stroke-linecap="round" d="M75 358L95 341L116 325L136 309L156 287L176 268L197 251L217 234L237 217L257 200L278 184L298 169L318 155L338 143L359 133L379 124L399 116L420 111L440 107L460 106L480 105L501 106L521 108L541 111L561 115L582 120L602 125" fill="none" stroke-width="1.5"></path><g fill="#e6332e"><circle cx="75" cy="358" r="2"></circle><circle cx="95" cy="341" r="2"></circle><circle cx="116" cy="325" r="2"></circle><circle cx="136" cy="309" r="2"></circle><circle cx="156" cy="287" r="2"></circle><circle cx="176" cy="268" r="2"></circle><circle cx="197" cy="251" r="2"></circle><circle cx="217" cy="234" r="2"></circle><circle cx="237" cy="217" r="2"></circle><circle cx="257" cy="200" r="2"></circle><circle cx="278" cy="184" r="2"></circle><circle cx="298" cy="169" r="2"></circle><circle cx="318" cy="155" r="2"></circle><circle cx="338" cy="143" r="2"></circle><circle cx="359" cy="133" r="2"></circle><circle cx="379" cy="124" r="2"></circle><circle cx="399" cy="116" r="2"></circle><circle cx="420" cy="111" r="2"></circle><circle cx="440" cy="107" r="2"></circle><circle cx="460" cy="106" r="2"></circle><circle cx="480" cy="105" r="2"></circle><circle cx="501" cy="106" r="2"></circle><circle cx="521" cy="108" r="2"></circle><circle cx="541" cy="111" r="2"></circle><circle cx="561" cy="115" r="2"></circle><circle cx="582" cy="120" r="2"></circle><circle cx="602" cy="125" r="2"></circle></g></g></g></g></g><g class="SourcesFooter" style="fill:#777"><g class="clickable" style="fill:#777"><text font-size="12.60" x="15.0" y="567.0"><tspan x="15" y="566.98">Source: Medium SSP2 - Wittgenstein Centre for Demography and Global Human Capital</tspan></text></g><text font-size="12.60" x="15.0" y="582.5"><tspan x="15" y="582.48"><a target='_blank' style='fill: #777;' href='https://ourworldindata.org/world-population-future-eductation-now/'>OurWorldInData.org/world-population-future-eductation-now/</a> • <a style="fill: #777;" class="cclogo" href="http://creativecommons.org/licenses/by-sa/4.0/deed.en_US" target="_blank">CC BY-SA</a></tspan></text></g></g></svg>