<svg xmlns="http://www.w3.org/2000/svg" version="1.1" style="font-family:&#x27;Helvetica Neue&#x27;, Helvetica, Arial, sans-serif;font-size:18px;background-color:white;text-rendering:optimizeLegibility;-webkit-font-smoothing:antialiased" width="850" height="600"><g class="ChartTab"><g class="HeaderView"><g opacity="0.8" transform="translate(778, 15) scale(0.27)"><a xmlns:xlink="http://www.w3.org/1999/xlink" xlink:href="https://ourworldindata.org" target="_blank"><g><rect x="0" y="0" fill="#1B2543" width="211.2" height="130.1"/><rect x="0" y="112.2" fill="#E63912" width="211.2" height="17.9"/><g><rect x="1.2" y="12.3" fill="none" width="210.2" height="99.2"/><path fill="#FFFFFF" d="M37.8,32.2c0,12.7-7.7,19.4-17.1,19.4c-9.7,0-16.6-7.5-16.6-18.7c0-11.7,7.3-19.3,17.1-19.3 C31.3,13.7,37.8,21.3,37.8,32.2z M9.2,32.8c0,7.9,4.3,14.9,11.8,14.9c7.5,0,11.8-6.9,11.8-15.3c0-7.3-3.8-14.9-11.8-14.9 C13.1,17.5,9.2,24.8,9.2,32.8z"/><path fill="#FFFFFF" d="M62.7,43.8c0,2.7,0.1,5.1,0.2,7.2h-4.3l-0.3-4.3h-0.1c-1.3,2.1-4,4.9-8.8,4.9c-4.2,0-9.1-2.3-9.1-11.6 V24.6h4.8v14.6c0,5,1.5,8.4,5.9,8.4c3.2,0,5.5-2.2,6.3-4.4c0.3-0.7,0.4-1.6,0.4-2.5V24.6h4.8V43.8z"/><path fill="#FFFFFF" d="M67.3,32.8c0-3.1-0.1-5.8-0.2-8.2h4.2l0.2,5.2h0.2c1.2-3.5,4.1-5.8,7.3-5.8c0.5,0,0.9,0.1,1.4,0.2v4.5 c-0.5-0.1-1-0.2-1.6-0.2c-3.4,0-5.8,2.6-6.5,6.2c-0.1,0.7-0.2,1.4-0.2,2.2V51h-4.8V32.8z"/><path fill="#FFFFFF" d="M95.4,51l-9.4-36.8h5l4.4,18.6c1.1,4.6,2.1,9.2,2.7,12.7h0.1c0.6-3.7,1.8-8,3-12.8l4.9-18.5h5l4.5,18.7 c1,4.4,2,8.7,2.6,12.6h0.1c0.8-4,1.8-8.1,3-12.7l4.9-18.5h4.9L120.6,51h-5L111,31.9c-1.1-4.7-1.9-8.3-2.4-12h-0.1 c-0.7,3.7-1.5,7.3-2.8,12L100.4,51H95.4z"/><path fill="#FFFFFF" d="M154.9,37.6c0,9.8-6.8,14-13.2,14c-7.2,0-12.7-5.2-12.7-13.6c0-8.8,5.8-14,13.1-14 C149.8,24,154.9,29.5,154.9,37.6z M133.9,37.9c0,5.8,3.3,10.1,8,10.1c4.6,0,8-4.3,8-10.3c0-4.5-2.2-10.1-7.9-10.1 C136.3,27.6,133.9,32.8,133.9,37.9z"/><path fill="#FFFFFF" d="M158.2,32.8c0-3.1-0.1-5.8-0.2-8.2h4.2l0.2,5.2h0.2c1.2-3.5,4.1-5.8,7.3-5.8c0.5,0,0.9,0.1,1.4,0.2v4.5 c-0.5-0.1-1-0.2-1.6-0.2c-3.4,0-5.8,2.6-6.5,6.2c-0.1,0.7-0.2,1.4-0.2,2.2V51h-4.8V32.8z"/><path fill="#FFFFFF" d="M173.5,12.3h4.8V51h-4.8V12.3z"/><path fill="#FFFFFF" d="M206.5,12.3v31.9c0,2.3,0.1,5,0.2,6.8h-4.3l-0.2-4.6H202c-1.5,2.9-4.7,5.2-9,5.2 c-6.4,0-11.3-5.4-11.3-13.4c-0.1-8.8,5.4-14.2,11.9-14.2c4,0,6.8,1.9,8,4h0.1V12.3H206.5z M201.7,35.4c0-0.6-0.1-1.4-0.2-2 c-0.7-3.1-3.3-5.6-6.9-5.6c-5,0-7.9,4.4-7.9,10.2c0,5.3,2.6,9.8,7.8,9.8c3.2,0,6.2-2.1,7.1-5.7c0.2-0.7,0.2-1.3,0.2-2.1V35.4z"/><path fill="#FFFFFF" d="M42.8,64c0.1,1.6-1.1,2.9-3.1,2.9c-1.7,0-2.9-1.3-2.9-2.9c0-1.7,1.3-3,3-3C41.7,61,42.8,62.3,42.8,64z M37.4,97.8V71.4h4.8v26.4H37.4z"/><path fill="#FFFFFF" d="M47.5,78.6c0-2.7-0.1-5-0.2-7.1h4.3l0.3,4.4h0.1c1.3-2.5,4.4-5,8.8-5c3.7,0,9.4,2.2,9.4,11.2v15.8h-4.8 V82.6c0-4.3-1.6-7.8-6.1-7.8c-3.2,0-5.6,2.2-6.5,4.9c-0.2,0.6-0.3,1.4-0.3,2.2v15.9h-4.8V78.6z"/><path fill="#FFFFFF" d="M84,61.6c2.9-0.4,6.3-0.8,10.1-0.8c6.8,0,11.7,1.6,14.9,4.6c3.3,3,5.2,7.3,5.2,13.2c0,6-1.9,10.9-5.3,14.3 c-3.4,3.4-9.1,5.3-16.3,5.3c-3.4,0-6.2-0.2-8.6-0.4V61.6z M88.8,94.1c1.2,0.2,3,0.3,4.8,0.3c10.2,0,15.7-5.7,15.7-15.6 c0.1-8.7-4.9-14.2-14.9-14.2c-2.5,0-4.3,0.2-5.6,0.5V94.1z"/><path fill="#FFFFFF" d="M132.1,97.8l-0.4-3.3h-0.2c-1.5,2.1-4.3,3.9-8.1,3.9c-5.4,0-8.1-3.8-8.1-7.6c0-6.4,5.7-9.9,15.9-9.8v-0.5 c0-2.2-0.6-6.1-6-6.1c-2.5,0-5,0.8-6.9,2l-1.1-3.2c2.2-1.4,5.4-2.3,8.7-2.3c8.1,0,10.1,5.5,10.1,10.8v9.9c0,2.3,0.1,4.5,0.4,6.3 H132.1z M131.4,84.4c-5.3-0.1-11.2,0.8-11.2,5.9c0,3.1,2.1,4.6,4.5,4.6c3.4,0,5.6-2.2,6.4-4.4c0.2-0.5,0.3-1,0.3-1.5V84.4z"/><path fill="#FFFFFF" d="M146.6,63.9v7.6h6.9v3.7h-6.9v14.2c0,3.3,0.9,5.1,3.6,5.1c1.3,0,2.2-0.2,2.8-0.3l0.2,3.6 c-0.9,0.4-2.4,0.7-4.3,0.7c-2.2,0-4-0.7-5.2-2c-1.4-1.4-1.9-3.8-1.9-6.9V75.1h-4.1v-3.7h4.1v-6.3L146.6,63.9z"/><path fill="#FFFFFF" d="M171.4,97.8l-0.4-3.3h-0.2c-1.5,2.1-4.3,3.9-8.1,3.9c-5.4,0-8.1-3.8-8.1-7.6c0-6.4,5.7-9.9,15.9-9.8v-0.5 c0-2.2-0.6-6.1-6-6.1c-2.5,0-5,0.8-6.9,2l-1.1-3.2c2.2-1.4,5.4-2.3,8.7-2.3c8.1,0,10.1,5.5,10.1,10.8v9.9c0,2.3,0.1,4.5,0.4,6.3 H171.4z M170.7,84.4c-5.3-0.1-11.2,0.8-11.2,5.9c0,3.1,2.1,4.6,4.5,4.6c3.4,0,5.6-2.2,6.4-4.4c0.2-0.5,0.3-1,0.3-1.5V84.4z"/></g></g></a></g><a href="https://ourworldindata.org/grapher/projection-under5s-africa-vs-world" target="_blank"><text font-size="25.20" x="15.0" y="35.2" fill="#555"><tspan x="15" y="35.160000000000004">Projections of under-5 population, Africa vs. Rest of the World</tspan></text></a><text font-size="14.40" x="15.0" y="53.7" fill="#666"><tspan x="15" y="53.72">Projections of the total number of children under five years old based on the UN&#x27;s median fertility scenario. This is</tspan><tspan x="15" y="69.56">shown as the sum of Africa, and the rest of the world (excluding Africa).</tspan></text></g><g class="StackedArea"><defs><clipPath id="boundsClip-308"><rect x="97.598" y="0" width="820" height="928.8"></rect></clipPath></defs><g class="AxisBoxView"><g class="HorizontalAxis"><text x="97.6" y="556.5" fill="#666" text-anchor="middle" font-size="16.2">2015</text><text x="285.4" y="556.5" fill="#666" text-anchor="middle" font-size="16.2">2040</text><text x="435.7" y="556.5" fill="#666" text-anchor="middle" font-size="16.2">2060</text><text x="585.9" y="556.5" fill="#666" text-anchor="middle" font-size="16.2">2080</text><text x="736.1" y="556.5" fill="#666" text-anchor="middle" font-size="16.2">2100</text></g><g class="VerticalAxis"><text x="92.60" y="535.3" fill="#666" dominant-baseline="middle" text-anchor="end" font-size="16.2">0</text><text x="92.60" y="472.2" fill="#666" dominant-baseline="middle" text-anchor="end" font-size="16.2">100 million</text><text x="92.60" y="409" fill="#666" dominant-baseline="middle" text-anchor="end" font-size="16.2">200 million</text><text x="92.60" y="345.9" fill="#666" dominant-baseline="middle" text-anchor="end" font-size="16.2">300 million</text><text x="92.60" y="282.7" fill="#666" dominant-baseline="middle" text-anchor="end" font-size="16.2">400 million</text><text x="92.60" y="219.6" fill="#666" dominant-baseline="middle" text-anchor="end" font-size="16.2">500 million</text><text x="92.60" y="156.4" fill="#666" dominant-baseline="middle" text-anchor="end" font-size="16.2">600 million</text><text x="92.60" y="93.3" fill="#666" dominant-baseline="middle" text-anchor="end" font-size="16.2">700 million</text></g><g class="AxisGridLines"><line x1="97.60" y1="535.3" x2="736.14" y2="535.3" stroke="#ccc"></line><line x1="97.60" y1="472.2" x2="736.14" y2="472.2" stroke="#ddd" stroke-dasharray="3,2"></line><line x1="97.60" y1="409" x2="736.14" y2="409" stroke="#ddd" stroke-dasharray="3,2"></line><line x1="97.60" y1="345.9" x2="736.14" y2="345.9" stroke="#ddd" stroke-dasharray="3,2"></line><line x1="97.60" y1="282.7" x2="736.14" y2="282.7" stroke="#ddd" stroke-dasharray="3,2"></line><line x1="97.60" y1="219.6" x2="736.14" y2="219.6" stroke="#ddd" stroke-dasharray="3,2"></line><line x1="97.60" y1="156.4" x2="736.14" y2="156.4" stroke="#ddd" stroke-dasharray="3,2"></line><line x1="97.60" y1="93.3" x2="736.14" y2="93.3" stroke="#ddd" stroke-dasharray="3,2"></line></g></g><g clip-path="url(#boundsClip-308)"><g class="HeightedLegend clickable"><g class="legendMark"><rect x="736.145" y="222.15" width="98.855" height="13.5" fill="#fff" opacity="0"></rect><text font-size="13.50" x="741.1" y="233.0" fill="#ca2628"><tspan x="741.145" y="232.95000000000002">Non-Africa</tspan></text></g><g class="legendMark"><rect x="736.145" y="427.45" width="69.56" height="13.5" fill="#fff" opacity="0"></rect><text font-size="13.50" x="741.1" y="438.3" fill="#3360a9"><tspan x="741.145" y="438.25">Africa</tspan></text></g></g><g class="Areas"><rect x="97.598" y="92.1" width="638.547" height="443.19999999999993" opacity="0" fill="rgba(255,255,255,0)"></rect><path class="Africa_0-area" stroke-linecap="round" d="M97.6 417.2L105.1 414.8L112.6 412.9L120.1 411.4L127.6 410L135.2 408.4L142.7 407L150.2 405.3L157.7 403.3L165.2 401.4L172.7 399.5L180.2 397.4L187.7 395.5L195.3 393.7L202.8 392L210.3 390.1L217.8 388L225.3 386L232.8 384.1L240.3 382.1L247.8 380.2L255.4 378.1L262.9 376.1L270.4 374.3L277.9 372.5L285.4 370.8L292.9 368.9L300.4 367.2L307.9 365.6L315.5 364L323 362.5L330.5 361L338 359.5L345.5 358.2L353 356.9L360.5 355.7L368 354.3L375.6 353.1L383.1 351.9L390.6 350.9L398.1 349.8L405.6 348.6L413.1 347.6L420.6 346.6L428.1 345.7L435.7 344.8L443.2 343.7L450.7 342.7L458.2 341.8L465.7 341L473.2 340.1L480.7 339.2L488.2 338.3L495.8 337.6L503.3 336.9L510.8 336.3L518.3 335.6L525.8 335L533.3 334.5L540.8 334L548.3 333.6L555.8 333.1L563.4 332.7L570.9 332.4L578.4 332.2L585.9 332L593.4 331.7L600.9 331.4L608.4 331.3L615.9 331.3L623.5 331.2L631 331.1L638.5 331L646 331L653.5 331.1L661 331.2L668.5 331.2L676 331.2L683.6 331.4L691.1 331.6L698.6 331.8L706.1 332L713.6 332.1L721.1 332.4L728.6 332.7L736.1 333.1L736.145 535.3L97.598 535.3" fill="#3360a9" fill-opacity="0.7"></path><path class="Non__002dAfrica_0-area" stroke-linecap="round" d="M97.6 109.9L105.1 108.3L112.6 107.2L120.1 106.6L127.6 106.3L135.2 106.2L142.7 106.3L150.2 106.3L157.7 106.2L165.2 106.2L172.7 106.3L180.2 106.1L187.7 106L195.3 106L202.8 106L210.3 105.9L217.8 105.2L225.3 104.7L232.8 104.2L240.3 103.8L247.8 103.2L255.4 102.1L262.9 101.1L270.4 100.2L277.9 99.4L285.4 98.6L292.9 97.3L300.4 96.2L307.9 95.4L315.5 94.7L323 94.1L330.5 93.2L338 92.6L345.5 92.3L353 92.2L360.5 92.2L368 92.1L375.6 92.2L383.1 92.4L390.6 92.8L398.1 93.3L405.6 93.6L413.1 94L420.6 94.6L428.1 95.2L435.7 95.8L443.2 96.1L450.7 96.4L458.2 96.8L465.7 97.2L473.2 97.7L480.7 97.7L488.2 97.8L495.8 98.1L503.3 98.5L510.8 99L518.3 99L525.8 99.2L533.3 99.5L540.8 100L548.3 100.6L555.8 100.8L563.4 101.3L570.9 101.8L578.4 102.6L585.9 103.4L593.4 104L600.9 104.7L608.4 105.6L615.9 106.6L623.5 107.7L631 108.6L638.5 109.6L646 110.7L653.5 111.9L661 113.2L668.5 114.1L676 115.2L683.6 116.4L691.1 117.6L698.6 119L706.1 119.9L713.6 121L721.1 122.2L728.6 123.4L736.1 124.7L736.1 333.1L728.6 332.7L721.1 332.4L713.6 332.1L706.1 332L698.6 331.8L691.1 331.6L683.6 331.4L676 331.2L668.5 331.2L661 331.2L653.5 331.1L646 331L638.5 331L631 331.1L623.5 331.2L615.9 331.3L608.4 331.3L600.9 331.4L593.4 331.7L585.9 332L578.4 332.2L570.9 332.4L563.4 332.7L555.8 333.1L548.3 333.6L540.8 334L533.3 334.5L525.8 335L518.3 335.6L510.8 336.3L503.3 336.9L495.8 337.6L488.2 338.3L480.7 339.2L473.2 340.1L465.7 341L458.2 341.8L450.7 342.7L443.2 343.7L435.7 344.8L428.1 345.7L420.6 346.6L413.1 347.6L405.6 348.6L398.1 349.8L390.6 350.9L383.1 351.9L375.6 353.1L368 354.3L360.5 355.7L353 356.9L345.5 358.2L338 359.5L330.5 361L323 362.5L315.5 364L307.9 365.6L300.4 367.2L292.9 368.9L285.4 370.8L277.9 372.5L270.4 374.3L262.9 376.1L255.4 378.1L247.8 380.2L240.3 382.1L232.8 384.1L225.3 386L217.8 388L210.3 390.1L202.8 392L195.3 393.7L187.7 395.5L180.2 397.4L172.7 399.5L165.2 401.4L157.7 403.3L150.2 405.3L142.7 407L135.2 408.4L127.6 410L120.1 411.4L112.6 412.9L105.1 414.8L97.6 417.2" fill="#ca2628" fill-opacity="0.7"></path><path class="Africa_0-border" stroke-linecap="round" d="M97.6 417.2L105.1 414.8L112.6 412.9L120.1 411.4L127.6 410L135.2 408.4L142.7 407L150.2 405.3L157.7 403.3L165.2 401.4L172.7 399.5L180.2 397.4L187.7 395.5L195.3 393.7L202.8 392L210.3 390.1L217.8 388L225.3 386L232.8 384.1L240.3 382.1L247.8 380.2L255.4 378.1L262.9 376.1L270.4 374.3L277.9 372.5L285.4 370.8L292.9 368.9L300.4 367.2L307.9 365.6L315.5 364L323 362.5L330.5 361L338 359.5L345.5 358.2L353 356.9L360.5 355.7L368 354.3L375.6 353.1L383.1 351.9L390.6 350.9L398.1 349.8L405.6 348.6L413.1 347.6L420.6 346.6L428.1 345.7L435.7 344.8L443.2 343.7L450.7 342.7L458.2 341.8L465.7 341L473.2 340.1L480.7 339.2L488.2 338.3L495.8 337.6L503.3 336.9L510.8 336.3L518.3 335.6L525.8 335L533.3 334.5L540.8 334L548.3 333.6L555.8 333.1L563.4 332.7L570.9 332.4L578.4 332.2L585.9 332L593.4 331.7L600.9 331.4L608.4 331.3L615.9 331.3L623.5 331.2L631 331.1L638.5 331L646 331L653.5 331.1L661 331.2L668.5 331.2L676 331.2L683.6 331.4L691.1 331.6L698.6 331.8L706.1 332L713.6 332.1L721.1 332.4L728.6 332.7L736.1 333.1" stroke="rgb(43, 80, 141)" stroke-opacity="0.7" stroke-width="0.5" fill="none"></path><path class="Non__002dAfrica_0-border" stroke-linecap="round" d="M97.6 109.9L105.1 108.3L112.6 107.2L120.1 106.6L127.6 106.3L135.2 106.2L142.7 106.3L150.2 106.3L157.7 106.2L165.2 106.2L172.7 106.3L180.2 106.1L187.7 106L195.3 106L202.8 106L210.3 105.9L217.8 105.2L225.3 104.7L232.8 104.2L240.3 103.8L247.8 103.2L255.4 102.1L262.9 101.1L270.4 100.2L277.9 99.4L285.4 98.6L292.9 97.3L300.4 96.2L307.9 95.4L315.5 94.7L323 94.1L330.5 93.2L338 92.6L345.5 92.3L353 92.2L360.5 92.2L368 92.1L375.6 92.2L383.1 92.4L390.6 92.8L398.1 93.3L405.6 93.6L413.1 94L420.6 94.6L428.1 95.2L435.7 95.8L443.2 96.1L450.7 96.4L458.2 96.8L465.7 97.2L473.2 97.7L480.7 97.7L488.2 97.8L495.8 98.1L503.3 98.5L510.8 99L518.3 99L525.8 99.2L533.3 99.5L540.8 100L548.3 100.6L555.8 100.8L563.4 101.3L570.9 101.8L578.4 102.6L585.9 103.4L593.4 104L600.9 104.7L608.4 105.6L615.9 106.6L623.5 107.7L631 108.6L638.5 109.6L646 110.7L653.5 111.9L661 113.2L668.5 114.1L676 115.2L683.6 116.4L691.1 117.6L698.6 119L706.1 119.9L713.6 121L721.1 122.2L728.6 123.4L736.1 124.7" stroke="rgb(169, 32, 33)" stroke-opacity="0.7" stroke-width="0.5" fill="none"></path></g></g></g><g class="SourcesFooter" style="fill:#777"><g class="clickable" style="fill:#777"><text font-size="12.60" x="15.0" y="581.6"><tspan x="15" y="581.58">Source: UN Population Division (2017 Revision)</tspan></text></g><text font-size="12.60" x="775.4" y="581.6"><tspan x="775.402" y="581.58"><a style="fill: #777;" class="cclogo" href="http://creativecommons.org/licenses/by-sa/4.0/deed.en_US" target="_blank">CC BY-SA</a></tspan></text></g></g></svg>