<svg xmlns="http://www.w3.org/2000/svg" version="1.1" style="font-family:&#x27;Helvetica Neue&#x27;, Helvetica, Arial, sans-serif;font-size:18px;background-color:white;text-rendering:optimizeLegibility;-webkit-font-smoothing:antialiased" width="850" height="600"><g class="ChartTab"><g class="HeaderView"><g opacity="0.8" transform="translate(778, 15) scale(0.27)"><a xmlns:xlink="http://www.w3.org/1999/xlink" xlink:href="https://ourworldindata.org" target="_blank"><g><rect x="0" y="0" fill="#1B2543" width="211.2" height="130.1"/><rect x="0" y="112.2" fill="#E63912" width="211.2" height="17.9"/><g><rect x="1.2" y="12.3" fill="none" width="210.2" height="99.2"/><path fill="#FFFFFF" d="M37.8,32.2c0,12.7-7.7,19.4-17.1,19.4c-9.7,0-16.6-7.5-16.6-18.7c0-11.7,7.3-19.3,17.1-19.3 C31.3,13.7,37.8,21.3,37.8,32.2z M9.2,32.8c0,7.9,4.3,14.9,11.8,14.9c7.5,0,11.8-6.9,11.8-15.3c0-7.3-3.8-14.9-11.8-14.9 C13.1,17.5,9.2,24.8,9.2,32.8z"/><path fill="#FFFFFF" d="M62.7,43.8c0,2.7,0.1,5.1,0.2,7.2h-4.3l-0.3-4.3h-0.1c-1.3,2.1-4,4.9-8.8,4.9c-4.2,0-9.1-2.3-9.1-11.6 V24.6h4.8v14.6c0,5,1.5,8.4,5.9,8.4c3.2,0,5.5-2.2,6.3-4.4c0.3-0.7,0.4-1.6,0.4-2.5V24.6h4.8V43.8z"/><path fill="#FFFFFF" d="M67.3,32.8c0-3.1-0.1-5.8-0.2-8.2h4.2l0.2,5.2h0.2c1.2-3.5,4.1-5.8,7.3-5.8c0.5,0,0.9,0.1,1.4,0.2v4.5 c-0.5-0.1-1-0.2-1.6-0.2c-3.4,0-5.8,2.6-6.5,6.2c-0.1,0.7-0.2,1.4-0.2,2.2V51h-4.8V32.8z"/><path fill="#FFFFFF" d="M95.4,51l-9.4-36.8h5l4.4,18.6c1.1,4.6,2.1,9.2,2.7,12.7h0.1c0.6-3.7,1.8-8,3-12.8l4.9-18.5h5l4.5,18.7 c1,4.4,2,8.7,2.6,12.6h0.1c0.8-4,1.8-8.1,3-12.7l4.9-18.5h4.9L120.6,51h-5L111,31.9c-1.1-4.7-1.9-8.3-2.4-12h-0.1 c-0.7,3.7-1.5,7.3-2.8,12L100.4,51H95.4z"/><path fill="#FFFFFF" d="M154.9,37.6c0,9.8-6.8,14-13.2,14c-7.2,0-12.7-5.2-12.7-13.6c0-8.8,5.8-14,13.1-14 C149.8,24,154.9,29.5,154.9,37.6z M133.9,37.9c0,5.8,3.3,10.1,8,10.1c4.6,0,8-4.3,8-10.3c0-4.5-2.2-10.1-7.9-10.1 C136.3,27.6,133.9,32.8,133.9,37.9z"/><path fill="#FFFFFF" d="M158.2,32.8c0-3.1-0.1-5.8-0.2-8.2h4.2l0.2,5.2h0.2c1.2-3.5,4.1-5.8,7.3-5.8c0.5,0,0.9,0.1,1.4,0.2v4.5 c-0.5-0.1-1-0.2-1.6-0.2c-3.4,0-5.8,2.6-6.5,6.2c-0.1,0.7-0.2,1.4-0.2,2.2V51h-4.8V32.8z"/><path fill="#FFFFFF" d="M173.5,12.3h4.8V51h-4.8V12.3z"/><path fill="#FFFFFF" d="M206.5,12.3v31.9c0,2.3,0.1,5,0.2,6.8h-4.3l-0.2-4.6H202c-1.5,2.9-4.7,5.2-9,5.2 c-6.4,0-11.3-5.4-11.3-13.4c-0.1-8.8,5.4-14.2,11.9-14.2c4,0,6.8,1.9,8,4h0.1V12.3H206.5z M201.7,35.4c0-0.6-0.1-1.4-0.2-2 c-0.7-3.1-3.3-5.6-6.9-5.6c-5,0-7.9,4.4-7.9,10.2c0,5.3,2.6,9.8,7.8,9.8c3.2,0,6.2-2.1,7.1-5.7c0.2-0.7,0.2-1.3,0.2-2.1V35.4z"/><path fill="#FFFFFF" d="M42.8,64c0.1,1.6-1.1,2.9-3.1,2.9c-1.7,0-2.9-1.3-2.9-2.9c0-1.7,1.3-3,3-3C41.7,61,42.8,62.3,42.8,64z M37.4,97.8V71.4h4.8v26.4H37.4z"/><path fill="#FFFFFF" d="M47.5,78.6c0-2.7-0.1-5-0.2-7.1h4.3l0.3,4.4h0.1c1.3-2.5,4.4-5,8.8-5c3.7,0,9.4,2.2,9.4,11.2v15.8h-4.8 V82.6c0-4.3-1.6-7.8-6.1-7.8c-3.2,0-5.6,2.2-6.5,4.9c-0.2,0.6-0.3,1.4-0.3,2.2v15.9h-4.8V78.6z"/><path fill="#FFFFFF" d="M84,61.6c2.9-0.4,6.3-0.8,10.1-0.8c6.8,0,11.7,1.6,14.9,4.6c3.3,3,5.2,7.3,5.2,13.2c0,6-1.9,10.9-5.3,14.3 c-3.4,3.4-9.1,5.3-16.3,5.3c-3.4,0-6.2-0.2-8.6-0.4V61.6z M88.8,94.1c1.2,0.2,3,0.3,4.8,0.3c10.2,0,15.7-5.7,15.7-15.6 c0.1-8.7-4.9-14.2-14.9-14.2c-2.5,0-4.3,0.2-5.6,0.5V94.1z"/><path fill="#FFFFFF" d="M132.1,97.8l-0.4-3.3h-0.2c-1.5,2.1-4.3,3.9-8.1,3.9c-5.4,0-8.1-3.8-8.1-7.6c0-6.4,5.7-9.9,15.9-9.8v-0.5 c0-2.2-0.6-6.1-6-6.1c-2.5,0-5,0.8-6.9,2l-1.1-3.2c2.2-1.4,5.4-2.3,8.7-2.3c8.1,0,10.1,5.5,10.1,10.8v9.9c0,2.3,0.1,4.5,0.4,6.3 H132.1z M131.4,84.4c-5.3-0.1-11.2,0.8-11.2,5.9c0,3.1,2.1,4.6,4.5,4.6c3.4,0,5.6-2.2,6.4-4.4c0.2-0.5,0.3-1,0.3-1.5V84.4z"/><path fill="#FFFFFF" d="M146.6,63.9v7.6h6.9v3.7h-6.9v14.2c0,3.3,0.9,5.1,3.6,5.1c1.3,0,2.2-0.2,2.8-0.3l0.2,3.6 c-0.9,0.4-2.4,0.7-4.3,0.7c-2.2,0-4-0.7-5.2-2c-1.4-1.4-1.9-3.8-1.9-6.9V75.1h-4.1v-3.7h4.1v-6.3L146.6,63.9z"/><path fill="#FFFFFF" d="M171.4,97.8l-0.4-3.3h-0.2c-1.5,2.1-4.3,3.9-8.1,3.9c-5.4,0-8.1-3.8-8.1-7.6c0-6.4,5.7-9.9,15.9-9.8v-0.5 c0-2.2-0.6-6.1-6-6.1c-2.5,0-5,0.8-6.9,2l-1.1-3.2c2.2-1.4,5.4-2.3,8.7-2.3c8.1,0,10.1,5.5,10.1,10.8v9.9c0,2.3,0.1,4.5,0.4,6.3 H171.4z M170.7,84.4c-5.3-0.1-11.2,0.8-11.2,5.9c0,3.1,2.1,4.6,4.5,4.6c3.4,0,5.6-2.2,6.4-4.4c0.2-0.5,0.3-1,0.3-1.5V84.4z"/></g></g></a></g><a href="https://ourworldindata.org/grapher/projections-of-the-population-younger-than-15-in-africa-by-education-scenario" target="_blank"><text font-size="21.60" x="15.0" y="32.3" fill="#555"><tspan x="15" y="32.279999999999994">Projections of the population younger than 15 in Africa, by education scenario</tspan></text></a></g><g class="LineChart"><defs><clipPath id="boundsClip-678"><rect x="87.598" y="0" width="830" height="943.8"></rect></clipPath></defs><g class="AxisBoxView"><g class="HorizontalAxis"><text x="97.6" y="541.9" fill="#666" text-anchor="middle" font-size="16.2">1970</text><text x="212.8" y="541.9" fill="#666" text-anchor="middle" font-size="16.2">2000</text><text x="289.7" y="541.9" fill="#666" text-anchor="middle" font-size="16.2">2020</text><text x="366.5" y="541.9" fill="#666" text-anchor="middle" font-size="16.2">2040</text><text x="443.3" y="541.9" fill="#666" text-anchor="middle" font-size="16.2">2060</text><text x="520.1" y="541.9" fill="#666" text-anchor="middle" font-size="16.2">2080</text><text x="597" y="541.9" fill="#666" text-anchor="middle" font-size="16.2">2100</text></g><g class="VerticalAxis"><text x="92.60" y="520.7" fill="#666" dominant-baseline="middle" text-anchor="end" font-size="16.2">0</text><text x="92.60" y="453.6" fill="#666" dominant-baseline="middle" text-anchor="end" font-size="16.2">100 million</text><text x="92.60" y="386.5" fill="#666" dominant-baseline="middle" text-anchor="end" font-size="16.2">200 million</text><text x="92.60" y="319.4" fill="#666" dominant-baseline="middle" text-anchor="end" font-size="16.2">300 million</text><text x="92.60" y="252.2" fill="#666" dominant-baseline="middle" text-anchor="end" font-size="16.2">400 million</text><text x="92.60" y="185.1" fill="#666" dominant-baseline="middle" text-anchor="end" font-size="16.2">500 million</text><text x="92.60" y="118" fill="#666" dominant-baseline="middle" text-anchor="end" font-size="16.2">600 million</text></g><g class="AxisGridLines"><line x1="97.60" y1="520.7" x2="596.96" y2="520.7" stroke="#ccc"></line><line x1="97.60" y1="453.6" x2="596.96" y2="453.6" stroke="#ddd" stroke-dasharray="3,2"></line><line x1="97.60" y1="386.5" x2="596.96" y2="386.5" stroke="#ddd" stroke-dasharray="3,2"></line><line x1="97.60" y1="319.4" x2="596.96" y2="319.4" stroke="#ddd" stroke-dasharray="3,2"></line><line x1="97.60" y1="252.2" x2="596.96" y2="252.2" stroke="#ddd" stroke-dasharray="3,2"></line><line x1="97.60" y1="185.1" x2="596.96" y2="185.1" stroke="#ddd" stroke-dasharray="3,2"></line><line x1="97.60" y1="118" x2="596.96" y2="118" stroke="#ddd" stroke-dasharray="3,2"></line></g></g><g clip-path="url(#boundsClip-678)"><g class="HeightedLegend clickable"><g class="legendMark"><rect x="596.96" y="75.35000000000001" width="238.04000000000002" height="28.1" fill="#fff" opacity="0"></rect><text font-size="13.50" x="602.0" y="86.2" fill="#34983f"><tspan x="601.96" y="86.15">Constant Enrollment Rates (CER)</tspan><tspan x="601.96" y="101">Scenario</tspan></text></g><g class="legendMark"><rect x="596.96" y="203.14999999999998" width="224.675" height="28.1" fill="#fff" opacity="0"></rect><text font-size="13.50" x="602.0" y="213.9" fill="#ca2628"><tspan x="601.96" y="213.95">Global Education Trends (GET)</tspan><tspan x="601.96" y="228.79999999999998">Scenario</tspan></text></g><g class="legendMark"><rect x="596.96" y="285.75" width="185.25500000000002" height="13.5" fill="#fff" opacity="0"></rect><text font-size="13.50" x="602.0" y="296.6" fill="#3360a9"><tspan x="601.96" y="296.55">Fast Track (FT) Scenario</tspan></text></g></g><g class="Lines"><rect x="98" y="70" width="499" height="451" fill="rgba(255,255,255,0)" opacity="0"></rect><g class="key-Africa_0"><path stroke="#ca2628" stroke-linecap="round" d="M98 411L117 394L136 376L155 354L174 331L194 311L213 291L232 269L251 245L271 220L290 198L309 180L328 165L347 154L367 145L386 138L405 135L424 136L443 141L463 149L482 156L501 164L520 173L539 184L559 195L578 206L597 217" fill="none" stroke-width="1.5"></path><g fill="#ca2628"><circle cx="98" cy="411" r="2"></circle><circle cx="117" cy="394" r="2"></circle><circle cx="136" cy="376" r="2"></circle><circle cx="155" cy="354" r="2"></circle><circle cx="174" cy="331" r="2"></circle><circle cx="194" cy="311" r="2"></circle><circle cx="213" cy="291" r="2"></circle><circle cx="232" cy="269" r="2"></circle><circle cx="251" cy="245" r="2"></circle><circle cx="271" cy="220" r="2"></circle><circle cx="290" cy="198" r="2"></circle><circle cx="309" cy="180" r="2"></circle><circle cx="328" cy="165" r="2"></circle><circle cx="347" cy="154" r="2"></circle><circle cx="367" cy="145" r="2"></circle><circle cx="386" cy="138" r="2"></circle><circle cx="405" cy="135" r="2"></circle><circle cx="424" cy="136" r="2"></circle><circle cx="443" cy="141" r="2"></circle><circle cx="463" cy="149" r="2"></circle><circle cx="482" cy="156" r="2"></circle><circle cx="501" cy="164" r="2"></circle><circle cx="520" cy="173" r="2"></circle><circle cx="539" cy="184" r="2"></circle><circle cx="559" cy="195" r="2"></circle><circle cx="578" cy="206" r="2"></circle><circle cx="597" cy="217" r="2"></circle></g></g><g class="key-Africa_1"><path stroke="#3360a9" stroke-linecap="round" d="M98 411L117 394L136 376L155 354L174 331L194 311L213 291L232 269L251 245L271 222L290 207L309 198L328 193L347 189L367 187L386 188L405 192L424 199L443 208L463 218L482 228L501 238L520 249L539 260L559 271L578 282L597 293" fill="none" stroke-width="1.5"></path><g fill="#3360a9"><circle cx="98" cy="411" r="2"></circle><circle cx="117" cy="394" r="2"></circle><circle cx="136" cy="376" r="2"></circle><circle cx="155" cy="354" r="2"></circle><circle cx="174" cy="331" r="2"></circle><circle cx="194" cy="311" r="2"></circle><circle cx="213" cy="291" r="2"></circle><circle cx="232" cy="269" r="2"></circle><circle cx="251" cy="245" r="2"></circle><circle cx="271" cy="222" r="2"></circle><circle cx="290" cy="207" r="2"></circle><circle cx="309" cy="198" r="2"></circle><circle cx="328" cy="193" r="2"></circle><circle cx="347" cy="189" r="2"></circle><circle cx="367" cy="187" r="2"></circle><circle cx="386" cy="188" r="2"></circle><circle cx="405" cy="192" r="2"></circle><circle cx="424" cy="199" r="2"></circle><circle cx="443" cy="208" r="2"></circle><circle cx="463" cy="218" r="2"></circle><circle cx="482" cy="228" r="2"></circle><circle cx="501" cy="238" r="2"></circle><circle cx="520" cy="249" r="2"></circle><circle cx="539" cy="260" r="2"></circle><circle cx="559" cy="271" r="2"></circle><circle cx="578" cy="282" r="2"></circle><circle cx="597" cy="293" r="2"></circle></g></g><g class="key-Africa_2"><path stroke="#34983f" stroke-linecap="round" d="M98 411L117 394L136 376L155 354L174 331L194 311L213 291L232 269L251 245L271 218L290 192L309 167L328 145L347 126L367 109L386 94L405 83L424 75L443 71L463 70L482 71L501 72L520 74L539 77L559 81L578 85L597 89" fill="none" stroke-width="1.5"></path><g fill="#34983f"><circle cx="98" cy="411" r="2"></circle><circle cx="117" cy="394" r="2"></circle><circle cx="136" cy="376" r="2"></circle><circle cx="155" cy="354" r="2"></circle><circle cx="174" cy="331" r="2"></circle><circle cx="194" cy="311" r="2"></circle><circle cx="213" cy="291" r="2"></circle><circle cx="232" cy="269" r="2"></circle><circle cx="251" cy="245" r="2"></circle><circle cx="271" cy="218" r="2"></circle><circle cx="290" cy="192" r="2"></circle><circle cx="309" cy="167" r="2"></circle><circle cx="328" cy="145" r="2"></circle><circle cx="347" cy="126" r="2"></circle><circle cx="367" cy="109" r="2"></circle><circle cx="386" cy="94" r="2"></circle><circle cx="405" cy="83" r="2"></circle><circle cx="424" cy="75" r="2"></circle><circle cx="443" cy="71" r="2"></circle><circle cx="463" cy="70" r="2"></circle><circle cx="482" cy="71" r="2"></circle><circle cx="501" cy="72" r="2"></circle><circle cx="520" cy="74" r="2"></circle><circle cx="539" cy="77" r="2"></circle><circle cx="559" cy="81" r="2"></circle><circle cx="578" cy="85" r="2"></circle><circle cx="597" cy="89" r="2"></circle></g></g></g></g></g><g class="SourcesFooter" style="fill:#777"><g class="clickable" style="fill:#777"><text font-size="12.60" x="15.0" y="567.0"><tspan x="15" y="566.98">Source: Medium SSP2 - Wittgenstein Centre for Demography and Global Human Capital</tspan></text></g><text font-size="12.60" x="15.0" y="582.5"><tspan x="15" y="582.48"><a target='_blank' style='fill: #777;' href='https://ourworldindata.org/world-population-future-eductation-now/'>OurWorldInData.org/world-population-future-eductation-now/</a> • <a style="fill: #777;" class="cclogo" href="http://creativecommons.org/licenses/by-sa/4.0/deed.en_US" target="_blank">CC BY-SA</a></tspan></text></g></g></svg>