<svg xmlns="http://www.w3.org/2000/svg" version="1.1" style="font-family: 'Helvetica Neue', Helvetica, Arial, sans-serif; font-size: 18px; background-color: white; text-rendering: optimizeLegibility; -webkit-font-smoothing: antialiased;" width="850" height="600"><g class="ChartTab"><g class="HeaderView"><g opacity="0.8" transform="translate(770, 15) scale(0.31)"><a xmlns:xlink="http://www.w3.org/1999/xlink" xlink:href="https://ourworldindata.org" target="_blank"><g><rect x="0" y="0" fill="#1B2543" width="211.2" height="130.1"/><rect x="0" y="112.2" fill="#E63912" width="211.2" height="17.9"/><g><rect x="1.2" y="12.3" fill="none" width="210.2" height="99.2"/><path fill="#FFFFFF" d="M37.8,32.2c0,12.7-7.7,19.4-17.1,19.4c-9.7,0-16.6-7.5-16.6-18.7c0-11.7,7.3-19.3,17.1-19.3 C31.3,13.7,37.8,21.3,37.8,32.2z M9.2,32.8c0,7.9,4.3,14.9,11.8,14.9c7.5,0,11.8-6.9,11.8-15.3c0-7.3-3.8-14.9-11.8-14.9 C13.1,17.5,9.2,24.8,9.2,32.8z"/><path fill="#FFFFFF" d="M62.7,43.8c0,2.7,0.1,5.1,0.2,7.2h-4.3l-0.3-4.3h-0.1c-1.3,2.1-4,4.9-8.8,4.9c-4.2,0-9.1-2.3-9.1-11.6 V24.6h4.8v14.6c0,5,1.5,8.4,5.9,8.4c3.2,0,5.5-2.2,6.3-4.4c0.3-0.7,0.4-1.6,0.4-2.5V24.6h4.8V43.8z"/><path fill="#FFFFFF" d="M67.3,32.8c0-3.1-0.1-5.8-0.2-8.2h4.2l0.2,5.2h0.2c1.2-3.5,4.1-5.8,7.3-5.8c0.5,0,0.9,0.1,1.4,0.2v4.5 c-0.5-0.1-1-0.2-1.6-0.2c-3.4,0-5.8,2.6-6.5,6.2c-0.1,0.7-0.2,1.4-0.2,2.2V51h-4.8V32.8z"/><path fill="#FFFFFF" d="M95.4,51l-9.4-36.8h5l4.4,18.6c1.1,4.6,2.1,9.2,2.7,12.7h0.1c0.6-3.7,1.8-8,3-12.8l4.9-18.5h5l4.5,18.7 c1,4.4,2,8.7,2.6,12.6h0.1c0.8-4,1.8-8.1,3-12.7l4.9-18.5h4.9L120.6,51h-5L111,31.9c-1.1-4.7-1.9-8.3-2.4-12h-0.1 c-0.7,3.7-1.5,7.3-2.8,12L100.4,51H95.4z"/><path fill="#FFFFFF" d="M154.9,37.6c0,9.8-6.8,14-13.2,14c-7.2,0-12.7-5.2-12.7-13.6c0-8.8,5.8-14,13.1-14 C149.8,24,154.9,29.5,154.9,37.6z M133.9,37.9c0,5.8,3.3,10.1,8,10.1c4.6,0,8-4.3,8-10.3c0-4.5-2.2-10.1-7.9-10.1 C136.3,27.6,133.9,32.8,133.9,37.9z"/><path fill="#FFFFFF" d="M158.2,32.8c0-3.1-0.1-5.8-0.2-8.2h4.2l0.2,5.2h0.2c1.2-3.5,4.1-5.8,7.3-5.8c0.5,0,0.9,0.1,1.4,0.2v4.5 c-0.5-0.1-1-0.2-1.6-0.2c-3.4,0-5.8,2.6-6.5,6.2c-0.1,0.7-0.2,1.4-0.2,2.2V51h-4.8V32.8z"/><path fill="#FFFFFF" d="M173.5,12.3h4.8V51h-4.8V12.3z"/><path fill="#FFFFFF" d="M206.5,12.3v31.9c0,2.3,0.1,5,0.2,6.8h-4.3l-0.2-4.6H202c-1.5,2.9-4.7,5.2-9,5.2 c-6.4,0-11.3-5.4-11.3-13.4c-0.1-8.8,5.4-14.2,11.9-14.2c4,0,6.8,1.9,8,4h0.1V12.3H206.5z M201.7,35.4c0-0.6-0.1-1.4-0.2-2 c-0.7-3.1-3.3-5.6-6.9-5.6c-5,0-7.9,4.4-7.9,10.2c0,5.3,2.6,9.8,7.8,9.8c3.2,0,6.2-2.1,7.1-5.7c0.2-0.7,0.2-1.3,0.2-2.1V35.4z"/><path fill="#FFFFFF" d="M42.8,64c0.1,1.6-1.1,2.9-3.1,2.9c-1.7,0-2.9-1.3-2.9-2.9c0-1.7,1.3-3,3-3C41.7,61,42.8,62.3,42.8,64z M37.4,97.8V71.4h4.8v26.4H37.4z"/><path fill="#FFFFFF" d="M47.5,78.6c0-2.7-0.1-5-0.2-7.1h4.3l0.3,4.4h0.1c1.3-2.5,4.4-5,8.8-5c3.7,0,9.4,2.2,9.4,11.2v15.8h-4.8 V82.6c0-4.3-1.6-7.8-6.1-7.8c-3.2,0-5.6,2.2-6.5,4.9c-0.2,0.6-0.3,1.4-0.3,2.2v15.9h-4.8V78.6z"/><path fill="#FFFFFF" d="M84,61.6c2.9-0.4,6.3-0.8,10.1-0.8c6.8,0,11.7,1.6,14.9,4.6c3.3,3,5.2,7.3,5.2,13.2c0,6-1.9,10.9-5.3,14.3 c-3.4,3.4-9.1,5.3-16.3,5.3c-3.4,0-6.2-0.2-8.6-0.4V61.6z M88.8,94.1c1.2,0.2,3,0.3,4.8,0.3c10.2,0,15.7-5.7,15.7-15.6 c0.1-8.7-4.9-14.2-14.9-14.2c-2.5,0-4.3,0.2-5.6,0.5V94.1z"/><path fill="#FFFFFF" d="M132.1,97.8l-0.4-3.3h-0.2c-1.5,2.1-4.3,3.9-8.1,3.9c-5.4,0-8.1-3.8-8.1-7.6c0-6.4,5.7-9.9,15.9-9.8v-0.5 c0-2.2-0.6-6.1-6-6.1c-2.5,0-5,0.8-6.9,2l-1.1-3.2c2.2-1.4,5.4-2.3,8.7-2.3c8.1,0,10.1,5.5,10.1,10.8v9.9c0,2.3,0.1,4.5,0.4,6.3 H132.1z M131.4,84.4c-5.3-0.1-11.2,0.8-11.2,5.9c0,3.1,2.1,4.6,4.5,4.6c3.4,0,5.6-2.2,6.4-4.4c0.2-0.5,0.3-1,0.3-1.5V84.4z"/><path fill="#FFFFFF" d="M146.6,63.9v7.6h6.9v3.7h-6.9v14.2c0,3.3,0.9,5.1,3.6,5.1c1.3,0,2.2-0.2,2.8-0.3l0.2,3.6 c-0.9,0.4-2.4,0.7-4.3,0.7c-2.2,0-4-0.7-5.2-2c-1.4-1.4-1.9-3.8-1.9-6.9V75.1h-4.1v-3.7h4.1v-6.3L146.6,63.9z"/><path fill="#FFFFFF" d="M171.4,97.8l-0.4-3.3h-0.2c-1.5,2.1-4.3,3.9-8.1,3.9c-5.4,0-8.1-3.8-8.1-7.6c0-6.4,5.7-9.9,15.9-9.8v-0.5 c0-2.2-0.6-6.1-6-6.1c-2.5,0-5,0.8-6.9,2l-1.1-3.2c2.2-1.4,5.4-2.3,8.7-2.3c8.1,0,10.1,5.5,10.1,10.8v9.9c0,2.3,0.1,4.5,0.4,6.3 H171.4z M170.7,84.4c-5.3-0.1-11.2,0.8-11.2,5.9c0,3.1,2.1,4.6,4.5,4.6c3.4,0,5.6-2.2,6.4-4.4c0.2-0.5,0.3-1,0.3-1.5V84.4z"/></g></g></a></g><a href="https://ourworldindata.org/grapher/pupil-teacher-ratio-for-primary-education-by-country?tab=chart&amp;country=East%20Asia%20%26%20Pacific+Europe%20%26%20Central%20Asia+Latin%20America%20%26%20Caribbean+Middle%20East%20%26%20North%20Africa%20(all%20income%20levels)+North%20America+OECD%20members+South%20Asia+Sub-Saharan%20Africa+OWID_WRL" target="_blank"><text font-size="27.00" x="15.0" y="36.6" fill="#555"><tspan x="15" y="36.6">Pupil-teacher ratio for primary education</tspan></text></a><text font-size="14.40" x="15.0" y="55.5" fill="#666"><tspan x="15" y="55.519999999999996">Average number of pupils per teacher, based on headcounts of both pupils and teachers. When feasible, the</tspan><tspan x="15" y="71.36">number of part-time teachers is converted to ‘full-time equivalent’ teachers; so that a double-shift teacher is</tspan><tspan x="15" y="87.2">counted twice, etc.</tspan></text></g><g class="LineChart"><defs><clipPath id="boundsClip-422"><rect x="28.144000000000005" y="0" width="830" height="894.2"></rect></clipPath></defs><g class="AxisBoxView"><g class="HorizontalAxis"><text x="38.1" y="556.5" fill="#666" text-anchor="middle" font-size="16.2">1970</text><text x="158.3" y="556.5" fill="#666" text-anchor="middle" font-size="16.2">1980</text><text x="278.5" y="556.5" fill="#666" text-anchor="middle" font-size="16.2">1990</text><text x="398.7" y="556.5" fill="#666" text-anchor="middle" font-size="16.2">2000</text><text x="518.9" y="556.5" fill="#666" text-anchor="middle" font-size="16.2">2010</text><text x="566.9" y="556.5" fill="#666" text-anchor="middle" font-size="16.2">2014</text></g><g class="VerticalAxis"><text x="33.14" y="535.3" fill="#666" dominant-baseline="middle" text-anchor="end" font-size="16.2">0</text><text x="33.14" y="464.3" fill="#666" dominant-baseline="middle" text-anchor="end" font-size="16.2">10</text><text x="33.14" y="393.3" fill="#666" dominant-baseline="middle" text-anchor="end" font-size="16.2">20</text><text x="33.14" y="322.4" fill="#666" dominant-baseline="middle" text-anchor="end" font-size="16.2">30</text><text x="33.14" y="251.4" fill="#666" dominant-baseline="middle" text-anchor="end" font-size="16.2">40</text><text x="33.14" y="180.4" fill="#666" dominant-baseline="middle" text-anchor="end" font-size="16.2">50</text><text x="33.14" y="109.4" fill="#666" dominant-baseline="middle" text-anchor="end" font-size="16.2">60</text></g><g class="AxisGridLines"><line x1="38.14" y1="535.3" x2="566.93" y2="535.3" stroke="#ccc"></line><line x1="38.14" y1="464.3" x2="566.93" y2="464.3" stroke="#ddd" stroke-dasharray="3,2"></line><line x1="38.14" y1="393.3" x2="566.93" y2="393.3" stroke="#ddd" stroke-dasharray="3,2"></line><line x1="38.14" y1="322.4" x2="566.93" y2="322.4" stroke="#ddd" stroke-dasharray="3,2"></line><line x1="38.14" y1="251.4" x2="566.93" y2="251.4" stroke="#ddd" stroke-dasharray="3,2"></line><line x1="38.14" y1="180.4" x2="566.93" y2="180.4" stroke="#ddd" stroke-dasharray="3,2"></line><line x1="38.14" y1="109.4" x2="566.93" y2="109.4" stroke="#ddd" stroke-dasharray="3,2"></line></g><g class="AxisGridLines"><line x1="38.1" y1="535.30" x2="38.1" y2="109.40" stroke="#ddd" stroke-dasharray="3,2"></line><line x1="158.3" y1="535.30" x2="158.3" y2="109.40" stroke="#ddd" stroke-dasharray="3,2"></line><line x1="278.5" y1="535.30" x2="278.5" y2="109.40" stroke="#ddd" stroke-dasharray="3,2"></line><line x1="398.7" y1="535.30" x2="398.7" y2="109.40" stroke="#ddd" stroke-dasharray="3,2"></line><line x1="518.9" y1="535.30" x2="518.9" y2="109.40" stroke="#ddd" stroke-dasharray="3,2"></line></g></g><g clip-path="url(#boundsClip-422)"><g class="HeightedLegend clickable"><g class="legendMark"><rect x="576.928" y="232.3" width="141.144" height="14.4" fill="#fff" opacity="0"></rect><rect x="576.928" y="238.25" width="10" height="2.5" fill="#ffd53e"></rect><text font-size="14.40" x="591.9" y="243.8" fill="#333"><tspan x="591.928" y="243.82000000000002">Sub-Saharan Africa</tspan></text></g><g class="legendMark"><rect x="576.928" y="287.40000000000003" width="84.98400000000001" height="14.4" fill="#fff" opacity="0"></rect><rect x="576.928" y="293.35" width="10" height="2.5" fill="#9ecc8a"></rect><text font-size="14.40" x="591.9" y="298.9" fill="#333"><tspan x="591.928" y="298.92">South Asia</tspan></text></g><g class="legendMark"><rect x="576.928" y="359.5" width="52.584" height="14.4" fill="#fff" opacity="0"></rect><rect x="576.928" y="365.45" width="10" height="2.5" fill="#e6332e"></rect><text font-size="14.40" x="591.9" y="371.0" fill="#333"><tspan x="591.928" y="371.02">World</tspan></text></g><g class="legendMark"><rect x="576.928" y="374.3" width="187.65600000000003" height="14.4" fill="#fff" opacity="0"></rect><rect x="576.928" y="380.25" width="10" height="2.5" fill="#2a939b"></rect><text font-size="14.40" x="591.9" y="385.8" fill="#333"><tspan x="591.928" y="385.82">Latin America &amp; Caribbean</tspan></text></g><g class="legendMark"><rect x="576.928" y="388.7" width="258.072" height="29.900000000000002" fill="#fff" opacity="0"></rect><rect x="576.928" y="402.4" width="10" height="2.5" fill="#a652ba"></rect><text font-size="14.40" x="591.9" y="400.2" fill="#333"><tspan x="591.928" y="400.21999999999997">Middle East &amp; North Africa (all income</tspan><tspan x="591.928" y="416.05999999999995">levels)</tspan></text></g><g class="legendMark"><rect x="576.928" y="418.59999999999997" width="157.99200000000002" height="14.4" fill="#fff" opacity="0"></rect><rect x="576.928" y="424.54999999999995" width="10" height="2.5" fill="#f6a324"></rect><text font-size="14.40" x="591.9" y="430.1" fill="#333"><tspan x="591.928" y="430.11999999999995">Europe &amp; Central Asia</tspan></text></g><g class="legendMark"><rect x="576.928" y="432.99999999999994" width="136.24800000000002" height="14.4" fill="#fff" opacity="0"></rect><rect x="576.928" y="438.94999999999993" width="10" height="2.5" fill="#34983f"></rect><text font-size="14.40" x="591.9" y="444.5" fill="#333"><tspan x="591.928" y="444.5199999999999">East Asia &amp; Pacific</tspan></text></g><g class="legendMark"><rect x="576.928" y="447.3999999999999" width="120.69600000000001" height="14.4" fill="#fff" opacity="0"></rect><rect x="576.928" y="453.3499999999999" width="10" height="2.5" fill="#ca2628"></rect><text font-size="14.40" x="591.9" y="458.9" fill="#333"><tspan x="591.928" y="458.9199999999999">OECD members</tspan></text></g><g class="legendMark"><rect x="576.928" y="461.7999999999999" width="107.16000000000001" height="14.4" fill="#fff" opacity="0"></rect><rect x="576.928" y="467.7499999999999" width="10" height="2.5" fill="#3360a9"></rect><text font-size="14.40" x="591.9" y="473.3" fill="#333"><tspan x="591.928" y="473.3199999999999">North America</tspan></text></g></g><g class="Lines"><rect x="38" y="109" width="529" height="426" fill="rgba(255,255,255,0)" opacity="0"></rect><g class="key-East-Asia-__0026-Pacific_0"><path stroke="#34983f" stroke-linecap="round" d="M38 326L50 325L62 334L74 328L86 326L98 325L110 326L122 325L134 327L146 328L158 333L170 337L182 343L194 347L206 350L218 351L230 354L242 357L255 361L267 365L279 368L291 369L303 369L315 368L327 367L339 365L351 364L363 362L375 361L387 362L399 366L411 370L423 375L435 379L447 386L459 392L471 396L483 400L495 399L507 402L519 405L531 405L543 405L555 408L567 411" fill="none" stroke-width="1.5"></path><g fill="#34983f"><circle cx="38" cy="326" r="2"></circle><circle cx="50" cy="325" r="2"></circle><circle cx="62" cy="334" r="2"></circle><circle cx="74" cy="328" r="2"></circle><circle cx="86" cy="326" r="2"></circle><circle cx="98" cy="325" r="2"></circle><circle cx="110" cy="326" r="2"></circle><circle cx="122" cy="325" r="2"></circle><circle cx="134" cy="327" r="2"></circle><circle cx="146" cy="328" r="2"></circle><circle cx="158" cy="333" r="2"></circle><circle cx="170" cy="337" r="2"></circle><circle cx="182" cy="343" r="2"></circle><circle cx="194" cy="347" r="2"></circle><circle cx="206" cy="350" r="2"></circle><circle cx="218" cy="351" r="2"></circle><circle cx="230" cy="354" r="2"></circle><circle cx="242" cy="357" r="2"></circle><circle cx="255" cy="361" r="2"></circle><circle cx="267" cy="365" r="2"></circle><circle cx="279" cy="368" r="2"></circle><circle cx="291" cy="369" r="2"></circle><circle cx="303" cy="369" r="2"></circle><circle cx="315" cy="368" r="2"></circle><circle cx="327" cy="367" r="2"></circle><circle cx="339" cy="365" r="2"></circle><circle cx="351" cy="364" r="2"></circle><circle cx="363" cy="362" r="2"></circle><circle cx="375" cy="361" r="2"></circle><circle cx="387" cy="362" r="2"></circle><circle cx="399" cy="366" r="2"></circle><circle cx="411" cy="370" r="2"></circle><circle cx="423" cy="375" r="2"></circle><circle cx="435" cy="379" r="2"></circle><circle cx="447" cy="386" r="2"></circle><circle cx="459" cy="392" r="2"></circle><circle cx="471" cy="396" r="2"></circle><circle cx="483" cy="400" r="2"></circle><circle cx="495" cy="399" r="2"></circle><circle cx="507" cy="402" r="2"></circle><circle cx="519" cy="405" r="2"></circle><circle cx="531" cy="405" r="2"></circle><circle cx="543" cy="405" r="2"></circle><circle cx="555" cy="408" r="2"></circle><circle cx="567" cy="411" r="2"></circle></g></g><g class="key-Europe-__0026-Central-Asia_0"><path stroke="#f6a324" stroke-linecap="round" d="M158 359L170 361L182 360L194 360L206 356L218 357L230 358L242 360L255 362L267 366L279 369L291 371L303 377L315 382L327 385L339 385L351 384L363 385L375 386L387 388L399 390L411 393L423 395L435 397L447 400L459 401L471 403L483 405L495 407L507 407L519 406L531 407L543 407L555 407L567 406" fill="none" stroke-width="1.5"></path><g fill="#f6a324"><circle cx="158" cy="359" r="2"></circle><circle cx="170" cy="361" r="2"></circle><circle cx="182" cy="360" r="2"></circle><circle cx="194" cy="360" r="2"></circle><circle cx="206" cy="356" r="2"></circle><circle cx="218" cy="357" r="2"></circle><circle cx="230" cy="358" r="2"></circle><circle cx="242" cy="360" r="2"></circle><circle cx="255" cy="362" r="2"></circle><circle cx="267" cy="366" r="2"></circle><circle cx="279" cy="369" r="2"></circle><circle cx="291" cy="371" r="2"></circle><circle cx="303" cy="377" r="2"></circle><circle cx="315" cy="382" r="2"></circle><circle cx="327" cy="385" r="2"></circle><circle cx="339" cy="385" r="2"></circle><circle cx="351" cy="384" r="2"></circle><circle cx="363" cy="385" r="2"></circle><circle cx="375" cy="386" r="2"></circle><circle cx="387" cy="388" r="2"></circle><circle cx="399" cy="390" r="2"></circle><circle cx="411" cy="393" r="2"></circle><circle cx="423" cy="395" r="2"></circle><circle cx="435" cy="397" r="2"></circle><circle cx="447" cy="400" r="2"></circle><circle cx="459" cy="401" r="2"></circle><circle cx="471" cy="403" r="2"></circle><circle cx="483" cy="405" r="2"></circle><circle cx="495" cy="407" r="2"></circle><circle cx="507" cy="407" r="2"></circle><circle cx="519" cy="406" r="2"></circle><circle cx="531" cy="407" r="2"></circle><circle cx="543" cy="407" r="2"></circle><circle cx="555" cy="407" r="2"></circle><circle cx="567" cy="406" r="2"></circle></g></g><g class="key-Latin-America-__0026-Caribbean_0"><path stroke="#2a939b" stroke-linecap="round" d="M38 308L50 309L62 310L74 310L86 312L98 314L110 314L122 315L134 316L146 318L158 319L170 320L182 324L194 326L206 328L218 330L230 335L242 337L255 339L267 342L279 342L291 343L303 346L315 348L327 351L339 352L351 354L363 356L375 354L387 351L399 354L411 361L423 362L435 366L447 365L459 367L471 365L483 363L495 368L507 370L519 372L531 375L543 379L555 379L567 382" fill="none" stroke-width="1.5"></path><g fill="#2a939b"><circle cx="38" cy="308" r="2"></circle><circle cx="50" cy="309" r="2"></circle><circle cx="62" cy="310" r="2"></circle><circle cx="74" cy="310" r="2"></circle><circle cx="86" cy="312" r="2"></circle><circle cx="98" cy="314" r="2"></circle><circle cx="110" cy="314" r="2"></circle><circle cx="122" cy="315" r="2"></circle><circle cx="134" cy="316" r="2"></circle><circle cx="146" cy="318" r="2"></circle><circle cx="158" cy="319" r="2"></circle><circle cx="170" cy="320" r="2"></circle><circle cx="182" cy="324" r="2"></circle><circle cx="194" cy="326" r="2"></circle><circle cx="206" cy="328" r="2"></circle><circle cx="218" cy="330" r="2"></circle><circle cx="230" cy="335" r="2"></circle><circle cx="242" cy="337" r="2"></circle><circle cx="255" cy="339" r="2"></circle><circle cx="267" cy="342" r="2"></circle><circle cx="279" cy="342" r="2"></circle><circle cx="291" cy="343" r="2"></circle><circle cx="303" cy="346" r="2"></circle><circle cx="315" cy="348" r="2"></circle><circle cx="327" cy="351" r="2"></circle><circle cx="339" cy="352" r="2"></circle><circle cx="351" cy="354" r="2"></circle><circle cx="363" cy="356" r="2"></circle><circle cx="375" cy="354" r="2"></circle><circle cx="387" cy="351" r="2"></circle><circle cx="399" cy="354" r="2"></circle><circle cx="411" cy="361" r="2"></circle><circle cx="423" cy="362" r="2"></circle><circle cx="435" cy="366" r="2"></circle><circle cx="447" cy="365" r="2"></circle><circle cx="459" cy="367" r="2"></circle><circle cx="471" cy="365" r="2"></circle><circle cx="483" cy="363" r="2"></circle><circle cx="495" cy="368" r="2"></circle><circle cx="507" cy="370" r="2"></circle><circle cx="519" cy="372" r="2"></circle><circle cx="531" cy="375" r="2"></circle><circle cx="543" cy="379" r="2"></circle><circle cx="555" cy="379" r="2"></circle><circle cx="567" cy="382" r="2"></circle></g></g><g class="key-Middle-East-__0026-North-Africa-__0028all-income-levels__0029_0"><path stroke="#a652ba" stroke-linecap="round" d="M38 315L50 315L62 318L74 313L86 320L98 319L110 324L122 329L134 324L146 326L158 331L170 334L182 339L194 358L206 359L218 362L230 362L242 353L255 352L267 369L279 358L291 357L303 360L315 363L327 361L339 364L351 362L363 368L375 369L387 371L399 375L411 378L423 380L435 383L447 386L459 385L471 386L483 387L495 389L507 389L519 388L531 397L543 397L555 392L567 391" fill="none" stroke-width="1.5"></path><g fill="#a652ba"><circle cx="38" cy="315" r="2"></circle><circle cx="50" cy="315" r="2"></circle><circle cx="62" cy="318" r="2"></circle><circle cx="74" cy="313" r="2"></circle><circle cx="86" cy="320" r="2"></circle><circle cx="98" cy="319" r="2"></circle><circle cx="110" cy="324" r="2"></circle><circle cx="122" cy="329" r="2"></circle><circle cx="134" cy="324" r="2"></circle><circle cx="146" cy="326" r="2"></circle><circle cx="158" cy="331" r="2"></circle><circle cx="170" cy="334" r="2"></circle><circle cx="182" cy="339" r="2"></circle><circle cx="194" cy="358" r="2"></circle><circle cx="206" cy="359" r="2"></circle><circle cx="218" cy="362" r="2"></circle><circle cx="230" cy="362" r="2"></circle><circle cx="242" cy="353" r="2"></circle><circle cx="255" cy="352" r="2"></circle><circle cx="267" cy="369" r="2"></circle><circle cx="279" cy="358" r="2"></circle><circle cx="291" cy="357" r="2"></circle><circle cx="303" cy="360" r="2"></circle><circle cx="315" cy="363" r="2"></circle><circle cx="327" cy="361" r="2"></circle><circle cx="339" cy="364" r="2"></circle><circle cx="351" cy="362" r="2"></circle><circle cx="363" cy="368" r="2"></circle><circle cx="375" cy="369" r="2"></circle><circle cx="387" cy="371" r="2"></circle><circle cx="399" cy="375" r="2"></circle><circle cx="411" cy="378" r="2"></circle><circle cx="423" cy="380" r="2"></circle><circle cx="435" cy="383" r="2"></circle><circle cx="447" cy="386" r="2"></circle><circle cx="459" cy="385" r="2"></circle><circle cx="471" cy="386" r="2"></circle><circle cx="483" cy="387" r="2"></circle><circle cx="495" cy="389" r="2"></circle><circle cx="507" cy="389" r="2"></circle><circle cx="519" cy="388" r="2"></circle><circle cx="531" cy="397" r="2"></circle><circle cx="543" cy="397" r="2"></circle><circle cx="555" cy="392" r="2"></circle><circle cx="567" cy="391" r="2"></circle></g></g><g class="key-North-America_0"><path stroke="#3360a9" stroke-linecap="round" d="M194 435L206 435L218 434L230 433L242 431L255 430L267 428L279 427L291 425L303 423L315 421L327 421L339 421L351 421L363 422L375 423L387 425L399 427L411 425L423 429L435 429L447 433L459 433L471 436L483 436L495 436L507 435L519 437L531 432L543 432L555 431L567 431" fill="none" stroke-width="1.5"></path><g fill="#3360a9"><circle cx="194" cy="435" r="2"></circle><circle cx="206" cy="435" r="2"></circle><circle cx="218" cy="434" r="2"></circle><circle cx="230" cy="433" r="2"></circle><circle cx="242" cy="431" r="2"></circle><circle cx="255" cy="430" r="2"></circle><circle cx="267" cy="428" r="2"></circle><circle cx="279" cy="427" r="2"></circle><circle cx="291" cy="425" r="2"></circle><circle cx="303" cy="423" r="2"></circle><circle cx="315" cy="421" r="2"></circle><circle cx="327" cy="421" r="2"></circle><circle cx="339" cy="421" r="2"></circle><circle cx="351" cy="421" r="2"></circle><circle cx="363" cy="422" r="2"></circle><circle cx="375" cy="423" r="2"></circle><circle cx="387" cy="425" r="2"></circle><circle cx="399" cy="427" r="2"></circle><circle cx="411" cy="425" r="2"></circle><circle cx="423" cy="429" r="2"></circle><circle cx="435" cy="429" r="2"></circle><circle cx="447" cy="433" r="2"></circle><circle cx="459" cy="433" r="2"></circle><circle cx="471" cy="436" r="2"></circle><circle cx="483" cy="436" r="2"></circle><circle cx="495" cy="436" r="2"></circle><circle cx="507" cy="435" r="2"></circle><circle cx="519" cy="437" r="2"></circle><circle cx="531" cy="432" r="2"></circle><circle cx="543" cy="432" r="2"></circle><circle cx="555" cy="431" r="2"></circle><circle cx="567" cy="431" r="2"></circle></g></g><g class="key-OECD-members_0"><path stroke="#ca2628" stroke-linecap="round" d="M38 389L50 388L62 389L74 390L86 390L98 390L110 390L122 390L134 390L146 390L158 392L170 393L182 394L194 394L206 395L218 397L230 398L242 398L255 399L267 400L279 401L291 402L303 403L315 404L327 407L339 406L351 407L363 408L375 407L387 409L399 411L411 411L423 413L435 414L447 415L459 417L471 418L483 420L495 421L507 421L519 423L531 422L543 422L555 423L567 423" fill="none" stroke-width="1.5"></path><g fill="#ca2628"><circle cx="38" cy="389" r="2"></circle><circle cx="50" cy="388" r="2"></circle><circle cx="62" cy="389" r="2"></circle><circle cx="74" cy="390" r="2"></circle><circle cx="86" cy="390" r="2"></circle><circle cx="98" cy="390" r="2"></circle><circle cx="110" cy="390" r="2"></circle><circle cx="122" cy="390" r="2"></circle><circle cx="134" cy="390" r="2"></circle><circle cx="146" cy="390" r="2"></circle><circle cx="158" cy="392" r="2"></circle><circle cx="170" cy="393" r="2"></circle><circle cx="182" cy="394" r="2"></circle><circle cx="194" cy="394" r="2"></circle><circle cx="206" cy="395" r="2"></circle><circle cx="218" cy="397" r="2"></circle><circle cx="230" cy="398" r="2"></circle><circle cx="242" cy="398" r="2"></circle><circle cx="255" cy="399" r="2"></circle><circle cx="267" cy="400" r="2"></circle><circle cx="279" cy="401" r="2"></circle><circle cx="291" cy="402" r="2"></circle><circle cx="303" cy="403" r="2"></circle><circle cx="315" cy="404" r="2"></circle><circle cx="327" cy="407" r="2"></circle><circle cx="339" cy="406" r="2"></circle><circle cx="351" cy="407" r="2"></circle><circle cx="363" cy="408" r="2"></circle><circle cx="375" cy="407" r="2"></circle><circle cx="387" cy="409" r="2"></circle><circle cx="399" cy="411" r="2"></circle><circle cx="411" cy="411" r="2"></circle><circle cx="423" cy="413" r="2"></circle><circle cx="435" cy="414" r="2"></circle><circle cx="447" cy="415" r="2"></circle><circle cx="459" cy="417" r="2"></circle><circle cx="471" cy="418" r="2"></circle><circle cx="483" cy="420" r="2"></circle><circle cx="495" cy="421" r="2"></circle><circle cx="507" cy="421" r="2"></circle><circle cx="519" cy="423" r="2"></circle><circle cx="531" cy="422" r="2"></circle><circle cx="543" cy="422" r="2"></circle><circle cx="555" cy="423" r="2"></circle><circle cx="567" cy="423" r="2"></circle></g></g><g class="key-South-Asia_0"><path stroke="#9ecc8a" stroke-linecap="round" d="M38 243L50 246L62 243L74 234L86 233L98 237L110 236L122 236L134 238L146 236L158 233L170 232L182 234L194 237L206 240L218 240L230 240L242 240L255 236L267 235L279 235L291 236L303 238L315 239L327 241L339 243L351 245L363 247L375 249L387 251L399 252L411 250L423 246L435 244L447 244L459 246L471 247L483 249L495 256L507 264L519 272L531 281L543 280L555 296L567 295" fill="none" stroke-width="1.5"></path><g fill="#9ecc8a"><circle cx="38" cy="243" r="2"></circle><circle cx="50" cy="246" r="2"></circle><circle cx="62" cy="243" r="2"></circle><circle cx="74" cy="234" r="2"></circle><circle cx="86" cy="233" r="2"></circle><circle cx="98" cy="237" r="2"></circle><circle cx="110" cy="236" r="2"></circle><circle cx="122" cy="236" r="2"></circle><circle cx="134" cy="238" r="2"></circle><circle cx="146" cy="236" r="2"></circle><circle cx="158" cy="233" r="2"></circle><circle cx="170" cy="232" r="2"></circle><circle cx="182" cy="234" r="2"></circle><circle cx="194" cy="237" r="2"></circle><circle cx="206" cy="240" r="2"></circle><circle cx="218" cy="240" r="2"></circle><circle cx="230" cy="240" r="2"></circle><circle cx="242" cy="240" r="2"></circle><circle cx="255" cy="236" r="2"></circle><circle cx="267" cy="235" r="2"></circle><circle cx="279" cy="235" r="2"></circle><circle cx="291" cy="236" r="2"></circle><circle cx="303" cy="238" r="2"></circle><circle cx="315" cy="239" r="2"></circle><circle cx="327" cy="241" r="2"></circle><circle cx="339" cy="243" r="2"></circle><circle cx="351" cy="245" r="2"></circle><circle cx="363" cy="247" r="2"></circle><circle cx="375" cy="249" r="2"></circle><circle cx="387" cy="251" r="2"></circle><circle cx="399" cy="252" r="2"></circle><circle cx="411" cy="250" r="2"></circle><circle cx="423" cy="246" r="2"></circle><circle cx="435" cy="244" r="2"></circle><circle cx="447" cy="244" r="2"></circle><circle cx="459" cy="246" r="2"></circle><circle cx="471" cy="247" r="2"></circle><circle cx="483" cy="249" r="2"></circle><circle cx="495" cy="256" r="2"></circle><circle cx="507" cy="264" r="2"></circle><circle cx="519" cy="272" r="2"></circle><circle cx="531" cy="281" r="2"></circle><circle cx="543" cy="280" r="2"></circle><circle cx="555" cy="296" r="2"></circle><circle cx="567" cy="295" r="2"></circle></g></g><g class="key-Sub__002dSaharan-Africa_0"><path stroke="#ffd53e" stroke-linecap="round" d="M38 275L50 275L62 276L74 276L86 276L98 275L110 273L122 271L134 279L146 279L158 273L170 272L182 272L194 274L206 275L218 274L230 276L242 273L255 276L267 284L279 278L291 279L303 279L315 275L327 267L339 264L351 264L363 246L375 242L387 243L399 234L411 232L423 227L435 226L447 230L459 230L471 224L483 218L495 221L507 225L519 234L531 234L543 239L555 239L567 240" fill="none" stroke-width="1.5"></path><g fill="#ffd53e"><circle cx="38" cy="275" r="2"></circle><circle cx="50" cy="275" r="2"></circle><circle cx="62" cy="276" r="2"></circle><circle cx="74" cy="276" r="2"></circle><circle cx="86" cy="276" r="2"></circle><circle cx="98" cy="275" r="2"></circle><circle cx="110" cy="273" r="2"></circle><circle cx="122" cy="271" r="2"></circle><circle cx="134" cy="279" r="2"></circle><circle cx="146" cy="279" r="2"></circle><circle cx="158" cy="273" r="2"></circle><circle cx="170" cy="272" r="2"></circle><circle cx="182" cy="272" r="2"></circle><circle cx="194" cy="274" r="2"></circle><circle cx="206" cy="275" r="2"></circle><circle cx="218" cy="274" r="2"></circle><circle cx="230" cy="276" r="2"></circle><circle cx="242" cy="273" r="2"></circle><circle cx="255" cy="276" r="2"></circle><circle cx="267" cy="284" r="2"></circle><circle cx="279" cy="278" r="2"></circle><circle cx="291" cy="279" r="2"></circle><circle cx="303" cy="279" r="2"></circle><circle cx="315" cy="275" r="2"></circle><circle cx="327" cy="267" r="2"></circle><circle cx="339" cy="264" r="2"></circle><circle cx="351" cy="264" r="2"></circle><circle cx="363" cy="246" r="2"></circle><circle cx="375" cy="242" r="2"></circle><circle cx="387" cy="243" r="2"></circle><circle cx="399" cy="234" r="2"></circle><circle cx="411" cy="232" r="2"></circle><circle cx="423" cy="227" r="2"></circle><circle cx="435" cy="226" r="2"></circle><circle cx="447" cy="230" r="2"></circle><circle cx="459" cy="230" r="2"></circle><circle cx="471" cy="224" r="2"></circle><circle cx="483" cy="218" r="2"></circle><circle cx="495" cy="221" r="2"></circle><circle cx="507" cy="225" r="2"></circle><circle cx="519" cy="234" r="2"></circle><circle cx="531" cy="234" r="2"></circle><circle cx="543" cy="239" r="2"></circle><circle cx="555" cy="239" r="2"></circle><circle cx="567" cy="240" r="2"></circle></g></g><g class="key-World_0"><path stroke="#e6332e" stroke-linecap="round" d="M38 336L50 335L62 338L74 334L86 333L98 332L110 332L122 331L134 333L146 332L158 334L170 336L182 338L194 341L206 342L218 343L230 344L242 345L255 346L267 349L279 349L291 350L303 350L315 350L327 349L339 349L351 348L363 348L375 346L387 347L399 348L411 350L423 352L435 352L447 355L459 356L471 357L483 357L495 358L507 360L519 362L531 364L543 364L555 367L567 367" fill="none" stroke-width="1.5"></path><g fill="#e6332e"><circle cx="38" cy="336" r="2"></circle><circle cx="50" cy="335" r="2"></circle><circle cx="62" cy="338" r="2"></circle><circle cx="74" cy="334" r="2"></circle><circle cx="86" cy="333" r="2"></circle><circle cx="98" cy="332" r="2"></circle><circle cx="110" cy="332" r="2"></circle><circle cx="122" cy="331" r="2"></circle><circle cx="134" cy="333" r="2"></circle><circle cx="146" cy="332" r="2"></circle><circle cx="158" cy="334" r="2"></circle><circle cx="170" cy="336" r="2"></circle><circle cx="182" cy="338" r="2"></circle><circle cx="194" cy="341" r="2"></circle><circle cx="206" cy="342" r="2"></circle><circle cx="218" cy="343" r="2"></circle><circle cx="230" cy="344" r="2"></circle><circle cx="242" cy="345" r="2"></circle><circle cx="255" cy="346" r="2"></circle><circle cx="267" cy="349" r="2"></circle><circle cx="279" cy="349" r="2"></circle><circle cx="291" cy="350" r="2"></circle><circle cx="303" cy="350" r="2"></circle><circle cx="315" cy="350" r="2"></circle><circle cx="327" cy="349" r="2"></circle><circle cx="339" cy="349" r="2"></circle><circle cx="351" cy="348" r="2"></circle><circle cx="363" cy="348" r="2"></circle><circle cx="375" cy="346" r="2"></circle><circle cx="387" cy="347" r="2"></circle><circle cx="399" cy="348" r="2"></circle><circle cx="411" cy="350" r="2"></circle><circle cx="423" cy="352" r="2"></circle><circle cx="435" cy="352" r="2"></circle><circle cx="447" cy="355" r="2"></circle><circle cx="459" cy="356" r="2"></circle><circle cx="471" cy="357" r="2"></circle><circle cx="483" cy="357" r="2"></circle><circle cx="495" cy="358" r="2"></circle><circle cx="507" cy="360" r="2"></circle><circle cx="519" cy="362" r="2"></circle><circle cx="531" cy="364" r="2"></circle><circle cx="543" cy="364" r="2"></circle><circle cx="555" cy="367" r="2"></circle><circle cx="567" cy="367" r="2"></circle></g></g></g></g></g><g style="fill: #777;" class="SourcesFooter"><g style="fill: #777;" class="clickable"><text font-size="12.60" x="15.0" y="581.6"><tspan x="15" y="581.58">Source: World Bank</tspan></text></g><text font-size="12.60" x="505.0" y="581.6"><tspan x="505.006" y="581.58"><a target='_blank' style='fill: #777;' href='https://ourworldindata.org/teachers-and-professors/'>OurWorldInData.org/teachers-and-professors/</a> • <a style="fill: #777;" href="http://creativecommons.org/licenses/by-sa/4.0/deed.en_US" target="_blank">CC BY-SA</a></tspan></text></g></g></svg>