<svg xmlns="http://www.w3.org/2000/svg" version="1.1" style="font-family:&#x27;Helvetica Neue&#x27;, Helvetica, Arial, sans-serif;font-size:18px;background-color:white;text-rendering:optimizeLegibility;-webkit-font-smoothing:antialiased" width="850" height="600"><g class="ChartTab"><g class="HeaderView"><g opacity="0.8" transform="translate(778, 15) scale(0.27)"><a xmlns:xlink="http://www.w3.org/1999/xlink" xlink:href="https://ourworldindata.org" target="_blank"><g><rect x="0" y="0" fill="#1B2543" width="211.2" height="130.1"/><rect x="0" y="112.2" fill="#E63912" width="211.2" height="17.9"/><g><rect x="1.2" y="12.3" fill="none" width="210.2" height="99.2"/><path fill="#FFFFFF" d="M37.8,32.2c0,12.7-7.7,19.4-17.1,19.4c-9.7,0-16.6-7.5-16.6-18.7c0-11.7,7.3-19.3,17.1-19.3 C31.3,13.7,37.8,21.3,37.8,32.2z M9.2,32.8c0,7.9,4.3,14.9,11.8,14.9c7.5,0,11.8-6.9,11.8-15.3c0-7.3-3.8-14.9-11.8-14.9 C13.1,17.5,9.2,24.8,9.2,32.8z"/><path fill="#FFFFFF" d="M62.7,43.8c0,2.7,0.1,5.1,0.2,7.2h-4.3l-0.3-4.3h-0.1c-1.3,2.1-4,4.9-8.8,4.9c-4.2,0-9.1-2.3-9.1-11.6 V24.6h4.8v14.6c0,5,1.5,8.4,5.9,8.4c3.2,0,5.5-2.2,6.3-4.4c0.3-0.7,0.4-1.6,0.4-2.5V24.6h4.8V43.8z"/><path fill="#FFFFFF" d="M67.3,32.8c0-3.1-0.1-5.8-0.2-8.2h4.2l0.2,5.2h0.2c1.2-3.5,4.1-5.8,7.3-5.8c0.5,0,0.9,0.1,1.4,0.2v4.5 c-0.5-0.1-1-0.2-1.6-0.2c-3.4,0-5.8,2.6-6.5,6.2c-0.1,0.7-0.2,1.4-0.2,2.2V51h-4.8V32.8z"/><path fill="#FFFFFF" d="M95.4,51l-9.4-36.8h5l4.4,18.6c1.1,4.6,2.1,9.2,2.7,12.7h0.1c0.6-3.7,1.8-8,3-12.8l4.9-18.5h5l4.5,18.7 c1,4.4,2,8.7,2.6,12.6h0.1c0.8-4,1.8-8.1,3-12.7l4.9-18.5h4.9L120.6,51h-5L111,31.9c-1.1-4.7-1.9-8.3-2.4-12h-0.1 c-0.7,3.7-1.5,7.3-2.8,12L100.4,51H95.4z"/><path fill="#FFFFFF" d="M154.9,37.6c0,9.8-6.8,14-13.2,14c-7.2,0-12.7-5.2-12.7-13.6c0-8.8,5.8-14,13.1-14 C149.8,24,154.9,29.5,154.9,37.6z M133.9,37.9c0,5.8,3.3,10.1,8,10.1c4.6,0,8-4.3,8-10.3c0-4.5-2.2-10.1-7.9-10.1 C136.3,27.6,133.9,32.8,133.9,37.9z"/><path fill="#FFFFFF" d="M158.2,32.8c0-3.1-0.1-5.8-0.2-8.2h4.2l0.2,5.2h0.2c1.2-3.5,4.1-5.8,7.3-5.8c0.5,0,0.9,0.1,1.4,0.2v4.5 c-0.5-0.1-1-0.2-1.6-0.2c-3.4,0-5.8,2.6-6.5,6.2c-0.1,0.7-0.2,1.4-0.2,2.2V51h-4.8V32.8z"/><path fill="#FFFFFF" d="M173.5,12.3h4.8V51h-4.8V12.3z"/><path fill="#FFFFFF" d="M206.5,12.3v31.9c0,2.3,0.1,5,0.2,6.8h-4.3l-0.2-4.6H202c-1.5,2.9-4.7,5.2-9,5.2 c-6.4,0-11.3-5.4-11.3-13.4c-0.1-8.8,5.4-14.2,11.9-14.2c4,0,6.8,1.9,8,4h0.1V12.3H206.5z M201.7,35.4c0-0.6-0.1-1.4-0.2-2 c-0.7-3.1-3.3-5.6-6.9-5.6c-5,0-7.9,4.4-7.9,10.2c0,5.3,2.6,9.8,7.8,9.8c3.2,0,6.2-2.1,7.1-5.7c0.2-0.7,0.2-1.3,0.2-2.1V35.4z"/><path fill="#FFFFFF" d="M42.8,64c0.1,1.6-1.1,2.9-3.1,2.9c-1.7,0-2.9-1.3-2.9-2.9c0-1.7,1.3-3,3-3C41.7,61,42.8,62.3,42.8,64z M37.4,97.8V71.4h4.8v26.4H37.4z"/><path fill="#FFFFFF" d="M47.5,78.6c0-2.7-0.1-5-0.2-7.1h4.3l0.3,4.4h0.1c1.3-2.5,4.4-5,8.8-5c3.7,0,9.4,2.2,9.4,11.2v15.8h-4.8 V82.6c0-4.3-1.6-7.8-6.1-7.8c-3.2,0-5.6,2.2-6.5,4.9c-0.2,0.6-0.3,1.4-0.3,2.2v15.9h-4.8V78.6z"/><path fill="#FFFFFF" d="M84,61.6c2.9-0.4,6.3-0.8,10.1-0.8c6.8,0,11.7,1.6,14.9,4.6c3.3,3,5.2,7.3,5.2,13.2c0,6-1.9,10.9-5.3,14.3 c-3.4,3.4-9.1,5.3-16.3,5.3c-3.4,0-6.2-0.2-8.6-0.4V61.6z M88.8,94.1c1.2,0.2,3,0.3,4.8,0.3c10.2,0,15.7-5.7,15.7-15.6 c0.1-8.7-4.9-14.2-14.9-14.2c-2.5,0-4.3,0.2-5.6,0.5V94.1z"/><path fill="#FFFFFF" d="M132.1,97.8l-0.4-3.3h-0.2c-1.5,2.1-4.3,3.9-8.1,3.9c-5.4,0-8.1-3.8-8.1-7.6c0-6.4,5.7-9.9,15.9-9.8v-0.5 c0-2.2-0.6-6.1-6-6.1c-2.5,0-5,0.8-6.9,2l-1.1-3.2c2.2-1.4,5.4-2.3,8.7-2.3c8.1,0,10.1,5.5,10.1,10.8v9.9c0,2.3,0.1,4.5,0.4,6.3 H132.1z M131.4,84.4c-5.3-0.1-11.2,0.8-11.2,5.9c0,3.1,2.1,4.6,4.5,4.6c3.4,0,5.6-2.2,6.4-4.4c0.2-0.5,0.3-1,0.3-1.5V84.4z"/><path fill="#FFFFFF" d="M146.6,63.9v7.6h6.9v3.7h-6.9v14.2c0,3.3,0.9,5.1,3.6,5.1c1.3,0,2.2-0.2,2.8-0.3l0.2,3.6 c-0.9,0.4-2.4,0.7-4.3,0.7c-2.2,0-4-0.7-5.2-2c-1.4-1.4-1.9-3.8-1.9-6.9V75.1h-4.1v-3.7h4.1v-6.3L146.6,63.9z"/><path fill="#FFFFFF" d="M171.4,97.8l-0.4-3.3h-0.2c-1.5,2.1-4.3,3.9-8.1,3.9c-5.4,0-8.1-3.8-8.1-7.6c0-6.4,5.7-9.9,15.9-9.8v-0.5 c0-2.2-0.6-6.1-6-6.1c-2.5,0-5,0.8-6.9,2l-1.1-3.2c2.2-1.4,5.4-2.3,8.7-2.3c8.1,0,10.1,5.5,10.1,10.8v9.9c0,2.3,0.1,4.5,0.4,6.3 H171.4z M170.7,84.4c-5.3-0.1-11.2,0.8-11.2,5.9c0,3.1,2.1,4.6,4.5,4.6c3.4,0,5.6-2.2,6.4-4.4c0.2-0.5,0.3-1,0.3-1.5V84.4z"/></g></g></a></g><a href="https://ourworldindata.org/grapher/recent-ILO-LFP" target="_blank"><text font-size="25.20" x="15.0" y="35.2" fill="#555"><tspan x="15" y="35.160000000000004">Female labor force participation rates</tspan></text></a><text font-size="14.40" x="15.0" y="53.7" fill="#666"><tspan x="15" y="53.72">Labor force participation rate is the proportion of the population ages 15 and older that is economically active. All</tspan><tspan x="15" y="69.56">figures correspond to &#x27;modeled ILO estimates&#x27; (see source for details).</tspan></text></g><g class="LineChart"><defs><clipPath id="boundsClip-665"><rect x="42.562" y="0" width="830" height="928.8"></rect></clipPath></defs><g class="AxisBoxView"><g class="HorizontalAxis"><text x="52.6" y="556.5" fill="#666" text-anchor="middle" font-size="16.2">1990</text><text x="156.9" y="556.5" fill="#666" text-anchor="middle" font-size="16.2">1995</text><text x="261.3" y="556.5" fill="#666" text-anchor="middle" font-size="16.2">2000</text><text x="365.7" y="556.5" fill="#666" text-anchor="middle" font-size="16.2">2005</text><text x="470" y="556.5" fill="#666" text-anchor="middle" font-size="16.2">2010</text><text x="574.4" y="556.5" fill="#666" text-anchor="middle" font-size="16.2">2015</text><text x="616.1" y="556.5" fill="#666" text-anchor="middle" font-size="16.2">2017</text></g><g class="VerticalAxis"><text x="47.56" y="535.3" fill="#666" dominant-baseline="middle" text-anchor="end" font-size="16.2">0%</text><text x="47.56" y="468.2" fill="#666" dominant-baseline="middle" text-anchor="end" font-size="16.2">10%</text><text x="47.56" y="401.1" fill="#666" dominant-baseline="middle" text-anchor="end" font-size="16.2">20%</text><text x="47.56" y="334" fill="#666" dominant-baseline="middle" text-anchor="end" font-size="16.2">30%</text><text x="47.56" y="267" fill="#666" dominant-baseline="middle" text-anchor="end" font-size="16.2">40%</text><text x="47.56" y="199.9" fill="#666" dominant-baseline="middle" text-anchor="end" font-size="16.2">50%</text><text x="47.56" y="132.8" fill="#666" dominant-baseline="middle" text-anchor="end" font-size="16.2">60%</text></g><g class="AxisGridLines"><line x1="52.56" y1="535.3" x2="616.13" y2="535.3" stroke="#ccc"></line><line x1="52.56" y1="468.2" x2="616.13" y2="468.2" stroke="#ddd" stroke-dasharray="3,2"></line><line x1="52.56" y1="401.1" x2="616.13" y2="401.1" stroke="#ddd" stroke-dasharray="3,2"></line><line x1="52.56" y1="334" x2="616.13" y2="334" stroke="#ddd" stroke-dasharray="3,2"></line><line x1="52.56" y1="267" x2="616.13" y2="267" stroke="#ddd" stroke-dasharray="3,2"></line><line x1="52.56" y1="199.9" x2="616.13" y2="199.9" stroke="#ddd" stroke-dasharray="3,2"></line><line x1="52.56" y1="132.8" x2="616.13" y2="132.8" stroke="#ddd" stroke-dasharray="3,2"></line></g></g><g clip-path="url(#boundsClip-665)"><g class="HeightedLegend clickable"><g class="legendMark"><g class="indicator"><line x1="621.13" y1="113.2" x2="633.63" y2="113.2" stroke="#666" stroke-width="0.5"></line><line x1="633.63" y1="113.2" x2="633.63" y2="113.2" stroke="#666" stroke-width="0.5"></line><line x1="633.63" y1="113.2" x2="646.13" y2="113.2" stroke="#666" stroke-width="0.5"></line></g><rect x="616.13" y="106.45" width="153.26" height="13.5" fill="#fff" opacity="0"></rect><text font-size="13.50" x="651.1" y="117.3" fill="#ffd53e"><tspan x="651.13" y="117.25">Sub-Saharan Africa</tspan></text></g><g class="legendMark"><g class="indicator"><line x1="621.13" y1="138.1" x2="633.63" y2="138.1" stroke="#666" stroke-width="0.5"></line><line x1="633.63" y1="138.1" x2="633.63" y2="138.1" stroke="#666" stroke-width="0.5"></line><line x1="633.63" y1="138.1" x2="646.13" y2="138.1" stroke="#666" stroke-width="0.5"></line></g><rect x="616.13" y="131.35" width="148.67000000000002" height="13.5" fill="#fff" opacity="0"></rect><text font-size="13.50" x="651.1" y="142.2" fill="#9ecc8a"><tspan x="651.13" y="142.15">East Asia &amp; Pacific</tspan></text></g><g class="legendMark"><g class="indicator"><line x1="621.13" y1="157.9" x2="633.63" y2="157.9" stroke="#666" stroke-width="0.5"></line><line x1="633.63" y1="157.9" x2="633.63" y2="157.9" stroke="#666" stroke-width="0.5"></line><line x1="633.63" y1="157.9" x2="646.13" y2="157.9" stroke="#666" stroke-width="0.5"></line></g><rect x="616.13" y="151.15" width="121.4" height="13.5" fill="#fff" opacity="0"></rect><text font-size="13.50" x="651.1" y="162.0" fill="#e6332e"><tspan x="651.13" y="161.95000000000002">North America</tspan></text></g><g class="legendMark"><g class="indicator"><line x1="621.13" y1="189.8" x2="643.63" y2="189.8" stroke="#666" stroke-width="0.5"></line><line x1="643.63" y1="189.8" x2="643.63" y2="189.8" stroke="#666" stroke-width="0.5"></line><line x1="643.63" y1="189.8" x2="646.13" y2="189.8" stroke="#666" stroke-width="0.5"></line></g><rect x="616.13" y="183.05" width="196.865" height="13.5" fill="#fff" opacity="0"></rect><text font-size="13.50" x="651.1" y="193.9" fill="#2a939b"><tspan x="651.13" y="193.85000000000002">Latin America &amp; Caribbean</tspan></text></g><g class="legendMark"><g class="indicator"><line x1="621.13" y1="192.8" x2="638.63" y2="192.8" stroke="#666" stroke-width="0.5"></line><line x1="638.63" y1="192.8" x2="638.63" y2="205.3" stroke="#666" stroke-width="0.5"></line><line x1="638.63" y1="205.3" x2="646.13" y2="205.3" stroke="#666" stroke-width="0.5"></line></g><rect x="616.13" y="198.55" width="133.01" height="13.5" fill="#fff" opacity="0"></rect><text font-size="13.50" x="651.1" y="209.4" fill="#a652ba"><tspan x="651.13" y="209.35000000000002">European Union</tspan></text></g><g class="legendMark"><g class="indicator"><line x1="621.13" y1="208.7" x2="633.63" y2="208.7" stroke="#666" stroke-width="0.5"></line><line x1="633.63" y1="208.7" x2="633.63" y2="220.8" stroke="#666" stroke-width="0.5"></line><line x1="633.63" y1="220.8" x2="646.13" y2="220.8" stroke="#666" stroke-width="0.5"></line></g><rect x="616.13" y="214.05" width="70.235" height="13.5" fill="#fff" opacity="0"></rect><text font-size="13.50" x="651.1" y="224.9" fill="#3360a9"><tspan x="651.13" y="224.85000000000002">World</tspan></text></g><g class="legendMark"><g class="indicator"><line x1="621.13" y1="209.2" x2="628.63" y2="209.2" stroke="#666" stroke-width="0.5"></line><line x1="628.63" y1="209.2" x2="628.63" y2="236.3" stroke="#666" stroke-width="0.5"></line><line x1="628.63" y1="236.3" x2="646.13" y2="236.3" stroke="#666" stroke-width="0.5"></line></g><rect x="616.13" y="229.55" width="218.87" height="13.5" fill="#fff" opacity="0"></rect><text font-size="13.50" x="651.1" y="240.4" fill="#34983f"><tspan x="651.13" y="240.35000000000002">Central Europe and the Baltics</tspan></text></g><g class="legendMark"><g class="indicator"><line x1="621.13" y1="344.2" x2="633.63" y2="344.2" stroke="#666" stroke-width="0.5"></line><line x1="633.63" y1="344.2" x2="633.63" y2="344.2" stroke="#666" stroke-width="0.5"></line><line x1="633.63" y1="344.2" x2="646.13" y2="344.2" stroke="#666" stroke-width="0.5"></line></g><rect x="616.13" y="337.45" width="100.61" height="13.5" fill="#fff" opacity="0"></rect><text font-size="13.50" x="651.1" y="348.3" fill="#ca2628"><tspan x="651.13" y="348.25">South Asia</tspan></text></g><g class="legendMark"><g class="indicator"><line x1="621.13" y1="397.1" x2="633.63" y2="397.1" stroke="#666" stroke-width="0.5"></line><line x1="633.63" y1="397.1" x2="633.63" y2="397.1" stroke="#666" stroke-width="0.5"></line><line x1="633.63" y1="397.1" x2="646.13" y2="397.1" stroke="#666" stroke-width="0.5"></line></g><rect x="616.13" y="390.35" width="193.76000000000002" height="13.5" fill="#fff" opacity="0"></rect><text font-size="13.50" x="651.1" y="401.2" fill="#3360a9"><tspan x="651.13" y="401.15000000000003">Middle East &amp; North Africa</tspan></text></g></g><g class="Lines"><rect x="53" y="92" width="564" height="443" fill="rgba(255,255,255,0)" opacity="0"></rect><g class="key-Sub__002dSaharan-Africa_0"><path stroke="#ffd53e" stroke-linecap="round" d="M53 131L73 131L94 131L115 131L136 131L157 130L178 129L199 128L220 128L240 128L261 127L282 126L303 125L324 124L345 123L366 122L387 122L407 121L428 119L449 119L470 118L491 117L512 116L533 115L554 115L574 114L595 114L616 113" fill="none" stroke-width="1.5"></path><g fill="#ffd53e"><circle cx="53" cy="131" r="2"></circle><circle cx="73" cy="131" r="2"></circle><circle cx="94" cy="131" r="2"></circle><circle cx="115" cy="131" r="2"></circle><circle cx="136" cy="131" r="2"></circle><circle cx="157" cy="130" r="2"></circle><circle cx="178" cy="129" r="2"></circle><circle cx="199" cy="128" r="2"></circle><circle cx="220" cy="128" r="2"></circle><circle cx="240" cy="128" r="2"></circle><circle cx="261" cy="127" r="2"></circle><circle cx="282" cy="126" r="2"></circle><circle cx="303" cy="125" r="2"></circle><circle cx="324" cy="124" r="2"></circle><circle cx="345" cy="123" r="2"></circle><circle cx="366" cy="122" r="2"></circle><circle cx="387" cy="122" r="2"></circle><circle cx="407" cy="121" r="2"></circle><circle cx="428" cy="119" r="2"></circle><circle cx="449" cy="119" r="2"></circle><circle cx="470" cy="118" r="2"></circle><circle cx="491" cy="117" r="2"></circle><circle cx="512" cy="116" r="2"></circle><circle cx="533" cy="115" r="2"></circle><circle cx="554" cy="115" r="2"></circle><circle cx="574" cy="114" r="2"></circle><circle cx="595" cy="114" r="2"></circle><circle cx="616" cy="113" r="2"></circle></g></g><g class="key-Middle-East-__0026-North-Africa_0"><path stroke="#3360a9" stroke-linecap="round" d="M53 419L73 418L94 418L115 417L136 415L157 415L178 417L199 417L220 417L240 412L261 410L282 409L303 409L324 406L345 403L366 400L387 400L407 397L428 400L449 399L470 399L491 401L512 400L533 400L554 402L574 400L595 397L616 397" fill="none" stroke-width="1.5"></path><g fill="#3360a9"><circle cx="53" cy="419" r="2"></circle><circle cx="73" cy="418" r="2"></circle><circle cx="94" cy="418" r="2"></circle><circle cx="115" cy="417" r="2"></circle><circle cx="136" cy="415" r="2"></circle><circle cx="157" cy="415" r="2"></circle><circle cx="178" cy="417" r="2"></circle><circle cx="199" cy="417" r="2"></circle><circle cx="220" cy="417" r="2"></circle><circle cx="240" cy="412" r="2"></circle><circle cx="261" cy="410" r="2"></circle><circle cx="282" cy="409" r="2"></circle><circle cx="303" cy="409" r="2"></circle><circle cx="324" cy="406" r="2"></circle><circle cx="345" cy="403" r="2"></circle><circle cx="366" cy="400" r="2"></circle><circle cx="387" cy="400" r="2"></circle><circle cx="407" cy="397" r="2"></circle><circle cx="428" cy="400" r="2"></circle><circle cx="449" cy="399" r="2"></circle><circle cx="470" cy="399" r="2"></circle><circle cx="491" cy="401" r="2"></circle><circle cx="512" cy="400" r="2"></circle><circle cx="533" cy="400" r="2"></circle><circle cx="554" cy="402" r="2"></circle><circle cx="574" cy="400" r="2"></circle><circle cx="595" cy="397" r="2"></circle><circle cx="616" cy="397" r="2"></circle></g></g><g class="key-Latin-America-__0026-Caribbean_0"><path stroke="#2a939b" stroke-linecap="round" d="M53 269L73 265L94 260L115 255L136 250L157 245L178 240L199 233L220 228L240 225L261 223L282 219L303 213L324 210L345 202L366 198L387 192L407 191L428 190L449 187L470 191L491 192L512 190L533 190L554 192L574 191L595 190L616 190" fill="none" stroke-width="1.5"></path><g fill="#2a939b"><circle cx="53" cy="269" r="2"></circle><circle cx="73" cy="265" r="2"></circle><circle cx="94" cy="260" r="2"></circle><circle cx="115" cy="255" r="2"></circle><circle cx="136" cy="250" r="2"></circle><circle cx="157" cy="245" r="2"></circle><circle cx="178" cy="240" r="2"></circle><circle cx="199" cy="233" r="2"></circle><circle cx="220" cy="228" r="2"></circle><circle cx="240" cy="225" r="2"></circle><circle cx="261" cy="223" r="2"></circle><circle cx="282" cy="219" r="2"></circle><circle cx="303" cy="213" r="2"></circle><circle cx="324" cy="210" r="2"></circle><circle cx="345" cy="202" r="2"></circle><circle cx="366" cy="198" r="2"></circle><circle cx="387" cy="192" r="2"></circle><circle cx="407" cy="191" r="2"></circle><circle cx="428" cy="190" r="2"></circle><circle cx="449" cy="187" r="2"></circle><circle cx="470" cy="191" r="2"></circle><circle cx="491" cy="192" r="2"></circle><circle cx="512" cy="190" r="2"></circle><circle cx="533" cy="190" r="2"></circle><circle cx="554" cy="192" r="2"></circle><circle cx="574" cy="191" r="2"></circle><circle cx="595" cy="190" r="2"></circle><circle cx="616" cy="190" r="2"></circle></g></g><g class="key-South-Asia_0"><path stroke="#ca2628" stroke-linecap="round" d="M53 314L73 315L94 315L115 313L136 312L157 315L178 315L199 316L220 316L240 318L261 319L282 316L303 313L324 310L345 306L366 302L387 310L407 319L428 327L449 334L470 342L491 346L512 350L533 348L554 347L574 345L595 343L616 344" fill="none" stroke-width="1.5"></path><g fill="#ca2628"><circle cx="53" cy="314" r="2"></circle><circle cx="73" cy="315" r="2"></circle><circle cx="94" cy="315" r="2"></circle><circle cx="115" cy="313" r="2"></circle><circle cx="136" cy="312" r="2"></circle><circle cx="157" cy="315" r="2"></circle><circle cx="178" cy="315" r="2"></circle><circle cx="199" cy="316" r="2"></circle><circle cx="220" cy="316" r="2"></circle><circle cx="240" cy="318" r="2"></circle><circle cx="261" cy="319" r="2"></circle><circle cx="282" cy="316" r="2"></circle><circle cx="303" cy="313" r="2"></circle><circle cx="324" cy="310" r="2"></circle><circle cx="345" cy="306" r="2"></circle><circle cx="366" cy="302" r="2"></circle><circle cx="387" cy="310" r="2"></circle><circle cx="407" cy="319" r="2"></circle><circle cx="428" cy="327" r="2"></circle><circle cx="449" cy="334" r="2"></circle><circle cx="470" cy="342" r="2"></circle><circle cx="491" cy="346" r="2"></circle><circle cx="512" cy="350" r="2"></circle><circle cx="533" cy="348" r="2"></circle><circle cx="554" cy="347" r="2"></circle><circle cx="574" cy="345" r="2"></circle><circle cx="595" cy="343" r="2"></circle><circle cx="616" cy="344" r="2"></circle></g></g><g class="key-North-America_0"><path stroke="#e6332e" stroke-linecap="round" d="M53 157L73 158L94 156L115 155L136 150L157 149L178 147L199 143L220 142L240 141L261 140L282 141L303 141L324 141L345 143L366 143L387 142L407 142L428 141L449 143L470 147L491 150L512 152L533 154L554 155L574 157L595 156L616 158" fill="none" stroke-width="1.5"></path><g fill="#e6332e"><circle cx="53" cy="157" r="2"></circle><circle cx="73" cy="158" r="2"></circle><circle cx="94" cy="156" r="2"></circle><circle cx="115" cy="155" r="2"></circle><circle cx="136" cy="150" r="2"></circle><circle cx="157" cy="149" r="2"></circle><circle cx="178" cy="147" r="2"></circle><circle cx="199" cy="143" r="2"></circle><circle cx="220" cy="142" r="2"></circle><circle cx="240" cy="141" r="2"></circle><circle cx="261" cy="140" r="2"></circle><circle cx="282" cy="141" r="2"></circle><circle cx="303" cy="141" r="2"></circle><circle cx="324" cy="141" r="2"></circle><circle cx="345" cy="143" r="2"></circle><circle cx="366" cy="143" r="2"></circle><circle cx="387" cy="142" r="2"></circle><circle cx="407" cy="142" r="2"></circle><circle cx="428" cy="141" r="2"></circle><circle cx="449" cy="143" r="2"></circle><circle cx="470" cy="147" r="2"></circle><circle cx="491" cy="150" r="2"></circle><circle cx="512" cy="152" r="2"></circle><circle cx="533" cy="154" r="2"></circle><circle cx="554" cy="155" r="2"></circle><circle cx="574" cy="157" r="2"></circle><circle cx="595" cy="156" r="2"></circle><circle cx="616" cy="158" r="2"></circle></g></g><g class="key-Central-Europe-and-the-Baltics_0"><path stroke="#34983f" stroke-linecap="round" d="M53 168L73 169L94 169L115 174L136 179L157 184L178 191L199 194L220 197L240 198L261 197L282 197L303 209L324 212L345 215L366 217L387 217L407 218L428 218L449 216L470 213L491 214L512 211L533 211L554 208L574 208L595 208L616 209" fill="none" stroke-width="1.5"></path><g fill="#34983f"><circle cx="53" cy="168" r="2"></circle><circle cx="73" cy="169" r="2"></circle><circle cx="94" cy="169" r="2"></circle><circle cx="115" cy="174" r="2"></circle><circle cx="136" cy="179" r="2"></circle><circle cx="157" cy="184" r="2"></circle><circle cx="178" cy="191" r="2"></circle><circle cx="199" cy="194" r="2"></circle><circle cx="220" cy="197" r="2"></circle><circle cx="240" cy="198" r="2"></circle><circle cx="261" cy="197" r="2"></circle><circle cx="282" cy="197" r="2"></circle><circle cx="303" cy="209" r="2"></circle><circle cx="324" cy="212" r="2"></circle><circle cx="345" cy="215" r="2"></circle><circle cx="366" cy="217" r="2"></circle><circle cx="387" cy="217" r="2"></circle><circle cx="407" cy="218" r="2"></circle><circle cx="428" cy="218" r="2"></circle><circle cx="449" cy="216" r="2"></circle><circle cx="470" cy="213" r="2"></circle><circle cx="491" cy="214" r="2"></circle><circle cx="512" cy="211" r="2"></circle><circle cx="533" cy="211" r="2"></circle><circle cx="554" cy="208" r="2"></circle><circle cx="574" cy="208" r="2"></circle><circle cx="595" cy="208" r="2"></circle><circle cx="616" cy="209" r="2"></circle></g></g><g class="key-European-Union_0"><path stroke="#a652ba" stroke-linecap="round" d="M53 225L73 221L94 222L115 223L136 223L157 223L178 223L199 222L220 220L240 217L261 215L282 216L303 215L324 212L345 211L366 208L387 206L407 204L428 202L449 200L470 199L491 198L512 196L533 195L554 194L574 194L595 192L616 193" fill="none" stroke-width="1.5"></path><g fill="#a652ba"><circle cx="53" cy="225" r="2"></circle><circle cx="73" cy="221" r="2"></circle><circle cx="94" cy="222" r="2"></circle><circle cx="115" cy="223" r="2"></circle><circle cx="136" cy="223" r="2"></circle><circle cx="157" cy="223" r="2"></circle><circle cx="178" cy="223" r="2"></circle><circle cx="199" cy="222" r="2"></circle><circle cx="220" cy="220" r="2"></circle><circle cx="240" cy="217" r="2"></circle><circle cx="261" cy="215" r="2"></circle><circle cx="282" cy="216" r="2"></circle><circle cx="303" cy="215" r="2"></circle><circle cx="324" cy="212" r="2"></circle><circle cx="345" cy="211" r="2"></circle><circle cx="366" cy="208" r="2"></circle><circle cx="387" cy="206" r="2"></circle><circle cx="407" cy="204" r="2"></circle><circle cx="428" cy="202" r="2"></circle><circle cx="449" cy="200" r="2"></circle><circle cx="470" cy="199" r="2"></circle><circle cx="491" cy="198" r="2"></circle><circle cx="512" cy="196" r="2"></circle><circle cx="533" cy="195" r="2"></circle><circle cx="554" cy="194" r="2"></circle><circle cx="574" cy="194" r="2"></circle><circle cx="595" cy="192" r="2"></circle><circle cx="616" cy="193" r="2"></circle></g></g><g class="key-East-Asia-__0026-Pacific_0"><path stroke="#9ecc8a" stroke-linecap="round" d="M53 94L73 93L94 92L115 93L136 93L157 94L178 95L199 95L220 97L240 98L261 100L282 103L303 107L324 111L345 115L366 117L387 120L407 122L428 124L449 127L470 129L491 129L512 131L533 132L554 133L574 136L595 136L616 138" fill="none" stroke-width="1.5"></path><g fill="#9ecc8a"><circle cx="53" cy="94" r="2"></circle><circle cx="73" cy="93" r="2"></circle><circle cx="94" cy="92" r="2"></circle><circle cx="115" cy="93" r="2"></circle><circle cx="136" cy="93" r="2"></circle><circle cx="157" cy="94" r="2"></circle><circle cx="178" cy="95" r="2"></circle><circle cx="199" cy="95" r="2"></circle><circle cx="220" cy="97" r="2"></circle><circle cx="240" cy="98" r="2"></circle><circle cx="261" cy="100" r="2"></circle><circle cx="282" cy="103" r="2"></circle><circle cx="303" cy="107" r="2"></circle><circle cx="324" cy="111" r="2"></circle><circle cx="345" cy="115" r="2"></circle><circle cx="366" cy="117" r="2"></circle><circle cx="387" cy="120" r="2"></circle><circle cx="407" cy="122" r="2"></circle><circle cx="428" cy="124" r="2"></circle><circle cx="449" cy="127" r="2"></circle><circle cx="470" cy="129" r="2"></circle><circle cx="491" cy="129" r="2"></circle><circle cx="512" cy="131" r="2"></circle><circle cx="533" cy="132" r="2"></circle><circle cx="554" cy="133" r="2"></circle><circle cx="574" cy="136" r="2"></circle><circle cx="595" cy="136" r="2"></circle><circle cx="616" cy="138" r="2"></circle></g></g><g class="key-World_0"><path stroke="#3360a9" stroke-linecap="round" d="M53 191L73 190L94 190L115 191L136 190L157 191L178 191L199 191L220 192L240 191L261 192L282 192L303 193L324 193L345 193L366 192L387 194L407 197L428 199L449 201L470 204L491 206L512 207L533 207L554 208L574 208L595 207L616 209" fill="none" stroke-width="1.5"></path><g fill="#3360a9"><circle cx="53" cy="191" r="2"></circle><circle cx="73" cy="190" r="2"></circle><circle cx="94" cy="190" r="2"></circle><circle cx="115" cy="191" r="2"></circle><circle cx="136" cy="190" r="2"></circle><circle cx="157" cy="191" r="2"></circle><circle cx="178" cy="191" r="2"></circle><circle cx="199" cy="191" r="2"></circle><circle cx="220" cy="192" r="2"></circle><circle cx="240" cy="191" r="2"></circle><circle cx="261" cy="192" r="2"></circle><circle cx="282" cy="192" r="2"></circle><circle cx="303" cy="193" r="2"></circle><circle cx="324" cy="193" r="2"></circle><circle cx="345" cy="193" r="2"></circle><circle cx="366" cy="192" r="2"></circle><circle cx="387" cy="194" r="2"></circle><circle cx="407" cy="197" r="2"></circle><circle cx="428" cy="199" r="2"></circle><circle cx="449" cy="201" r="2"></circle><circle cx="470" cy="204" r="2"></circle><circle cx="491" cy="206" r="2"></circle><circle cx="512" cy="207" r="2"></circle><circle cx="533" cy="207" r="2"></circle><circle cx="554" cy="208" r="2"></circle><circle cx="574" cy="208" r="2"></circle><circle cx="595" cy="207" r="2"></circle><circle cx="616" cy="209" r="2"></circle></g></g></g></g></g><g class="SourcesFooter" style="fill:#777"><g class="clickable" style="fill:#777"><text font-size="12.60" x="15.0" y="581.6"><tspan x="15" y="581.58">Source: World Bank</tspan></text></g><text font-size="12.60" x="775.4" y="581.6"><tspan x="775.402" y="581.58"><a style="fill: #777;" class="cclogo" href="http://creativecommons.org/licenses/by-sa/4.0/deed.en_US" target="_blank">CC BY-SA</a></tspan></text></g></g></svg>