<svg xmlns="http://www.w3.org/2000/svg" version="1.1" style="font-family:&#x27;Helvetica Neue&#x27;, Helvetica, Arial, sans-serif;font-size:18px;background-color:white;text-rendering:optimizeLegibility;-webkit-font-smoothing:antialiased" width="850" height="600"><g class="ChartTab"><g class="HeaderView"><g opacity="0.8" transform="translate(778, 15) scale(0.27)"><a xmlns:xlink="http://www.w3.org/1999/xlink" xlink:href="https://ourworldindata.org" target="_blank"><g><rect x="0" y="0" fill="#1B2543" width="211.2" height="130.1"/><rect x="0" y="112.2" fill="#E63912" width="211.2" height="17.9"/><g><rect x="1.2" y="12.3" fill="none" width="210.2" height="99.2"/><path fill="#FFFFFF" d="M37.8,32.2c0,12.7-7.7,19.4-17.1,19.4c-9.7,0-16.6-7.5-16.6-18.7c0-11.7,7.3-19.3,17.1-19.3 C31.3,13.7,37.8,21.3,37.8,32.2z M9.2,32.8c0,7.9,4.3,14.9,11.8,14.9c7.5,0,11.8-6.9,11.8-15.3c0-7.3-3.8-14.9-11.8-14.9 C13.1,17.5,9.2,24.8,9.2,32.8z"/><path fill="#FFFFFF" d="M62.7,43.8c0,2.7,0.1,5.1,0.2,7.2h-4.3l-0.3-4.3h-0.1c-1.3,2.1-4,4.9-8.8,4.9c-4.2,0-9.1-2.3-9.1-11.6 V24.6h4.8v14.6c0,5,1.5,8.4,5.9,8.4c3.2,0,5.5-2.2,6.3-4.4c0.3-0.7,0.4-1.6,0.4-2.5V24.6h4.8V43.8z"/><path fill="#FFFFFF" d="M67.3,32.8c0-3.1-0.1-5.8-0.2-8.2h4.2l0.2,5.2h0.2c1.2-3.5,4.1-5.8,7.3-5.8c0.5,0,0.9,0.1,1.4,0.2v4.5 c-0.5-0.1-1-0.2-1.6-0.2c-3.4,0-5.8,2.6-6.5,6.2c-0.1,0.7-0.2,1.4-0.2,2.2V51h-4.8V32.8z"/><path fill="#FFFFFF" d="M95.4,51l-9.4-36.8h5l4.4,18.6c1.1,4.6,2.1,9.2,2.7,12.7h0.1c0.6-3.7,1.8-8,3-12.8l4.9-18.5h5l4.5,18.7 c1,4.4,2,8.7,2.6,12.6h0.1c0.8-4,1.8-8.1,3-12.7l4.9-18.5h4.9L120.6,51h-5L111,31.9c-1.1-4.7-1.9-8.3-2.4-12h-0.1 c-0.7,3.7-1.5,7.3-2.8,12L100.4,51H95.4z"/><path fill="#FFFFFF" d="M154.9,37.6c0,9.8-6.8,14-13.2,14c-7.2,0-12.7-5.2-12.7-13.6c0-8.8,5.8-14,13.1-14 C149.8,24,154.9,29.5,154.9,37.6z M133.9,37.9c0,5.8,3.3,10.1,8,10.1c4.6,0,8-4.3,8-10.3c0-4.5-2.2-10.1-7.9-10.1 C136.3,27.6,133.9,32.8,133.9,37.9z"/><path fill="#FFFFFF" d="M158.2,32.8c0-3.1-0.1-5.8-0.2-8.2h4.2l0.2,5.2h0.2c1.2-3.5,4.1-5.8,7.3-5.8c0.5,0,0.9,0.1,1.4,0.2v4.5 c-0.5-0.1-1-0.2-1.6-0.2c-3.4,0-5.8,2.6-6.5,6.2c-0.1,0.7-0.2,1.4-0.2,2.2V51h-4.8V32.8z"/><path fill="#FFFFFF" d="M173.5,12.3h4.8V51h-4.8V12.3z"/><path fill="#FFFFFF" d="M206.5,12.3v31.9c0,2.3,0.1,5,0.2,6.8h-4.3l-0.2-4.6H202c-1.5,2.9-4.7,5.2-9,5.2 c-6.4,0-11.3-5.4-11.3-13.4c-0.1-8.8,5.4-14.2,11.9-14.2c4,0,6.8,1.9,8,4h0.1V12.3H206.5z M201.7,35.4c0-0.6-0.1-1.4-0.2-2 c-0.7-3.1-3.3-5.6-6.9-5.6c-5,0-7.9,4.4-7.9,10.2c0,5.3,2.6,9.8,7.8,9.8c3.2,0,6.2-2.1,7.1-5.7c0.2-0.7,0.2-1.3,0.2-2.1V35.4z"/><path fill="#FFFFFF" d="M42.8,64c0.1,1.6-1.1,2.9-3.1,2.9c-1.7,0-2.9-1.3-2.9-2.9c0-1.7,1.3-3,3-3C41.7,61,42.8,62.3,42.8,64z M37.4,97.8V71.4h4.8v26.4H37.4z"/><path fill="#FFFFFF" d="M47.5,78.6c0-2.7-0.1-5-0.2-7.1h4.3l0.3,4.4h0.1c1.3-2.5,4.4-5,8.8-5c3.7,0,9.4,2.2,9.4,11.2v15.8h-4.8 V82.6c0-4.3-1.6-7.8-6.1-7.8c-3.2,0-5.6,2.2-6.5,4.9c-0.2,0.6-0.3,1.4-0.3,2.2v15.9h-4.8V78.6z"/><path fill="#FFFFFF" d="M84,61.6c2.9-0.4,6.3-0.8,10.1-0.8c6.8,0,11.7,1.6,14.9,4.6c3.3,3,5.2,7.3,5.2,13.2c0,6-1.9,10.9-5.3,14.3 c-3.4,3.4-9.1,5.3-16.3,5.3c-3.4,0-6.2-0.2-8.6-0.4V61.6z M88.8,94.1c1.2,0.2,3,0.3,4.8,0.3c10.2,0,15.7-5.7,15.7-15.6 c0.1-8.7-4.9-14.2-14.9-14.2c-2.5,0-4.3,0.2-5.6,0.5V94.1z"/><path fill="#FFFFFF" d="M132.1,97.8l-0.4-3.3h-0.2c-1.5,2.1-4.3,3.9-8.1,3.9c-5.4,0-8.1-3.8-8.1-7.6c0-6.4,5.7-9.9,15.9-9.8v-0.5 c0-2.2-0.6-6.1-6-6.1c-2.5,0-5,0.8-6.9,2l-1.1-3.2c2.2-1.4,5.4-2.3,8.7-2.3c8.1,0,10.1,5.5,10.1,10.8v9.9c0,2.3,0.1,4.5,0.4,6.3 H132.1z M131.4,84.4c-5.3-0.1-11.2,0.8-11.2,5.9c0,3.1,2.1,4.6,4.5,4.6c3.4,0,5.6-2.2,6.4-4.4c0.2-0.5,0.3-1,0.3-1.5V84.4z"/><path fill="#FFFFFF" d="M146.6,63.9v7.6h6.9v3.7h-6.9v14.2c0,3.3,0.9,5.1,3.6,5.1c1.3,0,2.2-0.2,2.8-0.3l0.2,3.6 c-0.9,0.4-2.4,0.7-4.3,0.7c-2.2,0-4-0.7-5.2-2c-1.4-1.4-1.9-3.8-1.9-6.9V75.1h-4.1v-3.7h4.1v-6.3L146.6,63.9z"/><path fill="#FFFFFF" d="M171.4,97.8l-0.4-3.3h-0.2c-1.5,2.1-4.3,3.9-8.1,3.9c-5.4,0-8.1-3.8-8.1-7.6c0-6.4,5.7-9.9,15.9-9.8v-0.5 c0-2.2-0.6-6.1-6-6.1c-2.5,0-5,0.8-6.9,2l-1.1-3.2c2.2-1.4,5.4-2.3,8.7-2.3c8.1,0,10.1,5.5,10.1,10.8v9.9c0,2.3,0.1,4.5,0.4,6.3 H171.4z M170.7,84.4c-5.3-0.1-11.2,0.8-11.2,5.9c0,3.1,2.1,4.6,4.5,4.6c3.4,0,5.6-2.2,6.4-4.4c0.2-0.5,0.3-1,0.3-1.5V84.4z"/></g></g></a></g><a href="https://ourworldindata.org/grapher/renewable-energy-investment?country=Americas%20(excl.%20US%20and%20Brazil)+Asia%20and%20Oceania%20(excl.%20China%20and%20India)+BRA+CHN+Europe+IND+Middle%20East%20and%20Africa+United%20States%20of%20America" target="_blank"><text font-size="25.20" x="15.0" y="35.2" fill="#555"><tspan x="15" y="35.160000000000004">Renewable Energy Investment</tspan></text></a><text font-size="14.40" x="15.0" y="53.7" fill="#666"><tspan x="15" y="53.72">Investment in renewable energy technologies per year in billion US dollars by region.</tspan></text></g><g class="StackedArea"><defs><clipPath id="boundsClip-166"><rect x="102.296" y="0" width="820" height="959.8"></rect></clipPath></defs><g class="AxisBoxView"><g class="HorizontalAxis"><text x="102.3" y="556.5" fill="#666" text-anchor="middle" font-size="16.2">2004</text><text x="208.3" y="556.5" fill="#666" text-anchor="middle" font-size="16.2">2006</text><text x="314.2" y="556.5" fill="#666" text-anchor="middle" font-size="16.2">2008</text><text x="420.2" y="556.5" fill="#666" text-anchor="middle" font-size="16.2">2010</text><text x="526.2" y="556.5" fill="#666" text-anchor="middle" font-size="16.2">2012</text><text x="632.1" y="556.5" fill="#666" text-anchor="middle" font-size="16.2">2014</text><text x="685.1" y="556.5" fill="#666" text-anchor="middle" font-size="16.2">2015</text></g><g class="VerticalAxis"><text x="97.30" y="535.3" fill="#666" dominant-baseline="middle" text-anchor="end" font-size="16.2">$0</text><text x="97.30" y="455.1" fill="#666" dominant-baseline="middle" text-anchor="end" font-size="16.2">$50 billion</text><text x="97.30" y="374.9" fill="#666" dominant-baseline="middle" text-anchor="end" font-size="16.2">$100 billion</text><text x="97.30" y="294.7" fill="#666" dominant-baseline="middle" text-anchor="end" font-size="16.2">$150 billion</text><text x="97.30" y="214.5" fill="#666" dominant-baseline="middle" text-anchor="end" font-size="16.2">$200 billion</text><text x="97.30" y="134.2" fill="#666" dominant-baseline="middle" text-anchor="end" font-size="16.2">$250 billion</text></g><g class="AxisGridLines"><line x1="102.30" y1="535.3" x2="685.12" y2="535.3" stroke="#ccc"></line><line x1="102.30" y1="455.1" x2="685.12" y2="455.1" stroke="#ddd" stroke-dasharray="3,2"></line><line x1="102.30" y1="374.9" x2="685.12" y2="374.9" stroke="#ddd" stroke-dasharray="3,2"></line><line x1="102.30" y1="294.7" x2="685.12" y2="294.7" stroke="#ddd" stroke-dasharray="3,2"></line><line x1="102.30" y1="214.5" x2="685.12" y2="214.5" stroke="#ddd" stroke-dasharray="3,2"></line><line x1="102.30" y1="134.2" x2="685.12" y2="134.2" stroke="#ddd" stroke-dasharray="3,2"></line></g></g><g clip-path="url(#boundsClip-166)"><g class="HeightedLegend clickable"><g class="legendMark"><g class="indicator"><line x1="690.115" y1="86.9" x2="702.615" y2="86.9" stroke="#666" stroke-width="0.5"></line><line x1="702.615" y1="86.9" x2="702.615" y2="86.9" stroke="#666" stroke-width="0.5"></line><line x1="702.615" y1="86.9" x2="715.115" y2="86.9" stroke="#666" stroke-width="0.5"></line></g><rect x="685.115" y="72.85000000000001" width="149.885" height="28.1" fill="#fff" opacity="0"></rect><text font-size="13.50" x="720.1" y="83.7" fill="#34983f"><tspan x="720.115" y="83.65">Americas (excl. US</tspan><tspan x="720.115" y="98.5">and Brazil)</tspan></text></g><g class="legendMark"><g class="indicator"><line x1="690.115" y1="135.3" x2="702.615" y2="135.3" stroke="#666" stroke-width="0.5"></line><line x1="702.615" y1="135.3" x2="702.615" y2="135.3" stroke="#666" stroke-width="0.5"></line><line x1="702.615" y1="135.3" x2="715.115" y2="135.3" stroke="#666" stroke-width="0.5"></line></g><rect x="685.115" y="113.95000000000002" width="142.055" height="42.7" fill="#fff" opacity="0"></rect><text font-size="13.50" x="720.1" y="124.8" fill="#932834"><tspan x="720.115" y="124.75000000000001">Asia and Oceania</tspan><tspan x="720.115" y="139.60000000000002">(excl. China and</tspan><tspan x="720.115" y="154.45000000000002">India)</tspan></text></g><g class="legendMark"><g class="indicator"><line x1="690.115" y1="179.2" x2="702.615" y2="179.2" stroke="#666" stroke-width="0.5"></line><line x1="702.615" y1="179.2" x2="702.615" y2="179.2" stroke="#666" stroke-width="0.5"></line><line x1="702.615" y1="179.2" x2="715.115" y2="179.2" stroke="#666" stroke-width="0.5"></line></g><rect x="685.115" y="172.45" width="68.75" height="13.5" fill="#fff" opacity="0"></rect><text font-size="13.50" x="720.1" y="183.3" fill="#9ecc8a"><tspan x="720.115" y="183.25">Brazil</tspan></text></g><g class="legendMark"><g class="indicator"><line x1="690.115" y1="267.5" x2="702.615" y2="267.5" stroke="#666" stroke-width="0.5"></line><line x1="702.615" y1="267.5" x2="702.615" y2="267.5" stroke="#666" stroke-width="0.5"></line><line x1="702.615" y1="267.5" x2="715.115" y2="267.5" stroke="#666" stroke-width="0.5"></line></g><rect x="685.115" y="260.75" width="70.37" height="13.5" fill="#fff" opacity="0"></rect><text font-size="13.50" x="720.1" y="271.6" fill="#ca2628"><tspan x="720.115" y="271.55">China</tspan></text></g><g class="legendMark"><g class="indicator"><line x1="690.115" y1="389.1" x2="702.615" y2="389.1" stroke="#666" stroke-width="0.5"></line><line x1="702.615" y1="389.1" x2="702.615" y2="389.1" stroke="#666" stroke-width="0.5"></line><line x1="702.615" y1="389.1" x2="715.115" y2="389.1" stroke="#666" stroke-width="0.5"></line></g><rect x="685.115" y="382.35" width="78.74000000000001" height="13.5" fill="#fff" opacity="0"></rect><text font-size="13.50" x="720.1" y="393.2" fill="#ffd53e"><tspan x="720.115" y="393.15000000000003">Europe</tspan></text></g><g class="legendMark"><g class="indicator"><line x1="690.115" y1="436.4" x2="712.615" y2="436.4" stroke="#666" stroke-width="0.5"></line><line x1="712.615" y1="436.4" x2="712.615" y2="436.4" stroke="#666" stroke-width="0.5"></line><line x1="712.615" y1="436.4" x2="715.115" y2="436.4" stroke="#666" stroke-width="0.5"></line></g><rect x="685.115" y="429.65" width="64.43" height="13.5" fill="#fff" opacity="0"></rect><text font-size="13.50" x="720.1" y="440.4" fill="#f6a324"><tspan x="720.115" y="440.45">India</tspan></text></g><g class="legendMark"><g class="indicator"><line x1="690.115" y1="454.5" x2="702.615" y2="454.5" stroke="#666" stroke-width="0.5"></line><line x1="702.615" y1="454.5" x2="702.615" y2="459.2" stroke="#666" stroke-width="0.5"></line><line x1="702.615" y1="459.2" x2="715.115" y2="459.2" stroke="#666" stroke-width="0.5"></line></g><rect x="685.115" y="445.15" width="132.2" height="28.1" fill="#fff" opacity="0"></rect><text font-size="13.50" x="720.1" y="455.9" fill="#d26e66"><tspan x="720.115" y="455.95">Middle East and</tspan><tspan x="720.115" y="470.8">Africa</tspan></text></g><g class="legendMark"><g class="indicator"><line x1="690.115" y1="499.9" x2="702.615" y2="499.9" stroke="#666" stroke-width="0.5"></line><line x1="702.615" y1="499.9" x2="702.615" y2="499.9" stroke="#666" stroke-width="0.5"></line><line x1="702.615" y1="499.9" x2="715.115" y2="499.9" stroke="#666" stroke-width="0.5"></line></g><rect x="685.115" y="485.84999999999997" width="131.525" height="28.1" fill="#fff" opacity="0"></rect><text font-size="13.50" x="720.1" y="496.6" fill="#2a939b"><tspan x="720.115" y="496.65">United States of</tspan><tspan x="720.115" y="511.5">America</tspan></text></g></g><g class="Areas"><rect x="102.296" y="76.6" width="582.819" height="458.69999999999993" opacity="0" fill="rgba(255,255,255,0)"></rect><path class="United-States-of-America_0-area" stroke-linecap="round" d="M102.3 526.4L155.3 516.3L208.3 488.7L261.2 482L314.2 478.4L367.2 496.9L420.2 479.6L473.2 456.6L526.2 470.1L579.1 478.6L632.1 475.9L685.1 464.5L685.115 535.3L102.296 535.3" fill="#2a939b" fill-opacity="0.7"></path><path class="Middle-East-and-Africa_0-area" stroke-linecap="round" d="M102.3 525.5L155.3 515L208.3 486.9L261.2 479.1L314.2 474.7L367.2 494.3L420.2 473.1L473.2 451.8L526.2 453.8L579.1 463.8L632.1 463.2L685.1 444.5L685.1 464.5L632.1 475.9L579.1 478.6L526.2 470.1L473.2 456.6L420.2 479.6L367.2 496.9L314.2 478.4L261.2 482L208.3 488.7L155.3 516.3L102.3 526.4" fill="#d26e66" fill-opacity="0.7"></path><path class="India_0-area" stroke-linecap="round" d="M102.3 521.1L155.3 510.1L208.3 479.1L261.2 468.3L314.2 465.7L367.2 487.4L420.2 458.9L473.2 431.3L526.2 441.3L579.1 453.2L632.1 449.9L685.1 428.2L685.1 444.5L632.1 463.2L579.1 463.8L526.2 453.8L473.2 451.8L420.2 473.1L367.2 494.3L314.2 474.7L261.2 479.1L208.3 486.9L155.3 515L102.3 525.5" fill="#f6a324" fill-opacity="0.7"></path><path class="Europe_0-area" stroke-linecap="round" d="M102.3 481.3L155.3 456.6L208.3 403.9L261.2 361.2L314.2 334.5L367.2 354.8L420.2 277L473.2 234.2L526.2 298.4L579.1 357L632.1 350.4L685.1 350L685.1 428.2L632.1 449.9L579.1 453.2L526.2 441.3L473.2 431.3L420.2 458.9L367.2 487.4L314.2 465.7L261.2 468.3L208.3 479.1L155.3 510.1L102.3 521.1" fill="#ffd53e" fill-opacity="0.7"></path><path class="China_0-area" stroke-linecap="round" d="M102.3 476.5L155.3 443.3L208.3 385.8L261.2 334.3L314.2 293.4L367.2 292.6L420.2 213.4L473.2 158.1L526.2 199.4L579.1 257.5L632.1 209.6L685.1 184.9L685.1 350L632.1 350.4L579.1 357L526.2 298.4L473.2 234.2L420.2 277L367.2 354.8L314.2 334.5L261.2 361.2L208.3 403.9L155.3 456.6L102.3 481.3" fill="#ca2628" fill-opacity="0.7"></path><path class="Brazil_0-area" stroke-linecap="round" d="M102.3 475.1L155.3 438.3L208.3 377.6L261.2 316.1L314.2 274.6L367.2 279.9L420.2 201.8L473.2 141.7L526.2 187.1L579.1 250.5L632.1 196.8L685.1 173.5L685.1 184.9L632.1 209.6L579.1 257.5L526.2 199.4L473.2 158.1L420.2 213.4L367.2 292.6L314.2 293.4L261.2 334.3L208.3 385.8L155.3 443.3L102.3 476.5" fill="#9ecc8a" fill-opacity="0.7"></path><path class="Asia-and-Oceania-__0028excl__002e-China-and-India__0029_0-area" stroke-linecap="round" d="M102.3 463.3L155.3 423.8L208.3 361.5L261.2 296.3L314.2 252.7L367.2 257.6L420.2 170.8L473.2 103.4L526.2 138.7L579.1 179.2L632.1 118.6L685.1 97.2L685.1 173.5L632.1 196.8L579.1 250.5L526.2 187.1L473.2 141.7L420.2 201.8L367.2 279.9L314.2 274.6L261.2 316.1L208.3 377.6L155.3 438.3L102.3 475.1" fill="#932834" fill-opacity="0.7"></path><path class="Americas-__0028excl__002e-US-and-Brazil__0029_0-area" stroke-linecap="round" d="M102.3 460.5L155.3 418.4L208.3 355.6L261.2 288.2L314.2 243L367.2 248.7L420.2 151.6L473.2 88.5L526.2 122.6L579.1 159.9L632.1 97.3L685.1 76.6L685.1 97.2L632.1 118.6L579.1 179.2L526.2 138.7L473.2 103.4L420.2 170.8L367.2 257.6L314.2 252.7L261.2 296.3L208.3 361.5L155.3 423.8L102.3 463.3" fill="#34983f" fill-opacity="0.7"></path><path class="United-States-of-America_0-border" stroke-linecap="round" d="M102.3 526.4L155.3 516.3L208.3 488.7L261.2 482L314.2 478.4L367.2 496.9L420.2 479.6L473.2 456.6L526.2 470.1L579.1 478.6L632.1 475.9L685.1 464.5" stroke="rgb(35, 123, 130)" stroke-opacity="0.7" stroke-width="0.5" fill="none"></path><path class="Middle-East-and-Africa_0-border" stroke-linecap="round" d="M102.3 525.5L155.3 515L208.3 486.9L261.2 479.1L314.2 474.7L367.2 494.3L420.2 473.1L473.2 451.8L526.2 453.8L579.1 463.8L632.1 463.2L685.1 444.5" stroke="rgb(176, 92, 85)" stroke-opacity="0.7" stroke-width="0.5" fill="none"></path><path class="India_0-border" stroke-linecap="round" d="M102.3 521.1L155.3 510.1L208.3 479.1L261.2 468.3L314.2 465.7L367.2 487.4L420.2 458.9L473.2 431.3L526.2 441.3L579.1 453.2L632.1 449.9L685.1 428.2" stroke="rgb(206, 136, 30)" stroke-opacity="0.7" stroke-width="0.5" fill="none"></path><path class="Europe_0-border" stroke-linecap="round" d="M102.3 481.3L155.3 456.6L208.3 403.9L261.2 361.2L314.2 334.5L367.2 354.8L420.2 277L473.2 234.2L526.2 298.4L579.1 357L632.1 350.4L685.1 350" stroke="rgb(213, 178, 52)" stroke-opacity="0.7" stroke-width="0.5" fill="none"></path><path class="China_0-border" stroke-linecap="round" d="M102.3 476.5L155.3 443.3L208.3 385.8L261.2 334.3L314.2 293.4L367.2 292.6L420.2 213.4L473.2 158.1L526.2 199.4L579.1 257.5L632.1 209.6L685.1 184.9" stroke="rgb(169, 32, 33)" stroke-opacity="0.7" stroke-width="0.5" fill="none"></path><path class="Brazil_0-border" stroke-linecap="round" d="M102.3 475.1L155.3 438.3L208.3 377.6L261.2 316.1L314.2 274.6L367.2 279.9L420.2 201.8L473.2 141.7L526.2 187.1L579.1 250.5L632.1 196.8L685.1 173.5" stroke="rgb(132, 171, 115)" stroke-opacity="0.7" stroke-width="0.5" fill="none"></path><path class="Asia-and-Oceania-__0028excl__002e-China-and-India__0029_0-border" stroke-linecap="round" d="M102.3 463.3L155.3 423.8L208.3 361.5L261.2 296.3L314.2 252.7L367.2 257.6L420.2 170.8L473.2 103.4L526.2 138.7L579.1 179.2L632.1 118.6L685.1 97.2" stroke="rgb(123, 33, 44)" stroke-opacity="0.7" stroke-width="0.5" fill="none"></path><path class="Americas-__0028excl__002e-US-and-Brazil__0029_0-border" stroke-linecap="round" d="M102.3 460.5L155.3 418.4L208.3 355.6L261.2 288.2L314.2 243L367.2 248.7L420.2 151.6L473.2 88.5L526.2 122.6L579.1 159.9L632.1 97.3L685.1 76.6" stroke="rgb(44, 127, 53)" stroke-opacity="0.7" stroke-width="0.5" fill="none"></path></g></g></g><g class="SourcesFooter" style="fill:#777"><g class="clickable" style="fill:#777"><text font-size="12.60" x="15.0" y="581.6"><tspan x="15" y="581.58">Source: International Renewable Energy Agency, 2017</tspan></text></g><text font-size="12.60" x="367.9" y="581.6"><tspan x="367.918" y="581.58"><a target='_blank' style='fill: #777;' href='https://ourworldindata.org/energy-production-and-changing-energy-sources/'>OurWorldInData.org/energy-production-and-changing-energy-sources/</a> • <a style="fill: #777;" class="cclogo" href="http://creativecommons.org/licenses/by-sa/4.0/deed.en_US" target="_blank">CC BY-SA</a></tspan></text></g></g></svg>