<svg xmlns="http://www.w3.org/2000/svg" version="1.1" style="font-family:&#x27;Helvetica Neue&#x27;, Helvetica, Arial, sans-serif;font-size:18px;background-color:white;text-rendering:optimizeLegibility;-webkit-font-smoothing:antialiased" width="850" height="600"><g class="ChartTab"><g class="HeaderView"><g opacity="0.8" transform="translate(778, 15) scale(0.27)"><a xmlns:xlink="http://www.w3.org/1999/xlink" xlink:href="https://ourworldindata.org" target="_blank"><g><rect x="0" y="0" fill="#1B2543" width="211.2" height="130.1"/><rect x="0" y="112.2" fill="#E63912" width="211.2" height="17.9"/><g><rect x="1.2" y="12.3" fill="none" width="210.2" height="99.2"/><path fill="#FFFFFF" d="M37.8,32.2c0,12.7-7.7,19.4-17.1,19.4c-9.7,0-16.6-7.5-16.6-18.7c0-11.7,7.3-19.3,17.1-19.3 C31.3,13.7,37.8,21.3,37.8,32.2z M9.2,32.8c0,7.9,4.3,14.9,11.8,14.9c7.5,0,11.8-6.9,11.8-15.3c0-7.3-3.8-14.9-11.8-14.9 C13.1,17.5,9.2,24.8,9.2,32.8z"/><path fill="#FFFFFF" d="M62.7,43.8c0,2.7,0.1,5.1,0.2,7.2h-4.3l-0.3-4.3h-0.1c-1.3,2.1-4,4.9-8.8,4.9c-4.2,0-9.1-2.3-9.1-11.6 V24.6h4.8v14.6c0,5,1.5,8.4,5.9,8.4c3.2,0,5.5-2.2,6.3-4.4c0.3-0.7,0.4-1.6,0.4-2.5V24.6h4.8V43.8z"/><path fill="#FFFFFF" d="M67.3,32.8c0-3.1-0.1-5.8-0.2-8.2h4.2l0.2,5.2h0.2c1.2-3.5,4.1-5.8,7.3-5.8c0.5,0,0.9,0.1,1.4,0.2v4.5 c-0.5-0.1-1-0.2-1.6-0.2c-3.4,0-5.8,2.6-6.5,6.2c-0.1,0.7-0.2,1.4-0.2,2.2V51h-4.8V32.8z"/><path fill="#FFFFFF" d="M95.4,51l-9.4-36.8h5l4.4,18.6c1.1,4.6,2.1,9.2,2.7,12.7h0.1c0.6-3.7,1.8-8,3-12.8l4.9-18.5h5l4.5,18.7 c1,4.4,2,8.7,2.6,12.6h0.1c0.8-4,1.8-8.1,3-12.7l4.9-18.5h4.9L120.6,51h-5L111,31.9c-1.1-4.7-1.9-8.3-2.4-12h-0.1 c-0.7,3.7-1.5,7.3-2.8,12L100.4,51H95.4z"/><path fill="#FFFFFF" d="M154.9,37.6c0,9.8-6.8,14-13.2,14c-7.2,0-12.7-5.2-12.7-13.6c0-8.8,5.8-14,13.1-14 C149.8,24,154.9,29.5,154.9,37.6z M133.9,37.9c0,5.8,3.3,10.1,8,10.1c4.6,0,8-4.3,8-10.3c0-4.5-2.2-10.1-7.9-10.1 C136.3,27.6,133.9,32.8,133.9,37.9z"/><path fill="#FFFFFF" d="M158.2,32.8c0-3.1-0.1-5.8-0.2-8.2h4.2l0.2,5.2h0.2c1.2-3.5,4.1-5.8,7.3-5.8c0.5,0,0.9,0.1,1.4,0.2v4.5 c-0.5-0.1-1-0.2-1.6-0.2c-3.4,0-5.8,2.6-6.5,6.2c-0.1,0.7-0.2,1.4-0.2,2.2V51h-4.8V32.8z"/><path fill="#FFFFFF" d="M173.5,12.3h4.8V51h-4.8V12.3z"/><path fill="#FFFFFF" d="M206.5,12.3v31.9c0,2.3,0.1,5,0.2,6.8h-4.3l-0.2-4.6H202c-1.5,2.9-4.7,5.2-9,5.2 c-6.4,0-11.3-5.4-11.3-13.4c-0.1-8.8,5.4-14.2,11.9-14.2c4,0,6.8,1.9,8,4h0.1V12.3H206.5z M201.7,35.4c0-0.6-0.1-1.4-0.2-2 c-0.7-3.1-3.3-5.6-6.9-5.6c-5,0-7.9,4.4-7.9,10.2c0,5.3,2.6,9.8,7.8,9.8c3.2,0,6.2-2.1,7.1-5.7c0.2-0.7,0.2-1.3,0.2-2.1V35.4z"/><path fill="#FFFFFF" d="M42.8,64c0.1,1.6-1.1,2.9-3.1,2.9c-1.7,0-2.9-1.3-2.9-2.9c0-1.7,1.3-3,3-3C41.7,61,42.8,62.3,42.8,64z M37.4,97.8V71.4h4.8v26.4H37.4z"/><path fill="#FFFFFF" d="M47.5,78.6c0-2.7-0.1-5-0.2-7.1h4.3l0.3,4.4h0.1c1.3-2.5,4.4-5,8.8-5c3.7,0,9.4,2.2,9.4,11.2v15.8h-4.8 V82.6c0-4.3-1.6-7.8-6.1-7.8c-3.2,0-5.6,2.2-6.5,4.9c-0.2,0.6-0.3,1.4-0.3,2.2v15.9h-4.8V78.6z"/><path fill="#FFFFFF" d="M84,61.6c2.9-0.4,6.3-0.8,10.1-0.8c6.8,0,11.7,1.6,14.9,4.6c3.3,3,5.2,7.3,5.2,13.2c0,6-1.9,10.9-5.3,14.3 c-3.4,3.4-9.1,5.3-16.3,5.3c-3.4,0-6.2-0.2-8.6-0.4V61.6z M88.8,94.1c1.2,0.2,3,0.3,4.8,0.3c10.2,0,15.7-5.7,15.7-15.6 c0.1-8.7-4.9-14.2-14.9-14.2c-2.5,0-4.3,0.2-5.6,0.5V94.1z"/><path fill="#FFFFFF" d="M132.1,97.8l-0.4-3.3h-0.2c-1.5,2.1-4.3,3.9-8.1,3.9c-5.4,0-8.1-3.8-8.1-7.6c0-6.4,5.7-9.9,15.9-9.8v-0.5 c0-2.2-0.6-6.1-6-6.1c-2.5,0-5,0.8-6.9,2l-1.1-3.2c2.2-1.4,5.4-2.3,8.7-2.3c8.1,0,10.1,5.5,10.1,10.8v9.9c0,2.3,0.1,4.5,0.4,6.3 H132.1z M131.4,84.4c-5.3-0.1-11.2,0.8-11.2,5.9c0,3.1,2.1,4.6,4.5,4.6c3.4,0,5.6-2.2,6.4-4.4c0.2-0.5,0.3-1,0.3-1.5V84.4z"/><path fill="#FFFFFF" d="M146.6,63.9v7.6h6.9v3.7h-6.9v14.2c0,3.3,0.9,5.1,3.6,5.1c1.3,0,2.2-0.2,2.8-0.3l0.2,3.6 c-0.9,0.4-2.4,0.7-4.3,0.7c-2.2,0-4-0.7-5.2-2c-1.4-1.4-1.9-3.8-1.9-6.9V75.1h-4.1v-3.7h4.1v-6.3L146.6,63.9z"/><path fill="#FFFFFF" d="M171.4,97.8l-0.4-3.3h-0.2c-1.5,2.1-4.3,3.9-8.1,3.9c-5.4,0-8.1-3.8-8.1-7.6c0-6.4,5.7-9.9,15.9-9.8v-0.5 c0-2.2-0.6-6.1-6-6.1c-2.5,0-5,0.8-6.9,2l-1.1-3.2c2.2-1.4,5.4-2.3,8.7-2.3c8.1,0,10.1,5.5,10.1,10.8v9.9c0,2.3,0.1,4.5,0.4,6.3 H171.4z M170.7,84.4c-5.3-0.1-11.2,0.8-11.2,5.9c0,3.1,2.1,4.6,4.5,4.6c3.4,0,5.6-2.2,6.4-4.4c0.2-0.5,0.3-1,0.3-1.5V84.4z"/></g></g></a></g><a href="https://ourworldindata.org/grapher/resource-needs-to-meet-hiv-targets" target="_blank"><text font-size="21.60" x="15.0" y="32.3" fill="#555"><tspan x="15" y="32.279999999999994">Estimated resource needs in low-to-middle income countries to meet HIV</tspan><tspan x="15" y="53.87999999999999">targets</tspan></text></a><text font-size="14.40" x="15.0" y="72.7" fill="#666"><tspan x="15" y="72.72">Estimated resource needs in low-to-middle income countries to meet HIV fast-track targets of reduction and prevention by 2030.</tspan><tspan x="15" y="88.56">This is measured in constant 2016 US$.</tspan></text></g><g class="StackedArea"><defs><clipPath id="boundsClip-454"><rect x="93.224" y="0" width="820" height="890.8"></rect></clipPath></defs><g class="AxisBoxView"><g class="HorizontalAxis"><text x="93.2" y="556.5" fill="#666" text-anchor="middle" font-size="16.2">2018</text><text x="192.3" y="556.5" fill="#666" text-anchor="middle" font-size="16.2">2020</text><text x="291.3" y="556.5" fill="#666" text-anchor="middle" font-size="16.2">2022</text><text x="390.4" y="556.5" fill="#666" text-anchor="middle" font-size="16.2">2024</text><text x="489.4" y="556.5" fill="#666" text-anchor="middle" font-size="16.2">2026</text><text x="588.5" y="556.5" fill="#666" text-anchor="middle" font-size="16.2">2028</text><text x="687.5" y="556.5" fill="#666" text-anchor="middle" font-size="16.2">2030</text></g><g class="VerticalAxis"><text x="88.22" y="535.3" fill="#666" dominant-baseline="middle" text-anchor="end" font-size="16.2">$0</text><text x="88.22" y="454.3" fill="#666" dominant-baseline="middle" text-anchor="end" font-size="16.2">$5 billion</text><text x="88.22" y="373.2" fill="#666" dominant-baseline="middle" text-anchor="end" font-size="16.2">$10 billion</text><text x="88.22" y="292.2" fill="#666" dominant-baseline="middle" text-anchor="end" font-size="16.2">$15 billion</text><text x="88.22" y="211.1" fill="#666" dominant-baseline="middle" text-anchor="end" font-size="16.2">$20 billion</text><text x="88.22" y="130.1" fill="#666" dominant-baseline="middle" text-anchor="end" font-size="16.2">$25 billion</text></g><g class="AxisGridLines"><line x1="93.22" y1="535.3" x2="687.54" y2="535.3" stroke="#ccc"></line><line x1="93.22" y1="454.3" x2="687.54" y2="454.3" stroke="#ddd" stroke-dasharray="3,2"></line><line x1="93.22" y1="373.2" x2="687.54" y2="373.2" stroke="#ddd" stroke-dasharray="3,2"></line><line x1="93.22" y1="292.2" x2="687.54" y2="292.2" stroke="#ddd" stroke-dasharray="3,2"></line><line x1="93.22" y1="211.1" x2="687.54" y2="211.1" stroke="#ddd" stroke-dasharray="3,2"></line><line x1="93.22" y1="130.1" x2="687.54" y2="130.1" stroke="#ddd" stroke-dasharray="3,2"></line></g></g><g clip-path="url(#boundsClip-454)"><g class="HeightedLegend clickable"><g class="legendMark"><g class="indicator"><line x1="692.545" y1="151.7" x2="715.045" y2="151.7" stroke="#666" stroke-width="0.5"></line><line x1="715.045" y1="151.7" x2="715.045" y2="151.7" stroke="#666" stroke-width="0.5"></line><line x1="715.045" y1="151.7" x2="717.545" y2="151.7" stroke="#666" stroke-width="0.5"></line></g><rect x="687.545" y="144.95" width="97.505" height="13.5" fill="#fff" opacity="0"></rect><text font-size="13.50" x="722.5" y="155.8" fill="#34983f"><tspan x="722.545" y="155.75">Caribbean</tspan></text></g><g class="legendMark"><g class="indicator"><line x1="692.545" y1="162.4" x2="710.045" y2="162.4" stroke="#666" stroke-width="0.5"></line><line x1="710.045" y1="162.4" x2="710.045" y2="174.5" stroke="#666" stroke-width="0.5"></line><line x1="710.045" y1="174.5" x2="717.545" y2="174.5" stroke="#666" stroke-width="0.5"></line></g><rect x="687.545" y="160.45" width="132.2" height="28.1" fill="#fff" opacity="0"></rect><text font-size="13.50" x="722.5" y="171.3" fill="#9ecc8a"><tspan x="722.545" y="171.25">Middle East and</tspan><tspan x="722.545" y="186.1">North Africa</tspan></text></g><g class="legendMark"><g class="indicator"><line x1="692.545" y1="180.1" x2="705.045" y2="180.1" stroke="#666" stroke-width="0.5"></line><line x1="705.045" y1="180.1" x2="705.045" y2="204.6" stroke="#666" stroke-width="0.5"></line><line x1="705.045" y1="204.6" x2="717.545" y2="204.6" stroke="#666" stroke-width="0.5"></line></g><rect x="687.545" y="190.54999999999998" width="135.17000000000002" height="28.1" fill="#fff" opacity="0"></rect><text font-size="13.50" x="722.5" y="201.3" fill="#ffd53e"><tspan x="722.545" y="201.35">Eastern Europe</tspan><tspan x="722.545" y="216.2">and Central Asia</tspan></text></g><g class="legendMark"><g class="indicator"><line x1="692.545" y1="216" x2="700.045" y2="216" stroke="#666" stroke-width="0.5"></line><line x1="700.045" y1="216" x2="700.045" y2="227.39999999999998" stroke="#666" stroke-width="0.5"></line><line x1="700.045" y1="227.39999999999998" x2="717.545" y2="227.39999999999998" stroke="#666" stroke-width="0.5"></line></g><rect x="687.545" y="220.64999999999998" width="117.75500000000001" height="13.5" fill="#fff" opacity="0"></rect><text font-size="13.50" x="722.5" y="231.4" fill="#ca2628"><tspan x="722.545" y="231.45">Latin America</tspan></text></g><g class="legendMark"><g class="indicator"><line x1="692.545" y1="288.9" x2="705.045" y2="288.9" stroke="#666" stroke-width="0.5"></line><line x1="705.045" y1="288.9" x2="705.045" y2="288.9" stroke="#666" stroke-width="0.5"></line><line x1="705.045" y1="288.9" x2="717.545" y2="288.9" stroke="#666" stroke-width="0.5"></line></g><rect x="687.545" y="274.84999999999997" width="110.465" height="28.1" fill="#fff" opacity="0"></rect><text font-size="13.50" x="722.5" y="285.6" fill="#e6332e"><tspan x="722.545" y="285.65">Asia and the</tspan><tspan x="722.545" y="300.5">Pacific</tspan></text></g><g class="legendMark"><g class="indicator"><line x1="692.545" y1="369.2" x2="705.045" y2="369.2" stroke="#666" stroke-width="0.5"></line><line x1="705.045" y1="369.2" x2="705.045" y2="369.2" stroke="#666" stroke-width="0.5"></line><line x1="705.045" y1="369.2" x2="717.545" y2="369.2" stroke="#666" stroke-width="0.5"></line></g><rect x="687.545" y="355.15" width="139.625" height="28.1" fill="#fff" opacity="0"></rect><text font-size="13.50" x="722.5" y="365.9" fill="#2a939b"><tspan x="722.545" y="365.95">West and Central</tspan><tspan x="722.545" y="380.8">Africa</tspan></text></g><g class="legendMark"><g class="indicator"><line x1="692.545" y1="468.3" x2="705.045" y2="468.3" stroke="#666" stroke-width="0.5"></line><line x1="705.045" y1="468.3" x2="705.045" y2="468.3" stroke="#666" stroke-width="0.5"></line><line x1="705.045" y1="468.3" x2="717.545" y2="468.3" stroke="#666" stroke-width="0.5"></line></g><rect x="687.545" y="454.25" width="147.455" height="28.1" fill="#fff" opacity="0"></rect><text font-size="13.50" x="722.5" y="465.1" fill="#3360a9"><tspan x="722.545" y="465.05">East and Southern</tspan><tspan x="722.545" y="479.90000000000003">Africa</tspan></text></g></g><g class="Areas"><rect x="93.224" y="111.1" width="594.3209999999999" height="424.19999999999993" opacity="0" fill="rgba(255,255,255,0)"></rect><path class="East-and-Southern-Africa_0-area" stroke-linecap="round" d="M93.2 368.1L142.8 371.4L192.3 372.5L241.8 383.9L291.3 384.1L340.9 383.8L390.4 383.1L439.9 382.3L489.4 386.8L539 394.6L588.5 390.9L638 398.1L687.5 401.3L687.545 535.3L93.224 535.3" fill="#3360a9" fill-opacity="0.7"></path><path class="West-and-Central-Africa_0-area" stroke-linecap="round" d="M93.2 301.2L142.8 304.2L192.3 308L241.8 320L291.3 320.1L340.9 319.7L390.4 318.9L439.9 317.7L489.4 322.3L539 330.3L588.5 326.5L638 333.8L687.5 337.1L687.5 401.3L638 398.1L588.5 390.9L539 394.6L489.4 386.8L439.9 382.3L390.4 383.1L340.9 383.8L291.3 384.1L241.8 383.9L192.3 372.5L142.8 371.4L93.2 368.1" fill="#2a939b" fill-opacity="0.7"></path><path class="Asia-and-the-Pacific_0-area" stroke-linecap="round" d="M93.2 207.3L142.8 207.3L192.3 211L241.8 223.3L291.3 222.6L340.9 221.5L390.4 220.1L439.9 218.5L489.4 223.3L539 232.2L588.5 227.9L638 236.5L687.5 240.6L687.5 337.1L638 333.8L588.5 326.5L539 330.3L489.4 322.3L439.9 317.7L390.4 318.9L340.9 319.7L291.3 320.1L241.8 320L192.3 308L142.8 304.2L93.2 301.2" fill="#e6332e" fill-opacity="0.7"></path><path class="Latin-America_0-area" stroke-linecap="round" d="M93.2 155.1L142.8 155.8L192.3 159.9L241.8 173L291.3 172.1L340.9 170.8L390.4 169.3L439.9 167.6L489.4 172.6L539 182.1L588.5 177.4L638 186.7L687.5 191.4L687.5 240.6L638 236.5L588.5 227.9L539 232.2L489.4 223.3L439.9 218.5L390.4 220.1L340.9 221.5L291.3 222.6L241.8 223.3L192.3 211L142.8 207.3L93.2 207.3" fill="#ca2628" fill-opacity="0.7"></path><path class="Eastern-Europe-and-Central-Asia_0-area" stroke-linecap="round" d="M93.2 135.8L142.8 132.9L192.3 133.2L241.8 147.2L291.3 146.4L340.9 145.3L390.4 144L439.9 142.6L489.4 147.9L539 158.4L588.5 153.2L638 163.5L687.5 168.8L687.5 191.4L638 186.7L588.5 177.4L539 182.1L489.4 172.6L439.9 167.6L390.4 169.3L340.9 170.8L291.3 172.1L241.8 173L192.3 159.9L142.8 155.8L93.2 155.1" fill="#ffd53e" fill-opacity="0.7"></path><path class="Middle-East-and-North-Africa_0-area" stroke-linecap="round" d="M93.2 126.3L142.8 122.1L192.3 120.9L241.8 135.3L291.3 134.2L340.9 132.9L390.4 131.4L439.9 129.8L489.4 135.1L539 145.5L588.5 140.3L638 150.7L687.5 156L687.5 168.8L638 163.5L588.5 153.2L539 158.4L489.4 147.9L439.9 142.6L390.4 144L340.9 145.3L291.3 146.4L241.8 147.2L192.3 133.2L142.8 132.9L93.2 135.8" fill="#9ecc8a" fill-opacity="0.7"></path><path class="Caribbean_0-area" stroke-linecap="round" d="M93.2 118.4L142.8 113.3L192.3 111.1L241.8 125.8L291.3 124.8L340.9 123.6L390.4 122.2L439.9 120.7L489.4 126.1L539 136.8L588.5 131.5L638 142.1L687.5 147.5L687.5 156L638 150.7L588.5 140.3L539 145.5L489.4 135.1L439.9 129.8L390.4 131.4L340.9 132.9L291.3 134.2L241.8 135.3L192.3 120.9L142.8 122.1L93.2 126.3" fill="#34983f" fill-opacity="0.7"></path><path class="East-and-Southern-Africa_0-border" stroke-linecap="round" d="M93.2 368.1L142.8 371.4L192.3 372.5L241.8 383.9L291.3 384.1L340.9 383.8L390.4 383.1L439.9 382.3L489.4 386.8L539 394.6L588.5 390.9L638 398.1L687.5 401.3" stroke="rgb(43, 80, 141)" stroke-opacity="0.7" stroke-width="0.5" fill="none"></path><path class="West-and-Central-Africa_0-border" stroke-linecap="round" d="M93.2 301.2L142.8 304.2L192.3 308L241.8 320L291.3 320.1L340.9 319.7L390.4 318.9L439.9 317.7L489.4 322.3L539 330.3L588.5 326.5L638 333.8L687.5 337.1" stroke="rgb(35, 123, 130)" stroke-opacity="0.7" stroke-width="0.5" fill="none"></path><path class="Asia-and-the-Pacific_0-border" stroke-linecap="round" d="M93.2 207.3L142.8 207.3L192.3 211L241.8 223.3L291.3 222.6L340.9 221.5L390.4 220.1L439.9 218.5L489.4 223.3L539 232.2L588.5 227.9L638 236.5L687.5 240.6" stroke="rgb(192, 43, 38)" stroke-opacity="0.7" stroke-width="0.5" fill="none"></path><path class="Latin-America_0-border" stroke-linecap="round" d="M93.2 155.1L142.8 155.8L192.3 159.9L241.8 173L291.3 172.1L340.9 170.8L390.4 169.3L439.9 167.6L489.4 172.6L539 182.1L588.5 177.4L638 186.7L687.5 191.4" stroke="rgb(169, 32, 33)" stroke-opacity="0.7" stroke-width="0.5" fill="none"></path><path class="Eastern-Europe-and-Central-Asia_0-border" stroke-linecap="round" d="M93.2 135.8L142.8 132.9L192.3 133.2L241.8 147.2L291.3 146.4L340.9 145.3L390.4 144L439.9 142.6L489.4 147.9L539 158.4L588.5 153.2L638 163.5L687.5 168.8" stroke="rgb(213, 178, 52)" stroke-opacity="0.7" stroke-width="0.5" fill="none"></path><path class="Middle-East-and-North-Africa_0-border" stroke-linecap="round" d="M93.2 126.3L142.8 122.1L192.3 120.9L241.8 135.3L291.3 134.2L340.9 132.9L390.4 131.4L439.9 129.8L489.4 135.1L539 145.5L588.5 140.3L638 150.7L687.5 156" stroke="rgb(132, 171, 115)" stroke-opacity="0.7" stroke-width="0.5" fill="none"></path><path class="Caribbean_0-border" stroke-linecap="round" d="M93.2 118.4L142.8 113.3L192.3 111.1L241.8 125.8L291.3 124.8L340.9 123.6L390.4 122.2L439.9 120.7L489.4 126.1L539 136.8L588.5 131.5L638 142.1L687.5 147.5" stroke="rgb(44, 127, 53)" stroke-opacity="0.7" stroke-width="0.5" fill="none"></path></g></g></g><g class="SourcesFooter" style="fill:#777"><g class="clickable" style="fill:#777"><text font-size="12.60" x="15.0" y="581.6"><tspan x="15" y="581.58">Source: UNAIDS</tspan></text></g><text font-size="12.60" x="775.4" y="581.6"><tspan x="775.402" y="581.58"><a style="fill: #777;" class="cclogo" href="http://creativecommons.org/licenses/by-sa/4.0/deed.en_US" target="_blank">CC BY-SA</a></tspan></text></g></g></svg>