<svg xmlns="http://www.w3.org/2000/svg" version="1.1" style="font-family:&#x27;Helvetica Neue&#x27;, Helvetica, Arial, sans-serif;font-size:18px;background-color:white;text-rendering:optimizeLegibility;-webkit-font-smoothing:antialiased" width="850" height="600"><g class="ChartTab"><g class="HeaderView"><g opacity="0.8" transform="translate(778, 15) scale(0.27)"><a xmlns:xlink="http://www.w3.org/1999/xlink" xlink:href="https://ourworldindata.org" target="_blank"><g><rect x="0" y="0" fill="#1B2543" width="211.2" height="130.1"/><rect x="0" y="112.2" fill="#E63912" width="211.2" height="17.9"/><g><rect x="1.2" y="12.3" fill="none" width="210.2" height="99.2"/><path fill="#FFFFFF" d="M37.8,32.2c0,12.7-7.7,19.4-17.1,19.4c-9.7,0-16.6-7.5-16.6-18.7c0-11.7,7.3-19.3,17.1-19.3 C31.3,13.7,37.8,21.3,37.8,32.2z M9.2,32.8c0,7.9,4.3,14.9,11.8,14.9c7.5,0,11.8-6.9,11.8-15.3c0-7.3-3.8-14.9-11.8-14.9 C13.1,17.5,9.2,24.8,9.2,32.8z"/><path fill="#FFFFFF" d="M62.7,43.8c0,2.7,0.1,5.1,0.2,7.2h-4.3l-0.3-4.3h-0.1c-1.3,2.1-4,4.9-8.8,4.9c-4.2,0-9.1-2.3-9.1-11.6 V24.6h4.8v14.6c0,5,1.5,8.4,5.9,8.4c3.2,0,5.5-2.2,6.3-4.4c0.3-0.7,0.4-1.6,0.4-2.5V24.6h4.8V43.8z"/><path fill="#FFFFFF" d="M67.3,32.8c0-3.1-0.1-5.8-0.2-8.2h4.2l0.2,5.2h0.2c1.2-3.5,4.1-5.8,7.3-5.8c0.5,0,0.9,0.1,1.4,0.2v4.5 c-0.5-0.1-1-0.2-1.6-0.2c-3.4,0-5.8,2.6-6.5,6.2c-0.1,0.7-0.2,1.4-0.2,2.2V51h-4.8V32.8z"/><path fill="#FFFFFF" d="M95.4,51l-9.4-36.8h5l4.4,18.6c1.1,4.6,2.1,9.2,2.7,12.7h0.1c0.6-3.7,1.8-8,3-12.8l4.9-18.5h5l4.5,18.7 c1,4.4,2,8.7,2.6,12.6h0.1c0.8-4,1.8-8.1,3-12.7l4.9-18.5h4.9L120.6,51h-5L111,31.9c-1.1-4.7-1.9-8.3-2.4-12h-0.1 c-0.7,3.7-1.5,7.3-2.8,12L100.4,51H95.4z"/><path fill="#FFFFFF" d="M154.9,37.6c0,9.8-6.8,14-13.2,14c-7.2,0-12.7-5.2-12.7-13.6c0-8.8,5.8-14,13.1-14 C149.8,24,154.9,29.5,154.9,37.6z M133.9,37.9c0,5.8,3.3,10.1,8,10.1c4.6,0,8-4.3,8-10.3c0-4.5-2.2-10.1-7.9-10.1 C136.3,27.6,133.9,32.8,133.9,37.9z"/><path fill="#FFFFFF" d="M158.2,32.8c0-3.1-0.1-5.8-0.2-8.2h4.2l0.2,5.2h0.2c1.2-3.5,4.1-5.8,7.3-5.8c0.5,0,0.9,0.1,1.4,0.2v4.5 c-0.5-0.1-1-0.2-1.6-0.2c-3.4,0-5.8,2.6-6.5,6.2c-0.1,0.7-0.2,1.4-0.2,2.2V51h-4.8V32.8z"/><path fill="#FFFFFF" d="M173.5,12.3h4.8V51h-4.8V12.3z"/><path fill="#FFFFFF" d="M206.5,12.3v31.9c0,2.3,0.1,5,0.2,6.8h-4.3l-0.2-4.6H202c-1.5,2.9-4.7,5.2-9,5.2 c-6.4,0-11.3-5.4-11.3-13.4c-0.1-8.8,5.4-14.2,11.9-14.2c4,0,6.8,1.9,8,4h0.1V12.3H206.5z M201.7,35.4c0-0.6-0.1-1.4-0.2-2 c-0.7-3.1-3.3-5.6-6.9-5.6c-5,0-7.9,4.4-7.9,10.2c0,5.3,2.6,9.8,7.8,9.8c3.2,0,6.2-2.1,7.1-5.7c0.2-0.7,0.2-1.3,0.2-2.1V35.4z"/><path fill="#FFFFFF" d="M42.8,64c0.1,1.6-1.1,2.9-3.1,2.9c-1.7,0-2.9-1.3-2.9-2.9c0-1.7,1.3-3,3-3C41.7,61,42.8,62.3,42.8,64z M37.4,97.8V71.4h4.8v26.4H37.4z"/><path fill="#FFFFFF" d="M47.5,78.6c0-2.7-0.1-5-0.2-7.1h4.3l0.3,4.4h0.1c1.3-2.5,4.4-5,8.8-5c3.7,0,9.4,2.2,9.4,11.2v15.8h-4.8 V82.6c0-4.3-1.6-7.8-6.1-7.8c-3.2,0-5.6,2.2-6.5,4.9c-0.2,0.6-0.3,1.4-0.3,2.2v15.9h-4.8V78.6z"/><path fill="#FFFFFF" d="M84,61.6c2.9-0.4,6.3-0.8,10.1-0.8c6.8,0,11.7,1.6,14.9,4.6c3.3,3,5.2,7.3,5.2,13.2c0,6-1.9,10.9-5.3,14.3 c-3.4,3.4-9.1,5.3-16.3,5.3c-3.4,0-6.2-0.2-8.6-0.4V61.6z M88.8,94.1c1.2,0.2,3,0.3,4.8,0.3c10.2,0,15.7-5.7,15.7-15.6 c0.1-8.7-4.9-14.2-14.9-14.2c-2.5,0-4.3,0.2-5.6,0.5V94.1z"/><path fill="#FFFFFF" d="M132.1,97.8l-0.4-3.3h-0.2c-1.5,2.1-4.3,3.9-8.1,3.9c-5.4,0-8.1-3.8-8.1-7.6c0-6.4,5.7-9.9,15.9-9.8v-0.5 c0-2.2-0.6-6.1-6-6.1c-2.5,0-5,0.8-6.9,2l-1.1-3.2c2.2-1.4,5.4-2.3,8.7-2.3c8.1,0,10.1,5.5,10.1,10.8v9.9c0,2.3,0.1,4.5,0.4,6.3 H132.1z M131.4,84.4c-5.3-0.1-11.2,0.8-11.2,5.9c0,3.1,2.1,4.6,4.5,4.6c3.4,0,5.6-2.2,6.4-4.4c0.2-0.5,0.3-1,0.3-1.5V84.4z"/><path fill="#FFFFFF" d="M146.6,63.9v7.6h6.9v3.7h-6.9v14.2c0,3.3,0.9,5.1,3.6,5.1c1.3,0,2.2-0.2,2.8-0.3l0.2,3.6 c-0.9,0.4-2.4,0.7-4.3,0.7c-2.2,0-4-0.7-5.2-2c-1.4-1.4-1.9-3.8-1.9-6.9V75.1h-4.1v-3.7h4.1v-6.3L146.6,63.9z"/><path fill="#FFFFFF" d="M171.4,97.8l-0.4-3.3h-0.2c-1.5,2.1-4.3,3.9-8.1,3.9c-5.4,0-8.1-3.8-8.1-7.6c0-6.4,5.7-9.9,15.9-9.8v-0.5 c0-2.2-0.6-6.1-6-6.1c-2.5,0-5,0.8-6.9,2l-1.1-3.2c2.2-1.4,5.4-2.3,8.7-2.3c8.1,0,10.1,5.5,10.1,10.8v9.9c0,2.3,0.1,4.5,0.4,6.3 H171.4z M170.7,84.4c-5.3-0.1-11.2,0.8-11.2,5.9c0,3.1,2.1,4.6,4.5,4.6c3.4,0,5.6-2.2,6.4-4.4c0.2-0.5,0.3-1,0.3-1.5V84.4z"/></g></g></a></g><a href="https://ourworldindata.org/grapher/road-deaths-over-the-long-term" target="_blank"><text font-size="25.20" x="15.0" y="35.2" fill="#555"><tspan x="15" y="35.160000000000004">Road deaths over the long-term</tspan></text></a><text font-size="14.40" x="15.0" y="53.7" fill="#666"><tspan x="15" y="53.72">Annual number of reported deaths resultant from any type of road accident. This includes vehicles, pedestrians and</tspan><tspan x="15" y="69.56">cyclists.</tspan></text></g><g class="LineChart"><defs><clipPath id="boundsClip-412"><rect x="59.896" y="0" width="830" height="928.8"></rect></clipPath></defs><g class="AxisBoxView"><g class="HorizontalAxis"><text x="69.9" y="556.5" fill="#666" text-anchor="middle" font-size="16.2">1900</text><text x="178.9" y="556.5" fill="#666" text-anchor="middle" font-size="16.2">1920</text><text x="287.9" y="556.5" fill="#666" text-anchor="middle" font-size="16.2">1940</text><text x="396.9" y="556.5" fill="#666" text-anchor="middle" font-size="16.2">1960</text><text x="505.9" y="556.5" fill="#666" text-anchor="middle" font-size="16.2">1980</text><text x="614.9" y="556.5" fill="#666" text-anchor="middle" font-size="16.2">2000</text><text x="702.1" y="556.5" fill="#666" text-anchor="middle" font-size="16.2">2016</text></g><g class="VerticalAxis"><text x="64.90" y="535.3" fill="#666" dominant-baseline="middle" text-anchor="end" font-size="16.2">0</text><text x="64.90" y="455.6" fill="#666" dominant-baseline="middle" text-anchor="end" font-size="16.2">10,000</text><text x="64.90" y="375.9" fill="#666" dominant-baseline="middle" text-anchor="end" font-size="16.2">20,000</text><text x="64.90" y="296.2" fill="#666" dominant-baseline="middle" text-anchor="end" font-size="16.2">30,000</text><text x="64.90" y="216.5" fill="#666" dominant-baseline="middle" text-anchor="end" font-size="16.2">40,000</text><text x="64.90" y="136.7" fill="#666" dominant-baseline="middle" text-anchor="end" font-size="16.2">50,000</text></g><g class="AxisGridLines"><line x1="69.90" y1="535.3" x2="702.13" y2="535.3" stroke="#ccc"></line><line x1="69.90" y1="455.6" x2="702.13" y2="455.6" stroke="#ddd" stroke-dasharray="3,2"></line><line x1="69.90" y1="375.9" x2="702.13" y2="375.9" stroke="#ddd" stroke-dasharray="3,2"></line><line x1="69.90" y1="296.2" x2="702.13" y2="296.2" stroke="#ddd" stroke-dasharray="3,2"></line><line x1="69.90" y1="216.5" x2="702.13" y2="216.5" stroke="#ddd" stroke-dasharray="3,2"></line><line x1="69.90" y1="136.7" x2="702.13" y2="136.7" stroke="#ddd" stroke-dasharray="3,2"></line></g></g><g clip-path="url(#boundsClip-412)"><g class="HeightedLegend clickable"><g class="legendMark"><g class="indicator"><line x1="707.125" y1="534.8" x2="727.625" y2="534.8" stroke="#666" stroke-width="0.5"></line><line x1="727.625" y1="534.8" x2="727.625" y2="528.55" stroke="#666" stroke-width="0.5"></line><line x1="727.625" y1="528.55" x2="732.125" y2="528.55" stroke="#666" stroke-width="0.5"></line></g><rect x="702.125" y="521.8" width="132.875" height="13.5" fill="#fff" opacity="0"></rect><text font-size="13.50" x="737.1" y="532.6" fill="#3360a9"><tspan x="737.125" y="532.5999999999999">Northern Ireland</tspan></text></g><g class="legendMark"><g class="indicator"><line x1="707.125" y1="533.8" x2="723.625" y2="533.8" stroke="#666" stroke-width="0.5"></line><line x1="723.625" y1="533.8" x2="723.625" y2="513.05" stroke="#666" stroke-width="0.5"></line><line x1="723.625" y1="513.05" x2="732.125" y2="513.05" stroke="#666" stroke-width="0.5"></line></g><rect x="702.125" y="506.29999999999995" width="87.785" height="13.5" fill="#fff" opacity="0"></rect><text font-size="13.50" x="737.1" y="517.1" fill="#ca2628"><tspan x="737.125" y="517.0999999999999">Scotland</tspan></text></g><g class="legendMark"><g class="indicator"><line x1="707.125" y1="528.8" x2="719.625" y2="528.8" stroke="#666" stroke-width="0.5"></line><line x1="719.625" y1="528.8" x2="719.625" y2="497.54999999999995" stroke="#666" stroke-width="0.5"></line><line x1="719.625" y1="497.54999999999995" x2="732.125" y2="497.54999999999995" stroke="#666" stroke-width="0.5"></line></g><rect x="702.125" y="490.79999999999995" width="79.415" height="13.5" fill="#fff" opacity="0"></rect><text font-size="13.50" x="737.1" y="501.6" fill="#34983f"><tspan x="737.125" y="501.59999999999997">Greece</tspan></text></g><g class="legendMark"><g class="indicator"><line x1="707.125" y1="509.7" x2="715.625" y2="509.7" stroke="#666" stroke-width="0.5"></line><line x1="715.625" y1="509.7" x2="715.625" y2="482.04999999999995" stroke="#666" stroke-width="0.5"></line><line x1="715.625" y1="482.04999999999995" x2="732.125" y2="482.04999999999995" stroke="#666" stroke-width="0.5"></line></g><rect x="702.125" y="475.29999999999995" width="90.62" height="13.5" fill="#fff" opacity="0"></rect><text font-size="13.50" x="737.1" y="486.1" fill="#f6a324"><tspan x="737.125" y="486.09999999999997">Germany</tspan></text></g><g class="legendMark"><g class="indicator"><line x1="707.125" y1="507.6" x2="711.625" y2="507.6" stroke="#666" stroke-width="0.5"></line><line x1="711.625" y1="507.6" x2="711.625" y2="466.54999999999995" stroke="#666" stroke-width="0.5"></line><line x1="711.625" y1="466.54999999999995" x2="732.125" y2="466.54999999999995" stroke="#666" stroke-width="0.5"></line></g><rect x="702.125" y="459.79999999999995" width="77.12" height="13.5" fill="#fff" opacity="0"></rect><text font-size="13.50" x="737.1" y="470.6" fill="#a652ba"><tspan x="737.125" y="470.59999999999997">France</tspan></text></g><g class="legendMark"><g class="indicator"><line x1="707.125" y1="236.7" x2="719.625" y2="236.7" stroke="#666" stroke-width="0.5"></line><line x1="719.625" y1="236.7" x2="719.625" y2="236.7" stroke="#666" stroke-width="0.5"></line><line x1="719.625" y1="236.7" x2="732.125" y2="236.7" stroke="#666" stroke-width="0.5"></line></g><rect x="702.125" y="229.95" width="116.405" height="13.5" fill="#fff" opacity="0"></rect><text font-size="13.50" x="737.1" y="240.8" fill="#2a939b"><tspan x="737.125" y="240.75">United States</tspan></text></g></g><g class="Lines"><rect x="70" y="92" width="632" height="443" fill="rgba(255,255,255,0)" opacity="0"></rect><g class="key-Greece_0"><path stroke="#34983f" stroke-linecap="round" d="M451 528L457 528L462 528L468 527L473 528L479 527L484 527L490 526L495 526L501 525L506 526L511 525L517 523L522 523L528 522L533 522L539 524L544 523L550 523L555 522L560 522L566 521L571 521L577 521L582 520L588 519L593 518L599 519L604 518L610 518L615 519L620 520L626 522L631 523L637 522L642 522L648 522L653 523L659 523L664 524L669 525L675 526L680 527L686 528L691 529L697 529L702 529" fill="none" stroke-width="1.5"></path><g fill="#34983f"><circle cx="451" cy="528" r="2"></circle><circle cx="457" cy="528" r="2"></circle><circle cx="462" cy="528" r="2"></circle><circle cx="468" cy="527" r="2"></circle><circle cx="473" cy="528" r="2"></circle><circle cx="479" cy="527" r="2"></circle><circle cx="484" cy="527" r="2"></circle><circle cx="490" cy="526" r="2"></circle><circle cx="495" cy="526" r="2"></circle><circle cx="501" cy="525" r="2"></circle><circle cx="506" cy="526" r="2"></circle><circle cx="511" cy="525" r="2"></circle><circle cx="517" cy="523" r="2"></circle><circle cx="522" cy="523" r="2"></circle><circle cx="528" cy="522" r="2"></circle><circle cx="533" cy="522" r="2"></circle><circle cx="539" cy="524" r="2"></circle><circle cx="544" cy="523" r="2"></circle><circle cx="550" cy="523" r="2"></circle><circle cx="555" cy="522" r="2"></circle><circle cx="560" cy="522" r="2"></circle><circle cx="566" cy="521" r="2"></circle><circle cx="571" cy="521" r="2"></circle><circle cx="577" cy="521" r="2"></circle><circle cx="582" cy="520" r="2"></circle><circle cx="588" cy="519" r="2"></circle><circle cx="593" cy="518" r="2"></circle><circle cx="599" cy="519" r="2"></circle><circle cx="604" cy="518" r="2"></circle><circle cx="610" cy="518" r="2"></circle><circle cx="615" cy="519" r="2"></circle><circle cx="620" cy="520" r="2"></circle><circle cx="626" cy="522" r="2"></circle><circle cx="631" cy="523" r="2"></circle><circle cx="637" cy="522" r="2"></circle><circle cx="642" cy="522" r="2"></circle><circle cx="648" cy="522" r="2"></circle><circle cx="653" cy="523" r="2"></circle><circle cx="659" cy="523" r="2"></circle><circle cx="664" cy="524" r="2"></circle><circle cx="669" cy="525" r="2"></circle><circle cx="675" cy="526" r="2"></circle><circle cx="680" cy="527" r="2"></circle><circle cx="686" cy="528" r="2"></circle><circle cx="691" cy="529" r="2"></circle><circle cx="697" cy="529" r="2"></circle><circle cx="702" cy="529" r="2"></circle></g></g><g class="key-France_0"><path stroke="#a652ba" stroke-linecap="round" d="M451 404L457 394L462 391L468 399L473 418L479 421L484 416L490 421L495 430L501 427L506 426L511 427L517 428L522 432L528 434L533 445L539 440L544 450L550 444L555 444L560 446L566 452L571 456L577 459L582 463L588 464L593 467L599 468L604 464L610 468L615 471L620 470L626 474L631 487L637 491L642 493L648 498L653 499L659 501L664 501L669 504L675 504L680 506L686 509L691 508L697 508L702 508" fill="none" stroke-width="1.5"></path><g fill="#a652ba"><circle cx="451" cy="404" r="2"></circle><circle cx="457" cy="394" r="2"></circle><circle cx="462" cy="391" r="2"></circle><circle cx="468" cy="399" r="2"></circle><circle cx="473" cy="418" r="2"></circle><circle cx="479" cy="421" r="2"></circle><circle cx="484" cy="416" r="2"></circle><circle cx="490" cy="421" r="2"></circle><circle cx="495" cy="430" r="2"></circle><circle cx="501" cy="427" r="2"></circle><circle cx="506" cy="426" r="2"></circle><circle cx="511" cy="427" r="2"></circle><circle cx="517" cy="428" r="2"></circle><circle cx="522" cy="432" r="2"></circle><circle cx="528" cy="434" r="2"></circle><circle cx="533" cy="445" r="2"></circle><circle cx="539" cy="440" r="2"></circle><circle cx="544" cy="450" r="2"></circle><circle cx="550" cy="444" r="2"></circle><circle cx="555" cy="444" r="2"></circle><circle cx="560" cy="446" r="2"></circle><circle cx="566" cy="452" r="2"></circle><circle cx="571" cy="456" r="2"></circle><circle cx="577" cy="459" r="2"></circle><circle cx="582" cy="463" r="2"></circle><circle cx="588" cy="464" r="2"></circle><circle cx="593" cy="467" r="2"></circle><circle cx="599" cy="468" r="2"></circle><circle cx="604" cy="464" r="2"></circle><circle cx="610" cy="468" r="2"></circle><circle cx="615" cy="471" r="2"></circle><circle cx="620" cy="470" r="2"></circle><circle cx="626" cy="474" r="2"></circle><circle cx="631" cy="487" r="2"></circle><circle cx="637" cy="491" r="2"></circle><circle cx="642" cy="493" r="2"></circle><circle cx="648" cy="498" r="2"></circle><circle cx="653" cy="499" r="2"></circle><circle cx="659" cy="501" r="2"></circle><circle cx="664" cy="501" r="2"></circle><circle cx="669" cy="504" r="2"></circle><circle cx="675" cy="504" r="2"></circle><circle cx="680" cy="506" r="2"></circle><circle cx="686" cy="509" r="2"></circle><circle cx="691" cy="508" r="2"></circle><circle cx="697" cy="508" r="2"></circle><circle cx="702" cy="508" r="2"></circle></g></g><g class="key-Germany_0"><path stroke="#f6a324" stroke-linecap="round" d="M342 484L348 473L353 473L359 444L364 439L370 433L375 428L381 432L386 438L392 425L397 421L402 419L408 420L413 420L419 404L424 410L430 401L435 399L441 403L446 403L451 382L457 386L462 385L468 405L473 419L479 417L484 417L490 416L495 418L501 430L506 431L511 442L517 443L522 442L528 454L533 468L539 464L544 472L550 470L555 472L560 472L566 445L571 451L577 456L582 457L588 460L593 466L599 467L604 473L610 473L615 476L620 480L626 481L631 483L637 489L642 493L648 495L653 496L659 500L664 502L669 506L675 503L680 507L686 509L691 508L697 508L702 510" fill="none" stroke-width="1.5"></path><g fill="#f6a324"><circle cx="342" cy="484" r="2"></circle><circle cx="348" cy="473" r="2"></circle><circle cx="353" cy="473" r="2"></circle><circle cx="359" cy="444" r="2"></circle><circle cx="364" cy="439" r="2"></circle><circle cx="370" cy="433" r="2"></circle><circle cx="375" cy="428" r="2"></circle><circle cx="381" cy="432" r="2"></circle><circle cx="386" cy="438" r="2"></circle><circle cx="392" cy="425" r="2"></circle><circle cx="397" cy="421" r="2"></circle><circle cx="402" cy="419" r="2"></circle><circle cx="408" cy="420" r="2"></circle><circle cx="413" cy="420" r="2"></circle><circle cx="419" cy="404" r="2"></circle><circle cx="424" cy="410" r="2"></circle><circle cx="430" cy="401" r="2"></circle><circle cx="435" cy="399" r="2"></circle><circle cx="441" cy="403" r="2"></circle><circle cx="446" cy="403" r="2"></circle><circle cx="451" cy="382" r="2"></circle><circle cx="457" cy="386" r="2"></circle><circle cx="462" cy="385" r="2"></circle><circle cx="468" cy="405" r="2"></circle><circle cx="473" cy="419" r="2"></circle><circle cx="479" cy="417" r="2"></circle><circle cx="484" cy="417" r="2"></circle><circle cx="490" cy="416" r="2"></circle><circle cx="495" cy="418" r="2"></circle><circle cx="501" cy="430" r="2"></circle><circle cx="506" cy="431" r="2"></circle><circle cx="511" cy="442" r="2"></circle><circle cx="517" cy="443" r="2"></circle><circle cx="522" cy="442" r="2"></circle><circle cx="528" cy="454" r="2"></circle><circle cx="533" cy="468" r="2"></circle><circle cx="539" cy="464" r="2"></circle><circle cx="544" cy="472" r="2"></circle><circle cx="550" cy="470" r="2"></circle><circle cx="555" cy="472" r="2"></circle><circle cx="560" cy="472" r="2"></circle><circle cx="566" cy="445" r="2"></circle><circle cx="571" cy="451" r="2"></circle><circle cx="577" cy="456" r="2"></circle><circle cx="582" cy="457" r="2"></circle><circle cx="588" cy="460" r="2"></circle><circle cx="593" cy="466" r="2"></circle><circle cx="599" cy="467" r="2"></circle><circle cx="604" cy="473" r="2"></circle><circle cx="610" cy="473" r="2"></circle><circle cx="615" cy="476" r="2"></circle><circle cx="620" cy="480" r="2"></circle><circle cx="626" cy="481" r="2"></circle><circle cx="631" cy="483" r="2"></circle><circle cx="637" cy="489" r="2"></circle><circle cx="642" cy="493" r="2"></circle><circle cx="648" cy="495" r="2"></circle><circle cx="653" cy="496" r="2"></circle><circle cx="659" cy="500" r="2"></circle><circle cx="664" cy="502" r="2"></circle><circle cx="669" cy="506" r="2"></circle><circle cx="675" cy="503" r="2"></circle><circle cx="680" cy="507" r="2"></circle><circle cx="686" cy="509" r="2"></circle><circle cx="691" cy="508" r="2"></circle><circle cx="697" cy="508" r="2"></circle><circle cx="702" cy="510" r="2"></circle></g></g><g class="key-Scotland_0"><path stroke="#ca2628" stroke-linecap="round" d="M342 531L370 530L397 530L424 529L451 529L479 529L506 530L533 531L539 531L544 531L550 531L555 531L560 531L566 531L571 532L577 532L582 532L588 532L593 533L599 532L604 532L610 533L615 533L620 533L626 533L631 533L637 533L642 533L648 533L653 533L659 533L664 534L669 534L675 534L680 534L686 534L691 534L697 534L702 534" fill="none" stroke-width="1.5"></path><g fill="#ca2628"><circle cx="342" cy="531" r="2"></circle><circle cx="370" cy="530" r="2"></circle><circle cx="397" cy="530" r="2"></circle><circle cx="424" cy="529" r="2"></circle><circle cx="451" cy="529" r="2"></circle><circle cx="479" cy="529" r="2"></circle><circle cx="506" cy="530" r="2"></circle><circle cx="533" cy="531" r="2"></circle><circle cx="539" cy="531" r="2"></circle><circle cx="544" cy="531" r="2"></circle><circle cx="550" cy="531" r="2"></circle><circle cx="555" cy="531" r="2"></circle><circle cx="560" cy="531" r="2"></circle><circle cx="566" cy="531" r="2"></circle><circle cx="571" cy="532" r="2"></circle><circle cx="577" cy="532" r="2"></circle><circle cx="582" cy="532" r="2"></circle><circle cx="588" cy="532" r="2"></circle><circle cx="593" cy="533" r="2"></circle><circle cx="599" cy="532" r="2"></circle><circle cx="604" cy="532" r="2"></circle><circle cx="610" cy="533" r="2"></circle><circle cx="615" cy="533" r="2"></circle><circle cx="620" cy="533" r="2"></circle><circle cx="626" cy="533" r="2"></circle><circle cx="631" cy="533" r="2"></circle><circle cx="637" cy="533" r="2"></circle><circle cx="642" cy="533" r="2"></circle><circle cx="648" cy="533" r="2"></circle><circle cx="653" cy="533" r="2"></circle><circle cx="659" cy="533" r="2"></circle><circle cx="664" cy="534" r="2"></circle><circle cx="669" cy="534" r="2"></circle><circle cx="675" cy="534" r="2"></circle><circle cx="680" cy="534" r="2"></circle><circle cx="686" cy="534" r="2"></circle><circle cx="691" cy="534" r="2"></circle><circle cx="697" cy="534" r="2"></circle><circle cx="702" cy="534" r="2"></circle></g></g><g class="key-United-States_0"><path stroke="#2a939b" stroke-linecap="round" d="M70 535L75 535L81 535L86 534L92 534L97 533L103 533L108 531L114 529L119 526L124 523L130 519L135 512L141 503L146 500L152 481L157 473L163 459L168 453L174 448L179 438L184 430L190 417L195 393L201 389L206 370L212 358L217 340L223 324L228 299L233 287L239 281L244 312L250 298L255 262L261 260L266 247L272 234L277 288L283 289L288 273L293 231L299 320L304 354L310 351L315 322L321 281L326 287L332 290L337 294L342 271L348 254L353 248L359 247L364 265L370 243L375 233L381 241L386 254L392 247L397 245L402 246L408 225L413 203L419 172L424 160L430 130L435 124L441 107L446 97L451 106L457 106L462 92L468 96L473 168L479 173L484 172L490 154L495 134L501 128L506 128L511 142L517 185L522 196L528 183L533 186L539 168L544 166L550 160L555 172L560 180L566 204L571 222L577 215L582 211L588 202L593 200L599 200L604 205L610 203L615 201L620 199L626 193L631 194L637 194L642 189L648 195L653 206L659 237L664 265L669 272L675 276L680 266L686 273L691 274L697 252L702 237" fill="none" stroke-width="1.5"></path><g fill="#2a939b"><circle cx="70" cy="535" r="2"></circle><circle cx="75" cy="535" r="2"></circle><circle cx="81" cy="535" r="2"></circle><circle cx="86" cy="534" r="2"></circle><circle cx="92" cy="534" r="2"></circle><circle cx="97" cy="533" r="2"></circle><circle cx="103" cy="533" r="2"></circle><circle cx="108" cy="531" r="2"></circle><circle cx="114" cy="529" r="2"></circle><circle cx="119" cy="526" r="2"></circle><circle cx="124" cy="523" r="2"></circle><circle cx="130" cy="519" r="2"></circle><circle cx="135" cy="512" r="2"></circle><circle cx="141" cy="503" r="2"></circle><circle cx="146" cy="500" r="2"></circle><circle cx="152" cy="481" r="2"></circle><circle cx="157" cy="473" r="2"></circle><circle cx="163" cy="459" r="2"></circle><circle cx="168" cy="453" r="2"></circle><circle cx="174" cy="448" r="2"></circle><circle cx="179" cy="438" r="2"></circle><circle cx="184" cy="430" r="2"></circle><circle cx="190" cy="417" r="2"></circle><circle cx="195" cy="393" r="2"></circle><circle cx="201" cy="389" r="2"></circle><circle cx="206" cy="370" r="2"></circle><circle cx="212" cy="358" r="2"></circle><circle cx="217" cy="340" r="2"></circle><circle cx="223" cy="324" r="2"></circle><circle cx="228" cy="299" r="2"></circle><circle cx="233" cy="287" r="2"></circle><circle cx="239" cy="281" r="2"></circle><circle cx="244" cy="312" r="2"></circle><circle cx="250" cy="298" r="2"></circle><circle cx="255" cy="262" r="2"></circle><circle cx="261" cy="260" r="2"></circle><circle cx="266" cy="247" r="2"></circle><circle cx="272" cy="234" r="2"></circle><circle cx="277" cy="288" r="2"></circle><circle cx="283" cy="289" r="2"></circle><circle cx="288" cy="273" r="2"></circle><circle cx="293" cy="231" r="2"></circle><circle cx="299" cy="320" r="2"></circle><circle cx="304" cy="354" r="2"></circle><circle cx="310" cy="351" r="2"></circle><circle cx="315" cy="322" r="2"></circle><circle cx="321" cy="281" r="2"></circle><circle cx="326" cy="287" r="2"></circle><circle cx="332" cy="290" r="2"></circle><circle cx="337" cy="294" r="2"></circle><circle cx="342" cy="271" r="2"></circle><circle cx="348" cy="254" r="2"></circle><circle cx="353" cy="248" r="2"></circle><circle cx="359" cy="247" r="2"></circle><circle cx="364" cy="265" r="2"></circle><circle cx="370" cy="243" r="2"></circle><circle cx="375" cy="233" r="2"></circle><circle cx="381" cy="241" r="2"></circle><circle cx="386" cy="254" r="2"></circle><circle cx="392" cy="247" r="2"></circle><circle cx="397" cy="245" r="2"></circle><circle cx="402" cy="246" r="2"></circle><circle cx="408" cy="225" r="2"></circle><circle cx="413" cy="203" r="2"></circle><circle cx="419" cy="172" r="2"></circle><circle cx="424" cy="160" r="2"></circle><circle cx="430" cy="130" r="2"></circle><circle cx="435" cy="124" r="2"></circle><circle cx="441" cy="107" r="2"></circle><circle cx="446" cy="97" r="2"></circle><circle cx="451" cy="106" r="2"></circle><circle cx="457" cy="106" r="2"></circle><circle cx="462" cy="92" r="2"></circle><circle cx="468" cy="96" r="2"></circle><circle cx="473" cy="168" r="2"></circle><circle cx="479" cy="173" r="2"></circle><circle cx="484" cy="172" r="2"></circle><circle cx="490" cy="154" r="2"></circle><circle cx="495" cy="134" r="2"></circle><circle cx="501" cy="128" r="2"></circle><circle cx="506" cy="128" r="2"></circle><circle cx="511" cy="142" r="2"></circle><circle cx="517" cy="185" r="2"></circle><circle cx="522" cy="196" r="2"></circle><circle cx="528" cy="183" r="2"></circle><circle cx="533" cy="186" r="2"></circle><circle cx="539" cy="168" r="2"></circle><circle cx="544" cy="166" r="2"></circle><circle cx="550" cy="160" r="2"></circle><circle cx="555" cy="172" r="2"></circle><circle cx="560" cy="180" r="2"></circle><circle cx="566" cy="204" r="2"></circle><circle cx="571" cy="222" r="2"></circle><circle cx="577" cy="215" r="2"></circle><circle cx="582" cy="211" r="2"></circle><circle cx="588" cy="202" r="2"></circle><circle cx="593" cy="200" r="2"></circle><circle cx="599" cy="200" r="2"></circle><circle cx="604" cy="205" r="2"></circle><circle cx="610" cy="203" r="2"></circle><circle cx="615" cy="201" r="2"></circle><circle cx="620" cy="199" r="2"></circle><circle cx="626" cy="193" r="2"></circle><circle cx="631" cy="194" r="2"></circle><circle cx="637" cy="194" r="2"></circle><circle cx="642" cy="189" r="2"></circle><circle cx="648" cy="195" r="2"></circle><circle cx="653" cy="206" r="2"></circle><circle cx="659" cy="237" r="2"></circle><circle cx="664" cy="265" r="2"></circle><circle cx="669" cy="272" r="2"></circle><circle cx="675" cy="276" r="2"></circle><circle cx="680" cy="266" r="2"></circle><circle cx="686" cy="273" r="2"></circle><circle cx="691" cy="274" r="2"></circle><circle cx="697" cy="252" r="2"></circle><circle cx="702" cy="237" r="2"></circle></g></g><g class="key-Northern-Ireland_0"><path stroke="#3360a9" stroke-linecap="round" d="M239 534L244 534L250 534L255 534L261 534L266 534L272 534L277 534L283 534L288 534L293 533L299 533L304 534L310 534L315 534L321 534L326 534L332 534L337 534L342 534L348 534L353 534L359 534L364 534L370 534L375 534L381 534L386 534L392 534L397 534L402 534L408 534L413 534L419 534L424 534L430 533L435 534L441 534L446 533L451 533L457 533L462 532L468 533L473 533L479 533L484 533L490 533L495 533L501 533L506 534L511 534L517 534L522 534L528 534L533 534L539 533L544 534L550 534L555 534L560 534L566 534L571 534L577 534L582 534L588 534L593 534L599 534L604 534L610 534L615 534L620 534L626 534L631 534L637 534L642 534L648 534L653 534L659 534L664 534L669 535L675 535L680 535L686 535L691 535L697 535L702 535" fill="none" stroke-width="1.5"></path><g fill="#3360a9"><circle cx="239" cy="534" r="2"></circle><circle cx="244" cy="534" r="2"></circle><circle cx="250" cy="534" r="2"></circle><circle cx="255" cy="534" r="2"></circle><circle cx="261" cy="534" r="2"></circle><circle cx="266" cy="534" r="2"></circle><circle cx="272" cy="534" r="2"></circle><circle cx="277" cy="534" r="2"></circle><circle cx="283" cy="534" r="2"></circle><circle cx="288" cy="534" r="2"></circle><circle cx="293" cy="533" r="2"></circle><circle cx="299" cy="533" r="2"></circle><circle cx="304" cy="534" r="2"></circle><circle cx="310" cy="534" r="2"></circle><circle cx="315" cy="534" r="2"></circle><circle cx="321" cy="534" r="2"></circle><circle cx="326" cy="534" r="2"></circle><circle cx="332" cy="534" r="2"></circle><circle cx="337" cy="534" r="2"></circle><circle cx="342" cy="534" r="2"></circle><circle cx="348" cy="534" r="2"></circle><circle cx="353" cy="534" r="2"></circle><circle cx="359" cy="534" r="2"></circle><circle cx="364" cy="534" r="2"></circle><circle cx="370" cy="534" r="2"></circle><circle cx="375" cy="534" r="2"></circle><circle cx="381" cy="534" r="2"></circle><circle cx="386" cy="534" r="2"></circle><circle cx="392" cy="534" r="2"></circle><circle cx="397" cy="534" r="2"></circle><circle cx="402" cy="534" r="2"></circle><circle cx="408" cy="534" r="2"></circle><circle cx="413" cy="534" r="2"></circle><circle cx="419" cy="534" r="2"></circle><circle cx="424" cy="534" r="2"></circle><circle cx="430" cy="533" r="2"></circle><circle cx="435" cy="534" r="2"></circle><circle cx="441" cy="534" r="2"></circle><circle cx="446" cy="533" r="2"></circle><circle cx="451" cy="533" r="2"></circle><circle cx="457" cy="533" r="2"></circle><circle cx="462" cy="532" r="2"></circle><circle cx="468" cy="533" r="2"></circle><circle cx="473" cy="533" r="2"></circle><circle cx="479" cy="533" r="2"></circle><circle cx="484" cy="533" r="2"></circle><circle cx="490" cy="533" r="2"></circle><circle cx="495" cy="533" r="2"></circle><circle cx="501" cy="533" r="2"></circle><circle cx="506" cy="534" r="2"></circle><circle cx="511" cy="534" r="2"></circle><circle cx="517" cy="534" r="2"></circle><circle cx="522" cy="534" r="2"></circle><circle cx="528" cy="534" r="2"></circle><circle cx="533" cy="534" r="2"></circle><circle cx="539" cy="533" r="2"></circle><circle cx="544" cy="534" r="2"></circle><circle cx="550" cy="534" r="2"></circle><circle cx="555" cy="534" r="2"></circle><circle cx="560" cy="534" r="2"></circle><circle cx="566" cy="534" r="2"></circle><circle cx="571" cy="534" r="2"></circle><circle cx="577" cy="534" r="2"></circle><circle cx="582" cy="534" r="2"></circle><circle cx="588" cy="534" r="2"></circle><circle cx="593" cy="534" r="2"></circle><circle cx="599" cy="534" r="2"></circle><circle cx="604" cy="534" r="2"></circle><circle cx="610" cy="534" r="2"></circle><circle cx="615" cy="534" r="2"></circle><circle cx="620" cy="534" r="2"></circle><circle cx="626" cy="534" r="2"></circle><circle cx="631" cy="534" r="2"></circle><circle cx="637" cy="534" r="2"></circle><circle cx="642" cy="534" r="2"></circle><circle cx="648" cy="534" r="2"></circle><circle cx="653" cy="534" r="2"></circle><circle cx="659" cy="534" r="2"></circle><circle cx="664" cy="534" r="2"></circle><circle cx="669" cy="535" r="2"></circle><circle cx="675" cy="535" r="2"></circle><circle cx="680" cy="535" r="2"></circle><circle cx="686" cy="535" r="2"></circle><circle cx="691" cy="535" r="2"></circle><circle cx="697" cy="535" r="2"></circle><circle cx="702" cy="535" r="2"></circle></g></g></g></g></g><g class="SourcesFooter" style="fill:#777"><g class="clickable" style="fill:#777"><text font-size="12.60" x="15.0" y="581.6"><tspan x="15" y="581.58">Source: OECD &amp; National  Statistic Divisions</tspan></text></g><text font-size="12.60" x="775.4" y="581.6"><tspan x="775.402" y="581.58"><a style="fill: #777;" class="cclogo" href="http://creativecommons.org/licenses/by-sa/4.0/deed.en_US" target="_blank">CC BY-SA</a></tspan></text></g></g></svg>