<svg xmlns="http://www.w3.org/2000/svg" version="1.1" style="font-family:&#x27;Helvetica Neue&#x27;, Helvetica, Arial, sans-serif;font-size:18px;background-color:white;text-rendering:optimizeLegibility;-webkit-font-smoothing:antialiased" width="850" height="600"><g class="ChartTab"><g class="HeaderView"><g opacity="0.8" transform="translate(778, 15) scale(0.27)"><a xmlns:xlink="http://www.w3.org/1999/xlink" xlink:href="https://ourworldindata.org" target="_blank"><g><rect x="0" y="0" fill="#1B2543" width="211.2" height="130.1"/><rect x="0" y="112.2" fill="#E63912" width="211.2" height="17.9"/><g><rect x="1.2" y="12.3" fill="none" width="210.2" height="99.2"/><path fill="#FFFFFF" d="M37.8,32.2c0,12.7-7.7,19.4-17.1,19.4c-9.7,0-16.6-7.5-16.6-18.7c0-11.7,7.3-19.3,17.1-19.3 C31.3,13.7,37.8,21.3,37.8,32.2z M9.2,32.8c0,7.9,4.3,14.9,11.8,14.9c7.5,0,11.8-6.9,11.8-15.3c0-7.3-3.8-14.9-11.8-14.9 C13.1,17.5,9.2,24.8,9.2,32.8z"/><path fill="#FFFFFF" d="M62.7,43.8c0,2.7,0.1,5.1,0.2,7.2h-4.3l-0.3-4.3h-0.1c-1.3,2.1-4,4.9-8.8,4.9c-4.2,0-9.1-2.3-9.1-11.6 V24.6h4.8v14.6c0,5,1.5,8.4,5.9,8.4c3.2,0,5.5-2.2,6.3-4.4c0.3-0.7,0.4-1.6,0.4-2.5V24.6h4.8V43.8z"/><path fill="#FFFFFF" d="M67.3,32.8c0-3.1-0.1-5.8-0.2-8.2h4.2l0.2,5.2h0.2c1.2-3.5,4.1-5.8,7.3-5.8c0.5,0,0.9,0.1,1.4,0.2v4.5 c-0.5-0.1-1-0.2-1.6-0.2c-3.4,0-5.8,2.6-6.5,6.2c-0.1,0.7-0.2,1.4-0.2,2.2V51h-4.8V32.8z"/><path fill="#FFFFFF" d="M95.4,51l-9.4-36.8h5l4.4,18.6c1.1,4.6,2.1,9.2,2.7,12.7h0.1c0.6-3.7,1.8-8,3-12.8l4.9-18.5h5l4.5,18.7 c1,4.4,2,8.7,2.6,12.6h0.1c0.8-4,1.8-8.1,3-12.7l4.9-18.5h4.9L120.6,51h-5L111,31.9c-1.1-4.7-1.9-8.3-2.4-12h-0.1 c-0.7,3.7-1.5,7.3-2.8,12L100.4,51H95.4z"/><path fill="#FFFFFF" d="M154.9,37.6c0,9.8-6.8,14-13.2,14c-7.2,0-12.7-5.2-12.7-13.6c0-8.8,5.8-14,13.1-14 C149.8,24,154.9,29.5,154.9,37.6z M133.9,37.9c0,5.8,3.3,10.1,8,10.1c4.6,0,8-4.3,8-10.3c0-4.5-2.2-10.1-7.9-10.1 C136.3,27.6,133.9,32.8,133.9,37.9z"/><path fill="#FFFFFF" d="M158.2,32.8c0-3.1-0.1-5.8-0.2-8.2h4.2l0.2,5.2h0.2c1.2-3.5,4.1-5.8,7.3-5.8c0.5,0,0.9,0.1,1.4,0.2v4.5 c-0.5-0.1-1-0.2-1.6-0.2c-3.4,0-5.8,2.6-6.5,6.2c-0.1,0.7-0.2,1.4-0.2,2.2V51h-4.8V32.8z"/><path fill="#FFFFFF" d="M173.5,12.3h4.8V51h-4.8V12.3z"/><path fill="#FFFFFF" d="M206.5,12.3v31.9c0,2.3,0.1,5,0.2,6.8h-4.3l-0.2-4.6H202c-1.5,2.9-4.7,5.2-9,5.2 c-6.4,0-11.3-5.4-11.3-13.4c-0.1-8.8,5.4-14.2,11.9-14.2c4,0,6.8,1.9,8,4h0.1V12.3H206.5z M201.7,35.4c0-0.6-0.1-1.4-0.2-2 c-0.7-3.1-3.3-5.6-6.9-5.6c-5,0-7.9,4.4-7.9,10.2c0,5.3,2.6,9.8,7.8,9.8c3.2,0,6.2-2.1,7.1-5.7c0.2-0.7,0.2-1.3,0.2-2.1V35.4z"/><path fill="#FFFFFF" d="M42.8,64c0.1,1.6-1.1,2.9-3.1,2.9c-1.7,0-2.9-1.3-2.9-2.9c0-1.7,1.3-3,3-3C41.7,61,42.8,62.3,42.8,64z M37.4,97.8V71.4h4.8v26.4H37.4z"/><path fill="#FFFFFF" d="M47.5,78.6c0-2.7-0.1-5-0.2-7.1h4.3l0.3,4.4h0.1c1.3-2.5,4.4-5,8.8-5c3.7,0,9.4,2.2,9.4,11.2v15.8h-4.8 V82.6c0-4.3-1.6-7.8-6.1-7.8c-3.2,0-5.6,2.2-6.5,4.9c-0.2,0.6-0.3,1.4-0.3,2.2v15.9h-4.8V78.6z"/><path fill="#FFFFFF" d="M84,61.6c2.9-0.4,6.3-0.8,10.1-0.8c6.8,0,11.7,1.6,14.9,4.6c3.3,3,5.2,7.3,5.2,13.2c0,6-1.9,10.9-5.3,14.3 c-3.4,3.4-9.1,5.3-16.3,5.3c-3.4,0-6.2-0.2-8.6-0.4V61.6z M88.8,94.1c1.2,0.2,3,0.3,4.8,0.3c10.2,0,15.7-5.7,15.7-15.6 c0.1-8.7-4.9-14.2-14.9-14.2c-2.5,0-4.3,0.2-5.6,0.5V94.1z"/><path fill="#FFFFFF" d="M132.1,97.8l-0.4-3.3h-0.2c-1.5,2.1-4.3,3.9-8.1,3.9c-5.4,0-8.1-3.8-8.1-7.6c0-6.4,5.7-9.9,15.9-9.8v-0.5 c0-2.2-0.6-6.1-6-6.1c-2.5,0-5,0.8-6.9,2l-1.1-3.2c2.2-1.4,5.4-2.3,8.7-2.3c8.1,0,10.1,5.5,10.1,10.8v9.9c0,2.3,0.1,4.5,0.4,6.3 H132.1z M131.4,84.4c-5.3-0.1-11.2,0.8-11.2,5.9c0,3.1,2.1,4.6,4.5,4.6c3.4,0,5.6-2.2,6.4-4.4c0.2-0.5,0.3-1,0.3-1.5V84.4z"/><path fill="#FFFFFF" d="M146.6,63.9v7.6h6.9v3.7h-6.9v14.2c0,3.3,0.9,5.1,3.6,5.1c1.3,0,2.2-0.2,2.8-0.3l0.2,3.6 c-0.9,0.4-2.4,0.7-4.3,0.7c-2.2,0-4-0.7-5.2-2c-1.4-1.4-1.9-3.8-1.9-6.9V75.1h-4.1v-3.7h4.1v-6.3L146.6,63.9z"/><path fill="#FFFFFF" d="M171.4,97.8l-0.4-3.3h-0.2c-1.5,2.1-4.3,3.9-8.1,3.9c-5.4,0-8.1-3.8-8.1-7.6c0-6.4,5.7-9.9,15.9-9.8v-0.5 c0-2.2-0.6-6.1-6-6.1c-2.5,0-5,0.8-6.9,2l-1.1-3.2c2.2-1.4,5.4-2.3,8.7-2.3c8.1,0,10.1,5.5,10.1,10.8v9.9c0,2.3,0.1,4.5,0.4,6.3 H171.4z M170.7,84.4c-5.3-0.1-11.2,0.8-11.2,5.9c0,3.1,2.1,4.6,4.5,4.6c3.4,0,5.6-2.2,6.4-4.4c0.2-0.5,0.3-1,0.3-1.5V84.4z"/></g></g></a></g><a href="https://ourworldindata.org/grapher/road-incident-deaths-by-age" target="_blank"><text font-size="25.20" x="15.0" y="35.2" fill="#555"><tspan x="15" y="35.160000000000004">Road incident deaths by age, World</tspan></text></a><text font-size="14.40" x="15.0" y="53.7" fill="#666"><tspan x="15" y="53.72">Annual number of deaths from road incidents by age group, across both sexes.</tspan></text></g><g class="StackedArea"><defs><clipPath id="boundsClip-414"><rect x="93.062" y="0" width="820" height="959.8"></rect></clipPath></defs><g class="AxisBoxView"><g class="HorizontalAxis"><text x="93.1" y="556.5" fill="#666" text-anchor="middle" font-size="16.2">1990</text><text x="211" y="556.5" fill="#666" text-anchor="middle" font-size="16.2">1995</text><text x="329" y="556.5" fill="#666" text-anchor="middle" font-size="16.2">2000</text><text x="447" y="556.5" fill="#666" text-anchor="middle" font-size="16.2">2005</text><text x="565" y="556.5" fill="#666" text-anchor="middle" font-size="16.2">2010</text><text x="706.6" y="556.5" fill="#666" text-anchor="middle" font-size="16.2">2016</text></g><g class="VerticalAxis"><text x="88.06" y="535.3" fill="#666" dominant-baseline="middle" text-anchor="end" font-size="16.2">0</text><text x="88.06" y="468.5" fill="#666" dominant-baseline="middle" text-anchor="end" font-size="16.2">200,000</text><text x="88.06" y="401.6" fill="#666" dominant-baseline="middle" text-anchor="end" font-size="16.2">400,000</text><text x="88.06" y="334.8" fill="#666" dominant-baseline="middle" text-anchor="end" font-size="16.2">600,000</text><text x="88.06" y="268" fill="#666" dominant-baseline="middle" text-anchor="end" font-size="16.2">800,000</text><text x="88.06" y="201.2" fill="#666" dominant-baseline="middle" text-anchor="end" font-size="16.2">1 million</text><text x="88.06" y="134.3" fill="#666" dominant-baseline="middle" text-anchor="end" font-size="16.2">1.2 million</text></g><g class="AxisGridLines"><line x1="93.06" y1="535.3" x2="706.58" y2="535.3" stroke="#ccc"></line><line x1="93.06" y1="468.5" x2="706.58" y2="468.5" stroke="#ddd" stroke-dasharray="3,2"></line><line x1="93.06" y1="401.6" x2="706.58" y2="401.6" stroke="#ddd" stroke-dasharray="3,2"></line><line x1="93.06" y1="334.8" x2="706.58" y2="334.8" stroke="#ddd" stroke-dasharray="3,2"></line><line x1="93.06" y1="268" x2="706.58" y2="268" stroke="#ddd" stroke-dasharray="3,2"></line><line x1="93.06" y1="201.2" x2="706.58" y2="201.2" stroke="#ddd" stroke-dasharray="3,2"></line><line x1="93.06" y1="134.3" x2="706.58" y2="134.3" stroke="#ddd" stroke-dasharray="3,2"></line></g></g><g clip-path="url(#boundsClip-414)"><g class="HeightedLegend clickable"><g class="legendMark"><rect x="706.5799999999999" y="104.95" width="116.67500000000001" height="13.5" fill="#fff" opacity="0"></rect><text font-size="13.50" x="711.6" y="115.8" fill="#34983f"><tspan x="711.5799999999999" y="115.75">70+ years old</tspan></text></g><g class="legendMark"><rect x="706.5799999999999" y="183.95" width="128.42000000000002" height="13.5" fill="#fff" opacity="0"></rect><text font-size="13.50" x="711.6" y="194.8" fill="#9ecc8a"><tspan x="711.5799999999999" y="194.75">50-69 years old</tspan></text></g><g class="legendMark"><rect x="706.5799999999999" y="365.95" width="128.42000000000002" height="13.5" fill="#fff" opacity="0"></rect><text font-size="13.50" x="711.6" y="376.8" fill="#ffd53e"><tspan x="711.5799999999999" y="376.75">15-49 years old</tspan></text></g><g class="legendMark"><rect x="706.5799999999999" y="504.25" width="120.86" height="13.5" fill="#fff" opacity="0"></rect><text font-size="13.50" x="711.6" y="515.0" fill="#ca2628"><tspan x="711.5799999999999" y="515.05">5-14 years old</tspan></text></g><g class="legendMark"><rect x="706.5799999999999" y="521.55" width="90.62" height="13.5" fill="#fff" opacity="0"></rect><text font-size="13.50" x="711.6" y="532.3" fill="#3360a9"><tspan x="711.5799999999999" y="532.3499999999999">Under-5s</tspan></text></g></g><g class="Areas"><rect x="93.062" y="76.6" width="613.5179999999999" height="458.69999999999993" opacity="0" fill="rgba(255,255,255,0)"></rect><path class="World_0-area" stroke-linecap="round" d="M93.1 503.1L116.7 503.9L140.3 504.9L163.9 506L187.4 506.9L211 508.1L234.6 509.2L258.2 510.1L281.8 511L305.4 511.9L329 512.7L352.6 513.4L376.2 514.2L399.8 514.8L423.4 515.2L447 515.7L470.6 516.1L494.2 516.3L517.8 516.7L541.4 517.1L565 517.6L588.6 518.1L612.2 518.4L635.8 519L659.4 519.6L683 520.5L706.6 521.4L706.5799999999999 535.3L93.062 535.3" fill="#3360a9" fill-opacity="0.7"></path><path class="World_1-area" stroke-linecap="round" d="M93.1 467.8L116.7 469.3L140.3 470.4L163.9 471.5L187.4 472.4L211 472.9L234.6 473.5L258.2 474.6L281.8 476.6L305.4 478.4L329 480L352.6 481.7L376.2 483.5L399.8 485.3L423.4 486.7L447 488.5L470.6 489.9L494.2 490.9L517.8 491.9L541.4 492.3L565 493.2L588.6 494.4L612.2 495.3L635.8 496.2L659.4 497.3L683 498.9L706.6 500.6L706.6 521.4L683 520.5L659.4 519.6L635.8 519L612.2 518.4L588.6 518.1L565 517.6L541.4 517.1L517.8 516.7L494.2 516.3L470.6 516.1L447 515.7L423.4 515.2L399.8 514.8L376.2 514.2L352.6 513.4L329 512.7L305.4 511.9L281.8 511L258.2 510.1L234.6 509.2L211 508.1L187.4 506.9L163.9 506L140.3 504.9L116.7 503.9L93.1 503.1" fill="#ca2628" fill-opacity="0.7"></path><path class="World_4-area" stroke-linecap="round" d="M93.1 252.9L116.7 249.4L140.3 244.8L163.9 238.2L187.4 231.5L211 227.5L234.6 224.2L258.2 221.7L281.8 220.9L305.4 218.2L329 216.5L352.6 213.4L376.2 210.2L399.8 210.2L423.4 211.5L447 211.7L470.6 211.7L494.2 212.5L517.8 214.7L541.4 218L565 222.3L588.6 226L612.2 229.8L635.8 234.3L659.4 238.2L683 241.5L706.6 244.9L706.6 500.6L683 498.9L659.4 497.3L635.8 496.2L612.2 495.3L588.6 494.4L565 493.2L541.4 492.3L517.8 491.9L494.2 490.9L470.6 489.9L447 488.5L423.4 486.7L399.8 485.3L376.2 483.5L352.6 481.7L329 480L305.4 478.4L281.8 476.6L258.2 474.6L234.6 473.5L211 472.9L187.4 472.4L163.9 471.5L140.3 470.4L116.7 469.3L93.1 467.8" fill="#ffd53e" fill-opacity="0.7"></path><path class="World_2-area" stroke-linecap="round" d="M93.1 190.6L116.7 186.2L140.3 180L163.9 171.7L187.4 163.4L211 158.7L234.6 155.3L258.2 151.9L281.8 150.2L305.4 145.1L329 140.8L352.6 135.2L376.2 129.4L399.8 126.3L423.4 124.8L447 122.8L470.6 121.6L494.2 120.6L517.8 121.1L541.4 123L565 125.3L588.6 127.1L612.2 128.7L635.8 131.3L659.4 132.8L683 134.6L706.6 136.6L706.6 244.9L683 241.5L659.4 238.2L635.8 234.3L612.2 229.8L588.6 226L565 222.3L541.4 218L517.8 214.7L494.2 212.5L470.6 211.7L447 211.7L423.4 211.5L399.8 210.2L376.2 210.2L352.6 213.4L329 216.5L305.4 218.2L281.8 220.9L258.2 221.7L234.6 224.2L211 227.5L187.4 231.5L163.9 238.2L140.3 244.8L116.7 249.4L93.1 252.9" fill="#9ecc8a" fill-opacity="0.7"></path><path class="World_3-area" stroke-linecap="round" d="M93.1 162L116.7 157L140.3 149.9L163.9 140.6L187.4 131.3L211 125.7L234.6 121.4L258.2 117L281.8 114.3L305.4 108L329 102.3L352.6 95.4L376.2 88L399.8 84.3L423.4 82.2L447 79.6L470.6 78.1L494.2 76.6L517.8 76.6L541.4 78L565 79.5L588.6 81L612.2 82.1L635.8 84.3L659.4 85.1L683 86.1L706.6 86.8L706.6 136.6L683 134.6L659.4 132.8L635.8 131.3L612.2 128.7L588.6 127.1L565 125.3L541.4 123L517.8 121.1L494.2 120.6L470.6 121.6L447 122.8L423.4 124.8L399.8 126.3L376.2 129.4L352.6 135.2L329 140.8L305.4 145.1L281.8 150.2L258.2 151.9L234.6 155.3L211 158.7L187.4 163.4L163.9 171.7L140.3 180L116.7 186.2L93.1 190.6" fill="#34983f" fill-opacity="0.7"></path><path class="World_0-border" stroke-linecap="round" d="M93.1 503.1L116.7 503.9L140.3 504.9L163.9 506L187.4 506.9L211 508.1L234.6 509.2L258.2 510.1L281.8 511L305.4 511.9L329 512.7L352.6 513.4L376.2 514.2L399.8 514.8L423.4 515.2L447 515.7L470.6 516.1L494.2 516.3L517.8 516.7L541.4 517.1L565 517.6L588.6 518.1L612.2 518.4L635.8 519L659.4 519.6L683 520.5L706.6 521.4" stroke="rgb(43, 80, 141)" stroke-opacity="0.7" stroke-width="0.5" fill="none"></path><path class="World_1-border" stroke-linecap="round" d="M93.1 467.8L116.7 469.3L140.3 470.4L163.9 471.5L187.4 472.4L211 472.9L234.6 473.5L258.2 474.6L281.8 476.6L305.4 478.4L329 480L352.6 481.7L376.2 483.5L399.8 485.3L423.4 486.7L447 488.5L470.6 489.9L494.2 490.9L517.8 491.9L541.4 492.3L565 493.2L588.6 494.4L612.2 495.3L635.8 496.2L659.4 497.3L683 498.9L706.6 500.6" stroke="rgb(169, 32, 33)" stroke-opacity="0.7" stroke-width="0.5" fill="none"></path><path class="World_4-border" stroke-linecap="round" d="M93.1 252.9L116.7 249.4L140.3 244.8L163.9 238.2L187.4 231.5L211 227.5L234.6 224.2L258.2 221.7L281.8 220.9L305.4 218.2L329 216.5L352.6 213.4L376.2 210.2L399.8 210.2L423.4 211.5L447 211.7L470.6 211.7L494.2 212.5L517.8 214.7L541.4 218L565 222.3L588.6 226L612.2 229.8L635.8 234.3L659.4 238.2L683 241.5L706.6 244.9" stroke="rgb(213, 178, 52)" stroke-opacity="0.7" stroke-width="0.5" fill="none"></path><path class="World_2-border" stroke-linecap="round" d="M93.1 190.6L116.7 186.2L140.3 180L163.9 171.7L187.4 163.4L211 158.7L234.6 155.3L258.2 151.9L281.8 150.2L305.4 145.1L329 140.8L352.6 135.2L376.2 129.4L399.8 126.3L423.4 124.8L447 122.8L470.6 121.6L494.2 120.6L517.8 121.1L541.4 123L565 125.3L588.6 127.1L612.2 128.7L635.8 131.3L659.4 132.8L683 134.6L706.6 136.6" stroke="rgb(132, 171, 115)" stroke-opacity="0.7" stroke-width="0.5" fill="none"></path><path class="World_3-border" stroke-linecap="round" d="M93.1 162L116.7 157L140.3 149.9L163.9 140.6L187.4 131.3L211 125.7L234.6 121.4L258.2 117L281.8 114.3L305.4 108L329 102.3L352.6 95.4L376.2 88L399.8 84.3L423.4 82.2L447 79.6L470.6 78.1L494.2 76.6L517.8 76.6L541.4 78L565 79.5L588.6 81L612.2 82.1L635.8 84.3L659.4 85.1L683 86.1L706.6 86.8" stroke="rgb(44, 127, 53)" stroke-opacity="0.7" stroke-width="0.5" fill="none"></path></g></g></g><g class="SourcesFooter" style="fill:#777"><g class="clickable" style="fill:#777"><text font-size="12.60" x="15.0" y="581.6"><tspan x="15" y="581.58">Source: IHME, Global Burden of Disease (GBD)</tspan></text></g><text font-size="12.60" x="775.4" y="581.6"><tspan x="775.402" y="581.58"><a style="fill: #777;" class="cclogo" href="http://creativecommons.org/licenses/by-sa/4.0/deed.en_US" target="_blank">CC BY-SA</a></tspan></text></g></g></svg>