<svg xmlns="http://www.w3.org/2000/svg" version="1.1" style="font-family:&#x27;Helvetica Neue&#x27;, Helvetica, Arial, sans-serif;font-size:18px;background-color:white;text-rendering:optimizeLegibility;-webkit-font-smoothing:antialiased" width="850" height="600"><g class="ChartTab"><g class="HeaderView"><g opacity="0.8" transform="translate(778, 15) scale(0.27)"><a xmlns:xlink="http://www.w3.org/1999/xlink" xlink:href="https://ourworldindata.org" target="_blank"><g><rect x="0" y="0" fill="#1B2543" width="211.2" height="130.1"/><rect x="0" y="112.2" fill="#E63912" width="211.2" height="17.9"/><g><rect x="1.2" y="12.3" fill="none" width="210.2" height="99.2"/><path fill="#FFFFFF" d="M37.8,32.2c0,12.7-7.7,19.4-17.1,19.4c-9.7,0-16.6-7.5-16.6-18.7c0-11.7,7.3-19.3,17.1-19.3 C31.3,13.7,37.8,21.3,37.8,32.2z M9.2,32.8c0,7.9,4.3,14.9,11.8,14.9c7.5,0,11.8-6.9,11.8-15.3c0-7.3-3.8-14.9-11.8-14.9 C13.1,17.5,9.2,24.8,9.2,32.8z"/><path fill="#FFFFFF" d="M62.7,43.8c0,2.7,0.1,5.1,0.2,7.2h-4.3l-0.3-4.3h-0.1c-1.3,2.1-4,4.9-8.8,4.9c-4.2,0-9.1-2.3-9.1-11.6 V24.6h4.8v14.6c0,5,1.5,8.4,5.9,8.4c3.2,0,5.5-2.2,6.3-4.4c0.3-0.7,0.4-1.6,0.4-2.5V24.6h4.8V43.8z"/><path fill="#FFFFFF" d="M67.3,32.8c0-3.1-0.1-5.8-0.2-8.2h4.2l0.2,5.2h0.2c1.2-3.5,4.1-5.8,7.3-5.8c0.5,0,0.9,0.1,1.4,0.2v4.5 c-0.5-0.1-1-0.2-1.6-0.2c-3.4,0-5.8,2.6-6.5,6.2c-0.1,0.7-0.2,1.4-0.2,2.2V51h-4.8V32.8z"/><path fill="#FFFFFF" d="M95.4,51l-9.4-36.8h5l4.4,18.6c1.1,4.6,2.1,9.2,2.7,12.7h0.1c0.6-3.7,1.8-8,3-12.8l4.9-18.5h5l4.5,18.7 c1,4.4,2,8.7,2.6,12.6h0.1c0.8-4,1.8-8.1,3-12.7l4.9-18.5h4.9L120.6,51h-5L111,31.9c-1.1-4.7-1.9-8.3-2.4-12h-0.1 c-0.7,3.7-1.5,7.3-2.8,12L100.4,51H95.4z"/><path fill="#FFFFFF" d="M154.9,37.6c0,9.8-6.8,14-13.2,14c-7.2,0-12.7-5.2-12.7-13.6c0-8.8,5.8-14,13.1-14 C149.8,24,154.9,29.5,154.9,37.6z M133.9,37.9c0,5.8,3.3,10.1,8,10.1c4.6,0,8-4.3,8-10.3c0-4.5-2.2-10.1-7.9-10.1 C136.3,27.6,133.9,32.8,133.9,37.9z"/><path fill="#FFFFFF" d="M158.2,32.8c0-3.1-0.1-5.8-0.2-8.2h4.2l0.2,5.2h0.2c1.2-3.5,4.1-5.8,7.3-5.8c0.5,0,0.9,0.1,1.4,0.2v4.5 c-0.5-0.1-1-0.2-1.6-0.2c-3.4,0-5.8,2.6-6.5,6.2c-0.1,0.7-0.2,1.4-0.2,2.2V51h-4.8V32.8z"/><path fill="#FFFFFF" d="M173.5,12.3h4.8V51h-4.8V12.3z"/><path fill="#FFFFFF" d="M206.5,12.3v31.9c0,2.3,0.1,5,0.2,6.8h-4.3l-0.2-4.6H202c-1.5,2.9-4.7,5.2-9,5.2 c-6.4,0-11.3-5.4-11.3-13.4c-0.1-8.8,5.4-14.2,11.9-14.2c4,0,6.8,1.9,8,4h0.1V12.3H206.5z M201.7,35.4c0-0.6-0.1-1.4-0.2-2 c-0.7-3.1-3.3-5.6-6.9-5.6c-5,0-7.9,4.4-7.9,10.2c0,5.3,2.6,9.8,7.8,9.8c3.2,0,6.2-2.1,7.1-5.7c0.2-0.7,0.2-1.3,0.2-2.1V35.4z"/><path fill="#FFFFFF" d="M42.8,64c0.1,1.6-1.1,2.9-3.1,2.9c-1.7,0-2.9-1.3-2.9-2.9c0-1.7,1.3-3,3-3C41.7,61,42.8,62.3,42.8,64z M37.4,97.8V71.4h4.8v26.4H37.4z"/><path fill="#FFFFFF" d="M47.5,78.6c0-2.7-0.1-5-0.2-7.1h4.3l0.3,4.4h0.1c1.3-2.5,4.4-5,8.8-5c3.7,0,9.4,2.2,9.4,11.2v15.8h-4.8 V82.6c0-4.3-1.6-7.8-6.1-7.8c-3.2,0-5.6,2.2-6.5,4.9c-0.2,0.6-0.3,1.4-0.3,2.2v15.9h-4.8V78.6z"/><path fill="#FFFFFF" d="M84,61.6c2.9-0.4,6.3-0.8,10.1-0.8c6.8,0,11.7,1.6,14.9,4.6c3.3,3,5.2,7.3,5.2,13.2c0,6-1.9,10.9-5.3,14.3 c-3.4,3.4-9.1,5.3-16.3,5.3c-3.4,0-6.2-0.2-8.6-0.4V61.6z M88.8,94.1c1.2,0.2,3,0.3,4.8,0.3c10.2,0,15.7-5.7,15.7-15.6 c0.1-8.7-4.9-14.2-14.9-14.2c-2.5,0-4.3,0.2-5.6,0.5V94.1z"/><path fill="#FFFFFF" d="M132.1,97.8l-0.4-3.3h-0.2c-1.5,2.1-4.3,3.9-8.1,3.9c-5.4,0-8.1-3.8-8.1-7.6c0-6.4,5.7-9.9,15.9-9.8v-0.5 c0-2.2-0.6-6.1-6-6.1c-2.5,0-5,0.8-6.9,2l-1.1-3.2c2.2-1.4,5.4-2.3,8.7-2.3c8.1,0,10.1,5.5,10.1,10.8v9.9c0,2.3,0.1,4.5,0.4,6.3 H132.1z M131.4,84.4c-5.3-0.1-11.2,0.8-11.2,5.9c0,3.1,2.1,4.6,4.5,4.6c3.4,0,5.6-2.2,6.4-4.4c0.2-0.5,0.3-1,0.3-1.5V84.4z"/><path fill="#FFFFFF" d="M146.6,63.9v7.6h6.9v3.7h-6.9v14.2c0,3.3,0.9,5.1,3.6,5.1c1.3,0,2.2-0.2,2.8-0.3l0.2,3.6 c-0.9,0.4-2.4,0.7-4.3,0.7c-2.2,0-4-0.7-5.2-2c-1.4-1.4-1.9-3.8-1.9-6.9V75.1h-4.1v-3.7h4.1v-6.3L146.6,63.9z"/><path fill="#FFFFFF" d="M171.4,97.8l-0.4-3.3h-0.2c-1.5,2.1-4.3,3.9-8.1,3.9c-5.4,0-8.1-3.8-8.1-7.6c0-6.4,5.7-9.9,15.9-9.8v-0.5 c0-2.2-0.6-6.1-6-6.1c-2.5,0-5,0.8-6.9,2l-1.1-3.2c2.2-1.4,5.4-2.3,8.7-2.3c8.1,0,10.1,5.5,10.1,10.8v9.9c0,2.3,0.1,4.5,0.4,6.3 H171.4z M170.7,84.4c-5.3-0.1-11.2,0.8-11.2,5.9c0,3.1,2.1,4.6,4.5,4.6c3.4,0,5.6-2.2,6.4-4.4c0.2-0.5,0.3-1,0.3-1.5V84.4z"/></g></g></a></g><a href="https://ourworldindata.org/grapher/road-death-rates-by-age" target="_blank"><text font-size="25.20" x="15.0" y="35.2" fill="#555"><tspan x="15" y="35.160000000000004">Road incident death rates by age (per 100,000), World</tspan></text></a><text font-size="14.40" x="15.0" y="53.7" fill="#666"><tspan x="15" y="53.72">Death rates from road incidents by age, measured as the number of deaths per 100,000 individuals. Road incidents</tspan><tspan x="15" y="69.56">include deaths from motor vehicles, motorcyclists, cyclists and pedestrians. </tspan></text></g><g class="LineChart"><defs><clipPath id="boundsClip-416"><rect x="28.144000000000005" y="0" width="830" height="928.8"></rect></clipPath></defs><g class="AxisBoxView"><g class="HorizontalAxis"><text x="38.1" y="556.5" fill="#666" text-anchor="middle" font-size="16.2">1990</text><text x="164.2" y="556.5" fill="#666" text-anchor="middle" font-size="16.2">1995</text><text x="290.3" y="556.5" fill="#666" text-anchor="middle" font-size="16.2">2000</text><text x="416.4" y="556.5" fill="#666" text-anchor="middle" font-size="16.2">2005</text><text x="542.5" y="556.5" fill="#666" text-anchor="middle" font-size="16.2">2010</text><text x="693.8" y="556.5" fill="#666" text-anchor="middle" font-size="16.2">2016</text></g><g class="VerticalAxis"><text x="33.14" y="535.3" fill="#666" dominant-baseline="middle" text-anchor="end" font-size="16.2">0</text><text x="33.14" y="433.8" fill="#666" dominant-baseline="middle" text-anchor="end" font-size="16.2">10</text><text x="33.14" y="332.2" fill="#666" dominant-baseline="middle" text-anchor="end" font-size="16.2">20</text><text x="33.14" y="230.7" fill="#666" dominant-baseline="middle" text-anchor="end" font-size="16.2">30</text><text x="33.14" y="129.2" fill="#666" dominant-baseline="middle" text-anchor="end" font-size="16.2">40</text></g><g class="AxisGridLines"><line x1="38.14" y1="535.3" x2="693.75" y2="535.3" stroke="#ccc"></line><line x1="38.14" y1="433.8" x2="693.75" y2="433.8" stroke="#ddd" stroke-dasharray="3,2"></line><line x1="38.14" y1="332.2" x2="693.75" y2="332.2" stroke="#ddd" stroke-dasharray="3,2"></line><line x1="38.14" y1="230.7" x2="693.75" y2="230.7" stroke="#ddd" stroke-dasharray="3,2"></line><line x1="38.14" y1="129.2" x2="693.75" y2="129.2" stroke="#ddd" stroke-dasharray="3,2"></line></g></g><g clip-path="url(#boundsClip-416)"><g class="HeightedLegend clickable"><g class="legendMark"><g class="indicator"><line x1="698.755" y1="161.2" x2="711.255" y2="161.2" stroke="#666" stroke-width="0.5"></line><line x1="711.255" y1="161.2" x2="711.255" y2="161.2" stroke="#666" stroke-width="0.5"></line><line x1="711.255" y1="161.2" x2="723.755" y2="161.2" stroke="#666" stroke-width="0.5"></line></g><rect x="693.755" y="154.45" width="116.67500000000001" height="13.5" fill="#fff" opacity="0"></rect><text font-size="13.50" x="728.8" y="165.3" fill="#e6332e"><tspan x="728.755" y="165.25">70+ years old</tspan></text></g><g class="legendMark"><g class="indicator"><line x1="698.755" y1="279" x2="711.255" y2="279" stroke="#666" stroke-width="0.5"></line><line x1="711.255" y1="279" x2="711.255" y2="279" stroke="#666" stroke-width="0.5"></line><line x1="711.255" y1="279" x2="723.755" y2="279" stroke="#666" stroke-width="0.5"></line></g><rect x="693.755" y="272.25" width="128.42000000000002" height="13.5" fill="#fff" opacity="0"></rect><text font-size="13.50" x="728.8" y="283.1" fill="#2a939b"><tspan x="728.755" y="283.05">50-69 years old</tspan></text></g><g class="legendMark"><g class="indicator"><line x1="698.755" y1="331.8" x2="711.255" y2="331.8" stroke="#666" stroke-width="0.5"></line><line x1="711.255" y1="331.8" x2="711.255" y2="331.8" stroke="#666" stroke-width="0.5"></line><line x1="711.255" y1="331.8" x2="723.755" y2="331.8" stroke="#666" stroke-width="0.5"></line></g><rect x="693.755" y="325.05" width="128.42000000000002" height="13.5" fill="#fff" opacity="0"></rect><text font-size="13.50" x="728.8" y="335.9" fill="#a652ba"><tspan x="728.755" y="335.85">15-49 years old</tspan></text></g><g class="legendMark"><g class="indicator"><line x1="698.755" y1="349.7" x2="721.255" y2="349.7" stroke="#666" stroke-width="0.5"></line><line x1="721.255" y1="349.7" x2="721.255" y2="349.7" stroke="#666" stroke-width="0.5"></line><line x1="721.255" y1="349.7" x2="723.755" y2="349.7" stroke="#666" stroke-width="0.5"></line></g><rect x="693.755" y="342.95" width="141.245" height="13.5" fill="#fff" opacity="0"></rect><text font-size="13.50" x="728.8" y="353.8" fill="#f6a324"><tspan x="728.755" y="353.75">Age-standardized</tspan></text></g><g class="legendMark"><g class="indicator"><line x1="698.755" y1="350.9" x2="711.255" y2="350.9" stroke="#666" stroke-width="0.5"></line><line x1="711.255" y1="350.9" x2="711.255" y2="365.2" stroke="#666" stroke-width="0.5"></line><line x1="711.255" y1="365.2" x2="723.755" y2="365.2" stroke="#666" stroke-width="0.5"></line></g><rect x="693.755" y="358.45" width="83.195" height="13.5" fill="#fff" opacity="0"></rect><text font-size="13.50" x="728.8" y="369.3" fill="#34983f"><tspan x="728.755" y="369.25">All ages</tspan></text></g><g class="legendMark"><g class="indicator"><line x1="698.755" y1="468.3" x2="711.255" y2="468.3" stroke="#666" stroke-width="0.5"></line><line x1="711.255" y1="468.3" x2="711.255" y2="468.3" stroke="#666" stroke-width="0.5"></line><line x1="711.255" y1="468.3" x2="723.755" y2="468.3" stroke="#666" stroke-width="0.5"></line></g><rect x="693.755" y="461.55" width="90.62" height="13.5" fill="#fff" opacity="0"></rect><text font-size="13.50" x="728.8" y="472.4" fill="#ca2628"><tspan x="728.755" y="472.35">Under-5s</tspan></text></g><g class="legendMark"><g class="indicator"><line x1="698.755" y1="485" x2="711.255" y2="485" stroke="#666" stroke-width="0.5"></line><line x1="711.255" y1="485" x2="711.255" y2="485" stroke="#666" stroke-width="0.5"></line><line x1="711.255" y1="485" x2="723.755" y2="485" stroke="#666" stroke-width="0.5"></line></g><rect x="693.755" y="478.25" width="120.86" height="13.5" fill="#fff" opacity="0"></rect><text font-size="13.50" x="728.8" y="489.1" fill="#3360a9"><tspan x="728.755" y="489.05">5-14 years old</tspan></text></g></g><g class="Lines"><rect x="38" y="92" width="656" height="443" fill="rgba(255,255,255,0)" opacity="0"></rect><g class="key-World_0"><path stroke="#ca2628" stroke-linecap="round" d="M38 372L63 377L89 382L114 387L139 392L164 397L189 402L215 406L240 411L265 415L290 419L316 423L341 427L366 430L391 433L416 436L442 439L467 441L492 444L517 446L543 450L568 453L593 455L618 458L643 461L669 464L694 468" fill="none" stroke-width="1.5"></path><g fill="#ca2628"><circle cx="38" cy="372" r="2"></circle><circle cx="63" cy="377" r="2"></circle><circle cx="89" cy="382" r="2"></circle><circle cx="114" cy="387" r="2"></circle><circle cx="139" cy="392" r="2"></circle><circle cx="164" cy="397" r="2"></circle><circle cx="189" cy="402" r="2"></circle><circle cx="215" cy="406" r="2"></circle><circle cx="240" cy="411" r="2"></circle><circle cx="265" cy="415" r="2"></circle><circle cx="290" cy="419" r="2"></circle><circle cx="316" cy="423" r="2"></circle><circle cx="341" cy="427" r="2"></circle><circle cx="366" cy="430" r="2"></circle><circle cx="391" cy="433" r="2"></circle><circle cx="416" cy="436" r="2"></circle><circle cx="442" cy="439" r="2"></circle><circle cx="467" cy="441" r="2"></circle><circle cx="492" cy="444" r="2"></circle><circle cx="517" cy="446" r="2"></circle><circle cx="543" cy="450" r="2"></circle><circle cx="568" cy="453" r="2"></circle><circle cx="593" cy="455" r="2"></circle><circle cx="618" cy="458" r="2"></circle><circle cx="643" cy="461" r="2"></circle><circle cx="669" cy="464" r="2"></circle><circle cx="694" cy="468" r="2"></circle></g></g><g class="key-World_1"><path stroke="#34983f" stroke-linecap="round" d="M38 320L63 320L89 320L114 318L139 317L164 317L189 318L215 319L240 321L265 320L290 320L316 319L341 318L366 319L391 321L416 322L442 324L467 326L492 329L517 332L543 335L568 338L593 341L618 344L643 346L669 349L694 351" fill="none" stroke-width="1.5"></path><g fill="#34983f"><circle cx="38" cy="320" r="2"></circle><circle cx="63" cy="320" r="2"></circle><circle cx="89" cy="320" r="2"></circle><circle cx="114" cy="318" r="2"></circle><circle cx="139" cy="317" r="2"></circle><circle cx="164" cy="317" r="2"></circle><circle cx="189" cy="318" r="2"></circle><circle cx="215" cy="319" r="2"></circle><circle cx="240" cy="321" r="2"></circle><circle cx="265" cy="320" r="2"></circle><circle cx="290" cy="320" r="2"></circle><circle cx="316" cy="319" r="2"></circle><circle cx="341" cy="318" r="2"></circle><circle cx="366" cy="319" r="2"></circle><circle cx="391" cy="321" r="2"></circle><circle cx="416" cy="322" r="2"></circle><circle cx="442" cy="324" r="2"></circle><circle cx="467" cy="326" r="2"></circle><circle cx="492" cy="329" r="2"></circle><circle cx="517" cy="332" r="2"></circle><circle cx="543" cy="335" r="2"></circle><circle cx="568" cy="338" r="2"></circle><circle cx="593" cy="341" r="2"></circle><circle cx="618" cy="344" r="2"></circle><circle cx="643" cy="346" r="2"></circle><circle cx="669" cy="349" r="2"></circle><circle cx="694" cy="351" r="2"></circle></g></g><g class="key-World_2"><path stroke="#3360a9" stroke-linecap="round" d="M38 438L63 441L89 443L114 445L139 447L164 446L189 446L215 448L240 451L265 454L290 455L316 457L341 460L366 462L391 464L416 467L442 469L467 471L492 473L517 473L543 474L568 476L593 478L618 479L643 480L669 483L694 485" fill="none" stroke-width="1.5"></path><g fill="#3360a9"><circle cx="38" cy="438" r="2"></circle><circle cx="63" cy="441" r="2"></circle><circle cx="89" cy="443" r="2"></circle><circle cx="114" cy="445" r="2"></circle><circle cx="139" cy="447" r="2"></circle><circle cx="164" cy="446" r="2"></circle><circle cx="189" cy="446" r="2"></circle><circle cx="215" cy="448" r="2"></circle><circle cx="240" cy="451" r="2"></circle><circle cx="265" cy="454" r="2"></circle><circle cx="290" cy="455" r="2"></circle><circle cx="316" cy="457" r="2"></circle><circle cx="341" cy="460" r="2"></circle><circle cx="366" cy="462" r="2"></circle><circle cx="391" cy="464" r="2"></circle><circle cx="416" cy="467" r="2"></circle><circle cx="442" cy="469" r="2"></circle><circle cx="467" cy="471" r="2"></circle><circle cx="492" cy="473" r="2"></circle><circle cx="517" cy="473" r="2"></circle><circle cx="543" cy="474" r="2"></circle><circle cx="568" cy="476" r="2"></circle><circle cx="593" cy="478" r="2"></circle><circle cx="618" cy="479" r="2"></circle><circle cx="643" cy="480" r="2"></circle><circle cx="669" cy="483" r="2"></circle><circle cx="694" cy="485" r="2"></circle></g></g><g class="key-World_3"><path stroke="#a652ba" stroke-linecap="round" d="M38 292L63 291L89 289L114 285L139 282L164 282L189 283L215 283L240 284L265 284L290 285L316 284L341 283L366 285L391 289L416 291L442 293L467 296L492 300L517 305L543 310L568 314L593 318L618 323L643 326L669 329L694 332" fill="none" stroke-width="1.5"></path><g fill="#a652ba"><circle cx="38" cy="292" r="2"></circle><circle cx="63" cy="291" r="2"></circle><circle cx="89" cy="289" r="2"></circle><circle cx="114" cy="285" r="2"></circle><circle cx="139" cy="282" r="2"></circle><circle cx="164" cy="282" r="2"></circle><circle cx="189" cy="283" r="2"></circle><circle cx="215" cy="283" r="2"></circle><circle cx="240" cy="284" r="2"></circle><circle cx="265" cy="284" r="2"></circle><circle cx="290" cy="285" r="2"></circle><circle cx="316" cy="284" r="2"></circle><circle cx="341" cy="283" r="2"></circle><circle cx="366" cy="285" r="2"></circle><circle cx="391" cy="289" r="2"></circle><circle cx="416" cy="291" r="2"></circle><circle cx="442" cy="293" r="2"></circle><circle cx="467" cy="296" r="2"></circle><circle cx="492" cy="300" r="2"></circle><circle cx="517" cy="305" r="2"></circle><circle cx="543" cy="310" r="2"></circle><circle cx="568" cy="314" r="2"></circle><circle cx="593" cy="318" r="2"></circle><circle cx="618" cy="323" r="2"></circle><circle cx="643" cy="326" r="2"></circle><circle cx="669" cy="329" r="2"></circle><circle cx="694" cy="332" r="2"></circle></g></g><g class="key-World_4"><path stroke="#2a939b" stroke-linecap="round" d="M38 256L63 257L89 255L114 251L139 249L164 250L189 254L215 256L240 258L265 255L290 253L316 251L341 249L366 247L391 247L416 248L442 252L467 253L492 256L517 259L543 261L568 264L593 266L618 269L643 271L669 275L694 279" fill="none" stroke-width="1.5"></path><g fill="#2a939b"><circle cx="38" cy="256" r="2"></circle><circle cx="63" cy="257" r="2"></circle><circle cx="89" cy="255" r="2"></circle><circle cx="114" cy="251" r="2"></circle><circle cx="139" cy="249" r="2"></circle><circle cx="164" cy="250" r="2"></circle><circle cx="189" cy="254" r="2"></circle><circle cx="215" cy="256" r="2"></circle><circle cx="240" cy="258" r="2"></circle><circle cx="265" cy="255" r="2"></circle><circle cx="290" cy="253" r="2"></circle><circle cx="316" cy="251" r="2"></circle><circle cx="341" cy="249" r="2"></circle><circle cx="366" cy="247" r="2"></circle><circle cx="391" cy="247" r="2"></circle><circle cx="416" cy="248" r="2"></circle><circle cx="442" cy="252" r="2"></circle><circle cx="467" cy="253" r="2"></circle><circle cx="492" cy="256" r="2"></circle><circle cx="517" cy="259" r="2"></circle><circle cx="543" cy="261" r="2"></circle><circle cx="568" cy="264" r="2"></circle><circle cx="593" cy="266" r="2"></circle><circle cx="618" cy="269" r="2"></circle><circle cx="643" cy="271" r="2"></circle><circle cx="669" cy="275" r="2"></circle><circle cx="694" cy="279" r="2"></circle></g></g><g class="key-World_5"><path stroke="#e6332e" stroke-linecap="round" d="M38 105L63 106L89 105L114 102L139 100L164 101L189 103L215 103L240 104L265 101L290 100L316 97L341 92L366 97L391 103L416 109L442 118L467 124L492 131L517 137L543 141L568 148L593 151L618 156L643 158L669 161L694 161" fill="none" stroke-width="1.5"></path><g fill="#e6332e"><circle cx="38" cy="105" r="2"></circle><circle cx="63" cy="106" r="2"></circle><circle cx="89" cy="105" r="2"></circle><circle cx="114" cy="102" r="2"></circle><circle cx="139" cy="100" r="2"></circle><circle cx="164" cy="101" r="2"></circle><circle cx="189" cy="103" r="2"></circle><circle cx="215" cy="103" r="2"></circle><circle cx="240" cy="104" r="2"></circle><circle cx="265" cy="101" r="2"></circle><circle cx="290" cy="100" r="2"></circle><circle cx="316" cy="97" r="2"></circle><circle cx="341" cy="92" r="2"></circle><circle cx="366" cy="97" r="2"></circle><circle cx="391" cy="103" r="2"></circle><circle cx="416" cy="109" r="2"></circle><circle cx="442" cy="118" r="2"></circle><circle cx="467" cy="124" r="2"></circle><circle cx="492" cy="131" r="2"></circle><circle cx="517" cy="137" r="2"></circle><circle cx="543" cy="141" r="2"></circle><circle cx="568" cy="148" r="2"></circle><circle cx="593" cy="151" r="2"></circle><circle cx="618" cy="156" r="2"></circle><circle cx="643" cy="158" r="2"></circle><circle cx="669" cy="161" r="2"></circle><circle cx="694" cy="161" r="2"></circle></g></g><g class="key-World_6"><path stroke="#f6a324" stroke-linecap="round" d="M38 305L63 305L89 305L114 303L139 301L164 302L189 304L215 305L240 307L265 306L290 307L316 306L341 306L366 308L391 311L416 313L442 316L467 319L492 322L517 326L543 330L568 334L593 337L618 341L643 344L669 347L694 350" fill="none" stroke-width="1.5"></path><g fill="#f6a324"><circle cx="38" cy="305" r="2"></circle><circle cx="63" cy="305" r="2"></circle><circle cx="89" cy="305" r="2"></circle><circle cx="114" cy="303" r="2"></circle><circle cx="139" cy="301" r="2"></circle><circle cx="164" cy="302" r="2"></circle><circle cx="189" cy="304" r="2"></circle><circle cx="215" cy="305" r="2"></circle><circle cx="240" cy="307" r="2"></circle><circle cx="265" cy="306" r="2"></circle><circle cx="290" cy="307" r="2"></circle><circle cx="316" cy="306" r="2"></circle><circle cx="341" cy="306" r="2"></circle><circle cx="366" cy="308" r="2"></circle><circle cx="391" cy="311" r="2"></circle><circle cx="416" cy="313" r="2"></circle><circle cx="442" cy="316" r="2"></circle><circle cx="467" cy="319" r="2"></circle><circle cx="492" cy="322" r="2"></circle><circle cx="517" cy="326" r="2"></circle><circle cx="543" cy="330" r="2"></circle><circle cx="568" cy="334" r="2"></circle><circle cx="593" cy="337" r="2"></circle><circle cx="618" cy="341" r="2"></circle><circle cx="643" cy="344" r="2"></circle><circle cx="669" cy="347" r="2"></circle><circle cx="694" cy="350" r="2"></circle></g></g></g></g></g><g class="SourcesFooter" style="fill:#777"><g class="clickable" style="fill:#777"><text font-size="12.60" x="15.0" y="581.6"><tspan x="15" y="581.58">Source: IHME, Global Burden of Disease (GBD)</tspan></text></g><text font-size="12.60" x="775.4" y="581.6"><tspan x="775.402" y="581.58"><a style="fill: #777;" class="cclogo" href="http://creativecommons.org/licenses/by-sa/4.0/deed.en_US" target="_blank">CC BY-SA</a></tspan></text></g></g></svg>