<svg xmlns="http://www.w3.org/2000/svg" version="1.1" style="font-family: 'Helvetica Neue', Helvetica, Arial, sans-serif; font-size: 16px; background-color: white; text-rendering: optimizeLegibility; -webkit-font-smoothing: antialiased;" width="850" height="600"><g class="ChartTab"><g class="HeaderView"><g opacity="0.8" transform="translate(770, 15) scale(0.31)"><a xmlns:xlink="http://www.w3.org/1999/xlink" xlink:href="https://ourworldindata.org" target="_blank"><g><rect x="0" y="0" fill="#1B2543" width="211.2" height="130.1"/><rect x="0" y="112.2" fill="#E63912" width="211.2" height="17.9"/><g><rect x="1.2" y="12.3" fill="none" width="210.2" height="99.2"/><path fill="#FFFFFF" d="M37.8,32.2c0,12.7-7.7,19.4-17.1,19.4c-9.7,0-16.6-7.5-16.6-18.7c0-11.7,7.3-19.3,17.1-19.3 C31.3,13.7,37.8,21.3,37.8,32.2z M9.2,32.8c0,7.9,4.3,14.9,11.8,14.9c7.5,0,11.8-6.9,11.8-15.3c0-7.3-3.8-14.9-11.8-14.9 C13.1,17.5,9.2,24.8,9.2,32.8z"/><path fill="#FFFFFF" d="M62.7,43.8c0,2.7,0.1,5.1,0.2,7.2h-4.3l-0.3-4.3h-0.1c-1.3,2.1-4,4.9-8.8,4.9c-4.2,0-9.1-2.3-9.1-11.6 V24.6h4.8v14.6c0,5,1.5,8.4,5.9,8.4c3.2,0,5.5-2.2,6.3-4.4c0.3-0.7,0.4-1.6,0.4-2.5V24.6h4.8V43.8z"/><path fill="#FFFFFF" d="M67.3,32.8c0-3.1-0.1-5.8-0.2-8.2h4.2l0.2,5.2h0.2c1.2-3.5,4.1-5.8,7.3-5.8c0.5,0,0.9,0.1,1.4,0.2v4.5 c-0.5-0.1-1-0.2-1.6-0.2c-3.4,0-5.8,2.6-6.5,6.2c-0.1,0.7-0.2,1.4-0.2,2.2V51h-4.8V32.8z"/><path fill="#FFFFFF" d="M95.4,51l-9.4-36.8h5l4.4,18.6c1.1,4.6,2.1,9.2,2.7,12.7h0.1c0.6-3.7,1.8-8,3-12.8l4.9-18.5h5l4.5,18.7 c1,4.4,2,8.7,2.6,12.6h0.1c0.8-4,1.8-8.1,3-12.7l4.9-18.5h4.9L120.6,51h-5L111,31.9c-1.1-4.7-1.9-8.3-2.4-12h-0.1 c-0.7,3.7-1.5,7.3-2.8,12L100.4,51H95.4z"/><path fill="#FFFFFF" d="M154.9,37.6c0,9.8-6.8,14-13.2,14c-7.2,0-12.7-5.2-12.7-13.6c0-8.8,5.8-14,13.1-14 C149.8,24,154.9,29.5,154.9,37.6z M133.9,37.9c0,5.8,3.3,10.1,8,10.1c4.6,0,8-4.3,8-10.3c0-4.5-2.2-10.1-7.9-10.1 C136.3,27.6,133.9,32.8,133.9,37.9z"/><path fill="#FFFFFF" d="M158.2,32.8c0-3.1-0.1-5.8-0.2-8.2h4.2l0.2,5.2h0.2c1.2-3.5,4.1-5.8,7.3-5.8c0.5,0,0.9,0.1,1.4,0.2v4.5 c-0.5-0.1-1-0.2-1.6-0.2c-3.4,0-5.8,2.6-6.5,6.2c-0.1,0.7-0.2,1.4-0.2,2.2V51h-4.8V32.8z"/><path fill="#FFFFFF" d="M173.5,12.3h4.8V51h-4.8V12.3z"/><path fill="#FFFFFF" d="M206.5,12.3v31.9c0,2.3,0.1,5,0.2,6.8h-4.3l-0.2-4.6H202c-1.5,2.9-4.7,5.2-9,5.2 c-6.4,0-11.3-5.4-11.3-13.4c-0.1-8.8,5.4-14.2,11.9-14.2c4,0,6.8,1.9,8,4h0.1V12.3H206.5z M201.7,35.4c0-0.6-0.1-1.4-0.2-2 c-0.7-3.1-3.3-5.6-6.9-5.6c-5,0-7.9,4.4-7.9,10.2c0,5.3,2.6,9.8,7.8,9.8c3.2,0,6.2-2.1,7.1-5.7c0.2-0.7,0.2-1.3,0.2-2.1V35.4z"/><path fill="#FFFFFF" d="M42.8,64c0.1,1.6-1.1,2.9-3.1,2.9c-1.7,0-2.9-1.3-2.9-2.9c0-1.7,1.3-3,3-3C41.7,61,42.8,62.3,42.8,64z M37.4,97.8V71.4h4.8v26.4H37.4z"/><path fill="#FFFFFF" d="M47.5,78.6c0-2.7-0.1-5-0.2-7.1h4.3l0.3,4.4h0.1c1.3-2.5,4.4-5,8.8-5c3.7,0,9.4,2.2,9.4,11.2v15.8h-4.8 V82.6c0-4.3-1.6-7.8-6.1-7.8c-3.2,0-5.6,2.2-6.5,4.9c-0.2,0.6-0.3,1.4-0.3,2.2v15.9h-4.8V78.6z"/><path fill="#FFFFFF" d="M84,61.6c2.9-0.4,6.3-0.8,10.1-0.8c6.8,0,11.7,1.6,14.9,4.6c3.3,3,5.2,7.3,5.2,13.2c0,6-1.9,10.9-5.3,14.3 c-3.4,3.4-9.1,5.3-16.3,5.3c-3.4,0-6.2-0.2-8.6-0.4V61.6z M88.8,94.1c1.2,0.2,3,0.3,4.8,0.3c10.2,0,15.7-5.7,15.7-15.6 c0.1-8.7-4.9-14.2-14.9-14.2c-2.5,0-4.3,0.2-5.6,0.5V94.1z"/><path fill="#FFFFFF" d="M132.1,97.8l-0.4-3.3h-0.2c-1.5,2.1-4.3,3.9-8.1,3.9c-5.4,0-8.1-3.8-8.1-7.6c0-6.4,5.7-9.9,15.9-9.8v-0.5 c0-2.2-0.6-6.1-6-6.1c-2.5,0-5,0.8-6.9,2l-1.1-3.2c2.2-1.4,5.4-2.3,8.7-2.3c8.1,0,10.1,5.5,10.1,10.8v9.9c0,2.3,0.1,4.5,0.4,6.3 H132.1z M131.4,84.4c-5.3-0.1-11.2,0.8-11.2,5.9c0,3.1,2.1,4.6,4.5,4.6c3.4,0,5.6-2.2,6.4-4.4c0.2-0.5,0.3-1,0.3-1.5V84.4z"/><path fill="#FFFFFF" d="M146.6,63.9v7.6h6.9v3.7h-6.9v14.2c0,3.3,0.9,5.1,3.6,5.1c1.3,0,2.2-0.2,2.8-0.3l0.2,3.6 c-0.9,0.4-2.4,0.7-4.3,0.7c-2.2,0-4-0.7-5.2-2c-1.4-1.4-1.9-3.8-1.9-6.9V75.1h-4.1v-3.7h4.1v-6.3L146.6,63.9z"/><path fill="#FFFFFF" d="M171.4,97.8l-0.4-3.3h-0.2c-1.5,2.1-4.3,3.9-8.1,3.9c-5.4,0-8.1-3.8-8.1-7.6c0-6.4,5.7-9.9,15.9-9.8v-0.5 c0-2.2-0.6-6.1-6-6.1c-2.5,0-5,0.8-6.9,2l-1.1-3.2c2.2-1.4,5.4-2.3,8.7-2.3c8.1,0,10.1,5.5,10.1,10.8v9.9c0,2.3,0.1,4.5,0.4,6.3 H171.4z M170.7,84.4c-5.3-0.1-11.2,0.8-11.2,5.9c0,3.1,2.1,4.6,4.5,4.6c3.4,0,5.6-2.2,6.4-4.4c0.2-0.5,0.3-1,0.3-1.5V84.4z"/></g></g></a></g><a href="https://ourworldindata.org/grapher/seafood-and-fish-production-thousand-tonnes" target="_blank"><text font-size="24.00" x="15.0" y="34.2" fill="#555"><tspan x="15" y="34.2">Seafood and fish production, thousand tonnes, World</tspan></text></a><text font-size="12.80" x="15.0" y="51.2" fill="#666"><tspan x="15" y="51.239999999999995">Total seafood and fish production measured in thousands of tonnes (kilotonnes) per year. Seafood and fish includes both marine</tspan><tspan x="15" y="65.32">and freshwater species, crustaceans, cephalopods and other molluscs.</tspan></text></g><g class="StackedArea"><defs><clipPath id="boundsClip-21"><rect x="87.68" y="0" width="820" height="940.3999999999999"></rect></clipPath></defs><g class="AxisBoxView"><g class="HorizontalAxis"><text x="87.7" y="557.9" fill="#666" text-anchor="middle" font-size="14.4">1961</text><text x="195.6" y="557.9" fill="#666" text-anchor="middle" font-size="14.4">1970</text><text x="315.4" y="557.9" fill="#666" text-anchor="middle" font-size="14.4">1980</text><text x="435.3" y="557.9" fill="#666" text-anchor="middle" font-size="14.4">1990</text><text x="555.1" y="557.9" fill="#666" text-anchor="middle" font-size="14.4">2000</text><text x="710.9" y="557.9" fill="#666" text-anchor="middle" font-size="14.4">2013</text></g><g class="VerticalAxis"><text x="82.68" y="538.5" fill="#666" dominant-baseline="middle" text-anchor="end" font-size="14.4">0 kt</text><text x="82.68" y="480.5" fill="#666" dominant-baseline="middle" text-anchor="end" font-size="14.4">20,000 kt</text><text x="82.68" y="422.4" fill="#666" dominant-baseline="middle" text-anchor="end" font-size="14.4">40,000 kt</text><text x="82.68" y="364.4" fill="#666" dominant-baseline="middle" text-anchor="end" font-size="14.4">60,000 kt</text><text x="82.68" y="306.4" fill="#666" dominant-baseline="middle" text-anchor="end" font-size="14.4">80,000 kt</text><text x="82.68" y="248.4" fill="#666" dominant-baseline="middle" text-anchor="end" font-size="14.4">100,000 kt</text><text x="82.68" y="190.3" fill="#666" dominant-baseline="middle" text-anchor="end" font-size="14.4">120,000 kt</text><text x="82.68" y="132.3" fill="#666" dominant-baseline="middle" text-anchor="end" font-size="14.4">140,000 kt</text></g><g class="AxisGridLines"><line x1="87.68" y1="538.5" x2="710.94" y2="538.5" stroke="#ccc"></line><line x1="87.68" y1="480.5" x2="710.94" y2="480.5" stroke="#ddd" stroke-dasharray="3,2"></line><line x1="87.68" y1="422.4" x2="710.94" y2="422.4" stroke="#ddd" stroke-dasharray="3,2"></line><line x1="87.68" y1="364.4" x2="710.94" y2="364.4" stroke="#ddd" stroke-dasharray="3,2"></line><line x1="87.68" y1="306.4" x2="710.94" y2="306.4" stroke="#ddd" stroke-dasharray="3,2"></line><line x1="87.68" y1="248.4" x2="710.94" y2="248.4" stroke="#ddd" stroke-dasharray="3,2"></line><line x1="87.68" y1="190.3" x2="710.94" y2="190.3" stroke="#ddd" stroke-dasharray="3,2"></line><line x1="87.68" y1="132.3" x2="710.94" y2="132.3" stroke="#ddd" stroke-dasharray="3,2"></line></g><g class="AxisGridLines"><line x1="195.6" y1="538.50" x2="195.6" y2="87.70" stroke="#ddd" stroke-dasharray="3,2"></line><line x1="315.4" y1="538.50" x2="315.4" y2="87.70" stroke="#ddd" stroke-dasharray="3,2"></line><line x1="435.3" y1="538.50" x2="435.3" y2="87.70" stroke="#ddd" stroke-dasharray="3,2"></line><line x1="555.1" y1="538.50" x2="555.1" y2="87.70" stroke="#ddd" stroke-dasharray="3,2"></line><line x1="675" y1="538.50" x2="675" y2="87.70" stroke="#ddd" stroke-dasharray="3,2"></line></g></g><g clip-path="url(#boundsClip-21)"><g class="HeightedLegend clickable"><g class="legendMark"><rect x="715.936" y="88.5" width="90.776" height="12.8" fill="#fff" opacity="0"></rect><rect x="715.936" y="93.65" width="10" height="2.5" fill="#34983f"></rect><text font-size="12.80" x="730.9" y="98.7" fill="#333"><tspan x="730.936" y="98.74">Cephalopods</tspan></text></g><g class="legendMark"><rect x="715.936" y="120" width="106.136" height="12.8" fill="#fff" opacity="0"></rect><rect x="715.936" y="125.15" width="10" height="2.5" fill="#9ecc8a"></rect><text font-size="12.80" x="730.9" y="130.2" fill="#333"><tspan x="730.936" y="130.24">Molluscs (other)</tspan></text></g><g class="legendMark"><rect x="715.936" y="164.1" width="87.06400000000001" height="12.8" fill="#fff" opacity="0"></rect><rect x="715.936" y="169.25" width="10" height="2.5" fill="#ffd53e"></rect><text font-size="12.80" x="730.9" y="174.3" fill="#333"><tspan x="730.936" y="174.34">Crustaceans</tspan></text></g><g class="legendMark"><rect x="715.936" y="198" width="119.06400000000001" height="12.8" fill="#fff" opacity="0"></rect><rect x="715.936" y="203.15" width="10" height="2.5" fill="#ca2628"></rect><text font-size="12.80" x="730.9" y="208.2" fill="#333"><tspan x="730.936" y="208.24">Marine fish (other)</tspan></text></g><g class="legendMark"><rect x="715.936" y="243.79999999999998" width="93.336" height="12.8" fill="#fff" opacity="0"></rect><rect x="715.936" y="248.95" width="10" height="2.5" fill="#e6332e"></rect><text font-size="12.80" x="730.9" y="254.0" fill="#333"><tspan x="730.936" y="254.03999999999996">Demersal fish</tspan></text></g><g class="legendMark"><rect x="715.936" y="327.1" width="80.664" height="12.8" fill="#fff" opacity="0"></rect><rect x="715.936" y="332.25" width="10" height="2.5" fill="#2a939b"></rect><text font-size="12.80" x="730.9" y="337.3" fill="#333"><tspan x="730.936" y="337.34000000000003">Pelagic fish</tspan></text></g><g class="legendMark"><rect x="715.936" y="456.20000000000005" width="102.68" height="12.8" fill="#fff" opacity="0"></rect><rect x="715.936" y="461.35" width="10" height="2.5" fill="#3360a9"></rect><text font-size="12.80" x="730.9" y="466.4" fill="#333"><tspan x="730.936" y="466.44000000000005">Freshwater fish</tspan></text></g></g><g class="Areas"><rect x="87.68" y="87.7" width="623.2560000000001" height="450.8" opacity="0" fill="rgba(255,255,255,0)"></rect><path stroke-linecap="round" d="M87.7 524.7L99.7 524.3L111.7 524.5L123.6 523.6L135.6 522.3L147.6 522L159.6 521.5L171.6 520.9L183.6 520.9L195.6 519.5L207.5 519L219.5 518.9L231.5 518L243.5 518L255.5 517.4L267.5 518.1L279.5 517.3L291.4 517.3L303.4 516.6L315.4 515.4L327.4 513.6L339.4 512.7L351.4 510.5L363.4 508.8L375.3 506.2L387.3 503.5L399.3 500.9L411.3 499L423.3 496.7L435.3 494.7L447.3 494.1L459.2 492.5L471.2 487.4L483.2 482.1L495.2 474.9L507.2 469.4L519.2 467.1L531.2 465L543.1 459.5L555.1 457.1L567.1 453.5L579.1 451.3L591.1 446.9L603.1 440.7L615.1 433.7L627 427.8L639 422.1L651 415.3L663 408.4L675 400L687 393.6L699 387.8L710.9 386.7L710.9360000000001 538.5L87.68 538.5" fill="#3360a9" fill-opacity="0.7" class="World_6-area"></path><path stroke-linecap="round" d="M87.7 475.6L99.7 468.9L111.7 468.5L123.6 456.3L135.6 457.5L147.6 449.8L159.6 445L171.6 441.1L183.6 446.6L195.6 433.5L207.5 435.6L219.5 452.9L231.5 454.4L243.5 447.6L255.5 447.3L267.5 439.5L279.5 440.6L291.4 435L303.4 432.2L315.4 432L327.4 426L339.4 422.2L351.4 420.6L363.4 408.5L375.3 404.6L387.3 393.9L399.3 394.4L411.3 382.3L423.3 378.8L435.3 383L447.3 382.8L459.2 381.1L471.2 372.6L483.2 355.2L495.2 356.7L507.2 349.2L519.2 350.1L531.2 368.9L543.1 347.1L555.1 339L567.1 343.1L579.1 336.7L591.1 342.6L603.1 324.2L615.1 318.6L627 322.3L639 313L651 306.2L663 301.1L675 301.5L687 282.5L699 277.8L710.9 280.4L710.9 386.7L699 387.8L687 393.6L675 400L663 408.4L651 415.3L639 422.1L627 427.8L615.1 433.7L603.1 440.7L591.1 446.9L579.1 451.3L567.1 453.5L555.1 457.1L543.1 459.5L531.2 465L519.2 467.1L507.2 469.4L495.2 474.9L483.2 482.1L471.2 487.4L459.2 492.5L447.3 494.1L435.3 494.7L423.3 496.7L411.3 499L399.3 500.9L387.3 503.5L375.3 506.2L363.4 508.8L351.4 510.5L339.4 512.7L327.4 513.6L315.4 515.4L303.4 516.6L291.4 517.3L279.5 517.3L267.5 518.1L255.5 517.4L243.5 518L231.5 518L219.5 518.9L207.5 519L195.6 519.5L183.6 520.9L171.6 520.9L159.6 521.5L147.6 522L135.6 522.3L123.6 523.6L111.7 524.5L99.7 524.3L87.7 524.7" fill="#2a939b" fill-opacity="0.7" class="World_5-area"></path><path stroke-linecap="round" d="M87.7 447.2L99.7 439L111.7 437.4L123.6 423.8L135.6 422.2L147.6 412L159.6 403.9L171.6 396.1L183.6 400.3L195.6 383.4L207.5 384.9L219.5 398.9L231.5 398.4L243.5 388.7L255.5 390.9L267.5 382.6L279.5 387.7L291.4 382.4L303.4 379.9L315.4 378.5L327.4 372.4L339.4 367L351.4 366.4L363.4 349.9L375.3 345.2L387.3 329.4L399.3 329.9L411.3 317.7L423.3 316.1L435.3 323.8L447.3 326.7L459.2 323.7L471.2 317.7L483.2 298.7L495.2 295.3L507.2 287.4L519.2 287.9L531.2 307.7L543.1 289L555.1 282.6L567.1 285.1L579.1 280.9L591.1 282.4L603.1 263.4L615.1 259.6L627 261L639 254.5L651 248.4L663 243.8L675 242.6L687 223.2L699 218.8L710.9 220.1L710.9 280.4L699 277.8L687 282.5L675 301.5L663 301.1L651 306.2L639 313L627 322.3L615.1 318.6L603.1 324.2L591.1 342.6L579.1 336.7L567.1 343.1L555.1 339L543.1 347.1L531.2 368.9L519.2 350.1L507.2 349.2L495.2 356.7L483.2 355.2L471.2 372.6L459.2 381.1L447.3 382.8L435.3 383L423.3 378.8L411.3 382.3L399.3 394.4L387.3 393.9L375.3 404.6L363.4 408.5L351.4 420.6L339.4 422.2L327.4 426L315.4 432L303.4 432.2L291.4 435L279.5 440.6L267.5 439.5L255.5 447.3L243.5 447.6L231.5 454.4L219.5 452.9L207.5 435.6L195.6 433.5L183.6 446.6L171.6 441.1L159.6 445L147.6 449.8L135.6 457.5L123.6 456.3L111.7 468.5L99.7 468.9L87.7 475.6" fill="#e6332e" fill-opacity="0.7" class="World_4-area"></path><path stroke-linecap="round" d="M87.7 437.6L99.7 428.9L111.7 426.3L123.6 412.2L135.6 409.7L147.6 398.9L159.6 389.7L171.6 381.2L183.6 384.6L195.6 368.3L207.5 368.1L219.5 380.6L231.5 379.3L243.5 369.8L255.5 371.8L267.5 362.8L279.5 367.6L291.4 361.5L303.4 360.1L315.4 358.5L327.4 350.7L339.4 345.9L351.4 345.8L363.4 328.8L375.3 323.2L387.3 305.7L399.3 304.8L411.3 292.9L423.3 290.2L435.3 298.1L447.3 301.2L459.2 296.9L471.2 289.5L483.2 270.4L495.2 266.9L507.2 256.6L519.2 258.7L531.2 277.8L543.1 259.3L555.1 252.9L567.1 255.7L579.1 251.5L591.1 256.2L603.1 236.8L615.1 231.7L627 234.6L639 228.6L651 221.9L663 213.9L675 211.5L687 191.9L699 187.3L710.9 188.8L710.9 220.1L699 218.8L687 223.2L675 242.6L663 243.8L651 248.4L639 254.5L627 261L615.1 259.6L603.1 263.4L591.1 282.4L579.1 280.9L567.1 285.1L555.1 282.6L543.1 289L531.2 307.7L519.2 287.9L507.2 287.4L495.2 295.3L483.2 298.7L471.2 317.7L459.2 323.7L447.3 326.7L435.3 323.8L423.3 316.1L411.3 317.7L399.3 329.9L387.3 329.4L375.3 345.2L363.4 349.9L351.4 366.4L339.4 367L327.4 372.4L315.4 378.5L303.4 379.9L291.4 382.4L279.5 387.7L267.5 382.6L255.5 390.9L243.5 388.7L231.5 398.4L219.5 398.9L207.5 384.9L195.6 383.4L183.6 400.3L171.6 396.1L159.6 403.9L147.6 412L135.6 422.2L123.6 423.8L111.7 437.4L99.7 439L87.7 447.2" fill="#ca2628" fill-opacity="0.7" class="World_3-area"></path><path stroke-linecap="round" d="M87.7 433.8L99.7 424.8L111.7 422L123.6 407.7L135.6 405.1L147.6 394L159.6 384.6L171.6 375.7L183.6 379.1L195.6 362.6L207.5 362.2L219.5 374.4L231.5 372.5L243.5 362.7L255.5 364.7L267.5 355.6L279.5 359.6L291.4 353.1L303.4 351.3L315.4 349.1L327.4 341.5L339.4 336L351.4 336.4L363.4 319.2L375.3 312.4L387.3 294.1L399.3 292.4L411.3 280L423.3 277.2L435.3 284.8L447.3 286.7L459.2 282.1L471.2 274.5L483.2 253.8L495.2 249.1L507.2 237.9L519.2 239.2L531.2 257.1L543.1 238L555.1 230.4L567.1 232.6L579.1 227.1L591.1 230.9L603.1 210.5L615.1 204.6L627 205.3L639 197.7L651 190.7L663 181.9L675 177.7L687 156.8L699 150.9L710.9 152.2L710.9 188.8L699 187.3L687 191.9L675 211.5L663 213.9L651 221.9L639 228.6L627 234.6L615.1 231.7L603.1 236.8L591.1 256.2L579.1 251.5L567.1 255.7L555.1 252.9L543.1 259.3L531.2 277.8L519.2 258.7L507.2 256.6L495.2 266.9L483.2 270.4L471.2 289.5L459.2 296.9L447.3 301.2L435.3 298.1L423.3 290.2L411.3 292.9L399.3 304.8L387.3 305.7L375.3 323.2L363.4 328.8L351.4 345.8L339.4 345.9L327.4 350.7L315.4 358.5L303.4 360.1L291.4 361.5L279.5 367.6L267.5 362.8L255.5 371.8L243.5 369.8L231.5 379.3L219.5 380.6L207.5 368.1L195.6 368.3L183.6 384.6L171.6 381.2L159.6 389.7L147.6 398.9L135.6 409.7L123.6 412.2L111.7 426.3L99.7 428.9L87.7 437.6" fill="#ffd53e" fill-opacity="0.7" class="World_2-area"></path><path stroke-linecap="round" d="M87.7 428.2L99.7 418.9L111.7 415.7L123.6 401.1L135.6 398.4L147.6 387.1L159.6 377.7L171.6 368.5L183.6 371.7L195.6 354.4L207.5 353.7L219.5 366L231.5 364.4L243.5 354.4L255.5 355.3L267.5 345.1L279.5 348.3L291.4 342.2L303.4 340.5L315.4 337.6L327.4 328.9L339.4 323.2L351.4 322.7L363.4 304.1L375.3 297L387.3 277.8L399.3 273.8L411.3 260.2L423.3 258.2L435.3 265.3L447.3 267L459.2 259.2L471.2 247.6L483.2 223.1L495.2 213.5L507.2 203L519.2 204.4L531.2 221.4L543.1 200.1L555.1 190.7L567.1 191.3L579.1 184.2L591.1 187.9L603.1 166.5L615.1 160.5L627 159.5L639 150.7L651 144.2L663 133.8L675 127.9L687 106.1L699 98.8L710.9 100.5L710.9 152.2L699 150.9L687 156.8L675 177.7L663 181.9L651 190.7L639 197.7L627 205.3L615.1 204.6L603.1 210.5L591.1 230.9L579.1 227.1L567.1 232.6L555.1 230.4L543.1 238L531.2 257.1L519.2 239.2L507.2 237.9L495.2 249.1L483.2 253.8L471.2 274.5L459.2 282.1L447.3 286.7L435.3 284.8L423.3 277.2L411.3 280L399.3 292.4L387.3 294.1L375.3 312.4L363.4 319.2L351.4 336.4L339.4 336L327.4 341.5L315.4 349.1L303.4 351.3L291.4 353.1L279.5 359.6L267.5 355.6L255.5 364.7L243.5 362.7L231.5 372.5L219.5 374.4L207.5 362.2L195.6 362.6L183.6 379.1L171.6 375.7L159.6 384.6L147.6 394L135.6 405.1L123.6 407.7L111.7 422L99.7 424.8L87.7 433.8" fill="#9ecc8a" fill-opacity="0.7" class="World_1-area"></path><path stroke-linecap="round" d="M87.7 426L99.7 416.3L111.7 412.7L123.6 399.1L135.6 395.9L147.6 384.7L159.6 374.9L171.6 364.9L183.6 368.8L195.6 351.5L207.5 350.9L219.5 362.4L231.5 361.2L243.5 351L255.5 351.7L267.5 341.5L279.5 344.7L291.4 338.2L303.4 336.1L315.4 333.1L327.4 324.9L339.4 318.6L351.4 317.8L363.4 299.2L375.3 291.8L387.3 272.7L399.3 267.2L411.3 253.7L423.3 250.5L435.3 258.4L447.3 259.6L459.2 251.2L471.2 239.8L483.2 215L495.2 205L507.2 193.9L519.2 194.5L531.2 213.1L543.1 189.8L555.1 180.1L567.1 181.8L579.1 174.8L591.1 177.8L603.1 155.7L615.1 149.7L627 147.6L639 138.3L651 131.9L663 123.8L675 117.5L687 95.2L699 87.7L710.9 89.2L710.9 100.5L699 98.8L687 106.1L675 127.9L663 133.8L651 144.2L639 150.7L627 159.5L615.1 160.5L603.1 166.5L591.1 187.9L579.1 184.2L567.1 191.3L555.1 190.7L543.1 200.1L531.2 221.4L519.2 204.4L507.2 203L495.2 213.5L483.2 223.1L471.2 247.6L459.2 259.2L447.3 267L435.3 265.3L423.3 258.2L411.3 260.2L399.3 273.8L387.3 277.8L375.3 297L363.4 304.1L351.4 322.7L339.4 323.2L327.4 328.9L315.4 337.6L303.4 340.5L291.4 342.2L279.5 348.3L267.5 345.1L255.5 355.3L243.5 354.4L231.5 364.4L219.5 366L207.5 353.7L195.6 354.4L183.6 371.7L171.6 368.5L159.6 377.7L147.6 387.1L135.6 398.4L123.6 401.1L111.7 415.7L99.7 418.9L87.7 428.2" fill="#34983f" fill-opacity="0.7" class="World_0-area"></path><path stroke-linecap="round" d="M87.7 524.7L99.7 524.3L111.7 524.5L123.6 523.6L135.6 522.3L147.6 522L159.6 521.5L171.6 520.9L183.6 520.9L195.6 519.5L207.5 519L219.5 518.9L231.5 518L243.5 518L255.5 517.4L267.5 518.1L279.5 517.3L291.4 517.3L303.4 516.6L315.4 515.4L327.4 513.6L339.4 512.7L351.4 510.5L363.4 508.8L375.3 506.2L387.3 503.5L399.3 500.9L411.3 499L423.3 496.7L435.3 494.7L447.3 494.1L459.2 492.5L471.2 487.4L483.2 482.1L495.2 474.9L507.2 469.4L519.2 467.1L531.2 465L543.1 459.5L555.1 457.1L567.1 453.5L579.1 451.3L591.1 446.9L603.1 440.7L615.1 433.7L627 427.8L639 422.1L651 415.3L663 408.4L675 400L687 393.6L699 387.8L710.9 386.7" stroke="rgb(43, 80, 141)" stroke-opacity="0.7" stroke-width="0.5" fill="none" class="World_6-border"></path><path stroke-linecap="round" d="M87.7 475.6L99.7 468.9L111.7 468.5L123.6 456.3L135.6 457.5L147.6 449.8L159.6 445L171.6 441.1L183.6 446.6L195.6 433.5L207.5 435.6L219.5 452.9L231.5 454.4L243.5 447.6L255.5 447.3L267.5 439.5L279.5 440.6L291.4 435L303.4 432.2L315.4 432L327.4 426L339.4 422.2L351.4 420.6L363.4 408.5L375.3 404.6L387.3 393.9L399.3 394.4L411.3 382.3L423.3 378.8L435.3 383L447.3 382.8L459.2 381.1L471.2 372.6L483.2 355.2L495.2 356.7L507.2 349.2L519.2 350.1L531.2 368.9L543.1 347.1L555.1 339L567.1 343.1L579.1 336.7L591.1 342.6L603.1 324.2L615.1 318.6L627 322.3L639 313L651 306.2L663 301.1L675 301.5L687 282.5L699 277.8L710.9 280.4" stroke="rgb(35, 123, 130)" stroke-opacity="0.7" stroke-width="0.5" fill="none" class="World_5-border"></path><path stroke-linecap="round" d="M87.7 447.2L99.7 439L111.7 437.4L123.6 423.8L135.6 422.2L147.6 412L159.6 403.9L171.6 396.1L183.6 400.3L195.6 383.4L207.5 384.9L219.5 398.9L231.5 398.4L243.5 388.7L255.5 390.9L267.5 382.6L279.5 387.7L291.4 382.4L303.4 379.9L315.4 378.5L327.4 372.4L339.4 367L351.4 366.4L363.4 349.9L375.3 345.2L387.3 329.4L399.3 329.9L411.3 317.7L423.3 316.1L435.3 323.8L447.3 326.7L459.2 323.7L471.2 317.7L483.2 298.7L495.2 295.3L507.2 287.4L519.2 287.9L531.2 307.7L543.1 289L555.1 282.6L567.1 285.1L579.1 280.9L591.1 282.4L603.1 263.4L615.1 259.6L627 261L639 254.5L651 248.4L663 243.8L675 242.6L687 223.2L699 218.8L710.9 220.1" stroke="rgb(192, 43, 38)" stroke-opacity="0.7" stroke-width="0.5" fill="none" class="World_4-border"></path><path stroke-linecap="round" d="M87.7 437.6L99.7 428.9L111.7 426.3L123.6 412.2L135.6 409.7L147.6 398.9L159.6 389.7L171.6 381.2L183.6 384.6L195.6 368.3L207.5 368.1L219.5 380.6L231.5 379.3L243.5 369.8L255.5 371.8L267.5 362.8L279.5 367.6L291.4 361.5L303.4 360.1L315.4 358.5L327.4 350.7L339.4 345.9L351.4 345.8L363.4 328.8L375.3 323.2L387.3 305.7L399.3 304.8L411.3 292.9L423.3 290.2L435.3 298.1L447.3 301.2L459.2 296.9L471.2 289.5L483.2 270.4L495.2 266.9L507.2 256.6L519.2 258.7L531.2 277.8L543.1 259.3L555.1 252.9L567.1 255.7L579.1 251.5L591.1 256.2L603.1 236.8L615.1 231.7L627 234.6L639 228.6L651 221.9L663 213.9L675 211.5L687 191.9L699 187.3L710.9 188.8" stroke="rgb(169, 32, 33)" stroke-opacity="0.7" stroke-width="0.5" fill="none" class="World_3-border"></path><path stroke-linecap="round" d="M87.7 433.8L99.7 424.8L111.7 422L123.6 407.7L135.6 405.1L147.6 394L159.6 384.6L171.6 375.7L183.6 379.1L195.6 362.6L207.5 362.2L219.5 374.4L231.5 372.5L243.5 362.7L255.5 364.7L267.5 355.6L279.5 359.6L291.4 353.1L303.4 351.3L315.4 349.1L327.4 341.5L339.4 336L351.4 336.4L363.4 319.2L375.3 312.4L387.3 294.1L399.3 292.4L411.3 280L423.3 277.2L435.3 284.8L447.3 286.7L459.2 282.1L471.2 274.5L483.2 253.8L495.2 249.1L507.2 237.9L519.2 239.2L531.2 257.1L543.1 238L555.1 230.4L567.1 232.6L579.1 227.1L591.1 230.9L603.1 210.5L615.1 204.6L627 205.3L639 197.7L651 190.7L663 181.9L675 177.7L687 156.8L699 150.9L710.9 152.2" stroke="rgb(213, 178, 52)" stroke-opacity="0.7" stroke-width="0.5" fill="none" class="World_2-border"></path><path stroke-linecap="round" d="M87.7 428.2L99.7 418.9L111.7 415.7L123.6 401.1L135.6 398.4L147.6 387.1L159.6 377.7L171.6 368.5L183.6 371.7L195.6 354.4L207.5 353.7L219.5 366L231.5 364.4L243.5 354.4L255.5 355.3L267.5 345.1L279.5 348.3L291.4 342.2L303.4 340.5L315.4 337.6L327.4 328.9L339.4 323.2L351.4 322.7L363.4 304.1L375.3 297L387.3 277.8L399.3 273.8L411.3 260.2L423.3 258.2L435.3 265.3L447.3 267L459.2 259.2L471.2 247.6L483.2 223.1L495.2 213.5L507.2 203L519.2 204.4L531.2 221.4L543.1 200.1L555.1 190.7L567.1 191.3L579.1 184.2L591.1 187.9L603.1 166.5L615.1 160.5L627 159.5L639 150.7L651 144.2L663 133.8L675 127.9L687 106.1L699 98.8L710.9 100.5" stroke="rgb(132, 171, 115)" stroke-opacity="0.7" stroke-width="0.5" fill="none" class="World_1-border"></path><path stroke-linecap="round" d="M87.7 426L99.7 416.3L111.7 412.7L123.6 399.1L135.6 395.9L147.6 384.7L159.6 374.9L171.6 364.9L183.6 368.8L195.6 351.5L207.5 350.9L219.5 362.4L231.5 361.2L243.5 351L255.5 351.7L267.5 341.5L279.5 344.7L291.4 338.2L303.4 336.1L315.4 333.1L327.4 324.9L339.4 318.6L351.4 317.8L363.4 299.2L375.3 291.8L387.3 272.7L399.3 267.2L411.3 253.7L423.3 250.5L435.3 258.4L447.3 259.6L459.2 251.2L471.2 239.8L483.2 215L495.2 205L507.2 193.9L519.2 194.5L531.2 213.1L543.1 189.8L555.1 180.1L567.1 181.8L579.1 174.8L591.1 177.8L603.1 155.7L615.1 149.7L627 147.6L639 138.3L651 131.9L663 123.8L675 117.5L687 95.2L699 87.7L710.9 89.2" stroke="rgb(44, 127, 53)" stroke-opacity="0.7" stroke-width="0.5" fill="none" class="World_0-border"></path></g></g></g><g style="fill: #777;" class="SourcesFooter"><g style="fill: #777;" class="clickable"><text font-size="11.20" x="15.0" y="581.9"><tspan x="15" y="581.86">Source: UN Food and Agricultural Organization (FAO)</tspan></text></g><text font-size="11.20" x="448.5" y="581.9"><tspan x="448.48800000000006" y="581.86"><a target='_blank' style='fill: #777;' href='https://ourworldindata.org/meat-and-seafood-production-consumption/'>OurWorldInData.org/meat-and-seafood-production-consumption/</a> • <a style="fill: #777;" href="http://creativecommons.org/licenses/by-sa/4.0/deed.en_US" target="_blank">CC BY-SA</a></tspan></text></g></g></svg>