<svg xmlns="http://www.w3.org/2000/svg" version="1.1" style="font-family: 'Helvetica Neue', Helvetica, Arial, sans-serif; font-size: 18px; background-color: white; text-rendering: optimizeLegibility; -webkit-font-smoothing: antialiased;" width="850" height="600"><g class="ChartTab"><g class="HeaderView"><g opacity="0.8" transform="translate(770, 15) scale(0.31)"><a xmlns:xlink="http://www.w3.org/1999/xlink" xlink:href="https://ourworldindata.org" target="_blank"><g><rect x="0" y="0" fill="#1B2543" width="211.2" height="130.1"/><rect x="0" y="112.2" fill="#E63912" width="211.2" height="17.9"/><g><rect x="1.2" y="12.3" fill="none" width="210.2" height="99.2"/><path fill="#FFFFFF" d="M37.8,32.2c0,12.7-7.7,19.4-17.1,19.4c-9.7,0-16.6-7.5-16.6-18.7c0-11.7,7.3-19.3,17.1-19.3 C31.3,13.7,37.8,21.3,37.8,32.2z M9.2,32.8c0,7.9,4.3,14.9,11.8,14.9c7.5,0,11.8-6.9,11.8-15.3c0-7.3-3.8-14.9-11.8-14.9 C13.1,17.5,9.2,24.8,9.2,32.8z"/><path fill="#FFFFFF" d="M62.7,43.8c0,2.7,0.1,5.1,0.2,7.2h-4.3l-0.3-4.3h-0.1c-1.3,2.1-4,4.9-8.8,4.9c-4.2,0-9.1-2.3-9.1-11.6 V24.6h4.8v14.6c0,5,1.5,8.4,5.9,8.4c3.2,0,5.5-2.2,6.3-4.4c0.3-0.7,0.4-1.6,0.4-2.5V24.6h4.8V43.8z"/><path fill="#FFFFFF" d="M67.3,32.8c0-3.1-0.1-5.8-0.2-8.2h4.2l0.2,5.2h0.2c1.2-3.5,4.1-5.8,7.3-5.8c0.5,0,0.9,0.1,1.4,0.2v4.5 c-0.5-0.1-1-0.2-1.6-0.2c-3.4,0-5.8,2.6-6.5,6.2c-0.1,0.7-0.2,1.4-0.2,2.2V51h-4.8V32.8z"/><path fill="#FFFFFF" d="M95.4,51l-9.4-36.8h5l4.4,18.6c1.1,4.6,2.1,9.2,2.7,12.7h0.1c0.6-3.7,1.8-8,3-12.8l4.9-18.5h5l4.5,18.7 c1,4.4,2,8.7,2.6,12.6h0.1c0.8-4,1.8-8.1,3-12.7l4.9-18.5h4.9L120.6,51h-5L111,31.9c-1.1-4.7-1.9-8.3-2.4-12h-0.1 c-0.7,3.7-1.5,7.3-2.8,12L100.4,51H95.4z"/><path fill="#FFFFFF" d="M154.9,37.6c0,9.8-6.8,14-13.2,14c-7.2,0-12.7-5.2-12.7-13.6c0-8.8,5.8-14,13.1-14 C149.8,24,154.9,29.5,154.9,37.6z M133.9,37.9c0,5.8,3.3,10.1,8,10.1c4.6,0,8-4.3,8-10.3c0-4.5-2.2-10.1-7.9-10.1 C136.3,27.6,133.9,32.8,133.9,37.9z"/><path fill="#FFFFFF" d="M158.2,32.8c0-3.1-0.1-5.8-0.2-8.2h4.2l0.2,5.2h0.2c1.2-3.5,4.1-5.8,7.3-5.8c0.5,0,0.9,0.1,1.4,0.2v4.5 c-0.5-0.1-1-0.2-1.6-0.2c-3.4,0-5.8,2.6-6.5,6.2c-0.1,0.7-0.2,1.4-0.2,2.2V51h-4.8V32.8z"/><path fill="#FFFFFF" d="M173.5,12.3h4.8V51h-4.8V12.3z"/><path fill="#FFFFFF" d="M206.5,12.3v31.9c0,2.3,0.1,5,0.2,6.8h-4.3l-0.2-4.6H202c-1.5,2.9-4.7,5.2-9,5.2 c-6.4,0-11.3-5.4-11.3-13.4c-0.1-8.8,5.4-14.2,11.9-14.2c4,0,6.8,1.9,8,4h0.1V12.3H206.5z M201.7,35.4c0-0.6-0.1-1.4-0.2-2 c-0.7-3.1-3.3-5.6-6.9-5.6c-5,0-7.9,4.4-7.9,10.2c0,5.3,2.6,9.8,7.8,9.8c3.2,0,6.2-2.1,7.1-5.7c0.2-0.7,0.2-1.3,0.2-2.1V35.4z"/><path fill="#FFFFFF" d="M42.8,64c0.1,1.6-1.1,2.9-3.1,2.9c-1.7,0-2.9-1.3-2.9-2.9c0-1.7,1.3-3,3-3C41.7,61,42.8,62.3,42.8,64z M37.4,97.8V71.4h4.8v26.4H37.4z"/><path fill="#FFFFFF" d="M47.5,78.6c0-2.7-0.1-5-0.2-7.1h4.3l0.3,4.4h0.1c1.3-2.5,4.4-5,8.8-5c3.7,0,9.4,2.2,9.4,11.2v15.8h-4.8 V82.6c0-4.3-1.6-7.8-6.1-7.8c-3.2,0-5.6,2.2-6.5,4.9c-0.2,0.6-0.3,1.4-0.3,2.2v15.9h-4.8V78.6z"/><path fill="#FFFFFF" d="M84,61.6c2.9-0.4,6.3-0.8,10.1-0.8c6.8,0,11.7,1.6,14.9,4.6c3.3,3,5.2,7.3,5.2,13.2c0,6-1.9,10.9-5.3,14.3 c-3.4,3.4-9.1,5.3-16.3,5.3c-3.4,0-6.2-0.2-8.6-0.4V61.6z M88.8,94.1c1.2,0.2,3,0.3,4.8,0.3c10.2,0,15.7-5.7,15.7-15.6 c0.1-8.7-4.9-14.2-14.9-14.2c-2.5,0-4.3,0.2-5.6,0.5V94.1z"/><path fill="#FFFFFF" d="M132.1,97.8l-0.4-3.3h-0.2c-1.5,2.1-4.3,3.9-8.1,3.9c-5.4,0-8.1-3.8-8.1-7.6c0-6.4,5.7-9.9,15.9-9.8v-0.5 c0-2.2-0.6-6.1-6-6.1c-2.5,0-5,0.8-6.9,2l-1.1-3.2c2.2-1.4,5.4-2.3,8.7-2.3c8.1,0,10.1,5.5,10.1,10.8v9.9c0,2.3,0.1,4.5,0.4,6.3 H132.1z M131.4,84.4c-5.3-0.1-11.2,0.8-11.2,5.9c0,3.1,2.1,4.6,4.5,4.6c3.4,0,5.6-2.2,6.4-4.4c0.2-0.5,0.3-1,0.3-1.5V84.4z"/><path fill="#FFFFFF" d="M146.6,63.9v7.6h6.9v3.7h-6.9v14.2c0,3.3,0.9,5.1,3.6,5.1c1.3,0,2.2-0.2,2.8-0.3l0.2,3.6 c-0.9,0.4-2.4,0.7-4.3,0.7c-2.2,0-4-0.7-5.2-2c-1.4-1.4-1.9-3.8-1.9-6.9V75.1h-4.1v-3.7h4.1v-6.3L146.6,63.9z"/><path fill="#FFFFFF" d="M171.4,97.8l-0.4-3.3h-0.2c-1.5,2.1-4.3,3.9-8.1,3.9c-5.4,0-8.1-3.8-8.1-7.6c0-6.4,5.7-9.9,15.9-9.8v-0.5 c0-2.2-0.6-6.1-6-6.1c-2.5,0-5,0.8-6.9,2l-1.1-3.2c2.2-1.4,5.4-2.3,8.7-2.3c8.1,0,10.1,5.5,10.1,10.8v9.9c0,2.3,0.1,4.5,0.4,6.3 H171.4z M170.7,84.4c-5.3-0.1-11.2,0.8-11.2,5.9c0,3.1,2.1,4.6,4.5,4.6c3.4,0,5.6-2.2,6.4-4.4c0.2-0.5,0.3-1,0.3-1.5V84.4z"/></g></g></a></g><a href="https://ourworldindata.org/grapher/share-of-people-who-say-they-are-happy-Eurobarometer?country=FRA+GRC+IRL+ITA+PRT+ESP+GBR" target="_blank"><text font-size="23.40" x="15.0" y="33.7" fill="#555"><tspan x="15" y="33.72">Share who say they are 'very satisfied' or 'fairly satisfied' with their life</tspan></text></a><text font-size="14.40" x="15.0" y="51.9" fill="#666"><tspan x="15" y="51.919999999999995">The full question asks: &quot;On the whole are you very satisfied, fairly satisfied, not very satisfied or not at all satisfied</tspan><tspan x="15" y="67.75999999999999">with the life you lead?&quot;</tspan></text></g><g class="LineChart"><defs><clipPath id="boundsClip-514"><rect x="42.562" y="0" width="830" height="932.4000000000001"></rect></clipPath></defs><g class="AxisBoxView"><g class="HorizontalAxis"><text x="52.6" y="556.5" fill="#666" text-anchor="middle" font-size="16.2">1973</text><text x="159.1" y="556.5" fill="#666" text-anchor="middle" font-size="16.2">1980</text><text x="311.4" y="556.5" fill="#666" text-anchor="middle" font-size="16.2">1990</text><text x="463.6" y="556.5" fill="#666" text-anchor="middle" font-size="16.2">2000</text><text x="615.8" y="556.5" fill="#666" text-anchor="middle" font-size="16.2">2010</text><text x="707.2" y="556.5" fill="#666" text-anchor="middle" font-size="16.2">2016</text></g><g class="VerticalAxis"><text x="47.56" y="480.8" fill="#666" dominant-baseline="middle" text-anchor="end" font-size="16.2">40%</text><text x="47.56" y="409.2" fill="#666" dominant-baseline="middle" text-anchor="end" font-size="16.2">50%</text><text x="47.56" y="337.5" fill="#666" dominant-baseline="middle" text-anchor="end" font-size="16.2">60%</text><text x="47.56" y="265.9" fill="#666" dominant-baseline="middle" text-anchor="end" font-size="16.2">70%</text><text x="47.56" y="194.3" fill="#666" dominant-baseline="middle" text-anchor="end" font-size="16.2">80%</text><text x="47.56" y="122.7" fill="#666" dominant-baseline="middle" text-anchor="end" font-size="16.2">90%</text></g><g class="AxisGridLines"><line x1="52.56" y1="480.8" x2="707.18" y2="480.8" stroke="#ddd" stroke-dasharray="3,2"></line><line x1="52.56" y1="409.2" x2="707.18" y2="409.2" stroke="#ddd" stroke-dasharray="3,2"></line><line x1="52.56" y1="337.5" x2="707.18" y2="337.5" stroke="#ddd" stroke-dasharray="3,2"></line><line x1="52.56" y1="265.9" x2="707.18" y2="265.9" stroke="#ddd" stroke-dasharray="3,2"></line><line x1="52.56" y1="194.3" x2="707.18" y2="194.3" stroke="#ddd" stroke-dasharray="3,2"></line><line x1="52.56" y1="122.7" x2="707.18" y2="122.7" stroke="#ddd" stroke-dasharray="3,2"></line></g><g class="AxisGridLines"><line x1="159.1" y1="535.30" x2="159.1" y2="90.30" stroke="#ddd" stroke-dasharray="3,2"></line><line x1="311.4" y1="535.30" x2="311.4" y2="90.30" stroke="#ddd" stroke-dasharray="3,2"></line><line x1="463.6" y1="535.30" x2="463.6" y2="90.30" stroke="#ddd" stroke-dasharray="3,2"></line><line x1="615.8" y1="535.30" x2="615.8" y2="90.30" stroke="#ddd" stroke-dasharray="3,2"></line></g></g><g clip-path="url(#boundsClip-514)"><g class="HeightedLegend clickable"><g class="legendMark"><rect x="717.184" y="83.1" width="59.208000000000006" height="14.4" fill="#fff" opacity="0"></rect><rect x="717.184" y="89.05" width="10" height="2.5" fill="#e6332e"></rect><text font-size="14.40" x="732.2" y="94.6" fill="#333"><tspan x="732.184" y="94.62">Ireland</tspan></text></g><g class="legendMark"><rect x="717.184" y="97.5" width="117.81600000000002" height="14.4" fill="#fff" opacity="0"></rect><rect x="717.184" y="103.45" width="10" height="2.5" fill="#3360a9"></rect><text font-size="14.40" x="732.2" y="109.0" fill="#333"><tspan x="732.184" y="109.02000000000001">United Kingdom</tspan></text></g><g class="legendMark"><rect x="717.184" y="158" width="59.928000000000004" height="14.4" fill="#fff" opacity="0"></rect><rect x="717.184" y="163.95" width="10" height="2.5" fill="#7ec7ce"></rect><text font-size="14.40" x="732.2" y="169.5" fill="#333"><tspan x="732.184" y="169.52">France</tspan></text></g><g class="legendMark"><rect x="717.184" y="200.5" width="52.008" height="14.4" fill="#fff" opacity="0"></rect><rect x="717.184" y="206.45" width="10" height="2.5" fill="#f6a324"></rect><text font-size="14.40" x="732.2" y="212.0" fill="#333"><tspan x="732.184" y="212.02">Spain</tspan></text></g><g class="legendMark"><rect x="717.184" y="293" width="41.496" height="14.4" fill="#fff" opacity="0"></rect><rect x="717.184" y="298.95" width="10" height="2.5" fill="#34983f"></rect><text font-size="14.40" x="732.2" y="304.5" fill="#333"><tspan x="732.184" y="304.52">Italy</tspan></text></g><g class="legendMark"><rect x="717.184" y="307.4" width="68.85600000000001" height="14.4" fill="#fff" opacity="0"></rect><rect x="717.184" y="313.34999999999997" width="10" height="2.5" fill="#ca2628"></rect><text font-size="14.40" x="732.2" y="318.9" fill="#333"><tspan x="732.184" y="318.91999999999996">Portugal</tspan></text></g><g class="legendMark"><rect x="717.184" y="488.2" width="62.376000000000005" height="14.4" fill="#fff" opacity="0"></rect><rect x="717.184" y="494.15" width="10" height="2.5" fill="#3360a9"></rect><text font-size="14.40" x="732.2" y="499.7" fill="#333"><tspan x="732.184" y="499.71999999999997">Greece</tspan></text></g></g><g class="Lines"><rect x="53" y="90" width="655" height="445" fill="rgba(255,255,255,0)" opacity="0"></rect><g class="key-France_0"><path stroke="#7ec7ce" stroke-linecap="round" d="M53 216L83 238L98 258L114 266L129 263L144 270L159 258L174 266L190 221L205 241L220 254L235 261L251 249L266 244L281 287L296 218L311 216L327 215L342 248L357 260L372 233L403 200L418 239L433 250L448 195L464 193L479 201L494 204L509 227L525 180L540 177L555 159L570 170L585 201L601 169L616 173L631 194L646 158L662 170L677 164L692 155L707 165" fill="none" stroke-width="1.5"></path><g fill="#7ec7ce"><circle cx="53" cy="216" r="2"></circle><circle cx="83" cy="238" r="2"></circle><circle cx="98" cy="258" r="2"></circle><circle cx="114" cy="266" r="2"></circle><circle cx="129" cy="263" r="2"></circle><circle cx="144" cy="270" r="2"></circle><circle cx="159" cy="258" r="2"></circle><circle cx="174" cy="266" r="2"></circle><circle cx="190" cy="221" r="2"></circle><circle cx="205" cy="241" r="2"></circle><circle cx="220" cy="254" r="2"></circle><circle cx="235" cy="261" r="2"></circle><circle cx="251" cy="249" r="2"></circle><circle cx="266" cy="244" r="2"></circle><circle cx="281" cy="287" r="2"></circle><circle cx="296" cy="218" r="2"></circle><circle cx="311" cy="216" r="2"></circle><circle cx="327" cy="215" r="2"></circle><circle cx="342" cy="248" r="2"></circle><circle cx="357" cy="260" r="2"></circle><circle cx="372" cy="233" r="2"></circle><circle cx="403" cy="200" r="2"></circle><circle cx="418" cy="239" r="2"></circle><circle cx="433" cy="250" r="2"></circle><circle cx="448" cy="195" r="2"></circle><circle cx="464" cy="193" r="2"></circle><circle cx="479" cy="201" r="2"></circle><circle cx="494" cy="204" r="2"></circle><circle cx="509" cy="227" r="2"></circle><circle cx="525" cy="180" r="2"></circle><circle cx="540" cy="177" r="2"></circle><circle cx="555" cy="159" r="2"></circle><circle cx="570" cy="170" r="2"></circle><circle cx="585" cy="201" r="2"></circle><circle cx="601" cy="169" r="2"></circle><circle cx="616" cy="173" r="2"></circle><circle cx="631" cy="194" r="2"></circle><circle cx="646" cy="158" r="2"></circle><circle cx="662" cy="170" r="2"></circle><circle cx="677" cy="164" r="2"></circle><circle cx="692" cy="155" r="2"></circle><circle cx="707" cy="165" r="2"></circle></g></g><g class="key-Greece_0"><path stroke="#3360a9" stroke-linecap="round" d="M174 358L190 330L205 309L220 310L235 325L251 285L266 332L281 328L296 289L311 312L327 384L342 374L357 412L372 392L403 245L418 316L433 372L448 320L464 340L479 348L494 336L509 315L525 295L540 304L555 278L570 285L585 344L601 455L616 440L631 472L646 535L662 500L677 463L692 472L707 495" fill="none" stroke-width="1.5"></path><g fill="#3360a9"><circle cx="174" cy="358" r="2"></circle><circle cx="190" cy="330" r="2"></circle><circle cx="205" cy="309" r="2"></circle><circle cx="220" cy="310" r="2"></circle><circle cx="235" cy="325" r="2"></circle><circle cx="251" cy="285" r="2"></circle><circle cx="266" cy="332" r="2"></circle><circle cx="281" cy="328" r="2"></circle><circle cx="296" cy="289" r="2"></circle><circle cx="311" cy="312" r="2"></circle><circle cx="327" cy="384" r="2"></circle><circle cx="342" cy="374" r="2"></circle><circle cx="357" cy="412" r="2"></circle><circle cx="372" cy="392" r="2"></circle><circle cx="403" cy="245" r="2"></circle><circle cx="418" cy="316" r="2"></circle><circle cx="433" cy="372" r="2"></circle><circle cx="448" cy="320" r="2"></circle><circle cx="464" cy="340" r="2"></circle><circle cx="479" cy="348" r="2"></circle><circle cx="494" cy="336" r="2"></circle><circle cx="509" cy="315" r="2"></circle><circle cx="525" cy="295" r="2"></circle><circle cx="540" cy="304" r="2"></circle><circle cx="555" cy="278" r="2"></circle><circle cx="570" cy="285" r="2"></circle><circle cx="585" cy="344" r="2"></circle><circle cx="601" cy="455" r="2"></circle><circle cx="616" cy="440" r="2"></circle><circle cx="631" cy="472" r="2"></circle><circle cx="646" cy="535" r="2"></circle><circle cx="662" cy="500" r="2"></circle><circle cx="677" cy="463" r="2"></circle><circle cx="692" cy="472" r="2"></circle><circle cx="707" cy="495" r="2"></circle></g></g><g class="key-Ireland_0"><path stroke="#e6332e" stroke-linecap="round" d="M53 108L83 132L98 140L114 134L129 132L144 170L159 150L174 179L190 152L205 181L220 167L235 186L251 185L266 219L281 236L296 178L311 146L327 146L342 160L357 161L372 151L403 120L418 115L433 130L448 142L464 142L479 125L494 136L509 154L525 104L540 119L555 120L570 125L585 139L601 133L616 155L631 146L646 169L662 180L677 116L692 103L707 90" fill="none" stroke-width="1.5"></path><g fill="#e6332e"><circle cx="53" cy="108" r="2"></circle><circle cx="83" cy="132" r="2"></circle><circle cx="98" cy="140" r="2"></circle><circle cx="114" cy="134" r="2"></circle><circle cx="129" cy="132" r="2"></circle><circle cx="144" cy="170" r="2"></circle><circle cx="159" cy="150" r="2"></circle><circle cx="174" cy="179" r="2"></circle><circle cx="190" cy="152" r="2"></circle><circle cx="205" cy="181" r="2"></circle><circle cx="220" cy="167" r="2"></circle><circle cx="235" cy="186" r="2"></circle><circle cx="251" cy="185" r="2"></circle><circle cx="266" cy="219" r="2"></circle><circle cx="281" cy="236" r="2"></circle><circle cx="296" cy="178" r="2"></circle><circle cx="311" cy="146" r="2"></circle><circle cx="327" cy="146" r="2"></circle><circle cx="342" cy="160" r="2"></circle><circle cx="357" cy="161" r="2"></circle><circle cx="372" cy="151" r="2"></circle><circle cx="403" cy="120" r="2"></circle><circle cx="418" cy="115" r="2"></circle><circle cx="433" cy="130" r="2"></circle><circle cx="448" cy="142" r="2"></circle><circle cx="464" cy="142" r="2"></circle><circle cx="479" cy="125" r="2"></circle><circle cx="494" cy="136" r="2"></circle><circle cx="509" cy="154" r="2"></circle><circle cx="525" cy="104" r="2"></circle><circle cx="540" cy="119" r="2"></circle><circle cx="555" cy="120" r="2"></circle><circle cx="570" cy="125" r="2"></circle><circle cx="585" cy="139" r="2"></circle><circle cx="601" cy="133" r="2"></circle><circle cx="616" cy="155" r="2"></circle><circle cx="631" cy="146" r="2"></circle><circle cx="646" cy="169" r="2"></circle><circle cx="662" cy="180" r="2"></circle><circle cx="677" cy="116" r="2"></circle><circle cx="692" cy="103" r="2"></circle><circle cx="707" cy="90" r="2"></circle></g></g><g class="key-Italy_0"><path stroke="#34983f" stroke-linecap="round" d="M53 302L83 362L98 365L114 332L129 328L144 347L159 308L174 288L190 288L205 299L220 290L235 306L251 263L266 298L281 269L296 214L311 230L327 199L342 230L357 217L372 219L403 195L418 241L433 242L448 215L464 237L479 195L494 194L509 223L525 225L540 232L555 222L570 246L585 311L601 265L616 258L631 273L646 343L662 358L677 297L692 304L707 300" fill="none" stroke-width="1.5"></path><g fill="#34983f"><circle cx="53" cy="302" r="2"></circle><circle cx="83" cy="362" r="2"></circle><circle cx="98" cy="365" r="2"></circle><circle cx="114" cy="332" r="2"></circle><circle cx="129" cy="328" r="2"></circle><circle cx="144" cy="347" r="2"></circle><circle cx="159" cy="308" r="2"></circle><circle cx="174" cy="288" r="2"></circle><circle cx="190" cy="288" r="2"></circle><circle cx="205" cy="299" r="2"></circle><circle cx="220" cy="290" r="2"></circle><circle cx="235" cy="306" r="2"></circle><circle cx="251" cy="263" r="2"></circle><circle cx="266" cy="298" r="2"></circle><circle cx="281" cy="269" r="2"></circle><circle cx="296" cy="214" r="2"></circle><circle cx="311" cy="230" r="2"></circle><circle cx="327" cy="199" r="2"></circle><circle cx="342" cy="230" r="2"></circle><circle cx="357" cy="217" r="2"></circle><circle cx="372" cy="219" r="2"></circle><circle cx="403" cy="195" r="2"></circle><circle cx="418" cy="241" r="2"></circle><circle cx="433" cy="242" r="2"></circle><circle cx="448" cy="215" r="2"></circle><circle cx="464" cy="237" r="2"></circle><circle cx="479" cy="195" r="2"></circle><circle cx="494" cy="194" r="2"></circle><circle cx="509" cy="223" r="2"></circle><circle cx="525" cy="225" r="2"></circle><circle cx="540" cy="232" r="2"></circle><circle cx="555" cy="222" r="2"></circle><circle cx="570" cy="246" r="2"></circle><circle cx="585" cy="311" r="2"></circle><circle cx="601" cy="265" r="2"></circle><circle cx="616" cy="258" r="2"></circle><circle cx="631" cy="273" r="2"></circle><circle cx="646" cy="343" r="2"></circle><circle cx="662" cy="358" r="2"></circle><circle cx="677" cy="297" r="2"></circle><circle cx="692" cy="304" r="2"></circle><circle cx="707" cy="300" r="2"></circle></g></g><g class="key-Portugal_0"><path stroke="#ca2628" stroke-linecap="round" d="M235 375L251 302L266 266L281 339L296 263L311 249L327 248L342 235L357 291L372 266L403 183L418 318L433 342L448 288L464 298L479 290L494 322L509 367L525 343L540 350L555 345L570 347L585 414L601 400L616 447L631 440L646 532L662 509L677 398L692 375L707 305" fill="none" stroke-width="1.5"></path><g fill="#ca2628"><circle cx="235" cy="375" r="2"></circle><circle cx="251" cy="302" r="2"></circle><circle cx="266" cy="266" r="2"></circle><circle cx="281" cy="339" r="2"></circle><circle cx="296" cy="263" r="2"></circle><circle cx="311" cy="249" r="2"></circle><circle cx="327" cy="248" r="2"></circle><circle cx="342" cy="235" r="2"></circle><circle cx="357" cy="291" r="2"></circle><circle cx="372" cy="266" r="2"></circle><circle cx="403" cy="183" r="2"></circle><circle cx="418" cy="318" r="2"></circle><circle cx="433" cy="342" r="2"></circle><circle cx="448" cy="288" r="2"></circle><circle cx="464" cy="298" r="2"></circle><circle cx="479" cy="290" r="2"></circle><circle cx="494" cy="322" r="2"></circle><circle cx="509" cy="367" r="2"></circle><circle cx="525" cy="343" r="2"></circle><circle cx="540" cy="350" r="2"></circle><circle cx="555" cy="345" r="2"></circle><circle cx="570" cy="347" r="2"></circle><circle cx="585" cy="414" r="2"></circle><circle cx="601" cy="400" r="2"></circle><circle cx="616" cy="447" r="2"></circle><circle cx="631" cy="440" r="2"></circle><circle cx="646" cy="532" r="2"></circle><circle cx="662" cy="509" r="2"></circle><circle cx="677" cy="398" r="2"></circle><circle cx="692" cy="375" r="2"></circle><circle cx="707" cy="305" r="2"></circle></g></g><g class="key-Spain_0"><path stroke="#f6a324" stroke-linecap="round" d="M235 266L251 247L266 246L281 284L296 209L311 219L327 201L342 226L357 255L372 258L403 193L418 213L433 249L448 170L464 180L479 161L494 177L509 172L525 148L540 161L555 130L570 144L585 166L601 228L616 217L631 233L646 253L662 269L677 247L692 215L707 208" fill="none" stroke-width="1.5"></path><g fill="#f6a324"><circle cx="235" cy="266" r="2"></circle><circle cx="251" cy="247" r="2"></circle><circle cx="266" cy="246" r="2"></circle><circle cx="281" cy="284" r="2"></circle><circle cx="296" cy="209" r="2"></circle><circle cx="311" cy="219" r="2"></circle><circle cx="327" cy="201" r="2"></circle><circle cx="342" cy="226" r="2"></circle><circle cx="357" cy="255" r="2"></circle><circle cx="372" cy="258" r="2"></circle><circle cx="403" cy="193" r="2"></circle><circle cx="418" cy="213" r="2"></circle><circle cx="433" cy="249" r="2"></circle><circle cx="448" cy="170" r="2"></circle><circle cx="464" cy="180" r="2"></circle><circle cx="479" cy="161" r="2"></circle><circle cx="494" cy="177" r="2"></circle><circle cx="509" cy="172" r="2"></circle><circle cx="525" cy="148" r="2"></circle><circle cx="540" cy="161" r="2"></circle><circle cx="555" cy="130" r="2"></circle><circle cx="570" cy="144" r="2"></circle><circle cx="585" cy="166" r="2"></circle><circle cx="601" cy="228" r="2"></circle><circle cx="616" cy="217" r="2"></circle><circle cx="631" cy="233" r="2"></circle><circle cx="646" cy="253" r="2"></circle><circle cx="662" cy="269" r="2"></circle><circle cx="677" cy="247" r="2"></circle><circle cx="692" cy="215" r="2"></circle><circle cx="707" cy="208" r="2"></circle></g></g><g class="key-United-Kingdom_0"><path stroke="#3360a9" stroke-linecap="round" d="M53 159L83 166L98 167L114 170L129 154L144 155L159 148L174 169L190 150L205 164L220 155L235 153L251 156L266 153L281 197L296 135L311 154L327 151L342 162L357 150L372 144L403 149L418 152L433 156L448 172L464 145L479 138L494 146L509 141L525 119L540 134L555 136L570 127L585 145L601 131L616 122L631 126L646 115L662 124L677 101L692 104L707 101" fill="none" stroke-width="1.5"></path><g fill="#3360a9"><circle cx="53" cy="159" r="2"></circle><circle cx="83" cy="166" r="2"></circle><circle cx="98" cy="167" r="2"></circle><circle cx="114" cy="170" r="2"></circle><circle cx="129" cy="154" r="2"></circle><circle cx="144" cy="155" r="2"></circle><circle cx="159" cy="148" r="2"></circle><circle cx="174" cy="169" r="2"></circle><circle cx="190" cy="150" r="2"></circle><circle cx="205" cy="164" r="2"></circle><circle cx="220" cy="155" r="2"></circle><circle cx="235" cy="153" r="2"></circle><circle cx="251" cy="156" r="2"></circle><circle cx="266" cy="153" r="2"></circle><circle cx="281" cy="197" r="2"></circle><circle cx="296" cy="135" r="2"></circle><circle cx="311" cy="154" r="2"></circle><circle cx="327" cy="151" r="2"></circle><circle cx="342" cy="162" r="2"></circle><circle cx="357" cy="150" r="2"></circle><circle cx="372" cy="144" r="2"></circle><circle cx="403" cy="149" r="2"></circle><circle cx="418" cy="152" r="2"></circle><circle cx="433" cy="156" r="2"></circle><circle cx="448" cy="172" r="2"></circle><circle cx="464" cy="145" r="2"></circle><circle cx="479" cy="138" r="2"></circle><circle cx="494" cy="146" r="2"></circle><circle cx="509" cy="141" r="2"></circle><circle cx="525" cy="119" r="2"></circle><circle cx="540" cy="134" r="2"></circle><circle cx="555" cy="136" r="2"></circle><circle cx="570" cy="127" r="2"></circle><circle cx="585" cy="145" r="2"></circle><circle cx="601" cy="131" r="2"></circle><circle cx="616" cy="122" r="2"></circle><circle cx="631" cy="126" r="2"></circle><circle cx="646" cy="115" r="2"></circle><circle cx="662" cy="124" r="2"></circle><circle cx="677" cy="101" r="2"></circle><circle cx="692" cy="104" r="2"></circle><circle cx="707" cy="101" r="2"></circle></g></g></g></g></g><g style="fill: #777;" class="SourcesFooter"><g style="fill: #777;" class="clickable"><text font-size="12.60" x="15.0" y="581.6"><tspan x="15" y="581.58">Source: Eurobarometer (2017)</tspan></text></g><text font-size="12.60" x="513.3" y="581.6"><tspan x="513.322" y="581.58"><a target='_blank' style='fill: #777;' href='https://ourworldindata.org/bonheur-et-satisfaction/'>OurWorldInData.org/bonheur-et-satisfaction/</a> • <a style="fill: #777;" href="http://creativecommons.org/licenses/by-sa/4.0/deed.en_US" target="_blank">CC BY-SA</a></tspan></text></g></g></svg>