<svg xmlns="http://www.w3.org/2000/svg" version="1.1" style="font-family: 'Helvetica Neue', Helvetica, Arial, sans-serif; font-size: 18px; background-color: white; text-rendering: optimizeLegibility; -webkit-font-smoothing: antialiased;" width="850" height="600"><g class="ChartTab"><g class="HeaderView"><g opacity="0.8" transform="translate(778, 15) scale(0.27)"><a xmlns:xlink="http://www.w3.org/1999/xlink" xlink:href="https://ourworldindata.org" target="_blank"><g><rect x="0" y="0" fill="#1B2543" width="211.2" height="130.1"/><rect x="0" y="112.2" fill="#E63912" width="211.2" height="17.9"/><g><rect x="1.2" y="12.3" fill="none" width="210.2" height="99.2"/><path fill="#FFFFFF" d="M37.8,32.2c0,12.7-7.7,19.4-17.1,19.4c-9.7,0-16.6-7.5-16.6-18.7c0-11.7,7.3-19.3,17.1-19.3 C31.3,13.7,37.8,21.3,37.8,32.2z M9.2,32.8c0,7.9,4.3,14.9,11.8,14.9c7.5,0,11.8-6.9,11.8-15.3c0-7.3-3.8-14.9-11.8-14.9 C13.1,17.5,9.2,24.8,9.2,32.8z"/><path fill="#FFFFFF" d="M62.7,43.8c0,2.7,0.1,5.1,0.2,7.2h-4.3l-0.3-4.3h-0.1c-1.3,2.1-4,4.9-8.8,4.9c-4.2,0-9.1-2.3-9.1-11.6 V24.6h4.8v14.6c0,5,1.5,8.4,5.9,8.4c3.2,0,5.5-2.2,6.3-4.4c0.3-0.7,0.4-1.6,0.4-2.5V24.6h4.8V43.8z"/><path fill="#FFFFFF" d="M67.3,32.8c0-3.1-0.1-5.8-0.2-8.2h4.2l0.2,5.2h0.2c1.2-3.5,4.1-5.8,7.3-5.8c0.5,0,0.9,0.1,1.4,0.2v4.5 c-0.5-0.1-1-0.2-1.6-0.2c-3.4,0-5.8,2.6-6.5,6.2c-0.1,0.7-0.2,1.4-0.2,2.2V51h-4.8V32.8z"/><path fill="#FFFFFF" d="M95.4,51l-9.4-36.8h5l4.4,18.6c1.1,4.6,2.1,9.2,2.7,12.7h0.1c0.6-3.7,1.8-8,3-12.8l4.9-18.5h5l4.5,18.7 c1,4.4,2,8.7,2.6,12.6h0.1c0.8-4,1.8-8.1,3-12.7l4.9-18.5h4.9L120.6,51h-5L111,31.9c-1.1-4.7-1.9-8.3-2.4-12h-0.1 c-0.7,3.7-1.5,7.3-2.8,12L100.4,51H95.4z"/><path fill="#FFFFFF" d="M154.9,37.6c0,9.8-6.8,14-13.2,14c-7.2,0-12.7-5.2-12.7-13.6c0-8.8,5.8-14,13.1-14 C149.8,24,154.9,29.5,154.9,37.6z M133.9,37.9c0,5.8,3.3,10.1,8,10.1c4.6,0,8-4.3,8-10.3c0-4.5-2.2-10.1-7.9-10.1 C136.3,27.6,133.9,32.8,133.9,37.9z"/><path fill="#FFFFFF" d="M158.2,32.8c0-3.1-0.1-5.8-0.2-8.2h4.2l0.2,5.2h0.2c1.2-3.5,4.1-5.8,7.3-5.8c0.5,0,0.9,0.1,1.4,0.2v4.5 c-0.5-0.1-1-0.2-1.6-0.2c-3.4,0-5.8,2.6-6.5,6.2c-0.1,0.7-0.2,1.4-0.2,2.2V51h-4.8V32.8z"/><path fill="#FFFFFF" d="M173.5,12.3h4.8V51h-4.8V12.3z"/><path fill="#FFFFFF" d="M206.5,12.3v31.9c0,2.3,0.1,5,0.2,6.8h-4.3l-0.2-4.6H202c-1.5,2.9-4.7,5.2-9,5.2 c-6.4,0-11.3-5.4-11.3-13.4c-0.1-8.8,5.4-14.2,11.9-14.2c4,0,6.8,1.9,8,4h0.1V12.3H206.5z M201.7,35.4c0-0.6-0.1-1.4-0.2-2 c-0.7-3.1-3.3-5.6-6.9-5.6c-5,0-7.9,4.4-7.9,10.2c0,5.3,2.6,9.8,7.8,9.8c3.2,0,6.2-2.1,7.1-5.7c0.2-0.7,0.2-1.3,0.2-2.1V35.4z"/><path fill="#FFFFFF" d="M42.8,64c0.1,1.6-1.1,2.9-3.1,2.9c-1.7,0-2.9-1.3-2.9-2.9c0-1.7,1.3-3,3-3C41.7,61,42.8,62.3,42.8,64z M37.4,97.8V71.4h4.8v26.4H37.4z"/><path fill="#FFFFFF" d="M47.5,78.6c0-2.7-0.1-5-0.2-7.1h4.3l0.3,4.4h0.1c1.3-2.5,4.4-5,8.8-5c3.7,0,9.4,2.2,9.4,11.2v15.8h-4.8 V82.6c0-4.3-1.6-7.8-6.1-7.8c-3.2,0-5.6,2.2-6.5,4.9c-0.2,0.6-0.3,1.4-0.3,2.2v15.9h-4.8V78.6z"/><path fill="#FFFFFF" d="M84,61.6c2.9-0.4,6.3-0.8,10.1-0.8c6.8,0,11.7,1.6,14.9,4.6c3.3,3,5.2,7.3,5.2,13.2c0,6-1.9,10.9-5.3,14.3 c-3.4,3.4-9.1,5.3-16.3,5.3c-3.4,0-6.2-0.2-8.6-0.4V61.6z M88.8,94.1c1.2,0.2,3,0.3,4.8,0.3c10.2,0,15.7-5.7,15.7-15.6 c0.1-8.7-4.9-14.2-14.9-14.2c-2.5,0-4.3,0.2-5.6,0.5V94.1z"/><path fill="#FFFFFF" d="M132.1,97.8l-0.4-3.3h-0.2c-1.5,2.1-4.3,3.9-8.1,3.9c-5.4,0-8.1-3.8-8.1-7.6c0-6.4,5.7-9.9,15.9-9.8v-0.5 c0-2.2-0.6-6.1-6-6.1c-2.5,0-5,0.8-6.9,2l-1.1-3.2c2.2-1.4,5.4-2.3,8.7-2.3c8.1,0,10.1,5.5,10.1,10.8v9.9c0,2.3,0.1,4.5,0.4,6.3 H132.1z M131.4,84.4c-5.3-0.1-11.2,0.8-11.2,5.9c0,3.1,2.1,4.6,4.5,4.6c3.4,0,5.6-2.2,6.4-4.4c0.2-0.5,0.3-1,0.3-1.5V84.4z"/><path fill="#FFFFFF" d="M146.6,63.9v7.6h6.9v3.7h-6.9v14.2c0,3.3,0.9,5.1,3.6,5.1c1.3,0,2.2-0.2,2.8-0.3l0.2,3.6 c-0.9,0.4-2.4,0.7-4.3,0.7c-2.2,0-4-0.7-5.2-2c-1.4-1.4-1.9-3.8-1.9-6.9V75.1h-4.1v-3.7h4.1v-6.3L146.6,63.9z"/><path fill="#FFFFFF" d="M171.4,97.8l-0.4-3.3h-0.2c-1.5,2.1-4.3,3.9-8.1,3.9c-5.4,0-8.1-3.8-8.1-7.6c0-6.4,5.7-9.9,15.9-9.8v-0.5 c0-2.2-0.6-6.1-6-6.1c-2.5,0-5,0.8-6.9,2l-1.1-3.2c2.2-1.4,5.4-2.3,8.7-2.3c8.1,0,10.1,5.5,10.1,10.8v9.9c0,2.3,0.1,4.5,0.4,6.3 H171.4z M170.7,84.4c-5.3-0.1-11.2,0.8-11.2,5.9c0,3.1,2.1,4.6,4.5,4.6c3.4,0,5.6-2.2,6.4-4.4c0.2-0.5,0.3-1,0.3-1.5V84.4z"/></g></g></a></g><a href="https://ourworldindata.org/grapher/share-of-population-with-cancer-types" target="_blank"><text font-size="25.20" x="15.0" y="35.2" fill="#555"><tspan x="15" y="35.160000000000004">Share of population with cancer types, World</tspan></text></a><text font-size="14.40" x="15.0" y="53.7" fill="#666"><tspan x="15" y="53.72">Share of total population with different types of cancer over time, measured as the age-standardized percentage. This</tspan><tspan x="15" y="69.56">share has been age-standardized assuming a constant age structure to compare prevalence between countries and</tspan><tspan x="15" y="85.4">through time.</tspan></text></g><g class="LineChart"><defs><clipPath id="boundsClip-2"><rect x="56.17" y="0" width="830" height="897.8"></rect></clipPath></defs><g class="AxisBoxView"><g class="HorizontalAxis"><text x="66.2" y="556.5" fill="#666" text-anchor="middle" font-size="16.2">1990</text><text x="167.6" y="556.5" fill="#666" text-anchor="middle" font-size="16.2">1995</text><text x="269" y="556.5" fill="#666" text-anchor="middle" font-size="16.2">2000</text><text x="370.4" y="556.5" fill="#666" text-anchor="middle" font-size="16.2">2005</text><text x="471.9" y="556.5" fill="#666" text-anchor="middle" font-size="16.2">2010</text><text x="593.6" y="556.5" fill="#666" text-anchor="middle" font-size="16.2">2016</text></g><g class="VerticalAxis"><text x="61.17" y="535.3" fill="#666" dominant-baseline="middle" text-anchor="end" font-size="16.2">0%</text><text x="61.17" y="463.8" fill="#666" dominant-baseline="middle" text-anchor="end" font-size="16.2">0.02%</text><text x="61.17" y="392.4" fill="#666" dominant-baseline="middle" text-anchor="end" font-size="16.2">0.04%</text><text x="61.17" y="320.9" fill="#666" dominant-baseline="middle" text-anchor="end" font-size="16.2">0.06%</text><text x="61.17" y="249.5" fill="#666" dominant-baseline="middle" text-anchor="end" font-size="16.2">0.08%</text><text x="61.17" y="178" fill="#666" dominant-baseline="middle" text-anchor="end" font-size="16.2">0.1%</text></g><g class="AxisGridLines"><line x1="66.17" y1="535.3" x2="593.59" y2="535.3" stroke="#ccc"></line><line x1="66.17" y1="463.8" x2="593.59" y2="463.8" stroke="#ddd" stroke-dasharray="3,2"></line><line x1="66.17" y1="392.4" x2="593.59" y2="392.4" stroke="#ddd" stroke-dasharray="3,2"></line><line x1="66.17" y1="320.9" x2="593.59" y2="320.9" stroke="#ddd" stroke-dasharray="3,2"></line><line x1="66.17" y1="249.5" x2="593.59" y2="249.5" stroke="#ddd" stroke-dasharray="3,2"></line><line x1="66.17" y1="178" x2="593.59" y2="178" stroke="#ddd" stroke-dasharray="3,2"></line></g></g><g clip-path="url(#boundsClip-2)"><g class="HeightedLegend clickable"><g class="legendMark"><g class="indicator"><line x1="598.585" y1="525.7" x2="621.085" y2="525.7" stroke="#666" stroke-width="0.5"></line><line x1="621.085" y1="525.7" x2="621.085" y2="525.7" stroke="#666" stroke-width="0.5"></line><line x1="621.085" y1="525.7" x2="623.585" y2="525.7" stroke="#666" stroke-width="0.5"></line></g><rect x="593.585" y="518.95" width="230.615" height="13.5" fill="#fff" opacity="0"></rect><text font-size="13.50" x="628.6" y="529.8" fill="#3360a9"><tspan x="628.585" y="529.75">Gallbladder &amp; biliary tract cancer</tspan></text></g><g class="legendMark"><g class="indicator"><line x1="598.585" y1="518.8" x2="619.973888888889" y2="518.8" stroke="#666" stroke-width="0.5"></line><line x1="619.973888888889" y1="518.8" x2="619.973888888889" y2="510.20000000000005" stroke="#666" stroke-width="0.5"></line><line x1="619.973888888889" y1="510.20000000000005" x2="623.585" y2="510.20000000000005" stroke="#666" stroke-width="0.5"></line></g><rect x="593.585" y="503.45000000000005" width="138.005" height="13.5" fill="#fff" opacity="0"></rect><text font-size="13.50" x="628.6" y="514.3" fill="#ca2628"><tspan x="628.585" y="514.25">Testicular cancer</tspan></text></g><g class="legendMark"><g class="indicator"><line x1="598.585" y1="518.4" x2="618.8627777777779" y2="518.4" stroke="#666" stroke-width="0.5"></line><line x1="618.8627777777779" y1="518.4" x2="618.8627777777779" y2="494.70000000000005" stroke="#666" stroke-width="0.5"></line><line x1="618.8627777777779" y1="494.70000000000005" x2="623.585" y2="494.70000000000005" stroke="#666" stroke-width="0.5"></line></g><rect x="593.585" y="487.95000000000005" width="159.2" height="13.5" fill="#fff" opacity="0"></rect><text font-size="13.50" x="628.6" y="498.8" fill="#34983f"><tspan x="628.585" y="498.75000000000006">Nasopharynx cancer</tspan></text></g><g class="legendMark"><g class="indicator"><line x1="598.585" y1="514.6" x2="617.7516666666667" y2="514.6" stroke="#666" stroke-width="0.5"></line><line x1="617.7516666666667" y1="514.6" x2="617.7516666666667" y2="479.20000000000005" stroke="#666" stroke-width="0.5"></line><line x1="617.7516666666667" y1="479.20000000000005" x2="623.585" y2="479.20000000000005" stroke="#666" stroke-width="0.5"></line></g><rect x="593.585" y="472.45000000000005" width="143.405" height="13.5" fill="#fff" opacity="0"></rect><text font-size="13.50" x="628.6" y="483.3" fill="#f6a324"><tspan x="628.585" y="483.25000000000006">Pancreatic cancer</tspan></text></g><g class="legendMark"><g class="indicator"><line x1="598.585" y1="504.6" x2="616.6405555555556" y2="504.6" stroke="#666" stroke-width="0.5"></line><line x1="616.6405555555556" y1="504.6" x2="616.6405555555556" y2="463.70000000000005" stroke="#666" stroke-width="0.5"></line><line x1="616.6405555555556" y1="463.70000000000005" x2="623.585" y2="463.70000000000005" stroke="#666" stroke-width="0.5"></line></g><rect x="593.585" y="456.95000000000005" width="151.10000000000002" height="13.5" fill="#fff" opacity="0"></rect><text font-size="13.50" x="628.6" y="467.8" fill="#a652ba"><tspan x="628.585" y="467.75000000000006">Esophageal cancer</tspan></text></g><g class="legendMark"><g class="indicator"><line x1="598.585" y1="501" x2="615.5294444444445" y2="501" stroke="#666" stroke-width="0.5"></line><line x1="615.5294444444445" y1="501" x2="615.5294444444445" y2="448.20000000000005" stroke="#666" stroke-width="0.5"></line><line x1="615.5294444444445" y1="448.20000000000005" x2="623.585" y2="448.20000000000005" stroke="#666" stroke-width="0.5"></line></g><rect x="593.585" y="441.45000000000005" width="120.05000000000001" height="13.5" fill="#fff" opacity="0"></rect><text font-size="13.50" x="628.6" y="452.3" fill="#2a939b"><tspan x="628.585" y="452.25000000000006">Larynx cancer</tspan></text></g><g class="legendMark"><g class="indicator"><line x1="598.585" y1="494.5" x2="614.4183333333334" y2="494.5" stroke="#666" stroke-width="0.5"></line><line x1="614.4183333333334" y1="494.5" x2="614.4183333333334" y2="432.70000000000005" stroke="#666" stroke-width="0.5"></line><line x1="614.4183333333334" y1="432.70000000000005" x2="623.585" y2="432.70000000000005" stroke="#666" stroke-width="0.5"></line></g><rect x="593.585" y="425.95000000000005" width="222.38000000000002" height="13.5" fill="#fff" opacity="0"></rect><text font-size="13.50" x="628.6" y="436.8" fill="#e6332e"><tspan x="628.585" y="436.75000000000006">Brain &amp; nervous system cancer</tspan></text></g><g class="legendMark"><g class="indicator"><line x1="598.585" y1="494" x2="613.3072222222222" y2="494" stroke="#666" stroke-width="0.5"></line><line x1="613.3072222222222" y1="494" x2="613.3072222222222" y2="417.20000000000005" stroke="#666" stroke-width="0.5"></line><line x1="613.3072222222222" y1="417.20000000000005" x2="623.585" y2="417.20000000000005" stroke="#666" stroke-width="0.5"></line></g><rect x="593.585" y="410.45000000000005" width="126.80000000000001" height="13.5" fill="#fff" opacity="0"></rect><text font-size="13.50" x="628.6" y="421.3" fill="#9ecc8a"><tspan x="628.585" y="421.25000000000006">Ovarian cancer</tspan></text></g><g class="legendMark"><g class="indicator"><line x1="598.585" y1="484.8" x2="612.1961111111111" y2="484.8" stroke="#666" stroke-width="0.5"></line><line x1="612.1961111111111" y1="484.8" x2="612.1961111111111" y2="401.70000000000005" stroke="#666" stroke-width="0.5"></line><line x1="612.1961111111111" y1="401.70000000000005" x2="623.585" y2="401.70000000000005" stroke="#666" stroke-width="0.5"></line></g><rect x="593.585" y="394.95000000000005" width="199.70000000000002" height="13.5" fill="#fff" opacity="0"></rect><text font-size="13.50" x="628.6" y="405.8" fill="#ffd53e"><tspan x="628.585" y="405.75000000000006">Non-melanoma skin cancer</tspan></text></g><g class="legendMark"><g class="indicator"><line x1="598.585" y1="479.9" x2="611.085" y2="479.9" stroke="#666" stroke-width="0.5"></line><line x1="611.085" y1="479.9" x2="611.085" y2="386.20000000000005" stroke="#666" stroke-width="0.5"></line><line x1="611.085" y1="386.20000000000005" x2="623.585" y2="386.20000000000005" stroke="#666" stroke-width="0.5"></line></g><rect x="593.585" y="379.45000000000005" width="108.71000000000001" height="13.5" fill="#fff" opacity="0"></rect><text font-size="13.50" x="628.6" y="390.3" fill="#b077b1"><tspan x="628.585" y="390.25000000000006">Liver cancer</tspan></text></g><g class="legendMark"><g class="indicator"><line x1="598.585" y1="472.2" x2="609.973888888889" y2="472.2" stroke="#666" stroke-width="0.5"></line><line x1="609.973888888889" y1="472.2" x2="609.973888888889" y2="370.70000000000005" stroke="#666" stroke-width="0.5"></line><line x1="609.973888888889" y1="370.70000000000005" x2="623.585" y2="370.70000000000005" stroke="#666" stroke-width="0.5"></line></g><rect x="593.585" y="363.95000000000005" width="124.50500000000001" height="13.5" fill="#fff" opacity="0"></rect><text font-size="13.50" x="628.6" y="374.8" fill="#7ec7ce"><tspan x="628.585" y="374.75000000000006">Thyroid cancer</tspan></text></g><g class="legendMark"><g class="indicator"><line x1="598.585" y1="465.9" x2="608.8627777777779" y2="465.9" stroke="#666" stroke-width="0.5"></line><line x1="608.8627777777779" y1="465.9" x2="608.8627777777779" y2="355.20000000000005" stroke="#666" stroke-width="0.5"></line><line x1="608.8627777777779" y1="355.20000000000005" x2="623.585" y2="355.20000000000005" stroke="#666" stroke-width="0.5"></line></g><rect x="593.585" y="348.45000000000005" width="120.86" height="13.5" fill="#fff" opacity="0"></rect><text font-size="13.50" x="628.6" y="359.3" fill="#e6332e"><tspan x="628.585" y="359.25000000000006">Kidney cancer</tspan></text></g><g class="legendMark"><g class="indicator"><line x1="598.585" y1="461.3" x2="607.7516666666667" y2="461.3" stroke="#666" stroke-width="0.5"></line><line x1="607.7516666666667" y1="461.3" x2="607.7516666666667" y2="339.70000000000005" stroke="#666" stroke-width="0.5"></line><line x1="607.7516666666667" y1="339.70000000000005" x2="623.585" y2="339.70000000000005" stroke="#666" stroke-width="0.5"></line></g><rect x="593.585" y="332.95000000000005" width="136.655" height="13.5" fill="#fff" opacity="0"></rect><text font-size="13.50" x="628.6" y="343.8" fill="#6bb537"><tspan x="628.585" y="343.75000000000006">Lip &amp; oral cancer</tspan></text></g><g class="legendMark"><g class="indicator"><line x1="598.585" y1="437.4" x2="606.6405555555556" y2="437.4" stroke="#666" stroke-width="0.5"></line><line x1="606.6405555555556" y1="437.4" x2="606.6405555555556" y2="324.20000000000005" stroke="#666" stroke-width="0.5"></line><line x1="606.6405555555556" y1="324.20000000000005" x2="623.585" y2="324.20000000000005" stroke="#666" stroke-width="0.5"></line></g><rect x="593.585" y="317.45000000000005" width="128.15" height="13.5" fill="#fff" opacity="0"></rect><text font-size="13.50" x="628.6" y="328.3" fill="#f07f59"><tspan x="628.585" y="328.25000000000006">Cervical cancer</tspan></text></g><g class="legendMark"><g class="indicator"><line x1="598.585" y1="435.4" x2="605.5294444444445" y2="435.4" stroke="#666" stroke-width="0.5"></line><line x1="605.5294444444445" y1="435.4" x2="605.5294444444445" y2="308.70000000000005" stroke="#666" stroke-width="0.5"></line><line x1="605.5294444444445" y1="308.70000000000005" x2="623.585" y2="308.70000000000005" stroke="#666" stroke-width="0.5"></line></g><rect x="593.585" y="301.95000000000005" width="126.125" height="13.5" fill="#fff" opacity="0"></rect><text font-size="13.50" x="628.6" y="312.8" fill="#ce8ebd"><tspan x="628.585" y="312.75000000000006">Bladder cancer</tspan></text></g><g class="legendMark"><g class="indicator"><line x1="598.585" y1="431.8" x2="604.4183333333334" y2="431.8" stroke="#666" stroke-width="0.5"></line><line x1="604.4183333333334" y1="431.8" x2="604.4183333333334" y2="293.20000000000005" stroke="#666" stroke-width="0.5"></line><line x1="604.4183333333334" y1="293.20000000000005" x2="623.585" y2="293.20000000000005" stroke="#666" stroke-width="0.5"></line></g><rect x="593.585" y="286.45000000000005" width="123.02000000000001" height="13.5" fill="#fff" opacity="0"></rect><text font-size="13.50" x="628.6" y="297.3" fill="#5eb77e"><tspan x="628.585" y="297.25000000000006">Uterine cancer</tspan></text></g><g class="legendMark"><g class="indicator"><line x1="598.585" y1="412.9" x2="603.3072222222222" y2="412.9" stroke="#666" stroke-width="0.5"></line><line x1="603.3072222222222" y1="412.9" x2="603.3072222222222" y2="277.70000000000005" stroke="#666" stroke-width="0.5"></line><line x1="603.3072222222222" y1="277.70000000000005" x2="623.585" y2="277.70000000000005" stroke="#666" stroke-width="0.5"></line></g><rect x="593.585" y="270.95000000000005" width="132.875" height="13.5" fill="#fff" opacity="0"></rect><text font-size="13.50" x="628.6" y="281.8" fill="#818282"><tspan x="628.585" y="281.75000000000006">Stomach cancer</tspan></text></g><g class="legendMark"><g class="indicator"><line x1="598.585" y1="376.5" x2="602.1961111111111" y2="376.5" stroke="#666" stroke-width="0.5"></line><line x1="602.1961111111111" y1="376.5" x2="602.1961111111111" y2="262.20000000000005" stroke="#666" stroke-width="0.5"></line><line x1="602.1961111111111" y1="262.20000000000005" x2="623.585" y2="262.20000000000005" stroke="#666" stroke-width="0.5"></line></g><rect x="593.585" y="255.45000000000005" width="241.41500000000002" height="13.5" fill="#fff" opacity="0"></rect><text font-size="13.50" x="628.6" y="266.3" fill="#fceb8c"><tspan x="628.585" y="266.25000000000006">Tracheal, bronchus, &amp; lung cancer</tspan></text></g><g class="legendMark"><g class="indicator"><line x1="598.585" y1="210.6" x2="611.085" y2="210.6" stroke="#666" stroke-width="0.5"></line><line x1="611.085" y1="210.6" x2="611.085" y2="210.6" stroke="#666" stroke-width="0.5"></line><line x1="611.085" y1="210.6" x2="623.585" y2="210.6" stroke="#666" stroke-width="0.5"></line></g><rect x="593.585" y="203.85" width="129.905" height="13.5" fill="#fff" opacity="0"></rect><text font-size="13.50" x="628.6" y="214.7" fill="#9ecc8a"><tspan x="628.585" y="214.65">Prostate cancer</tspan></text></g><g class="legendMark"><g class="indicator"><line x1="598.585" y1="181.8" x2="611.085" y2="181.8" stroke="#666" stroke-width="0.5"></line><line x1="611.085" y1="181.8" x2="611.085" y2="181.8" stroke="#666" stroke-width="0.5"></line><line x1="611.085" y1="181.8" x2="623.585" y2="181.8" stroke="#666" stroke-width="0.5"></line></g><rect x="593.585" y="175.05" width="186.335" height="13.5" fill="#fff" opacity="0"></rect><text font-size="13.50" x="628.6" y="185.9" fill="#cfcd1e"><tspan x="628.585" y="185.85000000000002">Colon and rectum cancer</tspan></text></g><g class="legendMark"><g class="indicator"><line x1="598.585" y1="107.6" x2="611.085" y2="107.6" stroke="#666" stroke-width="0.5"></line><line x1="611.085" y1="107.6" x2="611.085" y2="107.6" stroke="#666" stroke-width="0.5"></line><line x1="611.085" y1="107.6" x2="623.585" y2="107.6" stroke="#666" stroke-width="0.5"></line></g><rect x="593.585" y="100.85" width="118.56500000000001" height="13.5" fill="#fff" opacity="0"></rect><text font-size="13.50" x="628.6" y="111.6" fill="#58888f"><tspan x="628.585" y="111.64999999999999">Breast cancer</tspan></text></g></g><g class="Lines"><rect x="66" y="108" width="527" height="428" fill="rgba(255,255,255,0)" opacity="0"></rect><g class="key-World_0"><path stroke="#b077b1" stroke-linecap="round" d="M66 504L87 504L107 503L127 502L147 502L168 501L188 500L208 500L229 500L249 499L269 498L289 499L310 498L330 498L350 498L370 498L391 497L411 497L431 496L452 495L472 494L492 492L512 490L533 488L553 485L573 483L594 480" fill="none" stroke-width="1.5"></path></g><g class="key-World_1"><path stroke="#e6332e" stroke-linecap="round" d="M66 476L87 475L107 474L127 473L147 472L168 472L188 472L208 472L229 471L249 470L269 470L289 469L310 468L330 468L350 467L370 467L391 467L411 467L431 466L452 466L472 466L492 466L512 466L533 466L553 466L573 466L594 466" fill="none" stroke-width="1.5"></path></g><g class="key-World_10"><path stroke="#f07f59" stroke-linecap="round" d="M66 408L87 410L107 410L127 411L147 411L168 412L188 414L208 415L229 417L249 418L269 419L289 420L310 420L330 422L350 423L370 425L391 426L411 428L431 430L452 431L472 432L492 433L512 434L533 435L553 435L573 436L594 437" fill="none" stroke-width="1.5"></path></g><g class="key-World_11"><path stroke="#ca2628" stroke-linecap="round" d="M66 522L87 522L107 522L127 522L147 521L168 521L188 521L208 521L229 521L249 521L269 521L289 521L310 521L330 521L350 521L370 521L391 521L411 521L431 521L452 520L472 520L492 520L512 520L533 520L553 519L573 519L594 519" fill="none" stroke-width="1.5"></path></g><g class="key-World_12"><path stroke="#f6a324" stroke-linecap="round" d="M66 517L87 517L107 517L127 517L147 517L168 517L188 517L208 517L229 517L249 517L269 517L289 516L310 516L330 516L350 516L370 516L391 516L411 516L431 515L452 515L472 515L492 515L512 515L533 515L553 515L573 515L594 515" fill="none" stroke-width="1.5"></path></g><g class="key-World_13"><path stroke="#a652ba" stroke-linecap="round" d="M66 499L87 499L107 498L127 498L147 498L168 498L188 498L208 497L229 497L249 497L269 497L289 497L310 498L330 498L350 499L370 499L391 500L411 501L431 502L452 502L472 503L492 504L512 504L533 504L553 504L573 505L594 505" fill="none" stroke-width="1.5"></path></g><g class="key-World_14"><path stroke="#34983f" stroke-linecap="round" d="M66 513L87 513L107 513L127 513L147 513L168 514L188 514L208 514L229 514L249 514L269 515L289 515L310 515L330 516L350 516L370 516L391 516L411 517L431 517L452 517L472 517L492 518L512 518L533 518L553 518L573 518L594 518" fill="none" stroke-width="1.5"></path></g><g class="key-World_15"><path stroke="#cfcd1e" stroke-linecap="round" d="M66 236L87 231L107 227L127 222L147 218L168 213L188 213L208 212L229 211L249 210L269 209L289 208L310 206L330 205L350 203L370 201L391 200L411 198L431 196L452 194L472 192L492 190L512 189L533 187L553 185L573 184L594 182" fill="none" stroke-width="1.5"></path></g><g class="key-World_16"><path stroke="#ffd53e" stroke-linecap="round" d="M66 487L87 486L107 484L127 481L147 479L168 475L188 475L208 474L229 473L249 472L269 470L289 471L310 471L330 471L350 471L370 470L391 471L411 472L431 473L452 473L472 472L492 476L512 478L533 480L553 482L573 484L594 485" fill="none" stroke-width="1.5"></path></g><g class="key-World_17"><path stroke="#6bb537" stroke-linecap="round" d="M66 465L87 464L107 464L127 464L147 464L168 464L188 465L208 465L229 465L249 465L269 465L289 465L310 466L330 466L350 466L370 465L391 465L411 465L431 465L452 465L472 464L492 464L512 463L533 463L553 462L573 462L594 461" fill="none" stroke-width="1.5"></path></g><g class="key-World_18"><path stroke="#e6332e" stroke-linecap="round" d="M66 503L87 503L107 502L127 502L147 502L168 501L188 501L208 501L229 501L249 501L269 501L289 501L310 501L330 501L350 501L370 501L391 501L411 500L431 500L452 499L472 499L492 498L512 497L533 497L553 496L573 495L594 495" fill="none" stroke-width="1.5"></path></g><g class="key-World_19"><path stroke="#fceb8c" stroke-linecap="round" d="M66 400L87 399L107 397L127 395L147 393L168 393L188 394L208 395L229 395L249 394L269 393L289 391L310 390L330 390L350 388L370 387L391 387L411 386L431 384L452 383L472 381L492 380L512 379L533 378L553 377L573 377L594 377" fill="none" stroke-width="1.5"></path></g><g class="key-World_2"><path stroke="#2a939b" stroke-linecap="round" d="M66 493L87 493L107 493L127 493L147 493L168 493L188 494L208 495L229 495L249 496L269 497L289 497L310 498L330 498L350 499L370 500L391 500L411 500L431 501L452 501L472 501L492 501L512 501L533 501L553 501L573 501L594 501" fill="none" stroke-width="1.5"></path></g><g class="key-World_20"><path stroke="#3360a9" stroke-linecap="round" d="M66 523L87 523L107 523L127 523L147 523L168 524L188 524L208 524L229 525L249 525L269 525L289 525L310 525L330 525L350 525L370 525L391 525L411 525L431 525L452 525L472 525L492 526L512 526L533 526L553 526L573 526L594 526" fill="none" stroke-width="1.5"></path></g><g class="key-World_3"><path stroke="#58888f" stroke-linecap="round" d="M66 152L87 147L107 143L127 138L147 132L168 124L188 124L208 124L229 123L249 122L269 119L289 120L310 119L330 119L350 118L370 116L391 116L411 116L431 116L452 116L472 114L492 114L512 113L533 112L553 111L573 109L594 108" fill="none" stroke-width="1.5"></path></g><g class="key-World_4"><path stroke="#7ec7ce" stroke-linecap="round" d="M66 496L87 495L107 494L127 492L147 491L168 491L188 491L208 490L229 490L249 489L269 489L289 488L310 487L330 486L350 485L370 484L391 483L411 482L431 481L452 480L472 479L492 478L512 477L533 476L553 475L573 473L594 472" fill="none" stroke-width="1.5"></path></g><g class="key-World_5"><path stroke="#ce8ebd" stroke-linecap="round" d="M66 436L87 435L107 435L127 434L147 433L168 433L188 433L208 434L229 435L249 435L269 436L289 436L310 436L330 437L350 437L370 437L391 437L411 437L431 437L452 437L472 437L492 437L512 437L533 436L553 436L573 436L594 435" fill="none" stroke-width="1.5"></path></g><g class="key-World_6"><path stroke="#5eb77e" stroke-linecap="round" d="M66 453L87 452L107 450L127 448L147 447L168 447L188 447L208 447L229 446L249 446L269 445L289 444L310 444L330 443L350 443L370 441L391 441L411 439L431 437L452 436L472 434L492 433L512 432L533 432L553 432L573 432L594 432" fill="none" stroke-width="1.5"></path></g><g class="key-World_7"><path stroke="#9ecc8a" stroke-linecap="round" d="M66 493L87 492L107 492L127 492L147 492L168 492L188 492L208 492L229 492L249 492L269 492L289 492L310 492L330 493L350 493L370 493L391 493L411 494L431 494L452 494L472 494L492 494L512 494L533 494L553 494L573 494L594 494" fill="none" stroke-width="1.5"></path></g><g class="key-World_8"><path stroke="#818282" stroke-linecap="round" d="M66 387L87 388L107 388L127 388L147 389L168 391L188 394L208 396L229 398L249 399L269 400L289 400L310 401L330 403L350 404L370 406L391 409L411 410L431 411L452 412L472 413L492 414L512 414L533 414L553 413L573 413L594 413" fill="none" stroke-width="1.5"></path></g><g class="key-World_9"><path stroke="#9ecc8a" stroke-linecap="round" d="M66 311L87 304L107 297L127 290L147 283L168 275L188 272L208 269L229 265L249 261L269 256L289 254L310 252L330 249L350 246L370 242L391 240L411 237L431 235L452 232L472 229L492 226L512 223L533 220L553 217L573 214L594 211" fill="none" stroke-width="1.5"></path></g></g></g></g><g style="fill: #777;" class="SourcesFooter"><g style="fill: #777;" class="clickable"><text font-size="12.60" x="15.0" y="581.6"><tspan x="15" y="581.58">Source: IHME, Global Burden of Disease</tspan></text></g><text font-size="12.60" x="775.4" y="581.6"><tspan x="775.402" y="581.58"><a style="fill: #777;" class="cclogo" href="http://creativecommons.org/licenses/by-sa/4.0/deed.en_US" target="_blank">CC BY-SA</a></tspan></text></g></g></svg>