<svg xmlns="http://www.w3.org/2000/svg" version="1.1" style="font-family:&#x27;Helvetica Neue&#x27;, Helvetica, Arial, sans-serif;font-size:18px;background-color:white;text-rendering:optimizeLegibility;-webkit-font-smoothing:antialiased" width="850" height="600"><g class="ChartTab"><g class="HeaderView"><g opacity="0.8" transform="translate(778, 15) scale(0.27)"><a xmlns:xlink="http://www.w3.org/1999/xlink" xlink:href="https://ourworldindata.org" target="_blank"><g><rect x="0" y="0" fill="#1B2543" width="211.2" height="130.1"/><rect x="0" y="112.2" fill="#E63912" width="211.2" height="17.9"/><g><rect x="1.2" y="12.3" fill="none" width="210.2" height="99.2"/><path fill="#FFFFFF" d="M37.8,32.2c0,12.7-7.7,19.4-17.1,19.4c-9.7,0-16.6-7.5-16.6-18.7c0-11.7,7.3-19.3,17.1-19.3 C31.3,13.7,37.8,21.3,37.8,32.2z M9.2,32.8c0,7.9,4.3,14.9,11.8,14.9c7.5,0,11.8-6.9,11.8-15.3c0-7.3-3.8-14.9-11.8-14.9 C13.1,17.5,9.2,24.8,9.2,32.8z"/><path fill="#FFFFFF" d="M62.7,43.8c0,2.7,0.1,5.1,0.2,7.2h-4.3l-0.3-4.3h-0.1c-1.3,2.1-4,4.9-8.8,4.9c-4.2,0-9.1-2.3-9.1-11.6 V24.6h4.8v14.6c0,5,1.5,8.4,5.9,8.4c3.2,0,5.5-2.2,6.3-4.4c0.3-0.7,0.4-1.6,0.4-2.5V24.6h4.8V43.8z"/><path fill="#FFFFFF" d="M67.3,32.8c0-3.1-0.1-5.8-0.2-8.2h4.2l0.2,5.2h0.2c1.2-3.5,4.1-5.8,7.3-5.8c0.5,0,0.9,0.1,1.4,0.2v4.5 c-0.5-0.1-1-0.2-1.6-0.2c-3.4,0-5.8,2.6-6.5,6.2c-0.1,0.7-0.2,1.4-0.2,2.2V51h-4.8V32.8z"/><path fill="#FFFFFF" d="M95.4,51l-9.4-36.8h5l4.4,18.6c1.1,4.6,2.1,9.2,2.7,12.7h0.1c0.6-3.7,1.8-8,3-12.8l4.9-18.5h5l4.5,18.7 c1,4.4,2,8.7,2.6,12.6h0.1c0.8-4,1.8-8.1,3-12.7l4.9-18.5h4.9L120.6,51h-5L111,31.9c-1.1-4.7-1.9-8.3-2.4-12h-0.1 c-0.7,3.7-1.5,7.3-2.8,12L100.4,51H95.4z"/><path fill="#FFFFFF" d="M154.9,37.6c0,9.8-6.8,14-13.2,14c-7.2,0-12.7-5.2-12.7-13.6c0-8.8,5.8-14,13.1-14 C149.8,24,154.9,29.5,154.9,37.6z M133.9,37.9c0,5.8,3.3,10.1,8,10.1c4.6,0,8-4.3,8-10.3c0-4.5-2.2-10.1-7.9-10.1 C136.3,27.6,133.9,32.8,133.9,37.9z"/><path fill="#FFFFFF" d="M158.2,32.8c0-3.1-0.1-5.8-0.2-8.2h4.2l0.2,5.2h0.2c1.2-3.5,4.1-5.8,7.3-5.8c0.5,0,0.9,0.1,1.4,0.2v4.5 c-0.5-0.1-1-0.2-1.6-0.2c-3.4,0-5.8,2.6-6.5,6.2c-0.1,0.7-0.2,1.4-0.2,2.2V51h-4.8V32.8z"/><path fill="#FFFFFF" d="M173.5,12.3h4.8V51h-4.8V12.3z"/><path fill="#FFFFFF" d="M206.5,12.3v31.9c0,2.3,0.1,5,0.2,6.8h-4.3l-0.2-4.6H202c-1.5,2.9-4.7,5.2-9,5.2 c-6.4,0-11.3-5.4-11.3-13.4c-0.1-8.8,5.4-14.2,11.9-14.2c4,0,6.8,1.9,8,4h0.1V12.3H206.5z M201.7,35.4c0-0.6-0.1-1.4-0.2-2 c-0.7-3.1-3.3-5.6-6.9-5.6c-5,0-7.9,4.4-7.9,10.2c0,5.3,2.6,9.8,7.8,9.8c3.2,0,6.2-2.1,7.1-5.7c0.2-0.7,0.2-1.3,0.2-2.1V35.4z"/><path fill="#FFFFFF" d="M42.8,64c0.1,1.6-1.1,2.9-3.1,2.9c-1.7,0-2.9-1.3-2.9-2.9c0-1.7,1.3-3,3-3C41.7,61,42.8,62.3,42.8,64z M37.4,97.8V71.4h4.8v26.4H37.4z"/><path fill="#FFFFFF" d="M47.5,78.6c0-2.7-0.1-5-0.2-7.1h4.3l0.3,4.4h0.1c1.3-2.5,4.4-5,8.8-5c3.7,0,9.4,2.2,9.4,11.2v15.8h-4.8 V82.6c0-4.3-1.6-7.8-6.1-7.8c-3.2,0-5.6,2.2-6.5,4.9c-0.2,0.6-0.3,1.4-0.3,2.2v15.9h-4.8V78.6z"/><path fill="#FFFFFF" d="M84,61.6c2.9-0.4,6.3-0.8,10.1-0.8c6.8,0,11.7,1.6,14.9,4.6c3.3,3,5.2,7.3,5.2,13.2c0,6-1.9,10.9-5.3,14.3 c-3.4,3.4-9.1,5.3-16.3,5.3c-3.4,0-6.2-0.2-8.6-0.4V61.6z M88.8,94.1c1.2,0.2,3,0.3,4.8,0.3c10.2,0,15.7-5.7,15.7-15.6 c0.1-8.7-4.9-14.2-14.9-14.2c-2.5,0-4.3,0.2-5.6,0.5V94.1z"/><path fill="#FFFFFF" d="M132.1,97.8l-0.4-3.3h-0.2c-1.5,2.1-4.3,3.9-8.1,3.9c-5.4,0-8.1-3.8-8.1-7.6c0-6.4,5.7-9.9,15.9-9.8v-0.5 c0-2.2-0.6-6.1-6-6.1c-2.5,0-5,0.8-6.9,2l-1.1-3.2c2.2-1.4,5.4-2.3,8.7-2.3c8.1,0,10.1,5.5,10.1,10.8v9.9c0,2.3,0.1,4.5,0.4,6.3 H132.1z M131.4,84.4c-5.3-0.1-11.2,0.8-11.2,5.9c0,3.1,2.1,4.6,4.5,4.6c3.4,0,5.6-2.2,6.4-4.4c0.2-0.5,0.3-1,0.3-1.5V84.4z"/><path fill="#FFFFFF" d="M146.6,63.9v7.6h6.9v3.7h-6.9v14.2c0,3.3,0.9,5.1,3.6,5.1c1.3,0,2.2-0.2,2.8-0.3l0.2,3.6 c-0.9,0.4-2.4,0.7-4.3,0.7c-2.2,0-4-0.7-5.2-2c-1.4-1.4-1.9-3.8-1.9-6.9V75.1h-4.1v-3.7h4.1v-6.3L146.6,63.9z"/><path fill="#FFFFFF" d="M171.4,97.8l-0.4-3.3h-0.2c-1.5,2.1-4.3,3.9-8.1,3.9c-5.4,0-8.1-3.8-8.1-7.6c0-6.4,5.7-9.9,15.9-9.8v-0.5 c0-2.2-0.6-6.1-6-6.1c-2.5,0-5,0.8-6.9,2l-1.1-3.2c2.2-1.4,5.4-2.3,8.7-2.3c8.1,0,10.1,5.5,10.1,10.8v9.9c0,2.3,0.1,4.5,0.4,6.3 H171.4z M170.7,84.4c-5.3-0.1-11.2,0.8-11.2,5.9c0,3.1,2.1,4.6,4.5,4.6c3.4,0,5.6-2.2,6.4-4.4c0.2-0.5,0.3-1,0.3-1.5V84.4z"/></g></g></a></g><a href="https://ourworldindata.org/grapher/share-of-people-who-say-they-are-happy-Eurobarometer?country=FRA+GRC+IRL+ITA+PRT+ESP+GBR" target="_blank"><text font-size="23.40" x="15.0" y="33.7" fill="#555"><tspan x="15" y="33.72">Share who say they are &#x27;very satisfied&#x27; or &#x27;fairly satisfied&#x27; with their life</tspan></text></a><text font-size="14.40" x="15.0" y="51.9" fill="#666"><tspan x="15" y="51.919999999999995">The full question asks: &quot;On the whole are you very satisfied, fairly satisfied, not very satisfied or not at all satisfied with</tspan><tspan x="15" y="67.75999999999999">the life you lead?&quot;</tspan></text></g><g class="LineChart"><defs><clipPath id="boundsClip-390"><rect x="42.562" y="0" width="830" height="932.4000000000001"></rect></clipPath></defs><g class="AxisBoxView"><g class="HorizontalAxis"><text x="52.6" y="556.5" fill="#666" text-anchor="middle" font-size="16.2">1973</text><text x="158.5" y="556.5" fill="#666" text-anchor="middle" font-size="16.2">1980</text><text x="310" y="556.5" fill="#666" text-anchor="middle" font-size="16.2">1990</text><text x="461.4" y="556.5" fill="#666" text-anchor="middle" font-size="16.2">2000</text><text x="612.8" y="556.5" fill="#666" text-anchor="middle" font-size="16.2">2010</text><text x="703.6" y="556.5" fill="#666" text-anchor="middle" font-size="16.2">2016</text></g><g class="VerticalAxis"><text x="47.56" y="480.8" fill="#666" dominant-baseline="middle" text-anchor="end" font-size="16.2">40%</text><text x="47.56" y="409.2" fill="#666" dominant-baseline="middle" text-anchor="end" font-size="16.2">50%</text><text x="47.56" y="337.5" fill="#666" dominant-baseline="middle" text-anchor="end" font-size="16.2">60%</text><text x="47.56" y="265.9" fill="#666" dominant-baseline="middle" text-anchor="end" font-size="16.2">70%</text><text x="47.56" y="194.3" fill="#666" dominant-baseline="middle" text-anchor="end" font-size="16.2">80%</text><text x="47.56" y="122.7" fill="#666" dominant-baseline="middle" text-anchor="end" font-size="16.2">90%</text></g><g class="AxisGridLines"><line x1="52.56" y1="480.8" x2="703.61" y2="480.8" stroke="#ddd" stroke-dasharray="3,2"></line><line x1="52.56" y1="409.2" x2="703.61" y2="409.2" stroke="#ddd" stroke-dasharray="3,2"></line><line x1="52.56" y1="337.5" x2="703.61" y2="337.5" stroke="#ddd" stroke-dasharray="3,2"></line><line x1="52.56" y1="265.9" x2="703.61" y2="265.9" stroke="#ddd" stroke-dasharray="3,2"></line><line x1="52.56" y1="194.3" x2="703.61" y2="194.3" stroke="#ddd" stroke-dasharray="3,2"></line><line x1="52.56" y1="122.7" x2="703.61" y2="122.7" stroke="#ddd" stroke-dasharray="3,2"></line></g></g><g clip-path="url(#boundsClip-390)"><g class="HeightedLegend clickable"><g class="legendMark"><g class="indicator"><line x1="708.61" y1="90.3" x2="731.11" y2="90.3" stroke="#666" stroke-width="0.5"></line><line x1="731.11" y1="90.3" x2="731.11" y2="90.3" stroke="#666" stroke-width="0.5"></line><line x1="731.11" y1="90.3" x2="733.61" y2="90.3" stroke="#666" stroke-width="0.5"></line></g><rect x="703.61" y="83.55" width="76.445" height="13.5" fill="#fff" opacity="0"></rect><text font-size="13.50" x="738.6" y="94.3" fill="#e6332e"><tspan x="738.61" y="94.35">Ireland</tspan></text></g><g class="legendMark"><g class="indicator"><line x1="708.61" y1="100.8" x2="721.11" y2="100.8" stroke="#666" stroke-width="0.5"></line><line x1="721.11" y1="100.8" x2="721.11" y2="105.8" stroke="#666" stroke-width="0.5"></line><line x1="721.11" y1="105.8" x2="733.61" y2="105.8" stroke="#666" stroke-width="0.5"></line></g><rect x="703.61" y="99.05" width="131.39" height="13.5" fill="#fff" opacity="0"></rect><text font-size="13.50" x="738.6" y="109.8" fill="#3360a9"><tspan x="738.61" y="109.85">United Kingdom</tspan></text></g><g class="legendMark"><g class="indicator"><line x1="708.61" y1="165.2" x2="721.11" y2="165.2" stroke="#666" stroke-width="0.5"></line><line x1="721.11" y1="165.2" x2="721.11" y2="165.2" stroke="#666" stroke-width="0.5"></line><line x1="721.11" y1="165.2" x2="733.61" y2="165.2" stroke="#666" stroke-width="0.5"></line></g><rect x="703.61" y="158.45" width="77.12" height="13.5" fill="#fff" opacity="0"></rect><text font-size="13.50" x="738.6" y="169.3" fill="#7ec7ce"><tspan x="738.61" y="169.25">France</tspan></text></g><g class="legendMark"><g class="indicator"><line x1="708.61" y1="207.7" x2="721.11" y2="207.7" stroke="#666" stroke-width="0.5"></line><line x1="721.11" y1="207.7" x2="721.11" y2="207.7" stroke="#666" stroke-width="0.5"></line><line x1="721.11" y1="207.7" x2="733.61" y2="207.7" stroke="#666" stroke-width="0.5"></line></g><rect x="703.61" y="200.95" width="69.695" height="13.5" fill="#fff" opacity="0"></rect><text font-size="13.50" x="738.6" y="211.8" fill="#f6a324"><tspan x="738.61" y="211.75">Spain</tspan></text></g><g class="legendMark"><g class="indicator"><line x1="708.61" y1="300.2" x2="731.11" y2="300.2" stroke="#666" stroke-width="0.5"></line><line x1="731.11" y1="300.2" x2="731.11" y2="300.2" stroke="#666" stroke-width="0.5"></line><line x1="731.11" y1="300.2" x2="733.61" y2="300.2" stroke="#666" stroke-width="0.5"></line></g><rect x="703.61" y="293.45" width="59.84" height="13.5" fill="#fff" opacity="0"></rect><text font-size="13.50" x="738.6" y="304.3" fill="#34983f"><tspan x="738.61" y="304.25">Italy</tspan></text></g><g class="legendMark"><g class="indicator"><line x1="708.61" y1="304.6" x2="721.11" y2="304.6" stroke="#666" stroke-width="0.5"></line><line x1="721.11" y1="304.6" x2="721.11" y2="315.7" stroke="#666" stroke-width="0.5"></line><line x1="721.11" y1="315.7" x2="733.61" y2="315.7" stroke="#666" stroke-width="0.5"></line></g><rect x="703.61" y="308.95" width="85.49000000000001" height="13.5" fill="#fff" opacity="0"></rect><text font-size="13.50" x="738.6" y="319.8" fill="#ca2628"><tspan x="738.61" y="319.75">Portugal</tspan></text></g><g class="legendMark"><g class="indicator"><line x1="708.61" y1="495.4" x2="721.11" y2="495.4" stroke="#666" stroke-width="0.5"></line><line x1="721.11" y1="495.4" x2="721.11" y2="495.4" stroke="#666" stroke-width="0.5"></line><line x1="721.11" y1="495.4" x2="733.61" y2="495.4" stroke="#666" stroke-width="0.5"></line></g><rect x="703.61" y="488.65" width="79.415" height="13.5" fill="#fff" opacity="0"></rect><text font-size="13.50" x="738.6" y="499.4" fill="#3360a9"><tspan x="738.61" y="499.45">Greece</tspan></text></g></g><g class="Lines"><rect x="53" y="90" width="651" height="445" fill="rgba(255,255,255,0)" opacity="0"></rect><g class="key-France_0"><path stroke="#7ec7ce" stroke-linecap="round" d="M53 216L83 238L98 258L113 266L128 263L143 270L159 258L174 266L189 221L204 241L219 254L234 261L249 249L265 244L280 287L295 218L310 216L325 215L340 248L355 260L371 233L401 200L416 239L431 250L446 195L461 193L477 201L492 204L507 227L522 180L537 177L552 159L567 170L583 201L598 169L613 173L628 194L643 158L658 170L673 164L689 155L704 165" fill="none" stroke-width="1.5"></path><g fill="#7ec7ce"><circle cx="53" cy="216" r="2"></circle><circle cx="83" cy="238" r="2"></circle><circle cx="98" cy="258" r="2"></circle><circle cx="113" cy="266" r="2"></circle><circle cx="128" cy="263" r="2"></circle><circle cx="143" cy="270" r="2"></circle><circle cx="159" cy="258" r="2"></circle><circle cx="174" cy="266" r="2"></circle><circle cx="189" cy="221" r="2"></circle><circle cx="204" cy="241" r="2"></circle><circle cx="219" cy="254" r="2"></circle><circle cx="234" cy="261" r="2"></circle><circle cx="249" cy="249" r="2"></circle><circle cx="265" cy="244" r="2"></circle><circle cx="280" cy="287" r="2"></circle><circle cx="295" cy="218" r="2"></circle><circle cx="310" cy="216" r="2"></circle><circle cx="325" cy="215" r="2"></circle><circle cx="340" cy="248" r="2"></circle><circle cx="355" cy="260" r="2"></circle><circle cx="371" cy="233" r="2"></circle><circle cx="401" cy="200" r="2"></circle><circle cx="416" cy="239" r="2"></circle><circle cx="431" cy="250" r="2"></circle><circle cx="446" cy="195" r="2"></circle><circle cx="461" cy="193" r="2"></circle><circle cx="477" cy="201" r="2"></circle><circle cx="492" cy="204" r="2"></circle><circle cx="507" cy="227" r="2"></circle><circle cx="522" cy="180" r="2"></circle><circle cx="537" cy="177" r="2"></circle><circle cx="552" cy="159" r="2"></circle><circle cx="567" cy="170" r="2"></circle><circle cx="583" cy="201" r="2"></circle><circle cx="598" cy="169" r="2"></circle><circle cx="613" cy="173" r="2"></circle><circle cx="628" cy="194" r="2"></circle><circle cx="643" cy="158" r="2"></circle><circle cx="658" cy="170" r="2"></circle><circle cx="673" cy="164" r="2"></circle><circle cx="689" cy="155" r="2"></circle><circle cx="704" cy="165" r="2"></circle></g></g><g class="key-Greece_0"><path stroke="#3360a9" stroke-linecap="round" d="M174 358L189 330L204 309L219 310L234 325L249 285L265 332L280 328L295 289L310 312L325 384L340 374L355 412L371 392L401 245L416 316L431 372L446 320L461 340L477 348L492 336L507 315L522 295L537 304L552 278L567 285L583 344L598 455L613 440L628 472L643 535L658 500L673 463L689 472L704 495" fill="none" stroke-width="1.5"></path><g fill="#3360a9"><circle cx="174" cy="358" r="2"></circle><circle cx="189" cy="330" r="2"></circle><circle cx="204" cy="309" r="2"></circle><circle cx="219" cy="310" r="2"></circle><circle cx="234" cy="325" r="2"></circle><circle cx="249" cy="285" r="2"></circle><circle cx="265" cy="332" r="2"></circle><circle cx="280" cy="328" r="2"></circle><circle cx="295" cy="289" r="2"></circle><circle cx="310" cy="312" r="2"></circle><circle cx="325" cy="384" r="2"></circle><circle cx="340" cy="374" r="2"></circle><circle cx="355" cy="412" r="2"></circle><circle cx="371" cy="392" r="2"></circle><circle cx="401" cy="245" r="2"></circle><circle cx="416" cy="316" r="2"></circle><circle cx="431" cy="372" r="2"></circle><circle cx="446" cy="320" r="2"></circle><circle cx="461" cy="340" r="2"></circle><circle cx="477" cy="348" r="2"></circle><circle cx="492" cy="336" r="2"></circle><circle cx="507" cy="315" r="2"></circle><circle cx="522" cy="295" r="2"></circle><circle cx="537" cy="304" r="2"></circle><circle cx="552" cy="278" r="2"></circle><circle cx="567" cy="285" r="2"></circle><circle cx="583" cy="344" r="2"></circle><circle cx="598" cy="455" r="2"></circle><circle cx="613" cy="440" r="2"></circle><circle cx="628" cy="472" r="2"></circle><circle cx="643" cy="535" r="2"></circle><circle cx="658" cy="500" r="2"></circle><circle cx="673" cy="463" r="2"></circle><circle cx="689" cy="472" r="2"></circle><circle cx="704" cy="495" r="2"></circle></g></g><g class="key-Ireland_0"><path stroke="#e6332e" stroke-linecap="round" d="M53 108L83 132L98 140L113 134L128 132L143 170L159 150L174 179L189 152L204 181L219 167L234 186L249 185L265 219L280 236L295 178L310 146L325 146L340 160L355 161L371 151L401 120L416 115L431 130L446 142L461 142L477 125L492 136L507 154L522 104L537 119L552 120L567 125L583 139L598 133L613 155L628 146L643 169L658 180L673 116L689 103L704 90" fill="none" stroke-width="1.5"></path><g fill="#e6332e"><circle cx="53" cy="108" r="2"></circle><circle cx="83" cy="132" r="2"></circle><circle cx="98" cy="140" r="2"></circle><circle cx="113" cy="134" r="2"></circle><circle cx="128" cy="132" r="2"></circle><circle cx="143" cy="170" r="2"></circle><circle cx="159" cy="150" r="2"></circle><circle cx="174" cy="179" r="2"></circle><circle cx="189" cy="152" r="2"></circle><circle cx="204" cy="181" r="2"></circle><circle cx="219" cy="167" r="2"></circle><circle cx="234" cy="186" r="2"></circle><circle cx="249" cy="185" r="2"></circle><circle cx="265" cy="219" r="2"></circle><circle cx="280" cy="236" r="2"></circle><circle cx="295" cy="178" r="2"></circle><circle cx="310" cy="146" r="2"></circle><circle cx="325" cy="146" r="2"></circle><circle cx="340" cy="160" r="2"></circle><circle cx="355" cy="161" r="2"></circle><circle cx="371" cy="151" r="2"></circle><circle cx="401" cy="120" r="2"></circle><circle cx="416" cy="115" r="2"></circle><circle cx="431" cy="130" r="2"></circle><circle cx="446" cy="142" r="2"></circle><circle cx="461" cy="142" r="2"></circle><circle cx="477" cy="125" r="2"></circle><circle cx="492" cy="136" r="2"></circle><circle cx="507" cy="154" r="2"></circle><circle cx="522" cy="104" r="2"></circle><circle cx="537" cy="119" r="2"></circle><circle cx="552" cy="120" r="2"></circle><circle cx="567" cy="125" r="2"></circle><circle cx="583" cy="139" r="2"></circle><circle cx="598" cy="133" r="2"></circle><circle cx="613" cy="155" r="2"></circle><circle cx="628" cy="146" r="2"></circle><circle cx="643" cy="169" r="2"></circle><circle cx="658" cy="180" r="2"></circle><circle cx="673" cy="116" r="2"></circle><circle cx="689" cy="103" r="2"></circle><circle cx="704" cy="90" r="2"></circle></g></g><g class="key-Italy_0"><path stroke="#34983f" stroke-linecap="round" d="M53 302L83 362L98 365L113 332L128 328L143 347L159 308L174 288L189 288L204 299L219 290L234 306L249 263L265 298L280 269L295 214L310 230L325 199L340 230L355 217L371 219L401 195L416 241L431 242L446 215L461 237L477 195L492 194L507 223L522 225L537 232L552 222L567 246L583 311L598 265L613 258L628 273L643 343L658 358L673 297L689 304L704 300" fill="none" stroke-width="1.5"></path><g fill="#34983f"><circle cx="53" cy="302" r="2"></circle><circle cx="83" cy="362" r="2"></circle><circle cx="98" cy="365" r="2"></circle><circle cx="113" cy="332" r="2"></circle><circle cx="128" cy="328" r="2"></circle><circle cx="143" cy="347" r="2"></circle><circle cx="159" cy="308" r="2"></circle><circle cx="174" cy="288" r="2"></circle><circle cx="189" cy="288" r="2"></circle><circle cx="204" cy="299" r="2"></circle><circle cx="219" cy="290" r="2"></circle><circle cx="234" cy="306" r="2"></circle><circle cx="249" cy="263" r="2"></circle><circle cx="265" cy="298" r="2"></circle><circle cx="280" cy="269" r="2"></circle><circle cx="295" cy="214" r="2"></circle><circle cx="310" cy="230" r="2"></circle><circle cx="325" cy="199" r="2"></circle><circle cx="340" cy="230" r="2"></circle><circle cx="355" cy="217" r="2"></circle><circle cx="371" cy="219" r="2"></circle><circle cx="401" cy="195" r="2"></circle><circle cx="416" cy="241" r="2"></circle><circle cx="431" cy="242" r="2"></circle><circle cx="446" cy="215" r="2"></circle><circle cx="461" cy="237" r="2"></circle><circle cx="477" cy="195" r="2"></circle><circle cx="492" cy="194" r="2"></circle><circle cx="507" cy="223" r="2"></circle><circle cx="522" cy="225" r="2"></circle><circle cx="537" cy="232" r="2"></circle><circle cx="552" cy="222" r="2"></circle><circle cx="567" cy="246" r="2"></circle><circle cx="583" cy="311" r="2"></circle><circle cx="598" cy="265" r="2"></circle><circle cx="613" cy="258" r="2"></circle><circle cx="628" cy="273" r="2"></circle><circle cx="643" cy="343" r="2"></circle><circle cx="658" cy="358" r="2"></circle><circle cx="673" cy="297" r="2"></circle><circle cx="689" cy="304" r="2"></circle><circle cx="704" cy="300" r="2"></circle></g></g><g class="key-Portugal_0"><path stroke="#ca2628" stroke-linecap="round" d="M234 375L249 302L265 266L280 339L295 263L310 249L325 248L340 235L355 291L371 266L401 183L416 318L431 342L446 288L461 298L477 290L492 322L507 367L522 343L537 350L552 345L567 347L583 414L598 400L613 447L628 440L643 532L658 509L673 398L689 375L704 305" fill="none" stroke-width="1.5"></path><g fill="#ca2628"><circle cx="234" cy="375" r="2"></circle><circle cx="249" cy="302" r="2"></circle><circle cx="265" cy="266" r="2"></circle><circle cx="280" cy="339" r="2"></circle><circle cx="295" cy="263" r="2"></circle><circle cx="310" cy="249" r="2"></circle><circle cx="325" cy="248" r="2"></circle><circle cx="340" cy="235" r="2"></circle><circle cx="355" cy="291" r="2"></circle><circle cx="371" cy="266" r="2"></circle><circle cx="401" cy="183" r="2"></circle><circle cx="416" cy="318" r="2"></circle><circle cx="431" cy="342" r="2"></circle><circle cx="446" cy="288" r="2"></circle><circle cx="461" cy="298" r="2"></circle><circle cx="477" cy="290" r="2"></circle><circle cx="492" cy="322" r="2"></circle><circle cx="507" cy="367" r="2"></circle><circle cx="522" cy="343" r="2"></circle><circle cx="537" cy="350" r="2"></circle><circle cx="552" cy="345" r="2"></circle><circle cx="567" cy="347" r="2"></circle><circle cx="583" cy="414" r="2"></circle><circle cx="598" cy="400" r="2"></circle><circle cx="613" cy="447" r="2"></circle><circle cx="628" cy="440" r="2"></circle><circle cx="643" cy="532" r="2"></circle><circle cx="658" cy="509" r="2"></circle><circle cx="673" cy="398" r="2"></circle><circle cx="689" cy="375" r="2"></circle><circle cx="704" cy="305" r="2"></circle></g></g><g class="key-Spain_0"><path stroke="#f6a324" stroke-linecap="round" d="M234 266L249 247L265 246L280 284L295 209L310 219L325 201L340 226L355 255L371 258L401 193L416 213L431 249L446 170L461 180L477 161L492 177L507 172L522 148L537 161L552 130L567 144L583 166L598 228L613 217L628 233L643 253L658 269L673 247L689 215L704 208" fill="none" stroke-width="1.5"></path><g fill="#f6a324"><circle cx="234" cy="266" r="2"></circle><circle cx="249" cy="247" r="2"></circle><circle cx="265" cy="246" r="2"></circle><circle cx="280" cy="284" r="2"></circle><circle cx="295" cy="209" r="2"></circle><circle cx="310" cy="219" r="2"></circle><circle cx="325" cy="201" r="2"></circle><circle cx="340" cy="226" r="2"></circle><circle cx="355" cy="255" r="2"></circle><circle cx="371" cy="258" r="2"></circle><circle cx="401" cy="193" r="2"></circle><circle cx="416" cy="213" r="2"></circle><circle cx="431" cy="249" r="2"></circle><circle cx="446" cy="170" r="2"></circle><circle cx="461" cy="180" r="2"></circle><circle cx="477" cy="161" r="2"></circle><circle cx="492" cy="177" r="2"></circle><circle cx="507" cy="172" r="2"></circle><circle cx="522" cy="148" r="2"></circle><circle cx="537" cy="161" r="2"></circle><circle cx="552" cy="130" r="2"></circle><circle cx="567" cy="144" r="2"></circle><circle cx="583" cy="166" r="2"></circle><circle cx="598" cy="228" r="2"></circle><circle cx="613" cy="217" r="2"></circle><circle cx="628" cy="233" r="2"></circle><circle cx="643" cy="253" r="2"></circle><circle cx="658" cy="269" r="2"></circle><circle cx="673" cy="247" r="2"></circle><circle cx="689" cy="215" r="2"></circle><circle cx="704" cy="208" r="2"></circle></g></g><g class="key-United-Kingdom_0"><path stroke="#3360a9" stroke-linecap="round" d="M53 159L83 166L98 167L113 170L128 154L143 155L159 148L174 169L189 150L204 164L219 155L234 153L249 156L265 153L280 197L295 135L310 154L325 151L340 162L355 150L371 144L401 149L416 152L431 156L446 172L461 145L477 138L492 146L507 141L522 119L537 134L552 136L567 127L583 145L598 131L613 122L628 126L643 115L658 124L673 101L689 104L704 101" fill="none" stroke-width="1.5"></path><g fill="#3360a9"><circle cx="53" cy="159" r="2"></circle><circle cx="83" cy="166" r="2"></circle><circle cx="98" cy="167" r="2"></circle><circle cx="113" cy="170" r="2"></circle><circle cx="128" cy="154" r="2"></circle><circle cx="143" cy="155" r="2"></circle><circle cx="159" cy="148" r="2"></circle><circle cx="174" cy="169" r="2"></circle><circle cx="189" cy="150" r="2"></circle><circle cx="204" cy="164" r="2"></circle><circle cx="219" cy="155" r="2"></circle><circle cx="234" cy="153" r="2"></circle><circle cx="249" cy="156" r="2"></circle><circle cx="265" cy="153" r="2"></circle><circle cx="280" cy="197" r="2"></circle><circle cx="295" cy="135" r="2"></circle><circle cx="310" cy="154" r="2"></circle><circle cx="325" cy="151" r="2"></circle><circle cx="340" cy="162" r="2"></circle><circle cx="355" cy="150" r="2"></circle><circle cx="371" cy="144" r="2"></circle><circle cx="401" cy="149" r="2"></circle><circle cx="416" cy="152" r="2"></circle><circle cx="431" cy="156" r="2"></circle><circle cx="446" cy="172" r="2"></circle><circle cx="461" cy="145" r="2"></circle><circle cx="477" cy="138" r="2"></circle><circle cx="492" cy="146" r="2"></circle><circle cx="507" cy="141" r="2"></circle><circle cx="522" cy="119" r="2"></circle><circle cx="537" cy="134" r="2"></circle><circle cx="552" cy="136" r="2"></circle><circle cx="567" cy="127" r="2"></circle><circle cx="583" cy="145" r="2"></circle><circle cx="598" cy="131" r="2"></circle><circle cx="613" cy="122" r="2"></circle><circle cx="628" cy="126" r="2"></circle><circle cx="643" cy="115" r="2"></circle><circle cx="658" cy="124" r="2"></circle><circle cx="673" cy="101" r="2"></circle><circle cx="689" cy="104" r="2"></circle><circle cx="704" cy="101" r="2"></circle></g></g></g></g></g><g class="SourcesFooter" style="fill:#777"><g class="clickable" style="fill:#777"><text font-size="12.60" x="15.0" y="581.6"><tspan x="15" y="581.58">Source: Eurobarometer (2017)</tspan></text></g><text font-size="12.60" x="474.8" y="581.6"><tspan x="474.766" y="581.58"><a target='_blank' style='fill: #777;' href='https://ourworldindata.org/happiness-and-life-satisfaction'>OurWorldInData.org/happiness-and-life-satisfaction</a> • <a style="fill: #777;" class="cclogo" href="http://creativecommons.org/licenses/by-sa/4.0/deed.en_US" target="_blank">CC BY-SA</a></tspan></text></g></g></svg>