<svg xmlns="http://www.w3.org/2000/svg" version="1.1" style="font-family:&#x27;Helvetica Neue&#x27;, Helvetica, Arial, sans-serif;font-size:18px;background-color:white;text-rendering:optimizeLegibility;-webkit-font-smoothing:antialiased" width="850" height="600"><g class="ChartTab"><g class="HeaderView"><g opacity="0.8" transform="translate(778, 15) scale(0.27)"><a xmlns:xlink="http://www.w3.org/1999/xlink" xlink:href="https://ourworldindata.org" target="_blank"><g><rect x="0" y="0" fill="#1B2543" width="211.2" height="130.1"/><rect x="0" y="112.2" fill="#E63912" width="211.2" height="17.9"/><g><rect x="1.2" y="12.3" fill="none" width="210.2" height="99.2"/><path fill="#FFFFFF" d="M37.8,32.2c0,12.7-7.7,19.4-17.1,19.4c-9.7,0-16.6-7.5-16.6-18.7c0-11.7,7.3-19.3,17.1-19.3 C31.3,13.7,37.8,21.3,37.8,32.2z M9.2,32.8c0,7.9,4.3,14.9,11.8,14.9c7.5,0,11.8-6.9,11.8-15.3c0-7.3-3.8-14.9-11.8-14.9 C13.1,17.5,9.2,24.8,9.2,32.8z"/><path fill="#FFFFFF" d="M62.7,43.8c0,2.7,0.1,5.1,0.2,7.2h-4.3l-0.3-4.3h-0.1c-1.3,2.1-4,4.9-8.8,4.9c-4.2,0-9.1-2.3-9.1-11.6 V24.6h4.8v14.6c0,5,1.5,8.4,5.9,8.4c3.2,0,5.5-2.2,6.3-4.4c0.3-0.7,0.4-1.6,0.4-2.5V24.6h4.8V43.8z"/><path fill="#FFFFFF" d="M67.3,32.8c0-3.1-0.1-5.8-0.2-8.2h4.2l0.2,5.2h0.2c1.2-3.5,4.1-5.8,7.3-5.8c0.5,0,0.9,0.1,1.4,0.2v4.5 c-0.5-0.1-1-0.2-1.6-0.2c-3.4,0-5.8,2.6-6.5,6.2c-0.1,0.7-0.2,1.4-0.2,2.2V51h-4.8V32.8z"/><path fill="#FFFFFF" d="M95.4,51l-9.4-36.8h5l4.4,18.6c1.1,4.6,2.1,9.2,2.7,12.7h0.1c0.6-3.7,1.8-8,3-12.8l4.9-18.5h5l4.5,18.7 c1,4.4,2,8.7,2.6,12.6h0.1c0.8-4,1.8-8.1,3-12.7l4.9-18.5h4.9L120.6,51h-5L111,31.9c-1.1-4.7-1.9-8.3-2.4-12h-0.1 c-0.7,3.7-1.5,7.3-2.8,12L100.4,51H95.4z"/><path fill="#FFFFFF" d="M154.9,37.6c0,9.8-6.8,14-13.2,14c-7.2,0-12.7-5.2-12.7-13.6c0-8.8,5.8-14,13.1-14 C149.8,24,154.9,29.5,154.9,37.6z M133.9,37.9c0,5.8,3.3,10.1,8,10.1c4.6,0,8-4.3,8-10.3c0-4.5-2.2-10.1-7.9-10.1 C136.3,27.6,133.9,32.8,133.9,37.9z"/><path fill="#FFFFFF" d="M158.2,32.8c0-3.1-0.1-5.8-0.2-8.2h4.2l0.2,5.2h0.2c1.2-3.5,4.1-5.8,7.3-5.8c0.5,0,0.9,0.1,1.4,0.2v4.5 c-0.5-0.1-1-0.2-1.6-0.2c-3.4,0-5.8,2.6-6.5,6.2c-0.1,0.7-0.2,1.4-0.2,2.2V51h-4.8V32.8z"/><path fill="#FFFFFF" d="M173.5,12.3h4.8V51h-4.8V12.3z"/><path fill="#FFFFFF" d="M206.5,12.3v31.9c0,2.3,0.1,5,0.2,6.8h-4.3l-0.2-4.6H202c-1.5,2.9-4.7,5.2-9,5.2 c-6.4,0-11.3-5.4-11.3-13.4c-0.1-8.8,5.4-14.2,11.9-14.2c4,0,6.8,1.9,8,4h0.1V12.3H206.5z M201.7,35.4c0-0.6-0.1-1.4-0.2-2 c-0.7-3.1-3.3-5.6-6.9-5.6c-5,0-7.9,4.4-7.9,10.2c0,5.3,2.6,9.8,7.8,9.8c3.2,0,6.2-2.1,7.1-5.7c0.2-0.7,0.2-1.3,0.2-2.1V35.4z"/><path fill="#FFFFFF" d="M42.8,64c0.1,1.6-1.1,2.9-3.1,2.9c-1.7,0-2.9-1.3-2.9-2.9c0-1.7,1.3-3,3-3C41.7,61,42.8,62.3,42.8,64z M37.4,97.8V71.4h4.8v26.4H37.4z"/><path fill="#FFFFFF" d="M47.5,78.6c0-2.7-0.1-5-0.2-7.1h4.3l0.3,4.4h0.1c1.3-2.5,4.4-5,8.8-5c3.7,0,9.4,2.2,9.4,11.2v15.8h-4.8 V82.6c0-4.3-1.6-7.8-6.1-7.8c-3.2,0-5.6,2.2-6.5,4.9c-0.2,0.6-0.3,1.4-0.3,2.2v15.9h-4.8V78.6z"/><path fill="#FFFFFF" d="M84,61.6c2.9-0.4,6.3-0.8,10.1-0.8c6.8,0,11.7,1.6,14.9,4.6c3.3,3,5.2,7.3,5.2,13.2c0,6-1.9,10.9-5.3,14.3 c-3.4,3.4-9.1,5.3-16.3,5.3c-3.4,0-6.2-0.2-8.6-0.4V61.6z M88.8,94.1c1.2,0.2,3,0.3,4.8,0.3c10.2,0,15.7-5.7,15.7-15.6 c0.1-8.7-4.9-14.2-14.9-14.2c-2.5,0-4.3,0.2-5.6,0.5V94.1z"/><path fill="#FFFFFF" d="M132.1,97.8l-0.4-3.3h-0.2c-1.5,2.1-4.3,3.9-8.1,3.9c-5.4,0-8.1-3.8-8.1-7.6c0-6.4,5.7-9.9,15.9-9.8v-0.5 c0-2.2-0.6-6.1-6-6.1c-2.5,0-5,0.8-6.9,2l-1.1-3.2c2.2-1.4,5.4-2.3,8.7-2.3c8.1,0,10.1,5.5,10.1,10.8v9.9c0,2.3,0.1,4.5,0.4,6.3 H132.1z M131.4,84.4c-5.3-0.1-11.2,0.8-11.2,5.9c0,3.1,2.1,4.6,4.5,4.6c3.4,0,5.6-2.2,6.4-4.4c0.2-0.5,0.3-1,0.3-1.5V84.4z"/><path fill="#FFFFFF" d="M146.6,63.9v7.6h6.9v3.7h-6.9v14.2c0,3.3,0.9,5.1,3.6,5.1c1.3,0,2.2-0.2,2.8-0.3l0.2,3.6 c-0.9,0.4-2.4,0.7-4.3,0.7c-2.2,0-4-0.7-5.2-2c-1.4-1.4-1.9-3.8-1.9-6.9V75.1h-4.1v-3.7h4.1v-6.3L146.6,63.9z"/><path fill="#FFFFFF" d="M171.4,97.8l-0.4-3.3h-0.2c-1.5,2.1-4.3,3.9-8.1,3.9c-5.4,0-8.1-3.8-8.1-7.6c0-6.4,5.7-9.9,15.9-9.8v-0.5 c0-2.2-0.6-6.1-6-6.1c-2.5,0-5,0.8-6.9,2l-1.1-3.2c2.2-1.4,5.4-2.3,8.7-2.3c8.1,0,10.1,5.5,10.1,10.8v9.9c0,2.3,0.1,4.5,0.4,6.3 H171.4z M170.7,84.4c-5.3-0.1-11.2,0.8-11.2,5.9c0,3.1,2.1,4.6,4.5,4.6c3.4,0,5.6-2.2,6.4-4.4c0.2-0.5,0.3-1,0.3-1.5V84.4z"/></g></g></a></g><a href="https://ourworldindata.org/grapher/share-of-cumulative-co2" target="_blank"><text font-size="25.20" x="15.0" y="35.2" fill="#555"><tspan x="15" y="35.160000000000004">Share of global cumulative CO₂ emissions</tspan></text></a><text font-size="14.40" x="15.0" y="53.7" fill="#666"><tspan x="15" y="53.72">Each country or region&#x27;s share of cumulative global carbon dioxide (CO₂) emissions. Cumulative emissions are</tspan><tspan x="15" y="69.56">calculated as the sum of annuals emissions from 1751 to a given year.</tspan></text></g><g class="LineChart"><defs><clipPath id="boundsClip-295"><rect x="42.562" y="0" width="830" height="928.8"></rect></clipPath></defs><g class="AxisBoxView"><g class="HorizontalAxis"><text x="52.6" y="556.5" fill="#666" text-anchor="middle" font-size="16.2">1751</text><text x="173.4" y="556.5" fill="#666" text-anchor="middle" font-size="16.2">1800</text><text x="296.7" y="556.5" fill="#666" text-anchor="middle" font-size="16.2">1850</text><text x="420" y="556.5" fill="#666" text-anchor="middle" font-size="16.2">1900</text><text x="543.3" y="556.5" fill="#666" text-anchor="middle" font-size="16.2">1950</text><text x="703.6" y="556.5" fill="#666" text-anchor="middle" font-size="16.2">2015</text></g><g class="VerticalAxis"><text x="47.56" y="535.3" fill="#666" dominant-baseline="middle" text-anchor="end" font-size="16.2">0%</text><text x="47.56" y="445" fill="#666" dominant-baseline="middle" text-anchor="end" font-size="16.2">20%</text><text x="47.56" y="354.8" fill="#666" dominant-baseline="middle" text-anchor="end" font-size="16.2">40%</text><text x="47.56" y="264.5" fill="#666" dominant-baseline="middle" text-anchor="end" font-size="16.2">60%</text><text x="47.56" y="174.2" fill="#666" dominant-baseline="middle" text-anchor="end" font-size="16.2">80%</text></g><g class="AxisGridLines"><line x1="52.56" y1="535.3" x2="703.61" y2="535.3" stroke="#ccc"></line><line x1="52.56" y1="445" x2="703.61" y2="445" stroke="#ddd" stroke-dasharray="3,2"></line><line x1="52.56" y1="354.8" x2="703.61" y2="354.8" stroke="#ddd" stroke-dasharray="3,2"></line><line x1="52.56" y1="264.5" x2="703.61" y2="264.5" stroke="#ddd" stroke-dasharray="3,2"></line><line x1="52.56" y1="174.2" x2="703.61" y2="174.2" stroke="#ddd" stroke-dasharray="3,2"></line></g></g><g clip-path="url(#boundsClip-295)"><g class="HeightedLegend clickable"><g class="legendMark"><g class="indicator"><line x1="708.61" y1="419.1" x2="721.11" y2="419.1" stroke="#666" stroke-width="0.5"></line><line x1="721.11" y1="419.1" x2="721.11" y2="419.1" stroke="#666" stroke-width="0.5"></line><line x1="721.11" y1="419.1" x2="733.61" y2="419.1" stroke="#666" stroke-width="0.5"></line></g><rect x="703.61" y="412.35" width="116.405" height="13.5" fill="#fff" opacity="0"></rect><text font-size="13.50" x="738.6" y="423.2" fill="#a652ba"><tspan x="738.61" y="423.15000000000003">United States</tspan></text></g><g class="legendMark"><g class="indicator"><line x1="708.61" y1="436.7" x2="721.11" y2="436.7" stroke="#666" stroke-width="0.5"></line><line x1="721.11" y1="436.7" x2="721.11" y2="436.7" stroke="#666" stroke-width="0.5"></line><line x1="721.11" y1="436.7" x2="733.61" y2="436.7" stroke="#666" stroke-width="0.5"></line></g><rect x="703.61" y="429.95" width="73.34" height="13.5" fill="#fff" opacity="0"></rect><text font-size="13.50" x="738.6" y="440.8" fill="#f6a324"><tspan x="738.61" y="440.75">EU-28</tspan></text></g><g class="legendMark"><g class="indicator"><line x1="708.61" y1="480.1" x2="721.11" y2="480.1" stroke="#666" stroke-width="0.5"></line><line x1="721.11" y1="480.1" x2="721.11" y2="480.1" stroke="#666" stroke-width="0.5"></line><line x1="721.11" y1="480.1" x2="733.61" y2="480.1" stroke="#666" stroke-width="0.5"></line></g><rect x="703.61" y="473.35" width="70.37" height="13.5" fill="#fff" opacity="0"></rect><text font-size="13.50" x="738.6" y="484.2" fill="#34983f"><tspan x="738.61" y="484.15000000000003">China</tspan></text></g><g class="legendMark"><g class="indicator"><line x1="708.61" y1="512.5" x2="731.11" y2="512.5" stroke="#666" stroke-width="0.5"></line><line x1="731.11" y1="512.5" x2="731.11" y2="512.5" stroke="#666" stroke-width="0.5"></line><line x1="731.11" y1="512.5" x2="733.61" y2="512.5" stroke="#666" stroke-width="0.5"></line></g><rect x="703.61" y="505.75" width="131.39" height="13.5" fill="#fff" opacity="0"></rect><text font-size="13.50" x="738.6" y="516.5" fill="#ca2628"><tspan x="738.61" y="516.55">United Kingdom</tspan></text></g><g class="legendMark"><g class="indicator"><line x1="708.61" y1="522.2" x2="721.11" y2="522.2" stroke="#666" stroke-width="0.5"></line><line x1="721.11" y1="522.2" x2="721.11" y2="528" stroke="#666" stroke-width="0.5"></line><line x1="721.11" y1="528" x2="733.61" y2="528" stroke="#666" stroke-width="0.5"></line></g><rect x="703.61" y="521.25" width="64.43" height="13.5" fill="#fff" opacity="0"></rect><text font-size="13.50" x="738.6" y="532.0" fill="#3360a9"><tspan x="738.61" y="532.05">India</tspan></text></g></g><g class="Lines"><rect x="53" y="92" width="651" height="443" fill="rgba(255,255,255,0)" opacity="0"></rect><g class="key-United-States_0"><path stroke="#a652ba" stroke-linecap="round" d="M53 535L55 535L58 535L60 535L62 535L65 535L67 535L70 535L72 535L75 535L77 535L80 535L82 535L85 535L87 535L90 535L92 535L95 535L97 535L99 535L102 535L104 535L107 535L109 535L112 535L114 535L117 535L119 535L122 535L124 535L127 535L129 535L132 535L134 535L136 535L139 535L141 535L144 535L146 535L149 535L151 535L154 535L156 535L159 535L161 535L164 535L166 535L169 535L171 535L173 535L176 535L178 535L181 535L183 535L186 535L188 534L191 534L193 534L196 534L198 534L201 534L203 534L206 533L208 533L210 533L213 533L215 533L218 533L220 533L223 533L225 532L228 532L230 532L233 532L235 532L238 532L240 531L243 531L245 531L247 531L250 530L252 530L255 530L257 529L260 529L262 528L265 528L267 527L270 527L272 526L275 526L277 525L279 524L282 524L284 523L287 522L289 521L292 520L294 519L297 517L299 516L302 514L304 513L307 511L309 509L312 508L314 506L316 504L319 503L321 501L324 500L326 499L329 498L331 497L334 496L336 495L339 493L341 492L344 490L346 488L349 487L351 485L353 483L356 481L358 479L361 478L363 476L366 475L368 473L371 471L373 469L376 467L378 465L381 463L383 461L386 459L388 456L390 454L393 452L395 449L398 447L400 444L403 442L405 440L408 438L410 436L413 435L415 433L418 431L420 429L423 426L425 424L427 421L430 418L432 416L435 413L437 410L440 408L442 405L445 403L447 401L450 398L452 396L455 394L457 392L460 390L462 387L464 384L467 382L469 379L472 378L474 376L477 374L479 372L482 370L484 368L487 367L489 366L492 364L494 363L497 363L499 363L501 362L504 362L506 362L509 362L511 361L514 362L516 362L519 362L521 361L524 361L526 360L529 359L531 357L533 356L536 355L538 354L541 354L543 354L546 354L548 354L551 354L553 355L556 355L558 356L561 357L563 358L566 359L568 360L570 361L573 362L575 363L578 364L580 366L583 367L585 368L588 369L590 370L593 372L595 373L598 374L600 375L603 377L605 378L607 379L610 381L612 382L615 383L617 385L620 386L622 387L625 388L627 390L630 391L632 392L635 393L637 395L640 396L642 397L644 398L647 399L649 399L652 400L654 401L657 402L659 402L662 403L664 403L667 404L669 405L672 405L674 406L677 407L679 408L681 409L684 410L686 411L689 412L691 413L694 414L696 416L699 417L701 418L704 419" fill="none" stroke-width="1.5"></path></g><g class="key-EU__002d28_0"><path stroke="#f6a324" stroke-linecap="round" d="M53 151L55 151L58 151L60 151L62 151L65 147L67 144L70 141L72 139L75 138L77 133L80 129L82 125L85 123L87 120L90 114L92 110L95 105L97 101L99 98L102 99L104 100L107 101L109 102L112 102L114 101L117 100L119 98L122 97L124 96L127 97L129 99L132 99L134 100L136 101L139 100L141 98L144 97L146 96L149 95L151 95L154 95L156 94L159 94L161 94L164 93L166 93L169 93L171 93L173 93L176 94L178 93L181 94L183 93L186 93L188 93L191 93L193 94L196 94L198 94L201 94L203 93L206 93L208 92L210 92L213 92L215 93L218 93L220 93L223 94L225 93L228 94L230 94L233 94L235 94L238 95L240 95L243 94L245 94L247 94L250 94L252 94L255 95L257 95L260 95L262 96L265 97L267 97L270 98L272 98L275 99L277 100L279 100L282 101L284 102L287 103L289 103L292 104L294 105L297 106L299 107L302 109L304 110L307 112L309 113L312 115L314 117L316 118L319 120L321 122L324 123L326 124L329 126L331 127L334 129L336 130L339 131L341 133L344 135L346 137L349 140L351 142L353 145L356 147L358 150L361 152L363 154L366 156L368 159L371 162L373 165L376 167L378 170L381 173L383 176L386 179L388 182L390 185L393 188L395 191L398 194L400 197L403 200L405 203L408 206L410 208L413 211L415 213L418 216L420 219L423 223L425 226L427 230L430 233L432 237L435 241L437 245L440 247L442 251L445 254L447 257L450 260L452 263L455 266L457 268L460 271L462 274L464 278L467 280L469 283L472 285L474 287L477 290L479 292L482 294L484 296L487 298L489 300L492 302L494 304L497 305L499 306L501 307L504 309L506 310L509 312L511 313L514 314L516 316L519 317L521 319L524 320L526 322L529 324L531 327L533 329L536 331L538 333L541 334L543 336L546 338L548 340L551 342L553 343L556 345L558 347L561 349L563 351L566 353L568 355L570 356L573 358L575 360L578 361L580 363L583 365L585 367L588 368L590 370L593 372L595 374L598 376L600 378L603 379L605 381L607 383L610 385L612 386L615 388L617 389L620 391L622 392L625 394L627 395L630 396L632 398L635 399L637 401L640 402L642 404L644 405L647 407L649 408L652 409L654 410L657 412L659 413L662 414L664 415L667 416L669 417L672 419L674 420L677 421L679 422L681 424L684 425L686 426L689 428L691 429L694 431L696 432L699 434L701 435L704 437" fill="none" stroke-width="1.5"></path></g><g class="key-United-Kingdom_0"><path stroke="#ca2628" stroke-linecap="round" d="M53 151L55 151L58 151L60 151L62 151L65 147L67 144L70 141L72 139L75 138L77 133L80 129L82 125L85 123L87 120L90 114L92 110L95 105L97 101L99 98L102 99L104 100L107 101L109 102L112 102L114 101L117 100L119 98L122 97L124 96L127 97L129 99L132 99L134 100L136 101L139 100L141 98L144 97L146 96L149 95L151 95L154 95L156 95L159 95L161 95L164 94L166 95L169 96L171 95L173 96L176 97L178 102L181 103L183 103L186 103L188 104L191 105L193 106L196 106L198 107L201 108L203 108L206 109L208 109L210 110L213 111L215 113L218 114L220 116L223 118L225 119L228 120L230 122L233 123L235 125L238 127L240 128L243 130L245 131L247 133L250 135L252 137L255 139L257 141L260 144L262 146L265 149L267 152L270 154L272 157L275 160L277 164L279 166L282 169L284 172L287 176L289 179L292 182L294 185L297 187L299 191L302 194L304 198L307 202L309 207L312 212L314 216L316 221L319 224L321 228L324 232L326 236L329 240L331 243L334 247L336 250L339 254L341 258L344 262L346 266L349 269L351 273L353 278L356 281L358 284L361 288L363 291L366 294L368 298L371 301L373 305L376 308L378 312L381 316L383 319L386 322L388 326L390 329L393 333L395 336L398 340L400 343L403 347L405 350L408 353L410 356L413 358L415 362L418 365L420 368L423 371L425 374L427 377L430 381L432 384L435 387L437 390L440 393L442 396L445 399L447 402L450 405L452 408L455 410L457 412L460 414L462 416L464 418L467 419L469 421L472 423L474 424L477 426L479 428L482 429L484 431L487 433L489 434L492 436L494 437L497 438L499 439L501 440L504 441L506 442L509 443L511 444L514 445L516 447L519 448L521 449L524 450L526 451L529 452L531 453L533 454L536 455L538 456L541 457L543 458L546 459L548 460L551 461L553 462L556 463L558 464L561 466L563 467L566 468L568 469L570 470L573 472L575 473L578 474L580 475L583 476L585 478L588 479L590 480L593 481L595 482L598 484L600 485L603 486L605 487L607 488L610 489L612 490L615 491L617 492L620 493L622 494L625 495L627 496L630 497L632 497L635 498L637 499L640 499L642 500L644 501L647 501L649 502L652 502L654 503L657 504L659 504L662 505L664 505L667 506L669 506L672 507L674 507L677 507L679 508L681 508L684 509L686 509L689 510L691 510L694 511L696 511L699 512L701 512L704 513" fill="none" stroke-width="1.5"></path></g><g class="key-China_0"><path stroke="#34983f" stroke-linecap="round" d="M53 535L55 535L58 535L60 535L62 535L65 535L67 535L70 535L72 535L75 535L77 535L80 535L82 535L85 535L87 535L90 535L92 535L95 535L97 535L99 535L102 535L104 535L107 535L109 535L112 535L114 535L117 535L119 535L122 535L124 535L127 535L129 535L132 535L134 535L136 535L139 535L141 535L144 535L146 535L149 535L151 535L154 535L156 535L159 535L161 535L164 535L166 535L169 535L171 535L173 535L176 535L178 535L181 535L183 535L186 535L188 535L191 535L193 535L196 535L198 535L201 535L203 535L206 535L208 535L210 535L213 535L215 535L218 535L220 535L223 535L225 535L228 535L230 535L233 535L235 535L238 535L240 535L243 535L245 535L247 535L250 535L252 535L255 535L257 535L260 535L262 535L265 535L267 535L270 535L272 535L275 535L277 535L279 535L282 535L284 535L287 535L289 535L292 535L294 535L297 535L299 535L302 535L304 535L307 535L309 535L312 535L314 535L316 535L319 535L321 535L324 535L326 535L329 535L331 535L334 535L336 535L339 535L341 535L344 535L346 535L349 535L351 535L353 535L356 535L358 535L361 535L363 535L366 535L368 535L371 535L373 535L376 535L378 535L381 535L383 535L386 535L388 535L390 535L393 535L395 535L398 535L400 535L403 535L405 535L408 535L410 535L413 535L415 535L418 535L420 535L423 535L425 535L427 535L430 535L432 535L435 535L437 535L440 535L442 535L445 535L447 535L450 535L452 534L455 534L457 534L460 534L462 534L464 534L467 534L469 534L472 534L474 534L477 534L479 534L482 534L484 534L487 534L489 533L492 533L494 533L497 533L499 533L501 533L504 533L506 533L509 533L511 533L514 533L516 533L519 532L521 532L524 532L526 532L529 532L531 532L533 532L536 532L538 532L541 532L543 532L546 532L548 531L551 531L553 531L556 531L558 531L561 530L563 530L566 529L568 528L570 527L573 527L575 527L578 526L580 526L583 526L585 525L588 525L590 525L593 525L595 524L598 523L600 523L603 522L605 522L607 521L610 521L612 520L615 519L617 519L620 518L622 518L625 517L627 516L630 516L632 515L635 514L637 513L640 513L642 512L644 511L647 510L649 509L652 509L654 508L657 507L659 506L662 505L664 504L667 503L669 503L672 502L674 501L677 500L679 498L681 497L684 495L686 494L689 492L691 490L694 488L696 486L699 484L701 482L704 480" fill="none" stroke-width="1.5"></path></g><g class="key-India_0"><path stroke="#3360a9" stroke-linecap="round" d="M53 535L55 535L58 535L60 535L62 535L65 535L67 535L70 535L72 535L75 535L77 535L80 535L82 535L85 535L87 535L90 535L92 535L95 535L97 535L99 535L102 535L104 535L107 535L109 535L112 535L114 535L117 535L119 535L122 535L124 535L127 535L129 535L132 535L134 535L136 535L139 535L141 535L144 535L146 535L149 535L151 535L154 535L156 535L159 535L161 535L164 535L166 535L169 535L171 535L173 535L176 535L178 535L181 535L183 535L186 535L188 535L191 535L193 535L196 535L198 535L201 535L203 535L206 535L208 535L210 535L213 535L215 535L218 535L220 535L223 535L225 535L228 535L230 535L233 535L235 535L238 535L240 535L243 535L245 535L247 535L250 535L252 535L255 535L257 535L260 535L262 535L265 535L267 535L270 535L272 535L275 535L277 535L279 535L282 535L284 535L287 535L289 535L292 535L294 535L297 535L299 535L302 535L304 535L307 535L309 535L312 535L314 535L316 535L319 535L321 535L324 535L326 535L329 535L331 535L334 535L336 535L339 535L341 535L344 535L346 535L349 535L351 535L353 535L356 535L358 535L361 535L363 535L366 535L368 535L371 535L373 535L376 535L378 535L381 535L383 535L386 535L388 535L390 535L393 535L395 535L398 535L400 535L403 535L405 534L408 534L410 534L413 534L415 534L418 534L420 534L423 534L425 534L427 534L430 534L432 534L435 534L437 533L440 533L442 533L445 533L447 533L450 533L452 533L455 533L457 533L460 533L462 533L464 532L467 532L469 532L472 532L474 532L477 532L479 532L482 532L484 532L487 532L489 532L492 532L494 532L497 532L499 532L501 532L504 531L506 531L509 531L511 531L514 531L516 531L519 531L521 531L524 531L526 531L529 531L531 531L533 531L536 531L538 531L541 531L543 531L546 531L548 531L551 531L553 531L556 531L558 531L561 531L563 531L566 531L568 531L570 531L573 531L575 531L578 531L580 531L583 530L585 530L588 530L590 530L593 530L595 530L598 530L600 530L603 530L605 530L607 530L610 530L612 530L615 530L617 530L620 530L622 530L625 530L627 529L630 529L632 529L635 529L637 529L640 529L642 529L644 529L647 528L649 528L652 528L654 528L657 527L659 527L662 527L664 527L667 527L669 526L672 526L674 526L677 526L679 525L681 525L684 525L686 525L689 524L691 524L694 524L696 523L699 523L701 523L704 522" fill="none" stroke-width="1.5"></path></g></g></g></g><g class="SourcesFooter" style="fill:#777"><g class="clickable" style="fill:#777"><text font-size="12.60" x="15.0" y="581.6"><tspan x="15" y="581.58">Source: Our World in Data based on Global Carbon Project (GCP)</tspan></text></g><text font-size="12.60" x="775.4" y="581.6"><tspan x="775.402" y="581.58"><a style="fill: #777;" class="cclogo" href="http://creativecommons.org/licenses/by-sa/4.0/deed.en_US" target="_blank">CC BY-SA</a></tspan></text></g></g></svg>