<svg xmlns="http://www.w3.org/2000/svg" version="1.1" style="font-family:&#x27;Helvetica Neue&#x27;, Helvetica, Arial, sans-serif;font-size:18px;background-color:white;text-rendering:optimizeLegibility;-webkit-font-smoothing:antialiased" width="850" height="600"><g class="ChartTab"><g class="HeaderView"><g opacity="0.8" transform="translate(778, 15) scale(0.27)"><a xmlns:xlink="http://www.w3.org/1999/xlink" xlink:href="https://ourworldindata.org" target="_blank"><g><rect x="0" y="0" fill="#1B2543" width="211.2" height="130.1"/><rect x="0" y="112.2" fill="#E63912" width="211.2" height="17.9"/><g><rect x="1.2" y="12.3" fill="none" width="210.2" height="99.2"/><path fill="#FFFFFF" d="M37.8,32.2c0,12.7-7.7,19.4-17.1,19.4c-9.7,0-16.6-7.5-16.6-18.7c0-11.7,7.3-19.3,17.1-19.3 C31.3,13.7,37.8,21.3,37.8,32.2z M9.2,32.8c0,7.9,4.3,14.9,11.8,14.9c7.5,0,11.8-6.9,11.8-15.3c0-7.3-3.8-14.9-11.8-14.9 C13.1,17.5,9.2,24.8,9.2,32.8z"/><path fill="#FFFFFF" d="M62.7,43.8c0,2.7,0.1,5.1,0.2,7.2h-4.3l-0.3-4.3h-0.1c-1.3,2.1-4,4.9-8.8,4.9c-4.2,0-9.1-2.3-9.1-11.6 V24.6h4.8v14.6c0,5,1.5,8.4,5.9,8.4c3.2,0,5.5-2.2,6.3-4.4c0.3-0.7,0.4-1.6,0.4-2.5V24.6h4.8V43.8z"/><path fill="#FFFFFF" d="M67.3,32.8c0-3.1-0.1-5.8-0.2-8.2h4.2l0.2,5.2h0.2c1.2-3.5,4.1-5.8,7.3-5.8c0.5,0,0.9,0.1,1.4,0.2v4.5 c-0.5-0.1-1-0.2-1.6-0.2c-3.4,0-5.8,2.6-6.5,6.2c-0.1,0.7-0.2,1.4-0.2,2.2V51h-4.8V32.8z"/><path fill="#FFFFFF" d="M95.4,51l-9.4-36.8h5l4.4,18.6c1.1,4.6,2.1,9.2,2.7,12.7h0.1c0.6-3.7,1.8-8,3-12.8l4.9-18.5h5l4.5,18.7 c1,4.4,2,8.7,2.6,12.6h0.1c0.8-4,1.8-8.1,3-12.7l4.9-18.5h4.9L120.6,51h-5L111,31.9c-1.1-4.7-1.9-8.3-2.4-12h-0.1 c-0.7,3.7-1.5,7.3-2.8,12L100.4,51H95.4z"/><path fill="#FFFFFF" d="M154.9,37.6c0,9.8-6.8,14-13.2,14c-7.2,0-12.7-5.2-12.7-13.6c0-8.8,5.8-14,13.1-14 C149.8,24,154.9,29.5,154.9,37.6z M133.9,37.9c0,5.8,3.3,10.1,8,10.1c4.6,0,8-4.3,8-10.3c0-4.5-2.2-10.1-7.9-10.1 C136.3,27.6,133.9,32.8,133.9,37.9z"/><path fill="#FFFFFF" d="M158.2,32.8c0-3.1-0.1-5.8-0.2-8.2h4.2l0.2,5.2h0.2c1.2-3.5,4.1-5.8,7.3-5.8c0.5,0,0.9,0.1,1.4,0.2v4.5 c-0.5-0.1-1-0.2-1.6-0.2c-3.4,0-5.8,2.6-6.5,6.2c-0.1,0.7-0.2,1.4-0.2,2.2V51h-4.8V32.8z"/><path fill="#FFFFFF" d="M173.5,12.3h4.8V51h-4.8V12.3z"/><path fill="#FFFFFF" d="M206.5,12.3v31.9c0,2.3,0.1,5,0.2,6.8h-4.3l-0.2-4.6H202c-1.5,2.9-4.7,5.2-9,5.2 c-6.4,0-11.3-5.4-11.3-13.4c-0.1-8.8,5.4-14.2,11.9-14.2c4,0,6.8,1.9,8,4h0.1V12.3H206.5z M201.7,35.4c0-0.6-0.1-1.4-0.2-2 c-0.7-3.1-3.3-5.6-6.9-5.6c-5,0-7.9,4.4-7.9,10.2c0,5.3,2.6,9.8,7.8,9.8c3.2,0,6.2-2.1,7.1-5.7c0.2-0.7,0.2-1.3,0.2-2.1V35.4z"/><path fill="#FFFFFF" d="M42.8,64c0.1,1.6-1.1,2.9-3.1,2.9c-1.7,0-2.9-1.3-2.9-2.9c0-1.7,1.3-3,3-3C41.7,61,42.8,62.3,42.8,64z M37.4,97.8V71.4h4.8v26.4H37.4z"/><path fill="#FFFFFF" d="M47.5,78.6c0-2.7-0.1-5-0.2-7.1h4.3l0.3,4.4h0.1c1.3-2.5,4.4-5,8.8-5c3.7,0,9.4,2.2,9.4,11.2v15.8h-4.8 V82.6c0-4.3-1.6-7.8-6.1-7.8c-3.2,0-5.6,2.2-6.5,4.9c-0.2,0.6-0.3,1.4-0.3,2.2v15.9h-4.8V78.6z"/><path fill="#FFFFFF" d="M84,61.6c2.9-0.4,6.3-0.8,10.1-0.8c6.8,0,11.7,1.6,14.9,4.6c3.3,3,5.2,7.3,5.2,13.2c0,6-1.9,10.9-5.3,14.3 c-3.4,3.4-9.1,5.3-16.3,5.3c-3.4,0-6.2-0.2-8.6-0.4V61.6z M88.8,94.1c1.2,0.2,3,0.3,4.8,0.3c10.2,0,15.7-5.7,15.7-15.6 c0.1-8.7-4.9-14.2-14.9-14.2c-2.5,0-4.3,0.2-5.6,0.5V94.1z"/><path fill="#FFFFFF" d="M132.1,97.8l-0.4-3.3h-0.2c-1.5,2.1-4.3,3.9-8.1,3.9c-5.4,0-8.1-3.8-8.1-7.6c0-6.4,5.7-9.9,15.9-9.8v-0.5 c0-2.2-0.6-6.1-6-6.1c-2.5,0-5,0.8-6.9,2l-1.1-3.2c2.2-1.4,5.4-2.3,8.7-2.3c8.1,0,10.1,5.5,10.1,10.8v9.9c0,2.3,0.1,4.5,0.4,6.3 H132.1z M131.4,84.4c-5.3-0.1-11.2,0.8-11.2,5.9c0,3.1,2.1,4.6,4.5,4.6c3.4,0,5.6-2.2,6.4-4.4c0.2-0.5,0.3-1,0.3-1.5V84.4z"/><path fill="#FFFFFF" d="M146.6,63.9v7.6h6.9v3.7h-6.9v14.2c0,3.3,0.9,5.1,3.6,5.1c1.3,0,2.2-0.2,2.8-0.3l0.2,3.6 c-0.9,0.4-2.4,0.7-4.3,0.7c-2.2,0-4-0.7-5.2-2c-1.4-1.4-1.9-3.8-1.9-6.9V75.1h-4.1v-3.7h4.1v-6.3L146.6,63.9z"/><path fill="#FFFFFF" d="M171.4,97.8l-0.4-3.3h-0.2c-1.5,2.1-4.3,3.9-8.1,3.9c-5.4,0-8.1-3.8-8.1-7.6c0-6.4,5.7-9.9,15.9-9.8v-0.5 c0-2.2-0.6-6.1-6-6.1c-2.5,0-5,0.8-6.9,2l-1.1-3.2c2.2-1.4,5.4-2.3,8.7-2.3c8.1,0,10.1,5.5,10.1,10.8v9.9c0,2.3,0.1,4.5,0.4,6.3 H171.4z M170.7,84.4c-5.3-0.1-11.2,0.8-11.2,5.9c0,3.1,2.1,4.6,4.5,4.6c3.4,0,5.6-2.2,6.4-4.4c0.2-0.5,0.3-1,0.3-1.5V84.4z"/></g></g></a></g><a href="https://ourworldindata.org/grapher/share-of-children-younger-than-5-who-are-underweight-for-their-age" target="_blank"><text font-size="24.30" x="15.0" y="34.4" fill="#555"><tspan x="15" y="34.44">Share of children younger than 5 who are underweight for their age</tspan></text></a><text font-size="14.40" x="15.0" y="52.8" fill="#666"><tspan x="15" y="52.81999999999999">Prevalence of underweight children is the percentage of children under age 5 whose weight for age is more than two</tspan><tspan x="15" y="68.66">standard deviations below the median for the international reference population ages 0-59 months.</tspan></text></g><g class="LineChart"><defs><clipPath id="boundsClip-107"><rect x="42.562" y="0" width="830" height="930.5999999999999"></rect></clipPath></defs><g class="AxisBoxView"><g class="HorizontalAxis"><text x="52.6" y="556.5" fill="#666" text-anchor="middle" font-size="16.2">1986</text><text x="139.8" y="556.5" fill="#666" text-anchor="middle" font-size="16.2">1990</text><text x="248.7" y="556.5" fill="#666" text-anchor="middle" font-size="16.2">1995</text><text x="357.7" y="556.5" fill="#666" text-anchor="middle" font-size="16.2">2000</text><text x="466.7" y="556.5" fill="#666" text-anchor="middle" font-size="16.2">2005</text><text x="575.7" y="556.5" fill="#666" text-anchor="middle" font-size="16.2">2010</text><text x="684.7" y="556.5" fill="#666" text-anchor="middle" font-size="16.2">2015</text><text x="728.3" y="556.5" fill="#666" text-anchor="middle" font-size="16.2">2017</text></g><g class="VerticalAxis"><text x="47.56" y="535.3" fill="#666" dominant-baseline="middle" text-anchor="end" font-size="16.2">0%</text><text x="47.56" y="468.8" fill="#666" dominant-baseline="middle" text-anchor="end" font-size="16.2">10%</text><text x="47.56" y="402.3" fill="#666" dominant-baseline="middle" text-anchor="end" font-size="16.2">20%</text><text x="47.56" y="335.9" fill="#666" dominant-baseline="middle" text-anchor="end" font-size="16.2">30%</text><text x="47.56" y="269.4" fill="#666" dominant-baseline="middle" text-anchor="end" font-size="16.2">40%</text><text x="47.56" y="202.9" fill="#666" dominant-baseline="middle" text-anchor="end" font-size="16.2">50%</text><text x="47.56" y="136.4" fill="#666" dominant-baseline="middle" text-anchor="end" font-size="16.2">60%</text></g><g class="AxisGridLines"><line x1="52.56" y1="535.3" x2="728.32" y2="535.3" stroke="#ccc"></line><line x1="52.56" y1="468.8" x2="728.32" y2="468.8" stroke="#ddd" stroke-dasharray="3,2"></line><line x1="52.56" y1="402.3" x2="728.32" y2="402.3" stroke="#ddd" stroke-dasharray="3,2"></line><line x1="52.56" y1="335.9" x2="728.32" y2="335.9" stroke="#ddd" stroke-dasharray="3,2"></line><line x1="52.56" y1="269.4" x2="728.32" y2="269.4" stroke="#ddd" stroke-dasharray="3,2"></line><line x1="52.56" y1="202.9" x2="728.32" y2="202.9" stroke="#ddd" stroke-dasharray="3,2"></line><line x1="52.56" y1="136.4" x2="728.32" y2="136.4" stroke="#ddd" stroke-dasharray="3,2"></line></g></g><g clip-path="url(#boundsClip-107)"><g class="HeightedLegend clickable"><g class="legendMark"><g class="indicator"><line x1="733.315" y1="298" x2="745.815" y2="298" stroke="#666" stroke-width="0.5"></line><line x1="745.815" y1="298" x2="745.815" y2="298" stroke="#666" stroke-width="0.5"></line><line x1="745.815" y1="298" x2="758.315" y2="298" stroke="#666" stroke-width="0.5"></line></g><rect x="728.315" y="291.25" width="64.43" height="13.5" fill="#fff" opacity="0"></rect><text font-size="13.50" x="763.3" y="302.1" fill="#2a939b"><tspan x="763.315" y="302.05">India</tspan></text></g><g class="legendMark"><g class="indicator"><line x1="733.315" y1="318.6" x2="755.815" y2="318.6" stroke="#666" stroke-width="0.5"></line><line x1="755.815" y1="318.6" x2="755.815" y2="318.6" stroke="#666" stroke-width="0.5"></line><line x1="755.815" y1="318.6" x2="758.315" y2="318.6" stroke="#666" stroke-width="0.5"></line></g><rect x="728.315" y="311.85" width="106.685" height="13.5" fill="#fff" opacity="0"></rect><text font-size="13.50" x="763.3" y="322.7" fill="#a652ba"><tspan x="763.315" y="322.65000000000003">Bangladesh</tspan></text></g><g class="legendMark"><g class="indicator"><line x1="733.315" y1="325.9" x2="745.815" y2="325.9" stroke="#666" stroke-width="0.5"></line><line x1="745.815" y1="325.9" x2="745.815" y2="334.1" stroke="#666" stroke-width="0.5"></line><line x1="745.815" y1="334.1" x2="758.315" y2="334.1" stroke="#666" stroke-width="0.5"></line></g><rect x="728.315" y="327.35" width="77.795" height="13.5" fill="#fff" opacity="0"></rect><text font-size="13.50" x="763.3" y="338.2" fill="#f6a324"><tspan x="763.315" y="338.15000000000003">Nigeria</tspan></text></g><g class="legendMark"><g class="indicator"><line x1="733.315" y1="445.5" x2="745.815" y2="445.5" stroke="#666" stroke-width="0.5"></line><line x1="745.815" y1="445.5" x2="745.815" y2="445.5" stroke="#666" stroke-width="0.5"></line><line x1="745.815" y1="445.5" x2="758.315" y2="445.5" stroke="#666" stroke-width="0.5"></line></g><rect x="728.315" y="438.75" width="70.235" height="13.5" fill="#fff" opacity="0"></rect><text font-size="13.50" x="763.3" y="449.6" fill="#34983f"><tspan x="763.315" y="449.55">World</tspan></text></g><g class="legendMark"><g class="indicator"><line x1="733.315" y1="512.7" x2="755.815" y2="512.7" stroke="#666" stroke-width="0.5"></line><line x1="755.815" y1="512.7" x2="755.815" y2="512.7" stroke="#666" stroke-width="0.5"></line><line x1="755.815" y1="512.7" x2="758.315" y2="512.7" stroke="#666" stroke-width="0.5"></line></g><rect x="728.315" y="505.95000000000005" width="74.825" height="13.5" fill="#fff" opacity="0"></rect><text font-size="13.50" x="763.3" y="516.8" fill="#ca2628"><tspan x="763.315" y="516.75">Bolivia</tspan></text></g><g class="legendMark"><g class="indicator"><line x1="733.315" y1="519.3" x2="745.815" y2="519.3" stroke="#666" stroke-width="0.5"></line><line x1="745.815" y1="519.3" x2="745.815" y2="528.2" stroke="#666" stroke-width="0.5"></line><line x1="745.815" y1="528.2" x2="758.315" y2="528.2" stroke="#666" stroke-width="0.5"></line></g><rect x="728.315" y="521.45" width="70.37" height="13.5" fill="#fff" opacity="0"></rect><text font-size="13.50" x="763.3" y="532.3" fill="#3360a9"><tspan x="763.315" y="532.25">China</tspan></text></g></g><g class="Lines"><rect x="53" y="91" width="676" height="444" fill="rgba(255,255,255,0)" opacity="0"></rect><g class="key-World_0"><path stroke="#34983f" stroke-linecap="round" d="M140 370L249 384L358 397L467 412L576 427L598 430L619 433L641 436L663 438L685 441L707 444L728 446" fill="none" stroke-width="1.5"></path><g fill="#34983f"><circle cx="140" cy="370" r="2"></circle><circle cx="249" cy="384" r="2"></circle><circle cx="358" cy="397" r="2"></circle><circle cx="467" cy="412" r="2"></circle><circle cx="576" cy="427" r="2"></circle><circle cx="598" cy="430" r="2"></circle><circle cx="619" cy="433" r="2"></circle><circle cx="641" cy="436" r="2"></circle><circle cx="663" cy="438" r="2"></circle><circle cx="685" cy="441" r="2"></circle><circle cx="707" cy="444" r="2"></circle><circle cx="728" cy="446" r="2"></circle></g></g><g class="key-China_0"><path stroke="#3360a9" stroke-linecap="round" d="M74 411L140 452L183 441L249 464L314 489L358 486L401 490L467 505L532 510L554 513L576 513L641 519" fill="none" stroke-width="1.5"></path><g fill="#3360a9"><circle cx="74" cy="411" r="2"></circle><circle cx="140" cy="452" r="2"></circle><circle cx="183" cy="441" r="2"></circle><circle cx="249" cy="464" r="2"></circle><circle cx="314" cy="489" r="2"></circle><circle cx="358" cy="486" r="2"></circle><circle cx="401" cy="490" r="2"></circle><circle cx="467" cy="505" r="2"></circle><circle cx="532" cy="510" r="2"></circle><circle cx="554" cy="513" r="2"></circle><circle cx="576" cy="513" r="2"></circle><circle cx="641" cy="519" r="2"></circle></g></g><g class="key-India_0"><path stroke="#2a939b" stroke-linecap="round" d="M118 166L183 184L205 195L292 280L336 228L489 246L663 340L685 298" fill="none" stroke-width="1.5"></path><g fill="#2a939b"><circle cx="118" cy="166" r="2"></circle><circle cx="183" cy="184" r="2"></circle><circle cx="205" cy="195" r="2"></circle><circle cx="292" cy="280" r="2"></circle><circle cx="336" cy="228" r="2"></circle><circle cx="489" cy="246" r="2"></circle><circle cx="663" cy="340" r="2"></circle><circle cx="685" cy="298" r="2"></circle></g></g><g class="key-Nigeria_0"><path stroke="#f6a324" stroke-linecap="round" d="M140 302L205 302L423 355L510 364L532 358L598 373L641 329L663 404L685 406L707 326" fill="none" stroke-width="1.5"></path><g fill="#f6a324"><circle cx="140" cy="302" r="2"></circle><circle cx="205" cy="302" r="2"></circle><circle cx="423" cy="355" r="2"></circle><circle cx="510" cy="364" r="2"></circle><circle cx="532" cy="358" r="2"></circle><circle cx="598" cy="373" r="2"></circle><circle cx="641" cy="329" r="2"></circle><circle cx="663" cy="404" r="2"></circle><circle cx="685" cy="406" r="2"></circle><circle cx="707" cy="326" r="2"></circle></g></g><g class="key-Bolivia_0"><path stroke="#ca2628" stroke-linecap="round" d="M96 470L118 483L140 471L162 468L183 466L227 462L314 496L423 496L532 505L619 511L707 513" fill="none" stroke-width="1.5"></path><g fill="#ca2628"><circle cx="96" cy="470" r="2"></circle><circle cx="118" cy="483" r="2"></circle><circle cx="140" cy="471" r="2"></circle><circle cx="162" cy="468" r="2"></circle><circle cx="183" cy="466" r="2"></circle><circle cx="227" cy="462" r="2"></circle><circle cx="314" cy="496" r="2"></circle><circle cx="423" cy="496" r="2"></circle><circle cx="532" cy="505" r="2"></circle><circle cx="619" cy="511" r="2"></circle><circle cx="707" cy="513" r="2"></circle></g></g><g class="key-Bangladesh_0"><path stroke="#a652ba" stroke-linecap="round" d="M53 91L140 126L162 128L183 132L205 162L227 150L249 168L271 176L292 186L314 198L336 206L358 254L380 248L401 263L423 277L445 251L467 287L489 283L510 261L598 291L619 323L641 302L663 319" fill="none" stroke-width="1.5"></path><g fill="#a652ba"><circle cx="53" cy="91" r="2"></circle><circle cx="140" cy="126" r="2"></circle><circle cx="162" cy="128" r="2"></circle><circle cx="183" cy="132" r="2"></circle><circle cx="205" cy="162" r="2"></circle><circle cx="227" cy="150" r="2"></circle><circle cx="249" cy="168" r="2"></circle><circle cx="271" cy="176" r="2"></circle><circle cx="292" cy="186" r="2"></circle><circle cx="314" cy="198" r="2"></circle><circle cx="336" cy="206" r="2"></circle><circle cx="358" cy="254" r="2"></circle><circle cx="380" cy="248" r="2"></circle><circle cx="401" cy="263" r="2"></circle><circle cx="423" cy="277" r="2"></circle><circle cx="445" cy="251" r="2"></circle><circle cx="467" cy="287" r="2"></circle><circle cx="489" cy="283" r="2"></circle><circle cx="510" cy="261" r="2"></circle><circle cx="598" cy="291" r="2"></circle><circle cx="619" cy="323" r="2"></circle><circle cx="641" cy="302" r="2"></circle><circle cx="663" cy="319" r="2"></circle></g></g></g></g></g><g class="SourcesFooter" style="fill:#777"><g class="clickable" style="fill:#777"><text font-size="12.60" x="15.0" y="581.6"><tspan x="15" y="581.58">Source: World Bank</tspan></text></g><text font-size="12.60" x="471.1" y="581.6"><tspan x="471.112" y="581.58"><a target='_blank' style='fill: #777;' href='https://ourworldindata.org/hunger-and-undernourishment/'>OurWorldInData.org/hunger-and-undernourishment/</a> • <a style="fill: #777;" class="cclogo" href="http://creativecommons.org/licenses/by-sa/4.0/deed.en_US" target="_blank">CC BY-SA</a></tspan></text></g></g></svg>