<svg xmlns="http://www.w3.org/2000/svg" version="1.1" style="font-family:&#x27;Helvetica Neue&#x27;, Helvetica, Arial, sans-serif;font-size:18px;background-color:white;text-rendering:optimizeLegibility;-webkit-font-smoothing:antialiased" width="850" height="600"><g class="ChartTab"><g class="HeaderView"><g opacity="0.8" transform="translate(778, 15) scale(0.27)"><a xmlns:xlink="http://www.w3.org/1999/xlink" xlink:href="https://ourworldindata.org" target="_blank"><g><rect x="0" y="0" fill="#1B2543" width="211.2" height="130.1"/><rect x="0" y="112.2" fill="#E63912" width="211.2" height="17.9"/><g><rect x="1.2" y="12.3" fill="none" width="210.2" height="99.2"/><path fill="#FFFFFF" d="M37.8,32.2c0,12.7-7.7,19.4-17.1,19.4c-9.7,0-16.6-7.5-16.6-18.7c0-11.7,7.3-19.3,17.1-19.3 C31.3,13.7,37.8,21.3,37.8,32.2z M9.2,32.8c0,7.9,4.3,14.9,11.8,14.9c7.5,0,11.8-6.9,11.8-15.3c0-7.3-3.8-14.9-11.8-14.9 C13.1,17.5,9.2,24.8,9.2,32.8z"/><path fill="#FFFFFF" d="M62.7,43.8c0,2.7,0.1,5.1,0.2,7.2h-4.3l-0.3-4.3h-0.1c-1.3,2.1-4,4.9-8.8,4.9c-4.2,0-9.1-2.3-9.1-11.6 V24.6h4.8v14.6c0,5,1.5,8.4,5.9,8.4c3.2,0,5.5-2.2,6.3-4.4c0.3-0.7,0.4-1.6,0.4-2.5V24.6h4.8V43.8z"/><path fill="#FFFFFF" d="M67.3,32.8c0-3.1-0.1-5.8-0.2-8.2h4.2l0.2,5.2h0.2c1.2-3.5,4.1-5.8,7.3-5.8c0.5,0,0.9,0.1,1.4,0.2v4.5 c-0.5-0.1-1-0.2-1.6-0.2c-3.4,0-5.8,2.6-6.5,6.2c-0.1,0.7-0.2,1.4-0.2,2.2V51h-4.8V32.8z"/><path fill="#FFFFFF" d="M95.4,51l-9.4-36.8h5l4.4,18.6c1.1,4.6,2.1,9.2,2.7,12.7h0.1c0.6-3.7,1.8-8,3-12.8l4.9-18.5h5l4.5,18.7 c1,4.4,2,8.7,2.6,12.6h0.1c0.8-4,1.8-8.1,3-12.7l4.9-18.5h4.9L120.6,51h-5L111,31.9c-1.1-4.7-1.9-8.3-2.4-12h-0.1 c-0.7,3.7-1.5,7.3-2.8,12L100.4,51H95.4z"/><path fill="#FFFFFF" d="M154.9,37.6c0,9.8-6.8,14-13.2,14c-7.2,0-12.7-5.2-12.7-13.6c0-8.8,5.8-14,13.1-14 C149.8,24,154.9,29.5,154.9,37.6z M133.9,37.9c0,5.8,3.3,10.1,8,10.1c4.6,0,8-4.3,8-10.3c0-4.5-2.2-10.1-7.9-10.1 C136.3,27.6,133.9,32.8,133.9,37.9z"/><path fill="#FFFFFF" d="M158.2,32.8c0-3.1-0.1-5.8-0.2-8.2h4.2l0.2,5.2h0.2c1.2-3.5,4.1-5.8,7.3-5.8c0.5,0,0.9,0.1,1.4,0.2v4.5 c-0.5-0.1-1-0.2-1.6-0.2c-3.4,0-5.8,2.6-6.5,6.2c-0.1,0.7-0.2,1.4-0.2,2.2V51h-4.8V32.8z"/><path fill="#FFFFFF" d="M173.5,12.3h4.8V51h-4.8V12.3z"/><path fill="#FFFFFF" d="M206.5,12.3v31.9c0,2.3,0.1,5,0.2,6.8h-4.3l-0.2-4.6H202c-1.5,2.9-4.7,5.2-9,5.2 c-6.4,0-11.3-5.4-11.3-13.4c-0.1-8.8,5.4-14.2,11.9-14.2c4,0,6.8,1.9,8,4h0.1V12.3H206.5z M201.7,35.4c0-0.6-0.1-1.4-0.2-2 c-0.7-3.1-3.3-5.6-6.9-5.6c-5,0-7.9,4.4-7.9,10.2c0,5.3,2.6,9.8,7.8,9.8c3.2,0,6.2-2.1,7.1-5.7c0.2-0.7,0.2-1.3,0.2-2.1V35.4z"/><path fill="#FFFFFF" d="M42.8,64c0.1,1.6-1.1,2.9-3.1,2.9c-1.7,0-2.9-1.3-2.9-2.9c0-1.7,1.3-3,3-3C41.7,61,42.8,62.3,42.8,64z M37.4,97.8V71.4h4.8v26.4H37.4z"/><path fill="#FFFFFF" d="M47.5,78.6c0-2.7-0.1-5-0.2-7.1h4.3l0.3,4.4h0.1c1.3-2.5,4.4-5,8.8-5c3.7,0,9.4,2.2,9.4,11.2v15.8h-4.8 V82.6c0-4.3-1.6-7.8-6.1-7.8c-3.2,0-5.6,2.2-6.5,4.9c-0.2,0.6-0.3,1.4-0.3,2.2v15.9h-4.8V78.6z"/><path fill="#FFFFFF" d="M84,61.6c2.9-0.4,6.3-0.8,10.1-0.8c6.8,0,11.7,1.6,14.9,4.6c3.3,3,5.2,7.3,5.2,13.2c0,6-1.9,10.9-5.3,14.3 c-3.4,3.4-9.1,5.3-16.3,5.3c-3.4,0-6.2-0.2-8.6-0.4V61.6z M88.8,94.1c1.2,0.2,3,0.3,4.8,0.3c10.2,0,15.7-5.7,15.7-15.6 c0.1-8.7-4.9-14.2-14.9-14.2c-2.5,0-4.3,0.2-5.6,0.5V94.1z"/><path fill="#FFFFFF" d="M132.1,97.8l-0.4-3.3h-0.2c-1.5,2.1-4.3,3.9-8.1,3.9c-5.4,0-8.1-3.8-8.1-7.6c0-6.4,5.7-9.9,15.9-9.8v-0.5 c0-2.2-0.6-6.1-6-6.1c-2.5,0-5,0.8-6.9,2l-1.1-3.2c2.2-1.4,5.4-2.3,8.7-2.3c8.1,0,10.1,5.5,10.1,10.8v9.9c0,2.3,0.1,4.5,0.4,6.3 H132.1z M131.4,84.4c-5.3-0.1-11.2,0.8-11.2,5.9c0,3.1,2.1,4.6,4.5,4.6c3.4,0,5.6-2.2,6.4-4.4c0.2-0.5,0.3-1,0.3-1.5V84.4z"/><path fill="#FFFFFF" d="M146.6,63.9v7.6h6.9v3.7h-6.9v14.2c0,3.3,0.9,5.1,3.6,5.1c1.3,0,2.2-0.2,2.8-0.3l0.2,3.6 c-0.9,0.4-2.4,0.7-4.3,0.7c-2.2,0-4-0.7-5.2-2c-1.4-1.4-1.9-3.8-1.9-6.9V75.1h-4.1v-3.7h4.1v-6.3L146.6,63.9z"/><path fill="#FFFFFF" d="M171.4,97.8l-0.4-3.3h-0.2c-1.5,2.1-4.3,3.9-8.1,3.9c-5.4,0-8.1-3.8-8.1-7.6c0-6.4,5.7-9.9,15.9-9.8v-0.5 c0-2.2-0.6-6.1-6-6.1c-2.5,0-5,0.8-6.9,2l-1.1-3.2c2.2-1.4,5.4-2.3,8.7-2.3c8.1,0,10.1,5.5,10.1,10.8v9.9c0,2.3,0.1,4.5,0.4,6.3 H171.4z M170.7,84.4c-5.3-0.1-11.2,0.8-11.2,5.9c0,3.1,2.1,4.6,4.5,4.6c3.4,0,5.6-2.2,6.4-4.4c0.2-0.5,0.3-1,0.3-1.5V84.4z"/></g></g></a></g><a href="https://ourworldindata.org/grapher/share-undernourished-2000-2017" target="_blank"><text font-size="25.20" x="15.0" y="35.2" fill="#555"><tspan x="15" y="35.160000000000004">Share of people who are undernourished</tspan></text></a><text font-size="14.40" x="15.0" y="53.7" fill="#666"><tspan x="15" y="53.72">The estimated share of the population who are undernourished (have an energy intake below minimum</tspan><tspan x="15" y="69.56">requirements). </tspan></text></g><g class="LineChart"><defs><clipPath id="boundsClip-103"><rect x="42.562" y="0" width="830" height="901.4"></rect></clipPath></defs><g class="AxisBoxView"><g class="HorizontalAxis"><text x="52.6" y="542.8" fill="#666" text-anchor="middle" font-size="16.2">2000</text><text x="113.2" y="542.8" fill="#666" text-anchor="middle" font-size="16.2">2002</text><text x="173.9" y="542.8" fill="#666" text-anchor="middle" font-size="16.2">2004</text><text x="234.6" y="542.8" fill="#666" text-anchor="middle" font-size="16.2">2006</text><text x="295.2" y="542.8" fill="#666" text-anchor="middle" font-size="16.2">2008</text><text x="355.9" y="542.8" fill="#666" text-anchor="middle" font-size="16.2">2010</text><text x="416.5" y="542.8" fill="#666" text-anchor="middle" font-size="16.2">2012</text><text x="477.2" y="542.8" fill="#666" text-anchor="middle" font-size="16.2">2014</text><text x="568.2" y="542.8" fill="#666" text-anchor="middle" font-size="16.2">2017</text></g><g class="VerticalAxis"><text x="47.56" y="521.6" fill="#666" dominant-baseline="middle" text-anchor="end" font-size="16.2">0%</text><text x="47.56" y="460.4" fill="#666" dominant-baseline="middle" text-anchor="end" font-size="16.2">5%</text><text x="47.56" y="399.2" fill="#666" dominant-baseline="middle" text-anchor="end" font-size="16.2">10%</text><text x="47.56" y="338.1" fill="#666" dominant-baseline="middle" text-anchor="end" font-size="16.2">15%</text><text x="47.56" y="276.9" fill="#666" dominant-baseline="middle" text-anchor="end" font-size="16.2">20%</text><text x="47.56" y="215.7" fill="#666" dominant-baseline="middle" text-anchor="end" font-size="16.2">25%</text><text x="47.56" y="154.5" fill="#666" dominant-baseline="middle" text-anchor="end" font-size="16.2">30%</text><text x="47.56" y="93.3" fill="#666" dominant-baseline="middle" text-anchor="end" font-size="16.2">35%</text></g><g class="AxisGridLines"><line x1="52.56" y1="521.6" x2="568.20" y2="521.6" stroke="#ccc"></line><line x1="52.56" y1="460.4" x2="568.20" y2="460.4" stroke="#ddd" stroke-dasharray="3,2"></line><line x1="52.56" y1="399.2" x2="568.20" y2="399.2" stroke="#ddd" stroke-dasharray="3,2"></line><line x1="52.56" y1="338.1" x2="568.20" y2="338.1" stroke="#ddd" stroke-dasharray="3,2"></line><line x1="52.56" y1="276.9" x2="568.20" y2="276.9" stroke="#ddd" stroke-dasharray="3,2"></line><line x1="52.56" y1="215.7" x2="568.20" y2="215.7" stroke="#ddd" stroke-dasharray="3,2"></line><line x1="52.56" y1="154.5" x2="568.20" y2="154.5" stroke="#ddd" stroke-dasharray="3,2"></line><line x1="52.56" y1="93.3" x2="568.20" y2="93.3" stroke="#ddd" stroke-dasharray="3,2"></line></g></g><g clip-path="url(#boundsClip-103)"><g class="HeightedLegend clickable"><g class="legendMark"><g class="indicator"><line x1="573.2049999999999" y1="175.3" x2="585.7049999999999" y2="175.3" stroke="#666" stroke-width="0.5"></line><line x1="585.7049999999999" y1="175.3" x2="585.7049999999999" y2="175.3" stroke="#666" stroke-width="0.5"></line><line x1="585.7049999999999" y1="175.3" x2="598.2049999999999" y2="175.3" stroke="#666" stroke-width="0.5"></line></g><rect x="568.2049999999999" y="168.55" width="176.48000000000002" height="13.5" fill="#fff" opacity="0"></rect><text font-size="13.50" x="603.2" y="179.4" fill="#3360a9"><tspan x="603.2049999999999" y="179.35000000000002">Low income economies</tspan></text></g><g class="legendMark"><g class="indicator"><line x1="573.2049999999999" y1="223" x2="585.7049999999999" y2="223" stroke="#666" stroke-width="0.5"></line><line x1="585.7049999999999" y1="223" x2="585.7049999999999" y2="223" stroke="#666" stroke-width="0.5"></line><line x1="585.7049999999999" y1="223" x2="598.2049999999999" y2="223" stroke="#666" stroke-width="0.5"></line></g><rect x="568.2049999999999" y="216.25" width="244.925" height="13.5" fill="#fff" opacity="0"></rect><text font-size="13.50" x="603.2" y="227.1" fill="#3360a9"><tspan x="603.2049999999999" y="227.05">Least Developed Countries (LDCs)</tspan></text></g><g class="legendMark"><g class="indicator"><line x1="573.2049999999999" y1="237.7" x2="585.7049999999999" y2="237.7" stroke="#666" stroke-width="0.5"></line><line x1="585.7049999999999" y1="237.7" x2="585.7049999999999" y2="237.7" stroke="#666" stroke-width="0.5"></line><line x1="585.7049999999999" y1="237.7" x2="598.2049999999999" y2="237.7" stroke="#666" stroke-width="0.5"></line></g><rect x="568.2049999999999" y="230.95" width="153.26" height="13.5" fill="#fff" opacity="0"></rect><text font-size="13.50" x="603.2" y="241.8" fill="#3360a9"><tspan x="603.2049999999999" y="241.75">Sub-Saharan Africa</tspan></text></g><g class="legendMark"><g class="indicator"><line x1="573.2049999999999" y1="298.9" x2="595.7049999999999" y2="298.9" stroke="#666" stroke-width="0.5"></line><line x1="595.7049999999999" y1="298.9" x2="595.7049999999999" y2="298.9" stroke="#666" stroke-width="0.5"></line><line x1="595.7049999999999" y1="298.9" x2="598.2049999999999" y2="298.9" stroke="#666" stroke-width="0.5"></line></g><rect x="568.2049999999999" y="292.15" width="76.31" height="13.5" fill="#fff" opacity="0"></rect><text font-size="13.50" x="603.2" y="302.9" fill="#3360a9"><tspan x="603.2049999999999" y="302.95">Fragile</tspan></text></g><g class="legendMark"><g class="indicator"><line x1="573.2049999999999" y1="300.1" x2="590.7049999999999" y2="300.1" stroke="#666" stroke-width="0.5"></line><line x1="590.7049999999999" y1="300.1" x2="590.7049999999999" y2="314.4" stroke="#666" stroke-width="0.5"></line><line x1="590.7049999999999" y1="314.4" x2="598.2049999999999" y2="314.4" stroke="#666" stroke-width="0.5"></line></g><rect x="568.2049999999999" y="307.65" width="196.055" height="13.5" fill="#fff" opacity="0"></rect><text font-size="13.50" x="603.2" y="318.4" fill="#3360a9"><tspan x="603.2049999999999" y="318.45">Fragile (+ extreme fragility)</tspan></text></g><g class="legendMark"><g class="indicator"><line x1="573.2049999999999" y1="302.6" x2="585.7049999999999" y2="302.6" stroke="#666" stroke-width="0.5"></line><line x1="585.7049999999999" y1="302.6" x2="585.7049999999999" y2="329.9" stroke="#666" stroke-width="0.5"></line><line x1="585.7049999999999" y1="329.9" x2="598.2049999999999" y2="329.9" stroke="#666" stroke-width="0.5"></line></g><rect x="568.2049999999999" y="323.15" width="136.385" height="13.5" fill="#fff" opacity="0"></rect><text font-size="13.50" x="603.2" y="333.9" fill="#3360a9"><tspan x="603.2049999999999" y="333.95">Extreme Fragility</tspan></text></g><g class="legendMark"><g class="indicator"><line x1="573.2049999999999" y1="316" x2="580.7049999999999" y2="316" stroke="#666" stroke-width="0.5"></line><line x1="580.7049999999999" y1="316" x2="580.7049999999999" y2="345.4" stroke="#666" stroke-width="0.5"></line><line x1="580.7049999999999" y1="345.4" x2="598.2049999999999" y2="345.4" stroke="#666" stroke-width="0.5"></line></g><rect x="568.2049999999999" y="338.65" width="266.795" height="13.5" fill="#fff" opacity="0"></rect><text font-size="13.50" x="603.2" y="349.4" fill="#3360a9"><tspan x="603.2049999999999" y="349.45">Small Island Developing States (SIDS)</tspan></text></g><g class="legendMark"><g class="indicator"><line x1="573.2049999999999" y1="388.2" x2="585.7049999999999" y2="388.2" stroke="#666" stroke-width="0.5"></line><line x1="585.7049999999999" y1="388.2" x2="585.7049999999999" y2="388.2" stroke="#666" stroke-width="0.5"></line><line x1="585.7049999999999" y1="388.2" x2="598.2049999999999" y2="388.2" stroke="#666" stroke-width="0.5"></line></g><rect x="568.2049999999999" y="381.45" width="70.235" height="13.5" fill="#fff" opacity="0"></rect><text font-size="13.50" x="603.2" y="392.3" fill="#818282"><tspan x="603.2049999999999" y="392.25">World</tspan></text></g></g><g class="Lines"><rect x="53" y="92" width="516" height="430" fill="rgba(255,255,255,0)" opacity="0"></rect><g class="key-World_0"><path stroke="#818282" stroke-linecap="round" d="M53 341L83 339L113 337L144 337L174 341L204 344L235 353L265 361L295 367L326 372L356 377L386 381L417 383L447 387L477 391L508 392L538 389L568 388" fill="none" stroke-width="1.5"></path><g fill="#818282"><circle cx="53" cy="341" r="2"></circle><circle cx="83" cy="339" r="2"></circle><circle cx="113" cy="337" r="2"></circle><circle cx="144" cy="337" r="2"></circle><circle cx="174" cy="341" r="2"></circle><circle cx="204" cy="344" r="2"></circle><circle cx="235" cy="353" r="2"></circle><circle cx="265" cy="361" r="2"></circle><circle cx="295" cy="367" r="2"></circle><circle cx="326" cy="372" r="2"></circle><circle cx="356" cy="377" r="2"></circle><circle cx="386" cy="381" r="2"></circle><circle cx="417" cy="383" r="2"></circle><circle cx="447" cy="387" r="2"></circle><circle cx="477" cy="391" r="2"></circle><circle cx="508" cy="392" r="2"></circle><circle cx="538" cy="389" r="2"></circle><circle cx="568" cy="388" r="2"></circle></g></g><g class="key-Sub__002dSaharan-Africa_0"><path stroke="#3360a9" stroke-linecap="round" d="M53 174L83 180L113 188L144 195L174 212L204 224L235 234L265 237L295 241L326 248L356 256L386 261L417 265L447 268L477 268L508 263L538 249L568 238" fill="none" stroke-width="1.5"></path><g fill="#3360a9"><circle cx="53" cy="174" r="2"></circle><circle cx="83" cy="180" r="2"></circle><circle cx="113" cy="188" r="2"></circle><circle cx="144" cy="195" r="2"></circle><circle cx="174" cy="212" r="2"></circle><circle cx="204" cy="224" r="2"></circle><circle cx="235" cy="234" r="2"></circle><circle cx="265" cy="237" r="2"></circle><circle cx="295" cy="241" r="2"></circle><circle cx="326" cy="248" r="2"></circle><circle cx="356" cy="256" r="2"></circle><circle cx="386" cy="261" r="2"></circle><circle cx="417" cy="265" r="2"></circle><circle cx="447" cy="268" r="2"></circle><circle cx="477" cy="268" r="2"></circle><circle cx="508" cy="263" r="2"></circle><circle cx="538" cy="249" r="2"></circle><circle cx="568" cy="238" r="2"></circle></g></g><g class="key-Least-Developed-Countries-__0028LDCs__0029_0"><path stroke="#3360a9" stroke-linecap="round" d="M53 104L83 115L113 129L144 142L174 158L204 172L235 185L265 192L295 202L326 210L356 218L386 223L417 227L447 230L477 233L508 232L538 223L568 223" fill="none" stroke-width="1.5"></path><g fill="#3360a9"><circle cx="53" cy="104" r="2"></circle><circle cx="83" cy="115" r="2"></circle><circle cx="113" cy="129" r="2"></circle><circle cx="144" cy="142" r="2"></circle><circle cx="174" cy="158" r="2"></circle><circle cx="204" cy="172" r="2"></circle><circle cx="235" cy="185" r="2"></circle><circle cx="265" cy="192" r="2"></circle><circle cx="295" cy="202" r="2"></circle><circle cx="326" cy="210" r="2"></circle><circle cx="356" cy="218" r="2"></circle><circle cx="386" cy="223" r="2"></circle><circle cx="417" cy="227" r="2"></circle><circle cx="447" cy="230" r="2"></circle><circle cx="477" cy="233" r="2"></circle><circle cx="508" cy="232" r="2"></circle><circle cx="538" cy="223" r="2"></circle><circle cx="568" cy="223" r="2"></circle></g></g><g class="key-Low-income-economies_0"><path stroke="#3360a9" stroke-linecap="round" d="M53 92L83 101L113 109L144 122L174 139L204 151L235 162L265 167L295 174L326 183L356 192L386 195L417 197L447 197L477 194L508 189L538 177L568 175" fill="none" stroke-width="1.5"></path><g fill="#3360a9"><circle cx="53" cy="92" r="2"></circle><circle cx="83" cy="101" r="2"></circle><circle cx="113" cy="109" r="2"></circle><circle cx="144" cy="122" r="2"></circle><circle cx="174" cy="139" r="2"></circle><circle cx="204" cy="151" r="2"></circle><circle cx="235" cy="162" r="2"></circle><circle cx="265" cy="167" r="2"></circle><circle cx="295" cy="174" r="2"></circle><circle cx="326" cy="183" r="2"></circle><circle cx="356" cy="192" r="2"></circle><circle cx="386" cy="195" r="2"></circle><circle cx="417" cy="197" r="2"></circle><circle cx="447" cy="197" r="2"></circle><circle cx="477" cy="194" r="2"></circle><circle cx="508" cy="189" r="2"></circle><circle cx="538" cy="177" r="2"></circle><circle cx="568" cy="175" r="2"></circle></g></g><g class="key-Small-Island-Developing-States-__0028SIDS__0029_0"><path stroke="#3360a9" stroke-linecap="round" d="M53 256L83 263L113 256L144 254L174 254L204 265L235 273L265 277L295 279L326 289L356 299L386 304L417 304L447 304L477 306L508 309L538 312L568 316" fill="none" stroke-width="1.5"></path><g fill="#3360a9"><circle cx="53" cy="256" r="2"></circle><circle cx="83" cy="263" r="2"></circle><circle cx="113" cy="256" r="2"></circle><circle cx="144" cy="254" r="2"></circle><circle cx="174" cy="254" r="2"></circle><circle cx="204" cy="265" r="2"></circle><circle cx="235" cy="273" r="2"></circle><circle cx="265" cy="277" r="2"></circle><circle cx="295" cy="279" r="2"></circle><circle cx="326" cy="289" r="2"></circle><circle cx="356" cy="299" r="2"></circle><circle cx="386" cy="304" r="2"></circle><circle cx="417" cy="304" r="2"></circle><circle cx="447" cy="304" r="2"></circle><circle cx="477" cy="306" r="2"></circle><circle cx="508" cy="309" r="2"></circle><circle cx="538" cy="312" r="2"></circle><circle cx="568" cy="316" r="2"></circle></g></g><g class="key-Fragile_0"><path stroke="#3360a9" stroke-linecap="round" d="M53 245L83 250L113 252L144 261L174 271L204 281L235 289L265 295L295 300L326 304L356 308L386 310L417 311L447 312L477 310L508 306L538 299" fill="none" stroke-width="1.5"></path><g fill="#3360a9"><circle cx="53" cy="245" r="2"></circle><circle cx="83" cy="250" r="2"></circle><circle cx="113" cy="252" r="2"></circle><circle cx="144" cy="261" r="2"></circle><circle cx="174" cy="271" r="2"></circle><circle cx="204" cy="281" r="2"></circle><circle cx="235" cy="289" r="2"></circle><circle cx="265" cy="295" r="2"></circle><circle cx="295" cy="300" r="2"></circle><circle cx="326" cy="304" r="2"></circle><circle cx="356" cy="308" r="2"></circle><circle cx="386" cy="310" r="2"></circle><circle cx="417" cy="311" r="2"></circle><circle cx="447" cy="312" r="2"></circle><circle cx="477" cy="310" r="2"></circle><circle cx="508" cy="306" r="2"></circle><circle cx="538" cy="299" r="2"></circle></g></g><g class="key-Extreme-Fragility_0"><path stroke="#3360a9" stroke-linecap="round" d="M53 224L83 234L113 243L144 252L174 262L204 273L235 282L265 290L295 300L326 310L356 317L386 323L417 296L447 298L477 300L508 300L538 303" fill="none" stroke-width="1.5"></path><g fill="#3360a9"><circle cx="53" cy="224" r="2"></circle><circle cx="83" cy="234" r="2"></circle><circle cx="113" cy="243" r="2"></circle><circle cx="144" cy="252" r="2"></circle><circle cx="174" cy="262" r="2"></circle><circle cx="204" cy="273" r="2"></circle><circle cx="235" cy="282" r="2"></circle><circle cx="265" cy="290" r="2"></circle><circle cx="295" cy="300" r="2"></circle><circle cx="326" cy="310" r="2"></circle><circle cx="356" cy="317" r="2"></circle><circle cx="386" cy="323" r="2"></circle><circle cx="417" cy="296" r="2"></circle><circle cx="447" cy="298" r="2"></circle><circle cx="477" cy="300" r="2"></circle><circle cx="508" cy="300" r="2"></circle><circle cx="538" cy="303" r="2"></circle></g></g><g class="key-Fragile-__0028__002b-extreme-fragility__0029_0"><path stroke="#3360a9" stroke-linecap="round" d="M53 240L83 246L113 250L144 259L174 268L204 279L235 288L265 294L295 300L326 305L356 310L386 314L417 308L447 309L477 308L508 305L538 300" fill="none" stroke-width="1.5"></path><g fill="#3360a9"><circle cx="53" cy="240" r="2"></circle><circle cx="83" cy="246" r="2"></circle><circle cx="113" cy="250" r="2"></circle><circle cx="144" cy="259" r="2"></circle><circle cx="174" cy="268" r="2"></circle><circle cx="204" cy="279" r="2"></circle><circle cx="235" cy="288" r="2"></circle><circle cx="265" cy="294" r="2"></circle><circle cx="295" cy="300" r="2"></circle><circle cx="326" cy="305" r="2"></circle><circle cx="356" cy="310" r="2"></circle><circle cx="386" cy="314" r="2"></circle><circle cx="417" cy="308" r="2"></circle><circle cx="447" cy="309" r="2"></circle><circle cx="477" cy="308" r="2"></circle><circle cx="508" cy="305" r="2"></circle><circle cx="538" cy="300" r="2"></circle></g></g></g></g></g><g class="SourcesFooter" style="fill:#777"><g class="clickable" style="fill:#777"><text font-size="12.60" x="15.0" y="567.9"><tspan x="15" y="567.88">Source: Food and Agriculture Organization (FAO) of the United Nations</tspan></text></g><text font-size="12.60" x="15.0" y="582.5"><tspan x="15" y="582.48">Note: Figures for North America &amp; Europe, shown as 2.5% are &lt;2.5%.</tspan></text><text font-size="12.60" x="775.4" y="567.9"><tspan x="775.402" y="567.88"><a style="fill: #777;" class="cclogo" href="http://creativecommons.org/licenses/by-sa/4.0/deed.en_US" target="_blank">CC BY-SA</a></tspan></text></g></g></svg>