<svg xmlns="http://www.w3.org/2000/svg" version="1.1" style="font-family:&#x27;Helvetica Neue&#x27;, Helvetica, Arial, sans-serif;font-size:18px;background-color:white;text-rendering:optimizeLegibility;-webkit-font-smoothing:antialiased" width="850" height="600"><g class="ChartTab"><g class="HeaderView"><g opacity="0.8" transform="translate(778, 15) scale(0.27)"><a xmlns:xlink="http://www.w3.org/1999/xlink" xlink:href="https://ourworldindata.org" target="_blank"><g><rect x="0" y="0" fill="#1B2543" width="211.2" height="130.1"/><rect x="0" y="112.2" fill="#E63912" width="211.2" height="17.9"/><g><rect x="1.2" y="12.3" fill="none" width="210.2" height="99.2"/><path fill="#FFFFFF" d="M37.8,32.2c0,12.7-7.7,19.4-17.1,19.4c-9.7,0-16.6-7.5-16.6-18.7c0-11.7,7.3-19.3,17.1-19.3 C31.3,13.7,37.8,21.3,37.8,32.2z M9.2,32.8c0,7.9,4.3,14.9,11.8,14.9c7.5,0,11.8-6.9,11.8-15.3c0-7.3-3.8-14.9-11.8-14.9 C13.1,17.5,9.2,24.8,9.2,32.8z"/><path fill="#FFFFFF" d="M62.7,43.8c0,2.7,0.1,5.1,0.2,7.2h-4.3l-0.3-4.3h-0.1c-1.3,2.1-4,4.9-8.8,4.9c-4.2,0-9.1-2.3-9.1-11.6 V24.6h4.8v14.6c0,5,1.5,8.4,5.9,8.4c3.2,0,5.5-2.2,6.3-4.4c0.3-0.7,0.4-1.6,0.4-2.5V24.6h4.8V43.8z"/><path fill="#FFFFFF" d="M67.3,32.8c0-3.1-0.1-5.8-0.2-8.2h4.2l0.2,5.2h0.2c1.2-3.5,4.1-5.8,7.3-5.8c0.5,0,0.9,0.1,1.4,0.2v4.5 c-0.5-0.1-1-0.2-1.6-0.2c-3.4,0-5.8,2.6-6.5,6.2c-0.1,0.7-0.2,1.4-0.2,2.2V51h-4.8V32.8z"/><path fill="#FFFFFF" d="M95.4,51l-9.4-36.8h5l4.4,18.6c1.1,4.6,2.1,9.2,2.7,12.7h0.1c0.6-3.7,1.8-8,3-12.8l4.9-18.5h5l4.5,18.7 c1,4.4,2,8.7,2.6,12.6h0.1c0.8-4,1.8-8.1,3-12.7l4.9-18.5h4.9L120.6,51h-5L111,31.9c-1.1-4.7-1.9-8.3-2.4-12h-0.1 c-0.7,3.7-1.5,7.3-2.8,12L100.4,51H95.4z"/><path fill="#FFFFFF" d="M154.9,37.6c0,9.8-6.8,14-13.2,14c-7.2,0-12.7-5.2-12.7-13.6c0-8.8,5.8-14,13.1-14 C149.8,24,154.9,29.5,154.9,37.6z M133.9,37.9c0,5.8,3.3,10.1,8,10.1c4.6,0,8-4.3,8-10.3c0-4.5-2.2-10.1-7.9-10.1 C136.3,27.6,133.9,32.8,133.9,37.9z"/><path fill="#FFFFFF" d="M158.2,32.8c0-3.1-0.1-5.8-0.2-8.2h4.2l0.2,5.2h0.2c1.2-3.5,4.1-5.8,7.3-5.8c0.5,0,0.9,0.1,1.4,0.2v4.5 c-0.5-0.1-1-0.2-1.6-0.2c-3.4,0-5.8,2.6-6.5,6.2c-0.1,0.7-0.2,1.4-0.2,2.2V51h-4.8V32.8z"/><path fill="#FFFFFF" d="M173.5,12.3h4.8V51h-4.8V12.3z"/><path fill="#FFFFFF" d="M206.5,12.3v31.9c0,2.3,0.1,5,0.2,6.8h-4.3l-0.2-4.6H202c-1.5,2.9-4.7,5.2-9,5.2 c-6.4,0-11.3-5.4-11.3-13.4c-0.1-8.8,5.4-14.2,11.9-14.2c4,0,6.8,1.9,8,4h0.1V12.3H206.5z M201.7,35.4c0-0.6-0.1-1.4-0.2-2 c-0.7-3.1-3.3-5.6-6.9-5.6c-5,0-7.9,4.4-7.9,10.2c0,5.3,2.6,9.8,7.8,9.8c3.2,0,6.2-2.1,7.1-5.7c0.2-0.7,0.2-1.3,0.2-2.1V35.4z"/><path fill="#FFFFFF" d="M42.8,64c0.1,1.6-1.1,2.9-3.1,2.9c-1.7,0-2.9-1.3-2.9-2.9c0-1.7,1.3-3,3-3C41.7,61,42.8,62.3,42.8,64z M37.4,97.8V71.4h4.8v26.4H37.4z"/><path fill="#FFFFFF" d="M47.5,78.6c0-2.7-0.1-5-0.2-7.1h4.3l0.3,4.4h0.1c1.3-2.5,4.4-5,8.8-5c3.7,0,9.4,2.2,9.4,11.2v15.8h-4.8 V82.6c0-4.3-1.6-7.8-6.1-7.8c-3.2,0-5.6,2.2-6.5,4.9c-0.2,0.6-0.3,1.4-0.3,2.2v15.9h-4.8V78.6z"/><path fill="#FFFFFF" d="M84,61.6c2.9-0.4,6.3-0.8,10.1-0.8c6.8,0,11.7,1.6,14.9,4.6c3.3,3,5.2,7.3,5.2,13.2c0,6-1.9,10.9-5.3,14.3 c-3.4,3.4-9.1,5.3-16.3,5.3c-3.4,0-6.2-0.2-8.6-0.4V61.6z M88.8,94.1c1.2,0.2,3,0.3,4.8,0.3c10.2,0,15.7-5.7,15.7-15.6 c0.1-8.7-4.9-14.2-14.9-14.2c-2.5,0-4.3,0.2-5.6,0.5V94.1z"/><path fill="#FFFFFF" d="M132.1,97.8l-0.4-3.3h-0.2c-1.5,2.1-4.3,3.9-8.1,3.9c-5.4,0-8.1-3.8-8.1-7.6c0-6.4,5.7-9.9,15.9-9.8v-0.5 c0-2.2-0.6-6.1-6-6.1c-2.5,0-5,0.8-6.9,2l-1.1-3.2c2.2-1.4,5.4-2.3,8.7-2.3c8.1,0,10.1,5.5,10.1,10.8v9.9c0,2.3,0.1,4.5,0.4,6.3 H132.1z M131.4,84.4c-5.3-0.1-11.2,0.8-11.2,5.9c0,3.1,2.1,4.6,4.5,4.6c3.4,0,5.6-2.2,6.4-4.4c0.2-0.5,0.3-1,0.3-1.5V84.4z"/><path fill="#FFFFFF" d="M146.6,63.9v7.6h6.9v3.7h-6.9v14.2c0,3.3,0.9,5.1,3.6,5.1c1.3,0,2.2-0.2,2.8-0.3l0.2,3.6 c-0.9,0.4-2.4,0.7-4.3,0.7c-2.2,0-4-0.7-5.2-2c-1.4-1.4-1.9-3.8-1.9-6.9V75.1h-4.1v-3.7h4.1v-6.3L146.6,63.9z"/><path fill="#FFFFFF" d="M171.4,97.8l-0.4-3.3h-0.2c-1.5,2.1-4.3,3.9-8.1,3.9c-5.4,0-8.1-3.8-8.1-7.6c0-6.4,5.7-9.9,15.9-9.8v-0.5 c0-2.2-0.6-6.1-6-6.1c-2.5,0-5,0.8-6.9,2l-1.1-3.2c2.2-1.4,5.4-2.3,8.7-2.3c8.1,0,10.1,5.5,10.1,10.8v9.9c0,2.3,0.1,4.5,0.4,6.3 H171.4z M170.7,84.4c-5.3-0.1-11.2,0.8-11.2,5.9c0,3.1,2.1,4.6,4.5,4.6c3.4,0,5.6-2.2,6.4-4.4c0.2-0.5,0.3-1,0.3-1.5V84.4z"/></g></g></a></g><a href="https://ourworldindata.org/grapher/share-with-mental-and-substance-disorders?tab=chart" target="_blank"><text font-size="24.30" x="15.0" y="34.4" fill="#555"><tspan x="15" y="34.44">Share of population with mental health and substance use disorders</tspan></text></a><text font-size="14.40" x="15.0" y="52.8" fill="#666"><tspan x="15" y="52.81999999999999">Share of population with any mental health or substance use disorder; this includes depression, anxiety, bipolar,</tspan><tspan x="15" y="68.66">eating disorders, alcohol or drug use disorders, and schizophrenia. Due to the widespread under-diagnosis, these</tspan><tspan x="15" y="84.5">estimates use a combination of sources, including medical and national records, epidemiological data, survey data,</tspan><tspan x="15" y="100.34">and meta-regression models.</tspan></text></g><g class="LineChart"><defs><clipPath id="boundsClip-705"><rect x="42.562" y="0" width="830" height="868.6"></rect></clipPath></defs><g class="AxisBoxView"><g class="HorizontalAxis"><text x="52.6" y="556.5" fill="#666" text-anchor="middle" font-size="16.2">1990</text><text x="162.6" y="556.5" fill="#666" text-anchor="middle" font-size="16.2">1995</text><text x="272.5" y="556.5" fill="#666" text-anchor="middle" font-size="16.2">2000</text><text x="382.5" y="556.5" fill="#666" text-anchor="middle" font-size="16.2">2005</text><text x="492.5" y="556.5" fill="#666" text-anchor="middle" font-size="16.2">2010</text><text x="624.5" y="556.5" fill="#666" text-anchor="middle" font-size="16.2">2016</text></g><g class="VerticalAxis"><text x="47.56" y="535.3" fill="#666" dominant-baseline="middle" text-anchor="end" font-size="16.2">0%</text><text x="47.56" y="438.9" fill="#666" dominant-baseline="middle" text-anchor="end" font-size="16.2">5%</text><text x="47.56" y="342.6" fill="#666" dominant-baseline="middle" text-anchor="end" font-size="16.2">10%</text><text x="47.56" y="246.2" fill="#666" dominant-baseline="middle" text-anchor="end" font-size="16.2">15%</text><text x="47.56" y="149.9" fill="#666" dominant-baseline="middle" text-anchor="end" font-size="16.2">20%</text></g><g class="AxisGridLines"><line x1="52.56" y1="535.3" x2="624.50" y2="535.3" stroke="#ccc"></line><line x1="52.56" y1="438.9" x2="624.50" y2="438.9" stroke="#ddd" stroke-dasharray="3,2"></line><line x1="52.56" y1="342.6" x2="624.50" y2="342.6" stroke="#ddd" stroke-dasharray="3,2"></line><line x1="52.56" y1="246.2" x2="624.50" y2="246.2" stroke="#ddd" stroke-dasharray="3,2"></line><line x1="52.56" y1="149.9" x2="624.50" y2="149.9" stroke="#ddd" stroke-dasharray="3,2"></line></g></g><g clip-path="url(#boundsClip-705)"><g class="HeightedLegend clickable"><g class="legendMark"><g class="indicator"><line x1="629.5" y1="124.8" x2="642" y2="124.8" stroke="#666" stroke-width="0.5"></line><line x1="642" y1="124.8" x2="642" y2="124.8" stroke="#666" stroke-width="0.5"></line><line x1="642" y1="124.8" x2="654.5" y2="124.8" stroke="#666" stroke-width="0.5"></line></g><rect x="624.5" y="118.05" width="121.4" height="13.5" fill="#fff" opacity="0"></rect><text font-size="13.50" x="659.5" y="128.9" fill="#ffd53e"><tspan x="659.5" y="128.85000000000002">North America</tspan></text></g><g class="legendMark"><g class="indicator"><line x1="629.5" y1="193.9" x2="652" y2="193.9" stroke="#666" stroke-width="0.5"></line><line x1="652" y1="193.9" x2="652" y2="193.9" stroke="#666" stroke-width="0.5"></line><line x1="652" y1="193.9" x2="654.5" y2="193.9" stroke="#666" stroke-width="0.5"></line></g><rect x="624.5" y="187.15" width="132.875" height="13.5" fill="#fff" opacity="0"></rect><text font-size="13.50" x="659.5" y="198.0" fill="#9ecc8a"><tspan x="659.5" y="197.95000000000002">Western Europe</tspan></text></g><g class="legendMark"><g class="indicator"><line x1="629.5" y1="200.7" x2="649.5" y2="200.7" stroke="#666" stroke-width="0.5"></line><line x1="649.5" y1="200.7" x2="649.5" y2="209.4" stroke="#666" stroke-width="0.5"></line><line x1="649.5" y1="209.4" x2="654.5" y2="209.4" stroke="#666" stroke-width="0.5"></line></g><rect x="624.5" y="202.65" width="129.23000000000002" height="13.5" fill="#fff" opacity="0"></rect><text font-size="13.50" x="659.5" y="213.5" fill="#e6332e"><tspan x="659.5" y="213.45000000000002">Eastern Europe</tspan></text></g><g class="legendMark"><g class="indicator"><line x1="629.5" y1="204.6" x2="647" y2="204.6" stroke="#666" stroke-width="0.5"></line><line x1="647" y1="204.6" x2="647" y2="224.9" stroke="#666" stroke-width="0.5"></line><line x1="647" y1="224.9" x2="654.5" y2="224.9" stroke="#666" stroke-width="0.5"></line></g><rect x="624.5" y="218.15" width="207.395" height="13.5" fill="#fff" opacity="0"></rect><text font-size="13.50" x="659.5" y="229.0" fill="#2a939b"><tspan x="659.5" y="228.95000000000002">North Africa and Middle East</tspan></text></g><g class="legendMark"><g class="indicator"><line x1="629.5" y1="232.9" x2="644.5" y2="232.9" stroke="#666" stroke-width="0.5"></line><line x1="644.5" y1="232.9" x2="644.5" y2="240.4" stroke="#666" stroke-width="0.5"></line><line x1="644.5" y1="240.4" x2="654.5" y2="240.4" stroke="#666" stroke-width="0.5"></line></g><rect x="624.5" y="233.65" width="153.26" height="13.5" fill="#fff" opacity="0"></rect><text font-size="13.50" x="659.5" y="244.5" fill="#a652ba"><tspan x="659.5" y="244.45000000000002">Sub-Saharan Africa</tspan></text></g><g class="legendMark"><g class="indicator"><line x1="629.5" y1="237.4" x2="642" y2="237.4" stroke="#666" stroke-width="0.5"></line><line x1="642" y1="237.4" x2="642" y2="255.9" stroke="#666" stroke-width="0.5"></line><line x1="642" y1="255.9" x2="654.5" y2="255.9" stroke="#666" stroke-width="0.5"></line></g><rect x="624.5" y="249.15" width="70.235" height="13.5" fill="#fff" opacity="0"></rect><text font-size="13.50" x="659.5" y="259.9" fill="#f6a324"><tspan x="659.5" y="259.95">World</tspan></text></g><g class="legendMark"><g class="indicator"><line x1="629.5" y1="237.6" x2="639.5" y2="237.6" stroke="#666" stroke-width="0.5"></line><line x1="639.5" y1="237.6" x2="639.5" y2="271.4" stroke="#666" stroke-width="0.5"></line><line x1="639.5" y1="271.4" x2="654.5" y2="271.4" stroke="#666" stroke-width="0.5"></line></g><rect x="624.5" y="264.65" width="210.5" height="13.5" fill="#fff" opacity="0"></rect><text font-size="13.50" x="659.5" y="275.4" fill="#34983f"><tspan x="659.5" y="275.45">Latin America and Caribbean</tspan></text></g><g class="legendMark"><g class="indicator"><line x1="629.5" y1="245.9" x2="637" y2="245.9" stroke="#666" stroke-width="0.5"></line><line x1="637" y1="245.9" x2="637" y2="286.9" stroke="#666" stroke-width="0.5"></line><line x1="637" y1="286.9" x2="654.5" y2="286.9" stroke="#666" stroke-width="0.5"></line></g><rect x="624.5" y="280.15" width="100.61" height="13.5" fill="#fff" opacity="0"></rect><text font-size="13.50" x="659.5" y="290.9" fill="#ca2628"><tspan x="659.5" y="290.95">South Asia</tspan></text></g><g class="legendMark"><g class="indicator"><line x1="629.5" y1="252.1" x2="634.5" y2="252.1" stroke="#666" stroke-width="0.5"></line><line x1="634.5" y1="252.1" x2="634.5" y2="302.4" stroke="#666" stroke-width="0.5"></line><line x1="634.5" y1="302.4" x2="654.5" y2="302.4" stroke="#666" stroke-width="0.5"></line></g><rect x="624.5" y="295.65" width="92.24000000000001" height="13.5" fill="#fff" opacity="0"></rect><text font-size="13.50" x="659.5" y="306.4" fill="#3360a9"><tspan x="659.5" y="306.45">East Asia</tspan></text></g></g><g class="Lines"><rect x="53" y="122" width="572" height="413" fill="rgba(255,255,255,0)" opacity="0"></rect><g class="key-Western-Europe_0"><path stroke="#9ecc8a" stroke-linecap="round" d="M53 191L75 191L97 191L119 191L141 190L163 190L185 190L207 190L229 190L251 191L273 191L295 191L317 192L339 192L361 192L383 193L405 192L427 192L449 192L471 192L493 191L515 192L537 192L559 193L581 193L603 194L625 194" fill="none" stroke-width="1.5"></path><g fill="#9ecc8a"><circle cx="53" cy="191" r="2"></circle><circle cx="75" cy="191" r="2"></circle><circle cx="97" cy="191" r="2"></circle><circle cx="119" cy="191" r="2"></circle><circle cx="141" cy="190" r="2"></circle><circle cx="163" cy="190" r="2"></circle><circle cx="185" cy="190" r="2"></circle><circle cx="207" cy="190" r="2"></circle><circle cx="229" cy="190" r="2"></circle><circle cx="251" cy="191" r="2"></circle><circle cx="273" cy="191" r="2"></circle><circle cx="295" cy="191" r="2"></circle><circle cx="317" cy="192" r="2"></circle><circle cx="339" cy="192" r="2"></circle><circle cx="361" cy="192" r="2"></circle><circle cx="383" cy="193" r="2"></circle><circle cx="405" cy="192" r="2"></circle><circle cx="427" cy="192" r="2"></circle><circle cx="449" cy="192" r="2"></circle><circle cx="471" cy="192" r="2"></circle><circle cx="493" cy="191" r="2"></circle><circle cx="515" cy="192" r="2"></circle><circle cx="537" cy="192" r="2"></circle><circle cx="559" cy="193" r="2"></circle><circle cx="581" cy="193" r="2"></circle><circle cx="603" cy="194" r="2"></circle><circle cx="625" cy="194" r="2"></circle></g></g><g class="key-Eastern-Europe_0"><path stroke="#e6332e" stroke-linecap="round" d="M53 198L75 197L97 195L119 194L141 192L163 190L185 190L207 189L229 188L251 188L273 187L295 188L317 188L339 189L361 189L383 190L405 191L427 193L449 194L471 195L493 196L515 197L537 198L559 199L581 199L603 200L625 201" fill="none" stroke-width="1.5"></path><g fill="#e6332e"><circle cx="53" cy="198" r="2"></circle><circle cx="75" cy="197" r="2"></circle><circle cx="97" cy="195" r="2"></circle><circle cx="119" cy="194" r="2"></circle><circle cx="141" cy="192" r="2"></circle><circle cx="163" cy="190" r="2"></circle><circle cx="185" cy="190" r="2"></circle><circle cx="207" cy="189" r="2"></circle><circle cx="229" cy="188" r="2"></circle><circle cx="251" cy="188" r="2"></circle><circle cx="273" cy="187" r="2"></circle><circle cx="295" cy="188" r="2"></circle><circle cx="317" cy="188" r="2"></circle><circle cx="339" cy="189" r="2"></circle><circle cx="361" cy="189" r="2"></circle><circle cx="383" cy="190" r="2"></circle><circle cx="405" cy="191" r="2"></circle><circle cx="427" cy="193" r="2"></circle><circle cx="449" cy="194" r="2"></circle><circle cx="471" cy="195" r="2"></circle><circle cx="493" cy="196" r="2"></circle><circle cx="515" cy="197" r="2"></circle><circle cx="537" cy="198" r="2"></circle><circle cx="559" cy="199" r="2"></circle><circle cx="581" cy="199" r="2"></circle><circle cx="603" cy="200" r="2"></circle><circle cx="625" cy="201" r="2"></circle></g></g><g class="key-North-America_0"><path stroke="#ffd53e" stroke-linecap="round" d="M53 131L75 131L97 131L119 131L141 131L163 131L185 129L207 128L229 126L251 124L273 122L295 122L317 122L339 123L361 123L383 123L405 124L427 124L449 125L471 126L493 126L515 126L537 126L559 125L581 125L603 125L625 125" fill="none" stroke-width="1.5"></path><g fill="#ffd53e"><circle cx="53" cy="131" r="2"></circle><circle cx="75" cy="131" r="2"></circle><circle cx="97" cy="131" r="2"></circle><circle cx="119" cy="131" r="2"></circle><circle cx="141" cy="131" r="2"></circle><circle cx="163" cy="131" r="2"></circle><circle cx="185" cy="129" r="2"></circle><circle cx="207" cy="128" r="2"></circle><circle cx="229" cy="126" r="2"></circle><circle cx="251" cy="124" r="2"></circle><circle cx="273" cy="122" r="2"></circle><circle cx="295" cy="122" r="2"></circle><circle cx="317" cy="122" r="2"></circle><circle cx="339" cy="123" r="2"></circle><circle cx="361" cy="123" r="2"></circle><circle cx="383" cy="123" r="2"></circle><circle cx="405" cy="124" r="2"></circle><circle cx="427" cy="124" r="2"></circle><circle cx="449" cy="125" r="2"></circle><circle cx="471" cy="126" r="2"></circle><circle cx="493" cy="126" r="2"></circle><circle cx="515" cy="126" r="2"></circle><circle cx="537" cy="126" r="2"></circle><circle cx="559" cy="125" r="2"></circle><circle cx="581" cy="125" r="2"></circle><circle cx="603" cy="125" r="2"></circle><circle cx="625" cy="125" r="2"></circle></g></g><g class="key-Latin-America-and-Caribbean_0"><path stroke="#34983f" stroke-linecap="round" d="M53 241L75 241L97 241L119 241L141 241L163 240L185 238L207 236L229 234L251 232L273 230L295 230L317 229L339 229L361 228L383 228L405 229L427 231L449 232L471 233L493 234L515 235L537 235L559 236L581 237L603 237L625 238" fill="none" stroke-width="1.5"></path><g fill="#34983f"><circle cx="53" cy="241" r="2"></circle><circle cx="75" cy="241" r="2"></circle><circle cx="97" cy="241" r="2"></circle><circle cx="119" cy="241" r="2"></circle><circle cx="141" cy="241" r="2"></circle><circle cx="163" cy="240" r="2"></circle><circle cx="185" cy="238" r="2"></circle><circle cx="207" cy="236" r="2"></circle><circle cx="229" cy="234" r="2"></circle><circle cx="251" cy="232" r="2"></circle><circle cx="273" cy="230" r="2"></circle><circle cx="295" cy="230" r="2"></circle><circle cx="317" cy="229" r="2"></circle><circle cx="339" cy="229" r="2"></circle><circle cx="361" cy="228" r="2"></circle><circle cx="383" cy="228" r="2"></circle><circle cx="405" cy="229" r="2"></circle><circle cx="427" cy="231" r="2"></circle><circle cx="449" cy="232" r="2"></circle><circle cx="471" cy="233" r="2"></circle><circle cx="493" cy="234" r="2"></circle><circle cx="515" cy="235" r="2"></circle><circle cx="537" cy="235" r="2"></circle><circle cx="559" cy="236" r="2"></circle><circle cx="581" cy="237" r="2"></circle><circle cx="603" cy="237" r="2"></circle><circle cx="625" cy="238" r="2"></circle></g></g><g class="key-Sub__002dSaharan-Africa_0"><path stroke="#a652ba" stroke-linecap="round" d="M53 229L75 229L97 228L119 228L141 228L163 228L185 228L207 228L229 228L251 228L273 227L295 228L317 228L339 228L361 228L383 229L405 229L427 229L449 230L471 230L493 230L515 231L537 231L559 232L581 232L603 233L625 233" fill="none" stroke-width="1.5"></path><g fill="#a652ba"><circle cx="53" cy="229" r="2"></circle><circle cx="75" cy="229" r="2"></circle><circle cx="97" cy="228" r="2"></circle><circle cx="119" cy="228" r="2"></circle><circle cx="141" cy="228" r="2"></circle><circle cx="163" cy="228" r="2"></circle><circle cx="185" cy="228" r="2"></circle><circle cx="207" cy="228" r="2"></circle><circle cx="229" cy="228" r="2"></circle><circle cx="251" cy="228" r="2"></circle><circle cx="273" cy="227" r="2"></circle><circle cx="295" cy="228" r="2"></circle><circle cx="317" cy="228" r="2"></circle><circle cx="339" cy="228" r="2"></circle><circle cx="361" cy="228" r="2"></circle><circle cx="383" cy="229" r="2"></circle><circle cx="405" cy="229" r="2"></circle><circle cx="427" cy="229" r="2"></circle><circle cx="449" cy="230" r="2"></circle><circle cx="471" cy="230" r="2"></circle><circle cx="493" cy="230" r="2"></circle><circle cx="515" cy="231" r="2"></circle><circle cx="537" cy="231" r="2"></circle><circle cx="559" cy="232" r="2"></circle><circle cx="581" cy="232" r="2"></circle><circle cx="603" cy="233" r="2"></circle><circle cx="625" cy="233" r="2"></circle></g></g><g class="key-North-Africa-and-Middle-East_0"><path stroke="#2a939b" stroke-linecap="round" d="M53 206L75 206L97 206L119 206L141 206L163 206L185 206L207 206L229 206L251 205L273 205L295 205L317 205L339 205L361 205L383 205L405 205L427 205L449 205L471 205L493 205L515 205L537 205L559 205L581 205L603 205L625 205" fill="none" stroke-width="1.5"></path><g fill="#2a939b"><circle cx="53" cy="206" r="2"></circle><circle cx="75" cy="206" r="2"></circle><circle cx="97" cy="206" r="2"></circle><circle cx="119" cy="206" r="2"></circle><circle cx="141" cy="206" r="2"></circle><circle cx="163" cy="206" r="2"></circle><circle cx="185" cy="206" r="2"></circle><circle cx="207" cy="206" r="2"></circle><circle cx="229" cy="206" r="2"></circle><circle cx="251" cy="205" r="2"></circle><circle cx="273" cy="205" r="2"></circle><circle cx="295" cy="205" r="2"></circle><circle cx="317" cy="205" r="2"></circle><circle cx="339" cy="205" r="2"></circle><circle cx="361" cy="205" r="2"></circle><circle cx="383" cy="205" r="2"></circle><circle cx="405" cy="205" r="2"></circle><circle cx="427" cy="205" r="2"></circle><circle cx="449" cy="205" r="2"></circle><circle cx="471" cy="205" r="2"></circle><circle cx="493" cy="205" r="2"></circle><circle cx="515" cy="205" r="2"></circle><circle cx="537" cy="205" r="2"></circle><circle cx="559" cy="205" r="2"></circle><circle cx="581" cy="205" r="2"></circle><circle cx="603" cy="205" r="2"></circle><circle cx="625" cy="205" r="2"></circle></g></g><g class="key-World_0"><path stroke="#f6a324" stroke-linecap="round" d="M53 235L75 234L97 234L119 234L141 233L163 233L185 233L207 233L229 232L251 232L273 232L295 232L317 232L339 233L361 233L383 233L405 234L427 234L449 235L471 235L493 236L515 236L537 236L559 237L581 237L603 237L625 237" fill="none" stroke-width="1.5"></path><g fill="#f6a324"><circle cx="53" cy="235" r="2"></circle><circle cx="75" cy="234" r="2"></circle><circle cx="97" cy="234" r="2"></circle><circle cx="119" cy="234" r="2"></circle><circle cx="141" cy="233" r="2"></circle><circle cx="163" cy="233" r="2"></circle><circle cx="185" cy="233" r="2"></circle><circle cx="207" cy="233" r="2"></circle><circle cx="229" cy="232" r="2"></circle><circle cx="251" cy="232" r="2"></circle><circle cx="273" cy="232" r="2"></circle><circle cx="295" cy="232" r="2"></circle><circle cx="317" cy="232" r="2"></circle><circle cx="339" cy="233" r="2"></circle><circle cx="361" cy="233" r="2"></circle><circle cx="383" cy="233" r="2"></circle><circle cx="405" cy="234" r="2"></circle><circle cx="427" cy="234" r="2"></circle><circle cx="449" cy="235" r="2"></circle><circle cx="471" cy="235" r="2"></circle><circle cx="493" cy="236" r="2"></circle><circle cx="515" cy="236" r="2"></circle><circle cx="537" cy="236" r="2"></circle><circle cx="559" cy="237" r="2"></circle><circle cx="581" cy="237" r="2"></circle><circle cx="603" cy="237" r="2"></circle><circle cx="625" cy="237" r="2"></circle></g></g><g class="key-East-Asia_0"><path stroke="#3360a9" stroke-linecap="round" d="M53 254L75 252L97 251L119 250L141 249L163 248L185 248L207 247L229 246L251 246L273 245L295 246L317 247L339 247L361 248L383 249L405 248L427 248L449 248L471 247L493 247L515 248L537 249L559 250L581 251L603 251L625 252" fill="none" stroke-width="1.5"></path><g fill="#3360a9"><circle cx="53" cy="254" r="2"></circle><circle cx="75" cy="252" r="2"></circle><circle cx="97" cy="251" r="2"></circle><circle cx="119" cy="250" r="2"></circle><circle cx="141" cy="249" r="2"></circle><circle cx="163" cy="248" r="2"></circle><circle cx="185" cy="248" r="2"></circle><circle cx="207" cy="247" r="2"></circle><circle cx="229" cy="246" r="2"></circle><circle cx="251" cy="246" r="2"></circle><circle cx="273" cy="245" r="2"></circle><circle cx="295" cy="246" r="2"></circle><circle cx="317" cy="247" r="2"></circle><circle cx="339" cy="247" r="2"></circle><circle cx="361" cy="248" r="2"></circle><circle cx="383" cy="249" r="2"></circle><circle cx="405" cy="248" r="2"></circle><circle cx="427" cy="248" r="2"></circle><circle cx="449" cy="248" r="2"></circle><circle cx="471" cy="247" r="2"></circle><circle cx="493" cy="247" r="2"></circle><circle cx="515" cy="248" r="2"></circle><circle cx="537" cy="249" r="2"></circle><circle cx="559" cy="250" r="2"></circle><circle cx="581" cy="251" r="2"></circle><circle cx="603" cy="251" r="2"></circle><circle cx="625" cy="252" r="2"></circle></g></g><g class="key-South-Asia_0"><path stroke="#ca2628" stroke-linecap="round" d="M53 236L75 236L97 237L119 236L141 236L163 236L185 236L207 236L229 236L251 235L273 235L295 235L317 235L339 234L361 234L383 234L405 236L427 238L449 240L471 242L493 244L515 244L537 245L559 245L581 245L603 246L625 246" fill="none" stroke-width="1.5"></path><g fill="#ca2628"><circle cx="53" cy="236" r="2"></circle><circle cx="75" cy="236" r="2"></circle><circle cx="97" cy="237" r="2"></circle><circle cx="119" cy="236" r="2"></circle><circle cx="141" cy="236" r="2"></circle><circle cx="163" cy="236" r="2"></circle><circle cx="185" cy="236" r="2"></circle><circle cx="207" cy="236" r="2"></circle><circle cx="229" cy="236" r="2"></circle><circle cx="251" cy="235" r="2"></circle><circle cx="273" cy="235" r="2"></circle><circle cx="295" cy="235" r="2"></circle><circle cx="317" cy="235" r="2"></circle><circle cx="339" cy="234" r="2"></circle><circle cx="361" cy="234" r="2"></circle><circle cx="383" cy="234" r="2"></circle><circle cx="405" cy="236" r="2"></circle><circle cx="427" cy="238" r="2"></circle><circle cx="449" cy="240" r="2"></circle><circle cx="471" cy="242" r="2"></circle><circle cx="493" cy="244" r="2"></circle><circle cx="515" cy="244" r="2"></circle><circle cx="537" cy="245" r="2"></circle><circle cx="559" cy="245" r="2"></circle><circle cx="581" cy="245" r="2"></circle><circle cx="603" cy="246" r="2"></circle><circle cx="625" cy="246" r="2"></circle></g></g></g></g></g><g class="SourcesFooter" style="fill:#777"><g class="clickable" style="fill:#777"><text font-size="12.60" x="15.0" y="581.6"><tspan x="15" y="581.58">Source: IHME, Global Burden of Disease</tspan></text></g><text font-size="12.60" x="775.4" y="581.6"><tspan x="775.402" y="581.58"><a style="fill: #777;" class="cclogo" href="http://creativecommons.org/licenses/by-sa/4.0/deed.en_US" target="_blank">CC BY-SA</a></tspan></text></g></g></svg>