<svg xmlns="http://www.w3.org/2000/svg" version="1.1" style="font-family:&#x27;Helvetica Neue&#x27;, Helvetica, Arial, sans-serif;font-size:18px;background-color:white;text-rendering:optimizeLegibility;-webkit-font-smoothing:antialiased" width="850" height="600"><g class="ChartTab"><g class="HeaderView"><g opacity="0.8" transform="translate(778, 15) scale(0.27)"><a xmlns:xlink="http://www.w3.org/1999/xlink" xlink:href="https://ourworldindata.org" target="_blank"><g><rect x="0" y="0" fill="#1B2543" width="211.2" height="130.1"/><rect x="0" y="112.2" fill="#E63912" width="211.2" height="17.9"/><g><rect x="1.2" y="12.3" fill="none" width="210.2" height="99.2"/><path fill="#FFFFFF" d="M37.8,32.2c0,12.7-7.7,19.4-17.1,19.4c-9.7,0-16.6-7.5-16.6-18.7c0-11.7,7.3-19.3,17.1-19.3 C31.3,13.7,37.8,21.3,37.8,32.2z M9.2,32.8c0,7.9,4.3,14.9,11.8,14.9c7.5,0,11.8-6.9,11.8-15.3c0-7.3-3.8-14.9-11.8-14.9 C13.1,17.5,9.2,24.8,9.2,32.8z"/><path fill="#FFFFFF" d="M62.7,43.8c0,2.7,0.1,5.1,0.2,7.2h-4.3l-0.3-4.3h-0.1c-1.3,2.1-4,4.9-8.8,4.9c-4.2,0-9.1-2.3-9.1-11.6 V24.6h4.8v14.6c0,5,1.5,8.4,5.9,8.4c3.2,0,5.5-2.2,6.3-4.4c0.3-0.7,0.4-1.6,0.4-2.5V24.6h4.8V43.8z"/><path fill="#FFFFFF" d="M67.3,32.8c0-3.1-0.1-5.8-0.2-8.2h4.2l0.2,5.2h0.2c1.2-3.5,4.1-5.8,7.3-5.8c0.5,0,0.9,0.1,1.4,0.2v4.5 c-0.5-0.1-1-0.2-1.6-0.2c-3.4,0-5.8,2.6-6.5,6.2c-0.1,0.7-0.2,1.4-0.2,2.2V51h-4.8V32.8z"/><path fill="#FFFFFF" d="M95.4,51l-9.4-36.8h5l4.4,18.6c1.1,4.6,2.1,9.2,2.7,12.7h0.1c0.6-3.7,1.8-8,3-12.8l4.9-18.5h5l4.5,18.7 c1,4.4,2,8.7,2.6,12.6h0.1c0.8-4,1.8-8.1,3-12.7l4.9-18.5h4.9L120.6,51h-5L111,31.9c-1.1-4.7-1.9-8.3-2.4-12h-0.1 c-0.7,3.7-1.5,7.3-2.8,12L100.4,51H95.4z"/><path fill="#FFFFFF" d="M154.9,37.6c0,9.8-6.8,14-13.2,14c-7.2,0-12.7-5.2-12.7-13.6c0-8.8,5.8-14,13.1-14 C149.8,24,154.9,29.5,154.9,37.6z M133.9,37.9c0,5.8,3.3,10.1,8,10.1c4.6,0,8-4.3,8-10.3c0-4.5-2.2-10.1-7.9-10.1 C136.3,27.6,133.9,32.8,133.9,37.9z"/><path fill="#FFFFFF" d="M158.2,32.8c0-3.1-0.1-5.8-0.2-8.2h4.2l0.2,5.2h0.2c1.2-3.5,4.1-5.8,7.3-5.8c0.5,0,0.9,0.1,1.4,0.2v4.5 c-0.5-0.1-1-0.2-1.6-0.2c-3.4,0-5.8,2.6-6.5,6.2c-0.1,0.7-0.2,1.4-0.2,2.2V51h-4.8V32.8z"/><path fill="#FFFFFF" d="M173.5,12.3h4.8V51h-4.8V12.3z"/><path fill="#FFFFFF" d="M206.5,12.3v31.9c0,2.3,0.1,5,0.2,6.8h-4.3l-0.2-4.6H202c-1.5,2.9-4.7,5.2-9,5.2 c-6.4,0-11.3-5.4-11.3-13.4c-0.1-8.8,5.4-14.2,11.9-14.2c4,0,6.8,1.9,8,4h0.1V12.3H206.5z M201.7,35.4c0-0.6-0.1-1.4-0.2-2 c-0.7-3.1-3.3-5.6-6.9-5.6c-5,0-7.9,4.4-7.9,10.2c0,5.3,2.6,9.8,7.8,9.8c3.2,0,6.2-2.1,7.1-5.7c0.2-0.7,0.2-1.3,0.2-2.1V35.4z"/><path fill="#FFFFFF" d="M42.8,64c0.1,1.6-1.1,2.9-3.1,2.9c-1.7,0-2.9-1.3-2.9-2.9c0-1.7,1.3-3,3-3C41.7,61,42.8,62.3,42.8,64z M37.4,97.8V71.4h4.8v26.4H37.4z"/><path fill="#FFFFFF" d="M47.5,78.6c0-2.7-0.1-5-0.2-7.1h4.3l0.3,4.4h0.1c1.3-2.5,4.4-5,8.8-5c3.7,0,9.4,2.2,9.4,11.2v15.8h-4.8 V82.6c0-4.3-1.6-7.8-6.1-7.8c-3.2,0-5.6,2.2-6.5,4.9c-0.2,0.6-0.3,1.4-0.3,2.2v15.9h-4.8V78.6z"/><path fill="#FFFFFF" d="M84,61.6c2.9-0.4,6.3-0.8,10.1-0.8c6.8,0,11.7,1.6,14.9,4.6c3.3,3,5.2,7.3,5.2,13.2c0,6-1.9,10.9-5.3,14.3 c-3.4,3.4-9.1,5.3-16.3,5.3c-3.4,0-6.2-0.2-8.6-0.4V61.6z M88.8,94.1c1.2,0.2,3,0.3,4.8,0.3c10.2,0,15.7-5.7,15.7-15.6 c0.1-8.7-4.9-14.2-14.9-14.2c-2.5,0-4.3,0.2-5.6,0.5V94.1z"/><path fill="#FFFFFF" d="M132.1,97.8l-0.4-3.3h-0.2c-1.5,2.1-4.3,3.9-8.1,3.9c-5.4,0-8.1-3.8-8.1-7.6c0-6.4,5.7-9.9,15.9-9.8v-0.5 c0-2.2-0.6-6.1-6-6.1c-2.5,0-5,0.8-6.9,2l-1.1-3.2c2.2-1.4,5.4-2.3,8.7-2.3c8.1,0,10.1,5.5,10.1,10.8v9.9c0,2.3,0.1,4.5,0.4,6.3 H132.1z M131.4,84.4c-5.3-0.1-11.2,0.8-11.2,5.9c0,3.1,2.1,4.6,4.5,4.6c3.4,0,5.6-2.2,6.4-4.4c0.2-0.5,0.3-1,0.3-1.5V84.4z"/><path fill="#FFFFFF" d="M146.6,63.9v7.6h6.9v3.7h-6.9v14.2c0,3.3,0.9,5.1,3.6,5.1c1.3,0,2.2-0.2,2.8-0.3l0.2,3.6 c-0.9,0.4-2.4,0.7-4.3,0.7c-2.2,0-4-0.7-5.2-2c-1.4-1.4-1.9-3.8-1.9-6.9V75.1h-4.1v-3.7h4.1v-6.3L146.6,63.9z"/><path fill="#FFFFFF" d="M171.4,97.8l-0.4-3.3h-0.2c-1.5,2.1-4.3,3.9-8.1,3.9c-5.4,0-8.1-3.8-8.1-7.6c0-6.4,5.7-9.9,15.9-9.8v-0.5 c0-2.2-0.6-6.1-6-6.1c-2.5,0-5,0.8-6.9,2l-1.1-3.2c2.2-1.4,5.4-2.3,8.7-2.3c8.1,0,10.1,5.5,10.1,10.8v9.9c0,2.3,0.1,4.5,0.4,6.3 H171.4z M170.7,84.4c-5.3-0.1-11.2,0.8-11.2,5.9c0,3.1,2.1,4.6,4.5,4.6c3.4,0,5.6-2.2,6.4-4.4c0.2-0.5,0.3-1,0.3-1.5V84.4z"/></g></g></a></g><a href="https://ourworldindata.org/grapher/share-of-females-defined-as-overweight?tab=chart" target="_blank"><text font-size="25.20" x="15.0" y="35.2" fill="#555"><tspan x="15" y="35.160000000000004">Share of females defined as overweight</tspan></text></a><text font-size="14.40" x="15.0" y="53.7" fill="#666"><tspan x="15" y="53.72">The percentage of adult females (aged 18+ years) who are defined as overweight. An adult is defined as overweight if</tspan><tspan x="15" y="69.56">their body-mass index (BMI) is greater than 25. Body mass index is a person&#x27;s weight in kilograms (kg) divided by her</tspan><tspan x="15" y="85.4">height in metres squared.</tspan></text></g><g class="LineChart"><defs><clipPath id="boundsClip-325"><rect x="42.562" y="0" width="830" height="897.8"></rect></clipPath></defs><g class="AxisBoxView"><g class="HorizontalAxis"><text x="52.6" y="556.5" fill="#666" text-anchor="middle" font-size="16.2">1975</text><text x="130.5" y="556.5" fill="#666" text-anchor="middle" font-size="16.2">1980</text><text x="208.4" y="556.5" fill="#666" text-anchor="middle" font-size="16.2">1985</text><text x="286.3" y="556.5" fill="#666" text-anchor="middle" font-size="16.2">1990</text><text x="364.2" y="556.5" fill="#666" text-anchor="middle" font-size="16.2">1995</text><text x="442.1" y="556.5" fill="#666" text-anchor="middle" font-size="16.2">2000</text><text x="520" y="556.5" fill="#666" text-anchor="middle" font-size="16.2">2005</text><text x="598" y="556.5" fill="#666" text-anchor="middle" font-size="16.2">2010</text><text x="691.5" y="556.5" fill="#666" text-anchor="middle" font-size="16.2">2016</text></g><g class="VerticalAxis"><text x="47.56" y="535.3" fill="#666" dominant-baseline="middle" text-anchor="end" font-size="16.2">0%</text><text x="47.56" y="462.2" fill="#666" dominant-baseline="middle" text-anchor="end" font-size="16.2">10%</text><text x="47.56" y="389.1" fill="#666" dominant-baseline="middle" text-anchor="end" font-size="16.2">20%</text><text x="47.56" y="316" fill="#666" dominant-baseline="middle" text-anchor="end" font-size="16.2">30%</text><text x="47.56" y="242.9" fill="#666" dominant-baseline="middle" text-anchor="end" font-size="16.2">40%</text><text x="47.56" y="169.7" fill="#666" dominant-baseline="middle" text-anchor="end" font-size="16.2">50%</text></g><g class="AxisGridLines"><line x1="52.56" y1="535.3" x2="691.46" y2="535.3" stroke="#ccc"></line><line x1="52.56" y1="462.2" x2="691.46" y2="462.2" stroke="#ddd" stroke-dasharray="3,2"></line><line x1="52.56" y1="389.1" x2="691.46" y2="389.1" stroke="#ddd" stroke-dasharray="3,2"></line><line x1="52.56" y1="316" x2="691.46" y2="316" stroke="#ddd" stroke-dasharray="3,2"></line><line x1="52.56" y1="242.9" x2="691.46" y2="242.9" stroke="#ddd" stroke-dasharray="3,2"></line><line x1="52.56" y1="169.7" x2="691.46" y2="169.7" stroke="#ddd" stroke-dasharray="3,2"></line></g></g><g clip-path="url(#boundsClip-325)"><g class="HeightedLegend clickable"><g class="legendMark"><rect x="691.46" y="100.85" width="82.52000000000001" height="13.5" fill="#fff" opacity="0"></rect><text font-size="13.50" x="696.5" y="111.6" fill="#2a939b"><tspan x="696.46" y="111.64999999999999">Canada</tspan></text></g><g class="legendMark"><rect x="691.46" y="133.05" width="69.695" height="13.5" fill="#fff" opacity="0"></rect><text font-size="13.50" x="696.5" y="143.9" fill="#a652ba"><tspan x="696.46" y="143.85000000000002">Spain</tspan></text></g><g class="legendMark"><rect x="691.46" y="173.95" width="90.62" height="13.5" fill="#fff" opacity="0"></rect><text font-size="13.50" x="696.5" y="184.8" fill="#f6a324"><tspan x="696.46" y="184.75">Germany</tspan></text></g><g class="legendMark"><rect x="691.46" y="269.05" width="143.54000000000002" height="13.5" fill="#fff" opacity="0"></rect><text font-size="13.50" x="696.5" y="279.9" fill="#34983f"><tspan x="696.46" y="279.85">Equatorial Guinea</tspan></text></g><g class="legendMark"><rect x="691.46" y="308.45" width="70.37" height="13.5" fill="#fff" opacity="0"></rect><text font-size="13.50" x="696.5" y="319.3" fill="#ca2628"><tspan x="696.46" y="319.25">China</tspan></text></g><g class="legendMark"><rect x="691.46" y="370.65" width="64.43" height="13.5" fill="#fff" opacity="0"></rect><text font-size="13.50" x="696.5" y="381.4" fill="#3360a9"><tspan x="696.46" y="381.45">India</tspan></text></g></g><g class="Lines"><rect x="53" y="108" width="639" height="428" fill="rgba(255,255,255,0)" opacity="0"></rect><g class="key-Equatorial-Guinea_0"><path stroke="#34983f" stroke-linecap="round" d="M53 437L68 435L84 433L99 431L115 428L131 426L146 423L162 420L177 417L193 414L208 411L224 407L240 404L255 399L271 396L286 391L302 386L318 382L333 377L349 372L364 367L380 363L395 358L411 354L427 350L442 346L458 342L473 338L489 334L505 330L520 326L536 322L551 317L567 313L582 309L598 304L614 300L629 296L645 290L660 286L676 281L692 276" fill="none" stroke-width="1.5"></path><g fill="#34983f"><circle cx="53" cy="437" r="2"></circle><circle cx="68" cy="435" r="2"></circle><circle cx="84" cy="433" r="2"></circle><circle cx="99" cy="431" r="2"></circle><circle cx="115" cy="428" r="2"></circle><circle cx="131" cy="426" r="2"></circle><circle cx="146" cy="423" r="2"></circle><circle cx="162" cy="420" r="2"></circle><circle cx="177" cy="417" r="2"></circle><circle cx="193" cy="414" r="2"></circle><circle cx="208" cy="411" r="2"></circle><circle cx="224" cy="407" r="2"></circle><circle cx="240" cy="404" r="2"></circle><circle cx="255" cy="399" r="2"></circle><circle cx="271" cy="396" r="2"></circle><circle cx="286" cy="391" r="2"></circle><circle cx="302" cy="386" r="2"></circle><circle cx="318" cy="382" r="2"></circle><circle cx="333" cy="377" r="2"></circle><circle cx="349" cy="372" r="2"></circle><circle cx="364" cy="367" r="2"></circle><circle cx="380" cy="363" r="2"></circle><circle cx="395" cy="358" r="2"></circle><circle cx="411" cy="354" r="2"></circle><circle cx="427" cy="350" r="2"></circle><circle cx="442" cy="346" r="2"></circle><circle cx="458" cy="342" r="2"></circle><circle cx="473" cy="338" r="2"></circle><circle cx="489" cy="334" r="2"></circle><circle cx="505" cy="330" r="2"></circle><circle cx="520" cy="326" r="2"></circle><circle cx="536" cy="322" r="2"></circle><circle cx="551" cy="317" r="2"></circle><circle cx="567" cy="313" r="2"></circle><circle cx="582" cy="309" r="2"></circle><circle cx="598" cy="304" r="2"></circle><circle cx="614" cy="300" r="2"></circle><circle cx="629" cy="296" r="2"></circle><circle cx="645" cy="290" r="2"></circle><circle cx="660" cy="286" r="2"></circle><circle cx="676" cy="281" r="2"></circle><circle cx="692" cy="276" r="2"></circle></g></g><g class="key-Germany_0"><path stroke="#f6a324" stroke-linecap="round" d="M53 285L68 282L84 280L99 278L115 275L131 273L146 270L162 268L177 266L193 263L208 260L224 258L240 255L255 252L271 249L286 246L302 244L318 241L333 238L349 235L364 232L380 229L395 226L411 224L427 221L442 219L458 216L473 214L489 211L505 209L520 206L536 204L551 202L567 200L582 198L598 195L614 192L629 190L645 188L660 186L676 184L692 181" fill="none" stroke-width="1.5"></path><g fill="#f6a324"><circle cx="53" cy="285" r="2"></circle><circle cx="68" cy="282" r="2"></circle><circle cx="84" cy="280" r="2"></circle><circle cx="99" cy="278" r="2"></circle><circle cx="115" cy="275" r="2"></circle><circle cx="131" cy="273" r="2"></circle><circle cx="146" cy="270" r="2"></circle><circle cx="162" cy="268" r="2"></circle><circle cx="177" cy="266" r="2"></circle><circle cx="193" cy="263" r="2"></circle><circle cx="208" cy="260" r="2"></circle><circle cx="224" cy="258" r="2"></circle><circle cx="240" cy="255" r="2"></circle><circle cx="255" cy="252" r="2"></circle><circle cx="271" cy="249" r="2"></circle><circle cx="286" cy="246" r="2"></circle><circle cx="302" cy="244" r="2"></circle><circle cx="318" cy="241" r="2"></circle><circle cx="333" cy="238" r="2"></circle><circle cx="349" cy="235" r="2"></circle><circle cx="364" cy="232" r="2"></circle><circle cx="380" cy="229" r="2"></circle><circle cx="395" cy="226" r="2"></circle><circle cx="411" cy="224" r="2"></circle><circle cx="427" cy="221" r="2"></circle><circle cx="442" cy="219" r="2"></circle><circle cx="458" cy="216" r="2"></circle><circle cx="473" cy="214" r="2"></circle><circle cx="489" cy="211" r="2"></circle><circle cx="505" cy="209" r="2"></circle><circle cx="520" cy="206" r="2"></circle><circle cx="536" cy="204" r="2"></circle><circle cx="551" cy="202" r="2"></circle><circle cx="567" cy="200" r="2"></circle><circle cx="582" cy="198" r="2"></circle><circle cx="598" cy="195" r="2"></circle><circle cx="614" cy="192" r="2"></circle><circle cx="629" cy="190" r="2"></circle><circle cx="645" cy="188" r="2"></circle><circle cx="660" cy="186" r="2"></circle><circle cx="676" cy="184" r="2"></circle><circle cx="692" cy="181" r="2"></circle></g></g><g class="key-China_0"><path stroke="#ca2628" stroke-linecap="round" d="M53 456L68 454L84 452L99 450L115 448L131 445L146 442L162 440L177 437L193 434L208 431L224 428L240 424L255 421L271 418L286 415L302 412L318 409L333 405L349 402L364 399L380 395L395 391L411 388L427 385L442 381L458 377L473 374L489 369L505 366L520 361L536 357L551 353L567 349L582 345L598 340L614 336L629 332L645 328L660 323L676 320L692 315" fill="none" stroke-width="1.5"></path><g fill="#ca2628"><circle cx="53" cy="456" r="2"></circle><circle cx="68" cy="454" r="2"></circle><circle cx="84" cy="452" r="2"></circle><circle cx="99" cy="450" r="2"></circle><circle cx="115" cy="448" r="2"></circle><circle cx="131" cy="445" r="2"></circle><circle cx="146" cy="442" r="2"></circle><circle cx="162" cy="440" r="2"></circle><circle cx="177" cy="437" r="2"></circle><circle cx="193" cy="434" r="2"></circle><circle cx="208" cy="431" r="2"></circle><circle cx="224" cy="428" r="2"></circle><circle cx="240" cy="424" r="2"></circle><circle cx="255" cy="421" r="2"></circle><circle cx="271" cy="418" r="2"></circle><circle cx="286" cy="415" r="2"></circle><circle cx="302" cy="412" r="2"></circle><circle cx="318" cy="409" r="2"></circle><circle cx="333" cy="405" r="2"></circle><circle cx="349" cy="402" r="2"></circle><circle cx="364" cy="399" r="2"></circle><circle cx="380" cy="395" r="2"></circle><circle cx="395" cy="391" r="2"></circle><circle cx="411" cy="388" r="2"></circle><circle cx="427" cy="385" r="2"></circle><circle cx="442" cy="381" r="2"></circle><circle cx="458" cy="377" r="2"></circle><circle cx="473" cy="374" r="2"></circle><circle cx="489" cy="369" r="2"></circle><circle cx="505" cy="366" r="2"></circle><circle cx="520" cy="361" r="2"></circle><circle cx="536" cy="357" r="2"></circle><circle cx="551" cy="353" r="2"></circle><circle cx="567" cy="349" r="2"></circle><circle cx="582" cy="345" r="2"></circle><circle cx="598" cy="340" r="2"></circle><circle cx="614" cy="336" r="2"></circle><circle cx="629" cy="332" r="2"></circle><circle cx="645" cy="328" r="2"></circle><circle cx="660" cy="323" r="2"></circle><circle cx="676" cy="320" r="2"></circle><circle cx="692" cy="315" r="2"></circle></g></g><g class="key-Canada_0"><path stroke="#2a939b" stroke-linecap="round" d="M53 276L68 272L84 268L99 266L115 262L131 258L146 255L162 250L177 247L193 242L208 239L224 234L240 230L255 225L271 221L286 217L302 213L318 208L333 203L349 199L364 195L380 190L395 185L411 180L427 176L442 171L458 166L473 162L489 157L505 153L520 149L536 145L551 141L567 138L582 134L598 130L614 126L629 122L645 119L660 115L676 111L692 108" fill="none" stroke-width="1.5"></path><g fill="#2a939b"><circle cx="53" cy="276" r="2"></circle><circle cx="68" cy="272" r="2"></circle><circle cx="84" cy="268" r="2"></circle><circle cx="99" cy="266" r="2"></circle><circle cx="115" cy="262" r="2"></circle><circle cx="131" cy="258" r="2"></circle><circle cx="146" cy="255" r="2"></circle><circle cx="162" cy="250" r="2"></circle><circle cx="177" cy="247" r="2"></circle><circle cx="193" cy="242" r="2"></circle><circle cx="208" cy="239" r="2"></circle><circle cx="224" cy="234" r="2"></circle><circle cx="240" cy="230" r="2"></circle><circle cx="255" cy="225" r="2"></circle><circle cx="271" cy="221" r="2"></circle><circle cx="286" cy="217" r="2"></circle><circle cx="302" cy="213" r="2"></circle><circle cx="318" cy="208" r="2"></circle><circle cx="333" cy="203" r="2"></circle><circle cx="349" cy="199" r="2"></circle><circle cx="364" cy="195" r="2"></circle><circle cx="380" cy="190" r="2"></circle><circle cx="395" cy="185" r="2"></circle><circle cx="411" cy="180" r="2"></circle><circle cx="427" cy="176" r="2"></circle><circle cx="442" cy="171" r="2"></circle><circle cx="458" cy="166" r="2"></circle><circle cx="473" cy="162" r="2"></circle><circle cx="489" cy="157" r="2"></circle><circle cx="505" cy="153" r="2"></circle><circle cx="520" cy="149" r="2"></circle><circle cx="536" cy="145" r="2"></circle><circle cx="551" cy="141" r="2"></circle><circle cx="567" cy="138" r="2"></circle><circle cx="582" cy="134" r="2"></circle><circle cx="598" cy="130" r="2"></circle><circle cx="614" cy="126" r="2"></circle><circle cx="629" cy="122" r="2"></circle><circle cx="645" cy="119" r="2"></circle><circle cx="660" cy="115" r="2"></circle><circle cx="676" cy="111" r="2"></circle><circle cx="692" cy="108" r="2"></circle></g></g><g class="key-India_0"><path stroke="#3360a9" stroke-linecap="round" d="M53 489L68 488L84 486L99 484L115 483L131 481L146 479L162 477L177 475L193 473L208 471L224 469L240 467L255 464L271 462L286 460L302 458L318 456L333 453L349 451L364 448L380 445L395 442L411 440L427 437L442 434L458 431L473 428L489 425L505 422L520 418L536 415L551 412L567 408L582 404L598 401L614 397L629 394L645 390L660 385L676 382L692 377" fill="none" stroke-width="1.5"></path><g fill="#3360a9"><circle cx="53" cy="489" r="2"></circle><circle cx="68" cy="488" r="2"></circle><circle cx="84" cy="486" r="2"></circle><circle cx="99" cy="484" r="2"></circle><circle cx="115" cy="483" r="2"></circle><circle cx="131" cy="481" r="2"></circle><circle cx="146" cy="479" r="2"></circle><circle cx="162" cy="477" r="2"></circle><circle cx="177" cy="475" r="2"></circle><circle cx="193" cy="473" r="2"></circle><circle cx="208" cy="471" r="2"></circle><circle cx="224" cy="469" r="2"></circle><circle cx="240" cy="467" r="2"></circle><circle cx="255" cy="464" r="2"></circle><circle cx="271" cy="462" r="2"></circle><circle cx="286" cy="460" r="2"></circle><circle cx="302" cy="458" r="2"></circle><circle cx="318" cy="456" r="2"></circle><circle cx="333" cy="453" r="2"></circle><circle cx="349" cy="451" r="2"></circle><circle cx="364" cy="448" r="2"></circle><circle cx="380" cy="445" r="2"></circle><circle cx="395" cy="442" r="2"></circle><circle cx="411" cy="440" r="2"></circle><circle cx="427" cy="437" r="2"></circle><circle cx="442" cy="434" r="2"></circle><circle cx="458" cy="431" r="2"></circle><circle cx="473" cy="428" r="2"></circle><circle cx="489" cy="425" r="2"></circle><circle cx="505" cy="422" r="2"></circle><circle cx="520" cy="418" r="2"></circle><circle cx="536" cy="415" r="2"></circle><circle cx="551" cy="412" r="2"></circle><circle cx="567" cy="408" r="2"></circle><circle cx="582" cy="404" r="2"></circle><circle cx="598" cy="401" r="2"></circle><circle cx="614" cy="397" r="2"></circle><circle cx="629" cy="394" r="2"></circle><circle cx="645" cy="390" r="2"></circle><circle cx="660" cy="385" r="2"></circle><circle cx="676" cy="382" r="2"></circle><circle cx="692" cy="377" r="2"></circle></g></g><g class="key-Spain_0"><path stroke="#a652ba" stroke-linecap="round" d="M53 260L68 256L84 251L99 247L115 242L131 238L146 233L162 230L177 225L193 222L208 218L224 214L240 211L255 208L271 205L286 201L302 198L318 195L333 192L349 190L364 187L380 184L395 181L411 179L427 176L442 174L458 172L473 170L489 168L505 165L520 163L536 161L551 159L567 157L582 154L598 152L614 150L629 148L645 146L660 144L676 142L692 140" fill="none" stroke-width="1.5"></path><g fill="#a652ba"><circle cx="53" cy="260" r="2"></circle><circle cx="68" cy="256" r="2"></circle><circle cx="84" cy="251" r="2"></circle><circle cx="99" cy="247" r="2"></circle><circle cx="115" cy="242" r="2"></circle><circle cx="131" cy="238" r="2"></circle><circle cx="146" cy="233" r="2"></circle><circle cx="162" cy="230" r="2"></circle><circle cx="177" cy="225" r="2"></circle><circle cx="193" cy="222" r="2"></circle><circle cx="208" cy="218" r="2"></circle><circle cx="224" cy="214" r="2"></circle><circle cx="240" cy="211" r="2"></circle><circle cx="255" cy="208" r="2"></circle><circle cx="271" cy="205" r="2"></circle><circle cx="286" cy="201" r="2"></circle><circle cx="302" cy="198" r="2"></circle><circle cx="318" cy="195" r="2"></circle><circle cx="333" cy="192" r="2"></circle><circle cx="349" cy="190" r="2"></circle><circle cx="364" cy="187" r="2"></circle><circle cx="380" cy="184" r="2"></circle><circle cx="395" cy="181" r="2"></circle><circle cx="411" cy="179" r="2"></circle><circle cx="427" cy="176" r="2"></circle><circle cx="442" cy="174" r="2"></circle><circle cx="458" cy="172" r="2"></circle><circle cx="473" cy="170" r="2"></circle><circle cx="489" cy="168" r="2"></circle><circle cx="505" cy="165" r="2"></circle><circle cx="520" cy="163" r="2"></circle><circle cx="536" cy="161" r="2"></circle><circle cx="551" cy="159" r="2"></circle><circle cx="567" cy="157" r="2"></circle><circle cx="582" cy="154" r="2"></circle><circle cx="598" cy="152" r="2"></circle><circle cx="614" cy="150" r="2"></circle><circle cx="629" cy="148" r="2"></circle><circle cx="645" cy="146" r="2"></circle><circle cx="660" cy="144" r="2"></circle><circle cx="676" cy="142" r="2"></circle><circle cx="692" cy="140" r="2"></circle></g></g></g></g></g><g class="SourcesFooter" style="fill:#777"><g class="clickable" style="fill:#777"><text font-size="12.60" x="15.0" y="581.6"><tspan x="15" y="581.58">Source: WHO, Global Health Observatory</tspan></text></g><text font-size="12.60" x="775.4" y="581.6"><tspan x="775.402" y="581.58"><a style="fill: #777;" class="cclogo" href="http://creativecommons.org/licenses/by-sa/4.0/deed.en_US" target="_blank">CC BY-SA</a></tspan></text></g></g></svg>