<svg xmlns="http://www.w3.org/2000/svg" version="1.1" style="font-family:&#x27;Helvetica Neue&#x27;, Helvetica, Arial, sans-serif;font-size:18px;background-color:white;text-rendering:optimizeLegibility;-webkit-font-smoothing:antialiased" width="850" height="600"><g class="ChartTab"><g class="HeaderView"><g opacity="0.8" transform="translate(778, 15) scale(0.27)"><a xmlns:xlink="http://www.w3.org/1999/xlink" xlink:href="https://ourworldindata.org" target="_blank"><g><rect x="0" y="0" fill="#1B2543" width="211.2" height="130.1"/><rect x="0" y="112.2" fill="#E63912" width="211.2" height="17.9"/><g><rect x="1.2" y="12.3" fill="none" width="210.2" height="99.2"/><path fill="#FFFFFF" d="M37.8,32.2c0,12.7-7.7,19.4-17.1,19.4c-9.7,0-16.6-7.5-16.6-18.7c0-11.7,7.3-19.3,17.1-19.3 C31.3,13.7,37.8,21.3,37.8,32.2z M9.2,32.8c0,7.9,4.3,14.9,11.8,14.9c7.5,0,11.8-6.9,11.8-15.3c0-7.3-3.8-14.9-11.8-14.9 C13.1,17.5,9.2,24.8,9.2,32.8z"/><path fill="#FFFFFF" d="M62.7,43.8c0,2.7,0.1,5.1,0.2,7.2h-4.3l-0.3-4.3h-0.1c-1.3,2.1-4,4.9-8.8,4.9c-4.2,0-9.1-2.3-9.1-11.6 V24.6h4.8v14.6c0,5,1.5,8.4,5.9,8.4c3.2,0,5.5-2.2,6.3-4.4c0.3-0.7,0.4-1.6,0.4-2.5V24.6h4.8V43.8z"/><path fill="#FFFFFF" d="M67.3,32.8c0-3.1-0.1-5.8-0.2-8.2h4.2l0.2,5.2h0.2c1.2-3.5,4.1-5.8,7.3-5.8c0.5,0,0.9,0.1,1.4,0.2v4.5 c-0.5-0.1-1-0.2-1.6-0.2c-3.4,0-5.8,2.6-6.5,6.2c-0.1,0.7-0.2,1.4-0.2,2.2V51h-4.8V32.8z"/><path fill="#FFFFFF" d="M95.4,51l-9.4-36.8h5l4.4,18.6c1.1,4.6,2.1,9.2,2.7,12.7h0.1c0.6-3.7,1.8-8,3-12.8l4.9-18.5h5l4.5,18.7 c1,4.4,2,8.7,2.6,12.6h0.1c0.8-4,1.8-8.1,3-12.7l4.9-18.5h4.9L120.6,51h-5L111,31.9c-1.1-4.7-1.9-8.3-2.4-12h-0.1 c-0.7,3.7-1.5,7.3-2.8,12L100.4,51H95.4z"/><path fill="#FFFFFF" d="M154.9,37.6c0,9.8-6.8,14-13.2,14c-7.2,0-12.7-5.2-12.7-13.6c0-8.8,5.8-14,13.1-14 C149.8,24,154.9,29.5,154.9,37.6z M133.9,37.9c0,5.8,3.3,10.1,8,10.1c4.6,0,8-4.3,8-10.3c0-4.5-2.2-10.1-7.9-10.1 C136.3,27.6,133.9,32.8,133.9,37.9z"/><path fill="#FFFFFF" d="M158.2,32.8c0-3.1-0.1-5.8-0.2-8.2h4.2l0.2,5.2h0.2c1.2-3.5,4.1-5.8,7.3-5.8c0.5,0,0.9,0.1,1.4,0.2v4.5 c-0.5-0.1-1-0.2-1.6-0.2c-3.4,0-5.8,2.6-6.5,6.2c-0.1,0.7-0.2,1.4-0.2,2.2V51h-4.8V32.8z"/><path fill="#FFFFFF" d="M173.5,12.3h4.8V51h-4.8V12.3z"/><path fill="#FFFFFF" d="M206.5,12.3v31.9c0,2.3,0.1,5,0.2,6.8h-4.3l-0.2-4.6H202c-1.5,2.9-4.7,5.2-9,5.2 c-6.4,0-11.3-5.4-11.3-13.4c-0.1-8.8,5.4-14.2,11.9-14.2c4,0,6.8,1.9,8,4h0.1V12.3H206.5z M201.7,35.4c0-0.6-0.1-1.4-0.2-2 c-0.7-3.1-3.3-5.6-6.9-5.6c-5,0-7.9,4.4-7.9,10.2c0,5.3,2.6,9.8,7.8,9.8c3.2,0,6.2-2.1,7.1-5.7c0.2-0.7,0.2-1.3,0.2-2.1V35.4z"/><path fill="#FFFFFF" d="M42.8,64c0.1,1.6-1.1,2.9-3.1,2.9c-1.7,0-2.9-1.3-2.9-2.9c0-1.7,1.3-3,3-3C41.7,61,42.8,62.3,42.8,64z M37.4,97.8V71.4h4.8v26.4H37.4z"/><path fill="#FFFFFF" d="M47.5,78.6c0-2.7-0.1-5-0.2-7.1h4.3l0.3,4.4h0.1c1.3-2.5,4.4-5,8.8-5c3.7,0,9.4,2.2,9.4,11.2v15.8h-4.8 V82.6c0-4.3-1.6-7.8-6.1-7.8c-3.2,0-5.6,2.2-6.5,4.9c-0.2,0.6-0.3,1.4-0.3,2.2v15.9h-4.8V78.6z"/><path fill="#FFFFFF" d="M84,61.6c2.9-0.4,6.3-0.8,10.1-0.8c6.8,0,11.7,1.6,14.9,4.6c3.3,3,5.2,7.3,5.2,13.2c0,6-1.9,10.9-5.3,14.3 c-3.4,3.4-9.1,5.3-16.3,5.3c-3.4,0-6.2-0.2-8.6-0.4V61.6z M88.8,94.1c1.2,0.2,3,0.3,4.8,0.3c10.2,0,15.7-5.7,15.7-15.6 c0.1-8.7-4.9-14.2-14.9-14.2c-2.5,0-4.3,0.2-5.6,0.5V94.1z"/><path fill="#FFFFFF" d="M132.1,97.8l-0.4-3.3h-0.2c-1.5,2.1-4.3,3.9-8.1,3.9c-5.4,0-8.1-3.8-8.1-7.6c0-6.4,5.7-9.9,15.9-9.8v-0.5 c0-2.2-0.6-6.1-6-6.1c-2.5,0-5,0.8-6.9,2l-1.1-3.2c2.2-1.4,5.4-2.3,8.7-2.3c8.1,0,10.1,5.5,10.1,10.8v9.9c0,2.3,0.1,4.5,0.4,6.3 H132.1z M131.4,84.4c-5.3-0.1-11.2,0.8-11.2,5.9c0,3.1,2.1,4.6,4.5,4.6c3.4,0,5.6-2.2,6.4-4.4c0.2-0.5,0.3-1,0.3-1.5V84.4z"/><path fill="#FFFFFF" d="M146.6,63.9v7.6h6.9v3.7h-6.9v14.2c0,3.3,0.9,5.1,3.6,5.1c1.3,0,2.2-0.2,2.8-0.3l0.2,3.6 c-0.9,0.4-2.4,0.7-4.3,0.7c-2.2,0-4-0.7-5.2-2c-1.4-1.4-1.9-3.8-1.9-6.9V75.1h-4.1v-3.7h4.1v-6.3L146.6,63.9z"/><path fill="#FFFFFF" d="M171.4,97.8l-0.4-3.3h-0.2c-1.5,2.1-4.3,3.9-8.1,3.9c-5.4,0-8.1-3.8-8.1-7.6c0-6.4,5.7-9.9,15.9-9.8v-0.5 c0-2.2-0.6-6.1-6-6.1c-2.5,0-5,0.8-6.9,2l-1.1-3.2c2.2-1.4,5.4-2.3,8.7-2.3c8.1,0,10.1,5.5,10.1,10.8v9.9c0,2.3,0.1,4.5,0.4,6.3 H171.4z M170.7,84.4c-5.3-0.1-11.2,0.8-11.2,5.9c0,3.1,2.1,4.6,4.5,4.6c3.4,0,5.6-2.2,6.4-4.4c0.2-0.5,0.3-1,0.3-1.5V84.4z"/></g></g></a></g><a href="https://ourworldindata.org/grapher/share-of-services-in-total-exports?country=BHS+BMU+BRA+NGA+GBR+USA+VEN+OWID_WRL" target="_blank"><text font-size="25.20" x="15.0" y="35.2" fill="#555"><tspan x="15" y="35.160000000000004">Share of services in total exports</tspan></text></a><text font-size="14.40" x="15.0" y="53.7" fill="#666"><tspan x="15" y="53.72">Services refer to economic output of intangible commodities that may be produced, transferred, and consumed at the</tspan><tspan x="15" y="69.56">same time. The share of services in total exports comes from comparing trade in goods and services at current US</tspan><tspan x="15" y="85.4">dollars.</tspan></text></g><g class="LineChart"><defs><clipPath id="boundsClip-651"><rect x="51.634" y="0" width="830" height="897.8"></rect></clipPath></defs><g class="AxisBoxView"><g class="HorizontalAxis"><text x="61.6" y="556.5" fill="#666" text-anchor="middle" font-size="16.2">1979</text><text x="163" y="556.5" fill="#666" text-anchor="middle" font-size="16.2">1985</text><text x="247.5" y="556.5" fill="#666" text-anchor="middle" font-size="16.2">1990</text><text x="331.9" y="556.5" fill="#666" text-anchor="middle" font-size="16.2">1995</text><text x="416.4" y="556.5" fill="#666" text-anchor="middle" font-size="16.2">2000</text><text x="500.9" y="556.5" fill="#666" text-anchor="middle" font-size="16.2">2005</text><text x="585.4" y="556.5" fill="#666" text-anchor="middle" font-size="16.2">2010</text><text x="703.6" y="556.5" fill="#666" text-anchor="middle" font-size="16.2">2017</text></g><g class="VerticalAxis"><text x="56.63" y="535.3" fill="#666" dominant-baseline="middle" text-anchor="end" font-size="16.2">0%</text><text x="56.63" y="449.8" fill="#666" dominant-baseline="middle" text-anchor="end" font-size="16.2">20%</text><text x="56.63" y="364.2" fill="#666" dominant-baseline="middle" text-anchor="end" font-size="16.2">40%</text><text x="56.63" y="278.7" fill="#666" dominant-baseline="middle" text-anchor="end" font-size="16.2">60%</text><text x="56.63" y="193.1" fill="#666" dominant-baseline="middle" text-anchor="end" font-size="16.2">80%</text><text x="56.63" y="107.6" fill="#666" dominant-baseline="middle" text-anchor="end" font-size="16.2">100%</text></g><g class="AxisGridLines"><line x1="61.63" y1="535.3" x2="703.61" y2="535.3" stroke="#ccc"></line><line x1="61.63" y1="449.8" x2="703.61" y2="449.8" stroke="#ddd" stroke-dasharray="3,2"></line><line x1="61.63" y1="364.2" x2="703.61" y2="364.2" stroke="#ddd" stroke-dasharray="3,2"></line><line x1="61.63" y1="278.7" x2="703.61" y2="278.7" stroke="#ddd" stroke-dasharray="3,2"></line><line x1="61.63" y1="193.1" x2="703.61" y2="193.1" stroke="#ddd" stroke-dasharray="3,2"></line><line x1="61.63" y1="107.6" x2="703.61" y2="107.6" stroke="#ddd" stroke-dasharray="3,2"></line></g></g><g clip-path="url(#boundsClip-651)"><g class="HeightedLegend clickable"><g class="legendMark"><rect x="703.61" y="106.55" width="89.945" height="13.5" fill="#fff" opacity="0"></rect><text font-size="13.50" x="708.6" y="117.3" fill="#9ecc8a"><tspan x="708.61" y="117.35">Bermuda</tspan></text></g><g class="legendMark"><rect x="703.61" y="157.15" width="92.24000000000001" height="13.5" fill="#fff" opacity="0"></rect><text font-size="13.50" x="708.6" y="168.0" fill="#e6332e"><tspan x="708.61" y="167.95000000000002">Bahamas</tspan></text></g><g class="legendMark"><rect x="703.61" y="336.25" width="131.39" height="13.5" fill="#fff" opacity="0"></rect><text font-size="13.50" x="708.6" y="347.1" fill="#2a939b"><tspan x="708.61" y="347.05">United Kingdom</tspan></text></g><g class="legendMark"><rect x="703.61" y="385.35" width="116.405" height="13.5" fill="#fff" opacity="0"></rect><text font-size="13.50" x="708.6" y="396.2" fill="#a652ba"><tspan x="708.61" y="396.15000000000003">United States</tspan></text></g><g class="legendMark"><rect x="703.61" y="428.05" width="70.235" height="13.5" fill="#fff" opacity="0"></rect><text font-size="13.50" x="708.6" y="438.9" fill="#f6a324"><tspan x="708.61" y="438.85">World</tspan></text></g><g class="legendMark"><rect x="703.61" y="469.95" width="68.75" height="13.5" fill="#fff" opacity="0"></rect><text font-size="13.50" x="708.6" y="480.8" fill="#34983f"><tspan x="708.61" y="480.75">Brazil</tspan></text></g><g class="legendMark"><rect x="703.61" y="486.25" width="77.795" height="13.5" fill="#fff" opacity="0"></rect><text font-size="13.50" x="708.6" y="497.1" fill="#ca2628"><tspan x="708.61" y="497.05">Nigeria</tspan></text></g><g class="legendMark"><rect x="703.61" y="509.35" width="99.125" height="13.5" fill="#fff" opacity="0"></rect><text font-size="13.50" x="708.6" y="520.1" fill="#3360a9"><tspan x="708.61" y="520.15">Venezuela</tspan></text></g></g><g class="Lines"><rect x="62" y="108" width="642" height="428" fill="rgba(255,255,255,0)" opacity="0"></rect><g class="key-Bahamas_0"><path stroke="#e6332e" stroke-linecap="round" d="M62 229L79 251L95 235L112 230L129 224L146 225L163 214L180 199L197 195L214 191L231 163L248 176L264 170L281 165L298 157L315 157L332 162L349 171L366 174L383 190L400 186L416 189L433 188L450 180L467 181L484 183L501 184L518 203L535 208L552 225L569 207L585 202L602 215L619 222L636 220L653 208L670 173L687 164" fill="none" stroke-width="1.5"></path><g fill="#e6332e"><circle cx="62" cy="229" r="2"></circle><circle cx="79" cy="251" r="2"></circle><circle cx="95" cy="235" r="2"></circle><circle cx="112" cy="230" r="2"></circle><circle cx="129" cy="224" r="2"></circle><circle cx="146" cy="225" r="2"></circle><circle cx="163" cy="214" r="2"></circle><circle cx="180" cy="199" r="2"></circle><circle cx="197" cy="195" r="2"></circle><circle cx="214" cy="191" r="2"></circle><circle cx="231" cy="163" r="2"></circle><circle cx="248" cy="176" r="2"></circle><circle cx="264" cy="170" r="2"></circle><circle cx="281" cy="165" r="2"></circle><circle cx="298" cy="157" r="2"></circle><circle cx="315" cy="157" r="2"></circle><circle cx="332" cy="162" r="2"></circle><circle cx="349" cy="171" r="2"></circle><circle cx="366" cy="174" r="2"></circle><circle cx="383" cy="190" r="2"></circle><circle cx="400" cy="186" r="2"></circle><circle cx="416" cy="189" r="2"></circle><circle cx="433" cy="188" r="2"></circle><circle cx="450" cy="180" r="2"></circle><circle cx="467" cy="181" r="2"></circle><circle cx="484" cy="183" r="2"></circle><circle cx="501" cy="184" r="2"></circle><circle cx="518" cy="203" r="2"></circle><circle cx="535" cy="208" r="2"></circle><circle cx="552" cy="225" r="2"></circle><circle cx="569" cy="207" r="2"></circle><circle cx="585" cy="202" r="2"></circle><circle cx="602" cy="215" r="2"></circle><circle cx="619" cy="222" r="2"></circle><circle cx="636" cy="220" r="2"></circle><circle cx="653" cy="208" r="2"></circle><circle cx="670" cy="173" r="2"></circle><circle cx="687" cy="164" r="2"></circle></g></g><g class="key-Bermuda_0"><path stroke="#9ecc8a" stroke-linecap="round" d="M518 114L535 114L552 114L569 117L585 112L602 111L619 111L636 112L653 114L670 115L687 113" fill="none" stroke-width="1.5"></path><g fill="#9ecc8a"><circle cx="518" cy="114" r="2"></circle><circle cx="535" cy="114" r="2"></circle><circle cx="552" cy="114" r="2"></circle><circle cx="569" cy="117" r="2"></circle><circle cx="585" cy="112" r="2"></circle><circle cx="602" cy="111" r="2"></circle><circle cx="619" cy="111" r="2"></circle><circle cx="636" cy="112" r="2"></circle><circle cx="653" cy="114" r="2"></circle><circle cx="670" cy="115" r="2"></circle><circle cx="687" cy="113" r="2"></circle></g></g><g class="key-Brazil_0"><path stroke="#34983f" stroke-linecap="round" d="M62 498L79 501L95 497L112 500L129 504L146 507L163 503L180 503L197 506L214 508L231 500L248 490L264 495L281 492L298 496L315 493L332 486L349 497L366 491L383 480L400 486L416 479L433 482L450 482L467 486L484 489L501 487L518 485L535 480L552 478L569 470L585 479L602 481L619 476L636 477L653 471L670 471L687 470L704 477" fill="none" stroke-width="1.5"></path><g fill="#34983f"><circle cx="62" cy="498" r="2"></circle><circle cx="79" cy="501" r="2"></circle><circle cx="95" cy="497" r="2"></circle><circle cx="112" cy="500" r="2"></circle><circle cx="129" cy="504" r="2"></circle><circle cx="146" cy="507" r="2"></circle><circle cx="163" cy="503" r="2"></circle><circle cx="180" cy="503" r="2"></circle><circle cx="197" cy="506" r="2"></circle><circle cx="214" cy="508" r="2"></circle><circle cx="231" cy="500" r="2"></circle><circle cx="248" cy="490" r="2"></circle><circle cx="264" cy="495" r="2"></circle><circle cx="281" cy="492" r="2"></circle><circle cx="298" cy="496" r="2"></circle><circle cx="315" cy="493" r="2"></circle><circle cx="332" cy="486" r="2"></circle><circle cx="349" cy="497" r="2"></circle><circle cx="366" cy="491" r="2"></circle><circle cx="383" cy="480" r="2"></circle><circle cx="400" cy="486" r="2"></circle><circle cx="416" cy="479" r="2"></circle><circle cx="433" cy="482" r="2"></circle><circle cx="450" cy="482" r="2"></circle><circle cx="467" cy="486" r="2"></circle><circle cx="484" cy="489" r="2"></circle><circle cx="501" cy="487" r="2"></circle><circle cx="518" cy="485" r="2"></circle><circle cx="535" cy="480" r="2"></circle><circle cx="552" cy="478" r="2"></circle><circle cx="569" cy="470" r="2"></circle><circle cx="585" cy="479" r="2"></circle><circle cx="602" cy="481" r="2"></circle><circle cx="619" cy="476" r="2"></circle><circle cx="636" cy="477" r="2"></circle><circle cx="653" cy="471" r="2"></circle><circle cx="670" cy="471" r="2"></circle><circle cx="687" cy="470" r="2"></circle><circle cx="704" cy="477" r="2"></circle></g></g><g class="key-Nigeria_0"><path stroke="#ca2628" stroke-linecap="round" d="M62 511L79 518L95 514L112 518L129 519L146 520L163 525L180 515L197 523L214 514L231 507L248 507L264 507L281 500L298 490L315 519L332 514L349 517L366 514L383 497L400 505L416 498L433 499L450 476L467 481L484 498L501 522L518 519L535 526L552 524L569 519L585 519L602 521L619 525L636 525L653 525L670 508L687 494L704 493" fill="none" stroke-width="1.5"></path><g fill="#ca2628"><circle cx="62" cy="511" r="2"></circle><circle cx="79" cy="518" r="2"></circle><circle cx="95" cy="514" r="2"></circle><circle cx="112" cy="518" r="2"></circle><circle cx="129" cy="519" r="2"></circle><circle cx="146" cy="520" r="2"></circle><circle cx="163" cy="525" r="2"></circle><circle cx="180" cy="515" r="2"></circle><circle cx="197" cy="523" r="2"></circle><circle cx="214" cy="514" r="2"></circle><circle cx="231" cy="507" r="2"></circle><circle cx="248" cy="507" r="2"></circle><circle cx="264" cy="507" r="2"></circle><circle cx="281" cy="500" r="2"></circle><circle cx="298" cy="490" r="2"></circle><circle cx="315" cy="519" r="2"></circle><circle cx="332" cy="514" r="2"></circle><circle cx="349" cy="517" r="2"></circle><circle cx="366" cy="514" r="2"></circle><circle cx="383" cy="497" r="2"></circle><circle cx="400" cy="505" r="2"></circle><circle cx="416" cy="498" r="2"></circle><circle cx="433" cy="499" r="2"></circle><circle cx="450" cy="476" r="2"></circle><circle cx="467" cy="481" r="2"></circle><circle cx="484" cy="498" r="2"></circle><circle cx="501" cy="522" r="2"></circle><circle cx="518" cy="519" r="2"></circle><circle cx="535" cy="526" r="2"></circle><circle cx="552" cy="524" r="2"></circle><circle cx="569" cy="519" r="2"></circle><circle cx="585" cy="519" r="2"></circle><circle cx="602" cy="521" r="2"></circle><circle cx="619" cy="525" r="2"></circle><circle cx="636" cy="525" r="2"></circle><circle cx="653" cy="525" r="2"></circle><circle cx="670" cy="508" r="2"></circle><circle cx="687" cy="494" r="2"></circle><circle cx="704" cy="493" r="2"></circle></g></g><g class="key-United-Kingdom_0"><path stroke="#2a939b" stroke-linecap="round" d="M62 423L79 429L95 429L112 432L129 433L146 436L163 434L180 425L197 427L214 429L231 433L248 434L264 435L281 427L298 427L315 427L332 429L349 425L366 422L383 410L400 401L416 405L433 399L450 392L467 382L484 375L501 373L518 374L535 357L552 366L569 353L585 367L602 372L619 365L636 356L653 353L670 346L687 341L704 343" fill="none" stroke-width="1.5"></path><g fill="#2a939b"><circle cx="62" cy="423" r="2"></circle><circle cx="79" cy="429" r="2"></circle><circle cx="95" cy="429" r="2"></circle><circle cx="112" cy="432" r="2"></circle><circle cx="129" cy="433" r="2"></circle><circle cx="146" cy="436" r="2"></circle><circle cx="163" cy="434" r="2"></circle><circle cx="180" cy="425" r="2"></circle><circle cx="197" cy="427" r="2"></circle><circle cx="214" cy="429" r="2"></circle><circle cx="231" cy="433" r="2"></circle><circle cx="248" cy="434" r="2"></circle><circle cx="264" cy="435" r="2"></circle><circle cx="281" cy="427" r="2"></circle><circle cx="298" cy="427" r="2"></circle><circle cx="315" cy="427" r="2"></circle><circle cx="332" cy="429" r="2"></circle><circle cx="349" cy="425" r="2"></circle><circle cx="366" cy="422" r="2"></circle><circle cx="383" cy="410" r="2"></circle><circle cx="400" cy="401" r="2"></circle><circle cx="416" cy="405" r="2"></circle><circle cx="433" cy="399" r="2"></circle><circle cx="450" cy="392" r="2"></circle><circle cx="467" cy="382" r="2"></circle><circle cx="484" cy="375" r="2"></circle><circle cx="501" cy="373" r="2"></circle><circle cx="518" cy="374" r="2"></circle><circle cx="535" cy="357" r="2"></circle><circle cx="552" cy="366" r="2"></circle><circle cx="569" cy="353" r="2"></circle><circle cx="585" cy="367" r="2"></circle><circle cx="602" cy="372" r="2"></circle><circle cx="619" cy="365" r="2"></circle><circle cx="636" cy="356" r="2"></circle><circle cx="653" cy="353" r="2"></circle><circle cx="670" cy="346" r="2"></circle><circle cx="687" cy="341" r="2"></circle><circle cx="704" cy="343" r="2"></circle></g></g><g class="key-United-States_0"><path stroke="#a652ba" stroke-linecap="round" d="M62 461L79 461L95 452L112 436L129 432L146 431L163 427L180 416L197 414L214 425L231 424L248 417L264 414L281 412L298 412L315 413L332 417L349 415L366 418L383 415L400 416L416 420L433 419L450 413L467 414L484 411L501 411L518 413L535 409L552 412L569 397L585 405L602 409L619 409L636 405L653 402L670 393L687 390L704 392" fill="none" stroke-width="1.5"></path><g fill="#a652ba"><circle cx="62" cy="461" r="2"></circle><circle cx="79" cy="461" r="2"></circle><circle cx="95" cy="452" r="2"></circle><circle cx="112" cy="436" r="2"></circle><circle cx="129" cy="432" r="2"></circle><circle cx="146" cy="431" r="2"></circle><circle cx="163" cy="427" r="2"></circle><circle cx="180" cy="416" r="2"></circle><circle cx="197" cy="414" r="2"></circle><circle cx="214" cy="425" r="2"></circle><circle cx="231" cy="424" r="2"></circle><circle cx="248" cy="417" r="2"></circle><circle cx="264" cy="414" r="2"></circle><circle cx="281" cy="412" r="2"></circle><circle cx="298" cy="412" r="2"></circle><circle cx="315" cy="413" r="2"></circle><circle cx="332" cy="417" r="2"></circle><circle cx="349" cy="415" r="2"></circle><circle cx="366" cy="418" r="2"></circle><circle cx="383" cy="415" r="2"></circle><circle cx="400" cy="416" r="2"></circle><circle cx="416" cy="420" r="2"></circle><circle cx="433" cy="419" r="2"></circle><circle cx="450" cy="413" r="2"></circle><circle cx="467" cy="414" r="2"></circle><circle cx="484" cy="411" r="2"></circle><circle cx="501" cy="411" r="2"></circle><circle cx="518" cy="413" r="2"></circle><circle cx="535" cy="409" r="2"></circle><circle cx="552" cy="412" r="2"></circle><circle cx="569" cy="397" r="2"></circle><circle cx="585" cy="405" r="2"></circle><circle cx="602" cy="409" r="2"></circle><circle cx="619" cy="409" r="2"></circle><circle cx="636" cy="405" r="2"></circle><circle cx="653" cy="402" r="2"></circle><circle cx="670" cy="393" r="2"></circle><circle cx="687" cy="390" r="2"></circle><circle cx="704" cy="392" r="2"></circle></g></g><g class="key-Venezuela_0"><path stroke="#3360a9" stroke-linecap="round" d="M62 518L79 521L95 520L112 510L129 506L146 518L163 513L180 498L197 503L214 503L231 507L248 508L264 503L281 499L298 499L315 497L332 501L349 508L366 513L383 503L400 509L416 521L433 514L450 520L467 522L484 524L501 525L518 525L535 524L552 526L569 520L585 524L602 527L619 526L636 525L653 523L670 517L687 516" fill="none" stroke-width="1.5"></path><g fill="#3360a9"><circle cx="62" cy="518" r="2"></circle><circle cx="79" cy="521" r="2"></circle><circle cx="95" cy="520" r="2"></circle><circle cx="112" cy="510" r="2"></circle><circle cx="129" cy="506" r="2"></circle><circle cx="146" cy="518" r="2"></circle><circle cx="163" cy="513" r="2"></circle><circle cx="180" cy="498" r="2"></circle><circle cx="197" cy="503" r="2"></circle><circle cx="214" cy="503" r="2"></circle><circle cx="231" cy="507" r="2"></circle><circle cx="248" cy="508" r="2"></circle><circle cx="264" cy="503" r="2"></circle><circle cx="281" cy="499" r="2"></circle><circle cx="298" cy="499" r="2"></circle><circle cx="315" cy="497" r="2"></circle><circle cx="332" cy="501" r="2"></circle><circle cx="349" cy="508" r="2"></circle><circle cx="366" cy="513" r="2"></circle><circle cx="383" cy="503" r="2"></circle><circle cx="400" cy="509" r="2"></circle><circle cx="416" cy="521" r="2"></circle><circle cx="433" cy="514" r="2"></circle><circle cx="450" cy="520" r="2"></circle><circle cx="467" cy="522" r="2"></circle><circle cx="484" cy="524" r="2"></circle><circle cx="501" cy="525" r="2"></circle><circle cx="518" cy="525" r="2"></circle><circle cx="535" cy="524" r="2"></circle><circle cx="552" cy="526" r="2"></circle><circle cx="569" cy="520" r="2"></circle><circle cx="585" cy="524" r="2"></circle><circle cx="602" cy="527" r="2"></circle><circle cx="619" cy="526" r="2"></circle><circle cx="636" cy="525" r="2"></circle><circle cx="653" cy="523" r="2"></circle><circle cx="670" cy="517" r="2"></circle><circle cx="687" cy="516" r="2"></circle></g></g><g class="key-World_0"><path stroke="#f6a324" stroke-linecap="round" d="M62 462L79 463L95 460L112 455L129 455L146 456L163 454L180 448L197 449L214 451L231 451L248 448L264 446L281 442L298 441L315 444L332 448L349 447L366 444L383 441L400 441L416 444L433 441L450 439L467 444L484 445L501 447L518 448L535 446L552 448L569 438L585 447L602 450L619 449L636 447L653 442L670 436L687 433L704 435" fill="none" stroke-width="1.5"></path><g fill="#f6a324"><circle cx="62" cy="462" r="2"></circle><circle cx="79" cy="463" r="2"></circle><circle cx="95" cy="460" r="2"></circle><circle cx="112" cy="455" r="2"></circle><circle cx="129" cy="455" r="2"></circle><circle cx="146" cy="456" r="2"></circle><circle cx="163" cy="454" r="2"></circle><circle cx="180" cy="448" r="2"></circle><circle cx="197" cy="449" r="2"></circle><circle cx="214" cy="451" r="2"></circle><circle cx="231" cy="451" r="2"></circle><circle cx="248" cy="448" r="2"></circle><circle cx="264" cy="446" r="2"></circle><circle cx="281" cy="442" r="2"></circle><circle cx="298" cy="441" r="2"></circle><circle cx="315" cy="444" r="2"></circle><circle cx="332" cy="448" r="2"></circle><circle cx="349" cy="447" r="2"></circle><circle cx="366" cy="444" r="2"></circle><circle cx="383" cy="441" r="2"></circle><circle cx="400" cy="441" r="2"></circle><circle cx="416" cy="444" r="2"></circle><circle cx="433" cy="441" r="2"></circle><circle cx="450" cy="439" r="2"></circle><circle cx="467" cy="444" r="2"></circle><circle cx="484" cy="445" r="2"></circle><circle cx="501" cy="447" r="2"></circle><circle cx="518" cy="448" r="2"></circle><circle cx="535" cy="446" r="2"></circle><circle cx="552" cy="448" r="2"></circle><circle cx="569" cy="438" r="2"></circle><circle cx="585" cy="447" r="2"></circle><circle cx="602" cy="450" r="2"></circle><circle cx="619" cy="449" r="2"></circle><circle cx="636" cy="447" r="2"></circle><circle cx="653" cy="442" r="2"></circle><circle cx="670" cy="436" r="2"></circle><circle cx="687" cy="433" r="2"></circle><circle cx="704" cy="435" r="2"></circle></g></g></g></g></g><g class="SourcesFooter" style="fill:#777"><g class="clickable" style="fill:#777"><text font-size="12.60" x="15.0" y="581.6"><tspan x="15" y="581.58">Source: World Bank</tspan></text></g><text font-size="12.60" x="775.4" y="581.6"><tspan x="775.402" y="581.58"><a style="fill: #777;" class="cclogo" href="http://creativecommons.org/licenses/by-sa/4.0/deed.en_US" target="_blank">CC BY-SA</a></tspan></text></g></g></svg>