<svg xmlns="http://www.w3.org/2000/svg" version="1.1" style="font-family:&#x27;Helvetica Neue&#x27;, Helvetica, Arial, sans-serif;font-size:18px;background-color:white;text-rendering:optimizeLegibility;-webkit-font-smoothing:antialiased" width="850" height="600"><g class="ChartTab"><g class="HeaderView"><g opacity="0.8" transform="translate(778, 15) scale(0.27)"><a xmlns:xlink="http://www.w3.org/1999/xlink" xlink:href="https://ourworldindata.org" target="_blank"><g><rect x="0" y="0" fill="#1B2543" width="211.2" height="130.1"/><rect x="0" y="112.2" fill="#E63912" width="211.2" height="17.9"/><g><rect x="1.2" y="12.3" fill="none" width="210.2" height="99.2"/><path fill="#FFFFFF" d="M37.8,32.2c0,12.7-7.7,19.4-17.1,19.4c-9.7,0-16.6-7.5-16.6-18.7c0-11.7,7.3-19.3,17.1-19.3 C31.3,13.7,37.8,21.3,37.8,32.2z M9.2,32.8c0,7.9,4.3,14.9,11.8,14.9c7.5,0,11.8-6.9,11.8-15.3c0-7.3-3.8-14.9-11.8-14.9 C13.1,17.5,9.2,24.8,9.2,32.8z"/><path fill="#FFFFFF" d="M62.7,43.8c0,2.7,0.1,5.1,0.2,7.2h-4.3l-0.3-4.3h-0.1c-1.3,2.1-4,4.9-8.8,4.9c-4.2,0-9.1-2.3-9.1-11.6 V24.6h4.8v14.6c0,5,1.5,8.4,5.9,8.4c3.2,0,5.5-2.2,6.3-4.4c0.3-0.7,0.4-1.6,0.4-2.5V24.6h4.8V43.8z"/><path fill="#FFFFFF" d="M67.3,32.8c0-3.1-0.1-5.8-0.2-8.2h4.2l0.2,5.2h0.2c1.2-3.5,4.1-5.8,7.3-5.8c0.5,0,0.9,0.1,1.4,0.2v4.5 c-0.5-0.1-1-0.2-1.6-0.2c-3.4,0-5.8,2.6-6.5,6.2c-0.1,0.7-0.2,1.4-0.2,2.2V51h-4.8V32.8z"/><path fill="#FFFFFF" d="M95.4,51l-9.4-36.8h5l4.4,18.6c1.1,4.6,2.1,9.2,2.7,12.7h0.1c0.6-3.7,1.8-8,3-12.8l4.9-18.5h5l4.5,18.7 c1,4.4,2,8.7,2.6,12.6h0.1c0.8-4,1.8-8.1,3-12.7l4.9-18.5h4.9L120.6,51h-5L111,31.9c-1.1-4.7-1.9-8.3-2.4-12h-0.1 c-0.7,3.7-1.5,7.3-2.8,12L100.4,51H95.4z"/><path fill="#FFFFFF" d="M154.9,37.6c0,9.8-6.8,14-13.2,14c-7.2,0-12.7-5.2-12.7-13.6c0-8.8,5.8-14,13.1-14 C149.8,24,154.9,29.5,154.9,37.6z M133.9,37.9c0,5.8,3.3,10.1,8,10.1c4.6,0,8-4.3,8-10.3c0-4.5-2.2-10.1-7.9-10.1 C136.3,27.6,133.9,32.8,133.9,37.9z"/><path fill="#FFFFFF" d="M158.2,32.8c0-3.1-0.1-5.8-0.2-8.2h4.2l0.2,5.2h0.2c1.2-3.5,4.1-5.8,7.3-5.8c0.5,0,0.9,0.1,1.4,0.2v4.5 c-0.5-0.1-1-0.2-1.6-0.2c-3.4,0-5.8,2.6-6.5,6.2c-0.1,0.7-0.2,1.4-0.2,2.2V51h-4.8V32.8z"/><path fill="#FFFFFF" d="M173.5,12.3h4.8V51h-4.8V12.3z"/><path fill="#FFFFFF" d="M206.5,12.3v31.9c0,2.3,0.1,5,0.2,6.8h-4.3l-0.2-4.6H202c-1.5,2.9-4.7,5.2-9,5.2 c-6.4,0-11.3-5.4-11.3-13.4c-0.1-8.8,5.4-14.2,11.9-14.2c4,0,6.8,1.9,8,4h0.1V12.3H206.5z M201.7,35.4c0-0.6-0.1-1.4-0.2-2 c-0.7-3.1-3.3-5.6-6.9-5.6c-5,0-7.9,4.4-7.9,10.2c0,5.3,2.6,9.8,7.8,9.8c3.2,0,6.2-2.1,7.1-5.7c0.2-0.7,0.2-1.3,0.2-2.1V35.4z"/><path fill="#FFFFFF" d="M42.8,64c0.1,1.6-1.1,2.9-3.1,2.9c-1.7,0-2.9-1.3-2.9-2.9c0-1.7,1.3-3,3-3C41.7,61,42.8,62.3,42.8,64z M37.4,97.8V71.4h4.8v26.4H37.4z"/><path fill="#FFFFFF" d="M47.5,78.6c0-2.7-0.1-5-0.2-7.1h4.3l0.3,4.4h0.1c1.3-2.5,4.4-5,8.8-5c3.7,0,9.4,2.2,9.4,11.2v15.8h-4.8 V82.6c0-4.3-1.6-7.8-6.1-7.8c-3.2,0-5.6,2.2-6.5,4.9c-0.2,0.6-0.3,1.4-0.3,2.2v15.9h-4.8V78.6z"/><path fill="#FFFFFF" d="M84,61.6c2.9-0.4,6.3-0.8,10.1-0.8c6.8,0,11.7,1.6,14.9,4.6c3.3,3,5.2,7.3,5.2,13.2c0,6-1.9,10.9-5.3,14.3 c-3.4,3.4-9.1,5.3-16.3,5.3c-3.4,0-6.2-0.2-8.6-0.4V61.6z M88.8,94.1c1.2,0.2,3,0.3,4.8,0.3c10.2,0,15.7-5.7,15.7-15.6 c0.1-8.7-4.9-14.2-14.9-14.2c-2.5,0-4.3,0.2-5.6,0.5V94.1z"/><path fill="#FFFFFF" d="M132.1,97.8l-0.4-3.3h-0.2c-1.5,2.1-4.3,3.9-8.1,3.9c-5.4,0-8.1-3.8-8.1-7.6c0-6.4,5.7-9.9,15.9-9.8v-0.5 c0-2.2-0.6-6.1-6-6.1c-2.5,0-5,0.8-6.9,2l-1.1-3.2c2.2-1.4,5.4-2.3,8.7-2.3c8.1,0,10.1,5.5,10.1,10.8v9.9c0,2.3,0.1,4.5,0.4,6.3 H132.1z M131.4,84.4c-5.3-0.1-11.2,0.8-11.2,5.9c0,3.1,2.1,4.6,4.5,4.6c3.4,0,5.6-2.2,6.4-4.4c0.2-0.5,0.3-1,0.3-1.5V84.4z"/><path fill="#FFFFFF" d="M146.6,63.9v7.6h6.9v3.7h-6.9v14.2c0,3.3,0.9,5.1,3.6,5.1c1.3,0,2.2-0.2,2.8-0.3l0.2,3.6 c-0.9,0.4-2.4,0.7-4.3,0.7c-2.2,0-4-0.7-5.2-2c-1.4-1.4-1.9-3.8-1.9-6.9V75.1h-4.1v-3.7h4.1v-6.3L146.6,63.9z"/><path fill="#FFFFFF" d="M171.4,97.8l-0.4-3.3h-0.2c-1.5,2.1-4.3,3.9-8.1,3.9c-5.4,0-8.1-3.8-8.1-7.6c0-6.4,5.7-9.9,15.9-9.8v-0.5 c0-2.2-0.6-6.1-6-6.1c-2.5,0-5,0.8-6.9,2l-1.1-3.2c2.2-1.4,5.4-2.3,8.7-2.3c8.1,0,10.1,5.5,10.1,10.8v9.9c0,2.3,0.1,4.5,0.4,6.3 H171.4z M170.7,84.4c-5.3-0.1-11.2,0.8-11.2,5.9c0,3.1,2.1,4.6,4.5,4.6c3.4,0,5.6-2.2,6.4-4.4c0.2-0.5,0.3-1,0.3-1.5V84.4z"/></g></g></a></g><a href="https://ourworldindata.org/grapher/share-of-world-merchandise-trade-by-type-of-trade-percent" target="_blank"><text font-size="25.20" x="15.0" y="35.2" fill="#555"><tspan x="15" y="35.160000000000004">Exports between rich and non-rich countries (% global exports)</tspan></text></a><text font-size="14.40" x="15.0" y="53.7" fill="#666"><tspan x="15" y="53.72">The &#x27;non-rich to rich&#x27; trade series shows the proportion of global merchandise exports that correspond to sales from</tspan><tspan x="15" y="69.56">non-rich countries to rich countries.  The other series show similar flows within and across these countries. See the</tspan><tspan x="15" y="85.4">note at the bottom with the list of &#x27;rich countries&#x27;.</tspan></text></g><g class="LineChart"><defs><clipPath id="boundsClip-653"><rect x="51.634" y="0" width="830" height="815.5999999999999"></rect></clipPath></defs><g class="AxisBoxView"><g class="HorizontalAxis"><text x="61.6" y="515.4" fill="#666" text-anchor="middle" font-size="16.2">1827</text><text x="104.6" y="515.4" fill="#666" text-anchor="middle" font-size="16.2">1840</text><text x="170.6" y="515.4" fill="#666" text-anchor="middle" font-size="16.2">1860</text><text x="236.6" y="515.4" fill="#666" text-anchor="middle" font-size="16.2">1880</text><text x="302.7" y="515.4" fill="#666" text-anchor="middle" font-size="16.2">1900</text><text x="368.7" y="515.4" fill="#666" text-anchor="middle" font-size="16.2">1920</text><text x="434.7" y="515.4" fill="#666" text-anchor="middle" font-size="16.2">1940</text><text x="500.8" y="515.4" fill="#666" text-anchor="middle" font-size="16.2">1960</text><text x="566.8" y="515.4" fill="#666" text-anchor="middle" font-size="16.2">1980</text><text x="632.8" y="515.4" fill="#666" text-anchor="middle" font-size="16.2">2000</text><text x="679" y="515.4" fill="#666" text-anchor="middle" font-size="16.2">2014</text></g><g class="VerticalAxis"><text x="56.63" y="494.2" fill="#666" dominant-baseline="middle" text-anchor="end" font-size="16.2">0%</text><text x="56.63" y="416.9" fill="#666" dominant-baseline="middle" text-anchor="end" font-size="16.2">20%</text><text x="56.63" y="339.6" fill="#666" dominant-baseline="middle" text-anchor="end" font-size="16.2">40%</text><text x="56.63" y="262.2" fill="#666" dominant-baseline="middle" text-anchor="end" font-size="16.2">60%</text><text x="56.63" y="184.9" fill="#666" dominant-baseline="middle" text-anchor="end" font-size="16.2">80%</text><text x="56.63" y="107.6" fill="#666" dominant-baseline="middle" text-anchor="end" font-size="16.2">100%</text></g><g class="AxisGridLines"><line x1="61.63" y1="494.2" x2="679.04" y2="494.2" stroke="#ccc"></line><line x1="61.63" y1="416.9" x2="679.04" y2="416.9" stroke="#ddd" stroke-dasharray="3,2"></line><line x1="61.63" y1="339.6" x2="679.04" y2="339.6" stroke="#ddd" stroke-dasharray="3,2"></line><line x1="61.63" y1="262.2" x2="679.04" y2="262.2" stroke="#ddd" stroke-dasharray="3,2"></line><line x1="61.63" y1="184.9" x2="679.04" y2="184.9" stroke="#ddd" stroke-dasharray="3,2"></line><line x1="61.63" y1="107.6" x2="679.04" y2="107.6" stroke="#ddd" stroke-dasharray="3,2"></line></g></g><g clip-path="url(#boundsClip-653)"><g class="HeightedLegend clickable"><g class="legendMark"><g class="indicator"><line x1="684.04" y1="381.1" x2="703.2066666666666" y2="381.1" stroke="#666" stroke-width="0.5"></line><line x1="703.2066666666666" y1="381.1" x2="703.2066666666666" y2="381.1" stroke="#666" stroke-width="0.5"></line><line x1="703.2066666666666" y1="381.1" x2="709.04" y2="381.1" stroke="#666" stroke-width="0.5"></line></g><rect x="679.04" y="374.35" width="107.9" height="13.5" fill="#fff" opacity="0"></rect><text font-size="13.50" x="714.0" y="385.2" fill="#f6a324"><tspan x="714.04" y="385.15000000000003">Rich to Rich</tspan></text></g><g class="legendMark"><g class="indicator"><line x1="684.04" y1="382.6" x2="696.54" y2="382.6" stroke="#666" stroke-width="0.5"></line><line x1="696.54" y1="382.6" x2="696.54" y2="396.6" stroke="#666" stroke-width="0.5"></line><line x1="696.54" y1="396.6" x2="709.04" y2="396.6" stroke="#666" stroke-width="0.5"></line></g><rect x="679.04" y="389.85" width="155.96" height="13.5" fill="#fff" opacity="0"></rect><text font-size="13.50" x="714.0" y="400.7" fill="#db2445"><tspan x="714.04" y="400.65000000000003">Non-rich to Non-rich</tspan></text></g><g class="legendMark"><g class="indicator"><line x1="684.04" y1="407" x2="689.8733333333333" y2="407" stroke="#666" stroke-width="0.5"></line><line x1="689.8733333333333" y1="407" x2="689.8733333333333" y2="412.1" stroke="#666" stroke-width="0.5"></line><line x1="689.8733333333333" y1="412.1" x2="709.04" y2="412.1" stroke="#666" stroke-width="0.5"></line></g><rect x="679.04" y="405.35" width="131.93" height="13.5" fill="#fff" opacity="0"></rect><text font-size="13.50" x="714.0" y="416.2" fill="#2a939b"><tspan x="714.04" y="416.15000000000003">Non-rich to Rich</tspan></text></g></g><g class="Lines"><rect x="62" y="108" width="617" height="387" fill="rgba(255,255,255,0)" opacity="0"></rect><g class="key-World_0"><path stroke="#db2445" stroke-linecap="round" d="M105 494L115 494L118 493L121 493L124 493L128 493L131 493L134 493L138 494L141 493L144 493L148 493L151 493L157 493L161 493L164 492L167 493L171 493L174 492L177 493L181 493L184 490L187 489L190 490L194 491L197 490L200 490L204 488L207 489L210 488L214 491L217 491L220 491L223 491L227 490L230 487L233 488L237 489L240 489L243 489L247 489L250 489L253 489L256 488L260 489L263 488L266 488L270 488L273 487L276 487L280 486L283 486L286 486L289 486L293 487L296 487L299 488L303 488L306 488L309 488L313 488L316 487L319 487L323 487L326 487L329 488L332 487L336 487L339 487L342 487L346 489L349 491L352 491L356 492L359 491L362 489L365 491L369 490L372 489L375 490L379 489L382 486L385 485L389 485L392 485L395 486L398 486L402 486L405 487L408 485L412 484L415 484L418 484L422 484L425 485L428 486L431 488L435 490L438 490L441 489L445 488L448 488L451 485L455 487L458 488L461 481L464 466L468 459L471 457L474 455L478 457L481 451L484 447L488 431L491 450L494 450L497 451L501 446L504 454L507 456L511 457L514 456L517 456L521 456L524 456L527 455L531 456L534 456L537 456L540 456L544 454L547 446L550 446L554 445L557 444L560 447L564 445L567 442L570 438L573 438L577 440L580 444L583 447L587 452L590 451L593 451L597 449L600 448L603 459L606 453L610 448L613 447L616 444L620 441L623 440L626 445L630 445L633 440L636 439L639 436L643 431L646 425L649 419L653 414L656 410L659 402L663 401L666 395L669 390L672 384L676 382L679 383" fill="none" stroke-width="1.5"></path></g><g class="key-World_1"><path stroke="#2a939b" stroke-linecap="round" d="M62 494L65 493L68 493L72 493L75 493L78 491L81 491L85 491L88 492L91 492L95 492L98 491L101 493L105 488L108 489L111 487L115 486L118 488L121 486L124 485L128 487L131 485L134 487L138 469L141 488L144 487L148 488L151 470L154 471L157 472L161 488L164 487L167 488L171 474L174 478L177 480L181 481L184 467L187 463L190 472L194 471L197 467L200 472L204 458L207 464L210 461L214 463L217 464L220 462L223 463L227 466L230 466L233 467L237 460L240 460L243 460L247 460L250 457L253 457L256 453L260 452L263 450L266 449L270 449L273 447L276 445L280 447L283 445L286 443L289 445L293 451L296 447L299 445L303 446L306 445L309 443L313 436L316 435L319 434L323 439L326 438L329 437L332 433L336 435L339 433L342 431L346 435L349 443L352 437L356 437L359 443L362 440L365 437L369 438L372 443L375 438L379 429L382 433L385 439L389 440L392 439L395 438L398 440L402 445L405 443L408 434L412 435L415 434L418 433L422 430L425 432L428 437L431 445L435 441L438 448L441 451L445 452L448 446L451 435L455 436L458 438L461 438L464 417L468 392L471 393L474 398L478 392L481 393L484 397L488 401L491 398L494 396L497 396L501 398L504 396L507 392L511 390L514 391L517 394L521 393L524 394L527 395L531 395L534 396L537 398L540 396L544 392L547 379L550 386L554 381L557 381L560 386L564 382L567 381L570 386L573 389L577 391L580 390L583 391L587 394L590 391L593 394L597 393L600 394L603 426L606 426L610 423L613 422L616 422L620 420L623 418L626 418L630 415L633 408L636 408L639 407L643 407L646 405L649 401L653 400L656 403L659 403L663 405L666 403L669 403L672 404L676 407L679 407" fill="none" stroke-width="1.5"></path></g><g class="key-World_3"><path stroke="#f6a324" stroke-linecap="round" d="M62 193L65 202L68 203L72 190L75 212L78 179L81 180L85 221L88 182L91 172L95 176L98 169L101 181L105 220L108 174L111 181L115 200L118 190L121 202L124 191L128 182L131 180L134 185L138 226L141 189L144 191L148 173L151 184L154 210L157 207L161 176L164 183L167 176L171 212L174 179L177 183L181 187L184 206L187 225L190 190L194 190L197 197L200 191L204 219L207 194L210 204L214 195L217 192L220 193L223 185L227 187L230 192L233 187L237 194L240 196L243 198L247 198L250 201L253 201L256 204L260 206L263 215L266 216L270 216L273 219L276 221L280 224L283 226L286 227L289 225L293 215L296 219L299 219L303 217L306 220L309 222L313 231L316 237L319 240L323 239L326 239L329 240L332 244L336 246L339 248L342 250L346 247L349 236L352 223L356 223L359 216L362 226L365 228L369 246L372 247L375 240L379 256L382 258L385 258L389 253L392 255L395 260L398 259L402 253L405 251L408 263L412 264L415 269L418 274L422 274L425 273L428 271L431 263L435 252L438 242L441 225L445 203L448 212L451 248L455 269L458 283L461 303L464 316L468 343L471 344L474 348L478 343L481 348L484 349L488 353L491 350L494 354L497 347L501 350L504 346L507 346L511 343L514 341L517 339L521 337L524 335L527 333L531 332L534 333L537 332L540 330L544 336L547 352L550 356L554 357L557 360L560 357L564 358L567 364L570 366L573 363L577 356L580 348L583 342L587 333L590 336L593 335L597 337L600 339L603 278L606 288L610 304L613 304L616 307L620 312L623 316L626 308L630 308L633 320L636 320L639 323L643 327L646 336L649 344L653 350L656 353L659 363L663 364L666 372L669 376L672 381L676 383L679 381" fill="none" stroke-width="1.5"></path></g></g></g></g><g class="SourcesFooter" style="fill:#777"><g class="clickable" style="fill:#777"><text font-size="12.60" x="15.0" y="540.5"><tspan x="15" y="540.48">Source: Fouquin and Hugot (CEPII 2016)</tspan></text></g><text font-size="12.60" x="15.0" y="555.1"><tspan x="15" y="555.08">Note: The rich countries in this chart are: Australia, Austria, Belgium, Canada, Cyprus, Denmark, Finland, France, Germany, Greece, Iceland,</tspan><tspan x="15" y="568.94">Ireland, Israel, Italy, Japan, Luxembourg, Netherlands, Norway, Portugal, Spain, Sweden, Switzerland, United Kingdom, United States. &#x27;Non-rich</tspan><tspan x="15" y="582.8000000000001">countries&#x27; are all the other countries in the world for which data is available.</tspan></text><text font-size="12.60" x="775.4" y="540.5"><tspan x="775.402" y="540.48"><a style="fill: #777;" class="cclogo" href="http://creativecommons.org/licenses/by-sa/4.0/deed.en_US" target="_blank">CC BY-SA</a></tspan></text></g></g></svg>