<svg xmlns="http://www.w3.org/2000/svg" version="1.1" style="font-family:&#x27;Helvetica Neue&#x27;, Helvetica, Arial, sans-serif;font-size:18px;background-color:white;text-rendering:optimizeLegibility;-webkit-font-smoothing:antialiased" width="850" height="600"><g class="ChartTab"><g class="HeaderView"><g opacity="0.8" transform="translate(778, 15) scale(0.27)"><a xmlns:xlink="http://www.w3.org/1999/xlink" xlink:href="https://ourworldindata.org" target="_blank"><g><rect x="0" y="0" fill="#1B2543" width="211.2" height="130.1"/><rect x="0" y="112.2" fill="#E63912" width="211.2" height="17.9"/><g><rect x="1.2" y="12.3" fill="none" width="210.2" height="99.2"/><path fill="#FFFFFF" d="M37.8,32.2c0,12.7-7.7,19.4-17.1,19.4c-9.7,0-16.6-7.5-16.6-18.7c0-11.7,7.3-19.3,17.1-19.3 C31.3,13.7,37.8,21.3,37.8,32.2z M9.2,32.8c0,7.9,4.3,14.9,11.8,14.9c7.5,0,11.8-6.9,11.8-15.3c0-7.3-3.8-14.9-11.8-14.9 C13.1,17.5,9.2,24.8,9.2,32.8z"/><path fill="#FFFFFF" d="M62.7,43.8c0,2.7,0.1,5.1,0.2,7.2h-4.3l-0.3-4.3h-0.1c-1.3,2.1-4,4.9-8.8,4.9c-4.2,0-9.1-2.3-9.1-11.6 V24.6h4.8v14.6c0,5,1.5,8.4,5.9,8.4c3.2,0,5.5-2.2,6.3-4.4c0.3-0.7,0.4-1.6,0.4-2.5V24.6h4.8V43.8z"/><path fill="#FFFFFF" d="M67.3,32.8c0-3.1-0.1-5.8-0.2-8.2h4.2l0.2,5.2h0.2c1.2-3.5,4.1-5.8,7.3-5.8c0.5,0,0.9,0.1,1.4,0.2v4.5 c-0.5-0.1-1-0.2-1.6-0.2c-3.4,0-5.8,2.6-6.5,6.2c-0.1,0.7-0.2,1.4-0.2,2.2V51h-4.8V32.8z"/><path fill="#FFFFFF" d="M95.4,51l-9.4-36.8h5l4.4,18.6c1.1,4.6,2.1,9.2,2.7,12.7h0.1c0.6-3.7,1.8-8,3-12.8l4.9-18.5h5l4.5,18.7 c1,4.4,2,8.7,2.6,12.6h0.1c0.8-4,1.8-8.1,3-12.7l4.9-18.5h4.9L120.6,51h-5L111,31.9c-1.1-4.7-1.9-8.3-2.4-12h-0.1 c-0.7,3.7-1.5,7.3-2.8,12L100.4,51H95.4z"/><path fill="#FFFFFF" d="M154.9,37.6c0,9.8-6.8,14-13.2,14c-7.2,0-12.7-5.2-12.7-13.6c0-8.8,5.8-14,13.1-14 C149.8,24,154.9,29.5,154.9,37.6z M133.9,37.9c0,5.8,3.3,10.1,8,10.1c4.6,0,8-4.3,8-10.3c0-4.5-2.2-10.1-7.9-10.1 C136.3,27.6,133.9,32.8,133.9,37.9z"/><path fill="#FFFFFF" d="M158.2,32.8c0-3.1-0.1-5.8-0.2-8.2h4.2l0.2,5.2h0.2c1.2-3.5,4.1-5.8,7.3-5.8c0.5,0,0.9,0.1,1.4,0.2v4.5 c-0.5-0.1-1-0.2-1.6-0.2c-3.4,0-5.8,2.6-6.5,6.2c-0.1,0.7-0.2,1.4-0.2,2.2V51h-4.8V32.8z"/><path fill="#FFFFFF" d="M173.5,12.3h4.8V51h-4.8V12.3z"/><path fill="#FFFFFF" d="M206.5,12.3v31.9c0,2.3,0.1,5,0.2,6.8h-4.3l-0.2-4.6H202c-1.5,2.9-4.7,5.2-9,5.2 c-6.4,0-11.3-5.4-11.3-13.4c-0.1-8.8,5.4-14.2,11.9-14.2c4,0,6.8,1.9,8,4h0.1V12.3H206.5z M201.7,35.4c0-0.6-0.1-1.4-0.2-2 c-0.7-3.1-3.3-5.6-6.9-5.6c-5,0-7.9,4.4-7.9,10.2c0,5.3,2.6,9.8,7.8,9.8c3.2,0,6.2-2.1,7.1-5.7c0.2-0.7,0.2-1.3,0.2-2.1V35.4z"/><path fill="#FFFFFF" d="M42.8,64c0.1,1.6-1.1,2.9-3.1,2.9c-1.7,0-2.9-1.3-2.9-2.9c0-1.7,1.3-3,3-3C41.7,61,42.8,62.3,42.8,64z M37.4,97.8V71.4h4.8v26.4H37.4z"/><path fill="#FFFFFF" d="M47.5,78.6c0-2.7-0.1-5-0.2-7.1h4.3l0.3,4.4h0.1c1.3-2.5,4.4-5,8.8-5c3.7,0,9.4,2.2,9.4,11.2v15.8h-4.8 V82.6c0-4.3-1.6-7.8-6.1-7.8c-3.2,0-5.6,2.2-6.5,4.9c-0.2,0.6-0.3,1.4-0.3,2.2v15.9h-4.8V78.6z"/><path fill="#FFFFFF" d="M84,61.6c2.9-0.4,6.3-0.8,10.1-0.8c6.8,0,11.7,1.6,14.9,4.6c3.3,3,5.2,7.3,5.2,13.2c0,6-1.9,10.9-5.3,14.3 c-3.4,3.4-9.1,5.3-16.3,5.3c-3.4,0-6.2-0.2-8.6-0.4V61.6z M88.8,94.1c1.2,0.2,3,0.3,4.8,0.3c10.2,0,15.7-5.7,15.7-15.6 c0.1-8.7-4.9-14.2-14.9-14.2c-2.5,0-4.3,0.2-5.6,0.5V94.1z"/><path fill="#FFFFFF" d="M132.1,97.8l-0.4-3.3h-0.2c-1.5,2.1-4.3,3.9-8.1,3.9c-5.4,0-8.1-3.8-8.1-7.6c0-6.4,5.7-9.9,15.9-9.8v-0.5 c0-2.2-0.6-6.1-6-6.1c-2.5,0-5,0.8-6.9,2l-1.1-3.2c2.2-1.4,5.4-2.3,8.7-2.3c8.1,0,10.1,5.5,10.1,10.8v9.9c0,2.3,0.1,4.5,0.4,6.3 H132.1z M131.4,84.4c-5.3-0.1-11.2,0.8-11.2,5.9c0,3.1,2.1,4.6,4.5,4.6c3.4,0,5.6-2.2,6.4-4.4c0.2-0.5,0.3-1,0.3-1.5V84.4z"/><path fill="#FFFFFF" d="M146.6,63.9v7.6h6.9v3.7h-6.9v14.2c0,3.3,0.9,5.1,3.6,5.1c1.3,0,2.2-0.2,2.8-0.3l0.2,3.6 c-0.9,0.4-2.4,0.7-4.3,0.7c-2.2,0-4-0.7-5.2-2c-1.4-1.4-1.9-3.8-1.9-6.9V75.1h-4.1v-3.7h4.1v-6.3L146.6,63.9z"/><path fill="#FFFFFF" d="M171.4,97.8l-0.4-3.3h-0.2c-1.5,2.1-4.3,3.9-8.1,3.9c-5.4,0-8.1-3.8-8.1-7.6c0-6.4,5.7-9.9,15.9-9.8v-0.5 c0-2.2-0.6-6.1-6-6.1c-2.5,0-5,0.8-6.9,2l-1.1-3.2c2.2-1.4,5.4-2.3,8.7-2.3c8.1,0,10.1,5.5,10.1,10.8v9.9c0,2.3,0.1,4.5,0.4,6.3 H171.4z M170.7,84.4c-5.3-0.1-11.2,0.8-11.2,5.9c0,3.1,2.1,4.6,4.5,4.6c3.4,0,5.6-2.2,6.4-4.4c0.2-0.5,0.3-1,0.3-1.5V84.4z"/></g></g></a></g><a href="https://ourworldindata.org/grapher/share-of-adults-who-are-overweight?tab=chart" target="_blank"><text font-size="25.20" x="15.0" y="35.2" fill="#555"><tspan x="15" y="35.160000000000004">Share of adults who are overweight</tspan></text></a><text font-size="14.40" x="15.0" y="53.7" fill="#666"><tspan x="15" y="53.72">Percentage of adults aged 18+ years who have a body-mass index (BMI) greater than or equal to 25. BMI is a</tspan><tspan x="15" y="69.56">person&#x27;s weight in kilograms (kg) divided by his or her height in metres squared.</tspan></text></g><g class="LineChart"><defs><clipPath id="boundsClip-323"><rect x="42.562" y="0" width="830" height="928.8"></rect></clipPath></defs><g class="AxisBoxView"><g class="HorizontalAxis"><text x="52.6" y="556.5" fill="#666" text-anchor="middle" font-size="16.2">1975</text><text x="126.4" y="556.5" fill="#666" text-anchor="middle" font-size="16.2">1980</text><text x="200.3" y="556.5" fill="#666" text-anchor="middle" font-size="16.2">1985</text><text x="274.2" y="556.5" fill="#666" text-anchor="middle" font-size="16.2">1990</text><text x="348.1" y="556.5" fill="#666" text-anchor="middle" font-size="16.2">1995</text><text x="422" y="556.5" fill="#666" text-anchor="middle" font-size="16.2">2000</text><text x="495.8" y="556.5" fill="#666" text-anchor="middle" font-size="16.2">2005</text><text x="569.7" y="556.5" fill="#666" text-anchor="middle" font-size="16.2">2010</text><text x="658.4" y="556.5" fill="#666" text-anchor="middle" font-size="16.2">2016</text></g><g class="VerticalAxis"><text x="47.56" y="535.3" fill="#666" dominant-baseline="middle" text-anchor="end" font-size="16.2">0%</text><text x="47.56" y="472.2" fill="#666" dominant-baseline="middle" text-anchor="end" font-size="16.2">10%</text><text x="47.56" y="409" fill="#666" dominant-baseline="middle" text-anchor="end" font-size="16.2">20%</text><text x="47.56" y="345.9" fill="#666" dominant-baseline="middle" text-anchor="end" font-size="16.2">30%</text><text x="47.56" y="282.8" fill="#666" dominant-baseline="middle" text-anchor="end" font-size="16.2">40%</text><text x="47.56" y="219.6" fill="#666" dominant-baseline="middle" text-anchor="end" font-size="16.2">50%</text><text x="47.56" y="156.5" fill="#666" dominant-baseline="middle" text-anchor="end" font-size="16.2">60%</text><text x="47.56" y="93.4" fill="#666" dominant-baseline="middle" text-anchor="end" font-size="16.2">70%</text></g><g class="AxisGridLines"><line x1="52.56" y1="535.3" x2="658.38" y2="535.3" stroke="#ccc"></line><line x1="52.56" y1="472.2" x2="658.38" y2="472.2" stroke="#ddd" stroke-dasharray="3,2"></line><line x1="52.56" y1="409" x2="658.38" y2="409" stroke="#ddd" stroke-dasharray="3,2"></line><line x1="52.56" y1="345.9" x2="658.38" y2="345.9" stroke="#ddd" stroke-dasharray="3,2"></line><line x1="52.56" y1="282.8" x2="658.38" y2="282.8" stroke="#ddd" stroke-dasharray="3,2"></line><line x1="52.56" y1="219.6" x2="658.38" y2="219.6" stroke="#ddd" stroke-dasharray="3,2"></line><line x1="52.56" y1="156.5" x2="658.38" y2="156.5" stroke="#ddd" stroke-dasharray="3,2"></line><line x1="52.56" y1="93.4" x2="658.38" y2="93.4" stroke="#ddd" stroke-dasharray="3,2"></line></g></g><g clip-path="url(#boundsClip-323)"><g class="HeightedLegend clickable"><g class="legendMark"><rect x="658.385" y="85.35" width="116.405" height="13.5" fill="#fff" opacity="0"></rect><text font-size="13.50" x="663.4" y="96.1" fill="#f6a324"><tspan x="663.385" y="96.14999999999999">United States</tspan></text></g><g class="legendMark"><rect x="658.385" y="175.05" width="71.855" height="13.5" fill="#fff" opacity="0"></rect><text font-size="13.50" x="663.4" y="185.9" fill="#34983f"><tspan x="663.385" y="185.85000000000002">Oman</tspan></text></g><g class="legendMark"><rect x="658.385" y="329.05" width="176.615" height="13.5" fill="#fff" opacity="0"></rect><text font-size="13.50" x="663.4" y="339.9" fill="#ca2628"><tspan x="663.385" y="339.85">Sao Tome and Principe</tspan></text></g><g class="legendMark"><rect x="658.385" y="407.35" width="74.825" height="13.5" fill="#fff" opacity="0"></rect><text font-size="13.50" x="663.4" y="418.2" fill="#3360a9"><tspan x="663.385" y="418.15000000000003">Eritrea</tspan></text></g></g><g class="Lines"><rect x="53" y="92" width="606" height="443" fill="rgba(255,255,255,0)" opacity="0"></rect><g class="key-Sao-Tome-and-Principe_0"><path stroke="#ca2628" stroke-linecap="round" d="M53 470L67 468L82 466L97 463L112 461L126 460L141 458L156 456L171 453L186 451L200 449L215 447L230 444L245 443L259 439L274 437L289 433L304 430L319 426L333 422L348 419L363 416L378 413L392 410L407 408L422 405L437 402L452 398L466 395L481 391L496 388L511 384L525 379L540 375L555 370L570 366L585 360L599 355L614 350L629 345L644 340L658 336" fill="none" stroke-width="1.5"></path><g fill="#ca2628"><circle cx="53" cy="470" r="2"></circle><circle cx="67" cy="468" r="2"></circle><circle cx="82" cy="466" r="2"></circle><circle cx="97" cy="463" r="2"></circle><circle cx="112" cy="461" r="2"></circle><circle cx="126" cy="460" r="2"></circle><circle cx="141" cy="458" r="2"></circle><circle cx="156" cy="456" r="2"></circle><circle cx="171" cy="453" r="2"></circle><circle cx="186" cy="451" r="2"></circle><circle cx="200" cy="449" r="2"></circle><circle cx="215" cy="447" r="2"></circle><circle cx="230" cy="444" r="2"></circle><circle cx="245" cy="443" r="2"></circle><circle cx="259" cy="439" r="2"></circle><circle cx="274" cy="437" r="2"></circle><circle cx="289" cy="433" r="2"></circle><circle cx="304" cy="430" r="2"></circle><circle cx="319" cy="426" r="2"></circle><circle cx="333" cy="422" r="2"></circle><circle cx="348" cy="419" r="2"></circle><circle cx="363" cy="416" r="2"></circle><circle cx="378" cy="413" r="2"></circle><circle cx="392" cy="410" r="2"></circle><circle cx="407" cy="408" r="2"></circle><circle cx="422" cy="405" r="2"></circle><circle cx="437" cy="402" r="2"></circle><circle cx="452" cy="398" r="2"></circle><circle cx="466" cy="395" r="2"></circle><circle cx="481" cy="391" r="2"></circle><circle cx="496" cy="388" r="2"></circle><circle cx="511" cy="384" r="2"></circle><circle cx="525" cy="379" r="2"></circle><circle cx="540" cy="375" r="2"></circle><circle cx="555" cy="370" r="2"></circle><circle cx="570" cy="366" r="2"></circle><circle cx="585" cy="360" r="2"></circle><circle cx="599" cy="355" r="2"></circle><circle cx="614" cy="350" r="2"></circle><circle cx="629" cy="345" r="2"></circle><circle cx="644" cy="340" r="2"></circle><circle cx="658" cy="336" r="2"></circle></g></g><g class="key-Eritrea_0"><path stroke="#3360a9" stroke-linecap="round" d="M53 493L67 492L82 491L97 489L112 488L126 487L141 485L156 484L171 483L186 482L200 480L215 479L230 477L245 476L259 474L274 473L289 471L304 469L319 467L333 465L348 463L363 461L378 460L392 458L407 457L422 456L437 455L452 453L466 451L481 449L496 448L511 445L525 443L540 440L555 437L570 434L585 431L599 428L614 425L629 422L644 418L658 414" fill="none" stroke-width="1.5"></path><g fill="#3360a9"><circle cx="53" cy="493" r="2"></circle><circle cx="67" cy="492" r="2"></circle><circle cx="82" cy="491" r="2"></circle><circle cx="97" cy="489" r="2"></circle><circle cx="112" cy="488" r="2"></circle><circle cx="126" cy="487" r="2"></circle><circle cx="141" cy="485" r="2"></circle><circle cx="156" cy="484" r="2"></circle><circle cx="171" cy="483" r="2"></circle><circle cx="186" cy="482" r="2"></circle><circle cx="200" cy="480" r="2"></circle><circle cx="215" cy="479" r="2"></circle><circle cx="230" cy="477" r="2"></circle><circle cx="245" cy="476" r="2"></circle><circle cx="259" cy="474" r="2"></circle><circle cx="274" cy="473" r="2"></circle><circle cx="289" cy="471" r="2"></circle><circle cx="304" cy="469" r="2"></circle><circle cx="319" cy="467" r="2"></circle><circle cx="333" cy="465" r="2"></circle><circle cx="348" cy="463" r="2"></circle><circle cx="363" cy="461" r="2"></circle><circle cx="378" cy="460" r="2"></circle><circle cx="392" cy="458" r="2"></circle><circle cx="407" cy="457" r="2"></circle><circle cx="422" cy="456" r="2"></circle><circle cx="437" cy="455" r="2"></circle><circle cx="452" cy="453" r="2"></circle><circle cx="466" cy="451" r="2"></circle><circle cx="481" cy="449" r="2"></circle><circle cx="496" cy="448" r="2"></circle><circle cx="511" cy="445" r="2"></circle><circle cx="525" cy="443" r="2"></circle><circle cx="540" cy="440" r="2"></circle><circle cx="555" cy="437" r="2"></circle><circle cx="570" cy="434" r="2"></circle><circle cx="585" cy="431" r="2"></circle><circle cx="599" cy="428" r="2"></circle><circle cx="614" cy="425" r="2"></circle><circle cx="629" cy="422" r="2"></circle><circle cx="644" cy="418" r="2"></circle><circle cx="658" cy="414" r="2"></circle></g></g><g class="key-Oman_0"><path stroke="#34983f" stroke-linecap="round" d="M53 387L67 382L82 376L97 370L112 364L126 357L141 351L156 343L171 336L186 329L200 322L215 314L230 307L245 300L259 294L274 287L289 280L304 273L319 267L333 262L348 257L363 254L378 251L392 250L407 248L422 246L437 242L452 237L466 232L481 227L496 223L511 219L525 216L540 213L555 210L570 208L585 207L599 205L614 202L629 198L644 191L658 182" fill="none" stroke-width="1.5"></path><g fill="#34983f"><circle cx="53" cy="387" r="2"></circle><circle cx="67" cy="382" r="2"></circle><circle cx="82" cy="376" r="2"></circle><circle cx="97" cy="370" r="2"></circle><circle cx="112" cy="364" r="2"></circle><circle cx="126" cy="357" r="2"></circle><circle cx="141" cy="351" r="2"></circle><circle cx="156" cy="343" r="2"></circle><circle cx="171" cy="336" r="2"></circle><circle cx="186" cy="329" r="2"></circle><circle cx="200" cy="322" r="2"></circle><circle cx="215" cy="314" r="2"></circle><circle cx="230" cy="307" r="2"></circle><circle cx="245" cy="300" r="2"></circle><circle cx="259" cy="294" r="2"></circle><circle cx="274" cy="287" r="2"></circle><circle cx="289" cy="280" r="2"></circle><circle cx="304" cy="273" r="2"></circle><circle cx="319" cy="267" r="2"></circle><circle cx="333" cy="262" r="2"></circle><circle cx="348" cy="257" r="2"></circle><circle cx="363" cy="254" r="2"></circle><circle cx="378" cy="251" r="2"></circle><circle cx="392" cy="250" r="2"></circle><circle cx="407" cy="248" r="2"></circle><circle cx="422" cy="246" r="2"></circle><circle cx="437" cy="242" r="2"></circle><circle cx="452" cy="237" r="2"></circle><circle cx="466" cy="232" r="2"></circle><circle cx="481" cy="227" r="2"></circle><circle cx="496" cy="223" r="2"></circle><circle cx="511" cy="219" r="2"></circle><circle cx="525" cy="216" r="2"></circle><circle cx="540" cy="213" r="2"></circle><circle cx="555" cy="210" r="2"></circle><circle cx="570" cy="208" r="2"></circle><circle cx="585" cy="207" r="2"></circle><circle cx="599" cy="205" r="2"></circle><circle cx="614" cy="202" r="2"></circle><circle cx="629" cy="198" r="2"></circle><circle cx="644" cy="191" r="2"></circle><circle cx="658" cy="182" r="2"></circle></g></g><g class="key-United-States_0"><path stroke="#f6a324" stroke-linecap="round" d="M53 278L67 274L82 271L97 267L112 264L126 259L141 256L156 251L171 247L186 242L200 237L215 232L230 227L245 222L259 216L274 211L289 205L304 199L319 194L333 188L348 182L363 177L378 172L392 166L407 161L422 156L437 151L452 146L466 141L481 137L496 133L511 129L525 124L540 121L555 117L570 113L585 109L599 106L614 102L629 99L644 96L658 92" fill="none" stroke-width="1.5"></path><g fill="#f6a324"><circle cx="53" cy="278" r="2"></circle><circle cx="67" cy="274" r="2"></circle><circle cx="82" cy="271" r="2"></circle><circle cx="97" cy="267" r="2"></circle><circle cx="112" cy="264" r="2"></circle><circle cx="126" cy="259" r="2"></circle><circle cx="141" cy="256" r="2"></circle><circle cx="156" cy="251" r="2"></circle><circle cx="171" cy="247" r="2"></circle><circle cx="186" cy="242" r="2"></circle><circle cx="200" cy="237" r="2"></circle><circle cx="215" cy="232" r="2"></circle><circle cx="230" cy="227" r="2"></circle><circle cx="245" cy="222" r="2"></circle><circle cx="259" cy="216" r="2"></circle><circle cx="274" cy="211" r="2"></circle><circle cx="289" cy="205" r="2"></circle><circle cx="304" cy="199" r="2"></circle><circle cx="319" cy="194" r="2"></circle><circle cx="333" cy="188" r="2"></circle><circle cx="348" cy="182" r="2"></circle><circle cx="363" cy="177" r="2"></circle><circle cx="378" cy="172" r="2"></circle><circle cx="392" cy="166" r="2"></circle><circle cx="407" cy="161" r="2"></circle><circle cx="422" cy="156" r="2"></circle><circle cx="437" cy="151" r="2"></circle><circle cx="452" cy="146" r="2"></circle><circle cx="466" cy="141" r="2"></circle><circle cx="481" cy="137" r="2"></circle><circle cx="496" cy="133" r="2"></circle><circle cx="511" cy="129" r="2"></circle><circle cx="525" cy="124" r="2"></circle><circle cx="540" cy="121" r="2"></circle><circle cx="555" cy="117" r="2"></circle><circle cx="570" cy="113" r="2"></circle><circle cx="585" cy="109" r="2"></circle><circle cx="599" cy="106" r="2"></circle><circle cx="614" cy="102" r="2"></circle><circle cx="629" cy="99" r="2"></circle><circle cx="644" cy="96" r="2"></circle><circle cx="658" cy="92" r="2"></circle></g></g></g></g></g><g class="SourcesFooter" style="fill:#777"><g class="clickable" style="fill:#777"><text font-size="12.60" x="15.0" y="581.6"><tspan x="15" y="581.58">Source: WHO, Global Health Observatory</tspan></text></g><text font-size="12.60" x="775.4" y="581.6"><tspan x="775.402" y="581.58"><a style="fill: #777;" class="cclogo" href="http://creativecommons.org/licenses/by-sa/4.0/deed.en_US" target="_blank">CC BY-SA</a></tspan></text></g></g></svg>