<svg xmlns="http://www.w3.org/2000/svg" version="1.1" style="font-family:&#x27;Helvetica Neue&#x27;, Helvetica, Arial, sans-serif;font-size:18px;background-color:white;text-rendering:optimizeLegibility;-webkit-font-smoothing:antialiased" width="850" height="600"><g class="ChartTab"><g class="HeaderView"><g opacity="0.8" transform="translate(778, 15) scale(0.27)"><a xmlns:xlink="http://www.w3.org/1999/xlink" xlink:href="https://ourworldindata.org" target="_blank"><g><rect x="0" y="0" fill="#1B2543" width="211.2" height="130.1"/><rect x="0" y="112.2" fill="#E63912" width="211.2" height="17.9"/><g><rect x="1.2" y="12.3" fill="none" width="210.2" height="99.2"/><path fill="#FFFFFF" d="M37.8,32.2c0,12.7-7.7,19.4-17.1,19.4c-9.7,0-16.6-7.5-16.6-18.7c0-11.7,7.3-19.3,17.1-19.3 C31.3,13.7,37.8,21.3,37.8,32.2z M9.2,32.8c0,7.9,4.3,14.9,11.8,14.9c7.5,0,11.8-6.9,11.8-15.3c0-7.3-3.8-14.9-11.8-14.9 C13.1,17.5,9.2,24.8,9.2,32.8z"/><path fill="#FFFFFF" d="M62.7,43.8c0,2.7,0.1,5.1,0.2,7.2h-4.3l-0.3-4.3h-0.1c-1.3,2.1-4,4.9-8.8,4.9c-4.2,0-9.1-2.3-9.1-11.6 V24.6h4.8v14.6c0,5,1.5,8.4,5.9,8.4c3.2,0,5.5-2.2,6.3-4.4c0.3-0.7,0.4-1.6,0.4-2.5V24.6h4.8V43.8z"/><path fill="#FFFFFF" d="M67.3,32.8c0-3.1-0.1-5.8-0.2-8.2h4.2l0.2,5.2h0.2c1.2-3.5,4.1-5.8,7.3-5.8c0.5,0,0.9,0.1,1.4,0.2v4.5 c-0.5-0.1-1-0.2-1.6-0.2c-3.4,0-5.8,2.6-6.5,6.2c-0.1,0.7-0.2,1.4-0.2,2.2V51h-4.8V32.8z"/><path fill="#FFFFFF" d="M95.4,51l-9.4-36.8h5l4.4,18.6c1.1,4.6,2.1,9.2,2.7,12.7h0.1c0.6-3.7,1.8-8,3-12.8l4.9-18.5h5l4.5,18.7 c1,4.4,2,8.7,2.6,12.6h0.1c0.8-4,1.8-8.1,3-12.7l4.9-18.5h4.9L120.6,51h-5L111,31.9c-1.1-4.7-1.9-8.3-2.4-12h-0.1 c-0.7,3.7-1.5,7.3-2.8,12L100.4,51H95.4z"/><path fill="#FFFFFF" d="M154.9,37.6c0,9.8-6.8,14-13.2,14c-7.2,0-12.7-5.2-12.7-13.6c0-8.8,5.8-14,13.1-14 C149.8,24,154.9,29.5,154.9,37.6z M133.9,37.9c0,5.8,3.3,10.1,8,10.1c4.6,0,8-4.3,8-10.3c0-4.5-2.2-10.1-7.9-10.1 C136.3,27.6,133.9,32.8,133.9,37.9z"/><path fill="#FFFFFF" d="M158.2,32.8c0-3.1-0.1-5.8-0.2-8.2h4.2l0.2,5.2h0.2c1.2-3.5,4.1-5.8,7.3-5.8c0.5,0,0.9,0.1,1.4,0.2v4.5 c-0.5-0.1-1-0.2-1.6-0.2c-3.4,0-5.8,2.6-6.5,6.2c-0.1,0.7-0.2,1.4-0.2,2.2V51h-4.8V32.8z"/><path fill="#FFFFFF" d="M173.5,12.3h4.8V51h-4.8V12.3z"/><path fill="#FFFFFF" d="M206.5,12.3v31.9c0,2.3,0.1,5,0.2,6.8h-4.3l-0.2-4.6H202c-1.5,2.9-4.7,5.2-9,5.2 c-6.4,0-11.3-5.4-11.3-13.4c-0.1-8.8,5.4-14.2,11.9-14.2c4,0,6.8,1.9,8,4h0.1V12.3H206.5z M201.7,35.4c0-0.6-0.1-1.4-0.2-2 c-0.7-3.1-3.3-5.6-6.9-5.6c-5,0-7.9,4.4-7.9,10.2c0,5.3,2.6,9.8,7.8,9.8c3.2,0,6.2-2.1,7.1-5.7c0.2-0.7,0.2-1.3,0.2-2.1V35.4z"/><path fill="#FFFFFF" d="M42.8,64c0.1,1.6-1.1,2.9-3.1,2.9c-1.7,0-2.9-1.3-2.9-2.9c0-1.7,1.3-3,3-3C41.7,61,42.8,62.3,42.8,64z M37.4,97.8V71.4h4.8v26.4H37.4z"/><path fill="#FFFFFF" d="M47.5,78.6c0-2.7-0.1-5-0.2-7.1h4.3l0.3,4.4h0.1c1.3-2.5,4.4-5,8.8-5c3.7,0,9.4,2.2,9.4,11.2v15.8h-4.8 V82.6c0-4.3-1.6-7.8-6.1-7.8c-3.2,0-5.6,2.2-6.5,4.9c-0.2,0.6-0.3,1.4-0.3,2.2v15.9h-4.8V78.6z"/><path fill="#FFFFFF" d="M84,61.6c2.9-0.4,6.3-0.8,10.1-0.8c6.8,0,11.7,1.6,14.9,4.6c3.3,3,5.2,7.3,5.2,13.2c0,6-1.9,10.9-5.3,14.3 c-3.4,3.4-9.1,5.3-16.3,5.3c-3.4,0-6.2-0.2-8.6-0.4V61.6z M88.8,94.1c1.2,0.2,3,0.3,4.8,0.3c10.2,0,15.7-5.7,15.7-15.6 c0.1-8.7-4.9-14.2-14.9-14.2c-2.5,0-4.3,0.2-5.6,0.5V94.1z"/><path fill="#FFFFFF" d="M132.1,97.8l-0.4-3.3h-0.2c-1.5,2.1-4.3,3.9-8.1,3.9c-5.4,0-8.1-3.8-8.1-7.6c0-6.4,5.7-9.9,15.9-9.8v-0.5 c0-2.2-0.6-6.1-6-6.1c-2.5,0-5,0.8-6.9,2l-1.1-3.2c2.2-1.4,5.4-2.3,8.7-2.3c8.1,0,10.1,5.5,10.1,10.8v9.9c0,2.3,0.1,4.5,0.4,6.3 H132.1z M131.4,84.4c-5.3-0.1-11.2,0.8-11.2,5.9c0,3.1,2.1,4.6,4.5,4.6c3.4,0,5.6-2.2,6.4-4.4c0.2-0.5,0.3-1,0.3-1.5V84.4z"/><path fill="#FFFFFF" d="M146.6,63.9v7.6h6.9v3.7h-6.9v14.2c0,3.3,0.9,5.1,3.6,5.1c1.3,0,2.2-0.2,2.8-0.3l0.2,3.6 c-0.9,0.4-2.4,0.7-4.3,0.7c-2.2,0-4-0.7-5.2-2c-1.4-1.4-1.9-3.8-1.9-6.9V75.1h-4.1v-3.7h4.1v-6.3L146.6,63.9z"/><path fill="#FFFFFF" d="M171.4,97.8l-0.4-3.3h-0.2c-1.5,2.1-4.3,3.9-8.1,3.9c-5.4,0-8.1-3.8-8.1-7.6c0-6.4,5.7-9.9,15.9-9.8v-0.5 c0-2.2-0.6-6.1-6-6.1c-2.5,0-5,0.8-6.9,2l-1.1-3.2c2.2-1.4,5.4-2.3,8.7-2.3c8.1,0,10.1,5.5,10.1,10.8v9.9c0,2.3,0.1,4.5,0.4,6.3 H171.4z M170.7,84.4c-5.3-0.1-11.2,0.8-11.2,5.9c0,3.1,2.1,4.6,4.5,4.6c3.4,0,5.6-2.2,6.4-4.4c0.2-0.5,0.3-1,0.3-1.5V84.4z"/></g></g></a></g><a href="https://ourworldindata.org/grapher/share-of-men-defined-as-overweight?tab=chart" target="_blank"><text font-size="25.20" x="15.0" y="35.2" fill="#555"><tspan x="15" y="35.160000000000004">Share of men defined as overweight</tspan></text></a><text font-size="14.40" x="15.0" y="53.7" fill="#666"><tspan x="15" y="53.72">The percentage of adult males (aged 18+ years) who are defined as overweight. An adult is defined as overweight if</tspan><tspan x="15" y="69.56">their body-mass index (BMI) is greater than 25. Body mass index is a person&#x27;s weight in kilograms (kg) divided by his</tspan><tspan x="15" y="85.4">height in metres squared.</tspan></text></g><g class="LineChart"><defs><clipPath id="boundsClip-327"><rect x="42.562" y="0" width="830" height="897.8"></rect></clipPath></defs><g class="AxisBoxView"><g class="HorizontalAxis"><text x="52.6" y="556.5" fill="#666" text-anchor="middle" font-size="16.2">1975</text><text x="133.8" y="556.5" fill="#666" text-anchor="middle" font-size="16.2">1980</text><text x="215" y="556.5" fill="#666" text-anchor="middle" font-size="16.2">1985</text><text x="296.2" y="556.5" fill="#666" text-anchor="middle" font-size="16.2">1990</text><text x="377.5" y="556.5" fill="#666" text-anchor="middle" font-size="16.2">1995</text><text x="458.7" y="556.5" fill="#666" text-anchor="middle" font-size="16.2">2000</text><text x="539.9" y="556.5" fill="#666" text-anchor="middle" font-size="16.2">2005</text><text x="621.1" y="556.5" fill="#666" text-anchor="middle" font-size="16.2">2010</text><text x="718.6" y="556.5" fill="#666" text-anchor="middle" font-size="16.2">2016</text></g><g class="VerticalAxis"><text x="47.56" y="535.3" fill="#666" dominant-baseline="middle" text-anchor="end" font-size="16.2">0%</text><text x="47.56" y="476.5" fill="#666" dominant-baseline="middle" text-anchor="end" font-size="16.2">10%</text><text x="47.56" y="417.6" fill="#666" dominant-baseline="middle" text-anchor="end" font-size="16.2">20%</text><text x="47.56" y="358.8" fill="#666" dominant-baseline="middle" text-anchor="end" font-size="16.2">30%</text><text x="47.56" y="300" fill="#666" dominant-baseline="middle" text-anchor="end" font-size="16.2">40%</text><text x="47.56" y="241.1" fill="#666" dominant-baseline="middle" text-anchor="end" font-size="16.2">50%</text><text x="47.56" y="182.3" fill="#666" dominant-baseline="middle" text-anchor="end" font-size="16.2">60%</text><text x="47.56" y="123.5" fill="#666" dominant-baseline="middle" text-anchor="end" font-size="16.2">70%</text></g><g class="AxisGridLines"><line x1="52.56" y1="535.3" x2="718.60" y2="535.3" stroke="#ccc"></line><line x1="52.56" y1="476.5" x2="718.60" y2="476.5" stroke="#ddd" stroke-dasharray="3,2"></line><line x1="52.56" y1="417.6" x2="718.60" y2="417.6" stroke="#ddd" stroke-dasharray="3,2"></line><line x1="52.56" y1="358.8" x2="718.60" y2="358.8" stroke="#ddd" stroke-dasharray="3,2"></line><line x1="52.56" y1="300" x2="718.60" y2="300" stroke="#ddd" stroke-dasharray="3,2"></line><line x1="52.56" y1="241.1" x2="718.60" y2="241.1" stroke="#ddd" stroke-dasharray="3,2"></line><line x1="52.56" y1="182.3" x2="718.60" y2="182.3" stroke="#ddd" stroke-dasharray="3,2"></line><line x1="52.56" y1="123.5" x2="718.60" y2="123.5" stroke="#ddd" stroke-dasharray="3,2"></line></g></g><g clip-path="url(#boundsClip-327)"><g class="HeightedLegend clickable"><g class="legendMark"><g class="indicator"><line x1="723.595" y1="107.6" x2="746.095" y2="107.6" stroke="#666" stroke-width="0.5"></line><line x1="746.095" y1="107.6" x2="746.095" y2="107.6" stroke="#666" stroke-width="0.5"></line><line x1="746.095" y1="107.6" x2="748.595" y2="107.6" stroke="#666" stroke-width="0.5"></line></g><rect x="718.595" y="100.85" width="116.405" height="13.5" fill="#fff" opacity="0"></rect><text font-size="13.50" x="753.6" y="111.6" fill="#e6332e"><tspan x="753.595" y="111.64999999999999">United States</tspan></text></g><g class="legendMark"><g class="indicator"><line x1="723.595" y1="118.2" x2="736.095" y2="118.2" stroke="#666" stroke-width="0.5"></line><line x1="736.095" y1="118.2" x2="736.095" y2="123.1" stroke="#666" stroke-width="0.5"></line><line x1="736.095" y1="123.1" x2="748.595" y2="123.1" stroke="#666" stroke-width="0.5"></line></g><rect x="718.595" y="116.35" width="87.65" height="13.5" fill="#fff" opacity="0"></rect><text font-size="13.50" x="753.6" y="127.1" fill="#2a939b"><tspan x="753.595" y="127.14999999999999">Australia</tspan></text></g><g class="legendMark"><g class="indicator"><line x1="723.595" y1="196.4" x2="746.095" y2="196.4" stroke="#666" stroke-width="0.5"></line><line x1="746.095" y1="196.4" x2="746.095" y2="196.4" stroke="#666" stroke-width="0.5"></line><line x1="746.095" y1="196.4" x2="748.595" y2="196.4" stroke="#666" stroke-width="0.5"></line></g><rect x="718.595" y="189.65" width="68.75" height="13.5" fill="#fff" opacity="0"></rect><text font-size="13.50" x="753.6" y="200.5" fill="#a652ba"><tspan x="753.595" y="200.45000000000002">Brazil</tspan></text></g><g class="legendMark"><g class="indicator"><line x1="723.595" y1="202.3" x2="736.095" y2="202.3" stroke="#666" stroke-width="0.5"></line><line x1="736.095" y1="202.3" x2="736.095" y2="211.9" stroke="#666" stroke-width="0.5"></line><line x1="736.095" y1="211.9" x2="748.595" y2="211.9" stroke="#666" stroke-width="0.5"></line></g><rect x="718.595" y="205.15" width="92.105" height="13.5" fill="#fff" opacity="0"></rect><text font-size="13.50" x="753.6" y="216.0" fill="#f6a324"><tspan x="753.595" y="215.95000000000002">Colombia</tspan></text></g><g class="legendMark"><g class="indicator"><line x1="723.595" y1="228.2" x2="736.095" y2="228.2" stroke="#666" stroke-width="0.5"></line><line x1="736.095" y1="228.2" x2="736.095" y2="228.2" stroke="#666" stroke-width="0.5"></line><line x1="736.095" y1="228.2" x2="748.595" y2="228.2" stroke="#666" stroke-width="0.5"></line></g><rect x="718.595" y="221.45" width="74.825" height="13.5" fill="#fff" opacity="0"></rect><text font-size="13.50" x="753.6" y="232.3" fill="#34983f"><tspan x="753.595" y="232.25">Bolivia</tspan></text></g><g class="legendMark"><g class="indicator"><line x1="723.595" y1="425.3" x2="746.095" y2="425.3" stroke="#666" stroke-width="0.5"></line><line x1="746.095" y1="425.3" x2="746.095" y2="425.3" stroke="#666" stroke-width="0.5"></line><line x1="746.095" y1="425.3" x2="748.595" y2="425.3" stroke="#666" stroke-width="0.5"></line></g><rect x="718.595" y="418.55" width="92.24000000000001" height="13.5" fill="#fff" opacity="0"></rect><text font-size="13.50" x="753.6" y="429.4" fill="#ca2628"><tspan x="753.595" y="429.35">Sri Lanka</tspan></text></g><g class="legendMark"><g class="indicator"><line x1="723.595" y1="429.4" x2="736.095" y2="429.4" stroke="#666" stroke-width="0.5"></line><line x1="736.095" y1="429.4" x2="736.095" y2="440.8" stroke="#666" stroke-width="0.5"></line><line x1="736.095" y1="440.8" x2="748.595" y2="440.8" stroke="#666" stroke-width="0.5"></line></g><rect x="718.595" y="434.05" width="106.685" height="13.5" fill="#fff" opacity="0"></rect><text font-size="13.50" x="753.6" y="444.9" fill="#3360a9"><tspan x="753.595" y="444.85">Bangladesh</tspan></text></g></g><g class="Lines"><rect x="53" y="108" width="666" height="428" fill="rgba(255,255,255,0)" opacity="0"></rect><g class="key-Sri-Lanka_0"><path stroke="#ca2628" stroke-linecap="round" d="M53 502L69 502L85 501L101 500L118 499L134 498L150 498L166 497L183 495L199 495L215 494L231 492L248 491L264 490L280 489L296 487L313 486L329 485L345 483L361 481L378 480L394 478L410 477L426 474L442 472L459 471L475 468L491 466L507 464L524 461L540 459L556 457L572 454L589 451L605 448L621 445L637 442L654 439L670 436L686 432L702 429L719 425" fill="none" stroke-width="1.5"></path><g fill="#ca2628"><circle cx="53" cy="502" r="2"></circle><circle cx="69" cy="502" r="2"></circle><circle cx="85" cy="501" r="2"></circle><circle cx="101" cy="500" r="2"></circle><circle cx="118" cy="499" r="2"></circle><circle cx="134" cy="498" r="2"></circle><circle cx="150" cy="498" r="2"></circle><circle cx="166" cy="497" r="2"></circle><circle cx="183" cy="495" r="2"></circle><circle cx="199" cy="495" r="2"></circle><circle cx="215" cy="494" r="2"></circle><circle cx="231" cy="492" r="2"></circle><circle cx="248" cy="491" r="2"></circle><circle cx="264" cy="490" r="2"></circle><circle cx="280" cy="489" r="2"></circle><circle cx="296" cy="487" r="2"></circle><circle cx="313" cy="486" r="2"></circle><circle cx="329" cy="485" r="2"></circle><circle cx="345" cy="483" r="2"></circle><circle cx="361" cy="481" r="2"></circle><circle cx="378" cy="480" r="2"></circle><circle cx="394" cy="478" r="2"></circle><circle cx="410" cy="477" r="2"></circle><circle cx="426" cy="474" r="2"></circle><circle cx="442" cy="472" r="2"></circle><circle cx="459" cy="471" r="2"></circle><circle cx="475" cy="468" r="2"></circle><circle cx="491" cy="466" r="2"></circle><circle cx="507" cy="464" r="2"></circle><circle cx="524" cy="461" r="2"></circle><circle cx="540" cy="459" r="2"></circle><circle cx="556" cy="457" r="2"></circle><circle cx="572" cy="454" r="2"></circle><circle cx="589" cy="451" r="2"></circle><circle cx="605" cy="448" r="2"></circle><circle cx="621" cy="445" r="2"></circle><circle cx="637" cy="442" r="2"></circle><circle cx="654" cy="439" r="2"></circle><circle cx="670" cy="436" r="2"></circle><circle cx="686" cy="432" r="2"></circle><circle cx="702" cy="429" r="2"></circle><circle cx="719" cy="425" r="2"></circle></g></g><g class="key-Bolivia_0"><path stroke="#34983f" stroke-linecap="round" d="M53 406L69 403L85 400L101 397L118 393L134 389L150 385L166 381L183 377L199 372L215 368L231 364L248 359L264 354L280 349L296 344L313 339L329 334L345 329L361 325L378 320L394 315L410 311L426 306L442 301L459 297L475 292L491 288L507 284L524 279L540 275L556 271L572 266L589 262L605 258L621 254L637 249L654 245L670 241L686 236L702 232L719 228" fill="none" stroke-width="1.5"></path><g fill="#34983f"><circle cx="53" cy="406" r="2"></circle><circle cx="69" cy="403" r="2"></circle><circle cx="85" cy="400" r="2"></circle><circle cx="101" cy="397" r="2"></circle><circle cx="118" cy="393" r="2"></circle><circle cx="134" cy="389" r="2"></circle><circle cx="150" cy="385" r="2"></circle><circle cx="166" cy="381" r="2"></circle><circle cx="183" cy="377" r="2"></circle><circle cx="199" cy="372" r="2"></circle><circle cx="215" cy="368" r="2"></circle><circle cx="231" cy="364" r="2"></circle><circle cx="248" cy="359" r="2"></circle><circle cx="264" cy="354" r="2"></circle><circle cx="280" cy="349" r="2"></circle><circle cx="296" cy="344" r="2"></circle><circle cx="313" cy="339" r="2"></circle><circle cx="329" cy="334" r="2"></circle><circle cx="345" cy="329" r="2"></circle><circle cx="361" cy="325" r="2"></circle><circle cx="378" cy="320" r="2"></circle><circle cx="394" cy="315" r="2"></circle><circle cx="410" cy="311" r="2"></circle><circle cx="426" cy="306" r="2"></circle><circle cx="442" cy="301" r="2"></circle><circle cx="459" cy="297" r="2"></circle><circle cx="475" cy="292" r="2"></circle><circle cx="491" cy="288" r="2"></circle><circle cx="507" cy="284" r="2"></circle><circle cx="524" cy="279" r="2"></circle><circle cx="540" cy="275" r="2"></circle><circle cx="556" cy="271" r="2"></circle><circle cx="572" cy="266" r="2"></circle><circle cx="589" cy="262" r="2"></circle><circle cx="605" cy="258" r="2"></circle><circle cx="621" cy="254" r="2"></circle><circle cx="637" cy="249" r="2"></circle><circle cx="654" cy="245" r="2"></circle><circle cx="670" cy="241" r="2"></circle><circle cx="686" cy="236" r="2"></circle><circle cx="702" cy="232" r="2"></circle><circle cx="719" cy="228" r="2"></circle></g></g><g class="key-United-States_0"><path stroke="#e6332e" stroke-linecap="round" d="M53 267L69 264L85 259L101 255L118 252L134 248L150 244L166 239L183 235L199 231L215 227L231 223L248 218L264 214L280 210L296 205L313 201L329 196L345 192L361 188L378 183L394 178L410 174L426 169L442 165L459 161L475 156L491 152L507 149L524 145L540 141L556 138L572 135L589 131L605 128L621 125L637 122L654 119L670 116L686 113L702 110L719 108" fill="none" stroke-width="1.5"></path><g fill="#e6332e"><circle cx="53" cy="267" r="2"></circle><circle cx="69" cy="264" r="2"></circle><circle cx="85" cy="259" r="2"></circle><circle cx="101" cy="255" r="2"></circle><circle cx="118" cy="252" r="2"></circle><circle cx="134" cy="248" r="2"></circle><circle cx="150" cy="244" r="2"></circle><circle cx="166" cy="239" r="2"></circle><circle cx="183" cy="235" r="2"></circle><circle cx="199" cy="231" r="2"></circle><circle cx="215" cy="227" r="2"></circle><circle cx="231" cy="223" r="2"></circle><circle cx="248" cy="218" r="2"></circle><circle cx="264" cy="214" r="2"></circle><circle cx="280" cy="210" r="2"></circle><circle cx="296" cy="205" r="2"></circle><circle cx="313" cy="201" r="2"></circle><circle cx="329" cy="196" r="2"></circle><circle cx="345" cy="192" r="2"></circle><circle cx="361" cy="188" r="2"></circle><circle cx="378" cy="183" r="2"></circle><circle cx="394" cy="178" r="2"></circle><circle cx="410" cy="174" r="2"></circle><circle cx="426" cy="169" r="2"></circle><circle cx="442" cy="165" r="2"></circle><circle cx="459" cy="161" r="2"></circle><circle cx="475" cy="156" r="2"></circle><circle cx="491" cy="152" r="2"></circle><circle cx="507" cy="149" r="2"></circle><circle cx="524" cy="145" r="2"></circle><circle cx="540" cy="141" r="2"></circle><circle cx="556" cy="138" r="2"></circle><circle cx="572" cy="135" r="2"></circle><circle cx="589" cy="131" r="2"></circle><circle cx="605" cy="128" r="2"></circle><circle cx="621" cy="125" r="2"></circle><circle cx="637" cy="122" r="2"></circle><circle cx="654" cy="119" r="2"></circle><circle cx="670" cy="116" r="2"></circle><circle cx="686" cy="113" r="2"></circle><circle cx="702" cy="110" r="2"></circle><circle cx="719" cy="108" r="2"></circle></g></g><g class="key-Australia_0"><path stroke="#2a939b" stroke-linecap="round" d="M53 262L69 258L85 254L101 250L118 246L134 242L150 238L166 235L183 231L199 227L215 223L231 219L248 216L264 212L280 208L296 205L313 201L329 197L345 193L361 189L378 185L394 182L410 178L426 174L442 170L459 166L475 163L491 159L507 156L524 152L540 149L556 146L572 143L589 140L605 137L621 135L637 132L654 129L670 126L686 124L702 121L719 118" fill="none" stroke-width="1.5"></path><g fill="#2a939b"><circle cx="53" cy="262" r="2"></circle><circle cx="69" cy="258" r="2"></circle><circle cx="85" cy="254" r="2"></circle><circle cx="101" cy="250" r="2"></circle><circle cx="118" cy="246" r="2"></circle><circle cx="134" cy="242" r="2"></circle><circle cx="150" cy="238" r="2"></circle><circle cx="166" cy="235" r="2"></circle><circle cx="183" cy="231" r="2"></circle><circle cx="199" cy="227" r="2"></circle><circle cx="215" cy="223" r="2"></circle><circle cx="231" cy="219" r="2"></circle><circle cx="248" cy="216" r="2"></circle><circle cx="264" cy="212" r="2"></circle><circle cx="280" cy="208" r="2"></circle><circle cx="296" cy="205" r="2"></circle><circle cx="313" cy="201" r="2"></circle><circle cx="329" cy="197" r="2"></circle><circle cx="345" cy="193" r="2"></circle><circle cx="361" cy="189" r="2"></circle><circle cx="378" cy="185" r="2"></circle><circle cx="394" cy="182" r="2"></circle><circle cx="410" cy="178" r="2"></circle><circle cx="426" cy="174" r="2"></circle><circle cx="442" cy="170" r="2"></circle><circle cx="459" cy="166" r="2"></circle><circle cx="475" cy="163" r="2"></circle><circle cx="491" cy="159" r="2"></circle><circle cx="507" cy="156" r="2"></circle><circle cx="524" cy="152" r="2"></circle><circle cx="540" cy="149" r="2"></circle><circle cx="556" cy="146" r="2"></circle><circle cx="572" cy="143" r="2"></circle><circle cx="589" cy="140" r="2"></circle><circle cx="605" cy="137" r="2"></circle><circle cx="621" cy="135" r="2"></circle><circle cx="637" cy="132" r="2"></circle><circle cx="654" cy="129" r="2"></circle><circle cx="670" cy="126" r="2"></circle><circle cx="686" cy="124" r="2"></circle><circle cx="702" cy="121" r="2"></circle><circle cx="719" cy="118" r="2"></circle></g></g><g class="key-Bangladesh_0"><path stroke="#3360a9" stroke-linecap="round" d="M53 512L69 511L85 511L101 509L118 508L134 507L150 506L166 505L183 503L199 502L215 501L231 499L248 498L264 496L280 495L296 493L313 492L329 490L345 488L361 487L378 485L394 483L410 481L426 479L442 478L459 475L475 474L491 471L507 469L524 467L540 464L556 461L572 459L589 456L605 453L621 450L637 447L654 444L670 440L686 437L702 433L719 429" fill="none" stroke-width="1.5"></path><g fill="#3360a9"><circle cx="53" cy="512" r="2"></circle><circle cx="69" cy="511" r="2"></circle><circle cx="85" cy="511" r="2"></circle><circle cx="101" cy="509" r="2"></circle><circle cx="118" cy="508" r="2"></circle><circle cx="134" cy="507" r="2"></circle><circle cx="150" cy="506" r="2"></circle><circle cx="166" cy="505" r="2"></circle><circle cx="183" cy="503" r="2"></circle><circle cx="199" cy="502" r="2"></circle><circle cx="215" cy="501" r="2"></circle><circle cx="231" cy="499" r="2"></circle><circle cx="248" cy="498" r="2"></circle><circle cx="264" cy="496" r="2"></circle><circle cx="280" cy="495" r="2"></circle><circle cx="296" cy="493" r="2"></circle><circle cx="313" cy="492" r="2"></circle><circle cx="329" cy="490" r="2"></circle><circle cx="345" cy="488" r="2"></circle><circle cx="361" cy="487" r="2"></circle><circle cx="378" cy="485" r="2"></circle><circle cx="394" cy="483" r="2"></circle><circle cx="410" cy="481" r="2"></circle><circle cx="426" cy="479" r="2"></circle><circle cx="442" cy="478" r="2"></circle><circle cx="459" cy="475" r="2"></circle><circle cx="475" cy="474" r="2"></circle><circle cx="491" cy="471" r="2"></circle><circle cx="507" cy="469" r="2"></circle><circle cx="524" cy="467" r="2"></circle><circle cx="540" cy="464" r="2"></circle><circle cx="556" cy="461" r="2"></circle><circle cx="572" cy="459" r="2"></circle><circle cx="589" cy="456" r="2"></circle><circle cx="605" cy="453" r="2"></circle><circle cx="621" cy="450" r="2"></circle><circle cx="637" cy="447" r="2"></circle><circle cx="654" cy="444" r="2"></circle><circle cx="670" cy="440" r="2"></circle><circle cx="686" cy="437" r="2"></circle><circle cx="702" cy="433" r="2"></circle><circle cx="719" cy="429" r="2"></circle></g></g><g class="key-Brazil_0"><path stroke="#a652ba" stroke-linecap="round" d="M53 391L69 387L85 382L101 378L118 374L134 369L150 365L166 360L183 356L199 351L215 347L231 342L248 337L264 332L280 327L296 322L313 318L329 312L345 308L361 302L378 298L394 292L410 287L426 282L442 277L459 272L475 266L491 261L507 256L524 252L540 246L556 242L572 237L589 233L605 228L621 224L637 219L654 215L670 210L686 205L702 201L719 196" fill="none" stroke-width="1.5"></path><g fill="#a652ba"><circle cx="53" cy="391" r="2"></circle><circle cx="69" cy="387" r="2"></circle><circle cx="85" cy="382" r="2"></circle><circle cx="101" cy="378" r="2"></circle><circle cx="118" cy="374" r="2"></circle><circle cx="134" cy="369" r="2"></circle><circle cx="150" cy="365" r="2"></circle><circle cx="166" cy="360" r="2"></circle><circle cx="183" cy="356" r="2"></circle><circle cx="199" cy="351" r="2"></circle><circle cx="215" cy="347" r="2"></circle><circle cx="231" cy="342" r="2"></circle><circle cx="248" cy="337" r="2"></circle><circle cx="264" cy="332" r="2"></circle><circle cx="280" cy="327" r="2"></circle><circle cx="296" cy="322" r="2"></circle><circle cx="313" cy="318" r="2"></circle><circle cx="329" cy="312" r="2"></circle><circle cx="345" cy="308" r="2"></circle><circle cx="361" cy="302" r="2"></circle><circle cx="378" cy="298" r="2"></circle><circle cx="394" cy="292" r="2"></circle><circle cx="410" cy="287" r="2"></circle><circle cx="426" cy="282" r="2"></circle><circle cx="442" cy="277" r="2"></circle><circle cx="459" cy="272" r="2"></circle><circle cx="475" cy="266" r="2"></circle><circle cx="491" cy="261" r="2"></circle><circle cx="507" cy="256" r="2"></circle><circle cx="524" cy="252" r="2"></circle><circle cx="540" cy="246" r="2"></circle><circle cx="556" cy="242" r="2"></circle><circle cx="572" cy="237" r="2"></circle><circle cx="589" cy="233" r="2"></circle><circle cx="605" cy="228" r="2"></circle><circle cx="621" cy="224" r="2"></circle><circle cx="637" cy="219" r="2"></circle><circle cx="654" cy="215" r="2"></circle><circle cx="670" cy="210" r="2"></circle><circle cx="686" cy="205" r="2"></circle><circle cx="702" cy="201" r="2"></circle><circle cx="719" cy="196" r="2"></circle></g></g><g class="key-Colombia_0"><path stroke="#f6a324" stroke-linecap="round" d="M53 382L69 378L85 374L101 369L118 365L134 361L150 357L166 352L183 347L199 342L215 338L231 333L248 328L264 324L280 319L296 314L313 309L329 305L345 300L361 295L378 291L394 286L410 282L426 277L442 273L459 268L475 264L491 260L507 255L524 251L540 247L556 243L572 239L589 235L605 231L621 226L637 222L654 218L670 214L686 211L702 206L719 202" fill="none" stroke-width="1.5"></path><g fill="#f6a324"><circle cx="53" cy="382" r="2"></circle><circle cx="69" cy="378" r="2"></circle><circle cx="85" cy="374" r="2"></circle><circle cx="101" cy="369" r="2"></circle><circle cx="118" cy="365" r="2"></circle><circle cx="134" cy="361" r="2"></circle><circle cx="150" cy="357" r="2"></circle><circle cx="166" cy="352" r="2"></circle><circle cx="183" cy="347" r="2"></circle><circle cx="199" cy="342" r="2"></circle><circle cx="215" cy="338" r="2"></circle><circle cx="231" cy="333" r="2"></circle><circle cx="248" cy="328" r="2"></circle><circle cx="264" cy="324" r="2"></circle><circle cx="280" cy="319" r="2"></circle><circle cx="296" cy="314" r="2"></circle><circle cx="313" cy="309" r="2"></circle><circle cx="329" cy="305" r="2"></circle><circle cx="345" cy="300" r="2"></circle><circle cx="361" cy="295" r="2"></circle><circle cx="378" cy="291" r="2"></circle><circle cx="394" cy="286" r="2"></circle><circle cx="410" cy="282" r="2"></circle><circle cx="426" cy="277" r="2"></circle><circle cx="442" cy="273" r="2"></circle><circle cx="459" cy="268" r="2"></circle><circle cx="475" cy="264" r="2"></circle><circle cx="491" cy="260" r="2"></circle><circle cx="507" cy="255" r="2"></circle><circle cx="524" cy="251" r="2"></circle><circle cx="540" cy="247" r="2"></circle><circle cx="556" cy="243" r="2"></circle><circle cx="572" cy="239" r="2"></circle><circle cx="589" cy="235" r="2"></circle><circle cx="605" cy="231" r="2"></circle><circle cx="621" cy="226" r="2"></circle><circle cx="637" cy="222" r="2"></circle><circle cx="654" cy="218" r="2"></circle><circle cx="670" cy="214" r="2"></circle><circle cx="686" cy="211" r="2"></circle><circle cx="702" cy="206" r="2"></circle><circle cx="719" cy="202" r="2"></circle></g></g></g></g></g><g class="SourcesFooter" style="fill:#777"><g class="clickable" style="fill:#777"><text font-size="12.60" x="15.0" y="581.6"><tspan x="15" y="581.58">Source: WHO, Global Health Observatory</tspan></text></g><text font-size="12.60" x="775.4" y="581.6"><tspan x="775.402" y="581.58"><a style="fill: #777;" class="cclogo" href="http://creativecommons.org/licenses/by-sa/4.0/deed.en_US" target="_blank">CC BY-SA</a></tspan></text></g></g></svg>