<svg xmlns="http://www.w3.org/2000/svg" version="1.1" style="font-family: 'Helvetica Neue', Helvetica, Arial, sans-serif; font-size: 18px; background-color: white; text-rendering: optimizeLegibility; -webkit-font-smoothing: antialiased;" width="850" height="600"><g class="ChartTab"><g class="HeaderView"><g opacity="0.8" transform="translate(770, 15) scale(0.31)"><a xmlns:xlink="http://www.w3.org/1999/xlink" xlink:href="https://ourworldindata.org" target="_blank"><g><rect x="0" y="0" fill="#1B2543" width="211.2" height="130.1"/><rect x="0" y="112.2" fill="#E63912" width="211.2" height="17.9"/><g><rect x="1.2" y="12.3" fill="none" width="210.2" height="99.2"/><path fill="#FFFFFF" d="M37.8,32.2c0,12.7-7.7,19.4-17.1,19.4c-9.7,0-16.6-7.5-16.6-18.7c0-11.7,7.3-19.3,17.1-19.3 C31.3,13.7,37.8,21.3,37.8,32.2z M9.2,32.8c0,7.9,4.3,14.9,11.8,14.9c7.5,0,11.8-6.9,11.8-15.3c0-7.3-3.8-14.9-11.8-14.9 C13.1,17.5,9.2,24.8,9.2,32.8z"/><path fill="#FFFFFF" d="M62.7,43.8c0,2.7,0.1,5.1,0.2,7.2h-4.3l-0.3-4.3h-0.1c-1.3,2.1-4,4.9-8.8,4.9c-4.2,0-9.1-2.3-9.1-11.6 V24.6h4.8v14.6c0,5,1.5,8.4,5.9,8.4c3.2,0,5.5-2.2,6.3-4.4c0.3-0.7,0.4-1.6,0.4-2.5V24.6h4.8V43.8z"/><path fill="#FFFFFF" d="M67.3,32.8c0-3.1-0.1-5.8-0.2-8.2h4.2l0.2,5.2h0.2c1.2-3.5,4.1-5.8,7.3-5.8c0.5,0,0.9,0.1,1.4,0.2v4.5 c-0.5-0.1-1-0.2-1.6-0.2c-3.4,0-5.8,2.6-6.5,6.2c-0.1,0.7-0.2,1.4-0.2,2.2V51h-4.8V32.8z"/><path fill="#FFFFFF" d="M95.4,51l-9.4-36.8h5l4.4,18.6c1.1,4.6,2.1,9.2,2.7,12.7h0.1c0.6-3.7,1.8-8,3-12.8l4.9-18.5h5l4.5,18.7 c1,4.4,2,8.7,2.6,12.6h0.1c0.8-4,1.8-8.1,3-12.7l4.9-18.5h4.9L120.6,51h-5L111,31.9c-1.1-4.7-1.9-8.3-2.4-12h-0.1 c-0.7,3.7-1.5,7.3-2.8,12L100.4,51H95.4z"/><path fill="#FFFFFF" d="M154.9,37.6c0,9.8-6.8,14-13.2,14c-7.2,0-12.7-5.2-12.7-13.6c0-8.8,5.8-14,13.1-14 C149.8,24,154.9,29.5,154.9,37.6z M133.9,37.9c0,5.8,3.3,10.1,8,10.1c4.6,0,8-4.3,8-10.3c0-4.5-2.2-10.1-7.9-10.1 C136.3,27.6,133.9,32.8,133.9,37.9z"/><path fill="#FFFFFF" d="M158.2,32.8c0-3.1-0.1-5.8-0.2-8.2h4.2l0.2,5.2h0.2c1.2-3.5,4.1-5.8,7.3-5.8c0.5,0,0.9,0.1,1.4,0.2v4.5 c-0.5-0.1-1-0.2-1.6-0.2c-3.4,0-5.8,2.6-6.5,6.2c-0.1,0.7-0.2,1.4-0.2,2.2V51h-4.8V32.8z"/><path fill="#FFFFFF" d="M173.5,12.3h4.8V51h-4.8V12.3z"/><path fill="#FFFFFF" d="M206.5,12.3v31.9c0,2.3,0.1,5,0.2,6.8h-4.3l-0.2-4.6H202c-1.5,2.9-4.7,5.2-9,5.2 c-6.4,0-11.3-5.4-11.3-13.4c-0.1-8.8,5.4-14.2,11.9-14.2c4,0,6.8,1.9,8,4h0.1V12.3H206.5z M201.7,35.4c0-0.6-0.1-1.4-0.2-2 c-0.7-3.1-3.3-5.6-6.9-5.6c-5,0-7.9,4.4-7.9,10.2c0,5.3,2.6,9.8,7.8,9.8c3.2,0,6.2-2.1,7.1-5.7c0.2-0.7,0.2-1.3,0.2-2.1V35.4z"/><path fill="#FFFFFF" d="M42.8,64c0.1,1.6-1.1,2.9-3.1,2.9c-1.7,0-2.9-1.3-2.9-2.9c0-1.7,1.3-3,3-3C41.7,61,42.8,62.3,42.8,64z M37.4,97.8V71.4h4.8v26.4H37.4z"/><path fill="#FFFFFF" d="M47.5,78.6c0-2.7-0.1-5-0.2-7.1h4.3l0.3,4.4h0.1c1.3-2.5,4.4-5,8.8-5c3.7,0,9.4,2.2,9.4,11.2v15.8h-4.8 V82.6c0-4.3-1.6-7.8-6.1-7.8c-3.2,0-5.6,2.2-6.5,4.9c-0.2,0.6-0.3,1.4-0.3,2.2v15.9h-4.8V78.6z"/><path fill="#FFFFFF" d="M84,61.6c2.9-0.4,6.3-0.8,10.1-0.8c6.8,0,11.7,1.6,14.9,4.6c3.3,3,5.2,7.3,5.2,13.2c0,6-1.9,10.9-5.3,14.3 c-3.4,3.4-9.1,5.3-16.3,5.3c-3.4,0-6.2-0.2-8.6-0.4V61.6z M88.8,94.1c1.2,0.2,3,0.3,4.8,0.3c10.2,0,15.7-5.7,15.7-15.6 c0.1-8.7-4.9-14.2-14.9-14.2c-2.5,0-4.3,0.2-5.6,0.5V94.1z"/><path fill="#FFFFFF" d="M132.1,97.8l-0.4-3.3h-0.2c-1.5,2.1-4.3,3.9-8.1,3.9c-5.4,0-8.1-3.8-8.1-7.6c0-6.4,5.7-9.9,15.9-9.8v-0.5 c0-2.2-0.6-6.1-6-6.1c-2.5,0-5,0.8-6.9,2l-1.1-3.2c2.2-1.4,5.4-2.3,8.7-2.3c8.1,0,10.1,5.5,10.1,10.8v9.9c0,2.3,0.1,4.5,0.4,6.3 H132.1z M131.4,84.4c-5.3-0.1-11.2,0.8-11.2,5.9c0,3.1,2.1,4.6,4.5,4.6c3.4,0,5.6-2.2,6.4-4.4c0.2-0.5,0.3-1,0.3-1.5V84.4z"/><path fill="#FFFFFF" d="M146.6,63.9v7.6h6.9v3.7h-6.9v14.2c0,3.3,0.9,5.1,3.6,5.1c1.3,0,2.2-0.2,2.8-0.3l0.2,3.6 c-0.9,0.4-2.4,0.7-4.3,0.7c-2.2,0-4-0.7-5.2-2c-1.4-1.4-1.9-3.8-1.9-6.9V75.1h-4.1v-3.7h4.1v-6.3L146.6,63.9z"/><path fill="#FFFFFF" d="M171.4,97.8l-0.4-3.3h-0.2c-1.5,2.1-4.3,3.9-8.1,3.9c-5.4,0-8.1-3.8-8.1-7.6c0-6.4,5.7-9.9,15.9-9.8v-0.5 c0-2.2-0.6-6.1-6-6.1c-2.5,0-5,0.8-6.9,2l-1.1-3.2c2.2-1.4,5.4-2.3,8.7-2.3c8.1,0,10.1,5.5,10.1,10.8v9.9c0,2.3,0.1,4.5,0.4,6.3 H171.4z M170.7,84.4c-5.3-0.1-11.2,0.8-11.2,5.9c0,3.1,2.1,4.6,4.5,4.6c3.4,0,5.6-2.2,6.4-4.4c0.2-0.5,0.3-1,0.3-1.5V84.4z"/></g></g></a></g><a href="https://ourworldindata.org/grapher/social-expenditure-as-percentage-of-gdp?stackMode=absolute&amp;country=OECD%20-%20Total" target="_blank"><text font-size="27.00" x="15.0" y="36.6" fill="#555"><tspan x="15" y="36.6">Social Expenditure as percentage of GDP, OECD - Total</tspan></text></a><text font-size="14.40" x="15.0" y="55.5" fill="#666"><tspan x="15" y="55.519999999999996">Social expenditure by branch of spending as a percentage of a country's gross domestic product (%GDP)</tspan></text></g><g class="StackedArea"><defs><clipPath id="boundsClip-9"><rect x="52.562" y="0" width="820" height="956.2"></rect></clipPath></defs><g class="AxisBoxView"><g class="HorizontalAxis"><text x="52.6" y="556.5" fill="#666" text-anchor="middle" font-size="16.2">1980</text><text x="150.2" y="556.5" fill="#666" text-anchor="middle" font-size="16.2">1985</text><text x="247.9" y="556.5" fill="#666" text-anchor="middle" font-size="16.2">1990</text><text x="345.5" y="556.5" fill="#666" text-anchor="middle" font-size="16.2">1995</text><text x="443.2" y="556.5" fill="#666" text-anchor="middle" font-size="16.2">2000</text><text x="540.8" y="556.5" fill="#666" text-anchor="middle" font-size="16.2">2005</text><text x="638.5" y="556.5" fill="#666" text-anchor="middle" font-size="16.2">2010</text><text x="697.1" y="556.5" fill="#666" text-anchor="middle" font-size="16.2">2013</text></g><g class="VerticalAxis"><text x="47.56" y="535.3" fill="#666" dominant-baseline="middle" text-anchor="end" font-size="16.2">0%</text><text x="47.56" y="424.4" fill="#666" dominant-baseline="middle" text-anchor="end" font-size="16.2">5%</text><text x="47.56" y="313.5" fill="#666" dominant-baseline="middle" text-anchor="end" font-size="16.2">10%</text><text x="47.56" y="202.6" fill="#666" dominant-baseline="middle" text-anchor="end" font-size="16.2">15%</text><text x="47.56" y="91.7" fill="#666" dominant-baseline="middle" text-anchor="end" font-size="16.2">20%</text></g><g class="AxisGridLines"><line x1="52.56" y1="535.3" x2="697.06" y2="535.3" stroke="#ccc"></line><line x1="52.56" y1="424.4" x2="697.06" y2="424.4" stroke="#ddd" stroke-dasharray="3,2"></line><line x1="52.56" y1="313.5" x2="697.06" y2="313.5" stroke="#ddd" stroke-dasharray="3,2"></line><line x1="52.56" y1="202.6" x2="697.06" y2="202.6" stroke="#ddd" stroke-dasharray="3,2"></line><line x1="52.56" y1="91.7" x2="697.06" y2="91.7" stroke="#ddd" stroke-dasharray="3,2"></line></g><g class="AxisGridLines"><line x1="52.6" y1="535.30" x2="52.6" y2="78.40" stroke="#ddd" stroke-dasharray="3,2"></line><line x1="150.2" y1="535.30" x2="150.2" y2="78.40" stroke="#ddd" stroke-dasharray="3,2"></line><line x1="247.9" y1="535.30" x2="247.9" y2="78.40" stroke="#ddd" stroke-dasharray="3,2"></line><line x1="345.5" y1="535.30" x2="345.5" y2="78.40" stroke="#ddd" stroke-dasharray="3,2"></line><line x1="443.2" y1="535.30" x2="443.2" y2="78.40" stroke="#ddd" stroke-dasharray="3,2"></line><line x1="540.8" y1="535.30" x2="540.8" y2="78.40" stroke="#ddd" stroke-dasharray="3,2"></line><line x1="638.5" y1="535.30" x2="638.5" y2="78.40" stroke="#ddd" stroke-dasharray="3,2"></line></g></g><g clip-path="url(#boundsClip-9)"><g class="HeightedLegend clickable"><g class="legendMark"><rect x="702.064" y="94.5" width="57.336000000000006" height="14.4" fill="#fff" opacity="0"></rect><rect x="702.064" y="100.45" width="10" height="2.5" fill="#b077b1"></rect><text font-size="14.40" x="717.1" y="106.0" fill="#333"><tspan x="717.064" y="106.02000000000001">Family</tspan></text></g><g class="legendMark"><rect x="702.064" y="184.3" width="56.760000000000005" height="14.4" fill="#fff" opacity="0"></rect><rect x="702.064" y="190.25" width="10" height="2.5" fill="#6bb537"></rect><text font-size="14.40" x="717.1" y="195.8" fill="#333"><tspan x="717.064" y="195.82000000000002">Health</tspan></text></g><g class="legendMark"><rect x="702.064" y="254.2" width="67.992" height="14.4" fill="#fff" opacity="0"></rect><rect x="702.064" y="260.15" width="10" height="2.5" fill="#ca2628"></rect><text font-size="14.40" x="717.1" y="265.7" fill="#333"><tspan x="717.064" y="265.71999999999997">Housing</tspan></text></g><g class="legendMark"><rect x="702.064" y="280.8" width="128.32800000000003" height="14.4" fill="#fff" opacity="0"></rect><rect x="702.064" y="286.75" width="10" height="2.5" fill="#e6332e"></rect><text font-size="14.40" x="717.1" y="292.3" fill="#333"><tspan x="717.064" y="292.32">Incapacity related</tspan></text></g><g class="legendMark"><rect x="702.064" y="389.5" width="67.272" height="14.4" fill="#fff" opacity="0"></rect><rect x="702.064" y="395.45" width="10" height="2.5" fill="#2a939b"></rect><text font-size="14.40" x="717.1" y="401.0" fill="#333"><tspan x="717.064" y="401.02">Old Age</tspan></text></g><g class="legendMark"><rect x="702.064" y="472.65000000000003" width="132.936" height="29.900000000000002" fill="#fff" opacity="0"></rect><rect x="702.064" y="486.35" width="10" height="2.5" fill="#cfcd1e"></rect><text font-size="14.40" x="717.1" y="484.2" fill="#333"><tspan x="717.064" y="484.17">Other social policy</tspan><tspan x="717.064" y="500.01">areas</tspan></text></g><g class="legendMark"><rect x="702.064" y="502.55" width="75.048" height="14.4" fill="#fff" opacity="0"></rect><rect x="702.064" y="508.5" width="10" height="2.5" fill="#3360a9"></rect><text font-size="14.40" x="717.1" y="514.1" fill="#333"><tspan x="717.064" y="514.07">Survivors</tspan></text></g><g class="legendMark"><rect x="702.064" y="518.0999999999999" width="112.05600000000001" height="14.4" fill="#fff" opacity="0"></rect><rect x="702.064" y="524.05" width="10" height="2.5" fill="#7ec7ce"></rect><text font-size="14.40" x="717.1" y="529.6" fill="#333"><tspan x="717.064" y="529.6199999999999">Unemployment</tspan></text></g></g><g class="Areas"><rect x="52.562" y="78.4" width="644.502" height="456.9000000000001" opacity="0" fill="rgba(255,255,255,0)"></rect><path stroke-linecap="round" d="M52.6 522L150.2 513.1L247.9 515.3L345.5 508.7L443.2 519.8L540.8 517.6L638.5 513.1L697.1 515.3L697.064 535.3000000000001L52.562 535.3000000000001" fill="#7ec7ce" fill-opacity="0.7" class="OECD-__002d-Total_7-area"></path><path stroke-linecap="round" d="M52.6 502L150.2 490.9L247.9 495.4L345.5 488.7L443.2 499.8L540.8 497.6L638.5 490.9L697.1 493.2L697.1 515.3L638.5 513.1L540.8 517.6L443.2 519.8L345.5 508.7L247.9 515.3L150.2 513.1L52.6 522" fill="#3360a9" fill-opacity="0.7" class="OECD-__002d-Total_6-area"></path><path stroke-linecap="round" d="M52.6 495.4L150.2 482.1L247.9 486.5L345.5 477.6L443.2 490.9L540.8 486.5L638.5 479.9L697.1 482.1L697.1 493.2L638.5 490.9L540.8 497.6L443.2 499.8L345.5 488.7L247.9 495.4L150.2 490.9L52.6 502" fill="#cfcd1e" fill-opacity="0.7" class="OECD-__002d-Total_5-area"></path><path stroke-linecap="round" d="M52.6 382.3L150.2 357.9L247.9 357.9L345.5 335.7L443.2 351.2L540.8 344.6L638.5 317.9L697.1 311.3L697.1 482.1L638.5 479.9L540.8 486.5L443.2 490.9L345.5 477.6L247.9 486.5L150.2 482.1L52.6 495.4" fill="#2a939b" fill-opacity="0.7" class="OECD-__002d-Total_4-area"></path><path stroke-linecap="round" d="M52.6 333.5L150.2 309.1L247.9 306.9L345.5 284.7L443.2 304.6L540.8 295.8L638.5 269.1L697.1 264.7L697.1 311.3L638.5 317.9L540.8 344.6L443.2 351.2L345.5 335.7L247.9 357.9L150.2 357.9L52.6 382.3" fill="#e6332e" fill-opacity="0.7" class="OECD-__002d-Total_3-area"></path><path stroke-linecap="round" d="M52.6 329L150.2 302.4L247.9 300.2L345.5 275.8L443.2 298L540.8 289.1L638.5 260.3L697.1 258.1L697.1 264.7L638.5 269.1L540.8 295.8L443.2 304.6L345.5 284.7L247.9 306.9L150.2 309.1L52.6 333.5" fill="#ca2628" fill-opacity="0.7" class="OECD-__002d-Total_2-area"></path><path stroke-linecap="round" d="M52.6 235.9L150.2 209.3L247.9 202.6L345.5 171.6L443.2 189.3L540.8 169.3L638.5 127.2L697.1 125L697.1 258.1L638.5 260.3L540.8 289.1L443.2 298L345.5 275.8L247.9 300.2L150.2 302.4L52.6 329" fill="#6bb537" fill-opacity="0.7" class="OECD-__002d-Total_1-area"></path><path stroke-linecap="round" d="M52.6 202.6L150.2 176L247.9 167.1L345.5 131.6L443.2 149.4L540.8 127.2L638.5 78.4L697.1 78.4L697.1 125L638.5 127.2L540.8 169.3L443.2 189.3L345.5 171.6L247.9 202.6L150.2 209.3L52.6 235.9" fill="#b077b1" fill-opacity="0.7" class="OECD-__002d-Total_0-area"></path><path stroke-linecap="round" d="M52.6 522L150.2 513.1L247.9 515.3L345.5 508.7L443.2 519.8L540.8 517.6L638.5 513.1L697.1 515.3" stroke="rgb(105, 166, 172)" stroke-opacity="0.7" stroke-width="0.5" fill="none" class="OECD-__002d-Total_7-border"></path><path stroke-linecap="round" d="M52.6 502L150.2 490.9L247.9 495.4L345.5 488.7L443.2 499.8L540.8 497.6L638.5 490.9L697.1 493.2" stroke="rgb(43, 80, 141)" stroke-opacity="0.7" stroke-width="0.5" fill="none" class="OECD-__002d-Total_6-border"></path><path stroke-linecap="round" d="M52.6 495.4L150.2 482.1L247.9 486.5L345.5 477.6L443.2 490.9L540.8 486.5L638.5 479.9L697.1 482.1" stroke="rgb(173, 172, 25)" stroke-opacity="0.7" stroke-width="0.5" fill="none" class="OECD-__002d-Total_5-border"></path><path stroke-linecap="round" d="M52.6 382.3L150.2 357.9L247.9 357.9L345.5 335.7L443.2 351.2L540.8 344.6L638.5 317.9L697.1 311.3" stroke="rgb(35, 123, 130)" stroke-opacity="0.7" stroke-width="0.5" fill="none" class="OECD-__002d-Total_4-border"></path><path stroke-linecap="round" d="M52.6 333.5L150.2 309.1L247.9 306.9L345.5 284.7L443.2 304.6L540.8 295.8L638.5 269.1L697.1 264.7" stroke="rgb(192, 43, 38)" stroke-opacity="0.7" stroke-width="0.5" fill="none" class="OECD-__002d-Total_3-border"></path><path stroke-linecap="round" d="M52.6 329L150.2 302.4L247.9 300.2L345.5 275.8L443.2 298L540.8 289.1L638.5 260.3L697.1 258.1" stroke="rgb(169, 32, 33)" stroke-opacity="0.7" stroke-width="0.5" fill="none" class="OECD-__002d-Total_2-border"></path><path stroke-linecap="round" d="M52.6 235.9L150.2 209.3L247.9 202.6L345.5 171.6L443.2 189.3L540.8 169.3L638.5 127.2L697.1 125" stroke="rgb(90, 151, 46)" stroke-opacity="0.7" stroke-width="0.5" fill="none" class="OECD-__002d-Total_1-border"></path><path stroke-linecap="round" d="M52.6 202.6L150.2 176L247.9 167.1L345.5 131.6L443.2 149.4L540.8 127.2L638.5 78.4L697.1 78.4" stroke="rgb(147, 100, 148)" stroke-opacity="0.7" stroke-width="0.5" fill="none" class="OECD-__002d-Total_0-border"></path></g></g></g><g style="fill: #777;" class="SourcesFooter"><g style="fill: #777;" class="clickable"><text font-size="12.60" x="15.0" y="581.6"><tspan x="15" y="581.58">Source: OECD Stats</tspan></text></g><text font-size="12.60" x="556.9" y="581.6"><tspan x="556.918" y="581.58"><a target='_blank' style='fill: #777;' href='https://ourworldindata.org/public-spending'>OurWorldInData.org/public-spending</a> • <a style="fill: #777;" href="http://creativecommons.org/licenses/by-sa/4.0/deed.en_US" target="_blank">CC BY-SA</a></tspan></text></g></g></svg>