<svg xmlns="http://www.w3.org/2000/svg" version="1.1" style="font-family:&#x27;Helvetica Neue&#x27;, Helvetica, Arial, sans-serif;font-size:18px;background-color:white;text-rendering:optimizeLegibility;-webkit-font-smoothing:antialiased" width="850" height="600"><g class="ChartTab"><g class="HeaderView"><g opacity="0.8" transform="translate(778, 15) scale(0.27)"><a xmlns:xlink="http://www.w3.org/1999/xlink" xlink:href="https://ourworldindata.org" target="_blank"><g><rect x="0" y="0" fill="#1B2543" width="211.2" height="130.1"/><rect x="0" y="112.2" fill="#E63912" width="211.2" height="17.9"/><g><rect x="1.2" y="12.3" fill="none" width="210.2" height="99.2"/><path fill="#FFFFFF" d="M37.8,32.2c0,12.7-7.7,19.4-17.1,19.4c-9.7,0-16.6-7.5-16.6-18.7c0-11.7,7.3-19.3,17.1-19.3 C31.3,13.7,37.8,21.3,37.8,32.2z M9.2,32.8c0,7.9,4.3,14.9,11.8,14.9c7.5,0,11.8-6.9,11.8-15.3c0-7.3-3.8-14.9-11.8-14.9 C13.1,17.5,9.2,24.8,9.2,32.8z"/><path fill="#FFFFFF" d="M62.7,43.8c0,2.7,0.1,5.1,0.2,7.2h-4.3l-0.3-4.3h-0.1c-1.3,2.1-4,4.9-8.8,4.9c-4.2,0-9.1-2.3-9.1-11.6 V24.6h4.8v14.6c0,5,1.5,8.4,5.9,8.4c3.2,0,5.5-2.2,6.3-4.4c0.3-0.7,0.4-1.6,0.4-2.5V24.6h4.8V43.8z"/><path fill="#FFFFFF" d="M67.3,32.8c0-3.1-0.1-5.8-0.2-8.2h4.2l0.2,5.2h0.2c1.2-3.5,4.1-5.8,7.3-5.8c0.5,0,0.9,0.1,1.4,0.2v4.5 c-0.5-0.1-1-0.2-1.6-0.2c-3.4,0-5.8,2.6-6.5,6.2c-0.1,0.7-0.2,1.4-0.2,2.2V51h-4.8V32.8z"/><path fill="#FFFFFF" d="M95.4,51l-9.4-36.8h5l4.4,18.6c1.1,4.6,2.1,9.2,2.7,12.7h0.1c0.6-3.7,1.8-8,3-12.8l4.9-18.5h5l4.5,18.7 c1,4.4,2,8.7,2.6,12.6h0.1c0.8-4,1.8-8.1,3-12.7l4.9-18.5h4.9L120.6,51h-5L111,31.9c-1.1-4.7-1.9-8.3-2.4-12h-0.1 c-0.7,3.7-1.5,7.3-2.8,12L100.4,51H95.4z"/><path fill="#FFFFFF" d="M154.9,37.6c0,9.8-6.8,14-13.2,14c-7.2,0-12.7-5.2-12.7-13.6c0-8.8,5.8-14,13.1-14 C149.8,24,154.9,29.5,154.9,37.6z M133.9,37.9c0,5.8,3.3,10.1,8,10.1c4.6,0,8-4.3,8-10.3c0-4.5-2.2-10.1-7.9-10.1 C136.3,27.6,133.9,32.8,133.9,37.9z"/><path fill="#FFFFFF" d="M158.2,32.8c0-3.1-0.1-5.8-0.2-8.2h4.2l0.2,5.2h0.2c1.2-3.5,4.1-5.8,7.3-5.8c0.5,0,0.9,0.1,1.4,0.2v4.5 c-0.5-0.1-1-0.2-1.6-0.2c-3.4,0-5.8,2.6-6.5,6.2c-0.1,0.7-0.2,1.4-0.2,2.2V51h-4.8V32.8z"/><path fill="#FFFFFF" d="M173.5,12.3h4.8V51h-4.8V12.3z"/><path fill="#FFFFFF" d="M206.5,12.3v31.9c0,2.3,0.1,5,0.2,6.8h-4.3l-0.2-4.6H202c-1.5,2.9-4.7,5.2-9,5.2 c-6.4,0-11.3-5.4-11.3-13.4c-0.1-8.8,5.4-14.2,11.9-14.2c4,0,6.8,1.9,8,4h0.1V12.3H206.5z M201.7,35.4c0-0.6-0.1-1.4-0.2-2 c-0.7-3.1-3.3-5.6-6.9-5.6c-5,0-7.9,4.4-7.9,10.2c0,5.3,2.6,9.8,7.8,9.8c3.2,0,6.2-2.1,7.1-5.7c0.2-0.7,0.2-1.3,0.2-2.1V35.4z"/><path fill="#FFFFFF" d="M42.8,64c0.1,1.6-1.1,2.9-3.1,2.9c-1.7,0-2.9-1.3-2.9-2.9c0-1.7,1.3-3,3-3C41.7,61,42.8,62.3,42.8,64z M37.4,97.8V71.4h4.8v26.4H37.4z"/><path fill="#FFFFFF" d="M47.5,78.6c0-2.7-0.1-5-0.2-7.1h4.3l0.3,4.4h0.1c1.3-2.5,4.4-5,8.8-5c3.7,0,9.4,2.2,9.4,11.2v15.8h-4.8 V82.6c0-4.3-1.6-7.8-6.1-7.8c-3.2,0-5.6,2.2-6.5,4.9c-0.2,0.6-0.3,1.4-0.3,2.2v15.9h-4.8V78.6z"/><path fill="#FFFFFF" d="M84,61.6c2.9-0.4,6.3-0.8,10.1-0.8c6.8,0,11.7,1.6,14.9,4.6c3.3,3,5.2,7.3,5.2,13.2c0,6-1.9,10.9-5.3,14.3 c-3.4,3.4-9.1,5.3-16.3,5.3c-3.4,0-6.2-0.2-8.6-0.4V61.6z M88.8,94.1c1.2,0.2,3,0.3,4.8,0.3c10.2,0,15.7-5.7,15.7-15.6 c0.1-8.7-4.9-14.2-14.9-14.2c-2.5,0-4.3,0.2-5.6,0.5V94.1z"/><path fill="#FFFFFF" d="M132.1,97.8l-0.4-3.3h-0.2c-1.5,2.1-4.3,3.9-8.1,3.9c-5.4,0-8.1-3.8-8.1-7.6c0-6.4,5.7-9.9,15.9-9.8v-0.5 c0-2.2-0.6-6.1-6-6.1c-2.5,0-5,0.8-6.9,2l-1.1-3.2c2.2-1.4,5.4-2.3,8.7-2.3c8.1,0,10.1,5.5,10.1,10.8v9.9c0,2.3,0.1,4.5,0.4,6.3 H132.1z M131.4,84.4c-5.3-0.1-11.2,0.8-11.2,5.9c0,3.1,2.1,4.6,4.5,4.6c3.4,0,5.6-2.2,6.4-4.4c0.2-0.5,0.3-1,0.3-1.5V84.4z"/><path fill="#FFFFFF" d="M146.6,63.9v7.6h6.9v3.7h-6.9v14.2c0,3.3,0.9,5.1,3.6,5.1c1.3,0,2.2-0.2,2.8-0.3l0.2,3.6 c-0.9,0.4-2.4,0.7-4.3,0.7c-2.2,0-4-0.7-5.2-2c-1.4-1.4-1.9-3.8-1.9-6.9V75.1h-4.1v-3.7h4.1v-6.3L146.6,63.9z"/><path fill="#FFFFFF" d="M171.4,97.8l-0.4-3.3h-0.2c-1.5,2.1-4.3,3.9-8.1,3.9c-5.4,0-8.1-3.8-8.1-7.6c0-6.4,5.7-9.9,15.9-9.8v-0.5 c0-2.2-0.6-6.1-6-6.1c-2.5,0-5,0.8-6.9,2l-1.1-3.2c2.2-1.4,5.4-2.3,8.7-2.3c8.1,0,10.1,5.5,10.1,10.8v9.9c0,2.3,0.1,4.5,0.4,6.3 H171.4z M170.7,84.4c-5.3-0.1-11.2,0.8-11.2,5.9c0,3.1,2.1,4.6,4.5,4.6c3.4,0,5.6-2.2,6.4-4.4c0.2-0.5,0.3-1,0.3-1.5V84.4z"/></g></g></a></g><a href="https://ourworldindata.org/grapher/social-spending-oecd-longrun" target="_blank"><text font-size="25.20" x="15.0" y="35.2" fill="#555"><tspan x="15" y="35.160000000000004">Public social spending as a share of GDP</tspan></text></a><text font-size="14.40" x="15.0" y="53.7" fill="#666"><tspan x="15" y="53.72">Social spending includes, among others, the following areas: health, old age, incapacity-related benefits, family,</tspan><tspan x="15" y="69.56">active labor market programmes, unemployment, and housing.</tspan></text></g><g class="LineChart"><defs><clipPath id="boundsClip-274"><rect x="42.562" y="0" width="830" height="928.8"></rect></clipPath></defs><g class="AxisBoxView"><g class="HorizontalAxis"><text x="52.6" y="556.5" fill="#666" text-anchor="middle" font-size="16.2">1880</text><text x="148.3" y="556.5" fill="#666" text-anchor="middle" font-size="16.2">1900</text><text x="244" y="556.5" fill="#666" text-anchor="middle" font-size="16.2">1920</text><text x="339.8" y="556.5" fill="#666" text-anchor="middle" font-size="16.2">1940</text><text x="435.5" y="556.5" fill="#666" text-anchor="middle" font-size="16.2">1960</text><text x="531.3" y="556.5" fill="#666" text-anchor="middle" font-size="16.2">1980</text><text x="627" y="556.5" fill="#666" text-anchor="middle" font-size="16.2">2000</text><text x="703.6" y="556.5" fill="#666" text-anchor="middle" font-size="16.2">2016</text></g><g class="VerticalAxis"><text x="47.56" y="535.3" fill="#666" dominant-baseline="middle" text-anchor="end" font-size="16.2">0%</text><text x="47.56" y="465.9" fill="#666" dominant-baseline="middle" text-anchor="end" font-size="16.2">5%</text><text x="47.56" y="396.5" fill="#666" dominant-baseline="middle" text-anchor="end" font-size="16.2">10%</text><text x="47.56" y="327.1" fill="#666" dominant-baseline="middle" text-anchor="end" font-size="16.2">15%</text><text x="47.56" y="257.8" fill="#666" dominant-baseline="middle" text-anchor="end" font-size="16.2">20%</text><text x="47.56" y="188.4" fill="#666" dominant-baseline="middle" text-anchor="end" font-size="16.2">25%</text><text x="47.56" y="119" fill="#666" dominant-baseline="middle" text-anchor="end" font-size="16.2">30%</text></g><g class="AxisGridLines"><line x1="52.56" y1="535.3" x2="703.61" y2="535.3" stroke="#ccc"></line><line x1="52.56" y1="465.9" x2="703.61" y2="465.9" stroke="#ddd" stroke-dasharray="3,2"></line><line x1="52.56" y1="396.5" x2="703.61" y2="396.5" stroke="#ddd" stroke-dasharray="3,2"></line><line x1="52.56" y1="327.1" x2="703.61" y2="327.1" stroke="#ddd" stroke-dasharray="3,2"></line><line x1="52.56" y1="257.8" x2="703.61" y2="257.8" stroke="#ddd" stroke-dasharray="3,2"></line><line x1="52.56" y1="188.4" x2="703.61" y2="188.4" stroke="#ddd" stroke-dasharray="3,2"></line><line x1="52.56" y1="119" x2="703.61" y2="119" stroke="#ddd" stroke-dasharray="3,2"></line></g></g><g clip-path="url(#boundsClip-274)"><g class="HeightedLegend clickable"><g class="legendMark"><g class="indicator"><line x1="708.61" y1="97.5" x2="721.11" y2="97.5" stroke="#666" stroke-width="0.5"></line><line x1="721.11" y1="97.5" x2="721.11" y2="97.5" stroke="#666" stroke-width="0.5"></line><line x1="721.11" y1="97.5" x2="733.61" y2="97.5" stroke="#666" stroke-width="0.5"></line></g><rect x="703.61" y="90.75" width="77.12" height="13.5" fill="#fff" opacity="0"></rect><text font-size="13.50" x="738.6" y="101.5" fill="#7ec7ce"><tspan x="738.61" y="101.55">France</tspan></text></g><g class="legendMark"><g class="indicator"><line x1="708.61" y1="134.7" x2="721.11" y2="134.7" stroke="#666" stroke-width="0.5"></line><line x1="721.11" y1="134.7" x2="721.11" y2="134.7" stroke="#666" stroke-width="0.5"></line><line x1="721.11" y1="134.7" x2="733.61" y2="134.7" stroke="#666" stroke-width="0.5"></line></g><rect x="703.61" y="127.94999999999999" width="59.84" height="13.5" fill="#fff" opacity="0"></rect><text font-size="13.50" x="738.6" y="138.8" fill="#b077b1"><tspan x="738.61" y="138.75">Italy</tspan></text></g><g class="legendMark"><g class="indicator"><line x1="708.61" y1="159.8" x2="727.7766666666666" y2="159.8" stroke="#666" stroke-width="0.5"></line><line x1="727.7766666666666" y1="159.8" x2="727.7766666666666" y2="159.8" stroke="#666" stroke-width="0.5"></line><line x1="727.7766666666666" y1="159.8" x2="733.61" y2="159.8" stroke="#666" stroke-width="0.5"></line></g><rect x="703.61" y="153.05" width="84.005" height="13.5" fill="#fff" opacity="0"></rect><text font-size="13.50" x="738.6" y="163.9" fill="#ffd53e"><tspan x="738.61" y="163.85000000000002">Sweden</tspan></text></g><g class="legendMark"><g class="indicator"><line x1="708.61" y1="160.3" x2="721.11" y2="160.3" stroke="#666" stroke-width="0.5"></line><line x1="721.11" y1="160.3" x2="721.11" y2="175.3" stroke="#666" stroke-width="0.5"></line><line x1="721.11" y1="175.3" x2="733.61" y2="175.3" stroke="#666" stroke-width="0.5"></line></g><rect x="703.61" y="168.55" width="79.415" height="13.5" fill="#fff" opacity="0"></rect><text font-size="13.50" x="738.6" y="179.4" fill="#9ecc8a"><tspan x="738.61" y="179.35000000000002">Greece</tspan></text></g><g class="legendMark"><g class="indicator"><line x1="708.61" y1="184.4" x2="714.4433333333334" y2="184.4" stroke="#666" stroke-width="0.5"></line><line x1="714.4433333333334" y1="184.4" x2="714.4433333333334" y2="190.8" stroke="#666" stroke-width="0.5"></line><line x1="714.4433333333334" y1="190.8" x2="733.61" y2="190.8" stroke="#666" stroke-width="0.5"></line></g><rect x="703.61" y="184.05" width="90.62" height="13.5" fill="#fff" opacity="0"></rect><text font-size="13.50" x="738.6" y="194.9" fill="#e6332e"><tspan x="738.61" y="194.85000000000002">Germany</tspan></text></g><g class="legendMark"><g class="indicator"><line x1="708.61" y1="215.3" x2="721.11" y2="215.3" stroke="#666" stroke-width="0.5"></line><line x1="721.11" y1="215.3" x2="721.11" y2="215.3" stroke="#666" stroke-width="0.5"></line><line x1="721.11" y1="215.3" x2="733.61" y2="215.3" stroke="#666" stroke-width="0.5"></line></g><rect x="703.61" y="208.55" width="71.99000000000001" height="13.5" fill="#fff" opacity="0"></rect><text font-size="13.50" x="738.6" y="219.4" fill="#2a939b"><tspan x="738.61" y="219.35000000000002">Japan</tspan></text></g><g class="legendMark"><g class="indicator"><line x1="708.61" y1="229.9" x2="731.11" y2="229.9" stroke="#666" stroke-width="0.5"></line><line x1="731.11" y1="229.9" x2="731.11" y2="229.9" stroke="#666" stroke-width="0.5"></line><line x1="731.11" y1="229.9" x2="733.61" y2="229.9" stroke="#666" stroke-width="0.5"></line></g><rect x="703.61" y="223.15" width="108.03500000000001" height="13.5" fill="#fff" opacity="0"></rect><text font-size="13.50" x="738.6" y="234.0" fill="#a652ba"><tspan x="738.61" y="233.95000000000002">Netherlands</tspan></text></g><g class="legendMark"><g class="indicator"><line x1="708.61" y1="237" x2="721.11" y2="237" stroke="#666" stroke-width="0.5"></line><line x1="721.11" y1="237" x2="721.11" y2="245.4" stroke="#666" stroke-width="0.5"></line><line x1="721.11" y1="245.4" x2="733.61" y2="245.4" stroke="#666" stroke-width="0.5"></line></g><rect x="703.61" y="238.65" width="131.39" height="13.5" fill="#fff" opacity="0"></rect><text font-size="13.50" x="738.6" y="249.5" fill="#f6a324"><tspan x="738.61" y="249.45000000000002">United Kingdom</tspan></text></g><g class="legendMark"><g class="indicator"><line x1="708.61" y1="267.2" x2="731.11" y2="267.2" stroke="#666" stroke-width="0.5"></line><line x1="731.11" y1="267.2" x2="731.11" y2="267.2" stroke="#666" stroke-width="0.5"></line><line x1="731.11" y1="267.2" x2="733.61" y2="267.2" stroke="#666" stroke-width="0.5"></line></g><rect x="703.61" y="260.45" width="116.405" height="13.5" fill="#fff" opacity="0"></rect><text font-size="13.50" x="738.6" y="271.3" fill="#34983f"><tspan x="738.61" y="271.25">United States</tspan></text></g><g class="legendMark"><g class="indicator"><line x1="708.61" y1="269.6" x2="721.11" y2="269.6" stroke="#666" stroke-width="0.5"></line><line x1="721.11" y1="269.6" x2="721.11" y2="282.7" stroke="#666" stroke-width="0.5"></line><line x1="721.11" y1="282.7" x2="733.61" y2="282.7" stroke="#666" stroke-width="0.5"></line></g><rect x="703.61" y="275.95" width="87.65" height="13.5" fill="#fff" opacity="0"></rect><text font-size="13.50" x="738.6" y="286.8" fill="#ca2628"><tspan x="738.61" y="286.75">Australia</tspan></text></g><g class="legendMark"><g class="indicator"><line x1="708.61" y1="296.4" x2="721.11" y2="296.4" stroke="#666" stroke-width="0.5"></line><line x1="721.11" y1="296.4" x2="721.11" y2="296.4" stroke="#666" stroke-width="0.5"></line><line x1="721.11" y1="296.4" x2="733.61" y2="296.4" stroke="#666" stroke-width="0.5"></line></g><rect x="703.61" y="289.65" width="82.52000000000001" height="13.5" fill="#fff" opacity="0"></rect><text font-size="13.50" x="738.6" y="300.4" fill="#3360a9"><tspan x="738.61" y="300.45">Canada</tspan></text></g></g><g class="Lines"><rect x="53" y="92" width="651" height="443" fill="rgba(255,255,255,0)" opacity="0"></rect><g class="key-Greece_0"><path stroke="#9ecc8a" stroke-linecap="round" d="M53 535L100 535L148 535L196 535L244 535L292 534L436 451L440 450L445 448L450 444L455 441L460 434L464 430L469 422L474 418L479 423L483 424L488 423L493 428L498 438L503 432L507 428L512 423L517 412L522 404L527 406L531 399L555 322L579 317L603 305L627 280L651 252L675 205L689 174L694 173L699 169L704 160" fill="none" stroke-width="1.5"></path><g fill="#9ecc8a"><circle cx="53" cy="535" r="2"></circle><circle cx="100" cy="535" r="2"></circle><circle cx="148" cy="535" r="2"></circle><circle cx="196" cy="535" r="2"></circle><circle cx="244" cy="535" r="2"></circle><circle cx="292" cy="534" r="2"></circle><circle cx="436" cy="451" r="2"></circle><circle cx="440" cy="450" r="2"></circle><circle cx="445" cy="448" r="2"></circle><circle cx="450" cy="444" r="2"></circle><circle cx="455" cy="441" r="2"></circle><circle cx="460" cy="434" r="2"></circle><circle cx="464" cy="430" r="2"></circle><circle cx="469" cy="422" r="2"></circle><circle cx="474" cy="418" r="2"></circle><circle cx="479" cy="423" r="2"></circle><circle cx="483" cy="424" r="2"></circle><circle cx="488" cy="423" r="2"></circle><circle cx="493" cy="428" r="2"></circle><circle cx="498" cy="438" r="2"></circle><circle cx="503" cy="432" r="2"></circle><circle cx="507" cy="428" r="2"></circle><circle cx="512" cy="423" r="2"></circle><circle cx="517" cy="412" r="2"></circle><circle cx="522" cy="404" r="2"></circle><circle cx="527" cy="406" r="2"></circle><circle cx="531" cy="399" r="2"></circle><circle cx="555" cy="322" r="2"></circle><circle cx="579" cy="317" r="2"></circle><circle cx="603" cy="305" r="2"></circle><circle cx="627" cy="280" r="2"></circle><circle cx="651" cy="252" r="2"></circle><circle cx="675" cy="205" r="2"></circle><circle cx="689" cy="174" r="2"></circle><circle cx="694" cy="173" r="2"></circle><circle cx="699" cy="169" r="2"></circle><circle cx="704" cy="160" r="2"></circle></g></g><g class="key-Canada_0"><path stroke="#3360a9" stroke-linecap="round" d="M53 535L100 535L148 535L196 535L244 535L292 531L436 423L440 419L445 419L450 420L455 422L460 425L464 423L469 413L474 405L479 400L483 390L488 378L493 367L498 367L503 361L507 346L512 350L517 347L522 349L527 356L531 351L555 308L579 292L603 281L627 317L651 311L675 292L689 301L694 302L699 296" fill="none" stroke-width="1.5"></path><g fill="#3360a9"><circle cx="53" cy="535" r="2"></circle><circle cx="100" cy="535" r="2"></circle><circle cx="148" cy="535" r="2"></circle><circle cx="196" cy="535" r="2"></circle><circle cx="244" cy="535" r="2"></circle><circle cx="292" cy="531" r="2"></circle><circle cx="436" cy="423" r="2"></circle><circle cx="440" cy="419" r="2"></circle><circle cx="445" cy="419" r="2"></circle><circle cx="450" cy="420" r="2"></circle><circle cx="455" cy="422" r="2"></circle><circle cx="460" cy="425" r="2"></circle><circle cx="464" cy="423" r="2"></circle><circle cx="469" cy="413" r="2"></circle><circle cx="474" cy="405" r="2"></circle><circle cx="479" cy="400" r="2"></circle><circle cx="483" cy="390" r="2"></circle><circle cx="488" cy="378" r="2"></circle><circle cx="493" cy="367" r="2"></circle><circle cx="498" cy="367" r="2"></circle><circle cx="503" cy="361" r="2"></circle><circle cx="507" cy="346" r="2"></circle><circle cx="512" cy="350" r="2"></circle><circle cx="517" cy="347" r="2"></circle><circle cx="522" cy="349" r="2"></circle><circle cx="527" cy="356" r="2"></circle><circle cx="531" cy="351" r="2"></circle><circle cx="555" cy="308" r="2"></circle><circle cx="579" cy="292" r="2"></circle><circle cx="603" cy="281" r="2"></circle><circle cx="627" cy="317" r="2"></circle><circle cx="651" cy="311" r="2"></circle><circle cx="675" cy="292" r="2"></circle><circle cx="689" cy="301" r="2"></circle><circle cx="694" cy="302" r="2"></circle><circle cx="699" cy="296" r="2"></circle></g></g><g class="key-Australia_0"><path stroke="#ca2628" stroke-linecap="round" d="M53 535L100 535L148 535L196 520L244 512L292 506L436 453L440 447L445 448L450 449L455 452L460 451L464 453L469 457L474 457L479 454L483 453L488 449L493 443L498 438L503 419L507 394L512 388L517 384L522 388L527 392L531 393L555 368L579 353L603 301L627 282L651 304L675 304L689 284L694 276L699 275L704 270" fill="none" stroke-width="1.5"></path><g fill="#ca2628"><circle cx="53" cy="535" r="2"></circle><circle cx="100" cy="535" r="2"></circle><circle cx="148" cy="535" r="2"></circle><circle cx="196" cy="520" r="2"></circle><circle cx="244" cy="512" r="2"></circle><circle cx="292" cy="506" r="2"></circle><circle cx="436" cy="453" r="2"></circle><circle cx="440" cy="447" r="2"></circle><circle cx="445" cy="448" r="2"></circle><circle cx="450" cy="449" r="2"></circle><circle cx="455" cy="452" r="2"></circle><circle cx="460" cy="451" r="2"></circle><circle cx="464" cy="453" r="2"></circle><circle cx="469" cy="457" r="2"></circle><circle cx="474" cy="457" r="2"></circle><circle cx="479" cy="454" r="2"></circle><circle cx="483" cy="453" r="2"></circle><circle cx="488" cy="449" r="2"></circle><circle cx="493" cy="443" r="2"></circle><circle cx="498" cy="438" r="2"></circle><circle cx="503" cy="419" r="2"></circle><circle cx="507" cy="394" r="2"></circle><circle cx="512" cy="388" r="2"></circle><circle cx="517" cy="384" r="2"></circle><circle cx="522" cy="388" r="2"></circle><circle cx="527" cy="392" r="2"></circle><circle cx="531" cy="393" r="2"></circle><circle cx="555" cy="368" r="2"></circle><circle cx="579" cy="353" r="2"></circle><circle cx="603" cy="301" r="2"></circle><circle cx="627" cy="282" r="2"></circle><circle cx="651" cy="304" r="2"></circle><circle cx="675" cy="304" r="2"></circle><circle cx="689" cy="284" r="2"></circle><circle cx="694" cy="276" r="2"></circle><circle cx="699" cy="275" r="2"></circle><circle cx="704" cy="270" r="2"></circle></g></g><g class="key-Japan_0"><path stroke="#2a939b" stroke-linecap="round" d="M53 535L100 534L148 533L196 533L244 533L292 532L436 487L440 481L445 477L450 475L455 474L460 470L464 469L469 468L474 469L479 471L483 467L488 464L493 458L498 456L503 439L507 424L512 416L517 411L522 402L527 398L531 393L555 382L579 381L603 340L627 310L651 283L675 229L689 215" fill="none" stroke-width="1.5"></path><g fill="#2a939b"><circle cx="53" cy="535" r="2"></circle><circle cx="100" cy="534" r="2"></circle><circle cx="148" cy="533" r="2"></circle><circle cx="196" cy="533" r="2"></circle><circle cx="244" cy="533" r="2"></circle><circle cx="292" cy="532" r="2"></circle><circle cx="436" cy="487" r="2"></circle><circle cx="440" cy="481" r="2"></circle><circle cx="445" cy="477" r="2"></circle><circle cx="450" cy="475" r="2"></circle><circle cx="455" cy="474" r="2"></circle><circle cx="460" cy="470" r="2"></circle><circle cx="464" cy="469" r="2"></circle><circle cx="469" cy="468" r="2"></circle><circle cx="474" cy="469" r="2"></circle><circle cx="479" cy="471" r="2"></circle><circle cx="483" cy="467" r="2"></circle><circle cx="488" cy="464" r="2"></circle><circle cx="493" cy="458" r="2"></circle><circle cx="498" cy="456" r="2"></circle><circle cx="503" cy="439" r="2"></circle><circle cx="507" cy="424" r="2"></circle><circle cx="512" cy="416" r="2"></circle><circle cx="517" cy="411" r="2"></circle><circle cx="522" cy="402" r="2"></circle><circle cx="527" cy="398" r="2"></circle><circle cx="531" cy="393" r="2"></circle><circle cx="555" cy="382" r="2"></circle><circle cx="579" cy="381" r="2"></circle><circle cx="603" cy="340" r="2"></circle><circle cx="627" cy="310" r="2"></circle><circle cx="651" cy="283" r="2"></circle><circle cx="675" cy="229" r="2"></circle><circle cx="689" cy="215" r="2"></circle></g></g><g class="key-United-States_0"><path stroke="#34983f" stroke-linecap="round" d="M53 531L100 529L148 528L196 528L244 526L292 528L436 449L440 441L445 441L450 441L455 442L460 442L464 441L469 431L474 426L479 425L483 412L488 402L493 400L498 398L503 384L507 364L512 366L517 369L522 374L527 372L531 357L555 357L579 353L603 326L627 338L651 318L675 267L689 274L694 274L699 272L704 267" fill="none" stroke-width="1.5"></path><g fill="#34983f"><circle cx="53" cy="531" r="2"></circle><circle cx="100" cy="529" r="2"></circle><circle cx="148" cy="528" r="2"></circle><circle cx="196" cy="528" r="2"></circle><circle cx="244" cy="526" r="2"></circle><circle cx="292" cy="528" r="2"></circle><circle cx="436" cy="449" r="2"></circle><circle cx="440" cy="441" r="2"></circle><circle cx="445" cy="441" r="2"></circle><circle cx="450" cy="441" r="2"></circle><circle cx="455" cy="442" r="2"></circle><circle cx="460" cy="442" r="2"></circle><circle cx="464" cy="441" r="2"></circle><circle cx="469" cy="431" r="2"></circle><circle cx="474" cy="426" r="2"></circle><circle cx="479" cy="425" r="2"></circle><circle cx="483" cy="412" r="2"></circle><circle cx="488" cy="402" r="2"></circle><circle cx="493" cy="400" r="2"></circle><circle cx="498" cy="398" r="2"></circle><circle cx="503" cy="384" r="2"></circle><circle cx="507" cy="364" r="2"></circle><circle cx="512" cy="366" r="2"></circle><circle cx="517" cy="369" r="2"></circle><circle cx="522" cy="374" r="2"></circle><circle cx="527" cy="372" r="2"></circle><circle cx="531" cy="357" r="2"></circle><circle cx="555" cy="357" r="2"></circle><circle cx="579" cy="353" r="2"></circle><circle cx="603" cy="326" r="2"></circle><circle cx="627" cy="338" r="2"></circle><circle cx="651" cy="318" r="2"></circle><circle cx="675" cy="267" r="2"></circle><circle cx="689" cy="274" r="2"></circle><circle cx="694" cy="274" r="2"></circle><circle cx="699" cy="272" r="2"></circle><circle cx="704" cy="267" r="2"></circle></g></g><g class="key-Sweden_0"><path stroke="#ffd53e" stroke-linecap="round" d="M53 525L100 524L148 524L196 521L244 520L292 499L436 391L440 392L445 388L450 371L455 369L460 360L464 349L469 333L474 318L479 316L483 313L488 291L493 291L498 291L503 255L507 254L512 241L517 210L522 200L527 201L531 191L555 161L579 157L603 111L627 164L651 156L675 171L689 155L694 159L699 165L704 160" fill="none" stroke-width="1.5"></path><g fill="#ffd53e"><circle cx="53" cy="525" r="2"></circle><circle cx="100" cy="524" r="2"></circle><circle cx="148" cy="524" r="2"></circle><circle cx="196" cy="521" r="2"></circle><circle cx="244" cy="520" r="2"></circle><circle cx="292" cy="499" r="2"></circle><circle cx="436" cy="391" r="2"></circle><circle cx="440" cy="392" r="2"></circle><circle cx="445" cy="388" r="2"></circle><circle cx="450" cy="371" r="2"></circle><circle cx="455" cy="369" r="2"></circle><circle cx="460" cy="360" r="2"></circle><circle cx="464" cy="349" r="2"></circle><circle cx="469" cy="333" r="2"></circle><circle cx="474" cy="318" r="2"></circle><circle cx="479" cy="316" r="2"></circle><circle cx="483" cy="313" r="2"></circle><circle cx="488" cy="291" r="2"></circle><circle cx="493" cy="291" r="2"></circle><circle cx="498" cy="291" r="2"></circle><circle cx="503" cy="255" r="2"></circle><circle cx="507" cy="254" r="2"></circle><circle cx="512" cy="241" r="2"></circle><circle cx="517" cy="210" r="2"></circle><circle cx="522" cy="200" r="2"></circle><circle cx="527" cy="201" r="2"></circle><circle cx="531" cy="191" r="2"></circle><circle cx="555" cy="161" r="2"></circle><circle cx="579" cy="157" r="2"></circle><circle cx="603" cy="111" r="2"></circle><circle cx="627" cy="164" r="2"></circle><circle cx="651" cy="156" r="2"></circle><circle cx="675" cy="171" r="2"></circle><circle cx="689" cy="155" r="2"></circle><circle cx="694" cy="159" r="2"></circle><circle cx="699" cy="165" r="2"></circle><circle cx="704" cy="160" r="2"></circle></g></g><g class="key-Italy_0"><path stroke="#b077b1" stroke-linecap="round" d="M53 535L100 535L148 535L196 535L244 535L292 534L436 387L440 390L445 378L450 373L455 373L460 352L464 350L469 351L474 347L479 342L483 343L488 329L493 315L498 318L503 316L507 296L512 296L517 304L522 285L527 294L531 294L555 256L579 249L603 245L627 221L651 201L675 152L689 138L694 133L699 134L704 135" fill="none" stroke-width="1.5"></path><g fill="#b077b1"><circle cx="53" cy="535" r="2"></circle><circle cx="100" cy="535" r="2"></circle><circle cx="148" cy="535" r="2"></circle><circle cx="196" cy="535" r="2"></circle><circle cx="244" cy="535" r="2"></circle><circle cx="292" cy="534" r="2"></circle><circle cx="436" cy="387" r="2"></circle><circle cx="440" cy="390" r="2"></circle><circle cx="445" cy="378" r="2"></circle><circle cx="450" cy="373" r="2"></circle><circle cx="455" cy="373" r="2"></circle><circle cx="460" cy="352" r="2"></circle><circle cx="464" cy="350" r="2"></circle><circle cx="469" cy="351" r="2"></circle><circle cx="474" cy="347" r="2"></circle><circle cx="479" cy="342" r="2"></circle><circle cx="483" cy="343" r="2"></circle><circle cx="488" cy="329" r="2"></circle><circle cx="493" cy="315" r="2"></circle><circle cx="498" cy="318" r="2"></circle><circle cx="503" cy="316" r="2"></circle><circle cx="507" cy="296" r="2"></circle><circle cx="512" cy="296" r="2"></circle><circle cx="517" cy="304" r="2"></circle><circle cx="522" cy="285" r="2"></circle><circle cx="527" cy="294" r="2"></circle><circle cx="531" cy="294" r="2"></circle><circle cx="555" cy="256" r="2"></circle><circle cx="579" cy="249" r="2"></circle><circle cx="603" cy="245" r="2"></circle><circle cx="627" cy="221" r="2"></circle><circle cx="651" cy="201" r="2"></circle><circle cx="675" cy="152" r="2"></circle><circle cx="689" cy="138" r="2"></circle><circle cx="694" cy="133" r="2"></circle><circle cx="699" cy="134" r="2"></circle><circle cx="704" cy="135" r="2"></circle></g></g><g class="key-Germany_0"><path stroke="#e6332e" stroke-linecap="round" d="M53 528L100 528L148 527L292 468L436 322L440 323L445 322L450 316L455 322L460 312L464 309L469 290L474 293L479 300L483 305L488 295L493 286L498 281L503 258L507 215L512 220L517 222L522 230L527 236L531 233L555 227L579 239L603 185L627 183L651 171L675 176L689 192L694 190L699 189L704 184" fill="none" stroke-width="1.5"></path><g fill="#e6332e"><circle cx="53" cy="528" r="2"></circle><circle cx="100" cy="528" r="2"></circle><circle cx="148" cy="527" r="2"></circle><circle cx="292" cy="468" r="2"></circle><circle cx="436" cy="322" r="2"></circle><circle cx="440" cy="323" r="2"></circle><circle cx="445" cy="322" r="2"></circle><circle cx="450" cy="316" r="2"></circle><circle cx="455" cy="322" r="2"></circle><circle cx="460" cy="312" r="2"></circle><circle cx="464" cy="309" r="2"></circle><circle cx="469" cy="290" r="2"></circle><circle cx="474" cy="293" r="2"></circle><circle cx="479" cy="300" r="2"></circle><circle cx="483" cy="305" r="2"></circle><circle cx="488" cy="295" r="2"></circle><circle cx="493" cy="286" r="2"></circle><circle cx="498" cy="281" r="2"></circle><circle cx="503" cy="258" r="2"></circle><circle cx="507" cy="215" r="2"></circle><circle cx="512" cy="220" r="2"></circle><circle cx="517" cy="222" r="2"></circle><circle cx="522" cy="230" r="2"></circle><circle cx="527" cy="236" r="2"></circle><circle cx="531" cy="233" r="2"></circle><circle cx="555" cy="227" r="2"></circle><circle cx="579" cy="239" r="2"></circle><circle cx="603" cy="185" r="2"></circle><circle cx="627" cy="183" r="2"></circle><circle cx="651" cy="171" r="2"></circle><circle cx="675" cy="176" r="2"></circle><circle cx="689" cy="192" r="2"></circle><circle cx="694" cy="190" r="2"></circle><circle cx="699" cy="189" r="2"></circle><circle cx="704" cy="184" r="2"></circle></g></g><g class="key-Netherlands_0"><path stroke="#a652ba" stroke-linecap="round" d="M53 531L100 531L148 530L196 530L244 522L292 521L436 402L440 391L445 381L450 357L455 356L460 340L464 324L469 310L474 302L479 290L483 280L488 269L493 258L498 250L503 231L507 199L512 198L517 244L522 232L527 222L531 213L555 205L579 202L603 225L627 280L651 251L675 229L689 218L694 221L699 226L704 230" fill="none" stroke-width="1.5"></path><g fill="#a652ba"><circle cx="53" cy="531" r="2"></circle><circle cx="100" cy="531" r="2"></circle><circle cx="148" cy="530" r="2"></circle><circle cx="196" cy="530" r="2"></circle><circle cx="244" cy="522" r="2"></circle><circle cx="292" cy="521" r="2"></circle><circle cx="436" cy="402" r="2"></circle><circle cx="440" cy="391" r="2"></circle><circle cx="445" cy="381" r="2"></circle><circle cx="450" cy="357" r="2"></circle><circle cx="455" cy="356" r="2"></circle><circle cx="460" cy="340" r="2"></circle><circle cx="464" cy="324" r="2"></circle><circle cx="469" cy="310" r="2"></circle><circle cx="474" cy="302" r="2"></circle><circle cx="479" cy="290" r="2"></circle><circle cx="483" cy="280" r="2"></circle><circle cx="488" cy="269" r="2"></circle><circle cx="493" cy="258" r="2"></circle><circle cx="498" cy="250" r="2"></circle><circle cx="503" cy="231" r="2"></circle><circle cx="507" cy="199" r="2"></circle><circle cx="512" cy="198" r="2"></circle><circle cx="517" cy="244" r="2"></circle><circle cx="522" cy="232" r="2"></circle><circle cx="527" cy="222" r="2"></circle><circle cx="531" cy="213" r="2"></circle><circle cx="555" cy="205" r="2"></circle><circle cx="579" cy="202" r="2"></circle><circle cx="603" cy="225" r="2"></circle><circle cx="627" cy="280" r="2"></circle><circle cx="651" cy="251" r="2"></circle><circle cx="675" cy="229" r="2"></circle><circle cx="689" cy="218" r="2"></circle><circle cx="694" cy="221" r="2"></circle><circle cx="699" cy="226" r="2"></circle><circle cx="704" cy="230" r="2"></circle></g></g><g class="key-France_0"><path stroke="#7ec7ce" stroke-linecap="round" d="M53 529L100 528L148 527L196 524L244 526L292 521L436 368L483 328L507 307L512 284L517 277L522 265L527 262L531 255L555 185L579 198L603 142L627 154L651 137L675 110L689 98L694 92L699 96L704 98" fill="none" stroke-width="1.5"></path><g fill="#7ec7ce"><circle cx="53" cy="529" r="2"></circle><circle cx="100" cy="528" r="2"></circle><circle cx="148" cy="527" r="2"></circle><circle cx="196" cy="524" r="2"></circle><circle cx="244" cy="526" r="2"></circle><circle cx="292" cy="521" r="2"></circle><circle cx="436" cy="368" r="2"></circle><circle cx="483" cy="328" r="2"></circle><circle cx="507" cy="307" r="2"></circle><circle cx="512" cy="284" r="2"></circle><circle cx="517" cy="277" r="2"></circle><circle cx="522" cy="265" r="2"></circle><circle cx="527" cy="262" r="2"></circle><circle cx="531" cy="255" r="2"></circle><circle cx="555" cy="185" r="2"></circle><circle cx="579" cy="198" r="2"></circle><circle cx="603" cy="142" r="2"></circle><circle cx="627" cy="154" r="2"></circle><circle cx="651" cy="137" r="2"></circle><circle cx="675" cy="110" r="2"></circle><circle cx="689" cy="98" r="2"></circle><circle cx="694" cy="92" r="2"></circle><circle cx="699" cy="96" r="2"></circle><circle cx="704" cy="98" r="2"></circle></g></g><g class="key-United-Kingdom_0"><path stroke="#f6a324" stroke-linecap="round" d="M53 523L100 524L148 521L196 516L244 516L292 504L436 401L440 397L445 395L450 388L455 390L460 382L464 379L469 370L474 364L479 364L483 361L488 363L493 352L498 358L503 339L507 329L512 322L517 323L522 319L527 320L531 319L555 283L579 324L603 281L627 290L651 266L675 219L689 232L694 236L699 237L704 237" fill="none" stroke-width="1.5"></path><g fill="#f6a324"><circle cx="53" cy="523" r="2"></circle><circle cx="100" cy="524" r="2"></circle><circle cx="148" cy="521" r="2"></circle><circle cx="196" cy="516" r="2"></circle><circle cx="244" cy="516" r="2"></circle><circle cx="292" cy="504" r="2"></circle><circle cx="436" cy="401" r="2"></circle><circle cx="440" cy="397" r="2"></circle><circle cx="445" cy="395" r="2"></circle><circle cx="450" cy="388" r="2"></circle><circle cx="455" cy="390" r="2"></circle><circle cx="460" cy="382" r="2"></circle><circle cx="464" cy="379" r="2"></circle><circle cx="469" cy="370" r="2"></circle><circle cx="474" cy="364" r="2"></circle><circle cx="479" cy="364" r="2"></circle><circle cx="483" cy="361" r="2"></circle><circle cx="488" cy="363" r="2"></circle><circle cx="493" cy="352" r="2"></circle><circle cx="498" cy="358" r="2"></circle><circle cx="503" cy="339" r="2"></circle><circle cx="507" cy="329" r="2"></circle><circle cx="512" cy="322" r="2"></circle><circle cx="517" cy="323" r="2"></circle><circle cx="522" cy="319" r="2"></circle><circle cx="527" cy="320" r="2"></circle><circle cx="531" cy="319" r="2"></circle><circle cx="555" cy="283" r="2"></circle><circle cx="579" cy="324" r="2"></circle><circle cx="603" cy="281" r="2"></circle><circle cx="627" cy="290" r="2"></circle><circle cx="651" cy="266" r="2"></circle><circle cx="675" cy="219" r="2"></circle><circle cx="689" cy="232" r="2"></circle><circle cx="694" cy="236" r="2"></circle><circle cx="699" cy="237" r="2"></circle><circle cx="704" cy="237" r="2"></circle></g></g></g></g></g><g class="SourcesFooter" style="fill:#777"><g class="clickable" style="fill:#777"><text font-size="12.60" x="15.0" y="581.6"><tspan x="15" y="581.58">Source: Our World in Data based on OECD and Lindert (2004)</tspan></text></g><text font-size="12.60" x="553.4" y="581.6"><tspan x="553.39" y="581.58"><a target='_blank' style='fill: #777;' href='https://ourworldindata.org/public-spending/'>OurWorldInData.org/public-spending/</a> • <a style="fill: #777;" class="cclogo" href="http://creativecommons.org/licenses/by-sa/4.0/deed.en_US" target="_blank">CC BY-SA</a></tspan></text></g></g></svg>