<svg xmlns="http://www.w3.org/2000/svg" version="1.1" style="font-family:&#x27;Helvetica Neue&#x27;, Helvetica, Arial, sans-serif;font-size:18px;background-color:white;text-rendering:optimizeLegibility;-webkit-font-smoothing:antialiased" width="850" height="600"><g class="ChartTab"><g class="HeaderView"><g opacity="0.8" transform="translate(778, 15) scale(0.27)"><a xmlns:xlink="http://www.w3.org/1999/xlink" xlink:href="https://ourworldindata.org" target="_blank"><g><rect x="0" y="0" fill="#1B2543" width="211.2" height="130.1"/><rect x="0" y="112.2" fill="#E63912" width="211.2" height="17.9"/><g><rect x="1.2" y="12.3" fill="none" width="210.2" height="99.2"/><path fill="#FFFFFF" d="M37.8,32.2c0,12.7-7.7,19.4-17.1,19.4c-9.7,0-16.6-7.5-16.6-18.7c0-11.7,7.3-19.3,17.1-19.3 C31.3,13.7,37.8,21.3,37.8,32.2z M9.2,32.8c0,7.9,4.3,14.9,11.8,14.9c7.5,0,11.8-6.9,11.8-15.3c0-7.3-3.8-14.9-11.8-14.9 C13.1,17.5,9.2,24.8,9.2,32.8z"/><path fill="#FFFFFF" d="M62.7,43.8c0,2.7,0.1,5.1,0.2,7.2h-4.3l-0.3-4.3h-0.1c-1.3,2.1-4,4.9-8.8,4.9c-4.2,0-9.1-2.3-9.1-11.6 V24.6h4.8v14.6c0,5,1.5,8.4,5.9,8.4c3.2,0,5.5-2.2,6.3-4.4c0.3-0.7,0.4-1.6,0.4-2.5V24.6h4.8V43.8z"/><path fill="#FFFFFF" d="M67.3,32.8c0-3.1-0.1-5.8-0.2-8.2h4.2l0.2,5.2h0.2c1.2-3.5,4.1-5.8,7.3-5.8c0.5,0,0.9,0.1,1.4,0.2v4.5 c-0.5-0.1-1-0.2-1.6-0.2c-3.4,0-5.8,2.6-6.5,6.2c-0.1,0.7-0.2,1.4-0.2,2.2V51h-4.8V32.8z"/><path fill="#FFFFFF" d="M95.4,51l-9.4-36.8h5l4.4,18.6c1.1,4.6,2.1,9.2,2.7,12.7h0.1c0.6-3.7,1.8-8,3-12.8l4.9-18.5h5l4.5,18.7 c1,4.4,2,8.7,2.6,12.6h0.1c0.8-4,1.8-8.1,3-12.7l4.9-18.5h4.9L120.6,51h-5L111,31.9c-1.1-4.7-1.9-8.3-2.4-12h-0.1 c-0.7,3.7-1.5,7.3-2.8,12L100.4,51H95.4z"/><path fill="#FFFFFF" d="M154.9,37.6c0,9.8-6.8,14-13.2,14c-7.2,0-12.7-5.2-12.7-13.6c0-8.8,5.8-14,13.1-14 C149.8,24,154.9,29.5,154.9,37.6z M133.9,37.9c0,5.8,3.3,10.1,8,10.1c4.6,0,8-4.3,8-10.3c0-4.5-2.2-10.1-7.9-10.1 C136.3,27.6,133.9,32.8,133.9,37.9z"/><path fill="#FFFFFF" d="M158.2,32.8c0-3.1-0.1-5.8-0.2-8.2h4.2l0.2,5.2h0.2c1.2-3.5,4.1-5.8,7.3-5.8c0.5,0,0.9,0.1,1.4,0.2v4.5 c-0.5-0.1-1-0.2-1.6-0.2c-3.4,0-5.8,2.6-6.5,6.2c-0.1,0.7-0.2,1.4-0.2,2.2V51h-4.8V32.8z"/><path fill="#FFFFFF" d="M173.5,12.3h4.8V51h-4.8V12.3z"/><path fill="#FFFFFF" d="M206.5,12.3v31.9c0,2.3,0.1,5,0.2,6.8h-4.3l-0.2-4.6H202c-1.5,2.9-4.7,5.2-9,5.2 c-6.4,0-11.3-5.4-11.3-13.4c-0.1-8.8,5.4-14.2,11.9-14.2c4,0,6.8,1.9,8,4h0.1V12.3H206.5z M201.7,35.4c0-0.6-0.1-1.4-0.2-2 c-0.7-3.1-3.3-5.6-6.9-5.6c-5,0-7.9,4.4-7.9,10.2c0,5.3,2.6,9.8,7.8,9.8c3.2,0,6.2-2.1,7.1-5.7c0.2-0.7,0.2-1.3,0.2-2.1V35.4z"/><path fill="#FFFFFF" d="M42.8,64c0.1,1.6-1.1,2.9-3.1,2.9c-1.7,0-2.9-1.3-2.9-2.9c0-1.7,1.3-3,3-3C41.7,61,42.8,62.3,42.8,64z M37.4,97.8V71.4h4.8v26.4H37.4z"/><path fill="#FFFFFF" d="M47.5,78.6c0-2.7-0.1-5-0.2-7.1h4.3l0.3,4.4h0.1c1.3-2.5,4.4-5,8.8-5c3.7,0,9.4,2.2,9.4,11.2v15.8h-4.8 V82.6c0-4.3-1.6-7.8-6.1-7.8c-3.2,0-5.6,2.2-6.5,4.9c-0.2,0.6-0.3,1.4-0.3,2.2v15.9h-4.8V78.6z"/><path fill="#FFFFFF" d="M84,61.6c2.9-0.4,6.3-0.8,10.1-0.8c6.8,0,11.7,1.6,14.9,4.6c3.3,3,5.2,7.3,5.2,13.2c0,6-1.9,10.9-5.3,14.3 c-3.4,3.4-9.1,5.3-16.3,5.3c-3.4,0-6.2-0.2-8.6-0.4V61.6z M88.8,94.1c1.2,0.2,3,0.3,4.8,0.3c10.2,0,15.7-5.7,15.7-15.6 c0.1-8.7-4.9-14.2-14.9-14.2c-2.5,0-4.3,0.2-5.6,0.5V94.1z"/><path fill="#FFFFFF" d="M132.1,97.8l-0.4-3.3h-0.2c-1.5,2.1-4.3,3.9-8.1,3.9c-5.4,0-8.1-3.8-8.1-7.6c0-6.4,5.7-9.9,15.9-9.8v-0.5 c0-2.2-0.6-6.1-6-6.1c-2.5,0-5,0.8-6.9,2l-1.1-3.2c2.2-1.4,5.4-2.3,8.7-2.3c8.1,0,10.1,5.5,10.1,10.8v9.9c0,2.3,0.1,4.5,0.4,6.3 H132.1z M131.4,84.4c-5.3-0.1-11.2,0.8-11.2,5.9c0,3.1,2.1,4.6,4.5,4.6c3.4,0,5.6-2.2,6.4-4.4c0.2-0.5,0.3-1,0.3-1.5V84.4z"/><path fill="#FFFFFF" d="M146.6,63.9v7.6h6.9v3.7h-6.9v14.2c0,3.3,0.9,5.1,3.6,5.1c1.3,0,2.2-0.2,2.8-0.3l0.2,3.6 c-0.9,0.4-2.4,0.7-4.3,0.7c-2.2,0-4-0.7-5.2-2c-1.4-1.4-1.9-3.8-1.9-6.9V75.1h-4.1v-3.7h4.1v-6.3L146.6,63.9z"/><path fill="#FFFFFF" d="M171.4,97.8l-0.4-3.3h-0.2c-1.5,2.1-4.3,3.9-8.1,3.9c-5.4,0-8.1-3.8-8.1-7.6c0-6.4,5.7-9.9,15.9-9.8v-0.5 c0-2.2-0.6-6.1-6-6.1c-2.5,0-5,0.8-6.9,2l-1.1-3.2c2.2-1.4,5.4-2.3,8.7-2.3c8.1,0,10.1,5.5,10.1,10.8v9.9c0,2.3,0.1,4.5,0.4,6.3 H171.4z M170.7,84.4c-5.3-0.1-11.2,0.8-11.2,5.9c0,3.1,2.1,4.6,4.5,4.6c3.4,0,5.6-2.2,6.4-4.4c0.2-0.5,0.3-1,0.3-1.5V84.4z"/></g></g></a></g><a href="https://ourworldindata.org/grapher/stroke-deaths-by-age" target="_blank"><text font-size="25.20" x="15.0" y="35.2" fill="#555"><tspan x="15" y="35.160000000000004">Stroke deaths by age, World</tspan></text></a><text font-size="14.40" x="15.0" y="53.7" fill="#666"><tspan x="15" y="53.72">Annual number of deaths from cerebrovascular diseases (strokes), differentiated by age category.</tspan></text></g><g class="StackedArea"><defs><clipPath id="boundsClip-405"><rect x="79.45400000000001" y="0" width="820" height="959.8"></rect></clipPath></defs><g class="AxisBoxView"><g class="HorizontalAxis"><text x="79.5" y="556.5" fill="#666" text-anchor="middle" font-size="16.2">1990</text><text x="200.1" y="556.5" fill="#666" text-anchor="middle" font-size="16.2">1995</text><text x="320.7" y="556.5" fill="#666" text-anchor="middle" font-size="16.2">2000</text><text x="441.3" y="556.5" fill="#666" text-anchor="middle" font-size="16.2">2005</text><text x="561.9" y="556.5" fill="#666" text-anchor="middle" font-size="16.2">2010</text><text x="706.6" y="556.5" fill="#666" text-anchor="middle" font-size="16.2">2016</text></g><g class="VerticalAxis"><text x="74.45" y="535.3" fill="#666" dominant-baseline="middle" text-anchor="end" font-size="16.2">0</text><text x="74.45" y="452.3" fill="#666" dominant-baseline="middle" text-anchor="end" font-size="16.2">1 million</text><text x="74.45" y="369.4" fill="#666" dominant-baseline="middle" text-anchor="end" font-size="16.2">2 million</text><text x="74.45" y="286.4" fill="#666" dominant-baseline="middle" text-anchor="end" font-size="16.2">3 million</text><text x="74.45" y="203.4" fill="#666" dominant-baseline="middle" text-anchor="end" font-size="16.2">4 million</text><text x="74.45" y="120.4" fill="#666" dominant-baseline="middle" text-anchor="end" font-size="16.2">5 million</text></g><g class="AxisGridLines"><line x1="79.45" y1="535.3" x2="706.58" y2="535.3" stroke="#ccc"></line><line x1="79.45" y1="452.3" x2="706.58" y2="452.3" stroke="#ddd" stroke-dasharray="3,2"></line><line x1="79.45" y1="369.4" x2="706.58" y2="369.4" stroke="#ddd" stroke-dasharray="3,2"></line><line x1="79.45" y1="286.4" x2="706.58" y2="286.4" stroke="#ddd" stroke-dasharray="3,2"></line><line x1="79.45" y1="203.4" x2="706.58" y2="203.4" stroke="#ddd" stroke-dasharray="3,2"></line><line x1="79.45" y1="120.4" x2="706.58" y2="120.4" stroke="#ddd" stroke-dasharray="3,2"></line></g></g><g clip-path="url(#boundsClip-405)"><g class="HeightedLegend clickable"><g class="legendMark"><g class="indicator"><line x1="711.5799999999999" y1="534.9" x2="730.7466666666666" y2="534.9" stroke="#666" stroke-width="0.5"></line><line x1="730.7466666666666" y1="534.9" x2="730.7466666666666" y2="528.55" stroke="#666" stroke-width="0.5"></line><line x1="730.7466666666666" y1="528.55" x2="736.5799999999999" y2="528.55" stroke="#666" stroke-width="0.5"></line></g><rect x="706.5799999999999" y="521.8" width="90.62" height="13.5" fill="#fff" opacity="0"></rect><text font-size="13.50" x="741.6" y="532.6" fill="#3360a9"><tspan x="741.5799999999999" y="532.5999999999999">Under-5s</tspan></text></g><g class="legendMark"><g class="indicator"><line x1="711.5799999999999" y1="534.3" x2="724.0799999999999" y2="534.3" stroke="#666" stroke-width="0.5"></line><line x1="724.0799999999999" y1="534.3" x2="724.0799999999999" y2="513.05" stroke="#666" stroke-width="0.5"></line><line x1="724.0799999999999" y1="513.05" x2="736.5799999999999" y2="513.05" stroke="#666" stroke-width="0.5"></line></g><rect x="706.5799999999999" y="506.29999999999995" width="120.86" height="13.5" fill="#fff" opacity="0"></rect><text font-size="13.50" x="741.6" y="517.1" fill="#ca2628"><tspan x="741.5799999999999" y="517.0999999999999">5-14 years old</tspan></text></g><g class="legendMark"><g class="indicator"><line x1="711.5799999999999" y1="518.1" x2="717.4133333333333" y2="518.1" stroke="#666" stroke-width="0.5"></line><line x1="717.4133333333333" y1="518.1" x2="717.4133333333333" y2="497.54999999999995" stroke="#666" stroke-width="0.5"></line><line x1="717.4133333333333" y1="497.54999999999995" x2="736.5799999999999" y2="497.54999999999995" stroke="#666" stroke-width="0.5"></line></g><rect x="706.5799999999999" y="490.79999999999995" width="128.42000000000002" height="13.5" fill="#fff" opacity="0"></rect><text font-size="13.50" x="741.6" y="501.6" fill="#ffd53e"><tspan x="741.5799999999999" y="501.59999999999997">15-49 years old</tspan></text></g><g class="legendMark"><g class="indicator"><line x1="711.5799999999999" y1="429.9" x2="724.0799999999999" y2="429.9" stroke="#666" stroke-width="0.5"></line><line x1="724.0799999999999" y1="429.9" x2="724.0799999999999" y2="429.9" stroke="#666" stroke-width="0.5"></line><line x1="724.0799999999999" y1="429.9" x2="736.5799999999999" y2="429.9" stroke="#666" stroke-width="0.5"></line></g><rect x="706.5799999999999" y="423.15" width="128.42000000000002" height="13.5" fill="#fff" opacity="0"></rect><text font-size="13.50" x="741.6" y="433.9" fill="#9ecc8a"><tspan x="741.5799999999999" y="433.95">50-69 years old</tspan></text></g><g class="legendMark"><g class="indicator"><line x1="711.5799999999999" y1="217.1" x2="724.0799999999999" y2="217.1" stroke="#666" stroke-width="0.5"></line><line x1="724.0799999999999" y1="217.1" x2="724.0799999999999" y2="217.1" stroke="#666" stroke-width="0.5"></line><line x1="724.0799999999999" y1="217.1" x2="736.5799999999999" y2="217.1" stroke="#666" stroke-width="0.5"></line></g><rect x="706.5799999999999" y="210.35" width="116.67500000000001" height="13.5" fill="#fff" opacity="0"></rect><text font-size="13.50" x="741.6" y="221.2" fill="#34983f"><tspan x="741.5799999999999" y="221.15">70+ years old</tspan></text></g></g><g class="Areas"><rect x="79.45400000000001" y="76.6" width="627.126" height="458.69999999999993" opacity="0" fill="rgba(255,255,255,0)"></rect><path class="World_0-area" stroke-linecap="round" d="M79.5 532.6L103.6 532.7L127.7 532.8L151.8 532.9L175.9 533L200.1 533.1L224.2 533.2L248.3 533.3L272.4 533.4L296.5 533.5L320.7 533.6L344.8 533.7L368.9 533.8L393 533.8L417.1 533.9L441.3 533.9L465.4 534L489.5 534L513.6 534.1L537.7 534.1L561.9 534.2L586 534.2L610.1 534.3L634.2 534.3L658.3 534.4L682.5 534.4L706.6 534.5L706.5799999999999 535.3L79.45400000000001 535.3" fill="#3360a9" fill-opacity="0.7"></path><path class="World_1-area" stroke-linecap="round" d="M79.5 531.6L103.6 531.8L127.7 531.9L151.8 532L175.9 532.1L200.1 532.2L224.2 532.3L248.3 532.4L272.4 532.6L296.5 532.7L320.7 532.8L344.8 532.9L368.9 533L393 533.1L417.1 533.2L441.3 533.3L465.4 533.4L489.5 533.4L513.6 533.5L537.7 533.5L561.9 533.6L586 533.7L610.1 533.7L634.2 533.8L658.3 533.9L682.5 534L706.6 534L706.6 534.5L682.5 534.4L658.3 534.4L634.2 534.3L610.1 534.3L586 534.2L561.9 534.2L537.7 534.1L513.6 534.1L489.5 534L465.4 534L441.3 533.9L417.1 533.9L393 533.8L368.9 533.8L344.8 533.7L320.7 533.6L296.5 533.5L272.4 533.4L248.3 533.3L224.2 533.2L200.1 533.1L175.9 533L151.8 532.9L127.7 532.8L103.6 532.7L79.5 532.6" fill="#ca2628" fill-opacity="0.7"></path><path class="World_2-area" stroke-linecap="round" d="M79.5 503.9L103.6 503.3L127.7 502.5L151.8 501.5L175.9 500.5L200.1 499.7L224.2 499.2L248.3 498.9L272.4 498.6L296.5 498.3L320.7 498.1L344.8 497.8L368.9 497.7L393 498.2L417.1 498.8L441.3 499L465.4 499.3L489.5 499.6L513.6 499.8L537.7 500L561.9 500.2L586 500.6L610.1 500.9L634.2 501.1L658.3 501.4L682.5 501.7L706.6 502.2L706.6 534L682.5 534L658.3 533.9L634.2 533.8L610.1 533.7L586 533.7L561.9 533.6L537.7 533.5L513.6 533.5L489.5 533.4L465.4 533.4L441.3 533.3L417.1 533.2L393 533.1L368.9 533L344.8 532.9L320.7 532.8L296.5 532.7L272.4 532.6L248.3 532.4L224.2 532.3L200.1 532.2L175.9 532.1L151.8 532L127.7 531.9L103.6 531.8L79.5 531.6" fill="#ffd53e" fill-opacity="0.7"></path><path class="World_3-area" stroke-linecap="round" d="M79.5 382.9L103.6 381.9L127.7 377.9L151.8 372.7L175.9 368.2L200.1 366.7L224.2 366.7L248.3 366.1L272.4 366L296.5 363.6L320.7 361.1L344.8 360.1L368.9 359.5L393 360.2L417.1 360.8L441.3 361.2L465.4 365.1L489.5 367L513.6 367.7L537.7 368.5L561.9 367.8L586 367.9L610.1 366.3L634.2 363.8L658.3 360.2L682.5 358.8L706.6 357.6L706.6 502.2L682.5 501.7L658.3 501.4L634.2 501.1L610.1 500.9L586 500.6L561.9 500.2L537.7 500L513.6 499.8L489.5 499.6L465.4 499.3L441.3 499L417.1 498.8L393 498.2L368.9 497.7L344.8 497.8L320.7 498.1L296.5 498.3L272.4 498.6L248.3 498.9L224.2 499.2L200.1 499.7L175.9 500.5L151.8 501.5L127.7 502.5L103.6 503.3L79.5 503.9" fill="#9ecc8a" fill-opacity="0.7"></path><path class="World_4-area" stroke-linecap="round" d="M79.5 177.5L103.6 174.1L127.7 164.5L151.8 151L175.9 139.9L200.1 134.4L224.2 132.4L248.3 128.8L272.4 123.7L296.5 113.8L320.7 105.1L344.8 97.3L368.9 88.9L393 91.7L417.1 93.9L441.3 91.7L465.4 99.1L489.5 100.8L513.6 99.2L537.7 98.6L561.9 95.5L586 97.8L610.1 95.8L634.2 93.1L658.3 87L682.5 83.4L706.6 76.6L706.6 357.6L682.5 358.8L658.3 360.2L634.2 363.8L610.1 366.3L586 367.9L561.9 367.8L537.7 368.5L513.6 367.7L489.5 367L465.4 365.1L441.3 361.2L417.1 360.8L393 360.2L368.9 359.5L344.8 360.1L320.7 361.1L296.5 363.6L272.4 366L248.3 366.1L224.2 366.7L200.1 366.7L175.9 368.2L151.8 372.7L127.7 377.9L103.6 381.9L79.5 382.9" fill="#34983f" fill-opacity="0.7"></path><path class="World_0-border" stroke-linecap="round" d="M79.5 532.6L103.6 532.7L127.7 532.8L151.8 532.9L175.9 533L200.1 533.1L224.2 533.2L248.3 533.3L272.4 533.4L296.5 533.5L320.7 533.6L344.8 533.7L368.9 533.8L393 533.8L417.1 533.9L441.3 533.9L465.4 534L489.5 534L513.6 534.1L537.7 534.1L561.9 534.2L586 534.2L610.1 534.3L634.2 534.3L658.3 534.4L682.5 534.4L706.6 534.5" stroke="rgb(43, 80, 141)" stroke-opacity="0.7" stroke-width="0.5" fill="none"></path><path class="World_1-border" stroke-linecap="round" d="M79.5 531.6L103.6 531.8L127.7 531.9L151.8 532L175.9 532.1L200.1 532.2L224.2 532.3L248.3 532.4L272.4 532.6L296.5 532.7L320.7 532.8L344.8 532.9L368.9 533L393 533.1L417.1 533.2L441.3 533.3L465.4 533.4L489.5 533.4L513.6 533.5L537.7 533.5L561.9 533.6L586 533.7L610.1 533.7L634.2 533.8L658.3 533.9L682.5 534L706.6 534" stroke="rgb(169, 32, 33)" stroke-opacity="0.7" stroke-width="0.5" fill="none"></path><path class="World_2-border" stroke-linecap="round" d="M79.5 503.9L103.6 503.3L127.7 502.5L151.8 501.5L175.9 500.5L200.1 499.7L224.2 499.2L248.3 498.9L272.4 498.6L296.5 498.3L320.7 498.1L344.8 497.8L368.9 497.7L393 498.2L417.1 498.8L441.3 499L465.4 499.3L489.5 499.6L513.6 499.8L537.7 500L561.9 500.2L586 500.6L610.1 500.9L634.2 501.1L658.3 501.4L682.5 501.7L706.6 502.2" stroke="rgb(213, 178, 52)" stroke-opacity="0.7" stroke-width="0.5" fill="none"></path><path class="World_3-border" stroke-linecap="round" d="M79.5 382.9L103.6 381.9L127.7 377.9L151.8 372.7L175.9 368.2L200.1 366.7L224.2 366.7L248.3 366.1L272.4 366L296.5 363.6L320.7 361.1L344.8 360.1L368.9 359.5L393 360.2L417.1 360.8L441.3 361.2L465.4 365.1L489.5 367L513.6 367.7L537.7 368.5L561.9 367.8L586 367.9L610.1 366.3L634.2 363.8L658.3 360.2L682.5 358.8L706.6 357.6" stroke="rgb(132, 171, 115)" stroke-opacity="0.7" stroke-width="0.5" fill="none"></path><path class="World_4-border" stroke-linecap="round" d="M79.5 177.5L103.6 174.1L127.7 164.5L151.8 151L175.9 139.9L200.1 134.4L224.2 132.4L248.3 128.8L272.4 123.7L296.5 113.8L320.7 105.1L344.8 97.3L368.9 88.9L393 91.7L417.1 93.9L441.3 91.7L465.4 99.1L489.5 100.8L513.6 99.2L537.7 98.6L561.9 95.5L586 97.8L610.1 95.8L634.2 93.1L658.3 87L682.5 83.4L706.6 76.6" stroke="rgb(44, 127, 53)" stroke-opacity="0.7" stroke-width="0.5" fill="none"></path></g></g></g><g class="SourcesFooter" style="fill:#777"><g class="clickable" style="fill:#777"><text font-size="12.60" x="15.0" y="581.6"><tspan x="15" y="581.58">Source: IHME, Global Burden of Disease (GBD)</tspan></text></g><text font-size="12.60" x="775.4" y="581.6"><tspan x="775.402" y="581.58"><a style="fill: #777;" class="cclogo" href="http://creativecommons.org/licenses/by-sa/4.0/deed.en_US" target="_blank">CC BY-SA</a></tspan></text></g></g></svg>