<svg xmlns="http://www.w3.org/2000/svg" version="1.1" style="font-family: 'Helvetica Neue', Helvetica, Arial, sans-serif; font-size: 18px; background-color: white; text-rendering: optimizeLegibility; -webkit-font-smoothing: antialiased;" width="850" height="600"><g class="ChartTab"><g class="HeaderView"><g opacity="0.8" transform="translate(770, 15) scale(0.31)"><a xmlns:xlink="http://www.w3.org/1999/xlink" xlink:href="https://ourworldindata.org" target="_blank"><g><rect x="0" y="0" fill="#1B2543" width="211.2" height="130.1"/><rect x="0" y="112.2" fill="#E63912" width="211.2" height="17.9"/><g><rect x="1.2" y="12.3" fill="none" width="210.2" height="99.2"/><path fill="#FFFFFF" d="M37.8,32.2c0,12.7-7.7,19.4-17.1,19.4c-9.7,0-16.6-7.5-16.6-18.7c0-11.7,7.3-19.3,17.1-19.3 C31.3,13.7,37.8,21.3,37.8,32.2z M9.2,32.8c0,7.9,4.3,14.9,11.8,14.9c7.5,0,11.8-6.9,11.8-15.3c0-7.3-3.8-14.9-11.8-14.9 C13.1,17.5,9.2,24.8,9.2,32.8z"/><path fill="#FFFFFF" d="M62.7,43.8c0,2.7,0.1,5.1,0.2,7.2h-4.3l-0.3-4.3h-0.1c-1.3,2.1-4,4.9-8.8,4.9c-4.2,0-9.1-2.3-9.1-11.6 V24.6h4.8v14.6c0,5,1.5,8.4,5.9,8.4c3.2,0,5.5-2.2,6.3-4.4c0.3-0.7,0.4-1.6,0.4-2.5V24.6h4.8V43.8z"/><path fill="#FFFFFF" d="M67.3,32.8c0-3.1-0.1-5.8-0.2-8.2h4.2l0.2,5.2h0.2c1.2-3.5,4.1-5.8,7.3-5.8c0.5,0,0.9,0.1,1.4,0.2v4.5 c-0.5-0.1-1-0.2-1.6-0.2c-3.4,0-5.8,2.6-6.5,6.2c-0.1,0.7-0.2,1.4-0.2,2.2V51h-4.8V32.8z"/><path fill="#FFFFFF" d="M95.4,51l-9.4-36.8h5l4.4,18.6c1.1,4.6,2.1,9.2,2.7,12.7h0.1c0.6-3.7,1.8-8,3-12.8l4.9-18.5h5l4.5,18.7 c1,4.4,2,8.7,2.6,12.6h0.1c0.8-4,1.8-8.1,3-12.7l4.9-18.5h4.9L120.6,51h-5L111,31.9c-1.1-4.7-1.9-8.3-2.4-12h-0.1 c-0.7,3.7-1.5,7.3-2.8,12L100.4,51H95.4z"/><path fill="#FFFFFF" d="M154.9,37.6c0,9.8-6.8,14-13.2,14c-7.2,0-12.7-5.2-12.7-13.6c0-8.8,5.8-14,13.1-14 C149.8,24,154.9,29.5,154.9,37.6z M133.9,37.9c0,5.8,3.3,10.1,8,10.1c4.6,0,8-4.3,8-10.3c0-4.5-2.2-10.1-7.9-10.1 C136.3,27.6,133.9,32.8,133.9,37.9z"/><path fill="#FFFFFF" d="M158.2,32.8c0-3.1-0.1-5.8-0.2-8.2h4.2l0.2,5.2h0.2c1.2-3.5,4.1-5.8,7.3-5.8c0.5,0,0.9,0.1,1.4,0.2v4.5 c-0.5-0.1-1-0.2-1.6-0.2c-3.4,0-5.8,2.6-6.5,6.2c-0.1,0.7-0.2,1.4-0.2,2.2V51h-4.8V32.8z"/><path fill="#FFFFFF" d="M173.5,12.3h4.8V51h-4.8V12.3z"/><path fill="#FFFFFF" d="M206.5,12.3v31.9c0,2.3,0.1,5,0.2,6.8h-4.3l-0.2-4.6H202c-1.5,2.9-4.7,5.2-9,5.2 c-6.4,0-11.3-5.4-11.3-13.4c-0.1-8.8,5.4-14.2,11.9-14.2c4,0,6.8,1.9,8,4h0.1V12.3H206.5z M201.7,35.4c0-0.6-0.1-1.4-0.2-2 c-0.7-3.1-3.3-5.6-6.9-5.6c-5,0-7.9,4.4-7.9,10.2c0,5.3,2.6,9.8,7.8,9.8c3.2,0,6.2-2.1,7.1-5.7c0.2-0.7,0.2-1.3,0.2-2.1V35.4z"/><path fill="#FFFFFF" d="M42.8,64c0.1,1.6-1.1,2.9-3.1,2.9c-1.7,0-2.9-1.3-2.9-2.9c0-1.7,1.3-3,3-3C41.7,61,42.8,62.3,42.8,64z M37.4,97.8V71.4h4.8v26.4H37.4z"/><path fill="#FFFFFF" d="M47.5,78.6c0-2.7-0.1-5-0.2-7.1h4.3l0.3,4.4h0.1c1.3-2.5,4.4-5,8.8-5c3.7,0,9.4,2.2,9.4,11.2v15.8h-4.8 V82.6c0-4.3-1.6-7.8-6.1-7.8c-3.2,0-5.6,2.2-6.5,4.9c-0.2,0.6-0.3,1.4-0.3,2.2v15.9h-4.8V78.6z"/><path fill="#FFFFFF" d="M84,61.6c2.9-0.4,6.3-0.8,10.1-0.8c6.8,0,11.7,1.6,14.9,4.6c3.3,3,5.2,7.3,5.2,13.2c0,6-1.9,10.9-5.3,14.3 c-3.4,3.4-9.1,5.3-16.3,5.3c-3.4,0-6.2-0.2-8.6-0.4V61.6z M88.8,94.1c1.2,0.2,3,0.3,4.8,0.3c10.2,0,15.7-5.7,15.7-15.6 c0.1-8.7-4.9-14.2-14.9-14.2c-2.5,0-4.3,0.2-5.6,0.5V94.1z"/><path fill="#FFFFFF" d="M132.1,97.8l-0.4-3.3h-0.2c-1.5,2.1-4.3,3.9-8.1,3.9c-5.4,0-8.1-3.8-8.1-7.6c0-6.4,5.7-9.9,15.9-9.8v-0.5 c0-2.2-0.6-6.1-6-6.1c-2.5,0-5,0.8-6.9,2l-1.1-3.2c2.2-1.4,5.4-2.3,8.7-2.3c8.1,0,10.1,5.5,10.1,10.8v9.9c0,2.3,0.1,4.5,0.4,6.3 H132.1z M131.4,84.4c-5.3-0.1-11.2,0.8-11.2,5.9c0,3.1,2.1,4.6,4.5,4.6c3.4,0,5.6-2.2,6.4-4.4c0.2-0.5,0.3-1,0.3-1.5V84.4z"/><path fill="#FFFFFF" d="M146.6,63.9v7.6h6.9v3.7h-6.9v14.2c0,3.3,0.9,5.1,3.6,5.1c1.3,0,2.2-0.2,2.8-0.3l0.2,3.6 c-0.9,0.4-2.4,0.7-4.3,0.7c-2.2,0-4-0.7-5.2-2c-1.4-1.4-1.9-3.8-1.9-6.9V75.1h-4.1v-3.7h4.1v-6.3L146.6,63.9z"/><path fill="#FFFFFF" d="M171.4,97.8l-0.4-3.3h-0.2c-1.5,2.1-4.3,3.9-8.1,3.9c-5.4,0-8.1-3.8-8.1-7.6c0-6.4,5.7-9.9,15.9-9.8v-0.5 c0-2.2-0.6-6.1-6-6.1c-2.5,0-5,0.8-6.9,2l-1.1-3.2c2.2-1.4,5.4-2.3,8.7-2.3c8.1,0,10.1,5.5,10.1,10.8v9.9c0,2.3,0.1,4.5,0.4,6.3 H171.4z M170.7,84.4c-5.3-0.1-11.2,0.8-11.2,5.9c0,3.1,2.1,4.6,4.5,4.6c3.4,0,5.6-2.2,6.4-4.4c0.2-0.5,0.3-1,0.3-1.5V84.4z"/></g></g></a></g><a href="https://ourworldindata.org/grapher/tax-revenues-by-source-gdp-LA?country=COL" target="_blank"><text font-size="27.00" x="15.0" y="36.6" fill="#555"><tspan x="15" y="36.6">Tax revenues by source (% GDP), Colombia</tspan></text></a><text font-size="14.40" x="15.0" y="55.5" fill="#666"><tspan x="15" y="55.519999999999996">Central government revenues by source as share of GDP</tspan></text></g><g class="StackedArea"><defs><clipPath id="boundsClip-4"><rect x="52.562" y="0" width="820" height="956.2"></rect></clipPath></defs><g class="AxisBoxView"><g class="HorizontalAxis"><text x="52.6" y="556.5" fill="#666" text-anchor="middle" font-size="16.2">1905</text><text x="141.6" y="556.5" fill="#666" text-anchor="middle" font-size="16.2">1920</text><text x="260.3" y="556.5" fill="#666" text-anchor="middle" font-size="16.2">1940</text><text x="379" y="556.5" fill="#666" text-anchor="middle" font-size="16.2">1960</text><text x="497.7" y="556.5" fill="#666" text-anchor="middle" font-size="16.2">1980</text><text x="616.4" y="556.5" fill="#666" text-anchor="middle" font-size="16.2">2000</text><text x="693.6" y="556.5" fill="#666" text-anchor="middle" font-size="16.2">2013</text></g><g class="VerticalAxis"><text x="47.56" y="535.3" fill="#666" dominant-baseline="middle" text-anchor="end" font-size="16.2">0%</text><text x="47.56" y="470" fill="#666" dominant-baseline="middle" text-anchor="end" font-size="16.2">2%</text><text x="47.56" y="404.8" fill="#666" dominant-baseline="middle" text-anchor="end" font-size="16.2">4%</text><text x="47.56" y="339.5" fill="#666" dominant-baseline="middle" text-anchor="end" font-size="16.2">6%</text><text x="47.56" y="274.2" fill="#666" dominant-baseline="middle" text-anchor="end" font-size="16.2">8%</text><text x="47.56" y="208.9" fill="#666" dominant-baseline="middle" text-anchor="end" font-size="16.2">10%</text><text x="47.56" y="143.7" fill="#666" dominant-baseline="middle" text-anchor="end" font-size="16.2">12%</text><text x="47.56" y="78.4" fill="#666" dominant-baseline="middle" text-anchor="end" font-size="16.2">14%</text></g><g class="AxisGridLines"><line x1="52.56" y1="535.3" x2="693.61" y2="535.3" stroke="#ccc"></line><line x1="52.56" y1="470" x2="693.61" y2="470" stroke="#ddd" stroke-dasharray="3,2"></line><line x1="52.56" y1="404.8" x2="693.61" y2="404.8" stroke="#ddd" stroke-dasharray="3,2"></line><line x1="52.56" y1="339.5" x2="693.61" y2="339.5" stroke="#ddd" stroke-dasharray="3,2"></line><line x1="52.56" y1="274.2" x2="693.61" y2="274.2" stroke="#ddd" stroke-dasharray="3,2"></line><line x1="52.56" y1="208.9" x2="693.61" y2="208.9" stroke="#ddd" stroke-dasharray="3,2"></line><line x1="52.56" y1="143.7" x2="693.61" y2="143.7" stroke="#ddd" stroke-dasharray="3,2"></line><line x1="52.56" y1="78.4" x2="693.61" y2="78.4" stroke="#ddd" stroke-dasharray="3,2"></line></g><g class="AxisGridLines"><line x1="141.6" y1="535.30" x2="141.6" y2="78.40" stroke="#ddd" stroke-dasharray="3,2"></line><line x1="260.3" y1="535.30" x2="260.3" y2="78.40" stroke="#ddd" stroke-dasharray="3,2"></line><line x1="379" y1="535.30" x2="379" y2="78.40" stroke="#ddd" stroke-dasharray="3,2"></line><line x1="497.7" y1="535.30" x2="497.7" y2="78.40" stroke="#ddd" stroke-dasharray="3,2"></line><line x1="616.4" y1="535.30" x2="616.4" y2="78.40" stroke="#ddd" stroke-dasharray="3,2"></line></g></g><g clip-path="url(#boundsClip-4)"><g class="HeightedLegend clickable"><g class="legendMark"><rect x="698.608" y="110.39999999999999" width="83.97600000000001" height="14.4" fill="#fff" opacity="0"></rect><rect x="698.608" y="116.35" width="10" height="2.5" fill="#34983f"></rect><text font-size="14.40" x="713.6" y="121.9" fill="#333"><tspan x="713.608" y="121.92">Resources</tspan></text></g><g class="legendMark"><rect x="698.608" y="206.60000000000002" width="100.10400000000001" height="14.4" fill="#fff" opacity="0"></rect><rect x="698.608" y="212.55" width="10" height="2.5" fill="#ffd53e"></rect><text font-size="14.40" x="713.6" y="218.1" fill="#333"><tspan x="713.608" y="218.12000000000003">Consumption</tspan></text></g><g class="legendMark"><rect x="698.608" y="415.5" width="136.392" height="14.4" fill="#fff" opacity="0"></rect><rect x="698.608" y="421.45" width="10" height="2.5" fill="#ca2628"></rect><text font-size="14.40" x="713.6" y="427.0" fill="#333"><tspan x="713.608" y="427.02">Income and wealth</tspan></text></g><g class="legendMark"><rect x="698.608" y="528.0999999999999" width="56.760000000000005" height="14.4" fill="#fff" opacity="0"></rect><rect x="698.608" y="534.05" width="10" height="2.5" fill="#3360a9"></rect><text font-size="14.40" x="713.6" y="539.6" fill="#333"><tspan x="713.608" y="539.6199999999999">Trade </tspan></text></g></g><g class="Areas"><rect x="52.562" y="78.4" width="641.0459999999999" height="456.9000000000001" opacity="0" fill="rgba(255,255,255,0)"></rect><path stroke-linecap="round" d="M52.6 453.7L64.4 372.1L70.4 414.5L76.3 417.8L82.2 417.8L88.2 443.9L94.1 414.5L100 372.1L106 414.5L111.9 460.2L117.9 391.7L123.8 450.4L129.7 483.1L135.7 473.3L141.6 434.1L147.5 505.9L153.5 473.3L159.4 427.6L165.3 447.2L171.3 421.1L177.2 427.6L183.1 421.1L189.1 430.9L195 427.6L201 463.5L206.9 430.9L212.8 447.2L218.8 434.1L224.7 457L230.6 453.7L236.6 457L242.5 450.4L248.4 470L254.4 457L260.3 483.1L266.2 476.6L272.2 502.7L278.1 502.7L284.1 502.7L290 496.1L295.9 496.1L301.9 492.9L307.8 502.7L313.7 515.7L319.7 496.1L325.6 457L331.5 470L337.5 460.2L343.4 450.4L349.3 470L355.3 486.3L361.2 502.7L367.1 505.9L373.1 486.3L379 466.8L385 476.6L390.9 486.3L396.8 496.1L402.8 492.9L408.7 502.7L414.6 450.4L420.6 476.6L426.5 460.2L432.4 466.8L438.4 450.4L444.3 463.5L450.2 466.8L456.2 473.3L462.1 473.3L468.1 473.3L474 470L479.9 460.2L485.9 473.3L491.8 473.3L497.7 463.5L503.7 476.6L509.6 479.8L515.5 489.6L521.5 470L527.4 453.7L533.3 437.4L539.3 424.3L545.2 427.6L551.2 437.4L557.1 466.8L563 470L569 470L574.9 453.7L580.8 447.2L586.8 447.2L592.7 453.7L598.6 447.2L604.6 440.7L610.5 463.5L616.4 466.8L622.4 460.2L628.3 463.5L634.3 460.2L640.2 460.2L646.1 450.4L652.1 434.1L658 437.4L663.9 440.7L669.9 457L675.8 453.7L681.7 450.4L687.7 460.2L693.6 535.3L693.608 535.3000000000001L52.562 535.3000000000001" fill="#3360a9" fill-opacity="0.7" class="Colombia_3-area"></path><path stroke-linecap="round" d="M52.6 453.7L64.4 372.1L70.4 414.5L76.3 417.8L82.2 417.8L88.2 443.9L94.1 414.5L100 372.1L106 414.5L111.9 460.2L117.9 391.7L123.8 450.4L129.7 483.1L135.7 473.3L141.6 427.6L147.5 499.4L153.5 470L159.4 424.3L165.3 443.9L171.3 417.8L177.2 424.3L183.1 417.8L189.1 424.3L195 421.1L201 453.7L206.9 421.1L212.8 434.1L218.8 421.1L224.7 450.4L230.6 440.7L236.6 427.6L242.5 411.3L248.4 434.1L254.4 421.1L260.3 443.9L266.2 434.1L272.2 457L278.1 466.8L284.1 447.2L290 440.7L295.9 437.4L301.9 417.8L307.8 427.6L313.7 440.7L319.7 414.5L325.6 365.6L331.5 372.1L337.5 368.9L343.4 346L349.3 349.3L355.3 368.9L361.2 391.7L367.1 395L373.1 365.6L379 342.7L385 365.6L390.9 381.9L396.8 381.9L402.8 362.3L408.7 385.2L414.6 339.5L420.6 342.7L426.5 326.4L432.4 306.9L438.4 300.3L444.3 290.5L450.2 326.4L456.2 326.4L462.1 326.4L468.1 313.4L474 316.6L479.9 352.5L485.9 300.3L491.8 381.9L497.7 359.1L503.7 365.6L509.6 378.6L515.5 404.8L521.5 388.4L527.4 368.9L533.3 349.3L539.3 342.7L545.2 300.3L551.2 310.1L557.1 355.8L563 300.3L569 303.6L574.9 297.1L580.8 290.5L586.8 293.8L592.7 297.1L598.6 277.5L604.6 300.3L610.5 326.4L616.4 349.3L622.4 319.9L628.3 329.7L634.3 319.9L640.2 300.3L646.1 284L652.1 254.6L658 254.6L663.9 274.2L669.9 274.2L675.8 297.1L681.7 274.2L687.7 244.8L693.6 310.1L693.6 535.3L687.7 460.2L681.7 450.4L675.8 453.7L669.9 457L663.9 440.7L658 437.4L652.1 434.1L646.1 450.4L640.2 460.2L634.3 460.2L628.3 463.5L622.4 460.2L616.4 466.8L610.5 463.5L604.6 440.7L598.6 447.2L592.7 453.7L586.8 447.2L580.8 447.2L574.9 453.7L569 470L563 470L557.1 466.8L551.2 437.4L545.2 427.6L539.3 424.3L533.3 437.4L527.4 453.7L521.5 470L515.5 489.6L509.6 479.8L503.7 476.6L497.7 463.5L491.8 473.3L485.9 473.3L479.9 460.2L474 470L468.1 473.3L462.1 473.3L456.2 473.3L450.2 466.8L444.3 463.5L438.4 450.4L432.4 466.8L426.5 460.2L420.6 476.6L414.6 450.4L408.7 502.7L402.8 492.9L396.8 496.1L390.9 486.3L385 476.6L379 466.8L373.1 486.3L367.1 505.9L361.2 502.7L355.3 486.3L349.3 470L343.4 450.4L337.5 460.2L331.5 470L325.6 457L319.7 496.1L313.7 515.7L307.8 502.7L301.9 492.9L295.9 496.1L290 496.1L284.1 502.7L278.1 502.7L272.2 502.7L266.2 476.6L260.3 483.1L254.4 457L248.4 470L242.5 450.4L236.6 457L230.6 453.7L224.7 457L218.8 434.1L212.8 447.2L206.9 430.9L201 463.5L195 427.6L189.1 430.9L183.1 421.1L177.2 427.6L171.3 421.1L165.3 447.2L159.4 427.6L153.5 473.3L147.5 505.9L141.6 434.1L135.7 473.3L129.7 483.1L123.8 450.4L117.9 391.7L111.9 460.2L106 414.5L100 372.1L94.1 414.5L88.2 443.9L82.2 417.8L76.3 417.8L70.4 414.5L64.4 372.1L52.6 453.7" fill="#ca2628" fill-opacity="0.7" class="Colombia_2-area"></path><path stroke-linecap="round" d="M52.6 453.7L64.4 372.1L70.4 414.5L76.3 417.8L82.2 417.8L88.2 443.9L94.1 414.5L100 372.1L106 414.5L111.9 460.2L117.9 391.7L123.8 450.4L129.7 483.1L135.7 473.3L141.6 427.6L147.5 499.4L153.5 470L159.4 424.3L165.3 443.9L171.3 417.8L177.2 424.3L183.1 417.8L189.1 424.3L195 421.1L201 453.7L206.9 421.1L212.8 434.1L218.8 421.1L224.7 450.4L230.6 440.7L236.6 427.6L242.5 411.3L248.4 434.1L254.4 421.1L260.3 443.9L266.2 434.1L272.2 457L278.1 466.8L284.1 447.2L290 440.7L295.9 437.4L301.9 417.8L307.8 427.6L313.7 440.7L319.7 414.5L325.6 365.6L331.5 372.1L337.5 368.9L343.4 346L349.3 349.3L355.3 368.9L361.2 391.7L367.1 395L373.1 365.6L379 342.7L385 365.6L390.9 381.9L396.8 381.9L402.8 362.3L408.7 365.6L414.6 310.1L420.6 319.9L426.5 300.3L432.4 274.2L438.4 271L444.3 254.6L450.2 290.5L456.2 290.5L462.1 280.7L468.1 251.4L474 254.6L479.9 293.8L485.9 238.3L491.8 310.1L497.7 290.5L503.7 306.9L509.6 300.3L515.5 339.5L521.5 306.9L527.4 277.5L533.3 261.2L539.3 251.4L545.2 195.9L551.2 208.9L557.1 271L563 205.7L569 189.4L574.9 150.2L580.8 137.1L586.8 137.1L592.7 160L598.6 137.1L604.6 160L610.5 179.6L616.4 215.5L622.4 166.5L628.3 182.8L634.3 166.5L640.2 143.7L646.1 120.8L652.1 78.4L658 81.7L663.9 98L669.9 114.3L675.8 133.9L681.7 104.5L687.7 81.7L693.6 117.6L693.6 310.1L687.7 244.8L681.7 274.2L675.8 297.1L669.9 274.2L663.9 274.2L658 254.6L652.1 254.6L646.1 284L640.2 300.3L634.3 319.9L628.3 329.7L622.4 319.9L616.4 349.3L610.5 326.4L604.6 300.3L598.6 277.5L592.7 297.1L586.8 293.8L580.8 290.5L574.9 297.1L569 303.6L563 300.3L557.1 355.8L551.2 310.1L545.2 300.3L539.3 342.7L533.3 349.3L527.4 368.9L521.5 388.4L515.5 404.8L509.6 378.6L503.7 365.6L497.7 359.1L491.8 381.9L485.9 300.3L479.9 352.5L474 316.6L468.1 313.4L462.1 326.4L456.2 326.4L450.2 326.4L444.3 290.5L438.4 300.3L432.4 306.9L426.5 326.4L420.6 342.7L414.6 339.5L408.7 385.2L402.8 362.3L396.8 381.9L390.9 381.9L385 365.6L379 342.7L373.1 365.6L367.1 395L361.2 391.7L355.3 368.9L349.3 349.3L343.4 346L337.5 368.9L331.5 372.1L325.6 365.6L319.7 414.5L313.7 440.7L307.8 427.6L301.9 417.8L295.9 437.4L290 440.7L284.1 447.2L278.1 466.8L272.2 457L266.2 434.1L260.3 443.9L254.4 421.1L248.4 434.1L242.5 411.3L236.6 427.6L230.6 440.7L224.7 450.4L218.8 421.1L212.8 434.1L206.9 421.1L201 453.7L195 421.1L189.1 424.3L183.1 417.8L177.2 424.3L171.3 417.8L165.3 443.9L159.4 424.3L153.5 470L147.5 499.4L141.6 427.6L135.7 473.3L129.7 483.1L123.8 450.4L117.9 391.7L111.9 460.2L106 414.5L100 372.1L94.1 414.5L88.2 443.9L82.2 417.8L76.3 417.8L70.4 414.5L64.4 372.1L52.6 453.7" fill="#ffd53e" fill-opacity="0.7" class="Colombia_1-area"></path><path stroke-linecap="round" d="M52.6 395L64.4 342.7L70.4 381.9L76.3 381.9L82.2 391.7L88.2 411.3L94.1 381.9L100 336.2L106 375.4L111.9 424.3L117.9 319.9L123.8 391.7L129.7 437.4L135.7 443.9L141.6 398.2L147.5 470L153.5 437.4L159.4 391.7L165.3 414.5L171.3 388.4L177.2 398.2L183.1 404.8L189.1 417.8L195 411.3L201 440.7L206.9 404.8L212.8 417.8L218.8 401.5L224.7 437.4L230.6 424.3L236.6 411.3L242.5 391.7L248.4 414.5L254.4 398.2L260.3 408L266.2 378.6L272.2 414.5L278.1 434.1L284.1 414.5L290 408L295.9 381.9L301.9 359.1L307.8 385.2L313.7 404.8L319.7 381.9L325.6 329.7L331.5 339.5L337.5 352.5L343.4 342.7L349.3 342.7L355.3 362.3L361.2 385.2L367.1 395L373.1 365.6L379 339.5L385 365.6L390.9 381.9L396.8 381.9L402.8 362.3L408.7 365.6L414.6 310.1L420.6 319.9L426.5 300.3L432.4 274.2L438.4 271L444.3 254.6L450.2 290.5L456.2 290.5L462.1 280.7L468.1 251.4L474 254.6L479.9 293.8L485.9 238.3L491.8 310.1L497.7 290.5L503.7 306.9L509.6 300.3L515.5 339.5L521.5 306.9L527.4 277.5L533.3 261.2L539.3 251.4L545.2 195.9L551.2 208.9L557.1 271L563 205.7L569 189.4L574.9 150.2L580.8 137.1L586.8 137.1L592.7 160L598.6 137.1L604.6 160L610.5 179.6L616.4 215.5L622.4 166.5L628.3 182.8L634.3 166.5L640.2 143.7L646.1 120.8L652.1 78.4L658 81.7L663.9 98L669.9 114.3L675.8 133.9L681.7 104.5L687.7 81.7L693.6 117.6L693.6 117.6L687.7 81.7L681.7 104.5L675.8 133.9L669.9 114.3L663.9 98L658 81.7L652.1 78.4L646.1 120.8L640.2 143.7L634.3 166.5L628.3 182.8L622.4 166.5L616.4 215.5L610.5 179.6L604.6 160L598.6 137.1L592.7 160L586.8 137.1L580.8 137.1L574.9 150.2L569 189.4L563 205.7L557.1 271L551.2 208.9L545.2 195.9L539.3 251.4L533.3 261.2L527.4 277.5L521.5 306.9L515.5 339.5L509.6 300.3L503.7 306.9L497.7 290.5L491.8 310.1L485.9 238.3L479.9 293.8L474 254.6L468.1 251.4L462.1 280.7L456.2 290.5L450.2 290.5L444.3 254.6L438.4 271L432.4 274.2L426.5 300.3L420.6 319.9L414.6 310.1L408.7 365.6L402.8 362.3L396.8 381.9L390.9 381.9L385 365.6L379 342.7L373.1 365.6L367.1 395L361.2 391.7L355.3 368.9L349.3 349.3L343.4 346L337.5 368.9L331.5 372.1L325.6 365.6L319.7 414.5L313.7 440.7L307.8 427.6L301.9 417.8L295.9 437.4L290 440.7L284.1 447.2L278.1 466.8L272.2 457L266.2 434.1L260.3 443.9L254.4 421.1L248.4 434.1L242.5 411.3L236.6 427.6L230.6 440.7L224.7 450.4L218.8 421.1L212.8 434.1L206.9 421.1L201 453.7L195 421.1L189.1 424.3L183.1 417.8L177.2 424.3L171.3 417.8L165.3 443.9L159.4 424.3L153.5 470L147.5 499.4L141.6 427.6L135.7 473.3L129.7 483.1L123.8 450.4L117.9 391.7L111.9 460.2L106 414.5L100 372.1L94.1 414.5L88.2 443.9L82.2 417.8L76.3 417.8L70.4 414.5L64.4 372.1L52.6 453.7" fill="#34983f" fill-opacity="0.7" class="Colombia_0-area"></path><path stroke-linecap="round" d="M52.6 453.7L64.4 372.1L70.4 414.5L76.3 417.8L82.2 417.8L88.2 443.9L94.1 414.5L100 372.1L106 414.5L111.9 460.2L117.9 391.7L123.8 450.4L129.7 483.1L135.7 473.3L141.6 434.1L147.5 505.9L153.5 473.3L159.4 427.6L165.3 447.2L171.3 421.1L177.2 427.6L183.1 421.1L189.1 430.9L195 427.6L201 463.5L206.9 430.9L212.8 447.2L218.8 434.1L224.7 457L230.6 453.7L236.6 457L242.5 450.4L248.4 470L254.4 457L260.3 483.1L266.2 476.6L272.2 502.7L278.1 502.7L284.1 502.7L290 496.1L295.9 496.1L301.9 492.9L307.8 502.7L313.7 515.7L319.7 496.1L325.6 457L331.5 470L337.5 460.2L343.4 450.4L349.3 470L355.3 486.3L361.2 502.7L367.1 505.9L373.1 486.3L379 466.8L385 476.6L390.9 486.3L396.8 496.1L402.8 492.9L408.7 502.7L414.6 450.4L420.6 476.6L426.5 460.2L432.4 466.8L438.4 450.4L444.3 463.5L450.2 466.8L456.2 473.3L462.1 473.3L468.1 473.3L474 470L479.9 460.2L485.9 473.3L491.8 473.3L497.7 463.5L503.7 476.6L509.6 479.8L515.5 489.6L521.5 470L527.4 453.7L533.3 437.4L539.3 424.3L545.2 427.6L551.2 437.4L557.1 466.8L563 470L569 470L574.9 453.7L580.8 447.2L586.8 447.2L592.7 453.7L598.6 447.2L604.6 440.7L610.5 463.5L616.4 466.8L622.4 460.2L628.3 463.5L634.3 460.2L640.2 460.2L646.1 450.4L652.1 434.1L658 437.4L663.9 440.7L669.9 457L675.8 453.7L681.7 450.4L687.7 460.2L693.6 535.3" stroke="rgb(43, 80, 141)" stroke-opacity="0.7" stroke-width="0.5" fill="none" class="Colombia_3-border"></path><path stroke-linecap="round" d="M52.6 453.7L64.4 372.1L70.4 414.5L76.3 417.8L82.2 417.8L88.2 443.9L94.1 414.5L100 372.1L106 414.5L111.9 460.2L117.9 391.7L123.8 450.4L129.7 483.1L135.7 473.3L141.6 427.6L147.5 499.4L153.5 470L159.4 424.3L165.3 443.9L171.3 417.8L177.2 424.3L183.1 417.8L189.1 424.3L195 421.1L201 453.7L206.9 421.1L212.8 434.1L218.8 421.1L224.7 450.4L230.6 440.7L236.6 427.6L242.5 411.3L248.4 434.1L254.4 421.1L260.3 443.9L266.2 434.1L272.2 457L278.1 466.8L284.1 447.2L290 440.7L295.9 437.4L301.9 417.8L307.8 427.6L313.7 440.7L319.7 414.5L325.6 365.6L331.5 372.1L337.5 368.9L343.4 346L349.3 349.3L355.3 368.9L361.2 391.7L367.1 395L373.1 365.6L379 342.7L385 365.6L390.9 381.9L396.8 381.9L402.8 362.3L408.7 385.2L414.6 339.5L420.6 342.7L426.5 326.4L432.4 306.9L438.4 300.3L444.3 290.5L450.2 326.4L456.2 326.4L462.1 326.4L468.1 313.4L474 316.6L479.9 352.5L485.9 300.3L491.8 381.9L497.7 359.1L503.7 365.6L509.6 378.6L515.5 404.8L521.5 388.4L527.4 368.9L533.3 349.3L539.3 342.7L545.2 300.3L551.2 310.1L557.1 355.8L563 300.3L569 303.6L574.9 297.1L580.8 290.5L586.8 293.8L592.7 297.1L598.6 277.5L604.6 300.3L610.5 326.4L616.4 349.3L622.4 319.9L628.3 329.7L634.3 319.9L640.2 300.3L646.1 284L652.1 254.6L658 254.6L663.9 274.2L669.9 274.2L675.8 297.1L681.7 274.2L687.7 244.8L693.6 310.1" stroke="rgb(169, 32, 33)" stroke-opacity="0.7" stroke-width="0.5" fill="none" class="Colombia_2-border"></path><path stroke-linecap="round" d="M52.6 453.7L64.4 372.1L70.4 414.5L76.3 417.8L82.2 417.8L88.2 443.9L94.1 414.5L100 372.1L106 414.5L111.9 460.2L117.9 391.7L123.8 450.4L129.7 483.1L135.7 473.3L141.6 427.6L147.5 499.4L153.5 470L159.4 424.3L165.3 443.9L171.3 417.8L177.2 424.3L183.1 417.8L189.1 424.3L195 421.1L201 453.7L206.9 421.1L212.8 434.1L218.8 421.1L224.7 450.4L230.6 440.7L236.6 427.6L242.5 411.3L248.4 434.1L254.4 421.1L260.3 443.9L266.2 434.1L272.2 457L278.1 466.8L284.1 447.2L290 440.7L295.9 437.4L301.9 417.8L307.8 427.6L313.7 440.7L319.7 414.5L325.6 365.6L331.5 372.1L337.5 368.9L343.4 346L349.3 349.3L355.3 368.9L361.2 391.7L367.1 395L373.1 365.6L379 342.7L385 365.6L390.9 381.9L396.8 381.9L402.8 362.3L408.7 365.6L414.6 310.1L420.6 319.9L426.5 300.3L432.4 274.2L438.4 271L444.3 254.6L450.2 290.5L456.2 290.5L462.1 280.7L468.1 251.4L474 254.6L479.9 293.8L485.9 238.3L491.8 310.1L497.7 290.5L503.7 306.9L509.6 300.3L515.5 339.5L521.5 306.9L527.4 277.5L533.3 261.2L539.3 251.4L545.2 195.9L551.2 208.9L557.1 271L563 205.7L569 189.4L574.9 150.2L580.8 137.1L586.8 137.1L592.7 160L598.6 137.1L604.6 160L610.5 179.6L616.4 215.5L622.4 166.5L628.3 182.8L634.3 166.5L640.2 143.7L646.1 120.8L652.1 78.4L658 81.7L663.9 98L669.9 114.3L675.8 133.9L681.7 104.5L687.7 81.7L693.6 117.6" stroke="rgb(213, 178, 52)" stroke-opacity="0.7" stroke-width="0.5" fill="none" class="Colombia_1-border"></path><path stroke-linecap="round" d="M52.6 395L64.4 342.7L70.4 381.9L76.3 381.9L82.2 391.7L88.2 411.3L94.1 381.9L100 336.2L106 375.4L111.9 424.3L117.9 319.9L123.8 391.7L129.7 437.4L135.7 443.9L141.6 398.2L147.5 470L153.5 437.4L159.4 391.7L165.3 414.5L171.3 388.4L177.2 398.2L183.1 404.8L189.1 417.8L195 411.3L201 440.7L206.9 404.8L212.8 417.8L218.8 401.5L224.7 437.4L230.6 424.3L236.6 411.3L242.5 391.7L248.4 414.5L254.4 398.2L260.3 408L266.2 378.6L272.2 414.5L278.1 434.1L284.1 414.5L290 408L295.9 381.9L301.9 359.1L307.8 385.2L313.7 404.8L319.7 381.9L325.6 329.7L331.5 339.5L337.5 352.5L343.4 342.7L349.3 342.7L355.3 362.3L361.2 385.2L367.1 395L373.1 365.6L379 339.5L385 365.6L390.9 381.9L396.8 381.9L402.8 362.3L408.7 365.6L414.6 310.1L420.6 319.9L426.5 300.3L432.4 274.2L438.4 271L444.3 254.6L450.2 290.5L456.2 290.5L462.1 280.7L468.1 251.4L474 254.6L479.9 293.8L485.9 238.3L491.8 310.1L497.7 290.5L503.7 306.9L509.6 300.3L515.5 339.5L521.5 306.9L527.4 277.5L533.3 261.2L539.3 251.4L545.2 195.9L551.2 208.9L557.1 271L563 205.7L569 189.4L574.9 150.2L580.8 137.1L586.8 137.1L592.7 160L598.6 137.1L604.6 160L610.5 179.6L616.4 215.5L622.4 166.5L628.3 182.8L634.3 166.5L640.2 143.7L646.1 120.8L652.1 78.4L658 81.7L663.9 98L669.9 114.3L675.8 133.9L681.7 104.5L687.7 81.7L693.6 117.6" stroke="rgb(44, 127, 53)" stroke-opacity="0.7" stroke-width="0.5" fill="none" class="Colombia_0-border"></path></g></g></g><g style="fill: #777;" class="SourcesFooter"><g style="fill: #777;" class="clickable"><text font-size="12.60" x="15.0" y="581.6"><tspan x="15" y="581.58">Source: Arroyo-Abad and Lindert (2016)</tspan></text></g><text font-size="12.60" x="597.6" y="581.6"><tspan x="597.616" y="581.58"><a target='_blank' style='fill: #777;' href='https://ourworldindata.org/taxation/'>OurWorldInData.org/taxation/</a> • <a style="fill: #777;" href="http://creativecommons.org/licenses/by-sa/4.0/deed.en_US" target="_blank">CC BY-SA</a></tspan></text></g></g></svg>