<svg xmlns="http://www.w3.org/2000/svg" version="1.1" style="font-family:&#x27;Helvetica Neue&#x27;, Helvetica, Arial, sans-serif;font-size:18px;background-color:white;text-rendering:optimizeLegibility;-webkit-font-smoothing:antialiased" width="850" height="600"><g class="ChartTab"><g class="HeaderView"><g opacity="0.8" transform="translate(778, 15) scale(0.27)"><a xmlns:xlink="http://www.w3.org/1999/xlink" xlink:href="https://ourworldindata.org" target="_blank"><g><rect x="0" y="0" fill="#1B2543" width="211.2" height="130.1"/><rect x="0" y="112.2" fill="#E63912" width="211.2" height="17.9"/><g><rect x="1.2" y="12.3" fill="none" width="210.2" height="99.2"/><path fill="#FFFFFF" d="M37.8,32.2c0,12.7-7.7,19.4-17.1,19.4c-9.7,0-16.6-7.5-16.6-18.7c0-11.7,7.3-19.3,17.1-19.3 C31.3,13.7,37.8,21.3,37.8,32.2z M9.2,32.8c0,7.9,4.3,14.9,11.8,14.9c7.5,0,11.8-6.9,11.8-15.3c0-7.3-3.8-14.9-11.8-14.9 C13.1,17.5,9.2,24.8,9.2,32.8z"/><path fill="#FFFFFF" d="M62.7,43.8c0,2.7,0.1,5.1,0.2,7.2h-4.3l-0.3-4.3h-0.1c-1.3,2.1-4,4.9-8.8,4.9c-4.2,0-9.1-2.3-9.1-11.6 V24.6h4.8v14.6c0,5,1.5,8.4,5.9,8.4c3.2,0,5.5-2.2,6.3-4.4c0.3-0.7,0.4-1.6,0.4-2.5V24.6h4.8V43.8z"/><path fill="#FFFFFF" d="M67.3,32.8c0-3.1-0.1-5.8-0.2-8.2h4.2l0.2,5.2h0.2c1.2-3.5,4.1-5.8,7.3-5.8c0.5,0,0.9,0.1,1.4,0.2v4.5 c-0.5-0.1-1-0.2-1.6-0.2c-3.4,0-5.8,2.6-6.5,6.2c-0.1,0.7-0.2,1.4-0.2,2.2V51h-4.8V32.8z"/><path fill="#FFFFFF" d="M95.4,51l-9.4-36.8h5l4.4,18.6c1.1,4.6,2.1,9.2,2.7,12.7h0.1c0.6-3.7,1.8-8,3-12.8l4.9-18.5h5l4.5,18.7 c1,4.4,2,8.7,2.6,12.6h0.1c0.8-4,1.8-8.1,3-12.7l4.9-18.5h4.9L120.6,51h-5L111,31.9c-1.1-4.7-1.9-8.3-2.4-12h-0.1 c-0.7,3.7-1.5,7.3-2.8,12L100.4,51H95.4z"/><path fill="#FFFFFF" d="M154.9,37.6c0,9.8-6.8,14-13.2,14c-7.2,0-12.7-5.2-12.7-13.6c0-8.8,5.8-14,13.1-14 C149.8,24,154.9,29.5,154.9,37.6z M133.9,37.9c0,5.8,3.3,10.1,8,10.1c4.6,0,8-4.3,8-10.3c0-4.5-2.2-10.1-7.9-10.1 C136.3,27.6,133.9,32.8,133.9,37.9z"/><path fill="#FFFFFF" d="M158.2,32.8c0-3.1-0.1-5.8-0.2-8.2h4.2l0.2,5.2h0.2c1.2-3.5,4.1-5.8,7.3-5.8c0.5,0,0.9,0.1,1.4,0.2v4.5 c-0.5-0.1-1-0.2-1.6-0.2c-3.4,0-5.8,2.6-6.5,6.2c-0.1,0.7-0.2,1.4-0.2,2.2V51h-4.8V32.8z"/><path fill="#FFFFFF" d="M173.5,12.3h4.8V51h-4.8V12.3z"/><path fill="#FFFFFF" d="M206.5,12.3v31.9c0,2.3,0.1,5,0.2,6.8h-4.3l-0.2-4.6H202c-1.5,2.9-4.7,5.2-9,5.2 c-6.4,0-11.3-5.4-11.3-13.4c-0.1-8.8,5.4-14.2,11.9-14.2c4,0,6.8,1.9,8,4h0.1V12.3H206.5z M201.7,35.4c0-0.6-0.1-1.4-0.2-2 c-0.7-3.1-3.3-5.6-6.9-5.6c-5,0-7.9,4.4-7.9,10.2c0,5.3,2.6,9.8,7.8,9.8c3.2,0,6.2-2.1,7.1-5.7c0.2-0.7,0.2-1.3,0.2-2.1V35.4z"/><path fill="#FFFFFF" d="M42.8,64c0.1,1.6-1.1,2.9-3.1,2.9c-1.7,0-2.9-1.3-2.9-2.9c0-1.7,1.3-3,3-3C41.7,61,42.8,62.3,42.8,64z M37.4,97.8V71.4h4.8v26.4H37.4z"/><path fill="#FFFFFF" d="M47.5,78.6c0-2.7-0.1-5-0.2-7.1h4.3l0.3,4.4h0.1c1.3-2.5,4.4-5,8.8-5c3.7,0,9.4,2.2,9.4,11.2v15.8h-4.8 V82.6c0-4.3-1.6-7.8-6.1-7.8c-3.2,0-5.6,2.2-6.5,4.9c-0.2,0.6-0.3,1.4-0.3,2.2v15.9h-4.8V78.6z"/><path fill="#FFFFFF" d="M84,61.6c2.9-0.4,6.3-0.8,10.1-0.8c6.8,0,11.7,1.6,14.9,4.6c3.3,3,5.2,7.3,5.2,13.2c0,6-1.9,10.9-5.3,14.3 c-3.4,3.4-9.1,5.3-16.3,5.3c-3.4,0-6.2-0.2-8.6-0.4V61.6z M88.8,94.1c1.2,0.2,3,0.3,4.8,0.3c10.2,0,15.7-5.7,15.7-15.6 c0.1-8.7-4.9-14.2-14.9-14.2c-2.5,0-4.3,0.2-5.6,0.5V94.1z"/><path fill="#FFFFFF" d="M132.1,97.8l-0.4-3.3h-0.2c-1.5,2.1-4.3,3.9-8.1,3.9c-5.4,0-8.1-3.8-8.1-7.6c0-6.4,5.7-9.9,15.9-9.8v-0.5 c0-2.2-0.6-6.1-6-6.1c-2.5,0-5,0.8-6.9,2l-1.1-3.2c2.2-1.4,5.4-2.3,8.7-2.3c8.1,0,10.1,5.5,10.1,10.8v9.9c0,2.3,0.1,4.5,0.4,6.3 H132.1z M131.4,84.4c-5.3-0.1-11.2,0.8-11.2,5.9c0,3.1,2.1,4.6,4.5,4.6c3.4,0,5.6-2.2,6.4-4.4c0.2-0.5,0.3-1,0.3-1.5V84.4z"/><path fill="#FFFFFF" d="M146.6,63.9v7.6h6.9v3.7h-6.9v14.2c0,3.3,0.9,5.1,3.6,5.1c1.3,0,2.2-0.2,2.8-0.3l0.2,3.6 c-0.9,0.4-2.4,0.7-4.3,0.7c-2.2,0-4-0.7-5.2-2c-1.4-1.4-1.9-3.8-1.9-6.9V75.1h-4.1v-3.7h4.1v-6.3L146.6,63.9z"/><path fill="#FFFFFF" d="M171.4,97.8l-0.4-3.3h-0.2c-1.5,2.1-4.3,3.9-8.1,3.9c-5.4,0-8.1-3.8-8.1-7.6c0-6.4,5.7-9.9,15.9-9.8v-0.5 c0-2.2-0.6-6.1-6-6.1c-2.5,0-5,0.8-6.9,2l-1.1-3.2c2.2-1.4,5.4-2.3,8.7-2.3c8.1,0,10.1,5.5,10.1,10.8v9.9c0,2.3,0.1,4.5,0.4,6.3 H171.4z M170.7,84.4c-5.3-0.1-11.2,0.8-11.2,5.9c0,3.1,2.1,4.6,4.5,4.6c3.4,0,5.6-2.2,6.4-4.4c0.2-0.5,0.3-1,0.3-1.5V84.4z"/></g></g></a></g><a href="https://ourworldindata.org/grapher/the-share-of-people-living-in-extreme-poverty-vs-gdp-per-capita" target="_blank"><text font-size="21.60" x="15.0" y="32.3" fill="#555"><tspan x="15" y="32.279999999999994">The share of people living in extreme poverty vs GDP per capita, 2017</tspan></text></a><text font-size="14.40" x="15.0" y="50.1" fill="#666"><tspan x="15" y="50.11999999999999">Both measures are adjusted for inflation over time and for price differences between countries (PPP adjustment) and</tspan><tspan x="15" y="65.96">are expressed in &#x27;international dollars&#x27;. Extreme poverty is defined as living with less than 1.90$ per day.</tspan></text></g><g><g class="AxisBoxView"><g class="HorizontalAxis"><text font-size="12.60" x="238.5" y="554.0"><tspan x="238.49599999999998" y="553.98">GDP per capita (in 2011 international dollars)</tspan></text><text x="75.2" y="533.9" fill="#666" text-anchor="middle" font-size="16.2">$500</text><text x="159.8" y="533.9" fill="#666" text-anchor="middle" font-size="16.2">$1,000</text><text x="441" y="533.9" fill="#666" text-anchor="middle" font-size="16.2">$10,000</text><text x="715" y="551.5" style="font-size:12px;text-transform:uppercase;cursor:pointer" class="clickable"><tspan style="font-family:FontAwesome"></tspan> log</text></g><g class="VerticalAxis"><text font-size="12.60" x="-459.3" y="25.1" transform="rotate(-90)"><tspan x="-459.336" y="25.080000000000002">Share living in extreme poverty (&lt; 1.90$ per day)</tspan></text><text x="70.16" y="512.7" fill="#666" dominant-baseline="middle" text-anchor="end" font-size="16.2">0%</text><text x="70.16" y="458" fill="#666" dominant-baseline="middle" text-anchor="end" font-size="16.2">10%</text><text x="70.16" y="403.4" fill="#666" dominant-baseline="middle" text-anchor="end" font-size="16.2">20%</text><text x="70.16" y="348.7" fill="#666" dominant-baseline="middle" text-anchor="end" font-size="16.2">30%</text><text x="70.16" y="294" fill="#666" dominant-baseline="middle" text-anchor="end" font-size="16.2">40%</text><text x="70.16" y="239.4" fill="#666" dominant-baseline="middle" text-anchor="end" font-size="16.2">50%</text><text x="70.16" y="184.7" fill="#666" dominant-baseline="middle" text-anchor="end" font-size="16.2">60%</text><text x="70.16" y="130" fill="#666" dominant-baseline="middle" text-anchor="end" font-size="16.2">70%</text></g><g class="AxisGridLines"><line x1="75.16" y1="512.7" x2="715.00" y2="512.7" stroke="#ccc"></line><line x1="75.16" y1="458" x2="715.00" y2="458" stroke="#ddd" stroke-dasharray="3,2"></line><line x1="75.16" y1="403.4" x2="715.00" y2="403.4" stroke="#ddd" stroke-dasharray="3,2"></line><line x1="75.16" y1="348.7" x2="715.00" y2="348.7" stroke="#ddd" stroke-dasharray="3,2"></line><line x1="75.16" y1="294" x2="715.00" y2="294" stroke="#ddd" stroke-dasharray="3,2"></line><line x1="75.16" y1="239.4" x2="715.00" y2="239.4" stroke="#ddd" stroke-dasharray="3,2"></line><line x1="75.16" y1="184.7" x2="715.00" y2="184.7" stroke="#ddd" stroke-dasharray="3,2"></line><line x1="75.16" y1="130" x2="715.00" y2="130" stroke="#ddd" stroke-dasharray="3,2"></line></g><g class="AxisGridLines"><line x1="159.8" y1="512.70" x2="159.8" y2="88.50" stroke="#ddd" stroke-dasharray="3,2"></line><line x1="441" y1="512.70" x2="441" y2="88.50" stroke="#ddd" stroke-dasharray="3,2"></line></g></g><g class="PointsWithLabels clickable" clip-path="url(#scatterBounds-81)" font-family="Arial Narrow, Arial, sans-serif"><rect x="75.162" y="88.5" width="639.838" height="424.2" fill="rgba(255,255,255,0)"></rect><defs><clipPath id="scatterBounds-81"><rect x="65.162" y="78.5" width="659.838" height="444.2"></rect></clipPath></defs><g class="key-China_0"><circle cx="493.00" cy="508.00" r="17.84" fill="#d14e5b" opacity="0.8" stroke="#333" stroke-width="0.7"></circle></g><g class="key-United-States_0"><circle cx="647.00" cy="506.00" r="8.78" fill="#4d824b" opacity="0.8" stroke="#333" stroke-width="0.7"></circle></g><g class="key-Indonesia_0"><circle cx="454.00" cy="481.00" r="7.78" fill="#d14e5b" opacity="0.8" stroke="#333" stroke-width="0.7"></circle></g><g class="key-Brazil_0"><circle cx="483.00" cy="494.00" r="7.04" fill="#69c487" opacity="0.8" stroke="#fff" stroke-width="0.7"></circle></g><g class="key-Pakistan_0"><circle cx="357.00" cy="490.00" r="6.76" fill="#d14e5b" opacity="0.8" stroke="#333" stroke-width="0.7"></circle></g><g class="key-Bangladesh_0"><circle cx="313.00" cy="431.00" r="6.24" fill="#d14e5b" opacity="0.8" stroke="#333" stroke-width="0.7"></circle></g><g class="key-Russia_0"><circle cx="551.00" cy="512.00" r="6.02" fill="#ffd336" opacity="0.8" stroke="#fff" stroke-width="0.7"></circle></g><g class="key-Mexico_0"><circle cx="508.00" cy="499.00" r="5.51" fill="#4d824b" opacity="0.8" stroke="#fff" stroke-width="0.7"></circle></g><g class="key-Vietnam_0"><circle cx="382.00" cy="501.00" r="4.92" fill="#d14e5b" opacity="0.8" stroke="#333" stroke-width="0.7"></circle></g><g class="key-Ethiopia_0"><circle cx="226.00" cy="366.00" r="4.86" fill="#5675c1" opacity="0.8" stroke="#333" stroke-width="0.7"></circle></g><g class="key-Egypt_0"><circle cx="447.00" cy="505.00" r="4.79" fill="#5675c1" opacity="0.8" stroke="#333" stroke-width="0.7"></circle></g><g class="key-Germany_0"><circle cx="625.00" cy="512.00" r="4.71" fill="#ffd336" opacity="0.8" stroke="#fff" stroke-width="0.7"></circle></g><g class="key-Iran_0"><circle cx="519.00" cy="511.00" r="4.57" fill="#d14e5b" opacity="0.8" stroke="#333" stroke-width="0.7"></circle></g><g class="key-Turkey_0"><circle cx="553.00" cy="511.00" r="4.54" fill="#d14e5b" opacity="0.8" stroke="#fff" stroke-width="0.7"></circle></g><g class="key-Democratic-Republic-of-Congo_0"><circle cx="133.00" cy="91.00" r="4.44" fill="#5675c1" opacity="0.8" stroke="#333" stroke-width="0.7"></circle></g><g class="key-Thailand_0"><circle cx="500.00" cy="512.00" r="4.41" fill="#d14e5b" opacity="0.8" stroke="#fff" stroke-width="0.7"></circle></g><g class="key-France_0"><circle cx="606.00" cy="512.00" r="4.24" fill="#ffd336" opacity="0.8" stroke="#fff" stroke-width="0.7"></circle></g><g class="key-United-Kingdom_0"><circle cx="609.00" cy="511.00" r="4.22" fill="#ffd336" opacity="0.8" stroke="#fff" stroke-width="0.7"></circle></g><g class="key-Italy_0"><circle cx="594.00" cy="501.00" r="4.16" fill="#ffd336" opacity="0.8" stroke="#fff" stroke-width="0.7"></circle></g><g class="key-South-Africa_0"><circle cx="466.00" cy="409.00" r="3.87" fill="#5675c1" opacity="0.8" stroke="#333" stroke-width="0.7"></circle></g><g class="key-Myanmar_0"><circle cx="370.00" cy="477.00" r="3.82" fill="#d14e5b" opacity="0.8" stroke="#fff" stroke-width="0.7"></circle></g><g class="key-South-Korea_0"><circle cx="597.00" cy="511.00" r="3.81" fill="#d14e5b" opacity="0.8" stroke="#fff" stroke-width="0.7"></circle></g><g class="key-Colombia_0"><circle cx="475.00" cy="488.00" r="3.79" fill="#69c487" opacity="0.8" stroke="#fff" stroke-width="0.7"></circle></g><g class="key-Spain_0"><circle cx="591.00" cy="507.00" r="3.75" fill="#ffd336" opacity="0.8" stroke="#fff" stroke-width="0.7"></circle></g><g class="key-Ukraine_0"><circle cx="412.00" cy="512.00" r="3.68" fill="#ffd336" opacity="0.8" stroke="#fff" stroke-width="0.7"></circle></g><g class="key-Kenya_0"><circle cx="293.00" cy="311.00" r="3.66" fill="#5675c1" opacity="0.8" stroke="#333" stroke-width="0.7"></circle></g><g class="key-Argentina_0"><circle cx="519.00" cy="509.00" r="3.58" fill="#69c487" opacity="0.8" stroke="#fff" stroke-width="0.7"></circle></g><g class="key-Uganda_0"><circle cx="224.00" cy="285.00" r="3.42" fill="#5675c1" opacity="0.8" stroke="#333" stroke-width="0.7"></circle></g><g class="key-Canada_0"><circle cx="622.00" cy="510.00" r="3.36" fill="#4d824b" opacity="0.8" stroke="#fff" stroke-width="0.7"></circle></g><g class="key-Iraq_0"><circle cx="495.00" cy="499.00" r="3.35" fill="#d14e5b" opacity="0.8" stroke="#fff" stroke-width="0.7"></circle></g><g class="key-Morocco_0"><circle cx="405.00" cy="507.00" r="3.29" fill="#5675c1" opacity="0.8" stroke="#fff" stroke-width="0.7"></circle></g><g class="key-Peru_0"><circle cx="465.00" cy="493.00" r="3.19" fill="#69c487" opacity="0.8" stroke="#fff" stroke-width="0.7"></circle></g><g class="key-Malaysia_0"><circle cx="561.00" cy="512.00" r="3.18" fill="#d14e5b" opacity="0.8" stroke="#333" stroke-width="0.7"></circle></g><g class="key-Ghana_0"><circle cx="335.00" cy="447.00" r="3.04" fill="#5675c1" opacity="0.8" stroke="#333" stroke-width="0.7"></circle></g><g class="key-Mozambique_0"><circle cx="175.00" cy="168.00" r="3.00" fill="#5675c1" opacity="0.8" stroke="#333" stroke-width="0.7"></circle></g><g class="key-Madagascar_0"><circle cx="202.00" cy="88.00" r="2.90" fill="#5675c1" opacity="0.8" stroke="#fff" stroke-width="0.7"></circle></g><g class="key-Sri-Lanka_0"><circle cx="459.00" cy="508.00" r="2.85" fill="#d14e5b" opacity="0.8" stroke="#fff" stroke-width="0.7"></circle></g><g class="key-Romania_0"><circle cx="544.00" cy="481.00" r="2.85" fill="#ffd336" opacity="0.8" stroke="#333" stroke-width="0.7"></circle></g><g class="key-Cote-d__0027Ivoire_0"><circle cx="316.00" cy="358.00" r="2.84" fill="#5675c1" opacity="0.8" stroke="#333" stroke-width="0.7"></circle></g><g class="key-Cameroon_0"><circle cx="308.00" cy="382.00" r="2.83" fill="#5675c1" opacity="0.8" stroke="#333" stroke-width="0.7"></circle></g><g class="key-Burkina-Faso_0"><circle cx="224.00" cy="273.00" r="2.71" fill="#5675c1" opacity="0.8" stroke="#333" stroke-width="0.7"></circle></g><g class="key-Chile_0"><circle cx="541.00" cy="505.00" r="2.69" fill="#69c487" opacity="0.8" stroke="#fff" stroke-width="0.7"></circle></g><g class="key-Niger_0"><circle cx="150.00" cy="269.00" r="2.68" fill="#5675c1" opacity="0.8" stroke="#333" stroke-width="0.7"></circle></g><g class="key-Netherlands_0"><circle cx="633.00" cy="512.00" r="2.66" fill="#ffd336" opacity="0.8" stroke="#333" stroke-width="0.7"></circle></g><g class="key-Kazakhstan_0"><circle cx="548.00" cy="512.00" r="2.65" fill="#d14e5b" opacity="0.8" stroke="#fff" stroke-width="0.7"></circle></g><g class="key-Guatemala_0"><circle cx="404.00" cy="465.00" r="2.60" fill="#4d824b" opacity="0.8" stroke="#fff" stroke-width="0.7"></circle></g><g class="key-Ecuador_0"><circle cx="447.00" cy="493.00" r="2.58" fill="#69c487" opacity="0.8" stroke="#fff" stroke-width="0.7"></circle></g><g class="key-Zambia_0"><circle cx="319.00" cy="198.00" r="2.55" fill="#5675c1" opacity="0.8" stroke="#333" stroke-width="0.7"></circle></g><g class="key-Rwanda_0"><circle cx="235.00" cy="206.00" r="2.42" fill="#5675c1" opacity="0.8" stroke="#333" stroke-width="0.7"></circle></g><g class="key-Greece_0"><circle cx="550.00" cy="504.00" r="2.42" fill="#ffd336" opacity="0.8" stroke="#fff" stroke-width="0.7"></circle></g><g class="key-Belgium_0"><circle cx="618.00" cy="512.00" r="2.38" fill="#ffd336" opacity="0.8" stroke="#fff" stroke-width="0.7"></circle></g><g class="key-Guinea_0"><circle cx="244.00" cy="319.00" r="2.38" fill="#5675c1" opacity="0.8" stroke="#333" stroke-width="0.7"></circle></g><g class="key-Portugal_0"><circle cx="566.00" cy="510.00" r="2.38" fill="#ffd336" opacity="0.8" stroke="#fff" stroke-width="0.7"></circle></g><g class="key-Czech-Republic_0"><circle cx="585.00" cy="512.00" r="2.37" fill="#ffd336" opacity="0.8" stroke="#fff" stroke-width="0.7"></circle></g><g class="key-Bolivia_0"><circle cx="395.00" cy="473.00" r="2.37" fill="#69c487" opacity="0.8" stroke="#333" stroke-width="0.7"></circle></g><g class="key-Haiti_0"><circle cx="221.00" cy="384.00" r="2.36" fill="#4d824b" opacity="0.8" stroke="#333" stroke-width="0.7"></circle></g><g class="key-Dominican-Republic_0"><circle cx="487.00" cy="504.00" r="2.36" fill="#4d824b" opacity="0.8" stroke="#fff" stroke-width="0.7"></circle></g><g class="key-Hungary_0"><circle cx="561.00" cy="510.00" r="2.34" fill="#ffd336" opacity="0.8" stroke="#fff" stroke-width="0.7"></circle></g><g class="key-Benin_0"><circle cx="248.00" cy="241.00" r="2.33" fill="#5675c1" opacity="0.8" stroke="#333" stroke-width="0.7"></circle></g><g class="key-Sweden_0"><circle cx="629.00" cy="510.00" r="2.32" fill="#ffd336" opacity="0.8" stroke="#fff" stroke-width="0.7"></circle></g><g class="key-Belarus_0"><circle cx="507.00" cy="512.00" r="2.32" fill="#ffd336" opacity="0.8" stroke="#fff" stroke-width="0.7"></circle></g><g class="key-Burundi_0"><circle cx="116.00" cy="120.00" r="2.29" fill="#5675c1" opacity="0.8" stroke="#333" stroke-width="0.7"></circle></g><g class="key-Austria_0"><circle cx="625.00" cy="508.00" r="2.27" fill="#ffd336" opacity="0.8" stroke="#fff" stroke-width="0.7"></circle></g><g class="key-Honduras_0"><circle cx="344.00" cy="425.00" r="2.25" fill="#4d824b" opacity="0.8" stroke="#fff" stroke-width="0.7"></circle></g><g class="key-Israel_0"><circle cx="587.00" cy="510.00" r="2.23" fill="#d14e5b" opacity="0.8" stroke="#fff" stroke-width="0.7"></circle></g><g class="key-Switzerland_0"><circle cx="654.00" cy="512.00" r="2.23" fill="#ffd336" opacity="0.8" stroke="#fff" stroke-width="0.7"></circle></g><g class="key-Bulgaria_0"><circle cx="516.00" cy="504.00" r="2.21" fill="#ffd336" opacity="0.8" stroke="#fff" stroke-width="0.7"></circle></g><g class="key-Tajikistan_0"><circle cx="289.00" cy="486.00" r="2.20" fill="#d14e5b" opacity="0.8" stroke="#333" stroke-width="0.7"></circle></g><g class="key-Paraguay_0"><circle cx="425.00" cy="503.00" r="2.18" fill="#69c487" opacity="0.8" stroke="#fff" stroke-width="0.7"></circle></g><g class="key-Laos_0"><circle cx="386.00" cy="388.00" r="2.16" fill="#d14e5b" opacity="0.8" stroke="#333" stroke-width="0.7"></circle></g><g class="key-Togo_0"><circle cx="203.00" cy="243.00" r="2.16" fill="#5675c1" opacity="0.8" stroke="#333" stroke-width="0.7"></circle></g><g class="key-El-Salvador_0"><circle cx="402.00" cy="500.00" r="2.15" fill="#4d824b" opacity="0.8" stroke="#fff" stroke-width="0.7"></circle></g><g class="key-Nicaragua_0"><circle cx="364.00" cy="495.00" r="2.14" fill="#4d824b" opacity="0.8" stroke="#fff" stroke-width="0.7"></circle></g><g class="key-Denmark_0"><circle cx="629.00" cy="511.00" r="2.12" fill="#ffd336" opacity="0.8" stroke="#fff" stroke-width="0.7"></circle></g><g class="key-Kyrgyzstan_0"><circle cx="309.00" cy="505.00" r="2.11" fill="#d14e5b" opacity="0.8" stroke="#333" stroke-width="0.7"></circle></g><g class="key-Slovakia_0"><circle cx="575.00" cy="508.00" r="2.11" fill="#ffd336" opacity="0.8" stroke="#fff" stroke-width="0.7"></circle></g><g class="key-Finland_0"><circle cx="612.00" cy="512.00" r="2.11" fill="#ffd336" opacity="0.8" stroke="#fff" stroke-width="0.7"></circle></g><g class="key-Norway_0"><circle cx="669.00" cy="511.00" r="2.08" fill="#ffd336" opacity="0.8" stroke="#fff" stroke-width="0.7"></circle></g><g class="key-Costa-Rica_0"><circle cx="494.00" cy="505.00" r="2.08" fill="#4d824b" opacity="0.8" stroke="#fff" stroke-width="0.7"></circle></g><g class="key-Ireland_0"><circle cx="673.00" cy="511.00" r="2.06" fill="#ffd336" opacity="0.8" stroke="#fff" stroke-width="0.7"></circle></g><g class="key-Croatia_0"><circle cx="541.00" cy="508.00" r="2.05" fill="#ffd336" opacity="0.8" stroke="#fff" stroke-width="0.7"></circle></g><g class="key-Liberia_0"><circle cx="125.00" cy="301.00" r="2.05" fill="#5675c1" opacity="0.8" stroke="#333" stroke-width="0.7"></circle></g><g class="key-Georgia_0"><circle cx="437.00" cy="489.00" r="2.04" fill="#d14e5b" opacity="0.8" stroke="#333" stroke-width="0.7"></circle></g><g class="key-Bosnia-and-Herzegovina_0"><circle cx="460.00" cy="511.00" r="2.01" fill="#ffd336" opacity="0.8" stroke="#fff" stroke-width="0.7"></circle></g><g class="key-Mauritania_0"><circle cx="316.00" cy="479.00" r="2.01" fill="#5675c1" opacity="0.8" stroke="#fff" stroke-width="0.7"></circle></g><g class="key-Panama_0"><circle cx="538.00" cy="500.00" r="2.01" fill="#4d824b" opacity="0.8" stroke="#fff" stroke-width="0.7"></circle></g><g class="key-Moldova_0"><circle cx="360.00" cy="511.00" r="2.00" fill="#ffd336" opacity="0.8" stroke="#fff" stroke-width="0.7"></circle></g><g class="key-Uruguay_0"><circle cx="529.00" cy="512.00" r="1.99" fill="#69c487" opacity="0.8" stroke="#fff" stroke-width="0.7"></circle></g><g class="key-Lithuania_0"><circle cx="573.00" cy="508.00" r="1.99" fill="#ffd336" opacity="0.8" stroke="#fff" stroke-width="0.7"></circle></g><g class="key-Albania_0"><circle cx="461.00" cy="506.00" r="1.98" fill="#ffd336" opacity="0.8" stroke="#fff" stroke-width="0.7"></circle></g><g class="key-Armenia_0"><circle cx="425.00" cy="502.00" r="1.98" fill="#d14e5b" opacity="0.8" stroke="#fff" stroke-width="0.7"></circle></g><g class="key-Mongolia_0"><circle cx="461.00" cy="510.00" r="1.96" fill="#d14e5b" opacity="0.8" stroke="#fff" stroke-width="0.7"></circle></g><g class="key-Namibia_0"><circle cx="435.00" cy="439.00" r="1.93" fill="#5675c1" opacity="0.8" stroke="#333" stroke-width="0.7"></circle></g><g class="key-Latvia_0"><circle cx="553.00" cy="508.00" r="1.92" fill="#ffd336" opacity="0.8" stroke="#fff" stroke-width="0.7"></circle></g><g class="key-Macedonia_0"><circle cx="474.00" cy="485.00" r="1.91" fill="#ffd336" opacity="0.8" stroke="#fff" stroke-width="0.7"></circle></g><g class="key-Slovenia_0"><circle cx="580.00" cy="512.00" r="1.91" fill="#ffd336" opacity="0.8" stroke="#fff" stroke-width="0.7"></circle></g><g class="key-Gambia_0"><circle cx="214.00" cy="457.00" r="1.90" fill="#5675c1" opacity="0.8" stroke="#333" stroke-width="0.7"></circle></g><g class="key-Gabon_0"><circle cx="502.00" cy="494.00" r="1.88" fill="#5675c1" opacity="0.8" stroke="#fff" stroke-width="0.7"></circle></g><g class="key-Estonia_0"><circle cx="573.00" cy="510.00" r="1.87" fill="#ffd336" opacity="0.8" stroke="#fff" stroke-width="0.7"></circle></g><g class="key-Mauritius_0"><circle cx="527.00" cy="510.00" r="1.87" fill="#5675c1" opacity="0.8" stroke="#fff" stroke-width="0.7"></circle></g><g class="key-Cyprus_0"><circle cx="584.00" cy="512.00" r="1.86" fill="#ffd336" opacity="0.8" stroke="#fff" stroke-width="0.7"></circle></g><g class="key-Fiji_0"><circle cx="424.00" cy="505.00" r="1.84" fill="#a652ba" opacity="0.8" stroke="#333" stroke-width="0.7"></circle></g><g class="key-Comoros_0"><circle cx="202.00" cy="413.00" r="1.83" fill="#5675c1" opacity="0.8" stroke="#333" stroke-width="0.7"></circle></g><g class="key-Bhutan_0"><circle cx="424.00" cy="504.00" r="1.83" fill="#d14e5b" opacity="0.8" stroke="#fff" stroke-width="0.7"></circle></g><g class="key-Montenegro_0"><circle cx="501.00" cy="512.00" r="1.82" fill="#ffd336" opacity="0.8" stroke="#fff" stroke-width="0.7"></circle></g><g class="key-Solomon-Islands_0"><circle cx="256.00" cy="375.00" r="1.82" fill="#a652ba" opacity="0.8" stroke="#fff" stroke-width="0.7"></circle></g><g class="key-Luxembourg_0"><circle cx="715.00" cy="511.00" r="1.82" fill="#ffd336" opacity="0.8" stroke="#fff" stroke-width="0.7"></circle></g><g class="key-Malta_0"><circle cx="599.00" cy="512.00" r="1.81" fill="#ffd336" opacity="0.8" stroke="#fff" stroke-width="0.7"></circle></g><g class="key-Iceland_0"><circle cx="628.00" cy="512.00" r="1.80" fill="#ffd336" opacity="0.8" stroke="#fff" stroke-width="0.7"></circle></g><g class="key-Seychelles_0"><circle cx="559.00" cy="506.00" r="1.79" fill="#5675c1" opacity="0.8" stroke="#fff" stroke-width="0.7"></circle></g><g class="key-East-Asia-__0026-Pacific_0"><circle cx="502.00" cy="500.00" r="1.78" fill="#000" opacity="0.8" stroke="#fff" stroke-width="0.7"></circle></g><g class="key-Europe-__0026-Central-Asia_0"><circle cx="574.00" cy="504.00" r="1.78" fill="#000" opacity="0.8" stroke="#fff" stroke-width="0.7"></circle></g><g class="key-Fragile-and-conflict-affected-situations_0"><circle cx="329.00" cy="320.00" r="1.78" fill="#000" opacity="0.8" stroke="#333" stroke-width="0.7"></circle></g><g class="key-High-income_0"><circle cx="619.00" cy="508.00" r="1.78" fill="#000" opacity="0.8" stroke="#fff" stroke-width="0.7"></circle></g><g class="key-IDA-total_0"><circle cx="310.00" cy="344.00" r="1.78" fill="#000" opacity="0.8" stroke="#333" stroke-width="0.7"></circle></g><g class="key-Latin-America-__0026-Caribbean_0"><circle cx="486.00" cy="490.00" r="1.78" fill="#000" opacity="0.8" stroke="#fff" stroke-width="0.7"></circle></g><g class="key-Low-__0026-middle-income_0"><circle cx="441.00" cy="447.00" r="1.78" fill="#000" opacity="0.8" stroke="#fff" stroke-width="0.7"></circle></g><g class="key-Low-income_0"><circle cx="237.00" cy="272.00" r="1.78" fill="#000" opacity="0.8" stroke="#fff" stroke-width="0.7"></circle></g><g class="key-Lower-middle-income_0"><circle cx="389.00" cy="436.00" r="1.78" fill="#000" opacity="0.8" stroke="#fff" stroke-width="0.7"></circle></g><g class="key-Middle-East-__0026-North-Africa_0"><circle cx="513.00" cy="485.00" r="1.78" fill="#000" opacity="0.8" stroke="#fff" stroke-width="0.7"></circle></g><g class="key-South-Asia_0"><circle cx="376.00" cy="424.00" r="1.78" fill="#000" opacity="0.8" stroke="#333" stroke-width="0.7"></circle></g><g class="key-Sub__002dSaharan-Africa_0"><circle cx="311.00" cy="288.00" r="1.78" fill="#000" opacity="0.8" stroke="#333" stroke-width="0.7"></circle></g><g class="key-Upper-middle-income_0"><circle cx="500.00" cy="503.00" r="1.78" fill="#000" opacity="0.8" stroke="#fff" stroke-width="0.7"></circle></g><g class="key-World_0"><circle cx="494.00" cy="458.00" r="1.78" fill="#000" opacity="0.8" stroke="#333" stroke-width="0.7"></circle></g><g class="key-Micronesia-__0028country__0029_0"><circle cx="305.00" cy="425.00" r="1.78" fill="#a652ba" opacity="0.8" stroke="#fff" stroke-width="0.7"></circle></g><g class="key-Yemen_0"><circle cx="207.00" cy="409.00" r="1.78" fill="#d14e5b" opacity="0.8" stroke="#fff" stroke-width="0.7"></circle></g><g class="key-Palestine_0"><circle cx="342.00" cy="507.00" r="1.78" fill="#d14e5b" opacity="0.8" stroke="#fff" stroke-width="0.7"></circle></g><g class="key-Kosovo_0"><circle cx="438.00" cy="509.00" r="1.78" fill="#ffd336" opacity="0.8" stroke="#fff" stroke-width="0.7"></circle></g><g class="key-Timor_0"><circle cx="389.00" cy="347.00" r="1.78" fill="#d14e5b" opacity="0.8" stroke="#333" stroke-width="0.7"></circle></g><g class="backgroundLabels" fill="#333"><text x="493.00" y="489.16" font-size="14.30">China</text><text x="576.01" y="496.22" font-size="11.77">United States</text><text x="454.00" y="472.22" font-size="11.60">Indonesia</text><text x="357.00" y="482.24" font-size="11.44">Pakistan</text><text x="313.00" y="423.76" font-size="11.37">Bangladesh</text><text x="382.00" y="495.08" font-size="11.22">Vietnam</text><text x="226.00" y="360.14" font-size="11.21">Ethiopia</text><text x="447.00" y="499.21" font-size="11.21">Egypt</text><text x="519.00" y="505.43" font-size="11.19">Iran</text><text x="133.00" y="99.67" font-size="11.17">Democratic Republic of Congo</text><text x="466.00" y="404.13" font-size="11.12">South Africa</text><text x="293.00" y="306.34" font-size="11.11">Kenya</text><text x="224.00" y="280.58" font-size="11.09">Uganda</text><text x="561.00" y="507.82" font-size="11.07">Malaysia</text><text x="335.00" y="442.96" font-size="11.06">Ghana</text><text x="175.00" y="164.00" font-size="11.06">Mozambique</text><text x="544.00" y="477.15" font-size="11.05">Romania</text><text x="316.00" y="354.16" font-size="11.05">Cote d&#x27;Ivoire</text><text x="308.00" y="378.17" font-size="11.05">Cameroon</text><text x="224.00" y="269.29" font-size="11.04">Burkina Faso</text><text x="150.00" y="265.32" font-size="11.04">Niger</text><text x="633.00" y="508.34" font-size="11.04">Netherlands</text><text x="319.00" y="194.45" font-size="11.03">Zambia</text><text x="235.00" y="202.58" font-size="11.03">Rwanda</text><text x="244.00" y="315.62" font-size="11.03">Guinea</text><text x="395.00" y="469.63" font-size="11.03">Bolivia</text><text x="221.00" y="380.64" font-size="11.03">Haiti</text><text x="248.00" y="237.67" font-size="11.02">Benin</text><text x="116.00" y="116.71" font-size="11.02">Burundi</text><text x="289.00" y="482.80" font-size="11.02">Tajikistan</text><text x="386.00" y="384.84" font-size="11.02">Laos</text><text x="203.00" y="239.84" font-size="11.02">Togo</text><text x="309.00" y="501.89" font-size="11.01">Kyrgyzstan</text><text x="125.00" y="297.95" font-size="11.01">Liberia</text><text x="437.00" y="485.96" font-size="11.01">Georgia</text><text x="435.00" y="436.07" font-size="11.01">Namibia</text><text x="214.00" y="454.10" font-size="11.00">Gambia</text><text x="424.00" y="502.16" font-size="11.00">Fiji</text><text x="202.00" y="410.17" font-size="11.00">Comoros</text><text x="329.00" y="317.22" font-size="11.00">Fragile and conflict affected situations</text><text x="310.00" y="341.22" font-size="11.00">IDA total</text><text x="376.00" y="421.22" font-size="11.00">South Asia</text><text x="311.00" y="285.22" font-size="11.00">Sub-Saharan Africa</text><text x="494.00" y="455.22" font-size="11.00">World</text><text x="389.00" y="344.22" font-size="11.00">Timor</text></g></g><g class="ScatterColorLegend clickable" style="cursor:pointer"><g class="legendMark"><rect x="735" y="86" width="43.256" height="17.6" fill="#fff" opacity="0"></rect>,<rect x="735" y="91.5" width="6" height="6" fill="#5675c1"></rect>,<text font-size="12.60" x="746.0" y="98.6"><tspan x="746" y="98.58">Africa</tspan></text></g><g class="legendMark"><rect x="735" y="103.6" width="35.57" height="17.6" fill="#fff" opacity="0"></rect>,<rect x="735" y="109.1" width="6" height="6" fill="#d14e5b"></rect>,<text font-size="12.60" x="746.0" y="116.2"><tspan x="746" y="116.17999999999999">Asia</tspan></text></g><g class="legendMark"><rect x="735" y="121.2" width="51.824" height="17.6" fill="#fff" opacity="0"></rect>,<rect x="735" y="126.7" width="6" height="6" fill="#ffd336"></rect>,<text font-size="12.60" x="746.0" y="133.8"><tspan x="746" y="133.78">Europe</tspan></text></g><g class="legendMark"><rect x="735" y="138.8" width="91.64" height="17.6" fill="#fff" opacity="0"></rect>,<rect x="735" y="144.3" width="6" height="6" fill="#4d824b"></rect>,<text font-size="12.60" x="746.0" y="151.4"><tspan x="746" y="151.38">North America</tspan></text></g><g class="legendMark"><rect x="735" y="156.4" width="58.124" height="17.6" fill="#fff" opacity="0"></rect>,<rect x="735" y="161.9" width="6" height="6" fill="#a652ba"></rect>,<text font-size="12.60" x="746.0" y="169.0"><tspan x="746" y="168.98">Oceania</tspan></text></g><g class="legendMark"><rect x="735" y="174" width="93.908" height="17.6" fill="#fff" opacity="0"></rect>,<rect x="735" y="179.5" width="6" height="6" fill="#69c487"></rect>,<text font-size="12.60" x="746.0" y="186.6"><tspan x="746" y="186.57999999999998">South America</tspan></text></g></g></g><g class="SourcesFooter" style="fill:#777"><g class="clickable" style="fill:#777"><text font-size="12.60" x="15.0" y="581.6"><tspan x="15" y="581.58">Source: World Bank - WDI</tspan></text></g><text font-size="12.60" x="550.7" y="581.6"><tspan x="550.7439999999999" y="581.58"><a target='_blank' style='fill: #777;' href='https://ourworldindata.org/extreme-poverty/'>OurWorldInData.org/extreme-poverty/</a> • <a style="fill: #777;" class="cclogo" href="http://creativecommons.org/licenses/by-sa/4.0/deed.en_US" target="_blank">CC BY-SA</a></tspan></text></g></g></svg>