<svg xmlns="http://www.w3.org/2000/svg" version="1.1" style="font-family: 'Helvetica Neue', Helvetica, Arial, sans-serif; font-size: 18px; background-color: white; text-rendering: optimizeLegibility; -webkit-font-smoothing: antialiased;" width="850" height="600"><g class="ChartTab"><g class="HeaderView"><g opacity="0.8" transform="translate(770, 15) scale(0.31)"><a xmlns:xlink="http://www.w3.org/1999/xlink" xlink:href="https://ourworldindata.org" target="_blank"><g><rect x="0" y="0" fill="#1B2543" width="211.2" height="130.1"/><rect x="0" y="112.2" fill="#E63912" width="211.2" height="17.9"/><g><rect x="1.2" y="12.3" fill="none" width="210.2" height="99.2"/><path fill="#FFFFFF" d="M37.8,32.2c0,12.7-7.7,19.4-17.1,19.4c-9.7,0-16.6-7.5-16.6-18.7c0-11.7,7.3-19.3,17.1-19.3 C31.3,13.7,37.8,21.3,37.8,32.2z M9.2,32.8c0,7.9,4.3,14.9,11.8,14.9c7.5,0,11.8-6.9,11.8-15.3c0-7.3-3.8-14.9-11.8-14.9 C13.1,17.5,9.2,24.8,9.2,32.8z"/><path fill="#FFFFFF" d="M62.7,43.8c0,2.7,0.1,5.1,0.2,7.2h-4.3l-0.3-4.3h-0.1c-1.3,2.1-4,4.9-8.8,4.9c-4.2,0-9.1-2.3-9.1-11.6 V24.6h4.8v14.6c0,5,1.5,8.4,5.9,8.4c3.2,0,5.5-2.2,6.3-4.4c0.3-0.7,0.4-1.6,0.4-2.5V24.6h4.8V43.8z"/><path fill="#FFFFFF" d="M67.3,32.8c0-3.1-0.1-5.8-0.2-8.2h4.2l0.2,5.2h0.2c1.2-3.5,4.1-5.8,7.3-5.8c0.5,0,0.9,0.1,1.4,0.2v4.5 c-0.5-0.1-1-0.2-1.6-0.2c-3.4,0-5.8,2.6-6.5,6.2c-0.1,0.7-0.2,1.4-0.2,2.2V51h-4.8V32.8z"/><path fill="#FFFFFF" d="M95.4,51l-9.4-36.8h5l4.4,18.6c1.1,4.6,2.1,9.2,2.7,12.7h0.1c0.6-3.7,1.8-8,3-12.8l4.9-18.5h5l4.5,18.7 c1,4.4,2,8.7,2.6,12.6h0.1c0.8-4,1.8-8.1,3-12.7l4.9-18.5h4.9L120.6,51h-5L111,31.9c-1.1-4.7-1.9-8.3-2.4-12h-0.1 c-0.7,3.7-1.5,7.3-2.8,12L100.4,51H95.4z"/><path fill="#FFFFFF" d="M154.9,37.6c0,9.8-6.8,14-13.2,14c-7.2,0-12.7-5.2-12.7-13.6c0-8.8,5.8-14,13.1-14 C149.8,24,154.9,29.5,154.9,37.6z M133.9,37.9c0,5.8,3.3,10.1,8,10.1c4.6,0,8-4.3,8-10.3c0-4.5-2.2-10.1-7.9-10.1 C136.3,27.6,133.9,32.8,133.9,37.9z"/><path fill="#FFFFFF" d="M158.2,32.8c0-3.1-0.1-5.8-0.2-8.2h4.2l0.2,5.2h0.2c1.2-3.5,4.1-5.8,7.3-5.8c0.5,0,0.9,0.1,1.4,0.2v4.5 c-0.5-0.1-1-0.2-1.6-0.2c-3.4,0-5.8,2.6-6.5,6.2c-0.1,0.7-0.2,1.4-0.2,2.2V51h-4.8V32.8z"/><path fill="#FFFFFF" d="M173.5,12.3h4.8V51h-4.8V12.3z"/><path fill="#FFFFFF" d="M206.5,12.3v31.9c0,2.3,0.1,5,0.2,6.8h-4.3l-0.2-4.6H202c-1.5,2.9-4.7,5.2-9,5.2 c-6.4,0-11.3-5.4-11.3-13.4c-0.1-8.8,5.4-14.2,11.9-14.2c4,0,6.8,1.9,8,4h0.1V12.3H206.5z M201.7,35.4c0-0.6-0.1-1.4-0.2-2 c-0.7-3.1-3.3-5.6-6.9-5.6c-5,0-7.9,4.4-7.9,10.2c0,5.3,2.6,9.8,7.8,9.8c3.2,0,6.2-2.1,7.1-5.7c0.2-0.7,0.2-1.3,0.2-2.1V35.4z"/><path fill="#FFFFFF" d="M42.8,64c0.1,1.6-1.1,2.9-3.1,2.9c-1.7,0-2.9-1.3-2.9-2.9c0-1.7,1.3-3,3-3C41.7,61,42.8,62.3,42.8,64z M37.4,97.8V71.4h4.8v26.4H37.4z"/><path fill="#FFFFFF" d="M47.5,78.6c0-2.7-0.1-5-0.2-7.1h4.3l0.3,4.4h0.1c1.3-2.5,4.4-5,8.8-5c3.7,0,9.4,2.2,9.4,11.2v15.8h-4.8 V82.6c0-4.3-1.6-7.8-6.1-7.8c-3.2,0-5.6,2.2-6.5,4.9c-0.2,0.6-0.3,1.4-0.3,2.2v15.9h-4.8V78.6z"/><path fill="#FFFFFF" d="M84,61.6c2.9-0.4,6.3-0.8,10.1-0.8c6.8,0,11.7,1.6,14.9,4.6c3.3,3,5.2,7.3,5.2,13.2c0,6-1.9,10.9-5.3,14.3 c-3.4,3.4-9.1,5.3-16.3,5.3c-3.4,0-6.2-0.2-8.6-0.4V61.6z M88.8,94.1c1.2,0.2,3,0.3,4.8,0.3c10.2,0,15.7-5.7,15.7-15.6 c0.1-8.7-4.9-14.2-14.9-14.2c-2.5,0-4.3,0.2-5.6,0.5V94.1z"/><path fill="#FFFFFF" d="M132.1,97.8l-0.4-3.3h-0.2c-1.5,2.1-4.3,3.9-8.1,3.9c-5.4,0-8.1-3.8-8.1-7.6c0-6.4,5.7-9.9,15.9-9.8v-0.5 c0-2.2-0.6-6.1-6-6.1c-2.5,0-5,0.8-6.9,2l-1.1-3.2c2.2-1.4,5.4-2.3,8.7-2.3c8.1,0,10.1,5.5,10.1,10.8v9.9c0,2.3,0.1,4.5,0.4,6.3 H132.1z M131.4,84.4c-5.3-0.1-11.2,0.8-11.2,5.9c0,3.1,2.1,4.6,4.5,4.6c3.4,0,5.6-2.2,6.4-4.4c0.2-0.5,0.3-1,0.3-1.5V84.4z"/><path fill="#FFFFFF" d="M146.6,63.9v7.6h6.9v3.7h-6.9v14.2c0,3.3,0.9,5.1,3.6,5.1c1.3,0,2.2-0.2,2.8-0.3l0.2,3.6 c-0.9,0.4-2.4,0.7-4.3,0.7c-2.2,0-4-0.7-5.2-2c-1.4-1.4-1.9-3.8-1.9-6.9V75.1h-4.1v-3.7h4.1v-6.3L146.6,63.9z"/><path fill="#FFFFFF" d="M171.4,97.8l-0.4-3.3h-0.2c-1.5,2.1-4.3,3.9-8.1,3.9c-5.4,0-8.1-3.8-8.1-7.6c0-6.4,5.7-9.9,15.9-9.8v-0.5 c0-2.2-0.6-6.1-6-6.1c-2.5,0-5,0.8-6.9,2l-1.1-3.2c2.2-1.4,5.4-2.3,8.7-2.3c8.1,0,10.1,5.5,10.1,10.8v9.9c0,2.3,0.1,4.5,0.4,6.3 H171.4z M170.7,84.4c-5.3-0.1-11.2,0.8-11.2,5.9c0,3.1,2.1,4.6,4.5,4.6c3.4,0,5.6-2.2,6.4-4.4c0.2-0.5,0.3-1,0.3-1.5V84.4z"/></g></g></a></g><a href="https://ourworldindata.org/grapher/health-burden-due-to-communicable-diseases-vs-gdp-per-capita?country=DZA+AGO+BEN+BWA+BFA+BDI+CMR+CPV+CAF+TCD+COM+COG+CIV+COD+DJI+EGY+GNQ+ETH+GAB+GMB+GHA+GNB+GIN+KEN+LSO+LBR+MDG+MWI+MLI+MRT+MUS+MAR+MOZ+NAM+NER+NGA+RWA+SEN+SLE+ZAF+SDN+SWZ+TZA+TGO+TUN+UGA+ZMB+ZWE" target="_blank"><text font-size="21.60" x="15.0" y="32.3" fill="#555"><tspan x="15" y="32.279999999999994">Health burden due to communicable diseases vs. GDP per capita, 2012</tspan></text></a><text font-size="14.40" x="15.0" y="50.1" fill="#666"><tspan x="15" y="50.11999999999999">The health burden of communicable diseases is measured by Disability Adjusted Life Years lost due to</tspan><tspan x="15" y="65.96">communicable diseases.</tspan></text></g><g><g class="AxisBoxView"><g class="HorizontalAxis"><text font-size="12.60" x="255.0" y="539.4"><tspan x="255.002" y="539.38">GDP per capita (in US$; PPP adjusted)</tspan></text><text x="132" y="519.3" fill="#666" text-anchor="middle" font-size="16.2">$1,000</text><text x="396.6" y="519.3" fill="#666" text-anchor="middle" font-size="16.2">$10,000</text><text x="661.1" y="519.3" fill="#666" text-anchor="middle" font-size="16.2">$100,000</text></g><g class="VerticalAxis"><text font-size="12.60" x="-474.8" y="25.1" transform="rotate(-90)"><tspan x="-474.779" y="25.080000000000002">DALYs lost (per 100,000) due to communicable diseases</tspan></text><text x="87.50" y="468" fill="#666" dominant-baseline="middle" text-anchor="end" font-size="16.2">1,000</text><text x="87.50" y="262.8" fill="#666" dominant-baseline="middle" text-anchor="end" font-size="16.2">10,000</text></g><g class="AxisGridLines"><line x1="92.50" y1="468" x2="715.00" y2="468" stroke="#ddd" stroke-dasharray="3,2"></line><line x1="92.50" y1="262.8" x2="715.00" y2="262.8" stroke="#ddd" stroke-dasharray="3,2"></line></g><g class="AxisGridLines"><line x1="132" y1="498.10" x2="132" y2="88.50" stroke="#ddd" stroke-dasharray="3,2"></line><line x1="396.6" y1="498.10" x2="396.6" y2="88.50" stroke="#ddd" stroke-dasharray="3,2"></line><line x1="661.1" y1="498.10" x2="661.1" y2="88.50" stroke="#ddd" stroke-dasharray="3,2"></line></g></g><g clip-path="url(#scatterBounds-592)" class="PointsWithLabels clickable"><rect x="92.49600000000001" y="88.5" width="622.504" height="409.59999999999997" fill="rgba(255,255,255,0)"></rect><defs><clipPath id="scatterBounds-592"><rect x="82.49600000000001" y="78.5" width="642.504" height="429.59999999999997"></rect></clipPath></defs><circle cx="406" cy="362" r="17.841241161527712" fill="#e2e2e2" opacity="0.8"></circle><circle cx="310" cy="221" r="17.208458564989762" fill="#e2e2e2" opacity="0.8"></circle><circle cx="583" cy="425" r="8.75537439985902" fill="#e2e2e2" opacity="0.8"></circle><circle cx="386" cy="266" r="7.753651378381193" fill="#e2e2e2" opacity="0.8"></circle><circle cx="441" cy="328" r="7.022321231356587" fill="#e2e2e2" opacity="0.8"></circle><circle cx="301" cy="204" r="6.710162721046754" fill="#e2e2e2" opacity="0.8"></circle><circle cx="245" cy="241" r="6.2139407882346305" fill="#e2e2e2" opacity="0.8"></circle><circle cx="495" cy="327" r="6.029354736081427" fill="#e2e2e2" opacity="0.8"></circle><circle cx="540" cy="450" r="5.70657527914884" fill="#e2e2e2" opacity="0.8"></circle><circle cx="447" cy="354" r="5.492674529117912" fill="#e2e2e2" opacity="0.8"></circle><circle cx="337" cy="259" r="5.058467148447569" fill="#e2e2e2" opacity="0.8"></circle><circle cx="315" cy="302" r="4.900857933921192" fill="#e2e2e2" opacity="0.8"></circle><circle cx="565" cy="457" r="4.7134154456517106" fill="#e2e2e2" opacity="0.8"></circle><circle cx="446" cy="335" r="4.553123071842024" fill="#e2e2e2" opacity="0.8"></circle><circle cx="466" cy="350" r="4.524830441372701" fill="#e2e2e2" opacity="0.8"></circle><circle cx="439" cy="311" r="4.404442211301271" fill="#e2e2e2" opacity="0.8"></circle><circle cx="549" cy="458" r="4.230942343068146" fill="#e2e2e2" opacity="0.8"></circle><circle cx="548" cy="438" r="4.2127505834634125" fill="#e2e2e2" opacity="0.8"></circle><circle cx="544" cy="466" r="4.161758327308842" fill="#e2e2e2" opacity="0.8"></circle><circle cx="306" cy="216" r="3.8039731818509672" fill="#e2e2e2" opacity="0.8"></circle><circle cx="533" cy="434" r="3.799806606251652" fill="#e2e2e2" opacity="0.8"></circle><circle cx="416" cy="331" r="3.7678802406242804" fill="#e2e2e2" opacity="0.8"></circle><circle cx="532" cy="454" r="3.7437288549751466" fill="#e2e2e2" opacity="0.8"></circle><circle cx="401" cy="325" r="3.6863372198664353" fill="#e2e2e2" opacity="0.8"></circle><circle cx="477" cy="351" r="3.563607560653569" fill="#e2e2e2" opacity="0.8"></circle><circle cx="495" cy="416" r="3.470861423470931" fill="#e2e2e2" opacity="0.8"></circle><circle cx="560" cy="443" r="3.3464537241441787" fill="#e2e2e2" opacity="0.8"></circle><circle cx="428" cy="295" r="3.3124774306952136" fill="#e2e2e2" opacity="0.8"></circle><circle cx="213" cy="233" r="3.2164720096136543" fill="#e2e2e2" opacity="0.8"></circle><circle cx="456" cy="341" r="3.1756570499926458" fill="#e2e2e2" opacity="0.8"></circle><circle cx="403" cy="309" r="3.169900909610953" fill="#e2e2e2" opacity="0.8"></circle><circle cx="486" cy="317" r="3.1547314627788214" fill="#e2e2e2" opacity="0.8"></circle><circle cx="586" cy="358" r="3.1318908860216386" fill="#e2e2e2" opacity="0.8"></circle><circle cx="360" cy="285" r="3.1084712141892945" fill="#e2e2e2" opacity="0.8"></circle><circle cx="564" cy="454" r="2.9088434519881115" fill="#e2e2e2" opacity="0.8"></circle><circle cx="471" cy="367" r="2.8468997114382404" fill="#e2e2e2" opacity="0.8"></circle><circle cx="382" cy="341" r="2.8401863227743567" fill="#e2e2e2" opacity="0.8"></circle><circle cx="312" cy="349" r="2.8358435975426395" fill="#e2e2e2" opacity="0.8"></circle><circle cx="482" cy="406" r="2.679879168834509" fill="#e2e2e2" opacity="0.8"></circle><circle cx="572" cy="456" r="2.6488989012490594" fill="#e2e2e2" opacity="0.8"></circle><circle cx="487" cy="330" r="2.6342252376591726" fill="#e2e2e2" opacity="0.8"></circle><circle cx="348" cy="255" r="2.5786704469497015" fill="#e2e2e2" opacity="0.8"></circle><circle cx="399" cy="306" r="2.566334100733701" fill="#e2e2e2" opacity="0.8"></circle><circle cx="248" cy="228" r="2.548732142550925" fill="#e2e2e2" opacity="0.8"></circle><circle cx="504" cy="457" r="2.4049212617842657" fill="#e2e2e2" opacity="0.8"></circle><circle cx="564" cy="454" r="2.3741729807172205" fill="#e2e2e2" opacity="0.8"></circle><circle cx="511" cy="428" r="2.369831354330153" fill="#e2e2e2" opacity="0.8"></circle><circle cx="520" cy="424" r="2.3632560505190106" fill="#e2e2e2" opacity="0.8"></circle><circle cx="178" cy="180" r="2.3479326921562467" fill="#e2e2e2" opacity="0.8"></circle><circle cx="335" cy="242" r="2.3475557087521954" fill="#e2e2e2" opacity="0.8"></circle><circle cx="413" cy="304" r="2.3443446313281107" fill="#e2e2e2" opacity="0.8"></circle><circle cx="494" cy="424" r="2.3327072686628796" fill="#e2e2e2" opacity="0.8"></circle><circle cx="424" cy="417" r="2.3275605432046773" fill="#e2e2e2" opacity="0.8"></circle><circle cx="472" cy="382" r="2.31154484311261" fill="#e2e2e2" opacity="0.8"></circle><circle cx="566" cy="475" r="2.309927206346808" fill="#e2e2e2" opacity="0.8"></circle><circle cx="454" cy="299" r="2.3061864233750144" fill="#e2e2e2" opacity="0.8"></circle><circle cx="572" cy="474" r="2.255534340311275" fill="#e2e2e2" opacity="0.8"></circle><circle cx="606" cy="383" r="2.2387976732619355" fill="#e2e2e2" opacity="0.8"></circle><circle cx="301" cy="287" r="2.2286945191457237" fill="#e2e2e2" opacity="0.8"></circle><circle cx="597" cy="471" r="2.2193595595697437" fill="#e2e2e2" opacity="0.8"></circle><circle cx="530" cy="450" r="2.217310678864668" fill="#e2e2e2" opacity="0.8"></circle><circle cx="452" cy="380" r="2.2016715560693574" fill="#e2e2e2" opacity="0.8"></circle><circle cx="245" cy="246" r="2.184731380138583" fill="#e2e2e2" opacity="0.8"></circle><circle cx="362" cy="316" r="2.1635356741703897" fill="#e2e2e2" opacity="0.8"></circle><circle cx="402" cy="340" r="2.1513568882032295" fill="#e2e2e2" opacity="0.8"></circle><circle cx="312" cy="203" r="2.1468428099496903" fill="#e2e2e2" opacity="0.8"></circle><circle cx="365" cy="314" r="2.140879730710352" fill="#e2e2e2" opacity="0.8"></circle><circle cx="295" cy="312" r="2.1239966492493747" fill="#e2e2e2" opacity="0.8"></circle><circle cx="566" cy="445" r="2.1040515735962013" fill="#e2e2e2" opacity="0.8"></circle><circle cx="509" cy="403" r="2.097822526758567" fill="#e2e2e2" opacity="0.8"></circle><circle cx="264" cy="304" r="2.0960321225853886" fill="#e2e2e2" opacity="0.8"></circle><circle cx="558" cy="490" r="2.093505622278653" fill="#e2e2e2" opacity="0.8"></circle><circle cx="624" cy="423" r="2.0853509326905146" fill="#e2e2e2" opacity="0.8"></circle><circle cx="460" cy="266" r="2.080509447811915" fill="#e2e2e2" opacity="0.8"></circle><circle cx="609" cy="468" r="2.0687707917815277" fill="#e2e2e2" opacity="0.8"></circle><circle cx="430" cy="384" r="2.0593647855994104" fill="#e2e2e2" opacity="0.8"></circle><circle cx="571" cy="467" r="2.047217792517124" fill="#e2e2e2" opacity="0.8"></circle><circle cx="531" cy="455" r="2.04048238000845" fill="#e2e2e2" opacity="0.8"></circle><circle cx="483" cy="433" r="2.0362625557620255" fill="#e2e2e2" opacity="0.8"></circle><circle cx="378" cy="338" r="2.031510686183181" fill="#e2e2e2" opacity="0.8"></circle><circle cx="442" cy="380" r="2.0307859365672467" fill="#e2e2e2" opacity="0.8"></circle><circle cx="389" cy="414" r="1.9991523690719704" fill="#e2e2e2" opacity="0.8"></circle><circle cx="460" cy="316" r="1.9921958487899523" fill="#e2e2e2" opacity="0.8"></circle><circle cx="300" cy="346" r="1.9860076274413148" fill="#e2e2e2" opacity="0.8"></circle><circle cx="468" cy="380" r="1.9784992528709597" fill="#e2e2e2" opacity="0.8"></circle><circle cx="500" cy="395" r="1.9726665344869607" fill="#e2e2e2" opacity="0.8"></circle><circle cx="396" cy="361" r="1.9688217755679187" fill="#e2e2e2" opacity="0.8"></circle><circle cx="373" cy="350" r="1.9618077329777663" fill="#e2e2e2" opacity="0.8"></circle><circle cx="570" cy="334" r="1.9496078035605113" fill="#e2e2e2" opacity="0.8"></circle><circle cx="632" cy="363" r="1.9488621541022861" fill="#e2e2e2" opacity="0.8"></circle><circle cx="394" cy="308" r="1.9460241181924312" fill="#e2e2e2" opacity="0.8"></circle><circle cx="363" cy="293" r="1.941067124047735" fill="#e2e2e2" opacity="0.8"></circle><circle cx="482" cy="380" r="1.909210847091131" fill="#e2e2e2" opacity="0.8"></circle><circle cx="413" cy="411" r="1.8989515409821645" fill="#e2e2e2" opacity="0.8"></circle><circle cx="517" cy="443" r="1.8973121398484876" fill="#e2e2e2" opacity="0.8"></circle><circle cx="715" cy="396" r="1.891085670301222" fill="#e2e2e2" opacity="0.8"></circle><circle cx="560" cy="374" r="1.8550802054321207" fill="#e2e2e2" opacity="0.8"></circle><circle cx="524" cy="319" r="1.8545475481928693" fill="#e2e2e2" opacity="0.8"></circle><circle cx="509" cy="406" r="1.8538419780845283" fill="#e2e2e2" opacity="0.8"></circle><circle cx="530" cy="498" r="1.840568641953153" fill="#e2e2e2" opacity="0.8"></circle><circle cx="361" cy="302" r="1.82447305413725" fill="#e2e2e2" opacity="0.8"></circle><circle cx="350" cy="248" r="1.8164546510506419" fill="#e2e2e2" opacity="0.8"></circle><circle cx="430" cy="412" r="1.8088984120171687" fill="#e2e2e2" opacity="0.8"></circle><circle cx="445" cy="307" r="1.8025397702999995" fill="#e2e2e2" opacity="0.8"></circle><circle cx="650" cy="476" r="1.8018412313137973" fill="#e2e2e2" opacity="0.8"></circle><circle cx="522" cy="448" r="1.7950990382147392" fill="#e2e2e2" opacity="0.8"></circle><circle cx="632" cy="397" r="1.7946890952863461" fill="#e2e2e2" opacity="0.8"></circle><circle cx="495" cy="284" r="1.7906874285467325" fill="#e2e2e2" opacity="0.8"></circle><circle cx="554" cy="491" r="1.7891923941007775" fill="#e2e2e2" opacity="0.8"></circle><circle cx="430" cy="349" r="1.788933587647038" fill="#e2e2e2" opacity="0.8"></circle><circle cx="369" cy="305" r="1.7889322209558782" fill="#e2e2e2" opacity="0.8"></circle><circle cx="441" cy="339" r="1.7856907456006494" fill="#e2e2e2" opacity="0.8"></circle><circle cx="273" cy="187" r="1.7677011975282866" fill="#e2e2e2" opacity="0.8"></circle><text x="310" y="202.79154143501023" font-size="14.067743730627589" font-family="Arial Narrow, Arial, sans-serif" fill="#aaa">India</text><text x="583" y="415.244625600141" font-size="11.76941250449094" font-family="Arial Narrow, Arial, sans-serif" fill="#aaa">United States</text><text x="386" y="257.24634862161884" font-size="11.596232511219796" font-family="Arial Narrow, Arial, sans-serif" fill="#aaa">Indonesia</text><text x="441" y="319.9776787686434" font-size="11.483071147716814" font-family="Arial Narrow, Arial, sans-serif" fill="#aaa">Brazil</text><text x="245" y="233.78605921176538" font-size="11.37102168668209" font-family="Arial Narrow, Arial, sans-serif" fill="#aaa">Bangladesh</text><text x="495" y="319.9706452639186" font-size="11.347355633733155" font-family="Arial Narrow, Arial, sans-serif" fill="#aaa">Russia</text><text x="540" y="443.29342472085114" font-size="11.307686564048364" font-family="Arial Narrow, Arial, sans-serif" fill="#aaa">Japan</text><text x="315" y="296.0991420660788" font-size="11.218186852194409" font-family="Arial Narrow, Arial, sans-serif" fill="#aaa">Vietnam</text><text x="544" y="460.8382416726912" font-size="11.148043715958437" font-family="Arial Narrow, Arial, sans-serif" fill="#aaa">Italy</text><text x="533" y="429.20019339374835" font-size="11.117866601820182" font-family="Arial Narrow, Arial, sans-serif" fill="#aaa">South Korea</text><text x="495" y="411.5291385765291" font-size="11.092821288769555" font-family="Arial Narrow, Arial, sans-serif" fill="#aaa">Poland</text><text x="213" y="228.78352799038635" font-size="11.075006501920319" font-family="Arial Narrow, Arial, sans-serif" fill="#aaa">Nepal</text><text x="586" y="353.86810911397833" font-size="11.069383557215708" font-family="Arial Narrow, Arial, sans-serif" fill="#aaa">Saudi Arabia</text><text x="471" y="363.15310028856175" font-size="11.051540331385409" font-family="Arial Narrow, Arial, sans-serif" fill="#aaa">Romania</text><text x="312" y="345.16415640245737" font-size="11.050882387036305" font-family="Arial Narrow, Arial, sans-serif" fill="#aaa">Syria</text><text x="572" y="452.3511010987509" font-size="11.040145014796337" font-family="Arial Narrow, Arial, sans-serif" fill="#aaa">Netherlands</text><text x="335" y="238.6524442912478" font-size="11.024377910173914" font-family="Arial Narrow, Arial, sans-serif" fill="#aaa">Bolivia</text><text x="424" y="413.6724394567953" font-size="11.023398992799482" font-family="Arial Narrow, Arial, sans-serif" fill="#aaa">Serbia</text><text x="472" y="378.6884551568874" font-size="11.022620940511572" font-family="Arial Narrow, Arial, sans-serif" fill="#aaa">Belarus</text><text x="566" y="471.6900727936532" font-size="11.022542653456265" font-family="Arial Narrow, Arial, sans-serif" fill="#aaa">Sweden</text><text x="606" y="379.76120232673804" font-size="11.019154459635697" font-family="Arial Narrow, Arial, sans-serif" fill="#aaa">United Arab Emirates</text><text x="301" y="283.77130548085427" font-size="11.018681799039927" font-family="Arial Narrow, Arial, sans-serif" fill="#aaa">Honduras</text><text x="295" y="308.87600335075064" font-size="11.013909536606077" font-family="Arial Narrow, Arial, sans-serif" fill="#aaa">Nicaragua</text><text x="509" y="399.9021774732414" font-size="11.012752358051014" font-family="Arial Narrow, Arial, sans-serif" fill="#aaa">Slovakia</text><text x="558" y="486.90649437772134" font-size="11.012562882699596" font-family="Arial Narrow, Arial, sans-serif" fill="#aaa">Finland</text><text x="460" y="262.9194905521881" font-size="11.01199481752755" font-family="Arial Narrow, Arial, sans-serif" fill="#aaa">Turkmenistan</text><text x="609" y="464.9312292082185" font-size="11.011484759293728" font-family="Arial Narrow, Arial, sans-serif" fill="#aaa">Norway</text><text x="483" y="429.96373744423795" font-size="11.010087301462832" font-family="Arial Narrow, Arial, sans-serif" fill="#aaa">Croatia</text><text x="396" y="358.0311782244321" font-size="11.007258757919029" font-family="Arial Narrow, Arial, sans-serif" fill="#aaa">Albania</text><text x="570" y="331.0503921964395" font-size="11.006470337582806" font-family="Arial Narrow, Arial, sans-serif" fill="#aaa">Oman</text><text x="363" y="290.0589328759523" font-size="11.00612236422846" font-family="Arial Narrow, Arial, sans-serif" fill="#aaa">Jamaica</text><text x="687.379667339064" y="393.1089143296988" font-size="11.004116597982485" font-family="Arial Narrow, Arial, sans-serif" fill="#aaa">Qatar</text><text x="560" y="371.1449197945679" font-size="11.002704112333678" font-family="Arial Narrow, Arial, sans-serif" fill="#aaa">Bahrain</text><text x="650" y="473.1981587686862" font-size="11.000665315612052" font-family="Arial Narrow, Arial, sans-serif" fill="#aaa">Luxembourg</text><text x="632" y="394.20531090471366" font-size="11.000395946304142" font-family="Arial Narrow, Arial, sans-serif" fill="#aaa">Brunei</text><text x="495" y="281.20931257145327" font-size="11.000245699824143" font-family="Arial Narrow, Arial, sans-serif" fill="#aaa">Bahamas</text><text x="273" y="184.2322988024717" font-size="10.99938915565589" font-family="Arial Narrow, Arial, sans-serif" fill="#aaa">Yemen</text><g><circle cx="329" cy="122" fill="none" stroke="#5675c1" r="8.47489926635394"></circle><circle cx="329" cy="122" fill="#5675c1" r="6.4748992663539395"></circle></g><g><circle cx="149" cy="170" fill="none" stroke="#5675c1" r="6.8244392128395015"></circle><circle cx="149" cy="170" fill="#5675c1" r="4.8244392128395015"></circle></g><g><circle cx="394" cy="316" fill="none" stroke="#5675c1" r="6.761766880591917"></circle><circle cx="394" cy="316" fill="#5675c1" r="4.761766880591917"></circle></g><g><circle cx="107" cy="111" fill="none" stroke="#5675c1" r="6.396061488235488"></circle><circle cx="107" cy="111" fill="#5675c1" r="4.396061488235488"></circle></g><g><circle cx="417" cy="151" fill="none" stroke="#5675c1" r="5.8651183604403645"></circle><circle cx="417" cy="151" fill="#5675c1" r="3.8651183604403645"></circle></g><g><circle cx="215" cy="158" fill="none" stroke="#5675c1" r="5.77114361212972"></circle><circle cx="215" cy="158" fill="#5675c1" r="3.7711436121297193"></circle></g><g><circle cx="243" cy="151" fill="none" stroke="#5675c1" r="5.616482264942075"></circle><circle cx="243" cy="151" fill="#5675c1" r="3.6164822649420745"></circle></g><g><circle cx="431" cy="308" fill="none" stroke="#5675c1" r="5.408881157799238"></circle><circle cx="431" cy="308" fill="#5675c1" r="3.4088811577992377"></circle></g><g><circle cx="197" cy="143" fill="none" stroke="#5675c1" r="5.379214509982541"></circle><circle cx="197" cy="143" fill="#5675c1" r="3.3792145099825412"></circle></g><g><circle cx="270" cy="174" fill="none" stroke="#5675c1" r="5.369381217284499"></circle><circle cx="270" cy="174" fill="#5675c1" r="3.3693812172844986"></circle></g><g><circle cx="352" cy="279" fill="none" stroke="#5675c1" r="5.273425897487028"></circle><circle cx="352" cy="279" fill="#5675c1" r="3.2734258974870287"></circle></g><g><circle cx="285" cy="173" fill="none" stroke="#5675c1" r="5.012162689611814"></circle><circle cx="285" cy="173" fill="#5675c1" r="3.012162689611814"></circle></g><g><circle cx="128" cy="111" fill="none" stroke="#5675c1" r="4.970488152866849"></circle><circle cx="128" cy="111" fill="#5675c1" r="2.9704881528668494"></circle></g><g><circle cx="148" cy="184" fill="none" stroke="#5675c1" r="4.868938781094341"></circle><circle cx="148" cy="184" fill="#5675c1" r="2.868938781094341"></circle></g><g><circle cx="257" cy="121" fill="none" stroke="#5675c1" r="4.81428697995333"></circle><circle cx="257" cy="121" fill="#5675c1" r="2.8142869799533305"></circle></g><g><circle cx="238" cy="134" fill="none" stroke="#5675c1" r="4.809083223172436"></circle><circle cx="238" cy="134" fill="#5675c1" r="2.8090832231724363"></circle></g><g><circle cx="365" cy="114" fill="none" stroke="#5675c1" r="4.796354312664072"></circle><circle cx="365" cy="114" fill="#5675c1" r="2.7963543126640724"></circle></g><g><circle cx="174" cy="152" fill="none" stroke="#5675c1" r="4.682431158347301"></circle><circle cx="174" cy="152" fill="#5675c1" r="2.6824311583473004"></circle></g><g><circle cx="111" cy="142" fill="none" stroke="#5675c1" r="4.645825348875"></circle><circle cx="111" cy="142" fill="#5675c1" r="2.6458253488750003"></circle></g><g><circle cx="173" cy="144" fill="none" stroke="#5675c1" r="4.631465903189607"></circle><circle cx="173" cy="144" fill="#5675c1" r="2.6314659031896075"></circle></g><g><circle cx="134" cy="135" fill="none" stroke="#5675c1" r="4.612100948284233"></circle><circle cx="134" cy="135" fill="#5675c1" r="2.6121009482842332"></circle></g><g><circle cx="276" cy="129" fill="none" stroke="#5675c1" r="4.521418247514157"></circle><circle cx="276" cy="129" fill="#5675c1" r="2.521418247514157"></circle></g><g><circle cx="216" cy="176" fill="none" stroke="#5675c1" r="4.485345957150532"></circle><circle cx="216" cy="176" fill="#5675c1" r="2.4853459571505323"></circle></g><g><circle cx="188" cy="131" fill="none" stroke="#5675c1" r="4.480926139884598"></circle><circle cx="188" cy="131" fill="#5675c1" r="2.4809261398845983"></circle></g><g><circle cx="202" cy="105" fill="none" stroke="#5675c1" r="4.424769929805015"></circle><circle cx="202" cy="105" fill="#5675c1" r="2.4247699298050143"></circle></g><g><circle cx="175" cy="188" fill="none" stroke="#5675c1" r="4.397789813605982"></circle><circle cx="175" cy="188" fill="#5675c1" r="2.397789813605982"></circle></g><g><circle cx="400" cy="344" fill="none" stroke="#5675c1" r="4.370107191118847"></circle><circle cx="400" cy="344" fill="#5675c1" r="2.370107191118847"></circle></g><g><circle cx="159" cy="141" fill="none" stroke="#5675c1" r="4.359066428017589"></circle><circle cx="159" cy="141" fill="#5675c1" r="2.359066428017589"></circle></g><g><circle cx="197" cy="160" fill="none" stroke="#5675c1" r="4.302680445628079"></circle><circle cx="197" cy="160" fill="#5675c1" r="2.302680445628079"></circle></g><g><circle cx="92" cy="137" fill="none" stroke="#5675c1" r="4.272016037765741"></circle><circle cx="92" cy="137" fill="#5675c1" r="2.2720160377657406"></circle></g><g><circle cx="151" cy="143" fill="none" stroke="#5675c1" r="4.141910722857965"></circle><circle cx="151" cy="143" fill="#5675c1" r="2.1419107228579644"></circle></g><g><circle cx="181" cy="88" fill="none" stroke="#5675c1" r="4.133379372661201"></circle><circle cx="181" cy="88" fill="#5675c1" r="2.1333793726612016"></circle></g><g><circle cx="122" cy="94" fill="none" stroke="#5675c1" r="4.046995306080072"></circle><circle cx="122" cy="94" fill="#5675c1" r="2.0469953060800723"></circle></g><g><circle cx="100" cy="159" fill="none" stroke="#5675c1" r="4.028087633275524"></circle><circle cx="100" cy="159" fill="#5675c1" r="2.0280876332755238"></circle></g><g><circle cx="320" cy="141" fill="none" stroke="#5675c1" r="4.027420406643019"></circle><circle cx="320" cy="141" fill="#5675c1" r="2.027420406643019"></circle></g><g><circle cx="256" cy="162" fill="none" stroke="#5675c1" r="3.9920772112639846"></circle><circle cx="256" cy="162" fill="#5675c1" r="1.9920772112639846"></circle></g><g><circle cx="392" cy="195" fill="none" stroke="#5675c1" r="3.9171134853334415"></circle><circle cx="392" cy="195" fill="#5675c1" r="1.9171134853334415"></circle></g><g><circle cx="229" cy="96" fill="none" stroke="#5675c1" r="3.908129843967255"></circle><circle cx="229" cy="96" fill="#5675c1" r="1.9081298439672547"></circle></g><g><circle cx="432" cy="159" fill="none" stroke="#5675c1" r="3.8981207314647786"></circle><circle cx="432" cy="159" fill="#5675c1" r="1.8981207314647786"></circle></g><g><circle cx="181" cy="162" fill="none" stroke="#5675c1" r="3.884055608367599"></circle><circle cx="181" cy="162" fill="#5675c1" r="1.8840556083675992"></circle></g><g><circle cx="158" cy="122" fill="none" stroke="#5675c1" r="3.868845543979165"></circle><circle cx="158" cy="122" fill="#5675c1" r="1.868845543979165"></circle></g><g><circle cx="448" cy="162" fill="none" stroke="#5675c1" r="3.867863537153376"></circle><circle cx="448" cy="162" fill="#5675c1" r="1.867863537153376"></circle></g><g><circle cx="454" cy="352" fill="none" stroke="#5675c1" r="3.8522109874204844"></circle><circle cx="454" cy="352" fill="#5675c1" r="1.8522109874204842"></circle></g><g><circle cx="376" cy="115" fill="none" stroke="#5675c1" r="3.846331110999136"></circle><circle cx="376" cy="115" fill="#5675c1" r="1.8463311109991358"></circle></g><g><circle cx="246" cy="155" fill="none" stroke="#5675c1" r="3.8274625311139157"></circle><circle cx="246" cy="155" fill="#5675c1" r="1.8274625311139157"></circle></g><g><circle cx="173" cy="178" fill="none" stroke="#5675c1" r="3.8179218860062325"></circle><circle cx="173" cy="178" fill="#5675c1" r="1.8179218860062325"></circle></g><g><circle cx="553" cy="132" fill="none" stroke="#5675c1" r="3.8158153884756683"></circle><circle cx="553" cy="132" fill="#5675c1" r="1.8158153884756685"></circle></g><g><circle cx="340" cy="279" fill="none" stroke="#5675c1" r="3.8006760526482792"></circle><circle cx="340" cy="279" fill="#5675c1" r="1.8006760526482792"></circle></g><text x="329" y="114.52510073364606" font-size="13.47946023792401" font-family="Arial Narrow, Arial, sans-serif" fill="#333">Nigeria</text><text x="149" y="164.1755607871605" font-size="13.24865943199069" font-family="Arial Narrow, Arial, sans-serif" fill="#333">Ethiopia</text><text x="394" y="310.2382331194081" font-size="13.241224073658543" font-family="Arial Narrow, Arial, sans-serif" fill="#333">Egypt</text><text x="107" y="105.60393851176451" font-size="13.199776114707342" font-family="Arial Narrow, Arial, sans-serif" fill="#333">Democratic Republic of Congo</text><text x="417" y="146.13488163955964" font-size="13.145492424161397" font-family="Arial Narrow, Arial, sans-serif" fill="#333">South Africa</text><text x="215" y="153.22885638787028" font-size="13.136611231826974" font-family="Arial Narrow, Arial, sans-serif" fill="#333">Tanzania</text><text x="431" y="303.5911188422008" font-size="13.104420670282177" font-family="Arial Narrow, Arial, sans-serif" fill="#333">Algeria</text><text x="197" y="138.62078549001745" font-size="13.101928396691568" font-family="Arial Narrow, Arial, sans-serif" fill="#333">Uganda</text><text x="270" y="169.6306187827155" font-size="13.10110711590221" font-family="Arial Narrow, Arial, sans-serif" fill="#333">Sudan</text><text x="352" y="274.726574102513" font-size="13.093218515008505" font-family="Arial Narrow, Arial, sans-serif" fill="#333">Morocco</text><text x="148" y="180.13106121890567" font-size="13.062470323617463" font-family="Arial Narrow, Arial, sans-serif" fill="#333">Madagascar</text><text x="111" y="138.354174651125" font-size="13.047242706640947" font-family="Arial Narrow, Arial, sans-serif" fill="#333">Niger</text><text x="173" y="140.36853409681038" font-size="13.046304868213431" font-family="Arial Narrow, Arial, sans-serif" fill="#333">Mali</text><text x="276" y="125.47858175248584" font-size="13.03928691515483" font-family="Arial Narrow, Arial, sans-serif" fill="#333">Zambia</text><text x="400" y="340.62989280888115" font-size="13.03012694064934" font-family="Arial Narrow, Arial, sans-serif" fill="#333">Tunisia</text><text x="100" y="155.97191236672447" font-size="13.011510155381627" font-family="Arial Narrow, Arial, sans-serif" fill="#333">Liberia</text><text x="320" y="137.97257959335698" font-size="13.011476666709708" font-family="Arial Narrow, Arial, sans-serif" fill="#333">Congo</text><text x="392" y="192.08288651466657" font-size="13.006091765495949" font-family="Arial Narrow, Arial, sans-serif" fill="#333">Namibia</text><text x="158" y="119.13115445602084" font-size="13.003830174995175" font-family="Arial Narrow, Arial, sans-serif" fill="#333">Guinea-Bissau</text><text x="454" y="349.1477890125795" font-size="13.003064125587452" font-family="Arial Narrow, Arial, sans-serif" fill="#333">Mauritius</text><text x="376" y="112.15366888900087" font-size="13.002794985710183" font-family="Arial Narrow, Arial, sans-serif" fill="#333">Swaziland</text><text x="553" y="129.18418461152433" font-size="13.00141193324189" font-family="Arial Narrow, Arial, sans-serif" fill="#333">Equatorial Guinea</text></g><g style="cursor: pointer;" class="ScatterColorLegend clickable"><g class="legendMark"><rect x="735" y="86" width="43.256" height="17.6" fill="#fff" opacity="0"></rect>,<rect x="735" y="91.5" width="6" height="6" fill="#5675c1"></rect>,<text font-size="12.60" x="746.0" y="98.6" style="font-weight: bold;"><tspan x="746" y="98.58">Africa</tspan></text></g><g fill="#ccc" class="legendMark"><rect x="735" y="103.6" width="35.57" height="17.6" fill="#fff" opacity="0"></rect>,<rect x="735" y="109.1" width="6" height="6"></rect>,<text font-size="12.60" x="746.0" y="116.2"><tspan x="746" y="116.17999999999999">Asia</tspan></text></g><g fill="#ccc" class="legendMark"><rect x="735" y="121.2" width="51.824" height="17.6" fill="#fff" opacity="0"></rect>,<rect x="735" y="126.7" width="6" height="6"></rect>,<text font-size="12.60" x="746.0" y="133.8"><tspan x="746" y="133.78">Europe</tspan></text></g><g fill="#ccc" class="legendMark"><rect x="735" y="138.8" width="91.64" height="17.6" fill="#fff" opacity="0"></rect>,<rect x="735" y="144.3" width="6" height="6"></rect>,<text font-size="12.60" x="746.0" y="151.4"><tspan x="746" y="151.38">North America</tspan></text></g><g fill="#ccc" class="legendMark"><rect x="735" y="156.4" width="58.124" height="17.6" fill="#fff" opacity="0"></rect>,<rect x="735" y="161.9" width="6" height="6"></rect>,<text font-size="12.60" x="746.0" y="169.0"><tspan x="746" y="168.98">Oceania</tspan></text></g><g fill="#ccc" class="legendMark"><rect x="735" y="174" width="93.908" height="17.6" fill="#fff" opacity="0"></rect>,<rect x="735" y="179.5" width="6" height="6"></rect>,<text font-size="12.60" x="746.0" y="186.6"><tspan x="746" y="186.57999999999998">South America</tspan></text></g></g></g><g style="fill: #777;" class="SourcesFooter"><g style="fill: #777;" class="clickable"><text font-size="12.60" x="15.0" y="567.0"><tspan x="15" y="566.98">Source: Penn World Table 9.0 (2016), Communicable Diseases – Disability Adjusted Life Years (per 100,000) - WHO (2015)</tspan></text></g><text font-size="12.60" x="15.0" y="582.5"><tspan x="15" y="582.48"><a target='_blank' style='fill: #777;' href='https://ourworldindata.org/burden-of-disease/'>OurWorldInData.org/burden-of-disease/</a> • <a style="fill: #777;" href="http://creativecommons.org/licenses/by-sa/4.0/deed.en_US" target="_blank">CC BY-SA</a></tspan></text></g></g></svg>