<svg xmlns="http://www.w3.org/2000/svg" version="1.1" style="font-family:&#x27;Helvetica Neue&#x27;, Helvetica, Arial, sans-serif;font-size:18px;background-color:white;text-rendering:optimizeLegibility;-webkit-font-smoothing:antialiased" width="850" height="600"><g class="ChartTab"><g class="HeaderView"><g opacity="0.8" transform="translate(778, 15) scale(0.27)"><a xmlns:xlink="http://www.w3.org/1999/xlink" xlink:href="https://ourworldindata.org" target="_blank"><g><rect x="0" y="0" fill="#1B2543" width="211.2" height="130.1"/><rect x="0" y="112.2" fill="#E63912" width="211.2" height="17.9"/><g><rect x="1.2" y="12.3" fill="none" width="210.2" height="99.2"/><path fill="#FFFFFF" d="M37.8,32.2c0,12.7-7.7,19.4-17.1,19.4c-9.7,0-16.6-7.5-16.6-18.7c0-11.7,7.3-19.3,17.1-19.3 C31.3,13.7,37.8,21.3,37.8,32.2z M9.2,32.8c0,7.9,4.3,14.9,11.8,14.9c7.5,0,11.8-6.9,11.8-15.3c0-7.3-3.8-14.9-11.8-14.9 C13.1,17.5,9.2,24.8,9.2,32.8z"/><path fill="#FFFFFF" d="M62.7,43.8c0,2.7,0.1,5.1,0.2,7.2h-4.3l-0.3-4.3h-0.1c-1.3,2.1-4,4.9-8.8,4.9c-4.2,0-9.1-2.3-9.1-11.6 V24.6h4.8v14.6c0,5,1.5,8.4,5.9,8.4c3.2,0,5.5-2.2,6.3-4.4c0.3-0.7,0.4-1.6,0.4-2.5V24.6h4.8V43.8z"/><path fill="#FFFFFF" d="M67.3,32.8c0-3.1-0.1-5.8-0.2-8.2h4.2l0.2,5.2h0.2c1.2-3.5,4.1-5.8,7.3-5.8c0.5,0,0.9,0.1,1.4,0.2v4.5 c-0.5-0.1-1-0.2-1.6-0.2c-3.4,0-5.8,2.6-6.5,6.2c-0.1,0.7-0.2,1.4-0.2,2.2V51h-4.8V32.8z"/><path fill="#FFFFFF" d="M95.4,51l-9.4-36.8h5l4.4,18.6c1.1,4.6,2.1,9.2,2.7,12.7h0.1c0.6-3.7,1.8-8,3-12.8l4.9-18.5h5l4.5,18.7 c1,4.4,2,8.7,2.6,12.6h0.1c0.8-4,1.8-8.1,3-12.7l4.9-18.5h4.9L120.6,51h-5L111,31.9c-1.1-4.7-1.9-8.3-2.4-12h-0.1 c-0.7,3.7-1.5,7.3-2.8,12L100.4,51H95.4z"/><path fill="#FFFFFF" d="M154.9,37.6c0,9.8-6.8,14-13.2,14c-7.2,0-12.7-5.2-12.7-13.6c0-8.8,5.8-14,13.1-14 C149.8,24,154.9,29.5,154.9,37.6z M133.9,37.9c0,5.8,3.3,10.1,8,10.1c4.6,0,8-4.3,8-10.3c0-4.5-2.2-10.1-7.9-10.1 C136.3,27.6,133.9,32.8,133.9,37.9z"/><path fill="#FFFFFF" d="M158.2,32.8c0-3.1-0.1-5.8-0.2-8.2h4.2l0.2,5.2h0.2c1.2-3.5,4.1-5.8,7.3-5.8c0.5,0,0.9,0.1,1.4,0.2v4.5 c-0.5-0.1-1-0.2-1.6-0.2c-3.4,0-5.8,2.6-6.5,6.2c-0.1,0.7-0.2,1.4-0.2,2.2V51h-4.8V32.8z"/><path fill="#FFFFFF" d="M173.5,12.3h4.8V51h-4.8V12.3z"/><path fill="#FFFFFF" d="M206.5,12.3v31.9c0,2.3,0.1,5,0.2,6.8h-4.3l-0.2-4.6H202c-1.5,2.9-4.7,5.2-9,5.2 c-6.4,0-11.3-5.4-11.3-13.4c-0.1-8.8,5.4-14.2,11.9-14.2c4,0,6.8,1.9,8,4h0.1V12.3H206.5z M201.7,35.4c0-0.6-0.1-1.4-0.2-2 c-0.7-3.1-3.3-5.6-6.9-5.6c-5,0-7.9,4.4-7.9,10.2c0,5.3,2.6,9.8,7.8,9.8c3.2,0,6.2-2.1,7.1-5.7c0.2-0.7,0.2-1.3,0.2-2.1V35.4z"/><path fill="#FFFFFF" d="M42.8,64c0.1,1.6-1.1,2.9-3.1,2.9c-1.7,0-2.9-1.3-2.9-2.9c0-1.7,1.3-3,3-3C41.7,61,42.8,62.3,42.8,64z M37.4,97.8V71.4h4.8v26.4H37.4z"/><path fill="#FFFFFF" d="M47.5,78.6c0-2.7-0.1-5-0.2-7.1h4.3l0.3,4.4h0.1c1.3-2.5,4.4-5,8.8-5c3.7,0,9.4,2.2,9.4,11.2v15.8h-4.8 V82.6c0-4.3-1.6-7.8-6.1-7.8c-3.2,0-5.6,2.2-6.5,4.9c-0.2,0.6-0.3,1.4-0.3,2.2v15.9h-4.8V78.6z"/><path fill="#FFFFFF" d="M84,61.6c2.9-0.4,6.3-0.8,10.1-0.8c6.8,0,11.7,1.6,14.9,4.6c3.3,3,5.2,7.3,5.2,13.2c0,6-1.9,10.9-5.3,14.3 c-3.4,3.4-9.1,5.3-16.3,5.3c-3.4,0-6.2-0.2-8.6-0.4V61.6z M88.8,94.1c1.2,0.2,3,0.3,4.8,0.3c10.2,0,15.7-5.7,15.7-15.6 c0.1-8.7-4.9-14.2-14.9-14.2c-2.5,0-4.3,0.2-5.6,0.5V94.1z"/><path fill="#FFFFFF" d="M132.1,97.8l-0.4-3.3h-0.2c-1.5,2.1-4.3,3.9-8.1,3.9c-5.4,0-8.1-3.8-8.1-7.6c0-6.4,5.7-9.9,15.9-9.8v-0.5 c0-2.2-0.6-6.1-6-6.1c-2.5,0-5,0.8-6.9,2l-1.1-3.2c2.2-1.4,5.4-2.3,8.7-2.3c8.1,0,10.1,5.5,10.1,10.8v9.9c0,2.3,0.1,4.5,0.4,6.3 H132.1z M131.4,84.4c-5.3-0.1-11.2,0.8-11.2,5.9c0,3.1,2.1,4.6,4.5,4.6c3.4,0,5.6-2.2,6.4-4.4c0.2-0.5,0.3-1,0.3-1.5V84.4z"/><path fill="#FFFFFF" d="M146.6,63.9v7.6h6.9v3.7h-6.9v14.2c0,3.3,0.9,5.1,3.6,5.1c1.3,0,2.2-0.2,2.8-0.3l0.2,3.6 c-0.9,0.4-2.4,0.7-4.3,0.7c-2.2,0-4-0.7-5.2-2c-1.4-1.4-1.9-3.8-1.9-6.9V75.1h-4.1v-3.7h4.1v-6.3L146.6,63.9z"/><path fill="#FFFFFF" d="M171.4,97.8l-0.4-3.3h-0.2c-1.5,2.1-4.3,3.9-8.1,3.9c-5.4,0-8.1-3.8-8.1-7.6c0-6.4,5.7-9.9,15.9-9.8v-0.5 c0-2.2-0.6-6.1-6-6.1c-2.5,0-5,0.8-6.9,2l-1.1-3.2c2.2-1.4,5.4-2.3,8.7-2.3c8.1,0,10.1,5.5,10.1,10.8v9.9c0,2.3,0.1,4.5,0.4,6.3 H171.4z M170.7,84.4c-5.3-0.1-11.2,0.8-11.2,5.9c0,3.1,2.1,4.6,4.5,4.6c3.4,0,5.6-2.2,6.4-4.4c0.2-0.5,0.3-1,0.3-1.5V84.4z"/></g></g></a></g><a href="https://ourworldindata.org/grapher/total-fertility-rate-by-development-level-including-UN-projections-through-2100" target="_blank"><text font-size="21.60" x="15.0" y="32.3" fill="#555"><tspan x="15" y="32.279999999999994">The total fertility rate by development level including the UN projections</tspan><tspan x="15" y="53.87999999999999">through 2100</tspan></text></a><text font-size="14.40" x="15.0" y="72.7" fill="#666"><tspan x="15" y="72.72">Total Fertility Rate is defined as the average number of children that would be born to a woman over her lifetime if the woman</tspan><tspan x="15" y="88.56">were to experience the exact current age-specific fertility rates, and the woman were to survive from birth to the end of her</tspan><tspan x="15" y="104.4">reproductive life. </tspan></text></g><g class="LineChart"><defs><clipPath id="boundsClip-24"><rect x="19.072000000000003" y="0" width="830" height="777.5999999999999"></rect></clipPath></defs><g class="AxisBoxView"><g class="HorizontalAxis"><text x="29.1" y="515.4" fill="#666" text-anchor="middle" font-size="16.2">1950</text><text x="140.3" y="515.4" fill="#666" text-anchor="middle" font-size="16.2">1980</text><text x="214.5" y="515.4" fill="#666" text-anchor="middle" font-size="16.2">2000</text><text x="288.6" y="515.4" fill="#666" text-anchor="middle" font-size="16.2">2020</text><text x="362.8" y="515.4" fill="#666" text-anchor="middle" font-size="16.2">2040</text><text x="437" y="515.4" fill="#666" text-anchor="middle" font-size="16.2">2060</text><text x="511.1" y="515.4" fill="#666" text-anchor="middle" font-size="16.2">2080</text><text x="581.6" y="515.4" fill="#666" text-anchor="middle" font-size="16.2">2099</text></g><g class="VerticalAxis"><text x="24.07" y="494.2" fill="#666" dominant-baseline="middle" text-anchor="end" font-size="16.2">0</text><text x="24.07" y="439.9" fill="#666" dominant-baseline="middle" text-anchor="end" font-size="16.2">1</text><text x="24.07" y="385.6" fill="#666" dominant-baseline="middle" text-anchor="end" font-size="16.2">2</text><text x="24.07" y="331.3" fill="#666" dominant-baseline="middle" text-anchor="end" font-size="16.2">3</text><text x="24.07" y="277" fill="#666" dominant-baseline="middle" text-anchor="end" font-size="16.2">4</text><text x="24.07" y="222.7" fill="#666" dominant-baseline="middle" text-anchor="end" font-size="16.2">5</text><text x="24.07" y="168.4" fill="#666" dominant-baseline="middle" text-anchor="end" font-size="16.2">6</text></g><g class="AxisGridLines"><line x1="29.07" y1="494.2" x2="581.57" y2="494.2" stroke="#ccc"></line><line x1="29.07" y1="439.9" x2="581.57" y2="439.9" stroke="#ddd" stroke-dasharray="3,2"></line><line x1="29.07" y1="385.6" x2="581.57" y2="385.6" stroke="#ddd" stroke-dasharray="3,2"></line><line x1="29.07" y1="331.3" x2="581.57" y2="331.3" stroke="#ddd" stroke-dasharray="3,2"></line><line x1="29.07" y1="277" x2="581.57" y2="277" stroke="#ddd" stroke-dasharray="3,2"></line><line x1="29.07" y1="222.7" x2="581.57" y2="222.7" stroke="#ddd" stroke-dasharray="3,2"></line><line x1="29.07" y1="168.4" x2="581.57" y2="168.4" stroke="#ddd" stroke-dasharray="3,2"></line></g></g><g clip-path="url(#boundsClip-24)"><g class="HeightedLegend clickable"><g class="legendMark"><g class="indicator"><line x1="586.5699999999999" y1="379.8" x2="609.0699999999999" y2="379.8" stroke="#666" stroke-width="0.5"></line><line x1="609.0699999999999" y1="379.8" x2="609.0699999999999" y2="379.8" stroke="#666" stroke-width="0.5"></line><line x1="609.0699999999999" y1="379.8" x2="611.5699999999999" y2="379.8" stroke="#666" stroke-width="0.5"></line></g><rect x="581.5699999999999" y="365.75" width="253.43" height="28.1" fill="#fff" opacity="0"></rect><text font-size="13.50" x="616.6" y="376.6" fill="#a652ba"><tspan x="616.5699999999999" y="376.55">Least developed countries - Medium</tspan><tspan x="616.5699999999999" y="391.40000000000003">fertility variant</tspan></text></g><g class="legendMark"><g class="indicator"><line x1="586.5699999999999" y1="387.2" x2="604.0699999999999" y2="387.2" stroke="#666" stroke-width="0.5"></line><line x1="604.0699999999999" y1="387.2" x2="604.0699999999999" y2="409.90000000000003" stroke="#666" stroke-width="0.5"></line><line x1="604.0699999999999" y1="409.90000000000003" x2="611.5699999999999" y2="409.90000000000003" stroke="#666" stroke-width="0.5"></line></g><rect x="581.5699999999999" y="395.85" width="238.31" height="28.1" fill="#fff" opacity="0"></rect><text font-size="13.50" x="616.6" y="406.7" fill="#f6a324"><tspan x="616.5699999999999" y="406.65000000000003">Less developed regions - Medium</tspan><tspan x="616.5699999999999" y="421.50000000000006">fertility variant</tspan></text></g><g class="legendMark"><g class="indicator"><line x1="586.5699999999999" y1="387.8" x2="599.0699999999999" y2="387.8" stroke="#666" stroke-width="0.5"></line><line x1="599.0699999999999" y1="387.8" x2="599.0699999999999" y2="432.70000000000005" stroke="#666" stroke-width="0.5"></line><line x1="599.0699999999999" y1="432.70000000000005" x2="611.5699999999999" y2="432.70000000000005" stroke="#666" stroke-width="0.5"></line></g><rect x="581.5699999999999" y="425.95000000000005" width="217.52" height="13.5" fill="#fff" opacity="0"></rect><text font-size="13.50" x="616.6" y="436.8" fill="#34983f"><tspan x="616.5699999999999" y="436.75000000000006">World - Medium fertility variant</tspan></text></g><g class="legendMark"><g class="indicator"><line x1="586.5699999999999" y1="393" x2="594.0699999999999" y2="393" stroke="#666" stroke-width="0.5"></line><line x1="594.0699999999999" y1="393" x2="594.0699999999999" y2="455.50000000000006" stroke="#666" stroke-width="0.5"></line><line x1="594.0699999999999" y1="455.50000000000006" x2="611.5699999999999" y2="455.50000000000006" stroke="#666" stroke-width="0.5"></line></g><rect x="581.5699999999999" y="441.45000000000005" width="240.47000000000003" height="28.1" fill="#fff" opacity="0"></rect><text font-size="13.50" x="616.6" y="452.3" fill="#ca2628"><tspan x="616.5699999999999" y="452.25000000000006">More developed regions - Medium</tspan><tspan x="616.5699999999999" y="467.1000000000001">fertility variant</tspan></text></g></g><g class="Lines"><rect x="29" y="127" width="552" height="368" fill="rgba(255,255,255,0)" opacity="0"></rect><g class="key-World_0"><path stroke="#34983f" stroke-linecap="round" d="M270 359L274 359L278 360L281 360L285 361L289 361L292 361L296 362L300 362L304 363L307 363L311 364L315 364L318 365L322 365L326 365L329 366L333 366L337 367L341 367L344 368L348 368L352 369L355 369L359 370L363 370L367 370L370 371L374 371L378 371L381 372L385 372L389 372L393 373L396 373L400 373L404 374L407 374L411 375L415 375L418 375L422 376L426 376L430 376L433 377L437 377L441 377L444 378L448 378L452 378L456 379L459 379L463 379L467 380L470 380L474 380L478 381L482 381L485 381L489 382L493 382L496 382L500 382L504 383L507 383L511 383L515 383L519 384L522 384L526 384L530 384L533 385L537 385L541 385L545 385L548 386L552 386L556 386L559 386L563 387L567 387L570 387L574 387L578 388L582 388" fill="none" stroke-width="1.5" stroke-dasharray="1,4"></path></g><g class="key-World_1"><path stroke="#2a939b" stroke-linecap="round" d="M29 220L33 222L37 225L40 227L44 228L48 229L51 229L55 229L59 228L62 226L66 225L70 223L74 222L77 221L81 221L85 221L88 223L92 225L96 229L100 233L103 237L107 243L111 249L114 255L118 262L122 269L126 275L129 281L133 286L137 290L140 293L144 296L148 298L151 299L155 301L159 302L163 305L166 307L170 310L174 314L177 318L181 323L185 327L189 332L192 336L196 339L200 342L203 344L207 346L211 348L215 349L218 350L222 351L226 352L229 353L233 353L237 354L240 355L244 355L248 356L252 356L255 357L259 357L263 358L266 358L270 359" fill="none" stroke-width="1.5"></path></g><g class="key-Least-developed-countries_0"><path stroke="#a652ba" stroke-linecap="round" d="M270 269L274 272L278 275L281 278L285 281L289 284L292 286L296 289L300 292L304 294L307 296L311 299L315 301L318 303L322 305L326 307L329 309L333 311L337 313L341 315L344 317L348 318L352 320L355 322L359 323L363 325L367 326L370 328L374 329L378 331L381 332L385 334L389 335L393 337L396 338L400 339L404 341L407 342L411 343L415 344L418 346L422 347L426 348L430 349L433 350L437 351L441 352L444 353L448 354L452 355L456 356L459 357L463 358L467 359L470 360L474 360L478 361L482 362L485 363L489 364L493 365L496 365L500 366L504 367L507 368L511 368L515 369L519 370L522 370L526 371L530 372L533 372L537 373L541 374L545 374L548 375L552 375L556 376L559 377L563 377L567 378L570 378L574 379L578 379L582 380" fill="none" stroke-width="1.5" stroke-dasharray="1,4"></path></g><g class="key-Least-developed-countries_1"><path stroke="#9ecc8a" stroke-linecap="round" d="M29 138L33 138L37 137L40 137L44 136L48 136L51 135L55 134L59 133L62 132L66 131L70 131L74 130L77 129L81 128L85 128L88 127L92 127L96 127L100 127L103 127L107 127L111 127L114 128L118 128L122 129L126 130L129 131L133 132L137 133L140 134L144 136L148 138L151 141L155 144L159 148L163 152L166 156L170 161L174 165L177 170L181 175L185 179L189 184L192 188L196 192L200 196L203 200L207 204L211 208L215 213L218 217L222 221L226 225L229 229L233 233L237 237L240 241L244 244L248 248L252 252L255 256L259 259L263 262L266 266L270 269" fill="none" stroke-width="1.5"></path></g><g class="key-Less-developed-regions_0"><path stroke="#f6a324" stroke-linecap="round" d="M270 352L274 353L278 353L281 354L285 355L289 355L292 356L296 357L300 357L304 358L307 358L311 359L315 359L318 360L322 361L326 361L329 362L333 362L337 363L341 364L344 364L348 365L352 365L355 366L359 366L363 367L367 367L370 368L374 368L378 369L381 369L385 369L389 370L393 370L396 371L400 371L404 371L407 372L411 372L415 373L418 373L422 374L426 374L430 374L433 375L437 375L441 376L444 376L448 376L452 377L456 377L459 377L463 378L467 378L470 379L474 379L478 379L482 380L485 380L489 380L493 380L496 381L500 381L504 381L507 382L511 382L515 382L519 383L522 383L526 383L530 383L533 384L537 384L541 384L545 385L548 385L552 385L556 385L559 386L563 386L567 386L570 387L574 387L578 387L582 387" fill="none" stroke-width="1.5" stroke-dasharray="1,4"></path></g><g class="key-Less-developed-regions_1"><path stroke="#e6332e" stroke-linecap="round" d="M29 156L33 159L37 164L40 168L44 171L48 172L51 173L55 172L59 171L62 169L66 167L70 164L74 162L77 160L81 159L85 160L88 162L92 165L96 169L100 174L103 181L107 189L111 197L114 206L118 215L122 224L126 233L129 241L133 248L137 254L140 259L144 263L148 266L151 269L155 271L159 274L163 277L166 281L170 286L174 291L177 297L181 302L185 308L189 314L192 319L196 323L200 326L203 330L207 332L211 334L215 336L218 338L222 340L226 341L229 342L233 343L237 344L240 346L244 346L248 347L252 348L255 349L259 350L263 351L266 351L270 352" fill="none" stroke-width="1.5"></path></g><g class="key-More-developed-regions_0"><path stroke="#ca2628" stroke-linecap="round" d="M270 403L274 403L278 403L281 402L285 402L289 402L292 401L296 401L300 401L304 400L307 400L311 400L315 399L318 399L322 399L326 399L329 398L333 398L337 398L341 398L344 398L348 397L352 397L355 397L359 397L363 397L367 397L370 397L374 396L378 396L381 396L385 396L389 396L393 396L396 396L400 395L404 395L407 395L411 395L415 395L418 395L422 395L426 395L430 395L433 395L437 395L441 395L444 394L448 394L452 394L456 394L459 394L463 394L467 394L470 394L474 394L478 394L482 394L485 394L489 394L493 394L496 394L500 394L504 394L507 394L511 394L515 394L519 393L522 393L526 393L530 393L533 393L537 393L541 393L545 393L548 393L552 393L556 393L559 393L563 393L567 393L570 393L574 393L578 393L582 393" fill="none" stroke-width="1.5" stroke-dasharray="1,4"></path></g><g class="key-More-developed-regions_1"><path stroke="#3360a9" stroke-linecap="round" d="M29 342L33 342L37 341L40 341L44 341L48 341L51 341L55 342L59 343L62 344L66 345L70 347L74 349L77 351L81 354L85 357L88 360L92 363L96 366L100 368L103 371L107 374L111 376L114 379L118 382L122 384L126 387L129 389L133 390L137 392L140 393L144 394L148 394L151 394L155 394L159 395L163 395L166 396L170 397L174 398L177 400L181 401L185 403L189 404L192 406L196 407L200 408L203 409L207 409L211 410L215 410L218 409L222 409L226 408L229 407L233 406L237 405L240 404L244 404L248 404L252 403L255 403L259 403L263 403L266 403L270 403" fill="none" stroke-width="1.5"></path></g></g></g></g><g class="SourcesFooter" style="fill:#777"><g class="clickable" style="fill:#777"><text font-size="12.60" x="15.0" y="540.5"><tspan x="15" y="540.48">Source: UN Population Division (2017 Revision)</tspan></text></g><text font-size="12.60" x="15.0" y="555.1"><tspan x="15" y="555.08">Note: More developed regions comprise Europe, Northern America, Australia/New Zealand and Japan; less developed regions comprise all</tspan><tspan x="15" y="568.94">regions of Africa, Asia (excluding Japan), Latin America and the Caribbean plus Melanesia, Micronesia and Polynesia; least developed countries</tspan><tspan x="15" y="582.8000000000001">are 48 countries, 33 in Africa, 9 in Asia, 5 in Oceania plus one in Latin America and the Caribbean.</tspan></text><text font-size="12.60" x="507.1" y="540.5"><tspan x="507.148" y="540.48"><a target='_blank' style='fill: #777;' href='https://ourworldindata.org/world-population-growth/'>OurWorldInData.org/world-population-growth/</a> • <a style="fill: #777;" class="cclogo" href="http://creativecommons.org/licenses/by-sa/4.0/deed.en_US" target="_blank">CC BY-SA</a></tspan></text></g></g></svg>