<svg xmlns="http://www.w3.org/2000/svg" version="1.1" style="font-family:&#x27;Helvetica Neue&#x27;, Helvetica, Arial, sans-serif;font-size:18px;background-color:white;text-rendering:optimizeLegibility;-webkit-font-smoothing:antialiased" width="850" height="600"><g class="ChartTab"><g class="HeaderView"><g opacity="0.8" transform="translate(778, 15) scale(0.27)"><a xmlns:xlink="http://www.w3.org/1999/xlink" xlink:href="https://ourworldindata.org" target="_blank"><g><rect x="0" y="0" fill="#1B2543" width="211.2" height="130.1"/><rect x="0" y="112.2" fill="#E63912" width="211.2" height="17.9"/><g><rect x="1.2" y="12.3" fill="none" width="210.2" height="99.2"/><path fill="#FFFFFF" d="M37.8,32.2c0,12.7-7.7,19.4-17.1,19.4c-9.7,0-16.6-7.5-16.6-18.7c0-11.7,7.3-19.3,17.1-19.3 C31.3,13.7,37.8,21.3,37.8,32.2z M9.2,32.8c0,7.9,4.3,14.9,11.8,14.9c7.5,0,11.8-6.9,11.8-15.3c0-7.3-3.8-14.9-11.8-14.9 C13.1,17.5,9.2,24.8,9.2,32.8z"/><path fill="#FFFFFF" d="M62.7,43.8c0,2.7,0.1,5.1,0.2,7.2h-4.3l-0.3-4.3h-0.1c-1.3,2.1-4,4.9-8.8,4.9c-4.2,0-9.1-2.3-9.1-11.6 V24.6h4.8v14.6c0,5,1.5,8.4,5.9,8.4c3.2,0,5.5-2.2,6.3-4.4c0.3-0.7,0.4-1.6,0.4-2.5V24.6h4.8V43.8z"/><path fill="#FFFFFF" d="M67.3,32.8c0-3.1-0.1-5.8-0.2-8.2h4.2l0.2,5.2h0.2c1.2-3.5,4.1-5.8,7.3-5.8c0.5,0,0.9,0.1,1.4,0.2v4.5 c-0.5-0.1-1-0.2-1.6-0.2c-3.4,0-5.8,2.6-6.5,6.2c-0.1,0.7-0.2,1.4-0.2,2.2V51h-4.8V32.8z"/><path fill="#FFFFFF" d="M95.4,51l-9.4-36.8h5l4.4,18.6c1.1,4.6,2.1,9.2,2.7,12.7h0.1c0.6-3.7,1.8-8,3-12.8l4.9-18.5h5l4.5,18.7 c1,4.4,2,8.7,2.6,12.6h0.1c0.8-4,1.8-8.1,3-12.7l4.9-18.5h4.9L120.6,51h-5L111,31.9c-1.1-4.7-1.9-8.3-2.4-12h-0.1 c-0.7,3.7-1.5,7.3-2.8,12L100.4,51H95.4z"/><path fill="#FFFFFF" d="M154.9,37.6c0,9.8-6.8,14-13.2,14c-7.2,0-12.7-5.2-12.7-13.6c0-8.8,5.8-14,13.1-14 C149.8,24,154.9,29.5,154.9,37.6z M133.9,37.9c0,5.8,3.3,10.1,8,10.1c4.6,0,8-4.3,8-10.3c0-4.5-2.2-10.1-7.9-10.1 C136.3,27.6,133.9,32.8,133.9,37.9z"/><path fill="#FFFFFF" d="M158.2,32.8c0-3.1-0.1-5.8-0.2-8.2h4.2l0.2,5.2h0.2c1.2-3.5,4.1-5.8,7.3-5.8c0.5,0,0.9,0.1,1.4,0.2v4.5 c-0.5-0.1-1-0.2-1.6-0.2c-3.4,0-5.8,2.6-6.5,6.2c-0.1,0.7-0.2,1.4-0.2,2.2V51h-4.8V32.8z"/><path fill="#FFFFFF" d="M173.5,12.3h4.8V51h-4.8V12.3z"/><path fill="#FFFFFF" d="M206.5,12.3v31.9c0,2.3,0.1,5,0.2,6.8h-4.3l-0.2-4.6H202c-1.5,2.9-4.7,5.2-9,5.2 c-6.4,0-11.3-5.4-11.3-13.4c-0.1-8.8,5.4-14.2,11.9-14.2c4,0,6.8,1.9,8,4h0.1V12.3H206.5z M201.7,35.4c0-0.6-0.1-1.4-0.2-2 c-0.7-3.1-3.3-5.6-6.9-5.6c-5,0-7.9,4.4-7.9,10.2c0,5.3,2.6,9.8,7.8,9.8c3.2,0,6.2-2.1,7.1-5.7c0.2-0.7,0.2-1.3,0.2-2.1V35.4z"/><path fill="#FFFFFF" d="M42.8,64c0.1,1.6-1.1,2.9-3.1,2.9c-1.7,0-2.9-1.3-2.9-2.9c0-1.7,1.3-3,3-3C41.7,61,42.8,62.3,42.8,64z M37.4,97.8V71.4h4.8v26.4H37.4z"/><path fill="#FFFFFF" d="M47.5,78.6c0-2.7-0.1-5-0.2-7.1h4.3l0.3,4.4h0.1c1.3-2.5,4.4-5,8.8-5c3.7,0,9.4,2.2,9.4,11.2v15.8h-4.8 V82.6c0-4.3-1.6-7.8-6.1-7.8c-3.2,0-5.6,2.2-6.5,4.9c-0.2,0.6-0.3,1.4-0.3,2.2v15.9h-4.8V78.6z"/><path fill="#FFFFFF" d="M84,61.6c2.9-0.4,6.3-0.8,10.1-0.8c6.8,0,11.7,1.6,14.9,4.6c3.3,3,5.2,7.3,5.2,13.2c0,6-1.9,10.9-5.3,14.3 c-3.4,3.4-9.1,5.3-16.3,5.3c-3.4,0-6.2-0.2-8.6-0.4V61.6z M88.8,94.1c1.2,0.2,3,0.3,4.8,0.3c10.2,0,15.7-5.7,15.7-15.6 c0.1-8.7-4.9-14.2-14.9-14.2c-2.5,0-4.3,0.2-5.6,0.5V94.1z"/><path fill="#FFFFFF" d="M132.1,97.8l-0.4-3.3h-0.2c-1.5,2.1-4.3,3.9-8.1,3.9c-5.4,0-8.1-3.8-8.1-7.6c0-6.4,5.7-9.9,15.9-9.8v-0.5 c0-2.2-0.6-6.1-6-6.1c-2.5,0-5,0.8-6.9,2l-1.1-3.2c2.2-1.4,5.4-2.3,8.7-2.3c8.1,0,10.1,5.5,10.1,10.8v9.9c0,2.3,0.1,4.5,0.4,6.3 H132.1z M131.4,84.4c-5.3-0.1-11.2,0.8-11.2,5.9c0,3.1,2.1,4.6,4.5,4.6c3.4,0,5.6-2.2,6.4-4.4c0.2-0.5,0.3-1,0.3-1.5V84.4z"/><path fill="#FFFFFF" d="M146.6,63.9v7.6h6.9v3.7h-6.9v14.2c0,3.3,0.9,5.1,3.6,5.1c1.3,0,2.2-0.2,2.8-0.3l0.2,3.6 c-0.9,0.4-2.4,0.7-4.3,0.7c-2.2,0-4-0.7-5.2-2c-1.4-1.4-1.9-3.8-1.9-6.9V75.1h-4.1v-3.7h4.1v-6.3L146.6,63.9z"/><path fill="#FFFFFF" d="M171.4,97.8l-0.4-3.3h-0.2c-1.5,2.1-4.3,3.9-8.1,3.9c-5.4,0-8.1-3.8-8.1-7.6c0-6.4,5.7-9.9,15.9-9.8v-0.5 c0-2.2-0.6-6.1-6-6.1c-2.5,0-5,0.8-6.9,2l-1.1-3.2c2.2-1.4,5.4-2.3,8.7-2.3c8.1,0,10.1,5.5,10.1,10.8v9.9c0,2.3,0.1,4.5,0.4,6.3 H171.4z M170.7,84.4c-5.3-0.1-11.2,0.8-11.2,5.9c0,3.1,2.1,4.6,4.5,4.6c3.4,0,5.6-2.2,6.4-4.4c0.2-0.5,0.3-1,0.3-1.5V84.4z"/></g></g></a></g><a href="https://ourworldindata.org/grapher/total-fertility-rate-by-development-level-including-UN-projections-through-2100?country=Africa-0+Africa-1+OWID_WRL-0+OWID_WRL-1" target="_blank"><text font-size="21.60" x="15.0" y="32.3" fill="#555"><tspan x="15" y="32.279999999999994">The total fertility rate by development level including the UN projections</tspan><tspan x="15" y="53.87999999999999">through 2100</tspan></text></a><text font-size="14.40" x="15.0" y="72.7" fill="#666"><tspan x="15" y="72.72">Total Fertility Rate is defined as the average number of children that would be born to a woman over her lifetime if the woman</tspan><tspan x="15" y="88.56">were to experience the exact current age-specific fertility rates, and the woman were to survive from birth to the end of her</tspan><tspan x="15" y="104.4">reproductive life. </tspan></text></g><g class="LineChart"><defs><clipPath id="boundsClip-674"><rect x="19.072000000000003" y="0" width="830" height="777.5999999999999"></rect></clipPath></defs><g class="AxisBoxView"><g class="HorizontalAxis"><text x="29.1" y="515.4" fill="#666" text-anchor="middle" font-size="16.2">1950</text><text x="147.5" y="515.4" fill="#666" text-anchor="middle" font-size="16.2">1980</text><text x="226.5" y="515.4" fill="#666" text-anchor="middle" font-size="16.2">2000</text><text x="305.5" y="515.4" fill="#666" text-anchor="middle" font-size="16.2">2020</text><text x="384.5" y="515.4" fill="#666" text-anchor="middle" font-size="16.2">2040</text><text x="463.5" y="515.4" fill="#666" text-anchor="middle" font-size="16.2">2060</text><text x="542.4" y="515.4" fill="#666" text-anchor="middle" font-size="16.2">2080</text><text x="617.5" y="515.4" fill="#666" text-anchor="middle" font-size="16.2">2099</text></g><g class="VerticalAxis"><text x="24.07" y="494.2" fill="#666" dominant-baseline="middle" text-anchor="end" font-size="16.2">0</text><text x="24.07" y="439.5" fill="#666" dominant-baseline="middle" text-anchor="end" font-size="16.2">1</text><text x="24.07" y="384.9" fill="#666" dominant-baseline="middle" text-anchor="end" font-size="16.2">2</text><text x="24.07" y="330.2" fill="#666" dominant-baseline="middle" text-anchor="end" font-size="16.2">3</text><text x="24.07" y="275.6" fill="#666" dominant-baseline="middle" text-anchor="end" font-size="16.2">4</text><text x="24.07" y="220.9" fill="#666" dominant-baseline="middle" text-anchor="end" font-size="16.2">5</text><text x="24.07" y="166.3" fill="#666" dominant-baseline="middle" text-anchor="end" font-size="16.2">6</text></g><g class="AxisGridLines"><line x1="29.07" y1="494.2" x2="617.48" y2="494.2" stroke="#ccc"></line><line x1="29.07" y1="439.5" x2="617.48" y2="439.5" stroke="#ddd" stroke-dasharray="3,2"></line><line x1="29.07" y1="384.9" x2="617.48" y2="384.9" stroke="#ddd" stroke-dasharray="3,2"></line><line x1="29.07" y1="330.2" x2="617.48" y2="330.2" stroke="#ddd" stroke-dasharray="3,2"></line><line x1="29.07" y1="275.6" x2="617.48" y2="275.6" stroke="#ddd" stroke-dasharray="3,2"></line><line x1="29.07" y1="220.9" x2="617.48" y2="220.9" stroke="#ddd" stroke-dasharray="3,2"></line><line x1="29.07" y1="166.3" x2="617.48" y2="166.3" stroke="#ddd" stroke-dasharray="3,2"></line></g></g><g clip-path="url(#boundsClip-674)"><g class="HeightedLegend clickable"><g class="legendMark"><g class="indicator"><line x1="622.48" y1="378.2" x2="644.98" y2="378.2" stroke="#666" stroke-width="0.5"></line><line x1="644.98" y1="378.2" x2="644.98" y2="378.2" stroke="#666" stroke-width="0.5"></line><line x1="644.98" y1="378.2" x2="647.48" y2="378.2" stroke="#666" stroke-width="0.5"></line></g><rect x="617.48" y="371.45" width="216.845" height="13.5" fill="#fff" opacity="0"></rect><text font-size="13.50" x="652.5" y="382.3" fill="#ca2628"><tspan x="652.48" y="382.25">Africa - Medium fertility variant</tspan></text></g><g class="legendMark"><g class="indicator"><line x1="622.48" y1="387.1" x2="634.98" y2="387.1" stroke="#666" stroke-width="0.5"></line><line x1="634.98" y1="387.1" x2="634.98" y2="393.7" stroke="#666" stroke-width="0.5"></line><line x1="634.98" y1="393.7" x2="647.48" y2="393.7" stroke="#666" stroke-width="0.5"></line></g><rect x="617.48" y="386.95" width="217.52" height="13.5" fill="#fff" opacity="0"></rect><text font-size="13.50" x="652.5" y="397.8" fill="#3360a9"><tspan x="652.48" y="397.75">World - Medium fertility variant</tspan></text></g></g><g class="Lines"><rect x="29" y="127" width="588" height="368" fill="rgba(255,255,255,0)" opacity="0"></rect><g class="key-Africa_0"><path stroke="#ca2628" stroke-linecap="round" d="M286 244L290 247L294 250L298 254L302 257L306 260L310 263L313 266L317 269L321 272L325 274L329 277L333 280L337 283L341 285L345 288L349 290L353 293L357 295L361 297L365 300L369 302L373 304L377 307L381 309L385 311L388 313L392 315L396 317L400 319L404 321L408 322L412 324L416 326L420 328L424 329L428 331L432 333L436 334L440 336L444 337L448 339L452 340L456 342L460 343L464 344L467 346L471 347L475 348L479 349L483 350L487 352L491 353L495 354L499 355L503 356L507 357L511 358L515 359L519 360L523 361L527 362L531 363L535 363L539 364L542 365L546 366L550 367L554 368L558 368L562 369L566 370L570 371L574 371L578 372L582 373L586 373L590 374L594 375L598 375L602 376L606 376L610 377L614 378L618 378" fill="none" stroke-width="1.5" stroke-dasharray="1,4"></path></g><g class="key-Africa_1"><path stroke="#f6a324" stroke-linecap="round" d="M29 133L33 133L37 133L41 132L45 132L49 132L53 131L57 130L61 130L65 129L69 128L73 128L77 127L80 127L84 127L88 127L92 127L96 127L100 127L104 127L108 127L112 127L116 127L120 128L124 128L128 129L132 130L136 131L140 132L144 133L148 135L152 136L155 139L159 141L163 144L167 147L171 151L175 155L179 159L183 164L187 169L191 174L195 179L199 184L203 189L207 193L211 197L215 201L219 204L223 207L227 210L231 213L234 215L238 218L242 220L246 222L250 224L254 226L258 228L262 229L266 231L270 233L274 235L278 238L282 241L286 244" fill="none" stroke-width="1.5"></path><g fill="#f6a324"><circle cx="29" cy="133" r="2"></circle><circle cx="33" cy="133" r="2"></circle><circle cx="37" cy="133" r="2"></circle><circle cx="41" cy="132" r="2"></circle><circle cx="45" cy="132" r="2"></circle><circle cx="49" cy="132" r="2"></circle><circle cx="53" cy="131" r="2"></circle><circle cx="57" cy="130" r="2"></circle><circle cx="61" cy="130" r="2"></circle><circle cx="65" cy="129" r="2"></circle><circle cx="69" cy="128" r="2"></circle><circle cx="73" cy="128" r="2"></circle><circle cx="77" cy="127" r="2"></circle><circle cx="80" cy="127" r="2"></circle><circle cx="84" cy="127" r="2"></circle><circle cx="88" cy="127" r="2"></circle><circle cx="92" cy="127" r="2"></circle><circle cx="96" cy="127" r="2"></circle><circle cx="100" cy="127" r="2"></circle><circle cx="104" cy="127" r="2"></circle><circle cx="108" cy="127" r="2"></circle><circle cx="112" cy="127" r="2"></circle><circle cx="116" cy="127" r="2"></circle><circle cx="120" cy="128" r="2"></circle><circle cx="124" cy="128" r="2"></circle><circle cx="128" cy="129" r="2"></circle><circle cx="132" cy="130" r="2"></circle><circle cx="136" cy="131" r="2"></circle><circle cx="140" cy="132" r="2"></circle><circle cx="144" cy="133" r="2"></circle><circle cx="148" cy="135" r="2"></circle><circle cx="152" cy="136" r="2"></circle><circle cx="155" cy="139" r="2"></circle><circle cx="159" cy="141" r="2"></circle><circle cx="163" cy="144" r="2"></circle><circle cx="167" cy="147" r="2"></circle><circle cx="171" cy="151" r="2"></circle><circle cx="175" cy="155" r="2"></circle><circle cx="179" cy="159" r="2"></circle><circle cx="183" cy="164" r="2"></circle><circle cx="187" cy="169" r="2"></circle><circle cx="191" cy="174" r="2"></circle><circle cx="195" cy="179" r="2"></circle><circle cx="199" cy="184" r="2"></circle><circle cx="203" cy="189" r="2"></circle><circle cx="207" cy="193" r="2"></circle><circle cx="211" cy="197" r="2"></circle><circle cx="215" cy="201" r="2"></circle><circle cx="219" cy="204" r="2"></circle><circle cx="223" cy="207" r="2"></circle><circle cx="227" cy="210" r="2"></circle><circle cx="231" cy="213" r="2"></circle><circle cx="234" cy="215" r="2"></circle><circle cx="238" cy="218" r="2"></circle><circle cx="242" cy="220" r="2"></circle><circle cx="246" cy="222" r="2"></circle><circle cx="250" cy="224" r="2"></circle><circle cx="254" cy="226" r="2"></circle><circle cx="258" cy="228" r="2"></circle><circle cx="262" cy="229" r="2"></circle><circle cx="266" cy="231" r="2"></circle><circle cx="270" cy="233" r="2"></circle><circle cx="274" cy="235" r="2"></circle><circle cx="278" cy="238" r="2"></circle><circle cx="282" cy="241" r="2"></circle><circle cx="286" cy="244" r="2"></circle></g></g><g class="key-World_0"><path stroke="#3360a9" stroke-linecap="round" d="M286 358L290 358L294 359L298 359L302 360L306 360L310 361L313 361L317 361L321 362L325 362L329 363L333 363L337 364L341 364L345 365L349 365L353 366L357 366L361 367L365 367L369 368L373 368L377 368L381 369L385 369L388 370L392 370L396 370L400 371L404 371L408 371L412 372L416 372L420 372L424 373L428 373L432 373L436 374L440 374L444 375L448 375L452 375L456 376L460 376L464 376L467 377L471 377L475 377L479 378L483 378L487 378L491 379L495 379L499 379L503 380L507 380L511 380L515 381L519 381L523 381L527 381L531 382L535 382L539 382L542 382L546 383L550 383L554 383L558 383L562 384L566 384L570 384L574 385L578 385L582 385L586 385L590 385L594 386L598 386L602 386L606 386L610 387L614 387L618 387" fill="none" stroke-width="1.5" stroke-dasharray="1,4"></path></g><g class="key-World_1"><path stroke="#34983f" stroke-linecap="round" d="M29 218L33 220L37 223L41 225L45 227L49 227L53 227L57 227L61 226L65 225L69 223L73 221L77 220L80 219L84 219L88 220L92 221L96 224L100 227L104 231L108 236L112 241L116 247L120 254L124 261L128 267L132 274L136 279L140 284L144 289L148 292L152 295L155 297L159 298L163 300L167 301L171 303L175 306L179 309L183 313L187 317L191 322L195 326L199 331L203 334L207 338L211 341L215 343L219 345L223 347L227 348L231 349L234 350L238 351L242 352L246 352L250 353L254 354L258 354L262 355L266 355L270 356L274 356L278 357L282 357L286 358" fill="none" stroke-width="1.5"></path><g fill="#34983f"><circle cx="29" cy="218" r="2"></circle><circle cx="33" cy="220" r="2"></circle><circle cx="37" cy="223" r="2"></circle><circle cx="41" cy="225" r="2"></circle><circle cx="45" cy="227" r="2"></circle><circle cx="49" cy="227" r="2"></circle><circle cx="53" cy="227" r="2"></circle><circle cx="57" cy="227" r="2"></circle><circle cx="61" cy="226" r="2"></circle><circle cx="65" cy="225" r="2"></circle><circle cx="69" cy="223" r="2"></circle><circle cx="73" cy="221" r="2"></circle><circle cx="77" cy="220" r="2"></circle><circle cx="80" cy="219" r="2"></circle><circle cx="84" cy="219" r="2"></circle><circle cx="88" cy="220" r="2"></circle><circle cx="92" cy="221" r="2"></circle><circle cx="96" cy="224" r="2"></circle><circle cx="100" cy="227" r="2"></circle><circle cx="104" cy="231" r="2"></circle><circle cx="108" cy="236" r="2"></circle><circle cx="112" cy="241" r="2"></circle><circle cx="116" cy="247" r="2"></circle><circle cx="120" cy="254" r="2"></circle><circle cx="124" cy="261" r="2"></circle><circle cx="128" cy="267" r="2"></circle><circle cx="132" cy="274" r="2"></circle><circle cx="136" cy="279" r="2"></circle><circle cx="140" cy="284" r="2"></circle><circle cx="144" cy="289" r="2"></circle><circle cx="148" cy="292" r="2"></circle><circle cx="152" cy="295" r="2"></circle><circle cx="155" cy="297" r="2"></circle><circle cx="159" cy="298" r="2"></circle><circle cx="163" cy="300" r="2"></circle><circle cx="167" cy="301" r="2"></circle><circle cx="171" cy="303" r="2"></circle><circle cx="175" cy="306" r="2"></circle><circle cx="179" cy="309" r="2"></circle><circle cx="183" cy="313" r="2"></circle><circle cx="187" cy="317" r="2"></circle><circle cx="191" cy="322" r="2"></circle><circle cx="195" cy="326" r="2"></circle><circle cx="199" cy="331" r="2"></circle><circle cx="203" cy="334" r="2"></circle><circle cx="207" cy="338" r="2"></circle><circle cx="211" cy="341" r="2"></circle><circle cx="215" cy="343" r="2"></circle><circle cx="219" cy="345" r="2"></circle><circle cx="223" cy="347" r="2"></circle><circle cx="227" cy="348" r="2"></circle><circle cx="231" cy="349" r="2"></circle><circle cx="234" cy="350" r="2"></circle><circle cx="238" cy="351" r="2"></circle><circle cx="242" cy="352" r="2"></circle><circle cx="246" cy="352" r="2"></circle><circle cx="250" cy="353" r="2"></circle><circle cx="254" cy="354" r="2"></circle><circle cx="258" cy="354" r="2"></circle><circle cx="262" cy="355" r="2"></circle><circle cx="266" cy="355" r="2"></circle><circle cx="270" cy="356" r="2"></circle><circle cx="274" cy="356" r="2"></circle><circle cx="278" cy="357" r="2"></circle><circle cx="282" cy="357" r="2"></circle><circle cx="286" cy="358" r="2"></circle></g></g></g></g></g><g class="SourcesFooter" style="fill:#777"><g class="clickable" style="fill:#777"><text font-size="12.60" x="15.0" y="540.5"><tspan x="15" y="540.48">Source: UN Population Division (2017 Revision)</tspan></text></g><text font-size="12.60" x="15.0" y="555.1"><tspan x="15" y="555.08">Note: More developed regions comprise Europe, Northern America, Australia/New Zealand and Japan; less developed regions comprise all</tspan><tspan x="15" y="568.94">regions of Africa, Asia (excluding Japan), Latin America and the Caribbean plus Melanesia, Micronesia and Polynesia; least developed countries</tspan><tspan x="15" y="582.8000000000001">are 48 countries, 33 in Africa, 9 in Asia, 5 in Oceania plus one in Latin America and the Caribbean.</tspan></text><text font-size="12.60" x="507.1" y="540.5"><tspan x="507.148" y="540.48"><a target='_blank' style='fill: #777;' href='https://ourworldindata.org/world-population-growth/'>OurWorldInData.org/world-population-growth/</a> • <a style="fill: #777;" class="cclogo" href="http://creativecommons.org/licenses/by-sa/4.0/deed.en_US" target="_blank">CC BY-SA</a></tspan></text></g></g></svg>