<svg xmlns="http://www.w3.org/2000/svg" version="1.1" style="font-family:&#x27;Helvetica Neue&#x27;, Helvetica, Arial, sans-serif;font-size:18px;background-color:white;text-rendering:optimizeLegibility;-webkit-font-smoothing:antialiased" width="850" height="600"><g class="ChartTab"><g class="HeaderView"><g opacity="0.8" transform="translate(778, 15) scale(0.27)"><a xmlns:xlink="http://www.w3.org/1999/xlink" xlink:href="https://ourworldindata.org" target="_blank"><g><rect x="0" y="0" fill="#1B2543" width="211.2" height="130.1"/><rect x="0" y="112.2" fill="#E63912" width="211.2" height="17.9"/><g><rect x="1.2" y="12.3" fill="none" width="210.2" height="99.2"/><path fill="#FFFFFF" d="M37.8,32.2c0,12.7-7.7,19.4-17.1,19.4c-9.7,0-16.6-7.5-16.6-18.7c0-11.7,7.3-19.3,17.1-19.3 C31.3,13.7,37.8,21.3,37.8,32.2z M9.2,32.8c0,7.9,4.3,14.9,11.8,14.9c7.5,0,11.8-6.9,11.8-15.3c0-7.3-3.8-14.9-11.8-14.9 C13.1,17.5,9.2,24.8,9.2,32.8z"/><path fill="#FFFFFF" d="M62.7,43.8c0,2.7,0.1,5.1,0.2,7.2h-4.3l-0.3-4.3h-0.1c-1.3,2.1-4,4.9-8.8,4.9c-4.2,0-9.1-2.3-9.1-11.6 V24.6h4.8v14.6c0,5,1.5,8.4,5.9,8.4c3.2,0,5.5-2.2,6.3-4.4c0.3-0.7,0.4-1.6,0.4-2.5V24.6h4.8V43.8z"/><path fill="#FFFFFF" d="M67.3,32.8c0-3.1-0.1-5.8-0.2-8.2h4.2l0.2,5.2h0.2c1.2-3.5,4.1-5.8,7.3-5.8c0.5,0,0.9,0.1,1.4,0.2v4.5 c-0.5-0.1-1-0.2-1.6-0.2c-3.4,0-5.8,2.6-6.5,6.2c-0.1,0.7-0.2,1.4-0.2,2.2V51h-4.8V32.8z"/><path fill="#FFFFFF" d="M95.4,51l-9.4-36.8h5l4.4,18.6c1.1,4.6,2.1,9.2,2.7,12.7h0.1c0.6-3.7,1.8-8,3-12.8l4.9-18.5h5l4.5,18.7 c1,4.4,2,8.7,2.6,12.6h0.1c0.8-4,1.8-8.1,3-12.7l4.9-18.5h4.9L120.6,51h-5L111,31.9c-1.1-4.7-1.9-8.3-2.4-12h-0.1 c-0.7,3.7-1.5,7.3-2.8,12L100.4,51H95.4z"/><path fill="#FFFFFF" d="M154.9,37.6c0,9.8-6.8,14-13.2,14c-7.2,0-12.7-5.2-12.7-13.6c0-8.8,5.8-14,13.1-14 C149.8,24,154.9,29.5,154.9,37.6z M133.9,37.9c0,5.8,3.3,10.1,8,10.1c4.6,0,8-4.3,8-10.3c0-4.5-2.2-10.1-7.9-10.1 C136.3,27.6,133.9,32.8,133.9,37.9z"/><path fill="#FFFFFF" d="M158.2,32.8c0-3.1-0.1-5.8-0.2-8.2h4.2l0.2,5.2h0.2c1.2-3.5,4.1-5.8,7.3-5.8c0.5,0,0.9,0.1,1.4,0.2v4.5 c-0.5-0.1-1-0.2-1.6-0.2c-3.4,0-5.8,2.6-6.5,6.2c-0.1,0.7-0.2,1.4-0.2,2.2V51h-4.8V32.8z"/><path fill="#FFFFFF" d="M173.5,12.3h4.8V51h-4.8V12.3z"/><path fill="#FFFFFF" d="M206.5,12.3v31.9c0,2.3,0.1,5,0.2,6.8h-4.3l-0.2-4.6H202c-1.5,2.9-4.7,5.2-9,5.2 c-6.4,0-11.3-5.4-11.3-13.4c-0.1-8.8,5.4-14.2,11.9-14.2c4,0,6.8,1.9,8,4h0.1V12.3H206.5z M201.7,35.4c0-0.6-0.1-1.4-0.2-2 c-0.7-3.1-3.3-5.6-6.9-5.6c-5,0-7.9,4.4-7.9,10.2c0,5.3,2.6,9.8,7.8,9.8c3.2,0,6.2-2.1,7.1-5.7c0.2-0.7,0.2-1.3,0.2-2.1V35.4z"/><path fill="#FFFFFF" d="M42.8,64c0.1,1.6-1.1,2.9-3.1,2.9c-1.7,0-2.9-1.3-2.9-2.9c0-1.7,1.3-3,3-3C41.7,61,42.8,62.3,42.8,64z M37.4,97.8V71.4h4.8v26.4H37.4z"/><path fill="#FFFFFF" d="M47.5,78.6c0-2.7-0.1-5-0.2-7.1h4.3l0.3,4.4h0.1c1.3-2.5,4.4-5,8.8-5c3.7,0,9.4,2.2,9.4,11.2v15.8h-4.8 V82.6c0-4.3-1.6-7.8-6.1-7.8c-3.2,0-5.6,2.2-6.5,4.9c-0.2,0.6-0.3,1.4-0.3,2.2v15.9h-4.8V78.6z"/><path fill="#FFFFFF" d="M84,61.6c2.9-0.4,6.3-0.8,10.1-0.8c6.8,0,11.7,1.6,14.9,4.6c3.3,3,5.2,7.3,5.2,13.2c0,6-1.9,10.9-5.3,14.3 c-3.4,3.4-9.1,5.3-16.3,5.3c-3.4,0-6.2-0.2-8.6-0.4V61.6z M88.8,94.1c1.2,0.2,3,0.3,4.8,0.3c10.2,0,15.7-5.7,15.7-15.6 c0.1-8.7-4.9-14.2-14.9-14.2c-2.5,0-4.3,0.2-5.6,0.5V94.1z"/><path fill="#FFFFFF" d="M132.1,97.8l-0.4-3.3h-0.2c-1.5,2.1-4.3,3.9-8.1,3.9c-5.4,0-8.1-3.8-8.1-7.6c0-6.4,5.7-9.9,15.9-9.8v-0.5 c0-2.2-0.6-6.1-6-6.1c-2.5,0-5,0.8-6.9,2l-1.1-3.2c2.2-1.4,5.4-2.3,8.7-2.3c8.1,0,10.1,5.5,10.1,10.8v9.9c0,2.3,0.1,4.5,0.4,6.3 H132.1z M131.4,84.4c-5.3-0.1-11.2,0.8-11.2,5.9c0,3.1,2.1,4.6,4.5,4.6c3.4,0,5.6-2.2,6.4-4.4c0.2-0.5,0.3-1,0.3-1.5V84.4z"/><path fill="#FFFFFF" d="M146.6,63.9v7.6h6.9v3.7h-6.9v14.2c0,3.3,0.9,5.1,3.6,5.1c1.3,0,2.2-0.2,2.8-0.3l0.2,3.6 c-0.9,0.4-2.4,0.7-4.3,0.7c-2.2,0-4-0.7-5.2-2c-1.4-1.4-1.9-3.8-1.9-6.9V75.1h-4.1v-3.7h4.1v-6.3L146.6,63.9z"/><path fill="#FFFFFF" d="M171.4,97.8l-0.4-3.3h-0.2c-1.5,2.1-4.3,3.9-8.1,3.9c-5.4,0-8.1-3.8-8.1-7.6c0-6.4,5.7-9.9,15.9-9.8v-0.5 c0-2.2-0.6-6.1-6-6.1c-2.5,0-5,0.8-6.9,2l-1.1-3.2c2.2-1.4,5.4-2.3,8.7-2.3c8.1,0,10.1,5.5,10.1,10.8v9.9c0,2.3,0.1,4.5,0.4,6.3 H171.4z M170.7,84.4c-5.3-0.1-11.2,0.8-11.2,5.9c0,3.1,2.1,4.6,4.5,4.6c3.4,0,5.6-2.2,6.4-4.4c0.2-0.5,0.3-1,0.3-1.5V84.4z"/></g></g></a></g><a href="https://ourworldindata.org/grapher/twentieth-century-of-deaths-us" target="_blank"><text font-size="25.20" x="15.0" y="35.2" fill="#555"><tspan x="15" y="35.160000000000004">Twentieth century of deaths, United States</tspan></text></a><text font-size="14.40" x="15.0" y="53.7" fill="#666"><tspan x="15" y="53.72">Total annual deaths in the United States, broken down by broad category of causes. Non-communicable diseases</tspan><tspan x="15" y="69.56">(NCDs) includes cardiovascular diseases (heart diseases and strokes), cancers, respiratory disease and diabetes.</tspan><tspan x="15" y="85.4">Accidents includes road accidents, falls, fires, drowning, accidential poisonings. The remaining category includes</tspan><tspan x="15" y="101.24000000000001">communicable, infectious, neonatal and other non-NCD health conditions.</tspan></text></g><g class="StackedArea"><defs><clipPath id="boundsClip-403"><rect x="93.062" y="0" width="820" height="866.8"></rect></clipPath></defs><g class="AxisBoxView"><g class="HorizontalAxis"><text x="93.1" y="556.5" fill="#666" text-anchor="middle" font-size="16.2">1900</text><text x="213.6" y="556.5" fill="#666" text-anchor="middle" font-size="16.2">1920</text><text x="334.1" y="556.5" fill="#666" text-anchor="middle" font-size="16.2">1940</text><text x="454.6" y="556.5" fill="#666" text-anchor="middle" font-size="16.2">1960</text><text x="575" y="556.5" fill="#666" text-anchor="middle" font-size="16.2">1980</text><text x="683.5" y="556.5" fill="#666" text-anchor="middle" font-size="16.2">1998</text></g><g class="VerticalAxis"><text x="88.06" y="535.3" fill="#666" dominant-baseline="middle" text-anchor="end" font-size="16.2">0</text><text x="88.06" y="448.7" fill="#666" dominant-baseline="middle" text-anchor="end" font-size="16.2">500,000</text><text x="88.06" y="362.2" fill="#666" dominant-baseline="middle" text-anchor="end" font-size="16.2">1 million</text><text x="88.06" y="275.6" fill="#666" dominant-baseline="middle" text-anchor="end" font-size="16.2">1.5 million</text><text x="88.06" y="189" fill="#666" dominant-baseline="middle" text-anchor="end" font-size="16.2">2 million</text></g><g class="AxisGridLines"><line x1="93.06" y1="535.3" x2="683.50" y2="535.3" stroke="#ccc"></line><line x1="93.06" y1="448.7" x2="683.50" y2="448.7" stroke="#ddd" stroke-dasharray="3,2"></line><line x1="93.06" y1="362.2" x2="683.50" y2="362.2" stroke="#ddd" stroke-dasharray="3,2"></line><line x1="93.06" y1="275.6" x2="683.50" y2="275.6" stroke="#ddd" stroke-dasharray="3,2"></line><line x1="93.06" y1="189" x2="683.50" y2="189" stroke="#ddd" stroke-dasharray="3,2"></line></g></g><g clip-path="url(#boundsClip-403)"><g class="HeightedLegend clickable"><g class="legendMark"><rect x="683.495" y="124.85" width="93.725" height="13.5" fill="#fff" opacity="0"></rect><text font-size="13.50" x="688.5" y="135.7" fill="#ffd53e"><tspan x="688.495" y="135.65">Accidents</tspan></text></g><g class="legendMark"><rect x="683.495" y="180.04999999999998" width="148.265" height="57.3" fill="#fff" opacity="0"></rect><text font-size="13.50" x="688.5" y="190.8" fill="#34983f"><tspan x="688.495" y="190.85">Communicable,</tspan><tspan x="688.495" y="205.7">infectious,</tspan><tspan x="688.495" y="220.55">neonatal and other</tspan><tspan x="688.495" y="235.4">deaths</tspan></text></g><g class="legendMark"><rect x="683.495" y="392.25" width="151.505" height="28.1" fill="#fff" opacity="0"></rect><text font-size="13.50" x="688.5" y="403.1" fill="#3360a9"><tspan x="688.495" y="403.05">Non-communicable</tspan><tspan x="688.495" y="417.90000000000003">diseases (NCDs)</tspan></text></g></g><g class="Areas"><rect x="93.062" y="123.1" width="590.433" height="412.19999999999993" opacity="0" fill="rgba(255,255,255,0)"></rect><path class="United-States_2-area" stroke-linecap="round" d="M93.1 524.6L99.1 524.3L105.1 524.1L111.1 523.4L117.2 522.6L123.2 522.4L129.2 516.5L135.2 514.8L141.3 514L147.3 510.6L153.3 508.1L159.3 505.2L165.4 504.2L171.4 502.7L177.4 500.4L183.4 499L189.5 495.5L195.5 493.2L201.5 487.9L207.5 489.4L213.6 485.2L237.7 472.8L243.7 470.6L249.7 466.2L255.7 465.1L261.8 457.5L267.8 455.9L273.8 454L279.8 453.6L285.9 445.6L291.9 440.6L297.9 435.9L303.9 433.6L310 426.1L316 425.6L322 424.1L328 420.5L334.1 414.4L340.1 414.4L346.1 411.9L352.1 405.1L358.2 405.7L364.2 402.7L370.2 401.7L376.2 393.5L382.3 390.2L388.3 379.5L394.3 374.7L400.3 370.9L406.4 367.3L412.4 363L418.4 364.3L424.4 357.8L430.5 352.7L436.5 377.9L454.6 332.3L460.6 330.9L466.6 324.4L472.6 318.7L478.7 319.6L484.7 315.2L490.7 310.4L496.7 310.3L502.8 308L508.8 308.8L514.8 308.2L520.8 305.4L526.8 301L532.9 299.7L538.9 302.7L544.9 308.3L550.9 306L557 306.7L563 304L569 303.4L575 295.9L581.1 297.4L587.1 296.1L593.1 292L599.1 291.4L605.2 289L611.2 289.2L617.2 288.5L623.2 285.8L629.3 289L635.3 289.9L641.3 288.1L647.3 287.3L653.4 279.5L659.4 279.6L665.4 276.8L671.4 276.5L677.5 277.5L683.5 277.4L683.495 535.3L93.062 535.3" fill="#3360a9" fill-opacity="0.7"></path><path class="United-States_1-area" stroke-linecap="round" d="M93.1 478.4L99.1 480.7L105.1 482.7L111.1 481.6L117.2 477.9L123.2 478.5L129.2 448.9L135.2 445.7L141.3 442.6L147.3 432.2L153.3 421.4L159.3 413.1L165.4 413.7L171.4 404.4L177.4 402.7L183.4 401.5L189.5 383.9L195.5 374.9L201.5 297.7L207.5 358.7L213.6 350.8L237.7 346.2L243.7 339.7L249.7 328.5L255.7 336L261.8 310.5L267.8 309.1L273.8 316.4L279.8 319.5L285.9 321.2L291.9 313.2L297.9 304.7L303.9 305.1L310 291.6L316 295.5L322 306.7L328 305.4L334.1 300.7L340.1 304L346.1 307.2L352.1 295.6L358.2 303.2L364.2 304.4L370.2 303.2L376.2 296.6L382.3 296.6L388.3 295.5L394.3 293.6L400.3 288.9L406.4 286.2L412.4 282.4L418.4 288.3L424.4 280.1L430.5 274L436.5 262.3L454.6 248.5L460.6 250.1L466.6 240.9L472.6 231.2L478.7 233.8L484.7 229L490.7 223.2L496.7 225.2L502.8 201.1L508.8 213L514.8 202.7L520.8 211.8L526.8 205.5L532.9 204.1L538.9 210.5L544.9 217.5L550.9 214L557 215.7L563 210.7L569 212.9L575 199.9L581.1 201.4L587.1 201.8L593.1 194L599.1 190.3L605.2 182.3L611.2 179L617.2 175.8L623.2 168.3L629.3 171.2L635.3 171.1L641.3 167.6L647.3 166.5L653.4 150.9L659.4 149.2L665.4 143.6L671.4 143.4L677.5 143.7L683.5 140L683.5 277.4L677.5 277.5L671.4 276.5L665.4 276.8L659.4 279.6L653.4 279.5L647.3 287.3L641.3 288.1L635.3 289.9L629.3 289L623.2 285.8L617.2 288.5L611.2 289.2L605.2 289L599.1 291.4L593.1 292L587.1 296.1L581.1 297.4L575 295.9L569 303.4L563 304L557 306.7L550.9 306L544.9 308.3L538.9 302.7L532.9 299.7L526.8 301L520.8 305.4L514.8 308.2L508.8 308.8L502.8 308L496.7 310.3L490.7 310.4L484.7 315.2L478.7 319.6L472.6 318.7L466.6 324.4L460.6 330.9L454.6 332.3L436.5 377.9L430.5 352.7L424.4 357.8L418.4 364.3L412.4 363L406.4 367.3L400.3 370.9L394.3 374.7L388.3 379.5L382.3 390.2L376.2 393.5L370.2 401.7L364.2 402.7L358.2 405.7L352.1 405.1L346.1 411.9L340.1 414.4L334.1 414.4L328 420.5L322 424.1L316 425.6L310 426.1L303.9 433.6L297.9 435.9L291.9 440.6L285.9 445.6L279.8 453.6L273.8 454L267.8 455.9L261.8 457.5L255.7 465.1L249.7 466.2L243.7 470.6L237.7 472.8L213.6 485.2L207.5 489.4L201.5 487.9L195.5 493.2L189.5 495.5L183.4 499L177.4 500.4L171.4 502.7L165.4 504.2L159.3 505.2L153.3 508.1L147.3 510.6L141.3 514L135.2 514.8L129.2 516.5L123.2 522.4L117.2 522.6L111.1 523.4L105.1 524.1L99.1 524.3L93.1 524.6" fill="#34983f" fill-opacity="0.7"></path><path class="United-States_0-area" stroke-linecap="round" d="M93.1 475.9L99.1 472.3L105.1 471.3L111.1 468.7L117.2 464.2L123.2 464.4L129.2 434.6L135.2 431.3L141.3 428.2L147.3 417.9L153.3 407.1L159.3 398.7L165.4 399.3L171.4 390L177.4 388.3L183.4 387.1L189.5 369.5L195.5 360.5L201.5 283.3L207.5 344.3L213.6 336.4L237.7 331.8L243.7 325.3L249.7 314L255.7 321.5L261.8 294.9L267.8 293L273.8 300.1L279.8 303.4L285.9 306.5L291.9 297.5L297.9 287.2L303.9 287.9L310 272.6L316 277.3L322 290.5L328 289.4L334.1 283.9L340.1 286.5L346.1 290.6L352.1 278.5L358.2 286.7L364.2 287.7L370.2 287.2L376.2 279.4L382.3 279.6L388.3 279.9L394.3 277.8L400.3 272.3L406.4 269.6L412.4 266L418.4 272.7L424.4 264L430.5 257.6L436.5 245.8L454.6 232.3L460.6 234.1L466.6 224.1L472.6 213.8L478.7 215.9L484.7 210.3L490.7 203.5L496.7 205.6L502.8 181.2L508.8 192.9L514.8 182.8L520.8 192.2L526.8 185.5L532.9 184.1L538.9 192.3L544.9 199.6L550.9 196.6L557 197.8L563 192.5L569 194.7L575 181.6L581.1 183.9L587.1 185.5L593.1 178L599.1 174.2L605.2 166.1L611.2 162.5L617.2 159.3L623.2 151.4L629.3 154.7L635.3 155.2L641.3 152.1L647.3 151.5L653.4 135.3L659.4 133.4L665.4 127.5L671.4 127L677.5 127.1L683.5 123.1L683.5 140L677.5 143.7L671.4 143.4L665.4 143.6L659.4 149.2L653.4 150.9L647.3 166.5L641.3 167.6L635.3 171.1L629.3 171.2L623.2 168.3L617.2 175.8L611.2 179L605.2 182.3L599.1 190.3L593.1 194L587.1 201.8L581.1 201.4L575 199.9L569 212.9L563 210.7L557 215.7L550.9 214L544.9 217.5L538.9 210.5L532.9 204.1L526.8 205.5L520.8 211.8L514.8 202.7L508.8 213L502.8 201.1L496.7 225.2L490.7 223.2L484.7 229L478.7 233.8L472.6 231.2L466.6 240.9L460.6 250.1L454.6 248.5L436.5 262.3L430.5 274L424.4 280.1L418.4 288.3L412.4 282.4L406.4 286.2L400.3 288.9L394.3 293.6L388.3 295.5L382.3 296.6L376.2 296.6L370.2 303.2L364.2 304.4L358.2 303.2L352.1 295.6L346.1 307.2L340.1 304L334.1 300.7L328 305.4L322 306.7L316 295.5L310 291.6L303.9 305.1L297.9 304.7L291.9 313.2L285.9 321.2L279.8 319.5L273.8 316.4L267.8 309.1L261.8 310.5L255.7 336L249.7 328.5L243.7 339.7L237.7 346.2L213.6 350.8L207.5 358.7L201.5 297.7L195.5 374.9L189.5 383.9L183.4 401.5L177.4 402.7L171.4 404.4L165.4 413.7L159.3 413.1L153.3 421.4L147.3 432.2L141.3 442.6L135.2 445.7L129.2 448.9L123.2 478.5L117.2 477.9L111.1 481.6L105.1 482.7L99.1 480.7L93.1 478.4" fill="#ffd53e" fill-opacity="0.7"></path><path class="United-States_2-border" stroke-linecap="round" d="M93.1 524.6L99.1 524.3L105.1 524.1L111.1 523.4L117.2 522.6L123.2 522.4L129.2 516.5L135.2 514.8L141.3 514L147.3 510.6L153.3 508.1L159.3 505.2L165.4 504.2L171.4 502.7L177.4 500.4L183.4 499L189.5 495.5L195.5 493.2L201.5 487.9L207.5 489.4L213.6 485.2L237.7 472.8L243.7 470.6L249.7 466.2L255.7 465.1L261.8 457.5L267.8 455.9L273.8 454L279.8 453.6L285.9 445.6L291.9 440.6L297.9 435.9L303.9 433.6L310 426.1L316 425.6L322 424.1L328 420.5L334.1 414.4L340.1 414.4L346.1 411.9L352.1 405.1L358.2 405.7L364.2 402.7L370.2 401.7L376.2 393.5L382.3 390.2L388.3 379.5L394.3 374.7L400.3 370.9L406.4 367.3L412.4 363L418.4 364.3L424.4 357.8L430.5 352.7L436.5 377.9L454.6 332.3L460.6 330.9L466.6 324.4L472.6 318.7L478.7 319.6L484.7 315.2L490.7 310.4L496.7 310.3L502.8 308L508.8 308.8L514.8 308.2L520.8 305.4L526.8 301L532.9 299.7L538.9 302.7L544.9 308.3L550.9 306L557 306.7L563 304L569 303.4L575 295.9L581.1 297.4L587.1 296.1L593.1 292L599.1 291.4L605.2 289L611.2 289.2L617.2 288.5L623.2 285.8L629.3 289L635.3 289.9L641.3 288.1L647.3 287.3L653.4 279.5L659.4 279.6L665.4 276.8L671.4 276.5L677.5 277.5L683.5 277.4" stroke="rgb(43, 80, 141)" stroke-opacity="0.7" stroke-width="0.5" fill="none"></path><path class="United-States_1-border" stroke-linecap="round" d="M93.1 478.4L99.1 480.7L105.1 482.7L111.1 481.6L117.2 477.9L123.2 478.5L129.2 448.9L135.2 445.7L141.3 442.6L147.3 432.2L153.3 421.4L159.3 413.1L165.4 413.7L171.4 404.4L177.4 402.7L183.4 401.5L189.5 383.9L195.5 374.9L201.5 297.7L207.5 358.7L213.6 350.8L237.7 346.2L243.7 339.7L249.7 328.5L255.7 336L261.8 310.5L267.8 309.1L273.8 316.4L279.8 319.5L285.9 321.2L291.9 313.2L297.9 304.7L303.9 305.1L310 291.6L316 295.5L322 306.7L328 305.4L334.1 300.7L340.1 304L346.1 307.2L352.1 295.6L358.2 303.2L364.2 304.4L370.2 303.2L376.2 296.6L382.3 296.6L388.3 295.5L394.3 293.6L400.3 288.9L406.4 286.2L412.4 282.4L418.4 288.3L424.4 280.1L430.5 274L436.5 262.3L454.6 248.5L460.6 250.1L466.6 240.9L472.6 231.2L478.7 233.8L484.7 229L490.7 223.2L496.7 225.2L502.8 201.1L508.8 213L514.8 202.7L520.8 211.8L526.8 205.5L532.9 204.1L538.9 210.5L544.9 217.5L550.9 214L557 215.7L563 210.7L569 212.9L575 199.9L581.1 201.4L587.1 201.8L593.1 194L599.1 190.3L605.2 182.3L611.2 179L617.2 175.8L623.2 168.3L629.3 171.2L635.3 171.1L641.3 167.6L647.3 166.5L653.4 150.9L659.4 149.2L665.4 143.6L671.4 143.4L677.5 143.7L683.5 140" stroke="rgb(44, 127, 53)" stroke-opacity="0.7" stroke-width="0.5" fill="none"></path><path class="United-States_0-border" stroke-linecap="round" d="M93.1 475.9L99.1 472.3L105.1 471.3L111.1 468.7L117.2 464.2L123.2 464.4L129.2 434.6L135.2 431.3L141.3 428.2L147.3 417.9L153.3 407.1L159.3 398.7L165.4 399.3L171.4 390L177.4 388.3L183.4 387.1L189.5 369.5L195.5 360.5L201.5 283.3L207.5 344.3L213.6 336.4L237.7 331.8L243.7 325.3L249.7 314L255.7 321.5L261.8 294.9L267.8 293L273.8 300.1L279.8 303.4L285.9 306.5L291.9 297.5L297.9 287.2L303.9 287.9L310 272.6L316 277.3L322 290.5L328 289.4L334.1 283.9L340.1 286.5L346.1 290.6L352.1 278.5L358.2 286.7L364.2 287.7L370.2 287.2L376.2 279.4L382.3 279.6L388.3 279.9L394.3 277.8L400.3 272.3L406.4 269.6L412.4 266L418.4 272.7L424.4 264L430.5 257.6L436.5 245.8L454.6 232.3L460.6 234.1L466.6 224.1L472.6 213.8L478.7 215.9L484.7 210.3L490.7 203.5L496.7 205.6L502.8 181.2L508.8 192.9L514.8 182.8L520.8 192.2L526.8 185.5L532.9 184.1L538.9 192.3L544.9 199.6L550.9 196.6L557 197.8L563 192.5L569 194.7L575 181.6L581.1 183.9L587.1 185.5L593.1 178L599.1 174.2L605.2 166.1L611.2 162.5L617.2 159.3L623.2 151.4L629.3 154.7L635.3 155.2L641.3 152.1L647.3 151.5L653.4 135.3L659.4 133.4L665.4 127.5L671.4 127L677.5 127.1L683.5 123.1" stroke="rgb(213, 178, 52)" stroke-opacity="0.7" stroke-width="0.5" fill="none"></path></g></g></g><g class="SourcesFooter" style="fill:#777"><g class="clickable" style="fill:#777"><text font-size="12.60" x="15.0" y="581.6"><tspan x="15" y="581.58">Source: Centre for Diseases Control (CDC)</tspan></text></g><text font-size="12.60" x="775.4" y="581.6"><tspan x="775.402" y="581.58"><a style="fill: #777;" class="cclogo" href="http://creativecommons.org/licenses/by-sa/4.0/deed.en_US" target="_blank">CC BY-SA</a></tspan></text></g></g></svg>