<svg xmlns="http://www.w3.org/2000/svg" version="1.1" style="font-family:&#x27;Helvetica Neue&#x27;, Helvetica, Arial, sans-serif;font-size:18px;background-color:white;text-rendering:optimizeLegibility;-webkit-font-smoothing:antialiased" width="850" height="600"><g class="ChartTab"><g class="HeaderView"><g opacity="0.8" transform="translate(778, 15) scale(0.27)"><a xmlns:xlink="http://www.w3.org/1999/xlink" xlink:href="https://ourworldindata.org" target="_blank"><g><rect x="0" y="0" fill="#1B2543" width="211.2" height="130.1"/><rect x="0" y="112.2" fill="#E63912" width="211.2" height="17.9"/><g><rect x="1.2" y="12.3" fill="none" width="210.2" height="99.2"/><path fill="#FFFFFF" d="M37.8,32.2c0,12.7-7.7,19.4-17.1,19.4c-9.7,0-16.6-7.5-16.6-18.7c0-11.7,7.3-19.3,17.1-19.3 C31.3,13.7,37.8,21.3,37.8,32.2z M9.2,32.8c0,7.9,4.3,14.9,11.8,14.9c7.5,0,11.8-6.9,11.8-15.3c0-7.3-3.8-14.9-11.8-14.9 C13.1,17.5,9.2,24.8,9.2,32.8z"/><path fill="#FFFFFF" d="M62.7,43.8c0,2.7,0.1,5.1,0.2,7.2h-4.3l-0.3-4.3h-0.1c-1.3,2.1-4,4.9-8.8,4.9c-4.2,0-9.1-2.3-9.1-11.6 V24.6h4.8v14.6c0,5,1.5,8.4,5.9,8.4c3.2,0,5.5-2.2,6.3-4.4c0.3-0.7,0.4-1.6,0.4-2.5V24.6h4.8V43.8z"/><path fill="#FFFFFF" d="M67.3,32.8c0-3.1-0.1-5.8-0.2-8.2h4.2l0.2,5.2h0.2c1.2-3.5,4.1-5.8,7.3-5.8c0.5,0,0.9,0.1,1.4,0.2v4.5 c-0.5-0.1-1-0.2-1.6-0.2c-3.4,0-5.8,2.6-6.5,6.2c-0.1,0.7-0.2,1.4-0.2,2.2V51h-4.8V32.8z"/><path fill="#FFFFFF" d="M95.4,51l-9.4-36.8h5l4.4,18.6c1.1,4.6,2.1,9.2,2.7,12.7h0.1c0.6-3.7,1.8-8,3-12.8l4.9-18.5h5l4.5,18.7 c1,4.4,2,8.7,2.6,12.6h0.1c0.8-4,1.8-8.1,3-12.7l4.9-18.5h4.9L120.6,51h-5L111,31.9c-1.1-4.7-1.9-8.3-2.4-12h-0.1 c-0.7,3.7-1.5,7.3-2.8,12L100.4,51H95.4z"/><path fill="#FFFFFF" d="M154.9,37.6c0,9.8-6.8,14-13.2,14c-7.2,0-12.7-5.2-12.7-13.6c0-8.8,5.8-14,13.1-14 C149.8,24,154.9,29.5,154.9,37.6z M133.9,37.9c0,5.8,3.3,10.1,8,10.1c4.6,0,8-4.3,8-10.3c0-4.5-2.2-10.1-7.9-10.1 C136.3,27.6,133.9,32.8,133.9,37.9z"/><path fill="#FFFFFF" d="M158.2,32.8c0-3.1-0.1-5.8-0.2-8.2h4.2l0.2,5.2h0.2c1.2-3.5,4.1-5.8,7.3-5.8c0.5,0,0.9,0.1,1.4,0.2v4.5 c-0.5-0.1-1-0.2-1.6-0.2c-3.4,0-5.8,2.6-6.5,6.2c-0.1,0.7-0.2,1.4-0.2,2.2V51h-4.8V32.8z"/><path fill="#FFFFFF" d="M173.5,12.3h4.8V51h-4.8V12.3z"/><path fill="#FFFFFF" d="M206.5,12.3v31.9c0,2.3,0.1,5,0.2,6.8h-4.3l-0.2-4.6H202c-1.5,2.9-4.7,5.2-9,5.2 c-6.4,0-11.3-5.4-11.3-13.4c-0.1-8.8,5.4-14.2,11.9-14.2c4,0,6.8,1.9,8,4h0.1V12.3H206.5z M201.7,35.4c0-0.6-0.1-1.4-0.2-2 c-0.7-3.1-3.3-5.6-6.9-5.6c-5,0-7.9,4.4-7.9,10.2c0,5.3,2.6,9.8,7.8,9.8c3.2,0,6.2-2.1,7.1-5.7c0.2-0.7,0.2-1.3,0.2-2.1V35.4z"/><path fill="#FFFFFF" d="M42.8,64c0.1,1.6-1.1,2.9-3.1,2.9c-1.7,0-2.9-1.3-2.9-2.9c0-1.7,1.3-3,3-3C41.7,61,42.8,62.3,42.8,64z M37.4,97.8V71.4h4.8v26.4H37.4z"/><path fill="#FFFFFF" d="M47.5,78.6c0-2.7-0.1-5-0.2-7.1h4.3l0.3,4.4h0.1c1.3-2.5,4.4-5,8.8-5c3.7,0,9.4,2.2,9.4,11.2v15.8h-4.8 V82.6c0-4.3-1.6-7.8-6.1-7.8c-3.2,0-5.6,2.2-6.5,4.9c-0.2,0.6-0.3,1.4-0.3,2.2v15.9h-4.8V78.6z"/><path fill="#FFFFFF" d="M84,61.6c2.9-0.4,6.3-0.8,10.1-0.8c6.8,0,11.7,1.6,14.9,4.6c3.3,3,5.2,7.3,5.2,13.2c0,6-1.9,10.9-5.3,14.3 c-3.4,3.4-9.1,5.3-16.3,5.3c-3.4,0-6.2-0.2-8.6-0.4V61.6z M88.8,94.1c1.2,0.2,3,0.3,4.8,0.3c10.2,0,15.7-5.7,15.7-15.6 c0.1-8.7-4.9-14.2-14.9-14.2c-2.5,0-4.3,0.2-5.6,0.5V94.1z"/><path fill="#FFFFFF" d="M132.1,97.8l-0.4-3.3h-0.2c-1.5,2.1-4.3,3.9-8.1,3.9c-5.4,0-8.1-3.8-8.1-7.6c0-6.4,5.7-9.9,15.9-9.8v-0.5 c0-2.2-0.6-6.1-6-6.1c-2.5,0-5,0.8-6.9,2l-1.1-3.2c2.2-1.4,5.4-2.3,8.7-2.3c8.1,0,10.1,5.5,10.1,10.8v9.9c0,2.3,0.1,4.5,0.4,6.3 H132.1z M131.4,84.4c-5.3-0.1-11.2,0.8-11.2,5.9c0,3.1,2.1,4.6,4.5,4.6c3.4,0,5.6-2.2,6.4-4.4c0.2-0.5,0.3-1,0.3-1.5V84.4z"/><path fill="#FFFFFF" d="M146.6,63.9v7.6h6.9v3.7h-6.9v14.2c0,3.3,0.9,5.1,3.6,5.1c1.3,0,2.2-0.2,2.8-0.3l0.2,3.6 c-0.9,0.4-2.4,0.7-4.3,0.7c-2.2,0-4-0.7-5.2-2c-1.4-1.4-1.9-3.8-1.9-6.9V75.1h-4.1v-3.7h4.1v-6.3L146.6,63.9z"/><path fill="#FFFFFF" d="M171.4,97.8l-0.4-3.3h-0.2c-1.5,2.1-4.3,3.9-8.1,3.9c-5.4,0-8.1-3.8-8.1-7.6c0-6.4,5.7-9.9,15.9-9.8v-0.5 c0-2.2-0.6-6.1-6-6.1c-2.5,0-5,0.8-6.9,2l-1.1-3.2c2.2-1.4,5.4-2.3,8.7-2.3c8.1,0,10.1,5.5,10.1,10.8v9.9c0,2.3,0.1,4.5,0.4,6.3 H171.4z M170.7,84.4c-5.3-0.1-11.2,0.8-11.2,5.9c0,3.1,2.1,4.6,4.5,4.6c3.4,0,5.6-2.2,6.4-4.4c0.2-0.5,0.3-1,0.3-1.5V84.4z"/></g></g></a></g><a href="https://ourworldindata.org/grapher/various-sources-of-the-total-value-of-exports-as-a-share-of-gdp?country=CHN" target="_blank"><text font-size="25.20" x="15.0" y="35.2" fill="#555"><tspan x="15" y="35.160000000000004">Various sources of merchandise trade as a share of GDP, China</tspan></text></a><text font-size="14.40" x="15.0" y="53.7" fill="#666"><tspan x="15" y="53.72">Figure corresponds to various data sources detailing the total value of exports as a share of the country&#x27;s GDP. See</tspan><tspan x="15" y="69.56">the Source tab for further details on each data series.</tspan></text></g><g class="LineChart"><defs><clipPath id="boundsClip-654"><rect x="42.562" y="0" width="830" height="928.8"></rect></clipPath></defs><g class="AxisBoxView"><g class="HorizontalAxis"><text x="52.6" y="556.5" fill="#666" text-anchor="middle" font-size="16.2">1955</text><text x="103.1" y="556.5" fill="#666" text-anchor="middle" font-size="16.2">1960</text><text x="204.2" y="556.5" fill="#666" text-anchor="middle" font-size="16.2">1970</text><text x="305.3" y="556.5" fill="#666" text-anchor="middle" font-size="16.2">1980</text><text x="406.4" y="556.5" fill="#666" text-anchor="middle" font-size="16.2">1990</text><text x="507.4" y="556.5" fill="#666" text-anchor="middle" font-size="16.2">2000</text><text x="608.5" y="556.5" fill="#666" text-anchor="middle" font-size="16.2">2010</text><text x="669.2" y="556.5" fill="#666" text-anchor="middle" font-size="16.2">2016</text></g><g class="VerticalAxis"><text x="47.56" y="446.1" fill="#666" dominant-baseline="middle" text-anchor="end" font-size="16.2">10%</text><text x="47.56" y="350.8" fill="#666" dominant-baseline="middle" text-anchor="end" font-size="16.2">20%</text><text x="47.56" y="255.4" fill="#666" dominant-baseline="middle" text-anchor="end" font-size="16.2">30%</text><text x="47.56" y="160" fill="#666" dominant-baseline="middle" text-anchor="end" font-size="16.2">40%</text></g><g class="AxisGridLines"><line x1="52.56" y1="446.1" x2="669.18" y2="446.1" stroke="#ddd" stroke-dasharray="3,2"></line><line x1="52.56" y1="350.8" x2="669.18" y2="350.8" stroke="#ddd" stroke-dasharray="3,2"></line><line x1="52.56" y1="255.4" x2="669.18" y2="255.4" stroke="#ddd" stroke-dasharray="3,2"></line><line x1="52.56" y1="160" x2="669.18" y2="160" stroke="#ddd" stroke-dasharray="3,2"></line></g></g><g clip-path="url(#boundsClip-654)"><g class="HeightedLegend clickable"><g class="legendMark"><g class="indicator"><line x1="674.185" y1="223.7" x2="686.685" y2="223.7" stroke="#666" stroke-width="0.5"></line><line x1="686.685" y1="223.7" x2="686.685" y2="223.7" stroke="#666" stroke-width="0.5"></line><line x1="686.685" y1="223.7" x2="699.185" y2="223.7" stroke="#666" stroke-width="0.5"></line></g><rect x="669.185" y="216.95" width="165.815" height="13.5" fill="#fff" opacity="0"></rect><text font-size="13.50" x="704.2" y="227.8" fill="#34983f"><tspan x="704.185" y="227.75">NBER-United Nations</tspan></text></g><g class="legendMark"><g class="indicator"><line x1="674.185" y1="282.2" x2="686.685" y2="282.2" stroke="#666" stroke-width="0.5"></line><line x1="686.685" y1="282.2" x2="686.685" y2="282.2" stroke="#666" stroke-width="0.5"></line><line x1="686.685" y1="282.2" x2="699.185" y2="282.2" stroke="#666" stroke-width="0.5"></line></g><rect x="669.185" y="275.45" width="67.94" height="13.5" fill="#fff" opacity="0"></rect><text font-size="13.50" x="704.2" y="286.3" fill="#9ecc8a"><tspan x="704.185" y="286.25">COW</tspan></text></g><g class="legendMark"><g class="indicator"><line x1="674.185" y1="323.2" x2="686.685" y2="323.2" stroke="#666" stroke-width="0.5"></line><line x1="686.685" y1="323.2" x2="686.685" y2="323.2" stroke="#666" stroke-width="0.5"></line><line x1="686.685" y1="323.2" x2="699.185" y2="323.2" stroke="#666" stroke-width="0.5"></line></g><rect x="669.185" y="316.45" width="70.37" height="13.5" fill="#fff" opacity="0"></rect><text font-size="13.50" x="704.2" y="327.3" fill="#ffd53e"><tspan x="704.185" y="327.25">CEPII</tspan></text></g><g class="legendMark"><g class="indicator"><line x1="674.185" y1="359.6" x2="696.685" y2="359.6" stroke="#666" stroke-width="0.5"></line><line x1="696.685" y1="359.6" x2="696.685" y2="359.6" stroke="#666" stroke-width="0.5"></line><line x1="696.685" y1="359.6" x2="699.185" y2="359.6" stroke="#666" stroke-width="0.5"></line></g><rect x="669.185" y="352.85" width="58.22" height="13.5" fill="#fff" opacity="0"></rect><text font-size="13.50" x="704.2" y="363.7" fill="#ca2628"><tspan x="704.185" y="363.65000000000003">IMF</tspan></text></g><g class="legendMark"><g class="indicator"><line x1="674.185" y1="361.1" x2="691.685" y2="361.1" stroke="#666" stroke-width="0.5"></line><line x1="691.685" y1="361.1" x2="691.685" y2="375.1" stroke="#666" stroke-width="0.5"></line><line x1="691.685" y1="375.1" x2="699.185" y2="375.1" stroke="#666" stroke-width="0.5"></line></g><rect x="669.185" y="368.35" width="74.015" height="13.5" fill="#fff" opacity="0"></rect><text font-size="13.50" x="704.2" y="379.2" fill="#e6332e"><tspan x="704.185" y="379.15000000000003">OECD</tspan></text></g><g class="legendMark"><g class="indicator"><line x1="674.185" y1="362.8" x2="686.685" y2="362.8" stroke="#666" stroke-width="0.5"></line><line x1="686.685" y1="362.8" x2="686.685" y2="390.6" stroke="#666" stroke-width="0.5"></line><line x1="686.685" y1="390.6" x2="699.185" y2="390.6" stroke="#666" stroke-width="0.5"></line></g><rect x="669.185" y="383.85" width="66.455" height="13.5" fill="#fff" opacity="0"></rect><text font-size="13.50" x="704.2" y="394.7" fill="#2a939b"><tspan x="704.185" y="394.65000000000003">WTO</tspan></text></g><g class="legendMark"><g class="indicator"><line x1="674.185" y1="372.1" x2="681.685" y2="372.1" stroke="#666" stroke-width="0.5"></line><line x1="681.685" y1="372.1" x2="681.685" y2="406.1" stroke="#666" stroke-width="0.5"></line><line x1="681.685" y1="406.1" x2="699.185" y2="406.1" stroke="#666" stroke-width="0.5"></line></g><rect x="669.185" y="399.35" width="104.93" height="13.5" fill="#fff" opacity="0"></rect><text font-size="13.50" x="704.2" y="410.2" fill="#3360a9"><tspan x="704.185" y="410.15000000000003">World Bank</tspan></text></g></g><g class="Lines"><rect x="53" y="92" width="617" height="443" fill="rgba(255,255,255,0)" opacity="0"></rect><g class="key-China_2"><path stroke="#3360a9" stroke-linecap="round" d="M326 443L336 456L346 454L356 464L366 460L376 420L386 416L396 423L406 405L417 395L427 386L437 379L447 368L457 375L467 375L477 459L487 468L497 469L507 454L518 457L528 447L538 319L548 285L558 252L568 230L578 238L588 262L598 331L609 309L619 314L629 322L639 328L649 337L659 357L669 372" fill="none" stroke-width="1.5"></path><g fill="#3360a9"><circle cx="326" cy="443" r="2"></circle><circle cx="336" cy="456" r="2"></circle><circle cx="346" cy="454" r="2"></circle><circle cx="356" cy="464" r="2"></circle><circle cx="366" cy="460" r="2"></circle><circle cx="376" cy="420" r="2"></circle><circle cx="386" cy="416" r="2"></circle><circle cx="396" cy="423" r="2"></circle><circle cx="406" cy="405" r="2"></circle><circle cx="417" cy="395" r="2"></circle><circle cx="427" cy="386" r="2"></circle><circle cx="437" cy="379" r="2"></circle><circle cx="447" cy="368" r="2"></circle><circle cx="457" cy="375" r="2"></circle><circle cx="467" cy="375" r="2"></circle><circle cx="477" cy="459" r="2"></circle><circle cx="487" cy="468" r="2"></circle><circle cx="497" cy="469" r="2"></circle><circle cx="507" cy="454" r="2"></circle><circle cx="518" cy="457" r="2"></circle><circle cx="528" cy="447" r="2"></circle><circle cx="538" cy="319" r="2"></circle><circle cx="548" cy="285" r="2"></circle><circle cx="558" cy="252" r="2"></circle><circle cx="568" cy="230" r="2"></circle><circle cx="578" cy="238" r="2"></circle><circle cx="588" cy="262" r="2"></circle><circle cx="598" cy="331" r="2"></circle><circle cx="609" cy="309" r="2"></circle><circle cx="619" cy="314" r="2"></circle><circle cx="629" cy="322" r="2"></circle><circle cx="639" cy="328" r="2"></circle><circle cx="649" cy="337" r="2"></circle><circle cx="659" cy="357" r="2"></circle><circle cx="669" cy="372" r="2"></circle></g></g><g class="key-China_6"><path stroke="#ca2628" stroke-linecap="round" d="M113 533L285 480L295 469L305 451L315 437L326 440L336 450L346 450L356 457L366 442L376 404L386 396L396 396L406 376L417 363L427 350L437 345L447 337L457 348L467 375L477 360L487 371L497 372L507 345L518 352L528 330L538 290L548 252L558 224L568 206L578 215L588 245L598 317L609 295L619 302L629 313L639 322L649 328L659 345L669 360" fill="none" stroke-width="1.5"></path><g fill="#ca2628"><circle cx="113" cy="533" r="2"></circle><circle cx="285" cy="480" r="2"></circle><circle cx="295" cy="469" r="2"></circle><circle cx="305" cy="451" r="2"></circle><circle cx="315" cy="437" r="2"></circle><circle cx="326" cy="440" r="2"></circle><circle cx="336" cy="450" r="2"></circle><circle cx="346" cy="450" r="2"></circle><circle cx="356" cy="457" r="2"></circle><circle cx="366" cy="442" r="2"></circle><circle cx="376" cy="404" r="2"></circle><circle cx="386" cy="396" r="2"></circle><circle cx="396" cy="396" r="2"></circle><circle cx="406" cy="376" r="2"></circle><circle cx="417" cy="363" r="2"></circle><circle cx="427" cy="350" r="2"></circle><circle cx="437" cy="345" r="2"></circle><circle cx="447" cy="337" r="2"></circle><circle cx="457" cy="348" r="2"></circle><circle cx="467" cy="375" r="2"></circle><circle cx="477" cy="360" r="2"></circle><circle cx="487" cy="371" r="2"></circle><circle cx="497" cy="372" r="2"></circle><circle cx="507" cy="345" r="2"></circle><circle cx="518" cy="352" r="2"></circle><circle cx="528" cy="330" r="2"></circle><circle cx="538" cy="290" r="2"></circle><circle cx="548" cy="252" r="2"></circle><circle cx="558" cy="224" r="2"></circle><circle cx="568" cy="206" r="2"></circle><circle cx="578" cy="215" r="2"></circle><circle cx="588" cy="245" r="2"></circle><circle cx="598" cy="317" r="2"></circle><circle cx="609" cy="295" r="2"></circle><circle cx="619" cy="302" r="2"></circle><circle cx="629" cy="313" r="2"></circle><circle cx="639" cy="322" r="2"></circle><circle cx="649" cy="328" r="2"></circle><circle cx="659" cy="345" r="2"></circle><circle cx="669" cy="360" r="2"></circle></g></g><g class="key-China_7"><path stroke="#ffd53e" stroke-linecap="round" d="M53 510L63 492L73 495L83 495L93 492L103 500L113 504L123 502L133 503L144 505L154 506L164 508L174 510L184 510L194 512L204 518L214 515L224 510L235 501L245 494L255 496L265 500L275 500L285 479L295 468L305 448L315 428L326 434L336 447L346 443L356 446L366 428L376 376L386 357L396 339L406 305L417 260L427 235L437 200L447 217L457 239L467 260L477 261L487 276L497 264L507 231L518 251L528 232L538 197L548 157L558 130L568 129L578 152L588 196L598 275L609 258L619 279L629 300L639 317L649 323" fill="none" stroke-width="1.5"></path><g fill="#ffd53e"><circle cx="53" cy="510" r="2"></circle><circle cx="63" cy="492" r="2"></circle><circle cx="73" cy="495" r="2"></circle><circle cx="83" cy="495" r="2"></circle><circle cx="93" cy="492" r="2"></circle><circle cx="103" cy="500" r="2"></circle><circle cx="113" cy="504" r="2"></circle><circle cx="123" cy="502" r="2"></circle><circle cx="133" cy="503" r="2"></circle><circle cx="144" cy="505" r="2"></circle><circle cx="154" cy="506" r="2"></circle><circle cx="164" cy="508" r="2"></circle><circle cx="174" cy="510" r="2"></circle><circle cx="184" cy="510" r="2"></circle><circle cx="194" cy="512" r="2"></circle><circle cx="204" cy="518" r="2"></circle><circle cx="214" cy="515" r="2"></circle><circle cx="224" cy="510" r="2"></circle><circle cx="235" cy="501" r="2"></circle><circle cx="245" cy="494" r="2"></circle><circle cx="255" cy="496" r="2"></circle><circle cx="265" cy="500" r="2"></circle><circle cx="275" cy="500" r="2"></circle><circle cx="285" cy="479" r="2"></circle><circle cx="295" cy="468" r="2"></circle><circle cx="305" cy="448" r="2"></circle><circle cx="315" cy="428" r="2"></circle><circle cx="326" cy="434" r="2"></circle><circle cx="336" cy="447" r="2"></circle><circle cx="346" cy="443" r="2"></circle><circle cx="356" cy="446" r="2"></circle><circle cx="366" cy="428" r="2"></circle><circle cx="376" cy="376" r="2"></circle><circle cx="386" cy="357" r="2"></circle><circle cx="396" cy="339" r="2"></circle><circle cx="406" cy="305" r="2"></circle><circle cx="417" cy="260" r="2"></circle><circle cx="427" cy="235" r="2"></circle><circle cx="437" cy="200" r="2"></circle><circle cx="447" cy="217" r="2"></circle><circle cx="457" cy="239" r="2"></circle><circle cx="467" cy="260" r="2"></circle><circle cx="477" cy="261" r="2"></circle><circle cx="487" cy="276" r="2"></circle><circle cx="497" cy="264" r="2"></circle><circle cx="507" cy="231" r="2"></circle><circle cx="518" cy="251" r="2"></circle><circle cx="528" cy="232" r="2"></circle><circle cx="538" cy="197" r="2"></circle><circle cx="548" cy="157" r="2"></circle><circle cx="558" cy="130" r="2"></circle><circle cx="568" cy="129" r="2"></circle><circle cx="578" cy="152" r="2"></circle><circle cx="588" cy="196" r="2"></circle><circle cx="598" cy="275" r="2"></circle><circle cx="609" cy="258" r="2"></circle><circle cx="619" cy="279" r="2"></circle><circle cx="629" cy="300" r="2"></circle><circle cx="639" cy="317" r="2"></circle><circle cx="649" cy="323" r="2"></circle></g></g><g class="key-China_5"><path stroke="#9ecc8a" stroke-linecap="round" d="M53 507L63 506L73 508L83 508L93 507L103 531L113 533L123 511L133 510L144 510L154 511L164 512L174 513L184 513L194 515L204 518L214 516L224 512L235 501L245 495L255 499L265 499L275 500L285 480L295 469L305 450L315 437L326 439L336 450L346 450L356 458L366 442L376 403L386 395L396 396L406 376L417 362L427 351L437 344L447 337L457 348L467 374L477 360L487 371L497 217L507 183L518 213L528 198L538 158L548 121L558 99L568 92L578 118L588 169L598 256L609 231L619 245L629 261L639 273L649 282" fill="none" stroke-width="1.5"></path><g fill="#9ecc8a"><circle cx="53" cy="507" r="2"></circle><circle cx="63" cy="506" r="2"></circle><circle cx="73" cy="508" r="2"></circle><circle cx="83" cy="508" r="2"></circle><circle cx="93" cy="507" r="2"></circle><circle cx="103" cy="531" r="2"></circle><circle cx="113" cy="533" r="2"></circle><circle cx="123" cy="511" r="2"></circle><circle cx="133" cy="510" r="2"></circle><circle cx="144" cy="510" r="2"></circle><circle cx="154" cy="511" r="2"></circle><circle cx="164" cy="512" r="2"></circle><circle cx="174" cy="513" r="2"></circle><circle cx="184" cy="513" r="2"></circle><circle cx="194" cy="515" r="2"></circle><circle cx="204" cy="518" r="2"></circle><circle cx="214" cy="516" r="2"></circle><circle cx="224" cy="512" r="2"></circle><circle cx="235" cy="501" r="2"></circle><circle cx="245" cy="495" r="2"></circle><circle cx="255" cy="499" r="2"></circle><circle cx="265" cy="499" r="2"></circle><circle cx="275" cy="500" r="2"></circle><circle cx="285" cy="480" r="2"></circle><circle cx="295" cy="469" r="2"></circle><circle cx="305" cy="450" r="2"></circle><circle cx="315" cy="437" r="2"></circle><circle cx="326" cy="439" r="2"></circle><circle cx="336" cy="450" r="2"></circle><circle cx="346" cy="450" r="2"></circle><circle cx="356" cy="458" r="2"></circle><circle cx="366" cy="442" r="2"></circle><circle cx="376" cy="403" r="2"></circle><circle cx="386" cy="395" r="2"></circle><circle cx="396" cy="396" r="2"></circle><circle cx="406" cy="376" r="2"></circle><circle cx="417" cy="362" r="2"></circle><circle cx="427" cy="351" r="2"></circle><circle cx="437" cy="344" r="2"></circle><circle cx="447" cy="337" r="2"></circle><circle cx="457" cy="348" r="2"></circle><circle cx="467" cy="374" r="2"></circle><circle cx="477" cy="360" r="2"></circle><circle cx="487" cy="371" r="2"></circle><circle cx="497" cy="217" r="2"></circle><circle cx="507" cy="183" r="2"></circle><circle cx="518" cy="213" r="2"></circle><circle cx="528" cy="198" r="2"></circle><circle cx="538" cy="158" r="2"></circle><circle cx="548" cy="121" r="2"></circle><circle cx="558" cy="99" r="2"></circle><circle cx="568" cy="92" r="2"></circle><circle cx="578" cy="118" r="2"></circle><circle cx="588" cy="169" r="2"></circle><circle cx="598" cy="256" r="2"></circle><circle cx="609" cy="231" r="2"></circle><circle cx="619" cy="245" r="2"></circle><circle cx="629" cy="261" r="2"></circle><circle cx="639" cy="273" r="2"></circle><circle cx="649" cy="282" r="2"></circle></g></g><g class="key-China_0"><path stroke="#34983f" stroke-linecap="round" d="M123 529L133 527L144 524L154 523L164 520L174 520L184 520L194 522L204 524L214 523L224 520L235 512L245 505L255 506L265 503L275 506L285 496L295 476L305 457L315 444L326 450L336 465L346 453L356 439L366 408L376 369L386 352L396 334L406 300L417 260L427 239L437 204L447 218L457 239L467 258L477 254L487 271L497 257L507 224" fill="none" stroke-width="1.5"></path><g fill="#34983f"><circle cx="123" cy="529" r="2"></circle><circle cx="133" cy="527" r="2"></circle><circle cx="144" cy="524" r="2"></circle><circle cx="154" cy="523" r="2"></circle><circle cx="164" cy="520" r="2"></circle><circle cx="174" cy="520" r="2"></circle><circle cx="184" cy="520" r="2"></circle><circle cx="194" cy="522" r="2"></circle><circle cx="204" cy="524" r="2"></circle><circle cx="214" cy="523" r="2"></circle><circle cx="224" cy="520" r="2"></circle><circle cx="235" cy="512" r="2"></circle><circle cx="245" cy="505" r="2"></circle><circle cx="255" cy="506" r="2"></circle><circle cx="265" cy="503" r="2"></circle><circle cx="275" cy="506" r="2"></circle><circle cx="285" cy="496" r="2"></circle><circle cx="295" cy="476" r="2"></circle><circle cx="305" cy="457" r="2"></circle><circle cx="315" cy="444" r="2"></circle><circle cx="326" cy="450" r="2"></circle><circle cx="336" cy="465" r="2"></circle><circle cx="346" cy="453" r="2"></circle><circle cx="356" cy="439" r="2"></circle><circle cx="366" cy="408" r="2"></circle><circle cx="376" cy="369" r="2"></circle><circle cx="386" cy="352" r="2"></circle><circle cx="396" cy="334" r="2"></circle><circle cx="406" cy="300" r="2"></circle><circle cx="417" cy="260" r="2"></circle><circle cx="427" cy="239" r="2"></circle><circle cx="437" cy="204" r="2"></circle><circle cx="447" cy="218" r="2"></circle><circle cx="457" cy="239" r="2"></circle><circle cx="467" cy="258" r="2"></circle><circle cx="477" cy="254" r="2"></circle><circle cx="487" cy="271" r="2"></circle><circle cx="497" cy="257" r="2"></circle><circle cx="507" cy="224" r="2"></circle></g></g><g class="key-China_3"><path stroke="#e6332e" stroke-linecap="round" d="M619 308L629 324L639 335L649 348L659 361" fill="none" stroke-width="1.5"></path><g fill="#e6332e"><circle cx="619" cy="308" r="2"></circle><circle cx="629" cy="324" r="2"></circle><circle cx="639" cy="335" r="2"></circle><circle cx="649" cy="348" r="2"></circle><circle cx="659" cy="361" r="2"></circle></g></g><g class="key-China_1"><path stroke="#2a939b" stroke-linecap="round" d="M103 500L113 505L123 503L133 503L144 506L154 507L164 508L174 510L184 510L194 512L204 518L214 515L224 511L235 501L245 495L255 497L265 499L275 501L285 478L295 469L305 451L315 434L326 438L336 450L346 446L356 457L366 443L376 404L386 396L396 397L406 377L417 363L427 352L437 345L447 337L457 348L467 375L477 360L487 371L497 372L507 345L518 352L528 330L538 290L548 252L558 224L568 206L578 214L588 245L598 317L609 295L619 302L629 313L639 322L649 328L659 346L669 363" fill="none" stroke-width="1.5"></path><g fill="#2a939b"><circle cx="103" cy="500" r="2"></circle><circle cx="113" cy="505" r="2"></circle><circle cx="123" cy="503" r="2"></circle><circle cx="133" cy="503" r="2"></circle><circle cx="144" cy="506" r="2"></circle><circle cx="154" cy="507" r="2"></circle><circle cx="164" cy="508" r="2"></circle><circle cx="174" cy="510" r="2"></circle><circle cx="184" cy="510" r="2"></circle><circle cx="194" cy="512" r="2"></circle><circle cx="204" cy="518" r="2"></circle><circle cx="214" cy="515" r="2"></circle><circle cx="224" cy="511" r="2"></circle><circle cx="235" cy="501" r="2"></circle><circle cx="245" cy="495" r="2"></circle><circle cx="255" cy="497" r="2"></circle><circle cx="265" cy="499" r="2"></circle><circle cx="275" cy="501" r="2"></circle><circle cx="285" cy="478" r="2"></circle><circle cx="295" cy="469" r="2"></circle><circle cx="305" cy="451" r="2"></circle><circle cx="315" cy="434" r="2"></circle><circle cx="326" cy="438" r="2"></circle><circle cx="336" cy="450" r="2"></circle><circle cx="346" cy="446" r="2"></circle><circle cx="356" cy="457" r="2"></circle><circle cx="366" cy="443" r="2"></circle><circle cx="376" cy="404" r="2"></circle><circle cx="386" cy="396" r="2"></circle><circle cx="396" cy="397" r="2"></circle><circle cx="406" cy="377" r="2"></circle><circle cx="417" cy="363" r="2"></circle><circle cx="427" cy="352" r="2"></circle><circle cx="437" cy="345" r="2"></circle><circle cx="447" cy="337" r="2"></circle><circle cx="457" cy="348" r="2"></circle><circle cx="467" cy="375" r="2"></circle><circle cx="477" cy="360" r="2"></circle><circle cx="487" cy="371" r="2"></circle><circle cx="497" cy="372" r="2"></circle><circle cx="507" cy="345" r="2"></circle><circle cx="518" cy="352" r="2"></circle><circle cx="528" cy="330" r="2"></circle><circle cx="538" cy="290" r="2"></circle><circle cx="548" cy="252" r="2"></circle><circle cx="558" cy="224" r="2"></circle><circle cx="568" cy="206" r="2"></circle><circle cx="578" cy="214" r="2"></circle><circle cx="588" cy="245" r="2"></circle><circle cx="598" cy="317" r="2"></circle><circle cx="609" cy="295" r="2"></circle><circle cx="619" cy="302" r="2"></circle><circle cx="629" cy="313" r="2"></circle><circle cx="639" cy="322" r="2"></circle><circle cx="649" cy="328" r="2"></circle><circle cx="659" cy="346" r="2"></circle><circle cx="669" cy="363" r="2"></circle></g></g></g></g></g><g class="SourcesFooter" style="fill:#777"><g class="clickable" style="fill:#777"><text font-size="12.60" x="15.0" y="581.6"><tspan x="15" y="581.58">Source: Fouquin and Hugot (CEPII 2016) CEPII Two Centuries of Bilateral Trade and Gravity Data</tspan></text></g><text font-size="12.60" x="775.4" y="581.6"><tspan x="775.402" y="581.58"><a style="fill: #777;" class="cclogo" href="http://creativecommons.org/licenses/by-sa/4.0/deed.en_US" target="_blank">CC BY-SA</a></tspan></text></g></g></svg>