<svg xmlns="http://www.w3.org/2000/svg" version="1.1" style="font-family:&#x27;Helvetica Neue&#x27;, Helvetica, Arial, sans-serif;font-size:18px;background-color:white;text-rendering:optimizeLegibility;-webkit-font-smoothing:antialiased" width="850" height="600"><g class="ChartTab"><g class="HeaderView"><g opacity="0.8" transform="translate(778, 15) scale(0.27)"><a xmlns:xlink="http://www.w3.org/1999/xlink" xlink:href="https://ourworldindata.org" target="_blank"><g><rect x="0" y="0" fill="#1B2543" width="211.2" height="130.1"/><rect x="0" y="112.2" fill="#E63912" width="211.2" height="17.9"/><g><rect x="1.2" y="12.3" fill="none" width="210.2" height="99.2"/><path fill="#FFFFFF" d="M37.8,32.2c0,12.7-7.7,19.4-17.1,19.4c-9.7,0-16.6-7.5-16.6-18.7c0-11.7,7.3-19.3,17.1-19.3 C31.3,13.7,37.8,21.3,37.8,32.2z M9.2,32.8c0,7.9,4.3,14.9,11.8,14.9c7.5,0,11.8-6.9,11.8-15.3c0-7.3-3.8-14.9-11.8-14.9 C13.1,17.5,9.2,24.8,9.2,32.8z"/><path fill="#FFFFFF" d="M62.7,43.8c0,2.7,0.1,5.1,0.2,7.2h-4.3l-0.3-4.3h-0.1c-1.3,2.1-4,4.9-8.8,4.9c-4.2,0-9.1-2.3-9.1-11.6 V24.6h4.8v14.6c0,5,1.5,8.4,5.9,8.4c3.2,0,5.5-2.2,6.3-4.4c0.3-0.7,0.4-1.6,0.4-2.5V24.6h4.8V43.8z"/><path fill="#FFFFFF" d="M67.3,32.8c0-3.1-0.1-5.8-0.2-8.2h4.2l0.2,5.2h0.2c1.2-3.5,4.1-5.8,7.3-5.8c0.5,0,0.9,0.1,1.4,0.2v4.5 c-0.5-0.1-1-0.2-1.6-0.2c-3.4,0-5.8,2.6-6.5,6.2c-0.1,0.7-0.2,1.4-0.2,2.2V51h-4.8V32.8z"/><path fill="#FFFFFF" d="M95.4,51l-9.4-36.8h5l4.4,18.6c1.1,4.6,2.1,9.2,2.7,12.7h0.1c0.6-3.7,1.8-8,3-12.8l4.9-18.5h5l4.5,18.7 c1,4.4,2,8.7,2.6,12.6h0.1c0.8-4,1.8-8.1,3-12.7l4.9-18.5h4.9L120.6,51h-5L111,31.9c-1.1-4.7-1.9-8.3-2.4-12h-0.1 c-0.7,3.7-1.5,7.3-2.8,12L100.4,51H95.4z"/><path fill="#FFFFFF" d="M154.9,37.6c0,9.8-6.8,14-13.2,14c-7.2,0-12.7-5.2-12.7-13.6c0-8.8,5.8-14,13.1-14 C149.8,24,154.9,29.5,154.9,37.6z M133.9,37.9c0,5.8,3.3,10.1,8,10.1c4.6,0,8-4.3,8-10.3c0-4.5-2.2-10.1-7.9-10.1 C136.3,27.6,133.9,32.8,133.9,37.9z"/><path fill="#FFFFFF" d="M158.2,32.8c0-3.1-0.1-5.8-0.2-8.2h4.2l0.2,5.2h0.2c1.2-3.5,4.1-5.8,7.3-5.8c0.5,0,0.9,0.1,1.4,0.2v4.5 c-0.5-0.1-1-0.2-1.6-0.2c-3.4,0-5.8,2.6-6.5,6.2c-0.1,0.7-0.2,1.4-0.2,2.2V51h-4.8V32.8z"/><path fill="#FFFFFF" d="M173.5,12.3h4.8V51h-4.8V12.3z"/><path fill="#FFFFFF" d="M206.5,12.3v31.9c0,2.3,0.1,5,0.2,6.8h-4.3l-0.2-4.6H202c-1.5,2.9-4.7,5.2-9,5.2 c-6.4,0-11.3-5.4-11.3-13.4c-0.1-8.8,5.4-14.2,11.9-14.2c4,0,6.8,1.9,8,4h0.1V12.3H206.5z M201.7,35.4c0-0.6-0.1-1.4-0.2-2 c-0.7-3.1-3.3-5.6-6.9-5.6c-5,0-7.9,4.4-7.9,10.2c0,5.3,2.6,9.8,7.8,9.8c3.2,0,6.2-2.1,7.1-5.7c0.2-0.7,0.2-1.3,0.2-2.1V35.4z"/><path fill="#FFFFFF" d="M42.8,64c0.1,1.6-1.1,2.9-3.1,2.9c-1.7,0-2.9-1.3-2.9-2.9c0-1.7,1.3-3,3-3C41.7,61,42.8,62.3,42.8,64z M37.4,97.8V71.4h4.8v26.4H37.4z"/><path fill="#FFFFFF" d="M47.5,78.6c0-2.7-0.1-5-0.2-7.1h4.3l0.3,4.4h0.1c1.3-2.5,4.4-5,8.8-5c3.7,0,9.4,2.2,9.4,11.2v15.8h-4.8 V82.6c0-4.3-1.6-7.8-6.1-7.8c-3.2,0-5.6,2.2-6.5,4.9c-0.2,0.6-0.3,1.4-0.3,2.2v15.9h-4.8V78.6z"/><path fill="#FFFFFF" d="M84,61.6c2.9-0.4,6.3-0.8,10.1-0.8c6.8,0,11.7,1.6,14.9,4.6c3.3,3,5.2,7.3,5.2,13.2c0,6-1.9,10.9-5.3,14.3 c-3.4,3.4-9.1,5.3-16.3,5.3c-3.4,0-6.2-0.2-8.6-0.4V61.6z M88.8,94.1c1.2,0.2,3,0.3,4.8,0.3c10.2,0,15.7-5.7,15.7-15.6 c0.1-8.7-4.9-14.2-14.9-14.2c-2.5,0-4.3,0.2-5.6,0.5V94.1z"/><path fill="#FFFFFF" d="M132.1,97.8l-0.4-3.3h-0.2c-1.5,2.1-4.3,3.9-8.1,3.9c-5.4,0-8.1-3.8-8.1-7.6c0-6.4,5.7-9.9,15.9-9.8v-0.5 c0-2.2-0.6-6.1-6-6.1c-2.5,0-5,0.8-6.9,2l-1.1-3.2c2.2-1.4,5.4-2.3,8.7-2.3c8.1,0,10.1,5.5,10.1,10.8v9.9c0,2.3,0.1,4.5,0.4,6.3 H132.1z M131.4,84.4c-5.3-0.1-11.2,0.8-11.2,5.9c0,3.1,2.1,4.6,4.5,4.6c3.4,0,5.6-2.2,6.4-4.4c0.2-0.5,0.3-1,0.3-1.5V84.4z"/><path fill="#FFFFFF" d="M146.6,63.9v7.6h6.9v3.7h-6.9v14.2c0,3.3,0.9,5.1,3.6,5.1c1.3,0,2.2-0.2,2.8-0.3l0.2,3.6 c-0.9,0.4-2.4,0.7-4.3,0.7c-2.2,0-4-0.7-5.2-2c-1.4-1.4-1.9-3.8-1.9-6.9V75.1h-4.1v-3.7h4.1v-6.3L146.6,63.9z"/><path fill="#FFFFFF" d="M171.4,97.8l-0.4-3.3h-0.2c-1.5,2.1-4.3,3.9-8.1,3.9c-5.4,0-8.1-3.8-8.1-7.6c0-6.4,5.7-9.9,15.9-9.8v-0.5 c0-2.2-0.6-6.1-6-6.1c-2.5,0-5,0.8-6.9,2l-1.1-3.2c2.2-1.4,5.4-2.3,8.7-2.3c8.1,0,10.1,5.5,10.1,10.8v9.9c0,2.3,0.1,4.5,0.4,6.3 H171.4z M170.7,84.4c-5.3-0.1-11.2,0.8-11.2,5.9c0,3.1,2.1,4.6,4.5,4.6c3.4,0,5.6-2.2,6.4-4.4c0.2-0.5,0.3-1,0.3-1.5V84.4z"/></g></g></a></g><a href="https://ourworldindata.org/grapher/women-in-informal-employment-as-share-of-female-employment" target="_blank"><text font-size="23.40" x="15.0" y="33.7" fill="#555"><tspan x="15" y="33.72">Women in informal employment as share of female employment, 2017</tspan></text></a><text font-size="14.40" x="15.0" y="51.9" fill="#666"><tspan x="15" y="51.919999999999995">Employment in the informal economy as a percentage of total non-agricultural employment. It basically includes all</tspan><tspan x="15" y="67.75999999999999">jobs in unregistered or small-scale private enterprises that produce goods or services for sale. Self-employed street</tspan><tspan x="15" y="83.6">vendors, taxi drivers and home-base workers, regardless of size, are all considered.</tspan></text></g><g class="DiscreteBarChart"><rect x="15" y="105.80000000000001" width="810" height="450.7" opacity="0" fill="rgba(255,255,255,0)"></rect><g class="HorizontalAxis"><text x="98.7" y="556.5" fill="#666" text-anchor="middle" font-size="16.2">0%</text><text x="243.3" y="556.5" fill="#666" text-anchor="middle" font-size="16.2">20%</text><text x="387.9" y="556.5" fill="#666" text-anchor="middle" font-size="16.2">40%</text><text x="532.5" y="556.5" fill="#666" text-anchor="middle" font-size="16.2">60%</text><text x="677.1" y="556.5" fill="#666" text-anchor="middle" font-size="16.2">80%</text></g><g class="AxisGridLines"><line x1="98.7" y1="535.30" x2="98.7" y2="105.80" stroke="#ccc"></line><line x1="243.3" y1="535.30" x2="243.3" y2="105.80" stroke="#ddd" stroke-dasharray="3,2"></line><line x1="387.9" y1="535.30" x2="387.9" y2="105.80" stroke="#ddd" stroke-dasharray="3,2"></line><line x1="532.5" y1="535.30" x2="532.5" y2="105.80" stroke="#ddd" stroke-dasharray="3,2"></line><line x1="677.1" y1="535.30" x2="677.1" y2="105.80" stroke="#ddd" stroke-dasharray="3,2"></line></g><g class="bar"><text x="93.691" y="118.07142857142858" fill="#666" dominant-baseline="middle" text-anchor="end" font-size="13.5">Uganda</text><rect x="98.7" y="105.80000000000001" width="623" height="24.542857142857144" fill="#2E5778" opacity="0.85"></rect><text x="726.7" y="118.07142857142858" fill="#666" dominant-baseline="middle" text-anchor="start" font-size="13.5">86.17% (in 2012)</text></g><g class="bar"><text x="93.691" y="148.75" fill="#666" dominant-baseline="middle" text-anchor="end" font-size="13.5">Indonesia</text><rect x="98.7" y="136.47857142857143" width="580.5" height="24.542857142857144" fill="#2E5778" opacity="0.85"></rect><text x="684.2" y="148.75" fill="#666" dominant-baseline="middle" text-anchor="start" font-size="13.5">80.29%</text></g><g class="bar"><text x="93.691" y="179.42857142857142" fill="#666" dominant-baseline="middle" text-anchor="end" font-size="13.5">Bolivia</text><rect x="98.7" y="167.15714285714284" width="576.4" height="24.542857142857144" fill="#2E5778" opacity="0.85"></rect><text x="680.1" y="179.42857142857142" fill="#666" dominant-baseline="middle" text-anchor="start" font-size="13.5">79.72%</text></g><g class="bar"><text x="93.691" y="210.10714285714283" fill="#666" dominant-baseline="middle" text-anchor="end" font-size="13.5">Pakistan</text><rect x="98.7" y="197.83571428571426" width="529" height="24.542857142857144" fill="#2E5778" opacity="0.85"></rect><text x="632.7" y="210.10714285714283" fill="#666" dominant-baseline="middle" text-anchor="start" font-size="13.5">73.17% (in 2015)</text></g><g class="bar"><text x="93.691" y="240.78571428571425" fill="#666" dominant-baseline="middle" text-anchor="end" font-size="13.5">Zimbabwe</text><rect x="98.7" y="228.51428571428568" width="527.1999999999999" height="24.542857142857144" fill="#2E5778" opacity="0.85"></rect><text x="630.9" y="240.78571428571425" fill="#666" dominant-baseline="middle" text-anchor="start" font-size="13.5">72.91% (in 2011)</text></g><g class="bar"><text x="93.691" y="271.46428571428567" fill="#666" dominant-baseline="middle" text-anchor="end" font-size="13.5">India</text><rect x="98.7" y="259.19285714285706" width="508.3" height="24.542857142857144" fill="#2E5778" opacity="0.85"></rect><text x="612" y="271.46428571428567" fill="#666" dominant-baseline="middle" text-anchor="start" font-size="13.5">70.3% (in 2012)</text></g><g class="bar"><text x="93.691" y="302.1428571428571" fill="#666" dominant-baseline="middle" text-anchor="end" font-size="13.5">Ecuador</text><rect x="98.7" y="289.8714285714285" width="485.00000000000006" height="24.542857142857144" fill="#2E5778" opacity="0.85"></rect><text x="588.7" y="302.1428571428571" fill="#666" dominant-baseline="middle" text-anchor="start" font-size="13.5">67.08%</text></g><g class="bar"><text x="93.691" y="332.82142857142856" fill="#666" dominant-baseline="middle" text-anchor="end" font-size="13.5">Peru</text><rect x="98.7" y="320.54999999999995" width="477.8" height="24.542857142857144" fill="#2E5778" opacity="0.85"></rect><text x="581.5" y="332.82142857142856" fill="#666" dominant-baseline="middle" text-anchor="start" font-size="13.5">66.08%</text></g><g class="bar"><text x="93.691" y="363.5" fill="#666" dominant-baseline="middle" text-anchor="end" font-size="13.5">Colombia</text><rect x="98.7" y="351.2285714285714" width="420.09999999999997" height="24.542857142857144" fill="#2E5778" opacity="0.85"></rect><text x="523.8" y="363.5" fill="#666" dominant-baseline="middle" text-anchor="start" font-size="13.5">58.11%</text></g><g class="bar"><text x="93.691" y="394.17857142857144" fill="#666" dominant-baseline="middle" text-anchor="end" font-size="13.5">Vietnam</text><rect x="98.7" y="381.90714285714284" width="372.40000000000003" height="24.542857142857144" fill="#2E5778" opacity="0.85"></rect><text x="476.1" y="394.17857142857144" fill="#666" dominant-baseline="middle" text-anchor="start" font-size="13.5">51.5%</text></g><g class="bar"><text x="93.691" y="424.8571428571429" fill="#666" dominant-baseline="middle" text-anchor="end" font-size="13.5">Panama</text><rect x="98.7" y="412.5857142857143" width="292.90000000000003" height="24.542857142857144" fill="#2E5778" opacity="0.85"></rect><text x="396.6" y="424.8571428571429" fill="#666" dominant-baseline="middle" text-anchor="start" font-size="13.5">40.51% (in 2016)</text></g><g class="bar"><text x="93.691" y="455.53571428571433" fill="#666" dominant-baseline="middle" text-anchor="end" font-size="13.5">Brazil</text><rect x="98.7" y="443.26428571428573" width="266.90000000000003" height="24.542857142857144" fill="#2E5778" opacity="0.85"></rect><text x="370.6" y="455.53571428571433" fill="#666" dominant-baseline="middle" text-anchor="start" font-size="13.5">36.91% (in 2015)</text></g><g class="bar"><text x="93.691" y="486.2142857142858" fill="#666" dominant-baseline="middle" text-anchor="end" font-size="13.5">South Africa</text><rect x="98.7" y="473.9428571428572" width="266.5" height="24.542857142857144" fill="#2E5778" opacity="0.85"></rect><text x="370.2" y="486.2142857142858" fill="#666" dominant-baseline="middle" text-anchor="start" font-size="13.5">36.86%</text></g><g class="bar"><text x="93.691" y="516.8928571428572" fill="#666" dominant-baseline="middle" text-anchor="end" font-size="13.5">Albania</text><rect x="98.7" y="504.6214285714286" width="174.5" height="24.542857142857144" fill="#2E5778" opacity="0.85"></rect><text x="278.2" y="516.8928571428572" fill="#666" dominant-baseline="middle" text-anchor="start" font-size="13.5">24.13% (in 2013)</text></g></g><g class="SourcesFooter" style="fill:#777"><g class="clickable" style="fill:#777"><text font-size="12.60" x="15.0" y="581.6"><tspan x="15" y="581.58">Source: World Bank</tspan></text></g><text font-size="12.60" x="416.1" y="581.6"><tspan x="416.05" y="581.58"><a target='_blank' style='fill: #777;' href='https://ourworldindata.org/female-labor-force-participation-key-facts'>OurWorldInData.org/female-labor-force-participation-key-facts</a> • <a style="fill: #777;" class="cclogo" href="http://creativecommons.org/licenses/by-sa/4.0/deed.en_US" target="_blank">CC BY-SA</a></tspan></text></g></g></svg>