<svg xmlns="http://www.w3.org/2000/svg" version="1.1" style="font-family:&#x27;Helvetica Neue&#x27;, Helvetica, Arial, sans-serif;font-size:18px;background-color:white;text-rendering:optimizeLegibility;-webkit-font-smoothing:antialiased" width="850" height="600"><g class="ChartTab"><g class="HeaderView"><g opacity="0.8" transform="translate(778, 15) scale(0.27)"><a xmlns:xlink="http://www.w3.org/1999/xlink" xlink:href="https://ourworldindata.org" target="_blank"><g><rect x="0" y="0" fill="#1B2543" width="211.2" height="130.1"/><rect x="0" y="112.2" fill="#E63912" width="211.2" height="17.9"/><g><rect x="1.2" y="12.3" fill="none" width="210.2" height="99.2"/><path fill="#FFFFFF" d="M37.8,32.2c0,12.7-7.7,19.4-17.1,19.4c-9.7,0-16.6-7.5-16.6-18.7c0-11.7,7.3-19.3,17.1-19.3 C31.3,13.7,37.8,21.3,37.8,32.2z M9.2,32.8c0,7.9,4.3,14.9,11.8,14.9c7.5,0,11.8-6.9,11.8-15.3c0-7.3-3.8-14.9-11.8-14.9 C13.1,17.5,9.2,24.8,9.2,32.8z"/><path fill="#FFFFFF" d="M62.7,43.8c0,2.7,0.1,5.1,0.2,7.2h-4.3l-0.3-4.3h-0.1c-1.3,2.1-4,4.9-8.8,4.9c-4.2,0-9.1-2.3-9.1-11.6 V24.6h4.8v14.6c0,5,1.5,8.4,5.9,8.4c3.2,0,5.5-2.2,6.3-4.4c0.3-0.7,0.4-1.6,0.4-2.5V24.6h4.8V43.8z"/><path fill="#FFFFFF" d="M67.3,32.8c0-3.1-0.1-5.8-0.2-8.2h4.2l0.2,5.2h0.2c1.2-3.5,4.1-5.8,7.3-5.8c0.5,0,0.9,0.1,1.4,0.2v4.5 c-0.5-0.1-1-0.2-1.6-0.2c-3.4,0-5.8,2.6-6.5,6.2c-0.1,0.7-0.2,1.4-0.2,2.2V51h-4.8V32.8z"/><path fill="#FFFFFF" d="M95.4,51l-9.4-36.8h5l4.4,18.6c1.1,4.6,2.1,9.2,2.7,12.7h0.1c0.6-3.7,1.8-8,3-12.8l4.9-18.5h5l4.5,18.7 c1,4.4,2,8.7,2.6,12.6h0.1c0.8-4,1.8-8.1,3-12.7l4.9-18.5h4.9L120.6,51h-5L111,31.9c-1.1-4.7-1.9-8.3-2.4-12h-0.1 c-0.7,3.7-1.5,7.3-2.8,12L100.4,51H95.4z"/><path fill="#FFFFFF" d="M154.9,37.6c0,9.8-6.8,14-13.2,14c-7.2,0-12.7-5.2-12.7-13.6c0-8.8,5.8-14,13.1-14 C149.8,24,154.9,29.5,154.9,37.6z M133.9,37.9c0,5.8,3.3,10.1,8,10.1c4.6,0,8-4.3,8-10.3c0-4.5-2.2-10.1-7.9-10.1 C136.3,27.6,133.9,32.8,133.9,37.9z"/><path fill="#FFFFFF" d="M158.2,32.8c0-3.1-0.1-5.8-0.2-8.2h4.2l0.2,5.2h0.2c1.2-3.5,4.1-5.8,7.3-5.8c0.5,0,0.9,0.1,1.4,0.2v4.5 c-0.5-0.1-1-0.2-1.6-0.2c-3.4,0-5.8,2.6-6.5,6.2c-0.1,0.7-0.2,1.4-0.2,2.2V51h-4.8V32.8z"/><path fill="#FFFFFF" d="M173.5,12.3h4.8V51h-4.8V12.3z"/><path fill="#FFFFFF" d="M206.5,12.3v31.9c0,2.3,0.1,5,0.2,6.8h-4.3l-0.2-4.6H202c-1.5,2.9-4.7,5.2-9,5.2 c-6.4,0-11.3-5.4-11.3-13.4c-0.1-8.8,5.4-14.2,11.9-14.2c4,0,6.8,1.9,8,4h0.1V12.3H206.5z M201.7,35.4c0-0.6-0.1-1.4-0.2-2 c-0.7-3.1-3.3-5.6-6.9-5.6c-5,0-7.9,4.4-7.9,10.2c0,5.3,2.6,9.8,7.8,9.8c3.2,0,6.2-2.1,7.1-5.7c0.2-0.7,0.2-1.3,0.2-2.1V35.4z"/><path fill="#FFFFFF" d="M42.8,64c0.1,1.6-1.1,2.9-3.1,2.9c-1.7,0-2.9-1.3-2.9-2.9c0-1.7,1.3-3,3-3C41.7,61,42.8,62.3,42.8,64z M37.4,97.8V71.4h4.8v26.4H37.4z"/><path fill="#FFFFFF" d="M47.5,78.6c0-2.7-0.1-5-0.2-7.1h4.3l0.3,4.4h0.1c1.3-2.5,4.4-5,8.8-5c3.7,0,9.4,2.2,9.4,11.2v15.8h-4.8 V82.6c0-4.3-1.6-7.8-6.1-7.8c-3.2,0-5.6,2.2-6.5,4.9c-0.2,0.6-0.3,1.4-0.3,2.2v15.9h-4.8V78.6z"/><path fill="#FFFFFF" d="M84,61.6c2.9-0.4,6.3-0.8,10.1-0.8c6.8,0,11.7,1.6,14.9,4.6c3.3,3,5.2,7.3,5.2,13.2c0,6-1.9,10.9-5.3,14.3 c-3.4,3.4-9.1,5.3-16.3,5.3c-3.4,0-6.2-0.2-8.6-0.4V61.6z M88.8,94.1c1.2,0.2,3,0.3,4.8,0.3c10.2,0,15.7-5.7,15.7-15.6 c0.1-8.7-4.9-14.2-14.9-14.2c-2.5,0-4.3,0.2-5.6,0.5V94.1z"/><path fill="#FFFFFF" d="M132.1,97.8l-0.4-3.3h-0.2c-1.5,2.1-4.3,3.9-8.1,3.9c-5.4,0-8.1-3.8-8.1-7.6c0-6.4,5.7-9.9,15.9-9.8v-0.5 c0-2.2-0.6-6.1-6-6.1c-2.5,0-5,0.8-6.9,2l-1.1-3.2c2.2-1.4,5.4-2.3,8.7-2.3c8.1,0,10.1,5.5,10.1,10.8v9.9c0,2.3,0.1,4.5,0.4,6.3 H132.1z M131.4,84.4c-5.3-0.1-11.2,0.8-11.2,5.9c0,3.1,2.1,4.6,4.5,4.6c3.4,0,5.6-2.2,6.4-4.4c0.2-0.5,0.3-1,0.3-1.5V84.4z"/><path fill="#FFFFFF" d="M146.6,63.9v7.6h6.9v3.7h-6.9v14.2c0,3.3,0.9,5.1,3.6,5.1c1.3,0,2.2-0.2,2.8-0.3l0.2,3.6 c-0.9,0.4-2.4,0.7-4.3,0.7c-2.2,0-4-0.7-5.2-2c-1.4-1.4-1.9-3.8-1.9-6.9V75.1h-4.1v-3.7h4.1v-6.3L146.6,63.9z"/><path fill="#FFFFFF" d="M171.4,97.8l-0.4-3.3h-0.2c-1.5,2.1-4.3,3.9-8.1,3.9c-5.4,0-8.1-3.8-8.1-7.6c0-6.4,5.7-9.9,15.9-9.8v-0.5 c0-2.2-0.6-6.1-6-6.1c-2.5,0-5,0.8-6.9,2l-1.1-3.2c2.2-1.4,5.4-2.3,8.7-2.3c8.1,0,10.1,5.5,10.1,10.8v9.9c0,2.3,0.1,4.5,0.4,6.3 H171.4z M170.7,84.4c-5.3-0.1-11.2,0.8-11.2,5.9c0,3.1,2.1,4.6,4.5,4.6c3.4,0,5.6-2.2,6.4-4.4c0.2-0.5,0.3-1,0.3-1.5V84.4z"/></g></g></a></g><a href="https://ourworldindata.org/grapher/womens-weekly-earnings-as-a-percentage-of-mens-by-age-bureau-of-labor-statistics-2017" target="_blank"><text font-size="23.40" x="15.0" y="33.7" fill="#555"><tspan x="15" y="33.72">Ratio of female-to-male median earnings by age, full-time workers, US</tspan></text></a><text font-size="14.40" x="15.0" y="51.9" fill="#666"><tspan x="15" y="51.919999999999995">Women&#x27;s weekly earnings as a share of men&#x27;s, by age group. Earnings ratios are the weekly median earnings of full</tspan><tspan x="15" y="67.75999999999999">time workers.</tspan></text></g><g class="LineChart"><defs><clipPath id="boundsClip-477"><rect x="51.634" y="0" width="830" height="932.4000000000001"></rect></clipPath></defs><g class="AxisBoxView"><g class="HorizontalAxis"><text x="61.6" y="556.5" fill="#666" text-anchor="middle" font-size="16.2">1979</text><text x="212.2" y="556.5" fill="#666" text-anchor="middle" font-size="16.2">1985</text><text x="337.6" y="556.5" fill="#666" text-anchor="middle" font-size="16.2">1990</text><text x="463.1" y="556.5" fill="#666" text-anchor="middle" font-size="16.2">1995</text><text x="588.5" y="556.5" fill="#666" text-anchor="middle" font-size="16.2">2000</text><text x="714" y="556.5" fill="#666" text-anchor="middle" font-size="16.2">2005</text></g><g class="VerticalAxis"><text x="56.63" y="535.3" fill="#666" dominant-baseline="middle" text-anchor="end" font-size="16.2">0%</text><text x="56.63" y="446.3" fill="#666" dominant-baseline="middle" text-anchor="end" font-size="16.2">20%</text><text x="56.63" y="357.3" fill="#666" dominant-baseline="middle" text-anchor="end" font-size="16.2">40%</text><text x="56.63" y="268.3" fill="#666" dominant-baseline="middle" text-anchor="end" font-size="16.2">60%</text><text x="56.63" y="179.3" fill="#666" dominant-baseline="middle" text-anchor="end" font-size="16.2">80%</text><text x="56.63" y="90.3" fill="#666" dominant-baseline="middle" text-anchor="end" font-size="16.2">100%</text></g><g class="AxisGridLines"><line x1="61.63" y1="535.3" x2="714.00" y2="535.3" stroke="#ccc"></line><line x1="61.63" y1="446.3" x2="714.00" y2="446.3" stroke="#ddd" stroke-dasharray="3,2"></line><line x1="61.63" y1="357.3" x2="714.00" y2="357.3" stroke="#ddd" stroke-dasharray="3,2"></line><line x1="61.63" y1="268.3" x2="714.00" y2="268.3" stroke="#ddd" stroke-dasharray="3,2"></line><line x1="61.63" y1="179.3" x2="714.00" y2="179.3" stroke="#ddd" stroke-dasharray="3,2"></line><line x1="61.63" y1="90.3" x2="714.00" y2="90.3" stroke="#ddd" stroke-dasharray="3,2"></line></g></g><g clip-path="url(#boundsClip-477)"><g class="HeightedLegend clickable"><g class="legendMark"><g class="indicator"><line x1="719.005" y1="120.6" x2="731.505" y2="120.6" stroke="#666" stroke-width="0.5"></line><line x1="731.505" y1="120.6" x2="731.505" y2="120.6" stroke="#666" stroke-width="0.5"></line><line x1="731.505" y1="120.6" x2="744.005" y2="120.6" stroke="#666" stroke-width="0.5"></line></g><rect x="714.005" y="113.85" width="120.995" height="13.5" fill="#fff" opacity="0"></rect><text font-size="13.50" x="749.0" y="124.6" fill="#f6a324"><tspan x="749.005" y="124.64999999999999">16 to 24 years</tspan></text></g><g class="legendMark"><g class="indicator"><line x1="719.005" y1="138.8" x2="731.505" y2="138.8" stroke="#666" stroke-width="0.5"></line><line x1="731.505" y1="138.8" x2="731.505" y2="138.8" stroke="#666" stroke-width="0.5"></line><line x1="731.505" y1="138.8" x2="744.005" y2="138.8" stroke="#666" stroke-width="0.5"></line></g><rect x="714.005" y="132.05" width="120.995" height="13.5" fill="#fff" opacity="0"></rect><text font-size="13.50" x="749.0" y="142.9" fill="#34983f"><tspan x="749.005" y="142.85000000000002">25 to 34 years</tspan></text></g><g class="legendMark"><g class="indicator"><line x1="719.005" y1="198.9" x2="741.505" y2="198.9" stroke="#666" stroke-width="0.5"></line><line x1="741.505" y1="198.9" x2="741.505" y2="198.9" stroke="#666" stroke-width="0.5"></line><line x1="741.505" y1="198.9" x2="744.005" y2="198.9" stroke="#666" stroke-width="0.5"></line></g><rect x="714.005" y="192.15" width="120.995" height="13.5" fill="#fff" opacity="0"></rect><text font-size="13.50" x="749.0" y="203.0" fill="#ca2628"><tspan x="749.005" y="202.95000000000002">35 to 44 years</tspan></text></g><g class="legendMark"><g class="indicator"><line x1="719.005" y1="199.8" x2="731.505" y2="199.8" stroke="#666" stroke-width="0.5"></line><line x1="731.505" y1="199.8" x2="731.505" y2="214.4" stroke="#666" stroke-width="0.5"></line><line x1="731.505" y1="214.4" x2="744.005" y2="214.4" stroke="#666" stroke-width="0.5"></line></g><rect x="714.005" y="207.65" width="120.995" height="13.5" fill="#fff" opacity="0"></rect><text font-size="13.50" x="749.0" y="218.5" fill="#3360a9"><tspan x="749.005" y="218.45000000000002">45 to 54 years</tspan></text></g></g><g class="Lines"><rect x="62" y="90" width="652" height="445" fill="rgba(255,255,255,0)" opacity="0"></rect><g class="key-16-to-24-years_0"><path stroke="#f6a324" stroke-linecap="round" d="M62 186L87 179L112 168L137 156L162 141L187 144L212 146L237 140L262 143L288 135L313 132L338 134L363 120L388 117L413 113L438 118L463 131L488 124L513 126L538 129L564 130L589 126L614 134L639 118L664 120L689 118L714 121" fill="none" stroke-width="1.5"></path><g fill="#f6a324"><circle cx="62" cy="186" r="2"></circle><circle cx="87" cy="179" r="2"></circle><circle cx="112" cy="168" r="2"></circle><circle cx="137" cy="156" r="2"></circle><circle cx="162" cy="141" r="2"></circle><circle cx="187" cy="144" r="2"></circle><circle cx="212" cy="146" r="2"></circle><circle cx="237" cy="140" r="2"></circle><circle cx="262" cy="143" r="2"></circle><circle cx="288" cy="135" r="2"></circle><circle cx="313" cy="132" r="2"></circle><circle cx="338" cy="134" r="2"></circle><circle cx="363" cy="120" r="2"></circle><circle cx="388" cy="117" r="2"></circle><circle cx="413" cy="113" r="2"></circle><circle cx="438" cy="118" r="2"></circle><circle cx="463" cy="131" r="2"></circle><circle cx="488" cy="124" r="2"></circle><circle cx="513" cy="126" r="2"></circle><circle cx="538" cy="129" r="2"></circle><circle cx="564" cy="130" r="2"></circle><circle cx="589" cy="126" r="2"></circle><circle cx="614" cy="134" r="2"></circle><circle cx="639" cy="118" r="2"></circle><circle cx="664" cy="120" r="2"></circle><circle cx="689" cy="118" r="2"></circle><circle cx="714" cy="121" r="2"></circle></g></g><g class="key-25-to-34-years_0"><path stroke="#34983f" stroke-linecap="round" d="M62 235L87 227L112 222L137 215L162 209L187 204L212 201L237 196L262 194L288 190L313 186L338 183L363 175L388 170L413 166L438 166L463 169L488 165L513 166L538 166L564 173L589 168L614 166L639 160L664 148L689 144L714 139" fill="none" stroke-width="1.5"></path><g fill="#34983f"><circle cx="62" cy="235" r="2"></circle><circle cx="87" cy="227" r="2"></circle><circle cx="112" cy="222" r="2"></circle><circle cx="137" cy="215" r="2"></circle><circle cx="162" cy="209" r="2"></circle><circle cx="187" cy="204" r="2"></circle><circle cx="212" cy="201" r="2"></circle><circle cx="237" cy="196" r="2"></circle><circle cx="262" cy="194" r="2"></circle><circle cx="288" cy="190" r="2"></circle><circle cx="313" cy="186" r="2"></circle><circle cx="338" cy="183" r="2"></circle><circle cx="363" cy="175" r="2"></circle><circle cx="388" cy="170" r="2"></circle><circle cx="413" cy="166" r="2"></circle><circle cx="438" cy="166" r="2"></circle><circle cx="463" cy="169" r="2"></circle><circle cx="488" cy="165" r="2"></circle><circle cx="513" cy="166" r="2"></circle><circle cx="538" cy="166" r="2"></circle><circle cx="564" cy="173" r="2"></circle><circle cx="589" cy="168" r="2"></circle><circle cx="614" cy="166" r="2"></circle><circle cx="639" cy="160" r="2"></circle><circle cx="664" cy="148" r="2"></circle><circle cx="689" cy="144" r="2"></circle><circle cx="714" cy="139" r="2"></circle></g></g><g class="key-35-to-44-years_0"><path stroke="#ca2628" stroke-linecap="round" d="M62 276L87 275L112 269L137 263L162 262L187 260L212 255L237 251L262 241L288 231L313 232L338 225L363 220L388 215L413 211L438 213L463 212L488 210L513 206L538 208L564 216L589 217L614 212L639 201L664 196L689 199L714 199" fill="none" stroke-width="1.5"></path><g fill="#ca2628"><circle cx="62" cy="276" r="2"></circle><circle cx="87" cy="275" r="2"></circle><circle cx="112" cy="269" r="2"></circle><circle cx="137" cy="263" r="2"></circle><circle cx="162" cy="262" r="2"></circle><circle cx="187" cy="260" r="2"></circle><circle cx="212" cy="255" r="2"></circle><circle cx="237" cy="251" r="2"></circle><circle cx="262" cy="241" r="2"></circle><circle cx="288" cy="231" r="2"></circle><circle cx="313" cy="232" r="2"></circle><circle cx="338" cy="225" r="2"></circle><circle cx="363" cy="220" r="2"></circle><circle cx="388" cy="215" r="2"></circle><circle cx="413" cy="211" r="2"></circle><circle cx="438" cy="213" r="2"></circle><circle cx="463" cy="212" r="2"></circle><circle cx="488" cy="210" r="2"></circle><circle cx="513" cy="206" r="2"></circle><circle cx="538" cy="208" r="2"></circle><circle cx="564" cy="216" r="2"></circle><circle cx="589" cy="217" r="2"></circle><circle cx="614" cy="212" r="2"></circle><circle cx="639" cy="201" r="2"></circle><circle cx="664" cy="196" r="2"></circle><circle cx="689" cy="199" r="2"></circle><circle cx="714" cy="199" r="2"></circle></g></g><g class="key-45-to-54-years_0"><path stroke="#3360a9" stroke-linecap="round" d="M62 282L87 282L112 283L137 268L162 271L187 271L212 270L237 264L262 258L288 260L313 256L338 251L363 247L388 243L413 236L438 237L463 234L488 229L513 227L538 222L564 223L589 210L614 208L639 204L664 211L689 211L714 200" fill="none" stroke-width="1.5"></path><g fill="#3360a9"><circle cx="62" cy="282" r="2"></circle><circle cx="87" cy="282" r="2"></circle><circle cx="112" cy="283" r="2"></circle><circle cx="137" cy="268" r="2"></circle><circle cx="162" cy="271" r="2"></circle><circle cx="187" cy="271" r="2"></circle><circle cx="212" cy="270" r="2"></circle><circle cx="237" cy="264" r="2"></circle><circle cx="262" cy="258" r="2"></circle><circle cx="288" cy="260" r="2"></circle><circle cx="313" cy="256" r="2"></circle><circle cx="338" cy="251" r="2"></circle><circle cx="363" cy="247" r="2"></circle><circle cx="388" cy="243" r="2"></circle><circle cx="413" cy="236" r="2"></circle><circle cx="438" cy="237" r="2"></circle><circle cx="463" cy="234" r="2"></circle><circle cx="488" cy="229" r="2"></circle><circle cx="513" cy="227" r="2"></circle><circle cx="538" cy="222" r="2"></circle><circle cx="564" cy="223" r="2"></circle><circle cx="589" cy="210" r="2"></circle><circle cx="614" cy="208" r="2"></circle><circle cx="639" cy="204" r="2"></circle><circle cx="664" cy="211" r="2"></circle><circle cx="689" cy="211" r="2"></circle><circle cx="714" cy="200" r="2"></circle></g></g></g></g></g><g class="SourcesFooter" style="fill:#777"><g class="clickable" style="fill:#777"><text font-size="12.60" x="15.0" y="581.6"><tspan x="15" y="581.58">Source: US Bureau of Labor Statistics (2017)</tspan></text></g><text font-size="12.60" x="775.4" y="581.6"><tspan x="775.402" y="581.58"><a style="fill: #777;" class="cclogo" href="http://creativecommons.org/licenses/by-sa/4.0/deed.en_US" target="_blank">CC BY-SA</a></tspan></text></g></g></svg>