<svg xmlns="http://www.w3.org/2000/svg" version="1.1" style="font-family: 'Helvetica Neue', Helvetica, Arial, sans-serif; font-size: 18px; background-color: white; text-rendering: optimizeLegibility; -webkit-font-smoothing: antialiased;" width="850" height="600"><g class="ChartTab"><g class="HeaderView"><g opacity="0.8" transform="translate(770, 15) scale(0.31)"><a xmlns:xlink="http://www.w3.org/1999/xlink" xlink:href="https://ourworldindata.org" target="_blank"><g><rect x="0" y="0" fill="#1B2543" width="211.2" height="130.1"/><rect x="0" y="112.2" fill="#E63912" width="211.2" height="17.9"/><g><rect x="1.2" y="12.3" fill="none" width="210.2" height="99.2"/><path fill="#FFFFFF" d="M37.8,32.2c0,12.7-7.7,19.4-17.1,19.4c-9.7,0-16.6-7.5-16.6-18.7c0-11.7,7.3-19.3,17.1-19.3 C31.3,13.7,37.8,21.3,37.8,32.2z M9.2,32.8c0,7.9,4.3,14.9,11.8,14.9c7.5,0,11.8-6.9,11.8-15.3c0-7.3-3.8-14.9-11.8-14.9 C13.1,17.5,9.2,24.8,9.2,32.8z"/><path fill="#FFFFFF" d="M62.7,43.8c0,2.7,0.1,5.1,0.2,7.2h-4.3l-0.3-4.3h-0.1c-1.3,2.1-4,4.9-8.8,4.9c-4.2,0-9.1-2.3-9.1-11.6 V24.6h4.8v14.6c0,5,1.5,8.4,5.9,8.4c3.2,0,5.5-2.2,6.3-4.4c0.3-0.7,0.4-1.6,0.4-2.5V24.6h4.8V43.8z"/><path fill="#FFFFFF" d="M67.3,32.8c0-3.1-0.1-5.8-0.2-8.2h4.2l0.2,5.2h0.2c1.2-3.5,4.1-5.8,7.3-5.8c0.5,0,0.9,0.1,1.4,0.2v4.5 c-0.5-0.1-1-0.2-1.6-0.2c-3.4,0-5.8,2.6-6.5,6.2c-0.1,0.7-0.2,1.4-0.2,2.2V51h-4.8V32.8z"/><path fill="#FFFFFF" d="M95.4,51l-9.4-36.8h5l4.4,18.6c1.1,4.6,2.1,9.2,2.7,12.7h0.1c0.6-3.7,1.8-8,3-12.8l4.9-18.5h5l4.5,18.7 c1,4.4,2,8.7,2.6,12.6h0.1c0.8-4,1.8-8.1,3-12.7l4.9-18.5h4.9L120.6,51h-5L111,31.9c-1.1-4.7-1.9-8.3-2.4-12h-0.1 c-0.7,3.7-1.5,7.3-2.8,12L100.4,51H95.4z"/><path fill="#FFFFFF" d="M154.9,37.6c0,9.8-6.8,14-13.2,14c-7.2,0-12.7-5.2-12.7-13.6c0-8.8,5.8-14,13.1-14 C149.8,24,154.9,29.5,154.9,37.6z M133.9,37.9c0,5.8,3.3,10.1,8,10.1c4.6,0,8-4.3,8-10.3c0-4.5-2.2-10.1-7.9-10.1 C136.3,27.6,133.9,32.8,133.9,37.9z"/><path fill="#FFFFFF" d="M158.2,32.8c0-3.1-0.1-5.8-0.2-8.2h4.2l0.2,5.2h0.2c1.2-3.5,4.1-5.8,7.3-5.8c0.5,0,0.9,0.1,1.4,0.2v4.5 c-0.5-0.1-1-0.2-1.6-0.2c-3.4,0-5.8,2.6-6.5,6.2c-0.1,0.7-0.2,1.4-0.2,2.2V51h-4.8V32.8z"/><path fill="#FFFFFF" d="M173.5,12.3h4.8V51h-4.8V12.3z"/><path fill="#FFFFFF" d="M206.5,12.3v31.9c0,2.3,0.1,5,0.2,6.8h-4.3l-0.2-4.6H202c-1.5,2.9-4.7,5.2-9,5.2 c-6.4,0-11.3-5.4-11.3-13.4c-0.1-8.8,5.4-14.2,11.9-14.2c4,0,6.8,1.9,8,4h0.1V12.3H206.5z M201.7,35.4c0-0.6-0.1-1.4-0.2-2 c-0.7-3.1-3.3-5.6-6.9-5.6c-5,0-7.9,4.4-7.9,10.2c0,5.3,2.6,9.8,7.8,9.8c3.2,0,6.2-2.1,7.1-5.7c0.2-0.7,0.2-1.3,0.2-2.1V35.4z"/><path fill="#FFFFFF" d="M42.8,64c0.1,1.6-1.1,2.9-3.1,2.9c-1.7,0-2.9-1.3-2.9-2.9c0-1.7,1.3-3,3-3C41.7,61,42.8,62.3,42.8,64z M37.4,97.8V71.4h4.8v26.4H37.4z"/><path fill="#FFFFFF" d="M47.5,78.6c0-2.7-0.1-5-0.2-7.1h4.3l0.3,4.4h0.1c1.3-2.5,4.4-5,8.8-5c3.7,0,9.4,2.2,9.4,11.2v15.8h-4.8 V82.6c0-4.3-1.6-7.8-6.1-7.8c-3.2,0-5.6,2.2-6.5,4.9c-0.2,0.6-0.3,1.4-0.3,2.2v15.9h-4.8V78.6z"/><path fill="#FFFFFF" d="M84,61.6c2.9-0.4,6.3-0.8,10.1-0.8c6.8,0,11.7,1.6,14.9,4.6c3.3,3,5.2,7.3,5.2,13.2c0,6-1.9,10.9-5.3,14.3 c-3.4,3.4-9.1,5.3-16.3,5.3c-3.4,0-6.2-0.2-8.6-0.4V61.6z M88.8,94.1c1.2,0.2,3,0.3,4.8,0.3c10.2,0,15.7-5.7,15.7-15.6 c0.1-8.7-4.9-14.2-14.9-14.2c-2.5,0-4.3,0.2-5.6,0.5V94.1z"/><path fill="#FFFFFF" d="M132.1,97.8l-0.4-3.3h-0.2c-1.5,2.1-4.3,3.9-8.1,3.9c-5.4,0-8.1-3.8-8.1-7.6c0-6.4,5.7-9.9,15.9-9.8v-0.5 c0-2.2-0.6-6.1-6-6.1c-2.5,0-5,0.8-6.9,2l-1.1-3.2c2.2-1.4,5.4-2.3,8.7-2.3c8.1,0,10.1,5.5,10.1,10.8v9.9c0,2.3,0.1,4.5,0.4,6.3 H132.1z M131.4,84.4c-5.3-0.1-11.2,0.8-11.2,5.9c0,3.1,2.1,4.6,4.5,4.6c3.4,0,5.6-2.2,6.4-4.4c0.2-0.5,0.3-1,0.3-1.5V84.4z"/><path fill="#FFFFFF" d="M146.6,63.9v7.6h6.9v3.7h-6.9v14.2c0,3.3,0.9,5.1,3.6,5.1c1.3,0,2.2-0.2,2.8-0.3l0.2,3.6 c-0.9,0.4-2.4,0.7-4.3,0.7c-2.2,0-4-0.7-5.2-2c-1.4-1.4-1.9-3.8-1.9-6.9V75.1h-4.1v-3.7h4.1v-6.3L146.6,63.9z"/><path fill="#FFFFFF" d="M171.4,97.8l-0.4-3.3h-0.2c-1.5,2.1-4.3,3.9-8.1,3.9c-5.4,0-8.1-3.8-8.1-7.6c0-6.4,5.7-9.9,15.9-9.8v-0.5 c0-2.2-0.6-6.1-6-6.1c-2.5,0-5,0.8-6.9,2l-1.1-3.2c2.2-1.4,5.4-2.3,8.7-2.3c8.1,0,10.1,5.5,10.1,10.8v9.9c0,2.3,0.1,4.5,0.4,6.3 H171.4z M170.7,84.4c-5.3-0.1-11.2,0.8-11.2,5.9c0,3.1,2.1,4.6,4.5,4.6c3.4,0,5.6-2.2,6.4-4.4c0.2-0.5,0.3-1,0.3-1.5V84.4z"/></g></g></a></g><a href="https://ourworldindata.org/grapher/world-pop-by-political-regime?stackMode=relative" target="_blank"><text font-size="26.10" x="15.0" y="35.9" fill="#555"><tspan x="15" y="35.879999999999995">Number of world citizens living under different political regimes</tspan></text></a><text font-size="14.40" x="15.0" y="54.6" fill="#666"><tspan x="15" y="54.61999999999999">The Polity IV score captures the type of political regime for each country on a range  from -10 (full autocracy) to +10</tspan><tspan x="15" y="70.46">(full democracy). Regimes that fall into the middle of this spectrum are called anocracies.</tspan></text></g><g class="StackedArea"><defs><clipPath id="boundsClip-352"><rect x="61.634" y="0" width="820" height="897.8"></rect></clipPath></defs><g class="AxisBoxView"><g class="HorizontalAxis"><text x="61.6" y="541.9" fill="#666" text-anchor="middle" font-size="16.2">1816</text><text x="167.6" y="541.9" fill="#666" text-anchor="middle" font-size="16.2">1850</text><text x="323.4" y="541.9" fill="#666" text-anchor="middle" font-size="16.2">1900</text><text x="479.2" y="541.9" fill="#666" text-anchor="middle" font-size="16.2">1950</text><text x="635.1" y="541.9" fill="#666" text-anchor="middle" font-size="16.2">2000</text><text x="681.8" y="541.9" fill="#666" text-anchor="middle" font-size="16.2">2015</text></g><g class="VerticalAxis"><text x="56.63" y="520.7" fill="#666" dominant-baseline="middle" text-anchor="end" font-size="16.2">0%</text><text x="56.63" y="435.2" fill="#666" dominant-baseline="middle" text-anchor="end" font-size="16.2">20%</text><text x="56.63" y="349.6" fill="#666" dominant-baseline="middle" text-anchor="end" font-size="16.2">40%</text><text x="56.63" y="264.1" fill="#666" dominant-baseline="middle" text-anchor="end" font-size="16.2">60%</text><text x="56.63" y="178.5" fill="#666" dominant-baseline="middle" text-anchor="end" font-size="16.2">80%</text><text x="56.63" y="93" fill="#666" dominant-baseline="middle" text-anchor="end" font-size="16.2">100%</text></g><g class="AxisGridLines"><line x1="61.63" y1="520.7" x2="681.80" y2="520.7" stroke="#ccc"></line><line x1="61.63" y1="435.2" x2="681.80" y2="435.2" stroke="#ddd" stroke-dasharray="3,2"></line><line x1="61.63" y1="349.6" x2="681.80" y2="349.6" stroke="#ddd" stroke-dasharray="3,2"></line><line x1="61.63" y1="264.1" x2="681.80" y2="264.1" stroke="#ddd" stroke-dasharray="3,2"></line><line x1="61.63" y1="178.5" x2="681.80" y2="178.5" stroke="#ddd" stroke-dasharray="3,2"></line><line x1="61.63" y1="93" x2="681.80" y2="93" stroke="#ddd" stroke-dasharray="3,2"></line></g><g class="AxisGridLines"><line x1="167.6" y1="520.70" x2="167.6" y2="93.00" stroke="#ddd" stroke-dasharray="3,2"></line><line x1="323.4" y1="520.70" x2="323.4" y2="93.00" stroke="#ddd" stroke-dasharray="3,2"></line><line x1="479.2" y1="520.70" x2="479.2" y2="93.00" stroke="#ddd" stroke-dasharray="3,2"></line><line x1="635.1" y1="520.70" x2="635.1" y2="93.00" stroke="#ddd" stroke-dasharray="3,2"></line></g></g><g clip-path="url(#boundsClip-352)"><g class="HeightedLegend clickable"><g class="legendMark"><rect x="686.8" y="86.85" width="148.20000000000002" height="29.900000000000002" fill="#fff" opacity="0"></rect><rect x="686.8" y="100.55" width="10" height="2.5" fill="#c8c8c8"></rect><text font-size="14.40" x="701.8" y="98.4" fill="#333"><tspan x="701.8" y="98.37">Country in Transition</tspan><tspan x="701.8" y="114.21000000000001">or No Data</tspan></text></g><g class="legendMark"><rect x="686.8" y="116.75" width="147.62400000000002" height="14.4" fill="#fff" opacity="0"></rect><rect x="686.8" y="122.7" width="10" height="2.5" fill="#3f3772"></rect><text font-size="14.40" x="701.8" y="128.3" fill="#333"><tspan x="701.8" y="128.27">Population in Colony</tspan></text></g><g class="legendMark"><rect x="686.8" y="145.35000000000002" width="98.66400000000002" height="29.900000000000002" fill="#fff" opacity="0"></rect><rect x="686.8" y="159.05" width="10" height="2.5" fill="#ca2628"></rect><text font-size="14.40" x="701.8" y="156.9" fill="#333"><tspan x="701.8" y="156.87000000000003">Population in</tspan><tspan x="701.8" y="172.71000000000004">Autocracy</tspan></text></g><g class="legendMark"><rect x="686.8" y="207.85000000000002" width="147.62400000000002" height="29.900000000000002" fill="#fff" opacity="0"></rect><rect x="686.8" y="221.55" width="10" height="2.5" fill="#f07f59"></rect><text font-size="14.40" x="701.8" y="219.4" fill="#333"><tspan x="701.8" y="219.37000000000003">Population in Closed</tspan><tspan x="701.8" y="235.21000000000004">Anocracy</tspan></text></g><g class="legendMark"><rect x="686.8" y="243.85000000000002" width="138.12" height="29.900000000000002" fill="#fff" opacity="0"></rect><rect x="686.8" y="257.55" width="10" height="2.5" fill="#fceb8c"></rect><text font-size="14.40" x="701.8" y="255.4" fill="#333"><tspan x="701.8" y="255.37">Population in Open</tspan><tspan x="701.8" y="271.21">Anocracy</tspan></text></g><g class="legendMark"><rect x="686.8" y="386.45" width="98.66400000000002" height="29.900000000000002" fill="#fff" opacity="0"></rect><rect x="686.8" y="400.15" width="10" height="2.5" fill="#34983f"></rect><text font-size="14.40" x="701.8" y="398.0" fill="#333"><tspan x="701.8" y="397.96999999999997">Population in</tspan><tspan x="701.8" y="413.80999999999995">Democracy</tspan></text></g></g><g class="Areas"><rect x="61.634" y="93" width="620.1659999999999" height="427.70000000000005" opacity="0" fill="rgba(255,255,255,0)"></rect><path stroke-linecap="round" d="M61.6 517L64.8 516.9L67.9 516.9L71 516.8L74.1 516.8L77.2 516.7L80.3 516.5L83.4 516.4L86.6 516.3L89.7 516.2L92.8 516.1L95.9 516L99 515.9L102.1 515.8L105.3 515.7L108.4 515.6L111.5 515.5L114.6 515.3L117.7 515.2L120.8 515.1L124 515L127.1 514.8L130.2 514.7L133.3 514.6L136.4 514.5L139.5 514.3L142.7 514.1L145.8 513.9L148.9 513.7L152 513.6L155.1 513.4L158.2 513.2L161.4 499.9L164.5 499.7L167.6 499.6L170.7 511.7L173.8 511.4L176.9 509.7L180.1 509.5L183.2 509.2L186.3 509L189.4 508.7L192.5 508.5L195.6 508.3L198.8 508.1L201.9 507.9L205 507.6L208.1 507.4L211.2 506.1L214.3 505.9L217.5 505.7L220.6 504.7L223.7 504.5L226.8 504.3L229.9 504.1L233 503.9L236.2 503.6L239.3 503.3L242.4 503.1L245.5 502.7L248.6 491.2L251.7 490.8L254.9 490.6L258 490.3L261.1 481.1L264.2 480.8L267.3 480.4L270.4 480.1L273.6 479.8L276.7 479.5L279.8 480L282.9 479.8L286 478.2L289.1 477.9L292.2 477.6L295.4 477.3L298.5 477.1L301.6 476.8L304.7 476.5L307.8 476.2L310.9 476L314.1 475.7L317.2 474.8L320.3 474.6L323.4 469.5L326.5 468.2L329.6 467.9L332.8 467.6L335.9 467.3L339 466.9L342.1 466.6L345.2 466.2L348.3 465.9L351.5 465.5L354.6 465L357.7 462.6L360.8 462.3L363.9 461.9L367 461.9L370.2 461.4L373.3 461.5L376.4 459.1L379.5 453.7L382.6 438.6L385.7 436.8L388.9 436.9L392 436.8L395.1 441.5L398.2 441.4L401.3 441.4L404.4 447.4L407.6 447.6L410.7 447.8L413.8 448.1L416.9 448.4L420 444.7L423.1 445.1L426.3 460.1L429.4 461L432.5 461.3L435.6 463L438.7 463.2L441.8 463.4L445 469.8L448.1 480.6L451.2 480.6L454.3 480.4L457.4 480.2L460.5 476.5L463.7 473.3L466.8 452.8L469.9 391.4L473 386.8L476.1 388.3L479.2 386.4L482.3 386.9L485.5 373L488.6 373.3L491.7 376.7L494.8 377L497.9 369.6L501 366.3L504.2 370.4L507.3 370L510.4 355.9L513.5 369.7L516.6 371.4L519.7 372.5L522.9 371.7L526 370.7L529.1 378.6L532.2 379.4L535.3 379.8L538.4 377.4L541.6 378.1L544.7 383L547.8 375.9L550.9 363.6L554 371.4L557.1 370.7L560.3 372.6L563.4 380.2L566.5 376.1L569.6 367.4L572.7 370.1L575.8 371.4L579 372.2L582.1 365.4L585.2 372.7L588.3 361.2L591.4 360L594.5 355.6L597.7 343.8L600.8 344.1L603.9 335.4L607 317.5L610.1 307.5L613.2 309.9L616.4 305.4L619.5 306.5L622.6 304.9L625.7 298L628.8 298L631.9 292L635.1 280.9L638.2 277.3L641.3 276.7L644.4 278.3L647.5 276.5L650.6 275.9L653.8 278.4L656.9 297.7L660 295.4L663.1 299.1L666.2 288.6L669.3 283.3L672.5 284.7L675.6 284.4L678.7 294.1L681.8 282L681.8 520.7L61.634 520.7" fill="#34983f" fill-opacity="0.7" class="World_5-area"></path><path stroke-linecap="round" d="M61.6 517L64.8 516.9L67.9 516.9L71 516.8L74.1 516.8L77.2 516.7L80.3 516.5L83.4 516.4L86.6 516.3L89.7 516.2L92.8 515.6L95.9 515.5L99 515.4L102.1 515.3L105.3 515.2L108.4 515L111.5 514.3L114.6 514.2L117.7 514L120.8 514.5L124 513.1L127.1 505.6L130.2 504.6L133.3 504.4L136.4 504.2L139.5 503.9L142.7 505L145.8 504.8L148.9 504.5L152 504.3L155.1 504.1L158.2 503.8L161.4 490.5L164.5 489.9L167.6 489.7L170.7 501.8L173.8 501.5L176.9 499.7L180.1 499.4L183.2 497.5L186.3 497.2L189.4 496.9L192.5 497.6L195.6 497.3L198.8 497.7L201.9 497.4L205 497.2L208.1 495.8L211.2 495.5L214.3 495.2L217.5 495.5L220.6 493.4L223.7 482.5L226.8 482.3L229.9 482L233 476.7L236.2 465L239.3 469.6L242.4 468.6L245.5 468.2L248.6 467.9L251.7 467.5L254.9 467.1L258 461.5L261.1 459.9L264.2 459.5L267.3 459.1L270.4 458.7L273.6 458.4L276.7 458L279.8 457.6L282.9 457.3L286 456.9L289.1 456.5L292.2 443.1L295.4 442.7L298.5 442.3L301.6 441.9L304.7 441.3L307.8 440.9L310.9 440.7L314.1 440.2L317.2 438.8L320.3 438.2L323.4 438.1L326.5 436.6L329.6 435.5L332.8 433.7L335.9 432.6L339 432L342.1 431.4L345.2 430.8L348.3 428.5L351.5 427.8L354.6 424L357.7 423.3L360.8 318.3L363.9 422L367 423L370.2 422.2L373.3 423.5L376.4 419.9L379.5 412.6L382.6 414.7L385.7 412.7L388.9 412.3L392 410.3L395.1 414.8L398.2 415.5L401.3 415.2L404.4 420.1L407.6 420.1L410.7 421.6L413.8 425.1L416.9 424.1L420 424.8L423.1 425.2L426.3 439L429.4 440L432.5 434.2L435.6 436.4L438.7 433.7L441.8 433.8L445 438.9L448.1 449.7L451.2 453.3L454.3 452.8L457.4 454.8L460.5 447.6L463.7 441.7L466.8 416.8L469.9 354.7L473 346.5L476.1 346.9L479.2 356.5L482.3 357.5L485.5 348L488.6 348.1L491.7 348.1L494.8 347.7L497.9 345.1L501 341.8L504.2 349.2L507.3 347.4L510.4 338.1L513.5 342L516.6 338.4L519.7 333.5L522.9 343.9L526 342.9L529.1 351.3L532.2 353.2L535.3 354.7L538.4 351.4L541.6 359.2L544.7 368.4L547.8 363.3L550.9 358L554 361L557.1 360.2L560.3 363.8L563.4 370.7L566.5 365.8L569.6 355.3L572.7 358.8L575.8 360L579 359.2L582.1 352.3L585.2 360.1L588.3 349.4L591.4 342.6L594.5 340.3L597.7 331.9L600.8 328.3L603.9 315.8L607 303.2L610.1 285.8L613.2 283.7L616.4 274.6L619.5 275.6L622.6 275.3L625.7 272L628.8 271.2L631.9 256.5L635.1 255.3L638.2 255.1L641.3 255.2L644.4 251.5L647.5 253.9L650.6 252.6L653.8 254.7L656.9 253.2L660 249.1L663.1 243.1L666.2 240.4L669.3 237.3L672.5 236.2L675.6 233.5L678.7 239.2L681.8 235.6L681.8 282L678.7 294.1L675.6 284.4L672.5 284.7L669.3 283.3L666.2 288.6L663.1 299.1L660 295.4L656.9 297.7L653.8 278.4L650.6 275.9L647.5 276.5L644.4 278.3L641.3 276.7L638.2 277.3L635.1 280.9L631.9 292L628.8 298L625.7 298L622.6 304.9L619.5 306.5L616.4 305.4L613.2 309.9L610.1 307.5L607 317.5L603.9 335.4L600.8 344.1L597.7 343.8L594.5 355.6L591.4 360L588.3 361.2L585.2 372.7L582.1 365.4L579 372.2L575.8 371.4L572.7 370.1L569.6 367.4L566.5 376.1L563.4 380.2L560.3 372.6L557.1 370.7L554 371.4L550.9 363.6L547.8 375.9L544.7 383L541.6 378.1L538.4 377.4L535.3 379.8L532.2 379.4L529.1 378.6L526 370.7L522.9 371.7L519.7 372.5L516.6 371.4L513.5 369.7L510.4 355.9L507.3 370L504.2 370.4L501 366.3L497.9 369.6L494.8 377L491.7 376.7L488.6 373.3L485.5 373L482.3 386.9L479.2 386.4L476.1 388.3L473 386.8L469.9 391.4L466.8 452.8L463.7 473.3L460.5 476.5L457.4 480.2L454.3 480.4L451.2 480.6L448.1 480.6L445 469.8L441.8 463.4L438.7 463.2L435.6 463L432.5 461.3L429.4 461L426.3 460.1L423.1 445.1L420 444.7L416.9 448.4L413.8 448.1L410.7 447.8L407.6 447.6L404.4 447.4L401.3 441.4L398.2 441.4L395.1 441.5L392 436.8L388.9 436.9L385.7 436.8L382.6 438.6L379.5 453.7L376.4 459.1L373.3 461.5L370.2 461.4L367 461.9L363.9 461.9L360.8 462.3L357.7 462.6L354.6 465L351.5 465.5L348.3 465.9L345.2 466.2L342.1 466.6L339 466.9L335.9 467.3L332.8 467.6L329.6 467.9L326.5 468.2L323.4 469.5L320.3 474.6L317.2 474.8L314.1 475.7L310.9 476L307.8 476.2L304.7 476.5L301.6 476.8L298.5 477.1L295.4 477.3L292.2 477.6L289.1 477.9L286 478.2L282.9 479.8L279.8 480L276.7 479.5L273.6 479.8L270.4 480.1L267.3 480.4L264.2 480.8L261.1 481.1L258 490.3L254.9 490.6L251.7 490.8L248.6 491.2L245.5 502.7L242.4 503.1L239.3 503.3L236.2 503.6L233 503.9L229.9 504.1L226.8 504.3L223.7 504.5L220.6 504.7L217.5 505.7L214.3 505.9L211.2 506.1L208.1 507.4L205 507.6L201.9 507.9L198.8 508.1L195.6 508.3L192.5 508.5L189.4 508.7L186.3 509L183.2 509.2L180.1 509.5L176.9 509.7L173.8 511.4L170.7 511.7L167.6 499.6L164.5 499.7L161.4 499.9L158.2 513.2L155.1 513.4L152 513.6L148.9 513.7L145.8 513.9L142.7 514.1L139.5 514.3L136.4 514.5L133.3 514.6L130.2 514.7L127.1 514.8L124 515L120.8 515.1L117.7 515.2L114.6 515.3L111.5 515.5L108.4 515.6L105.3 515.7L102.1 515.8L99 515.9L95.9 516L92.8 516.1L89.7 516.2L86.6 516.3L83.4 516.4L80.3 516.5L77.2 516.7L74.1 516.8L71 516.8L67.9 516.9L64.8 516.9L61.6 517" fill="#fceb8c" fill-opacity="0.7" class="World_4-area"></path><path stroke-linecap="round" d="M61.6 498.4L64.8 498.3L67.9 497.9L71 497.8L74.1 491.3L77.2 490.6L80.3 487.7L83.4 492.4L86.6 492.2L89.7 491.3L92.8 491.1L95.9 490L99 489.8L102.1 489.6L105.3 487.4L108.4 487.2L111.5 486.5L114.6 486.3L117.7 486.1L120.8 485.9L124 480.7L127.1 480.5L130.2 479.2L133.3 478.7L136.4 478.4L139.5 478.5L142.7 477.8L145.8 477.5L148.9 477.2L152 476.9L155.1 477.8L158.2 477.4L161.4 472.8L164.5 472.1L167.6 471.9L170.7 471.7L173.8 483.8L176.9 483.4L180.1 483L183.2 481.3L186.3 480.9L189.4 480.5L192.5 481L195.6 483L198.8 481.7L201.9 471.5L205 460.5L208.1 462.9L211.2 460.2L214.3 459.9L217.5 462.3L220.6 459L223.7 453.7L226.8 429.5L229.9 429.2L233 429.1L236.2 428.3L239.3 427.2L242.4 426.8L245.5 426.2L248.6 425.4L251.7 428.5L254.9 428L258 426.6L261.1 424.3L264.2 425.5L267.3 425L270.4 422.8L273.6 422.2L276.7 421.7L279.8 421.2L282.9 420.8L286 420.3L289.1 415.9L292.2 415.3L295.4 414.8L298.5 414.3L301.6 413.7L304.7 414.1L307.8 413.5L310.9 412.9L314.1 412.2L317.2 411.6L320.3 410.9L323.4 410.7L326.5 409L329.6 407.7L332.8 407.1L335.9 406.3L339 405.6L342.1 402.2L345.2 403L348.3 397L351.5 396.9L354.6 391.7L357.7 283.1L360.8 281.9L363.9 280.3L367 280.6L370.2 279.6L373.3 283.2L376.4 260L379.5 257.5L382.6 258.6L385.7 255.5L388.9 254.3L392 248.2L395.1 274.3L398.2 276.8L401.3 287L404.4 286.5L407.6 287.3L410.7 288.4L413.8 292L416.9 297.3L420 297.5L423.1 305.4L426.3 319.4L429.4 317.3L432.5 321.4L435.6 326.8L438.7 322.7L441.8 324.8L445 325.3L448.1 336.5L451.2 337.8L454.3 331.5L457.4 324L460.5 312.9L463.7 302.4L466.8 303.3L469.9 241.2L473 234.7L476.1 330.1L479.2 325.6L482.3 327.8L485.5 321.2L488.6 320.4L491.7 325L494.8 321.2L497.9 314.8L501 312.2L504.2 324.2L507.3 322.6L510.4 313L513.5 315.6L516.6 312L519.7 307.1L522.9 307.6L526 320.3L529.1 343.7L532.2 346.6L535.3 345.2L538.4 346.4L541.6 345.2L544.7 352L547.8 353.6L550.9 348.7L554 332.3L557.1 340.3L560.3 348.4L563.4 345.3L566.5 325L569.6 321.9L572.7 320.9L575.8 316.7L579 328.4L582.1 325.8L585.2 333.7L588.3 323.3L591.4 311.9L594.5 310.5L597.7 308L600.8 294.3L603.9 284.9L607 262L610.1 245.7L613.2 250.7L616.4 252.3L619.5 250.6L622.6 253.5L625.7 249.4L628.8 224.8L631.9 231.7L635.1 231L638.2 230.6L641.3 222.8L644.4 222.6L647.5 226.9L650.6 219.3L653.8 216.6L656.9 225.6L660 225.4L663.1 216.1L666.2 213.9L669.3 208.4L672.5 209.8L675.6 209.6L678.7 207.3L681.8 210L681.8 235.6L678.7 239.2L675.6 233.5L672.5 236.2L669.3 237.3L666.2 240.4L663.1 243.1L660 249.1L656.9 253.2L653.8 254.7L650.6 252.6L647.5 253.9L644.4 251.5L641.3 255.2L638.2 255.1L635.1 255.3L631.9 256.5L628.8 271.2L625.7 272L622.6 275.3L619.5 275.6L616.4 274.6L613.2 283.7L610.1 285.8L607 303.2L603.9 315.8L600.8 328.3L597.7 331.9L594.5 340.3L591.4 342.6L588.3 349.4L585.2 360.1L582.1 352.3L579 359.2L575.8 360L572.7 358.8L569.6 355.3L566.5 365.8L563.4 370.7L560.3 363.8L557.1 360.2L554 361L550.9 358L547.8 363.3L544.7 368.4L541.6 359.2L538.4 351.4L535.3 354.7L532.2 353.2L529.1 351.3L526 342.9L522.9 343.9L519.7 333.5L516.6 338.4L513.5 342L510.4 338.1L507.3 347.4L504.2 349.2L501 341.8L497.9 345.1L494.8 347.7L491.7 348.1L488.6 348.1L485.5 348L482.3 357.5L479.2 356.5L476.1 346.9L473 346.5L469.9 354.7L466.8 416.8L463.7 441.7L460.5 447.6L457.4 454.8L454.3 452.8L451.2 453.3L448.1 449.7L445 438.9L441.8 433.8L438.7 433.7L435.6 436.4L432.5 434.2L429.4 440L426.3 439L423.1 425.2L420 424.8L416.9 424.1L413.8 425.1L410.7 421.6L407.6 420.1L404.4 420.1L401.3 415.2L398.2 415.5L395.1 414.8L392 410.3L388.9 412.3L385.7 412.7L382.6 414.7L379.5 412.6L376.4 419.9L373.3 423.5L370.2 422.2L367 423L363.9 422L360.8 318.3L357.7 423.3L354.6 424L351.5 427.8L348.3 428.5L345.2 430.8L342.1 431.4L339 432L335.9 432.6L332.8 433.7L329.6 435.5L326.5 436.6L323.4 438.1L320.3 438.2L317.2 438.8L314.1 440.2L310.9 440.7L307.8 440.9L304.7 441.3L301.6 441.9L298.5 442.3L295.4 442.7L292.2 443.1L289.1 456.5L286 456.9L282.9 457.3L279.8 457.6L276.7 458L273.6 458.4L270.4 458.7L267.3 459.1L264.2 459.5L261.1 459.9L258 461.5L254.9 467.1L251.7 467.5L248.6 467.9L245.5 468.2L242.4 468.6L239.3 469.6L236.2 465L233 476.7L229.9 482L226.8 482.3L223.7 482.5L220.6 493.4L217.5 495.5L214.3 495.2L211.2 495.5L208.1 495.8L205 497.2L201.9 497.4L198.8 497.7L195.6 497.3L192.5 497.6L189.4 496.9L186.3 497.2L183.2 497.5L180.1 499.4L176.9 499.7L173.8 501.5L170.7 501.8L167.6 489.7L164.5 489.9L161.4 490.5L158.2 503.8L155.1 504.1L152 504.3L148.9 504.5L145.8 504.8L142.7 505L139.5 503.9L136.4 504.2L133.3 504.4L130.2 504.6L127.1 505.6L124 513.1L120.8 514.5L117.7 514L114.6 514.2L111.5 514.3L108.4 515L105.3 515.2L102.1 515.3L99 515.4L95.9 515.5L92.8 515.6L89.7 516.2L86.6 516.3L83.4 516.4L80.3 516.5L77.2 516.7L74.1 516.8L71 516.8L67.9 516.9L64.8 516.9L61.6 517" fill="#f07f59" fill-opacity="0.7" class="World_3-area"></path><path stroke-linecap="round" d="M61.6 303.4L64.8 302.9L67.9 302.1L71 301.7L74.1 299.6L77.2 298.5L80.3 295.4L83.4 294.8L86.6 292.4L89.7 291.1L92.8 290.6L95.9 289.1L99 288.6L102.1 288.1L105.3 284.7L108.4 285.1L111.5 285L114.6 285.4L117.7 285.9L120.8 286.3L124 286.7L127.1 287.1L130.2 287.4L133.3 287.5L136.4 287.9L139.5 288.7L142.7 288.7L145.8 289.1L148.9 289.5L152 289.9L155.1 293L158.2 293.4L161.4 290.5L164.5 291L167.6 291.5L170.7 293.1L173.8 294.8L176.9 296.3L180.1 297.7L183.2 297.6L186.3 299.1L189.4 300.4L192.5 301.7L195.6 300.3L198.8 301.6L201.9 294.1L205 294.9L208.1 298.4L211.2 296.4L214.3 297.2L217.5 298L220.6 295.8L223.7 284.6L226.8 285.2L229.9 286.1L233 286.1L236.2 285.9L239.3 285.6L242.4 285.3L245.5 284.9L248.6 284.5L251.7 284L254.9 283.6L258 282.4L261.1 282L264.2 282.4L267.3 282L270.4 280.7L273.6 280.3L276.7 279.9L279.8 279.5L282.9 279.1L286 278.7L289.1 278.3L292.2 277.9L295.4 277.3L298.5 276.8L301.6 276.2L304.7 275.6L307.8 274.9L310.9 274.3L314.1 273.6L317.2 272.9L320.3 272.2L323.4 271.6L326.5 269.8L329.6 268.5L332.8 267.6L335.9 266.8L339 266L342.1 265.2L345.2 264.4L348.3 263.4L351.5 262.4L354.6 259.9L357.7 258.3L360.8 257L363.9 257.6L367 256.7L370.2 255.6L373.3 259.1L376.4 253.6L379.5 250.4L382.6 251.4L385.7 249.1L388.9 248.3L392 242.1L395.1 260.2L398.2 259.8L401.3 259.9L404.4 260L407.6 260.8L410.7 261.5L413.8 262.5L416.9 263.4L420 264.1L423.1 264.8L426.3 265.6L429.4 266.5L432.5 264.7L435.6 268.3L438.7 268.7L441.8 268.9L445 270.4L448.1 273.5L451.2 280L454.3 273.5L457.4 272.8L460.5 269.1L463.7 278.1L466.8 277.6L469.9 209.8L473 202L476.1 201.5L479.2 199.5L482.3 198.8L485.5 184.6L488.6 183.7L491.7 183.3L494.8 183.2L497.9 181.7L501 178.9L504.2 179L507.3 177.9L510.4 162.3L513.5 159.7L516.6 156.9L519.7 156.2L522.9 155.4L526 155.1L529.1 154.6L532.2 154.2L535.3 153.6L538.4 153L541.6 151.8L544.7 151.2L547.8 143L550.9 142.5L554 142L557.1 139.4L560.3 139.1L563.4 133.4L566.5 133.1L569.6 136L572.7 134.4L575.8 134L579 133.6L582.1 133.3L585.2 133L588.3 132.7L591.4 132.6L594.5 132.4L597.7 131.6L600.8 130.5L603.9 123.4L607 111.1L610.1 100.2L613.2 98.8L616.4 103L619.5 103.1L622.6 103.1L625.7 103.1L628.8 103L631.9 103L635.1 103L638.2 104.7L641.3 104.9L644.4 106.8L647.5 107.1L650.6 107.1L653.8 106.7L656.9 107L660 107.4L663.1 107.8L666.2 106.2L669.3 106.6L672.5 108.6L675.6 109L678.7 107.4L681.8 110.7L681.8 210L678.7 207.3L675.6 209.6L672.5 209.8L669.3 208.4L666.2 213.9L663.1 216.1L660 225.4L656.9 225.6L653.8 216.6L650.6 219.3L647.5 226.9L644.4 222.6L641.3 222.8L638.2 230.6L635.1 231L631.9 231.7L628.8 224.8L625.7 249.4L622.6 253.5L619.5 250.6L616.4 252.3L613.2 250.7L610.1 245.7L607 262L603.9 284.9L600.8 294.3L597.7 308L594.5 310.5L591.4 311.9L588.3 323.3L585.2 333.7L582.1 325.8L579 328.4L575.8 316.7L572.7 320.9L569.6 321.9L566.5 325L563.4 345.3L560.3 348.4L557.1 340.3L554 332.3L550.9 348.7L547.8 353.6L544.7 352L541.6 345.2L538.4 346.4L535.3 345.2L532.2 346.6L529.1 343.7L526 320.3L522.9 307.6L519.7 307.1L516.6 312L513.5 315.6L510.4 313L507.3 322.6L504.2 324.2L501 312.2L497.9 314.8L494.8 321.2L491.7 325L488.6 320.4L485.5 321.2L482.3 327.8L479.2 325.6L476.1 330.1L473 234.7L469.9 241.2L466.8 303.3L463.7 302.4L460.5 312.9L457.4 324L454.3 331.5L451.2 337.8L448.1 336.5L445 325.3L441.8 324.8L438.7 322.7L435.6 326.8L432.5 321.4L429.4 317.3L426.3 319.4L423.1 305.4L420 297.5L416.9 297.3L413.8 292L410.7 288.4L407.6 287.3L404.4 286.5L401.3 287L398.2 276.8L395.1 274.3L392 248.2L388.9 254.3L385.7 255.5L382.6 258.6L379.5 257.5L376.4 260L373.3 283.2L370.2 279.6L367 280.6L363.9 280.3L360.8 281.9L357.7 283.1L354.6 391.7L351.5 396.9L348.3 397L345.2 403L342.1 402.2L339 405.6L335.9 406.3L332.8 407.1L329.6 407.7L326.5 409L323.4 410.7L320.3 410.9L317.2 411.6L314.1 412.2L310.9 412.9L307.8 413.5L304.7 414.1L301.6 413.7L298.5 414.3L295.4 414.8L292.2 415.3L289.1 415.9L286 420.3L282.9 420.8L279.8 421.2L276.7 421.7L273.6 422.2L270.4 422.8L267.3 425L264.2 425.5L261.1 424.3L258 426.6L254.9 428L251.7 428.5L248.6 425.4L245.5 426.2L242.4 426.8L239.3 427.2L236.2 428.3L233 429.1L229.9 429.2L226.8 429.5L223.7 453.7L220.6 459L217.5 462.3L214.3 459.9L211.2 460.2L208.1 462.9L205 460.5L201.9 471.5L198.8 481.7L195.6 483L192.5 481L189.4 480.5L186.3 480.9L183.2 481.3L180.1 483L176.9 483.4L173.8 483.8L170.7 471.7L167.6 471.9L164.5 472.1L161.4 472.8L158.2 477.4L155.1 477.8L152 476.9L148.9 477.2L145.8 477.5L142.7 477.8L139.5 478.5L136.4 478.4L133.3 478.7L130.2 479.2L127.1 480.5L124 480.7L120.8 485.9L117.7 486.1L114.6 486.3L111.5 486.5L108.4 487.2L105.3 487.4L102.1 489.6L99 489.8L95.9 490L92.8 491.1L89.7 491.3L86.6 492.2L83.4 492.4L80.3 487.7L77.2 490.6L74.1 491.3L71 497.8L67.9 497.9L64.8 498.3L61.6 498.4" fill="#ca2628" fill-opacity="0.7" class="World_2-area"></path><path stroke-linecap="round" d="M61.6 140.8L64.8 141.1L67.9 139.7L71 139.6L74.1 138.3L77.2 139.6L80.3 138.1L83.4 137.5L86.6 135.5L89.7 134.2L92.8 133.5L95.9 132.9L99 132.4L102.1 132.1L105.3 131.2L108.4 131.6L111.5 131.4L114.6 131.9L117.7 132.3L120.8 132.7L124 133.1L127.1 133.4L130.2 133.7L133.3 133.7L136.4 134.1L139.5 134.9L142.7 134.8L145.8 135.2L148.9 135.6L152 136L155.1 139.1L158.2 139.5L161.4 136.7L164.5 137.3L167.6 137.8L170.7 139.4L173.8 141L176.9 142.4L180.1 143.7L183.2 143.6L186.3 144.9L189.4 146.2L192.5 147.4L195.6 148.6L198.8 149.8L201.9 150.6L205 151.3L208.1 154.8L211.2 152.8L214.3 153.5L217.5 154.2L220.6 154.8L223.7 143.6L226.8 144.2L229.9 144.6L233 144.4L236.2 143.9L239.3 143.4L242.4 142.8L245.5 142.3L248.6 141.7L251.7 141L254.9 140.4L258 139.8L261.1 139.2L264.2 139.5L267.3 138.9L270.4 137.1L273.6 135.6L276.7 135L279.8 133.3L282.9 132.7L286 132.1L289.1 131.5L292.2 130L295.4 129.3L298.5 128.6L301.6 128L304.7 127.2L307.8 126.3L310.9 125.5L314.1 124.6L317.2 123.8L320.3 122.9L323.4 122.1L326.5 121.2L329.6 120.2L332.8 119.3L335.9 118.4L339 117.5L342.1 116.5L345.2 115.7L348.3 114.4L351.5 113.3L354.6 112.1L357.7 107.8L360.8 106.4L363.9 105.8L367 102.7L370.2 102.8L373.3 106.3L376.4 101.6L379.5 105L382.6 112.6L385.7 111.3L388.9 104.2L392 101.3L395.1 119.6L398.2 120.4L401.3 120.9L404.4 121.5L407.6 122.7L410.7 123.9L413.8 125.4L416.9 126.3L420 127L423.1 127.6L426.3 128.2L429.4 128.9L432.5 129.4L435.6 132.7L438.7 132.7L441.8 132.4L445 133.2L448.1 135.5L451.2 137.3L454.3 142.4L457.4 140.9L460.5 139.7L463.7 150.9L466.8 149.8L469.9 153.2L473 146.6L476.1 146.2L479.2 144.6L482.3 143.8L485.5 129.5L488.6 129.5L491.7 128.9L494.8 128.6L497.9 130.4L501 129.4L504.2 129.8L507.3 128.6L510.4 127.6L513.5 127L516.6 127.1L519.7 127.5L522.9 127.6L526 127.9L529.1 127.7L532.2 128L535.3 127.5L538.4 127L541.6 125.9L544.7 133.2L547.8 125.1L550.9 124.8L554 124.4L557.1 124.1L560.3 123.8L563.4 118.3L566.5 118.1L569.6 121.1L572.7 119.6L575.8 119.4L579 119.1L582.1 118.8L585.2 118.6L588.3 118.5L591.4 118.4L594.5 118.4L597.7 117.7L600.8 116.7L603.9 109.8L607 109.7L610.1 99L613.2 98.8L616.4 103L619.5 103.1L622.6 103.1L625.7 103.1L628.8 103L631.9 103L635.1 103L638.2 104.7L641.3 104.9L644.4 106.8L647.5 107.1L650.6 107.1L653.8 106.7L656.9 107L660 107.4L663.1 107.8L666.2 106.2L669.3 106.6L672.5 108.6L675.6 109L678.7 107.4L681.8 110.7L681.8 110.7L678.7 107.4L675.6 109L672.5 108.6L669.3 106.6L666.2 106.2L663.1 107.8L660 107.4L656.9 107L653.8 106.7L650.6 107.1L647.5 107.1L644.4 106.8L641.3 104.9L638.2 104.7L635.1 103L631.9 103L628.8 103L625.7 103.1L622.6 103.1L619.5 103.1L616.4 103L613.2 98.8L610.1 100.2L607 111.1L603.9 123.4L600.8 130.5L597.7 131.6L594.5 132.4L591.4 132.6L588.3 132.7L585.2 133L582.1 133.3L579 133.6L575.8 134L572.7 134.4L569.6 136L566.5 133.1L563.4 133.4L560.3 139.1L557.1 139.4L554 142L550.9 142.5L547.8 143L544.7 151.2L541.6 151.8L538.4 153L535.3 153.6L532.2 154.2L529.1 154.6L526 155.1L522.9 155.4L519.7 156.2L516.6 156.9L513.5 159.7L510.4 162.3L507.3 177.9L504.2 179L501 178.9L497.9 181.7L494.8 183.2L491.7 183.3L488.6 183.7L485.5 184.6L482.3 198.8L479.2 199.5L476.1 201.5L473 202L469.9 209.8L466.8 277.6L463.7 278.1L460.5 269.1L457.4 272.8L454.3 273.5L451.2 280L448.1 273.5L445 270.4L441.8 268.9L438.7 268.7L435.6 268.3L432.5 264.7L429.4 266.5L426.3 265.6L423.1 264.8L420 264.1L416.9 263.4L413.8 262.5L410.7 261.5L407.6 260.8L404.4 260L401.3 259.9L398.2 259.8L395.1 260.2L392 242.1L388.9 248.3L385.7 249.1L382.6 251.4L379.5 250.4L376.4 253.6L373.3 259.1L370.2 255.6L367 256.7L363.9 257.6L360.8 257L357.7 258.3L354.6 259.9L351.5 262.4L348.3 263.4L345.2 264.4L342.1 265.2L339 266L335.9 266.8L332.8 267.6L329.6 268.5L326.5 269.8L323.4 271.6L320.3 272.2L317.2 272.9L314.1 273.6L310.9 274.3L307.8 274.9L304.7 275.6L301.6 276.2L298.5 276.8L295.4 277.3L292.2 277.9L289.1 278.3L286 278.7L282.9 279.1L279.8 279.5L276.7 279.9L273.6 280.3L270.4 280.7L267.3 282L264.2 282.4L261.1 282L258 282.4L254.9 283.6L251.7 284L248.6 284.5L245.5 284.9L242.4 285.3L239.3 285.6L236.2 285.9L233 286.1L229.9 286.1L226.8 285.2L223.7 284.6L220.6 295.8L217.5 298L214.3 297.2L211.2 296.4L208.1 298.4L205 294.9L201.9 294.1L198.8 301.6L195.6 300.3L192.5 301.7L189.4 300.4L186.3 299.1L183.2 297.6L180.1 297.7L176.9 296.3L173.8 294.8L170.7 293.1L167.6 291.5L164.5 291L161.4 290.5L158.2 293.4L155.1 293L152 289.9L148.9 289.5L145.8 289.1L142.7 288.7L139.5 288.7L136.4 287.9L133.3 287.5L130.2 287.4L127.1 287.1L124 286.7L120.8 286.3L117.7 285.9L114.6 285.4L111.5 285L108.4 285.1L105.3 284.7L102.1 288.1L99 288.6L95.9 289.1L92.8 290.6L89.7 291.1L86.6 292.4L83.4 294.8L80.3 295.4L77.2 298.5L74.1 299.6L71 301.7L67.9 302.1L64.8 302.9L61.6 303.4" fill="#3f3772" fill-opacity="0.7" class="World_1-area"></path><path stroke-linecap="round" d="M61.6 93L64.8 93L67.9 93L71 93L74.1 93L77.2 93L80.3 93L83.4 93L86.6 93L89.7 93L92.8 93L95.9 93L99 93L102.1 93L105.3 93L108.4 93L111.5 93L114.6 93L117.7 93L120.8 93L124 93L127.1 93L130.2 93L133.3 93L136.4 93L139.5 93L142.7 93L145.8 93L148.9 93L152 93L155.1 93L158.2 93L161.4 93L164.5 93L167.6 93L170.7 93L173.8 93L176.9 93L180.1 93L183.2 93L186.3 93L189.4 93L192.5 93L195.6 93L198.8 93L201.9 93L205 93L208.1 93L211.2 93L214.3 93L217.5 93L220.6 93L223.7 93L226.8 93L229.9 93L233 93L236.2 93L239.3 93L242.4 93L245.5 93L248.6 93L251.7 93L254.9 93L258 93L261.1 93L264.2 93L267.3 93L270.4 93L273.6 93L276.7 93L279.8 93L282.9 93L286 93L289.1 93L292.2 93L295.4 93L298.5 93L301.6 93L304.7 93L307.8 93L310.9 93L314.1 93L317.2 93L320.3 93L323.4 93L326.5 93L329.6 93L332.8 93L335.9 93L339 93L342.1 93L345.2 93L348.3 93L351.5 93L354.6 93L357.7 93L360.8 93L363.9 93L367 93L370.2 93L373.3 93L376.4 93L379.5 93L382.6 93L385.7 93L388.9 93L392 93L395.1 93L398.2 93L401.3 93L404.4 93L407.6 93L410.7 93L413.8 93L416.9 93L420 93L423.1 93L426.3 93L429.4 93L432.5 93L435.6 93L438.7 93L441.8 93L445 93L448.1 93L451.2 93L454.3 93L457.4 93L460.5 93L463.7 93L466.8 93L469.9 93L473 93L476.1 93L479.2 93L482.3 93L485.5 93L488.6 93L491.7 93L494.8 93L497.9 93L501 93L504.2 93L507.3 93L510.4 93L513.5 93L516.6 93L519.7 93L522.9 93L526 93L529.1 93L532.2 93L535.3 93L538.4 93L541.6 93L544.7 93L547.8 93L550.9 93L554 93L557.1 93L560.3 93L563.4 93L566.5 93L569.6 93L572.7 93L575.8 93L579 93L582.1 93L585.2 93L588.3 93L591.4 93L594.5 93L597.7 93L600.8 93L603.9 93L607 93L610.1 93L613.2 93L616.4 93L619.5 93L622.6 93L625.7 93L628.8 93L631.9 93L635.1 93L638.2 93L641.3 93L644.4 93L647.5 93L650.6 93L653.8 93L656.9 93L660 93L663.1 93L666.2 93L669.3 93L672.5 93L675.6 93L678.7 93L681.8 93L681.8 110.7L678.7 107.4L675.6 109L672.5 108.6L669.3 106.6L666.2 106.2L663.1 107.8L660 107.4L656.9 107L653.8 106.7L650.6 107.1L647.5 107.1L644.4 106.8L641.3 104.9L638.2 104.7L635.1 103L631.9 103L628.8 103L625.7 103.1L622.6 103.1L619.5 103.1L616.4 103L613.2 98.8L610.1 99L607 109.7L603.9 109.8L600.8 116.7L597.7 117.7L594.5 118.4L591.4 118.4L588.3 118.5L585.2 118.6L582.1 118.8L579 119.1L575.8 119.4L572.7 119.6L569.6 121.1L566.5 118.1L563.4 118.3L560.3 123.8L557.1 124.1L554 124.4L550.9 124.8L547.8 125.1L544.7 133.2L541.6 125.9L538.4 127L535.3 127.5L532.2 128L529.1 127.7L526 127.9L522.9 127.6L519.7 127.5L516.6 127.1L513.5 127L510.4 127.6L507.3 128.6L504.2 129.8L501 129.4L497.9 130.4L494.8 128.6L491.7 128.9L488.6 129.5L485.5 129.5L482.3 143.8L479.2 144.6L476.1 146.2L473 146.6L469.9 153.2L466.8 149.8L463.7 150.9L460.5 139.7L457.4 140.9L454.3 142.4L451.2 137.3L448.1 135.5L445 133.2L441.8 132.4L438.7 132.7L435.6 132.7L432.5 129.4L429.4 128.9L426.3 128.2L423.1 127.6L420 127L416.9 126.3L413.8 125.4L410.7 123.9L407.6 122.7L404.4 121.5L401.3 120.9L398.2 120.4L395.1 119.6L392 101.3L388.9 104.2L385.7 111.3L382.6 112.6L379.5 105L376.4 101.6L373.3 106.3L370.2 102.8L367 102.7L363.9 105.8L360.8 106.4L357.7 107.8L354.6 112.1L351.5 113.3L348.3 114.4L345.2 115.7L342.1 116.5L339 117.5L335.9 118.4L332.8 119.3L329.6 120.2L326.5 121.2L323.4 122.1L320.3 122.9L317.2 123.8L314.1 124.6L310.9 125.5L307.8 126.3L304.7 127.2L301.6 128L298.5 128.6L295.4 129.3L292.2 130L289.1 131.5L286 132.1L282.9 132.7L279.8 133.3L276.7 135L273.6 135.6L270.4 137.1L267.3 138.9L264.2 139.5L261.1 139.2L258 139.8L254.9 140.4L251.7 141L248.6 141.7L245.5 142.3L242.4 142.8L239.3 143.4L236.2 143.9L233 144.4L229.9 144.6L226.8 144.2L223.7 143.6L220.6 154.8L217.5 154.2L214.3 153.5L211.2 152.8L208.1 154.8L205 151.3L201.9 150.6L198.8 149.8L195.6 148.6L192.5 147.4L189.4 146.2L186.3 144.9L183.2 143.6L180.1 143.7L176.9 142.4L173.8 141L170.7 139.4L167.6 137.8L164.5 137.3L161.4 136.7L158.2 139.5L155.1 139.1L152 136L148.9 135.6L145.8 135.2L142.7 134.8L139.5 134.9L136.4 134.1L133.3 133.7L130.2 133.7L127.1 133.4L124 133.1L120.8 132.7L117.7 132.3L114.6 131.9L111.5 131.4L108.4 131.6L105.3 131.2L102.1 132.1L99 132.4L95.9 132.9L92.8 133.5L89.7 134.2L86.6 135.5L83.4 137.5L80.3 138.1L77.2 139.6L74.1 138.3L71 139.6L67.9 139.7L64.8 141.1L61.6 140.8" fill="#c8c8c8" fill-opacity="0.7" class="World_0-area"></path><path stroke-linecap="round" d="M61.6 517L64.8 516.9L67.9 516.9L71 516.8L74.1 516.8L77.2 516.7L80.3 516.5L83.4 516.4L86.6 516.3L89.7 516.2L92.8 516.1L95.9 516L99 515.9L102.1 515.8L105.3 515.7L108.4 515.6L111.5 515.5L114.6 515.3L117.7 515.2L120.8 515.1L124 515L127.1 514.8L130.2 514.7L133.3 514.6L136.4 514.5L139.5 514.3L142.7 514.1L145.8 513.9L148.9 513.7L152 513.6L155.1 513.4L158.2 513.2L161.4 499.9L164.5 499.7L167.6 499.6L170.7 511.7L173.8 511.4L176.9 509.7L180.1 509.5L183.2 509.2L186.3 509L189.4 508.7L192.5 508.5L195.6 508.3L198.8 508.1L201.9 507.9L205 507.6L208.1 507.4L211.2 506.1L214.3 505.9L217.5 505.7L220.6 504.7L223.7 504.5L226.8 504.3L229.9 504.1L233 503.9L236.2 503.6L239.3 503.3L242.4 503.1L245.5 502.7L248.6 491.2L251.7 490.8L254.9 490.6L258 490.3L261.1 481.1L264.2 480.8L267.3 480.4L270.4 480.1L273.6 479.8L276.7 479.5L279.8 480L282.9 479.8L286 478.2L289.1 477.9L292.2 477.6L295.4 477.3L298.5 477.1L301.6 476.8L304.7 476.5L307.8 476.2L310.9 476L314.1 475.7L317.2 474.8L320.3 474.6L323.4 469.5L326.5 468.2L329.6 467.9L332.8 467.6L335.9 467.3L339 466.9L342.1 466.6L345.2 466.2L348.3 465.9L351.5 465.5L354.6 465L357.7 462.6L360.8 462.3L363.9 461.9L367 461.9L370.2 461.4L373.3 461.5L376.4 459.1L379.5 453.7L382.6 438.6L385.7 436.8L388.9 436.9L392 436.8L395.1 441.5L398.2 441.4L401.3 441.4L404.4 447.4L407.6 447.6L410.7 447.8L413.8 448.1L416.9 448.4L420 444.7L423.1 445.1L426.3 460.1L429.4 461L432.5 461.3L435.6 463L438.7 463.2L441.8 463.4L445 469.8L448.1 480.6L451.2 480.6L454.3 480.4L457.4 480.2L460.5 476.5L463.7 473.3L466.8 452.8L469.9 391.4L473 386.8L476.1 388.3L479.2 386.4L482.3 386.9L485.5 373L488.6 373.3L491.7 376.7L494.8 377L497.9 369.6L501 366.3L504.2 370.4L507.3 370L510.4 355.9L513.5 369.7L516.6 371.4L519.7 372.5L522.9 371.7L526 370.7L529.1 378.6L532.2 379.4L535.3 379.8L538.4 377.4L541.6 378.1L544.7 383L547.8 375.9L550.9 363.6L554 371.4L557.1 370.7L560.3 372.6L563.4 380.2L566.5 376.1L569.6 367.4L572.7 370.1L575.8 371.4L579 372.2L582.1 365.4L585.2 372.7L588.3 361.2L591.4 360L594.5 355.6L597.7 343.8L600.8 344.1L603.9 335.4L607 317.5L610.1 307.5L613.2 309.9L616.4 305.4L619.5 306.5L622.6 304.9L625.7 298L628.8 298L631.9 292L635.1 280.9L638.2 277.3L641.3 276.7L644.4 278.3L647.5 276.5L650.6 275.9L653.8 278.4L656.9 297.7L660 295.4L663.1 299.1L666.2 288.6L669.3 283.3L672.5 284.7L675.6 284.4L678.7 294.1L681.8 282" stroke="rgb(44, 127, 53)" stroke-opacity="0.7" stroke-width="0.5" fill="none" class="World_5-border"></path><path stroke-linecap="round" d="M61.6 517L64.8 516.9L67.9 516.9L71 516.8L74.1 516.8L77.2 516.7L80.3 516.5L83.4 516.4L86.6 516.3L89.7 516.2L92.8 515.6L95.9 515.5L99 515.4L102.1 515.3L105.3 515.2L108.4 515L111.5 514.3L114.6 514.2L117.7 514L120.8 514.5L124 513.1L127.1 505.6L130.2 504.6L133.3 504.4L136.4 504.2L139.5 503.9L142.7 505L145.8 504.8L148.9 504.5L152 504.3L155.1 504.1L158.2 503.8L161.4 490.5L164.5 489.9L167.6 489.7L170.7 501.8L173.8 501.5L176.9 499.7L180.1 499.4L183.2 497.5L186.3 497.2L189.4 496.9L192.5 497.6L195.6 497.3L198.8 497.7L201.9 497.4L205 497.2L208.1 495.8L211.2 495.5L214.3 495.2L217.5 495.5L220.6 493.4L223.7 482.5L226.8 482.3L229.9 482L233 476.7L236.2 465L239.3 469.6L242.4 468.6L245.5 468.2L248.6 467.9L251.7 467.5L254.9 467.1L258 461.5L261.1 459.9L264.2 459.5L267.3 459.1L270.4 458.7L273.6 458.4L276.7 458L279.8 457.6L282.9 457.3L286 456.9L289.1 456.5L292.2 443.1L295.4 442.7L298.5 442.3L301.6 441.9L304.7 441.3L307.8 440.9L310.9 440.7L314.1 440.2L317.2 438.8L320.3 438.2L323.4 438.1L326.5 436.6L329.6 435.5L332.8 433.7L335.9 432.6L339 432L342.1 431.4L345.2 430.8L348.3 428.5L351.5 427.8L354.6 424L357.7 423.3L360.8 318.3L363.9 422L367 423L370.2 422.2L373.3 423.5L376.4 419.9L379.5 412.6L382.6 414.7L385.7 412.7L388.9 412.3L392 410.3L395.1 414.8L398.2 415.5L401.3 415.2L404.4 420.1L407.6 420.1L410.7 421.6L413.8 425.1L416.9 424.1L420 424.8L423.1 425.2L426.3 439L429.4 440L432.5 434.2L435.6 436.4L438.7 433.7L441.8 433.8L445 438.9L448.1 449.7L451.2 453.3L454.3 452.8L457.4 454.8L460.5 447.6L463.7 441.7L466.8 416.8L469.9 354.7L473 346.5L476.1 346.9L479.2 356.5L482.3 357.5L485.5 348L488.6 348.1L491.7 348.1L494.8 347.7L497.9 345.1L501 341.8L504.2 349.2L507.3 347.4L510.4 338.1L513.5 342L516.6 338.4L519.7 333.5L522.9 343.9L526 342.9L529.1 351.3L532.2 353.2L535.3 354.7L538.4 351.4L541.6 359.2L544.7 368.4L547.8 363.3L550.9 358L554 361L557.1 360.2L560.3 363.8L563.4 370.7L566.5 365.8L569.6 355.3L572.7 358.8L575.8 360L579 359.2L582.1 352.3L585.2 360.1L588.3 349.4L591.4 342.6L594.5 340.3L597.7 331.9L600.8 328.3L603.9 315.8L607 303.2L610.1 285.8L613.2 283.7L616.4 274.6L619.5 275.6L622.6 275.3L625.7 272L628.8 271.2L631.9 256.5L635.1 255.3L638.2 255.1L641.3 255.2L644.4 251.5L647.5 253.9L650.6 252.6L653.8 254.7L656.9 253.2L660 249.1L663.1 243.1L666.2 240.4L669.3 237.3L672.5 236.2L675.6 233.5L678.7 239.2L681.8 235.6" stroke="rgb(211, 197, 117)" stroke-opacity="0.7" stroke-width="0.5" fill="none" class="World_4-border"></path><path stroke-linecap="round" d="M61.6 498.4L64.8 498.3L67.9 497.9L71 497.8L74.1 491.3L77.2 490.6L80.3 487.7L83.4 492.4L86.6 492.2L89.7 491.3L92.8 491.1L95.9 490L99 489.8L102.1 489.6L105.3 487.4L108.4 487.2L111.5 486.5L114.6 486.3L117.7 486.1L120.8 485.9L124 480.7L127.1 480.5L130.2 479.2L133.3 478.7L136.4 478.4L139.5 478.5L142.7 477.8L145.8 477.5L148.9 477.2L152 476.9L155.1 477.8L158.2 477.4L161.4 472.8L164.5 472.1L167.6 471.9L170.7 471.7L173.8 483.8L176.9 483.4L180.1 483L183.2 481.3L186.3 480.9L189.4 480.5L192.5 481L195.6 483L198.8 481.7L201.9 471.5L205 460.5L208.1 462.9L211.2 460.2L214.3 459.9L217.5 462.3L220.6 459L223.7 453.7L226.8 429.5L229.9 429.2L233 429.1L236.2 428.3L239.3 427.2L242.4 426.8L245.5 426.2L248.6 425.4L251.7 428.5L254.9 428L258 426.6L261.1 424.3L264.2 425.5L267.3 425L270.4 422.8L273.6 422.2L276.7 421.7L279.8 421.2L282.9 420.8L286 420.3L289.1 415.9L292.2 415.3L295.4 414.8L298.5 414.3L301.6 413.7L304.7 414.1L307.8 413.5L310.9 412.9L314.1 412.2L317.2 411.6L320.3 410.9L323.4 410.7L326.5 409L329.6 407.7L332.8 407.1L335.9 406.3L339 405.6L342.1 402.2L345.2 403L348.3 397L351.5 396.9L354.6 391.7L357.7 283.1L360.8 281.9L363.9 280.3L367 280.6L370.2 279.6L373.3 283.2L376.4 260L379.5 257.5L382.6 258.6L385.7 255.5L388.9 254.3L392 248.2L395.1 274.3L398.2 276.8L401.3 287L404.4 286.5L407.6 287.3L410.7 288.4L413.8 292L416.9 297.3L420 297.5L423.1 305.4L426.3 319.4L429.4 317.3L432.5 321.4L435.6 326.8L438.7 322.7L441.8 324.8L445 325.3L448.1 336.5L451.2 337.8L454.3 331.5L457.4 324L460.5 312.9L463.7 302.4L466.8 303.3L469.9 241.2L473 234.7L476.1 330.1L479.2 325.6L482.3 327.8L485.5 321.2L488.6 320.4L491.7 325L494.8 321.2L497.9 314.8L501 312.2L504.2 324.2L507.3 322.6L510.4 313L513.5 315.6L516.6 312L519.7 307.1L522.9 307.6L526 320.3L529.1 343.7L532.2 346.6L535.3 345.2L538.4 346.4L541.6 345.2L544.7 352L547.8 353.6L550.9 348.7L554 332.3L557.1 340.3L560.3 348.4L563.4 345.3L566.5 325L569.6 321.9L572.7 320.9L575.8 316.7L579 328.4L582.1 325.8L585.2 333.7L588.3 323.3L591.4 311.9L594.5 310.5L597.7 308L600.8 294.3L603.9 284.9L607 262L610.1 245.7L613.2 250.7L616.4 252.3L619.5 250.6L622.6 253.5L625.7 249.4L628.8 224.8L631.9 231.7L635.1 231L638.2 230.6L641.3 222.8L644.4 222.6L647.5 226.9L650.6 219.3L653.8 216.6L656.9 225.6L660 225.4L663.1 216.1L666.2 213.9L669.3 208.4L672.5 209.8L675.6 209.6L678.7 207.3L681.8 210" stroke="rgb(201, 106, 74)" stroke-opacity="0.7" stroke-width="0.5" fill="none" class="World_3-border"></path><path stroke-linecap="round" d="M61.6 303.4L64.8 302.9L67.9 302.1L71 301.7L74.1 299.6L77.2 298.5L80.3 295.4L83.4 294.8L86.6 292.4L89.7 291.1L92.8 290.6L95.9 289.1L99 288.6L102.1 288.1L105.3 284.7L108.4 285.1L111.5 285L114.6 285.4L117.7 285.9L120.8 286.3L124 286.7L127.1 287.1L130.2 287.4L133.3 287.5L136.4 287.9L139.5 288.7L142.7 288.7L145.8 289.1L148.9 289.5L152 289.9L155.1 293L158.2 293.4L161.4 290.5L164.5 291L167.6 291.5L170.7 293.1L173.8 294.8L176.9 296.3L180.1 297.7L183.2 297.6L186.3 299.1L189.4 300.4L192.5 301.7L195.6 300.3L198.8 301.6L201.9 294.1L205 294.9L208.1 298.4L211.2 296.4L214.3 297.2L217.5 298L220.6 295.8L223.7 284.6L226.8 285.2L229.9 286.1L233 286.1L236.2 285.9L239.3 285.6L242.4 285.3L245.5 284.9L248.6 284.5L251.7 284L254.9 283.6L258 282.4L261.1 282L264.2 282.4L267.3 282L270.4 280.7L273.6 280.3L276.7 279.9L279.8 279.5L282.9 279.1L286 278.7L289.1 278.3L292.2 277.9L295.4 277.3L298.5 276.8L301.6 276.2L304.7 275.6L307.8 274.9L310.9 274.3L314.1 273.6L317.2 272.9L320.3 272.2L323.4 271.6L326.5 269.8L329.6 268.5L332.8 267.6L335.9 266.8L339 266L342.1 265.2L345.2 264.4L348.3 263.4L351.5 262.4L354.6 259.9L357.7 258.3L360.8 257L363.9 257.6L367 256.7L370.2 255.6L373.3 259.1L376.4 253.6L379.5 250.4L382.6 251.4L385.7 249.1L388.9 248.3L392 242.1L395.1 260.2L398.2 259.8L401.3 259.9L404.4 260L407.6 260.8L410.7 261.5L413.8 262.5L416.9 263.4L420 264.1L423.1 264.8L426.3 265.6L429.4 266.5L432.5 264.7L435.6 268.3L438.7 268.7L441.8 268.9L445 270.4L448.1 273.5L451.2 280L454.3 273.5L457.4 272.8L460.5 269.1L463.7 278.1L466.8 277.6L469.9 209.8L473 202L476.1 201.5L479.2 199.5L482.3 198.8L485.5 184.6L488.6 183.7L491.7 183.3L494.8 183.2L497.9 181.7L501 178.9L504.2 179L507.3 177.9L510.4 162.3L513.5 159.7L516.6 156.9L519.7 156.2L522.9 155.4L526 155.1L529.1 154.6L532.2 154.2L535.3 153.6L538.4 153L541.6 151.8L544.7 151.2L547.8 143L550.9 142.5L554 142L557.1 139.4L560.3 139.1L563.4 133.4L566.5 133.1L569.6 136L572.7 134.4L575.8 134L579 133.6L582.1 133.3L585.2 133L588.3 132.7L591.4 132.6L594.5 132.4L597.7 131.6L600.8 130.5L603.9 123.4L607 111.1L610.1 100.2L613.2 98.8L616.4 103L619.5 103.1L622.6 103.1L625.7 103.1L628.8 103L631.9 103L635.1 103L638.2 104.7L641.3 104.9L644.4 106.8L647.5 107.1L650.6 107.1L653.8 106.7L656.9 107L660 107.4L663.1 107.8L666.2 106.2L669.3 106.6L672.5 108.6L675.6 109L678.7 107.4L681.8 110.7" stroke="rgb(169, 32, 33)" stroke-opacity="0.7" stroke-width="0.5" fill="none" class="World_2-border"></path><path stroke-linecap="round" d="M61.6 140.8L64.8 141.1L67.9 139.7L71 139.6L74.1 138.3L77.2 139.6L80.3 138.1L83.4 137.5L86.6 135.5L89.7 134.2L92.8 133.5L95.9 132.9L99 132.4L102.1 132.1L105.3 131.2L108.4 131.6L111.5 131.4L114.6 131.9L117.7 132.3L120.8 132.7L124 133.1L127.1 133.4L130.2 133.7L133.3 133.7L136.4 134.1L139.5 134.9L142.7 134.8L145.8 135.2L148.9 135.6L152 136L155.1 139.1L158.2 139.5L161.4 136.7L164.5 137.3L167.6 137.8L170.7 139.4L173.8 141L176.9 142.4L180.1 143.7L183.2 143.6L186.3 144.9L189.4 146.2L192.5 147.4L195.6 148.6L198.8 149.8L201.9 150.6L205 151.3L208.1 154.8L211.2 152.8L214.3 153.5L217.5 154.2L220.6 154.8L223.7 143.6L226.8 144.2L229.9 144.6L233 144.4L236.2 143.9L239.3 143.4L242.4 142.8L245.5 142.3L248.6 141.7L251.7 141L254.9 140.4L258 139.8L261.1 139.2L264.2 139.5L267.3 138.9L270.4 137.1L273.6 135.6L276.7 135L279.8 133.3L282.9 132.7L286 132.1L289.1 131.5L292.2 130L295.4 129.3L298.5 128.6L301.6 128L304.7 127.2L307.8 126.3L310.9 125.5L314.1 124.6L317.2 123.8L320.3 122.9L323.4 122.1L326.5 121.2L329.6 120.2L332.8 119.3L335.9 118.4L339 117.5L342.1 116.5L345.2 115.7L348.3 114.4L351.5 113.3L354.6 112.1L357.7 107.8L360.8 106.4L363.9 105.8L367 102.7L370.2 102.8L373.3 106.3L376.4 101.6L379.5 105L382.6 112.6L385.7 111.3L388.9 104.2L392 101.3L395.1 119.6L398.2 120.4L401.3 120.9L404.4 121.5L407.6 122.7L410.7 123.9L413.8 125.4L416.9 126.3L420 127L423.1 127.6L426.3 128.2L429.4 128.9L432.5 129.4L435.6 132.7L438.7 132.7L441.8 132.4L445 133.2L448.1 135.5L451.2 137.3L454.3 142.4L457.4 140.9L460.5 139.7L463.7 150.9L466.8 149.8L469.9 153.2L473 146.6L476.1 146.2L479.2 144.6L482.3 143.8L485.5 129.5L488.6 129.5L491.7 128.9L494.8 128.6L497.9 130.4L501 129.4L504.2 129.8L507.3 128.6L510.4 127.6L513.5 127L516.6 127.1L519.7 127.5L522.9 127.6L526 127.9L529.1 127.7L532.2 128L535.3 127.5L538.4 127L541.6 125.9L544.7 133.2L547.8 125.1L550.9 124.8L554 124.4L557.1 124.1L560.3 123.8L563.4 118.3L566.5 118.1L569.6 121.1L572.7 119.6L575.8 119.4L579 119.1L582.1 118.8L585.2 118.6L588.3 118.5L591.4 118.4L594.5 118.4L597.7 117.7L600.8 116.7L603.9 109.8L607 109.7L610.1 99L613.2 98.8L616.4 103L619.5 103.1L622.6 103.1L625.7 103.1L628.8 103L631.9 103L635.1 103L638.2 104.7L641.3 104.9L644.4 106.8L647.5 107.1L650.6 107.1L653.8 106.7L656.9 107L660 107.4L663.1 107.8L666.2 106.2L669.3 106.6L672.5 108.6L675.6 109L678.7 107.4L681.8 110.7" stroke="rgb(53, 46, 95)" stroke-opacity="0.7" stroke-width="0.5" fill="none" class="World_1-border"></path><path stroke-linecap="round" d="M61.6 93L64.8 93L67.9 93L71 93L74.1 93L77.2 93L80.3 93L83.4 93L86.6 93L89.7 93L92.8 93L95.9 93L99 93L102.1 93L105.3 93L108.4 93L111.5 93L114.6 93L117.7 93L120.8 93L124 93L127.1 93L130.2 93L133.3 93L136.4 93L139.5 93L142.7 93L145.8 93L148.9 93L152 93L155.1 93L158.2 93L161.4 93L164.5 93L167.6 93L170.7 93L173.8 93L176.9 93L180.1 93L183.2 93L186.3 93L189.4 93L192.5 93L195.6 93L198.8 93L201.9 93L205 93L208.1 93L211.2 93L214.3 93L217.5 93L220.6 93L223.7 93L226.8 93L229.9 93L233 93L236.2 93L239.3 93L242.4 93L245.5 93L248.6 93L251.7 93L254.9 93L258 93L261.1 93L264.2 93L267.3 93L270.4 93L273.6 93L276.7 93L279.8 93L282.9 93L286 93L289.1 93L292.2 93L295.4 93L298.5 93L301.6 93L304.7 93L307.8 93L310.9 93L314.1 93L317.2 93L320.3 93L323.4 93L326.5 93L329.6 93L332.8 93L335.9 93L339 93L342.1 93L345.2 93L348.3 93L351.5 93L354.6 93L357.7 93L360.8 93L363.9 93L367 93L370.2 93L373.3 93L376.4 93L379.5 93L382.6 93L385.7 93L388.9 93L392 93L395.1 93L398.2 93L401.3 93L404.4 93L407.6 93L410.7 93L413.8 93L416.9 93L420 93L423.1 93L426.3 93L429.4 93L432.5 93L435.6 93L438.7 93L441.8 93L445 93L448.1 93L451.2 93L454.3 93L457.4 93L460.5 93L463.7 93L466.8 93L469.9 93L473 93L476.1 93L479.2 93L482.3 93L485.5 93L488.6 93L491.7 93L494.8 93L497.9 93L501 93L504.2 93L507.3 93L510.4 93L513.5 93L516.6 93L519.7 93L522.9 93L526 93L529.1 93L532.2 93L535.3 93L538.4 93L541.6 93L544.7 93L547.8 93L550.9 93L554 93L557.1 93L560.3 93L563.4 93L566.5 93L569.6 93L572.7 93L575.8 93L579 93L582.1 93L585.2 93L588.3 93L591.4 93L594.5 93L597.7 93L600.8 93L603.9 93L607 93L610.1 93L613.2 93L616.4 93L619.5 93L622.6 93L625.7 93L628.8 93L631.9 93L635.1 93L638.2 93L641.3 93L644.4 93L647.5 93L650.6 93L653.8 93L656.9 93L660 93L663.1 93L666.2 93L669.3 93L672.5 93L675.6 93L678.7 93L681.8 93" stroke="rgb(167, 167, 167)" stroke-opacity="0.7" stroke-width="0.5" fill="none" class="World_0-border"></path></g></g></g><g style="fill: #777;" class="SourcesFooter"><g style="fill: #777;" class="clickable"><text font-size="12.60" x="15.0" y="567.0"><tspan x="15" y="566.98">Source: World Population by Political Regime they live in (OWID (2016))</tspan></text></g><text font-size="12.60" x="15.0" y="582.5"><tspan x="15" y="582.48"><a target='_blank' style='fill: #777;' href='https://ourworldindata.org/a-history-of-global-living-conditions-in-5-charts/'>OurWorldInData.org/a-history-of-global-living-conditions-in-5-charts/</a> • <a style="fill: #777;" href="http://creativecommons.org/licenses/by-sa/4.0/deed.en_US" target="_blank">CC BY-SA</a></tspan></text></g></g></svg>